<?xml version="1.0" encoding="UTF-8" standalone="no"?><!DOCTYPE svg PUBLIC "-//W3C//DTD SVG 1.1//EN" "http://www.w3.org/Graphics/SVG/1.1/DTD/svg11.dtd"><svg width="100%" height="100%" viewBox="0 0 63 57" version="1.1" xmlns="http://www.w3.org/2000/svg" xmlns:xlink="http://www.w3.org/1999/xlink" xml:space="preserve" xmlns:serif="http://www.serif.com/" style="fill-rule:evenodd;clip-rule:evenodd;stroke-linejoin:round;stroke-miterlimit:2;"><g id="Background"><path d="M5.927,16.867c14.689,-26.305 48.649,-11.394 43.985,-6.914c-0.301,0.289 -6.005,6.244 -7.721,5.463c-0.482,-0.219 -17.386,-10.797 -26.344,7.879c-6.754,-4.835 -6.461,-5.274 -9.92,-6.428Z" style="fill:#e84134;"/><path d="M15.629,33.102c6.749,13.791 19.37,12.37 26.794,8.147c0.479,0.725 1.15,1.74 8.594,7.091c-10.662,9.669 -35.205,9.838 -44.992,-8.657c3.565,-1.374 6.876,-4.374 9.604,-6.581Z" style="fill:#33a752;"/><path d="M42.423,41.249c7.082,-6.406 4.363,-7.702 3.628,-7.753c-2.811,-0.198 -13.372,1.011 -14.025,-1.326c-0.001,-0.003 0.081,-7.979 0.096,-8.04c0.391,-1.603 2.064,-1.21 20.774,-1.209c3.461,0 7.876,-1.86 6.898,7.527c-1.178,11.31 -4.402,13.856 -8.776,17.893c-7.444,-5.351 -8.115,-6.366 -8.594,-7.091Z" style="fill:#4285f4;"/><path d="M5.927,16.867c3.459,1.154 3.166,1.593 9.92,6.428c-1.084,4.87 -1.069,4.869 -0.218,9.807c-2.728,2.207 -6.039,5.208 -9.604,6.581c-0.766,-1.743 -6.19,-10.233 -0.098,-22.816Z" style="fill:#f9ba05;"/></g></svg>