<?xml version="1.0" encoding="UTF-8" standalone="no"?><!DOCTYPE svg PUBLIC "-//W3C//DTD SVG 1.1//EN" "http://www.w3.org/Graphics/SVG/1.1/DTD/svg11.dtd"><svg width="100%" height="100%" viewBox="0 0 2048 2048" version="1.1" xmlns="http://www.w3.org/2000/svg" xmlns:xlink="http://www.w3.org/1999/xlink" xml:space="preserve" xmlns:serif="http://www.serif.com/" style="fill-rule:evenodd;clip-rule:evenodd;stroke-linejoin:round;stroke-miterlimit:2;"><g id="Background"><path d="M189.293,825.196c12.618,-76.292 40.211,-111.491 300.126,-158.835c200.967,-36.607 218.137,-35.387 227.252,-54.502c161.253,-338.175 227.421,-545.64 365.771,-458.556c82.798,52.117 241.184,454.278 257.42,469.227c9.164,8.438 231.009,43.724 295.396,57.319c184.424,38.942 246.938,87.43 218.934,193.682c-29.311,111.211 -278.063,340.657 -311.028,388.587c-12.73,18.509 8.729,96.487 27.25,232.705c27.831,204.692 50.808,343.175 -73.189,371.533c-95.387,21.815 -417.354,-190.817 -468.886,-208.884c-12.611,-4.421 -96.314,53.383 -231.305,124.519c-153.152,80.707 -258.078,127.138 -318.88,31.043c-55.507,-87.727 26.905,-438.718 33.806,-534.623c0.858,-11.93 -3.214,-16.511 -35.147,-51.605c-199.233,-218.957 -283.187,-289.636 -287.518,-401.61Z" style="fill:#b5775e;"/><path d="M249.204,777.422c93.289,-66.626 341.345,-83.54 468.392,-116.283c25.473,-6.565 43.249,-62.949 88.733,-159.272c120.411,-255 172.159,-362.529 244.732,-325.703c84.408,42.831 223.423,412.483 261.286,469.19c22.505,33.706 218.224,38.393 412.839,96.32c-4.655,4.982 -4.098,6.175 -10.717,6.749c-4.682,0.405 -4.057,-1.9 -8.781,-2.096c-36.186,-1.498 -44.259,-10.736 -86.783,-7.444c-14.353,1.111 -14.131,-0.517 -28.615,-0.254c-10.112,0.184 -13.126,8.495 -19.396,5.555c-6.031,-2.828 -11.504,-0.317 -19.224,-1.69c-12.875,-2.289 -10.965,4.351 -42.409,44.408c-6.161,7.586 -2.043,10.402 -9.565,16.769c-16.129,13.653 -46.332,57.919 -121.088,128.254c-211.058,198.577 -424.642,243.845 -542.71,276.612c-15.535,4.311 -100.058,17.819 -108.782,19.214c-43.53,6.957 -100.798,10.659 -105.875,12.271c-5.12,1.625 -8.352,-5.577 -14.664,-6.913c-29.322,-81.628 -118.586,-144.455 -161.805,-184.917c-82.772,-77.491 -151.144,-115.135 -215.06,-223.04l-3.268,-1.949l-3.474,-1.516c2.804,-9.759 3.479,-25.495 26.232,-44.263Z" style="fill:#fbe69c;"/><path d="M1725.187,741.674c75.165,26.191 87.48,37.423 100.122,72.995c-25.276,12.009 -40.521,67.99 -125.018,135.493c-8.183,6.537 -7.252,7.455 -99.34,85.787c-22.691,19.302 -125.491,111.548 -142.757,156.438c-14.212,36.951 -9.758,38.434 -11.427,41.388c-1.043,1.846 -3.918,1.853 -4.961,3.698c-3.039,-12.5 -0.217,-13.122 -5.302,-24.76c-6.508,-14.895 -2.846,25.118 -13.594,34.193c-5.06,4.273 -5.312,3.008 -11.775,5c0.068,0.824 0.137,1.648 0.205,2.472c1.577,1.58 0.875,2.05 2.885,2.891c17.308,7.239 13.94,11.684 15.712,31.331c1.806,20.031 10.613,-15.702 11.282,-17.534c0.184,0.285 4.07,-2.039 5.472,10.694c0.919,8.342 22.849,157.967 26.321,195.902c11.805,128.962 19.118,130.069 3.429,181.312c-26.258,85.763 -130.612,27.404 -165.801,12.307c-137.275,-58.897 -190.374,-128.717 -278.944,-144.316c-16.978,-2.99 -45.452,-8.005 -198.513,88.584c-92.729,58.517 -184.936,94.656 -195.876,96.522c-98.208,16.75 -68.053,-157.645 -56.716,-244.562c22.404,-171.762 34.994,-191.517 25.987,-234.402c6.312,1.336 9.544,8.538 14.664,6.913c5.077,-1.612 62.345,-5.314 105.875,-12.271c8.724,-1.394 93.247,-14.902 108.782,-19.214c118.068,-32.767 331.651,-78.035 542.71,-276.612c74.756,-70.335 104.959,-114.601 121.088,-128.254c7.522,-6.367 3.403,-9.183 9.565,-16.769c31.443,-40.057 29.533,-46.697 42.409,-44.408c7.72,1.373 13.193,-1.138 19.224,1.69c6.27,2.94 9.284,-5.371 19.396,-5.555c14.484,-0.263 14.262,1.365 28.615,0.254c42.524,-3.292 50.597,5.946 86.783,7.444c4.725,0.196 4.099,2.501 8.781,2.096c6.62,-0.573 6.063,-1.767 10.717,-6.749Z" style="fill:#f9d57e;"/><path d="M1825.308,814.669c0.7,5.591 2.591,9.171 1.027,27.518c-9.305,109.154 -299.759,361.117 -317.215,411.893c-16.909,49.184 56.782,339.894 48.823,487.897c-3.043,56.588 -36.815,80.716 -64.326,88.034c-72.984,19.413 -356.329,-159.33 -446.163,-203.904c-41.24,-20.463 -88.01,29.063 -217.084,96.827c-158.022,82.963 -255.834,143.413 -314.149,83.273c-57.721,-59.528 5.807,-338.728 26.34,-497.033c8.516,-65.655 -2.714,-67.408 -98.956,-170.371c-196.341,-210.053 -226.238,-264.514 -220.634,-317.118l3.474,1.516l3.268,1.949c63.915,107.904 132.288,145.549 215.06,223.04c43.219,40.462 132.483,103.289 161.805,184.917c9.008,42.886 -3.583,62.641 -25.987,234.402c-11.337,86.917 -41.492,261.312 56.716,244.562c10.94,-1.866 103.146,-38.005 195.876,-96.522c153.062,-96.589 181.535,-91.574 198.513,-88.584c88.569,15.599 141.669,85.419 278.944,144.316c35.189,15.098 139.543,73.456 165.801,-12.307c15.689,-51.243 8.376,-52.35 -3.429,-181.312c-3.472,-37.935 -25.402,-187.559 -26.321,-195.902c-1.403,-12.733 -5.288,-10.409 -5.472,-10.694c14.825,-17.259 18.646,-12.403 19.105,-14.339c0.078,-0.331 0.884,-3.729 0.105,-4.264c-10,-6.865 -11.843,-4.279 -18.623,-14.989c1.043,-1.846 3.918,-1.853 4.961,-3.698c1.669,-2.954 -2.786,-4.437 11.427,-41.388c17.266,-44.89 120.066,-137.136 142.757,-156.438c92.088,-78.333 91.156,-79.25 99.34,-85.787c84.498,-67.503 99.742,-123.484 125.018,-135.493Z" style="fill:#f2bc6b;"/><path d="M945.801,427.317c0.949,-1.248 14.075,-25.322 31.646,-22.632c19.725,3.019 31.313,21.114 -8.995,115.312c-50.844,118.822 -69.942,119.039 -80.955,119.164c-25.02,0.284 -12.857,-96.124 58.303,-211.844Z" style="fill:#fcf5c7;"/><path d="M1337.917,1546.532c-0.723,6.866 -2.466,39.187 -10.038,29.676c-12.082,-15.177 14.64,-97.077 -71.317,-116.539c-40.467,-9.162 9.86,-12.167 22.07,-17.148c66.833,-27.264 35.295,-130.624 54.923,-112.809c8.286,7.521 -8.235,97.328 60.778,117.368c16.613,4.824 33.707,-4.171 22.837,10.223c-4.175,5.529 -59.736,-3.9 -74.139,61.475c-0.485,2.203 -0.379,2.056 -5.114,27.754Z" style="fill:#fdf5b5;"/><path d="M553.241,900.273c26.825,-37.105 18.037,-93.93 29.565,-85.755c3.048,2.161 1.647,3.034 4.22,27.607c10.351,98.836 79.424,73.143 79.347,89.512c-0.038,8.021 -3.951,4.343 -19.272,8.102c-79.677,19.548 -50.794,101.972 -64.618,108.362c-8.614,3.982 -8.436,-24.691 -8.716,-27.306c-11.088,-103.363 -84.172,-73.698 -78.233,-92.909c4.445,-14.377 20.055,10.961 57.708,-27.612Z" style="fill:#fcfacf;"/><path d="M-0,1377.895c8.932,-35.246 96.091,-51.002 165.188,-73.076c61.897,-19.774 43.223,20.878 40.498,23.535c-7.352,7.164 -18.813,18.335 -114.159,52.595c-81.475,29.276 -87.182,15.523 -91.527,-3.053Z" style="fill:#e3b772;"/><path d="M1586.918,387.646c-6.823,-1.731 -10.943,-1.283 -13.606,-12.174c-5.244,-21.45 81.977,-130.237 93.979,-144.203c51.985,-60.486 56.128,-8.163 55.629,-3.422c-1.561,14.859 -47.391,75.244 -72.093,102.588c-34.421,38.103 -38.336,49.943 -63.909,57.21Z" style="fill:#e1b66d;"/><path d="M1827.1,1715.061c-35.794,-34.736 -36.518,-33.686 -49.632,-49.96c-24.958,-30.972 -50.989,-58.736 -17.387,-67.961c14.55,-3.995 114.51,83.829 127.289,107.777c12.683,23.769 -7.935,63.251 -60.269,10.144Z" style="fill:#e5bc7e;"/><path d="M155.854,1153.721c-29.781,-0.49 -43.16,-1.66 -102.422,-20.408c-34.726,-10.986 -28.274,-55.577 21.984,-42.658c64.398,16.554 65.054,19.477 84.274,28.273c41.28,18.891 8.73,33.235 -3.837,34.792Z" style="fill:#e4ba73;"/><path d="M1414.899,279.149c0.769,-47.562 0.766,-47.555 0.784,-48.18c0.177,-6.282 3.142,-9.456 3.239,-13.595c0.094,-3.972 0.601,-25.483 9.495,-48.616c18.354,-47.737 50.067,-12.326 40.169,28.084c-4.181,17.069 -2.119,17.283 -6.269,34.422c-10.467,43.223 -9.455,43.441 -14.441,54.272c-7.26,15.774 -26.162,36.068 -32.977,-6.388Z" style="fill:#e1b566;"/><path d="M285.103,1495.023c-7.508,15.111 -67.58,114.784 -93.459,98.283c-42.181,-26.897 70.453,-127.674 82.979,-127.361c18.477,0.462 12.688,9.466 10.48,29.078Z" style="fill:#e4b974;"/><path d="M1785.54,504.613c-48.916,14.117 -102.179,28.689 -93.262,-2.411c5.906,-20.597 141.399,-84.403 141.025,-34.169c-0.173,23.322 -41.468,34.053 -47.764,36.581Z" style="fill:#e0b36d;"/><path d="M266.374,1796.964c10.098,-56.198 60.535,-34.216 66.858,-10.61c12.88,48.085 -60.709,79.075 -66.858,10.61Z" style="fill:#e6be86;"/><path d="M2010.498,1495.992c5.536,0.428 24.285,-4.434 36.083,22.347c3.402,7.721 0.768,27.547 -8.789,36.65c-43.528,41.457 -82.584,-48.72 -27.294,-58.997Z" style="fill:#e4c292;"/><path d="M668.079,162.467c-1.374,18.771 1.303,21.093 -12.592,32.966c-36.499,31.189 -82.139,-51.42 -18.437,-65.078c3.455,-0.741 16.651,3.7 21.348,9.222c8.179,9.614 7.492,10.125 9.68,22.889Z" style="fill:#e3c597;"/><path d="M1599.755,897.275c-16.629,26.034 -4.289,40.759 -12.619,41.849c-13.239,1.731 5.44,-42.616 -29.417,-51.057c-9.619,-2.329 -17.651,0.94 -12.104,-7.657c4.222,-6.544 30.398,4.574 34.826,-38.098c0.134,-1.287 2.909,-28.04 8.663,-13.266c7.947,20.407 -7.518,36.391 32.691,48.638c19.127,5.826 -4.601,6.248 -22.04,19.592Z" style="fill:#fdf1b7;"/><path d="M681.967,1467.107c18.949,-15.495 11.835,-38.379 14.236,-43.818c11.658,-26.407 -3.769,41.149 33.933,47.652c23.113,3.987 -1.924,10.912 -2.758,11.143c-24.174,6.687 -20.839,32.223 -23.216,43.355c-0.967,4.529 -6.463,7.504 -7.833,-3.643c-4.519,-36.763 -11.392,-34.527 -32.925,-42.22c-15.97,-5.706 3.047,-5.804 18.563,-12.468Z" style="fill:#fcefaa;"/><path d="M731.887,785.625c9.18,29.294 2.321,37.931 30.089,47.197c5.179,1.728 6.428,6.94 2.882,8.387c-7.797,3.182 -8.131,0.857 -15.522,4.301c-19.907,9.277 -11.472,51.367 -22.593,41.789c-4.877,-4.2 5.424,-40.396 -26.587,-46.755c-21.61,-4.293 9.783,-8.206 16.15,-16.528c13.973,-18.264 3.883,-40.476 15.58,-38.393Z" style="fill:#fdf9d2;"/><path d="M1029.214,308.938c38.427,31.641 -24.92,77.671 -34.975,28.438c-3.986,-19.518 11.114,-40.359 34.975,-28.438Z" style="fill:#fcf4c6;"/><path d="M264.944,552.717c-45.984,-5.584 -19.652,-68.577 12.479,-42.954c8.967,7.15 15.55,39.336 -12.479,42.954Z" style="fill:#e4c799;"/><path d="M1949.565,1102.46c-2.951,-0.85 -13.738,-1.459 -18.332,-16.659c-2.591,-8.573 0.435,-19.317 3.361,-22.479c31.865,-34.452 61.899,38.243 14.971,39.138Z" style="fill:#e1c398;"/><path d="M1441.805,1237.473c6.78,10.71 8.622,8.124 18.623,14.989c0.779,0.535 -0.027,3.933 -0.105,4.264c-0.459,1.936 -4.28,-2.919 -19.105,14.339c-0.669,1.832 -9.476,37.565 -11.282,17.534c-1.771,-19.647 1.596,-24.092 -15.712,-31.331c-2.01,-0.841 -1.308,-1.311 -2.885,-2.891l-0.205,-2.472c6.463,-1.992 6.715,-0.727 11.775,-5c10.748,-9.075 7.086,-49.088 13.594,-34.193c5.085,11.639 2.263,12.261 5.302,24.76Z" style="fill:#fcf3b8;"/><path d="M682.931,1067.843c-0.017,-0.28 -3.725,-4.487 2.14,-6.034c25.343,-6.686 13.998,-23.405 20.261,-29.29c8.511,-7.996 5.1,3.122 7.046,15.016c2.853,17.436 31.803,14.108 15.571,22.458c-12.899,6.636 -13.634,7.473 -15.216,22.614c-0.989,9.461 -8.142,10.042 -9.038,0.744c-2.031,-21.081 -5.478,-20.564 -20.764,-25.508Z" style="fill:#fdf8d2;"/><path d="M1393.112,1628.721c0.014,-0.162 -1.408,-13.683 10.752,-17.717c8.172,-2.711 14.431,1.347 15.191,2.036c19.544,17.726 -17.776,53.239 -25.944,15.682Z" style="fill:#fde9a1;"/><path d="M430.514,886.209c5.584,-7.603 4.903,-9.713 14.106,-9.927c6.495,-0.151 12.209,5.68 13.55,10.356c8.263,28.812 -38.904,30.582 -27.656,-0.429Z" style="fill:#fcf5c2;"/><path d="M836.901,702.516c7.422,0.564 7.089,1.805 18.909,1.437c18.163,-0.565 -0.103,30.894 -16.141,17.608c-8.766,-7.262 -9.331,-9.434 -2.768,-19.045Z" style="fill:#fdf6c4;"/><path d="M1303.309,783.055c-24.059,20.32 -25.863,-21.612 -8.327,-21.931c17.435,-0.318 9.037,20.196 8.327,21.931Z" style="fill:#fdf9d3;"/><path d="M1471.842,980.75c24.75,-3.668 13.843,28.242 -0.492,23.093c-17.702,-6.359 -0.817,-21.888 0.492,-23.093Z" style="fill:#fdefb5;"/><path d="M828.107,1422.863c0.206,-1.2 2.506,-14.565 10.867,-9.865c9.932,5.583 -1.407,32.217 -10.867,9.865Z" style="fill:#fcf3b3;"/></g></svg>