<?xml version="1.0" encoding="UTF-8" standalone="no"?><!DOCTYPE svg PUBLIC "-//W3C//DTD SVG 1.1//EN" "http://www.w3.org/Graphics/SVG/1.1/DTD/svg11.dtd"><svg width="100%" height="100%" viewBox="0 0 1024 1024" version="1.1" xmlns="http://www.w3.org/2000/svg" xmlns:xlink="http://www.w3.org/1999/xlink" xml:space="preserve" xmlns:serif="http://www.serif.com/" style="fill-rule:evenodd;clip-rule:evenodd;stroke-linejoin:round;stroke-miterlimit:2;"><g id="Background"><path d="M716.413,412.978c9.654,0.839 11.196,3.448 17.403,-4.128c16.478,-20.114 28.197,-19.227 31.561,-27.286c19.46,-46.625 42.299,-63.654 99.611,-52.939c37.587,7.027 101.56,42.325 105.573,74.226c2.648,21.047 -4.759,87.705 -39.354,95.816c-25.075,5.879 -30.917,-6.441 -41.404,8.45c-31.011,44.037 -79.144,41.99 -86.796,46.134c-25.531,13.825 -28.231,13.13 -27.198,18.459c5.728,29.567 19.412,98.027 -34.501,150.629c-10.331,10.08 -43.428,31.187 -86.054,33.745c-4.54,0.272 -14.916,1.885 -9.897,-2.046c7.93,-6.211 37.331,-45.999 31.966,-46.884c-20.333,-3.353 -73.48,10.3 -74.838,12.297c-3.667,5.395 -12.072,38.192 -52.217,76.464c-21.414,20.415 -26.42,16.714 -28.522,27.139c-10.172,50.44 -53.74,67.365 -67.99,79.775c-28.691,24.988 -66.669,54.363 -110.301,51.311c-9.907,-0.693 -45.755,-7.757 -25.59,-47.915c18.818,-37.476 45.379,-62.811 55.386,-69.074c4.124,-2.581 4.681,-2.292 6.458,-7.684c10.423,-31.622 43.973,-50.233 49.023,-53.034c2.644,-1.466 4.756,-2.638 19.423,-32.459c0.822,-1.672 0.444,-2.156 -1.435,-2.309c-26.809,-2.184 -27.905,-2.139 -28.297,0.095c-3.677,20.975 -7.049,19.716 -26.382,48.596c-36.323,54.258 -91.353,85.785 -103.583,33.761c-7.542,-32.086 2.549,-49.657 -1.442,-55.258c-3.239,-4.546 -25.259,-27.729 -14.671,-73.457c8.634,-37.286 37.3,-48.013 25.892,-47.061c-7.531,0.628 -27.552,-4.749 -28.337,-4.384c-3.731,1.731 -25.188,19.797 -56.967,14.964c-53.044,-8.067 -49.796,-97.24 -116.931,-81.516c-3.545,0.83 -24.255,5.681 -39.688,22.313c-2.343,2.525 -2.405,3.613 -3.35,2.533c-0.195,-0.222 2.113,-19.442 3.81,-27.339c3.5,-16.282 22.903,-106.555 125.292,-166.084c100.369,-58.355 187.849,-35.932 203.628,-32.707c4.782,0.977 5.555,2.077 5.928,0.372c0.262,-1.198 -16.667,-21.096 -15.019,-53.775c1.368,-27.121 17.78,-34.189 20.798,-35.489c2.224,-0.958 5.92,-0.047 3.808,-5.638c-4.357,-11.537 -17.298,-62.543 -7.837,-74.698c2.448,-3.145 20.792,-19.529 31.259,-22.317c7.132,-1.9 -2.368,-26.756 59.279,-68.283c30.007,-20.213 28.691,-26.373 30.186,-23.689c2.558,4.596 4.687,17.571 4.943,19.131c1.155,7.035 3.776,-13.135 87.778,-14.382c30.208,-0.449 48.309,1.201 68.091,-26.172c2.412,-3.338 4.147,-0.73 9.178,2.956c35.337,25.893 28.876,53.08 34.722,45.114c15.622,-21.287 12.507,-30.465 15.354,-29.352c2.774,1.084 13.453,10.651 18.625,21.905c0.024,0.053 25.101,51.593 -4.637,102.235c-2.952,5.027 16.404,-4.226 20.842,-7.554c3.468,-2.601 3.379,-0.194 3.357,0.075c-4.068,50.767 -32.675,66.346 -38.234,69.374c-7.688,4.187 -0.66,13.91 -14.26,37.429c-1.199,2.074 -3.156,16.548 -1.042,18.456c0.626,0.565 18.14,10.437 10.363,44.728c-5.532,24.39 -20.615,35.691 -16.114,36.275c0.266,0.035 0.248,0.012 3.351,0.157Z" style="fill:#110612;"/><path d="M429.035,306.655c12.381,16.51 7.187,37.784 17.994,48.426c4.299,4.233 4.415,4.01 9.149,7.756c0.434,1.607 0.431,1.597 0.469,1.736c0.187,0.687 -0.175,0.616 -0.174,1.328c0,0.061 1.087,10.049 4.447,17.775c8.125,18.681 20.634,37.478 21.328,38.631c0.111,0.184 7.799,10.391 2.618,0.608c-12.424,-23.459 -12.282,-50.426 1.932,-55.743c0.91,-0.34 0.656,-0.587 1.358,-1.215l0.608,-0.925c11.654,7.531 29.548,19.772 64.256,14.179c17.351,-2.796 52.807,-21.342 60.945,-15.99c2.8,1.842 12.715,9.448 13.807,10.286c1.925,1.269 1.873,1.215 3.538,2.898c-0.818,1.071 -1.636,2.142 -2.454,3.212c-2.979,0.139 -2.876,0.685 -36.652,6.828c-4.669,0.849 11.952,11.402 17.769,10.499c3.163,-0.491 16.001,-0.744 24.038,-14.221c0.437,-0.732 0.605,-1.675 1.249,-2.232c0.275,-0.237 0.788,0.472 1.063,0.234c6.335,3.684 15.302,9.973 31.621,8.7c6.07,-1.308 14.662,-1.767 24.171,-11.99l1.011,0.195c-5.694,51.524 -33.946,72.468 -65.345,89.447c-52.027,28.133 -85.876,12.557 -115.902,-3.767c-64.309,-37.125 -61.936,-69.162 -68.067,-94.331c-0.622,-2.553 -2.242,-0.776 -1.93,1.235c1.915,12.361 2.562,16.842 -9.918,16.97c-7.442,0.077 -13.022,-3.35 -13.967,-3.822c0.817,-1.804 1.517,-2.194 -0.126,-3.307c-5.696,-3.859 -6.676,-4.57 -14.422,-14.032l-0.949,-1.157c-2.824,-3.277 -2.347,-3.624 -2.657,-3.831c-0.252,-0.168 -0.745,0.139 -0.898,-0.122c-0.327,-0.554 0.464,-0.556 0.147,-1.153c-0.753,-1.417 -0.773,0.376 -2.231,1.086c-2.708,-5.354 -2.747,-5.223 -4.998,-10.698c0.426,-0.469 1.136,-0.612 1.562,-1.081c0.581,-0.64 0.121,-0.687 -0.693,-2.111c-0.165,-0.289 -0.175,-0.653 -0.162,-0.986c0.224,-5.537 -3.637,-10.301 2.735,-30.601c6.889,-21.948 28.097,-10.101 30.267,-8.338c2.52,2.048 2.516,0.12 3.463,-0.379Z" style="fill:#fdbd7d;"/><path d="M454.975,275.907c-0.373,1.375 -1.137,2.091 0.356,2.064c0,0 2.833,-0.112 3.08,-0.122c27.747,-5.733 44.573,-10.75 92.806,14.869c48.947,25.998 52.841,33.254 51.509,27.799c-0.43,-1.76 -2.337,0.229 -17.985,-13.718l1.018,-1.525l1.053,0.698c1.875,1.456 1.955,1.245 8.277,4.33c14.438,7.046 15.281,7.003 30.418,1.404c0.013,0.491 0.899,0.666 0.912,1.157c0.014,0.524 -0.723,0.813 -0.847,1.322c-0.559,2.28 3.122,0.131 3.354,-0.004c4.19,-2.446 4.065,-2.477 4.426,-2.678c56.97,-31.693 68.431,-14.309 74.398,-14.192c-0.118,3.025 0.017,3.008 -0.012,3.267c-0.701,31.833 -8.872,51.549 -10.61,55.742c-16.546,39.924 -50.28,25.966 -60.541,16.699c-22.506,-20.326 -25.714,-21.092 -53.907,-9.953c-29.43,12.361 -45.398,14.996 -66.281,8.762c-33.607,-13.546 -39.188,-24.804 -79.927,-65.283c-14.255,-14.164 -16.072,-12.008 -16.981,-13.487c-1.476,-2.399 25.663,-14.562 35.485,-17.151Z" style="fill:#1a1a1c;"/><path d="M677.171,82.815l1.365,1.316c-0.203,4.287 -0.132,4.229 -0.665,8.535c-4.798,26.764 -18.141,44.549 -58.246,60.568c-14.62,5.84 -23.528,6.758 -16.169,8.283c18.743,3.885 19.988,1.419 21.37,1.029c38.442,-10.849 49.338,-24.543 53.576,-26.528l0.531,0.556c-2.365,19.967 -10.836,26.459 -3.665,23.459c24.347,-10.185 29.518,-15.441 32.687,-17.841c9.966,-9.377 13.825,-12.777 19.848,-22.287c1.156,2.163 1.683,2.312 0.389,4.369c-3.919,6.234 -3.212,6.884 -4.806,12.514c-5.368,18.96 -24.129,38.35 -31.635,43.931c-41.861,31.129 -83.145,22.42 -88.165,21.795c-5.117,-0.637 4.211,-3.599 8.05,-5.751c1.945,2.02 3.107,1.525 12.074,0.549c33.445,-3.643 51.337,-16.826 68.824,-32.763c2.948,-2.686 -0.21,-2.366 -0.374,-2.281c-6.572,3.408 -5.874,4.934 -23.106,9.782c-1.209,0.34 -20.328,5.72 -15.676,0.92c8.786,-9.063 10.14,-8.304 14.345,-20.273c1.75,-4.98 -5.338,1.234 -25.322,10.083c-7.202,3.189 -40.671,14.138 -56.659,12.035c-14.529,-1.911 16.524,8.3 32.661,8.965c7.599,0.313 15.985,-2.448 9.736,1.892c-0.88,0.611 -4.961,3.816 -5.389,4.152c-0.09,-0.19 -1.123,-2.378 -1.123,-2.378c-4.921,-1.397 -12.237,3.184 -38.025,-4.997c-8.195,-2.6 -17.659,-7.549 -50.524,-2.352c-5.551,0.878 -19.392,5.399 -11.537,0.129c3.317,-2.225 3.546,-1.715 8.534,-5.098c1.361,-0.923 10.283,-5.68 0.905,-5.58c-28.854,0.306 -40.948,6.664 -60.813,22.504c-0.638,0.509 -6.288,9.208 -4.089,-0.194c2.458,-10.508 0.705,-11.381 5.419,-15.979c0.438,-5.787 0.437,-5.75 0.473,-6.25c0.019,-0.269 0.447,-6.179 -2.342,-2.412c-11.743,15.859 -16.187,22.042 -20.052,32.925c-1.425,4.013 2.119,5.301 13.788,16.035c2.243,2.858 2.974,2.808 6.631,9.36c0.274,1.066 0.549,2.133 0.823,3.199c-4.103,-0.177 -3.979,-0.625 -7.46,-2.855c-3.782,-2.423 -3.973,-1.92 -8.079,-3.829c-10.244,-8.615 -27.539,-5.76 -38.239,2.15c-4.518,4.233 -3.62,4.776 -5.585,10.689c-0.909,2.736 -0.237,2.798 -1.13,5.459c-0.168,0.502 -0.977,0.597 -1.146,1.099c-0.486,-1.651 -0.474,-1.565 -0.787,-3.23c-0.037,-15.303 -1.312,-17.769 12.197,-24.896c6.05,-3.192 15.666,-10.235 37.757,5.807c15.608,11.335 -1.322,-4.436 -1.613,-4.708c-11.309,-10.534 -15.679,-12.185 -13.248,-14.242c1.804,-1.527 1.776,-6.779 5.864,-14.955c10.492,-20.984 15.166,-24.147 25.277,-35.093c3.689,-3.993 3.157,-4.757 5.672,-5.349l0.827,0.568c-4.083,15.088 -4.362,15.006 -4.56,17.911c-0.476,6.952 3.058,-3.51 3.186,-3.891c2.646,-7.836 4.352,-6.961 19.877,-38.233c-0.15,-0.007 -1.371,-1.934 -3.481,-0.159c-13.99,11.767 -50.281,30.652 -57.272,76.028c-1.095,1.299 -1.327,2.082 -2.521,0.855c-1.247,-1.281 -1.071,-1.349 -2.378,-2.629c0.641,-0.225 0.915,0.564 1.923,-0.676c0.392,-0.482 3.084,-29.96 31.859,-54.499c6.451,-5.502 12.483,-11.417 29.345,-22.363c2.812,-1.825 12.052,-11.405 11.165,-6.2c-0.453,2.653 -3.104,18.198 -11.165,31.725c0.036,0.016 1.081,2.729 2.432,0.205c0.868,-1.622 0.921,-1.526 1.758,-2.489c50.232,-57.739 141.758,-6.66 175.874,-58.119Z" style="fill:#80391c;"/><path d="M411.007,479.573c3.357,1.573 46.733,22.438 48.527,23.184c26.951,11.195 27.414,11.259 29.542,9.956c3.744,6.169 13.293,3.706 16.902,3.175c5.757,4.527 32.695,3.487 35.55,3.377c47.111,-1.819 74.133,-18.688 79.9,-21.683c20.08,30.969 10.071,56.889 10.619,62.568c-2.411,3.99 -8.736,18.67 -33.815,31.315c-28.117,14.176 -66.373,15.964 -97.843,10.136c-6.01,-1.113 -6.29,-0.207 -11.501,-3.35c6.108,-2.871 29.379,-13.807 74.636,-39.349c2.87,-1.62 2.358,-2.342 2.84,-21.965c0.177,-7.207 -2.88,-5.514 -10.02,-6.764c-8.982,-1.572 -61.604,-10.784 -112.841,-16.088c-5.065,-0.524 -5.367,1.873 -9.252,10.289c-4.644,10.06 -6.011,11.385 1.123,19.755c9.382,11.007 17.372,23.32 40.289,48.436c-1.189,0.077 -0.107,1.494 -1.247,1.568c-0.295,0.019 -0.258,0.017 -3.47,-1.263c-27.526,-10.967 -32.835,-16.281 -37.677,-19.349c-14.183,-10.637 -19.403,-18.396 -20.698,-20.322c-0.667,-0.992 -0.798,-0.69 -3.065,-1.401c-2.573,-10.058 -3.261,-9.846 -4.518,-20.158c-3.824,-31.377 3.198,-36.098 1.387,-39.052c-0.301,-0.491 -1.026,-0.647 -1.275,-1.167c-0.146,-0.305 0.394,-0.679 0.248,-0.985c2.842,-8.156 2.659,-8.354 5.658,-10.861Z" style="fill:#f21c0a;"/><path d="M739.326,512.774c4.458,6.109 4.54,5.96 9.784,11.44c-1.81,1.545 -8.5,7.256 -26.495,13.485c-34.533,11.954 -56.058,-10.313 -84.675,33.789c-3.072,4.735 -4.907,5.22 -1.562,9.809c-0.078,0.382 -1.144,14.754 -12.227,30.948c-3.423,5.001 -3.243,5.032 -7.664,9.289c-0.343,0.33 -0.626,0.763 -0.673,0.835c-1.201,1.836 0.584,2.543 0.601,2.619c1.929,-1.046 1.877,-0.926 3.816,-1.986c0.063,0.711 1.28,0.955 1.343,1.666c0.067,0.765 -0.808,0.179 -5.835,7.617c-7.5,11.098 -18.089,19.66 -18.089,19.724c-0.003,0.541 0.839,0.849 0.836,1.39c-1.691,0.632 -8.566,4.473 -32.738,4.539c-2.79,0.008 -20.383,0.055 -34.765,-2.771c-2.186,-0.43 -3.306,-5.816 -3.486,-6.164c-0.962,-1.863 -4.446,-10.905 -61.814,-21.396c-13.029,-15.224 -15.457,-20.262 -16.418,-22.255c-3.21,-6.66 3.226,-2.846 4.88,-2.149c3.062,1.464 2.897,1.788 7.25,2.184c0.905,-0.772 0.576,-0.899 0.299,-1.986c-5.267,-8.115 -3.714,-10.031 -14.769,-15.2c-0.923,-0.432 -9.981,-4.667 -10.679,-6.953c-0.127,-0.415 -0.446,-0.084 -3.465,-4.165c-0.102,-0.138 -0.332,-0.097 -0.483,-0.18c-2.78,-1.52 0.648,-3.041 0.971,-3.382c4.842,3.068 10.151,8.382 37.677,19.349c3.212,1.28 3.175,1.282 3.47,1.263c1.141,-0.074 0.058,-1.491 1.247,-1.568c6.157,6.313 6.168,6.32 6.815,6.73c3.059,1.934 3.141,0.356 6.41,-1.043c5.211,3.143 5.491,2.237 11.501,3.35c31.47,5.828 69.727,4.041 97.843,-10.136c25.079,-12.645 31.404,-27.326 33.815,-31.315c13.892,-10.691 13.196,-45.84 62.252,-40.61c25.207,2.687 37.799,-3.13 45.027,-6.765Z" style="fill:#b20403;"/><path d="M312.896,447.403c2.365,0.435 12.25,1.728 18.917,3.325c30.137,7.217 30.92,8.997 30.05,11.422c-9.22,25.687 -7.84,37.332 2.706,63.184c1.507,3.695 -7.332,3.826 -9.517,4.166c-5.191,0.806 -4.58,-1.273 -6.309,-6.268c-15.731,-45.448 -59.24,-25.544 -62.154,-25.553c-4.392,-0.013 -26.991,-0.078 -51.275,19.67c-14.243,11.582 -28.472,23.379 -14.034,59.716c16.829,42.354 37.369,56.218 38.657,59.25c0.292,0.687 0.593,1.396 -7.264,5.844c-54.065,30.603 -79.453,-30.671 -81.139,-34.131c0.704,-0.748 1.017,-0.441 1.305,-1.386c0.279,-0.915 18.043,-74.599 96.955,-121.376c1.326,-2.683 14.087,-6.536 13.482,-9.508c-0.914,-4.486 -6.481,-15.645 -0.787,-17.561c26.388,-8.877 26.835,-7.314 29.083,-8.203c0.136,-0.054 0.05,-0.126 0.673,-1.705l0.65,-0.886Z" style="fill:#002056;"/><path d="M397.198,395.538l-0.275,1.03c0.02,0.082 -0.883,0.588 2.839,3.73c17.068,14.41 25.65,23.01 57.799,74.186c-2.067,0.948 -2.524,1.122 -3.494,-0.845c-13.182,-26.731 -52.367,-56.751 -60.302,-60.73c-13.57,-6.805 -14.817,-3.896 -33.418,-6.614c-0.297,-0.043 -4.521,-0.661 -3.653,0.829c1.002,1.721 12.325,2.38 41.649,27.338c9.516,8.099 17.98,14.219 32.693,29.536c2.024,2.107 2.63,1.411 26.355,25.289c7.087,7.133 13.537,9.247 15.495,10.859c0.187,0.154 1.785,1.468 2.418,1.813c2.325,1.266 1.958,1.603 4.06,3.183c0.404,0.635 0.807,1.271 1.211,1.906c-47.29,-22.049 -122.88,-91.318 -226.655,-73.628c-90.424,15.414 -135.864,62.939 -159.601,89.186c-0.673,-1.844 -1.651,-2.164 -0.108,-3.289c0.013,-0.009 9.068,-14.608 27.469,-33.65c34.966,-36.356 100.884,-77.706 172.307,-77.407c8.612,0.036 -3.974,-3.763 -19.997,-4.478c-0.255,-0.011 -14.132,-0.995 -2.014,-2.477c19.14,-2.341 42.816,-12.77 125.223,-5.767Z" style="fill:#0193fb;"/><path d="M732.846,110.195c0.165,0.128 2.106,-0.214 1.497,2.431c-1.784,7.741 -6.997,88.76 -88.668,115.719c-26.137,8.628 -51.257,3.121 -55.606,2.168c-21.919,-7.259 -22.519,-10.911 -45.497,-23.714l-0.95,-1.449c-1.754,-0.395 -1.673,-0.504 -4.343,-1.573c-17.791,-7.125 -51.207,-8.05 -75.912,12.399c-11.67,-10.733 -15.214,-12.021 -13.788,-16.035c3.865,-10.883 8.308,-17.066 20.052,-32.925c2.789,-3.767 2.362,2.144 2.342,2.412c-0.036,0.5 -0.035,0.463 -0.473,6.25c-4.715,4.599 -2.961,5.471 -5.419,15.979c-2.199,9.402 3.451,0.703 4.089,0.194c19.865,-15.84 31.959,-22.198 60.813,-22.504c9.378,-0.1 0.456,4.657 -0.905,5.58c-4.988,3.383 -5.217,2.872 -8.534,5.098c-7.856,5.27 5.986,0.749 11.537,-0.129c32.864,-5.197 42.328,-0.248 50.524,2.352c25.788,8.18 33.104,3.6 38.025,4.997c0,0 1.033,2.187 1.123,2.378c-0.859,0.601 -5.507,3.853 -11.113,6.939c-3.839,2.153 -13.167,5.114 -8.05,5.751c5.02,0.625 46.304,9.333 88.165,-21.795c7.506,-5.581 26.267,-24.971 31.635,-43.931c1.594,-5.63 0.887,-6.279 4.806,-12.514c1.293,-2.057 0.767,-2.206 -0.389,-4.369c0.172,-0.276 1.688,-1.837 5.042,-9.71Z" style="fill:#51200e;"/><path d="M730.075,580.077c-0.375,0.229 -0.934,-0.075 -1.309,0.154c-2.422,1.478 2.498,3.268 -7.447,34.724c-11.808,37.346 -33.412,82.172 -36.535,82.516c-7.479,0.823 -9.282,-6.748 -67.436,6.18c-7.908,1.758 -11.339,4.89 -10.195,0.13c3.341,-13.905 13.276,-22.145 20.4,-46.59c1.807,-6.201 1.984,-6.287 7.361,-9.922c45.414,-30.694 54.82,-68.803 59.282,-69.465c2.756,-0.409 2.737,2.628 34.822,0.279c1.727,-0.126 1.487,0.948 1.715,1.093l-0.657,0.901Z" style="fill:#001b48;"/><path d="M269.795,485.266c-78.912,46.777 -96.676,120.46 -96.955,121.376c-0.288,0.945 -0.601,0.638 -1.305,1.386c-1.994,-3.26 -14.449,-27.685 -30.523,-35.847c-20.972,-10.65 -35.208,-6.607 -42.948,-5.427c-0.315,-0.198 -0.78,0.415 -1.095,0.216c-1.482,-0.934 -1.307,-1.337 -0.28,-2.678c1.475,-1.926 1.475,-1.792 2.847,-3.805c29.269,-42.933 85.469,-69.329 140.726,-75.022c27.633,-2.847 28.153,-2.122 29.531,-0.199Z" style="fill:#0043a5;"/><path d="M852.99,354.736c4.232,8.87 2.158,30.974 -0.011,38.642c-0.206,0.728 -0.929,1.37 -0.815,2.118c0.037,0.243 0.485,-0.102 1.54,2.655c0.185,0.484 -0.386,0.36 -0.218,0.801c1.765,-3.152 1.37,-3.236 11.068,-39.474c0.454,-1.697 2.297,-1.248 2.513,-1.195c18.125,4.42 34.405,16.233 35.918,10.914c0.119,-0.417 1.123,-2.675 4.953,2.168c8.233,10.41 10.569,23.18 14.1,21.156c0.738,-0.423 -1.46,-11.6 -0.231,-11.761c1.163,-0.153 27.133,14.725 34.512,28.617c2.024,3.812 0.008,5.133 3.713,7.266c-0.411,7.633 -0.574,7.567 -1.87,16.779c-5.098,0.233 -3.285,2.73 -8.434,14.63c-12.852,29.704 -21.163,20.032 -22.303,18.038c-0.612,-1.07 0.044,-1.965 0.043,-1.968c-0.256,-0.528 -1.163,-0.511 -1.419,-1.038c1.484,-3.657 4.626,-11.402 13.268,-47.515c1.148,-4.798 -1.073,-4.086 -1.267,-3.828c-0.662,0.882 -3.111,10.395 -3.346,11.309c-4.13,16.048 -4.284,15.887 -9.318,31.78c-1.181,-0.101 -0.562,-1.163 -1.742,-1.263c-0.101,-0.009 -0.234,-0.02 -0.693,1.056c-1.935,4.53 -10.455,6.775 -18.999,4.018c-16.584,-5.351 -11.587,-13.22 -11.372,-14.453c19.69,-52.605 9.204,-88.996 9.986,-69.891c0.792,19.36 -8.894,49.769 -10.227,53.954c-0.351,-0.469 0.693,-0.404 0.297,-0.933c-0.107,-0.143 -0.855,-1.141 -1.891,-1.195c-0.695,-0.036 -2.115,4.061 -2.246,4.436c-6.499,18.746 -40.036,6.51 -44.9,-8.598c-0.743,-2.306 -1.489,-1.722 -1.886,-2.181c10.39,-17.897 12.919,-54.803 10.155,-61.211l-0.655,-0.496l-0.913,-0.5c0.242,-0.631 -0.231,-1.076 2.687,-2.837Z" style="fill:#0070e4;"/><path d="M475.663,592.564c-22.917,-25.116 -30.907,-37.428 -40.289,-48.436c-7.134,-8.37 -5.767,-9.695 -1.123,-19.755c3.885,-8.416 4.187,-10.813 9.252,-10.289c51.237,5.304 103.859,14.516 112.841,16.088c7.14,1.25 10.197,-0.443 10.02,6.764c-0.483,19.623 0.03,20.345 -2.84,21.965c-45.257,25.541 -68.528,36.478 -74.636,39.349c-3.269,1.399 -3.351,2.977 -6.41,1.043c-0.647,-0.409 -0.659,-0.416 -6.815,-6.73Z" style="fill:#0b0301;"/><path d="M597.544,250.475l-0.198,1.994l1.053,0.905c14.085,8.84 36.599,24.474 64.15,27.566c0.204,0.023 0.158,0.106 2.132,1.431c-26.833,10.848 -32.066,18.538 -50.622,26.246c-11.752,4.882 -41.464,-25.501 -83.19,-42.41c14.513,-26.112 26.827,-29.073 17.047,-30.494c-3.183,-0.463 -20.474,-2.975 -32.391,23.867c-0.422,0.951 -0.654,0.619 -1.397,1.323l-1.053,0.159l-1.035,1.33c-13.716,-0.798 -13.674,-0.936 -27.363,0.559c-4.125,0.451 -5.865,1.652 -6.102,-2.552c-1.714,-30.424 -2.187,-31.638 0.84,-32.563c29.865,-9.129 50.683,-7.028 66.302,-5.304c14.481,1.598 17.52,13.525 51.829,27.944Z" style="fill:#fdbd7c;"/><path d="M425.44,793.18c0.352,-0.241 5.219,-3.576 5.019,-1.817c-0.059,0.52 -0.805,0.302 -1.784,6.288c-7.748,47.367 43.878,62.66 69.445,45.972c2.838,-1.852 4.568,-5.083 4.302,-1.627c-0.145,1.877 -8.084,13.01 -8.857,14.095c-16.48,23.109 -38.509,29.068 -46.891,38.654c-2.004,2.292 -26.86,23.768 -48.375,34.954c-49.144,25.549 -82.106,9.787 -72.101,-7.563c1.986,0.869 2.367,1.849 3.597,0.101c3.915,-5.564 18.12,-18.607 29.008,-30.012c19.626,-20.558 14.094,-31.227 8.003,-26.794c-12.339,8.98 -19.234,21.463 -22.6,25.955c-8.994,12.002 -14.384,25.621 -16.533,28.725c-0.298,-1.03 -1.087,-3.761 3.95,-12.804c3.255,-5.845 24.232,-44.669 52.868,-62.333c1.624,1.239 1.661,1.265 1.707,3.382c0.091,4.199 0.74,6.587 0.858,7.285c0.104,0.442 1.296,5.53 1.296,5.53c0.815,3.554 2.507,0.851 2.955,0.824c1.73,5.347 1.575,5.321 4.023,10.401c-0.801,1.33 -2.062,1.616 0.138,4.239c4.423,5.273 11.451,19.198 40.726,18.224c3.516,-0.117 2.964,-1.921 3.084,-2.117c-2.943,-0.105 -2.868,-0.302 -5.823,-0.386c0.328,-0.47 0.657,-0.94 0.985,-1.41c21.852,-10.881 41.722,-33.389 36.475,-34.068c-3.64,-0.471 -19.069,-0.873 -30.41,-9.843c-0.239,-0.189 -1.326,-1.049 -3.277,-1.952l1.228,-1.274c-4.404,-3.416 -15.136,-12.318 -16.103,-29.244c-0.951,-16.639 2.914,-18.215 4.341,-18.797l0.411,-1.265l-1.665,-1.324Z" style="fill:#045fc8;"/><path d="M287.62,507.556c3.41,0.825 4.535,-0.234 9.221,7.422c0.071,12.55 -0.904,13.522 -12.228,19.066c-25.733,12.598 -24.678,14.401 -33.904,18.671c-1.748,0.809 -0.569,2.556 1.105,2.03c1.038,-0.326 1.005,-0.393 12.776,-4.661c30.829,-11.583 39.78,-16.024 46.016,-6.645c1.361,2.047 1.381,1.92 2.774,3.858c-0.12,0.56 -1.121,0.628 -1.241,1.188c-0.395,1.841 2.032,10.433 -6.836,15.515c-31.988,18.331 -35.301,19.526 -38.596,20.715c-1.659,0.598 -1.785,2.703 -0.052,2.454c6.388,-0.915 6.397,-0.421 12.637,-2.413c32.967,-12.469 34.986,-17.79 44.156,-8.736l-1.29,1.045l0.655,1.056c3.639,7.4 3.738,15.158 -24.894,32.296c-29.677,17.763 -35.143,-2.846 -41.936,-11.065c-0.794,-0.96 -0.92,-0.922 -1.024,-0.89c-1.47,0.45 -0.723,1.424 -2.143,1.858c-4.234,-8.735 -6.03,-8.267 -6.256,-17.977c-0.268,-11.537 -4.96,-9.769 -9.305,-12.876c-2.463,-1.762 -2.521,-1.621 -4.487,-3.985l0.259,-0.899c0.282,0.121 0.613,-0.336 0.895,-0.214c1.142,0.492 2.054,1.419 3.17,1.967c8.012,3.933 -14.234,-11.512 3.319,-29.218c12.851,-12.964 37.435,-25.158 40.084,-26.085c3.319,-1.161 4.384,-1.181 7.124,-3.475Z" style="fill:#006de2;"/><path d="M728.969,602.383c1.124,0.977 17.559,19.971 18.626,21.412c1.861,2.514 8.953,12.093 16.201,35.598c0.105,0.339 0.055,0.709 0.119,1.058c0.322,1.765 0.787,1.493 1.637,3.107c-6.71,30.919 -40.86,72.544 -98.685,83.731c-2.109,0.408 -2.524,-0.725 -1.078,-2.415c45.163,-52.785 56.107,-105.582 63.18,-142.492Z" style="fill:#0076ed;"/><path d="M575.254,718.676l0.193,0.885c-0.663,7.699 -15.641,40.452 -37.428,63.018c-25.858,26.783 -28.46,24.03 -30.138,26.788c-0.17,0.279 0.192,0.782 -0.068,0.979c-0.209,0.159 -0.419,-0.409 -3.055,1.2c-0.152,0.093 -1.233,0.753 -1.777,1.349c-0.105,0.115 0.049,0.13 0.684,1.822c-0.123,0.059 -0.12,0.06 -5.422,2.872c-6.036,-2.204 -29.052,4.329 -30.439,-11.477c-0.085,-0.973 2.02,-9.157 -0.961,-7.055c-3.565,2.514 -3.269,15.37 -14.574,4.669c-3.1,-2.935 -4.834,-7.115 -5.036,-2.795c-0.588,12.55 13.257,24.599 22.702,25.89c6.368,0.87 6.341,0.706 12.592,-0.63c0.339,0.168 0.765,-0.431 1.104,-0.263c1.085,0.537 1.053,1.036 -0.052,1.565c-1.283,0.614 -0.199,2.279 2.041,1.476c2.096,-0.752 21.553,-9.145 22.216,-8.089c0.643,1.025 -7.279,10.155 -7.99,10.975c-24.399,28.122 -70.801,3.613 -66.46,-29.898c1.099,-8.484 30.032,-63.876 34.448,-65.348c10.029,-3.343 11.971,-3.485 17.984,-4.941c0.05,0.538 0.1,1.076 0.151,1.614l-0.796,1.056c-12.116,9.415 -45.403,58.917 -27.993,64.575c3.975,1.292 10.683,-9.086 23.5,-16.656c5.409,-3.195 13.609,-9.78 11.319,-4.645c-2.703,6.063 -3.848,5.397 -6.447,11.553c-4.477,10.6 0.579,12.057 4.478,9.751c6.826,-4.038 43.486,-30.747 61.388,-73.925c1.299,-3.133 1.231,-3.142 3.812,-5.174c10.068,-0.754 9.95,-0.767 20.027,-1.141Z" style="fill:#c30604;"/><path d="M591.487,334.038c-3.718,1.08 -5.258,-0.422 -5.856,3.389c-3.456,22.03 -48.084,48.838 -81.155,6.501c-16.047,-20.543 -25.142,-55.865 -5.094,-57.056c31.119,-1.848 83.595,39.217 92.105,47.165Z"/><path d="M525.967,428.028c-2.015,-2.891 -2.019,-2.772 -3.887,-5.845c-14.128,-23.244 -4.792,-35.997 -16.409,-31.504c-13.558,5.243 1.391,-2.871 1.635,-2.994c9.792,-4.945 11.095,-2.145 15.095,-0.279c3.907,1.823 31.904,16.468 71.872,23.435c34.164,5.955 56.022,0.018 40.152,4.964c-6.062,1.889 -16.115,30.871 -48.662,34.633c-39.928,4.615 -59.119,-21.701 -59.795,-22.41Z" style="fill:#4c1209;"/><path d="M555.227,719.818c-2.58,2.031 -2.513,2.041 -3.812,5.174c-17.902,43.178 -54.562,69.887 -61.388,73.925c-3.9,2.307 -8.955,0.85 -4.478,-9.751c2.6,-6.155 3.744,-5.49 6.447,-11.553c2.29,-5.135 -5.91,1.45 -11.319,4.645c-12.817,7.571 -19.525,17.948 -23.5,16.656c-17.41,-5.658 15.877,-55.16 27.993,-64.575l0.796,-1.056c-0.05,-0.538 -0.1,-1.076 -0.151,-1.614c26.538,-8.738 63.793,-11.444 69.411,-11.852Z" style="fill:#da1306;"/><path d="M429.897,650.918c3.302,5.464 14.821,25.022 18.274,59.171c-5.503,0.219 -5.414,0.085 -10.965,0.437c-4.383,0.278 -22.437,-11.886 -23.882,-4.384c-0.796,4.133 -2.402,2.488 -6.639,2.567c-30.228,0.563 -46.085,15.918 -55.96,18.899c-2.407,0.726 -19.358,5.842 -31.123,-4.305c-6.699,-5.778 -9.843,-15.534 -10.922,-15.255c-4.399,1.136 -8.29,3.128 -8.976,3.48c-0.685,-1.559 -0.79,-1.545 -0.74,-1.684c1.67,-4.577 0.312,-4.998 2.77,-9.122l-1.763,-1.217l0.174,-1.056c2.587,-3.2 2.334,-7.271 6.433,-8.522c6.625,-2.022 6.432,-2.242 12.489,-5.587c2.142,-1.183 2.037,-3.198 2.434,-3.627c0.289,-0.313 0.97,0.104 1.259,-0.208c0.085,0.773 0.91,1.337 0.995,2.111c0.079,0.723 -0.386,1.404 -0.53,2.117c-0.443,2.198 0.367,4.799 0.492,5.197c7.595,24.379 33.203,9.423 41.893,7.504c9.271,-2.047 -2.526,-2.532 -2.83,-2.544c-0.437,-0.538 -0.874,-1.076 -1.311,-1.614c2.137,-0.344 2.054,-0.332 4.236,-0.802c13.178,-2.841 24.176,-4.913 26.284,-5.31c26.862,-5.06 41.334,-0.624 39.774,-4.519c-3.767,-9.408 -17.126,-21.502 -18.895,-23.104c-5.147,-4.66 -13.871,-9.197 -8.291,-8.325c0.584,0.091 0.428,1.458 22.114,2.081l1.255,-1.709c0.65,-0.224 1.299,-0.448 1.949,-0.671Z" style="fill:#c40603;"/><path d="M427.948,651.589l-1.255,1.709c-21.686,-0.622 -21.53,-1.989 -22.114,-2.081c-5.58,-0.872 3.143,3.665 8.291,8.325c1.77,1.602 15.128,13.696 18.895,23.104c1.56,3.895 -12.913,-0.541 -39.774,4.519c-2.108,0.397 -13.106,2.469 -26.284,5.31c-2.182,0.471 -2.1,0.458 -4.236,0.802c-4.784,1.073 -4.77,1.106 -5.149,1.107c-4.594,0.01 -3.647,1.818 -3.366,1.951c1.461,0.695 1.601,-0.704 3.08,0.042c0.403,0.204 0.734,0.533 1.133,0.745c1.541,0.814 1.457,-0.54 3.16,-0.461c0.942,0.043 0.985,0.012 1.053,-0.037c0.918,-0.662 0.407,-1.017 1.398,-1.732c0.304,0.012 12.101,0.498 2.83,2.544c-8.691,1.918 -34.298,16.874 -41.893,-7.504c-0.124,-0.399 -0.935,-3 -0.492,-5.197c0.144,-0.713 0.61,-1.394 0.53,-2.117c-0.085,-0.773 -0.91,-1.337 -0.995,-2.111c-0.289,0.313 -0.97,-0.104 -1.259,0.208c-0.397,0.43 -0.292,2.444 -2.434,3.627c-6.057,3.345 -5.864,3.565 -12.489,5.587c-4.099,1.251 -3.846,5.322 -6.433,8.522l-0.174,1.056l1.763,1.217c-2.458,4.124 -1.1,4.545 -2.77,9.122c-0.05,0.138 0.055,0.125 0.74,1.684c-1.636,2.528 -1.733,2.348 -3.234,4.866l-1.598,1.061c-0.109,-2.614 -2.032,-14.256 3.796,-25.059c4.387,-8.132 26.252,-21.628 26.654,-16.07c1.815,25.101 37.064,1.121 18.249,-11.784c-4.777,-3.276 -11.112,-2.089 -7.162,-4.805c35.765,-24.592 64.76,-17.226 86.126,-11.136c0,0 4.978,2.749 5.411,2.988Z" style="fill:#ef1909;"/><path d="M739.043,103.413c-0.248,0.816 -1.505,1.044 -1.753,1.86c-0.193,0.634 16.475,26.318 5.7,70.753c-8.274,34.121 -38.729,63.966 -79.187,70.016c0.264,-0.589 -0.357,-1.345 -0.094,-1.934c0.012,-0.027 3.828,-0.307 21.809,-11.655c25.062,-15.817 40.325,-46.9 39.01,-53.073c-7.281,6.57 -2.068,11.404 -17.694,27.127c-9.304,9.361 -40.737,41.251 -99.937,33.321c-9.938,-1.331 -15.773,-5.84 -16.927,-6.732l-1.042,-1.192l1.139,-1.392c4.349,0.953 29.469,6.46 55.606,-2.168c81.671,-26.959 86.884,-107.979 88.668,-115.719c0.61,-2.645 -1.331,-2.304 -1.497,-2.431c2.92,-8.531 2.437,-8.576 2.53,-9.164c0.591,-3.753 3.51,2.069 3.667,2.382Z" style="fill:#280d05;"/><path d="M749.109,524.214c6.191,5.948 8.307,8.234 22.068,15.568c-0.858,0.564 -0.466,1.583 -6.487,4.249c-69.479,30.76 -92.817,18.259 -96.767,22.015c-0.393,0.374 -0.612,0.906 -1.005,1.28c-42.607,-8.033 7.562,5.035 8.326,5.216c-6.775,13.353 -33.649,40.66 -55.014,50.459c-1.939,1.06 -1.887,0.94 -3.816,1.986c-0.017,-0.075 -1.802,-0.782 -0.601,-2.619c0.047,-0.072 0.33,-0.505 0.673,-0.835c4.421,-4.257 4.241,-4.288 7.664,-9.289c11.083,-16.193 12.15,-30.566 12.227,-30.948c-3.346,-4.588 -1.511,-5.074 1.562,-9.809c28.617,-44.102 50.141,-21.834 84.675,-33.789c17.995,-6.229 24.685,-11.94 26.495,-13.485Z" style="fill:#7a0201;"/><path d="M194.741,417.299c5.811,-3.031 5.774,-3.01 6.276,-3.274c116.423,-61.236 196.407,-18.224 233.065,-15.502c4.744,0.352 5.023,0.866 6.452,5.446c-3.162,-0.376 -2.83,-1.917 -39.143,-7.199c-0.346,-0.05 -1.073,-0.156 -4.193,-1.232c-82.407,-7.003 -106.083,3.426 -125.223,5.767c-12.117,1.482 1.76,2.465 2.014,2.477c16.023,0.715 28.609,4.514 19.997,4.478c-71.422,-0.299 -137.341,41.051 -172.307,77.407c-0.546,-1.061 -1.039,-0.503 -1.546,-1.489c-0.04,-0.077 0.403,0.033 0.236,-1.056c-0.419,-2.741 -0.736,-3.286 1.789,-4.295c3.41,-1.363 2.266,-2.647 6.26,-6.42c9.723,-9.184 9.669,-9.127 9.722,-9.193c1.668,-2.11 1.912,-1.734 3.768,-3.607c6.576,-6.64 7.821,-6.493 12.112,-10.111c7.931,-6.686 7.371,-7.252 8.083,-7.8c0.322,-0.248 0.812,0.33 1.199,0.209c0.789,-0.247 0.711,-1.205 3.125,-2.159c2.5,-0.987 1.674,-2.372 4.351,-2.943c1.732,-0.37 5.453,-5.061 9.063,-6.825c1.944,-0.95 0.618,-1.494 -0.873,-3.068c7.789,-4.991 7.62,-5.092 15.772,-9.612Z" style="fill:#95e8fc;"/><path d="M794.455,474.593c2.438,0.164 11.316,2.696 13.962,4.928c28.153,23.749 35.962,17.29 49.097,22.503c-7.76,13.897 -51.714,33.077 -77.982,29.199c-5.212,-0.77 -5.228,-0.824 -5.378,-0.719c-0.496,0.349 -0.624,1.085 -1.12,1.434c-22.604,-11.953 -30.685,-27.797 -32.313,-30.99c0.286,-0.075 0.47,0.54 0.756,0.465c0.518,-0.137 0.751,-0.837 1.263,-0.997c10.826,-3.38 28.253,-1.733 51.716,-25.823Z" style="fill:#00296e;"/><path d="M397.198,395.538c3.12,1.076 3.847,1.181 4.193,1.232c36.313,5.281 35.981,6.823 39.143,7.199c13.426,28.512 20.788,71.126 39.273,96.758c2.904,4.026 2.728,4.126 3.005,4.454c3.32,3.939 -2.019,1.949 -2.237,1.867c-0.404,-0.635 -0.807,-1.271 -1.211,-1.906c-2.102,-1.58 -1.736,-1.918 -4.06,-3.183c-0.633,-0.344 -2.231,-1.659 -2.418,-1.813c-1.959,-1.611 -8.408,-3.726 -15.495,-10.859c-23.725,-23.878 -24.331,-23.181 -26.355,-25.289c-14.713,-15.317 -23.178,-21.437 -32.693,-29.536c-29.325,-24.958 -40.647,-25.617 -41.649,-27.338c-0.867,-1.49 3.357,-0.872 3.653,-0.829c18.601,2.718 19.849,-0.191 33.418,6.614c7.935,3.979 47.12,33.999 60.302,60.73c0.97,1.967 1.428,1.793 3.494,0.845c-32.15,-51.176 -40.731,-59.775 -57.799,-74.186c-3.722,-3.142 -2.819,-3.648 -2.839,-3.73l0.275,-1.03Z" style="fill:#013c87;"/><path d="M667.798,308.648c9.024,-3.138 8.954,-3.156 9.745,-3.389c4.774,-1.407 21.102,-2.642 21.293,-1.881c0.638,2.549 -0.971,1.779 -5.554,3.626c-2.942,1.186 2.927,11.205 -1.277,27.249c-15.731,60.042 -52.543,33.427 -56.019,29.91c-12.778,-12.93 -9.861,-18.924 -9.488,-22.503c0.44,-4.225 -1.984,-4.798 0.834,-7.969c10.431,-11.738 36.985,-23.502 40.465,-25.044Z" style="fill:#010100;"/><path d="M448.172,710.089c2.466,16.647 3.304,16.59 2.967,18.01c-0.991,4.188 -69.324,-5.745 -85.667,-4.47c0.113,0.398 0.226,0.796 0.339,1.195c1.503,1.413 1.643,1.243 6.763,1.355l1.067,0.821c-0.624,1.906 -0.574,1.917 -0.674,2.058c-29.29,41.435 -67.524,26.198 -78.197,2.298c1.281,-2.464 0.636,-2.594 0.104,-13.901l1.598,-1.061c1.501,-2.518 1.598,-2.338 3.234,-4.866c0.686,-0.351 4.577,-2.344 8.976,-3.48c1.079,-0.279 4.223,9.477 10.922,15.255c11.765,10.147 28.716,5.031 31.123,4.305c9.875,-2.98 25.732,-18.336 55.96,-18.899c4.237,-0.079 5.843,1.566 6.639,-2.567c1.445,-7.503 19.499,4.662 23.882,4.384c5.551,-0.352 5.463,-0.218 10.965,-0.437Z" style="fill:#8e0101;"/><path d="M445.557,634.24c8.893,4.516 9.166,4.343 9.341,5.181c0.055,0.264 -4.777,20.13 -4.384,32.652c0.229,7.31 1.625,10.745 30.999,22.031c17.667,6.788 29.977,5.57 32.607,5.31c9.93,-0.982 34.215,10.101 72.576,-0.324c4.562,-1.24 8.84,-3.297 8.081,0.342c-2.468,11.843 -2.706,12.944 -6.896,13.095c-22.756,0.823 -82.297,1.567 -117.814,15.879c-0.551,0.222 -3.128,3.498 -9.52,-3.693c-9.095,-10.233 0.594,-13.997 -15.793,-56.936c-5.172,-13.551 -6.302,-13.541 -5.141,-22.078c1.079,-7.929 -0.014,-14.937 2.744,-13.432c1.099,0.6 2.098,1.373 3.198,1.974Z" style="fill:#14181b;"/><path d="M528.004,422.84c-2.725,-4.912 -2.753,-4.835 -2.953,-5.276c-0.073,-0.161 -1.177,-2.596 1.763,-1.324c2.06,0.891 23.342,10.096 26.276,9.826c9.124,-0.84 -15.256,-4.314 -30.307,-18.123c-4.239,-3.889 -5.461,-15.992 -2.352,-15.433c16.562,2.977 31.247,21.01 101.112,25.347c4.815,0.299 -4.122,9.906 -6.71,13.229c-20.521,26.339 -70.781,16.879 -86.828,-8.245Z" style="fill:#fdfdfd;"/><path d="M751.195,434.567c9.16,26.773 28.585,30.495 43.26,40.026c-23.463,24.09 -40.89,22.443 -51.716,25.823c-0.512,0.16 -0.744,0.86 -1.263,0.997c-0.286,0.075 -0.47,-0.54 -0.756,-0.465c-14.64,-21.572 -17.51,-58.103 4.555,-85.001c4.088,-4.983 13.962,-13.756 10.285,-7.72c-7.243,11.89 -4.792,21.463 -4.365,26.341Z" style="fill:#0f75da;"/><path d="M429.897,650.918c-0.65,0.224 -1.299,0.448 -1.949,0.671c-0.433,-0.239 -5.411,-2.988 -5.411,-2.988c-21.366,-6.09 -50.362,-13.456 -86.126,11.136c-3.951,2.716 2.385,1.529 7.162,4.805c18.815,12.904 -16.434,36.885 -18.249,11.784c-0.402,-5.557 -22.267,7.938 -26.654,16.07c-5.827,10.803 -3.905,22.445 -3.796,25.059c0.533,11.307 1.177,11.437 -0.104,13.901c-1.921,-4.949 -1.96,-4.832 -3.654,-9.788c-6.171,-18.052 -2.297,-38.961 -0.063,-41.946c36.146,-48.293 100.478,-67.244 138.845,-28.703Z" style="fill:#fb632c;"/><path d="M677.171,82.815c1.628,-1.271 3.482,-1.927 13.448,10.158c2.192,2.658 7.751,10.126 9.805,14.451c9.095,19.159 5.707,30.405 7.533,34.768c-3.169,2.4 -8.341,7.656 -32.687,17.841c-7.171,3 1.3,-3.492 3.665,-23.459c-0.177,-0.185 -0.354,-0.371 -0.531,-0.556c-4.238,1.985 -15.134,15.679 -53.576,26.528c-1.382,0.39 -2.627,2.856 -21.37,-1.029c-7.359,-1.525 1.549,-2.443 16.169,-8.283c40.104,-16.019 53.448,-33.804 58.246,-60.568c0.533,-4.306 0.462,-4.248 0.665,-8.535l-1.365,-1.316Z" style="fill:#55210f;"/><path d="M444.763,522.872c4.876,0.697 43.487,6.219 60.882,9.192c8.426,1.44 48.175,6.727 52.089,8.626l-1.471,0.834c-8.262,3.544 -14.485,7.486 -42.285,21.534c-23.999,12.127 -23.947,12.542 -26.255,12.312c-3.01,-0.3 -40.577,-42.881 -42.961,-52.498Z" style="fill:#fcec05;"/><path d="M425.44,793.18l1.665,1.324l-0.411,1.265c-1.427,0.582 -5.291,2.158 -4.341,18.797c0.967,16.925 11.699,25.828 16.103,29.244l-1.228,1.274c-1.398,0.218 -2.35,-0.281 -1.813,1.109c0.465,1.202 6.096,7.181 6.767,8.56c1.87,3.839 -22.727,28.094 -38.614,25.154c-4.985,-2.709 -4.595,-3.114 -8.24,-7.51c-2.448,-5.079 -2.293,-5.054 -4.023,-10.401c-1.545,-7.55 -1.893,-7.402 -2.211,-15.777c0.086,-1.022 -0.155,-2.054 -0.069,-3.075c1.095,-12.998 13.011,-35.581 36.414,-49.963Z" style="fill:#0061d2;"/><path d="M852.99,354.736c-2.918,1.761 -2.446,2.206 -2.687,2.837c-4.867,36.787 -9.107,46.971 -10.298,50.792c-6.844,3.472 -11.952,3.512 -13.032,3.521c-24.228,0.191 -31.298,-19.634 -31.922,-20.595l-1.234,-1.031l0.261,-2.122c4.87,-1.149 2.711,-6.594 9.718,-23.242c3.236,-7.689 5.892,-19.632 45.258,-11.289c2.044,0.433 1.923,0.552 3.937,1.13Z" style="fill:#0079ef;"/><path d="M800.394,349.847c2.455,-1.895 17.618,-20.896 72.998,-5.178c32.817,9.314 81.904,38.659 85.534,61.354c1,6.251 0.925,6.861 1.107,10.62c-3.705,-2.132 -1.688,-3.454 -3.713,-7.266c-7.379,-13.892 -33.349,-28.77 -34.512,-28.617c-1.229,0.161 0.969,11.338 0.231,11.761c-3.531,2.024 -5.867,-10.747 -14.1,-21.156c-3.83,-4.843 -4.835,-2.585 -4.953,-2.168c-1.513,5.319 -17.794,-6.493 -35.918,-10.914c-0.216,-0.053 -2.059,-0.502 -2.513,1.195c-9.698,36.238 -9.303,36.322 -11.068,39.474c-0.169,-0.441 0.403,-0.317 0.218,-0.801c-1.055,-2.757 -1.504,-2.412 -1.54,-2.655c-0.114,-0.748 0.609,-1.39 0.815,-2.118c2.169,-7.668 4.243,-29.773 0.011,-38.642c-2.013,-0.578 -1.893,-0.696 -3.937,-1.13c-39.365,-8.343 -42.021,3.6 -45.258,11.289c-7.007,16.647 -4.848,22.093 -9.718,23.242c1.794,-19.154 2.774,-23.124 7.08,-33.708c1.411,-2.471 1.454,-2.93 -0.764,-4.582Z" style="fill:#80ddfb;"/><path d="M783.773,393.108c3.054,0.016 3.263,-0.418 3.944,0.504c0.543,0.735 0.351,0.799 1.169,5.102c6.621,34.826 43.543,16.288 46.527,48.52c-0.533,0.855 -0.952,0.254 -1.452,1.056c-0.094,0.151 0.296,0.236 -0.552,2.156c-7.724,17.477 -30.142,-0.896 -51.798,-7.165c-1.162,-0.336 -14.019,-4.058 -14.667,-3.674c-0.644,0.382 -0.721,1.405 -1.365,1.787c-5.773,-5.499 -5.381,-5.769 -6.424,-7.637c3.254,-4.607 1.079,-5.271 2.741,-10.732c7.89,-25.923 17.623,-22.774 21.877,-29.917Z" style="fill:#0072e8;"/><path d="M495.764,313.284c-0.285,-1.568 -3.223,-17.718 2.718,-19.734c7.992,-2.713 26.309,4.628 28.462,5.491c8.883,3.56 4.503,7.595 10.591,15.014c3.448,4.201 3.861,4.566 1.932,9.704c-7.094,18.902 6.818,37.673 22.114,33.356c7.806,-2.203 -0.007,2.23 -0.181,2.289c-50.585,17.073 -64.243,-40.966 -65.637,-46.12Z" style="fill:#fcfcfc;"/><path d="M444.763,522.872c2.384,9.616 39.951,52.198 42.961,52.498c2.308,0.23 2.256,-0.185 26.255,-12.312c27.8,-14.048 34.023,-17.99 42.285,-21.534l1.471,-0.834c1.394,2.97 1.859,10.522 2.74,12.099c0.333,0.595 1.128,0.835 1.461,1.43c-4.818,3.943 -58.382,31.022 -75.076,39.961c-2.954,1.582 -3.487,0.206 -22.146,-21.42c-2.427,-2.813 -16.403,-19.012 -29.581,-35.815c-2.464,-3.142 -0.345,-3.386 2.051,-9.51c0.34,0.507 -0.696,0.421 -0.364,0.916c0.073,0.109 0.135,0.202 1.463,0.725c0.304,0.12 0.519,0.205 2.737,-3.035c0.988,-1.444 -0.634,-5.354 3.745,-3.17Z" style="fill:#f5af06;"/><path d="M731.93,579.004c1.778,-1.565 2.154,-0.742 28.724,-7.091c0.868,-0.207 2.599,-0.769 5.376,11.451c10.014,44.061 1.311,74.034 -0.478,80.194c-0.85,-1.613 -1.315,-1.341 -1.637,-3.107c-0.064,-0.349 -0.014,-0.719 -0.119,-1.058c-7.248,-23.505 -14.34,-33.084 -16.201,-35.598c-1.067,-1.441 -17.502,-20.435 -18.626,-21.412c2.452,-13.726 2.392,-17.593 2.961,-23.379Z" style="fill:#0058bc;"/><path d="M323.447,576.019c17.481,18.459 0.163,27.717 -0.275,28.021c-25.846,17.949 -29.44,16.035 -27.98,18.277c0.708,1.087 10.734,-4.17 11.621,-4.635c8.752,-4.589 0.574,4.663 0.576,4.726c0.11,3.95 5.511,-3.317 5.843,-3.764c5.779,-7.776 6.904,-6.382 15.25,-11.277c1.254,0.491 0.32,1.472 1.577,1.965c0.111,0.044 -0.419,-0.616 1.219,-0.869c0.318,-0.049 -0.48,2.049 3.77,1.422c8.656,-1.278 11.624,-7.846 14.558,-12.765l0.749,-1.056l1.222,-1.059c-0.074,1.388 -0.007,2.781 -0.081,4.17c-2.036,38.202 -59.374,44.208 -79.637,31.693c0.162,-0.39 2.109,-0.497 -0.215,-3.004c-8.073,-8.71 -11.341,-14.882 -18.827,-27.544c1.42,-0.434 0.673,-1.409 2.143,-1.858c0.104,-0.032 0.23,-0.07 1.024,0.89c6.793,8.219 12.259,28.828 41.936,11.065c28.632,-17.137 28.533,-24.896 24.894,-32.296l-0.655,-1.056l1.29,-1.045Z" style="fill:#013383;"/><path d="M597.544,250.475c15.935,5.453 15.872,5.341 31.407,11.804c3.129,1.688 3.095,2.006 3.325,1.809c0.266,-0.228 0.838,-0.719 -2.716,-3.431c-0.569,-0.485 -18.476,-12.071 -18.546,-12.914c-0.208,-2.488 7.007,2.876 20.12,6.005c39.1,9.329 66.902,-2.784 68.338,-3.167c1.834,-0.489 2.234,0.722 3.557,23.5c0.209,7.724 0.308,7.679 0.225,8.342c-0.017,0.132 -1.289,0.662 -1.663,0.582c-8.771,-1.892 -10.752,-10.042 -36.911,-0.632c-1.974,-1.325 -1.928,-1.408 -2.132,-1.431c-27.55,-3.093 -50.065,-18.726 -64.15,-27.566l-1.053,-0.905l0.198,-1.994Z" style="fill:#f0753d;"/><path d="M405.348,490.434c0.146,0.305 -0.394,0.679 -0.248,0.985c0.248,0.52 0.974,0.675 1.275,1.167c1.81,2.954 -5.211,7.676 -1.387,39.052c1.257,10.313 1.945,10.101 4.518,20.158c2.267,0.711 2.398,0.409 3.065,1.401c1.296,1.926 6.515,9.686 20.698,20.322c-0.323,0.34 -3.752,1.861 -0.971,3.382c0.151,0.082 0.381,0.041 0.483,0.18c3.019,4.081 3.338,3.75 3.465,4.165c0.698,2.286 9.756,6.521 10.679,6.953c11.056,5.169 9.502,7.086 14.769,15.2c-0.1,0.662 -0.199,1.324 -0.299,1.986c-4.352,-0.396 -4.187,-0.721 -7.25,-2.184c-1.653,-0.696 -8.09,-4.511 -4.88,2.149c0.961,1.994 3.389,7.031 16.418,22.255c-3.843,0.437 -4.39,0.743 -6.852,3.946c-1.777,2.313 -2.949,1.45 -4.828,0.572c-13.218,-6.172 -15.821,-6.999 -19.499,-15.128c-16.164,-35.732 -47.367,-66.105 -29.156,-126.561Z" style="fill:#a51b0f;"/><path d="M463.709,639.527c1.009,-0.096 5.18,-0.491 12.547,1.77c33.6,10.314 34.698,10.595 37.895,13.723c-3.821,5.68 -5.319,20.679 -9.218,29.863l-1.774,-1.21c-1.823,1.364 -3.923,2.935 -27.866,-5.675c-16.352,-5.88 -13.716,-10.139 -16.997,-17.238c-0.974,-2.107 0.496,-2.22 -0.121,-4.532c-0.151,-0.566 -1.214,-0.537 -1.364,-1.103c0.946,-5.91 0.816,-5.876 2.209,-11.655c1.347,0.631 1.42,2.303 2.059,0.965c1.211,-2.537 0.881,-2.637 2.631,-4.909Z" style="fill:#fac904;"/><path d="M622.751,189.823c0.428,-0.336 4.51,-3.541 5.389,-4.152c6.248,-4.339 -2.137,-1.579 -9.736,-1.892c-16.137,-0.665 -47.19,-10.876 -32.661,-8.965c15.989,2.103 49.458,-8.846 56.659,-12.035c19.984,-8.848 27.072,-15.063 25.322,-10.083c-4.205,11.968 -5.559,11.21 -14.345,20.273c-4.653,4.799 14.466,-0.58 15.676,-0.92c17.231,-4.848 16.534,-6.374 23.106,-9.782c0.164,-0.085 3.322,-0.405 0.374,2.281c-17.486,15.936 -35.378,29.12 -68.824,32.763c-8.966,0.977 -10.128,1.472 -12.074,-0.549c5.606,-3.086 10.255,-6.338 11.113,-6.939Z" style="fill:#af5e26;"/><path d="M306.324,768.601c-3.261,-2.702 -3.35,-2.455 -6.404,-5.347c0.069,-0.17 2.132,-1.08 0.499,-2.581c-1.273,-1.17 -4.237,-9.572 -4.539,-10.43c-0.793,-2.249 0.508,-1.951 0.667,-2.559c3.742,1.894 3.705,3.737 11.365,8.395c13.428,8.166 33.633,5.862 44.093,0.637c20.17,-10.074 24.847,-24.958 25.565,-26.372c0.327,-0.645 0.9,-1.774 9.02,0.072c6.502,1.478 -4.681,20.827 -5.918,26.008c-2.636,2.882 -2.916,2.683 -3.387,4.319c-1.715,5.962 -16.493,11.798 -19.078,12.604c-0.515,0.161 -30.905,12.117 -51.883,-4.747Z" style="fill:#01459e;"/><path d="M424.145,247.808c0.022,0.599 0.452,12.053 4.367,6.083c1.938,-2.955 0.518,-12.647 16.1,-10.43c0.342,0.049 13.792,-1.045 22.796,13.974c2.797,4.665 2.633,7.11 3.543,7.633c0.334,0.192 0.777,-0.508 1.111,-0.316c-21.662,6.605 -26.019,7.255 -52.648,21.178c-4.178,2.185 -4.501,-2.419 -9.02,-16.829c4.999,-7.036 2.237,-8.523 7.658,-15.19c3.573,-4.395 2.216,-7.513 6.094,-6.103Z" style="fill:#280e07;"/><path d="M499.632,121.138c-15.524,31.271 -17.23,30.397 -19.877,38.233c-0.129,0.381 -3.662,10.843 -3.186,3.891c0.199,-2.905 0.477,-2.823 4.56,-17.911c-0.276,-0.189 -0.552,-0.379 -0.827,-0.568c-2.515,0.592 -1.983,1.356 -5.672,5.349c-10.111,10.946 -14.785,14.109 -25.277,35.093c-4.088,8.176 -4.059,13.427 -5.864,14.955c-2.431,2.057 1.939,3.708 13.248,14.242c0.291,0.271 17.222,16.042 1.613,4.708c-22.091,-16.042 -31.706,-8.999 -37.757,-5.807c-13.51,7.127 -12.235,9.592 -12.197,24.896c-0.382,-0.363 0.241,-0.517 -0.177,-0.915c-1.624,-1.546 -1.915,-1.021 -2.02,-1.176c-0.396,-0.585 -0.008,-1.432 -0.204,-2.111c-0.374,-1.302 -1.003,-3.487 -1.188,-16.893c-0.037,-2.667 -1.392,-1.832 -1.724,-2.269c1.546,-1.832 1.672,-1.596 3.788,-2.77c1.426,-0.684 1.426,-0.662 1.54,-0.739c17.57,-11.927 18.045,-14.273 18.434,-16.199c3.312,-1.801 3.47,-0.974 7.135,0.087c1.307,1.28 1.132,1.348 2.378,2.629c1.193,1.226 1.426,0.444 2.521,-0.855c6.991,-45.376 43.282,-64.261 57.272,-76.028c2.11,-1.774 3.331,0.152 3.481,0.159Z" style="fill:#f2ac59;"/><path d="M591.571,116.764l-0.637,0.894c-26.837,1.387 -43.935,8.047 -44.025,8.726c-0.603,4.527 3.52,-4.76 37.846,0.684c17.422,2.763 24.405,0.061 19.601,3.132c-13.6,8.695 -34.574,15.507 -45.986,19.401c-1.23,0.42 -1.161,-0.016 -1.93,-0.99c1.696,-1.53 6.887,-4.789 10.008,-6.951c7.891,-5.465 12.731,-6.561 8.726,-6.749c-21.69,-1.015 -30.943,0.811 -33.581,1.332c-38.06,7.512 -52.822,29.462 -54.228,28.235c-0.088,-0.077 0.987,-3.291 3.846,-6.27c12.274,-12.789 23.382,-33.572 59.779,-40.332c7.221,-1.341 38.863,-3.646 40.58,-1.115Z" style="fill:#f3ae57;"/><path d="M307.205,785.473l1.778,-1.524l1.052,1.056c17.604,16.708 47.527,4.539 35.189,28.305c-3.022,5.821 -17.212,23.965 -32.298,22.236c-2.908,-0.333 -2.92,-0.329 -3.16,-0.248c-1.129,0.382 -0.138,1.364 -1.22,1.731c-4.593,-3.46 -4.351,-3.919 -5.564,-7.384c3.864,-4.882 0.917,-5.764 4.058,-22.41c2.459,-13.031 5.107,-14.692 0.165,-21.76Z" style="fill:#0065d7;"/><path d="M480.697,456.417l-0.939,1.372l-0.066,1.056l0.994,1.056l0.785,0.857c0.605,0.622 17.11,39.027 47.374,41.478c0.215,0.017 0.174,0.099 2.348,1.332c-19.843,9.313 -23.455,7.812 -25.216,12.32c-3.61,0.531 -13.158,2.994 -16.902,-3.175c-0.893,-3.371 -1.078,-3.19 -2.643,-6.21c-2.28,-4.399 -9.663,-18.641 -18.267,-59.203c-0.603,-2.843 3.827,2.04 12.532,9.118Z" style="fill:#f98f54;"/><path d="M403.569,879.906c15.887,2.94 40.484,-21.315 38.614,-25.154c-0.672,-1.379 -6.303,-7.357 -6.767,-8.56c-0.537,-1.39 0.415,-0.891 1.813,-1.109c1.951,0.903 3.038,1.762 3.277,1.952c11.341,8.97 26.769,9.372 30.41,9.843c5.247,0.679 -14.624,23.187 -36.475,34.068c-0.328,0.47 -0.657,0.94 -0.985,1.41c-0.875,-0.063 -0.955,0.724 -2.18,-0.158c-0.635,-0.457 -5.753,0.116 -10.876,-1.698c-12.267,-4.343 -15.356,-8.553 -16.744,-9.442l-0.084,-1.151Z" style="fill:#012f7a;"/><path d="M529.831,510.259c26.791,-11.199 25.504,-13.571 32.905,-17.293c1.922,-0.967 36.712,6.223 80.064,-23.222c8.792,-5.972 -0.98,7.258 -28.316,23.36c-3.434,2.022 -19.372,11.41 -46.63,17.479c-20.839,4.64 -47.553,4.348 -51.704,4.302l0.316,-1.052c0.233,-0.188 -0.312,-0.709 -0.078,-0.897c0.855,-0.688 1.414,1.541 13.443,-2.678Z" style="fill:#004cae;"/><path d="M760.886,226.656c-1.574,-0.465 -1.819,-0.626 -2.544,0.79c-12.171,23.754 -21.511,29.225 -40.878,34.12c-4.632,1.171 0.989,20.546 -4.453,28.512c-5.552,-4.324 -1.911,-14.617 -6.193,-37.047c-1.638,-8.581 4.459,-5.467 19.516,-18.498c6.893,-5.966 6.02,-7.944 12.16,-8.174c7.493,-0.281 17.623,-4.153 19.093,-4.715c6.08,-2.324 3.659,3.245 3.299,5.012Z" style="fill:#2b0f09;"/><path d="M687.712,317.453c1.987,17.886 -7.015,34.527 -10.628,39.85c-18.245,26.88 -47.456,4.359 -46.945,-12.433c0.076,-2.495 2.119,-2.341 2.519,0.07c4.759,28.691 24.42,16.083 28.526,5.025c4.689,-12.629 -1.346,-13.769 -1.808,-14.527c-4.16,-6.816 2.68,-5.798 5.572,-13.766c1.363,1.412 1.356,2.029 3.085,1.192c10.408,-5.042 15.324,-4.309 16.683,-4.106c0.95,0.142 0.825,-0.143 1.732,-0.299l1.264,-1.006Z" style="fill:#fdfdfd;"/><path d="M317.161,780.696l1.032,1.385l1.053,0.403l1.053,0.287l1.053,0.333l1.053,0.158l1.053,0.269l1.053,0.264c2.025,-0.049 1.942,1.198 25.272,1.614c19.832,0.354 14.285,16.275 13.883,18.642c-0.181,1.066 -0.166,0.999 -0.609,2.065c-1.381,3.329 0.522,3.103 0.604,3.301c-17.698,19.872 -41.287,34.436 -55.118,27.612c1.083,-0.366 0.091,-1.348 1.22,-1.731c0.24,-0.081 0.252,-0.085 3.16,0.248c15.086,1.729 29.276,-16.414 32.298,-22.236c12.338,-23.767 -17.585,-11.598 -35.189,-28.305l-1.052,-1.056l-1.778,1.524c-4.061,-2.759 -4.105,-0.146 -8.132,2.661c0.117,-0.963 1.331,-10.931 3.258,-11.673c2.563,-0.986 2.256,1.296 14.831,4.235Z" style="fill:#0041a0;"/><path d="M390.093,581.319c-0.545,0.132 -10.161,3.258 -31.149,2.335c-8.318,-21.518 -12.016,-20.664 -10.808,-25.464c3.503,-13.927 0.086,-17.813 5.897,-17.301c12.469,1.099 32.439,19.5 36.061,40.431Z" style="fill:#0062d3;"/><path d="M457.779,703.778c-0.727,-9.251 -4.625,-19.756 -0.537,-17.935c1.821,0.811 1.331,1.472 3.16,2.304c3.953,1.797 4.059,1.424 4.375,1.623c9.559,6.027 9.925,5.12 20.906,8.318c3.227,0.94 27.5,8.011 41.087,8.75c0.389,0.021 11.668,0.635 4.046,2.724c-24.004,6.578 -50.756,13.779 -66.977,3.249c-7.417,-4.815 -5.905,-6.998 -6.062,-9.033Z" style="fill:#1f2225;"/><path d="M739.043,103.413c25.09,53.781 11.373,116.401 -37.479,136.767c-28.676,11.955 -62.691,9.881 -45.436,7.092c3.87,-0.626 3.78,-0.605 7.675,-1.229c40.457,-6.051 70.913,-35.896 79.187,-70.016c10.775,-44.435 -5.893,-70.119 -5.7,-70.753c0.248,-0.816 1.505,-1.044 1.753,-1.86Z" style="fill:#663321;"/><path d="M390.093,581.319c5.864,22.167 -3.801,36.873 -4.436,37.055c-3.777,1.081 -3.95,-1.542 -24.243,1.148c-3.03,0.402 -9.486,2.898 -7.975,-0.106c8.321,-16.545 6.716,-17.206 5.504,-35.762c20.988,0.923 30.604,-2.203 31.149,-2.335Z" style="fill:#002667;"/><path d="M456.179,362.837c2.494,-2.214 1.051,-2.833 0.613,-14.803c-0.261,-7.146 -1.828,-13.91 1.832,-8.943c1.13,1.534 10.416,10.089 11.343,10.944c8.894,8.195 8.959,8.032 18.798,14.998l-0.608,0.925c-0.702,0.628 -0.449,0.875 -1.358,1.215c-14.214,5.317 -14.356,32.283 -1.932,55.743c5.181,9.782 -2.507,-0.424 -2.618,-0.608c-0.695,-1.153 -13.204,-19.95 -21.328,-38.631c-3.36,-7.726 -4.447,-17.714 -4.447,-17.775c-0.002,-0.712 0.361,-0.641 0.174,-1.328c-0.038,-0.139 -0.035,-0.129 -0.469,-1.736Z" style="fill:#f68651;"/><path d="M455.282,222.052c4.106,1.908 4.297,1.406 8.079,3.829c3.481,2.23 3.357,2.678 7.46,2.855c0.961,10.618 0.874,10.561 1.581,21.172c-0.165,11.75 1.532,12.03 -0.34,14.845c-0.334,-0.192 -0.777,0.508 -1.111,0.316c-0.91,-0.523 -0.746,-2.968 -3.543,-7.633c-9.004,-15.018 -22.454,-13.925 -22.796,-13.974c-15.582,-2.218 -14.162,7.474 -16.1,10.43c-3.915,5.97 -4.345,-5.484 -4.367,-6.083c-0.379,-2.706 0.303,-2.636 -0.074,-5.271c-1.278,-8.929 -0.531,-9.186 -1.196,-9.576c-0.418,-0.245 -1.031,0.147 -1.448,-0.098l-1.385,1.006c-0.149,-0.521 -1.706,-1.884 1.363,-6.096c6.443,1.499 6.304,1.581 12.673,3.03c7.209,1.64 7.569,0.601 7.365,0.047c-2.417,-6.558 -5.829,-10.573 1.158,-10.008c1.408,0.114 2.825,0.039 4.234,0.131c0.315,0.021 6.816,2.519 7.247,2.313c0.517,-0.248 0.683,-0.986 1.199,-1.234Z" style="fill:#4b1f10;"/><path d="M675.245,572.542c0.421,0.051 5.146,0.628 4.076,3.401c-19.227,49.822 -72.668,73.791 -80.835,77.454c0.003,-0.541 -0.839,-0.849 -0.836,-1.39c0,-0.064 10.589,-8.626 18.089,-19.724c5.027,-7.438 5.902,-6.851 5.835,-7.617c-0.063,-0.711 -1.28,-0.955 -1.343,-1.666c21.365,-9.799 48.24,-37.106 55.014,-50.459Z" style="fill:#d91a15;"/><path d="M841.716,419.78c0.397,0.459 1.144,-0.125 1.886,2.181c4.864,15.109 38.401,27.345 44.9,8.598c0.13,-0.376 1.551,-4.473 2.246,-4.436c1.036,0.054 1.783,1.052 1.891,1.195c0.396,0.529 -0.649,0.464 -0.297,0.933c-0.753,2.082 -6.296,17.413 -14.147,23.772c-11.232,9.098 -18.881,13.426 -33.122,6.461c-9.057,-4.429 -0.052,-10.144 -7.954,-25.815c-2.813,-5.579 -0.881,-5.888 4.598,-12.889Z" style="fill:#013180;"/><path d="M857.513,502.024c16.568,-0.687 16.529,-1.109 17.969,-1.119c3.223,-0.022 -1.742,5.127 -9.591,12.748c-31.502,30.583 -74.078,26.673 -92.857,18.284c0.496,-0.349 0.624,-1.085 1.12,-1.434c0.15,-0.105 0.165,-0.05 5.378,0.719c26.269,3.878 70.222,-15.302 77.982,-29.199Z" style="fill:#0260cb;"/><path d="M480.697,456.417c38.593,28.956 65.09,32.834 69.138,34.264c1.709,0.604 1.101,2.77 -18.642,12.887c-2.174,-1.234 -2.133,-1.315 -2.348,-1.332c-30.264,-2.451 -46.769,-40.856 -47.374,-41.478l-0.785,-0.857l-0.994,-1.056l0.066,-1.056l0.939,-1.372Z" style="fill:#d3562e;"/><path d="M544.572,206.8c-1.68,0.201 -19.146,-0.313 -12.103,3.621c0.311,0.173 6.41,-0.921 6.855,2.496c0.837,6.433 -6.38,-7.033 -54.632,6.512c-11.436,3.21 -12.507,4.433 -14.694,6.106c-3.657,-6.552 -4.387,-6.502 -6.631,-9.36c24.705,-20.449 58.121,-19.524 75.912,-12.399c2.67,1.069 2.589,1.178 4.343,1.573l0.95,1.449Z" style="fill:#240a02;"/><path d="M771.177,539.782c9.527,2.987 14.588,4.084 15.875,4.363c3.259,0.706 -1.682,3.551 -1.974,3.719c-0.395,0.227 -20.393,12.438 -47.725,18.244c-22.506,4.781 -56.05,3.36 -70.435,1.218c0.393,-0.374 0.612,-0.906 1.005,-1.28c3.949,-3.756 27.287,8.745 96.767,-22.015c6.021,-2.666 5.628,-3.685 6.487,-4.249Z" style="fill:#d31613;"/><path d="M287.62,507.556c-2.74,2.295 -3.806,2.314 -7.124,3.475c-2.649,0.927 -27.233,13.121 -40.084,26.085c-17.552,17.707 4.693,33.152 -3.319,29.218c-1.116,-0.548 -2.028,-1.475 -3.17,-1.967c-0.282,-0.121 -0.613,0.336 -0.895,0.214c-0.086,0.3 -0.173,0.599 -0.259,0.899c1.966,2.364 2.024,2.223 4.487,3.985c4.345,3.107 9.037,1.339 9.305,12.876c0.226,9.71 2.022,9.242 6.256,17.977c7.486,12.662 10.754,18.834 18.827,27.544c2.324,2.507 0.377,2.614 0.215,3.004c-24.409,-20.877 -42.818,-58.593 -44.922,-79.165c-2.348,-22.959 39.986,-44.355 60.683,-44.146Z" style="fill:#8ee5fb;"/><path d="M892.582,444.187c-0.215,1.233 -5.212,9.102 11.372,14.453c8.544,2.757 17.064,0.512 18.999,-4.018c0.459,-1.075 0.593,-1.064 0.693,-1.056c1.18,0.101 0.561,1.162 1.742,1.263c-15.281,43.16 -63.602,15.232 -56.974,10.75c2.054,-1.389 18.427,-12.461 22.319,-21.513l1.849,0.12Z" style="fill:#012d76;"/><path d="M575.254,718.676c2.103,-0.071 14.09,-1.771 12.833,1.982c-5.496,16.403 -20.347,41.097 -34.427,55.42c-14.885,15.142 -25.543,24.179 -49.995,38.639c-0.635,-1.692 -0.789,-1.707 -0.684,-1.822c0.544,-0.596 1.625,-1.256 1.777,-1.349c2.636,-1.609 2.846,-1.041 3.055,-1.2c0.26,-0.197 -0.102,-0.7 0.068,-0.979c1.678,-2.757 4.279,-0.004 30.138,-26.788c21.787,-22.566 36.765,-55.319 37.428,-63.018l-0.193,-0.885Z" style="fill:#e32a20;"/><path d="M888.669,491.471l-0.663,0.993c-13.83,2.5 -36.829,9.136 -64.034,-7.48c-5.714,-3.49 -10.637,-6.035 -6.435,-5.935c17.206,0.41 16.372,-9.408 20.961,-8.167c8.544,2.311 8.19,3.285 16.9,4.982c4.522,0.881 4.329,6.905 31.435,14.092c1.763,0.467 1.502,0.797 1.836,1.515Z" style="fill:#012667;"/><path d="M298.99,507.797c0.997,-0.601 0.283,-1.848 3.433,-2.071c0.419,-0.03 2.329,-0.164 5.247,-0.29c28.785,-1.235 24.524,17.065 31.895,22.005c-0.343,0.708 -0.687,1.416 -1.03,2.124l-0.021,1.056l-0.171,1.056l-0.323,1.056c-2.21,10.441 -16.531,16.358 -23.388,-0.871c-2.426,-6.095 -3.162,-5.559 -4.084,-6.437c-1.762,-4.707 -2.64,-9.002 -11.558,-17.627Z" style="fill:#0076eb;"/><path d="M444.763,522.872c-4.379,-2.184 -2.757,1.727 -3.745,3.17c-2.218,3.239 -2.433,3.154 -2.737,3.035c-1.328,-0.524 -1.39,-0.616 -1.463,-0.725c-0.331,-0.495 0.704,-0.409 0.364,-0.916c3.842,-8.81 3.546,-10.814 9.452,-10.029c21.389,2.845 113.909,15.681 115.803,16.645c1.756,0.894 0.465,17.982 -0.503,20.167c-0.333,-0.595 -1.128,-0.835 -1.461,-1.43c-0.882,-1.577 -1.347,-9.129 -2.74,-12.099c-3.913,-1.899 -43.663,-7.186 -52.089,-8.626c-17.394,-2.973 -56.006,-8.495 -60.882,-9.192Z" style="fill:#fbf8a4;"/><path d="M528.511,662.407c2.831,-2.145 3.081,-0.79 6.754,-0.306c16.199,2.137 18.386,1.796 18.9,2.566c0.836,1.255 -8.727,29.899 -9.487,30.619c-1.942,1.838 -23.433,-1.695 -24.122,-2.267c-1.367,-1.135 5.829,-18.731 7.955,-30.612Z" style="fill:#1a1d20;"/><path d="M958.164,433.422c-1.886,12.869 -9.633,47.1 -27.875,53.064c-12.941,4.23 -29.23,0.496 -34.76,-0.384c-3.414,-0.544 -2.961,-2.833 -1.081,-2.702c19.046,1.326 29.922,-17.87 31.604,-20.315c0.256,0.528 1.163,0.511 1.419,1.038c0.001,0.003 -0.654,0.898 -0.043,1.968c1.14,1.994 9.451,11.666 22.303,-18.038c5.149,-11.901 3.336,-14.397 8.434,-14.63Z" style="fill:#023280;"/><path d="M457.912,275.87c12.962,-4.568 31.056,-7.049 45.665,-6.518c7.144,0.26 36.29,1.319 81.163,37.448c15.649,13.947 17.555,11.958 17.985,13.718c1.332,5.454 -2.562,-1.802 -51.509,-27.799c-48.232,-25.618 -65.059,-20.602 -92.806,-14.869c-0.166,-0.66 -0.333,-1.32 -0.499,-1.979Z" style="fill:#555558;"/><path d="M765.579,441.393c0.644,-0.382 0.721,-1.405 1.365,-1.787c0.648,-0.385 13.505,3.338 14.667,3.674c21.656,6.269 44.074,24.643 51.798,7.165c0.848,-1.92 0.458,-2.005 0.552,-2.156c0.5,-0.801 0.919,-0.201 1.452,-1.056c0.04,2.051 0.365,18.668 -12.595,22.316c-17.666,4.973 -51.108,-22.74 -57.239,-28.157Z" style="fill:#013488;"/><path d="M456.811,655.126c0.151,0.566 1.214,0.537 1.364,1.103c0.617,2.312 -0.853,2.425 0.121,4.532c3.281,7.098 0.645,11.357 16.997,17.238c23.943,8.61 26.043,7.039 27.866,5.675l1.774,1.21c-0.278,0.885 -0.556,1.769 -0.835,2.654c5.1,2.338 6.61,-7.011 9.201,-17.534c0.962,-3.905 3.04,-9.943 1.738,-14.612c4.847,-0.278 5.253,-0.619 8.625,2.956c-0.571,2.792 -5.908,28.882 -11.761,33.622c-5.361,4.342 -27.042,-1.681 -45.015,-9.72c-14.431,-6.455 -11.586,-12.726 -10.077,-27.123Z" style="fill:#f5b10a;"/><path d="M178.969,426.91c1.492,1.573 2.817,2.118 0.873,3.068c-3.61,1.764 -7.331,6.456 -9.063,6.825c-2.677,0.571 -1.851,1.956 -4.351,2.943c-2.415,0.954 -2.337,1.912 -3.125,2.159c-0.387,0.121 -0.877,-0.457 -1.199,-0.209c-0.712,0.548 -0.152,1.114 -8.083,7.8c-4.291,3.618 -5.536,3.471 -12.112,10.111c-1.855,1.873 -2.1,1.497 -3.768,3.607c-0.053,0.067 0,0.01 -9.722,9.193c-3.994,3.772 -2.85,5.057 -6.26,6.42c-2.525,1.009 -2.208,1.554 -1.789,4.295c0.166,1.088 -0.276,0.979 -0.236,1.056c0.507,0.986 1,0.428 1.546,1.489c-18.401,19.042 -27.456,33.641 -27.469,33.65c-1.543,1.125 -0.565,1.446 0.108,3.289c-17.096,20.615 -16.201,23.746 -22.939,36.29c-1.172,2.181 -1.408,1.898 -3.326,3.358c0.114,-0.423 0.739,-2.75 1.804,-5.165c29.652,-67.241 70.173,-105.198 109.111,-130.178Z" style="fill:#a9ebf9;"/><path d="M327.672,920.112c2.149,-3.104 7.539,-16.723 16.533,-28.725c3.366,-4.493 10.261,-16.975 22.6,-25.955c6.091,-4.433 11.623,6.236 -8.003,26.794c-10.888,11.405 -25.093,24.449 -29.008,30.012c-1.23,1.748 -1.611,0.767 -3.597,-0.101c0.872,-0.992 0.64,-1.047 1.475,-2.024Z" style="fill:#5ac6fc;"/><path d="M351.576,595.005l-1.222,1.059l-0.749,1.056c-2.934,4.919 -5.902,11.487 -14.558,12.765c-4.249,0.628 -3.451,-1.471 -3.77,-1.422c-1.638,0.253 -1.107,0.913 -1.219,0.869c-1.257,-0.492 -0.323,-1.473 -1.577,-1.965c14.779,-11.483 4.862,-24.984 0.59,-34.665c-1.842,-4.175 7.419,-9.168 11.069,-5.994c9.176,7.978 11.166,25.87 11.436,28.297Z" style="fill:#014bb0;"/><path d="M498.242,817.589c-3.597,5.749 -12.138,8.764 -12.691,8.581c-1.509,-0.502 -1.494,-0.536 -3.026,0.022c-6.251,1.336 -6.224,1.501 -12.592,0.63c-9.445,-1.291 -23.29,-13.341 -22.702,-25.89c0.202,-4.32 1.936,-0.14 5.036,2.795c11.305,10.701 11.009,-2.154 14.574,-4.669c2.982,-2.103 0.876,6.082 0.961,7.055c1.387,15.805 24.403,9.273 30.439,11.477Z" style="fill:#7d0201;"/><path d="M723.758,453.568c-2.156,0.891 -5.499,0.901 -12.487,6.548c-3.216,2.599 -19.353,14.07 -27.451,28.374c-1.373,2.425 -3.39,1.298 -2.96,-0.053c0.148,-0.464 0.189,-0.593 3.207,-5.176c1.225,-1.807 1.074,-1.881 14.124,-23.361c0.98,-1.613 0.602,-1.656 -0.016,-3.407c1.233,-1.53 8.483,-10.527 17.515,-17.216c6.014,-4.454 13.998,-10.978 12.362,-5.75c-2.923,9.338 -2.856,9.295 -4.293,20.041Z" style="fill:#fa5227;"/><path d="M606.698,658.179c0.508,3.61 0.434,4.068 0.377,4.418c-0.293,1.81 -7.736,21.152 -8.116,21.934c-1.055,2.171 -0.804,2.202 -1.619,4.436c-8.095,3.752 -8.173,3.435 -16.841,5.324c-3.57,0.778 -0.87,-3.868 0.176,-7.394c4.058,-13.681 4.685,-13.462 5.759,-19.128c0.09,-0.476 1.002,-5.285 2.326,-5.592c8.967,-2.078 8.894,-1.935 17.938,-3.998Z" style="fill:#14181d;"/><path d="M384.59,467.237c-4.99,10.726 -12.38,23.634 -3.529,51.867c0.484,1.224 5.759,14.559 4.815,15.739c-0.46,0.575 -1.28,0.786 -1.74,1.362c-11.903,-17.596 -24.929,-42.803 -9.007,-70.991c1.365,-2.416 9.087,1.844 9.462,2.023Z" style="fill:#fb622d;"/><path d="M402.865,345.708c-4.152,-14.9 1.605,-20.256 -1.658,-25.036c-1.857,-2.72 14.481,-11.879 29.386,16.941c0.318,0.615 4.094,7.917 1.474,8.53c-1.067,0.25 -6.341,-0.769 -7.545,7.143c-1.136,7.468 8.838,15.161 3.225,14.051c-0.347,-0.069 -0.309,-0.107 -4.173,-1.446c-1.123,-2.337 -12.098,-15.778 -2.916,-23.865c1.53,-1.348 5.853,-1.138 1.487,-7.521c-6.518,-9.531 -11.362,-11.548 -16.022,-1.026c-2.316,5.228 -0.828,8.338 -3.258,12.23Z" style="fill:#b13216;"/><path d="M512.038,262.392l1.035,-1.33l1.053,-0.159c0.744,-0.704 0.975,-0.372 1.397,-1.323c11.917,-26.843 29.208,-24.33 32.391,-23.867c9.781,1.421 -2.534,4.383 -17.047,30.494c-9.341,-2.505 -9.27,-2.383 -18.83,-3.815Z" style="fill:#fddca9;"/><path d="M402.865,345.708c2.43,-3.892 0.943,-7.001 3.258,-12.23c4.66,-10.522 9.503,-8.506 16.022,1.026c4.365,6.383 0.043,6.173 -1.487,7.521c-9.182,8.087 1.794,21.528 2.916,23.865c-15.769,-0.39 -19.459,-15.807 -19.959,-17.894c-0.287,-1.198 -0.347,-1.06 -0.75,-2.288Z" style="fill:#f17b4b;"/><path d="M406.882,589.641c1.903,3.705 17.035,29.743 9.294,30.78c-2.845,0.381 -22.216,0.602 -21.203,-3.263c1.455,-5.553 3.524,-6.58 3.372,-24.274c7.049,-0.236 6.867,-1.07 7.435,-2.097l1.102,-1.146Z" style="fill:#870201;"/><path d="M463.709,639.527c-1.749,2.272 -1.42,2.372 -2.631,4.909c-0.639,1.339 -0.713,-0.334 -2.059,-0.965c0.298,-0.881 2.843,-8.41 5.798,-10.077c3.958,-2.232 28.004,5.142 30.371,5.867c27.725,8.502 28.989,10.464 28.475,19.085c-3.372,-3.575 -3.778,-3.234 -8.625,-2.956l-0.887,-0.372c-3.197,-3.127 -4.296,-3.408 -37.895,-13.723c-7.367,-2.262 -11.538,-1.866 -12.547,-1.77Z" style="fill:#fcf990;"/><path d="M631.312,376.406c0.37,0.379 0.48,0.235 5.014,4.321c-0.275,0.237 -0.788,-0.472 -1.063,-0.234c-0.645,0.557 -0.813,1.5 -1.249,2.232c-8.037,13.477 -20.875,13.73 -24.038,14.221c-5.816,0.903 -22.438,-9.65 -17.769,-10.499c33.775,-6.143 33.672,-6.689 36.652,-6.828c0.818,-1.071 1.636,-2.142 2.454,-3.212Z" style="fill:#dc6237;"/><path d="M707.749,297.311c-5.967,-0.116 -17.428,-17.501 -74.398,14.192c-0.362,0.201 -0.236,0.232 -4.426,2.678c-0.232,0.135 -3.913,2.284 -3.354,0.004c0.125,-0.509 0.861,-0.798 0.847,-1.322c-0.013,-0.491 -0.899,-0.666 -0.912,-1.157c12.64,-3.402 28.584,-20.847 51.977,-25.521c15.845,-3.166 28.731,6.038 30.266,11.125Z" style="fill:#555558;"/><path d="M559.544,665.759c8.515,3.304 8.722,1.795 17.77,1.455c3.86,-0.145 0.161,6.209 0.214,7.008c0.146,2.211 -1.672,4.773 -1.831,5.36c-0.173,0.637 0.177,1.35 -0.021,1.98c-0.157,0.499 -0.797,0.731 -0.984,1.219c0,0 1.455,1.79 1.581,1.946c-1.764,4.916 -1.683,4.837 -3.688,9.75c-0.942,-1.612 -1.099,-1.488 -1.233,-3.441c0.73,-1.308 2.454,-1.249 1.117,-2.004c0,0 -2.159,0.562 -2.347,0.611c-10.586,0.815 -12.215,1.673 -13.033,-2.79c-0.463,-2.529 0.3,-2.527 0.377,-3.18l0.111,-1.056l0.096,-1.056l0.191,-1.056l0.257,-1.056l0.499,-1.056l0.046,-1.056l-0.446,-1.056l-1.235,-1.155c1.25,-4.699 1.276,-4.607 2.558,-9.371Z" style="fill:#fcda09;"/><path d="M793.816,390.259l1.234,1.031c0.624,0.961 7.694,20.786 31.922,20.595c1.08,-0.009 6.188,-0.049 13.032,-3.521c-2.1,9.72 -4.617,15.912 -16.112,13.252c-36.072,-8.344 -30.094,-30.944 -30.076,-31.358Z" style="fill:#013b95;"/><path d="M760.886,226.656c-19.383,47.182 -38.544,35.536 -39.681,44.219c-0.244,1.864 -4.289,32.769 -6.362,22.624c-0.062,-0.304 -0.138,-0.251 -1.832,-3.422c5.442,-7.966 -0.179,-27.341 4.453,-28.512c19.366,-4.895 28.706,-10.366 40.878,-34.12c0.726,-1.416 0.971,-1.255 2.544,-0.79Z" style="fill:#552921;"/><path d="M706.552,358.562c3.133,-13.084 2.178,-20.304 8.635,-14.606c9.052,7.987 8.825,38.751 -13.23,61.43c-0.217,-0.605 -1.078,-0.823 -1.295,-1.428c-0.37,-1.032 13.146,-15.333 12.946,-34.808c-0.077,-7.468 0.291,-9.26 -7.056,-10.587Z" style="fill:#fab678;"/><path d="M706.552,358.562c7.347,1.327 6.979,3.119 7.056,10.587c0.2,19.475 -13.316,33.776 -12.946,34.808c0.217,0.605 1.078,0.823 1.295,1.428c-0.287,0.274 -5.409,5.175 -4.644,1.735c4.576,-20.585 3.102,-20.778 8.287,-41.251c-0.039,-3.754 0.169,-3.635 0.951,-7.308Z" style="fill:#e9743d;"/><path d="M429.035,306.655c-0.947,0.499 -0.943,2.427 -3.463,0.379c-2.17,-1.764 -23.377,-13.61 -30.267,8.338c-6.372,20.3 -2.511,25.063 -2.735,30.601c-0.013,0.333 -0.003,0.697 0.162,0.986c0.814,1.424 1.274,1.471 0.693,2.111c-0.426,0.469 -1.136,0.612 -1.562,1.081c-12.368,-39.294 9.847,-70.802 37.172,-43.495Z" style="fill:#fae2b9;"/><path d="M307.205,785.473c4.942,7.068 2.293,8.729 -0.165,21.76c-3.141,16.647 -0.193,17.528 -4.058,22.41c-7.001,-18.404 -4.352,-38.204 -3.909,-41.51c4.027,-2.807 4.072,-5.42 8.132,-2.661Z" style="fill:#5dcafc;"/><path d="M296.841,514.977c1.28,0.559 7.576,3.307 7.78,15.647c0.086,5.221 -3.766,1.547 -28.416,11.962c-5.562,2.35 -9.25,3.391 -11.735,5.327l-1.053,0.585l1.174,1.585c-11.771,4.268 -11.738,4.335 -12.776,4.661c-1.674,0.526 -2.854,-1.221 -1.105,-2.03c9.225,-4.27 8.171,-6.073 33.904,-18.671c11.324,-5.544 12.299,-6.516 12.228,-19.066Z" style="fill:#02378d;"/><path d="M313.38,547.297c0.797,1.262 7.303,11.567 3.916,18.257c-1.217,2.403 -2.962,-0.475 -30.904,13.254c-2.535,1.246 -5.692,1.97 -8.227,4.335l1.128,1.612c-6.24,1.992 -6.249,1.498 -12.637,2.413c-1.733,0.248 -1.607,-1.856 0.052,-2.454c3.296,-1.189 6.609,-2.384 38.596,-20.715c8.869,-5.082 6.441,-13.674 6.836,-15.515c0.12,-0.56 1.121,-0.628 1.241,-1.188Z" style="fill:#023689;"/><path d="M366.671,540.122c0.008,-0.34 -0.747,-0.364 -0.739,-0.704c0.004,-0.171 7.512,-1.311 8.688,0.095c7.944,9.491 8.614,8.757 17.181,17.622c1.991,2.06 0.049,3.07 15.081,32.506l-1.102,1.146c-0.568,1.027 -0.386,1.861 -7.435,2.097c-0.237,-2.93 -1.046,-36.029 -31.624,-51.788l-0.05,-0.974Z" style="fill:#cc0707;"/><path d="M384.59,467.237c2.161,0.97 4.321,1.94 6.482,2.91l-0.676,1.364c-3.497,16.543 -10.103,15.683 -7.787,44.318c0.217,2.679 -0.77,2.262 -1.548,3.274c-8.851,-28.232 -1.461,-41.141 3.529,-51.867Z" style="fill:#e00f05;"/><path d="M455.282,222.052c-0.517,0.248 -0.683,0.986 -1.199,1.234c-0.431,0.207 -6.932,-2.292 -7.247,-2.313c-1.409,-0.092 -2.827,-0.017 -4.234,-0.131c-6.986,-0.565 -3.575,3.45 -1.158,10.008c0.204,0.554 -0.156,1.592 -7.365,-0.047c-6.369,-1.449 -6.23,-1.531 -12.673,-3.03c-2.94,-2.526 -2.84,-2.574 -4.363,-3.571c10.7,-7.91 27.995,-10.765 38.239,-2.15Z" style="fill:#622613;"/><path d="M800.394,349.847c2.218,1.652 2.174,2.111 0.764,4.582c-0.557,0.046 -1.073,-0.435 -1.629,-0.389c-2.852,0.233 -10.733,31.357 -12.864,32.574c-3.456,1.974 -11.218,4.859 -10.835,2.558c0.524,-3.15 7.881,-17.683 8.641,-19.184c1.917,0.88 1.914,1.05 2.065,0.948c1.529,-1.035 0.923,-1.997 1.051,-2.163c0.207,-0.268 0.76,0.075 1,-0.163c0.212,-0.21 -0.085,-0.635 0.064,-0.893c3.284,-5.679 3.92,-5.495 3.642,-5.981c-0.346,-0.604 -1.214,-0.783 -1.56,-1.387c5.216,-6.991 6.791,-7.843 9.662,-10.501Z" style="fill:#0b9df9;"/><path d="M310.548,525.424c0.922,0.877 1.658,0.342 4.084,6.437c6.857,17.229 21.179,11.312 23.388,0.871l0.323,-1.056l0.171,-1.056l0.021,-1.056c0.343,-0.708 0.687,-1.416 1.03,-2.124c0.346,1.972 3.661,20.864 -8.687,23.462c-9.588,2.018 -11.636,-6.068 -13.208,-8.299c-5.477,-7.77 -5.556,-7.814 -7.122,-17.181Z" style="fill:#01368f;"/><path d="M420.042,233.869l1.385,-1.006c0.418,0.245 1.031,-0.147 1.448,0.098c0.665,0.39 -0.082,0.647 1.196,9.576c0.377,2.635 -0.305,2.565 0.074,5.271c-3.878,-1.41 -2.521,1.708 -6.094,6.103c-5.421,6.668 -2.659,8.155 -7.658,15.19c-0.917,-2.976 -0.8,-2.944 -1.893,-7.542c0.199,-0.273 -0.425,-0.715 -0.226,-0.988c0.434,-0.595 1.285,-0.735 1.837,-1.222c0.881,-0.775 1.035,-0.905 0.372,-1.931c-1.853,-2.868 -0.985,-3.061 -0.27,-6.408c0.999,-1.868 1.312,-1.601 2.329,-3.502c6.755,-12.643 7.088,-12.464 7.501,-13.639Z" style="fill:#3f190d;"/><path d="M606.698,658.179c0.629,-0.265 7.583,-3.2 8.321,-1.864c0.502,0.91 -3.31,14.936 -8.377,24.096c-3.439,6.217 -8.364,8.182 -9.302,8.556c0.815,-2.233 0.565,-2.265 1.619,-4.436c0.38,-0.782 7.823,-20.124 8.116,-21.934c0.057,-0.35 0.131,-0.808 -0.377,-4.418Z" style="fill:#0651ba;"/><path d="M556.985,675.129l1.235,1.155l0.446,1.056l-0.046,1.056l-0.499,1.056l-0.257,1.056l-0.191,1.056l-0.096,1.056l-0.111,1.056c-0.077,0.654 -0.84,0.651 -0.377,3.18c0.818,4.463 2.447,3.605 13.033,2.79c0.41,0.464 0.82,0.928 1.23,1.392c0.134,1.953 0.291,1.829 1.233,3.441c-0.681,1.266 -0.536,3.089 -19.489,3.292c-4.71,0.05 -2.177,-2.849 3.89,-22.64Z" style="fill:#f6b106;"/><path d="M298.99,507.797c-1.387,-1.507 -8.047,-3.503 -1.866,-4.625c14.879,-2.703 33.719,-8.806 42.441,24.27c-7.372,-4.939 -3.111,-23.239 -31.895,-22.005c-2.918,0.125 -4.827,0.26 -5.247,0.29c-3.15,0.222 -2.436,1.469 -3.433,2.071Z" style="fill:#92e2f7;"/><path d="M783.773,393.108c-4.254,7.143 -13.987,3.994 -21.877,29.917c-1.662,5.461 0.513,6.125 -2.741,10.732c-3.628,-9.701 0.196,-36.137 24.618,-40.649Z" style="fill:#73d6f8;"/><path d="M296.547,747.685c-0.158,0.608 -1.46,0.309 -0.667,2.559c0.303,0.858 3.266,9.26 4.539,10.43c1.633,1.501 -0.43,2.411 -0.499,2.581c-19.451,-22.92 -19.881,-48.947 -17.53,-47.935c2.739,1.179 -1.537,11.997 14.157,32.366Z" style="fill:#4bc4f1;"/><path d="M687.712,317.453l-1.264,1.006c-0.907,0.157 -0.782,0.441 -1.732,0.299c-1.359,-0.203 -6.276,-0.936 -16.683,4.106c-1.728,0.837 -1.722,0.22 -3.085,-1.192c0.808,-6.226 1.25,-6.275 3.115,-7.126c19.108,-8.716 18.765,0.155 19.65,2.906Z" style="fill:#e3e5e8;"/><path d="M708.013,434.655l-1.113,-1.353c-2.646,0.28 -2.568,-0.027 -5.262,0.236c-15.894,1.552 -15.5,3.821 -16.86,3.593c-0.551,-0.092 -0.949,-0.657 -1.5,-0.749c2.028,-2.923 2.023,-2.817 4.004,-5.772c0.974,-1.453 3.055,-4.558 21.712,-2.321c8.385,1.005 0.903,5.04 -0.982,6.366Z" style="fill:#de2f28;"/><path d="M395.329,872.396c3.645,4.396 3.255,4.801 8.24,7.51l0.084,1.151c1.388,0.889 4.478,5.099 16.744,9.442c5.123,1.814 10.242,1.241 10.876,1.698c1.226,0.882 1.306,0.095 2.18,0.158c2.955,0.085 2.88,0.281 5.823,0.386c-0.121,0.196 0.431,2 -3.084,2.117c-29.276,0.974 -36.303,-12.951 -40.726,-18.224c-2.2,-2.623 -0.939,-2.909 -0.138,-4.239Z" style="fill:#010c30;"/><path d="M417.043,224.202c1.523,0.997 1.423,1.045 4.363,3.571c-3.07,4.212 -1.512,5.576 -1.363,6.096c-0.412,1.175 -0.745,0.997 -7.501,13.639c-1.016,1.902 -1.33,1.634 -2.329,3.502c-0.893,-2.969 -0.825,-8.12 -1.031,-9.562c0.168,-0.502 0.977,-0.597 1.146,-1.099c0.893,-2.661 0.221,-2.724 1.13,-5.459c1.965,-5.913 1.068,-6.456 5.585,-10.689Z" style="fill:#592211;"/><path d="M403.084,214.854c0.332,0.437 1.687,-0.398 1.724,2.269c0.185,13.406 0.813,15.591 1.188,16.893c0.195,0.679 -0.192,1.526 0.204,2.111c0.105,0.155 0.396,-0.369 2.02,1.176c0.417,0.397 -0.205,0.551 0.177,0.915c0.313,1.665 0.3,1.579 0.787,3.23c0.206,1.442 0.138,6.593 1.031,9.562c-0.715,3.347 -1.583,3.54 0.27,6.408c0.662,1.025 0.508,1.156 -0.372,1.931c-0.552,0.486 -1.404,0.627 -1.837,1.222c-0.199,0.273 0.425,0.715 0.226,0.988c-7.787,-33.126 -6.063,-42.999 -5.416,-46.704Z" style="fill:#924e27;"/><path d="M514.151,655.02l0.887,0.372c1.301,4.669 -0.776,10.707 -1.738,14.612c-2.591,10.523 -4.101,19.871 -9.201,17.534c0.278,-0.885 0.556,-1.769 0.835,-2.654c3.899,-9.184 5.397,-24.184 9.218,-29.863Z" style="fill:#531c03;"/><path d="M559.544,665.759c1.584,-3.209 5.58,-1.454 19.861,-2.585c2.403,-0.19 3.794,-0.899 3.271,1.507c-0.862,3.959 -5.786,18.208 -6.403,20.047c-0.127,-0.156 -1.581,-1.946 -1.581,-1.946c0.187,-0.488 0.827,-0.721 0.984,-1.219c0.198,-0.63 -0.152,-1.343 0.021,-1.98c0.159,-0.587 1.978,-3.148 1.831,-5.36c-0.053,-0.799 3.645,-7.153 -0.214,-7.008c-9.047,0.339 -9.255,1.849 -17.77,-1.455Z" style="fill:#faf793;"/><path d="M396.861,360.849c1.457,-0.709 1.478,-2.503 2.231,-1.086c0.317,0.596 -0.474,0.598 -0.147,1.153c0.154,0.261 0.647,-0.046 0.898,0.122c0.31,0.207 -0.167,0.554 2.657,3.831c0.316,0.386 0.633,0.771 0.949,1.157c7.746,9.462 8.726,10.173 14.422,14.032c1.642,1.113 0.943,1.503 0.126,3.307c-2.137,-1.238 -13.752,-7.966 -21.136,-22.515Z" style="fill:#fcdcb0;"/><path d="M429.928,634.056c-0.234,-7.993 -0.868,-8.314 0.245,-9.171c1.93,-1.486 5.204,3.752 5.498,4.223c0.537,0.859 -0.886,15.057 -0.943,15.103c-0.697,0.566 -2.168,0.717 -4.801,-10.154Z" style="fill:#03389b;"/><path d="M698.175,456.493c0.619,1.751 0.996,1.794 0.016,3.407c-13.05,21.48 -12.899,21.554 -14.124,23.361c-0.309,-0.674 -0.678,-0.279 -1.008,-1c-0.032,-0.069 -0.137,-0.299 0.119,-0.944c5.565,-14.024 9.376,-17.809 14.997,-24.824Z" style="fill:#eb270b;"/><path d="M574.16,351.155c-1.09,-0.046 -1.719,1.076 -1.67,-0.07c0.076,-1.794 0.57,-1.543 1.374,-3.151c3.715,-7.439 2.379,-17.602 5.154,-15.261c6.115,5.158 -3.886,17.303 -4.857,18.482Z" style="fill:#f6f6f6;"/><path d="M426.846,195.146c-0.39,1.926 -0.864,4.273 -18.434,16.199c-0.113,0.077 -0.114,0.055 -1.54,0.739l-0.193,-1.54c6.661,-4.198 12.067,-12.744 20.167,-15.399Z" style="fill:#904b20;"/><path d="M384.49,844.974c2.44,-1.354 2.653,-0.667 4.605,1.245c0.317,8.375 0.666,8.227 2.211,15.777c-0.448,0.027 -2.14,2.729 -2.955,-0.824c0,0 -1.193,-5.087 -1.296,-5.53c-0.118,-0.698 -0.767,-3.086 -0.858,-7.285c-0.046,-2.118 -0.083,-2.143 -1.707,-3.382Z" style="fill:#032161;"/><path d="M790.733,360.348c0.346,0.604 1.214,0.783 1.56,1.387c0.278,0.486 -0.358,0.302 -3.642,5.981c-0.149,0.258 0.147,0.683 -0.064,0.893c-0.24,0.238 -0.793,-0.104 -1,0.163c-0.128,0.166 0.477,1.127 -1.051,2.163c-0.151,0.102 -0.148,-0.068 -2.065,-0.948c2.912,-4.983 2.874,-4.906 6.262,-9.639Z" style="fill:#24aefb;"/><path d="M361.471,693.278c0.437,0.538 0.874,1.076 1.311,1.614c-0.991,0.715 -0.48,1.07 -1.398,1.732c-0.068,0.049 -0.112,0.081 -1.053,0.037c-1.704,-0.079 -1.619,1.275 -3.16,0.461c-0.4,-0.211 -0.73,-0.541 -1.133,-0.745c-1.479,-0.746 -1.62,0.652 -3.08,-0.042c-0.281,-0.134 -1.228,-1.941 3.366,-1.951c0.379,-0.001 0.364,-0.033 5.149,-1.107Z" style="fill:#ee1808;"/><path d="M707.189,386.11c0.055,1.612 -0.199,1.532 -0.099,3.07l-0.888,1.056c-0.438,-0.425 -5.647,-5.486 -1.923,-7.389c1.986,-1.015 1.53,1.98 1.614,2.108c0.319,0.483 0.977,0.673 1.296,1.156Z" style="fill:#f57c3f;"/><path d="M454.975,275.907c1.404,-0.165 1.327,-0.074 2.937,-0.037c0.166,0.66 0.333,1.32 0.499,1.979c-0.246,0.01 -3.08,0.122 -3.08,0.122c-1.494,0.027 -0.73,-0.689 -0.356,-2.064Z" style="fill:#151416;"/><path d="M409.717,404.038c-1.781,-1.647 -3.596,-2.148 -1.399,-3.248c0.456,-0.228 1.065,0.086 1.521,-0.142l0.552,1.197l-0.16,1.056l-0.514,1.136Z" style="fill:#012056;"/><path d="M629.559,260.656c3.554,2.712 2.982,3.203 2.716,3.431c-0.23,0.197 -0.195,-0.121 -3.325,-1.809c0.203,-0.541 0.406,-1.082 0.608,-1.622Z" style="fill:#da6733;"/><path d="M495.184,146.408c0.345,0.858 0.69,1.715 1.035,2.573l-1.053,0.597c-1.164,-0.07 -1.88,1.046 -1.727,-0.104c0,0 1.606,-2.82 1.745,-3.065Z" style="fill:#81361c;"/><path d="M641.403,574.933c-0.695,-2.008 -1.386,-2.735 0.684,-3.303c0.26,-0.071 0.229,0.142 -0.684,3.303Z" style="fill:#740001;"/><path d="M611.469,378.494c-0.612,0.124 -0.868,1.026 -1.479,1.15c-0.679,0.137 -0.646,-1.615 -0.644,-1.766c0.028,-1.541 0.628,0.182 2.123,0.616Z" style="fill:#febb79;"/><path d="M570.122,689.644c0.188,-0.049 2.347,-0.611 2.347,-0.611c1.337,0.755 -0.388,0.695 -1.117,2.004c-0.41,-0.464 -0.82,-0.928 -1.23,-1.392Z" style="fill:#f7d50c;"/><path d="M500.422,120.016c-0.348,-0.471 -0.695,-0.942 -1.043,-1.413c0.364,0.062 0.689,-0.407 1.053,-0.345c0.786,0.133 0.783,0.574 0.783,0.656c-0.005,0.78 -0.789,0.348 -0.793,1.103Z" style="fill:#c2723f;"/><path d="M452.198,621.848c0.067,-0.171 2.002,-5.109 1.736,-1.507c-0.014,0.184 -0.126,0.109 -1.736,1.507Z" style="fill:#8a0101;"/><path d="M348.825,778.825c0.951,-0.141 0.269,-1.077 1.165,-1.21c0.094,-0.014 1.916,-0.284 0.751,0.926c-0.448,0.466 -1.468,-0.182 -1.916,0.284Z" style="fill:#022259;"/><path d="M731.57,463.208c0.008,0.161 0.36,7.592 -0.416,1.977c-0.022,-0.16 0.031,-0.146 0.416,-1.977Z" style="fill:#1d87e0;"/><path d="M461.694,603.398c0.277,1.087 0.606,1.214 -0.299,1.986c0.1,-0.662 0.199,-1.324 0.299,-1.986Z" style="fill:#b10201;"/><path d="M678.945,484.16c0.045,0.103 0.566,1.288 0.566,1.288c-0.56,0.692 -0.934,-0.16 -0.966,-0.233c-0.273,-0.622 0.678,-0.423 0.4,-1.054Z" style="fill:#ce0e07;"/><path d="M459.339,470.455c0.409,1.05 1.705,1.176 0.619,1.59c0,0 -0.57,-1.463 -0.619,-1.59Z" style="fill:#012356;"/></g></svg>