<?xml version="1.0" encoding="UTF-8" standalone="no"?><!DOCTYPE svg PUBLIC "-//W3C//DTD SVG 1.1//EN" "http://www.w3.org/Graphics/SVG/1.1/DTD/svg11.dtd"><svg width="100%" height="100%" viewBox="0 0 2048 2048" version="1.1" xmlns="http://www.w3.org/2000/svg" xmlns:xlink="http://www.w3.org/1999/xlink" xml:space="preserve" xmlns:serif="http://www.serif.com/" style="fill-rule:evenodd;clip-rule:evenodd;stroke-linejoin:round;stroke-miterlimit:2;"><g id="Background"><path d="M1680.783,190.579c-6.76,23.017 -64.268,62.015 -59.521,69.039c2.863,4.237 24.646,15.456 39.424,55.914c1.143,3.131 7.083,19.393 3.905,41.375c-1.58,10.93 -7.765,15.782 3.326,17.321c76.968,10.679 85.494,88.493 87.29,89.54c6.813,3.974 62.214,-39.753 92.259,-47.833c21.806,11.373 -32.022,33.929 -61.559,51.478c-22.17,13.172 -26.909,10.56 -26.877,21.369c0.008,2.831 0.08,26.632 -5.547,34.965c-5.498,8.142 -33.454,13.384 -37.915,14.459c-1.178,-1.106 -1.426,-2.951 -2.604,-4.057c-0.281,-0.264 -0.339,0.081 -4.73,1.132c-3.557,0.277 -28.747,5.314 -29.592,7.463c-0.661,1.682 -0.366,1.927 -3.518,3.55l0.294,3.749c-35.973,11.732 -47.206,13.472 -53.166,26.276c-11.284,24.24 -33.035,9.639 -38.382,21.574c-3.496,7.803 -31.51,83.877 -102.02,118.265c-0.6,5.844 2.109,4.552 17.917,11.544c30.427,13.459 154.584,63.644 168.063,69.093c48.608,19.648 63.691,28.602 68.335,26.228c2.971,-1.519 18.575,-14.039 37.375,1.992c9.306,7.935 6.056,16.469 12.736,17.538c19.289,3.089 21.492,6.111 33.685,17.997c2.937,4.048 25.786,35.536 -1.496,62.013c-26.604,25.819 -63.367,6.589 -68.185,4.069c-6.346,-3.32 -6.382,1.066 -20.746,2.595l-2.38,-4.218l-2.365,-0.674c-1.469,-1.115 -4.398,-2.889 -4.79,-3.126c-9.679,-5.861 -8.423,-7.607 -9.4,-7.666c-1.639,-0.098 -1.684,3.652 -3.323,3.553c-5.442,-9.192 -0.932,-12.427 -8.797,-16.127c-10.244,-4.82 -230.841,-94.042 -231.904,-94.481c-33.427,-13.804 -36.403,-16.58 -39.066,-9.917c-3.176,7.945 -10.372,39.014 -57.669,61.771c-40.705,19.585 -63.229,-11.125 -68.153,-10.073c-12.289,2.627 -40.653,22.7 -79.326,-18.542c-14.622,-15.593 -103.694,10.607 -100.256,-86.578c0.672,-18.999 9.965,-38.046 1.835,-28.019c-67.725,83.519 -54.675,95.684 -113.379,134.343c-5.05,2.775 -62.821,34.515 -71.454,-11.488c-1.939,-10.33 6.132,-28.046 7.168,-30.321c30.107,-55.942 33.092,-54.12 62.992,-110.207c29.534,-55.4 48.961,-59.884 31.545,-66.496c-110.081,-41.795 -110.83,-50.365 -122.874,-43.335c-29.517,17.23 -43.01,-16.262 -46.957,-15.896c-2.459,0.228 -12.703,10.041 -35.156,6.195c-14.553,-2.493 -22.288,-22.221 -23.273,-24.731c-2.801,-7.143 -4.552,4.04 -78.913,27.433c-27.12,8.532 -78.716,11.194 -80.136,2.966c-1.522,-8.818 -1.845,-10.362 4.497,-12.386c58.71,3.202 105.884,-8.428 187.543,-60.616c4.092,-4.004 7.781,-7.614 -7.359,-70.379c-5.362,-22.231 -19.784,-64.267 -34.369,-87.232c-18.471,-29.084 -40.61,-42.79 -42.177,-44.197c5.08,-5.263 3.945,-5.772 7.762,-12.056c27.48,16.875 43.869,29.1 69.242,90.113c9.216,22.162 14.819,55.429 18.178,55.853c0.722,0.091 20.952,-10.23 39.892,4.941c15.286,12.245 10.532,26.733 19.208,26.486c0.103,-0.003 18.375,-5.186 32.485,10.647c5.73,6.43 7.723,18.006 10.645,19.563c2.343,1.248 141.385,58.632 143.73,58.758c7.824,0.42 33.009,-49.864 71.211,-69.18c45.284,-22.897 243.03,-91.182 247.625,-95.678c2.607,-2.551 6.795,-22.946 21.958,-26.458c27.616,-6.396 25.28,-11.147 42.795,-32.881c23.864,-29.613 24.024,-29.319 43.371,-54.255c4.888,2.206 6.488,3.122 10.447,-3.916c5.032,-8.944 6.213,-9.323 7.137,-9.62c1.968,-0.632 3.836,1.76 5.902,1.899c0.518,0.035 -0.132,-1.511 0.386,-1.476c0.66,-2.416 0.402,-2.303 1.232,-4.506c0.903,-2.397 -0.906,-2.274 -0.255,-4.66c0.133,-0.489 1.265,-0.021 1.473,-0.485c0.101,-0.225 0.051,-4.862 2.904,-8.956c2.746,-3.94 7.45,0.241 7.017,-4.56c0,0 2.142,-4.209 2.329,-4.575l-2.237,-2.949c26.536,-4.7 32.816,13.685 41.614,4.065c3.12,-3.412 3.656,-2.786 41.613,-40.222c22.15,-21.846 28.641,-22.385 31.483,-14.095Z" style="fill:#854c46;"/><path d="M668.352,1198.165c16.282,32.757 25.718,28.315 29.236,49.114c2.834,16.756 -5.014,17.531 2.774,41.57c-5.648,3.944 -12.079,1.422 -22.918,-0.931l0.708,-1.515l0.422,-2.312c-0.867,-9.075 0.216,-9.865 -6.728,-15.769c-1.12,-0.952 -49.398,-18.014 -67.472,23.657c-18.842,15.642 16.263,6.009 37.245,5.86c29.161,-0.207 65.23,7.862 66.223,8.23l2.365,0.317l2.558,-1.746c24.039,15.038 32.61,17.791 82.688,29.734c95.75,17.937 162.436,14.851 248.171,4.051l2.411,2.507c101.373,19.648 100.662,36.445 108.667,34.57c11.283,-2.643 -43.603,-46.62 -85.04,-37.956c-4.537,0.949 -3.75,-1.038 -6.941,-4.327c46.564,-10.172 60.305,-17.599 77.569,-28.791c10.464,-11.41 18.088,-18.497 16.078,-43.313c-2.824,-34.873 14.93,-29.601 26.852,-62.557c12.586,1.283 183.132,30.853 290.314,127.773c73.729,66.67 55.117,78.921 49.877,82.032c-94.236,55.946 -202.286,26.518 -377.686,123.733c-138.078,76.529 -166.602,78.348 -182.552,79.364c-22.465,1.432 -22.393,-2.125 -44.843,0.941c-45.641,6.233 -194.699,-84.242 -273.942,-114.229c-176.586,-66.822 -246.322,-40.47 -321.252,-92.67c-22.206,-15.47 83.801,-125.258 211.91,-170.384c63.193,-22.26 101.083,-29.665 104.024,-30.353c14.829,-2.844 14.676,-2.636 29.281,-6.603Z" style="fill:#f3dec8;"/><path d="M1184.422,1185.183c15.798,-3.323 137.877,23.272 220.671,71.917c120.37,70.723 131.126,121.91 140.17,123.041c13.342,1.668 13.292,0.785 26.17,4.78c52.908,32.273 16.429,60.506 25.89,72.353c31.955,40.016 56.601,130.829 22.972,149.77c-45.811,25.802 -59.974,16.513 -87.216,13.177c-17.043,-2.087 -21.525,-21.372 -22.109,-23.885c-8.511,-104.892 26.189,-121.43 20.263,-129.877c-4.279,-6.1 -39.101,58.577 -132.241,121.29c-59.527,40.081 -90.391,39.624 -194.995,83.604c-104.846,44.082 -211.079,53.992 -211.657,54.772c-3.238,4.369 41.985,107.847 -2.75,122.873c-19.976,6.71 -47.827,25.842 -99.414,0.978c-21.009,-10.126 -20.954,-24.359 -20.578,-48.027c0.586,-36.831 17.761,-71.774 12.861,-75.752c-3.922,-3.185 -85.809,-3.178 -214.567,-47.552c-46.526,-16.034 -44.732,-20.274 -92.195,-34.893c-192.467,-59.282 -246.555,-188.019 -255.22,-176.708c-1.772,2.313 1.814,2.094 11.936,34.185c2.422,9.192 27.904,105.903 -7.58,118.415c-2.346,0.827 -2.587,-0.66 -30.769,4.882c-23.243,4.57 -72.697,-15.787 -77.502,-37.733c-1.864,-8.511 -6.303,-71.738 38.642,-130.026c5.456,-7.076 -20.152,-36.006 14.196,-65.151c17.198,-14.593 36.613,-8.726 40.116,-13.524c15.821,-21.667 76.308,-121.827 286.995,-180.371c0.454,0.421 5.674,5.263 5.674,5.263c4.46,3.759 4.965,2.047 10.652,1.071c6.197,-1.063 11.314,-1.05 14.045,-2.182c6.479,-2.685 6.535,-0.907 12.19,2.893c-2.941,0.689 -40.831,8.093 -104.024,30.353c-128.109,45.126 -234.117,154.914 -211.91,170.384c74.93,52.2 144.666,25.848 321.252,92.67c79.243,29.987 228.301,120.462 273.942,114.229c22.45,-3.066 22.378,0.491 44.843,-0.941c15.95,-1.017 44.473,-2.835 182.552,-79.364c175.4,-97.215 283.45,-67.787 377.686,-123.733c5.24,-3.111 23.851,-15.362 -49.877,-82.032c-107.182,-96.92 -277.727,-126.49 -290.314,-127.773c0.482,-6.803 0.718,-6.651 1.201,-13.379Z" style="fill:#895446;"/><path d="M739.174,1086.973c4.008,3.239 7.197,4.607 9.237,-3.918c13.814,-57.712 14.637,-58.506 11.29,-62.377c-2.665,-3.082 -16.837,-8.223 -18.569,-27.887c-3.814,-43.284 68.625,-46.856 65.692,-0.014c-0.888,14.173 -10.402,16.931 -3.776,24.992c45.183,54.962 45.177,58.603 49.1,55.999c0.636,-0.422 40.19,-80.627 45.468,-89.899c8.537,-14.996 -8.134,-12.543 -11.518,-30.573c-13.586,-72.388 97.437,-66.456 81.044,-0.03c-4.256,17.246 -19.734,17.429 -12.897,30.053c46.54,85.932 44.807,96.465 50.672,89.52c3.885,-4.601 44.643,-52.864 46.839,-58.866c1.62,-4.428 -19.259,-36.266 13.618,-52.701c26.345,-13.17 73.321,22.894 30.623,57.357c-5.705,4.605 -2.349,6.165 9.521,66.558c0.766,3.898 1.436,8.405 7.214,2.927c42.872,-40.649 48.919,-39.728 45.21,-49.374c-21.933,-57.029 67.968,-77.877 75.178,-20.529c2.643,21.024 -14.824,37.421 -24.33,40.574c-7.555,2.506 -11.107,0.316 -14.194,14.831c-6.994,32.877 -6.561,32.712 -14.987,65.143c-3.003,11.561 0.224,14.096 4.813,46.423c-0.483,6.727 -0.718,6.575 -1.201,13.379c-11.923,32.956 -29.677,27.683 -26.852,62.557c2.01,24.816 -5.614,31.903 -16.078,43.313c-17.264,11.192 -31.004,18.619 -77.569,28.791c-9.626,2.363 -9.473,2.089 -19.097,5.206c-85.735,10.799 -152.421,13.886 -248.171,-4.051c-50.077,-11.943 -58.649,-14.696 -82.688,-29.734c-7.088,-7.056 -7.367,-6.688 -12.403,-15.793c-7.788,-24.04 0.06,-24.815 -2.774,-41.57c-3.518,-20.799 -12.954,-16.357 -29.236,-49.114c-0.236,-9.377 -1.05,-9.245 0.526,-18.405c2.564,-16.242 4.392,-15.804 5.865,-32.064c0.563,-6.214 -2.202,-5.818 -16.288,-76.339c-2.806,-14.048 -8.879,-8.817 -18.625,-14.752c-56.241,-34.246 14.778,-107.234 52.52,-55.309c13.722,18.878 -3.396,39.84 3.939,46.743c2.609,2.456 35.281,31.969 42.885,38.936Z" style="fill:#a96c6e;"/><path d="M1564.84,291.209c91.485,44.727 20.645,122.645 30.059,132.74c12.602,13.514 33.296,-24.87 86.657,14.641c4.622,5.043 4.406,4.988 8.631,10.434c-10.164,6.974 -10.823,5.706 -20.236,13.619c-19.759,16.611 -36.459,17.462 -68.719,39.312c-13.169,8.92 -15.333,8.704 -34.897,-3.38l-2.365,-1.019l-2.527,3.054c-12.648,-10.487 -16.697,-15.073 -28.53,-17.194c-16.974,1.495 -3.854,27.962 -2.482,40.114c0.569,5.036 3.379,4.318 3.916,5.005l-0.371,1.97l-3.308,2.251c-29.322,-10.948 -30.732,-3.536 -41.165,10.676c-7.968,10.854 -59.274,61.392 -107.66,64.603c-5.414,0.359 -5.336,0.584 -9.597,3.66c-1.342,0.211 -2.684,0.422 -4.026,0.632c-15.786,21.165 -14.948,21.638 -19.7,28.624c-36.007,27.445 -40.093,23.745 -64.97,61.186c-55.03,82.824 -122.407,62.763 -105.37,26.986c3.608,-7.576 4.473,-7.01 49.961,-92.335c6.887,-12.919 29.694,-26.498 49.229,-71.857c14.278,-33.151 19.592,-41.692 9.729,-39.992c-2.86,0.493 -5.91,4.232 -11.1,12.883c-15.845,-6.26 -12.988,6.431 -52.558,27.388c-2.515,1.332 -2.37,1.321 -4.819,2.686c-1.49,-0.033 -2.981,-0.065 -4.471,-0.098c-16.518,2.451 -13.463,8.391 -21.244,11.69c-10.688,4.531 -9.246,8.232 -19.162,8.232l-2.365,-0.117l-2.644,3.566c-17.658,-7.328 -17.519,-7.288 -35.034,-14.857l3.175,-1.943c14.447,-14.451 13.74,-14.876 26.944,-30.398c32.163,-37.807 84.06,-30.229 243.716,-111.126c24.444,-12.386 23.278,9.549 40.696,8.162c17.883,-1.424 -9.025,-13.058 0.078,-28.341c0.237,0.837 -0.464,1.76 -0.227,2.597c0.414,1.461 39.501,31.868 40.189,32.008c9.865,2.002 -2.351,-16.661 -3.151,-17.884c1.721,-0.148 1.446,-3.863 3.167,-4.011c3.091,-0.267 7.625,14.163 14.19,7.974c13.228,-12.469 -13.259,-25.895 -21.337,-34.634c-9.894,-10.702 8.048,-6.533 46.277,-51.843c34.161,-40.489 35.788,-40.241 37.42,-55.663Z" style="fill:#f1b5c0;"/><path d="M915.601,918.074c2.695,-1.066 23.57,-9.327 34.661,10.674c13.431,24.222 -15.618,39.746 -16.155,43.076c-1.093,6.774 63.356,136.495 86.975,168.153c23.226,31.131 41.487,16.791 127.322,-63.252c28.164,-26.264 31.146,-27.469 27.09,-37.338c1.052,0.102 1.93,-1.156 2.982,-1.054c0.236,0.023 1.561,2.646 3.967,0.068c9.187,-9.841 17.169,-7.793 12.449,-20.397c4.187,-2.305 4.199,-2.235 4.522,-2.489c5.649,-4.446 -2.345,-6.25 0.346,-12.807l2.145,-2.345c2.47,1.097 22.502,9.989 15.079,29.697c-7.642,20.286 -26.978,16.923 -31.616,17.478c-4.379,0.524 -5.288,13.795 -5.778,17.163l-3.48,-1.386c-19.634,26.163 -69.826,68.867 -76.331,74.401c1.236,12.428 -2.626,25.737 -11.027,51.64c-2.314,7.134 -1.258,8.061 -7.745,11.912c-30.561,-32.229 -57.918,38.054 -15.998,44.695c0.469,1.299 2.032,2.034 2.5,3.334c0.461,1.279 -3.782,13.208 -4.182,14.335c-3.061,8.605 -8.048,7.801 -5.278,16.456c-131.335,27.341 -245.897,2.608 -258.257,0.303c-39.725,-9.139 -46.684,-11.146 -63.833,-18.624c-4.088,-28.297 -6.81,-27.664 -10.081,-56.14l-0.052,-4.548c1.084,-1.617 2.168,-3.233 3.252,-4.85c0.178,-1.106 2.151,-13.358 0.973,-13.965c-3.615,-1.864 -4.506,-0.622 -6.313,-4.241c-0.502,-1.004 -1.539,-1.655 -2.254,-2.527c-4.735,-5.783 -10.229,-12.492 -29.405,-88.017c-2.243,-8.832 6.943,1.041 7.347,1.475c26.608,28.602 28.251,26.586 58.334,51.511c53.634,44.436 68.392,20.895 89.628,-2.003c17.387,-18.747 67.388,-124.187 67.784,-125.082c4.351,-9.842 10.986,-20.495 -1.575,-20.35l-3.208,-0.573c7.96,-17.614 7.993,-17.598 8.114,-18.085c2.9,-11.639 -29.555,-13.326 -15.246,-44.376c9.098,10.49 9.865,10.912 12.853,11.284c7.585,0.942 10.302,-3.584 10.775,-4.371c6.561,-10.929 -2.814,-9.16 -11.284,-18.83Z" style="fill:#f7bfc8;"/><path d="M409.531,1534.095c-16.578,-15.256 -16.682,-14.853 -31.788,-31.289c-29.087,-31.647 -31.804,-30.082 -31.873,-33.756c-0.175,-9.292 5.16,7.367 116.085,24.889c216.958,34.27 283.387,123.282 414,156.884c10.616,2.731 14.858,-0.584 16.174,10.11c2.636,21.43 10.91,21.042 10.456,27.803c-0.076,1.137 -8.243,19.646 -8.623,20.044c-2.863,3.006 -132.502,-9.155 -244.951,-55.461c-109.34,-45.026 -150.248,-43.07 -239.479,-119.223Z" style="fill:#e0bea7;"/><path d="M1282.533,1598.595c-12.7,5.336 -10.242,8.435 -47.828,38.35c-13.302,9.856 -82.476,43.767 -191.185,64.725c-4.502,0.761 -39.215,6.63 -56.592,7.525c-3.708,0.191 -5.009,-3.015 -10.666,-14.211c-6.879,-13.614 6.409,-12.649 8.215,-34.073c0.826,-9.802 4.269,-7.839 14.002,-10.248c117.037,-28.974 178.491,-119.8 395.081,-157.201c104.113,-17.978 119.527,-33.358 110.219,-22.698c-106.791,122.3 -197.136,144.918 -226.126,155.04c-2.096,0.854 -2.001,0.525 -4.214,1.427c-1.725,0.703 -1.594,0.66 -21.516,8.908l-0.122,-2.965c0.496,-0.858 -0.497,-1.388 1.43,-2.472c17.934,-10.085 14.579,-13.702 27.821,-24.492c3.458,-2.818 2.622,-3.307 1.482,-7.614Z" style="fill:#e1bca7;"/><path d="M1680.783,190.579l1.435,-0.789c4.666,0.445 81.907,22.375 128.853,125.137c0.858,1.879 0.802,1.656 11.079,23.332c20.836,40.181 22.162,63.878 22.488,69.717c0.213,3.8 0.765,3.476 2.826,7.958c-30.045,8.08 -85.446,51.807 -92.259,47.833c-1.795,-1.047 -10.322,-78.861 -87.29,-89.54c-11.091,-1.539 -4.906,-6.391 -3.326,-17.321c3.178,-21.982 -2.762,-38.245 -3.905,-41.375c-14.777,-40.458 -36.561,-51.677 -39.424,-55.914c-4.747,-7.025 52.762,-46.023 59.521,-69.039Z" style="fill:#f3c9b1;"/><path d="M1690.187,449.024c4.557,7.112 4.278,7.084 7.965,14.615c1.389,4.382 12.06,38.056 6.653,56.976c-1.659,5.806 -84.799,25.002 -92.675,38.085c-6.718,11.159 -4.62,13.915 -12.731,15.339c-30.868,5.418 -26.723,13.15 -41.611,40.184c-23.136,42.012 -43.385,65.616 -92.625,92.824c-7.873,4.35 -10.993,2.375 -40.734,-10.136c-10.528,-4.428 -11.058,-4.066 -17.501,-13.3c-14.406,-20.647 -42.298,-4.64 -59.745,-17.627c-1.473,-1.096 -4.437,-7.943 20.516,-10.454c12.955,-1.304 70.33,-3.814 115.313,-51.609c21.412,-22.75 20.276,-41.503 9.107,-30.699c-31.871,30.827 -36.863,59.514 -131.592,68.372c1.384,-2.466 0.799,-2.636 2.666,-4.751c11.405,-12.917 9.456,-23.052 9.053,-25.148c4.26,-3.075 4.183,-3.3 9.597,-3.66c48.387,-3.211 99.692,-53.749 107.66,-64.603c10.433,-14.212 11.843,-21.624 41.165,-10.676l3.308,-2.251c3.684,5.447 43.462,30.226 46.552,30.047c18.043,-1.044 -31.739,-37.461 -46.181,-32.017c-0.537,-0.686 -3.348,0.031 -3.916,-5.005c-1.372,-12.152 -14.492,-38.619 2.482,-40.114c0.597,2.493 -0.61,2.921 2.261,5.645c4.467,4.239 55.321,52.491 57.216,51.568c1.211,-0.59 1.12,-2.66 2.331,-3.25c-13.583,-20.848 -16.034,-18.728 -33.278,-36.768l2.527,-3.054l2.365,1.019c19.564,12.084 21.728,12.3 34.897,3.38c32.26,-21.85 48.96,-22.701 68.719,-39.312c9.413,-7.913 10.072,-6.645 20.236,-13.619Z" style="fill:#e595a4;"/><path d="M634.549,565.104c-0.054,1.494 -0.108,2.988 -0.163,4.481c-6.803,8.595 1.644,6.809 4.773,6.955c1.853,-0.045 3.705,-0.089 5.558,-0.134c-0.121,3.358 2.067,8.107 -5.261,6.49c-0.251,-0.055 -70.327,-19.176 -73.231,-84.831c-1.736,-39.252 18.136,-51.33 9.587,-53.907c-31.615,-9.533 -72.702,-4.493 -68.524,-26.889c0.903,-4.839 8.898,-11.86 21.358,-17.53c3.836,-1.745 15.69,-2.372 6.839,-12.839c-69.504,-82.202 32.084,-47.486 36.419,-55.766c0.128,-0.244 -7.487,-52.401 17.92,-39.149c3.666,1.912 3.527,2.098 37.206,35.437c9.739,9.641 10.862,8.957 11.471,8.028c4.006,-6.113 2.098,-6.968 13.328,-21.788c12.382,-16.34 59.373,-43.421 43.25,-15.012c-5.01,8.828 -47.232,18.557 -46.391,76.905c0.356,24.67 11.66,35.256 2.492,39.458c-11.659,5.344 -98.595,32.89 -58.388,115.29c2.543,5.213 0.629,7.033 6.304,8.879c3.361,1.093 0.17,5.498 35.453,25.922Z" style="fill:#895248;"/><path d="M679.425,1584.689c5.239,2.933 5.777,3.234 64.407,38.441c21.159,12.706 20.079,13.884 40.1,28.238c15.276,10.952 -67.601,-5.803 -83.306,-8.009c-57.236,-8.042 -101.419,-67.103 -127.948,-54.789c-8.522,3.955 -30.502,2.059 -43.963,-7.06c-23.91,-16.196 -26.582,-32.263 -49.919,-43.765c-0.692,-0.341 -4.759,-11.304 -0.28,-12.929c1.19,-0.432 91.694,5.528 189.68,54.338c0.897,0.447 0.832,0.41 11.231,5.536Z" style="fill:#ecd3b3;"/><path d="M807.361,1591.45c3.109,0.748 6.218,1.497 9.327,2.245c40.496,16.547 40.499,15.929 82.443,28.722c3.181,0.97 4.991,3.046 -2.778,14.958c-8.86,13.585 -107.635,-31.386 -160.525,-61.294c-187.678,-106.128 -310.224,-86.293 -403.459,-128.938c-38.292,-17.515 -26.657,-46.888 -17.74,-37.611c59.936,62.359 212.425,37.854 386.216,126.363c102.145,52.021 102.793,51.302 106.517,55.556Z" style="fill:#e6b982;"/><path d="M1509.97,1451.393c-8.352,3.316 -41.922,16.647 -109.049,27.741c-237.208,39.203 -300.9,139.213 -409.207,159.109c-13.771,2.53 -11.87,-3.908 -17.693,-11.193c-6.198,-7.754 2.666,-5.227 17.43,-8.554c34.467,-7.768 130.379,-59.684 134.699,-62.166c157.477,-90.477 234.507,-81.505 350.411,-114.647c57.102,-16.328 63.352,-39.115 66.783,-30.822c9.06,21.901 -29.49,38.828 -33.374,40.534Z" style="fill:#e2b27b;"/><path d="M1072.189,643.423c5.456,2.263 65.448,27.152 68.086,28.538c5.586,2.935 -30.684,35.87 -39.679,45.889c-27.167,30.262 -80.336,138.994 -137.279,126.828c0.34,-0.888 2.663,-1.483 2.591,-6.769c-0.015,-1.077 -0.116,-8.53 2.975,-13.147c2.302,-3.439 27.587,-41.206 28.705,-43.03c2.78,-4.539 27.469,-44.847 33.145,-57.648c22.889,-51.617 37.842,-55.827 21.592,-64.845c13.131,-18.545 15.307,-16.871 19.864,-15.817Z" style="fill:#eda6b6;"/><path d="M1554.489,286.299c3.064,1.379 6.129,2.758 9.193,4.138l1.158,0.772c-1.633,15.423 -3.26,15.174 -37.42,55.663c-38.228,45.31 -56.17,41.141 -46.277,51.843c8.079,8.739 34.566,22.165 21.337,34.634c-6.566,6.189 -11.1,-8.24 -14.19,-7.974c-1.721,0.148 -1.446,3.863 -3.167,4.011c-12.832,-12.921 -18.568,-16.018 -32.35,-18.733c-1.487,0.671 -2.974,1.341 -4.46,2.012c-9.102,15.283 17.805,26.917 -0.078,28.341c-17.418,1.387 -16.252,-20.547 -40.696,-8.162c-159.656,80.898 -211.554,73.319 -243.716,111.126c-13.205,15.522 -12.498,15.947 -26.944,30.398l-3.175,1.943c-6.379,-2.912 -15.753,-3.149 -8.567,-12.672c30.087,-39.87 47.6,-49.622 52.839,-52.539c58.654,-32.66 251.099,-90.604 259.73,-106.126c5.423,-9.752 4.968,-16.461 15.039,-18.133c19.687,-3.268 20.376,-4.635 55.256,-47.709c15.585,-19.246 15.974,-18.645 35.795,-46.016c6.359,-8.782 10.569,-6.794 10.692,-6.818Z" style="fill:#f8d3d9;"/><path d="M1179.59,1064.7c-0.796,4.625 -1.591,9.25 -2.387,13.875c-1.023,4.865 -9.584,44.254 -10.021,46.118c-5.961,25.442 -11.455,22.873 -27.552,50.141c-17.577,29.775 1.307,46.014 0.108,67.549c-0.925,16.604 -50.104,30.047 -81.689,37.702c-2.77,-8.655 2.218,-7.851 5.278,-16.456c0.401,-1.126 4.644,-13.055 4.182,-14.335c-0.469,-1.299 -2.032,-2.034 -2.5,-3.334c1.598,-0.475 10.644,-3.166 16.146,-12.939c9.322,-16.557 0.824,-29.577 -0.148,-31.755c6.487,-3.851 5.431,-4.778 7.745,-11.912c8.401,-25.903 12.263,-39.211 11.027,-51.64c6.505,-5.534 56.697,-48.238 76.331,-74.401l3.48,1.386Z" style="fill:#f2a4b3;"/><path d="M953.117,537.158c1.612,-5.846 1.697,-5.57 2.502,-11.381c1.109,-8.006 4.689,-2.94 12.335,0.136c8.87,3.568 104.833,42.174 110.773,44.835c8.137,3.233 134.705,55.223 135.486,56.589c2.083,3.64 -2.139,6.604 -6.474,14.576c-4.728,8.696 -4.57,8.594 -9.113,17.419c-0.931,-1.207 -1.322,-4.078 -6.12,-5.683c-1.368,-0.458 -139.893,-52.921 -187.045,-76.277c-40.177,-19.901 -43.457,-18.084 -48.086,-32.415l-1.096,-2.954l-0.654,-2.312l-2.508,-2.533Z" style="fill:#f6ead1;"/><path d="M936.854,1265.282c-11.004,11.216 -16.713,6.657 -40.809,-29.077c-22.087,-32.753 -23.423,-35.413 -12.725,-55.897c5.812,-11.128 32.312,-57.087 39.826,-60.183c10.887,-4.486 20.823,15.686 48.501,62.876c8.704,14.839 9.749,18.021 -19.243,60.032c-7.723,11.191 -7.565,11.051 -15.55,22.249Z" style="fill:#ad6d77;"/><path d="M1162.89,756.24c11.378,14.204 24.817,23.069 55.8,16.977c41.32,-15.886 44.026,-22.776 71.315,-52.887c10.953,-12.085 38.799,-6.933 36.745,11.122c-1.34,11.782 -72.403,71.113 -89.499,77.779c-17.163,6.692 -59.903,-5.538 -68.138,-8.557c-59.415,-21.779 -15.271,-116.813 -14.634,-117.873c3.918,-6.516 28.763,2.802 26.224,9.399c-6.59,17.123 -27.193,23.129 -17.814,64.039Z" style="fill:#eba2b2;"/><path d="M910.388,992.453l3.208,0.573c12.561,-0.145 5.926,10.508 1.575,20.35c-0.396,0.896 -50.397,106.335 -67.784,125.082c-21.237,22.899 -35.995,46.439 -89.628,2.003c-30.084,-24.924 -31.726,-22.909 -58.334,-51.511c-0.404,-0.434 -9.589,-10.308 -7.347,-1.475c19.176,75.524 24.67,82.234 29.405,88.017c0.714,0.873 1.752,1.523 2.254,2.527c1.807,3.618 2.699,2.377 6.313,4.241c1.178,0.607 -0.795,12.859 -0.973,13.965c-1.084,1.617 -2.168,3.233 -3.252,4.85c-0.282,2.34 -0.514,2.139 0.052,4.548c3.271,28.476 5.993,27.844 10.081,56.14c-12.566,-5.645 -12.488,-5.604 -13.572,-6.096c-15.981,-7.262 -8.421,-23.844 -6.088,-34.231c7.017,-31.244 6.871,-34.159 -22.177,-76.348c-10.195,-18.678 -14.165,-55.104 -23.866,-92.235c-2.052,-7.853 -13.799,-5.891 -16.853,-6.697c-29.881,-7.888 -15.191,-34.108 -13.65,-36.859c2.169,3.032 8.376,17.092 19.539,7.746c6.655,-5.572 -4.858,-16.072 -5.84,-17.283c22.894,-4.203 30.671,14.593 29.743,25.356c-1.391,16.124 -13.347,18.745 0.839,32.573c28.092,25.758 57.001,53.745 81.378,72.927c37.291,29.345 46.609,33.651 69.864,5.306c20.595,-25.104 69.697,-131.713 75.112,-143.47Z" style="fill:#f8d1cb;"/><path d="M1464.814,731.006c264.601,108.621 266.453,107.182 268.376,112.025c5.129,12.918 -8.252,34.497 -9.879,37.121c-6.242,-0.909 -7.341,-2.683 -4.045,-8.02c0.87,-1.215 1.74,-2.431 2.611,-3.646c-6.459,-5.193 -153.342,-61.77 -162.193,-66.034c-31.515,-15.183 -84.632,-32.938 -86.836,-39.112c-5.66,-15.854 -7.889,-15.41 -8.033,-32.335Z" style="fill:#f5e8d0;"/><path d="M1082.139,232.335c0.381,-2.077 4.311,-23.529 6.37,-25.629c9.816,-10.012 10.059,14.531 21.025,44.136c14.121,38.12 58.4,30.556 62.103,39.043c4.465,10.234 -19.442,12.904 -21.701,13.482c-62.101,15.895 -38.225,74.891 -56.592,75.546c-7.761,0.277 -8.383,-13.329 -8.76,-15.083c-15.079,-70.202 -42.607,-55.751 -66.338,-65.662c-3.736,-1.56 -5.27,-8.12 -0.602,-10.483c20.882,-10.57 49.609,4.821 64.494,-55.351Z" style="fill:#c78d96;"/><path d="M1464.814,731.006c0.144,16.925 2.374,16.48 8.033,32.335c2.204,6.174 55.321,23.929 86.836,39.112c8.851,4.264 155.734,60.841 162.193,66.034c-0.87,1.215 -1.74,2.431 -2.611,3.646c-3.295,5.337 -2.196,7.11 4.045,8.02c-10.546,16.007 -15.67,7.152 -29.273,1.698c-20.635,-8.273 -255.16,-102.295 -257.574,-104.284c-8.358,-6.887 22.878,-46.208 -19.332,-61.796c-5.072,-1.873 -1.224,-5.747 2.367,-4.34c3.679,1.441 3.522,1.678 45.315,19.575Z" style="fill:#dcbba6;"/><path d="M1254.025,816.346c7.795,-3.02 8.757,-1.955 55.499,-42.121c28.008,-24.068 38.04,-38.477 30.16,-59.028c-4.101,-10.695 0.261,-10.457 9.719,-17.45c33.979,-25.123 61.782,-8.491 40.211,29.514c-27.737,48.868 -23.576,51.517 -40.669,69.194c-57.933,59.916 -91.077,41.186 -103.61,33.586c-14.516,-8.802 3.907,-11.882 8.689,-13.695Z" style="fill:#e9a0b0;"/><path d="M421.893,829.527c-39.911,14.784 -35.717,25.375 -46.091,70.596c-0.467,2.038 -10.345,21.248 -14.382,-4.212c-13.594,-85.744 -57.328,-58.94 -68.932,-72.588c-13.133,-15.445 47.997,0.738 63.079,-52.419c5.249,-18.5 6.344,-46.735 16.364,-36.941c12.364,12.085 -7.167,63.563 56.753,76.627c0.271,0.055 16.209,1.557 18.256,6.712c1.254,3.157 -1.924,5.504 -2.331,5.805c-2.078,1.535 -20.877,5.986 -22.716,6.422Z" style="fill:#d4aa86;"/><path d="M715.144,327.429c31.201,-2.728 47.102,8.678 66.887,31.262c-0.827,1.428 -3.172,1.564 -3.999,2.992c-1.096,1.893 1.52,1.121 14.467,23.222c6.583,11.237 7.157,14.744 7.385,16.14c0.102,0.622 0.978,5.981 3.927,6.874c1.509,0.457 2.468,-2.975 3.977,-2.518c2.584,7.135 25.51,70.431 18.76,92.813c-7.898,10.466 -22.441,15.888 -49.618,28.68l-2.868,-3.838l-2.365,0.036l-2.365,-0.407c-0.677,0.639 -9.307,6.554 -19.136,9.248c-5.953,1.632 -5.61,1.93 -11.609,3.994l-2.365,-1.408l-2.365,1.557l-1.241,1.304l-2.148,2.312l3.63,3.187c-13.144,3.15 -53.883,16.288 -94.298,-6.348c-47.132,-26.398 -32.571,-89.87 11.059,-103.797c5.134,-1.639 25.593,-6.028 24.134,-11.012c-1.218,-4.162 -17.728,-31.169 -2.023,-64.415c5.838,-12.358 18.297,-20.5 20.304,-21.811c2.649,-1.345 2.561,-1.062 5.27,-1.826c13.317,15.286 -12.298,12.369 -18.15,42.016c-7.235,36.65 23.091,52.693 -0.769,60.409c-30.494,9.862 -40.718,11.554 -53.118,36.318c-14.362,35.809 25.449,104.008 162.187,35.825c12.81,-6.388 28.893,-12.104 27.881,-19.406c-3.431,-24.762 -20.192,-109.242 -59.812,-137.62c-25.235,-18.075 -43.288,-11.384 -45.967,-10.909c-0.784,-2.037 -5.453,-8.075 4.347,-12.873Z" style="fill:#a16356;"/><path d="M1074.138,973.399c2.112,-0.324 20.235,-3.102 22.039,14.77c1.544,15.288 -2.521,14.913 -16.855,21.397c-10.535,4.765 12.41,84.65 14.465,91.804c1.09,3.796 2.206,7.679 -36.792,33.689c-16.514,11.015 -18.918,4.373 -29.112,-10.941c-22.346,-33.566 -16.88,-36.025 -14.542,-38.49c4.66,-4.915 32.083,-33.839 53.493,-65.439c9.624,-14.204 -19.913,-33.793 7.304,-46.791Z" style="fill:#ef97ad;"/><path d="M771.738,972.519c4.242,0.121 4.222,0.058 4.581,0.131c27.037,5.504 9.901,32.377 8.354,34.804c-5.122,8.033 13.854,32.199 55.112,78.222c3.71,4.138 5.875,9.371 -21.595,47.616c-10.62,14.786 -16.033,7.298 -52.035,-21.525c-11.799,-9.447 -4.977,-12.105 -1.42,-28.769c13.954,-65.38 16.302,-69.616 4.895,-74.64c-16.091,-7.087 -20.433,-29.16 2.107,-35.839Z" style="fill:#ef98ae;"/><path d="M1582.974,257.403c9.391,3.566 9.68,2.642 18.096,8.249c69.715,46.442 43.006,109.521 42.93,109.782c-8.551,29.255 40.903,-9.357 81.785,55.172c-4.33,5.254 -13.38,8.405 -22.819,14.723c-32.181,-47.741 -80.447,-34.514 -89.352,-33.598c-12.669,1.303 37.189,-51.461 -10.735,-108.573c-11.249,-13.527 -15.576,-14.325 -29.628,-21.807c2.995,-12.957 0.446,-14.268 9.722,-23.949Z" style="fill:#f5d084;"/><path d="M1686.838,993.315c26.484,6.407 5.835,14.523 4.612,14.86c-38.244,10.536 -39.442,14.94 -49.042,56.388c-3.261,14.078 -12.368,10.414 -14.265,2.135c-9.81,-42.822 -11.014,-47.13 -49.754,-58.49c-16.1,-4.721 -5.957,-11.532 -4.502,-12.004c28.746,-9.32 40.862,-3.607 50.945,-47.473c0.391,-1.7 4.509,-19.617 7.803,-20.399c9.758,-2.317 9.396,18.288 14.144,32.095c8.349,24.279 16.931,27.063 40.059,32.888Z" style="fill:#c28e94;"/><path d="M953.117,537.158l2.508,2.533l0.654,2.312l1.096,2.954c4.63,14.331 7.909,12.514 48.086,32.415c47.152,23.356 185.677,75.819 187.045,76.277c4.798,1.605 5.189,4.476 6.12,5.683c-7.439,11.455 -5.668,15.2 -12.909,13.886c-2.082,-0.378 -219.492,-89.747 -238.563,-97.587c-6.594,-2.711 -9.751,0.057 -9.974,-5.872c-0.109,-2.889 3.001,-1.738 15.938,-32.601Z" style="fill:#e4c6b1;"/><path d="M1578.389,1467.039c6.857,7.356 6.642,7.955 6.351,8.766c-0.3,0.836 -5.704,4.514 -6.228,4.871c-5.159,2.035 -5.287,1.998 -7.259,6.889c-0.045,8.999 -0.57,115.183 7.551,112.244c6.131,-2.219 5.766,0.557 11.986,4.463c-16.683,7.07 -23.811,5.45 -38.764,3.926c2.425,-4.759 2.051,-4.883 -0.76,-35.047c-2.523,-27.07 1.522,-42.453 -6.234,-42.11c-4.795,0.212 -4.028,45.086 -3.094,53.702c1.368,12.617 -1.279,13.981 7.82,23.128c-18.185,-3.108 -21.988,-2.939 -23.726,-20.928c-4.07,-42.111 12.635,-113.033 23.648,-112.408c14.623,0.831 14.536,-0.412 28.708,-7.496Z" style="fill:#dba56f;"/><path d="M207.418,960.15c-6.914,-33.586 22.278,-29.604 34.002,-24.01c7.351,3.507 6.76,-0.727 10.911,-7.503c19.884,-32.458 63.902,-0.042 24.153,65.946c-10.771,17.881 -53.772,-2.227 -69.066,-34.432Z" style="fill:#c48891;"/><path d="M265.979,678.285c-0.967,-2.73 -8.091,-22.851 -22.229,-28.846c-4.757,-2.017 -30.344,-4.436 -24.883,-14.65c2.155,-4.032 3.407,-2.43 15.968,-4.982c34.8,-7.071 32.264,-48.369 36.604,-54.814c9.27,-13.766 14.488,21.077 14.942,22.639c12.716,43.723 53.21,25.503 48.266,41.648c-1.568,5.122 -3.394,3.239 -19.598,8.431c-39.253,12.576 -24.094,53.006 -37.492,54.682c-7.776,0.973 -11.243,-22.844 -11.578,-24.108Z" style="fill:#c18c95;"/><path d="M1118.956,1274.178c9.793,-4.637 19.798,-11.276 20.931,-5.995c12.592,58.694 -265.372,92.336 -408.343,29.645c2.721,-11.608 2.642,-18.572 11.177,-12.774c10.544,7.162 10.669,6.654 33.45,13.48c23.021,6.898 23.363,3.631 30.998,3.872c18.974,0.598 17.695,4.171 18.742,5.153c0.979,0.919 18.904,3.092 30.551,5.425c3.718,0.745 40.859,8.185 47.178,4.866c22.667,-11.907 34.651,0.186 45.597,-4.212c5.206,-2.092 5.588,2.504 10.865,0.192c-0.563,2.432 0.373,2.387 -0.159,4.8c-0.715,3.242 -2.204,1.797 -2.139,2.02c1.36,4.658 3.314,2.408 24.387,2.792c27.249,-3.095 27.065,-3.346 54.387,-6.956c27.628,-3.65 26.738,-8.69 35.451,-7.77c3.776,0.399 3.362,-1.028 7.014,-1.769c5.58,-1.132 4.92,-2.514 11.702,-4.654c20.063,-6.331 20.035,-6.506 21.863,-6.476c10.145,0.17 0.767,-8.496 9.109,-17.219l-1.279,-1.442l-1.482,-2.978Z" style="fill:#f5c8a4;"/><path d="M1612.913,1293.093c-7.821,25.403 -9.064,39.11 -17.313,31.719c-6.396,-5.731 -0.361,-47.265 -38.631,-55.083c-42.138,-8.608 6.757,-16.328 13.765,-20.846c28.558,-18.411 16.675,-61.76 30.936,-52.397c8.496,5.578 0.637,45.586 35.516,55.539c19.063,5.44 21.933,3.444 21.746,8.962c-0.527,15.595 -27.711,-5.089 -46.018,32.107Z" style="fill:#cfa887;"/><path d="M599.237,338.341c-2.81,-2.256 -3.089,-1.73 -6.179,0.224l-3.423,2.316c-0.356,-18.385 -6.711,-37.619 2.672,-25.826c1.39,1.747 1.446,1.652 35.074,35.118c9.839,9.791 1.618,12.371 5.703,36.834c1.905,11.411 6.656,12.848 -0.717,19.137c-6.028,-7.655 -6.63,-14.405 -11.259,-9.138c-5.424,6.171 -5.874,5.597 -15.024,8.431c-6.275,1.944 -42.329,-3.601 -43.196,-3.952c-0.905,-0.366 1.02,-1.96 0.58,-2.815c-0.596,-1.156 -2.614,-1.133 -3.209,-2.29c-4.727,-18.08 -39.813,-47.334 -27.646,-49.328c0.828,-0.136 1.689,0.08 2.517,-0.055c5.919,7.474 6.5,7.598 33.415,13.838c21.498,4.985 23.074,-2.462 24.22,-3.69l0.719,-4.568l1.078,-2.447c3.361,-11.41 4.229,-10.9 4.676,-11.79Z" style="fill:#f1cf8e;"/><path d="M1439.203,1179.94c-0.356,-2.71 -3.466,-26.406 2.443,-34.071c0.858,-1.113 6.255,-8.113 15.894,-7.877c21.556,0.528 14.812,25.805 30.499,18.421c28.063,-13.209 56.413,22.369 -2.374,55.574c-32.43,18.317 -37.191,3.443 -46.462,-32.048Z" style="fill:#c38992;"/><path d="M1334.579,828.685c40.429,-31.567 36.913,-35.013 66.651,-92.247c7.369,-14.182 24.94,-8.559 22.315,13.514c-8.828,74.212 -66.418,116.338 -102.415,91.766c-2.891,-1.974 -0.099,-4.199 13.448,-13.033Z" style="fill:#e89ead;"/><path d="M260.306,1475.41c3.271,-4.637 6.871,-12.67 11.753,-10.104c10.564,5.551 9.776,8.213 28.942,9.042c9.03,0.39 31.619,59.545 25.221,119.441c-1.503,14.066 -9.326,11.934 -20.415,13.843c1.571,-5.521 8.736,-30.7 0.363,-71.627c-6.802,-33.248 -7.591,-35.719 -9.699,-33.811c-5.439,4.923 -2.428,5.869 -1.17,13.139c7.189,41.525 0.823,82.265 3.609,92.929c-16.004,2.845 -29.399,-1.289 -31.254,-1.712c2.365,-1.643 0.336,-2.954 2.661,-4.57c2.185,-1.519 2.593,0.341 4.989,-0.746c10.102,-4.582 10.182,-73.746 12.571,-92.931c1.344,-10.787 2.007,-12.96 -15.11,-23.128c-5.535,-5.812 -5.413,-5.708 -12.464,-9.765Z" style="fill:#daa36e;"/><path d="M422.692,517.22c-4.442,5.495 -6.749,10.04 -26.68,0.918c-62.679,-28.687 -38.438,-71.443 -10.165,-56.271c13.674,7.338 7.069,-10.599 21.648,-16.945c31.712,-13.804 33.046,44.364 15.196,72.298Z" style="fill:#c18690;"/><path d="M388.017,1101.635c12.806,33.977 26.047,20.438 40.063,30.72c13.518,9.917 -23.315,12.393 -31.271,23.154c-14.734,19.928 -9.156,46.544 -22.509,38.519c-6.769,-4.068 -2.282,-36.866 -26.381,-45.368c-5.788,-2.042 -24.248,-4.482 -21.685,-12.847c2.807,-9.162 33.086,1.118 41.503,-34.247c0.864,-3.63 3.907,-30.916 12.907,-22.401c0.093,0.088 1.317,-0.346 7.373,22.47Z" style="fill:#cf9d9a;"/><path d="M861.069,458.368c25.72,-17.38 56.461,27.819 21.006,83.108c-16.7,26.042 -56.314,28.811 -55.281,2.84c0.393,-9.89 20.879,-11.961 34.975,-27.622c10.732,-21.297 -7.828,-47.413 -0.7,-58.326Z" style="fill:#e7bd89;"/><path d="M568.78,673.586c-2.728,-5.628 -2.152,-5.802 -6.092,-10.687c-6.973,-8.643 -47.241,-14.602 -17.869,-23.237c33.899,-9.965 23.552,-33.813 31.399,-43.868c9.068,-11.62 10.821,21.509 21.242,33.328c10.224,11.596 50.573,15.667 15.493,25.127c-24.15,6.513 -20.78,26.116 -26.532,40.018c-7.308,17.663 -15.848,-15.561 -17.641,-20.681Z" style="fill:#c29694;"/><path d="M1094.796,235.073c3.652,21.907 1.356,23.276 16.183,40.025c8.044,9.087 27.791,15.226 28.049,16.951c0.584,3.907 -1.643,2.794 -12.159,7.896c-24.06,11.674 -29.665,37.215 -30.538,41.194c-4.446,20.257 -3.958,-10.271 -22.171,-30.073c-16.536,-17.978 -46.465,-15.819 -25.689,-20.921c25.643,-6.297 38.145,-31.265 40.767,-41.545c2.916,-11.432 1.489,-13.332 5.558,-13.527Z" style="fill:#f4b4ba;"/><path d="M1470.114,950.152c-17.776,-9.995 -22.607,-7.219 -22.791,-12.787c-0.13,-3.928 13.796,-8.381 15.135,-8.809c22.69,-7.254 20.364,-35.24 24.064,-39.372c10.325,-11.53 12.439,21.653 19.403,31.046c6.712,9.053 48.425,14.253 19.955,23.238c-39.905,12.595 -18.174,35.257 -33.195,41.273c-12.893,5.164 -0.97,-17.036 -22.57,-34.59Z" style="fill:#d1a98f;"/><path d="M931.473,1740.114c5.214,3.422 4.987,3.486 10.673,5.916l2.196,2.798c2.554,6.041 0.401,6.468 1.724,9.194c1.513,3.118 2.862,2.648 2.657,6.9c-0.114,2.353 1.636,2.245 1.369,29.419c-0.146,14.903 -7.096,13.573 -6.173,19.517c0.94,6.053 1.418,5.894 1.094,10.928c-8.176,-2.426 -6.846,1.86 -9.209,9.839c-1.743,5.884 -0.992,5.844 -0.856,11.985c-4.059,-0.461 -20.131,-0.557 -20.402,-5.697c-2.623,-49.836 -0.96,-49.669 6.516,-99.034c0.677,-4.468 0.313,-4.399 1.475,-7.251c2.709,-6.651 3.53,0.656 8.937,5.486Z" style="fill:#f0d08f;"/><path d="M413.875,821.046c-47.634,14.417 -38.134,57.089 -45.967,53.016c-3.12,-1.622 0.037,-35.577 -38.901,-51.637c-17.295,-7.134 16.095,-1.422 32.718,-35.837c7.444,-15.412 7.538,-37.031 9.555,-20.098c0.311,2.609 -2.826,16.1 15.247,36.481c11.155,12.58 23.28,11.603 27.348,18.075Z" style="fill:#f6d39b;"/><path d="M900.958,349.918c-4.164,15.611 -2.633,16.957 -6.477,18.216c-12.074,3.954 -5.463,-31.646 -30.325,-39.404c-12.172,-3.798 -13.415,-2.564 -14.792,-6.204c-5.348,-14.134 24.426,-1.481 32.621,-35.044c0.249,-1.018 1.778,-18.605 10.24,-15.708c9.861,3.377 0.155,28.438 25.933,37.225c11.734,4 15.623,1.215 15.368,8.781c-0.223,6.606 -18.436,10.351 -21.823,12.274c-5.771,3.278 -10.227,18.14 -10.745,19.865Z" style="fill:#d9af8e;"/><path d="M731.544,1297.828c-12.75,-7.816 -17.007,-8.606 -19.099,-27.61c-1.301,-11.82 26.566,8.017 49.707,14.159c124.298,32.992 215.737,19.561 241.209,17.324c0.605,0.489 1.739,-0.708 2.344,-0.219c3.894,3.152 1.456,4.416 -3.356,5.727l-1.247,1.449c-1.2,0.416 -1.415,2.415 -7.276,2.524c-32.874,0.611 -32.547,2.197 -33.724,2.647c-5.277,2.312 -5.66,-2.284 -10.865,-0.192c-10.946,4.398 -22.929,-7.694 -45.597,4.212c-6.319,3.319 -43.46,-4.121 -47.178,-4.866c-11.647,-2.333 -29.572,-4.506 -30.551,-5.425c-1.047,-0.982 0.233,-4.555 -18.742,-5.153c-7.635,-0.241 -7.977,3.026 -30.998,-3.872c-22.781,-6.826 -22.906,-6.318 -33.45,-13.48c-8.536,-5.798 -8.456,1.167 -11.177,12.774Z" style="fill:#fadfb2;"/><path d="M1677.281,705.909c-26.572,18.257 -38.811,27.982 -48.827,-2.271c-17.61,-53.186 18.09,-53.679 27.286,-36.567c3.754,6.986 4.395,8.387 12.054,6.111c12.919,-3.839 35.861,5.855 9.488,32.727Z" style="fill:#dfa8b0;"/><path d="M478.66,1291.733c2.592,-0.986 2.361,-0.84 5.049,-1.92c46.115,-18.532 53.033,-2.005 48.343,7.694c-3.245,6.711 -18.292,12.198 -20.091,12.854c-27.315,9.96 -45.863,27.8 -61.908,30.117c-15.351,2.216 -25.493,-25.401 28.607,-48.745Z" style="fill:#faf8e4;"/><path d="M715.144,327.429c0.048,-1.227 0.468,-12.023 9.106,-12.504c26.866,-1.496 25.32,5.097 38.02,9.693c8.861,3.207 7.773,4.542 14.655,11.072c45.478,43.149 41.031,75.475 51.536,95.345c3.454,6.534 7.373,30.705 7.713,32.107c2.16,8.914 -0.825,8.829 -0.308,13.997c0.368,3.676 1.124,3.385 1.569,7.069c0.417,2.981 -1.292,3.754 2.851,6.933c4.975,3.817 2.033,4.874 -2.38,9.308c-3.786,-0.745 -7.571,-1.49 -11.357,-2.235c6.749,-22.383 -16.176,-85.679 -18.76,-92.813c-9.686,-23.387 -9.798,-26.206 -25.757,-46.71c-19.786,-22.584 -35.686,-33.989 -66.887,-31.262Z" style="fill:#f2cb8a;"/><path d="M1118.956,1274.178l1.482,2.978l1.279,1.442c-8.342,8.723 1.035,17.389 -9.109,17.219c-1.827,-0.031 -1.799,0.144 -21.863,6.476c-6.781,2.14 -6.122,3.522 -11.702,4.654c-3.652,0.741 -3.237,2.168 -7.014,1.769c-8.713,-0.92 -7.822,4.119 -35.451,7.77c-27.322,3.61 -27.138,3.861 -54.387,6.956c-21.073,-0.385 -23.026,1.866 -24.387,-2.792c-0.065,-0.224 1.423,1.222 2.139,-2.02c0.533,-2.414 -0.404,-2.368 0.159,-4.8c1.177,-0.45 0.85,-2.036 33.724,-2.647c5.86,-0.109 6.076,-2.108 7.276,-2.524l1.247,-1.449c4.811,-1.311 7.25,-2.575 3.356,-5.727c-0.605,-0.489 -1.739,0.708 -2.344,0.219c73.629,-10.316 94.961,-19.831 115.595,-27.524Z" style="fill:#f1c096;"/><path d="M1052.325,659.24c16.25,9.018 1.297,13.228 -21.592,64.845c-5.676,12.801 -30.365,53.109 -33.145,57.648c-1.118,1.825 -26.403,39.592 -28.705,43.03c-3.091,4.617 -2.989,12.069 -2.975,13.147c0.072,5.286 -2.251,5.881 -2.591,6.769c-10.161,-6.386 -10.581,-16.559 10.456,-52.393c71.998,-122.637 71.192,-123.083 78.551,-133.046Z" style="fill:#fad1d9;"/><path d="M272.77,1485.175c17.117,10.168 16.454,12.341 15.11,23.128c-2.39,19.185 -2.469,88.35 -12.571,92.931c-2.397,1.087 -2.804,-0.772 -4.989,0.746c-2.325,1.616 -0.297,2.927 -2.661,4.57c-4.67,-1.609 -4.493,-1.608 -8.567,-4.238c1.432,-25.093 -5.396,-25.504 4.494,-73.084c5.326,-25.622 5.16,-26.676 -0.162,-32.277c4.316,-6.271 2.917,-7.31 9.347,-11.776Z" style="fill:#eec688;"/><path d="M953.406,1699.19c0.985,-0.184 1.91,-0.614 2.895,-0.798c15.175,-2.835 48.274,118.199 32.948,133.569c-2.247,2.254 -13.521,6.352 -14.188,6.315c-2.771,-0.152 -1.496,-1.627 -2.075,-22.469c-1.613,-57.99 -6.787,-65.771 -9.742,-83.225c-4.15,-17.044 -3.587,-16.983 -9.838,-33.392Z" style="fill:#deab76;"/><path d="M253.49,986.508c-1.373,-0.651 -14.509,-4.796 -27.105,-19.897c-1.088,-1.304 -11.441,-13.716 -7.399,-19.752c7.202,-10.756 21.672,0.671 23.115,1.811c18.444,14.565 13.124,-13.268 25.565,-18.865c4.534,-2.04 24.936,-0.497 2.038,53.491c-3.847,9.069 -6.596,6.365 -16.214,3.213Z" style="fill:#eb9aa8;"/><path d="M1632.865,1041.148c-0.412,-1.46 -5.455,-27.474 -28.902,-36.36c-13.827,-5.239 1.668,-6.654 4.495,-8.19c23.783,-12.926 24.819,-42.064 25.032,-42.443c5.135,-9.118 1.57,3.106 4.388,13.092c8.767,31.068 37.449,31.673 36.355,36.124c-0.223,0.908 -19.015,0.81 -29.21,17.61c-11.503,18.957 -7.623,20.289 -8.752,21.803c-0.434,0.582 -0.934,-2.278 -1.368,-1.696l-2.037,0.06Z" style="fill:#f3b2b8;"/><path d="M1725.786,430.606c1.215,2.468 2.431,4.935 3.646,7.403c2.251,5.75 22.34,57.054 9.721,76.372c-3.563,5.455 -20.227,5.999 -21.113,5.686c-8.911,-3.154 13.824,-15.129 -15.073,-74.738c9.439,-6.319 18.489,-9.469 22.819,-14.723Z" style="fill:#e4af75;"/><path d="M220.041,1159.603c-7.88,-10.028 -8.613,-9.359 -20.635,-14.289c-13.571,-5.565 11.971,-11.409 15.862,-16.604c6.172,-8.241 10.684,-44.876 20.988,-10.767c4.297,14.226 18.72,15.703 21.647,16.904c9.037,3.708 7.293,8.731 -2.072,11.954c-25.839,8.892 -18.059,25.722 -23.415,30.873c-5.948,5.721 -8.579,-8.412 -12.376,-18.072Z" style="fill:#e9c898;"/><path d="M931.046,1142.811c-5.616,10.931 -4.752,11.291 -2.608,23.336c1.332,3.106 2.664,6.213 3.996,9.319c7.992,15.402 7.979,15.285 8.632,16.634c4.636,9.589 -12.337,29.49 -17.392,24.328c-7.718,-7.883 -9.902,-26.578 -32.957,-16.034c-1.019,-5.057 -1.435,-7.122 29.516,-57.6c3.338,-5.444 2.615,-6.506 5.184,-6.681c3.552,-0.242 2.614,1.431 5.629,6.698Z" style="fill:#fad5df;"/><path d="M912.505,1704.177c3.846,4.347 4.849,3.874 5.134,9.802c-1.111,3.193 -2.222,6.386 -3.334,9.579c-1.515,6.088 -1.591,6.035 -1.636,6.575c-3.254,39.395 -10.916,49.532 -8.485,109.007c-11.237,-4.396 -17.916,-3.165 -18.028,-23.342c-0.272,-48.968 8.945,-71.37 26.348,-111.62Z" style="fill:#f3d89c;"/><path d="M1578.389,1467.039c0.948,-0.414 4.915,-4.379 8.285,0.351c3.916,5.496 14.09,26.961 15.222,29.349c27.926,67.154 19.273,97.545 2.195,101.973c-0.66,-9.175 6.166,-44.009 -17.762,-100.497c-2.421,-9.522 -1.548,-9.893 -7.817,-17.539c0.524,-0.356 5.928,-4.035 6.228,-4.871c0.291,-0.811 0.506,-1.41 -6.351,-8.766Z" style="fill:#f5dea9;"/><path d="M410.308,513.191c-4.392,-1.713 -51.305,-20.006 -42.443,-40.212c5.673,-12.934 30.972,14.145 34.053,3.971c0.177,-0.584 2.201,-21.232 10.809,-24.027c17.15,-5.57 9.455,53.609 -2.419,60.268Z" style="fill:#e798a5;"/><path d="M554.714,862.495c48.13,38.327 75.405,96.255 35.295,65.069c-10.257,-7.975 -69.031,-68.358 -45.356,-69.306c2.964,-0.119 9.319,3.781 10.062,4.236Z" style="fill:#e7a6b8;"/><path d="M1571.253,1487.565c5.839,3.147 4.549,4.27 10.945,16.161c16.748,69.121 9.737,79.265 10.31,99.6l-1.717,0.946c-6.22,-3.906 -5.855,-6.682 -11.986,-4.463c-8.121,2.939 -7.596,-103.245 -7.551,-112.244Z" style="fill:#efc586;"/><path d="M1340.055,317.203c13.125,13.508 24.95,8.232 19.412,16.145c-3.266,4.667 -17.716,4.008 -22.686,19.036c-0.378,1.144 -4.345,13.138 -7.076,13.338c-12.343,0.906 -1.507,-17.72 -23.348,-27.529c-0.924,-0.415 -14.589,-6.553 -6.823,-10.488c5.208,-2.639 15.197,-2.346 20.789,-16.902c1.127,-2.933 2.009,-5.95 3.089,-8.9c4.957,-13.537 15.324,12.434 16.642,15.3Z" style="fill:#ebce9e;"/><path d="M1473.774,1204.836c-3.963,1.481 -9.376,8.582 -15.494,-4.416c-15.098,-32.077 -7.057,-69.108 8.323,-40.972c5.881,10.759 1.929,18.077 11.942,15.042c2.992,-0.907 31.281,-17.571 28.824,-1.344c-0.887,5.856 -9.03,14.656 -10.049,15.758c-5.135,5.549 -5.682,4.81 -23.545,15.932Z" style="fill:#e99ba8;"/><path d="M485.599,989.061c42.234,0.271 77.46,20.987 79.615,22.992c18.25,16.979 -45.069,9.617 -79.532,-5.698c-13.454,-5.979 -14.544,-15.111 -0.082,-17.293Z" style="fill:#e5a2b3;"/><path d="M560.258,396.382c0.596,1.156 2.614,1.133 3.209,2.29c0.44,0.855 -1.484,2.449 -0.58,2.815c0.867,0.35 36.921,5.895 43.196,3.952c9.149,-2.834 9.6,-2.26 15.024,-8.431c4.629,-5.266 5.231,1.484 11.259,9.138c-33.182,12.88 -29.205,19.506 -40.619,24.438c-3.997,1.727 -45.759,-10.977 -56.685,-10.174c-27.634,2.031 18.759,-7.802 25.196,-24.027Z" style="fill:#dfa975;"/><path d="M1081.008,1201.267c0.972,2.178 9.47,15.198 0.148,31.755c-5.502,9.773 -14.548,12.464 -16.146,12.939c-41.92,-6.64 -14.562,-76.924 15.998,-44.695Z" style="fill:#b67370;"/><path d="M260.306,1475.41c7.051,4.057 6.928,3.953 12.464,9.765c-6.43,4.466 -5.031,5.506 -9.347,11.776c-18.116,42.527 -15.553,89.381 -16.871,96.777c-0.17,0.951 -2.002,1.019 -2.172,1.97c-19.908,-9.495 -14.157,-41.365 -0.978,-83.067c3.216,-8.335 8.166,-23.77 16.904,-37.221Z" style="fill:#f7dfa7;"/><path d="M277.359,599.851c8.15,17.217 5.922,27.118 31.532,36.35c8.411,3.032 -15.069,4.365 -23.891,19.45c-4.247,7.262 -3.495,7.363 -5.979,15.428l-3.301,1.961c-1.17,-3.205 -9.303,-25.477 -27.606,-32.876c-14.467,-5.848 18.474,-1.84 25.425,-37.749c1.833,-1.687 1.705,-1.467 3.82,-2.565Z" style="fill:#f3b1b9;"/><path d="M802.112,1237.618c-34.137,34.271 -50.552,-52.577 -11.357,-44.293c11.442,2.418 15.526,15.117 16.092,16.878c5.206,16.19 -4.094,26.346 -4.736,27.415Z" style="fill:#b97c75;"/><path d="M1214.152,567.798c0.062,0.997 -1.728,1.52 -1.666,2.517c0.246,3.928 31.786,20.949 28.852,26.663c-0.077,0.151 -9.797,12.337 -11.303,13.966c-4.877,5.275 -14.304,-0.815 -61.298,-19.775l2.644,-3.566l2.365,0.117c9.916,0 8.474,-3.701 19.162,-8.232c7.781,-3.299 4.726,-9.239 21.244,-11.69Z" style="fill:#e99cac;"/><path d="M1815.145,895.793c-8.351,-7.375 -6.2,-9.226 -15.135,-15.65c-2.551,-1.834 -12.196,-5.408 -16.072,4.028c-2.395,5.831 -11.212,3.912 -6.182,8.109c8.242,6.878 32.695,2.469 22.13,17.327c-2.929,4.119 -2.924,4.167 -2.883,4.597c0.241,2.509 3.334,0.095 3.566,2.508c-2.697,1.293 -19.08,9.148 -37.534,-0.955c-10.761,-5.891 13.227,-20.084 17.017,-47.656c0.465,-3.38 -1.853,-14.002 10.879,-9.168c22.711,8.622 24.566,25.516 24.214,36.861Z" style="fill:#e9c192;"/><path d="M1355.7,1072.838c-8.056,0.996 -76.807,11.762 -71.03,-6.142c2.787,-8.637 92.784,-22.611 92.427,-4.538c-0.163,8.251 -17.896,9.865 -21.397,10.68Z" style="fill:#e49fb0;"/><path d="M964.251,1641.998c25.32,50.593 -70.317,62.77 -53.384,2.621c1.395,1.534 2.698,0.332 4.309,4.737c0.204,0.559 1.703,4.657 3.637,6.509c10.565,10.12 23.906,-0.646 25.483,-1.918c13.422,-5.001 19.022,-11.244 19.954,-11.949Z" style="fill:#e0ac76;"/><path d="M1599.129,1300.651c-4.073,-10.198 -0.842,-23.354 -25.349,-35.697c-8.782,-4.423 3.178,-7.891 6.03,-9.689c12.169,-7.669 16.323,-24.433 16.932,-26.888c1.87,-7.545 3.334,1.045 10.773,15.945c6.911,13.842 29.81,15.377 19.706,20.198c-21.295,10.162 -19.1,13.313 -25.749,35.376l-2.343,0.755Z" style="fill:#f6d0a0;"/><path d="M942.145,1746.03c13.986,2.012 13.206,4.091 14.62,4.879c7.336,32.288 7.664,47.742 7.573,78.791c-0.057,19.54 -7.559,16.197 -22.457,16.994c0.22,-11.199 2.077,-10.862 3.131,-21.91c0.324,-5.034 -0.154,-4.875 -1.094,-10.928c-0.923,-5.944 6.027,-4.614 6.173,-19.517c0.267,-27.174 -1.483,-27.065 -1.369,-29.419c0.205,-4.252 -1.143,-3.781 -2.657,-6.9c-1.323,-2.726 0.83,-3.153 -1.724,-9.194l-2.196,-2.798Z" style="fill:#ebc285;"/><path d="M274.936,1448.357c-23.585,-31.951 13.716,-49.629 19.369,-52.433c15.893,-7.883 -6.008,7.411 -2.945,24.589c3.654,20.494 19.029,28.271 21.267,30.266c4.91,4.376 -12.813,19.267 -37.691,-2.421Z" style="fill:#ebc48e;"/><path d="M1576.168,1448.618c-21.23,20.774 -44.844,7.833 -35.124,0.469c36.095,-27.343 9.637,-47.416 13.736,-53.057c2.386,-3.283 46.075,20.656 21.388,52.588Z" style="fill:#eac18a;"/><path d="M908.573,516.504c0.739,1.092 -1.529,0.942 -0.694,2.174c0.168,0.248 0.999,1.475 3.353,1.751c0.761,0.089 1.232,-1.219 1.992,-1.123c1.795,0.227 1.099,5.902 1.036,6.418c-1.019,8.317 -2.988,15.284 18.257,14.486c1.315,-0.264 2.63,-0.529 3.945,-0.793c-1.776,3.975 -21.605,48.365 -43.235,33.96c-11.902,-7.927 -2.907,-19.278 -1.871,-20.585c0.51,-0.644 0.447,-0.615 6.029,-8.3c6.705,-13.673 5.972,-13.787 11.188,-27.988Z" style="fill:#dca773;"/><path d="M922.902,488.309c28.618,-1.428 14.726,47.039 13.56,51.107c-1.315,0.264 -2.63,0.529 -3.945,0.793c-21.244,0.798 -19.276,-6.168 -18.257,-14.486c0.063,-0.516 0.759,-6.191 -1.036,-6.418c-0.76,-0.096 -1.231,1.213 -1.992,1.123c-2.354,-0.276 -3.185,-1.503 -3.353,-1.751c-0.834,-1.232 1.434,-1.082 0.694,-2.174c4.281,-16.749 -2.243,-22.157 14.329,-28.195Z" style="fill:#f2d49a;"/><path d="M1359.839,1289.585c1.131,1.223 14.36,15.535 1.046,20.581c-11.854,4.493 -59.99,-13.73 -54.39,-23.666c11.739,-20.828 49.659,0.967 53.344,3.085Z" style="fill:#fbf8e6;"/><path d="M677.444,1287.918c10.839,2.353 17.27,4.875 22.918,0.931c5.037,9.105 5.316,8.737 12.403,15.793l-2.558,1.746l-2.365,-0.317c-0.993,-0.368 -37.063,-8.437 -66.223,-8.23c-20.982,0.149 -56.088,9.782 -37.245,-5.86c22.022,-8.736 46.424,-8.358 73.07,-4.062Z" style="fill:#d0a7a3;"/><path d="M378.543,1101.597c4.341,26.588 11.646,26.821 27.913,35.321c-0.659,0.457 -1.68,1.85 -5.903,4.094c-28.031,14.892 -16.135,29.282 -23.177,29.114c-0.248,-0.006 -4.963,-24.257 -24.152,-29.652c-12.804,-3.6 1.529,-5.434 4.356,-7.062c18.769,-10.808 11.875,-24.036 20.963,-31.816Z" style="fill:#f0bf9c;"/><path d="M677.444,1287.918c-26.646,-4.296 -51.048,-4.674 -73.07,4.062c18.074,-41.671 66.352,-24.609 67.472,-23.657c6.945,5.904 5.861,6.693 6.728,15.769l-0.422,2.312l-0.708,1.515Z" style="fill:#f6d3cd;"/><path d="M1062.722,1333.222c3.191,3.289 2.404,5.275 6.941,4.327c41.437,-8.664 96.323,35.313 85.04,37.956c-8.005,1.875 -7.294,-14.921 -108.667,-34.57l-2.411,-2.507c9.624,-3.116 9.471,-2.842 19.097,-5.206Z" style="fill:#d1a2a2;"/><path d="M1743.713,872.592c5.581,-16.928 5.036,-17.05 3.016,-34.759c-1.276,-11.187 21.763,-7.763 21.019,16.275c-0.81,26.161 -25.446,74.701 -45.895,55.884c4.931,-2.218 4.864,-2.476 5.326,-2.396c9.194,1.595 16.332,-7.756 25.536,-23.412c0.351,-0.976 0.702,-1.952 1.053,-2.928c-0.994,-0.255 -9.689,-2.482 -10.911,-6.631c-0.207,-0.704 1.063,-1.328 0.856,-2.032Z" style="fill:#f0c991;"/><path d="M780.784,192.685c0.486,-0.562 4.719,-5.463 7.49,-5.568c24.377,-0.921 -10.764,84.29 -19.471,61.512c-6.557,-17.153 10.002,-51.801 11.981,-55.944Z" style="fill:#e7a8b7;"/><path d="M1310.681,937.11c-41.728,38.505 -49.735,30.011 -49.539,25.632c0.545,-12.179 55.448,-63.127 56.937,-39.297c0.378,6.052 -1.591,5.445 -7.399,13.665Z" style="fill:#e6a7b7;"/><path d="M1275.999,537.822c-19.849,34.571 -23.679,51.021 -28.868,47.742c-5.487,-3.469 -4.646,-4.306 -10.22,-7.8c-1.407,-0.882 -1.534,-0.61 -18.289,-9.867c2.449,-1.365 2.304,-1.354 4.819,-2.686c39.569,-20.957 36.712,-33.649 52.558,-27.388Z" style="fill:#e89dad;"/><path d="M932.434,1175.466c0.324,-0.691 -1.211,-1.417 -0.887,-2.108c0.186,-0.397 5.267,-4.71 5.398,-4.622c2.713,1.826 9.423,26.898 14.884,28.775c2.802,0.963 2.444,1.502 5.393,2.266c4.966,1.287 -1.025,4.506 -1.047,4.553c-25.43,3.383 -23.774,66.233 -33.16,33.529c-0.789,-2.751 -11.872,-28.623 -16.552,-32.291c-1.837,-1.44 -11.278,-1.534 -15.272,-1.988l-0.474,-3.186c23.055,-10.544 25.238,8.151 32.957,16.034c5.055,5.163 22.028,-14.738 17.392,-24.328c-0.652,-1.349 -0.639,-1.232 -8.632,-16.634Z" style="fill:#e68ca4;"/><path d="M559.225,646.124c0.415,-0.563 -2.108,-0.699 -1.693,-1.261c0.712,-0.965 3.178,2.21 12.283,-8.783c9.129,-11.022 10.119,-32.596 13.479,-15.841c3.152,15.717 18.082,24.269 19.768,24.305c5.653,0.12 6.394,-0.581 6.401,0.978c0.029,6.325 -7.132,-1.842 -16.932,8.015c-8.152,8.2 -6.5,9.146 -10.514,19.88c-1.193,-0.02 -2.386,-0.04 -3.578,-0.06c-3.203,-13.978 -3.298,-16.929 -19.59,-25.01l0.376,-2.222Z" style="fill:#f2c8a5;"/><path d="M891.191,1203.58c3.994,0.454 13.435,0.548 15.272,1.988c4.68,3.668 15.762,29.54 16.552,32.291c9.386,32.704 7.73,-30.146 33.16,-33.529c1.167,1.304 2.334,2.608 3.501,3.913c-28.456,47.858 -32.748,48.559 -35.599,44.964c-18.377,-23.179 -30.599,-45.458 -32.886,-49.627Z" style="fill:#f6a4bb;"/><path d="M701.29,366.467c9.586,-20.257 32.937,-10.824 37.086,-6.903c26.65,25.178 -40.862,37.297 -37.086,6.903Z" style="fill:#fceff8;"/><path d="M263.423,1496.951c5.322,5.601 5.488,6.656 0.162,32.277c-9.89,47.58 -3.062,47.991 -4.494,73.084c-7.916,-2.003 -7.435,-2.807 -14.711,-6.614c0.17,-0.951 2.002,-1.019 2.172,-1.97c1.318,-7.395 -1.245,-54.25 16.871,-96.777Z" style="fill:#b58e60;"/><path d="M883.575,1094.746c3.084,-7.098 16.314,-37.824 22.584,-40.128c19.852,-7.298 4.967,15.764 -11.737,53.688c-0.578,1.312 -7.675,17.425 -13.889,11.598c-3.134,-2.938 2.499,-23.202 3.042,-25.158Z" style="fill:#fbe0e3;"/><path d="M1586.329,1498.215c23.928,56.488 17.101,91.322 17.762,100.497c-1.504,0.903 -3.009,1.806 -4.513,2.708c-2.356,0.635 -4.713,1.27 -7.069,1.906c-0.573,-20.335 6.438,-30.479 -10.31,-99.6c1.377,-1.837 2.754,-3.674 4.131,-5.511Z" style="fill:#b0835d;"/><path d="M668.878,1179.76c-1.575,9.16 -0.762,9.028 -0.526,18.405c-14.604,3.967 -14.451,3.759 -29.281,6.603c-5.654,-3.8 -5.71,-5.578 -12.19,-2.893c-2.731,1.132 -7.848,1.119 -14.045,2.182c-5.688,0.976 -6.192,2.688 -10.652,-1.071c0,0 -5.22,-4.842 -5.674,-5.263c5.114,-1.256 58.734,-14.426 64.157,-14.771c6.709,-0.427 7.22,-2.637 8.21,-3.191Z" style="fill:#daafb4;"/><path d="M298.912,1608.262c-2.787,-10.665 3.58,-51.404 -3.609,-92.929c-1.259,-7.27 -4.27,-8.216 1.17,-13.139c2.109,-1.909 2.898,0.563 9.699,33.811c8.373,40.927 1.208,66.107 -0.363,71.627c-3.564,0.601 -3.377,0.555 -6.896,0.631Z" style="fill:#b57954;"/><path d="M637.998,491.738c3.729,-1.722 3.659,-1.835 4.012,-1.879c24.97,-3.058 11.606,-28.508 21.005,-26.712c2.143,0.409 3.462,12.503 4.067,14.283c5.582,16.444 35.072,9.312 19.43,17.801c-2.203,0.335 -14.333,0.465 -18.213,7.786c-3.149,5.943 1.106,15.983 -5.001,19.556c-2.047,-3.562 -2.071,-3.521 -2.211,-3.846c-1.811,-8.49 -1.115,-8.583 -4.662,-16.404c-7.387,-7.8 -10.31,-3.357 -18.428,-10.585Z" style="fill:#fbedf1;"/><path d="M528.103,1117.649c-29.153,-6.83 10.61,-24.508 33.12,-24.958c26.469,-0.528 -0.567,24.587 -33.12,24.958Z" style="fill:#e9acbc;"/><path d="M710.911,641.482c0.98,-5.717 -0.026,-5.791 2.714,-11.054c10.97,-21.071 22.273,44.087 10.863,50.418c-16.558,9.188 -13.781,-36.047 -13.577,-39.364Z" style="fill:#e1a7b4;"/><path d="M509.133,553.469c-1.941,0.865 -24.543,14.136 -32.038,6.158c-16.147,-17.186 83.406,-43.535 40.825,-11.612c-0.661,0.495 -0.636,0.288 -8.786,5.454Z" style="fill:#eca5b8;"/><path d="M882.007,1554.951c14.792,31.434 23.428,38.92 12.632,36.895c-4.906,-0.92 -23.57,-27.73 -29.499,-53.295c-2.324,-10.019 -10.09,-27.214 -1.315,-27.351c5.896,-0.092 4.633,9.95 18.182,43.751Z" style="fill:#b6917e;"/><path d="M892.174,294.743l0.447,1.956c9.862,26.827 23.455,18.746 25.401,21.544c2.45,3.523 -22.358,0.375 -23.661,24.789c-0.738,13.832 -4.618,-1.612 -4.717,-2.003c-3.655,-14.545 -8.511,-11.456 -16.174,-20.99l-0.406,-2.505c13.645,-9.042 13.719,-13.593 13.905,-13.965c2.812,-5.615 -1.95,-8.016 3.239,-10.445c3.317,-1.552 1.867,1.537 1.965,1.617Z" style="fill:#f1c78f;"/><path d="M765.066,293.853c-6.103,4.148 -5.526,4.509 -9.85,10.474c-37.894,-8.632 -42.471,-2.666 -45.304,-11.908c-4.345,-14.171 4.393,-12.198 19.268,-9.617c21.443,3.721 27.196,7.832 35.886,11.051Z" style="fill:#af7675;"/><path d="M1489.751,913.353c3.324,0.616 4.714,-0.147 4.527,3.195c-0.663,11.848 18.905,20.67 16.923,22.186c-2.157,1.65 -9.484,1.263 -16.564,16.723c-1.57,3.427 -0.556,6.852 -3.527,4.316c-5.159,-4.402 -1.532,-14.344 -21.173,-20.907c-8.43,-2.817 9.515,-0.137 17.919,-20.248c0.173,-0.413 -0.031,-0.266 1.895,-5.265Z" style="fill:#f0c290;"/><path d="M931.046,1142.811c5.711,6.214 33.311,50.457 32.652,55.848c-0.521,4.261 -3.564,8.887 -4.022,9.584c-1.167,-1.304 -2.334,-2.608 -3.501,-3.913c0.022,-0.047 6.014,-3.265 1.047,-4.553c-2.949,-0.764 -2.591,-1.303 -5.393,-2.266c-5.461,-1.877 -12.171,-26.949 -14.884,-28.775c-0.131,-0.088 -5.212,4.225 -5.398,4.622c-0.324,0.691 1.211,1.417 0.887,2.108c-1.332,-3.106 -2.664,-6.213 -3.996,-9.319c-2.144,-12.044 -3.009,-12.405 2.608,-23.336Z" style="fill:#f39eb7;"/><path d="M675.221,215.853c0.914,2.897 12.902,40.89 -0.706,37.886c-10.81,-2.386 -25.778,-55.716 -7.186,-48.307c3.338,1.33 7.426,9.489 7.893,10.42Z" style="fill:#e2a6b6;"/><path d="M1192.576,391.745c1.047,-23.797 21.443,-16.391 23.212,-15.241c24.021,15.617 -16.64,45.697 -23.212,15.241Z" style="fill:#e7be8a;"/><path d="M1012.9,1526.511l2.384,0.457c-1.552,4.37 -0.165,4.49 -1.508,9.084c-18.477,63.209 -47.761,61.532 -43.387,55.521c10.354,-14.229 14.064,-11.853 29.023,-43.492c7.266,-18.163 6.231,-19.975 13.488,-21.571Z" style="fill:#bc9583;"/><path d="M1308.577,1158.209c-23.592,-3.764 -36.281,-14.368 -36.014,-19.773c0.873,-17.697 72.186,13.377 36.014,19.773Z" style="fill:#ecb1c0;"/><path d="M283.733,1242.319c5.926,-16.06 18.207,-13.547 25.773,-5.908c15.838,15.993 -25.839,42.849 -25.773,5.908Z" style="fill:#e6be89;"/><path d="M1549.759,1607.871c-9.099,-9.148 -6.452,-10.511 -7.82,-23.128c-0.934,-8.616 -1.701,-53.49 3.094,-53.702c7.756,-0.343 3.711,15.04 6.234,42.11c2.811,30.164 3.185,30.288 0.76,35.047l-2.267,-0.327Z" style="fill:#c48d60;"/><path d="M599.237,338.341c-0.446,0.89 -1.315,0.38 -4.676,11.79c-0.359,0.816 -0.718,1.632 -1.078,2.447l-0.719,4.568c-1.146,1.228 -2.723,8.675 -24.22,3.69c-26.914,-6.24 -27.495,-6.365 -33.415,-13.838c48.424,2.521 49.009,3.524 51.981,0.681c2.76,-2.641 1.733,-2.971 2.524,-6.799l3.423,-2.316c3.09,-1.954 3.369,-2.479 6.179,-0.224Z" style="fill:#f8e6b5;"/><path d="M1532.912,483.415c11.833,2.122 15.882,6.707 28.53,17.194c17.244,18.04 19.695,15.92 33.278,36.768c-1.211,0.59 -1.12,2.66 -2.331,3.25c-1.895,0.924 -52.749,-47.329 -57.216,-51.568c-2.871,-2.725 -1.664,-3.152 -2.261,-5.645Z" style="fill:#b46974;"/><path d="M925.268,1628.2c13.419,10.592 14.453,11.824 15.566,14.639c2.233,5.646 0.922,5.832 3.463,11.108c-1.577,1.272 -14.918,12.038 -25.483,1.918c-1.934,-1.853 -3.433,-5.951 -3.637,-6.509c-1.611,-4.405 -2.914,-3.203 -4.309,-4.737c5.228,-9.796 4.757,-10.344 14.401,-16.42Z" style="fill:#fae9aa;"/><path d="M421.682,654.781c-1.314,-0.236 -11.538,-2.07 -14.069,-8.794c-2.706,-7.19 1.123,-13.529 3.087,-15.441c19.034,-18.519 39.417,21.663 10.982,24.234Z" style="fill:#e6bb90;"/><path d="M672.866,874.69c-0.51,-1.603 -4.842,-15.225 -3.351,-20.731c6.979,-25.771 36.132,27.68 16.942,32.065c-8.84,2.02 -13.259,-10.774 -13.591,-11.333Z" style="fill:#e7b3b7;"/><path d="M1815.145,895.793c-3.043,8.87 -3.11,12.203 -14.576,20.918c-0.232,-2.413 -3.325,0.001 -3.566,-2.508c-0.041,-0.429 -0.046,-0.478 2.883,-4.597c10.565,-14.857 -13.887,-10.449 -22.13,-17.327c-5.03,-4.197 3.787,-2.278 6.182,-8.109c3.875,-9.436 13.521,-5.862 16.072,-4.028c8.935,6.424 6.784,8.275 15.135,15.65Z" style="fill:#f2c78a;"/><path d="M1452.772,410.653c13.782,2.715 19.518,5.812 32.35,18.733c0.8,1.223 13.016,19.886 3.151,17.884c-0.688,-0.14 -39.775,-30.547 -40.189,-32.008c-0.237,-0.837 0.464,-1.76 0.227,-2.597c1.487,-0.671 2.974,-1.341 4.46,-2.012Z" style="fill:#d07c8c;"/><path d="M1681.526,1136.208c-1.779,29.265 -40.118,10.827 -24.568,-6.372c0.794,-0.879 17.505,-14.872 24.568,6.372Z" style="fill:#e1b9c0;"/><path d="M1151.38,1179.593c4.983,4.222 4.957,4.126 7.864,9.896c2.572,5.104 3.104,5.573 3.521,5.941c1.961,1.729 2.763,-0.401 4.716,1.321c-3.653,7.529 -3.128,7.715 -6.703,12.558c-9.054,12.265 -13.119,16.577 -13.966,10.371c-5.199,-38.105 1.984,-37.229 4.568,-40.087Z" style="fill:#f5aec2;"/><path d="M699.238,1174.968c1.424,1.953 9.185,9.419 8.36,18.942c-0.19,2.193 -1.847,21.34 -3.229,27.333c-0.103,0.447 -1.299,-0.327 -1.402,0.121l-2.381,0.541c-7.59,-11.4 -7.466,-11.262 -14.818,-22.817c10.247,-7.477 8.354,-9.004 10.478,-21.339l2.991,-2.78Z" style="fill:#f4a1ac;"/><path d="M925.268,1628.2c25.849,-10.116 36.284,9.648 38.983,13.799c-0.932,0.704 -6.532,6.948 -19.954,11.949c-2.54,-5.276 -1.229,-5.462 -3.463,-11.108c-1.114,-2.815 -2.148,-4.047 -15.566,-14.639Z" style="fill:#eabf81;"/><path d="M1178.362,1004.226c6.513,10.257 4.265,15.907 16.53,13.778c4.72,12.604 -3.262,10.556 -12.449,20.397c-2.406,2.577 -3.731,-0.045 -3.967,-0.068c-1.052,-0.102 -1.93,1.156 -2.982,1.054c-6.707,-13.107 -9.588,-23.514 2.868,-35.16Z" style="fill:#f5cca5;"/><path d="M1534.346,528.534c14.442,-5.444 64.223,30.973 46.181,32.017c-3.09,0.179 -42.868,-24.6 -46.552,-30.047l0.371,-1.97Z" style="fill:#b1626f;"/><path d="M627.457,1415.868c-20.065,40.622 -10.754,43.487 -14.739,50.64c-7.859,14.109 -13.857,-26.862 6.276,-52.011c3.901,-4.873 6.273,-4.353 8.463,1.371Z" style="fill:#b28d7a;"/><path d="M1570.311,1103.662c-10.685,25.84 -39.737,-4.186 -18.167,-13.764c0.686,-0.305 18.404,-4.865 18.167,13.764Z" style="fill:#e7bb8e;"/><path d="M1311.149,690.151c15.77,-19.015 19.607,-13.584 30.816,-9.934c7.267,2.367 -5.884,9.727 -6.77,10.48c-9.461,8.044 -9.82,9.271 -22.128,7.093c-2.887,-0.511 -8.189,-0.977 -1.918,-7.639Z" style="fill:#e6c5b1;"/><path d="M1743.713,872.592c0.207,0.704 -1.063,1.328 -0.856,2.032c1.222,4.149 9.917,6.376 10.911,6.631l-1.053,2.928c-9.204,15.657 -16.342,25.008 -25.536,23.412c-0.462,-0.08 -0.394,0.177 -5.326,2.396c-3.606,-5.402 -2.478,-6.065 1.91,-10.695c12.846,-13.557 12.361,-13.838 19.951,-26.704Z" style="fill:#dca16e;"/><path d="M1282.533,1598.595c1.14,4.307 1.976,4.796 -1.482,7.614c-13.241,10.79 -9.886,14.407 -27.821,24.492c-1.927,1.084 -0.934,1.614 -1.43,2.472l0.122,2.965c-13.171,4.681 -13.121,5.224 -14.129,4.579c-1.378,-0.882 -1.71,-2.89 -3.088,-3.772c37.586,-29.915 35.128,-33.013 47.828,-38.35Z" style="fill:#bd9083;"/><path d="M1027.009,1681.474c-1.085,1.343 -2.286,2.828 -16.451,14.108c-15,11.945 -22.445,-1.216 -17.921,-9.134c1.74,-3.046 2.4,-1.794 6.1,-1.839c3.396,-0.041 0.511,-10.306 5.273,-5.441c5.016,5.124 15.525,-1.364 18.319,0.398c0.978,0.617 1.406,1.963 2.48,2.401c0.694,0.283 1.505,-0.776 2.2,-0.493Z" style="fill:#e0bda3;"/><path d="M395.938,1374.283c0.473,9.046 -1.371,13.141 5.578,29.688c-2.194,0.354 -27.032,4.367 -20.559,-18.285c4.107,-14.372 14.276,-11.245 14.981,-11.403Z" style="fill:#f4e1c2;"/><path d="M831.071,1512.901c0.579,12.206 2.742,16.507 -9.712,17.583c-16.346,1.413 -7.693,-41.421 6.133,-26.067c1.337,1.485 1.023,1.625 3.58,8.484Z" style="fill:#f9f6e6;"/><path d="M336.47,1027.669c-0.948,-0.627 -8.237,-5.453 -7.674,-11.806c0.375,-4.232 3.905,-10.281 7.814,-11.308c17.389,-4.567 24.11,26.548 -0.14,23.114Z" style="fill:#fafbf9;"/><path d="M1566.074,240.832l2.237,2.949c-0.186,0.366 -2.329,4.575 -2.329,4.575c0.433,4.801 -4.27,0.62 -7.017,4.56c-2.853,4.094 -2.804,8.731 -2.904,8.956c-0.208,0.464 -1.339,-0.005 -1.473,0.485c-0.651,2.386 1.157,2.263 0.255,4.66c-0.829,2.203 -0.571,2.09 -1.232,4.506c-0.518,-0.035 0.132,1.511 -0.386,1.476c-2.066,-0.139 -3.934,-2.531 -5.902,-1.899c-0.924,0.297 -2.105,0.676 -7.137,9.62c-3.959,7.037 -5.559,6.121 -10.447,3.916c23.582,-33.117 20.878,-35.94 36.334,-43.803Z" style="fill:#744341;"/><path d="M793.433,1231.25c-18.19,15.525 -19.699,-42.438 -0.932,-22.987c8.012,8.304 1.734,21.322 0.932,22.987Z" style="fill:#f9e0c0;"/><path d="M1297.213,995.479c1.428,-1.189 13.845,-11.528 22.951,-4.687c16.489,12.387 -32.782,29.603 -22.951,4.687Z" style="fill:#e5acb9;"/><path d="M987.542,350.965c2.182,-1.112 6.008,-4.287 11.596,-1.767c0.891,0.402 7.116,3.208 6.506,10.161c-1.331,15.182 -37.546,11.584 -18.102,-8.394Z" style="fill:#fdfcfa;"/><path d="M915.601,918.074c8.47,9.67 17.845,7.901 11.284,18.83c-0.472,0.787 -3.19,5.314 -10.775,4.371c-2.988,-0.371 -3.755,-0.794 -12.853,-11.284c4.976,-7.239 4.891,-7.194 12.344,-11.918Z" style="fill:#faeeda;"/><path d="M1558.905,273.812c4.782,2.513 9.564,5.027 14.346,7.54c14.052,7.482 18.379,8.28 29.628,21.807c-1.596,0.376 -2.056,2.855 -3.653,3.231c-0.083,0.02 -13.524,-12.331 -18.702,-15.339c-8.672,-5.038 -8.29,-5.376 -9.104,-5.657c-0.876,-0.303 -1.845,0.899 -2.721,0.597l-2.365,0.874l-2.652,3.573c-3.064,-1.379 -6.129,-2.758 -9.193,-4.138c-0.087,-1.577 2.473,-2.547 2.386,-4.124c-0.056,-1.009 -2.231,-0.595 -2.696,-1.497c-0.283,-0.549 4.312,-6.344 4.727,-6.867Z" style="fill:#9a674b;"/><path d="M699.238,1174.968l-2.991,2.78c-2.124,12.335 -0.231,13.862 -10.478,21.339c-2.621,-5.029 -3.76,-9.801 -0.589,-30.44c2.456,-15.987 11.956,3.201 14.059,6.321Z" style="fill:#f9d6da;"/><path d="M398.087,1370.267c6.976,2.366 5.982,4.091 10.75,27.422c0.537,2.345 0.146,2.202 0.655,4.42l1.938,6.891c2.679,11.612 -9.382,-4.327 -9.914,-5.029c-6.949,-16.547 -5.105,-20.641 -5.578,-29.688c0.716,-1.339 1.433,-2.678 2.149,-4.016Z" style="fill:#b99880;"/><path d="M272.009,1552.25c-0.024,-35.901 -0.286,-35.876 -0.128,-38.992c0.286,-5.652 -2.054,-8.54 3.833,-8.146c3.997,0.267 4.913,49.033 4.737,49.46c-2.244,5.428 -3.799,1.514 -8.442,-2.322Z" style="fill:#e2b977;"/><path d="M1135.116,1616.325c6.318,5.447 9.656,9.536 1.196,10.908c-3.961,0.642 -8.751,8.95 -16.434,17.574c-1.974,-3.114 -1.702,-4.6 -5.111,-3.232c-3.807,1.529 -4.421,1.629 -6.428,-1.774c-2.781,-4.715 2.634,-2.65 6.027,-6.867c0.326,-0.405 17.841,-14.08 20.749,-16.61Z" style="fill:#e0bba6;"/><path d="M1544.877,1062.143c-5.773,24.454 -31.609,-4.654 -14.183,-11.87c12.096,-5.009 14.004,10.421 14.183,11.87Z" style="fill:#fbfbfa;"/><path d="M1151.38,1179.593c10.622,-15.999 9.293,-16.873 10.648,-17.864c3.982,-2.91 8.991,25.144 5.453,35.021c-1.953,-1.722 -2.755,0.408 -4.716,-1.321c-0.417,-0.368 -0.949,-0.837 -3.521,-5.941c-2.907,-5.769 -2.881,-5.674 -7.864,-9.896Z" style="fill:#fcdfe5;"/><path d="M1201.906,1000.363l-2.145,2.345c-2.692,6.557 5.302,8.36 -0.346,12.807c-0.323,0.255 -0.335,0.184 -4.522,2.489c-12.265,2.129 -10.017,-3.52 -16.53,-13.778c12.895,-7.516 14.915,-4.886 23.544,-3.863Z" style="fill:#f8e3c8;"/><path d="M1259.077,1422.853c6.924,-8.476 9.785,-0.519 10.874,0.522c0.801,2.942 8.932,32.805 0.361,38.048c-9.385,5.74 3.344,-21.184 -11.234,-38.569Z" style="fill:#c69e8f;"/><path d="M1368.219,612.326c1.342,-0.211 2.684,-0.422 4.026,-0.632c0.403,2.096 2.352,12.231 -9.053,25.148c-1.867,2.115 -1.282,2.284 -2.666,4.751c-6.159,0.654 -6.087,0.943 -12.006,-0.642c4.751,-6.986 3.914,-7.459 19.7,-28.624Z" style="fill:#b97179;"/><path d="M1582.974,257.403c-9.277,9.681 -6.728,10.992 -9.722,23.949c-4.782,-2.513 -9.564,-5.027 -14.346,-7.54c8.169,-14.321 7.578,-19.309 24.068,-16.409Z" style="fill:#f9e5bf;"/><path d="M782.031,358.691c15.959,20.504 16.071,23.323 25.757,46.71c-1.509,-0.457 -2.468,2.975 -3.977,2.518c-2.949,-0.893 -3.826,-6.252 -3.927,-6.874c-0.229,-1.397 -0.802,-4.903 -7.385,-16.14c-12.947,-22.1 -15.563,-21.329 -14.467,-23.222c0.827,-1.428 3.172,-1.564 3.999,-2.992Z" style="fill:#99604a;"/><path d="M653.452,999.761c0.982,1.212 12.495,11.711 5.84,17.283c-11.163,9.347 -17.369,-4.713 -19.539,-7.746c5.843,-6.33 5.623,-6.584 13.699,-9.538Z" style="fill:#f9e7d1;"/><path d="M776.93,526.894c-25.192,11.247 -29.496,11.721 -42.831,15.984l-3.63,-3.187l2.148,-2.312l1.241,-1.304l2.365,-1.557l2.365,1.408c5.999,-2.064 5.656,-2.362 11.609,-3.994c9.829,-2.694 18.458,-8.609 19.136,-9.248l2.365,0.407l2.365,-0.036l2.868,3.838Z" style="fill:#94583d;"/><path d="M266.593,857.024c-14.01,14.211 -23.488,-10.58 -8.225,-13.277c1.25,-0.221 15.916,-2.812 8.225,13.277Z" style="fill:#fbfbf7;"/><path d="M1072.519,1209.925c0.412,1.944 4.592,21.689 -7.478,23.711c-6.819,1.142 -9.351,-10.767 -9.604,-11.958c1.465,-0.657 16.237,-7.287 17.729,-9.354c0.488,-0.676 -1.135,-1.724 -0.647,-2.399Z" style="fill:#f3c09f;"/><path d="M767.323,393.958c1.944,19.171 -16.664,13.21 -15.389,0.017c0.064,-0.663 0.552,-5.712 5.76,-6.136c6.41,-0.522 6.199,0.721 9.629,6.119Z" style="fill:#fef7fb;"/><path d="M1715.568,538.206c-20.152,5.816 -20,5.717 -40.149,11.837l-0.294,-3.749c3.152,-1.622 2.858,-1.868 3.518,-3.55c0.844,-2.149 26.034,-7.187 29.592,-7.463c4.391,-1.051 4.449,-1.396 4.73,-1.132c1.178,1.106 1.426,2.951 2.604,4.057Z" style="fill:#613b38;"/><path d="M1038.54,1301.702c3.831,-0.771 3.539,-1.293 7.485,-1.506c11.79,-0.634 39.176,-11.431 39.443,-4.976c0.008,0.183 -14.321,5.008 -15.572,5.429c-2.503,0.843 -2.347,-1.755 -4.826,-0.733c-1.661,0.685 -0.642,2.244 -4.813,2.848c-10.983,1.591 -10.854,1.474 -11.79,1.653c-3.641,0.698 -3.305,2.481 -6.983,1.474c-2.778,-0.76 -0.174,-3.433 -2.944,-4.191Z" style="fill:#e8b285;"/><path d="M1450.135,1390.996c-0.201,1.984 -1.682,16.59 -11.671,22.156c-0.528,0.294 -12.355,5.564 -4.063,-6.276c6.638,-9.751 3.874,-13.415 15.734,-15.879Z" style="fill:#c49f8d;"/><path d="M853.802,1540.278c4.267,5.328 3.35,5.557 3.84,7.674c0.835,3.602 3.743,2.438 3.352,6.128c-0.711,6.703 2.022,5.758 2.73,7.423c0.286,0.672 0.119,4.726 -9.3,-0.226c-9.223,-4.85 -4.798,-12.692 -0.622,-20.998Z" style="fill:#ecd3ba;"/><path d="M1681.555,438.59l3.028,-3.959l2.365,1.668l3.099,1.674c9.326,12.019 12.84,16.453 10.433,23.118l-2.329,2.549c-3.687,-7.531 -3.407,-7.503 -7.965,-14.615c-4.226,-5.447 -4.009,-5.391 -8.631,-10.434Z" style="fill:#9e6556;"/><path d="M582.142,296.786c1.396,9.521 -1.633,9.202 -1.993,18.66c-0.071,1.862 1.315,1.642 3.786,22.999c-2.9,0.041 -3.793,1.152 -4.452,-1.738c-4.485,-19.643 -3.912,-19.782 -0.423,-39.755l3.082,-0.166Z" style="fill:#985d54;"/><path d="M1072.519,1209.925c-0.488,0.676 1.135,1.724 0.647,2.399c-1.493,2.067 -16.265,8.696 -17.729,9.354c0.78,-16.271 9.841,-22.267 17.082,-11.753Z" style="fill:#fad8b1;"/><path d="M710.248,514.26c-3.698,17.853 -19.933,1.021 -11.296,-6.344c8.651,-7.377 11.103,5.343 11.296,6.344Z" style="fill:#fdf9f8;"/><path d="M785.408,441.483c-5.183,6.35 -4.732,9.652 -7.915,7.081c-7.85,-6.341 9.183,-26.802 11.466,-15.567c1.04,5.117 0.354,5.151 -3.551,8.487Z" style="fill:#fce8ec;"/><path d="M1578.512,1480.676c6.269,7.646 5.396,8.017 7.817,17.539c-1.377,1.837 -2.754,3.674 -4.131,5.511c-6.396,-11.891 -5.106,-13.014 -10.945,-16.161c1.972,-4.891 2.1,-4.853 7.259,-6.889Z" style="fill:#dfb27a;"/><path d="M945.012,1824.785c-1.054,11.048 -2.911,10.71 -3.131,21.91c-2.312,-0.028 -4.623,-0.057 -6.935,-0.085c-0.136,-6.141 -0.887,-6.101 0.856,-11.985c2.363,-7.979 1.033,-12.265 9.209,-9.839Z" style="fill:#d5a466;"/><path d="M1578.274,900.52c1.038,-0.097 10.127,-0.943 9.187,9.043c-1.131,12.017 -19.475,2.437 -9.187,-9.043Z" style="fill:#f9f8f5;"/><path d="M397.963,1217.052c3.464,-16.267 16.943,-1.437 13.317,4.067c-5.241,7.955 -12.704,-3.155 -13.317,-4.067Z" style="fill:#faf5f1;"/><path d="M986.126,751.605c7.989,-12.973 16.94,-35.402 20.308,-29.32c0.53,0.956 0.04,0.955 -5.269,9.257c-3.448,5.391 -1.409,6.147 -4.818,11.59c-5.544,8.851 -6.066,8.954 -6.981,9.134c-1.081,0.213 -2.158,-0.874 -3.239,-0.661Z" style="fill:#894949;"/><path d="M1032.992,1521.503c-0.456,0.302 -5.698,3.779 -5.698,3.779c-3.729,-1.045 -3.86,-1.597 -4.829,-0.686c-2.901,2.727 -3.285,1.707 -7.181,2.372l-2.384,-0.457c0.695,-1.472 10.087,-21.355 20.092,-5.008Z" style="fill:#e7d4b6;"/><path d="M1452.724,1390.622c-0.712,-0.936 -9.376,-12.331 2.406,-14.39c6.751,-1.18 12.81,6.203 -2.406,14.39Z" style="fill:#ebdabf;"/><path d="M1126.345,1691.594c-0.755,-1.264 -1.509,-2.528 -2.264,-3.792c2.387,-0.695 2.108,-1.223 4.733,-1.377c1.949,-0.114 20.201,-6.224 21.375,-5.406c5.837,4.064 -4.242,5.263 -4.821,5.332c-9.952,1.184 -9.154,3.858 -19.023,5.244Z" style="fill:#884e45;"/><path d="M637.998,491.738c8.118,7.228 11.041,2.785 18.428,10.585c-2.994,1.416 -1.293,3.087 -4.177,4.451c-1.459,0.69 0.231,-0.82 -0.66,-2.164c-1.357,-2.046 -7.266,-5.25 -9.59,-5.24c-2.792,0.011 -2.188,-1.443 -4.88,-1.717c-1.128,-0.115 -1.936,1.313 -3.061,1.452c-6.89,0.853 3.402,-6.959 3.94,-7.367Z" style="fill:#d48297;"/><path d="M1707.276,917.096c1.639,0.098 1.684,-3.652 3.323,-3.553c0.978,0.059 -0.279,1.805 9.4,7.666c0.392,0.237 3.321,2.011 4.79,3.126l2.365,0.674l2.38,4.218c-12.202,-1.654 -13.746,-1.463 -22.258,-12.132Z" style="fill:#694640;"/><path d="M1520.539,1522.274c0.505,-2.442 5.664,-27.415 7.766,-30.205c0.779,-1.034 2.79,1.084 3.149,2.32c0.173,0.597 -2.971,10.473 -3.22,11.595c-2.035,9.17 -0.96,9.796 -7.695,16.29Z" style="fill:#965a4f;"/><path d="M604.458,499.652c0.5,1.24 2.147,1.81 2.647,3.051c1.949,4.835 -10.907,13.361 -12.671,4.592c-1.893,-9.41 9.019,-7.792 10.025,-7.643Z" style="fill:#fcf5dd;"/><path d="M751.824,370.329c5.716,-5.3 9.006,-4.449 10.045,3.046c1.299,9.375 -12.627,9.339 -10.045,-3.046Z" style="fill:#fce4e7;"/><path d="M765.066,293.853l4.335,2.873c-3.817,6.284 -2.682,6.793 -7.762,12.056c-2.141,-1.485 -4.281,-2.97 -6.422,-4.455c4.324,-5.964 3.747,-6.325 9.85,-10.474Z" style="fill:#d6b0aa;"/><path d="M596.664,361.42c16.249,-0.65 8.205,11.209 2.253,10.46c-11.171,-1.405 -4.421,-7.212 -3.895,-7.665c0.198,-0.17 0,0 1.642,-2.796Z" style="fill:#f9e5a7;"/><path d="M1225.045,1441.936c11.913,7.505 3.213,9.586 2.405,9.592c-0.481,0.004 -4.321,-4.191 -6.232,-3.985c-1.88,0.203 -3.868,2.348 -5.492,1.399c-1.183,-0.692 2.245,-1.738 2.811,-2.967c0.421,-0.913 -0.678,-2.205 -0.06,-3.003c0.321,-0.415 0.539,0.383 6.568,-1.035Z" style="fill:#e4c9b1;"/><path d="M634.549,565.104c14.314,2.225 10.119,8.459 10.168,11.302c-1.853,0.045 -3.705,0.089 -5.558,0.134c0.483,-4.327 1.99,-5.747 -2.274,-6.832c-0.807,-0.206 -1.692,0.083 -2.499,-0.123c0.054,-1.494 0.108,-2.988 0.163,-4.481Z" style="fill:#ccafac;"/><path d="M305.777,1389.941c8.047,-15.629 7.901,5.067 7.413,5.25c-5.323,1.987 -4.882,-0.422 -7.413,-5.25Z" style="fill:#96554b;"/><path d="M649.198,558.524c5.266,-6.819 13.354,-1.201 6.737,4.407l-2.438,0.066l-1.352,-0.782c-0.982,-1.231 -1.965,-2.461 -2.947,-3.692Z" style="fill:#fce3c9;"/><path d="M1530.868,671.487c-0.162,-0.41 -4.561,-0.332 -1.899,-4.815c0.925,-1.558 8.715,-10.435 9.451,-4.24c0.11,0.928 0.125,1.053 -7.551,9.055Z" style="fill:#914e4d;"/><path d="M793.609,449.139c3.464,-3.88 3.277,-6.314 6.271,-4.062c4.261,3.204 -0.482,13.934 -6.271,4.062Z" style="fill:#fbdee1;"/><path d="M634.387,569.586c0.807,0.206 1.692,-0.083 2.499,0.123c4.263,1.086 2.757,2.505 2.274,6.832c-3.129,-0.146 -11.576,1.64 -4.773,-6.955Z" style="fill:#faefee;"/><path d="M793.47,481.099c-1.284,-1.469 -3.289,-2.373 -0.838,-6.432c2.663,-4.411 10.793,7.008 0.838,6.432Z" style="fill:#fbd1d6;"/><path d="M795.42,331.497c-0.363,-0.484 -12.342,-16.439 0.082,-7.498c4.713,3.392 1.896,4.748 -0.082,7.498Z" style="fill:#a66a67;"/><path d="M282.406,1418.226c1.819,-8.631 1.396,-8.609 1.714,-9.297l2.754,-1.071l0.873,3.383l-0.356,2.312l-2.047,2.312l-2.939,2.362Z" style="fill:#edcd88;"/><path d="M1821.312,907.428c-3.121,9.501 -5.645,7.603 -6.039,6.981c-0.56,-0.883 1.103,-4.741 1.271,-5.13c1.123,-2.605 1.815,-1.587 4.769,-1.851Z" style="fill:#945c55;"/><path d="M1599.129,1300.651l2.343,-0.755l2.702,3.245c-1.066,0.389 -3.876,4.619 -5.045,-2.49Z" style="fill:#d5a47e;"/><path d="M1377.205,1554.479c3.57,3.159 4.006,3.027 3.843,3.4c-0.163,0.373 -5.747,5.519 -3.843,-3.4Z" style="fill:#e0bca2;"/><path d="M1178.471,1228.989c-4.719,0.041 -5.149,0.435 -5.076,0.044c0.302,-1.623 1.675,-3.685 3.363,-3.7c1.371,-0.012 0.342,3.667 1.713,3.655Z" style="fill:#fbe1e8;"/><path d="M1589.988,847.071l-2.368,2.432l-3.383,-0.03c1.101,-0.795 -0.021,-1.344 1.018,-2.094c0,-0 4.355,-0.283 4.733,-0.307Z" style="fill:#8f5950;"/><path d="M913.601,1852.947c0.061,-0.061 -0.356,-2.453 2.463,-2.475c6.129,-0.047 0.17,3.094 -0.062,3.216c-0.739,0.389 -1.662,-1.131 -2.401,-0.741Z" style="fill:#895046;"/><path d="M284.495,1392.816c-3.992,-0.859 -4.05,-0.695 -4.311,-0.927c-1.478,-1.316 0.668,-0.692 1.96,-2.03l2.35,2.957Z" style="fill:#894c43;"/><path d="M1822.786,893.286c-0.025,0.142 0.306,0.193 0.281,0.335c-0.728,4.229 -0.796,4.273 -1.11,4.477c-1.881,1.225 -0.182,-3.636 -2.095,-2.39l2.923,-2.422Z" style="fill:#7a3e3a;"/><path d="M279.021,671.08c-0.129,0.305 -1.607,3.809 -1.607,3.809c-0.846,-0.014 -0.848,-1.834 -1.694,-1.848l3.301,-1.961Z" style="fill:#d896a0;"/><path d="M578.438,673.356c1.193,0.02 2.386,0.04 3.578,0.06c-1.193,1.511 -0.117,3.461 -1.884,2.385c-0.855,-0.521 -0.84,-1.924 -1.695,-2.445Z" style="fill:#deaa9d;"/><path d="M1006.037,1642.839c1.542,-1.984 0.188,-4.677 2.352,-3.026c2.145,1.636 -0.808,1.04 -2.352,3.026Z" style="fill:#9f6855;"/><path d="M1229.508,650.763c0.582,-3.122 -2.301,-5.284 0.872,-4.676c3.175,0.608 -0.3,1.61 -0.872,4.676Z" style="fill:#edb6be;"/><path d="M265.948,1584.693c-1.008,1.122 0.388,3.316 -0.619,4.438c-2.724,3.034 -2.132,-1.207 -2.105,-1.405c0.312,-2.237 2.412,-0.799 2.724,-3.034Z" style="fill:#f2c68b;"/><path d="M1176.636,1113.254c-1.023,0.959 0.091,3.097 -0.933,4.056c-2.89,2.708 -2,-1.166 -1.958,-1.348c0.494,-2.149 2.403,-0.59 2.89,-2.708Z" style="fill:#a46769;"/><path d="M991.367,849.048c-1.884,2.258 -0.99,5.634 -2.629,3.152c0,0 2.419,-2.9 2.629,-3.152Z" style="fill:#a57176;"/><path d="M615.587,1404.337c-3.757,1.96 -4.055,2.468 -4.044,2.11c0.055,-1.818 0.515,-2.058 0.677,-2.142c1.727,-0.901 1.746,0.878 3.367,0.033Z" style="fill:#e9ceb7;"/><path d="M1227.933,803.011c-2.813,2.036 -4.314,5.814 -3.506,2.537c0,0 3.225,-2.334 3.506,-2.537Z" style="fill:#ef9fb4;"/><path d="M979.836,1825.039c-0.599,-2.963 -3.871,-4.474 -0.834,-4.128c0,0 0.767,3.797 0.834,4.128Z" style="fill:#dcac76;"/><path d="M655.832,366.319c-1.5,1.572 0.655,2.243 -0.825,3.795c-0.112,0.117 -2.384,2.498 -1.558,-1.297c0.242,-1.114 2.141,-1.384 2.384,-2.498Z" style="fill:#f0d498;"/><path d="M661.088,518.727c0.14,0.325 0.164,0.284 2.211,3.846c-0.737,-1.282 -1.474,-2.564 -2.211,-3.846Z" style="fill:#eea0b1;"/><path d="M725.826,1201.076l0.052,4.548c-0.566,-2.409 -0.335,-2.208 -0.052,-4.548Z" style="fill:#f3afb9;"/><path d="M408.797,1421.838c-0.58,-2.714 -0.69,-2.52 -0.58,-2.714c1.174,-2.065 0.117,0.549 0.58,2.714Z" style="fill:#e4c9b1;"/></g></svg>