<?xml version="1.0" encoding="UTF-8" standalone="no"?><!DOCTYPE svg PUBLIC "-//W3C//DTD SVG 1.1//EN" "http://www.w3.org/Graphics/SVG/1.1/DTD/svg11.dtd"><svg width="100%" height="100%" viewBox="0 0 1024 1024" version="1.1" xmlns="http://www.w3.org/2000/svg" xmlns:xlink="http://www.w3.org/1999/xlink" xml:space="preserve" xmlns:serif="http://www.serif.com/" style="fill-rule:evenodd;clip-rule:evenodd;stroke-linejoin:round;stroke-miterlimit:2;"><g id="Background"><path d="M260.441,611.349c0.402,-0.145 0.798,-0.306 1.2,-0.451c10.981,-3.966 10.965,-3.9 11.917,-4.246c14.352,-5.211 14.702,-3.839 24.87,-7.351c5.381,-1.859 -12.371,-24.153 -14.446,-27.135c-19.321,-27.767 -1.017,-47.787 -4.025,-61.771c-1.225,-5.695 -12.178,-56.62 -16.169,-70.992c-0.795,-2.865 -1.879,-1.784 -8.356,-3.664c-16.401,-4.761 -29.537,-24.664 -19.692,-44.133c17.803,-35.206 77.154,-14.312 56.754,30.891c-1.001,2.219 -1.132,3.321 20.418,22.567c20.398,18.217 22.475,22.512 24.444,21.998c2.951,-0.771 14.392,-57.947 14.707,-59.641c1.816,-9.758 -11.724,-6.183 -15.785,-23.876c-7.561,-32.94 39.18,-44.619 49.784,-17.848c5.806,14.657 -3.018,28.162 -3.213,28.899c-1.486,5.624 39.093,53.19 43.884,57.556c1.486,1.354 3.625,-3.194 5.356,-6.869c26.417,-56.083 27.432,-55.482 36.163,-74.902c3.009,-6.693 0.619,-6.92 -4.561,-12.075c-1.001,-0.997 -6.803,-6.772 -7.746,-15.87c-5.284,-51.005 67.432,-50.764 67.875,-6.939c0.168,16.615 -8.805,23.804 -13.353,27.966c-2.462,2.254 -1.689,3.384 24.451,56.82c1.252,2.559 14.392,29.42 15.97,31.828c0.688,1.049 1.042,-0.001 11.171,-11.006c14.748,-16.023 32.655,-40.921 34.147,-43.743c1.538,-2.91 -7.002,-12.151 -4.834,-24.883c5.085,-29.862 45.714,-26.519 51.647,-2.859c5.609,22.368 -15.04,31.916 -15.424,32.917c-1.119,2.918 4.055,27.802 7.248,40.875c5.708,23.37 5.821,24.901 7.6,23.963c0.178,-0.094 33.144,-30.453 41.895,-39.028c6.801,-6.664 0.412,-7.815 -1.359,-17.926c-2.811,-16.043 8.216,-27.221 10.483,-28.966c29.06,-22.369 62.168,8.108 50.823,34.958c-7.309,17.298 -22.398,20.064 -26.59,21.521c-4.673,1.624 -2.996,7.581 -16.939,65.618c-3.02,12.568 -0.871,12.619 1.897,32.926c4.281,31.412 -12.225,37.177 -21.79,55.206c-3.276,6.176 -1.515,24.643 -1.445,24.855c0.904,2.741 33.198,11.125 71.976,49.068c15.146,14.82 16.341,21.899 21.291,24.564c5.249,2.827 7.234,-1.899 18.434,6.806c16.717,12.993 4.483,25.811 6.696,30.392c2.693,5.574 4.441,4.623 13.85,26.061c17.175,47.652 -3.982,52.391 -15.107,56.24c-7.274,1.869 -7.157,2.517 -12.061,2.396c-22.976,-0.565 -28.786,-4.838 -29.369,-19.553c-1.48,-37.352 8.64,-53.229 11.144,-57.158c0.455,-1.781 0.519,-1.767 0.491,-1.923c-1.31,-7.476 -11.182,13.833 -36.853,36.523c-6.424,5.678 -6.723,5.208 -13.238,10.758c-31.946,27.217 -58.239,33.385 -89.163,44.81c-12.637,4.669 -12.337,5.162 -25.001,9.993c-9.44,4.015 -19.364,7.229 -21.074,7.783c-19.841,6.425 -25.615,7.96 -27.869,8.559c-43.14,10.719 -52.663,9.789 -56.083,10.565c-3.228,0.733 -0.312,2.715 4.533,24.15c6.576,29.096 -1.911,36.137 -5.444,37.162c-10.667,3.092 -25.655,15.443 -53.878,-0.559c-1.536,-0.871 -9.224,-5.23 -7.789,-20.653c2.561,-27.525 7.262,-35.936 7.882,-37.946c1.473,-4.775 -3.685,0.834 -61.374,-11.607c-3.28,-0.776 -13.798,-2.185 -53.003,-16.133c-8.187,-2.864 -8.196,-2.554 -15.989,-6.137c-8.992,-4.134 -21.882,-7.522 -43.096,-15.71c-8.169,-3.034 -54,-20.057 -89.998,-61.37c-0.829,-1.196 -16.195,-19.817 -17.844,-19.996c-3.84,-0.418 0.503,2.077 6.388,24.77c6.177,25.314 3.155,36.58 2.433,40.065c-2.528,12.196 -7.656,10.597 -17.879,12.708c-17.944,3.706 -36.506,-5.167 -42.503,-14.922c-4.471,-7.273 -0.206,-29.503 1.538,-34.76c5.702,-17.183 6.069,-16.984 15.647,-32.298c4.667,-7.461 -10.92,-16.411 8.759,-33.288c10.104,-8.665 14.463,-1.446 20.226,-8.628c5.199,-7.089 32.946,-44.923 86.321,-67.992c8.891,-4.355 8.883,-4.129 18.033,-7.93Z" style="fill:#8e5c4c;"/><path d="M476.74,379.623c4.474,-9.305 10.113,-17.488 1.455,-23.685c-1.84,-1.317 -15.982,-11.437 -9.875,-26.507c11.57,-28.552 50.562,-10.71 43.511,12.171c-5.101,16.553 -18.696,14.45 -14.302,26.889c1.43,4.05 6.473,18.324 22.263,48.851c31.626,61.142 48.508,101.481 69.701,101.832c7.288,0.121 22.844,-11.393 25.226,-13.441c11.554,-9.93 23.175,-17.958 27.741,-22.281c29.823,-28.239 30.135,-27.837 32.6,-30.414c18.422,-19.259 24.905,-21.152 23.223,-32.476c-2.766,-6.97 -6.668,-14.01 -3.298,-21.85c10.027,-23.327 41.016,-13.378 40.065,7.782c-0.83,18.448 -25.249,21.253 -26.643,21.768c-7.341,2.707 -12.578,55.718 -21.314,80.053c-2.467,6.873 -23.751,25.432 -25.123,48.213c-0.601,9.984 4.127,27.813 4.829,29.85c3.528,10.243 2.07,23.665 -69.235,39.283c-58.752,13.125 -115.205,10.655 -118.064,10.64c-75.241,-0.416 -167.41,-22.713 -169.379,-43.753c-1.657,-17.708 20.676,-31.983 -8.211,-71.355c-11.32,-15.428 -11.439,-15.747 -18.77,-50.63c0.316,-0.494 -0.452,-0.501 -0.136,-0.995c0.514,-0.804 1.041,-0.176 1.456,-1.068c1.155,-2.484 -2.329,-5.291 3.922,-7.842c-1.207,-1.272 -1.122,-1.401 -0.479,-3.111c0.718,-1.91 0.261,-1.982 0.342,-2.135c0.238,-0.455 0.988,-0.342 1.394,-0.656c0.925,-0.716 0.887,-0.606 1.862,-1.27c0.606,0.03 1.212,0.06 1.818,0.09c1.652,5.8 10.823,12.737 12.558,14.522c8.568,8.817 54.574,50.067 66.771,54.997c12.088,4.885 21.882,7.884 34.517,-3.017c25.611,-22.095 41.654,-60.068 43.971,-64.742c15.942,-32.155 16.593,-31.792 17.715,-34.7c6.127,-15.869 11.83,-25.742 14.398,-35.17c1.724,-6.329 -3.792,-5.098 -6.51,-5.841Z" style="fill:#f8c1bc;"/><path d="M299.505,606.801c3.825,6.699 -6.862,17.199 10.066,35.648c-1.496,0.687 -1.457,1.313 -3.004,0.616c-5.76,-2.591 -18.267,2.192 -19.758,2.763c-0.523,0.448 -6.496,4.579 1.699,5.383c1.213,1.171 0.785,2.483 2.992,1.755c0.227,-0.075 28.094,4.111 33.274,13.22c1.958,3.444 5.167,4.732 0.057,16.493c-1.511,3.478 3.244,1.701 6.68,1.519c39.482,-2.084 48.777,-1.382 53.007,-1.063c19.054,1.439 19.165,-0.303 37.937,3.578c15.953,3.298 16.462,1.442 31.217,8.429c18.976,8.985 35.873,1.358 38.694,0.084c1.151,-0.519 20.03,-6.971 37.181,-8.232c29.858,-2.195 47.75,6.117 49.953,5.615c0.54,-0.123 0.531,-1.146 1.07,-1.269c4.019,1.922 7.405,4.099 7.674,-0.788c1.848,-1.13 9.143,-7.931 26.4,-14.593c30.356,-11.718 65.608,-8.32 69.717,-12.569c5.549,-5.737 -12.417,-8.064 -4.628,-11.412c11.699,-5.028 12.389,-2.866 23.947,-8.123c1.087,-0.494 1.67,-0.674 1.82,-0.72c1.193,-0.368 0.88,-0.681 1.886,-1.459c5.799,3.938 19.787,12.589 30.31,22.628c19.115,18.237 31.902,32.379 24.659,39.006c-13.826,12.652 -52.866,18.237 -104.771,29.637c-4.432,1.117 -36.206,6.558 -93.856,37.964c-5.001,2.724 -45.644,24.866 -64.118,30.922c-18.906,6.198 -19.536,1.598 -39.167,4.339c-19.217,2.683 -69.442,-25.083 -117.637,-48.154c-6.509,-3.593 -39.643,-17.693 -80.269,-26.851c-23.962,-5.964 -104.045,-14.989 -101.321,-34.712c0.358,-2.589 7.353,-11.859 7.364,-11.871c22.841,-23.984 44.641,-48.135 112.035,-71.774c9.427,-3.071 9.356,-3.054 18.89,-6.009Z" style="fill:#faeace;"/><path d="M180.549,742.463c-0.947,-0.992 -12.815,-12.359 -3.947,-8.278c1.041,0.479 0.295,3.51 76.991,16.939c52.182,12.091 69.949,21.883 101.778,37.658c15.794,7.828 49.954,28.905 85.054,37.029c7.895,1.827 3.878,5.704 8.213,12.604c2.721,4.331 4.256,4.96 -0.455,13.91c-1.484,2.819 -2.501,4.236 -39.756,-2.368c-41.522,-7.361 -41.44,-8.105 -137.082,-43.061c-34.271,-12.526 -56.329,-31.333 -67.374,-40.756c-10.748,-10.467 -21.578,-21.755 -23.423,-23.678Z" style="fill:#ddb99e;"/><path d="M720.389,742.122c3.428,3.613 4.172,1.754 9.133,1.99c2.886,0.137 6.499,0.148 7.059,1.312c0.534,1.113 0.779,1.168 0.079,2.145c-1.685,2.353 0.116,2.19 1.155,3.286c-9.6,8.904 -9.062,9.411 -19.302,17.658c-29.251,23.995 -43.681,29.805 -50.02,32.968c-10.791,4.679 -13.717,5.741 -14.932,6.183c-29.653,10.769 -29.353,11.5 -32.011,12.161c0.189,-0.506 -0.238,-1.114 -0.049,-1.621c0.107,-0.286 0.193,-0.233 6.747,-3.933c3.268,-1.845 14.409,-12.371 14.186,-13.751c-0.541,-3.337 -8.249,3.574 -8.829,4.094c-15.552,13.944 -15.871,13.552 -17.105,14.882c-7.309,2.695 -6.828,3.644 -18.156,8.569c-30.545,12.729 -59.413,20.022 -89.784,24.833c-13.222,2.094 -14.67,3.633 -18.932,-2.475c-0.244,-0.422 -3.103,-4.218 -2.35,-6.98c1.046,-3.837 3.757,-5.4 4.649,-11.901c0.702,-5.116 2.054,-4.686 11.486,-7.314c0.529,0.318 1.124,-0.66 2.12,1.274c1.745,3.39 3.753,-0.638 4.569,-0.663c0.226,-0.007 0.158,0.562 0.384,0.558c0.729,-0.012 1.394,-0.437 2.104,-0.601c5.579,-1.287 11.479,1.267 12.871,-2.251c-5.243,-0.932 -5.851,0.951 -10.031,-2.326c22.192,-8.312 28.464,-13.416 45.73,-22.161c2.883,1.937 3.085,1.296 6.431,0.6c2.603,-0.541 0.115,-1.376 -1.288,-3.632c11.993,-6.477 11.786,-6.739 23.955,-12.977c0.685,0.277 0.559,1.557 1.243,1.834c0.147,0.059 0.044,-0.637 1.964,-0.275c0.402,0.076 3.446,0.649 5.11,0.013c2.448,-0.936 0.234,-1.571 -2.302,-4.568c27.251,-13.328 41.959,-17.975 60.283,-23.187c37.025,-9.718 37.523,-7.093 63.834,-13.741Z" style="fill:#ddb79d;"/><path d="M644.469,623.418c19.676,-8.136 22.067,-11.826 22.983,-6.905c1.523,8.187 -6.008,21.4 -25.033,28.771c-121.415,47.042 -304.013,15.119 -326.853,-13.836c-6.918,-8.77 -5.072,-19.068 -2.029,-18.067c16.396,5.396 14.216,12.549 87.028,26.793c37.118,7.261 99.03,8.348 119.956,6.626c16.575,-1.364 16.54,-1.005 33.009,-2.884c35.366,-4.646 65.318,-10.854 90.938,-20.498Z" style="fill:#f2ca8d;"/><path d="M517.138,585.289c-18.887,28.762 -19.408,29.139 -21.861,30.915c-5.388,3.9 -10.746,-0.53 -11.456,-1.116c-0.096,-0.079 -37.812,-45.626 -35.325,-60.588c1.714,-10.312 31.649,-63.39 39.977,-65.144c5.578,-1.175 11.112,4.609 35.483,47.857c9.791,17.375 11.232,21.439 -6.818,48.076Z" style="fill:#9f6156;"/><path d="M584.342,432.369c22.589,-29.201 26.49,-33.11 21.454,-43.039c-15.655,-30.869 24.135,-35.098 26.688,-15.828c2.275,17.173 -10.267,17.359 -14.858,22.126c-8.126,8.439 14.525,78.164 13.009,81.933c-1.315,3.267 -28.587,23.199 -33.407,26.499c-10.141,6.943 -15.749,5.006 -38.259,-36.783c-3.43,-6.367 3.673,-7.646 25.373,-34.908Z" style="fill:#e79292;"/><path d="M361.304,420.462c0.238,-1.197 2.576,-12.966 2.757,-15c1.343,-15.096 -10.773,-9.752 -16.101,-21.122c-8.36,-17.839 15.64,-30.727 25.193,-18.554c11.05,14.08 -4.712,21.58 -0.948,33.811c2.98,9.683 29.595,42.117 33.686,46.542c13.251,14.334 13.379,14.176 14.487,15.459c1.459,1.689 2.388,2.432 -4.336,14.634c-16.472,29.891 -22.392,30.51 -25.581,30.843c-6.204,0.648 -32.002,-21.033 -34.361,-23.143c-5.711,-5.11 -9.721,-4.009 -7.484,-11.403c6.598,-21.81 5.93,-21.886 12.688,-52.067Z" style="fill:#e69698;"/><path d="M532.807,204.59c-9.171,26.797 -37.597,50.004 -41.381,49.183c-0.602,-0.131 -22.408,-16.316 -33.484,-32.561c-28.087,-41.194 11.848,-59.371 31.127,-33.34c4.902,6.619 4.465,-1.685 10.848,-6.89c17.733,-14.46 39.572,-5.263 32.889,23.608Z" style="fill:#b27b7a;"/><path d="M476.74,379.623c2.718,0.743 8.234,-0.488 6.51,5.841c-2.568,9.428 -8.271,19.301 -14.398,35.17c-1.123,2.908 -1.774,2.545 -17.715,34.7c-2.317,4.674 -18.36,42.647 -43.971,64.742c-12.635,10.901 -22.429,7.902 -34.517,3.017c-12.197,-4.929 -58.203,-46.179 -66.771,-54.997c-1.735,-1.786 -10.906,-8.722 -12.558,-14.522c-0.21,-0.426 0.013,-0.435 -0.193,-0.853c-0.521,-1.06 -0.549,0.258 -1.625,0.763c-0.974,0.665 -0.937,0.554 -1.862,1.27c-0.406,0.314 -1.156,0.201 -1.394,0.656c-0.08,0.153 0.376,0.225 -0.342,2.135c-0.643,1.711 -0.728,1.84 0.479,3.111c-6.251,2.551 -2.767,5.358 -3.922,7.842c-0.415,0.893 -0.941,0.264 -1.456,1.068c-0.316,0.494 0.452,0.501 0.136,0.995c-0.583,-2.651 -4.604,-20.921 -7.6,-33.073c-3.041,-12.336 -7.112,-10.161 -11.99,-11.246c-14.576,-3.243 -27.548,-17.09 -13.283,-34.958c0.275,0.48 1.269,-0.08 1.268,2.214c-0.006,14.046 13.389,9.61 14.836,3.973c2.065,-8.044 -8.705,-8.53 -8.872,-8.645c-0.92,-0.638 -0.202,-1.144 -1.124,-1.803c-0.497,-0.355 -0.444,0.682 -0.929,0.336c1.94,-0.669 17.856,-6.161 25.143,5.081c12.37,19.083 -3.74,24.985 0.909,37.059c2.405,6.245 70.278,69.189 95.239,84.645c24.961,15.456 36.279,1.022 100.001,-134.522Z" style="fill:#fbdbbb;"/><path d="M317.458,649.629c7.186,1.476 30.646,20.506 136.011,30.263c33.764,3.127 86.108,-1.669 96.019,-1.036c16.34,4.241 16.371,4.174 31.083,12.484c-0.54,0.123 -0.531,1.146 -1.07,1.269c-2.203,0.503 -20.095,-7.81 -49.953,-5.615c-17.151,1.261 -36.03,7.713 -37.181,8.232c-2.821,1.274 -19.719,8.901 -38.694,-0.084c-14.755,-6.987 -15.264,-5.131 -31.217,-8.429c-18.772,-3.881 -18.883,-2.139 -37.937,-3.578c-4.229,-0.319 -13.524,-1.021 -53.007,1.063c-3.435,0.181 -8.191,1.959 -6.68,-1.519c5.11,-11.761 1.901,-13.049 -0.057,-16.493c-5.181,-9.109 -33.048,-13.295 -33.274,-13.22c-2.207,0.728 -1.78,-0.584 -2.992,-1.755c3.675,-0.767 3.651,-0.764 3.969,-0.828c12.654,-2.54 12.789,0.378 24.981,-0.754Z" style="fill:#f1d5bf;"/><path d="M526.882,202.59c-8.244,24.963 -33.296,44.324 -35.333,43.775c-0.055,-0.015 -13.433,-10.036 -24.479,-23.523c-4.174,-5.097 -13.047,-14.65 -12.261,-28.314c0.704,-12.239 18.97,-22.042 34.283,3.225c5.561,9.176 10.913,-20.536 29.4,-17.172c12.559,2.285 8.779,20.166 8.389,22.01Z" style="fill:#f4a5ad;"/><path d="M244.24,771.783c-2.094,-1.765 -2.116,-1.585 -4.528,-2.598c-1.021,-0.429 -3.211,-6.592 1.728,-6.306c19.36,1.121 19.112,2.332 38.023,6.824c17.224,4.091 16.752,5.415 28.029,8.819c29.554,8.919 85.405,45.935 85.402,47.956c-0.003,2.255 -8.18,0.571 -14.366,-0.3c-14.702,-2.069 -14.471,-2.844 -29.07,-5.302c-30.03,-5.055 -48.882,-29.929 -59.984,-27.541c-21.531,4.631 -23.34,-0.503 -45.235,-21.552Z" style="fill:#e8cea6;"/><path d="M185.335,720.931c60.276,17.908 91.134,9.144 178.03,53.862c57.917,29.806 63.151,29.395 87.134,36.71c1.596,0.487 -0.435,9.518 -8.021,8.172c-35.051,-6.22 -72.89,-34.724 -124.803,-55.596c-74.551,-29.975 -126.712,-23.686 -156.913,-43.926c-9.32,-6.246 -10.916,-19.982 -1.595,-13.223c7.884,5.716 10.188,8.182 26.169,14.002Z" style="fill:#e3b889;"/><path d="M294.182,237.425c-1.654,6.215 -0.931,7.529 -11.639,29.099c-1.015,2.045 -3.582,7.215 -27.786,-6.491c-40.906,-23.165 -23.546,-55.433 1.627,-42.312c2.902,1.513 6.126,5.341 6.885,2.699c0.606,-2.109 6.426,-22.379 21.106,-17.525c6.95,2.298 9.397,10.134 9.979,11.653c2.595,6.77 0.137,21.073 -0.173,22.877Z" style="fill:#ad7f7d;"/><path d="M676.553,734.82c22.164,-5.04 68.22,-10.998 89.569,-26.803c10.264,-7.599 5.792,6.095 2.167,9.255c-22.37,19.501 -68.259,18.239 -121.934,34.792c-69.886,21.553 -97.175,49.814 -132.963,62.154c-19.28,6.648 -21.645,6.091 -25.596,1.066c-5.109,-6.497 3.735,-2.636 27.946,-13.311c60.807,-26.812 79.574,-50.189 160.812,-67.153Z" style="fill:#e0b383;"/><path d="M795.466,348.823c17.239,3.715 10.887,21.484 17.278,17.087c24.701,-16.992 42.277,8.586 14.413,31.181c-4.6,3.73 -30.034,19.552 -34.375,15.148c-4.16,-4.22 -30.76,-62.938 2.684,-63.416Z" style="fill:#ad7c78;"/><path d="M749.632,275.838c-23.532,12.191 -12.959,42.366 -23.076,40.44c-7.576,-1.442 -0.162,-32.752 -25.175,-41.442c-11.877,-4.126 -19.425,-4.16 -17.413,-8.139c4.126,-8.159 28.135,4.262 36.828,-31.114c0.432,-1.759 3.724,-24.682 8.51,-15.993c4.7,8.532 -0.971,31.348 23.283,40.674c6.043,2.324 29.112,6.445 10.878,11.093c-5.744,1.464 -8.529,2.644 -13.836,4.481Z" style="fill:#c6a581;"/><path d="M610.751,262.912c1.72,-0.863 17.976,-9.02 23.79,3.57c9.403,20.361 -23.599,36.746 -26.759,38.51c-14.586,8.139 -17.939,9.47 -21.99,0.383c-24.245,-54.382 3.381,-57.479 9.797,-55.145c12.263,4.462 7.738,17.896 15.163,12.682Z" style="fill:#b58b69;"/><path d="M110.377,508.635c-18.707,-18.841 -5.026,-39.766 18.147,-26.183c3.035,1.779 2.046,-5.271 5.104,-9.868c11.729,-17.633 38.31,-6.543 21.562,43.81c-3.454,10.384 -4.307,10.646 -6.707,10.194c-21.195,-3.99 -35.508,-15.808 -38.106,-17.953Z" style="fill:#ac7976;"/><path d="M678.586,626.814c0.296,0.055 7.945,1.06 28.8,14.861c-1.006,0.778 -0.693,1.091 -1.886,1.459c-0.15,0.046 -0.734,0.226 -1.82,0.72c-11.558,5.258 -12.248,3.095 -23.947,8.123c-7.789,3.348 10.177,5.675 4.628,11.412c-4.109,4.248 -39.361,0.851 -69.717,12.569c-17.258,6.662 -24.552,13.463 -26.4,14.593c-0.268,4.887 -3.655,2.71 -7.674,0.788c-14.712,-8.31 -14.743,-8.242 -31.083,-12.484c0.023,-0.013 0.574,-1.116 2.013,-1.135c3.535,-0.047 38.4,-4.606 63.024,-11.133c45.435,-12.043 57.02,-22.459 64.063,-39.774Z" style="fill:#eacdb7;"/><path d="M186.893,369.314c4.685,13.484 -0.775,30.749 30.673,36.797c5.819,1.119 6.699,4.994 1.071,6.845c-14.173,4.661 -24.863,4.106 -30.234,32.526c-0.127,0.673 -1.436,7.598 -2.888,8.064c-11.134,3.569 1.467,-32.054 -29.964,-39.236c-1.044,-0.238 -10.849,-0.356 -9.159,-4.856c0.805,-2.143 21.245,-4.508 26.704,-14.205c11.098,-19.711 6.038,-31.483 12.448,-27.811c0.16,0.092 0.1,0.139 1.348,1.878Z" style="fill:#c3a47f;"/><path d="M793.838,734.2c-0.19,0.34 -2.146,3.84 -2.459,4.204c-3.146,3.663 0.338,5.426 1.406,9.757c-1.245,2.796 -1.627,2.706 -1.417,4.349c1.02,7.953 8.496,39.542 3.925,49.638c-0.581,0.223 -1.162,0.447 -1.743,0.67c-8.45,2.085 -8.453,1.829 -17.18,1.144c-5.324,-0.334 -17.67,2.938 -12.454,-34.423c2.161,-15.476 6.325,-25.102 7.218,-27.166c2.218,-4.382 2.415,-4.83 7.357,-4.996c10.021,-0.337 10.457,-8.268 15.346,-3.178Z" style="fill:#d7a671;"/><path d="M285.425,210.585c2.38,3.052 11.252,14.426 -5.644,48.05c-2.615,5.204 -4.448,4.438 -14.212,-0.291c-41.082,-19.899 -30.2,-38.83 -19.115,-37.453c10.369,1.287 19.191,14.062 20.815,8.531c0.086,-0.292 2.695,-21.732 14.181,-20.629c2.223,0.214 2.063,0.573 3.975,1.793Z" style="fill:#f6c5c3;"/><path d="M395.587,252.966c22.639,-1.682 10.957,37.379 3.413,48.162c-5.299,7.574 -50.735,-19.525 -36.278,-35.425c8.225,-9.047 19.355,-0.154 19.692,-0.011c4.943,2.089 -0.167,-8.353 13.173,-12.725Z" style="fill:#bf9772;"/><path d="M802.784,362.388c3.712,10.863 2.689,16.099 7.784,12.193c23.365,-17.906 26.191,-1.705 23.491,4.706c-5.977,14.198 -36.417,28.789 -38.429,27.025c-0.256,-0.225 -12.612,-26.713 -10.415,-39.846c2.514,-15.03 11.67,-15.315 17.569,-4.079Z" style="fill:#f6abaa;"/><path d="M490.793,503.386c-0.649,2.421 -0.619,2.895 -0.604,3.152c1.074,17.327 0.936,17.307 2.82,23.003c0.679,2.058 3.957,11.989 10.332,25.042c1.281,2.622 -3.388,8.273 -10.474,18.196c-3.175,4.447 -4.201,-0.594 -13.589,-13.113c-7.999,-10.668 -12.223,-2.781 -19.89,-6.149c1.654,-9.975 27.164,-49.48 29.205,-51.882c1.095,-1.288 2.124,1.541 2.201,1.752Z" style="fill:#fbedc2;"/><path d="M342.355,183.874c-2.902,-1.517 -4.15,-4.433 2.244,-5.938c19.066,-4.486 19.592,-9.986 23.586,-27.516c1.536,-6.742 5.455,-2.644 5.852,-1.711c5.663,13.298 -2.057,22.815 26.57,29.388c3.172,0.728 3.916,4.337 -0.11,5.395c-17.897,4.703 -21.157,6.096 -25.812,29.059c-0.555,2.74 -4.76,3.277 -5.725,-0.197c-5.714,-20.574 -5.886,-23.273 -26.606,-28.481Z" style="fill:#c5a682;"/><path d="M594.477,256.553c10.832,6.626 3.511,23.402 13.434,15.42c17.271,-13.893 28.091,-2.043 18.122,11.184c-7.859,10.427 -31.191,22.894 -33.395,21.168c-1.363,-1.067 -12.141,-24.956 -10.23,-38.841c1.67,-12.137 10.921,-9.284 12.069,-8.93Z" style="fill:#e4bb81;"/><path d="M120.633,485.145c9.798,4.346 14.617,9.704 15.218,4.404c0.11,-0.968 0.129,-15.612 8.615,-18.171c2.808,-0.847 12.024,1.338 9.59,21.057c-0.601,4.868 -4.633,26.179 -7.471,27.227c-4.228,1.561 -50.125,-18.65 -35.662,-33.708c2.219,-2.31 8.946,-0.962 9.71,-0.808Z" style="fill:#ee9ba5;"/><path d="M497.388,528.191c1.262,4.03 1.307,3.953 1.384,8.183c0.096,5.258 4.015,8.667 4.637,9.208c2.175,1.892 1.368,3.104 4.322,6.768c5.369,6.658 -5.739,13.245 -7.136,21.177c-2.436,13.832 -8.627,24.355 -7.313,26.123c0.397,0.534 1.165,0.711 1.562,1.245c-3.517,4.393 -2.884,5.47 -5.325,5.457c-0.829,-0.004 -31.799,-39.96 -31.156,-50.883c0.341,-0.652 0.682,-1.303 1.023,-1.955c7.668,3.369 11.891,-4.519 19.89,6.149c9.388,12.52 10.414,17.56 13.589,13.113c7.085,-9.923 11.754,-15.574 10.474,-18.196c-6.374,-13.053 -9.652,-22.984 -10.332,-25.042c1.166,0.027 0.678,-1.067 1.834,-1.04c0.812,0.019 -0.1,1.198 0.715,1.099c0.764,-0.093 1.066,-1.316 1.83,-1.408Z" style="fill:#d9898b;"/><path d="M146.656,306.39c10.545,13.173 22.295,5.989 20.175,13.21c-1.765,6.014 -17.458,-1.079 -23.458,19.87c-0.235,0.821 -2.343,14.987 -6.737,9.913c-6.372,-7.357 0.141,-21.003 -20.085,-26.107c-18.141,-4.578 2.832,-8.252 6.644,-10.275c14.34,-7.611 9.093,-27.287 15.217,-26.104c3.924,0.758 1.432,8.177 8.244,19.493Z" style="fill:#bd9396;"/><path d="M803.653,657.532c-3.232,9.903 -6.527,4.364 -6.732,3.781c-3.971,-11.329 -0.781,-23.282 -22.36,-27.201c-5.337,-0.969 -4.776,-4.986 0.985,-6.425c17.757,-4.436 16.764,-8.918 21.386,-26.035c0.549,-2.034 4.383,-6.88 6.2,1.937c3.239,15.715 4.086,20.43 21.401,23.731c0.479,0.091 6.027,1.149 3.546,4.961c-3.695,5.676 -17.575,-5.902 -24.426,25.252Z" style="fill:#c0a480;"/><path d="M480.001,883.566c1.691,9.725 1.696,12.38 1.723,12.919c1.067,21.791 1.15,26.582 -5.226,26.787c-9.245,0.298 -18.941,0.266 -19.383,-3.688c-1.71,-15.297 1.459,-36.057 1.933,-39.157c1.05,-6.877 1.345,-15.731 4.306,-12.768c3.975,3.979 4.017,4.119 12.219,6.628c4.744,1.451 4.262,8.344 4.428,9.279Z" style="fill:#eac690;"/><path d="M389.272,565.574c7.857,32.63 -20.776,36.812 -28.51,21.783c-8.845,-17.187 -1.537,-39.146 15.603,-35.382c1.278,0.281 4.951,1.867 6.937,3.75c4.804,4.557 5.029,7.54 5.97,9.849Z" style="fill:#9f6855;"/><path d="M201.379,505.584c-0.004,-0.008 -4.697,-5.624 -3.102,-12.144c0.883,-3.61 3.038,-5.285 3.454,-5.608c4.108,-3.192 12.665,0.503 13.671,0.937c3.532,1.525 3.945,-9.143 12.12,-10.019c17.239,-1.848 9.148,33.976 2.95,41.731c-3.013,3.77 -18.553,-2.327 -29.094,-14.896Z" style="fill:#caa57d;"/><path d="M619.09,559.85c1.094,3.583 2.982,5.063 1.992,15.607c-0.708,7.542 -4.255,12.856 -4.906,13.833c-3.335,4.997 -3.874,4.552 -9.676,6.281c-14.781,0.759 -18.979,-14.185 -18.579,-19.069c2.514,-30.724 22.664,-29.031 31.169,-16.653Z" style="fill:#9f6453;"/><path d="M769.789,591.627c-8.083,14.797 -30.478,20.531 -32.895,16.614c-7.331,-11.883 -9.721,-42.154 6.581,-40.534c10.281,1.021 5.151,13.516 12,10.723c5.812,-2.37 19.505,-3.07 14.314,13.197Z" style="fill:#bd8579;"/><path d="M131.222,736.406c4.447,-7.211 6.415,-1.633 18.294,1.034c11.032,2.476 20.457,63.954 8.925,65.645c-1.986,0.291 -4,0.355 -5.985,0.646c0.458,-1.154 0.41,-1.055 0.891,-2.244c5.602,-13.851 -2.734,-49.221 -3.772,-50.071c-3.452,-2.826 -1.636,9.34 -1.514,10.153c1.505,10.082 1.262,39.842 0.563,42.128c-2.233,0.492 -4.196,1.536 -12.12,0.203c3.293,-7.107 3.922,-7.006 5.258,-21.368c1.407,-15.129 -0.32,-15.214 2.429,-30.09c1.091,-5.903 -2.255,-4.561 -7.393,-9.993c-2.97,-3.24 -3.245,-2.812 -6.055,-4.681c0.16,-0.453 0.32,-0.907 0.48,-1.36Z" style="fill:#d4a170;"/><path d="M166.42,571.886c-6.081,-2.667 -0.911,-6.214 1.053,-6.548c22.093,-3.762 14.977,-21.94 19.931,-24.952c8.342,-5.071 0.478,20.536 21.132,23.933c4.637,0.763 10.14,5.063 0.881,7.93c-11.663,3.611 -12.588,6.449 -16.824,20.279c-2.561,8.363 -6.584,3.786 -7.452,1.094c-4.738,-14.693 -3.706,-17.309 -18.721,-21.736Z" style="fill:#c29a8e;"/><path d="M724.123,243.397c0.962,-4.593 0.984,-4.558 1.039,-4.96c1.539,-11.251 2.926,1.323 3.126,2.113c6.241,24.614 26.287,24.8 26.983,26.121c1.918,3.642 -19.878,-0.763 -26.751,31.836c-3.252,15.423 0.899,-21.083 -26.276,-29.587c-6.235,-1.951 0.472,-2.518 2.296,-3.365c0.614,0.723 4.632,5.452 11.84,0.72c9.928,-6.518 7.806,-13.586 7.809,-13.691c0.13,-3.638 3.001,-4.059 -0.065,-9.187Z" style="fill:#f7d296;"/><path d="M673.48,196.478c-10.408,10.028 -5.384,23.009 -11.678,18.615c-5.046,-3.523 2.723,-14.998 -17.241,-21.788c-3.754,-1.277 -5.49,0.158 -5.793,-3.779c-0.385,-5.005 15.432,-0.826 19.967,-17.961c0.189,-0.713 4.119,-15.563 6.91,-6.111c4.238,14.353 4.511,15.702 18.725,20.429c5.037,1.675 3.132,4.826 0.194,5.789c-5.855,1.919 -6.095,1.245 -11.083,4.805Z" style="fill:#c89c9f;"/><path d="M292.42,300.534c4.829,13.763 5.008,14.709 17.967,20.243c9.487,4.051 -9.103,6.175 -12.686,12.83c-1.65,3.065 -5.936,22.706 -9.926,11.79c-4.781,-13.079 -4.416,-14.372 -17.22,-20.019c-6.858,-3.024 0.395,-5.248 0.811,-5.375c20.818,-6.383 12.954,-24.851 19.221,-22.667c0.865,0.302 0.583,0.528 1.835,3.198Z" style="fill:#c09b8e;"/><path d="M403.199,271.487c-0.474,3.372 -0.454,9.671 -7.454,24.145c-2.595,5.367 -38.369,-17.532 -28.216,-27.101c6.674,-6.291 20.31,11.045 20.921,3.963c0.622,-7.209 0.055,-7.691 5.098,-12.94c0.851,-0.885 9.362,-7.616 9.651,11.933Z" style="fill:#e1b57b;"/><path d="M501.89,519.345c1.122,1.72 12.847,20.866 17.717,32.104c4.275,9.866 -7.866,25.224 -24.763,49.446c-0.397,-0.534 -1.165,-0.711 -1.562,-1.245c-1.314,-1.768 4.877,-12.29 7.313,-26.123c1.397,-7.932 12.505,-14.519 7.136,-21.177c-2.954,-3.664 -2.147,-4.876 -4.322,-6.768c-0.622,-0.541 -4.542,-3.951 -4.637,-9.208c-0.077,-4.23 -0.121,-4.154 -1.384,-8.183c0.27,-0.526 2.947,-5.753 3.185,-6.673c0.337,-1.305 0.638,-1.052 1.317,-2.172Z" style="fill:#e38b97;"/><path d="M184.184,383.421c0.188,0.504 0.968,0.622 1.156,1.126c0.055,0.147 -1.572,4.153 4.659,12.572c0.981,1.325 5.528,7.469 16.455,12.412c-1.745,2.306 -2.166,1.686 -3.755,2.3c-12.573,4.855 -14.33,18.546 -18.054,23.405c-1.374,-1.527 -2.473,-6.079 -3.878,-8.874c-6.407,-12.747 -13.457,-13.028 -15.984,-15.218c-2.627,-2.277 16.656,-8.226 19.402,-27.723Z" style="fill:#e7c690;"/><path d="M757.432,474.363c-11.691,6.255 -6.515,20.883 -12.803,17.904c-3.461,-1.64 -0.801,-13.653 -11.331,-18.298c-0.122,-0.054 -9.118,-2.918 -8.933,-5.482c0.262,-3.647 12.937,-3.107 15.804,-12.097c0.274,-0.859 4.927,-21.028 8.128,-8.844c3.109,11.837 2.906,13.159 14.254,17.821c10.678,4.387 -1.087,7.098 -5.118,8.996Z" style="fill:#c6a582;"/><path d="M456.415,820.466c11.084,-16.329 24.116,-3.544 26.041,1.052c11.083,26.463 -37.79,28.884 -26.041,-1.052Z" style="fill:#e2b985;"/><path d="M451.764,475.503c1.352,-8.197 17.034,-43.711 23.745,-44.627c11.107,-1.517 -1.644,21.624 -5.248,31.547c-1.462,4.024 -11.036,23.426 -14.915,26.869c-5.283,4.69 -3.666,-9.22 -3.582,-13.789Z" style="fill:#fcecc2;"/><path d="M260.695,652.788c-10.914,5.888 -11.413,4.717 -22.159,10.778c-1.643,0.927 -14.776,10.05 -18.739,3.79c-0.622,-0.983 -0.863,-6.994 3.075,-10.488c25.639,-22.751 55.995,-18.231 37.822,-4.08Z" style="fill:#fdfce1;"/><path d="M136.797,742.447c5.139,5.432 8.484,4.09 7.393,9.993c-2.749,14.876 -1.022,14.962 -2.429,30.09c-1.336,14.362 -1.965,14.261 -5.258,21.368c-3.774,-0.838 -3.823,-0.628 -6.889,-2.5c-1.207,-40.086 5.408,-39.733 4.296,-49.999c-0.001,-0.006 0.514,-0.724 -2.228,-2.723c1.07,-4.17 1.316,-4.201 5.115,-6.229Z" style="fill:#ebc387;"/><path d="M816.254,481.34c-4.144,18.846 -22.556,18.715 -12.86,21.592c3.94,1.169 6.576,4.156 7.022,4.661c6.858,7.771 6.014,12.035 6.098,12.901c0.4,6.359 1.618,11.596 1.277,12.052c-0.677,0.903 -1.931,1.255 -2.608,2.158c-2.096,-4.219 -3.262,-9.719 -3.704,-11.197c-6.933,-23.209 -21.712,-15.427 -25.658,-21.209c-2.59,-3.794 10.123,-6.509 10.706,-6.728c20.991,-7.893 13.202,-28.054 20.091,-30.643c7.235,-2.719 0.003,16.997 16.088,28.088c-0.41,0.186 -0.009,1.482 -2.206,0.999c-9.641,-2.12 -12.156,-28.073 -13.276,-21.454c-0.741,4.383 -0.754,4.3 -0.97,8.78Z" style="fill:#bf9294;"/><path d="M482.297,868.55c-4.365,-17.722 -5.368,-17.622 -4.944,-19.147c1.697,-6.108 16.138,21.988 19.234,55.089c1.349,14.419 -9.342,14.97 -9.977,12.968c-1.406,-4.43 3.348,-4.873 -4.312,-48.911Z" style="fill:#dfae81;"/><path d="M289.126,526.252c0.689,-2.866 1.203,-4.749 3.079,-2.473c0.241,0.292 2.55,3.319 2.98,3.94c12.435,17.971 12.533,23.154 10.915,34.714c-0.17,1.212 -1.805,12.894 -2.59,15.071c-0.656,1.819 -3.247,1.632 -14.597,-19.265c6.61,-8.294 3.758,-9.451 6.197,-19.824c0.007,-0.028 0.045,-8.321 -5.983,-12.164Z" style="fill:#e99397;"/><path d="M204.735,492.699c3.879,-2.231 4.396,-0.994 8.669,1.943c10.852,7.459 7.023,-5.515 12.484,-8.734c11.332,-6.68 5.33,22.937 1.189,27.401c-2.654,2.861 -3.305,2.338 -6.633,0.281c-20.771,-12.84 -16.935,-18.403 -15.709,-20.89Z" style="fill:#e3be85;"/><path d="M816.254,481.34c3.681,0.745 1.28,3.11 7.556,11.932c5.062,7.115 8.621,4.911 10.58,8.183l-0.976,0.797c-1.502,0.294 -8.315,1.628 -13.705,13.341c-2.364,5.137 -0.802,5.787 -1.275,5.874c-0.169,0.031 -0.142,-0.072 -1.92,-0.973c-0.085,-0.866 0.759,-5.13 -6.098,-12.901c-0.446,-0.506 -3.082,-3.492 -7.022,-4.661c-9.695,-2.877 8.716,-2.746 12.86,-21.592Z" style="fill:#eaafae;"/><path d="M456.697,864.55c-2.832,21.281 -5.53,27.719 -4.59,52.963c0.015,0.398 -0.638,4.452 -4.923,-0.738c-1.865,-2.259 -3.977,-1.299 -4.006,-7.274c-0.138,-28.273 6.828,-42.297 11.836,-54.238c0.877,-2.091 0.331,-3.519 2.351,-2.599c2.336,1.064 1.405,4.49 1.299,4.88c-0.153,0.562 -0.146,0.519 -1.967,7.006Z" style="fill:#fadba8;"/><path d="M738.033,594.482c-0.384,-1.623 -4.488,-18.949 3.558,-20.537c6.727,-1.328 3.017,15.358 8.907,12.549c0.977,-0.466 10.227,-6.402 13.76,-1.81c2.294,2.981 -2.429,13.318 -17.673,18.011c-0.264,0.081 -2.771,1.024 -3.012,1.114c-1.404,-1.308 -1.152,-1.469 -2.697,-2.511c-0.611,-0.412 -2.648,-6.258 -2.843,-6.816Z" style="fill:#e8969b;"/><path d="M682.393,531.424c0.386,0.5 1.176,0.575 1.562,1.076c0.542,0.702 -6.53,12.819 2.742,19.564c3.466,2.522 4.048,-4.076 4.091,-4.564c0.017,-0.193 0.101,-0.149 1.36,-2.005c-0.145,7.356 1.341,8.903 -10.319,25.248c-1.699,2.228 -5.411,7.948 -7.156,6.563c-0.078,-0.062 -4.201,-19.795 -1.87,-27.735c2.35,-8.004 6.915,-13.955 9.59,-18.146Z" style="fill:#f3aeb1;"/><path d="M123.675,565.228c0.509,0.241 10.561,4.128 5.827,6.275c-11.198,5.076 -9.942,6.831 -13.391,15.792c-2.242,5.826 -4.443,-5.805 -6.71,-8.717c-4.697,-6.033 -15.74,-6.833 -7.702,-10.696c12.951,-6.224 6.615,-12.329 11.878,-15.192c1.513,-0.823 2.298,1.388 2.375,1.604c2.532,7.132 2.906,6.98 7.724,10.935Z" style="fill:#e1c996;"/><path d="M816.254,481.34c0.216,-4.48 0.229,-4.397 0.97,-8.78c1.119,-6.619 3.635,19.334 13.276,21.454c2.197,0.483 1.796,-0.813 2.206,-0.999c14.24,5.833 14.675,4.769 15.714,5.606c5.325,4.286 -9.8,7.52 -11.813,8.202c-18.818,6.378 -12.159,37.743 -21.425,27.881c0.677,-0.903 1.931,-1.255 2.608,-2.158c0.342,-0.456 -0.877,-5.693 -1.277,-12.052c1.778,0.901 1.75,1.004 1.92,0.973c0.473,-0.087 -1.088,-0.737 1.275,-5.874c5.389,-11.714 12.203,-13.047 13.705,-13.341c0.325,-0.266 0.651,-0.531 0.976,-0.797c-1.959,-3.273 -5.519,-1.068 -10.58,-8.183c-6.276,-8.822 -3.874,-11.187 -7.556,-11.932Z" style="fill:#c29395;"/><path d="M387.645,181.647c-19.179,8.202 -11.328,21.019 -16.185,18.077c-0.757,-0.459 -4.282,-14.664 -15.865,-17.47c-0.008,-0.624 -1.021,-1.273 0.846,-1.817c9.31,-2.713 12.731,-13.366 13.218,-14.882c2.613,-8.137 2.122,5.837 13.882,12.845c2.429,1.448 3.425,0.554 4.104,3.247Z" style="fill:#e9c590;"/><path d="M793.838,734.2c6.207,11.25 6.066,11.276 10.423,23.376c5.743,18.25 9.103,33.631 -0.751,40.954c-3.46,-2.543 0.223,-3.83 -1.449,-16.974c-0.35,-2.751 -2.32,-18.241 -9.276,-33.395c-1.068,-4.33 -4.553,-6.094 -1.406,-9.757c0.313,-0.364 2.269,-3.864 2.459,-4.204Z" style="fill:#fadeb1;"/><path d="M124.684,317.693c7.654,-5.084 12.045,-5.799 12.25,-19.143c0.053,-3.453 3.961,-5.371 3.675,-2.05c-0.539,6.261 -3.702,11.716 9.679,20.422c0.27,0.176 4.039,2.628 2.122,3.425c-7.51,3.124 -9.051,4.875 -14.043,15.852l-1.018,0.439c-1.547,-3.674 -1.807,-11.527 -13.687,-17.346l1.021,-1.599Z" style="fill:#e8a5ac;"/><path d="M130.742,737.765c2.81,1.869 3.085,1.441 6.055,4.681c-3.799,2.027 -4.045,2.059 -5.115,6.229c-0.953,1.409 -1.705,3.613 -1.817,3.942c-6.603,19.358 -6.292,43.841 -6.39,44.727c-18.495,-3.286 2.384,-54.705 7.268,-59.579Z" style="fill:#fbe2ae;"/><path d="M803.635,294.605c8.904,-9.046 21.647,-0.811 20.186,8.969c-2.317,15.511 -31.624,10.296 -20.186,-8.969Z" style="fill:#caa597;"/><path d="M596.558,195.183c16.828,4.771 4.052,29.266 -9.77,19.93c-6.112,-4.128 -8.03,-21.415 9.77,-19.93Z" style="fill:#dbb385;"/><path d="M799.518,614.528c3.426,2.917 2.185,3.746 5.403,8.619c3.78,5.724 11.645,6.704 6.694,9.546c-9.65,5.538 -6.507,11.215 -11.012,16.645c-0.438,-1.029 -2.112,-10.334 -12.178,-16.723c-3.051,-1.937 -1.156,-2.718 0.89,-4.344c7.68,-6.107 8.362,-10.877 10.204,-13.742Z" style="fill:#f0d1a3;"/><path d="M100.969,421.48c0.076,-0.726 -0.473,-7.707 5.705,-10.577c3.175,-1.475 7.862,-1.29 10.775,0.678c16.083,10.865 -10.278,33.769 -16.48,9.899Z" style="fill:#c29999;"/><path d="M155.308,724.702c4.765,7.544 -14.51,7.304 -20.562,-5.327c-6.758,-14.105 19.212,-27.314 13.773,-18.865c-0.486,0.754 -3.272,5.083 -2.572,10.914c0.712,5.929 8.371,12.436 9.362,13.278Z" style="fill:#e8c192;"/><path d="M777.784,698.918c6.817,-0.702 13.333,9.239 13.8,13.574c1.82,16.907 -20.349,20.229 -22.073,15.004c-0.725,-2.198 0.521,-1.908 4.746,-6.255c10.542,-10.848 3.402,-17.002 3.527,-22.323Z" style="fill:#ecc390;"/><path d="M199.724,570.843c-7.29,4.64 -6.531,5.417 -9.505,11.481c-3.325,6.779 -2.122,-2.843 -7.724,-7.818c-2.719,-2.415 -3.14,-1.768 -5.683,-4.345c-1.422,-1.441 8.482,-6.221 10.982,-15.503c2.499,-9.276 1.012,5.454 11.479,12.17c3.608,2.315 1.593,3.216 0.451,4.015Z" style="fill:#e7be9b;"/><path d="M380.891,571.434c0.271,2.521 2.428,14.307 -6.413,14.837c-10.534,0.632 -11.435,-31.241 1.03,-24.785c3.772,1.953 5.204,9.061 5.383,9.948Z" style="fill:#fbeeb2;"/><path d="M792.786,748.16c6.957,15.154 8.927,30.645 9.276,33.395c1.672,13.144 -2.011,14.431 1.449,16.974c-1.523,1.065 -1.666,0.71 -2.952,2.063c-2.064,2.171 -2.308,1.886 -5.265,1.554c4.571,-10.096 -2.905,-41.685 -3.925,-49.638c-0.211,-1.643 0.172,-1.552 1.417,-4.349Z" style="fill:#99754c;"/><path d="M148.623,803.695c0.7,-2.286 0.942,-32.045 -0.563,-42.128c-0.121,-0.812 -1.937,-12.978 1.514,-10.153c1.038,0.85 9.374,36.22 3.772,50.071c-0.481,1.189 -0.433,1.09 -0.891,2.244c-0.303,0.047 -1.986,0.307 -3.833,-0.035Z" style="fill:#a26d44;"/><path d="M131.682,748.675c2.742,1.999 2.228,2.717 2.228,2.723c1.112,10.267 -5.503,9.913 -4.296,49.999c-3.785,-0.607 -4.798,-2.631 -6.139,-4.054c0.098,-0.886 -0.213,-25.369 6.39,-44.727c0.112,-0.329 0.864,-2.532 1.817,-3.942Z" style="fill:#9d784a;"/><path d="M663.267,172.832c2.433,9.9 4.07,12.055 11.127,14.846c1.265,2.591 -0.587,2.123 -3.535,4.245c-6.597,4.751 -6.348,15.189 -9.261,7.541c-2.356,-6.184 -6.505,-7.083 -10.034,-9.051c2.16,-3.598 11.654,-8.928 10.135,-14.878c-0.454,-1.778 0.033,-1.706 1.568,-2.703Z" style="fill:#eba5ac;"/><path d="M608.749,562.197c4.504,4.354 3.42,9.778 2.715,16.294c-0.635,0.133 -3.326,0.26 -3.517,0.499c-2.472,3.106 -3.12,1.989 -6.432,2.725c-0.847,0.188 -1.527,0.879 -2.374,1.068c-4.799,-9.6 0.22,-25.338 9.608,-20.586Z" style="fill:#f3d494;"/><path d="M440.842,776.347c7.287,16.035 11.253,19.448 7.637,20.075c-7.462,1.294 -24.287,-42.96 -15.891,-41.093c1.763,0.392 0.377,1.54 8.254,21.018Z" style="fill:#b2937e;"/><path d="M483.496,318.573c17.917,5.165 2.308,22.598 -6.773,15.612c-3.871,-2.978 -3.052,-12.991 6.773,-15.612Z" style="fill:#fcf4d2;"/><path d="M289.288,310.242c1.778,1.318 1.831,1.254 1.921,1.423c3.274,6.134 3.355,6.019 8.082,11.017c0.87,0.919 -3.07,4.03 -3.415,4.303c-3.834,3.027 -4.286,14.061 -6.564,6.61c-1.679,-5.492 -10.257,-9.78 -9.598,-10.98c1.755,-3.196 5.922,-0.275 9.574,-12.372Z" style="fill:#ebc9a8;"/><path d="M682.393,531.424c5.19,-8.472 5.366,-8.829 6.11,-8.451c2.582,1.311 3.554,20.698 3.645,22.521c-1.259,1.857 -1.343,1.812 -1.36,2.005c-0.043,0.488 -0.625,7.086 -4.091,4.564c-9.271,-6.745 -2.2,-18.862 -2.742,-19.564c-0.386,-0.5 -1.176,-0.575 -1.562,-1.076Z" style="fill:#fcecd4;"/><path d="M500.358,784.423c-0.819,1.371 -8.53,14.286 -14.911,13.275c-2.793,-0.443 2.049,-5.181 2.536,-5.709c13.938,-15.111 14.915,-33.739 19.567,-28.527c2.09,2.341 -6.402,19.374 -7.193,20.961Z" style="fill:#b49981;"/><path d="M754.183,469.321c-4.055,5.047 -4.753,4.483 -7.467,10.316c-1.77,3.804 -3.678,-4.405 -6.349,-7.004c-2.937,-2.857 -4.968,-3.427 -1.925,-6.201c5.75,-5.24 6.23,-12.335 7.789,-9.705c0.036,0.06 2.447,7.132 4.256,8.787c2.024,1.851 1.838,1.893 3.696,3.807Z" style="fill:#f5d0a0;"/><path d="M669.288,319.447c3.536,-9.293 11.759,-5.359 14.017,-2.78c8.825,10.078 -15.103,20.761 -14.017,2.78Z" style="fill:#dba5a1;"/><path d="M289.126,526.252c6.028,3.843 5.99,12.136 5.983,12.164c-2.439,10.373 0.412,11.53 -6.197,19.824c-3.158,-8.18 -2.511,-8.332 -2.713,-10.717c0.47,-10.802 1.035,-10.65 2.928,-21.27Z" style="fill:#fcddc9;"/><path d="M309.571,642.449c4.231,3.385 4.45,3.056 7.886,7.18c-12.192,1.132 -12.327,-1.786 -24.981,0.754c-0.318,0.064 -0.294,0.061 -3.969,0.828c-8.195,-0.804 -2.222,-4.935 -1.699,-5.383c1.491,-0.57 13.998,-5.354 19.758,-2.763c1.548,0.696 1.508,0.07 3.004,-0.616Z" style="fill:#c19e8b;"/><path d="M188.364,236.285c8.848,-4.121 11.873,3.618 11.484,7.257c-1.563,14.643 -24.292,3.324 -11.484,-7.257Z" style="fill:#d69da5;"/><path d="M720.389,742.122c31.864,-7.062 32.482,-10.065 32.835,-8.443c0.013,0.061 -5.896,7.393 -15.409,17.176c-1.039,-1.096 -2.84,-0.933 -1.155,-3.286c0.699,-0.977 0.455,-1.032 -0.079,-2.145c-0.559,-1.164 -4.173,-1.175 -7.059,-1.312c-4.96,-0.236 -5.705,1.623 -9.133,-1.99Z" style="fill:#e6c4ac;"/><path d="M842.479,431.452c8.409,-2.638 11.736,4.029 10.192,9.114c-3.754,12.36 -24.601,0.012 -10.192,-9.114Z" style="fill:#dbbb8b;"/><path d="M255.447,387.36c0.485,0.347 0.432,-0.691 0.929,-0.336c0.922,0.659 0.203,1.165 1.124,1.803c0.167,0.116 10.937,0.602 8.872,8.645c-1.447,5.637 -14.842,10.073 -14.836,-3.973c0.001,-2.294 -0.993,-1.734 -1.268,-2.214c2.377,-2.239 2.274,-2.235 5.179,-3.926Z" style="fill:#fcf4cf;"/><path d="M490.793,503.386c6.428,5.974 8.807,12.075 11.098,15.96c-0.679,1.121 -0.98,0.867 -1.317,2.172c-0.238,0.921 -2.916,6.147 -3.185,6.673c-0.764,0.093 -1.066,1.316 -1.83,1.408c-0.815,0.099 0.096,-1.081 -0.715,-1.099c-1.156,-0.027 -0.668,1.067 -1.834,1.04c-1.884,-5.696 -1.745,-5.675 -2.82,-23.003c-0.016,-0.256 -0.045,-0.731 0.604,-3.152Z" style="fill:#e7a2a6;"/><path d="M566.396,141.915c14.258,6.366 -4.521,22.259 -8.932,9.598c-0.833,-2.393 -1.082,-10.443 8.932,-9.598Z" style="fill:#dca1ad;"/><path d="M156.107,622.52c-2.201,13.435 -19.545,6.839 -12.723,-4.105c1.869,-2.999 10.85,-5.862 12.723,4.105Z" style="fill:#d3b68e;"/><path d="M724.123,243.397c3.066,5.128 0.195,5.55 0.065,9.187c-0.004,0.105 2.118,7.173 -7.809,13.691c-7.208,4.732 -11.225,0.003 -11.84,-0.72c13.938,-8.242 14.795,-8.307 19.584,-22.158Z" style="fill:#fdf0b8;"/><path d="M206.238,325.818c-7.036,-8.313 1.908,-13.023 4.264,-12.875c12.081,0.757 6.849,19.703 -4.264,12.875Z" style="fill:#d6bd8c;"/><path d="M472.784,198.598c-0.264,0.574 -2.144,8.372 -8.361,5.051c-8.924,-4.767 1.37,-21.264 8.033,-12.118c1.402,1.925 0.443,6.513 0.327,7.067Z" style="fill:#f9cdc9;"/><path d="M308.215,723.44c-0.017,0.126 -0.815,13.61 -4.463,10.718c-4.025,-3.191 3.778,-34.773 9.383,-27.395c0.729,0.96 0.13,2.437 0.051,2.632c-2.83,6.979 -3.037,6.827 -4.972,14.045Z" style="fill:#b1927a;"/><path d="M720.965,393.578c-0.242,0.909 0.113,1.828 -3.125,7.133c-3.896,-1.838 -3.989,0.858 -8.305,0.367c-6.136,-0.698 -5.409,-3.238 -2.507,-8.736c1.722,-3.263 8.654,-3.441 11.345,-0.711c1.207,1.224 1.293,0.971 2.593,1.948Z" style="fill:#fdf3cc;"/><path d="M829.432,564.413c0.487,-0.303 4.505,-2.806 6.968,-1.67c3.816,1.761 3.889,5.202 3.9,5.758c0.259,12.328 -20.316,4.974 -10.868,-4.088Z" style="fill:#c49c9d;"/><path d="M778.512,556.762c-14.01,-1.608 -2.544,-17.249 4.651,-9.952c0.897,0.91 2.16,3.3 1.655,5.761c-0.632,3.084 -5.712,4.075 -6.306,4.191Z" style="fill:#cdaf85;"/><path d="M339.388,240.514c0.321,13.706 -15.695,6.944 -11.07,-2.121c0.816,-1.598 8.168,-6.844 11.07,2.121Z" style="fill:#d097a2;"/><path d="M585.321,265.465c3.437,-9.034 9.007,-4.381 9.909,-2.803c4.57,7.998 -11.093,17.048 -9.909,2.803Z" style="fill:#fdf1c6;"/><path d="M742.378,345.684c-2.259,-2.155 -2.705,-2.073 -2.615,-5.172c0.079,-2.724 2.244,-4.564 3.707,-5.092c9.913,-3.576 11.283,15.717 -1.092,10.264Z" style="fill:#cb999e;"/><path d="M616.499,819.495c1.233,-1.33 1.553,-0.938 17.105,-14.882c0.58,-0.52 8.288,-7.431 8.829,-4.094c0.224,1.38 -10.917,11.906 -14.186,13.751c-6.555,3.7 -6.64,3.647 -6.747,3.933c-0.189,0.506 0.238,1.114 0.049,1.621c-2.612,0.539 -2.68,0.808 -5.05,-0.33Z" style="fill:#aa8170;"/><path d="M236.633,595.131c-0.313,-0.16 -3.767,-1.23 -4.02,-4.638c-0.278,-3.748 1.813,-5.261 2.2,-5.541c8.72,-6.308 14.308,11.806 1.82,10.179Z" style="fill:#d49394;"/><path d="M197.567,688.505c1.611,-3.124 2.915,-2.86 4.944,-0.008c1.584,5.924 1.422,5.881 2.354,11.931c0.048,0.313 3.487,6.764 -0.305,5.784c-2.242,-0.579 -7.368,-6.25 -6.993,-17.707Z" style="fill:#b0967d;"/><path d="M534.474,268.687c12.083,4.175 -2.609,17.752 -6.07,7.849c-2.652,-7.588 5.276,-7.825 6.07,-7.849Z" style="fill:#d8aba8;"/><path d="M806.731,302.467c0.056,-0.748 0.678,-9.133 7.858,-5.114c8.231,4.607 -4.127,17.058 -7.858,5.114Z" style="fill:#ecc69d;"/><path d="M634.772,712.377c5.56,16.591 -0.469,21.996 -1.933,17.02c-0.327,-1.112 0.038,-9.912 -1.688,-14.744c-2.403,-6.726 1.725,-5.044 2.015,-4.75c0.166,0.168 0.119,0.183 1.605,2.474Z" style="fill:#bea18c;"/><path d="M467.563,815.572c0.087,0.006 6.076,-0.803 10.055,3.835c2.017,2.351 2.998,2.268 2.827,3.036c-0.083,0.371 -0.804,0.348 -0.887,0.719c-3.926,1.31 -3.934,2.445 -7.44,2.248c-2.42,-4.843 -2.348,-4.795 -5.866,-8.81c0.437,-0.343 0.874,-0.686 1.311,-1.03Z" style="fill:#ddb87d;"/><path d="M137.032,751.903c1.46,2.221 1.639,2.037 2.097,3.683c0.9,3.231 0.397,22.479 0.325,22.512c-4.264,1.949 -2.562,-22.667 -3.745,-24.598c0.441,-0.532 0.882,-1.064 1.323,-1.597Z" style="fill:#d8b078;"/><path d="M106.157,419.402c2.944,-6.773 7.837,-2.418 8.51,-0.986c2.962,6.299 -7.916,13.064 -8.51,0.986Z" style="fill:#fcd1d3;"/><path d="M432.494,143.497c-6.936,7.95 -11.218,-6.422 -4.051,-7.369c6.338,-0.837 4.232,6.721 4.051,7.369Z" style="fill:#d5ba92;"/><path d="M722.555,696.637c-0.046,-0.171 -0.573,-2.137 -0.573,-2.137c0.458,-0.933 0.633,-0.798 0.671,-1.909c0.188,-5.518 12.052,-6.624 6.588,2.744c-2.083,3.57 -4.52,3.992 -4.777,4.154c0.041,-2.106 0.158,-2.584 -1.908,-2.853Z" style="fill:#ecd9c0;"/><path d="M515.429,820.217c4.18,3.277 4.788,1.394 10.031,2.326c-1.392,3.519 -7.292,0.965 -12.871,2.251c-0.711,0.164 -1.375,0.588 -2.104,0.601c-0.226,0.004 -0.158,-0.565 -0.384,-0.558c-0.815,0.025 -2.823,4.053 -4.569,0.663c-0.996,-1.934 -1.591,-0.956 -2.12,-1.274c6.071,-1.931 5.967,-1.903 12.017,-4.009Z" style="fill:#e9c5ac;"/><path d="M431.304,780.454l-0.788,1.143c-0.619,-0.051 -1.516,0.251 -4.081,-1.019c-1.061,-0.526 -3.016,-6.522 -1.754,-7.897c5.076,-5.532 6.529,6.962 6.623,7.773Z" style="fill:#ecdbc3;"/><path d="M722.555,696.637c2.066,0.269 1.95,0.747 1.908,2.853c-5.187,11.022 -8.034,8.062 -8.351,7.237c-1.679,-4.371 5.66,-9.539 6.443,-10.09Z" style="fill:#af9176;"/><path d="M611.465,578.491c-0.333,0.989 -4.848,14.411 -12.323,4.292c0.847,-0.188 1.527,-0.879 2.374,-1.068c3.312,-0.736 3.96,0.381 6.432,-2.725c0.191,-0.24 2.881,-0.366 3.517,-0.499Z" style="fill:#dfa77b;"/><path d="M244.651,343.558c-0.298,0.418 -3.81,5.345 -6.33,1.066c-2.846,-4.833 7.034,-10.366 6.33,-1.066Z" style="fill:#d9c19b;"/><path d="M197.567,688.505c-1.804,-2.072 -3.078,-1.942 -1.912,-4.005c0.3,-0.53 4.034,-7.137 7.608,0.132c0.987,2.008 0.772,2.165 -0.752,3.865c-2.029,-2.852 -3.333,-3.117 -4.944,0.008Z" style="fill:#e7d5b6;"/><path d="M738.033,594.482c0.194,0.558 2.232,6.405 2.843,6.816c1.545,1.042 1.293,1.204 2.697,2.511c-4.625,1.937 -4.823,0.737 -6.336,-1.269c-0.718,-0.951 -0.895,-0.882 -0.669,-2.06c0.183,-0.953 -1.093,-4.376 -0.447,-4.98c0.528,-0.493 1.385,-0.525 1.913,-1.018Z" style="fill:#d7958d;"/><path d="M471.51,912.458c3.062,8.109 -3.091,9.085 -3.366,7.176c-0.74,-5.129 -1.833,-7.576 3.366,-7.176Z" style="fill:#c4985d;"/><path d="M418.498,835.909c0.288,-0.194 0.751,0.101 1.039,-0.093c0.448,-0.302 0.598,-0.916 0.998,-1.28c0.336,-0.306 3.373,-1.614 3.859,-2.367c0.755,-1.172 1.028,-0.539 2.199,0.321c3.443,2.528 -1.787,7.087 -8.094,3.419Z" style="fill:#dfbda1;"/><path d="M512.594,763.178c-0.387,-0.222 -5.07,-2.916 -1.743,-5.298c3.537,-2.532 8.918,5.272 1.743,5.298Z" style="fill:#e9d5bd;"/><path d="M591.549,816.874c-0.79,-0.828 -0.884,-0.641 -1.568,-1.637c-1.445,-2.104 1.903,-2.279 2.442,-1.698c1.944,2.1 1.865,2.109 4.157,3.79c0.212,0.155 5.705,4.183 -1.064,3.106c-2.822,-0.449 -1.189,-2.859 -3.966,-3.562Z" style="fill:#dbb89b;"/><path d="M596.271,779.05c2.537,2.997 4.75,3.632 2.302,4.568c-1.664,0.636 -4.708,0.063 -5.11,-0.013c-1.92,-0.362 -1.817,0.335 -1.964,0.275c-0.685,-0.277 -0.559,-1.557 -1.243,-1.834c2.005,-0.999 4.01,-1.998 6.015,-2.996Z" style="fill:#ebc5b1;"/><path d="M614.278,721.625c5.379,7.423 -5.716,2.412 -5.757,0.872c-0.039,-1.472 1.75,-1.973 1.968,-2.034c2.643,-0.74 3.547,0.983 3.789,1.162Z" style="fill:#ecd8c0;"/><path d="M372.419,580.848c5.803,-0.453 5.585,-1.938 5.986,-1.644c2.641,1.932 -5.75,7.147 -6.905,3.326c-0.131,-0.433 0.321,-0.91 0.19,-1.343l0.729,-0.339Z" style="fill:#f3dc98;"/><path d="M566.301,795.023c1.403,2.256 3.891,3.091 1.288,3.632c-3.345,0.695 -3.548,1.337 -6.431,-0.6c2.522,-1.608 2.431,-1.575 5.142,-3.032Z" style="fill:#edc9b4;"/><path d="M812.5,797.278c-2.543,2.892 -2.493,2.97 -2.846,3.058c-0.223,0.055 -0.305,-0.498 -0.528,-0.442c-0.144,-0.422 -1.295,-3.794 2.506,-4.985c3.302,-1.036 0.986,2.206 0.869,2.37Z" style="fill:#7d5142;"/><path d="M196.472,767.399c-0.628,-0.89 -0.681,-0.771 -1.182,-1.676c-1.035,-1.869 -1.267,-2.737 0.917,-2.93c0.403,-0.036 2.37,1.618 2.561,1.779c1.484,1.248 -2.027,2.716 -2.296,2.828Z" style="fill:#74453a;"/><path d="M169.532,679.343c-1.564,-1.013 -1.556,-1.004 -1.689,-1.094c-1.403,-0.945 2.197,-5.556 3.3,-2.631c0.629,1.669 -0.821,2.826 -1.611,3.725Z" style="fill:#815242;"/><path d="M680.432,718.476c-5.233,1.889 -3.461,-2.96 -1.973,-2.785c0.768,0.09 0.759,0.067 1.221,0.614c0.788,0.934 0.367,1.058 0.752,2.171Z" style="fill:#fdedce;"/><path d="M612.475,827.375c-0.672,-1.285 -1.225,-1.633 0.095,-2.347c0.589,-0.318 0.551,-0.867 1.579,-0.162c0.213,0.146 4.688,1.431 0.233,2.403c-0.622,0.136 -1.285,-0.029 -1.908,0.107Z" style="fill:#7f5345;"/><path d="M735.905,525.359c-1.215,5.447 -3.066,-0.135 -2.397,-0.851c1.12,-1.198 1.233,-0.248 2.397,0.851Z" style="fill:#decfaa;"/><path d="M173.057,671.746c0.441,-0.802 0.809,-0.376 1.288,-1.246c0.681,-1.239 0.071,-1.307 0.155,-1.379c0.109,-0.094 1.42,0.596 1.639,1.446c0.546,2.115 -0.446,1.973 -2.588,1.832l-0.494,-0.653Z" style="fill:#66392c;"/><path d="M116.446,799.816c-0.144,-0.128 -7.448,-8.301 0.119,-2.399c1.969,1.535 -0.017,2.127 -0.119,2.399Z" style="fill:#6d443a;"/><path d="M124.684,317.693l-1.021,1.599c-0.119,-0.258 -3.519,-7.607 0.836,-3.447c0.107,0.103 0.014,0.137 0.184,1.847Z" style="fill:#cf9da1;"/><path d="M456.342,791.334c3.972,1.388 1.596,2.668 1.358,2.651c-0.865,-0.061 -1.572,-1.441 -1.656,-1.605c-0.294,-0.574 0.597,-0.462 0.298,-1.046Z" style="fill:#fdeed1;"/><path d="M488.278,599.578c1.315,0.596 1.403,0.52 1.421,0.644c0.421,2.931 -1.39,1.303 -1.518,1.004c-0.217,-0.506 0.314,-1.142 0.097,-1.648Z" style="fill:#d58888;"/><path d="M289.455,306.498c0.037,-0.21 0.998,-5.681 1.771,-1.998c0.044,0.209 -0.127,0.144 -1.771,1.998Z" style="fill:#c09b91;"/><path d="M362.494,835.174c-0.535,0.33 -0.459,1.272 -0.994,1.601c-0.973,0.6 -1.621,-1.822 0.165,-2.076c0.315,-0.045 0.514,0.519 0.83,0.474Z" style="fill:#d9b497;"/><path d="M538.483,850.72c-0.995,1.516 -0.959,2.789 -1.836,1.651c-1.021,-1.326 0.277,-1.03 1.836,-1.651Z" style="fill:#7d5041;"/><path d="M167.879,791.566c-0.881,-1.337 -2.679,-1.169 -1.379,-2.093c0.954,-0.678 1.391,-0.015 1.455,0.082c0.621,0.943 -0.673,1.104 -0.076,2.011Z" style="fill:#6b3f2f;"/><path d="M251.479,747.213c-1.107,-0.025 -0.377,1.312 -1.446,1.287c-0.115,-0.003 -0.912,-0.021 -0.534,-1.332c0,0 1.821,0.042 1.979,0.045Z" style="fill:#85523d;"/><path d="M780.984,740.5c-0.946,0.72 -0.664,2.092 -1.471,1.119c-0.069,-0.083 -0.713,-0.86 -0.07,-1.349c0.413,-0.314 1.128,0.545 1.541,0.23Z" style="fill:#d6a36f;"/><path d="M372.419,580.848l-0.729,0.339c-0.12,-0.09 -0.274,-0.13 -0.395,-0.22c-0.094,-0.071 -3.105,-2.328 -0.118,-1.467c0.587,0.169 0.654,1.178 1.241,1.348Z" style="fill:#f9e4a3;"/><path d="M593.471,834.72c-0.729,-0.083 -0.282,0.791 -0.993,0.711c-0.105,-0.012 -0.948,-0.107 -0.937,-0.929c0.018,-1.291 0.62,0.07 1.929,0.218Z" style="fill:#6d4232;"/><path d="M467.563,815.572c-0.437,0.343 -0.874,0.686 -1.311,1.03c-0.979,-0.993 -1.15,-1.721 0.248,-1.756c0.429,-0.01 0.634,0.737 1.063,0.726Z" style="fill:#e6c890;"/><path d="M226.099,750.79c-0.113,-0.103 -1.408,-1.29 -1.408,-1.29c0.027,-0.3 0.587,-0.608 0.809,-0.404c0.442,0.404 0.158,1.29 0.599,1.694Z" style="fill:#e0bda2;"/><path d="M461.664,556.802c-0.446,0.522 0.074,0.682 -0.401,1.238c-0.04,0.047 -0.291,0.341 -0.763,0.125c-1.167,-0.534 0.339,-0.398 1.164,-1.364Z" style="fill:#e0878a;"/><path d="M137.032,751.903c-0.441,0.532 -0.882,1.064 -1.323,1.597c0.183,-0.695 -0.404,-0.599 -0.209,-1.338c0.014,-0.054 0.05,-0.19 0.637,-0.289c0.294,-0.05 0.601,0.081 0.895,0.031Z" style="fill:#dab477;"/><path d="M291.902,545.683c0.556,-1.889 0.429,-2.033 0.598,-2.033c1.498,0 -0.19,0.646 -0.598,2.033Z" style="fill:#f9d7c5;"/><path d="M291.501,453.485c1.075,-0.505 1.103,-1.824 1.625,-0.763c0.206,0.419 -0.016,0.427 0.193,0.853c-0.606,-0.03 -1.212,-0.06 -1.818,-0.09Z" style="fill:#f9d3b6;"/><path d="M326.172,603.552c0.003,0.13 0.035,1.621 0.035,1.621c-1.05,0.493 -0.009,-0.417 -0.035,-1.621Z" style="fill:#f9c1b5;"/><path d="M173.057,671.746l0.494,0.653c-0.538,-0.378 -0.584,0.487 -1.133,0.101c-0.557,-0.391 0.182,-0.214 0.639,-0.754Z" style="fill:#704436;"/></g></svg>