<?xml version="1.0" encoding="UTF-8" standalone="no"?><!DOCTYPE svg PUBLIC "-//W3C//DTD SVG 1.1//EN" "http://www.w3.org/Graphics/SVG/1.1/DTD/svg11.dtd"><svg width="100%" height="100%" viewBox="0 0 1024 1024" version="1.1" xmlns="http://www.w3.org/2000/svg" xmlns:xlink="http://www.w3.org/1999/xlink" xml:space="preserve" xmlns:serif="http://www.serif.com/" style="fill-rule:evenodd;clip-rule:evenodd;stroke-linejoin:round;stroke-miterlimit:2;"><g id="Background"><path d="M1007.323,493.528c2.585,3.271 27.98,27.787 10.689,54.519c-7.074,10.937 -22.98,18.064 -25.305,19.106c-4.474,2.005 -3.824,2.979 -7.805,19.726c-43.356,182.357 -98.981,208.888 -118.773,225.368c-2.724,2.268 4.457,4.111 0.538,18.653c-0.605,1.214 -1.829,7.596 -10.921,11.858c-2.841,1.331 -5.305,1.038 -3.176,3.392c0.353,0.39 1.861,0.384 5.599,5.245c10.116,13.158 6.949,49.661 -46.372,30.998c-23.359,-8.176 -23.008,-28.011 -22.954,-31.077c0.15,-8.495 2.305,-10.907 -1.531,-10.402c-29.016,3.818 -89.523,18.9 -324.309,17.399c-148.875,-0.951 -208.668,-12.551 -226.487,-16.008c-8.747,-1.697 11.946,36.318 -40.37,44.457c-3.255,0.506 -35.432,5.512 -35.841,-19.872c-0.097,-6.028 2.81,-15.519 9.194,-20.158c3.968,-2.883 -1.137,-3.348 -2.502,-4.075c-5.477,-2.92 -6.811,-5.342 -8.229,-7.138c-7.29,-16.354 1.132,-17.957 -2.064,-22.268c-3.751,-5.061 -54.668,-24.518 -98.418,-151.221c-8.663,-25.088 -22.067,-82.41 -23.756,-89.632c-1.508,-6.447 -35.329,-10.351 -34.514,-44.346c0.332,-13.852 9.718,-26.832 15.044,-30.176c0.247,0.533 0.494,1.065 0.741,1.598c-0.512,4.136 0.251,4.167 -1.157,8.072c-6.045,5.448 -6.028,16.829 -6.124,18.083c-0.238,4.274 -0.145,4.172 0.309,8.456c2.998,14.372 -0.743,26.93 94.339,49.23c22.867,5.363 140.886,26.105 326.791,29.83c63.467,1.272 63.658,1.282 65.209,0.114c-11.129,-4.256 -12.451,-4.901 -13.495,-5.41c-24.798,-11.377 -25.951,-20.102 -27.164,-23.538c-0.116,-1.997 -0.232,-3.994 -0.348,-5.991c0.283,-1.389 0.566,-2.779 0.849,-4.168c15.838,-24.593 34.42,-3.383 38.245,-6.979c8.994,-8.455 7.929,-10.341 15.057,-11.414c8.742,-1.316 15.929,13.788 19.664,12.159c4.733,-2.063 22.98,-14.75 34.968,5.906c0.098,0.548 0.031,0.423 1.041,6.873c-1.393,12.049 -8.368,15.657 -18.019,22.37c-13.503,6.932 -30.922,11.932 -15.655,11.237c17.283,-0.788 308.634,0.115 448.903,-48.523c39.624,-13.74 35.865,-32.524 35.849,-32.907l0.442,-1.217l0.043,-1.197c-0.628,-10.141 2.016,-16.755 -13.538,-33.08c4.133,-4.315 4.639,-3.591 5.315,-3.852Z" style="fill:#653a14;"/><path d="M869.128,371.022c-4.093,3.22 -4.465,2.849 -6.834,7.391l-1.457,1.202c-0.095,-0.639 0.071,-0.536 -0.027,-1.198c-0.041,-0.274 -0.047,-0.253 -0.632,-3.409c2.146,-2.891 18.078,-24.35 43.271,-14.248c20.805,8.342 22.527,21.113 24.65,29.604c0.351,1.403 4.548,0.599 4.938,0.524c3.51,-0.672 27.651,-5.296 42.271,14.238c8.679,11.597 6.375,17.708 6.893,22.375c0.439,3.949 19.734,5.228 28.11,25.028c7.96,18.818 0.215,33.686 -2.987,41c-0.676,0.261 -1.182,-0.463 -5.315,3.852c-2.875,5.401 -1.008,5.621 0.406,11.565c-0.272,1.318 -0.443,11.862 -13.503,18.587c-13.918,7.168 -29.393,1.113 -31.117,4.342c-1.633,3.061 -4.584,16.334 -24.973,22.144c-12.696,3.618 -25.489,-2.482 -29.139,-0.582c-22.469,11.696 -30.346,1.635 -36.954,8.038c-30.926,29.965 -55.205,0.348 -58.627,0.472c-0.709,0.026 -4.677,0.169 -8.671,1.83c-3.832,1.593 -4.092,31.629 -41.431,27.388c-15.147,-4.066 -13.301,-8.069 -18.447,-9.143c-2.366,-0.494 -6.641,2.776 -14.739,4.307c-14.504,2.741 -20.804,-0.441 -24.212,-1.245c-1.409,-0.588 -10.813,-4.508 -15.565,-10.908c-5.195,-7.163 -7.344,-2.49 -17.596,-3.583c-7.169,-0.764 -7.965,7.62 -19.666,6.948c-10.564,-0.606 -20.809,12.161 -47.523,2.711c-10.399,-3.678 -10.152,-8.014 -17.567,-4.802c-9.449,4.093 -10.091,1.936 -18.702,5.248c-1.01,-6.449 -0.944,-6.325 -1.041,-6.873c-11.989,-20.655 -30.235,-7.969 -34.968,-5.906c-3.735,1.628 -10.922,-13.475 -19.664,-12.159c-7.128,1.073 -6.063,2.958 -15.057,11.414c-3.825,3.596 -22.407,-17.615 -38.245,6.979c-7.729,-2.722 -8.116,-1.462 -15.3,-5.292c-8.505,-7.361 -9.76,-6.043 -16.316,-15.233c-7.651,-10.726 -2.053,2.877 -1.89,3.119c3.154,4.703 3.16,4.557 7.084,8.547c4.211,3.376 5.105,2.315 8.278,6.703c-18.864,22.452 -34.676,4.528 -40.446,11.819c-1.893,2.393 -15.941,20.146 -37.324,9.862c-11.754,-5.653 -11.57,-12.714 -12.69,-16.395c-0.732,-2.404 -10.151,1.181 -10.641,1.261c-18.924,3.107 -31.145,-8.589 -31.642,-8.926c2.585,-9.014 2.017,-16.117 1.905,-17.522c-2.985,-9.113 -3.661,-11.061 -10.554,-16.241c-0.77,-1.135 -4.669,-6.882 -16.041,-6.606c-5.737,0.139 6.158,13.132 2.073,16.35c-2.434,1.918 -11.671,-8.619 -18.811,3.021c-1.758,2.865 -2.707,12.208 7.175,16.052c3.565,1.387 4.927,2.638 1.781,4.762c-8.819,5.956 -12.72,4.031 -15.468,3.848l-1.224,0.444l-1.361,1.186c-0.664,-0.807 -6.316,-7.681 -6.964,-11.017c-3.789,-19.52 8.363,-27.057 11.085,-29.766c-0.092,-0.441 -0.184,-0.882 -0.277,-1.324c-3.588,0.378 -12.753,4.26 -16.723,16.959c-2.594,-1.122 -2.559,-1.259 -2.798,-1.211c-1.107,0.223 -0.951,0.347 -5.264,3.012c-3.476,2.148 -23.39,14.455 -51.365,-1.559c-2.019,-1.156 -1.623,0.511 -2.209,0.695l-1.443,1.52c-0.368,-0.437 -0.736,-0.874 -1.104,-1.312c-2.197,-5.952 -6.769,-14.303 -6.128,-21.646c0.442,-5.064 3.4,-9.166 -1.002,-6.86c-1.77,0.927 -2.882,9.529 -2.993,10.385c-16.306,13.712 -37.258,4.572 -43.717,-3.456c-1.363,-1.694 -0.925,-2.445 -3.102,-2.504c-0.223,-1.642 -1.712,-12.601 -10.215,-18.128c-3.303,-3.959 -3.542,-4.462 -8.625,-3.49c-2.215,0.424 -0.912,2.561 -2.112,2.752c-0.354,0.056 -0.27,-0.154 -4.478,-0.146c0.805,5.091 3.2,9.077 -3.335,7.603c-9.915,-2.236 -15.311,10.84 -5.824,18.443c5.114,4.099 -0.948,6.731 -6.271,6.372c-4.412,-0.297 -7.125,1.062 -7.681,1.34c-5.75,-6.594 -4.826,-7.078 -6.806,-12.416c0.264,-0.758 0.527,-1.516 0.791,-2.274c1.111,-3.525 1.7,-3.434 1.203,-7.029c-4.254,-4.816 -5.096,-0.646 -12.096,1.902c-7.91,2.879 -11.302,1.457 -13.351,1.294l-1.224,0.137l-1.224,1.052l-1.218,1.419c-29.366,-18.37 -14.82,-50.873 12.169,-56.543c1.25,-0.263 2.514,-0.461 3.764,-0.723c6.722,-0.995 6.673,-0.315 13.412,-0.266c0.498,0.004 3.004,-3.221 -4.809,-3.858c-9.442,-0.77 -19.801,2.282 -11.971,-2.897c1.661,-1.099 5.814,-4.484 20.473,-7.609l0.741,1.753c14.184,12.027 4.785,-21.159 49.61,-32.208c0.285,-0.07 16.412,-2.411 28.03,0.172c5.991,0.349 0.745,-5.836 -15.989,-6.38c-5.588,-0.182 -14.01,1.321 -15.776,-20.743l1.11,0.244c11.83,8.919 33.073,-7.25 33.82,-12.266c2.637,-17.701 25.014,-11.646 24.726,2.467c-0.014,0.686 -2.023,7.401 6.456,2.625c3.626,-2.043 6.047,-4.502 8.953,-9.969c0.222,0.69 4.119,8.158 0.671,10.899c-1.915,1.522 -19.094,15.178 -18.637,24.047c0.578,11.212 5.032,-21.404 38.225,-23.21c27.211,-1.481 36.779,23.615 39.955,21.51c0.7,-0.464 11.311,-29.029 46.862,-23.069c13.593,2.279 21.515,11.019 22.73,14.199c0.851,2.226 1.489,4.526 2.315,6.761c4.479,12.129 7.896,9.499 8.255,8.622c0.719,-1.756 0.124,-1.7 -0.468,-3.559l1.524,0.316c1,0.225 0.789,1.305 2.4,0.54c3.964,-1.884 4.807,-4.35 6.128,-4.695c14.83,-3.869 14.498,-4.592 27.69,-12.346c3.54,-2.081 2.885,-15.642 21.289,-13.816c12.034,1.194 13.698,13.741 13.914,15.37c5.719,1.202 5.445,-0.466 10.2,-3.955c1.238,-0.909 0.63,-1.458 13.162,-13.872l0.882,-1.267c0.31,0.734 3.848,9.098 3.904,9.159c0.261,0.285 0.519,-1.142 0.78,-0.857c0.376,0.019 0.752,0.039 1.128,0.058c4.599,-6.966 24.249,-17.592 42.93,-5.387l0.893,0.688l1.153,1.197l1.625,0.794l1.474,1.686c-12.917,31.243 -26.331,12.448 -34.239,18.262c-2.555,1.878 -4.675,9.111 -1.462,10.309c4.372,1.63 4.199,1.834 8.188,4.115c4.956,5.068 5.201,4.955 7.38,11.556c0.184,8.548 -1.219,12.816 1.659,9.83c5.92,-6.141 9.466,-6.899 9.85,-7.099c11.026,-3.861 10.985,-4.257 23.086,-4.295c8.77,1.073 23.043,2.059 36.115,19.875c2.467,3.362 6.095,11.305 6.59,15.193c0.798,6.262 1.547,6.313 7.403,8.717c10.076,-1.582 9.652,-3.031 19.625,-4.677c4.252,-0.139 4.162,-0.239 8.493,-0.157c18.013,2.054 16.92,5.303 30.466,10.983c0.851,1.722 4.095,6.91 4.466,7.502c5.345,8.547 4.995,10.621 10.274,9.469c44.709,-9.753 43.081,16.202 51.651,12.615c0.303,-0.127 9.034,-10.901 26.81,-8.504c12.02,1.621 13.722,8.765 16.777,3.364c6.536,-11.554 7.623,-10.669 17.478,-19.586c3.809,-1.514 7.85,-2.864 8.539,-3.094c6.184,-1.545 6.092,-1.38 12.295,-2.18c12.686,0.061 12.543,0.798 19.532,2.475c3.687,0.885 2.525,-1.252 3.024,-4.905c1.239,-9.064 5.693,-17.56 5.824,-17.872c8.325,-13.646 18.445,-23.321 40.173,-26.268c13.117,-0.103 15.902,-0.476 30.444,5.969l2.292,1.41c7.924,6.533 7.87,6.452 14.455,14.268c4.645,7.715 4.656,7.879 5.433,7.977c0.644,0.081 0.613,0.077 7.361,-3.353c7.201,-1.848 6.891,-2.375 7.242,-2.571c0.347,0.143 0.448,1.247 2.632,1.085c10.803,-0.798 22.391,9.084 25.739,22.845c2.261,9.292 20.042,-3.403 38.599,29.055c0.831,4.692 1.044,4.528 1.645,9.286c0.854,6.767 31.052,5.981 36.269,-8.526c5.257,-14.619 -9.459,-21.035 -10.378,-21.625c-2.3,-2.115 -2.302,-2.074 -2.485,-2.271c-0.166,-2.258 0.177,-3.226 2.24,-2.218c8.863,4.329 11.344,8.995 14.22,5.471c18.777,-23.014 0.716,-55.951 -20.315,-56.815c-4.909,-0.202 -1.044,7.181 -15.956,13.194c-10.779,4.346 0.808,-2.601 1.01,-2.722c14.636,-8.775 17.36,-43.473 -15.729,-48.635c-19.75,-3.081 -29.655,12.6 -27.01,0.816c1.076,-4.796 0.723,-4.731 0.043,-9.542c-8.579,-29.391 -37.592,-25.057 -46.263,-20.152c-1.765,0.998 -3.421,2.174 -5.186,3.173Z" style="fill:#e6eef1;"/><path d="M472.982,372.359c-1.044,-3.086 -7.781,-23.011 5.138,-40.325c7.36,-9.865 1.028,-13.533 8.407,-37.342c28.344,-91.458 102.499,-104.446 113.33,-108.376c7.112,-2.581 -10.541,-61.135 2.721,-63.619c5.656,-1.059 35.138,28.826 38.977,29.771c4.666,1.148 26.947,-38.664 33.174,-41c6.814,-2.556 9.896,7.284 10.495,8.567c16.504,35.367 18.117,36.816 20.227,36.201c11.45,-3.338 39.53,-27.341 46.334,-20.827c5.977,5.722 -11.482,47.006 -10.761,53.823c0.373,3.521 45.445,13.732 82.489,59.067c41.986,51.382 25.5,105.415 27.713,108.369c7.283,9.721 6.553,10.101 8.95,18.341c0.585,3.157 0.592,3.135 0.632,3.409c0.098,0.662 -0.068,0.559 0.027,1.198c-0.54,8.56 -0.336,8.517 -2.54,16.761c-3.896,7.337 -4.033,7.193 -9.32,13.547c-2.204,2.649 -0.598,2.988 0.824,9.171c5.428,11.596 7.407,14.143 21.996,13.743c4.951,-0.714 4.796,-0.824 9.672,-2.078l1.276,-0.108c0.897,0.069 6.885,0.526 8.004,7.737c1.613,10.399 -0.322,18.639 -0.692,20.216c-0.352,0.196 -0.041,0.722 -7.242,2.571c-0.313,-0.222 -0.773,0.62 -1.086,0.398c-1.324,-0.942 -0.638,-1.196 -0.423,-2.802c0.877,-6.564 0.149,-6.479 -0.293,-13.299c-0.054,-0.636 0.716,-5.603 -3.119,-4.678c-1.618,0.391 -13.829,3.337 -20.831,-0.363l-1.496,1.852l-2.292,-1.41c-0.234,-0.558 0.351,-1.248 0.117,-1.805c-0.651,-1.548 -2.31,0.061 -6.831,-5.968c-8.069,-10.761 -3.417,-18.135 -10.296,-15.167c-8.202,3.539 -10.479,1.246 -11.417,5.843c-0.864,-0.679 -1.25,-1.832 -2.114,-2.511c-1.241,-0.975 -2.059,3.121 -19.664,-2.948c-4.599,-1.586 -5.726,9.991 -26.018,30.25c-12.797,12.777 -37.595,25.641 -37.969,26.673c-1.001,2.758 2.495,7.825 2.902,8.414c-0.689,0.23 -4.73,1.581 -8.539,3.094c-2.115,-2.229 -1.8,-2.314 -2.913,-5.159c-1.745,-4.457 -3.214,-2.306 -7.966,-0.969c-52.992,14.905 -81.262,9.734 -116.576,1.268c-13.546,-5.68 -12.453,-8.929 -30.466,-10.983c-1.911,-3.972 -2.604,-3.333 -6.365,-5.763c-36.482,-23.566 -43.96,-36.243 -57.412,-69.878c-0.753,-1.883 -5.167,-1.382 -9.503,-1.457c-3.784,-0.895 -3.666,-0.949 -7.508,-1.845c-4.221,-0.985 -5.539,11.435 -13.887,18.214c-12.103,9.828 -20.713,6.682 -23.962,6.562c-1.536,-0.057 -1.562,4.787 -1.564,5.223c-3.989,-2.281 -3.816,-2.485 -8.188,-4.115c-3.214,-1.198 -1.094,-8.43 1.462,-10.309c7.909,-5.814 21.323,12.981 34.239,-18.262c0.53,-2.408 1.051,-2.667 -0.727,-4.379c-7.112,-6.848 -6.706,-8.315 -9.122,-12.537Z" style="fill:#5a3313;"/><path d="M116.753,609.089c21.938,5.009 92.085,21.024 280.172,27.673c176.373,6.235 314.625,-4.231 337.759,-5.536l0.305,0.997c15.154,14.568 -26.29,66.776 -37.754,75.933c-1.185,0.946 -13.016,14.477 -41.185,32.544c-7.134,4.576 -55.06,28.695 -94.004,37.089c-89.356,19.26 -161.581,14.306 -216.548,8.181c-4.701,-0.524 -35.025,-4.708 -48.827,-8.04c-8.535,-2.061 -8.522,-1.528 -17.155,-3.614c-17.179,-4.151 -18.682,-5.707 -18.84,-3.217c-0.089,1.403 -0.474,1.161 -1.026,2.513c-16.952,-22.921 -40.706,-6.867 -42.612,-10.903c-12.262,-25.967 -27.82,-26.417 -46.264,-20.964c-9.923,-4.79 -11.647,-7.528 -13.359,-11.509c-31.392,-72.972 -29.946,-73.711 -33.433,-86.033c-1.022,-3.612 -10.526,-31.351 -9.017,-33.529c0.451,-0.651 1.337,-0.933 1.788,-1.584Z" style="fill:#fcf9ed;"/><path d="M963.338,576.715l-0.333,1.633c-1.76,14.816 -16.118,77.571 -36.906,121.161c-3.808,7.984 -14.935,36.811 -45.167,72.307c-1.085,1.274 -4.458,5.234 -15.305,14.332c-1.149,0.964 -1.106,0.978 -1.224,0.94c-1.303,-0.42 -0.304,-1.432 -1.606,-1.852c23.463,-46.97 -40.003,-61.826 -54.221,-27.118c-1.933,4.719 -1.4,5.269 -2.981,5.548c-2.238,0.395 -30.839,-14.276 -44.793,14.784c-0.769,0.085 -1.087,-1.448 -1.856,-1.364c-2.193,0.241 -1.465,1.431 -3.459,2.397c-15.278,7.407 -28.903,19.991 -72.36,31.749c-76.598,20.724 -266.716,17.228 -365.852,2.208c-28.944,-4.385 -55.453,-13.246 -56.2,-13.393l-1.628,-0.409c4.657,-9.827 6.035,-13.839 0.202,-26.026c0.552,-1.351 0.937,-1.11 1.026,-2.513c0.159,-2.491 1.661,-0.934 18.84,3.217c8.633,2.086 8.62,1.553 17.155,3.614c13.803,3.332 44.126,7.517 48.827,8.04c54.967,6.125 127.192,11.078 216.548,-8.181c38.944,-8.394 86.87,-32.513 94.004,-37.089c28.169,-18.067 40,-31.598 41.185,-32.544c11.464,-9.157 52.908,-61.365 37.754,-75.933l-0.305,-0.997c-23.134,1.305 -161.386,11.77 -337.759,5.536c-188.087,-6.649 -258.233,-22.664 -280.172,-27.673c-2.548,-0.68 -12.404,-3.136 -13.483,-3.405c-11.352,-3.289 -11.148,-3.5 -22.193,-7.875c-7.812,-3.903 -7.627,-4.014 -15.234,-8.074c-3.845,-4.456 -1.066,-5.447 -3.219,-10.859c3.271,0.801 56.73,18.301 188.689,30.346c151.072,13.789 427.937,17.361 619.246,-12.672c57.323,-8.999 73.418,-14.762 92.779,-19.835Z" style="fill:#e6ddd4;"/><path d="M866.667,830.9c0.18,0.342 -0.563,0.75 -0.383,1.092c1.615,3.061 25.873,2.377 54.508,16.759c44.908,22.555 -35.326,41.353 -106.635,48.761c-293.088,30.45 -607.137,9.857 -684.005,-10.361c-17.27,-4.542 -50.351,-13.003 -34.31,-29.876c11.592,-12.193 57.859,-19.471 62.923,-21.756c1.418,1.796 2.752,4.218 8.229,7.138c1.365,0.728 6.47,1.192 2.502,4.075c-6.384,4.638 -9.291,14.129 -9.194,20.158c0.409,25.384 32.586,20.378 35.841,19.872c52.316,-8.139 31.623,-46.154 40.37,-44.457c17.819,3.457 77.613,15.056 226.487,16.008c234.787,1.5 295.294,-13.581 324.309,-17.399c3.837,-0.505 1.682,1.907 1.531,10.402c-0.054,3.067 -0.406,22.901 22.954,31.077c53.321,18.663 56.487,-17.84 46.372,-30.998c-3.737,-4.861 -5.246,-4.855 -5.599,-5.245c-2.129,-2.354 0.336,-2.06 3.176,-3.392c9.092,-4.261 10.316,-10.644 10.921,-11.858Z" style="fill:#e6ddd7;"/><path d="M518.281,318.595c2.072,1.918 2.002,2.001 2.238,2.072c1.549,0.464 36.353,-3.989 37.977,-4.26c80.549,-13.448 104.18,-51.345 108.827,-51.332c3.243,0.009 10.81,36.127 74.914,66.251c15.389,7.232 55.363,19.494 63.424,19.5l1.617,-1.179c-2.078,30.76 -5.723,41.371 -16.005,63.634c-0.052,-0.002 -1.335,-2.173 -3.204,-0.147c-0.17,0.185 -0.959,1.039 -2.026,2.394c-32.006,40.643 -103.361,57.967 -178.704,39.756c-47.271,-11.426 -74.358,-44.855 -79.756,-55.319l-0.535,-1.197l-1.011,-1.197l-0.623,-1.033l-1.224,-1.002l-1.529,0.944c-7.645,-25.819 -9.715,-40.945 -4.38,-77.883Z" style="fill:#fadaa9;"/><path d="M604.977,209.609c0.039,0.796 -0.02,1.595 0.02,2.391c0.54,10.925 58.788,19.758 92.969,16.73c32.676,-2.895 33.019,-5.439 34.912,-10.887l2.33,-1.053c0.617,0.03 0.081,-1.71 0.698,-1.679c6.016,0.296 57.118,21.757 85.142,67.858c21.417,35.231 15.809,51.058 16.584,60.697c0.236,2.94 -1.326,2.483 -1.612,3.016c-8.435,-1.302 -8.388,-0.916 -16.96,-1.41c-3.009,-0.174 -1.059,-5.225 -4.892,-6.189c-5.065,-1.275 -35.665,-8.978 -60.835,-23.407c-73.441,-42.103 -71.27,-74.616 -77.919,-80.387c-9.434,-8.187 -9.55,14.653 -61.819,41.489c-49.523,25.427 -90.288,29.37 -99.249,30.701c-5.09,0.756 -5.303,8.108 -5.499,8.868c-0.228,0.886 -0.483,1.871 -11.365,2.612c-1.937,-19.983 15.585,-45.014 17.964,-48.414c34.06,-48.658 80.561,-58.788 88.289,-60.867l1.24,-0.069Z" style="fill:#ba6f3b;"/><path d="M760.803,778.449c-0.095,0.647 -3.264,10.331 2.255,20.06c8.347,14.712 20.426,10.685 27.002,23.932c-30.123,6.266 -32.277,6.186 -37.064,7.074c-67.111,12.449 -223.644,14.729 -283.877,13.452c-112.55,-2.385 -148.104,-1.632 -233.69,-17.581c-3.438,-0.641 -2.325,-1.902 -2.925,-2.921c4.327,-12.712 13.083,-4.878 26.944,-22.827l1.628,0.409c0.747,0.147 27.256,9.008 56.2,13.393c99.136,15.02 289.254,18.516 365.852,-2.208c43.457,-11.757 57.081,-24.342 72.36,-31.749c1.994,-0.966 1.266,-2.156 3.459,-2.397c0.769,-0.085 1.087,1.448 1.856,1.364Z" style="fill:#dbcec3;"/><path d="M1010.556,518.037c3.259,5.523 3.525,5.623 2.971,13.595l1.533,1.242c0.016,0.383 3.775,19.167 -35.849,32.907c-140.269,48.638 -431.62,47.736 -448.903,48.523c-15.267,0.696 2.152,-4.305 15.655,-11.237c1.49,2.258 1.382,3.368 3.926,2.389c15.132,-5.828 19.252,-16.367 20.037,-18.374c0.534,-1.366 0.868,-2.219 17.798,-5.576c6.614,-1.311 28.657,13.504 55.102,3.867c12.506,-4.557 14.358,-0.853 21.975,-6.022c8.899,-6.038 15.026,-1.802 18.376,-3.075c0.883,-0.335 0.976,-1.767 1.859,-2.102c4.752,6.399 14.156,10.32 15.565,10.908l-1.409,2.107l1.224,1.062l1.224,0.34l1.224,0.452c25.131,9.166 34.322,-2.265 39.208,-1.251c0.843,0.175 0.327,1.247 9.743,4.488c4.011,1.381 3.961,1.428 4.895,1.595l1.224,0.303l1.224,-1.056l1.224,0.218l1.224,0.268l1.224,0.384l1.224,0.186l1.224,-0.005l1.224,-0.081l1.224,0.018l1.224,0.137l1.224,0.145l1.224,0.019l1.224,-0.024l1.224,-0.021l1.224,-0.069l1.224,-0.166c4.221,-2.176 8.015,-0.853 14.27,-5.56c14.59,-10.981 9.698,-16.258 14.108,-18.119c9.359,-3.949 9.708,0.533 13.231,2.361c7.172,3.722 34.081,13.779 51.408,-4.034c6.307,-6.483 8.216,-1.632 29.26,-5.295c9.958,-1.734 9.582,-4.119 19.711,-3.461c42.421,2.756 39.315,-22.934 47.727,-23.27c4.477,-0.179 24.83,2.105 38.872,-12.51c2.963,-3.084 2.087,-3.858 5.68,-6.205Z" style="fill:#f5e0a7;"/><path d="M869.128,371.022c0.098,0.284 2.56,0.151 0.897,2.603c-3.342,4.928 -3.271,15.046 4.064,19.314c11.196,6.514 19.174,-0.139 20.918,-0.123c9.154,0.084 10.608,1.507 11.257,2.142c0.836,0.818 2.381,2.329 13.21,-6.502l1.104,-0.454c0.681,4.811 1.034,4.746 -0.043,9.542c-2.644,11.784 7.261,-3.897 27.01,-0.816c33.089,5.162 30.365,39.86 15.729,48.635c-0.202,0.121 -11.789,7.068 -1.01,2.722c14.911,-6.013 11.046,-13.395 15.956,-13.194c21.031,0.864 39.092,33.801 20.315,56.815c-2.876,3.525 -5.358,-1.141 -14.22,-5.471c-2.063,-1.008 -2.406,-0.039 -2.24,2.218c0.183,0.197 0.184,0.156 2.485,2.271c-0.101,1.375 -1.811,-0.001 -1.915,1.425c-0.017,0.232 0.434,-0.116 1.632,2.423c6.755,14.31 -13.957,20.44 -24.698,16.131c-2.436,-0.977 -2.124,0.737 -2.554,0.886c-18.557,-32.457 -36.339,-19.763 -38.599,-29.055c-3.348,-13.761 -14.936,-23.643 -25.739,-22.845c-2.184,0.161 -2.285,-0.942 -2.632,-1.085c0.37,-1.577 2.305,-9.817 0.692,-20.216c-1.119,-7.211 -7.106,-7.669 -8.004,-7.737c0.565,-1.384 4.205,-10.301 -2.826,-18.429c-5.757,-6.656 -14.996,-8.517 -15.417,-8.842c-3.312,-2.562 -2.195,-3.332 -4.993,-6.565l-1.212,-0.438c2.204,-8.244 2,-8.201 2.54,-16.761l1.457,-1.202c2.37,-4.542 2.741,-4.171 6.834,-7.391Z" style="fill:#edf3f3;"/><path d="M472.982,372.359c2.416,4.222 2.011,5.689 9.122,12.537c1.778,1.712 1.257,1.971 0.727,4.379l-1.474,-1.686l-1.625,-0.794l-1.153,-1.197l-0.893,-0.688c-18.68,-12.205 -38.33,-1.579 -42.93,5.387l-1.128,-0.058c-0.261,-0.285 -0.519,1.142 -0.78,0.857c-0.056,-0.061 -3.594,-8.425 -3.904,-9.159c-0.201,-0.385 -4.087,-10.613 -12.824,-17.4c-42.331,-32.888 -99.965,6.177 -84.365,51.124c0.592,1.859 1.187,1.803 0.468,3.559c-0.359,0.877 -3.776,3.507 -8.255,-8.622c-0.825,-2.235 -1.464,-4.535 -2.315,-6.761c-1.216,-3.18 -9.138,-11.92 -22.73,-14.199c-35.551,-5.96 -46.162,22.605 -46.862,23.069c-3.176,2.104 -12.744,-22.991 -39.955,-21.51c-33.192,1.806 -37.647,34.422 -38.225,23.21c-0.457,-8.869 16.721,-22.525 18.637,-24.047c3.448,-2.741 -0.449,-10.209 -0.671,-10.899c-15.37,-37.422 -74.922,-28.594 -75.064,16.899c1.766,22.065 10.188,20.561 15.776,20.743c16.734,0.544 21.98,6.729 15.989,6.38c-11.618,-2.583 -27.745,-0.242 -28.03,-0.172c-44.825,11.05 -35.426,44.235 -49.61,32.208c0.285,-1.528 2.084,-2.25 0.432,-2.313c-0.711,-0.027 -0.42,0.588 -1.173,0.559c-14.66,3.125 -18.812,6.511 -20.473,7.609c-7.83,5.178 2.529,2.127 11.971,2.897c7.813,0.637 5.306,3.862 4.809,3.858c-6.739,-0.049 -6.69,-0.729 -13.412,0.266c-1.25,0.263 -2.514,0.461 -3.764,0.723c-26.989,5.669 -41.535,38.173 -12.169,56.543c10.497,4.471 10.721,4.687 24.563,2.967c0.852,0.177 1.704,0.354 2.556,0.531c1.98,5.338 1.057,5.822 6.806,12.416c1.302,1.207 8.762,8.126 21.172,7.23c8.373,-0.605 12.199,-3.774 16.773,-7.981c0.781,-0.019 0.839,1.072 2.565,-0.063c1.188,-0.781 1.222,-0.408 5.983,-0.547c5.885,10.596 28.723,18.202 47.97,12.649c2.561,-0.739 2.451,-0.625 4.909,-1.252c3.09,-0.03 2.973,-0.017 6.11,-0.7c0.368,0.437 0.736,0.874 1.104,1.312c3.252,3.219 12.721,15.863 33.284,17.478c16.488,1.295 27.308,-5.637 29.327,-6.931c-0.904,-7.431 0.126,-10.005 0.468,-13.005c3.97,-12.7 13.135,-16.581 16.723,-16.959l0.277,1.324c-2.722,2.708 -14.875,10.246 -11.085,29.766c0.648,3.336 6.3,10.209 6.964,11.017c12.058,11.764 35.664,10.184 45.085,-6.462c0.79,0.428 0.466,1.796 5.441,1.169c0.497,0.337 12.719,12.033 31.642,8.926c0.49,-0.08 9.909,-3.665 10.641,-1.261c1.12,3.68 0.936,10.742 12.69,16.395c21.382,10.283 35.431,-7.47 37.324,-9.862c5.77,-7.292 21.581,10.633 40.446,-11.819c1.703,-0.726 2.7,-2.831 2.844,-3.135c7.183,3.83 7.57,2.57 15.3,5.292c-0.283,1.389 -0.566,2.779 -0.849,4.168l-0.949,0.562c-9.631,-0.157 -10.153,-2.683 -13.132,-0.146c-20.018,17.041 -28.62,9.467 -37.085,9.967c-2.64,0.156 -16.581,18.531 -36.732,13.894c-1.663,-0.349 -3.327,-0.699 -4.99,-1.048c-8.812,-3.71 -10.265,-3.2 -17.695,-11.71c-1.205,-2.154 0.082,-5.448 -6.673,-4.788c-22.411,2.187 -28.201,-5.235 -33.208,-7.385c-3.553,-1.526 -17.724,18.559 -47.18,7.279c-1.071,-0.712 -9.363,-6.229 -12.154,-10.457c-4.444,-6.732 -10.122,0.418 -21.219,1.509c-28.828,2.836 -38.153,-8.515 -48.073,-16.354c-4.382,-3.463 -18.976,5.489 -41.111,-0.982c-17.561,-5.134 -16.673,-14.053 -24.561,-8.936c-18.945,12.291 -37.299,1.001 -40.009,-0.666c-1.612,-1.543 -3.225,-3.086 -4.837,-4.63c-0.356,-0.53 -4.306,-6.4 -4.476,-6.61c-5.206,-6.423 -9.55,3.165 -31.084,-9.142c-7.78,-5.51 -6.173,-6.912 -12.742,-13.788c0.329,-4.96 -0.116,-4.873 -1.607,-7.342c1.408,-3.905 0.645,-3.936 1.157,-8.072c0.149,-1.978 2.205,-2.719 0.231,-3.081c-0.59,-0.108 -0.382,1.591 -0.972,1.483c4.037,-21.742 9.641,-18.988 24.647,-35.537c13.338,-14.71 34.072,-13.588 36.424,-16.985c19.856,-28.674 42.731,-24.003 39.336,-31.034c-21.38,-44.278 36.22,-85.018 74.234,-48.672c10.664,10.196 7.059,20.361 15.14,19.121c31.403,-4.819 43.359,18.615 47.307,14.789c1.689,-1.637 8.433,-10.542 22.509,-14.782c28.077,-8.456 45.334,8.545 47.616,6.816c0.72,-0.546 4.64,-33.088 41.732,-43.884c25.665,-7.47 55.385,2.665 67.939,24.986c2.328,4.139 2.102,6.215 6.567,4.485c22.021,-8.532 31.719,-2.681 33.057,-3.08c0.724,-0.216 0.691,-1.523 1.415,-1.739Z" style="fill:#91afcb;"/><path d="M16.249,514.887c6.57,6.876 4.962,8.278 12.742,13.788c0.176,0.727 -0.611,1.473 -0.435,2.199c0.375,1.551 12.986,7.9 23.249,10.372c5.379,1.296 5.915,0.406 9.794,4.35c0.754,0.767 1.123,0.62 1.224,0.58c1.229,-0.487 0.503,-1.265 1.729,-1.751c1.612,1.543 3.225,3.086 4.837,4.63l-0.914,1.756l0.467,0.602l1.224,1l1.432,0.793l1.016,0.763l1.224,0.816l1.224,0.639c10.301,3.93 20.957,9.144 40.45,0.32c4.851,-2.196 7.749,2.878 17.205,6.704c14.27,5.774 37.052,3.459 40.266,3.132c4.893,-0.497 5.389,2.455 22.009,10.511c5.293,2.565 11.343,3.922 12.362,4.151c28.623,6.419 32.305,-6.791 41.484,3.385l0.909,0.707l1.538,1.193l1.224,0.897l1.224,0.76l1.224,0.327l1.224,0.567l1.224,0.17c10.724,2.212 22.661,12.903 48.022,-3.337c4.269,-2.734 4.267,0.66 12.11,2.435c4.284,0.97 4.032,1.493 8.303,2.305c7.384,1.405 7.432,-0.459 14.785,0.652c1.5,0.227 1.388,-0.22 2.952,-0.467c7.429,8.51 8.883,8 17.695,11.71c2.787,2.625 4.168,1.122 4.99,1.048c20.151,4.638 34.092,-13.738 36.732,-13.894c8.465,-0.5 17.067,7.073 37.085,-9.967c2.979,-2.536 3.501,-0.011 13.132,0.146l0.949,-0.562c0.116,1.997 0.232,3.994 0.348,5.991l-1.297,0.649c-6.106,0.334 -6.685,-1.268 -11.424,2.5c-16.53,13.145 -32.885,3.327 -38.714,8.892c-6.468,6.175 -12.205,7.104 -13.416,7.3c-2.232,0.361 -1.306,1.199 -1.417,2.82c-3.226,-0.202 -6.453,-0.404 -9.679,-0.606c-4.229,-0.907 -4.163,-0.696 -8.587,-0.747c-94.615,-1.035 -349.099,-26.597 -359.609,-69.869l-1.538,-1.164c-0.454,-4.284 -0.547,-4.182 -0.309,-8.456l2.035,-1.155l0.772,-1.197c1.822,-4.58 2.412,-4.187 4.924,-8.389Z" style="fill:#f8f0c7;"/><path d="M65.842,589.736c7.607,4.06 7.421,4.17 15.234,8.074c-1.087,1.547 -2.715,1.942 5.062,28.41c13.815,47.017 14.086,46.91 33.579,91.921c5.524,12.757 22.802,16.685 23.465,10.855c1.16,-10.206 -8.979,-14.517 -26.324,-65.712c-6.407,-18.91 -11.458,-34.837 -16.101,-55.003c-0.803,-3.49 2.256,-2.474 2.513,-2.596c1.08,0.269 10.935,2.725 13.483,3.405c-0.451,0.651 -1.337,0.933 -1.788,1.584c-1.509,2.178 7.995,29.917 9.017,33.529c3.487,12.322 2.041,13.061 33.433,86.033c1.713,3.981 3.436,6.72 13.359,11.509c-11.087,6.971 -20.328,16.064 -13.571,37.681c-1.16,0.478 -1.666,1.971 -2.825,2.449c-0.46,0.19 -0.833,-0.544 -1.282,-0.757c-7.684,-3.64 -6.568,-4.888 -11.992,-11.19c-14.358,-10.032 -39.88,-60.27 -44.606,-71.633c-6.224,-14.964 -5.499,-15.107 -6.71,-18.196c-15.537,-39.635 -21.026,-72.157 -26.24,-88.581l2.295,-1.782Z" style="fill:#f7f2e8;"/><path d="M682.294,427.672c-0.466,0.528 -13.014,18.48 -38.185,16.829c-52.318,-3.433 -53.302,-77.594 -28.351,-66.795c53.743,23.259 70.475,-8.284 76.344,10.188c5.684,17.89 -7.903,37.087 -9.808,39.778Z" style="fill:#482715;"/><path d="M813.406,768.72l-0.162,1.185c-0.803,3.718 0.59,3.459 0.664,3.682c0.768,2.778 0.063,2.707 -2.03,4.695c-0.329,0.89 -0.659,1.779 -0.988,2.669c1.951,5.594 9.642,11.382 10.681,12.164l1.224,0.467c0.379,0.578 0.759,1.157 1.138,1.735c7.738,0.836 7.772,0.092 15.272,2.335c-2.6,3.417 -25.514,33.537 -14.173,51.406c6.184,9.744 17.779,-8.182 28.214,7.134c5.779,8.482 5.593,31.988 -31.52,22.135c-49.023,-13.014 -6.431,-54.339 -33.337,-68.684c-5.378,-2.867 -26.005,-9.847 -21.806,-28.949c2.802,-12.747 24.664,-21.009 40.506,-7.422c0.618,-0.105 2.35,-0.397 6.316,-4.552Z" style="fill:#f3c055;"/><path d="M204.516,764.414c1.754,4.04 0.716,5.984 5.161,5.62l1.011,-0.111c0.847,3.331 1.519,2.916 3.79,4.551c0.012,0.067 -0.861,5.259 3.661,3.392c14.795,-6.11 15.253,-8.079 30.694,-3.129c0.859,0.686 1.717,1.373 2.576,2.059c0.107,0.024 0.045,1.413 3.69,0.208c11.314,21.828 -21.238,32.586 -24.309,35.153c-18.872,15.766 18.137,56.959 -32.202,67.547c-45.704,9.613 -33.943,-36.031 -14.695,-29.274c6.191,2.173 6.429,3.866 12.283,0.835l0.695,1.244c0.101,0.515 0.944,0.682 1.045,1.197c0.893,4.549 -9.263,3.583 -12.235,4.104l-0.477,-2.056l-1.224,-0.889l-1.224,-0.59c-15.203,-4.79 -19.193,28.266 12.141,20.611c14.943,-3.65 15.993,-15.119 17.257,-18.778l1.754,-1.205l0.799,-1.197c3.103,-9.816 1.155,-9.916 0.432,-20.387c-0.274,-3.34 -3.549,-17.106 4.885,-28.31c7.173,-9.529 12.48,-7.643 16.8,-12.444c0.518,1.4 0.405,1.356 0.518,1.4c5.528,2.165 5.303,-10.287 -6.853,-8.463c-22.352,3.353 -24.378,31.333 -24.622,34.704c0.027,0.25 0.302,2.808 0.571,3.094c0.83,0.881 0.965,0.219 1.846,0.42c-0.053,0.121 -0.666,1.512 -0.666,1.512c-0.773,3.594 -0.919,3.451 -1.844,6.924l-0.238,1.197l-0.754,1.121l-0.794,1.273l-0.406,1.197l-0.565,1.197l-0.682,0.422l-1.366,0.768c-0.2,-3.848 -1.335,-25.635 -19.51,-44.221c-5.389,-5.511 -13.994,-5.758 -18.82,-21.449c1.054,-0.376 2.107,-0.751 3.161,-1.127c0.606,-6.517 -0.567,-6.927 3.327,-12.318c0.699,-0.967 5.219,-7.228 12.345,-8.565c14.314,-2.686 22.371,11.875 23.046,12.761Z" style="fill:#efb443;"/><path d="M444.81,460.924c-0.608,1.294 -1.227,1.012 -1.171,2.492c0.019,0.51 0.142,1.147 -0.219,1.516c-0.247,0.252 -0.822,-0.494 -1.046,-0.222c-0.449,0.546 -0.338,1.364 -0.46,2.054c-1.978,11.114 -52.549,31.565 -73.972,15.334c-10.842,-8.214 -8.058,-13.954 -8.864,-15.012c-3.747,-4.922 -0.332,7.616 -3.745,6.95c-2.832,-0.552 -2.692,-3.749 -9.791,-0.972c-16.508,6.458 -19.666,8.872 -30.591,-4.858c0.35,-1.845 2.915,-15.373 15.976,-17.491c22.241,-3.606 25.551,14.628 27.758,13.39c0.61,-0.342 9.049,-23.784 35.749,-27.258c35.65,-4.639 48.596,21.501 50.375,24.077Z" style="fill:#fcfcf7;"/><path d="M522.661,396.478l1.529,-0.944l1.224,1.002l0.623,1.033l1.011,1.197l0.535,1.197c5.398,10.464 32.485,43.894 79.756,55.319c75.343,18.211 146.698,0.888 178.704,-39.756c1.067,-1.355 1.856,-2.21 2.026,-2.394c1.868,-2.025 3.152,0.145 3.204,0.147c-46.734,94.428 -232.403,89.004 -268.612,-16.803Z" style="fill:#f3bb87;"/><path d="M62.623,578.877c2.153,5.412 -0.626,6.403 3.219,10.859l-2.295,1.782c5.214,16.423 10.703,48.946 26.24,88.581c1.211,3.088 0.486,3.232 6.71,18.196c4.726,11.363 30.248,61.601 44.606,71.633c5.424,6.302 4.307,7.55 11.992,11.19c0.449,0.213 0.822,0.947 1.282,0.757c1.16,-0.478 1.666,-1.971 2.825,-2.449c7.857,18.049 18.095,14.84 28.745,32.642c0.285,0.476 4.628,7.737 1.731,6.678c-24.44,-8.925 -68.975,-37.046 -101.654,-113.473c-4.193,-9.807 -28.276,-66.13 -40.017,-126.977c-0.924,-4.787 0.521,-4.505 0.884,-4.434c1.356,0.265 14.478,4.6 15.732,5.014Z" style="fill:#f9f6ed;"/><path d="M428.945,381.936l-0.882,1.267c-12.532,12.414 -11.924,12.963 -13.162,13.872c-4.755,3.489 -4.481,5.157 -10.2,3.955c-0.216,-1.629 -1.88,-14.176 -13.914,-15.37c-18.405,-1.826 -17.749,11.735 -21.289,13.816c-13.192,7.754 -12.86,8.477 -27.69,12.346c-1.322,0.345 -2.164,2.811 -6.128,4.695c-1.61,0.765 -1.399,-0.315 -2.4,-0.54l-1.524,-0.316c-15.6,-44.947 42.034,-84.012 84.365,-51.124c8.737,6.788 12.623,17.016 12.824,17.4Z" style="fill:#fbf9f9;"/><path d="M232.504,822.464c0.6,1.019 -0.513,2.28 2.925,2.921c85.587,15.949 121.141,15.196 233.69,17.581c60.234,1.276 216.767,-1.004 283.877,-13.452c4.787,-0.888 6.94,-0.808 37.064,-7.074c2.62,10.554 -3.858,9.103 -11.426,10.356c-149.032,24.667 -461.018,18.912 -541.9,0.035c-5.927,-1.383 -4.634,-5.001 -4.23,-10.367Z" style="fill:#f5ecdc;"/><path d="M896.272,143.727c18.599,33.342 -23.994,64.301 -52.429,39.296c-21.126,-18.577 -7.05,-57.045 26.698,-55.195c15.823,0.868 24.412,13.897 25.732,15.899Z" style="fill:#a8c4d7;"/><path d="M494.361,575.549c5.144,-7.753 4.656,-8.119 8.18,-11.135c1.305,-1.117 10.177,-8.708 19.987,8.211c3.52,6.071 5.187,1.681 12.903,-2.238c17.923,-9.103 37.957,12.166 6.754,30.146c-34.765,20.032 -38.819,12.593 -45.021,10.403c-19.836,-9.02 -27.768,-12.414 -34.535,-21.546c-0.477,-0.874 -3.832,-7.022 -2.013,-12.221c7.103,-20.304 29.674,-1.6 33.745,-1.62Z" style="fill:#f5cf67;"/><path d="M680.672,134.242c16.849,34.087 17.788,35.349 20.823,34.197c5.799,-2.2 20.189,-9.898 21.912,-10.82c4.801,3.457 2.093,4.543 -0.018,10c-0.769,1.987 -6.728,17.388 -9.626,24.837c-0.721,0.25 -1.442,0.5 -2.162,0.75l-1.395,-1.4c-6.622,-0.158 -11.265,0.368 -12.238,0.479l-1.292,1.071c-4.345,-0.09 -4.277,-0.252 -8.373,0.976c-0.951,-0.784 -0.314,-1.141 -1.349,-1.995c-0.075,-0.062 -0.263,-0.217 -1.224,-0.126c-9.009,0.852 -9.119,-0.249 -9.79,0.147c-0.691,0.407 -0.662,1.556 -1.353,1.963c-4.169,-1.854 -5.555,-2.168 -10.746,-0.895l-1.362,-1.402c-5.33,-0.09 -11.273,-1.345 -12.238,-1.548l-1.346,1.454c-3.403,-1.004 -3.326,-1.499 -8.368,-0.887c-0.352,-0.324 0.095,-1.754 -2.662,-2.45c-0.775,-0.196 -7.944,-2.005 -9.653,-2.57l-1.224,-0.54l-1.224,-0.427l-1.224,-0.188l-1.224,-0.906l-1.224,-0.225c-1.269,-0.641 -2.538,-1.281 -3.808,-1.922c-1.581,-14.623 -5.127,-34.769 1.196,-29.368c2.176,1.858 23.879,20.394 29.534,20.32c5.974,-0.077 19.475,-32.518 31.657,-38.524Z" style="fill:#f7cd4d;"/><path d="M518.281,318.595c1.395,-3.476 2.758,-1.951 29.278,-7.866c55.299,-12.332 96.617,-40.783 104.81,-47.627c17.007,-14.206 15.533,-16.155 17.456,-16.346c1.793,-0.178 1.265,0.761 3.015,4.471c3.445,7.301 19.273,40.851 72.918,70.817c42.384,23.676 59.31,20.7 61.52,27.602l-1.617,1.179c-8.061,-0.006 -48.035,-12.268 -63.424,-19.5c-64.105,-30.124 -71.672,-66.241 -74.914,-66.251c-4.647,-0.014 -28.278,37.884 -108.827,51.332c-1.624,0.271 -36.428,4.724 -37.977,4.26c-0.236,-0.071 -0.166,-0.153 -2.238,-2.072Z" style="fill:#f3bb87;"/><path d="M963.338,576.715c12.007,-4.063 14.751,-5.48 13.977,-1.916c-28.232,130.022 -69.916,183.577 -80.429,197.084c-23.972,30.798 -61.353,46.42 -61.779,45.651c-0.316,-0.571 3.691,-12.492 14.257,-19.432c11.193,-7.352 12.479,-11.383 13.433,-12.868c1.302,0.42 0.304,1.432 1.606,1.852c0.118,0.038 0.075,0.024 1.224,-0.94c10.847,-9.098 14.22,-13.058 15.305,-14.332c30.232,-35.496 41.359,-64.323 45.167,-72.307c20.788,-43.589 35.146,-106.345 36.906,-121.161l0.333,-1.633Z" style="fill:#f7f3ea;"/><path d="M8.827,534.084l1.538,1.164c10.51,43.271 264.993,68.834 359.609,69.869c2.862,0.249 5.724,0.498 8.587,0.747c3.226,0.202 6.453,0.404 9.679,0.606c7.075,0.123 80.449,1.4 88.418,2.263c3.852,0.417 3.698,-0.343 5.014,-0.885c1.044,0.509 2.366,1.153 13.495,5.41c-1.551,1.168 -1.742,1.158 -65.209,-0.114c-185.905,-3.725 -303.924,-24.467 -326.791,-29.83c-95.082,-22.3 -91.341,-34.858 -94.339,-49.23Z" style="fill:#e7aa43;"/><path d="M81.076,597.809c11.045,4.374 10.841,4.585 22.193,7.875c-0.256,0.121 -3.316,-0.894 -2.513,2.596c4.642,20.166 9.694,36.094 16.101,55.003c17.346,51.195 27.485,55.506 26.324,65.712c-0.663,5.831 -17.94,1.902 -23.465,-10.855c-19.492,-45.011 -19.764,-44.904 -33.579,-91.921c-7.777,-26.468 -6.149,-26.864 -5.062,-28.41Z" style="fill:#fdfdfd;"/><path d="M371.06,297.93c-38.765,17.163 -58.59,-38.779 -21.79,-49.692c31.144,-9.236 50.367,28.234 24.005,48.289c-0.694,0.528 -1.521,0.875 -2.215,1.403Z" style="fill:#9ebdd2;"/><path d="M732.877,217.843c3.061,-10.478 4.275,-16.109 4.537,-16.406c1.896,-2.152 51.11,14.048 84.989,62.297c25.408,36.184 20.659,84.762 17.535,84.389c-1.385,-0.165 -2.533,-1.276 -3.918,-1.441c0.285,-0.534 1.848,-0.076 1.612,-3.016c-0.775,-9.639 4.833,-25.465 -16.584,-60.697c-28.024,-46.101 -79.126,-67.562 -85.142,-67.858c-0.617,-0.03 -0.081,1.71 -0.698,1.679l-2.33,1.053Z" style="fill:#dd8b43;"/><path d="M900.263,505.959c11.192,16.685 -12.927,22.554 -15.102,23.083c-18.557,4.515 -29.02,7.383 -42.854,-5.71c-2.381,-2.254 -1.865,-2.577 -4.264,-4.858c1.456,-14.457 15.024,-38.694 49.315,-18.668c0.986,0.576 1.377,0.804 12.905,6.154Z" style="fill:#fbfbf5;"/><path d="M816.164,362.842c0.258,-1.986 0.221,-4.001 0.479,-5.987c0.685,-5.275 33.94,-3.138 34.473,23.948c0.743,37.716 -48.308,33.407 -46.203,26.419c3.504,-11.632 6.363,-10.938 11.251,-44.379Z" style="fill:#f8d2a9;"/><path d="M191.847,379.458c-2.906,5.467 -5.327,7.926 -8.953,9.969c-8.479,4.777 -6.47,-1.939 -6.456,-2.625c0.288,-14.114 -22.089,-20.168 -24.726,-2.467c-0.747,5.015 -21.99,21.185 -33.82,12.266l-1.11,-0.244c0.142,-45.493 59.694,-54.321 75.064,-16.899Z" style="fill:#fbfbf8;"/><path d="M897.474,494.577c0.129,0.247 -0.748,0.324 -0.618,0.571c1.254,2.391 1.916,2.066 4.372,0.823c13.782,-6.972 28.061,-10.744 43.596,4.852c4.399,4.416 6.543,11.722 6.87,12.836c5.364,34.645 -27.601,37.146 -38.435,33.701c0.237,-0.376 -0.168,-0.948 0.068,-1.324c0.286,-0.456 0.886,0.079 4.455,-5.073c7.259,-10.479 5.391,-28.888 -5.959,-35.096c-4.401,-2.407 -3.779,-3.139 -8.247,-5.367c-3.954,-1.972 -4.424,-0.479 -9.803,-3.062l-1.191,-1.764c2.581,0.375 2.447,-0.078 4.891,-1.098Z" style="fill:#e8f1f4;"/><path d="M605.986,481.888c35.314,8.466 63.585,13.638 116.576,-1.268c4.752,-1.336 6.221,-3.488 7.966,0.969c1.114,2.845 0.798,2.93 2.913,5.159c-9.855,8.917 -10.942,8.032 -17.478,19.586c-3.055,5.401 -4.757,-1.743 -16.777,-3.364c-17.775,-2.397 -26.507,8.377 -26.81,8.504c-8.57,3.587 -6.942,-22.367 -51.651,-12.615c-5.279,1.152 -4.929,-0.922 -10.274,-9.469c-0.37,-0.592 -3.614,-5.78 -4.466,-7.502Z" style="fill:#f1b98d;"/><path d="M604.977,209.609l-1.24,0.069c-7.728,2.079 -54.23,12.209 -88.289,60.867c-2.38,3.4 -19.901,28.431 -17.964,48.414c-0.309,0.122 -3.301,1.307 -3.991,1.183c-3.44,-0.62 2.368,-30.028 15.019,-52.953c29.738,-53.888 74.255,-66.015 89.231,-70.36c9.33,-2.707 6.227,3.374 7.236,12.78Z" style="fill:#d98740;"/><path d="M1002.414,508.945c2.201,2.29 2.292,2.053 4.309,4.483c0.306,0.369 0.284,0.341 3.834,4.609c-3.593,2.347 -2.717,3.121 -5.68,6.205c-14.042,14.616 -34.396,12.332 -38.872,12.51c-8.411,0.336 -5.306,26.026 -47.727,23.27c-10.128,-0.658 -9.753,1.728 -19.711,3.461c-21.044,3.664 -22.953,-1.188 -29.26,5.295c-17.327,17.812 -44.236,7.756 -51.408,4.034c-3.523,-1.828 -3.872,-6.311 -13.231,-2.361c-4.41,1.861 0.483,7.138 -14.108,18.119c-6.255,4.708 -10.049,3.385 -14.27,5.56l-1.224,0.166l-1.224,0.069l-1.224,0.021l-1.224,0.024l-1.224,-0.019l-1.224,-0.145l-1.224,-0.137l-1.224,-0.018l-1.224,0.081l-1.224,0.005l-1.224,-0.186l-1.224,-0.384l-1.224,-0.268l-1.224,-0.218l-1.158,-1.96c37.339,4.241 37.599,-25.794 41.431,-27.388c3.995,-1.661 7.962,-1.804 8.671,-1.83c3.423,-0.124 27.701,29.493 58.627,-0.472c6.608,-6.402 14.484,3.659 36.954,-8.038c3.65,-1.9 16.443,4.2 29.139,0.582c20.389,-5.81 23.339,-19.083 24.973,-22.144c1.723,-3.229 17.199,2.826 31.117,-4.342c13.059,-6.726 13.231,-17.269 13.503,-18.587Z" style="fill:#dacfae;"/><path d="M822.409,750.16c18.918,-17.042 51.606,4.843 35.334,31.341c-3.55,5.781 -13.363,11.202 -16.574,13.566c-0.94,-0.332 -1.538,-1.319 -2.478,-1.651c-1.962,-0.693 -8.44,0.519 -19.199,-7.216c-4.769,-3.429 -3.571,-8.194 -8.603,-5.248c0.329,-0.89 0.659,-1.779 0.988,-2.669c2.093,-1.988 2.798,-1.917 2.03,-4.695c-0.221,-1.227 -0.443,-2.455 -0.664,-3.682l0.162,-1.185c2.658,1.906 2.674,2.261 2.859,2.051c0.512,-0.583 -0.28,-0.896 3.228,-9.079c4.44,-10.358 24.078,-15.997 34.933,-1.05c1.541,2.122 3.127,-0.492 3.132,-0.494c-14.455,-21.276 -28.439,-9.059 -35.149,-9.988Z" style="fill:#f3bc4b;"/><path d="M70.629,481.316c0.218,-36.59 52.705,-26.266 43.698,4.877c-5.466,18.9 -38.523,21.186 -43.698,-4.877Z" style="fill:#b3c7dd;"/><path d="M842.196,153.295c17.715,-33.326 46.917,-14.197 49.656,1.149c0.217,1.213 0.095,2.469 0.312,3.683c-0.295,0.422 -0.981,-0.057 -2.552,4.622c-1.126,2.008 -7.886,14.061 -26.446,12.277c-7.385,-0.71 -19.066,-8.176 -19.348,-16.899c-0.123,-3.816 -0.869,-3.569 -1.622,-4.831Z" style="fill:#f7f8f7;"/><path d="M611.688,419.533c3.615,-2.391 27.181,-17.974 54.317,-4.926c15.592,7.497 11.962,11.8 11.088,12.837c-22.79,27.02 -67.287,4.802 -65.404,-7.912Z" style="fill:#e98e76;"/><path d="M295.472,535.854c-0.491,0.639 -2.551,0.923 -0.451,3.139c9.756,10.291 5.821,19.563 3.659,29.455c-9.42,16.646 -33.027,18.226 -45.085,6.462l1.361,-1.186l1.224,-0.444c2.749,0.183 6.649,2.108 15.468,-3.848c3.146,-2.125 1.784,-3.375 -1.781,-4.762c-9.882,-3.844 -8.932,-13.187 -7.175,-16.052c7.141,-11.64 16.377,-1.103 18.811,-3.021c4.085,-3.218 -7.81,-16.211 -2.073,-16.35c11.371,-0.276 15.271,5.471 16.041,6.606Z" style="fill:#dbebf0;"/><path d="M464.946,448.595c2.058,-1.479 15.846,-14.389 37.24,-10.442c16.779,3.096 21.717,9.478 27.744,18.318l-0.845,1.308c-1.804,2.026 -10.144,2.554 -13.236,4.985c-0.256,0.201 -0.738,0.58 -3.897,1.272c-1.294,0.244 -1.13,0.595 -2.448,0.462c-1.738,-0.176 -2.206,0.735 -2.448,0.87c-2.305,1.288 -21.145,6.868 -30.508,1.491c-10.32,-5.928 -10.527,-13.398 -11.114,-16.611l-0.49,-1.651Z" style="fill:#fcfcfa;"/><path d="M502.24,393.807c4.335,0.074 8.75,-0.426 9.503,1.457c13.452,33.635 20.93,46.312 57.412,69.878c3.761,2.429 4.454,1.791 6.365,5.763c-4.331,-0.082 -4.241,0.018 -8.493,0.157c-0.421,-0.391 -7.11,-11.282 -16.891,-3.74c-3.848,2.967 -2.936,3.627 -2.733,8.417c-5.856,-2.404 -6.605,-2.455 -7.403,-8.717c-0.496,-3.888 -4.124,-11.831 -6.59,-15.193c-13.072,-17.816 -27.344,-18.802 -36.115,-19.875c15.911,-16.245 5.95,-35.271 4.946,-38.147Z" style="fill:#805021;"/><path d="M869.128,371.022c1.765,-0.998 3.421,-2.174 5.186,-3.173c8.672,-4.905 37.684,-9.239 46.263,20.152l-1.104,0.454c-10.83,8.831 -12.374,7.32 -13.21,6.502c-0.649,-0.635 -2.103,-2.058 -11.257,-2.142c-1.744,-0.016 -9.722,6.637 -20.918,0.123c-7.334,-4.267 -7.405,-14.386 -4.064,-19.314c1.662,-2.451 -0.8,-2.319 -0.897,-2.603Z" style="fill:#f9f9f8;"/><path d="M236.822,792.566c-4.321,4.801 -9.627,2.915 -16.8,12.444c-8.434,11.204 -5.159,24.97 -4.885,28.31c-0.342,0.535 -1.128,0.696 -1.47,1.231c-0.26,0.407 1.454,0.484 -0.367,5.986c-2.501,7.56 -0.116,7.757 -1.149,15.572c-1.264,3.658 -2.314,15.127 -17.257,18.778c-31.334,7.655 -27.344,-25.401 -12.141,-20.611l1.224,0.59l1.224,0.889l0.477,2.056c2.972,-0.521 13.129,0.445 12.235,-4.104c-0.101,-0.515 -0.944,-0.682 -1.045,-1.197l-0.695,-1.244c4.296,-5.026 3.691,-5.328 4.794,-11.932l1.366,-0.768l0.682,-0.422l0.565,-1.197l0.406,-1.197l0.794,-1.273l0.754,-1.121l0.238,-1.197c0.925,-3.473 1.071,-3.33 1.844,-6.924c0,0 0.612,-1.391 0.666,-1.512c0.83,-4.805 1.471,-21.865 15.23,-30.508c8.441,-5.303 12.548,-1.376 13.31,-0.647Z" style="fill:#f9dd92;"/><path d="M824.844,423.776c-0.994,5.582 -0.184,5.66 -2.017,11.129c-21.728,2.947 -31.848,12.621 -40.173,26.268l-1.469,-0.427c-18.669,-0.432 -21.88,13.148 -26.911,20.729c-6.203,0.8 -6.11,0.635 -12.295,2.18c-0.406,-0.589 -3.902,-5.655 -2.902,-8.414c0.374,-1.032 25.172,-13.896 37.969,-26.673c20.292,-20.26 21.419,-31.836 26.018,-30.25c17.605,6.07 18.423,1.973 19.664,2.948c0.864,0.679 1.25,1.832 2.114,2.511Z" style="fill:#754b1f;"/><path d="M502.24,393.807c1.004,2.875 10.965,21.902 -4.946,38.147c-12.101,0.037 -12.06,0.433 -23.086,4.295c-2.925,-1.843 -2.793,-1.954 -6.11,-3.189c-3.692,-1.375 -4.27,-2.919 -5.612,-0.696c-0.203,0.336 0.416,0.817 0.213,1.153c-2.18,-6.601 -2.424,-6.488 -7.38,-11.556c0.002,-0.435 0.028,-5.28 1.564,-5.223c3.249,0.121 11.859,3.266 23.962,-6.562c8.348,-6.779 9.666,-19.199 13.887,-18.214c3.843,0.896 3.724,0.951 7.508,1.845Z" style="fill:#b3642a;"/><path d="M748.163,375.829c0.094,0.017 9.872,0.278 17.912,5.55c28.732,18.839 -28.405,34.873 -43.457,13.681c-4.13,-5.814 0.587,-19.389 25.545,-19.231Z" style="fill:#f5b69b;"/><path d="M528.383,372.552c6.99,-17.854 40.107,-14.348 48.505,-1.368c14.562,22.506 -50.392,26.164 -48.505,1.368Z" style="fill:#f6b79c;"/><path d="M454.508,584.311c1.213,3.436 2.365,12.161 27.164,23.538c-1.316,0.542 -1.162,1.302 -5.014,0.885c-7.97,-0.864 -81.344,-2.14 -88.418,-2.263c0.112,-1.622 -0.815,-2.459 1.417,-2.82c1.212,-0.196 6.948,-1.125 13.416,-7.3c5.829,-5.565 22.183,4.254 38.714,-8.892c4.738,-3.768 5.318,-2.166 11.424,-2.5l1.297,-0.649Z" style="fill:#fbf4d2;"/><path d="M94.164,507.816c4.208,-0.008 4.124,0.203 4.478,0.146c1.2,-0.191 -0.103,-2.328 2.112,-2.752c5.083,-0.973 5.321,-0.469 8.625,3.49c-0.11,0.158 -1.508,-0.243 -1.046,1.5c0.365,1.377 0.976,2.071 1.108,2.221c9.822,11.158 2.401,19.459 -0.442,28.402c-4.574,4.208 -8.4,7.376 -16.773,7.981c-12.411,0.897 -19.87,-6.022 -21.172,-7.23c0.556,-0.278 3.27,-1.638 7.681,-1.34c5.323,0.359 11.385,-2.273 6.271,-6.372c-9.487,-7.603 -4.091,-20.678 5.824,-18.443c6.535,1.474 4.14,-2.512 3.335,-7.603Z" style="fill:#d8e9f0;"/><path d="M336,271.863c9.449,-33.276 42.853,-17.63 42.937,1.255c-11.815,23.655 -36.332,13.194 -40.924,2.336l-0.335,-1.197l-0.26,-1.197l-1.418,-1.197Z" style="fill:#fafaf7;"/><path d="M103.414,493.617c-26.141,16.387 -41.978,-27.367 -12.444,-31.398c11.935,-1.629 31.329,14.743 12.444,31.398Z" style="fill:#f1f6f4;"/><path d="M69.389,549.057c2.71,1.667 21.064,12.957 40.009,0.666c7.888,-5.117 7,3.802 24.561,8.936c22.135,6.471 36.729,-2.481 41.111,0.982c9.92,7.84 19.245,19.19 48.073,16.354c11.096,-1.092 16.775,-8.241 21.219,-1.509c2.791,4.228 11.083,9.745 12.154,10.457l-2.104,1.786l0.545,0.783l-1.224,-0.327l-1.224,-0.76l-1.224,-0.897l-1.538,-1.193l-0.909,-0.707c-9.179,-10.177 -12.861,3.034 -41.484,-3.385c-1.019,-0.229 -7.069,-1.585 -12.362,-4.151c-16.621,-8.056 -17.116,-11.008 -22.009,-10.511c-3.214,0.327 -25.996,2.642 -40.266,-3.132c-9.456,-3.827 -12.354,-8.9 -17.205,-6.704c-19.493,8.824 -30.15,3.611 -40.45,-0.32l-1.224,-0.639l-1.224,-0.816l-1.016,-0.763l-1.432,-0.793l-1.224,-1l-0.467,-0.602l0.914,-1.756Z" style="fill:#d9cfaf;"/><path d="M919.334,326.697c-35.201,13.594 -34.844,-36.999 -6.094,-31.516c8.855,1.689 23.204,18.193 6.094,31.516Z" style="fill:#9ab9cd;"/><path d="M464.946,448.595l0.49,1.651c0.586,3.214 0.793,10.684 11.114,16.611c9.362,5.377 28.203,-0.202 30.508,-1.491c0.242,-0.135 0.709,-1.046 2.448,-0.87c1.317,0.133 1.154,-0.218 2.448,-0.462c-0.069,0.813 -0.138,1.625 -0.207,2.438c-16.536,6.444 -19.08,18.092 -19.739,19.493c-1.566,3.328 -2.517,0.867 -5.979,-0.424c-20.84,-7.767 -27.359,0.54 -28.371,-5.27c-1.502,-8.623 -1.718,-8.456 -4.411,-16.862c-0.006,-0.018 -0.174,-6.719 11.7,-14.815Z" style="fill:#dfeef3;"/><path d="M680.672,134.242c-12.181,6.006 -25.683,38.446 -31.657,38.524c-5.655,0.073 -27.358,-18.462 -29.534,-20.32c-6.323,-5.4 -2.777,14.745 -1.196,29.368c-3.492,0.254 -3.37,0.262 -6.756,0.168c-3.13,-35.577 -5.52,-46.506 -1.928,-43.796c2.032,1.533 1.2,2.461 24.347,20.421c3.705,2.875 9.998,9.2 13.281,5.069c6.889,-8.666 27.292,-41.099 29.465,-37.472c0.369,0.616 0.295,0.595 3.977,8.039Z" style="fill:#f7e79f;"/><path d="M685.037,574.175c-0.883,0.335 -0.976,1.767 -1.859,2.102c-3.35,1.273 -9.478,-2.964 -18.376,3.075c-7.616,5.168 -9.469,1.465 -21.975,6.022c-26.446,9.636 -48.489,-5.179 -55.102,-3.867c-16.93,3.357 -17.264,4.21 -17.798,5.576c-0.785,2.008 -4.905,12.546 -20.037,18.374c-2.544,0.98 -2.436,-0.131 -3.926,-2.389c9.652,-6.713 16.626,-10.321 18.019,-22.37c8.611,-3.311 9.253,-1.155 18.702,-5.248c7.415,-3.212 7.168,1.123 17.567,4.802c26.713,9.449 36.959,-3.318 47.523,-2.711c11.701,0.672 12.497,-7.712 19.666,-6.948c10.252,1.093 12.401,-3.581 17.596,3.583Z" style="fill:#dbd1b8;"/><path d="M506.411,339.087c-18.208,-1.437 -20.105,21.747 -8.979,30.764c4.509,3.654 5.49,1.863 10.264,5.092c0.758,7.488 2.535,9.029 -0.673,9.262c-33.372,2.415 -36.392,-49.608 -7.223,-55.669c10.338,-2.148 7.192,4.451 6.611,10.55Z" style="fill:#fae6c7;"/><path d="M606.194,337.701c11.013,16.391 -1.389,14.872 -2.33,14.184c-0.211,-0.155 -9.885,-20.369 -26.865,-13.719c-8.83,3.458 -11.374,16.857 -24.493,10.019c-8.424,-4.391 -8.022,-14.221 -2.402,-9.566c5.39,4.464 10.412,2.806 7.386,0.121c-6.766,-6.005 -5.775,-18.061 0.291,-9.834c7.848,10.642 14.291,-6.157 35.041,0.093c7.361,2.217 12.508,7.772 13.371,8.703Z" style="fill:#291f13;"/><path d="M119.594,526.828c2.177,0.059 1.739,0.81 3.102,2.504c6.459,8.028 27.411,17.168 43.717,3.456c0.2,1.526 1.124,8.586 4.013,18.821c-2.458,0.627 -2.348,0.513 -4.909,1.252c-19.247,5.554 -42.085,-2.053 -47.97,-12.649c1.057,-6.486 1.353,-6.355 2.047,-13.385Z" style="fill:#d1e5f0;"/><path d="M418.877,537.978c4.549,-31.744 -39.653,-38.983 -48.336,-13.306c-2.175,6.431 2.16,4.764 10.266,8.623c12.699,6.046 15.854,23.643 7.67,13.875c-0.581,-0.938 -4.823,-7.786 -9.773,-9.819c-2.057,-0.845 -9.598,-4.281 -20.95,-0.911c-12.165,3.611 -14.242,17.49 -14.392,9.53c-0.134,-7.083 9.73,-12.138 10.936,-12.756c5.756,-2.949 8.669,0.002 10.022,-6.269c2.225,-10.312 12.271,-19.717 24.024,-21.665c28.349,-4.699 36.159,24.638 36.781,25.105c1.98,1.485 2.205,0.254 9.858,-1.809c14.868,-4.008 22.012,6.918 15.841,5.148c-15.886,-4.556 -15.633,1.484 -31.946,4.254Z" style="fill:#c1d4e5;"/><path d="M719.979,339.234c19.195,2.91 17.842,13.348 24.254,8.896c4.112,-2.855 7.632,-10.33 8.813,-4.437c1.824,9.101 -13.886,13.861 -6.118,14.316c4.579,0.268 13.138,-6.519 11.228,0.111c-1.941,6.739 -15.923,11.287 -21.765,3.162c-0.019,-0.027 -4.363,-9.018 -13.815,-12.043c-7.759,-2.483 -17.153,1.595 -20.569,6.673c-0.414,0.615 -6.702,9.961 -9.346,1.077c-1.588,-5.336 6.658,-10.98 7.294,-11.467c9.075,-6.958 14.408,-6.141 20.024,-6.288Z" style="fill:#2d2114;"/><path d="M421.474,328.192c-15.485,16.834 -40.25,-7.154 -23.08,-21.294c11.575,-9.532 34.939,2.58 23.08,21.294Z" style="fill:#90b0c7;"/><path d="M926.631,211.707c-29.393,13.003 -32.769,-30.763 -5.9,-27.527c8.018,0.966 22.052,15.364 5.9,27.527Z" style="fill:#7fa6be;"/><path d="M705.924,555.116c0.892,-0.047 0.942,1.96 1.834,1.913c0.655,-0.035 7.241,-7.418 17.145,-8.445c19.202,-1.99 18.698,22.497 -6.098,24.2c-16.306,1.12 -18.31,-4.252 -21.019,-8.803l-0.05,-1.197l-0.064,-1.592c1.242,-0.9 5.449,-3.36 8.253,-6.077Z" style="fill:#f5f6f5;"/><path d="M240.718,549.763c-0.341,3 -1.372,5.573 -0.468,13.005c-2.019,1.294 -12.839,8.226 -29.327,6.931c-20.563,-1.615 -30.032,-14.259 -33.284,-17.478l1.443,-1.52c0.586,-0.184 0.19,-1.851 2.209,-0.695c27.975,16.014 47.889,3.707 51.365,1.559c4.312,-2.665 4.156,-2.79 5.264,-3.012c0.24,-0.048 0.204,0.088 2.798,1.211Z" style="fill:#d9eaf1;"/><path d="M459.762,437.077c0.044,0.701 0.242,3.844 -3.049,8.261c-9.48,12.724 -12.06,2.676 -25.088,-6.461c-14.067,-9.866 17.449,-30.982 27.818,-4.194l0.272,1.197l0.047,1.197Z" style="fill:#f5f8f7;"/><path d="M984.56,490.724c0.919,0.591 15.635,7.007 10.378,21.625c-5.217,14.507 -35.415,15.293 -36.269,8.526c-0.601,-4.758 -0.814,-4.594 -1.645,-9.286c0.43,-0.149 0.118,-1.863 2.554,-0.886c10.741,4.309 31.453,-1.821 24.698,-16.131c-1.199,-2.54 -1.649,-2.192 -1.632,-2.423c0.105,-1.426 1.814,-0.05 1.915,-1.425Z" style="fill:#cae0ed;"/><path d="M723.408,157.619c14.784,-8.126 14.738,-8.184 16.06,-9.346c4.372,-3.841 0.847,2.963 -2.94,19.305c-3.526,15.214 -3.187,15.182 -7.88,30.172l-1.421,-0.991c-6.039,-6.117 -10.083,-5.023 -13.463,-4.304c2.898,-7.449 8.857,-22.85 9.626,-24.837c2.111,-5.456 4.819,-6.543 0.018,-10Z" style="fill:#f09d34;"/><path d="M600.142,555.606c12.942,13.686 28.194,5.898 30.376,4.784l1.012,-0.027c1.152,5.991 1.337,6.81 5.134,11.929c-11.603,8.654 -33.049,6.406 -46.615,-5.733c1.81,-1.555 1.37,-1.907 3.53,-3.033c3.32,-1.731 6.183,-7.195 6.563,-7.92Z" style="fill:#d0e3ee;"/><path d="M551.178,575.792l1.308,0.98c8.985,13.752 -7.224,11.537 -8.105,12.641c-7.257,9.101 -7.061,9.516 -21.191,16.94c-3.41,1.792 -3.868,1.738 -6.549,-0.864c2.013,-1.035 12.715,-5.883 19.449,-11.943c10.716,-9.643 -5.889,-18.735 -10.042,-6.783c-3.423,7.05 -4.089,8.506 -4.972,8.345c-0.612,-0.111 -0.798,-1.086 -1.41,-1.197l-1.928,-1.462c2.786,-4.069 4.474,-4.817 2.34,-10.297l1.664,-1.804c15.554,-3.048 17.811,-10.5 29.435,-4.557Z" style="fill:#f6cf5f;"/><path d="M256.516,584.943c29.456,11.28 43.627,-8.805 47.18,-7.279c5.007,2.15 10.797,9.572 33.208,7.385c6.755,-0.659 5.468,2.635 6.673,4.788c-1.565,0.248 -1.452,0.694 -2.952,0.467c-7.353,-1.111 -7.401,0.752 -14.785,-0.652c-4.271,-0.812 -4.019,-1.335 -8.303,-2.305c-7.843,-1.776 -7.841,-5.169 -12.11,-2.435c-25.361,16.24 -37.298,5.549 -48.022,3.337l-1.224,-0.17l-1.224,-0.567l-0.545,-0.783l2.104,-1.786Z" style="fill:#dbd2b1;"/><path d="M56.684,507.574c-1.565,0.005 -19.284,0.057 -15.221,-12.02c1.595,-4.74 3.563,-3.446 6.004,-7.884c7.114,-12.936 23.938,4.947 16.417,12.718c-0.454,0.469 -0.433,0.38 -5.957,5.582l-1.244,1.604Z" style="fill:#dbecf1;"/><path d="M506.411,339.087c-0.73,21.91 -0.5,22.221 1.285,35.857c-4.774,-3.229 -5.755,-1.438 -10.264,-5.092c-11.126,-9.017 -9.23,-32.202 8.979,-30.764Z" style="fill:#f5be90;"/><path d="M881.033,467.721c10.694,15.607 15.187,20.662 28.971,7.518c0.995,1.675 1.383,1.651 2.875,6.253c2.703,8.335 -3.662,5.471 -15.405,13.086c-2.444,1.019 -2.31,1.473 -4.891,1.098c-8.628,-7.679 -11.171,-8.248 -11.722,-11.97c-1.954,-13.186 -2.409,-13.717 0.172,-15.984Z" style="fill:#ddecf2;"/><path d="M923.227,312.586l-1.536,1.178l-0.994,1.395l-1.224,1.264l-1.224,1.102l-1.224,0.703l-1.224,0.67c-2.989,1.624 -3.202,2.091 -15.909,-1.248l-1.694,1.339c-11.661,-22.052 24.459,-26.239 25.028,-6.404Z" style="fill:#f9faf9;"/><path d="M396.622,321.057c-2.76,-24.502 34.683,-11.27 21.747,4.21c-5.773,6.909 -17.542,5.296 -21.062,-2.162c-0.308,-0.652 -0.377,-1.396 -0.685,-2.048Z" style="fill:#ebf3f6;"/><path d="M881.467,430.76c-4.876,1.254 -4.721,1.363 -9.672,2.078l1.339,-1.746l1.059,-1.54l-1.224,-0.411c-9.207,-3.959 -10.664,-1.035 -18.176,-7.627l-1.121,-1.197l-0.776,-1.197l-0.087,-1.197l-0.994,-1.197c0.457,-1.142 3.505,-8.765 13.818,-7.234c13.925,2.067 15.396,19.659 15.551,20.404l0.282,0.866Z" style="fill:#f8f9f5;"/><path d="M818.917,540.716c-0.515,3.806 -0.404,3.815 -0.557,4.111c-7.076,13.713 20.667,27.689 35.438,5.849c7.422,3.458 10.44,2.283 8.596,5.126c-16.426,25.338 -60.888,7.324 -46.373,-13.122c0.131,-0.185 0.058,-0.096 2.896,-1.964Z" style="fill:#d1e4ee;"/><path d="M517.336,578.987c1.528,1.516 1.436,1.464 2.742,3.166c2.135,5.48 0.446,6.228 -2.34,10.297c-5.249,5.156 -7.275,9.799 -12.728,4.615c-4.853,-4.613 -10.067,-9.111 -6.1,-16.112c2.405,-4.244 8.527,-4.84 9.374,-4.922c4.53,-0.44 8.446,2.501 9.052,2.956Z" style="fill:#a96122;"/><path d="M336,271.863l1.418,1.197l0.26,1.197l0.335,1.197c4.593,10.858 29.109,21.318 40.924,-2.336c8.706,16.526 -28.584,35.222 -41.66,10.493c-3.202,-6.055 -1.326,-11.468 -1.277,-11.748Z" style="fill:#d4e7f0;"/><path d="M782.654,461.173c-0.131,0.312 -4.586,8.808 -5.824,17.872c-0.499,3.653 0.662,5.79 -3.024,4.905c-6.988,-1.677 -6.845,-2.414 -19.532,-2.475c5.031,-7.581 8.242,-21.161 26.911,-20.729l1.469,0.427Z" style="fill:#a9602b;"/><path d="M178.487,771.532c3.329,8.837 10.871,5.526 13.371,-0.199c0.901,-10.445 -9.269,-8.664 -6.1,-13.199c4.815,-6.891 23.982,15.82 3.045,23.533c-16.631,6.127 -26.011,-18.343 -9.723,-24.128c7.577,-2.691 -3.898,6.169 -0.592,13.994Z" style="fill:#bb6c23;"/><path d="M683.353,210.794c-2.525,-12.577 8.417,-14.961 13.291,-13.968c2.818,0.574 13.816,6.756 3.691,18.665c-0.455,0.353 -2.023,1.57 -6.014,3.969c-4.445,-2.233 -6.714,-3.628 -7.279,-3.975c-2.022,-2.253 -1.947,-2.207 -3.689,-4.691Z" style="fill:#f6ef79;"/><path d="M844.991,765.04c-0.34,-0.47 -7.724,-10.666 -0.131,-7.2c17.707,8.084 2.56,32.893 -14.373,21.2c-14.387,-9.935 4.709,-28.833 7.414,-19.8c0.999,3.336 -15.153,5.426 -1.536,16.41c5.511,2.391 12.565,-0.43 8.626,-10.609Z" style="fill:#b46317;"/><path d="M661.999,198.294c1.323,-0.602 12.454,-5.669 17.392,5.358c0.838,1.872 -0.553,7.823 -3.878,10.284c-0.675,0.5 -0.309,0.752 -1.04,1.241c-0.32,0.214 -0.842,-0.233 -1.161,-0.02c-1.158,0.233 -2.315,0.466 -3.473,0.7l-2.486,-0.048c-4.734,-0.849 -5.257,-0.233 -8.119,-4.092c-1.897,-2.557 -1.751,-2.6 -1.698,-5.701c0.095,-5.451 3.675,-6.877 4.464,-7.723Z" style="fill:#e97671;"/><path d="M881.033,467.721c15.244,-10.91 27.559,5.622 28.971,7.518c-13.784,13.145 -18.277,8.09 -28.971,-7.518Z" style="fill:#faf9f6;"/><path d="M634.618,208.28c-4.648,-15.902 10.503,-15.965 15.542,-11.756c10.853,9.066 -1.29,16.628 -2.501,17.382c-8.353,1.88 -8.815,0.53 -13.041,-5.627Z" style="fill:#f5ee7d;"/><path d="M824.844,423.776c0.938,-4.597 3.215,-2.304 11.417,-5.843c6.879,-2.968 2.227,4.406 10.296,15.167c4.521,6.029 6.181,4.419 6.831,5.968c0.234,0.558 -0.351,1.248 -0.117,1.805c-14.543,-6.445 -17.327,-6.072 -30.444,-5.969c1.833,-5.469 1.022,-5.546 2.017,-11.129Z" style="fill:#b7692c;"/><path d="M858.296,396.376l1.212,0.438c2.798,3.233 1.68,4.003 4.993,6.565c0.421,0.326 9.66,2.186 15.417,8.842c7.03,8.128 3.391,17.044 2.826,18.429l-1.276,0.108l-0.282,-0.866c-0.155,-0.745 -1.626,-18.337 -15.551,-20.404c-10.313,-1.531 -13.361,6.092 -13.818,7.234c-0.672,0.79 -1.344,1.58 -2.016,2.37c-1.421,-6.184 -3.028,-6.522 -0.824,-9.171c5.288,-6.354 5.424,-6.21 9.32,-13.547Z" style="fill:#b1c9de;"/><path d="M629.119,205.817c2.025,1.364 1.919,1.381 3.283,3.319c0.402,0.572 0.642,0.479 0.705,0.455c0.976,-0.377 0.464,-0.906 1.511,-1.311c4.226,6.157 4.689,7.507 13.041,5.627c0.72,0.448 0.481,3.156 3.897,0.627c0,0 1.217,-0.878 1.323,-0.955l2.226,-1.516c5.748,5.219 6.146,4.617 8.463,5.047c8.077,1.231 10.536,2.259 17.148,-4.248c3.505,3.748 3.501,3.989 3.896,3.8c1.093,-0.524 0.502,-1.057 1.675,-1.625c0.555,-0.269 0.268,0.685 0.755,0.449c0.565,0.347 2.834,1.741 7.279,3.975c-18.355,3.217 -49.677,-1.346 -51.332,-1.938c-7.366,-2.637 -13.594,-0.605 -24.514,-6.848c1.888,-0.22 1.845,-0.101 3.619,-0.917c3.582,-1.363 3.774,-0.977 7.025,-3.94Z" style="fill:#d9931e;"/><path d="M708.085,208.299c-0.08,-0.369 -0.258,-0.714 -0.338,-1.083c-2.427,-11.151 10.534,-14.68 15.593,-10.407c6.964,5.884 2.002,14.241 1.228,16.207c-5.025,1.836 -11.285,4.665 -16.483,-4.718Z" style="fill:#cde485;"/><path d="M661.62,554.282c-6.317,6.375 -6.049,7.549 -15.085,8.268c-7.137,0.568 -6.738,-1.579 -7.309,-1.412c-1.043,0.305 -1.7,1.43 -2.743,1.735c-0.142,-1.937 -1.84,-6.715 2.103,-11.644c0.696,-0.87 13.877,-11.647 23.034,3.052Z" style="fill:#fbfbf9;"/><path d="M629.119,205.817c-3.251,2.964 -3.443,2.577 -7.025,3.94c-1.634,-0.045 -3.269,-0.09 -4.903,-0.136c-0.293,-0.226 -3.525,-1.267 -5.03,-7.156c-4.586,-17.938 26.856,-14.827 16.959,3.351Z" style="fill:#f8da7c;"/><path d="M934.377,474.444c-16.6,11.512 -21.389,-21.181 -3.998,-16.637c1.564,0.409 15.112,6.018 3.998,16.637Z" style="fill:#c7d9ea;"/><path d="M492.12,586.703c0.312,1.301 1.77,7.386 9.064,14.153c16.413,15.228 -11.389,-0.011 -19.612,-7.183c-12.141,-10.59 6.424,-18.588 10.548,-6.97Z" style="fill:#c47e32;"/><path d="M294.021,442.733c10.913,-1.667 16.131,6.446 10.905,13.36c-9.564,12.655 -28.331,-6.134 -10.905,-13.36Z" style="fill:#d0e0ed;"/><path d="M700.601,585.082c3.408,0.804 9.708,3.986 24.212,1.245c8.097,-1.53 12.372,-4.801 14.739,-4.307c5.146,1.074 3.3,5.077 18.447,9.143l1.158,1.96l-1.224,1.056l-1.224,-0.303c-0.934,-0.167 -0.884,-0.214 -4.895,-1.595c-9.416,-3.241 -8.9,-4.313 -9.743,-4.488c-4.886,-1.014 -14.078,10.417 -39.208,1.251l-1.224,-0.452l-1.224,-0.34l-1.224,-1.062l1.409,-2.107Z" style="fill:#dcd4b1;"/><path d="M790.975,785.48c2.32,-1.993 2.101,-2.872 3.69,-2.194c0.504,0.215 0.686,0.945 1.215,1.093c0.374,0.104 0.434,-0.763 4.845,0.318c1.64,0.402 10.745,2.635 18.191,10.536c2.618,2.778 3.635,14.773 1.036,24.848c-0.157,0.609 -0.09,0.548 -0.193,1.139c-0.766,4.414 -1.848,4.816 -3.084,4.054c-0.651,-0.402 -0.784,-1.368 -1.435,-1.77c1.496,-1.689 3.121,-11.687 -2.653,-23.465c-6.664,-13.595 -21.043,-14.44 -21.614,-14.56Z" style="fill:#fbe6ac;"/><path d="M600.142,555.606c-0.38,0.726 -3.243,6.189 -6.563,7.92c-2.159,1.126 -1.72,1.478 -3.53,3.033c-1.282,-1.019 -1.242,-1.106 -1.385,-1.1c-0.437,0.017 -0.406,0.907 -0.835,0.989c-0.518,0.099 -0.963,-0.645 -1.481,-0.546c-0.273,-0.694 -0.547,-1.387 -0.82,-2.081c-0.623,-0.158 -0.524,-0.337 -1.206,-0.306c-22.592,0.997 -27.012,-13.691 -27.01,-13.886c0.044,-4.543 4.346,3.182 8.667,5.61c20.621,11.587 36.742,-13.663 34.164,0.367Z" style="fill:#adc8dd;"/><path d="M360.361,493.497c10.738,-8.343 16.84,3.311 17.102,4.609c3.035,15.04 -28.752,11.583 -17.102,-4.609Z" style="fill:#cbddec;"/><path d="M790.975,785.48c0.57,0.12 14.949,0.965 21.614,14.56c5.774,11.778 4.149,21.776 2.653,23.465c-3.101,-1.886 -1.472,-2.786 -2.439,-10.473c-1.512,-12.014 -17.826,-28.288 -26.241,-20.209c-2.121,0.805 -2.545,1.558 -3.819,-0.365c-3.737,-5.639 7.367,-6.881 8.233,-6.978Z" style="fill:#b77029;"/><path d="M236.822,792.566c-0.762,-0.729 -4.869,-4.656 -13.31,0.647c-13.758,8.643 -14.4,25.702 -15.23,30.508c-0.882,-0.201 -1.017,0.461 -1.846,-0.42c-0.269,-0.286 -0.544,-2.844 -0.571,-3.094c0.244,-3.371 2.27,-31.351 24.622,-34.704c12.156,-1.824 12.381,10.628 6.853,8.463c-0.113,-0.044 0,0 -0.518,-1.4Z" style="fill:#b8722b;"/><path d="M661.62,554.282c5.422,16.436 -16.486,27.723 -25.137,8.591c1.043,-0.305 1.7,-1.43 2.743,-1.735c0.571,-0.167 0.172,1.98 7.309,1.412c9.035,-0.719 8.767,-1.893 15.085,-8.268Z" style="fill:#ddedf3;"/><path d="M166.264,756.379c6.946,-6.856 15.019,-8.492 16.49,-8.79l1.224,-0.04l1.224,-0.064c10.924,-1.059 21.665,12.813 20.688,15.233c-0.271,0.671 -1.102,1.025 -1.373,1.695c-0.675,-0.886 -8.732,-15.447 -23.046,-12.761c-7.125,1.337 -11.646,7.597 -12.345,8.565c-3.893,5.391 -2.721,5.801 -3.327,12.318c-1.054,0.376 -2.107,0.751 -3.161,1.127c-1.595,-7.175 -1.316,-7.188 -0.174,-13.163c3.176,-0.483 2.532,-1.359 3.799,-4.121Z" style="fill:#fbe48d;"/><path d="M157.28,452.49c-0.209,7.895 0.403,9.899 -7.493,11.267c-10.84,1.879 -15.997,-15.077 -1.291,-16.482c4.81,-0.46 8.32,4.551 8.785,5.215Z" style="fill:#e4f1f4;"/><path d="M855.564,442.284l1.496,-1.852c7.002,3.701 19.213,0.754 20.831,0.363c3.835,-0.925 3.064,4.042 3.119,4.678l-1.231,1.182l-0.176,1.197c-1.217,4.009 -6.559,8.732 -6.634,8.775c-0.354,0.202 -0.87,-0.302 -1.224,-0.1l-1.727,0.026c-6.585,-7.816 -6.531,-7.735 -14.455,-14.268Z" style="fill:#a35d23;"/><path d="M822.409,750.16c6.709,0.929 20.693,-11.288 35.149,9.988c-0.005,0.002 -1.591,2.616 -3.132,0.494c-10.855,-14.947 -30.493,-9.307 -34.933,1.05c-3.508,8.183 -2.716,8.496 -3.228,9.079c-0.185,0.21 -0.201,-0.144 -2.859,-2.051c2.203,-10.293 2.075,-10.524 9.004,-18.56Z" style="fill:#fbe58f;"/><path d="M865.813,149.878c2.147,-2.257 2.083,-2.306 2.319,-2.437c12.407,-6.902 18.282,16.897 3.6,15.595c-11.078,-0.982 -6.369,-12.095 -5.919,-13.158Z" style="fill:#d8e9f0;"/><path d="M168.177,819.698c-5.191,11.02 9.625,18.226 21.006,9.631c0.631,0.289 6.361,2.913 3.541,7.788c-2.56,4.426 -37.177,1.222 -29.133,-17.817c1.138,-2.693 1.98,-1.098 4.585,0.398Z" style="fill:#e7a028;"/><path d="M928.579,195.051c-1.994,0.28 -2.662,-0.97 -3.414,0.865c-0.156,0.382 -7.944,10.051 -17.929,4.235l-1.253,-0.114c1.043,-15.781 16.665,-14.738 22.596,-4.986Z" style="fill:#f9faf7;"/><path d="M855.64,818.494c1.316,-0.973 1.195,-0.922 1.316,-0.973c4.305,-1.839 9.853,18.463 -12.119,20.745c-18.065,1.876 -14.539,-5.651 -14.428,-7.25c10.852,4.001 31.239,3.105 25.23,-12.522Z" style="fill:#eba31b;"/><path d="M207.433,851.285c-0.134,0.978 -1.101,8.059 -4.454,11.538c-0.772,0.802 -6.685,6.938 -11.639,7.745c-19.845,3.235 -15.96,-17.467 -8.452,-13.382c0.818,0.445 0.516,0.609 1.122,1.324c-6.12,9.938 14.94,10.405 20.648,-4.95c0.425,-1.143 0.63,-0.884 2.775,-2.276Z" style="fill:#b26e27;"/><path d="M817.45,847.976c0.838,4.06 0.824,4.036 0.905,4.385c4.302,18.462 30.417,14.72 19.64,5.617c0.688,-0.535 1.377,-1.069 2.065,-1.604c14.651,1.813 1.544,22.133 -15.721,10.056c-10.775,-7.537 -9.211,-15.681 -9.069,-17.587c0.727,-0.289 1.453,-0.578 2.18,-0.867Z" style="fill:#ae6824;"/><path d="M214.477,774.475c2.439,-0.997 17.692,-14.722 35.223,-2.929c2.463,1.657 5.024,4.975 5.398,5.459c-3.645,1.204 -3.583,-0.184 -3.69,-0.208c-1.092,-1.262 -1.041,-1.239 -2.576,-2.059c-15.441,-4.95 -15.899,-2.981 -30.694,3.129c-4.522,1.867 -3.649,-3.325 -3.661,-3.392Z" style="fill:#fae8ab;"/><path d="M928.579,195.051c5.036,16.69 -19.724,21.349 -22.596,4.986l1.253,0.114c9.985,5.816 17.773,-3.853 17.929,-4.235c0.752,-1.835 1.42,-0.584 3.414,-0.865Z" style="fill:#d4e8f0;"/><path d="M526.049,586.764c4.152,-11.952 20.757,-2.86 10.042,6.783c-6.734,6.06 -17.436,10.909 -19.449,11.943c-23.074,8.767 13.803,-12.404 15.955,-14.164c7.586,-6.205 -2.249,-8.046 -3.762,-4.999c-1.475,2.971 -2.243,0.352 -2.785,0.437Z" style="fill:#b26824;"/><path d="M516.641,583.263c2.211,7.209 -6.696,14.148 -9.346,11.508c-5.466,-5.447 -9.422,-9.126 -2.571,-13.845c6.572,-4.527 11.327,1.581 11.916,2.337Z" style="fill:#d86f49;"/><path d="M165.395,755.399c1.303,-2.043 10.23,-16.042 29.388,-8.932c13.793,5.119 15.051,18.678 15.904,23.456l-1.011,0.111c-4.445,0.364 -3.407,-1.58 -5.161,-5.62c0.271,-0.671 1.102,-1.025 1.373,-1.695c0.977,-2.42 -9.764,-16.292 -20.688,-15.233l-1.224,0.064l-1.224,0.04c-1.471,0.298 -9.544,1.934 -16.49,8.79l-0.869,-0.98Z" style="fill:#f0b946;"/><path d="M338.135,503.019c-21.858,-11.916 -46.597,9.011 -40.04,0.058c1.253,-1.71 11.026,-7.174 20.543,-8.06c1.451,-0.135 10.339,-0.962 18.034,2.497c6.218,2.795 2.016,4.835 1.462,5.505Z" style="fill:#c5d7e7;"/><path d="M66.242,519.856c-0.257,0.227 -0.781,-0.241 -1.039,-0.014c-3.814,3.357 -3.094,3.819 -3.512,8.786c-13.842,1.719 -14.065,1.504 -24.563,-2.967l1.218,-1.419l1.224,-1.052l1.224,-0.137c2.049,0.163 5.442,1.585 13.351,-1.294c7,-2.548 7.842,-6.718 12.096,-1.902Z" style="fill:#e4eff3;"/><path d="M109.379,508.7c8.503,5.527 9.992,16.486 10.215,18.128c-0.693,7.03 -0.989,6.899 -2.047,13.385c-4.761,0.139 -4.795,-0.233 -5.983,0.547c-1.726,1.134 -1.784,0.044 -2.565,0.063c2.844,-8.943 10.264,-17.243 0.442,-28.402c-0.132,-0.15 -0.743,-0.845 -1.108,-2.221c-0.462,-1.742 0.935,-1.341 1.046,-1.5Z" style="fill:#aac5dd;"/><path d="M805.949,508.052c0.196,-0.083 1.976,-1.696 4.642,-0.393c8.705,4.254 1.888,19.976 -7.252,13.051c-7.961,-6.031 1.057,-11.314 2.61,-12.658Z" style="fill:#deeef4;"/><path d="M876.681,226.424c-14.901,6.651 -15.296,-15.957 -2.459,-12.499c2.397,0.646 9.843,5.804 2.459,12.499Z" style="fill:#96b6cd;"/><path d="M295.472,535.854c6.893,5.18 7.569,7.128 10.554,16.241c0.112,1.405 0.68,8.508 -1.905,17.522c-4.975,0.626 -4.65,-0.741 -5.441,-1.169c2.162,-9.893 6.097,-19.165 -3.659,-29.455c-2.101,-2.216 -0.041,-2.499 0.451,-3.139Z" style="fill:#aec8df;"/><path d="M641.944,346.63c0.468,-0.135 4.563,-1.321 6.038,-0.85c0.904,0.288 1.806,1.853 -0.036,2.866c-13.235,7.279 3.941,14.545 4.021,15.304c0.857,8.205 -27.586,-5.037 -10.023,-17.32Z" style="fill:#f5bc84;"/><path d="M338.908,524.696c-3.291,4.122 -2.714,5.767 -8.042,5.435c-14.873,-0.926 -4.643,-19.349 4.736,-11.501c2.588,2.166 3.236,5.86 3.306,6.065Z" style="fill:#e7f2f6;"/><path d="M1002.008,497.38c15.554,16.324 12.91,22.939 13.538,33.08l-0.043,1.197l-0.442,1.217l-1.533,-1.242c0.554,-7.972 0.288,-8.073 -2.971,-13.595c-3.55,-4.268 -3.528,-4.24 -3.834,-4.609c-2.017,-2.43 -2.108,-2.193 -4.309,-4.483c-1.414,-5.944 -3.281,-6.164 -0.406,-11.565Z" style="fill:#dfaa46;"/><path d="M379.96,588.287c-12.813,5.025 -15.073,-9.849 -2.683,-11.658c1.978,-0.289 14.622,3.264 2.683,11.658Z" style="fill:#f2f4f3;"/><path d="M28.992,528.675c21.534,12.307 25.878,2.719 31.084,9.142c0.17,0.21 4.12,6.08 4.476,6.61c-1.226,0.486 -0.5,1.263 -1.729,1.751c-0.101,0.04 -0.47,0.186 -1.224,-0.58c-3.879,-3.945 -4.415,-3.055 -9.794,-4.35c-10.263,-2.472 -22.873,-8.821 -23.249,-10.372c-0.176,-0.727 0.611,-1.473 0.435,-2.199Z" style="fill:#dcd3b4;"/><path d="M355.668,268.432c2.592,-4.183 2.112,-5.751 7.016,-5.295c3.878,0.36 5.539,3.557 5.797,4.054c5.684,10.938 -15.512,14.556 -12.814,1.242Z" style="fill:#deedf2;"/><path d="M503.331,506.845c-1.858,-0.168 -17.163,-1.551 -23.062,3.429c-0.358,0.302 -6.681,5.641 -5.8,1.084c2.552,-13.21 40.462,-8.977 36.375,-3.532c-0.53,0.706 -6.924,-0.839 -7.513,-0.982Z" style="fill:#c6dceb;"/><path d="M553.364,479.85c5.938,5.856 6.995,5.522 8.26,13.648c0.354,2.274 0.894,1.933 1.668,3.607c-3.712,-0.61 -3.647,-0.343 -8.497,-0.411c-4.8,-0.067 -2.959,-2.332 -3.961,-6.885c-1.213,-5.513 -3.341,-7.13 2.531,-9.96Z" style="fill:#e4f0f4;"/><path d="M810.889,780.952c5.032,-2.946 3.834,1.819 8.603,5.248c10.759,7.736 17.236,6.523 19.199,7.216c0.94,0.332 1.538,1.319 2.478,1.651c-0.95,1.384 -0.861,1.357 -1.964,2.585c-7.5,-2.242 -7.534,-1.498 -15.272,-2.335l-1.138,-1.735l-1.224,-0.467c-1.039,-0.782 -8.73,-6.57 -10.681,-12.164Z" style="fill:#b5691c;"/><path d="M849.799,419.095c0.672,-0.79 1.344,-1.58 2.016,-2.37l0.994,1.197l0.087,1.197l0.776,1.197l1.121,1.197c7.513,6.591 8.97,3.668 18.176,7.627l1.224,0.411l-1.059,1.54l-1.339,1.746c-14.589,0.401 -16.568,-2.147 -21.996,-13.743Z" style="fill:#dceaef;"/><path d="M567.027,471.062c-9.972,1.646 -9.548,3.095 -19.625,4.677c-0.203,-4.791 -1.114,-5.451 2.733,-8.417c9.781,-7.541 16.47,3.349 16.891,3.74Z" style="fill:#dd8c40;"/><path d="M166.413,532.788c0.111,-0.856 1.223,-9.458 2.993,-10.385c4.402,-2.306 1.444,1.796 1.002,6.86c-0.641,7.343 3.931,15.695 6.128,21.646c-3.137,0.683 -3.02,0.67 -6.11,0.7c-2.889,-10.235 -3.813,-17.296 -4.013,-18.821Z" style="fill:#b4cce3;"/><path d="M611.529,181.982c3.386,0.094 3.264,0.086 6.756,-0.168c1.269,0.641 2.538,1.281 3.808,1.922l1.224,0.225l1.224,0.906l1.224,0.188l1.224,0.427l1.224,0.54c1.709,0.564 8.878,2.374 9.653,2.57c2.757,0.696 2.31,2.126 2.662,2.45c-2.696,1.2 -2.731,0.972 -5.235,2.595c-3.496,2.266 -9.02,-12.425 -20.71,-4.621c-4.595,3.067 -2.452,-1.657 -3.053,-7.033Z" style="fill:#ef9a29;"/><path d="M529.93,456.471c3.543,4.807 3.36,4.86 5.225,10.543c1.644,5.009 -9.867,-4.603 -23.409,-0.54c0.069,-0.813 0.138,-1.625 0.207,-2.438c3.16,-0.692 3.641,-1.071 3.897,-1.272c3.092,-2.431 11.431,-2.959 13.236,-4.985l0.845,-1.308Z" style="fill:#dfecf3;"/><path d="M855.64,818.494c6.009,15.626 -14.378,16.522 -25.23,12.522c1.516,-2.321 1.717,-2.065 4.461,-2.955c0.912,0.46 1.825,0.92 2.737,1.38c0.499,0.138 0.732,0.792 1.23,0.929c1.803,0.497 11.702,-0.727 12.276,-6.57c0.367,-3.733 1.053,-3.555 4.526,-5.306Z" style="fill:#f8d78d;"/><path d="M708.085,208.299c5.197,9.383 11.458,6.553 16.483,4.718c-0.585,1.244 -0.165,1.345 -1.097,2.335c-0.215,0.228 0.326,0.916 -1.159,1.102c-0.391,0.049 -0.811,-0.11 -1.182,0.02c-2.032,0.712 -9.043,3.166 -26.809,2.987c3.991,-2.399 5.559,-3.616 6.014,-3.969c0.693,-0.013 0.612,1.596 1.305,1.584c0.884,-0.016 1.006,-0.018 6.445,-8.776Z" style="fill:#d68723;"/><path d="M168.177,819.698c2.451,1.297 2.431,1.206 4.396,3.178c0.91,5.914 7.663,9.909 11.519,4.059c1.697,0.798 3.394,1.596 5.091,2.394c-11.382,8.595 -26.198,1.389 -21.006,-9.631Z" style="fill:#f9de9f;"/><path d="M668.597,198.314c10.506,4.647 -0.406,16.384 -6.119,10.322l-1.141,-1.423l-0.332,-1.197l-0.117,-1.197l-0.132,-1.197l1.207,-1.197l0.334,-1.197l1.764,-1.197l0.865,-0.638l1.224,-0.955l1.224,-0.145l1.224,0.022Z" style="fill:#ef9c8e;"/><path d="M923.227,312.586c-2.42,15.876 -18.104,14.529 -25.028,6.404l1.694,-1.339c12.707,3.339 12.92,2.872 15.909,1.248l1.224,-0.67l1.224,-0.703l1.224,-1.102l1.224,-1.264l0.994,-1.395l1.536,-1.178Z" style="fill:#d9e9ef;"/><path d="M396.886,413.775c2.404,1.394 2.355,1.516 2.596,1.506c0.266,-0.011 1.078,-1.992 1.964,0.362c1.7,4.517 -14.177,8.755 -16.741,4.655c-3.545,-5.669 6.453,-5.927 12.181,-6.523Z" style="fill:#fbfbfa;"/><path d="M925.668,471.636c-2.433,-1.827 -2.929,-1.67 -3.148,-4.666c-0.276,-3.787 2.846,-5.248 3.315,-5.467c9.243,-4.324 13.308,14.065 -0.167,10.133Z" style="fill:#fdfdfc;"/><path d="M881.01,445.473c0.443,6.82 1.171,6.735 0.293,13.299c-0.215,1.606 -0.901,1.86 0.423,2.802c0.313,0.222 0.773,-0.62 1.086,-0.398c-6.748,3.431 -6.717,3.435 -7.361,3.353c-0.777,-0.098 -0.788,-0.261 -5.433,-7.977l1.727,-0.026c0.354,-0.202 0.87,0.302 1.224,0.1c0.075,-0.043 5.417,-4.765 6.634,-8.775l0.176,-1.197l1.231,-1.182Z" style="fill:#805221;"/><path d="M595.188,513.663c-3.414,-10.393 27.148,-4.336 27.387,-1.311c0.036,0.459 -0.551,0.828 -0.515,1.287l-1.181,0.154c-10.106,-2.942 -13.507,-2.608 -14.694,-2.491c-5.692,0.56 -5.268,2.912 -10.996,2.36Z" style="fill:#bfd3e6;"/><path d="M362.962,496.003c0.65,-0.482 6.807,-5.048 10.128,1.144c4.315,8.047 -17.207,10.991 -10.128,-1.144Z" style="fill:#fcfbfa;"/><path d="M297.769,445.975c13.697,4.488 -2.858,15.844 -6.261,7.936c-2.739,-6.364 5.454,-7.795 6.261,-7.936Z" style="fill:#f9fafa;"/><path d="M428.586,565.292c-3.923,-3.99 -3.929,-3.843 -7.084,-8.547c-0.163,-0.243 -5.761,-13.845 1.89,-3.119c6.556,9.191 7.811,7.873 16.316,15.233c-0.144,0.304 -1.141,2.409 -2.844,3.135c-3.173,-4.388 -4.067,-3.327 -8.278,-6.703Z" style="fill:#b4cee3;"/><path d="M462.699,433.516c0.203,-0.336 -0.416,-0.817 -0.213,-1.153c1.342,-2.223 1.92,-0.679 5.612,0.696c3.317,1.235 3.185,1.346 6.11,3.189c-0.383,0.199 -3.929,0.958 -9.85,7.099c-2.878,2.985 -1.475,-1.282 -1.659,-9.83Z" style="fill:#70411b;"/><path d="M908.612,309.018c0.253,-0.596 0.704,-4.599 4.93,-3.008c2.006,0.755 2.802,2.197 3.243,3.091c3.056,6.197 -9.475,11.272 -8.174,-0.083Z" style="fill:#dfeef5;"/><path d="M14.642,507.546c1.491,2.469 1.936,2.382 1.607,7.342c-2.512,4.202 -3.102,3.809 -4.924,8.389l-0.772,1.197l-2.035,1.155c0.096,-1.255 0.079,-12.635 6.124,-18.083Z" style="fill:#e2b355;"/><path d="M737.047,539.948c2.412,-1.136 2.518,-2.138 4.785,-0.738c0.361,0.223 2.935,1.812 2.833,4.422c-0.259,6.645 -14.604,4.3 -7.617,-3.684Z" style="fill:#f7f7f8;"/><path d="M215.137,833.32c0.723,10.471 2.671,10.571 -0.432,20.387l-0.799,1.197l-1.754,1.205c1.033,-7.815 -1.352,-8.012 1.149,-15.572c1.821,-5.503 0.107,-5.579 0.367,-5.986c0.342,-0.535 1.128,-0.696 1.47,-1.231Z" style="fill:#f5cb66;"/><path d="M178.487,771.532c5.311,-0.166 5.323,0.284 10.392,-1.615c0.425,-0.159 0.808,-0.798 1.217,-0.603c0.814,0.387 0.948,1.633 1.761,2.02c-2.499,5.725 -10.041,9.036 -13.371,0.199Z" style="fill:#f4ca68;"/><path d="M674.587,194.32c0.691,-0.407 0.662,-1.556 1.353,-1.963c0.671,-0.395 0.782,0.705 9.79,-0.147c0.96,-0.091 1.149,0.064 1.224,0.126c1.035,0.853 0.398,1.211 1.349,1.995c-3.32,1.941 -4.46,3.188 -4.78,3.537c-3.956,4.327 -4.089,-0.257 -8.936,-3.549Z" style="fill:#e3a638;"/><path d="M216.951,445.723c-0.523,-0.319 -7.555,-4.612 -1.156,-7.451c6.161,-2.734 11.876,7.454 1.156,7.451Z" style="fill:#f9f9f9;"/><path d="M666.761,556.565c2.556,0.598 6.896,3.146 10.402,3.015l1.224,0.123l1.224,0.068l1.224,0.091l1.244,2.123c-10.4,2.071 -15.354,4.936 -15.318,-5.42Z" style="fill:#c6ddeb;"/><path d="M191.122,795.633c0.23,-1.934 -0.368,-2.652 1.6,-2.781c5.977,-0.393 17.951,-13.135 15.43,-6.266c-2.291,6.243 -14.145,8.423 -17.03,9.047Z" style="fill:#af651a;"/><path d="M648.895,191.928l1.346,-1.454c0.965,0.204 6.908,1.458 12.238,1.548l1.362,1.402c-2.163,1.208 -2.159,1.056 -4.166,2.473c-5.369,3.792 -5.125,-0.647 -10.779,-3.97Z" style="fill:#ef9a33;"/><path d="M696.676,193.356l1.292,-1.071c0.973,-0.11 5.615,-0.637 12.238,-0.479l1.395,1.4c-4.255,2.988 -4.775,6.636 -7.419,4.311c-3.296,-2.898 -3.325,-2.775 -7.506,-4.161Z" style="fill:#ee9c31;"/><path d="M874.527,223.304c-8.051,3.414 -8.553,-7.772 -1.52,-6.6c6.511,1.086 1.886,6.194 1.52,6.6Z" style="fill:#f5f9f8;"/><path d="M172.573,822.875c6.036,-0.061 10.906,3.695 11.519,4.059c-3.856,5.85 -10.609,1.855 -11.519,-4.059Z" style="fill:#cc8e3d;"/><path d="M404.183,546.797c-15.892,0.388 6.296,-8.077 6.662,-4.4c0.242,2.43 -6.045,4.224 -6.662,4.4Z" style="fill:#9ebfdd;"/><path d="M844.991,765.04c3.939,10.179 -3.116,13 -8.626,10.609c5.852,-3.621 7.644,-7.323 8.04,-8.142c0.195,-0.822 0.391,-1.645 0.586,-2.467Z" style="fill:#f4ca63;"/><path d="M892.786,400.555c0.49,-0.063 5.435,-0.704 5.352,3.009c-0.126,5.638 -11.717,3.02 -5.352,-3.009Z" style="fill:#fafaf9;"/><path d="M846.862,824.294c-2.292,4.811 -4.558,2.821 -6.949,4.088c-1.062,0.563 -0.327,1.213 -1.357,1.686c-0.648,0.298 -0.283,-0.933 -0.948,-0.627c-0.912,-0.46 -1.825,-0.92 -2.737,-1.38c10.247,-5.35 10.601,-4.132 11.991,-3.767Z" style="fill:#edc88c;"/><path d="M66.242,519.856c0.496,3.595 -0.092,3.503 -1.203,7.029c-0.264,0.758 -0.527,1.516 -0.791,2.274c-0.852,-0.177 -1.704,-0.354 -2.556,-0.531c0.417,-4.967 -0.302,-5.429 3.512,-8.786c0.257,-0.227 0.781,0.241 1.039,0.014Z" style="fill:#cce0ed;"/><path d="M683.353,210.794c1.742,2.483 1.667,2.438 3.689,4.691c-0.488,0.236 -0.2,-0.718 -0.755,-0.449c-1.173,0.568 -0.582,1.102 -1.675,1.625c-0.395,0.189 -0.391,-0.052 -3.896,-3.8c0.879,-0.689 1.758,-1.378 2.638,-2.068Z" style="fill:#b49a34;"/><path d="M834.872,844.286c-1.297,2.185 -1.78,2.806 -3.726,1.233c-1.208,-0.976 0.35,-4.09 3.726,-1.233Z" style="fill:#6d411a;"/><path d="M165.395,755.399l0.869,0.98c-1.268,2.761 -0.623,3.638 -3.799,4.121c0.242,-0.404 1.637,-2.727 2.931,-5.101Z" style="fill:#e2a742;"/><path d="M889.612,162.749c1.571,-4.68 2.257,-4.2 2.552,-4.622c-0.031,0.287 -0.388,3.592 -0.388,3.592c-0.606,0.514 -1.557,0.517 -2.164,1.031Z" style="fill:#d7e6ef;"/><path d="M192.292,845.3c-3.762,1.571 -3.071,-0.608 -2.967,-0.827c1.002,-2.099 1.931,-1.277 2.967,0.827Z" style="fill:#80542c;"/><path d="M208.843,845.643c-0.545,2.934 -0.324,2.889 -1.41,5.642c0.017,-0.283 0.212,-3.537 0.212,-3.537c-0.32,-1.634 0.689,-1.21 1.199,-2.105Z" style="fill:#f6d37c;"/><path d="M369.974,605.117c4.424,0.051 4.358,-0.159 8.587,0.747c-2.862,-0.249 -5.724,-0.498 -8.587,-0.747Z" style="fill:#e5ca8c;"/><path d="M617.191,209.621c1.634,0.045 3.269,0.09 4.903,0.136c-1.774,0.816 -1.731,0.697 -3.619,0.917c-0.428,-0.351 -0.856,-0.702 -1.284,-1.053Z" style="fill:#ce7a21;"/><path d="M15.059,497.876c0.59,0.108 0.382,-1.591 0.972,-1.483c1.974,0.361 -0.083,1.103 -0.231,3.081c-0.247,-0.533 -0.494,-1.065 -0.741,-1.598Z" style="fill:#92999f;"/><path d="M361.272,601.547c1.663,0.349 3.327,0.699 4.99,1.048c-0.822,0.073 -2.203,1.577 -4.99,-1.048Z" style="fill:#c6cbc2;"/><path d="M197.471,493.381c0.039,0.706 0.077,1.411 0.116,2.117c-0.754,-0.507 -0.745,-0.381 -1.397,-0.94c-0.953,-0.818 0.089,-0.659 1.281,-1.176Z" style="fill:#d9e7ee;"/><path d="M817.45,847.976c-0.727,0.289 -1.453,0.578 -2.18,0.867c0.057,-0.152 0.715,-1.896 0.715,-1.896c0.122,-0.076 0.108,0.076 1.465,1.029Z" style="fill:#e2ae59;"/><path d="M70.167,453.764c0.753,0.029 0.462,-0.586 1.173,-0.559c1.652,0.063 -0.147,0.785 -0.432,2.313l-0.741,-1.753Z" style="fill:#adc9db;"/><path d="M669.839,215.856c1.158,-0.233 2.315,-0.466 3.473,-0.7c-1.158,0.233 -2.315,0.466 -3.473,0.7Z" style="fill:#bc4f50;"/><path d="M360.238,572.335c1.354,0.783 2.786,1.348 1.188,1.472c-1.029,0.08 -1.205,-0.137 -1.268,-0.217c-0.476,-0.59 0.547,-0.677 0.08,-1.256Z" style="fill:#d8e8ef;"/><path d="M813.243,769.905c0.221,1.227 0.443,2.455 0.664,3.682c-0.074,-0.224 -1.467,0.036 -0.664,-3.682Z" style="fill:#edb23c;"/><path d="M551.178,575.792c0.191,0.015 2.384,0.19 2.384,0.19c3.979,1.363 -0.969,0.803 -1.076,0.791l-1.308,-0.98Z" style="fill:#f7da7c;"/><path d="M196.241,783.978c2.305,-0.839 2.282,-0.954 2.489,-0.907c0.05,0.011 -0.193,1.164 -1.302,1.266c-0.412,0.038 -0.775,-0.398 -1.187,-0.36Z" style="fill:#eeab35;"/><path d="M807.404,774.318c0.092,0.585 0.183,1.169 0.275,1.754l-0.397,1.282l0.122,-3.036Z" style="fill:#f1c25a;"/><path d="M585.528,563.821c0.273,0.694 0.547,1.387 0.82,2.081l-1.034,0.383c0.071,-0.821 0.143,-1.642 0.214,-2.463Z" style="fill:#b5cee1;"/><path d="M655.105,212.062l-2.226,1.516c1.793,-2.3 1.692,-2.403 1.934,-2.481c0.326,-0.104 -0.034,1.068 0.292,0.964Z" style="fill:#c29230;"/><path d="M515.706,509.929c-0.496,-0.727 -0.857,-0.181 -1.322,-0.863c-0.533,-0.782 0.285,-0.039 1.141,-0.157l0.181,1.02Z" style="fill:#f1f6f6;"/><path d="M248.832,774.737c1.535,0.82 1.484,0.798 2.576,2.059c-0.859,-0.686 -1.717,-1.373 -2.576,-2.059Z" style="fill:#f6c95d;"/><path d="M807.679,776.072c0.104,1.248 -0.021,1.21 -0.825,2.133l0.428,-0.851l0.397,-1.282Z" style="fill:#f4c966;"/><path d="M727.226,196.761l1.421,0.991c-0.25,-0.15 -0.078,0.95 -0.328,0.799c-0.145,-0.087 -0.081,-0.133 -1.093,-1.79Z" style="fill:#9e6427;"/></g></svg>