<?xml version="1.0" encoding="UTF-8" standalone="no"?><!DOCTYPE svg PUBLIC "-//W3C//DTD SVG 1.1//EN" "http://www.w3.org/Graphics/SVG/1.1/DTD/svg11.dtd"><svg width="100%" height="100%" viewBox="0 0 1024 1024" version="1.1" xmlns="http://www.w3.org/2000/svg" xmlns:xlink="http://www.w3.org/1999/xlink" xml:space="preserve" xmlns:serif="http://www.serif.com/" style="fill-rule:evenodd;clip-rule:evenodd;stroke-linejoin:round;stroke-miterlimit:2;"><g id="Background"><path d="M572.719,88.972c-0.86,7.512 -3.706,22.59 -0.975,24.406c0.308,0.205 118.528,50.936 126.096,193.774c2.314,43.687 -7.854,46.844 1.623,57.159c12.166,13.242 18.619,45.427 2.748,71.026c-7.338,11.836 5.243,40.975 22.18,42.816c16.008,1.74 26.106,-14.386 28.14,9.26c3.372,39.191 -14.507,74.545 -40.036,90.112c-6.665,4.064 -15.743,6.918 -14.929,10.935c0.426,2.103 6.923,16.862 -11.027,32.077c-13.771,11.672 -25.368,6.074 -29.356,13.072c-23.331,40.938 -40.253,29.619 -40.681,40.865c-0.045,1.184 -1.184,17.621 1.258,19.159c31.176,19.634 77.202,49.758 124.467,155.569c4.212,9.429 27.329,68.34 24.892,75.753c-6.891,20.957 -173.109,133.346 -369.085,88.62c-14.061,-3.209 -100.577,-22.953 -167.32,-75.741c-14.165,-11.203 -18.354,-12.115 -13.345,-31.341c24.129,-92.604 77.659,-155.787 87.025,-166.842c7.186,-8.482 9.525,-9.537 5.902,-13.8c-25.509,-30.025 -12.47,-51.909 -20.727,-59.151c-23.545,-20.651 -27.381,-54.392 -20.448,-81.271c0.173,-0.67 2.007,-7.78 0.751,-8.718c-3.774,-2.82 -67.525,-26.955 -58.286,-115.036c3.127,-29.815 18.139,2.011 36.617,-7.377c4.908,-2.494 15.004,-8.782 18.517,-39.109c1.183,-10.21 -19.018,-35.654 6.9,-70.951c3.433,-4.675 -14.615,-100.437 65.942,-183.947c24.196,-25.083 61.26,-42.714 66.986,-45.437c6.76,-3.216 2.651,-6.603 -4.85,-65.166c-0.041,-0.317 -5.376,-21.021 4.831,-22.509c10.554,-1.539 44.206,40.568 47.694,32.914c21.171,-46.461 29.16,-69.706 39.572,-56.354c4.833,6.197 27.699,60.403 32.155,58.072c11.251,-5.884 49.666,-51.293 52.778,-29.298c0.805,5.686 -1.617,13.801 -6.01,56.46Z" style="fill:#58352d;"/><path d="M388.205,725.425c-1.492,2.375 -0.972,2.671 -2.841,4.521c-15.354,15.21 -34.471,50.813 -37.04,55.598c-10.934,20.363 -23.883,57.129 -22.789,62.529c3.749,18.507 18.395,-64.107 71.038,-94.385c19.735,-11.351 27.51,0.585 18.218,21.837c-26.136,59.776 -42.373,169.171 -35.508,169.831c3.106,0.299 5.069,-13.711 5.666,-16.816c18.806,-97.68 51.14,-165.142 57.619,-174.163c44.199,21.501 44.132,21.504 46.148,22.397c13.65,6.041 17.622,-0.818 45.774,-14.978c1.214,2.046 1.469,1.709 2.383,4.016c6.669,16.825 31.175,61.123 51.512,159.134c0.161,0.774 3.598,17.339 5.694,7.284c1.078,-5.173 -3.088,-49.22 -11.285,-82.443c-11.508,-46.643 -15.413,-45.209 -17.286,-63.595c-0.481,-4.724 -11.252,-49.748 19.588,-29.832c41.122,26.557 53.653,81.77 58.738,81.749c7.793,-0.032 -12.726,-63.074 -49.46,-104.675c0.079,-0.019 1.017,-3.619 3.532,-0.841c78.411,86.589 101.202,214.792 103.745,219.986c0.535,1.092 1.707,1.598 2.241,2.69c-68.507,39.91 -265.956,106.534 -454.108,-21.538c3.679,-15.929 25.019,-108.323 85.391,-179.626c13.729,-16.215 15.988,-14.424 16.917,-20.503c14.815,-7.447 13.586,-9.691 21.747,-17.192c1.628,-1.497 4.597,3.505 14.364,9.014Z" style="fill:#ef8a9e;"/><path d="M324.562,341.428l1.45,-0.095c25.745,2.425 131.981,-9.333 186.152,-91.955c4.715,-7.19 5.74,-5.831 6.035,-5.213c6.422,13.461 15.501,48.866 78.515,89.588c22.218,14.358 49.163,22.765 49.974,22.072c0.764,-0.652 0.81,-2.139 1.575,-2.791c3.891,2.458 6.098,2.612 6.199,31.304c0.154,43.712 -20.332,87.086 -60.62,114.147c-0.895,-0.219 -0.903,-2.249 -1.798,-2.468c-1.428,-0.35 -53.922,36.29 -124.98,16.278c-9.198,-2.59 -17.17,-6.513 -17.383,-6.447c-0.882,0.269 -0.831,2.269 -1.712,2.538c-33.228,-28.016 -34.651,-25.625 -64.822,-58.296c-0.665,-0.721 -7.006,-7.586 -8.323,-8.999c1.538,-0.843 1.205,-1.727 2.957,-1.621c7.091,0.429 10.146,1.668 14.314,0.911c33.905,-6.16 18.851,-35.796 -4.238,-37.325c-24.923,-1.65 -27.222,9.225 -29.787,17.344l-0.31,1.532c-20.191,-17.761 -24.312,-0.265 -28.427,-5.406c-3.718,-4.646 -5.98,-27.965 -6.221,-30.456c-2.305,-23.772 1.161,-42.035 1.451,-44.641Z" style="fill:#f7e1bc;"/><path d="M565.688,150.981c52.56,17.263 122.817,97.269 115.951,190.41c-0.372,5.052 -0.829,4.875 -0.749,5.293c0.125,0.654 1.207,0.988 1.005,1.614c-0.419,1.304 -2.115,2.388 -2.338,2.53c-0.719,0.46 -0.648,-0.622 -1.306,-0.201c-7.531,-0.536 -9.322,2.11 -12.644,-5.903c-3.465,-8.36 -72.928,-24.016 -123.685,-113.333c-14.589,-25.671 -17.241,-56.8 -29.419,-29.306c-29.709,67.07 -119.214,115.771 -190.772,117.721c-6.239,0.17 -7.257,-0.57 -9.883,6.29c-1.687,4.409 -6.822,-0.271 -21.591,5.571c-2.102,0.831 -2.097,0.607 -4.015,-0.708c0.173,-16.256 -5.504,-116.283 89.907,-183.919c18.373,-13.025 36.413,-21.272 37.047,-18.207c4.512,21.801 -1.836,29.703 16.456,35.306c6.319,1.935 63.879,22.488 130.552,-5.298c4.289,-1.787 3.546,-2.89 5.484,-7.861Z" style="fill:#b4714b;"/><path d="M387.437,553.282c-33.65,-6.144 -21.415,-38.523 -43.205,-63.617c-31.388,-36.149 -15.517,-44.041 -12.469,-43.503c7.444,1.313 37.239,43.286 30.53,27.372c-0.289,-0.685 -17.053,-23.59 -27.171,-31.588c-0.727,-0.575 -9.321,-7.368 0.957,-12.959c20.611,-11.213 31.364,36.218 84.516,76.151c65.788,49.427 88.3,108.647 90.139,94.013c0.151,-1.2 -1.914,-6.613 -0.264,-8.198c1.944,-1.869 10.118,-1.555 11.004,-1.521c0.515,1.042 1.03,2.084 1.545,3.126l1.438,0.832l1.438,1.009c55.378,52.354 -30.615,102.562 -75.695,60.447c-24.321,-22.722 -35.005,-46.97 -36.22,-47.322c-0.965,-0.28 -1.388,2.464 -2.353,2.184c-11.781,-26.6 -11.953,-26.371 -22.323,-53.696c-0.696,-1.835 -1.836,-2.68 -1.868,-2.727Z" style="fill:#f7dfbb;"/><path d="M373.689,562.235c0.041,0.815 -0.567,1.553 -0.526,2.369c0.063,1.255 6.741,18.19 4.071,63.445c-6.03,102.189 -57.793,80.134 -65.146,68.742l-1.532,-1.717c-0.848,-0.099 -1.695,-0.198 -2.543,-0.298c-0.904,-4.386 -5.05,-24.506 1.991,-56.415c7.617,-34.521 18.728,-70.956 20.582,-77.034c0.468,-1.534 6.216,-2.213 6.531,-2.494c3.772,-3.361 -6.592,-5.321 -9.39,-6.94c-32.244,-18.654 -5.628,-46.802 -41.854,-93.855c-7.555,-9.813 -1.193,-18.892 4.156,-19.139c27.093,-1.253 26.649,4.724 26.457,7.308c-2.17,29.242 7.398,33.589 23.555,53.54c15.79,19.497 3.641,44.177 33.649,62.489Z" style="fill:#f7debb;"/><path d="M590.071,728.707c1.281,-0.822 12.405,-7.958 15.976,-10.37c5.8,-3.918 4.793,-9.475 10.468,-6.153c38.171,22.35 69.668,66.873 74.676,73.952c32.822,46.395 57.467,115.132 61.288,132.248c1.443,6.462 -37.582,30.811 -48.585,36.886c-0.535,-1.092 -1.707,-1.598 -2.241,-2.69c-2.543,-5.194 -25.334,-133.397 -103.745,-219.986c-2.515,-2.777 -3.453,0.822 -3.532,0.841c-1.435,-1.576 -2.869,-3.152 -4.304,-4.728Z" style="fill:#df6c87;"/><path d="M416.71,646.909c2.649,3.848 17.986,30.424 44.325,46.828c18.71,11.652 61.834,17.343 94.605,-14.793c2.08,-2.04 8.965,-10.166 10.527,-9.812c1.674,0.379 9.477,3.464 20.137,5.222c7.49,1.236 15.592,-1.216 15.647,3.572c0.249,21.776 -0.763,23.237 -5.956,26.639c-4.423,2.898 -86.175,53.148 -95.832,56.33c-6.863,2.261 -111.444,-52.698 -112.674,-57.077c-3.713,-13.219 8.265,-24.528 8.856,-79.131c0.031,-2.878 -1.696,-20.794 3.593,-9.103c5.453,12.053 15.342,28.89 16.772,31.325Z" style="fill:#d16788;"/><path d="M494.414,30.607c1.842,3.704 17.654,35.51 23.267,46.125c4.762,9.007 12.16,-1.382 29.481,-15.645c4.249,8.043 0.554,8.431 -2.962,22.714c-2.81,11.413 -3.015,11.322 -3.205,12.329c-2.346,12.402 -1.883,12.416 -1.962,14.14c-45.987,11.998 -82.909,5.23 -108.032,0.211c-1.423,-17.055 -8.869,-38.875 -3.878,-51.234c24.829,21.624 25.648,21.531 28.31,21.226c5.343,-0.611 21.894,-43.764 30.426,-59.856c2.224,-4.195 8.061,9.055 8.557,9.99Z" style="fill:#f7de5d;"/><path d="M671.456,458.84c-5.239,65.025 40.973,70.958 62.644,45.277c2.22,-2.631 2.135,-2.454 4.301,-4.944c5.49,11.851 -6.973,43.643 -20.318,56.132c-3.11,2.91 -15.674,14.669 -45.597,22.665c-0.232,0.062 -0.203,-0.102 -2.74,-1.372c-1.545,-6.999 -4.893,-52.469 -42.015,-73.153c-5.671,-3.16 -7.995,-2.266 -6.395,-5.366c4.28,-8.29 8.986,-3.187 29.764,-38.126c2.874,-4.833 4.673,-2.062 12.837,-1.601c0.602,0.034 6.318,0.357 7.52,0.487Z" style="fill:#724934;"/><path d="M553.077,531.503c0.996,3.288 0.17,4.223 3.027,5.337c1.402,0.546 30.424,-19.81 60.552,-5.263c2.224,1.074 15.121,7.301 24.279,21.021c0.576,0.863 0.678,0.181 1.44,0.384l1.815,-2.23c12.496,42.128 -40.162,83.219 -80.84,32.664c-11.085,-13.776 -13.581,-40.705 -13.931,-44.481c-0.343,-3.705 -1.606,-2.766 -2.175,-3.745c2.766,-2.307 2.757,-1.99 5.833,-3.686Z" style="fill:#f2a7bc;"/><path d="M547.244,535.189c0.569,0.98 1.831,0.04 2.175,3.745c0.35,3.776 2.846,30.705 13.931,44.481c40.678,50.555 93.336,9.464 80.84,-32.664l-1.173,-5.03l-0.532,-1.717l1.66,-1.976c2.209,3.01 13.177,17.959 10.904,48.3c-6.058,80.85 -84.486,74.749 -83.029,60.128c0.299,-2.996 2.278,-22.847 -3.546,-37.482c-12.026,-30.224 -33.234,-37.021 -36.515,-38.878c-4.136,-2.341 2.204,-22.125 15.285,-38.907Z" style="fill:#e180a4;"/><path d="M324.562,341.428c1.534,-5.703 0.932,-6.607 2.87,-6.962c10.919,-1.996 116.154,-9.589 182.394,-101.443c4.092,-5.675 8.289,-14.497 10.056,-11.485c9.144,15.59 33.222,84.759 128.382,131.496c-0.764,0.652 -0.81,2.139 -1.575,2.791c-0.812,0.693 -27.756,-7.714 -49.974,-22.072c-63.014,-40.722 -72.093,-76.127 -78.515,-89.588c-0.295,-0.618 -1.32,-1.978 -6.035,5.213c-54.171,82.621 -160.407,94.38 -186.152,91.955l-1.45,0.095Z" style="fill:#f3bb91;"/><path d="M388.205,725.425c25.428,13.987 37.64,20.987 54.363,28.951c-6.479,9.021 -38.813,76.483 -57.619,174.163c-0.598,3.105 -2.56,17.115 -5.666,16.816c-6.865,-0.66 9.372,-110.055 35.508,-169.831c9.292,-21.252 1.518,-33.188 -18.218,-21.837c-52.643,30.278 -67.288,112.892 -71.038,94.385c-1.094,-5.399 11.856,-42.165 22.789,-62.529c2.569,-4.785 21.685,-40.388 37.04,-55.598c1.868,-1.851 1.348,-2.146 2.841,-4.521Z" style="fill:#d05a76;"/><path d="M352.094,733.603c-0.93,6.079 -3.188,4.287 -16.917,20.503c-60.371,71.303 -81.712,163.698 -85.391,179.626c-1.37,-0.972 -7.716,-5.477 -16.732,-12.91c-4.25,-3.503 -4.544,-5.317 4.186,-31.579c32.137,-96.679 88.998,-152.227 91.675,-152.825c7.156,-1.596 7.536,2.836 23.18,-2.816Z" style="fill:#f2b9c6;"/><path d="M590.071,728.707c1.435,1.576 2.869,3.152 4.304,4.728c36.733,41.6 57.253,104.643 49.46,104.675c-5.084,0.021 -17.615,-55.193 -58.738,-81.749c-30.84,-19.916 -20.07,25.107 -19.588,29.832c1.873,18.386 5.778,16.952 17.286,63.595c8.197,33.223 12.363,77.27 11.285,82.443c-2.096,10.056 -5.533,-6.51 -5.694,-7.284c-20.338,-98.011 -44.844,-142.309 -51.512,-159.134c-0.914,-2.307 -1.169,-1.97 -2.383,-4.016c39.78,-23.501 39.753,-23.387 43.198,-25.45c0.992,-0.607 9.715,-5.944 12.384,-7.639Z" style="fill:#ce5874;"/><path d="M225.463,480.446c29.752,49.896 59.53,2.751 61.126,0.095c2.896,4.446 4.393,3.802 8.66,27.538c5.423,30.166 6.511,30.726 4.75,32.295c-21.18,18.858 -19.265,21.537 -21.32,22.735c-2.894,1.687 -50.974,-17.065 -54.548,-70.632c-0.055,-0.821 -0.658,-9.862 -0.517,-10.275c0.298,-0.87 1.551,-0.886 1.849,-1.756Z" style="fill:#6d4431;"/><path d="M565.688,150.981c1.233,-23.517 3.077,-24.014 4.63,-23.479c3.497,1.205 37.952,20.341 61.412,46.41c46.025,51.142 54.838,108.985 54.582,152.037c-0.153,25.733 -1.916,26.216 -3.677,26.028c-0.361,-0.039 -0.325,-0.1 -4.384,-1.35c0.658,-0.42 0.587,0.661 1.306,0.201c0.223,-0.142 1.919,-1.226 2.338,-2.53c0.201,-0.626 -0.881,-0.961 -1.005,-1.614c-0.08,-0.419 0.377,-0.242 0.749,-5.293c6.866,-93.14 -63.391,-173.147 -115.951,-190.41Z" style="fill:#db9362;"/><path d="M521.475,589.431c2.988,0.853 18.894,2.121 31.181,25.371c25.896,49.003 -39.036,88.801 -81.276,67.886c-31.699,-15.695 -49.174,-51.619 -59.752,-72.982c0.965,0.28 1.388,-2.464 2.353,-2.184c1.215,0.353 11.899,24.6 36.22,47.322c45.08,42.115 131.073,-8.093 75.695,-60.447l-1.438,-1.009l-1.438,-0.832c-0.515,-1.042 -1.03,-2.084 -1.545,-3.126Z" style="fill:#f6c29f;"/><path d="M671.456,458.84c14.824,-4.64 16.856,-8.963 18.846,-2.589c0.641,2.053 4.942,15.829 11.552,23.655c21,24.863 44.218,3.101 36.546,19.266c-2.166,2.49 -2.081,2.313 -4.301,4.944c-21.671,25.68 -67.882,19.748 -62.644,-45.277Z" style="fill:#9b6845;"/><path d="M769.244,216.359c0.671,-1.098 5.03,-8.224 8.997,-13.167c15.574,-19.403 15.384,-19.598 16.84,-21.158c6.363,-6.815 -7.298,-2.783 -13.192,-1.738c-23.044,4.088 -17.646,-8.731 -16.913,-10.32c3.239,-7.028 42.985,-9.377 47.182,-7.339c12.905,6.265 -6.933,26.303 -20.474,44.673c-7.216,9.789 3.664,3.089 20.376,1.893c8.242,-0.59 15.78,12.79 0.044,15.84c-31.334,6.073 -50.158,10.114 -42.859,-8.684Z" style="fill:#5c3830;"/><path d="M225.463,480.446c-2.601,-12.903 0.529,-12.549 1.352,-12.374c2.705,0.576 22.015,11.443 41.348,-13.793c3.495,-4.563 2.659,1.789 11.063,13.504c4.295,5.987 4.357,5.811 7.362,12.757c-1.595,2.656 -31.374,49.801 -61.126,-0.095Z" style="fill:#976643;"/><path d="M373.689,562.235c1.259,0.569 2.621,0.766 3.88,1.335c5.734,2.594 8.436,60.743 4.831,90.359c-9.359,76.886 -59.815,87.342 -74.388,40.846c0.848,0.099 1.695,0.198 2.543,0.298l1.532,1.717c7.353,11.392 59.116,33.447 65.146,-68.742c2.67,-45.255 -4.008,-62.19 -4.071,-63.445c-0.041,-0.815 0.567,-1.553 0.526,-2.369Z" style="fill:#f6c19e;"/><path d="M593.842,498.486c-37.632,25.125 -48.44,18.025 -59.035,30.404c-5.425,6.338 -7.602,5.433 -23.288,6.592c-15.536,1.148 -36.595,-0.63 -38.445,-2.411c-12.66,-12.188 -12.248,-12.507 -25.105,-24.685c0.882,-0.269 0.831,-2.269 1.712,-2.538c0.213,-0.065 8.185,3.857 17.383,6.447c71.058,20.012 123.552,-16.627 124.98,-16.278c0.895,0.219 0.903,2.249 1.798,2.468Z" style="fill:#f4c09b;"/><path d="M630.84,427.285c9.054,36.092 -71.101,25.272 -49.682,-6.246c8.028,-11.813 38.858,-13.913 49.682,6.246Z" style="fill:#f4bfb3;"/><path d="M357.76,421.932l0.31,-1.532c2.565,-8.119 4.864,-18.994 29.787,-17.344c23.088,1.528 38.143,31.165 4.238,37.325c-4.168,0.757 -7.224,-0.482 -14.314,-0.911c-1.752,-0.106 -1.419,0.778 -2.957,1.621c-9.622,-11.825 -15.619,-17.735 -17.064,-19.159Z" style="fill:#f6beb3;"/><path d="M307.942,358.688c-7.585,1.334 -20.788,2.924 -22.929,22.326c-1.518,13.756 9.812,31.193 20.814,31.546c5.511,0.176 5.36,-0.369 6.84,-0.587c4.108,13.835 4.583,13.858 4.081,14.965c-0.58,1.281 -0.946,0.656 -15.237,-0.769c-32.559,-3.245 -42.596,-81.038 2.916,-80.833c4.643,0.021 4.067,2.382 3.516,13.352Z" style="fill:#f8e5c0;"/><path d="M383.685,380.785c-0.73,-1.369 -9.751,-18.288 1.319,-20.224c5.914,-1.034 8.836,7.384 9.12,7.863c6.838,11.519 27.257,18.606 40.638,-0.071c0.705,-0.984 9.934,-13.866 13.522,-1.188c5.15,18.198 -40.11,52.819 -64.599,13.619Z" style="fill:#59352f;"/><path d="M557.277,376.031c26.417,29.914 41.056,-4.094 44.736,-5.699c16.179,-7.056 9.044,42.067 -30.023,35.552c-24.368,-4.063 -38.345,-40.169 -23.079,-38.81c3.259,0.29 5.09,3.638 8.366,8.957Z" style="fill:#57342e;"/><path d="M742.292,273.123c1.25,3.339 2.038,1.882 5.044,1.23c4.072,-0.883 10.587,-1.59 11.511,-1.691c0.907,-0.099 12.877,-1.399 8.716,8.748c-1.134,2.765 -1.656,2.917 -31.704,6.973c-28.442,3.839 11.19,-36.166 11.433,-37.956c0.612,-4.512 -2.024,-1.746 -15.847,0.888c-0.604,0.115 -5.746,1.095 -7.383,-2.351c-4.285,-9.023 2.91,-11.047 23.351,-13.126c33.154,-3.372 5.053,24.179 -5.121,37.286Z" style="fill:#5f3a32;"/><path d="M668.952,377.428c0.013,-9.259 -0.287,-9.279 0.014,-9.993c0.092,-0.217 0.638,-1.508 2.198,-1.517c38.177,-0.217 36.218,83.979 -10.018,78.059c-3.505,-0.449 -1.455,-5.138 1.339,-13.286c23.101,3.638 26.17,-26.656 23.444,-36.179c-3.949,-13.796 -15.342,-16.247 -16.978,-17.083Z" style="fill:#f9e4c0;"/><path d="M558.494,104.386c-0.053,1.379 -0.648,16.855 -1.283,17.191c-0.173,0.092 -10.525,-16.128 -22.778,0.046c-0.168,0.222 0.189,0.469 -1.615,3.213c-2.698,4.103 -11.875,-16.261 -26.141,3.092c-2.513,3.409 -2.924,0.867 -5.81,-1.97c-3.484,-3.426 -3.777,-2.581 -8.056,-4.153c-2.16,-0.258 -2.054,-0.253 -4.311,-0.158c-4.41,1.85 -4.666,1.291 -9.147,6.147c-5.05,5.473 -5.502,0.611 -8.469,-2.197c-13.998,-13.243 -19.826,8.317 -24.07,-0.478c-3.886,-8.053 -16.824,-9.959 -20.238,-3.624c-4.582,8.504 -3.021,-2.155 -3.56,-12.282c2.661,0.422 5.321,0.845 7.982,1.267c25.124,5.019 62.045,11.788 108.032,-0.211c6.132,-1.101 14.799,-2.322 19.462,-5.884Z" style="fill:#b4703c;"/><path d="M553.077,531.503c2.569,-0.795 16.408,-3.819 35.897,-15.437c0.779,-0.464 7.938,-4.732 10.239,-4.412c26.984,3.751 35.214,14.862 44.931,30.375l-1.66,1.976l0.532,1.717l1.173,5.03l-1.815,2.23c-0.761,-0.203 -0.863,0.48 -1.44,-0.384c-9.158,-13.72 -22.055,-19.947 -24.279,-21.021c-30.128,-14.547 -59.151,5.81 -60.552,5.263c-2.857,-1.114 -2.031,-2.049 -3.027,-5.337Z" style="fill:#f4cad3;"/><path d="M307.942,358.688c0.11,36.271 2.176,39.539 4.724,53.285c-1.48,0.218 -1.329,0.764 -6.84,0.587c-11.001,-0.352 -22.332,-17.79 -20.814,-31.546c2.142,-19.402 15.344,-20.992 22.929,-22.326Z" style="fill:#f4bf99;"/><path d="M547.162,61.087c3.96,-3.272 3.935,-3.249 4.276,-3.534c1.166,-0.973 1.034,-1.01 2.249,-2.035c9.281,-7.824 9.03,-8.045 9.919,-8.533c3.515,-1.929 2.145,2.51 -5.113,57.4c-4.662,3.563 -13.329,4.783 -19.462,5.884c0.079,-1.724 -0.383,-1.738 1.962,-14.14c0.191,-1.007 0.396,-0.916 3.205,-12.329c3.516,-14.283 7.211,-14.671 2.962,-22.714Z" style="fill:#f6b038;"/><path d="M668.952,377.428c1.636,0.836 13.029,3.287 16.978,17.083c2.726,9.523 -0.343,39.817 -23.444,36.179c4.943,-18.813 6.666,-25.899 6.466,-53.262Z" style="fill:#f6bb96;"/><path d="M310.826,585.491c-16.227,59.926 -15.262,60.253 -15.364,61.433c-0.332,3.828 -1.337,5.931 -3.347,2.814c-10.871,-16.858 -12.158,-27.271 -11.861,-38.815c2.861,0.713 2.745,0.503 5.512,0.059c11.156,-2.947 21.415,-27.227 22.99,-27.441c0.873,-0.119 1.197,2.067 2.07,1.948Z" style="fill:#dd7a9f;"/><path d="M526.012,451.537c-4.537,2.459 -35.234,19.099 -61.833,-8.973c-8.366,-8.829 0.587,-12.979 3.668,-9.381c32.291,37.711 60.772,1.336 65.118,3.217c7.211,3.121 -2.934,11.719 -3.648,12.324c-0.265,0.224 -0.245,0.208 -3.305,2.813Z" style="fill:#56342e;"/><path d="M314.876,558.867c2.983,3.71 2.033,4.514 -4.05,26.624c-0.873,0.119 -1.197,-2.067 -2.07,-1.948c-1.575,0.214 -11.834,24.494 -22.99,27.441c-0.896,-11.13 1.105,-21.334 13.568,-38.941c6.213,-8.777 8.48,-5.257 15.543,-13.176Z" style="fill:#f19bb5;"/><path d="M730.181,338.637c-2.484,0.413 -26.019,7.311 -12.638,-10.546c2.807,-3.747 12.308,-14.329 5.349,-12.812c-1.011,0.22 -15.826,3.449 -12.298,-4.407c1.53,-3.407 42.881,-15.593 15.966,16.561c-5.179,6.187 14.393,-2.561 13.275,7.062c-0.252,2.167 -8.845,3.973 -9.653,4.143Z" style="fill:#5c362e;"/><path d="M487.272,153.755c-1.239,-0.785 -13.575,-8.595 -8.651,-18.207c11.515,-22.479 39.565,2.619 15.473,18.083c-3.432,0.551 -3.34,0.83 -6.822,0.124Z" style="fill:#f46d70;"/><path d="M427.122,59.247c-4.991,12.358 2.455,34.178 3.878,51.234c-2.661,-0.422 -5.321,-0.845 -7.982,-1.267c-0.732,-2.278 -0.763,-2.091 -1.168,-4.566c-5.608,-34.286 -10.263,-56.644 -8.052,-57.776c1.241,-0.636 1.211,0.17 13.324,12.376Z" style="fill:#f8ec9e;"/><path d="M508.922,143.932c-3.999,-17.35 9.321,-21.097 14.19,-19.114c18.293,7.448 3.413,43.16 -14.19,19.114Z" style="fill:#f1ed79;"/><path d="M669.515,583.434c2.411,-1.095 2.31,-1.924 4.181,-1.074c37.605,17.097 -9.616,40.151 -8.152,32.029c2.765,-15.339 2.955,-15.138 3.971,-30.955Z" style="fill:#6a422f;"/><path d="M472.741,144.037c-15.567,22.839 -26.84,-3.298 -21.22,-11.664c9.656,-14.371 25.206,-1.79 21.22,11.664Z" style="fill:#f5ee5f;"/><path d="M314.876,558.867c-7.062,7.918 -9.33,4.399 -15.543,13.176c-12.463,17.607 -14.464,27.81 -13.568,38.941c-2.768,0.444 -2.651,0.654 -5.512,-0.059c0.464,-13.694 0.929,-29.423 20.233,-50.979c8.752,-9.773 10.67,-4.452 14.39,-1.078Z" style="fill:#f5c5d0;"/><path d="M427.199,143.69c-1.969,-4.821 -2.178,-4.703 -2.138,-9.98c0.164,-21.536 28.268,-8.599 20.023,6.734c-6.827,12.697 -15.129,4.497 -17.886,3.245Z" style="fill:#e8e595;"/><path d="M554.199,138.622c-4.086,4.793 -3.824,5.747 -9.546,6.488c-22.547,-9.216 1.481,-39.854 10.887,-19.736c2.282,4.881 -0.93,12.3 -1.34,13.248Z" style="fill:#dce987;"/><path d="M501.767,569.456c-9.965,-13.989 -10.583,-13.602 -10.55,-15.179c0.052,-2.494 1.301,-1.746 26.073,-1.894c4.434,-0.026 0.27,8.534 -0.322,12.145c-1.267,7.721 -2.013,7.975 -8.429,9.856c-4.365,1.28 -3.683,-1.187 -6.771,-4.927Z" style="fill:#e884a0;"/><path d="M511.483,386.46c19.674,5.284 3.666,32.692 -5.498,28.2c-4.723,-2.315 13.576,-12.548 5.093,-21.021c-0.614,-0.614 -12.932,-3.702 -6.545,-6.904c1.023,-0.513 1.04,-0.273 6.95,-0.275Z" style="fill:#f5bf97;"/><path d="M340.548,432.418l1.282,0.002l0.567,1.715c0.481,1.188 0.332,2.649 0.812,3.837c0.919,2.271 3.211,-0.953 20.355,20.072c2.073,2.542 -0.262,4.527 -3.018,1.808c-22.392,-22.093 -23.015,-23.419 -21.526,-25.722c0.425,-0.658 0.649,0.389 1.13,-0.149c0.548,-0.614 -0.186,-0.908 0.398,-1.562Z" style="fill:#d3a47d;"/><path d="M277.074,428.96c1.626,-1.449 2.351,-2.438 2.996,-0.027c0.097,0.362 -1.696,8.459 -2.996,0.027Z" style="fill:#815745;"/><path d="M488.501,121.647c2.256,-0.094 2.151,-0.1 4.311,0.158c-2.26,0.683 -2.194,0.629 -4.311,-0.158Z" style="fill:#a1573a;"/></g></svg>