<?xml version="1.0" encoding="UTF-8" standalone="no"?><!DOCTYPE svg PUBLIC "-//W3C//DTD SVG 1.1//EN" "http://www.w3.org/Graphics/SVG/1.1/DTD/svg11.dtd"><svg width="100%" height="100%" viewBox="0 0 2048 2048" version="1.1" xmlns="http://www.w3.org/2000/svg" xmlns:xlink="http://www.w3.org/1999/xlink" xml:space="preserve" xmlns:serif="http://www.serif.com/" style="fill-rule:evenodd;clip-rule:evenodd;stroke-linejoin:round;stroke-miterlimit:2;"><g id="Background"><path d="M1417.949,770.003c1.166,1.141 10.728,10.492 18.497,8.01c26.081,-8.332 37.031,-1.295 73.068,-4.275l3.648,0.024l3.648,1.365l3.648,0.52l3.648,-1.436l3.648,0.3l4.046,-5.077c11.93,6.113 11.962,5.892 12.885,6.602c18.625,14.329 -6.708,49.39 -10.857,53.998c-42.816,47.554 -49.791,38.832 -52.789,43.48c-0.688,1.067 2.41,2.343 1.723,3.41c0.495,1.029 0.99,2.057 1.485,3.086c34.984,22.518 51.177,61.265 53.105,65.339c18.811,39.753 6.471,117.718 4.872,127.817c-3.415,21.575 19.228,20.587 8.566,102.282c-24.147,90.894 -59.893,80.078 -83.422,118.108c-73.349,118.556 -174.127,153.75 -266.507,72.685c-14.966,-13.133 -14.687,-20.733 -20.174,-17.924c-1.898,0.972 -7.501,40.989 4.698,48.992c56.476,37.052 58.12,40.357 88.484,67.292c158.878,140.939 236.397,397.134 236.815,406.185c1.649,35.717 -195.71,115.488 -267.736,135.024c-204.727,55.529 -411.681,65.574 -667.823,-27.281c2.376,-1.849 0.642,-4.935 11.569,-9.001c0.985,-0.366 9.85,-3.665 12.438,-4.179l2.021,-1.736l4.527,-3.911c124.44,42.443 312.101,94.168 597.568,29.151c80.079,-18.239 159.193,-57.048 172.426,-63.539c2.23,-0.815 107.733,-45.427 103.128,-61.663c-21.723,-76.592 -96.764,-242.782 -175.078,-327.941c-85.626,-93.111 -136.959,-116.591 -143.801,-113.204c-2.325,1.151 -31.912,21.275 -34.671,23.151c-6.946,4.042 -19.59,10.727 -21.306,11.635c-45.935,22.488 -45.428,22.594 -90.687,46.277c-30.672,16.727 -29.166,18.875 -59.431,36.489c-20.083,11.688 -19.731,-3.137 -100.918,-39.919c-15.971,-8.884 -87.686,-41.528 -111.857,-53.988c-15.32,-8.81 -15.068,-8.704 -30.739,-17.201c-15.621,-10.678 -18.544,-6.737 -59.376,24.33c-144.776,110.153 -208.326,265.081 -228.675,311.634c-4.651,11.586 -5.549,11.076 -16.17,41.079c-1.209,3.334 -13.932,38.411 -13.872,42.13c0.133,8.211 18.787,17.167 22.603,19.667c31.014,18.958 30.918,18.467 62.749,36.194l-4.101,6.321c-1.448,-0.196 -2.293,2.557 -3.74,2.361c-0.551,-0.075 -24.177,-16.51 -26.079,4.874c-28.972,-16.335 -73.635,-38.488 -80.68,-57.644c-7.06,-19.194 58.835,-197.26 152.522,-311.952c61.111,-83.323 133.371,-127.914 156.115,-144.235c12.364,-8.872 12.867,-11.417 8.274,-69.535c-1.687,-21.347 -11.169,-12.855 -31.549,-18.069c-71.85,-18.384 -114.902,-81.227 -115.147,-152.188c-0.097,-28.091 12.514,-38.402 -12.384,-45.018c-99.012,-26.311 -136.639,-117.734 -140.53,-163.054c-7.054,-82.18 35.974,-66.098 60.284,-65.985c47.029,0.219 64.07,-82.515 50.732,-92.061c-67.588,-48.372 -52.03,-130.779 -13.055,-165.559c21.196,-18.915 10.481,-23.954 11.61,-58.004c3.712,-111.903 68.293,-242.836 168.423,-315.67c46.081,-33.519 71.895,-41.048 81.808,-46.794c13.902,-8.059 -10.322,-82.114 -14.323,-140.416c-4.404,-64.189 111.206,59.844 123.64,57.149c2.824,-0.612 53.11,-92.879 70.765,-120.047c5.323,-8.19 14.815,-9.714 19.824,-7.6c12.038,5.081 70.05,116.912 73.139,123.599c5.741,12.425 9.248,1.252 48.653,-29.069c56.108,-43.174 75.959,-57.656 80.425,-31.794c2.871,16.628 -16.642,118.69 -18.598,128.92c-4.607,24.095 7.854,18.294 28.877,29.178c233.661,120.975 223.548,356.359 225.182,394.102c0.376,8.696 13.188,13.215 21.129,23.68c59.117,77.909 -4.193,134.517 -3.257,143.19c0.647,5.994 4.026,0.088 22.417,-12.661Z" style="fill:#763635;"/><path d="M710.315,1428.948c15.672,8.497 15.419,8.392 30.739,17.201c-51.823,55.702 -119.733,120.004 -155.111,246.883c-6.022,21.597 7.82,4.763 8.155,4.097c54.463,-108.185 66.796,-110.643 77.511,-127.62c11.997,-3.454 11.111,-4.694 19.892,-13.355c48.226,-47.567 100.702,-56.848 117.867,-29.198c-26.64,46.078 -23.455,47.359 -41.309,97.84c-49.4,139.678 -60.041,291.83 -42.857,280.097c10.587,-7.228 -5.356,-40.714 55.779,-241.616c35.172,-115.582 66.323,-138.891 71.929,-163.138c81.187,36.782 80.835,51.607 100.918,39.919c30.265,-17.614 28.759,-19.762 59.431,-36.489c7.862,17.149 20.565,31.821 42.781,84.227c77.184,182.072 103.376,417.445 87.481,241.549c-2.426,-26.844 0.527,-32.871 -17.79,-117.075c-14.272,-65.611 -19.384,-76.753 -22.239,-82.975c0.347,-1.127 4.822,-1.407 3.377,-15.409c-1.235,-11.97 -4.624,-31.495 -5.098,-34.221c-4.65,-26.788 -6.366,-26.191 -11.302,-52.814c-0.532,-2.868 -1.074,-17.974 35.175,-2c85.843,37.829 125.621,134.698 131.744,149.607c4.006,9.755 11.883,5.329 10.805,-0.127c-16.122,-81.663 -81.427,-158.098 -91.373,-169.739c4.179,-1.717 6.476,-6.012 18.28,7.879c89.784,105.654 126.288,212.736 133.256,233.178c39.552,116.024 32.716,131.376 47.316,179.665c-13.233,6.491 -92.346,45.3 -172.426,63.539c-285.467,65.018 -473.128,13.292 -597.568,-29.151c-47.491,-18.06 -71.292,-27.258 -128.107,-55.717c-31.83,-17.727 -31.735,-17.236 -62.749,-36.194c6.912,-6.799 6.802,-6.814 9.939,-16.328c35.954,-109.03 57.036,-136.801 69.103,-159.121c13.053,-24.146 92.156,-170.469 216.448,-263.391Z" style="fill:#f78ca5;"/><path d="M1276.206,621.942c8.853,-0.404 8.756,-1.016 17.362,1.471c1.139,16.609 5.052,42.305 -1.021,97.946c-1.815,16.631 -12.232,69.106 -17.491,75.008c-4.832,5.422 -73.826,-23.401 -114.42,20.433c-7.484,17.402 1.226,19.266 -2.75,40.579c-7.51,40.257 -33.954,40.409 -38.699,41.933c-18.431,5.923 -15.326,10.649 -18.366,30.19c-7.546,48.496 -42.603,35.297 -60.315,50.886l-5.235,-3.64c-3.716,0.521 -12.065,1.69 -45.259,12.631c7.833,-26.078 -23.923,-40.541 -37.721,-17.632c-5.275,8.759 -4.901,8.651 -9.543,17.689c-4.782,1.61 -4.485,2.272 -9.622,2.066c-58.915,-2.367 -129.982,-9.083 -225.209,-78.567c-74.377,-54.27 -104.835,-126.533 -105.761,-130.847l-1.732,-3.78l-1.068,-3.78l-1.383,-3.78l-1.675,-3.78l-0.361,-3.78l-0.519,-3.78l-2.187,-3.78l-1.616,-3.78l-5.054,0.738l-3.892,-0.665c-12.58,-57.236 -9.576,-87.465 -9.076,-113.323c7.794,-4.175 7.722,-4.885 16.582,-3.077c21.988,4.488 21.864,3.132 44.034,0.989c261.21,-32.906 348.936,-180.584 353.65,-180.352c7.833,0.385 74.179,152.312 288.346,165.787Z" style="fill:#f9d7b0;"/><path d="M1107.871,275.47c6.316,-35.095 5.451,-35.7 7.879,-37.454c5.928,-4.282 162.276,60.7 213.385,234.602c16.678,56.75 26.766,138.842 12.546,138.185c-24.284,-1.121 -22.412,-7.071 -24.683,-18c-4.457,-21.449 -82.867,-5.482 -175.63,-68.318c-134.198,-90.902 -124.251,-180.141 -153.767,-170.379c-22.7,7.507 -75.687,191.534 -390.137,225.95c-28.877,3.161 -39.741,-8.342 -45.976,20.957c-2.785,13.089 -32.531,11.969 -33.984,10.681c-5.252,-4.658 -2.182,-6.066 -0.796,-37.561c1.433,-1.448 3.365,-2.295 4.798,-3.744c11.762,-11.885 1.662,-102.582 116.475,-218.881c16.516,-16.729 91.108,-80.14 124.421,-68.731c42.622,45.247 316.275,50.684 345.469,-7.306Z" style="fill:#c37563;"/><path d="M1295.064,841.419c8.846,5.871 26.444,13.991 25.796,27.738c-1.187,25.181 -17.585,-1.836 -26.574,-3.921c-32.255,-7.48 15.464,67.634 90.695,51.13c13.889,-3.047 21.47,-19.729 0.455,-18.372c-37.575,2.427 -7.195,-20.863 -3.605,-20.668c49.051,2.668 76.003,20.389 81.745,24.164c0.546,0.316 38.101,15.78 53.46,77.124c2.871,11.466 10.581,101.434 -14.914,99.126c-5.128,-0.464 -41.257,-3.735 -60.405,22.989c-36.502,50.944 -31.856,85.613 -30.807,93.437c3.24,24.177 6.353,27.801 -17.938,49.357c-97.331,86.375 -145.831,21.465 -147.408,20.14c-26.989,-22.687 -83.811,-4.52 -69.943,-22.92c17.187,-22.805 16.263,-23.095 26.787,-50.356c0.366,-5.033 1.366,-10.002 1.732,-15.036c5.917,-81.444 -76.527,-102.207 -116.831,-63.055c-7.433,7.221 -10.158,-2.909 -16.13,-12.088c0.534,-3.025 3.19,-5.354 3.724,-8.378c0.63,-3.566 -0.733,-3.618 3.464,-45.168c1.017,-10.066 2.392,-9.378 4.937,-19.354c49.653,9.93 65.735,2.361 83.084,-37.4c3.621,-8.3 18.537,-6.039 22.193,-7.044c55.416,-15.242 29.752,-82.27 31.554,-87.784c7.563,-23.143 8.619,-23.532 2.19,-49.845c31.23,-3.478 40.997,-8.493 64.775,0.437c3.158,1.186 3.233,1.146 3.491,1.008c3.13,-1.672 1.076,-3.447 4.473,-5.261Z" style="fill:#e34f57;"/><path d="M820.635,1231.197c43.099,41.929 44.446,50.224 68.208,40.81c18.892,-7.484 138.653,-69.559 140.308,-96.662c0.31,-5.075 3.668,-60.09 20.699,-59.841c16.298,0.239 -2.611,43.313 28.589,28.161c31.03,-15.07 72.17,-55.828 98.839,5.216c4.572,10.464 10.654,74.393 -68.664,114.261c-48.17,24.212 -40.97,34.242 -83.016,68.751c-129.187,106.027 -200.14,108.854 -299.084,0.84c-17.503,-19.107 -26.807,-22.238 -10.849,-42.96c14.591,-18.947 78.597,-83.378 92.629,-71.814c1.112,0.917 0.914,0.981 12.342,13.237Z" style="fill:#f6cea9;"/><path d="M1125.254,1445.654c2.759,-1.876 32.346,-22 34.671,-23.151c6.842,-3.387 58.174,20.093 143.801,113.204c78.313,85.158 153.355,251.349 175.078,327.941c4.605,16.236 -100.898,60.848 -103.128,61.663c-14.601,-48.289 -7.764,-63.641 -47.316,-179.665c-6.969,-20.442 -43.473,-127.524 -133.256,-233.178c-11.804,-13.891 -14.101,-9.596 -18.28,-7.879c-30.657,-35.821 -36.603,-30.464 -51.569,-58.935Z" style="fill:#ef6c8a;"/><path d="M802.606,1133.565c0.609,9.05 6.394,46.818 -8.678,55.878c-57.214,34.396 -59.038,35.086 -105.668,95.069c-14.331,18.435 -102.003,-2.568 -123.832,-90.287c-29.512,-118.591 97.204,-204.526 181.645,-145.965c48.974,33.964 55.639,82.352 56.532,85.305Z" style="fill:#f0839e;"/><path d="M553.607,816.705c13.219,0.633 17.048,-5.859 22.535,6.615c60.734,138.07 155.838,174.678 169.366,186.552c-0.704,1.877 -1.409,3.753 -2.113,5.63c-1.242,-0.463 -2.265,-1.442 -3.507,-1.905c-17.466,-6.518 -122.383,-44.546 -188.111,68.004c-7.541,12.913 -10.998,18.311 -51.975,1.185c-66.562,-27.819 -97.149,-115.232 -90.01,-144.638c10.53,5.064 66.802,60.957 120.001,8.277c6.985,-6.917 38.151,-37.779 26.493,-122.101c-0,-0 -2.465,-7.008 -2.68,-7.618Z" style="fill:#a65b50;"/><path d="M708.607,1357.449c5.923,1.236 6.068,0.916 6.397,1.335c21.658,27.602 81.355,73.16 119.931,79.384c21.56,3.479 108.63,17.528 246.746,-120.449c4.352,-4.348 32.574,-32.541 63.582,-42.321c8.53,-2.691 10.193,4.16 4.206,115.421c-0.081,1.51 5.144,10.323 -49.14,36.387c-156.265,75.03 -153.864,91.164 -166.688,83.485c-84.325,-50.495 -137.415,-62.516 -203.741,-102.875c-13.891,-8.453 -17.166,-8.765 -21.294,-50.368Z" style="fill:#ef6d8b;"/><path d="M948.766,63.273c1.163,2.109 8.012,14.534 14.77,26.218c-0.219,2.137 -4.168,2.433 -4.387,4.57c-0.69,6.722 7.386,19.661 8.346,21.199c5.039,8.072 9.042,1.492 11.069,0.612c21.418,38.883 21.755,38.364 28.254,44.562c-0.863,2.102 -3.142,3.352 -4.005,5.454c-0.619,1.508 11.641,16.253 34.891,2.511c7.361,-4.351 8.438,-20.067 19.435,-21.437c2.92,-0.364 9.839,-6.994 10.6,-7.724l4.012,4.11c-25.589,32.055 -16.277,103.132 -54.421,110.681c-16.902,3.345 -130.897,25.906 -214.944,-8.138c4.495,-27.145 -22.854,-88.745 -14.299,-113.179c47.82,20.626 70.808,98.395 111.361,13.756c18.875,-39.393 21.053,-37.913 38.568,-78.135c3.007,-6.904 4.643,-4.677 10.75,-5.06Z" style="fill:#f4c646;"/><path d="M1289.834,609.099c3.112,6.754 2.525,6.676 3.734,14.315c-8.605,-2.488 -8.509,-1.875 -17.362,-1.471c-214.167,-13.475 -280.513,-165.402 -288.346,-165.787c-4.714,-0.232 -92.441,147.446 -353.65,180.352c-22.17,2.143 -22.046,3.499 -44.034,-0.989c-8.86,-1.808 -8.788,-1.099 -16.582,3.077c1.372,-17.881 0.767,-17.85 2.356,-22.726c4.46,-13.693 108.818,-5.579 218.083,-57.953c153.631,-73.64 178.874,-144.62 194.81,-163.684c2.844,-3.402 25.063,47.245 54.736,80.731c105.746,119.331 238.36,131.253 246.255,134.136Z" style="fill:#f0b295;"/><path d="M758.735,1079.728l-1.533,4.791c0.237,2.185 -1.096,2.331 0.421,3.877c5.103,5.205 7.432,25.498 7.602,30.135c4.687,127.936 -129.575,142.398 -176.444,65.145c-24.153,-39.811 -16.369,-44.768 -13.161,-46.809c8.261,-5.259 4.12,-8.114 8.73,-17.042c3.476,-6.732 28.866,-55.91 68.497,-63.799c62.447,-12.431 92.239,14.394 105.89,23.703Z" style="fill:#f78ea7;"/><path d="M1125.254,1445.654c14.966,28.471 20.911,23.113 51.569,58.935c9.947,11.642 75.251,88.077 91.373,169.739c1.077,5.456 -6.8,9.882 -10.805,0.127c-6.122,-14.909 -45.901,-111.778 -131.744,-149.607c-36.249,-15.974 -35.707,-0.868 -35.175,2c4.937,26.623 6.652,26.026 11.302,52.814c0.473,2.726 3.863,22.251 5.098,34.221c1.444,14.003 -3.03,14.282 -3.377,15.409c2.855,6.222 7.967,17.364 22.239,82.975c18.317,84.204 15.364,90.231 17.79,117.075c15.895,175.896 -10.297,-59.477 -87.481,-241.549c-22.216,-52.406 -34.919,-67.078 -42.781,-84.227c45.259,-23.683 44.752,-23.789 90.687,-46.277c1.716,-0.907 14.36,-7.593 21.306,-11.635Z" style="fill:#e26684;"/><path d="M1031.698,789.745c1.458,-1.169 15.323,-12.282 21.115,-9.558c13.237,6.225 -7.653,23.983 -8.762,25.697c-41.985,64.909 21.603,93.381 4.938,107.39c-9.652,8.114 -9.724,-0.039 -25.306,-12.948c-4.914,-4.071 -21.484,17.188 -47.164,23.546c-121.102,29.982 -159.818,-139.821 -90.743,-148.795c17,-2.209 87.575,50.695 145.921,14.668Z" style="fill:#753533;"/><path d="M741.055,1446.149c24.17,12.459 95.886,45.104 111.857,53.988c-5.606,24.247 -36.757,47.556 -71.929,163.138c-61.135,200.902 -45.193,234.388 -55.779,241.616c-17.184,11.733 -6.543,-140.419 42.857,-280.097c17.854,-50.481 14.669,-51.761 41.309,-97.84c-17.165,-27.65 -69.641,-18.368 -117.867,29.198c-8.781,8.661 -7.895,9.901 -19.892,13.355c-10.715,16.978 -23.048,19.435 -77.511,127.62c-0.335,0.666 -14.177,17.5 -8.155,-4.097c35.378,-126.879 103.288,-191.181 155.111,-246.883Z" style="fill:#df627f;"/><path d="M1436.356,1179.022l5.125,3.786c25.968,37.118 32.607,33.518 45.793,25.516c14.312,-8.685 14.304,-9.104 15.241,-8.721c2.981,1.218 4.543,4.983 7.524,6.201c-2.228,3.598 -18.127,29.27 -34.073,40.116c-40.763,27.727 -29.447,38.612 -62.563,75.583c-65.141,72.725 -113.032,60.764 -119.034,60.773c-70.494,-10.193 -110.61,-73.592 -105.244,-81.79c18.117,-27.679 25.937,-25.914 51.646,-5.944c8.488,6.593 59.824,46.47 132.595,-0.181c46.595,-29.87 38.513,-45.713 70.749,-49.23c24.427,-2.665 -9.272,-16.589 -7.759,-66.109Z" style="fill:#f2b195;"/><path d="M582.67,751.919l3.892,0.665l5.054,-0.738l1.616,3.78l2.187,3.78l0.519,3.78l0.361,3.78l1.675,3.78l1.383,3.78l1.068,3.78l1.732,3.78c0.926,4.315 31.384,76.577 105.761,130.847c95.227,69.484 166.294,76.2 225.209,78.567c5.137,0.206 4.84,-0.456 9.622,-2.066c-0.168,1.062 -7.016,15.321 12.136,16.985c21.177,1.84 24.071,-0.161 35.128,-17.043c33.194,-10.941 41.543,-12.111 45.259,-12.631l5.235,3.64c-6.909,17.27 -4.802,17.637 -6.152,28.361c-2.47,19.632 -27.706,18.493 -39.103,20.003c-182.399,24.171 -360.3,-69.851 -412.58,-276.835Z" style="fill:#f3b597;"/><path d="M710.315,1428.948c-124.293,92.922 -203.395,239.245 -216.448,263.391c-12.066,22.32 -33.148,50.09 -69.103,159.121c-3.137,9.514 -3.027,9.529 -9.939,16.328c-3.816,-2.5 -22.47,-11.456 -22.603,-19.667c-0.06,-3.719 12.663,-38.797 13.872,-42.13c10.621,-30.003 11.519,-29.493 16.17,-41.079c20.35,-46.553 83.899,-201.482 228.675,-311.634c40.833,-31.067 43.755,-35.008 59.376,-24.33Z" style="fill:#f9c0ce;"/><path d="M1010.381,1133.81c-10.657,27.468 0.454,34.993 -23.71,50.922c-103.161,68.005 -107.766,65.527 -115.592,58.597c-3.631,-3.215 -36.802,-32.587 -40.875,-45.095c-2.233,-6.857 19.956,-82.545 -40.103,-150.881c-4.171,-4.746 -33.852,-28.368 -2.984,-15.423c10.371,4.349 39.536,11.766 41.077,18.157c1.747,7.248 3.023,36.266 26.164,67.11c30.575,40.753 111.777,55.142 151.077,11.267c8.088,-9.029 5.073,4.768 4.946,5.346Z" style="fill:#f58ea6;"/><path d="M1075.217,120.235c32.733,-26.615 33.473,-27.926 36.226,-25.668c2.107,1.729 -18.572,122.228 -27.979,166.049c-4.802,22.367 -150.698,47.158 -274.572,15.914c-28.245,-7.124 -22.936,-17.776 -25.551,-27.378c7.978,-0.761 9.257,1.693 19.044,-3.262c84.047,34.044 198.042,11.483 214.944,8.138c38.144,-7.549 28.832,-78.626 54.421,-110.681l-4.012,-4.11c5.508,-6.6 2.773,-7.596 3.238,-8.106c0.827,-0.909 2.542,0.835 3.608,0.253c5.928,-3.235 3.191,-4.872 0.632,-11.149Z" style="fill:#f4a63c;"/><path d="M553.607,816.705c0.214,0.609 2.68,7.618 2.68,7.618c11.657,84.323 -19.508,115.184 -26.493,122.101c-53.199,52.68 -109.471,-3.213 -120.001,-8.277c-14.656,-46.41 32.876,-2.648 69.785,-32.808c35.734,-29.199 37.081,-59.431 40.231,-78.06c3.709,-21.936 12.373,-12.952 33.798,-10.575Z" style="fill:#c37b64;"/><path d="M762.402,282.776c-33.313,-11.409 -107.905,52.002 -124.421,68.731c-114.813,116.299 -104.713,206.995 -116.475,218.881c-1.433,1.448 -3.365,2.295 -4.798,3.744c3.159,-32.592 23.258,-239.984 227.263,-334.935c15.092,-7.024 11.088,18.113 18.431,43.58Z" style="fill:#e09482;"/><path d="M1073.026,995.063c68.296,-21.611 32.683,-66.831 64.048,-74.649c49.389,-12.31 42.167,-88.512 51.142,-80.938c39.88,33.658 6.804,51.719 11.054,63.636c29.258,82.037 -34.706,51.602 -45.487,69.42c-12.157,20.091 -8.77,59.388 -72.124,30.662c-5.988,-2.715 -8.051,-1.317 -8.632,-8.131Z" style="fill:#f9f2b6;"/><path d="M948.766,63.273c-6.107,0.383 -7.743,-1.844 -10.75,5.06c-17.516,40.222 -19.694,38.742 -38.568,78.135c-40.554,84.638 -63.542,6.87 -111.361,-13.756c-8.555,24.433 18.795,86.034 14.299,113.179c-9.787,4.955 -11.066,2.501 -19.044,3.262c-14.662,-75.18 -13.202,-75.224 -27.189,-150.628c7.764,-1.992 7.36,0.345 13.757,5.519c68.169,55.133 78.495,56.894 86.65,58.285c9.201,-5.323 11.746,-6.796 71.237,-114.811c7.213,-13.096 10.844,-2.731 20.97,15.756Z" style="fill:#f9eeba;"/><path d="M1517.591,1114.177c20.339,32.822 4.193,64.127 -7.552,91.627c-2.981,-1.218 -4.543,-4.983 -7.524,-6.201c-0.937,-0.383 -0.928,0.036 -15.241,8.721c-13.186,8.002 -19.825,11.601 -45.793,-25.516l-5.125,-3.786c1.199,-6.331 1.628,-12.801 2.827,-19.132c5.041,-26.618 42.809,-83.963 78.408,-45.713Z" style="fill:#f9dab3;"/><path d="M879.292,854.489c-2.346,-3.458 -4.056,-2.309 -6.724,-11.977c-6.506,-23.576 2.526,-56.652 24.493,-47.066c3.148,1.374 53.851,33.203 105.115,22.999c26.367,-5.249 -0.077,15.542 5.686,42.764c4.281,20.219 4.337,25.714 -21.152,33.49c-10.341,-23.215 -56.47,-58.734 -107.417,-40.208Z" style="fill:#ab404e;"/><path d="M776.849,801.622c-69.669,53.886 -163.116,-28.587 -73.264,-52.143c46.978,-12.316 103.829,15.327 73.264,52.143Z" style="fill:#f3a898;"/><path d="M1011.704,1072.788c-9.785,4.451 -9.587,4.388 -20.216,3.915c-100.673,-4.482 -101.064,-1.326 -109.761,4.971c4.287,5.554 4.655,4.662 10.298,8.213c25.785,8.254 70.745,6.367 84.963,2.325c9.402,-1.134 9.178,-0.6 18.161,-3.815c2.861,-1.024 3.375,-0.766 3.641,-0.632c3.336,1.675 1.661,3.294 4.757,4.849c-52.139,83.368 -153.569,11.803 -148.499,-34.776c1.246,-11.445 41.272,6.648 107.364,1.445c2.925,-0.23 2.824,-0.597 36.512,-3.438c19.117,-1.612 13.585,7.795 12.781,16.944Z" style="fill:#f6caa7;"/><path d="M546.448,676.238l-4.565,-3.781c-41.438,-16.547 -56.662,67.058 -2.859,84.722c8.689,2.853 8.524,0.373 15.855,-5.612c5.582,20.544 11.305,36.144 2.357,36.868c-93.069,7.53 -118.05,-135.638 -25.41,-150.135c20.816,-3.258 15.495,9.513 14.622,37.938Z" style="fill:#f8d4b1;"/><path d="M1322.961,668.69c-0.371,-24.614 -0.447,-24.457 -0.401,-26.583c0.338,-15.832 65.842,-0.302 72.36,53.258c3.675,30.193 -8.964,51.802 -11.475,47.48c-1.611,-2.772 -1.395,-6.338 -2.57,-9.336c-0.623,-1.591 -1.665,-2.997 -2.765,-4.28c-24.721,-28.848 -61.126,10.679 -60.176,-0.576c2.538,-30.056 3.884,-29.711 5.027,-59.962Z" style="fill:#f6ccaa;"/><path d="M813.056,671.024c-40.571,-7.2 -48.938,18.792 -56.616,30.457c-10.542,16.015 -51.696,-11.983 -46.532,-25.554c5.298,-13.924 9.802,-6.639 23.008,-0.939c14.718,6.353 0.712,-13.271 0.061,-14.184c-6.332,-8.871 3.444,-21.899 12.489,-12.993c12.486,12.295 14.314,5.209 24.454,0.063c59.557,-30.227 113.849,40.483 92.787,56.756c-19.377,14.971 -15.022,-21.114 -49.65,-33.606Z" style="fill:#703430;"/><path d="M1051.026,695.136c5.555,-38.846 55.494,-73.221 102.095,-43.405c13.914,8.902 17.044,-10.708 27.888,-5.369c10.732,5.284 -4.152,25.415 -4.184,26.114c-0.548,11.809 5.555,2.535 15.847,-2.004c8.629,-3.805 23.945,9.277 5.547,23.007c-35.857,26.758 -38.879,4.009 -47.688,-8.316c-13.554,-18.964 -55.181,-26.976 -69.801,6.768c-9.347,21.572 -24.497,22.848 -29.704,3.204Z" style="fill:#723533;"/><path d="M1527.635,1550.752c14.58,5.498 9.612,12.089 22.76,19.977c39.177,23.505 9.078,92.718 -44.131,46.335c-5.93,-5.169 -16.369,-11.528 -1.325,-52.833c5.943,-16.318 17.368,-13.049 22.696,-13.48Z" style="fill:#7b443a;"/><path d="M477.574,1903.982c56.815,28.46 80.616,37.658 128.107,55.717l-4.527,3.911l-2.021,1.736c-2.588,0.513 -11.454,3.813 -12.438,4.179c-10.927,4.066 -9.193,7.153 -11.569,9.001c-48.415,-17.296 -119.601,-54.478 -131.471,-60.989c1.902,-21.384 25.528,-4.949 26.079,-4.874c1.448,0.196 2.293,-2.557 3.74,-2.361l4.101,-6.321Z" style="fill:#80403d;"/><path d="M879.292,854.489c50.947,-18.526 97.077,16.994 107.417,40.208c-51.751,34.053 -109.92,-15.921 -107.417,-40.208Z" style="fill:#f99397;"/><path d="M1502.088,799.689c8.307,1.008 8.121,2.103 12.142,9.631c-23.529,32.945 -42.912,47.786 -88.507,46.687c-0.089,-5.924 0.726,-6.694 -4.467,-9.652c-12.07,-6.874 -19.427,2.887 -33.792,-8.465c3.812,-7.693 3.505,-7.559 7.925,-14.83c11.608,5.495 12.04,2.606 48.408,-3.897c20.466,-3.659 20.513,-2.947 39.566,-11.619c9.503,-4.325 8.513,-6.323 18.725,-7.855Z" style="fill:#73b361;"/><path d="M546.448,676.238c1.717,38.22 1.235,37.972 8.432,75.329c-7.331,5.985 -7.166,8.465 -15.855,5.612c-53.803,-17.664 -38.58,-101.269 2.859,-84.722l4.565,3.781Z" style="fill:#f0b192;"/><path d="M1464.318,1481.471c-3.174,28.582 -58.319,55.758 -58.96,11.382c-0.853,-59.057 26.262,-52.78 34.086,-44.617c14.836,15.48 20.16,12.063 24.875,33.236Z" style="fill:#7d4338;"/><path d="M1669.66,1155.628c-25.589,18.358 -21.522,54.243 -31.813,30.616c-10.144,-23.29 -10.965,-23.382 -32.56,-35.211c-16.639,-9.115 19.633,-8.686 28.767,-32.266c4.966,-12.82 1.78,-18.899 10.915,-16.535c2.834,0.734 5.589,25.402 33.019,37.908c8.079,3.684 10.815,8.105 2.527,11.317c-0.867,0.336 -0.804,0.309 -10.855,4.171Z" style="fill:#eac895;"/><path d="M1502.088,799.689c-10.212,1.532 -9.222,3.53 -18.725,7.855c-19.053,8.672 -19.1,7.96 -39.566,11.619c-36.368,6.502 -36.8,9.391 -48.408,3.897l1.804,-2.57c25.394,-25.683 46.889,-47.443 115.543,-28.956c11.259,3.032 7.746,7.586 1.495,17.787c-4.022,-7.528 -3.835,-8.624 -12.142,-9.631Z" style="fill:#97db74;"/><path d="M1465.734,940.867c28.307,43.966 -4.911,80.141 -20.818,52.176c-5.642,-9.919 -35.867,-55.903 -4.842,-63.981c12.712,-3.31 25.375,11.55 25.66,11.806Z" style="fill:#faa5a3;"/><path d="M1499.878,1379.549c7.285,-20.588 15.85,-17.563 31.339,-14.268c0.509,0.108 30.776,0.832 29.477,25.45c-2.628,49.78 -57.95,28.253 -60.816,-11.182Z" style="fill:#895441;"/><path d="M1343.707,771.065c-2.849,-17.661 -8.285,-24.171 8.733,-27.899c30.453,-6.671 3.95,137.909 -7.427,148.014c-16.62,14.762 10.293,-48.097 -1.306,-120.115Z" style="fill:#b07853;"/><path d="M942.747,989.437c4.642,-9.038 4.268,-8.93 9.543,-17.689c13.798,-22.909 45.554,-8.446 37.721,17.632c-11.057,16.881 -13.951,18.883 -35.128,17.043c-19.152,-1.664 -12.304,-15.923 -12.136,-16.985Z" style="fill:#6d3223;"/><path d="M1417.949,770.003c46.634,-20.393 69.185,-14.44 113.851,-0.57l-4.046,5.077l-3.648,-0.3l-3.648,1.436l-3.648,-0.52l-3.648,-1.365l-3.648,-0.024c-36.037,2.98 -46.987,-4.057 -73.068,4.275c-7.769,2.482 -17.33,-6.869 -18.497,-8.01Z" style="fill:#723a38;"/><path d="M1295.064,841.419c-3.396,1.814 -1.342,3.589 -4.473,5.261c-0.258,0.138 -0.333,0.178 -3.491,-1.008c-23.777,-8.93 -33.545,-3.915 -64.775,-0.437c-17.412,-17.505 -23.973,-22.143 -15.199,-23.5c44.541,-6.889 71.547,10.853 87.938,19.684Z" style="fill:#f9c2b8;"/><path d="M1086.901,821.655c28.041,-3.685 27.93,21.834 24.951,28.465c-14.206,31.62 -72.189,-4.028 -24.951,-28.465Z" style="fill:#6b3127;"/><path d="M1083.303,1027.308c-2.545,9.976 -3.92,9.289 -4.937,19.354c-4.197,41.549 -2.834,41.602 -3.464,45.168c-0.534,3.025 -3.19,5.354 -3.724,8.378c-5.966,-11.339 -15.486,-31.142 -12.21,-79.735c0.796,-11.811 22.733,5.565 24.335,6.835Z" style="fill:#f5a6a2;"/><path d="M1011.704,1072.788c-3.96,10.117 -3.338,10.114 -8.157,19.825c-3.096,-1.555 -1.421,-3.174 -4.757,-4.849c-0.266,-0.133 -0.78,-0.392 -3.641,0.632c-8.982,3.215 -8.759,2.681 -18.161,3.815c-1.096,-2.554 2.379,-4.241 -3.459,-8.062c-3.723,-2.437 -3.857,0.37 -55.037,-0.145c-7.49,-0.075 -15.135,-2.409 -22.458,-0.782c-2.47,0.549 -1.539,6.115 -4.009,6.664c-5.644,-3.551 -6.012,-2.659 -10.298,-8.213c8.697,-6.297 9.088,-9.453 109.761,-4.971c10.629,0.473 10.431,0.536 20.216,-3.915Z" style="fill:#f6c19e;"/><path d="M1515.739,1586.847c5.118,-16.757 3.946,-17.133 4.993,-18.188c7.32,-7.377 6.172,1.557 11.772,10.194c4.923,7.593 17.193,10.024 19.445,19.99c6.108,27.031 -46.642,20.08 -36.21,-11.997Z" style="fill:#fadca2;"/><path d="M990.656,714.691c20.208,39.696 -21.409,46.281 -17.697,29.528c3.13,-14.128 7.249,-17.105 -4.471,-24.544c-1.341,-0.851 -18.654,-11.841 -5.592,-19.53c9.726,-5.725 26.074,12.65 27.761,14.546Z" style="fill:#e0a487;"/><path d="M1075.217,120.235c2.559,6.277 5.296,7.914 -0.632,11.149c-1.067,0.582 -2.781,-1.162 -3.608,-0.253c-0.465,0.511 2.27,1.506 -3.238,8.106c-0.761,0.729 -7.679,7.36 -10.6,7.724c-10.996,1.37 -12.073,17.086 -19.435,21.437c-23.25,13.743 -35.51,-1.002 -34.891,-2.511c0.863,-2.102 3.142,-3.352 4.005,-5.454c15.242,4.17 15.901,0.455 68.399,-40.198Z" style="fill:#f5cf67;"/><path d="M892.025,1089.887c2.47,-0.549 1.539,-6.115 4.009,-6.664c7.324,-1.628 14.968,0.706 22.458,0.782c51.18,0.515 51.315,-2.291 55.037,0.145c5.837,3.821 2.363,5.507 3.459,8.062c-14.218,4.042 -59.178,5.929 -84.963,-2.325Z" style="fill:#e4ae89;"/><path d="M1629.201,1461.783c6.674,-7.509 8.536,-8.575 11.98,-7.422c4.527,1.516 1.995,4.228 11.279,11.319c7.241,5.531 -4.971,13.654 -6.763,16.783c-9.188,16.042 -14.886,-2.4 -16.402,-4.179c-6.415,-7.528 -9.635,-7.669 -6.204,-11.553c1.746,-1.976 4.365,-2.973 6.11,-4.949Z" style="fill:#edd79f;"/><path d="M1420.439,1485.065c0.636,-6.25 0.644,-12.556 1.28,-18.806c1.205,-11.84 14.119,4.525 16.077,5.871c13.741,9.441 8.887,15.474 -5.763,22.952c-16.139,8.238 -11.79,-4.007 -11.594,-10.016Z" style="fill:#f9d99e;"/><path d="M1531.392,1384.296c33.04,-0.562 7.264,25.722 0.617,20.603c-10.131,-7.804 -23.274,-24.597 -0.617,-20.603Z" style="fill:#f9d696;"/><path d="M1172.905,938.911c-1.42,-0.824 -18.865,-10.947 0.829,-21.063c14.813,-7.608 23.652,31.544 -0.829,21.063Z" style="fill:#f1d697;"/><path d="M1250.596,933.401c-27.302,9.921 -11.265,-31.505 -0.608,-22.013c7.758,6.909 1.357,20.432 0.608,22.013Z" style="fill:#fc9f93;"/><path d="M1387.464,837.89c14.365,11.352 21.722,1.592 33.792,8.465c5.193,2.957 4.379,3.728 4.467,9.652c-15.879,-2.706 -42.004,-3.957 -40.365,-13.464c0.07,-0.405 0,0 2.106,-4.653Z" style="fill:#88b168;"/><path d="M1313.264,756.429c7.305,0.149 5.45,3.129 6.786,10.455c2.221,12.182 7.891,17.069 -3.84,19.278c-15.283,2.878 -5.599,-18.311 -2.946,-29.733Z" style="fill:#edada2;"/><path d="M1466.047,1038.083c-4.973,-1.722 -5.108,-1.477 -5.371,-1.86c-6.533,-9.492 24.198,-23.429 19.757,-0.82c-2.109,10.738 -6.602,10.433 -14.386,2.68Z" style="fill:#f9999c;"/><path d="M963.535,89.49c4.07,7.269 13.82,24.273 15.028,26.38c-2.027,0.88 -6.03,7.46 -11.069,-0.612c-0.96,-1.538 -9.036,-14.476 -8.346,-21.199c0.219,-2.137 4.168,-2.433 4.387,-4.57Z" style="fill:#f7d66f;"/><path d="M1121.051,978.668c2.185,-9.176 5.494,-9.056 12.355,-3.106c11.66,10.113 -5.999,26.493 -8.273,10.895c-0.669,-4.588 -1.941,-3.702 -4.082,-7.789Z" style="fill:#f2d8a2;"/><path d="M815.126,1518.616c1.086,-1.508 27.893,-38.753 17.89,-14.475c-3.164,7.678 -0.496,8.693 -5.935,14.741c-7.903,8.788 -11.882,-0.229 -11.956,-0.265Z" style="fill:#de5d7a;"/><path d="M963.697,979.79c0.793,-0.665 12.031,-10.084 12.716,-1.022c0.871,11.519 -21.303,18.947 -12.716,1.022Z" style="fill:#f2c09e;"/><path d="M1309.12,809.742c22.489,3.922 15.15,12.209 13.881,13.035c-0.375,0.244 -19.057,-1.256 -13.881,-13.035Z" style="fill:#b47269;"/><path d="M745.508,1009.872c17.682,9.537 16.629,11.325 16.273,14.179c-1.196,9.592 -4.969,1.501 -18.387,-8.549c0.704,-1.877 1.409,-3.753 2.113,-5.63Z" style="fill:#813d3d;"/><path d="M1093.676,846.425c-16.978,-1.857 -2.125,-12.564 1.332,-9.238c4.044,3.89 2.025,4.695 -1.332,9.238Z" style="fill:#f2cdb9;"/><path d="M1035.833,1096.325c-1.501,-0.147 -2.592,2.141 -4.092,1.994c-1.939,-0.189 -4.86,-5.891 0.289,-8.754c4.69,-2.608 3.066,1.403 3.803,6.76Z" style="fill:#ac6164;"/><path d="M1535.892,1114.227c-0.703,-0.297 -22.034,-9.328 -4.688,-8.546c0,-0 4.313,7.863 4.688,8.546Z" style="fill:#753430;"/><path d="M1019.495,1050.495c0.471,2.545 6.061,1.278 6.532,3.823c0.698,3.771 -4.631,3.74 -5.133,3.737c-0.594,-0.003 -0.099,-0.534 -1.399,-7.561Z" style="fill:#742e35;"/><path d="M1075.286,638.873c4.021,-0.037 5.818,-4.39 6.296,-0.058c0.51,4.613 -2.062,0.019 -6.296,0.058Z" style="fill:#f8dcb5;"/><path d="M524.545,1568.566c0.76,-1.313 1.521,-2.626 2.281,-3.939l-2.281,3.939Z" style="fill:#713031;"/><path d="M1365.446,627.128c-1.321,3.654 3.04,3.285 1.653,7.121c-1.496,4.137 -3.069,-2.64 -3.148,-2.984c-0.332,-1.432 1.828,-2.705 1.496,-4.137Z" style="fill:#753839;"/></g></svg>