<?xml version="1.0" encoding="UTF-8" standalone="no"?><!DOCTYPE svg PUBLIC "-//W3C//DTD SVG 1.1//EN" "http://www.w3.org/Graphics/SVG/1.1/DTD/svg11.dtd"><svg width="100%" height="100%" viewBox="0 0 2048 2048" version="1.1" xmlns="http://www.w3.org/2000/svg" xmlns:xlink="http://www.w3.org/1999/xlink" xml:space="preserve" xmlns:serif="http://www.serif.com/" style="fill-rule:evenodd;clip-rule:evenodd;stroke-linejoin:round;stroke-miterlimit:2;"><g id="Background"><path d="M1044.977,663.086c4.347,1.384 30.835,9.814 51.332,24.835c47.986,35.165 38.669,49.716 37.925,56.923c-3.319,12.323 -3.317,12.122 -6.931,24.253c-10.199,28.865 -12.367,33.006 -45.238,139.615c-17.821,57.797 -19.401,57.091 -37.394,114.916c-5.642,0.388 -12.722,0.393 -13.828,0.394c0.474,-0.658 0.764,-0.454 2.177,-3.022c2.235,-4.064 37.784,-116.115 40.995,-126.235c43.854,-138.225 46.027,-137.51 48.241,-149.912c2.817,-15.782 -7.121,-11.124 -41.183,-5.257c-13.859,2.006 -103.556,20.004 -122.135,22.994c-11.721,1.886 -11.064,4.947 -10.76,16.697c0.108,4.177 2.727,1.539 44.753,-6.645c96.561,-18.804 102.367,-23.353 104.906,-11.848c1.616,7.322 -21.121,68.984 -43.234,140.075c-33.009,106.122 -32.988,106.745 -38.539,110.502c-3.175,-3.743 -2.826,-3.843 -5.565,-8.049c0.76,-0.992 2.184,-1.329 2.945,-2.321c1.298,-1.694 -2.47,-2.777 6.292,-25.918c4.349,-11.487 4.153,-11.535 47.226,-146.096c9.659,-30.175 11.031,-29.506 20.509,-59.91c2.427,-7.785 -14.509,-1.786 -28.598,0.99c-46.483,9.158 -46.322,9.719 -56.083,12.244c-14.024,3.627 -17.279,-0.5 -23.631,6.851c-6.914,8.001 -41.951,48.545 -46.193,123.85c-0.086,1.53 0.095,1.363 0.211,3.037c-4.099,0.402 -4.074,0.393 -4.427,0.434c-0.941,0.109 -0.738,0.244 -1.856,0.373c-0.129,-0.517 1.013,-0.814 0.884,-1.331c-0.055,-0.222 -3.564,-3.188 -2.64,-12.531c5.995,-60.639 34.324,-102.387 39.581,-110.134c3.788,-5.582 -1.351,-4.373 -1.711,-4.288c-18.528,4.359 -17.34,6.93 -22.708,13.806c-4.917,6.298 -17.187,13.587 -23.336,13.643c-31.418,0.286 -31.005,-2.618 -50.038,-6.194c-10.558,-1.984 -70.899,14.339 -131.978,24.922c-4.361,0.756 -4.088,1.865 -53.86,12.645c-11.504,2.492 -13.331,0.304 -15.544,5.835c-7.263,18.15 -20.848,71.69 -35.954,115.924c-2.877,-3.851 -3.151,-3.74 -3.102,-4.152c1.138,-9.616 0.986,-9.449 1.119,-10.264c0.579,-3.543 -0.489,-3.179 -2.997,-5.877c26.07,-85.18 26.078,-85.156 26.969,-87.688c7.69,-21.867 11.172,-21.397 47.536,-29.678c133.346,-30.37 134.301,-25.757 145.64,-29.317c6.514,-2.045 -10.708,-17.256 -13.614,-16.534c-26.854,6.666 -26.794,6.248 -54.066,11.644c-108.437,21.453 -108.591,20.218 -117.869,22.695c-13.879,3.705 -14.978,6.041 -39.075,82.747c-7.378,23.486 -90.473,287.989 -89.633,294.372c0.841,6.39 4.277,-0.376 78.375,-18.652c99.675,-24.584 140.478,-37.649 150.267,-39.18c2.346,-0.367 1.837,-1.081 3.881,-2.283c4.344,3.622 4.367,3.396 8.275,7.5c-1.218,0.78 -1.247,2.792 -2.465,3.572c-5.198,3.328 -170.869,44.539 -217.912,58.66c-7.704,1.504 -7.659,1.473 -8.32,1.625c-5.883,1.345 3.393,5.31 3.89,5.522c111.016,47.45 110.575,48.134 222.482,93.215c76.242,30.714 77.097,39.729 117.761,26.94c194.895,-61.294 194.8,-61.206 390.386,-120.652c47.55,-14.568 51.816,-12.698 49.728,-16.328c-1.505,-2.617 -2.368,-1.337 -15.667,-6.909c-72.455,-30.303 -153.324,-55.435 -184.85,-70.008c3.131,-4.749 2.971,-4.611 6.324,-9.258c2.349,0.955 2.179,1.026 4.528,1.841c8.506,2.95 67.903,23.549 105.889,38.117c95.982,36.811 109.763,35.516 108.967,82.176c-0.276,16.163 -2.267,132.813 -4.582,202.011c-3.109,92.903 -2.242,95.861 -18.276,108.306c-41.827,22.618 -200.433,78.031 -407.962,158.343c-12.203,4.417 -12.097,4.21 -24.417,8.771c-39.026,14.449 -45.833,18.416 -144.174,-28.657c-101.641,-48.653 -211.467,-90.941 -226.897,-111.273c-4.921,-6.484 -10.548,-18.667 -9.931,-313.489c0.093,-44.639 4.293,-45.732 1.189,-47.993c-7.451,-5.428 -9.369,-3.273 -25.449,-22.451c-88.33,-105.351 -91.104,-264.039 -38.914,-361.778c23.706,-43.597 42.252,-55.103 69.966,-68.66c1.314,0.652 1.096,3.03 2.409,3.682c0.745,0.37 1.173,-1.404 2,-1.493c0.739,-0.079 1.218,0.973 1.955,1.071c0.704,0.093 1.44,-0.196 2.061,-0.541c6.432,-3.569 6.637,1.466 13.85,0.813c0.405,-0.037 14.692,3.084 4.174,-6.508c-0.643,0.145 -8.039,1.808 -8.039,1.808c0,0 -3.901,-4.253 -4.24,-4.622c27.783,-7.961 27.435,-9.161 56.121,-12.277c38.505,-4.183 38.108,-5.638 76.028,-13.407c62.886,-11.88 63.209,-11.133 67.616,-14.475c6.933,-5.257 5.588,-8.224 28.393,-13.528c62.257,-14.481 81.079,-10.785 88.028,-9.42c6.204,1.218 7.213,1.417 78.14,-11.826c40.768,-7.612 58.25,-26.702 113.889,-12.317Z" style="fill:#82553e;"/><path d="M926.894,916.855c1.119,-0.13 0.916,-0.264 1.856,-0.373c0.353,-0.041 0.328,-0.032 4.427,-0.434c7.126,0.431 21.868,-5.515 77.322,87.274c2.74,4.206 2.391,4.306 5.565,8.049c6.728,11.942 7.353,12.531 14.779,12.651c1.107,-0.001 8.187,-0.006 13.828,-0.394c76.123,3.153 76.189,1.943 90.42,4.933c51.798,10.883 20.018,50.15 -2.439,82.301c-3.352,4.647 -3.193,4.509 -6.324,9.258c31.526,14.573 112.395,39.705 184.85,70.008c-9.919,15.446 -13.549,13.252 -18.077,13.074c-2.621,-0.103 -2.219,2.834 -4.103,2.99c-0.701,0.058 -1.224,-0.775 -1.921,-0.873c-2.252,-0.315 -2.424,2.408 -4.079,2.353c-11.817,-0.391 -11.003,2.517 -10.631,3.327c0.85,1.852 2.591,2.719 2.882,2.864c1.02,0.508 0.851,-1.005 1.868,-0.498c-195.587,59.446 -195.492,59.358 -390.386,120.652c-40.664,12.789 -41.519,3.773 -117.761,-26.94c-111.907,-45.081 -111.467,-45.765 -222.482,-93.215c-0.497,-0.212 -9.773,-4.177 -3.89,-5.522c0.661,-0.151 0.616,-0.12 8.32,-1.625c47.043,-14.121 212.714,-55.333 217.912,-58.66c1.218,-0.78 1.247,-2.792 2.465,-3.572c-3.908,-4.105 -3.93,-3.879 -8.275,-7.5c-7.172,-6.005 -6.324,-6.72 -13.723,-12.593c-1.313,-4.202 -1.749,-3.862 -5.493,-9.633c-21.082,-43.472 49.576,-52.447 120.992,-70.722c8.012,-2.05 4.08,-5.865 17.818,-41.196c15.076,-38.774 21.306,-73.006 44.28,-85.985Z" style="fill:#c1976b;"/><path d="M527.837,1278.991c2.554,-3.784 4.407,-5.495 4.945,-7.991c1.457,-6.753 -0.003,-6.765 1.1,-10c1.891,-5.546 0.028,-14.604 0.461,-25.98c0.477,-12.537 7.447,-2.698 51.123,17.164c112.535,51.176 131.566,58.891 143.181,63.6c100.674,40.816 100.067,42.27 109.189,44.693c1.552,-4.115 0.836,-5.108 3.271,-5.245c3.995,-0.224 4.319,-2.581 4.764,-2.847c4.66,11.272 0.809,302.764 2.895,354.17c-1.259,0.174 -2.518,0.348 -3.778,0.522c-19.684,-6.175 -39.248,-12.312 -235.584,-104.887c-66.351,-31.285 -74.082,-30.998 -77,-49.087c-3.972,-24.618 -4.516,-252.181 -4.568,-274.113Z" style="fill:#d5a370;"/><path d="M904.076,1477c-0.332,-33.411 -1.873,-35.426 6.493,-40.723c37.782,-23.918 29.368,-54.385 36.36,-57.443c1.11,-0.485 82.814,-25.761 90.019,-27.99c9.934,-3.073 12.971,-5.933 16.779,3.812c14.936,38.218 85.887,44.772 108.64,5.972c15.632,-26.657 13.497,-34.079 14.005,-49.662c0.177,-5.435 5.483,-5.454 20.498,-10.375c66.392,-21.758 68.94,-24.649 71.213,-19.203c14.075,33.717 32.049,24.701 33.647,33.481c1.419,7.797 -4.98,130.748 -5.571,142.11c-0.54,10.38 -5.914,7.886 -12.568,14.669c-26.547,27.062 -13.115,38.59 -28.792,44.797c-25.55,10.116 -303.101,112.732 -303.678,112.922c-14.732,4.855 -6.257,-26.375 -42.191,-29.877c-6.279,-0.612 -4.412,-7.996 -4.601,-30.48c-0.387,-46.115 -0.233,-45.917 -0.254,-92.011Z" style="fill:#f1dfc6;"/><path d="M926.894,916.855c-22.974,12.979 -29.205,47.212 -44.28,85.985c-13.737,35.331 -9.805,39.146 -17.818,41.196c-71.416,18.274 -142.074,27.249 -120.992,70.722c-4.391,2.461 -4.319,2.555 -4.742,2.658c-21.998,5.338 -42.84,12.401 -81.973,22.055c-82.881,20.446 -88.45,26.712 -87.2,19.67c0.724,-4.078 50.173,-158.556 54.582,-172.328c3.609,-12.932 3.579,-12.852 3.898,-13.967c0.536,-1.87 0.639,-1.662 1.221,-3.694c15.105,-44.234 28.691,-97.774 35.954,-115.924c2.214,-5.532 4.041,-3.344 15.544,-5.835c49.772,-10.78 49.499,-11.89 53.86,-12.645c61.079,-10.582 121.42,-26.905 131.978,-24.922c19.033,3.576 18.62,6.479 50.038,6.194c6.149,-0.056 18.419,-7.346 23.336,-13.643c5.368,-6.875 4.18,-9.447 22.708,-13.806c0.36,-0.085 5.498,-1.293 1.711,4.288c-5.257,7.747 -33.586,49.495 -39.581,110.134c-0.924,9.342 2.585,12.309 2.64,12.531c0.129,0.517 -1.013,0.814 -0.884,1.331Z" style="fill:#c98381;"/><path d="M757.375,1632.3c-81.426,-36.425 -81.389,-36.064 -162.209,-73.623c-21.924,-10.189 -7.097,-37.501 -30.622,-52.904c-12.859,-8.419 -8.199,-11.738 -9.148,-50.785c-0.261,-10.721 -2.419,-99.525 -1.098,-134.042c0.592,-15.456 28.01,1.375 32.454,-31.98c1.515,-11.373 8.638,-4.3 78.633,25.072c42.007,17.627 41.97,17.431 45.605,18.982c61.666,26.317 65.814,24.653 68.404,37.897c9.509,48.63 23.918,40.616 35.206,52.444c7.477,7.835 2.374,132.385 1.08,177.674c-0.37,12.954 -24.69,-0.92 -33.003,29.886c-4.064,15.06 -16.255,4.998 -25.302,1.377Z" style="fill:#824c3a;"/><path d="M1112.923,1039.899c11.524,12.122 4.973,24.691 -18.805,54.463c-36.437,45.621 -54.096,44.402 -38.977,86.591c6.195,17.287 16.801,53.3 14.436,60.237c-0.013,0.037 -2.177,4.616 -4.577,5.172c-4.076,0.944 -3.684,1.562 -6.49,4.638c-6.97,-2.191 -8.069,3.178 -13.931,-1.26c-14.43,-10.926 -20.398,-3.572 -47.204,-19.576c-20.507,-12.243 -27.246,-21.211 -56.231,5c-26.494,23.958 -43.687,35.709 -47.737,38.477c-9.567,6.539 -28.036,28.588 -47.333,9.419c-0.836,-78.299 18.286,-85.142 -5.294,-103.778c-26.325,-20.806 -109.936,-70.468 -81.312,-89.685c25.398,-17.052 115.013,-28.993 121.542,-40.59c7.131,-12.666 33.306,-116.321 52.066,-119.49c6.321,-1.068 12.744,-2.153 52.951,60.138c17.926,27.772 25.641,47.7 36.954,47.869c12.439,0.186 37.518,-0.722 89.942,2.375Z" style="fill:#f9e395;"/><path d="M580.523,1316.289c14.206,-9.89 9.385,-13.999 16.031,-19.911c2.596,-2.31 56.319,23.76 100.241,41.135c5.831,2.307 69.244,27.392 71.614,31.855c4.845,9.126 -0.71,37.99 34.243,58.288c7.012,4.072 5.588,6.223 5.625,103.354c0.002,5.25 0.024,62.375 -1.899,65.601c-1.486,2.493 -20.645,4.677 -28.833,20.666c-3.693,7.212 -2.398,8.964 -6.547,9.166c-3.2,0.155 -3.118,-0.573 -109.678,-48.135c-7.447,-3.324 -24.567,-11.494 -26.695,-12.51c-34.151,-16.298 -39.748,-12.437 -41.957,-26.746c-2.628,-17.022 -7.023,-28.717 -20.341,-39.157c3.037,-2.207 4.784,-2.356 2.674,-5.463c-1.933,-2.847 -1.122,-2.975 -1.166,-5.588c-2.117,-124.855 -2.02,-128.614 -1.733,-139.795c0.368,-14.34 3.716,-13.142 6.43,-16.478c0.802,-0.985 2.468,-12.445 1.992,-16.281Z" style="fill:#de8f97;"/><path d="M573.321,774.138c3.898,1.615 27.53,11.406 45.001,27.512c13.532,12.475 19.965,15.704 15.319,25.714c-14.691,31.652 -101.778,323.185 -110.015,349.841c-3.874,14.943 -3.788,14.864 -4.184,16.138c-0.255,0.821 -1.678,2.385 -9.211,-5.527c0.641,-1.132 2.245,-1.494 2.886,-2.626c0.591,-1.044 -2.777,-5.158 -3.099,-5.552c-1.932,-2.36 -15.995,-19.535 -22.208,-30.989c-16.967,-31.28 -17.928,-30.695 -19.132,-33.54c-14.68,-34.684 -22.853,-69.781 -24.3,-75.998c-17.748,-76.215 8.661,-163.778 23.917,-196.487c23.54,-50.469 37.827,-55.291 64.645,-60.459c7.461,-1.438 6.892,-2.73 7.855,-3.164l0.272,-1.119c2.055,-0.318 17.425,-2.695 25.992,-0.485c0.269,0.069 2.558,3.939 6.262,-3.258Z" style="fill:#d39f6d;"/><path d="M1048.155,1304.997c-0.411,0.308 -0.569,-0.053 -5.515,3.288c-0.363,1.654 -2.415,2.6 -2.778,4.255c-0.179,0.816 -0.655,18.634 3.194,16.67c1.356,-0.692 0.261,-1.75 1.863,-2.21c0.369,-0.106 0.317,0.145 4.359,1.994c-0.216,5.583 -0.06,5.579 -0.233,6.029c-1.509,3.924 -68.542,22.561 -82.211,27.585c-26.462,9.726 -29.496,8.494 -31.701,20.413c-8.325,44.992 -37.788,44.669 -40.191,53.967c-1.441,5.576 -0.354,79.255 -0.262,84.016c1.577,81.373 -0.467,84.823 6.338,85.911c19.988,3.196 21.476,3.554 32.823,21.726c3.443,7.464 3.398,7.427 3.718,8.061c3.103,6.138 10.877,4.067 47.505,-9.545c22.065,-8.2 195.856,-72.785 275.93,-102.168c13.104,-4.808 8.599,-9.06 13.265,-22.321c0.662,1.088 2.364,1.244 3.026,2.331c0.379,0.622 -0.611,1.513 -0.287,2.166c0.217,0.438 1.136,-0.186 1.454,0.185c0.383,0.447 0.525,1.26 0.205,1.754c-0.545,0.844 -2.085,0.807 -2.463,1.737c-0.354,0.873 0.651,3.845 0.759,4.165c0.404,1.194 16.07,8.421 3.605,13.149c-6.405,2.43 -13.91,-0.077 -21.922,4.365c-22.039,12.217 -49.21,21.052 -53.634,22.491c-14.182,4.611 -17.597,9.593 -58.039,21.865c-7.312,2.219 -6.911,3.054 -89.86,32.397c-1.319,0.466 -5.041,4.378 -8.316,5.074c-8.082,1.718 -58.719,17.011 -63.808,18.548c-17.477,5.278 -15.262,9.339 -15.971,10.11c-5.294,5.754 -11.646,-1.293 -14.01,1.176c-1.009,1.054 -0.844,3.278 -2.215,3.777c-0.501,0.182 -12.601,-1.634 -13.694,-1.798c-11.533,-1.731 -6.047,6.145 -5.881,6.155c0.855,0.051 6.332,-4.625 14.477,2.547c0.331,0.292 -2.206,7.726 -0.658,7.962c10.729,1.631 21.864,-2.04 29.876,3.928c-43.874,16.491 -43.74,16.488 -88.018,31.951c-11.124,4.012 -20.467,9.133 -29.944,8.394c-0.809,-49.071 0.741,-48.953 0.459,-98.105c-0.522,-91.065 -0.71,-90.838 -1.514,-182.001c-0.658,-74.592 1.121,-75.452 3.143,-75.862c14.238,-2.891 30.378,-6.168 173.98,-52.098c5.992,-1.917 12.94,-8.485 13.145,5.965Z" style="fill:#ebcb8d;"/><path d="M530.466,1066.873c-15.901,51.932 -18.509,79.325 -34.479,55.44c-84.13,-125.827 -25.14,-365.516 82.683,-302.77c26.208,15.251 20.989,22.453 15.464,41.247c-2.51,8.539 -2.914,8.229 -33.062,106.233c-6.09,19.796 -17.727,54.26 -30.605,99.849Z" style="fill:#814838;"/><path d="M1174.536,1269.114c-1.646,-4.032 -1.524,-4.052 -5.034,-6.755c-0.318,-0.245 -4.978,-3.834 -0.344,-5.008c39.89,-10.099 161.634,-49.676 165.756,-49.559c4.576,0.13 4.088,16.924 4.274,23.198c1.436,48.337 -3.365,184.023 -3.931,200.017c-3.154,89.142 -1.081,96.466 -14.618,103.309c-7.816,3.951 -30.037,15.184 -101.67,40.602c-31.014,11.005 -230.636,87.312 -242.066,91.833c-8.012,-5.968 -19.148,-2.298 -29.876,-3.928c-1.548,-0.235 0.989,-7.67 0.658,-7.962c-8.144,-7.172 -13.621,-2.496 -14.477,-2.547c-0.167,-0.01 -5.652,-7.886 5.881,-6.155c1.093,0.164 13.193,1.98 13.694,1.798c1.372,-0.499 1.206,-2.723 2.215,-3.777c2.363,-2.468 8.715,4.578 14.01,-1.176c0.71,-0.771 -1.506,-4.832 15.971,-10.11c5.089,-1.537 55.726,-16.83 63.808,-18.548c3.275,-0.696 6.997,-4.608 8.316,-5.074c82.95,-29.343 82.548,-30.178 89.86,-32.397c40.442,-12.272 43.857,-17.253 58.039,-21.865c4.425,-1.439 31.596,-10.274 53.634,-22.491c8.012,-4.441 15.516,-1.935 21.922,-4.365c12.466,-4.728 -3.201,-11.956 -3.605,-13.149c-0.109,-0.321 -1.113,-3.293 -0.759,-4.165c0.378,-0.931 1.917,-0.894 2.463,-1.737c0.32,-0.494 0.177,-1.307 -0.205,-1.754c-0.318,-0.371 -1.236,0.253 -1.454,-0.185c-0.324,-0.652 0.666,-1.544 0.287,-2.166c-0.662,-1.088 -2.364,-1.244 -3.026,-2.331c1.198,-2.703 8.47,-19.117 23.295,-28.686c9.487,-6.123 8.178,-7.607 8.609,-19.013c0.345,-9.117 4.084,-108.047 4.162,-113.973c0.45,-34.357 0.606,-37.085 -5.151,-38.627c-29.307,-7.853 -21.985,-17.108 -31.005,-30.757c-1.573,-2.38 -3.21,-4.858 -35.339,4.813c-59.515,17.914 -62.79,21.71 -63.097,16.502c-0.708,-11.984 -0.189,-11.884 -1.199,-23.813Z" style="fill:#eac98a;"/><path d="M933.178,916.047c-0.116,-1.674 -0.297,-1.507 -0.211,-3.037c4.242,-75.305 39.278,-115.849 46.193,-123.85c6.352,-7.351 9.607,-3.223 23.631,-6.851c9.761,-2.525 9.6,-3.086 56.083,-12.244c14.089,-2.776 31.025,-8.775 28.598,-0.99c-9.479,30.404 -10.85,29.735 -20.509,59.91c-43.073,134.561 -42.877,134.609 -47.226,146.096c-8.762,23.141 -4.994,24.225 -6.292,25.918c-0.76,0.992 -2.184,1.329 -2.945,2.321c-55.453,-92.79 -70.196,-86.843 -77.322,-87.274Z" style="fill:#c5807d;"/><path d="M897.821,398.941c-0.002,-1.98 -0.158,-3.957 -0.16,-5.936c-0.047,-39.023 31.925,-43.992 49.466,-40.615c29.544,5.686 32.638,38.785 40.959,24.011c19.072,-33.864 82.631,-49.274 80.255,20.565c-0.936,27.493 -30.652,66.049 -44.495,78.915c-27.113,25.197 -32.106,39.097 -49.483,25.91c-70.985,-53.866 -75.385,-92.659 -76.541,-102.85Z" style="fill:#a67874;"/><path d="M793.053,1160.915c41.877,32.665 44.632,31.398 44.946,38.038c0.924,19.567 -5.051,29.955 -5.544,90.041c-0.118,14.43 -2.336,14.278 -3.451,13.987c-16.67,-4.357 -15.42,-7.336 -199.591,-80.914c-13.63,-5.445 -20.568,-8.359 -14.212,-10.499c12.188,-4.105 12.869,-1.589 155.311,-41.485c12.162,-3.407 13.898,-0.108 22.542,-9.167Z" style="fill:#d9a492;"/><path d="M1135.176,1540.099c-20.088,-6.145 -29.844,-7.996 -53.851,-25.545c-37.453,-27.377 -41.04,-72.66 -20.279,-93.509c27.892,-28.01 60.708,-4.474 61.976,-4.351c3.263,0.316 17.853,-29.867 45.876,-25.015c45.535,7.885 35.131,79.498 -0.351,120.896c-22.121,25.809 -22.274,27.654 -33.372,27.524Z" style="fill:#7e523d;"/><path d="M601.886,1417.012c0.381,-2.809 3.217,-23.724 11.831,-33.395c1.065,-1.196 7.685,-8.629 17.446,-9.804c34.282,-4.129 38.615,29.686 47.563,24.707c48.818,-27.163 85.055,22.335 63.425,72.131c-12.292,28.299 -70.05,68.601 -87.018,52.216c-50.535,-48.798 -52.797,-96.385 -53.247,-105.854Z" style="fill:#81493b;"/><path d="M581.728,832.099c12.585,10.212 6.662,13.04 2.28,28.601c-3.952,14.03 -70.347,220.411 -77.478,250.175c-2.742,11.447 -9.172,-3.557 -12.332,-9.501c1.236,0.1 1.628,-2.473 2.864,-2.373c1.121,0.091 1.082,2.033 1.939,2.762c1.677,1.427 2.632,1.643 2.812,-0.53c1.202,-14.466 -0.025,-14.32 -5.56,-27.819c-10.43,-25.439 -14.117,-77.577 -14.179,-82.37c-0.69,-53.257 -0.275,-80.07 25.483,-129.763c24.58,-47.42 72.812,-18.622 73.443,-23.351c0.147,-1.098 -1.709,-1.829 -1.571,-2.928c0.153,-1.224 2.146,-1.677 2.299,-2.901Z" style="fill:#de9096;"/><path d="M624.611,948.859c-66.272,213.525 -70.133,217.534 -61.665,222.229c5.843,3.239 6.345,0.801 76.026,-16.205c8.896,-2.171 94.744,-23.123 110.325,-30.493c7.399,5.873 6.552,6.588 13.723,12.593c-2.044,1.203 -1.534,1.916 -3.881,2.283c-9.789,1.531 -50.592,14.596 -150.267,39.18c-74.098,18.276 -77.534,25.042 -78.375,18.652c-0.84,-6.382 82.255,-270.886 89.633,-294.372c24.098,-76.706 25.197,-79.043 39.075,-82.747c9.278,-2.476 9.431,-1.242 117.869,-22.695c27.272,-5.395 27.212,-4.978 54.066,-11.644c2.906,-0.721 20.128,14.489 13.614,16.534c-11.339,3.561 -12.294,-1.052 -145.64,29.317c-36.364,8.282 -39.846,7.812 -47.536,29.678c-0.89,2.531 -0.899,2.508 -26.969,87.688Z" style="fill:#e8c184;"/><path d="M994.129,388.347c6.36,-9.316 5.982,-9.433 9.331,-12.972c40.093,-42.364 78.442,8.298 29.328,69.474c-41.794,52.058 -47.079,48.921 -51.599,45.757c-29.846,-20.892 -53.248,-53.563 -57.069,-58.897c-30.971,-43.238 -4.619,-65.921 4.767,-67.255c30.597,-4.351 47.23,27.041 49.083,29.816c6.46,9.673 9.164,3.396 16.158,-5.923Z" style="fill:#eb96a0;"/><path d="M555.093,538.296c-7.47,-1.799 -56.332,-13.569 -83.198,-47.996c-36.304,-46.522 16.648,-78.599 48.82,-48.958c9.111,8.395 3.221,-8.22 16.67,-24.027c31.594,-37.132 82.361,11.411 36.803,99.254c-9.461,18.243 -8.359,21.451 -19.096,21.727Z" style="fill:#9e756e;"/><path d="M1174.973,1403.049c-0.559,0.236 -1.111,-0.96 -1.67,-0.723c-0.585,0.247 -6.752,2.855 -4.291,6.675c2.368,3.677 1.905,4.228 2.271,4.134c0.82,-0.21 -0.215,-0.993 6.085,-8.663c43.511,33.973 -27.726,125.312 -40.395,126.15c-17.965,1.189 -94.175,-41.266 -75.393,-91.392c13.966,-37.271 49.734,-18.923 53.744,-16.866c8.861,4.545 11.031,7.498 16.588,-0.809c20.153,-30.128 38.483,-20.202 43.062,-18.506Z" style="fill:#e8c48d;"/><path d="M713.003,1400.983c-9.82,11.744 11.985,7.962 17.121,34.171c1.858,9.48 -0.839,11.904 8.065,15.687c-6.693,44.257 -67.922,71.968 -77.026,65.891c-23.69,-15.812 -77.611,-107.079 -35.971,-131.37c20.517,-11.969 39.069,15.097 41.099,18.059c0.495,0.722 5.755,8.397 8.447,6.963c9.968,-5.308 16.526,-13.422 38.265,-9.402Z" style="fill:#d5a370;"/><path d="M1583.098,697.676c25.23,-0.511 29.819,12.629 37.553,33.534c1.737,4.695 7.19,-3.234 24.604,-9.345c20.498,-7.192 31.716,8.187 32.757,9.825c29.823,46.911 -75.74,97.921 -88.898,94.663c-10.555,-2.613 -61.321,-112.256 -6.016,-128.677Z" style="fill:#a0756e;"/><path d="M1453.143,632.267c-7.762,-4.054 -6.927,-12.268 -9.722,-25.367c-14.89,-69.785 -66.336,-59.927 -74.256,-68.062c-9.322,-9.574 17.705,-12.266 37.926,-19.602c36.436,-13.219 37.732,-74.794 42.218,-79.971c11.945,-13.787 12.167,20.406 21.917,47.655c15.719,43.934 62.621,34.854 69.047,44.503c10.528,15.809 -45.52,5.895 -62.704,41.841c-19.424,40.632 -10.308,58.538 -24.426,59.002Z" style="fill:#bb9d76;"/><path d="M203.922,992.789c-0.815,-5.664 -3.355,-12.207 0.841,-21.912c0.724,-1.675 6.171,-9.173 14.012,-12.439c25.293,-10.538 41.219,15.958 43.298,4.375c0.602,-3.356 5.551,-30.922 27.02,-32.957c57.282,-5.43 22.402,116.167 13.292,122.276c-2.83,1.898 -75.97,-6.829 -98.463,-59.342Z" style="fill:#a27572;"/><path d="M1265.833,528.219c-0.719,1.375 -3.015,1.405 -3.734,2.781c-0.151,0.29 0.461,0.146 1.287,3.876c0.975,4.404 1.166,4.129 3.175,8.175c1.681,3.386 -3.921,18.71 -3.811,19.865c0.234,2.465 0.537,2.801 -1.702,4.107c-0.613,0.357 -0.119,0.671 -5.588,6.882c-0.174,0.197 -1.72,1.954 -1.098,3.096c0.694,1.274 2.735,1.406 3.429,2.68c-24.037,25.567 -73.246,50.196 -80.637,41.212c-14.553,-17.69 -48.635,-115.116 3.85,-121.834c24.612,-3.15 31.384,30.663 35.983,29.91c2.094,-0.343 8.487,-11.515 29.981,-9.677c11.385,0.974 15.445,5.684 18.864,8.927Z" style="fill:#a77f5c;"/><path d="M1114.305,1134.447c1.153,1.408 1.484,3.372 2.637,4.78c0.138,0.169 111.511,42.268 111.811,42.379c17.481,6.46 29.519,9.536 26.16,13.309c-0.019,0.022 -136.689,42.627 -139.895,41.976c-2.61,-0.53 -4.934,-16.376 -22.11,-61.855c-0.8,-2.117 -3.963,-8.248 -1.44,-11.723c3.108,-4.28 20.994,-26.57 22.837,-28.867Z" style="fill:#ddae97;"/><path d="M374.301,739.235c7.739,30.58 4.395,63.03 60.815,73.166c1.189,0.214 24.759,6.414 -2.015,14.966c-52.485,16.766 -46.154,27.999 -56.959,73.419c-1.683,7.076 -11.701,10.921 -13.964,0.448c-6.885,-31.866 -8.41,-60.498 -49.323,-71.709c-3.091,-0.847 -19.872,-1.616 -20.052,-8.516c-0.34,-13.05 58.731,2.61 67.145,-69.911c1.903,-16.403 8.741,-21.896 14.354,-11.864Z" style="fill:#ba9b77;"/><path d="M722.256,1448.907c-5.178,22.378 -14.133,39.382 -53.083,58.445c-4.695,2.298 -7.688,4.449 -21.474,-14.859c-58.678,-82.185 -10.264,-106.507 8.529,-86.721c10.498,11.052 7.328,21.602 16.699,15.134c23.18,-16.001 50.95,-10.629 49.329,28.001Z" style="fill:#8e5442;"/><path d="M1081.263,1439.197c22.707,-29.112 47.951,5.843 52.007,-2.015c1.398,-2.708 14.052,-27.221 31.929,-20.765c33.771,12.197 3.023,79.376 -22.451,100.317c-14.673,12.062 -88.693,-31.528 -61.486,-77.538Z" style="fill:#945e49;"/><path d="M1081.074,739.595c34.062,-5.867 43.999,-10.525 41.183,5.257c-2.214,12.403 -4.387,11.687 -48.241,149.912c-3.211,10.121 -38.76,122.172 -40.995,126.235c-1.412,2.568 -1.703,2.364 -2.177,3.022c-7.425,-0.12 -8.051,-0.71 -14.779,-12.651c5.551,-3.757 5.53,-4.38 38.539,-110.502c22.113,-71.091 44.85,-132.753 43.234,-140.075c-2.54,-11.505 -8.345,-6.956 -104.906,11.848c-42.027,8.184 -44.646,10.823 -44.753,6.645c-0.303,-11.749 -0.961,-14.81 10.76,-16.697c18.579,-2.99 108.276,-20.988 122.135,-22.994Z" style="fill:#ebc488;"/><path d="M567.256,418.298c30.453,15.403 -3.628,109.117 -16.165,106.308c-29.167,-6.536 -101.441,-54.642 -71.858,-79.346c19.506,-16.289 50.343,25.551 55.081,13.479c2.134,-5.438 5.501,-45.543 32.942,-40.441Z" style="fill:#f0b9b7;"/><path d="M818.364,544.946c-2.183,17.174 -14.672,61.406 -25.368,60.294c-38.976,-4.049 -98.016,-53.518 -61.846,-78.009c6.679,-4.523 17.413,-4.7 23.529,-1.579c0.683,0.349 12.335,9.033 14.669,3.539c0.395,-0.93 5.82,-23.302 27.652,-24.143c10.423,-0.402 17.285,13.296 17.762,14.095c5.298,8.879 3.601,25.491 3.602,25.802Z" style="fill:#af8e6a;"/><path d="M1112.923,1039.899c31.319,1.178 46.709,6.411 29.456,32.708c-54.328,82.808 -69.101,80.49 -63.858,98.517c8.722,29.986 25.735,68.098 20.153,71.235c-3.422,1.923 -3.584,1.455 -39.459,11.539l-0.706,-2.899c2.806,-3.076 2.414,-3.694 6.49,-4.638c2.4,-0.556 4.565,-5.135 4.577,-5.172c2.365,-6.937 -8.24,-42.95 -14.436,-60.237c-15.12,-42.189 2.54,-40.97 38.977,-86.591c23.778,-29.772 30.329,-42.341 18.805,-54.463Z" style="fill:#f2ca7f;"/><path d="M1059.216,1253.899c-42.461,13.346 -42.434,13.79 -48.222,13.186c-0.74,-0.439 -31.196,-15.684 -39.621,-11.305c-6.464,3.36 -49.341,35.035 -52.373,36.661c-0.459,0.246 -0.266,0.396 -3.62,5.404c-35.517,12.18 -60.314,21.369 -68.319,11.102c-1.052,-1.349 -0.917,-8.668 -0.986,-25.888c19.297,19.17 37.766,-2.88 47.333,-9.419c4.05,-2.768 21.243,-14.519 47.737,-38.477c28.985,-26.21 35.724,-17.243 56.231,-5c26.806,16.003 32.774,8.649 47.204,19.576c5.861,4.438 6.961,-0.932 13.931,1.26l0.706,2.899Z" style="fill:#f2ca81;"/><path d="M1165.302,1284.939c0.056,0.974 2.638,31.981 0.963,41.95c-9.368,55.764 -71.197,65.693 -87.993,16.336c1.925,-0.43 1.029,-1.794 2.952,-2.224c1.24,-0.277 0.518,1.273 1.775,1.167c9.035,-0.761 1.726,-15.127 5.914,-43.599c5.666,-1.705 55.524,-16.708 70.41,-22.635c6.817,-2.714 5.328,1.754 5.978,9.006Z" style="fill:#e9c789;"/><path d="M1625.492,949.133c1.069,-5.752 1.06,-5.716 1.155,-6.212c2.835,-14.902 10.671,-14.728 12.832,-10.197c7.45,15.622 -1.392,51.347 53.405,62.846c1.236,0.259 16.316,7.458 -6.168,14.529c-32.267,10.148 -31.508,14.789 -45.47,56.984c-3.307,9.994 -9.821,6.937 -12.234,-0.089c-13.671,-39.811 -10.362,-47.142 -44.12,-55.6c-23.774,-5.957 -9.466,-14.568 -8.066,-14.957c38.767,-10.768 40.041,-22.065 48.665,-47.305Z" style="fill:#b78b89;"/><path d="M393.755,1386.844c-10.526,-42.471 -14.165,-43.929 -46.735,-53.91c-1.076,-0.33 -24.74,-7.581 -2.017,-13.925c40.115,-11.199 39.458,-19.657 49.55,-58.138c2.792,-10.645 10.927,-8.279 12.85,0.025c9.133,39.447 8.732,44.917 47.422,56.715c10.328,3.149 15.371,7.594 5.823,12.722c-22.629,12.153 -40.247,-0.274 -53.051,58.823c-2.505,11.564 -10.066,8.918 -13.843,-2.312Z" style="fill:#ba9a79;"/><path d="M1611.925,746.678c5.005,10.75 11.2,-1.451 27.367,-9.157c43.161,-20.573 41.4,29.554 -6.75,56.539c-37.853,21.214 -39.591,20.15 -42.003,17.427c-6.976,-7.876 -38.017,-102.556 -1.556,-101.677c16.402,0.395 22.227,34.14 22.942,36.868Z" style="fill:#efa1a6;"/><path d="M691.15,370.359c-19.806,-5.302 -8.958,-12.226 -7.89,-12.775c17.571,-9.036 41.32,4.584 53.174,-58.722c1.808,-9.656 10.452,-6.509 11.785,-1.602c10.03,36.919 8.759,48.913 52.593,58.5c8.496,1.858 10.387,10.078 -0.017,12.258c-45.054,9.44 -44.305,27.411 -50.522,54.803c-2.169,9.556 -10.995,7.652 -12.543,1.96c-10.305,-37.883 -8.48,-44.663 -46.58,-54.422Z" style="fill:#c7a87c;"/><path d="M599.162,761.291c20.152,-5.774 25.572,-4.222 46.066,9.152c7.024,4.584 7.29,1.153 10.091,0.127c1.099,0.819 11.437,8.525 13.894,10.027c9.634,5.89 76.788,-13.087 131.961,-22.645c11.644,-2.017 11.258,1.239 18.207,10.68c3.031,4.864 9.023,6.376 3.317,7.654c-20.035,4.487 -20.017,3.491 -39.92,7.714c-25.442,5.311 -26.076,5.169 -31.899,6.299c-66.122,13.903 -70.797,12.476 -100.228,21.751c-0.605,0.052 -5.679,0.485 -7.489,-1.201c-20.94,-19.505 -17.594,-24.456 -62.368,-45.365c5.126,-4.851 4.547,-6.545 8.13,-5.884c5.197,0.958 5.032,1.182 10.238,1.691Z" style="fill:#eccb8e;"/><path d="M1185.152,512.214c26.492,9.202 11.632,49.997 32.578,31.504c29.457,-26.007 52.704,-6.822 36.643,18.792c-11.632,18.551 -47.136,37.37 -51.751,39.816c-11.803,6.256 -16,10.901 -21.237,-1.498c-37.783,-89.456 -3.31,-89.121 3.768,-88.615Z" style="fill:#d7b075;"/><path d="M870.831,781.631c-4.093,-2.206 -16.577,-8.933 -40.902,-41.293c-5.562,-7.399 -0.11,-7.9 8.964,-9.814c64.007,-13.498 67.312,-10.749 71.745,-7.06c27.178,22.612 25.962,41.262 25.69,45.428c-8.59,26.616 -35.427,22.792 -65.497,12.739Z" style="fill:#ebce93;"/><path d="M1095.29,1437.556c16.707,-5.78 27.81,6.869 34.184,10.604c8.55,5.012 14.713,-25.907 31.455,-24.325c30.732,2.903 -1.864,69.245 -22.346,88.671c-7.895,7.488 -86.509,-43.172 -43.293,-74.95Z" style="fill:#e89da2;"/><path d="M714.271,1441.032c-0.391,5.885 -2.706,40.732 -45.108,58.312c-2.936,1.217 -7.601,3.151 -27.234,-28.918c-26.326,-43.001 -12.281,-85.155 14.489,-51.05c6.622,8.436 5.207,18.996 15.869,10.73c2.743,-2.126 36.757,-28.496 41.984,10.925Z" style="fill:#ce7d86;"/><path d="M274.766,1033.702c-3.307,-1.365 -30.127,-12.432 -39.459,-21.036c-21.707,-20.013 -19.728,-28.903 -19.084,-31.799c6.099,-27.401 48.932,2.882 50.971,3.144c7.464,0.958 4.228,-32.501 17.556,-39.453c5.811,-3.031 37.402,-6.808 14.817,80.581c-5.369,20.775 -13.019,12.253 -24.802,8.564Z" style="fill:#e5939c;"/><path d="M229.22,646.114c-26.378,-11.279 2.604,-13.956 5.755,-15.186c23.487,-9.171 29.124,-18.132 33.41,-44.043c0.214,-1.294 8.933,-29.556 16.25,2.192c12.228,53.051 43.465,33.4 49.584,46.231c4.295,9.006 -19.501,12.884 -19.518,12.89c-28.074,10.429 -30.181,41.821 -30.897,45.036c-1.313,5.894 -9.499,15.217 -15.403,-4.032c-9.939,-32.4 -10.937,-35.209 -39.182,-43.088Z" style="fill:#b4878a;"/><path d="M581.728,832.099c-0.153,1.224 -2.146,1.677 -2.299,2.901c-0.137,1.099 1.718,1.83 1.571,2.928c-0.631,4.729 -48.863,-24.07 -73.443,23.351c-25.758,49.693 -26.173,76.506 -25.483,129.763c0.062,4.793 3.749,56.931 14.179,82.37c5.535,13.499 6.762,13.353 5.56,27.819c-0.181,2.173 -1.135,1.957 -2.812,0.53c-0.857,-0.729 -0.818,-2.671 -1.939,-2.762c-1.236,-0.1 -1.628,2.473 -2.864,2.373c-68.771,-147.173 -1.609,-318.106 74.467,-277.667c7.699,4.093 7.556,4.152 13.064,8.393Z" style="fill:#ce7a84;"/><path d="M1608.241,1314.855c-0.357,1.198 -4.752,15.959 -12.526,9.342c-6.555,-5.579 -3.66,-44.506 -34.639,-53.474c-2.654,-0.768 -23.331,-2.864 -18.08,-11.725c7.26,-12.253 35.249,10.469 48.903,-47.801c4.988,-21.286 12.918,-11.598 13.383,-10.328c9.443,25.762 -1.251,45.96 41.586,53.034c15.969,2.637 8.856,12.538 2.195,13.526c-26.653,3.954 -33.724,15.289 -40.821,47.427Z" style="fill:#b99d7c;"/><path d="M1525.039,1154.349c40.552,5.281 7.723,56.143 -41.957,65.228c-2.257,0.413 -11.025,2.016 -17.435,-22.768c-7.241,-27.998 -4.368,-61.785 21.293,-61.063c16.817,0.473 15.034,24.73 21.756,22.426c8.132,-2.788 7.86,-3.261 16.343,-3.822Z" style="fill:#b6887f;"/><path d="M384.24,1087.187c9.048,31.519 10.209,33.662 36.527,42.479c3.054,1.023 17.622,7.685 0.42,13.821c-26.27,9.371 -27.021,13.888 -36.917,45.238c-0.422,1.337 -8.596,16.895 -15.818,-7.559c-14.582,-49.381 -39.292,-30.056 -41.516,-42.147c-2.874,-15.623 27.312,4.552 41.046,-39.739c1.331,-4.291 8.501,-36.686 16.256,-12.092Z" style="fill:#b79287;"/><path d="M624.611,948.859c2.508,2.698 3.576,2.334 2.997,5.877c-0.133,0.815 0.019,0.648 -1.119,10.264c-0.049,0.412 0.225,0.301 3.102,4.152c-0.582,2.031 -0.685,1.824 -1.221,3.694c-0.319,1.115 -0.289,1.035 -3.898,13.967c-4.409,13.773 -53.857,168.25 -54.582,172.328c-1.25,7.041 4.319,0.776 87.2,-19.67c39.133,-9.654 59.975,-16.717 81.973,-22.055c0.423,-0.103 0.351,-0.197 4.742,-2.658c3.744,5.771 4.18,5.432 5.493,9.633c-15.581,7.37 -101.429,28.322 -110.325,30.493c-69.681,17.006 -70.183,19.444 -76.026,16.205c-8.469,-4.694 -4.608,-8.703 61.665,-222.229Z" style="fill:#86543d;"/><path d="M573.321,774.138c-3.703,7.197 -5.993,3.327 -6.262,3.258c-8.566,-2.21 -23.936,0.167 -25.992,0.485l-0.272,1.119c-0.963,0.434 -0.395,1.727 -7.855,3.164c-26.818,5.168 -41.105,9.99 -64.645,60.459c-15.256,32.709 -41.665,120.272 -23.917,196.487c1.448,6.217 9.621,41.314 24.3,75.998c1.204,2.845 2.165,2.26 19.132,33.54c6.213,11.453 20.276,28.629 22.208,30.989c0.322,0.394 3.691,4.508 3.099,5.552c-0.641,1.132 -2.245,1.494 -2.886,2.626c-87.377,-99.503 -97.639,-229.35 -56.687,-336.6c27.92,-62.214 60.463,-95.154 119.777,-77.078Z" style="fill:#e6ba80;"/><path d="M1446.091,496.482c4.37,-12.896 4.551,-12.881 4.235,-27.707c-0.167,-7.851 -0.346,-8.015 0.04,-8.261c0.647,-0.413 3.292,-1.673 4.287,8.581c4.905,50.532 38.664,58.521 54.679,63.499c7.081,2.201 -11.816,6.288 -19.939,11.149c-39.933,23.901 -34.753,97.529 -37.741,51.176c-0.599,-9.291 -8.675,-28.243 -15.089,-35.557c-20.157,-22.989 -33.09,-20.838 -33.359,-20.956c-10.671,-4.688 6.067,-7.329 7.507,-7.802c0.643,1.921 2.136,0.5 2.771,2.397c0.496,1.481 -1.932,1.04 -1.146,2.456c0.433,0.78 1.833,-0.051 2.663,0.276c5.015,1.974 5.121,1.321 10.035,-0.626c22.723,-9.006 27.123,-28.094 21.056,-38.624Z" style="fill:#f0c888;"/><path d="M527.837,1278.991c0.049,-54.272 -0.98,-61.222 7.032,-57.654c59.323,26.419 220.609,92.5 239.858,100.386c66.259,27.147 66.591,26.459 71.145,30.663c-0.445,0.266 -0.769,2.623 -4.764,2.847c-2.435,0.136 -1.719,1.13 -3.271,5.245c-9.122,-2.423 -8.515,-3.878 -109.189,-44.693c-11.615,-4.709 -30.646,-12.425 -143.181,-63.6c-43.676,-19.862 -50.646,-29.7 -51.123,-17.164c-0.433,11.376 1.43,20.434 -0.461,25.98c-1.103,3.235 0.357,3.247 -1.1,10c-0.539,2.496 -2.391,4.208 -4.945,7.991Z" style="fill:#e2bb80;"/><path d="M1319.889,422.796c-6.02,-22.881 -8.267,-26.458 -23.239,-32.975c-1.737,-0.756 -23.617,-5.247 -17.488,-12.699c10.082,-12.258 30.581,3.561 41.255,-46.276c1.616,-7.546 8.881,-8.447 11.128,2.013c7.002,32.589 16.338,31.428 37.723,39.519c19.856,7.513 -17.988,13.271 -27.727,27.006c-6.961,9.817 -11.659,51.703 -21.651,23.41Z" style="fill:#b68789;"/><path d="M585.131,600.951c3.563,11.165 3.524,11.098 3.848,12.058c10.018,29.664 39.373,23.887 36.539,34.157c-0.798,2.891 -12.868,8.213 -14.082,8.748c-22.311,9.838 -20.601,27.457 -24.87,36.92c-7.973,17.675 -14.336,-12.659 -17.279,-19.959c-6.811,-16.891 -48.134,-26.643 -30.55,-32.506c23.184,-7.73 27.57,-7.894 37.635,-41.6c2.018,-6.756 5.567,-4.235 8.758,2.181Z" style="fill:#b49283;"/><path d="M795.565,738.232c2.453,1.684 11.161,6.328 8.145,9.393c-2.944,2.991 -58.26,10.835 -124.573,25.976c-6.066,1.385 -9.181,-5.301 -30.379,-18.168c18.904,-10.407 92.705,-19.712 110.947,-23.561c14.199,-2.996 23.316,8.052 27.417,7.87c2.864,-0.127 2.121,1.508 3.759,1.902c0,0 4.31,-3.139 4.685,-3.412Z" style="fill:#ebb5b6;"/><path d="M778.81,589.639c-4.257,-1.975 -40.365,-18.729 -44.259,-38.508c-5.999,-30.475 29.596,-6.372 30.371,-5.973c15.772,8.119 12.609,-5.643 12.775,-8.034c0.376,-5.411 11.61,-26.343 21.079,-19.689c19.789,13.907 -1.789,60.115 -2.812,63.903c-3.06,11.326 -5.799,11.662 -17.155,8.301Z" style="fill:#d5ad73;"/><path d="M368.319,773.513c20.074,40.886 36.1,37.678 42.304,43.905c0.389,0.391 0.397,1.065 0.786,1.456l-0.987,1.746c-4.375,2.469 -35.127,19.827 -37.916,50.055c-0.222,2.404 -0.877,2.083 -1.851,4.396c-1.365,-3.789 -0.933,-6.928 -4.27,-13.682c-11.57,-23.418 -21.232,-29.983 -23.861,-31.77c-15.64,-10.629 -17.965,-6.107 -19.46,-5.819c0.175,-0.346 2.185,-4.328 2.185,-4.328c14.819,-3.067 36.292,-26.038 40.368,-43.953c0.9,-0.668 1.801,-1.337 2.701,-2.005Z" style="fill:#dfbf8d;"/><path d="M1515.106,949.216c-23.116,13.195 -15.28,47.492 -27.378,35.075c-4.854,-4.982 -3.019,-26.604 -19.172,-34.483c-0.508,-0.248 -19.823,-7.496 -19.593,-12.811c0.577,-13.322 24.738,4.306 34.571,-33.855c0.286,-1.11 1.106,-13.722 7.463,-13.912c12.174,-0.363 -2.036,26.733 29.892,40.048c1.438,0.6 14.513,3.956 12.583,9.914c-0.549,1.695 -16.85,9.315 -18.366,10.023Z" style="fill:#c0a079;"/><path d="M996.983,685.048c18.141,7.48 18.22,7.111 35.363,16.834c13.988,7.934 -23.128,6.605 -97.231,23.635c-11.256,2.587 -9.507,-3.198 -20.368,-12.186c-8.123,-6.722 -10.074,-0.501 -19.743,-4.337c0.926,-0.746 1.071,-2.208 1.997,-2.954c1.087,-0.876 1.035,-0.587 8,-2.016c73.684,-15.121 73.636,-16.219 81.929,-15.408c6.64,0.649 6.275,-0.955 10.054,-3.569Z" style="fill:#ebb3b7;"/><path d="M1020.812,683.482c-14.535,-5.315 -14.336,-5.606 -29.52,-8.915c-12.626,-2.751 28.709,-13.105 73.397,9.102c4.391,2.182 25.638,12.741 49.784,35.754c4.412,4.205 -3.1,1.395 -93.499,19.447c-74,14.777 -74.491,15.105 -75.695,13.846c-0.826,-0.864 -0.247,-1.04 -7.22,-13.086c13.103,-4.19 13.16,-3.544 26.88,-3.15c0.481,0.014 4.461,0.128 5.646,-2.067c0.189,-0.35 1.948,-3.609 4.416,-2.271c0.801,0.434 0.645,0.606 4.188,7.047c5.531,-1.135 5.453,-1.207 5.936,-1.259c53.578,-5.778 52.193,-13.407 105.822,-19.584c20.162,-2.322 -46.712,-37.035 -61.906,-37.592c-8.191,-0.3 -7.243,2.112 -8.228,2.726Z" style="fill:#f5ddac;"/><path d="M1020.812,683.482c0.985,-0.614 0.037,-3.026 8.228,-2.726c15.194,0.556 82.068,35.27 61.906,37.592c-53.629,6.177 -52.244,13.806 -105.822,19.584c-0.483,0.052 -0.405,0.124 -5.936,1.259c-3.543,-6.441 -3.387,-6.613 -4.188,-7.047c-2.469,-1.338 -4.228,1.921 -4.416,2.271c-1.185,2.195 -5.165,2.081 -5.646,2.067c-13.719,-0.395 -13.776,-1.04 -26.88,3.15c-1.435,-4.095 -3.329,-5.716 0.951,-6.599c102.289,-21.088 120.418,-16.516 109.031,-31.339c-4.382,-5.704 -24.931,-16.953 -27.229,-18.211Z" style="fill:#e6c282;"/><path d="M434.863,1321.303c0.748,1.267 1.495,2.534 2.243,3.8c-32.419,16.43 -29.055,34.901 -34.524,39.154c-4.672,3.633 -3.322,-1.252 -6.012,-7.075c-11.502,-24.9 -19.818,-24.585 -30.802,-31.122c-4.712,-2.804 0.088,-3.109 5.177,-5.178c17.596,-7.153 27.469,-34.474 28.397,-35.096c6.292,-4.22 -0.637,19.351 35.522,35.516Z" style="fill:#e0c28d;"/><path d="M1632.664,962.539c9.308,6.67 2.748,20.424 31.789,37.254c6.311,3.657 -4.827,5.746 -10.771,11.77c-16.408,16.631 -16.605,28.599 -16.652,31.445c-0.054,3.301 -1.797,1.892 -2.225,2.343c-8.882,-38.661 -25.065,-36.665 -32.97,-41.052c-8.898,-4.939 17.34,-1.509 30.829,-41.76Z" style="fill:#e3aaa3;"/><path d="M1524.95,1167.274c8.16,3.305 6,5.996 1.61,13.54c-1.995,3.428 -10.968,18.846 -41.497,27.131c-10.168,2.759 -19.284,-54.234 -2.009,-60.764c11.302,-4.272 8.673,27.618 16.013,26.104c5.054,-1.043 7.148,-6.395 25.883,-6.011Z" style="fill:#dc9095;"/><path d="M250.737,1131.504c1.048,0.524 13.472,6.737 10.852,9.847c-5.978,7.096 -19.156,-1.832 -27.454,27.406c-7.686,27.082 -7.423,-11.767 -25.733,-20.765c-8.026,-3.944 -10.58,-2.651 -9.603,-7.052c0.756,-3.406 16.818,-7.769 21.679,-20.155c1.218,-3.104 2.128,-6.32 3.26,-9.456c2.269,-6.287 5.505,-7.972 8.365,-1.879c6.303,13.429 6.453,13.522 18.635,22.054Z" style="fill:#d9c08c;"/><path d="M580.523,1316.289c0.475,3.836 -1.191,15.296 -1.992,16.281c-2.714,3.336 -6.062,2.139 -6.43,16.478c-0.287,11.181 -0.384,14.94 1.733,139.795c0.044,2.613 -0.766,2.741 1.166,5.588c2.11,3.108 0.363,3.257 -2.674,5.463c-11.136,-6.894 -7.343,-9.852 -7.91,-52.876c-0.118,-8.961 -1.444,-109.396 -1.489,-112.017c-0.02,-1.15 -0.237,-13.571 1.951,-14.246c1.244,-0.384 1.159,-0.331 15.646,-4.467Z" style="fill:#d18089;"/><path d="M795.565,738.232c-0.375,0.273 -4.685,3.412 -4.685,3.412c-1.638,-0.394 -0.895,-2.029 -3.759,-1.902c-4.101,0.182 -13.218,-10.866 -27.417,-7.87c-18.242,3.85 -92.043,13.154 -110.947,23.561c-11.111,-6.857 -24.713,-10.409 -11.74,-12.354c48.868,-7.328 108.383,-27.71 134.174,-18.707c8.817,3.078 22.53,12.582 24.373,13.86Z" style="fill:#f2cbcb;"/><path d="M805.279,1093.032c0.837,-4.434 0.517,-4.889 4.475,-7.045c4.31,-2.348 56.124,-16.679 61.168,-17.541c25.016,-4.272 17.095,12.822 13.588,16.016c-6.379,5.81 -75.489,30.299 -79.232,8.569Z" style="fill:#faf5c8;"/><path d="M1617.252,626.101c-2.012,-0.888 -16.009,-7.063 -14.841,-23.145c2.971,-40.886 64.368,-15.376 41.987,13.59c-10.948,14.169 -26.601,9.587 -27.146,9.555Z" style="fill:#be9f86;"/><path d="M276.761,677.286c-7.433,-27.063 -13.565,-27.382 -23.252,-36.856c-11.574,-11.319 23.627,-5.701 20.402,-41.286c-0.707,-7.803 4.215,-22.439 5.039,-12.068c0.891,11.212 1.897,10.999 1.823,11.964c-1.278,16.716 0.903,20.622 17.567,32.954c10.334,7.648 0.933,11.155 -4.854,15.558c-13.41,10.202 -10.52,20.286 -16.725,29.734Z" style="fill:#dd9399;"/><path d="M1176.747,392.519c30.119,-12.042 36.296,18.994 29.593,30.132c-18.547,30.819 -64.782,-6.089 -29.593,-30.132Z" style="fill:#d2b07c;"/><path d="M244.064,835.253c7.696,39.103 -47.449,34.466 -42.146,1.878c2.602,-15.992 18.912,-17.132 21.088,-17.284c12.391,-0.866 20.077,13.564 21.058,15.406Z" style="fill:#bb8e8d;"/><path d="M918.053,986.699c0.406,-1.323 5.361,-17.482 14.561,-9.326c7.308,6.479 -12.868,77.783 -21.563,83.702c-23.125,15.743 4.294,-65.601 7.002,-74.376Z" style="fill:#fbf7cc;"/><path d="M1601.18,1294.431c-0.229,-0.403 -1.146,0.195 -1.375,-0.208c-1.309,-2.299 -0.419,-6.186 -7.545,-16.435c-7.165,-10.304 -23.796,-12.939 -17.085,-18.606c10.644,-8.988 11.377,-8.267 21.474,-24.426c6.764,-10.826 5.64,5.943 19.152,17.508c4.279,3.662 17.157,9.265 6.859,14.104c-16.002,7.519 -10.448,13.459 -21.48,28.063Z" style="fill:#e9cea1;"/><path d="M1113.924,1343.131c1.8,-9.767 3.315,-10.527 -2.859,-18.175c-12.262,-15.19 13.279,-34.167 23.138,-23.026c9.015,10.187 2.579,18.214 0.704,23.035c-3.069,7.889 14.416,24.862 -1.674,30.634c-24.911,8.936 -19.311,-12.102 -19.309,-12.468Z" style="fill:#784a36;"/><path d="M360.436,1145.605c-7.577,-5.713 -7.508,-6.159 -7.056,-8.463c0.208,-1.061 12.699,-12.47 14.847,-14.832c2.758,-3.033 8.982,-22.046 11.893,-16.643c3.239,6.011 2.5,6.273 5.936,12.061c9.252,15.586 25.203,15.825 12.333,24.464c-20.176,13.544 -17.143,30.356 -23.038,20.573c-4.121,-6.839 -3.294,-7.552 -14.915,-17.16Z" style="fill:#ddbb9a;"/><path d="M1324.528,1268.785c-24.367,32.267 -44.473,-9.6 -34.917,-21.309c8.624,-10.568 14.993,-0.344 19.386,-2.485c21.086,-10.274 22.874,10.199 15.532,23.794Z" style="fill:#a17253;"/><path d="M918.32,1382.952c-4.655,37.289 -41.566,20.076 -40.681,-3.901c0.215,-5.831 7.661,-13.819 17.531,-10.488c7.842,2.647 8.071,-2.702 16.079,-0.306c6.888,2.061 7.053,13.391 7.072,14.695Z" style="fill:#9a6648;"/><path d="M996.983,685.048c-3.779,2.614 -3.414,4.217 -10.054,3.569c-8.294,-0.81 -8.246,0.287 -81.929,15.408c-6.965,1.429 -6.913,1.14 -8,2.016c-0.926,0.746 -1.071,2.208 -1.997,2.954c-7.425,-5.739 -7.901,-4.732 -15.511,-10.341c-0.439,-0.324 0.075,-1.271 -0.364,-1.595c0.683,-0.495 1.365,-0.99 2.048,-1.485c12.136,-1.543 11.921,-1.709 23.919,-4.127c63.664,-12.831 64.288,-13.437 91.888,-6.399Z" style="fill:#f3c8ca;"/><path d="M835.71,1378.991c-0.602,2.424 -5.569,22.446 -20.704,23.374c-15.172,0.93 -31.874,-38.397 -6.085,-36.642c13.872,0.944 24.622,-9.471 26.789,13.268Z" style="fill:#986344;"/><path d="M894.703,1671.836c-1.719,-0.849 -14.149,-6.991 -14.711,-18.925c-0.986,-20.946 12.981,-15.053 25.013,-15.763c16.646,-0.982 16.514,16.924 9.727,27.691c-8.286,13.146 -16.599,7.972 -20.029,6.996Z" style="fill:#9a6a52;"/><path d="M537.731,1274.917c-2.054,-16.584 4.566,-17.437 15.149,-15.313c6.171,1.238 6.786,-5.35 15.724,-1.653c19.132,7.914 -6.993,67.042 -30.873,16.965Z" style="fill:#905c3e;"/><path d="M883.124,731.903c1.891,0.074 17.778,0.697 18.213,15.09c0.502,16.605 23.29,19.921 9.915,26.458c-22.945,11.214 -22.555,-7.153 -23.703,-10.697c-1.479,-4.563 -30.684,-10.138 -10.099,-28.892c1.891,-0.653 3.783,-1.306 5.674,-1.959Z" style="fill:#84533a;"/><path d="M826.933,1639.103c18.103,20.426 -24.841,54.026 -32.325,13.968c-3.105,-16.622 1.969,-19.905 18.452,-16.501c7.003,1.446 7.18,-0.02 13.873,2.533Z" style="fill:#8f5942;"/><path d="M1010.994,1267.085c-8.068,5.916 -9.006,3.65 -18.093,7.75c-12.564,-13.557 -23.519,-0.814 -40.8,7.599c-4.819,2.346 -2.806,4.958 -3.214,5.678c-13.378,2.762 -13.217,3.058 -33.507,9.733c3.355,-5.008 3.162,-5.158 3.62,-5.404c3.032,-1.626 45.909,-33.3 52.373,-36.661c8.425,-4.379 38.881,10.866 39.621,11.305Z" style="fill:#c09c75;"/><path d="M1322.682,1497.14c7.542,21.919 -16.607,41.087 -32.972,17.374c-7.665,-11.106 2.134,-25.174 11.501,-22.101c6.753,2.215 6.689,-0.811 13.69,-0.48c2.299,0.109 7.232,4.697 7.781,5.208Z" style="fill:#9d7152;"/><path d="M774.856,706.529c42.482,-7.711 42.394,-7.253 46.067,-7.954c4.767,-0.909 34.039,-6.491 59.671,10.901c5.282,3.584 -10.854,5.294 -13.576,5.678c-3.809,-6.255 -19.088,-9.827 -23.923,-9.321c-3.411,0.357 -4.126,0.432 -41.993,8.614c-16.667,-5.742 -20.7,-3.99 -22.103,-5.024c-1.724,-1.271 -0.537,-2.038 -2.233,-3.222c-0.958,-0.669 -0.939,1.007 -1.911,0.328Z" style="fill:#f9e8c1;"/><path d="M580.95,608.991c0.003,0.036 -1.444,1.952 0.307,4.009c0.341,0.401 2.466,0.609 2.129,3.935c-2.593,25.58 24.299,25.018 15.251,33.722c-19.9,19.145 -16.013,22.715 -18.324,23.231c-0.456,0.102 -0.308,-1.277 -0.764,-1.175c-2.35,-8.61 -1.677,-13.179 -17.112,-22.814c-8.269,-5.162 -1.809,-6.821 2.178,-9.47c15.696,-10.426 13.444,-12.867 16.334,-31.436Z" style="fill:#dfbc9a;"/><path d="M1346.728,375.42c0.587,1.019 1.174,2.038 1.76,3.057c-2.935,2.718 -6.477,1.432 -21.822,24.014c-2.404,-1.675 -16.126,-24.55 -23.062,-22.429c-4.139,1.266 -5.952,3.385 -6.539,-1.053c-0.784,-5.928 4.81,0.442 13.224,-5.009c12.173,-7.887 11.847,-24.035 19.335,-11.521c4.702,7.858 16.058,12.408 17.104,12.94Z" style="fill:#d79097;"/><path d="M541.519,1533.153c9.973,-19.054 26.635,-6.451 28.883,2.003c7.365,27.695 -36.297,33.469 -28.883,-2.003Z" style="fill:#966445;"/><path d="M384.962,501.839c-21.066,-3.04 -17.768,-23.871 -10.087,-28.994c23.248,-15.509 38.141,26.235 10.087,28.994Z" style="fill:#d7959e;"/><path d="M1370.011,643.021c-5.799,35.826 -47.291,2.881 -27.113,-12.15c1.052,-0.784 7.434,-5.538 16.247,-2.259c8.075,3.004 10.523,13.007 10.866,14.409Z" style="fill:#d79398;"/><path d="M1690.995,892.134c-35.97,-4.297 -4.203,-47.969 13.322,-24.685c4.262,5.662 1.67,12.726 1.289,13.765c-4.326,11.788 -13.093,10.686 -14.611,10.92Z" style="fill:#d7b981;"/><path d="M1090.415,1374.246c-9.449,1.007 -30.592,-12.227 -32.663,-43.312c-2.055,-30.843 -1.469,-31.848 1.077,-32.296c1.902,-0.335 10.04,1.275 10.215,8.361c0.787,31.77 -3.463,48.056 18.6,63.541c1.951,1.369 1.579,1.45 2.77,3.705Z" style="fill:#cc9b70;"/><path d="M573.028,753.105c37.867,-7.275 45.961,-5.774 82.29,17.466c-2.801,1.026 -3.066,4.457 -10.091,-0.127c-20.494,-13.375 -25.914,-14.926 -46.066,-9.152c-5.207,-0.509 -5.042,-0.732 -10.238,-1.691c-3.583,-0.661 -3.004,1.034 -8.13,5.884c-20.239,-6.387 -20.62,-5.087 -22.217,-6.004c-4.295,-2.466 0.357,-3.309 14.451,-6.376Z" style="fill:#f6e1af;"/><path d="M1492.681,962.515c-6.067,-4.568 -4.314,-13.109 -16.161,-20.935c-6.473,-4.276 -1.487,-5.638 4.383,-10.689c9.527,-8.199 8.511,-24.265 13.041,-12.544c0.535,1.384 1.698,3.9 1.853,4.236c5.916,12.806 17.038,14 12.678,17.868c-10.407,9.235 -9.507,9.844 -15.794,22.065Z" style="fill:#e5c592;"/><path d="M801.103,714.448c37.867,-8.182 38.582,-8.257 41.993,-8.614c4.834,-0.506 20.114,3.066 23.923,9.321c-23.065,4.84 -23.135,3.958 -45.699,10.656c-0.346,-0.319 -4.32,-3.988 -4.32,-3.988c-0.935,0.27 -1.077,1.818 -2,2.128c-0.338,0.113 -7.082,-3.206 -7.657,-3.711c-5.958,-5.232 -5.718,-5.353 -6.24,-5.792Z" style="fill:#e3c087;"/><path d="M939.005,787c-13.353,29.279 -46.467,19.159 -73.808,11.478c-10.9,-7.015 -2.991,-11.626 -0.497,-10.649c58.445,22.882 61.968,0.008 70.213,-1.3c0.325,-0.052 0.303,0.035 4.092,0.472Z" style="fill:#d4a171;"/><path d="M1130.793,1276.271c-13.184,4.476 -74.762,26.111 -65.397,12.974c0.55,-0.771 57.366,-17.755 67.333,-21.103c4.196,-1.409 16.764,-7.463 23.762,-4.219c6.982,3.237 -2.302,5.369 -25.699,12.348Z" style="fill:#f0d8aa;"/><path d="M939.1,407.14c-25.427,12.743 -23.82,-41.852 1.903,-28.148c5.344,2.847 11.289,14.768 -1.903,28.148Z" style="fill:#efc1c3;"/><path d="M1128.967,312.253c-33.353,-4.307 -4.339,-44.017 11.602,-22.964c2.46,3.249 3.375,9.196 1.656,13.423c-2.97,7.303 -11.982,9.263 -13.259,9.54Z" style="fill:#da9aa3;"/><path d="M312.178,1245.032c-3.986,30.172 -44.005,8.186 -23.017,-9.826c0.743,-0.638 5.26,-4.514 11.742,-3.464c8.149,1.32 10.923,11.942 11.276,13.291Z" style="fill:#ccad7c;"/><path d="M407.726,637.14c3.66,-8.581 3.959,-9.561 13.244,-10.48c3.494,-0.346 8.972,1.368 11.792,4.559c14.981,16.96 -25.163,39.328 -25.036,5.921Z" style="fill:#ceb27a;"/><path d="M774.856,706.529c0.972,0.679 0.954,-0.997 1.911,-0.328c1.696,1.185 0.509,1.951 2.233,3.222c1.403,1.035 5.436,-0.718 22.103,5.024c0.521,0.438 0.282,0.559 6.24,5.792c0.575,0.505 7.319,3.824 7.657,3.711c0.923,-0.31 1.065,-1.858 2,-2.128c0,-0 3.974,3.669 4.32,3.988c-5.885,2.971 -5.739,3.142 -8.979,8.848c-5.171,9.109 -4.791,-9.457 -45.719,-23.226c-7.151,-2.406 0.756,-3.507 8.234,-4.903Z" style="fill:#dcb788;"/><path d="M1669.002,1125.374c1.169,0.256 9.514,2.082 11.33,9.772c0.961,4.068 -0.962,9.54 -2.261,11.161c-12.438,15.516 -41.931,-14.922 -9.069,-20.933Z" style="fill:#bd928d;"/><path d="M680.233,484.912c-7.206,29.247 -38.005,-1.316 -18.707,-12.999c1.264,-0.765 7.113,-2.93 12.991,-0.021c5.08,2.513 5.647,11.884 5.715,13.02Z" style="fill:#cc8e98;"/><path d="M1551.202,1112.421c-15.734,-8.915 -2.616,-21.401 2.08,-22.51c19.672,-4.65 27.633,28.319 -2.08,22.51Z" style="fill:#c4a77e;"/><path d="M1446.091,496.482c6.066,10.53 1.667,29.618 -21.056,38.624c-4.914,1.947 -5.02,2.6 -10.035,0.626c-0.83,-0.327 -2.23,0.505 -2.663,-0.276c-0.787,-1.416 1.642,-0.976 1.146,-2.456c-0.635,-1.896 -2.128,-0.476 -2.771,-2.397c26.345,-14.896 28.781,-19.798 35.38,-34.121Z" style="fill:#faecaf;"/><path d="M1490.984,694.326c-27.895,-4.058 -2.169,-37.677 10.182,-19.454c0.567,0.837 4.107,5.208 1.728,12.092c-2.712,7.846 -10.432,7.202 -11.91,7.362Z" style="fill:#c58c91;"/><path d="M713.003,1400.983c29.778,11.865 25.239,30.498 25.185,49.859c-8.904,-3.783 -6.207,-6.208 -8.065,-15.687c-5.136,-26.209 -26.941,-22.427 -17.121,-34.171Z" style="fill:#edd0a0;"/><path d="M1088.914,1298.568c-4.188,28.471 3.122,42.838 -5.914,43.599c-1.257,0.106 -0.535,-1.444 -1.775,-1.167c-1.923,0.43 -1.027,1.794 -2.952,2.224c-1.998,-17.193 -1.737,-17.012 -1.953,-34.199c-0.118,-9.332 3.885,-6.984 12.595,-10.457Z" style="fill:#f7e4ac;"/><path d="M1313.391,1251.425c12.523,-8.366 8.324,6.001 6.657,9.061c-16.572,30.42 -32.421,-9.21 -21.06,-9.724c6.403,-0.29 7.14,6.835 14.403,0.663Z" style="fill:#eba9a6;"/><path d="M1182.981,520.767c20.407,3.708 2.558,24.244 2.218,24.48c-14.19,9.866 -20.748,-19.033 -2.218,-24.48Z" style="fill:#f0dfaa;"/><path d="M909.827,1385.194c-12.021,31.687 -25.164,-2.27 -23.851,-5.869c2.454,-6.725 10.847,-1.779 11.655,-1.303c5.069,2.988 13.27,-8.653 13.085,0.974c-0.01,0.501 -0.066,0.459 -0.889,6.197Z" style="fill:#e9a59c;"/><path d="M1067.009,537.653c0.396,0.052 8.165,-0.697 10.346,7.251c1.75,6.381 -1.613,11.417 -2.165,12.244c-9.225,13.811 -35.825,-15.567 -8.18,-19.495Z" style="fill:#ddaba7;"/><path d="M1624.923,591.637c10.468,2.045 12.706,3.072 10.83,13.526c-2.244,12.506 -24.007,14.266 -20.586,-4.142c1.815,-9.763 5.365,-8.906 9.756,-9.384Z" style="fill:#e2c294;"/><path d="M896.909,1665.121c-17.505,-14.327 -6.904,-21.314 -4.114,-19.746c5.872,3.299 6.292,3.153 12.34,-0.085c10.792,-5.778 7.61,26.008 -8.226,19.831Z" style="fill:#e79594;"/><path d="M835.24,760.79c4.739,5.548 29.964,29.436 17.75,28.343c-3.385,-0.303 -40.518,-40.285 -33.183,-45.388c1.51,-1.05 1.746,-0.074 15.433,17.044Z" style="fill:#dfb085;"/><path d="M804.308,1379.087c0.299,-5.77 1.598,-6.897 6.945,-4.821c5.383,2.09 9.391,-3.486 13.45,-2.494c9.984,2.44 -10.92,43.168 -20.395,7.315Z" style="fill:#ddad79;"/><path d="M550.855,1283.138c-3.016,-4.062 -3.39,-3.763 -4.937,-8.487c-3.724,-11.369 9.981,-5.634 13.285,-7.294c18.115,-9.1 7.014,28.993 -8.348,15.781Z" style="fill:#e4af89;"/><path d="M1311.18,1190.128c13.299,5.573 14.162,4.292 15.667,6.909c2.087,3.63 -2.178,1.76 -49.728,16.328c-1.017,-0.506 -0.848,1.006 -1.868,0.498c-0.291,-0.145 -2.032,-1.012 -2.882,-2.864c-0.372,-0.81 -1.186,-3.717 10.631,-3.327c1.655,0.055 1.827,-2.668 4.079,-2.353c0.696,0.097 1.22,0.931 1.921,0.873c1.884,-0.156 1.482,-3.093 4.103,-2.99c4.527,0.178 8.158,2.372 18.077,-13.074Z" style="fill:#f3ddad;"/><path d="M813.192,1663.342c-1.972,0.522 -6.847,4.637 -10.607,-8.226c-1.356,-4.638 -1.259,-13.475 2.328,-11.782c5.775,2.727 5.939,3.117 11.975,1.202c5.778,-1.833 12.65,7.154 -3.696,18.805Z" style="fill:#e0968f;"/><path d="M992.901,1274.835c-1.935,0.581 -24.187,7.267 -24.187,7.267c-9.941,2.961 -9.744,3.051 -19.827,6.01c0.408,-0.72 -1.605,-3.332 3.214,-5.678c17.282,-8.413 28.236,-21.156 40.8,-7.599Z" style="fill:#f0d2a6;"/><path d="M1265.833,528.219c17.357,21.758 -5.334,48.294 -8.042,51.461c-0.694,-1.274 -2.735,-1.406 -3.429,-2.68c-0.622,-1.143 0.924,-2.899 1.098,-3.096c5.469,-6.21 4.975,-6.524 5.588,-6.882c2.238,-1.305 1.935,-1.642 1.702,-4.107c-0.109,-1.155 5.492,-16.479 3.811,-19.865c-2.008,-4.046 -2.199,-3.77 -3.175,-8.175c-0.826,-3.73 -1.439,-3.586 -1.287,-3.876c0.719,-1.375 3.015,-1.405 3.734,-2.781Z" style="fill:#9d8065;"/><path d="M1294.528,1505.002c1.934,-5.222 3.182,-5.864 8.019,-3.017c6.819,4.014 7.724,-4.173 12.835,-1.454c6.925,3.685 -12.053,33.54 -20.853,4.471Z" style="fill:#e6a49c;"/><path d="M865.455,1599.021c0.98,0.574 11.18,6.55 11.916,7.715c2.229,3.527 7.172,3.904 5.048,5.817c-0.582,0.525 -5.624,5.067 -7.041,6.813c-1.194,1.471 -2.213,8.168 -6.311,5.022c-5.91,-4.536 -3.959,-6.803 -3.612,-25.368Z" style="fill:#e9c37d;"/><path d="M1099,1441.283c6.943,4.936 8.345,5.399 6.253,13.77c-4.192,16.773 -16.884,9.712 -14.53,-0.1c1.948,-8.12 2.987,-7.467 8.277,-13.67Z" style="fill:#f3bbbb;"/><path d="M223.094,832.107c17.529,4.101 4.503,23.61 -5.941,16.619c-2.148,-1.438 -10.052,-15.316 5.941,-16.619Z" style="fill:#f4babf;"/><path d="M866.34,282.939c-5.599,20.804 -23.285,1.426 -13.388,-7.99c2.98,-2.836 7.413,-2.648 9.513,-1.137c4.427,3.185 3.821,8.648 3.874,9.127Z" style="fill:#d1bb8b;"/><path d="M548.209,1536.933c3.784,-12.083 13.99,-1.857 15.245,1.934c3.212,9.704 -12.858,18.973 -15.245,-1.934Z" style="fill:#dfb27d;"/><path d="M696.955,663.113c-4.641,-2.948 -5.886,-4.329 -1.875,-8.048c1.74,-1.613 2.794,-6.333 12.059,-9.632c7.824,-2.786 5.104,6.386 3.632,8.644c-0.252,0.387 -0.986,-0.349 -1.381,-0.11c-4.058,2.455 -1.083,4.641 -4.103,7.311c-3.413,3.017 -3.846,1.674 -8.331,1.834Z" style="fill:#fbf4db;"/><path d="M1134.234,744.844c0.226,0.994 1.945,1.162 2.17,2.156c0.849,3.742 0.428,29.385 0.386,31.94c-0.058,3.544 -0.639,3.646 -4.012,4.202c-1.022,-5.222 -1.136,-5.073 -2.691,-10.142c-0.724,-2.36 -1.309,-1.836 -2.784,-3.903c3.614,-12.13 3.612,-11.929 6.931,-24.253Z" style="fill:#fbf1cc;"/><path d="M782.778,784.001c0.943,2.001 4.003,3.605 0.222,5.141c-5.376,2.183 -5.594,1.265 -6.036,1.491c-1.009,0.516 -0.967,2.25 -1.976,2.766c-1.217,0.623 -2.732,0.164 -4.088,0.336c-20.909,2.654 -19.653,-2.782 -20.02,-3.434c5.823,-1.13 6.457,-0.988 31.899,-6.299Z" style="fill:#8d6648;"/><path d="M1048.155,1304.997c0.454,12.041 0.52,11.912 1.124,23.997c-4.043,-1.849 -3.991,-2.1 -4.359,-1.994c-1.602,0.459 -0.507,1.517 -1.863,2.21c-3.849,1.964 -3.373,-15.853 -3.194,-16.67c0.363,-1.654 2.415,-2.6 2.778,-4.255c4.946,-3.341 5.103,-2.981 5.515,-3.288Z" style="fill:#f2cf8b;"/><path d="M886.855,936.561c2.166,-5.79 3.805,-6.864 4.371,-7.235c16.323,-10.694 19.605,-4.266 17.774,-3.049c-6.275,4.17 -4.96,5.258 -10.06,10.561c-1.761,1.832 -11.138,-0.084 -12.086,-0.277Z" style="fill:#dba894;"/><path d="M536.761,750.337c0.339,0.37 4.24,4.622 4.24,4.622c0,0 7.396,-1.664 8.039,-1.808c10.517,9.592 -3.77,6.472 -4.174,6.508c-7.213,0.653 -7.418,-4.382 -13.85,-0.813c-0.621,0.345 -1.357,0.634 -2.061,0.541c-0.737,-0.097 -1.216,-1.149 -1.955,-1.071c-0.827,0.088 -1.255,1.863 -2,1.493c-1.314,-0.652 -1.096,-3.03 -2.409,-3.682c6.921,-3.394 6.851,-3.103 14.17,-5.79Z" style="fill:#704330;"/><path d="M489.709,685.017c-4.476,14.657 -20.005,2.094 -10.49,-5.738c7.735,-6.366 10.277,4.805 10.49,5.738Z" style="fill:#cebb8d;"/><path d="M644.34,1426.633c-12.438,10.493 -15.622,-13.255 -5.274,-12.416c7.997,0.649 5.518,11.364 5.274,12.416Z" style="fill:#edb3b1;"/><path d="M729.2,789.382c-1.045,0.307 -11.349,3.337 -13.389,2.471c-1.241,-0.527 -1.631,-2.204 -2.729,-2.986c-1.856,-1.322 -2.113,-1.182 -1.878,-1.782c1.251,-3.199 3.414,-2.465 13.805,-2.442c6.285,0.014 4.127,3.482 4.192,4.739Z" style="fill:#eecd8d;"/><path d="M1174.973,1403.049c0.798,0.474 1.596,0.949 2.394,1.423c-6.299,7.67 -5.264,8.452 -6.085,8.663c-0.365,0.094 0.098,-0.457 -2.271,-4.134c-2.46,-3.82 3.707,-6.428 4.291,-6.675c0.559,-0.236 1.111,0.96 1.67,0.723Z" style="fill:#ebcb90;"/><path d="M1471.747,1050.947c-0.206,0.482 -3.695,8.656 -6.293,1.844c-0.479,-1.257 1.516,-11.113 6.293,-1.844Z" style="fill:#d8c8ab;"/><path d="M843.466,1420.735c0.495,12.833 -7.583,2.63 -7.562,2.438c0.069,-0.632 0.187,-1.704 7.562,-2.438Z" style="fill:#d09b6a;"/><path d="M434.863,1321.303c6.604,0.5 10.047,-3.145 10.111,3.565c-5.675,-0.05 -5.639,-0.058 -6.129,-0.054c-0.984,0.009 -0.788,0.28 -1.739,0.289c-0.748,-1.267 -1.495,-2.534 -2.243,-3.8Z" style="fill:#cbac81;"/><path d="M1155.252,856.822c-0.501,8.9 -4.403,4.752 -4.606,4.292c-1.696,-3.851 4.104,-4.256 4.606,-4.292Z" style="fill:#f7e1af;"/><path d="M368.319,773.513c-0.9,0.668 -1.801,1.337 -2.701,2.005c0.088,-0.339 1.106,-4.235 1.106,-4.235c0.891,0.201 0.704,2.029 1.595,2.23Z" style="fill:#c5a47c;"/><path d="M1346.728,375.42c0.587,1.019 1.174,2.038 1.76,3.057c-0.587,-1.019 -1.174,-2.038 -1.76,-3.057Z" style="fill:#d08a92;"/></g></svg>