<?xml version="1.0" encoding="UTF-8" standalone="no"?><!DOCTYPE svg PUBLIC "-//W3C//DTD SVG 1.1//EN" "http://www.w3.org/Graphics/SVG/1.1/DTD/svg11.dtd"><svg width="100%" height="100%" viewBox="0 0 1024 1024" version="1.1" xmlns="http://www.w3.org/2000/svg" xmlns:xlink="http://www.w3.org/1999/xlink" xml:space="preserve" xmlns:serif="http://www.serif.com/" style="fill-rule:evenodd;clip-rule:evenodd;stroke-linejoin:round;stroke-miterlimit:2;"><g id="Background"><path d="M103.3,840.152c-27.84,-29.857 -12.894,-69.986 -6.839,-98.79c6.736,-32.04 38.761,-184.381 64.884,-405.249c1.841,-15.562 1.024,-15.581 -0.312,-18.999c-2.687,-6.874 -7.061,-18.068 2.418,-94.196c4.05,-32.522 13.778,-73.36 74.259,-69.116c0.451,0.032 5.184,0.364 5.589,-0.966c1.529,-5.017 11.423,-57.09 55.398,-54.65c13.295,0.738 30.019,12.537 36.793,30.791c8.377,22.578 1.692,28.849 8.722,29.053c13.476,0.392 13.853,0.439 14.232,-0.8c1.863,-6.089 12.205,-54.789 54.011,-53.623c17.188,0.479 40.351,16.939 43.042,53.775c0.048,0.659 -0.647,6.063 2.418,6.241c15.377,0.893 15.803,0.912 16.246,-0.496c0.556,-1.765 7.128,-36.164 32.516,-49.522c23.838,-12.542 60.565,0.549 65.027,49.697c0.252,2.774 -1.711,6.203 4.09,6.553c4.464,0.269 14.801,1.686 15.452,-0.637c0.561,-2.003 6.701,-35.224 32.044,-49.021c30.079,-16.374 63.659,10.366 65.517,50.24c0.329,7.06 2.839,5.169 9.001,5.367c3.798,0.122 8.912,2.277 10.389,-2.953c21.856,-77.4 92.837,-59.709 97.315,3.542c0.66,9.321 4.607,5.27 18.507,8.055c15.77,3.159 15.161,5.721 30.89,9.091c18.007,3.859 41.17,19.398 45.888,51.922c4.496,30.993 6.736,390.98 34.647,541.117c1.375,7.395 11.501,35.777 -31.963,47.194c-18.207,4.783 -28.057,-0.016 -28.419,5.229c-0.065,0.949 1.329,18.644 -13.091,29.309c-23.09,17.079 -54.506,10.244 -56.635,12.341c-4.782,4.709 -5.242,47.613 -75.458,45.141c-62.48,-2.199 -555.176,-51.75 -602.824,-70.073c-15.248,-5.864 -22.2,-13.797 -23.754,-15.57Z" style="fill:#5b2b19;"/><path d="M171.05,335.915c8.129,3.437 15.681,2.075 19.098,2.743c0.528,0.103 0.837,0.873 1.365,0.976l-0.375,2.41c-1.851,12.379 -4.241,24.892 -3.697,27.312c2.116,9.411 10.244,7.248 32.696,9.569c12.007,1.242 67.286,5.471 72.38,5.892c17.112,1.416 17.211,-0.462 18.583,0.198c4.445,2.138 4.54,1.96 59.986,5.989c51.575,3.747 51.681,4.276 53.723,3.345c4.073,-1.858 3.939,1.056 8.31,1.462c4.958,0.461 37.08,3.445 62.039,4.804c46.61,2.536 47.19,5.475 56.921,1.839c3.502,1.817 3.323,2.249 7.204,2.511c12.883,0.87 102.796,7.48 106.481,7.615c4.167,0.153 3.979,-1.5 8.17,-1.237c4.064,3.385 12.192,2.184 78.651,7.449c41.323,3.273 41.756,3.331 45.148,0.23c2.216,-2.026 3.35,-3.062 6.71,-40.005c4.004,3.292 12.026,0.445 20.414,2.779c1.77,0.493 1.158,1.741 1.305,1.961l0.026,1.192l1.39,1.243c-3.887,43.006 -3.466,42.961 -8.315,85.82l-2.01,-1.264l-1.01,1.192l-0.181,1.192l-0.105,1.192l-0.203,1.192l-0.185,1.192l-0.149,1.192l-0.104,1.192l-0.172,1.192l-0.059,1.192l-0.164,1.192l-0.055,1.192l-0.12,1.192l-0.167,1.192l-0.14,1.192l-0.104,1.192l-0.069,1.192l-0.069,1.192l-0.153,1.192c0.016,3.791 -1.059,4.093 -1.566,15.491l-0.172,1.192l-0.073,1.192l-0.087,1.192l-0.055,1.192c-0.239,4.319 -0.255,4.21 -1.146,8.341l-0.078,1.192l-0.122,1.192l-0.028,1.192l-0.164,1.192l-0.174,1.192l-0.143,1.192l-0.103,1.192c-3.468,33.069 -4.367,32.894 -4.611,35.773c-0.005,0.058 -7.156,66.735 -8.419,76.241l-0.094,1.192l-0.153,1.192l-0.168,1.192c-0.163,2.982 -0.507,2.906 -4.792,36.939c-0.024,0.193 -0.032,0.177 -0.427,2.385c-3.157,21.583 -3.115,21.572 -3.369,22.641l-0.159,1.192l-0.28,1.192l-0.137,1.192l-0.131,1.192l-0.079,1.192l-0.121,1.192l-0.073,1.192l-0.179,1.192l-0.218,1.192l-0.306,1.192l-0.143,1.192l-0.084,1.192l-0.083,1.192l-0.055,1.192l-0.144,1.192l-0.222,1.192l-0.123,1.192l-0.724,1.192l0.37,1.192l-0.533,0.887l0.253,1.496l-0.174,1.192l-0.177,1.192l-0.105,1.192l-0.283,1.192l-0.136,1.192l-0.059,1.192l-0.15,1.192l-0.17,1.192l0.105,1.192l-0.09,1.192l-0.353,1.192l-0.505,1.192l-0.066,1.192l-0.324,1.192l-0.263,1.192l-0.324,1.192l0.027,1.192l-0.164,1.192l-0.123,1.192l-0.476,1.192l-0.104,1.192l-0.096,1.192l-0.29,1.192l0.078,1.192l-0.364,1.192l-0.116,1.192l-0.147,1.192l-0.145,1.192l-0.076,1.192l-0.181,1.192l-0.13,1.192l-0.364,1.192l-0.078,1.192l1.903,1.285c-2.633,16.439 -2.78,18.031 -10.394,52.465c-1.104,-0.065 -0.53,-1.253 -1.633,-1.318c-0.093,-0.005 -0.159,-0.009 -0.522,1.192c-1.974,6.531 -1.496,6.569 -3.317,13.108c-3.506,12.591 -8.599,40.501 -29.197,49.591c-27.336,12.064 -62.409,8.164 -71.214,8.097l-1.034,0.039l-1.034,-0.007l-1.034,0.065l-1.034,0.061l-1.034,-0.105l-1.034,0.38l-1.034,0.071l-1.034,0.059l-1.034,-0.156l-1.034,0.211l-1.074,1.826c-16.198,-1.658 -100.729,-9.528 -112.698,-10.858c-10.831,-1.204 -107.052,-11.897 -135.399,-14.916c-16.9,-1.8 -114.614,-12.207 -210.977,-25.686c-0.45,-0.531 -0.546,-1.377 -0.996,-1.908c-1.808,-2.134 -32.265,-7.658 -35.094,-8.171c-20.331,-3.687 -37.18,-11.546 -40.217,-13.285c-11.864,-6.796 -19.116,-24.282 -17.827,-36.546l-0.023,-1.192l-0.104,-1.192l-0.077,-1.192l0.03,-1.192l0.243,-1.192l-0.261,-1.192l0.094,-1.192l0.075,-1.192l0.212,-1.192l-1.616,-1.328c14.956,-61.293 47.547,-234.561 72.366,-438.565Z" style="fill:#faf9f3;"/><path d="M304.957,417.295c11.848,-0.669 107.302,8.162 117.865,8.833c64.065,4.07 63.928,4.83 103.376,7.358c50.641,3.246 206.345,14.794 207.798,14.901c40.099,2.942 41.038,2.259 43.142,5.881c5.029,8.657 -40.72,328.462 -57.496,390.693c-3.072,11.395 -3.714,17.168 -8.406,17.575c-32.007,2.777 -181.641,-13.488 -207.827,-15.893c-106.902,-9.819 -274.469,-32.034 -301.887,-36.284c-62.704,-9.72 -63.479,-13.291 -64.33,-17.809c-0.954,-5.068 21.812,-101.36 41.517,-239.591c12.062,-84.616 11.996,-84.492 13.056,-91.836c6.725,-46.589 3.913,-53.826 15.988,-52.859c64.658,5.176 64.671,4.594 70.24,5.564c13.58,2.363 20.313,0.45 26.963,3.469Z" style="fill:#95c1cf;"/><path d="M302.85,166.842c1.158,0.054 12.399,0.576 14.478,0.715l-1.037,2.037l-1.034,0.287l-1.034,0.445c-6.215,3.576 -6.932,3.05 -7.045,4.983c-0.217,3.71 1.804,2.925 40.136,4.593c6.007,0.261 6.169,-0.651 9.06,1.276c0.733,12.661 1.381,12.46 3.296,25.035c0.366,2.404 -6.445,30.503 17.673,37.905c6.682,2.051 13.31,0.565 14.445,0.311c8.11,-1.817 7.745,-2.911 14.169,-8.825c1.699,-2.368 15.939,-22.206 0.894,-38.397c0.292,-0.549 1.53,0.057 1.56,-2.931c0.012,-1.172 0.147,-2.339 0.256,-3.505c1.178,-12.612 5.241,-14.364 7.918,-16.546l1.03,-1.708c15.245,1.091 15.236,0.908 16.56,1.007c-0.46,0.481 -0.569,-0.529 -1.037,-0.04c-0.845,0.883 -0.062,1.434 -1.044,2.215c-0.228,0.182 -5.802,0.025 -9.135,3.346c-5.199,5.181 2.201,4.906 48.425,7.762l0.629,0.302c0.558,12.738 0.539,12.652 3.279,25.098c0.227,1.031 -6.83,26.797 14.894,37.575c4.924,2.443 12.165,2.35 13.236,2.336c6.849,-0.088 15.99,-7.376 17.219,-8.356c11.167,-12.649 11.815,-29.941 2.199,-40.827c0.224,-0.715 1.268,-0.782 1.492,-1.496c0.138,-0.441 -0.584,-0.729 -0.649,-1.192c-0.876,-6.189 4.526,-17.586 8.691,-21.764c10.291,0.419 10.217,0.426 20.674,0.879c-0.424,0.488 -0.581,-0.442 -1.001,0.043c-0.849,0.979 -0.225,1.3 -1.048,2.319c-0.985,1.22 -2.858,0.664 -3.102,0.592c-7.936,-2.353 -12.476,2.245 -13.333,3.701c-2.419,4.113 1.84,3.337 53.657,5.759l0.725,0.116c0.717,13.282 0.515,13.239 3.152,26.275c0.264,1.305 -7.149,29.76 15.881,38.888c14.037,5.563 26.682,-4.412 28.6,-5.926c14.287,-16.089 9.039,-29.715 5.956,-37.424c0.303,-0.671 1.141,-0.872 1.444,-1.543c0.445,-0.985 -0.122,-0.838 -1.454,-2.383c-0.195,-0.227 -1.493,-1.732 -1.528,-3.582c-0.283,-14.685 7.573,-18.975 9.099,-20.251l1.198,-1.511c34.373,2.052 54.679,1.447 54.636,3.929c-0.015,0.858 -0.038,0.793 -0.513,10.708c0.5,12.126 -0.233,12.167 2.617,23.847c1.696,6.95 -0.338,6.941 -0.517,14.27c-0.194,7.983 2.712,13.095 3.073,13.999l-1.395,-0.01c-5.294,0.614 -3.914,3.603 -0.642,8.345c21.007,30.441 57.647,-0.013 49.228,-1.949c-1.72,-0.396 -1.407,1.288 -3.092,1.085c-0.59,-0.071 -0.639,-1.411 -1.229,-1.482c1.908,-2.34 17.547,-21.521 3.042,-39.977c0.353,-0.729 1.41,-0.734 1.764,-1.462c0.084,-0.173 -0.559,0.045 -0.776,-2.317c-1.223,-13.305 8.204,-20.035 9.607,-21.036l1.034,-1.115c38.559,0.221 46.713,4.174 50.453,5.988c32.09,15.557 23.682,50.219 19.998,94.76c-0.179,2.167 -5.416,46.614 -6.668,52.331c-4.119,18.8 -12.174,13.949 -52.392,11.647c-38.228,-2.188 -38.172,-2.678 -477.702,-30.713c-10.35,-0.66 -127.076,-8.105 -129.323,-9.262c-7.516,-3.868 -4.957,-30.783 -3.575,-51.415c4.404,-53.768 6.43,-90.645 45.065,-98.57c9.887,-2.028 26.858,-1.66 27.489,-0.142c0.685,1.648 -2.064,14.057 3.375,33.199c0.681,2.397 -0.425,9.792 -0.501,10.711c-0.544,6.532 2.456,12.84 2.884,14.144c-1.602,2.322 -5.995,4.326 3.199,14.009c16.971,17.872 46.962,-0.272 43.827,-6.354c-0.166,-0.321 -0.338,-0.811 -0.662,-0.822c-0.424,-0.014 -0.693,0.949 -1.087,0.765c-0.671,-0.315 -0.719,-1.612 -1.391,-1.926c1.648,-2.53 15.754,-24.175 -0.034,-39.545c1.783,-2.739 1.878,-2.667 1.926,-2.958c1.816,-10.981 1.311,-11.686 8.572,-19.044l1.267,-1.23Z" style="fill:#f7b2b2;"/><path d="M834.25,371.015c1.821,0.941 3.642,1.883 5.463,2.824c6.511,1.697 6.5,1.196 13.152,2.025c2.438,0.304 2.09,1.884 -0.974,35.305c-1.583,17.264 -16.823,183.5 -20.538,215.708c-0.053,0.46 -16.05,151.689 -26.753,210.972c-8.269,42.036 -10.634,72.227 -56.156,76.895c-39.641,4.065 -316.79,-27.955 -419.69,-39.327c-159.223,-17.596 -182.996,-25.048 -198.446,-29.891c-14.317,-4.488 -21.794,-14.002 -23.244,-15.848c2.959,-1.434 2.944,-0.242 5.63,1.751c11.608,8.613 63.397,18.153 86.721,20.989c112.045,13.624 111.894,14.889 154.054,19.232c133.325,13.733 133.186,15.235 144.779,16.407c142.865,14.447 142.865,13.721 178.899,16.242c76.319,5.34 85.363,-10.394 99.829,-84.515c12.065,-61.813 14.385,-70.613 28.942,-182.274c6.599,-4.829 7.322,-2.665 7.802,-3.192c0.142,-0.156 -1.119,0.131 -0.709,-2.713c1.471,-10.198 1.814,-10.044 3.205,-20.317c2.75,-20.309 1.214,-21.038 5.147,-26.561c-0.138,-0.235 -2.426,-5.025 -2.636,-5.463c-0.085,-0.178 -1.823,-3.814 -1.941,-1.203c-0.014,0.312 -0.093,2.059 -1.481,3.509l-0.653,0.442l-0.808,0.75l-1.56,1.15c10.164,-80.051 21.058,-210.163 21.961,-212.897Z" style="fill:#ddbfaa;"/><path d="M532.404,546.996c0.9,5.963 -0.499,5.859 -3.102,27.443c-2.144,2.203 -40.19,39.188 -46.727,43.696c-10.468,7.219 -16.954,-16.583 -32.227,-34.947c-16.758,-20.148 -27.199,-0.225 -29.168,6.884c-6.668,24.076 33.924,94.441 40.011,98.454c12.079,7.964 21.685,-0.02 64.626,-43.178c0.248,5.062 -1.133,4.847 -9.098,62.503c-3.924,28.408 -5.382,34.913 -6.051,37.897c-11.843,-1.252 -117.934,-10.159 -128.191,-11.02c-6.553,-0.55 -2.88,-4.618 1.305,-33.934c2.942,3.616 4.224,3.085 4.621,2.921c4.609,-1.906 17.51,-131.116 26.287,-149.422c5.076,-10.586 8.479,-5.992 69.104,-4.789c32.517,0.645 32.659,2.666 35.221,1.311c5.346,-2.826 5.528,-1.62 11.305,-0.502l0.376,-0.917l0.658,-1.022l1.051,-1.378Z" style="fill:#fde58b;"/><path d="M887.958,379.792c0.625,-0.134 8.389,-3.286 8.615,1.553c0.392,8.386 2.865,61.359 4.258,104.867c0.723,22.579 8.732,173.324 14.74,224.124c4.953,41.884 4.472,41.907 11.683,83.37c3.156,18.15 -4.658,26.31 -37.057,31.492c-14.872,2.379 -14.953,-0.279 -14.996,-1.667c-1.046,-34.268 1.327,-389.242 1.553,-423.089c0.09,-13.429 -0.369,-18.259 2.07,-18.737c4.578,-0.898 4.508,-0.944 9.133,-1.913Z" style="fill:#e1c9b5;"/><path d="M865.941,831.816c-0.099,11.403 2.646,27.443 -26.539,35.393c-7.57,2.062 -32.366,4.531 -31.63,0.383c1.981,-11.168 3.107,-10.849 10.116,-56.007c9.97,-64.229 34.221,-284.906 45.11,-432.612c1.739,-23.587 2.958,-24.876 4.325,-23.742c1.701,1.411 -0.46,171.992 -0.65,276.391c-0.159,87.242 -0.651,184.178 -0.732,200.193Z" style="fill:#cca992;"/><path d="M562.547,543.816c14.886,-13.532 30.586,-30.21 47.148,-16.688c7.729,6.311 6.488,18.198 6.312,19.879c-0.266,1.149 -0.129,1.079 -0.381,2.167c-0.063,0.272 -0.061,0.251 -0.819,3.388c-3.133,4.363 -14.783,20.585 -44.545,48.748c-2.666,2.523 -35.42,35.935 -40.459,40.505c-2.072,1.761 -2.046,1.648 -3.986,3.532c-42.941,43.158 -52.548,51.142 -64.626,43.178c-6.087,-4.013 -46.678,-74.378 -40.011,-98.454c1.969,-7.109 12.41,-27.032 29.168,-6.884c15.274,18.364 21.759,42.166 32.227,34.947c6.537,-4.508 44.583,-41.493 46.727,-43.696c0.652,-0.448 2.451,-1.685 7.407,-6.827c1.533,-1.492 10.784,-10.499 19.538,-18.13c2.967,-3.09 3.225,-2.6 6.3,-5.666Z" style="fill:#d44840;"/><path d="M410.686,522.052c0.583,-4.305 4.891,-36.108 7.5,-53.769c2.664,-18.033 4.103,-34.325 5.02,-35.166c1.736,-1.592 121.938,7.976 122.67,8.997c0.8,1.115 0.712,1.34 -1.639,17.982c-10.191,72.159 -8.991,72.256 -10.165,78.456c-0.307,1.618 -2.487,1.437 -2.725,1.417c-111.138,-9.262 -111.3,-6.056 -120.895,-7.585c-1.226,-0.195 -0.604,-4.168 -0.548,-4.528c0,0 0.719,-5.34 0.782,-5.804Z" style="fill:#faf9f3;"/><path d="M432.066,745.232c75.301,7.583 78.455,4.67 77.857,9.162c-0.899,6.757 -10.927,82.161 -12.075,84.311c-0.974,1.824 -1.628,0.287 -76.078,-7.115c-8.544,-0.849 -54.511,-5.974 -55.985,-6.602c-1.529,-0.651 -0.632,-1.493 7.834,-57.439c3.954,-26.128 3.839,-26.941 5.769,-27.213c2.041,-0.288 48.467,4.466 52.679,4.897Z" style="fill:#faf9f4;"/><path d="M380.364,530.856c-6.376,-0.429 -49.603,-3.338 -79.537,-8.02c-3.981,-0.623 -1.668,-3.09 1.534,-29.53c2.237,-18.476 7.695,-61.388 8.374,-66.724c0.5,-3.928 4.238,-2.69 6.604,-2.482c57.121,5.016 97.787,7.033 99.171,8.608c1.3,1.479 -4.485,34.31 -5.783,44.074c-0.571,4.292 -6.644,49.982 -7.479,53.589c-0.672,2.904 -9.472,1.568 -22.883,0.484Z" style="fill:#faf9f3;"/><path d="M358.712,535.823c17.012,1.318 18.998,1.521 20.647,1.69c9.282,0.948 22.529,-0.451 22.537,2.381c0.003,1.107 -11.281,75.766 -12.375,83.349c-0.519,3.599 -1.015,12.397 -3.933,12.416c-36.85,0.238 -74.424,-6.75 -100.342,-9.733c-3.674,-0.423 -3.029,-2.383 -0.551,-18.043c11.486,-72.58 12.021,-78.642 14.027,-78.595c4.819,0.113 4.668,1.192 59.988,6.535Z" style="fill:#faf9f3;"/><path d="M654.767,574.496c1.073,-7.142 0.986,-7.079 2.064,-14.292c0.757,-5.066 2.587,-4.107 19.304,-2.865c82.054,6.097 82.617,5.883 83.327,7.664c0.761,1.909 -7.52,56.851 -8.262,61.778c-5.441,36.1 -6.125,36.099 -6.892,36.428c-1.862,0.798 -63.665,-5.295 -69.195,-5.841c-30.703,-3.027 -30.749,-2.934 -30.985,-3.19c-1.116,-1.21 -0.448,-1.59 10.639,-79.683Z" style="fill:#c2e5f2;"/><path d="M717.44,553.409c-5.241,-0.409 -5.128,-0.362 -14.424,-0.926c-42.396,-2.572 -44.895,-1.389 -44.346,-5.452c12.899,-95.436 12.849,-95.472 13.01,-95.663c1.552,-1.849 98.259,5.925 99.54,7.479c1.793,2.174 -8.995,87.02 -10.739,97.538c-0.417,2.516 -1.692,0.325 -43.041,-2.976Z" style="fill:#faf9f3;"/><path d="M304.77,421.925c0.33,3.265 0.014,3.156 -0.236,5.787c-1.907,19.256 -11.645,93.207 -13.167,93.994c-0.988,0.511 -58.828,-5.706 -63.94,-6.255c-33.956,-3.649 -37.266,-1.097 -36.637,-6.623c1.171,-10.275 8.728,-57.602 12.245,-84.492c1.744,-13.333 6.924,-9.341 44.998,-6.806c4.061,0.27 3.978,0.979 50.686,4.61c3.054,0.237 2.945,-0.656 6.051,-0.215Z" style="fill:#c7e6f2;"/><path d="M530.438,653.174c3.619,-0.778 103.745,5.732 105.381,8.212c0.39,0.591 -13.223,91.388 -15.305,92.345c-1.632,0.75 -10.406,-1.029 -51.943,-4.032c-3.968,-0.287 -45.075,-3.258 -49.576,-3.934c-1.408,-0.211 -1.032,-0.713 -1.546,-2.172c9.296,-57.321 10.979,-83.654 12.989,-90.419Z" style="fill:#faf9f3;"/><path d="M278.238,649.541c2.368,-15.524 2.203,-15.639 2.983,-16.66c1.784,-2.335 33.047,4.338 67.109,7.343c24.87,2.194 37.349,0.869 38.117,2.215c0.747,1.31 -12.804,88.768 -14.437,90.268c-4.423,4.062 -95.089,-9.01 -103.321,-10.196c-5.083,-0.733 -1.92,-4.149 9.549,-72.97Z" style="fill:#faf9f3;"/><path d="M276.693,619.64c-0.062,0.325 -0.142,5.188 -2.799,4.916c-3.812,-0.391 -3.762,-0.756 -47.597,-5.568c-48.569,-5.332 -51.288,-3.537 -50.577,-7.615c7.674,-44.077 12.678,-83.256 13.607,-90.528c0.556,-4.353 2.835,-1.851 88.689,6.132c8.935,0.831 13.348,0.786 12.747,4.614c-4.69,29.35 -9.38,58.7 -14.07,88.05Z" style="fill:#faf9f4;"/><path d="M721.578,667.847c13.5,0.956 22.897,0.807 22.701,3.103c-0.419,4.915 -13.795,91.218 -15.367,91.887c-0.119,0.051 -99.345,-7.708 -100.465,-8.29c-1.774,-0.921 2.07,-17.859 4.228,-32.365c0.72,-4.84 8.772,-58.981 9.761,-60.339c1.699,-2.335 29.402,2.997 79.142,6.003Z" style="fill:#faf9f3;"/><path d="M616.921,784.088c-0.817,5.231 -10.091,64.598 -10.501,65.331c-0.895,1.6 -5.519,0.082 -38.841,-2.587c-5.056,-0.405 -61.026,-4.888 -63.09,-6.716c-1.75,-1.549 1.767,-15.026 4.141,-34.515c0.521,-4.277 6.28,-51.549 8.491,-53.097c1.033,-0.723 47.976,3.554 50.454,3.744c2.975,0.229 29.835,2.296 37.192,2.794c14.832,1.004 15.243,1.043 15.537,2.449c0.025,0.12 0.02,0.039 -3.384,22.596Z" style="fill:#c3e5f2;"/><path d="M665.207,454.168c-6.138,41.424 -12.3,95.354 -13.297,96.002c-2.064,1.341 -2.176,-1.817 -29.561,-2.171c-3.267,-0.042 -3.301,0.398 -6.342,-0.991c0.176,-1.681 1.417,-13.568 -6.312,-19.879c-16.562,-13.523 -32.262,3.155 -47.148,16.688c-4.281,-2.766 -4.987,-0.996 -20.916,-2.269c-3.229,-0.258 -1.652,-6.156 1.818,-30.349c7.124,6.739 4.864,-2.714 8.302,-15.57c2.674,-9.998 2.881,-44.576 14.772,-44.696c22.754,-0.23 88.551,6.908 96.142,2.785c0.885,-0.481 0.946,-0.47 1.034,-0.455c0.867,0.154 0.574,0.74 1.507,0.906Z" style="fill:#fde48b;"/><path d="M166.36,709.032c-2.01,-0.175 -7.649,-0.133 -7.385,-2.335c0.74,-6.17 2.11,-5.837 13.719,-76.239c0.702,-4.26 0.794,-10.032 2.928,-10.115c4.985,-0.194 4.888,0.877 62.093,6.441c3.641,0.354 34.801,3.689 36.017,4.178c2.156,0.867 -0.752,14.156 -6.82,49.572c-3.411,19.904 -6.999,38.925 -7.215,39.447c-1.052,2.549 -2.002,0.349 -41.602,-4.123c-38.472,-4.344 -41.274,-5.265 -51.735,-6.825Z" style="fill:#c4e5f2;"/><path d="M643.02,853.265c-6.079,-0.48 -29.127,-1.953 -29.928,-2.549c-2.196,-1.633 -0.679,-2.455 3.206,-24.819c6.09,-35.051 9.345,-62.717 10.453,-64.131c1.234,-1.576 58.617,4.975 99.971,7.299c2.459,0.138 1.163,3.624 0.722,6.68c-2.994,20.754 -12.305,68.992 -17.012,78.856c-2.254,4.724 -3.798,2.175 -67.414,-1.336Z" style="fill:#c2e4f2;"/><path d="M291.505,816.012c-5.783,-0.662 -5.747,-0.644 -6.246,-0.714c-33.131,-4.697 -34.641,-2.896 -35.158,-6.12c-0.27,-1.684 12.877,-71.386 14.046,-77.582c1.496,-7.93 8.318,2.909 103.827,7.764c7.217,0.367 3.401,4.51 2.051,12.608c-8.567,51.39 -10.711,71.159 -12.22,71.828c-2.553,1.131 -61.007,-7.043 -66.3,-7.784Z" style="fill:#faf9f3;"/><path d="M212.932,721.791c20.663,2.758 20.614,2.41 41.293,5.445c6.51,0.956 3.687,4.254 2.507,11.718c-0.861,5.445 -1.029,5.354 -12.164,67.753c-0.762,4.269 -3.119,2.797 -23.416,0.265c-4.395,-0.548 -71.752,-10.877 -77.281,-14.902c-2.481,-1.805 -0.879,-2.829 8.774,-50.904c5.015,-24.975 4.001,-26.659 6.433,-26.62c4.337,0.07 4.244,0.802 53.852,7.244Z" style="fill:#c4e5f2;"/><path d="M614.807,552.562c7.8,3.132 35.21,1.456 36.13,4.191c0.69,2.05 -9.33,67.748 -10.226,73.623c-2.778,18.213 -2.702,24.132 -5.958,23.813c-99.907,-9.779 -101.218,-5.319 -102.988,-8.505c-0.158,-0.284 -0.113,-0.679 -0.271,-0.963c-0.563,-0.968 -1.127,-1.937 -1.69,-2.905c5.039,-4.57 37.793,-37.983 40.459,-40.505c29.762,-28.163 41.411,-44.385 44.545,-48.748Z" style="fill:#faf9f3;"/><path d="M829.123,369.471c1.96,0.351 4.724,1.392 5.127,1.544c-0.903,2.735 -11.797,132.846 -21.961,212.897c-1.437,11.505 -4.378,37.382 -6.368,53.598c-14.557,111.661 -16.878,120.461 -28.942,182.274c-14.467,74.121 -23.51,89.855 -99.829,84.515c-36.034,-2.521 -36.035,-1.796 -178.899,-16.242c-11.594,-1.172 -11.455,-2.674 -144.779,-16.407c-42.16,-4.343 -42.009,-5.608 -154.054,-19.232c-23.324,-2.836 -75.113,-12.376 -86.721,-20.989c-2.687,-1.993 -2.671,-3.185 -5.63,-1.751c-0.414,-0.618 -4.702,-7.021 -4.031,-8.588c0.297,-0.694 1.251,-0.79 1.549,-1.484c19.247,16.005 48.141,20.544 89.662,26.836c96.363,13.479 194.077,23.886 210.977,25.686c28.347,3.019 124.568,13.713 135.399,14.916c11.969,1.33 96.5,9.2 112.698,10.858c64.114,6.228 75.755,-0.441 84.672,-4.54c23.909,-10.993 27.716,-45.378 32.623,-68.572c7.614,-34.433 7.762,-36.025 10.394,-52.465c17.388,-107.72 16.731,-107.793 30.667,-224.1c2.225,-18.571 7.034,-71.011 7.586,-76.214c4.849,-42.858 4.427,-42.814 8.315,-85.82c0.798,-8.398 0.952,-8.303 1.546,-16.722Z" style="fill:#ab7f68;"/><path d="M680.25,359.943c7.239,-1.254 75.206,5.318 116.86,6.711c0.163,0.005 0.147,0.04 1.982,0.542c0.253,1.103 0.594,0.964 0.49,2.135c-3.575,40.132 -1.988,41.288 -5.632,44.179c-4.263,3.382 -35.966,-1.687 -86.827,-4.707c-1.737,-0.103 -1.705,-0.153 -21.696,-1.519c-7.157,-0.489 -8.003,-0.042 -10.482,-3.219c-0.022,-3.839 0.232,-3.716 0.914,-8.439l1.281,0.365c3.196,2.229 3.59,1.892 3.854,1.665c0.425,-0.364 3.792,-13.968 4.044,-15.185c2.234,-10.784 0.458,-10.919 0.451,-10.948c-4.818,-0.555 -5.349,-1.663 -6.327,0.294c0.439,-8.322 0.423,-8.239 1.087,-11.875Z" style="fill:#7dc9ea;"/><path d="M566.802,364.198c10.223,0.656 10.143,0.032 20.377,0.628c70.445,4.105 80.95,4.821 85.233,6.648c1.183,3.037 -2.312,32.665 -4.442,33.968c-3.375,2.064 -3.548,1.307 -47.709,-2.407c-44.419,-3.736 -62.958,-3.05 -64.732,-6.512c-1.945,-3.796 -0.447,-3.969 0.874,-11.541l0.799,0.798c0.737,0.682 0.871,0.358 1.381,1.276c2.329,4.194 6.727,-16.873 8.218,-22.859Z" style="fill:#b7da7b;"/><path d="M441.449,356.27c8.143,-1.078 8.742,-1.157 102.307,6.308c4.453,0.355 4.419,0.266 8.665,2.015c-0.717,8.477 -0.81,8.354 -1.824,16.685c-1.61,13.113 -0.697,16.911 -7.862,16.585c-1.311,-0.06 -90.352,-6.867 -98.208,-7.467c-10.59,-0.81 -13.287,-0.129 -13.743,-5.451c1.898,0.805 1.96,1.043 2.042,0.866c0.414,-0.897 0.166,-2.045 0.468,-3c0.784,-2.47 2.753,-1.391 2.893,-6.236c2.334,-4.614 4.872,-16.779 5.262,-20.305Z" style="fill:#fcea5c;"/><path d="M197.658,340.038c3.254,-1.955 3.396,-1.351 7.039,-0.564c33.236,1.298 98.678,6.169 103.967,7.592c0.707,2.015 1.206,3.435 -2.081,27.071c-0.869,6.247 -2.35,5.807 -7.826,5.469c-3.738,-0.231 -74.338,-6.406 -98.248,-8.168c-12.553,-0.925 -6.656,-7.771 -5.558,-12.756c0.323,-1.466 2.543,-11.542 2.707,-18.644Z" style="fill:#f7736f;"/><path d="M322.515,347.938c5.357,-0.385 94.636,5.48 100.191,6.545c2.534,-0.213 2.476,-0.113 4.878,0.819c0.543,4.504 -1.899,32.409 -5.802,33.37c-3.131,0.77 -41.284,-3.39 -79.654,-5.86c-27.846,-1.793 -28.211,-1.77 -29.688,-3.936c-1.169,-1.713 1.319,-12.698 1.378,-13.036c0.643,0.644 0.779,1.803 1.422,2.447c2.657,2.663 9.207,-15.688 7.276,-20.348Z" style="fill:#fdec59;"/><path d="M313.527,115.124l-0.964,1.708l0.845,1.192c3.684,13.968 -9.352,2.461 -24.68,17.192c-4.149,3.988 -2.536,8.465 -2.282,9.17c-19.697,31.289 -5.39,53.421 -1.082,56.904c9.668,7.819 1.589,21.918 -6.271,23.019c-19.423,2.721 -26.452,-27.683 -27.242,-31.099c-8.8,-57.248 25.861,-101.549 61.677,-78.086Z" style="fill:#f3b54f;"/><path d="M835.962,353.76c0.805,-3.289 15.595,-103.029 11.349,-125.996c-5.539,-29.962 -23.677,-29.019 -20.165,-32.121c0.514,-0.454 16.587,5.655 19.292,7.529c30.365,21.028 19.676,57.416 16.01,117.445c-2.447,40.072 -4.097,51.614 -16.668,47.22c-4.323,-1.511 -9.869,-5.539 -11.08,-7.12c-2.119,-2.768 -0.23,-2.987 1.262,-6.956Z" style="fill:#c46f62;"/><path d="M311.262,335.719c3.84,-0.154 3.985,0.188 5.486,2.878c-0.214,2.703 -0.429,5.407 -0.643,8.11c-1.492,12.245 -1.52,12.191 -2.287,19.131c-0.059,0.338 -2.547,11.323 -1.378,13.036c1.478,2.166 1.843,2.143 29.688,3.936c38.37,2.471 76.522,6.631 79.654,5.86c3.903,-0.96 6.345,-28.866 5.802,-33.37c3.178,-5.235 2.641,-5.582 2.407,-11.902c3.164,-0.072 3.05,-0 6.25,0.388c-0.062,0.31 -0.432,0.115 -1.131,7.781c-0.314,3.442 0.251,3.351 0.319,3.876c-0.973,1.553 -0.864,1.658 -3.805,23.543c-0.28,1.986 -0.56,3.972 -0.841,5.958c0.457,5.322 3.154,4.642 13.743,5.451c7.856,0.601 96.897,7.408 98.208,7.467c7.165,0.325 6.252,-3.472 7.862,-16.585l1.485,1.288l0.727,1.192l-0.308,1.192l-0.265,1.192c0.298,0.794 0.597,1.589 0.895,2.383l0.137,1.192l0.202,1.192l0.07,1.192c-0.279,0.881 -1.082,1.456 -1.36,2.337c-0.153,0.484 1.813,2.972 1.224,4.816c-0.085,0.266 -0.098,0.237 -1.323,3.202c-9.731,3.636 -10.311,0.697 -56.921,-1.839c-24.959,-1.358 -57.081,-4.343 -62.039,-4.804c-4.371,-0.406 -4.237,-3.32 -8.31,-1.462c-2.042,0.931 -2.148,0.402 -53.723,-3.345c-55.446,-4.028 -55.541,-3.851 -59.986,-5.989c-1.372,-0.66 -1.471,1.218 -18.583,-0.198c-5.093,-0.421 -60.373,-4.651 -72.38,-5.892c-22.453,-2.322 -30.581,-0.159 -32.696,-9.569c-0.544,-2.421 1.846,-14.933 3.697,-27.312l1.079,-0.532c1.996,-1.385 2.045,-1.118 4.298,-1.49l1.144,0.016c-0.164,7.101 -2.384,17.178 -2.707,18.644c-1.098,4.985 -6.996,11.831 5.558,12.756c23.91,1.762 94.51,7.937 98.248,8.168c5.476,0.338 6.957,0.778 7.826,-5.469c3.287,-23.636 2.789,-25.055 2.081,-27.071c0.481,-0.757 3.772,-5.937 2.598,-11.347Z" style="fill:#ca733a;"/><path d="M894.62,308.674c2.155,59.546 1.426,60.555 -1.665,62.649c-0.801,0.543 -14.208,6.756 -15.708,0.675c-2.183,-8.847 2.415,-117.196 -2.925,-139.474c-5.854,-24.426 -15.438,-22.274 -12.037,-24.987c0.835,-0.666 27.814,11.636 29.944,43.948c0.971,14.724 2.1,49.749 2.391,57.189Z" style="fill:#c26d60;"/><path d="M661.901,133.028c17.411,13.083 17.759,39.253 17.775,39.825c0.122,4.4 -7.005,2.528 -14.887,1.989c0.633,-1.854 0.718,-1.835 0.684,-2.003c-0.102,-0.5 -0.862,-0.501 -1.035,-0.974c-0.533,-1.452 1.581,-9.949 -11.139,-14.232c-1.872,-0.63 -2.322,1.252 -2.375,1.28c-5.555,-6.399 -11.727,-1.301 -15.705,2.53c-17.153,23.986 -13.42,50.54 -0.344,60.044c3.446,2.505 2.557,13.167 -1.325,17.9c-7.911,9.647 -42.768,5.835 -34.329,-63.05c1.646,1.928 2.354,1.611 2.012,3.677c-1.358,8.204 -1.478,8.341 0.776,14.947c3.695,4.624 12.039,5.905 13.757,-5.516c2.744,-18.242 5.974,-35.465 23.938,-44.597l1.203,0.427c8.892,-0.75 8.791,-2.095 17.633,-1.408c2.233,0.174 2.786,-1.824 2.868,-2.123c0.996,-3.602 0.743,-3.691 -0.7,-7.036l1.193,-1.679Z" style="fill:#e79f43;"/><path d="M776.699,137.802c1.106,0.756 7.121,4.866 11.697,12.705c7.415,12.704 8.347,27.833 8.29,29.479c-0.129,3.711 -7.149,2.05 -12.085,1.68c-7.139,-0.589 -9.896,2.88 -11.546,-5.18c-0.24,-1.174 -4.304,-12.328 -6.863,-13.553c-19.946,-9.55 -34.619,48.772 -17.444,63.144c10.181,8.519 3.222,23.215 -6.472,24.187c-18.838,1.888 -25.714,-27.697 -26.497,-31.063c0.103,-0.17 1.077,-3.337 1.889,-1.08c2.732,7.593 14.285,12.497 18.574,3.694c5.113,-10.494 -4.55,-20.549 -5.722,-21.769c5.127,-15.87 3.127,-24.192 15.46,-40.79c1.129,-0.247 0.329,1.708 1.468,1.458c0.223,-0.049 0.186,-0.127 2.068,-2.233c4.211,-4.712 3.971,-5.053 9.362,-7.934c16.5,-3.793 17.044,-2.123 17.91,-3.468c1.193,-1.854 -0.358,-5.942 -0.537,-6.415l-0.653,-1.192l1.1,-1.67Z" style="fill:#e49940;"/><path d="M545.069,127.126c4.898,4.216 8.366,6.865 13.533,19.297c0.672,1.616 6.061,14.582 4.249,21.857c-0.653,2.623 -21.827,0.499 -22.435,-1.232c-4.518,-12.87 -5.9,-12.061 -6.123,-13.233c-1.822,-9.611 -17.088,-5.362 -24.226,16.832c-9.8,30.47 5.107,42.146 7.694,44.172c6.127,4.798 1.084,26.486 -14.293,22.156c-16.289,-4.587 -19.776,-24.763 -21.289,-30.885c3.94,2.02 8.385,9.32 13.953,8.052c10.702,-2.437 5.767,-13.612 3.443,-30.566c-1.158,-8.447 6.611,-25.221 10.452,-30.627c11.924,-16.782 20.578,-16.774 30.683,-15.053c3.522,0.6 6.649,-2.41 2.59,-9.146l1.768,-1.622Z" style="fill:#e69d43;"/><path d="M532.404,546.996l-1.051,1.378l-0.658,1.022l-0.376,0.917c-5.777,-1.119 -5.959,-2.325 -11.305,0.502c-2.562,1.355 -2.704,-0.667 -35.221,-1.311c-60.625,-1.202 -64.028,-5.797 -69.104,4.789c-8.777,18.306 -21.678,147.516 -26.287,149.422c-0.397,0.164 -1.679,0.694 -4.621,-2.921c4.493,-23.857 23.151,-160.313 24.782,-161.735c2.825,-2.464 105.391,5.596 114.544,6.315c4.791,0.376 4.691,0.367 9.297,1.622Z" style="fill:#fcedab;"/><path d="M545.069,127.126l-1.768,1.622c4.059,6.736 0.932,9.746 -2.59,9.146c-10.105,-1.721 -18.759,-1.729 -30.683,15.053c-3.841,5.406 -11.61,22.181 -10.452,30.627c2.324,16.954 7.26,28.129 -3.443,30.566c-5.567,1.268 -10.013,-6.032 -13.953,-8.052c-4.424,-31.121 2.717,-48.897 9.396,-62.204c0.349,0.793 1.539,0.753 1.888,1.546c0.052,0.117 -3.078,6.582 -3.353,7.15l-0.575,1.192l-0.39,1.192l-0.472,1.192l-0.353,1.192l-0.521,1.192l-0.282,1.192l-0.338,1.192l-0.426,1.192l-0.321,1.192l-0.295,1.192l-0.427,1.192l-0.267,1.192l-0.1,1.192c-0.47,2.122 -0.431,3.286 -0.421,3.574c0.434,12.973 3.347,-0.767 3.412,-1.085c5.453,-26.418 22.462,-32.089 28.183,-38.671c3.018,-3.472 8.518,-1.59 6.328,-5.373c-2.431,-4.201 -9.344,-1.253 -10.104,-0.929l-1.034,0.221l-1.034,0.336l-1.034,0.54l-1.034,0.455l-1.034,0.788l-1.055,0.821l-1.4,1.192c-3.916,3.342 -8.278,9.552 -8.918,10.465c-1.27,1.809 -0.775,2.282 -1.793,2.643c-1.203,0.427 -0.436,-1.852 -1.614,-1.434c0.78,-1.179 6.275,-9.49 10.967,-13.558c20.18,-17.496 38.578,-3.072 41.311,-0.93Z" style="fill:#fac45a;"/><path d="M390.92,147.949c0.147,0.18 1.84,2.249 1.84,2.249c0.463,0.954 1.778,2.089 9.478,-8.214c4.105,-5.492 15.028,-9.936 21.425,-6.699c13.616,6.891 13.259,19.258 13.447,26.829l0.123,1.598c-3.923,-0.496 -8.505,-0.837 -9.245,-0.892c-5.685,-0.424 -4.386,-2.723 -4.955,-5.564c-0.064,-0.319 -4.503,-11.542 -4.537,-11.579c-9.697,-10.582 -28.905,14.549 -26.9,40.291c1.711,21.955 11.547,21.38 12.432,25.052c5.286,21.912 -27.782,33.886 -37.085,-10.77c0.651,0.341 1.494,-0.344 2.146,-0.003c0.521,0.273 0.596,1.131 0.967,1.633c2.415,3.267 10.855,9.845 16.189,2.798c3.847,-5.082 -1.01,-16.333 -1.557,-17.6c-2.941,-6.814 -0.788,-24.168 6.231,-39.128Z" style="fill:#e59a40;"/><path d="M776.699,137.802l-1.1,1.67l0.653,1.192c0.179,0.472 1.729,4.561 0.537,6.415c-0.865,1.345 -1.41,-0.325 -17.91,3.468c-0.004,-0.002 -0.141,-2.311 -2.059,-1.31c-6.459,3.371 -6.396,3.624 -10.839,10.019c-12.333,16.599 -10.333,24.92 -15.46,40.79c-0.684,0.718 -5.089,5.344 -11.009,4.096c-3.81,-0.803 -2.288,-13.999 -2.609,-14.621c-0.375,-0.727 -1.531,-0.542 -1.906,-1.269c4.986,-26.246 9.424,-35.306 23.028,-47.77c17.511,-16.043 35.954,-4.396 38.672,-2.68Z" style="fill:#fccf64;"/><path d="M424.036,117.514c0.019,2.252 -0.562,2.526 0.962,4.085c2.877,2.941 0.66,3.351 -0.142,4.698l-1.034,0.535c-0.31,0.175 -0.724,-0.253 -1.034,-0.078c-0.43,0.242 -0.535,1.006 -0.979,1.212c-0.292,0.135 -0.473,-1.287 -8.453,-0.909c-0.804,0.038 -9.82,4.514 -12.101,6.696c-0.99,0.947 -6.034,5.769 -10.335,14.197c-7.018,14.96 -9.172,32.314 -6.231,39.128c0.547,1.267 5.403,12.519 1.557,17.6c-5.334,7.047 -13.774,0.468 -16.189,-2.798c-0.371,-0.502 -0.447,-1.36 -0.967,-1.633c-0.651,-0.341 -1.494,0.344 -2.146,0.003c-0.932,-5.379 -6.935,-40.046 11.947,-67.17c-0.064,0.858 1.805,0.769 1.74,1.627c-0.096,1.282 -1.337,0.487 -5.52,10.664c-0.758,1.844 -8.65,21.045 -5.671,24.651c2.964,3.588 2.769,-8.415 8.089,-19.671c7.209,-15.251 28.303,-26.441 28.851,-27.429c3.729,-6.725 -11.749,-4.136 -15.898,0.642c-3.331,3.836 -3.524,0.603 -3.922,0.359c3.021,-2.381 8.249,-7.746 17.639,-9.299c11.351,-1.878 18.693,2.285 19.836,2.891Z" style="fill:#fbc75c;"/><path d="M436.241,343.787c50.446,3.723 113.976,6.787 117.585,8.242c-0.467,5.61 -0.099,5.552 -1.404,12.564c-4.246,-1.749 -4.212,-1.66 -8.665,-2.015c-93.565,-7.465 -94.164,-7.386 -102.307,-6.308c-3.01,-0.658 -2.917,-0.7 -6.02,-0.826c-0.068,-0.525 -0.633,-0.434 -0.319,-3.876c0.699,-7.666 1.068,-7.472 1.131,-7.781Z" style="fill:#c8b53b;"/><path d="M559.364,352.062c3.191,-0.138 112.042,6.518 115.933,7.456c-1.599,9.474 -1.372,9.61 -2.885,11.956c-4.283,-1.827 -14.789,-2.543 -85.233,-6.648c-10.234,-0.596 -10.154,0.028 -20.377,-0.628c-3.661,-1.237 -3.635,-0.56 -7.558,-0.732c-0.038,-0.289 0.461,-0.441 0.422,-0.731c-0.085,-0.65 -0.591,-1.141 -0.751,-1.771c-0.174,-0.685 0.844,-0.579 0.449,-8.901Z" style="fill:#8eb148;"/><path d="M316.748,338.597c0.866,-2.576 1.277,-2.394 3.669,-2.258c23.942,1.364 100.809,6.477 109.574,7.06c0.233,6.32 0.771,6.668 -2.407,11.902c-2.401,-0.932 -2.344,-1.032 -4.878,-0.819c-5.555,-1.065 -94.834,-6.93 -100.191,-6.545c-3.282,-0.532 -3.229,-0.397 -6.41,-1.23c0.214,-2.703 0.429,-5.407 0.643,-8.11Z" style="fill:#efb13e;"/><path d="M665.207,454.168c-0.934,-0.166 -0.64,-0.752 -1.507,-0.906c-0.087,-0.016 -0.148,-0.026 -1.034,0.455c-7.591,4.123 -73.388,-3.014 -96.142,-2.785c-11.891,0.12 -12.098,34.698 -14.772,44.696c-3.439,12.856 -1.178,22.309 -8.302,15.57c6.178,-40.44 7.662,-67.959 10.705,-68.808c4.744,-1.324 4.822,-1.223 60.943,3.474c3.722,0.311 38.866,3.253 46.532,3.741c3.394,0.216 4.107,0.72 3.578,4.564Z" style="fill:#fcf2bf;"/><path d="M553.825,352.029c2.346,-0.469 5.099,-0.036 5.538,0.033c0.396,8.322 -0.623,8.217 -0.449,8.901c0.16,0.631 0.666,1.121 0.751,1.771c0.038,0.289 -0.461,0.441 -0.422,0.731c-2.443,3.885 -0.504,4.506 -2.84,21.516c-1.321,7.572 -2.819,7.745 -0.874,11.541c1.774,3.461 20.313,2.776 64.732,6.512c44.161,3.714 44.334,4.471 47.709,2.407c2.13,-1.303 5.625,-30.93 4.442,-33.968c1.513,-2.346 1.286,-2.483 2.885,-11.956c2.164,-0.267 2,0.432 4.164,0.884c0.29,0.061 0.499,-0.52 0.789,-0.459c-0.663,3.637 -0.648,3.554 -1.087,11.875c-1.974,11.857 -1.243,11.895 -3.304,23.808c-0.682,4.723 -0.936,4.6 -0.914,8.439c-2.113,3.131 -1.676,3.401 -1.012,7.278c-4.191,-0.262 -4.002,1.391 -8.17,1.237c-3.685,-0.135 -93.598,-6.745 -106.481,-7.615c-3.881,-0.262 -3.702,-0.695 -7.204,-2.511c1.225,-2.965 1.238,-2.936 1.323,-3.202c0.589,-1.844 -1.377,-4.331 -1.224,-4.816c0.279,-0.881 1.082,-1.456 1.36,-2.337l-0.07,-1.192l-0.202,-1.192l-0.137,-1.192c-0.298,-0.794 -0.597,-1.589 -0.895,-2.383l0.265,-1.192l0.308,-1.192l-0.727,-1.192l-1.485,-1.288c1.015,-8.331 1.108,-8.208 1.824,-16.685c1.305,-7.012 0.937,-6.955 1.404,-12.564Z" style="fill:#7f9542;"/><path d="M632.665,132.398c-3.816,-0.074 -3.802,-0.176 -4.122,-0.08c-1.201,0.361 -0.796,1.037 -2.066,1.419l-1.034,0.717l-1.034,0.846l-0.868,0.599c-14.056,11.039 -11.13,16.057 -14.126,17.875c-0.686,0.416 -1.26,-1.883 -1.946,-1.467c23.023,-42.168 50.398,-21.758 54.431,-19.278l-1.193,1.679c1.443,3.345 1.696,3.434 0.7,7.036c-0.083,0.299 -0.635,2.297 -2.868,2.123c-8.843,-0.687 -8.741,0.658 -17.633,1.408c-0.401,-0.142 -0.802,-0.285 -1.203,-0.427c-17.965,9.132 -21.195,26.355 -23.938,44.597c-1.718,11.421 -10.062,10.141 -13.757,5.516c1.023,-1.443 1.489,-1.231 1.338,-3.034c-0.47,-5.621 -0.561,-6.482 3.858,-22.535c6.035,-21.923 26.674,-25.787 27.297,-34.676c3.967,-1.851 2.389,-3.15 2.145,-3.325c-0.042,-0.03 -0.005,-0.015 -2.932,-0.357l-1.05,1.366Z" style="fill:#fbc95d;"/><path d="M198.452,328.008c15.185,0.495 83.71,6.068 108.514,7.35c2.216,0.115 2.099,0.176 4.296,0.361c1.174,5.41 -2.117,10.59 -2.598,11.347c-5.289,-1.423 -70.731,-6.294 -103.967,-7.592c-3.643,-0.788 -3.785,-1.391 -7.039,0.564l-1.144,-0.016c0.764,-3.533 0.795,-4.724 0.806,-5.142c0.095,-3.667 -0.983,-4.052 1.133,-6.872Z" style="fill:#cc3c3a;"/><path d="M976.978,450.517c0.438,0.312 6.039,4.311 0.141,7.415c-5.824,3.066 -13.747,-0.614 -18.335,15.363c-6.02,20.962 -9.505,-3.046 -11.188,-7.079c-5.474,-13.12 -20.11,-6.595 -17.325,-15.809c2.403,-7.95 15.806,3.209 20.652,-17.857c3.573,-15.531 11.503,-10.751 11.499,-3.507c-0.008,12.771 -0.506,15.826 14.556,21.475Z" style="fill:#24a5d9;"/><path d="M799.093,367.196c4.647,0.442 5.841,0.952 6.321,1.157c-0.514,5.448 -0.638,5.312 -0.972,10.665c-3.36,36.943 -4.494,37.98 -6.71,40.005c-3.392,3.101 -3.824,3.043 -45.148,-0.23c-66.459,-5.264 -74.587,-4.064 -78.651,-7.449c-0.664,-3.877 -1.1,-4.147 1.012,-7.278c2.479,3.177 3.325,2.73 10.482,3.219c19.991,1.366 19.96,1.416 21.696,1.519c50.86,3.02 82.564,8.089 86.827,4.707c3.644,-2.891 2.057,-4.047 5.632,-44.179c0.104,-1.172 -0.237,-1.032 -0.49,-2.135Z" style="fill:#2c769e;"/><path d="M819.262,472.013c-0.551,5.203 -5.361,57.643 -7.586,76.214c-13.937,116.307 -13.28,116.38 -30.667,224.1l-1.903,-1.285l0.078,-1.192l0.364,-1.192l0.13,-1.192l0.181,-1.192l0.076,-1.192l0.145,-1.192l0.147,-1.192l0.116,-1.192l0.364,-1.192l-0.078,-1.192l0.29,-1.192l0.096,-1.192l0.104,-1.192l0.476,-1.192l0.123,-1.192l0.164,-1.192l-0.027,-1.192l0.324,-1.192l0.263,-1.192l0.324,-1.192l0.066,-1.192l0.505,-1.192l0.353,-1.192l0.09,-1.192l-0.105,-1.192l0.17,-1.192l0.15,-1.192l0.059,-1.192l0.136,-1.192l0.283,-1.192l0.105,-1.192l0.177,-1.192l0.174,-1.192l-0.253,-1.496l0.533,-0.887l-0.37,-1.192l0.724,-1.192l0.123,-1.192l0.222,-1.192l0.144,-1.192l0.055,-1.192l0.083,-1.192l0.084,-1.192l0.143,-1.192l0.306,-1.192l0.218,-1.192l0.179,-1.192l0.073,-1.192l0.121,-1.192l0.079,-1.192l0.131,-1.192l0.137,-1.192l0.28,-1.192l0.159,-1.192c0.254,-1.069 0.211,-1.058 3.369,-22.641c0.395,-2.209 0.403,-2.193 0.427,-2.385c4.285,-34.033 4.628,-33.957 4.792,-36.939l0.168,-1.192l0.153,-1.192l0.094,-1.192c1.263,-9.505 8.414,-76.182 8.419,-76.241c0.244,-2.88 1.143,-2.705 4.611,-35.773l0.103,-1.192l0.143,-1.192l0.174,-1.192l0.164,-1.192l0.028,-1.192l0.122,-1.192l0.078,-1.192c0.891,-4.132 0.907,-4.022 1.146,-8.341l0.055,-1.192l0.087,-1.192l0.073,-1.192l0.172,-1.192c0.508,-11.398 1.582,-11.701 1.566,-15.491l0.153,-1.192l0.069,-1.192l0.069,-1.192l0.104,-1.192l0.14,-1.192l0.167,-1.192l0.12,-1.192l0.055,-1.192l0.164,-1.192l0.059,-1.192l0.172,-1.192l0.104,-1.192l0.149,-1.192l0.185,-1.192l0.203,-1.192l0.105,-1.192l0.181,-1.192l1.01,-1.192l2.01,1.264Z" style="fill:#f7e6d5;"/><path d="M483.573,624.145c17.113,-12.023 89.907,-90.333 106.815,-95.77c5.546,-1.784 9.677,1.887 4.914,3.892c-19.272,8.115 -91.815,85.412 -110.498,94.692c-2.607,1.295 -0.603,-1.055 -0.556,-1.298l-0.675,-1.516Z" style="fill:#f9907f;"/><path d="M313.527,115.124c2.947,2.134 16.677,11.881 18.37,39.838c0.28,4.625 -5.674,2.827 -10.475,2.597c-0.706,-2.04 -0.416,-2.29 -2.029,-3.323c-4.531,-2.902 -3.757,-13.997 -15.807,-14.366c-8.527,-6.065 -15.489,2.812 -17.14,4.516c-0.254,-0.705 -1.867,-5.182 2.282,-9.17c15.328,-14.731 28.364,-3.224 24.68,-17.192l-0.845,-1.192l0.964,-1.708Z" style="fill:#e0933d;"/><path d="M74.61,339.872c1.886,-4.603 1.875,-4.543 2.304,-9.654c0.199,-2.373 0.449,-3.46 1.548,-3.401c5.192,0.278 -4.896,15.301 21.904,27.997c-0.238,0.836 0.944,1.674 0.706,2.51c-0.572,2.012 -10.244,2.021 -14.675,19.179c-0.531,2.058 -0.156,2.146 -0.226,2.611c-0.212,1.391 0.405,1.138 0.85,2.387c-0.694,1.825 -0.639,1.731 -1.128,3.531c-0.542,-0.695 -1.457,-0.902 -1.999,-1.596c-1.601,-2.051 -1.463,-9.69 -19.807,-21.754c16.025,-16.879 10.691,-20.907 10.523,-21.81Z" style="fill:#fde77b;"/><path d="M810.271,662.617c-4.261,49.735 -21.427,149.604 -22.259,156.131c-3.018,23.68 -13.845,53.104 -13.939,53.168c-0.341,0.229 -2.632,0.7 -0.927,-5.584c12.265,-45.192 8.88,-46.079 21.495,-114.444c11.953,-64.777 9.73,-65.112 11.574,-76.216c1.937,-11.669 1.392,-13.057 4.056,-13.055Z" style="fill:#c0977f;"/><path d="M424.036,117.514c3.2,1.852 22.092,12.787 22.495,44.599c0.033,2.591 -3.272,1.939 -9.297,1.6l-0.123,-1.598c-0.188,-7.571 0.169,-19.938 -13.447,-26.829c-6.397,-3.237 -17.321,1.207 -21.425,6.699c-7.7,10.303 -9.015,9.168 -9.478,8.214c0,-0 -1.693,-2.069 -1.84,-2.249c4.301,-8.429 9.344,-13.251 10.335,-14.197c2.282,-2.181 11.297,-6.657 12.101,-6.696c7.98,-0.378 8.162,1.044 8.453,0.909c0.445,-0.205 0.549,-0.969 0.979,-1.212c0.31,-0.175 0.724,0.253 1.034,0.078l1.034,-0.535c0.801,-1.348 3.019,-1.758 0.142,-4.698c-1.524,-1.558 -0.943,-1.832 -0.962,-4.085Z" style="fill:#efab4b;"/><path d="M770.615,824.791c-4.907,23.194 -8.714,57.58 -32.623,68.572c-8.916,4.099 -20.557,10.768 -84.672,4.54l1.074,-1.826l1.034,-0.211l1.034,0.156l1.034,-0.059l1.034,-0.071l1.034,-0.38l1.034,0.105l1.034,-0.061l1.034,-0.065l1.034,0.007l1.034,-0.039c8.804,0.068 43.877,3.967 71.214,-8.097c20.598,-9.09 25.691,-37 29.197,-49.591c1.821,-6.539 1.343,-6.577 3.317,-13.108c0.363,-1.201 0.429,-1.197 0.522,-1.192c1.103,0.065 0.529,1.253 1.633,1.318Z" style="fill:#f2dcc8;"/><path d="M117.473,354.291c2.09,5.11 -0.262,4.959 -4.681,7.323c-27.041,14.468 -22.434,35.556 -25.367,40.979c-4.853,8.972 -9.352,-9.97 -11.506,-13.691c-13.69,-23.649 -27.932,-15.764 -31.721,-22.963c5.076,-1.91 5.108,-1.737 10.488,-1.193c25.627,6.215 25.06,23.857 29.053,25.913c2.13,1.096 1.236,-0.98 2.154,-5.627c0.489,-1.8 0.433,-1.706 1.128,-3.531c5.034,-7.814 3.476,-9.088 9.218,-15.406c0.869,-0.956 2.395,-2.635 12.548,-9.505c2.576,-1.028 2.547,-1.084 2.782,-1.111c0.388,-0.044 0.646,0.676 1.034,0.632l1.034,-0.233l1.034,-0.579l1.034,0.525l0.727,-0.666l1.042,-0.868Z" style="fill:#f89c45;"/><path d="M74.61,339.872c-4.3,10.921 -5.746,15.114 -14.95,19.829l-1.466,0.694c-3.201,1.939 -3.143,1.988 -3.434,1.979c-0.425,-0.014 -1.089,-0.763 -1.246,-0.308c-0.077,0.223 0.085,0.194 1.174,2.681c-5.381,-0.543 -5.412,-0.716 -10.488,1.193c0.105,-9.851 13.383,-3.475 23.503,-24.158c5.565,-11.372 6.41,-39.6 14.322,-19.029c12.359,32.134 29.093,27.075 35.45,31.539l-1.042,0.868l-0.727,0.666l-1.034,-0.525l-1.034,0.579l-1.034,0.233c-0.388,0.044 -0.646,-0.676 -1.034,-0.632c-0.234,0.026 -0.206,0.082 -2.782,1.111c-3.149,-1.819 -3.111,-2.79 -6.457,-1.601c-0,0 -1.807,-0.161 -1.964,-0.175c-26.8,-12.696 -16.712,-27.719 -21.904,-27.997c-1.099,-0.059 -1.349,1.028 -1.548,3.401c-0.429,5.111 -0.419,5.052 -2.304,9.654Z" style="fill:#fdb84b;"/><path d="M529.804,641.815c0.563,0.968 1.127,1.937 1.69,2.905c-4.099,5.362 -1.256,7.73 -1.055,8.454c-2.01,6.765 -3.693,33.098 -12.989,90.419c-0.161,0.191 0.608,1.746 -1.38,1.639c-0.1,-0.005 -0.287,0.446 -1.294,0.487c-1.368,0.054 -2.739,-0.026 -4.108,0.028c0.669,-2.985 2.127,-9.489 6.051,-37.897c7.964,-57.655 9.346,-57.441 9.098,-62.503c1.94,-1.884 1.914,-1.771 3.986,-3.532Z" style="fill:#b9b282;"/><path d="M98.684,774.48l1.616,1.328l-0.212,1.192l-0.075,1.192l-0.094,1.192l0.261,1.192l-0.243,1.192l-0.03,1.192l0.077,1.192l0.104,1.192l0.023,1.192c-1.289,12.264 5.963,29.751 17.827,36.546c3.036,1.739 19.886,9.598 40.217,13.285c2.829,0.513 33.287,6.037 35.094,8.171c0.45,0.531 0.546,1.377 0.996,1.908c-41.521,-6.292 -70.416,-10.831 -89.662,-26.836c-12.758,-11.618 -7.603,-36.292 -5.899,-45.126Z" style="fill:#f5e1cf;"/><path d="M553.048,179.361c1.248,0.049 34.172,1.573 35.142,1.918c0.542,0.193 1.089,0.305 0.756,10.613l-0.725,-0.116c-51.817,-2.422 -56.076,-1.647 -53.657,-5.759c0.856,-1.456 5.396,-6.054 13.333,-3.701c0.244,0.072 2.117,0.628 3.102,-0.592c0.823,-1.019 0.199,-1.34 1.048,-2.319c0.421,-0.485 0.578,0.445 1.001,-0.043Z" style="fill:#fbccc8;"/><path d="M434.174,173.523c37.038,1.8 38.375,1.426 38.293,4.08c-0.024,0.761 -0.034,0.704 -0.455,9.505l-0.629,-0.302c-46.224,-2.856 -53.624,-2.581 -48.425,-7.762c3.332,-3.321 8.906,-3.164 9.135,-3.346c0.982,-0.781 0.199,-1.332 1.044,-2.215c0.468,-0.489 0.576,0.521 1.037,0.04Z" style="fill:#fad4ce;"/><path d="M317.328,167.558c3.458,0.116 36.285,1.538 38.179,1.993c1.404,0.337 0.983,0.966 0.867,11.627c-2.891,-1.927 -3.053,-1.015 -9.06,-1.276c-38.332,-1.668 -40.353,-0.882 -40.136,-4.593c0.113,-1.933 0.83,-1.407 7.045,-4.983l1.034,-0.445l1.034,-0.287l1.037,-2.037Z" style="fill:#fbcfcb;"/><path d="M941.276,579.102c-1.699,-8.163 -2.951,-7.649 -9.857,-10.393c-0.511,-0.203 -6.406,-4.31 3.258,-6.821c13.403,-3.483 6.632,-13.779 12.311,-14.956c6.651,-1.378 -1.093,11.754 10.479,17.505c11.138,5.536 -1.792,6.383 -6.433,9.799c-3.835,2.823 -6.927,18.555 -9.758,4.866Z" style="fill:#fdad45;"/><path d="M714.999,188.253c0.375,0.727 1.531,0.542 1.906,1.269c0.32,0.622 -1.201,13.818 2.609,14.621c5.92,1.248 10.325,-3.378 11.009,-4.096c1.172,1.219 10.835,11.275 5.722,21.769c-4.289,8.803 -15.842,3.899 -18.574,-3.694c-0.812,-2.257 -1.786,0.911 -1.889,1.08c-1.841,-13.114 -2.371,-13.135 -0.782,-30.949Z" style="fill:#fabe55;"/><path d="M632.665,132.398c0.612,0.772 1.225,1.545 1.837,2.317c-0.624,8.889 -21.262,12.753 -27.297,34.676c-4.419,16.053 -4.328,16.914 -3.858,22.535c0.151,1.804 -0.315,1.591 -1.338,3.034c-2.254,-6.606 -2.134,-6.743 -0.776,-14.947c0.342,-2.066 -0.366,-1.749 -2.012,-3.677c0.84,-4.109 1.674,-10.467 8.25,-24.031c0.686,-0.416 1.26,1.883 1.946,1.467c2.995,-1.818 0.07,-6.835 14.126,-17.875l0.868,-0.599l1.034,-0.846l1.034,-0.717c1.27,-0.382 0.865,-1.058 2.066,-1.419c0.319,-0.096 0.305,0.006 4.122,0.08Z" style="fill:#fcecbb;"/><path d="M110.255,415.332c-7.004,-5.5 5.543,-3.605 7.652,-13.66c1.077,-5.133 -0.521,-7.554 3.995,-7.618c5.004,-0.071 0.932,9.775 10.362,13.46c3.938,1.539 5.588,3.59 1.921,5.718c-6.433,3.734 -6.78,4.012 -8.372,12.156c-0.719,3.679 -3.601,2.688 -4.497,0.927c-2.499,-4.911 -1.574,-5.873 -5.843,-8.744c-1.803,-1.212 -1.944,-0.516 -5.217,-2.241Z" style="fill:#a26e8a;"/><path d="M971.795,453.977c-9.113,0.332 -9.245,0.844 -13.158,5.169c-3.342,3.694 -3.212,8.228 -3.566,9.015c-0.128,0.285 -0.698,-0.145 -0.827,0.14l-0.888,-0.069c-1.043,-4.169 0.561,-5.813 -10.697,-14.922c-0.373,-0.302 -5.436,-1.332 -4.632,-2.763c1.025,-1.826 13.158,-0.493 16.258,-14.338c1.374,-6.134 0.991,-6.406 2.005,-7.204c4.431,-3.49 -2.156,16.822 12.686,22.45c0.428,0.162 0.971,-0.819 2.819,2.524Z" style="fill:#adebf6;"/><path d="M710.589,251.188c0.905,1.292 6.405,13.501 23.424,14.39c3.687,0.193 5.794,-0.406 6.283,-0.545c8.961,-2.547 10.739,-5.773 13.162,-7.856c0.59,0.071 0.639,1.411 1.229,1.482c1.685,0.204 1.371,-1.48 3.092,-1.085c8.419,1.936 -28.22,32.391 -49.228,1.949c-3.272,-4.742 -4.652,-7.731 0.642,-8.345l1.395,0.01Z" style="fill:#fcddd9;"/><path d="M386.56,123.922c0.398,0.245 0.591,3.477 3.922,-0.359c4.15,-4.778 19.627,-7.366 15.898,-0.642c-0.548,0.988 -21.641,12.178 -28.851,27.429c-5.321,11.256 -5.126,23.259 -8.089,19.671c-2.979,-3.607 4.913,-22.808 5.671,-24.651c4.183,-10.178 5.424,-9.382 5.52,-10.664c0.064,-0.858 -1.805,-0.769 -1.74,-1.627c2.471,-3.623 3.026,-4.915 7.67,-9.157Z" style="fill:#fbecc1;"/><path d="M812.289,583.912l1.56,-1.15l0.808,-0.75l0.653,-0.442c1.387,-1.45 1.466,-3.197 1.481,-3.509c0.118,-2.611 1.856,1.025 1.941,1.203c0.209,0.438 2.498,5.228 2.636,5.463c-3.933,5.523 -2.397,6.252 -5.147,26.561c-1.391,10.273 -1.734,10.119 -3.205,20.317c-0.41,2.844 0.851,2.556 0.709,2.713c-0.48,0.527 -1.202,-1.638 -7.802,3.192c1.99,-16.216 4.931,-42.093 6.368,-53.598Z" style="fill:#d8b6a0;"/><path d="M492.792,141.614c1.178,-0.418 0.411,1.861 1.614,1.434c1.018,-0.361 0.522,-0.835 1.793,-2.643c0.641,-0.912 5.003,-7.123 8.918,-10.465l1.4,-1.192l1.055,-0.821l1.034,-0.788l1.034,-0.455l1.034,-0.54l1.034,-0.336l1.034,-0.221c0.761,-0.324 7.673,-3.271 10.104,0.929c2.19,3.783 -3.311,1.902 -6.328,5.373c-5.722,6.583 -22.731,12.254 -28.183,38.671c-0.066,0.317 -2.978,14.058 -3.412,1.085c-0.01,-0.288 -0.049,-1.452 0.421,-3.574l0.1,-1.192l0.267,-1.192l0.427,-1.192l0.295,-1.192l0.321,-1.192l0.426,-1.192l0.338,-1.192l0.282,-1.192l0.521,-1.192l0.353,-1.192l0.472,-1.192l0.39,-1.192l0.575,-1.192c0.275,-0.568 3.405,-7.032 3.353,-7.15c-0.349,-0.793 -1.539,-0.753 -1.888,-1.546c0.405,-0.757 0.81,-1.514 1.215,-2.271Z" style="fill:#fcedc1;"/><path d="M718.144,188.33l0.002,-1.192l0.067,-1.192l0.111,-1.192l0.289,-1.192l0.137,-1.192l0.154,-1.192l0.169,-1.192l0.385,-1.192l0.193,-1.192l0.278,-1.192l0.283,-1.192l0.348,-1.192l0.357,-1.192l0.359,-1.192l0.504,-1.192c2.401,-5.367 11.439,-31.032 29.789,-33.516c0.459,-0.062 11.252,1.527 0.272,6.651c-1.209,0.564 -0.724,1.388 -13.387,10.721c-18.868,13.906 -16.817,41.347 -20.246,35.475c-0.236,-0.403 0.17,-1.054 -0.065,-1.457Z" style="fill:#fcefc5;"/><path d="M247.232,223.947c6.591,13.036 24.177,23.95 43.887,5.672c0.671,0.315 0.719,1.612 1.391,1.926c0.393,0.184 0.662,-0.778 1.087,-0.765c0.324,0.011 0.496,0.5 0.662,0.822c3.135,6.082 -26.856,24.226 -43.827,6.354c-9.194,-9.683 -4.801,-11.687 -3.199,-14.009Z" style="fill:#fadcd8;"/><path d="M286.277,114.591c0.992,2.075 1.002,2.053 1.072,2.241c0.21,0.566 -0.219,0.584 0.01,1.199c-6.964,12.061 -23.416,11.288 -29.541,40.664c-1.361,6.527 -0.871,6.785 -2.465,8.557c-1.667,-2.116 -1.017,-2.368 -0.801,-5.134c0.723,-9.244 0.561,-9.267 3.952,-17.821c0.477,-1.202 3.664,-9.241 7.088,-14.358l0.841,-1.192l1.011,-1.192l0.92,-1.192l0.931,-1.192l0.879,-1.192l0.625,-0.858l1.034,-1.189l1.034,-0.97l1.034,-0.833c0.147,-0.203 1.836,-2.533 1.836,-2.533c0.405,-0.153 0.894,0.436 1.266,0.197c0.439,-0.282 0.326,-1.21 0.761,-1.501c0.166,-0.111 0.242,0.561 2.34,-0.6c2.881,-1.594 2.897,-1.317 6.175,-1.104Z" style="fill:#fdf1cd;"/><path d="M805.414,368.353c3.957,-1.164 20.388,-0.128 23.709,1.118c-0.594,8.419 -0.748,8.324 -1.546,16.722l-1.39,-1.243l-0.026,-1.192c-0.147,-0.221 0.465,-1.469 -1.305,-1.961c-8.388,-2.335 -16.41,0.512 -20.414,-2.779c0.334,-5.353 0.458,-5.217 0.972,-10.665Z" style="fill:#ecd9c4;"/><path d="M651.293,184.436l-1.198,1.511c-1.526,1.275 -9.381,5.566 -9.099,20.251c0.036,1.85 1.333,3.356 1.528,3.582c1.332,1.546 1.899,1.398 1.454,2.383c-0.303,0.671 -1.141,0.872 -1.444,1.543c-4.751,-7.298 -7.044,-3.992 -9.503,-7.754c-1.839,-2.813 -1.697,-22.114 1.735,-22.155c1.323,-0.016 1.307,0.099 16.526,0.64Z" style="fill:#e99089;"/><path d="M68.103,468.132l-0.654,1.425l-0.342,0.613c0.478,1.292 1.519,1.971 1.692,2.083c3.205,1.349 4.073,1.001 5.333,1.298c5.614,1.324 7.644,12.697 8.517,9.151c1.5,-6.092 1.502,-6.485 6.997,-9.926c0.176,-0.113 0.182,-0.017 2.464,-0.623c0.383,0.074 0.767,0.148 1.15,0.223c2.426,-0.715 2.194,-1.07 3.91,-3.171c11.345,4.739 -6.897,8.348 -9,11.469c-1.857,2.756 -4.924,19.847 -8.591,11.481c-3.395,-7.745 0.246,-12.898 -12.368,-16.016c-0.426,-0.105 -4.307,-1.065 -4.062,-4.174c0.161,-2.035 4.5,-3.662 4.954,-3.832Z" style="fill:#f17170;"/><path d="M768.129,191.269l-1.034,1.115c-1.403,1.001 -10.829,7.731 -9.607,21.036c0.217,2.362 0.86,2.144 0.776,2.317c-0.353,0.729 -1.41,0.734 -1.764,1.462c-2.799,-2.43 -2.835,-2.19 -5.702,-4.332c-2.878,-2.15 -3.319,-22.792 1.818,-22.656c1.243,0.033 5.081,0.135 15.513,1.057Z" style="fill:#e58a81;"/><path d="M417.614,172.517l-1.03,1.708c-2.677,2.182 -6.74,3.934 -7.918,16.546c-0.109,1.166 -0.244,2.332 -0.256,3.505c-0.031,2.988 -1.268,2.382 -1.56,2.931c-4.453,-3.151 -8.802,-2.243 -7.045,-18.45c0.631,-5.824 1.714,-6.437 2.385,-6.783c0.594,-0.307 14.192,0.472 15.425,0.543Z" style="fill:#e58880;"/><path d="M532.374,178.482c-4.165,4.178 -9.567,15.575 -8.691,21.764c0.066,0.463 0.788,0.75 0.649,1.192c-0.224,0.715 -1.268,0.782 -1.492,1.496c-5.335,-3.868 -7.543,-2.569 -7.781,-9.853c-0.514,-15.735 2.765,-15.607 3.889,-15.564c6.774,0.263 6.692,0.374 13.426,0.965Z" style="fill:#e68882;"/><path d="M302.85,166.842l-1.267,1.23c-7.261,7.357 -6.757,8.063 -8.572,19.044c-0.048,0.291 -0.143,0.219 -1.926,2.958c-1.923,-0.885 -8.82,-0.351 -6.078,-19.665c0.052,-0.363 0.508,-3.581 1.472,-4.271c0.512,-0.367 15.063,0.617 16.372,0.705Z" style="fill:#e88981;"/><path d="M192.471,328.833c-0.289,5.426 -0.406,5.31 -0.958,10.801c-0.528,-0.103 -0.837,-0.873 -1.365,-0.976c-3.417,-0.668 -10.969,0.694 -19.098,-2.743c0.797,-6.924 -0.419,-9.886 5.664,-9.585c14.055,0.695 14.233,0.659 15.757,2.503Z" style="fill:#ead2ba;"/><path d="M556.247,549.482c-8.754,7.631 -18.005,16.638 -19.538,18.13c-0.149,-0.622 -0.927,-0.865 -1.075,-1.487c-0.315,-1.319 0.421,-1.263 2.682,-16.817c0.25,-1.722 2.129,-1.647 2.348,-1.638c1.159,0.046 13.88,0.55 14.486,0.695c0.478,0.114 0.619,1.003 1.097,1.117Z" style="fill:#f7f6ee;"/><path d="M68.103,468.132c9.171,-2.787 9.136,-4.115 11.249,-12.922c1.473,-6.139 6.774,-5.524 7.47,0.037c1.257,10.042 1.98,10.709 10.349,13.958c-1.716,2.101 -1.484,2.456 -3.91,3.171l-1.15,-0.223c-2.282,0.607 -2.288,0.51 -2.464,0.623c0.333,-3.841 -1.439,-2.885 -3.542,-5.968c-3.221,-4.723 -2.013,-14.461 -3.771,-8.339c-1.018,3.543 -1.293,10.31 -11.026,12.389c-0.219,0.047 -0.186,0.103 -2.508,1.395c-0.172,-0.112 -1.214,-0.791 -1.692,-2.083l0.342,-0.613l0.654,-1.425Z" style="fill:#f97e7d;"/><path d="M58.193,360.394c1.326,1.076 1.255,0.978 2.8,1.561c1.031,-0.091 2.063,-0.182 3.094,-0.273c18.345,12.064 18.206,19.703 19.807,21.754c0.542,0.695 1.457,0.902 1.999,1.596c-0.918,4.647 -0.025,6.723 -2.154,5.627c-3.993,-2.055 -3.425,-19.697 -29.053,-25.913c-1.089,-2.488 -1.251,-2.458 -1.174,-2.681c0.158,-0.455 0.822,0.294 1.246,0.308c0.291,0.01 0.234,-0.04 3.434,-1.979Z" style="fill:#fdc361;"/><path d="M68.799,472.252c2.322,-1.291 2.289,-1.348 2.508,-1.395c9.733,-2.08 10.008,-8.846 11.026,-12.389c1.759,-6.122 0.55,3.616 3.771,8.339c2.103,3.083 3.875,2.127 3.542,5.968c-5.495,3.441 -5.497,3.834 -6.997,9.926c-0.873,3.546 -2.903,-7.827 -8.517,-9.151c-1.26,-0.297 -2.128,0.051 -5.333,-1.298Z" style="fill:#fdcbc4;"/><path d="M679.164,371.818c0.978,-1.957 1.508,-0.849 6.327,-0.294c0.007,0.029 1.783,0.164 -0.451,10.948c-0.252,1.217 -3.618,14.82 -4.044,15.185c-0.264,0.226 -0.658,0.563 -3.854,-1.665l-1.281,-0.365c2.06,-11.913 1.33,-11.951 3.304,-23.808Z" style="fill:#c1e7f6;"/><path d="M888.89,295.473c0.597,0.369 0.602,-0.531 1.206,-0.158c0.121,0.075 0.726,0.45 1.051,1.555c0.533,1.813 0.822,62.309 0.608,66.585c-0.203,4.052 -1.211,3.567 -2.695,3.629c0.268,-25.644 -0.179,-25.54 0.253,-51.216c0.173,-10.281 -0.281,-10.185 -0.423,-20.396Z" style="fill:#a15549;"/><path d="M791.85,378.354c1.418,0.872 6.078,3.738 0.671,23.142c-1.954,7.011 -2.699,7.142 -6.796,7.14c-0.629,-1.685 -0.597,-1.615 -0.934,-3.349c5.968,-11.183 5.028,-23.367 5.339,-25.103c0.069,-0.386 0.676,-0.428 0.745,-0.814l0.974,-1.016Z" style="fill:#c1e6f4;"/><path d="M727.819,909.219c-0.741,-1.279 -1.263,-2.015 0.083,-2.057c30.912,-0.961 44.967,-20.855 45.447,-20.862c4.682,-0.073 -12.377,24.416 -45.53,22.92Z" style="fill:#be957e;"/><path d="M559.243,363.466c3.923,0.172 3.897,-0.505 7.558,0.732c-1.491,5.986 -5.889,27.053 -8.218,22.859c-0.51,-0.918 -0.644,-0.595 -1.381,-1.276l-0.799,-0.798c2.336,-17.011 0.397,-17.631 2.84,-21.516Z" style="fill:#daeab6;"/><path d="M303.585,139.869c12.05,0.369 11.276,11.465 15.807,14.366c1.613,1.033 1.323,1.283 2.029,3.323c-8.168,-0.552 -11.2,3.019 -13.08,-6.273c-1.275,-6.298 -3.494,-5.142 -4.756,-11.417Z" style="fill:#bf6f25;"/><path d="M936.884,565.888c4.992,-4.226 8.778,-2.851 9.083,-9.343c0.457,-9.712 1.966,1.036 1.99,1.243c0.772,6.779 8.99,8.508 7.184,9.285c-5.831,2.511 -6.41,1.971 -9.507,8.127c-1.973,3.923 -1.155,-4.942 -5.987,-7.71c-1.398,-0.801 -1.334,-0.774 -2.763,-1.604Z" style="fill:#fdf4a7;"/><path d="M100.366,354.814c0.157,0.014 1.964,0.175 1.964,0.175c3.346,-1.189 3.308,-0.218 6.457,1.601c-10.153,6.87 -11.679,8.549 -12.548,9.505c-5.742,6.317 -4.183,7.592 -9.218,15.406c-0.445,-1.249 -1.062,-0.996 -0.85,-2.387c0.071,-0.464 -0.305,-0.553 0.226,-2.611c4.43,-17.158 14.103,-17.167 14.675,-19.179c0.238,-0.836 -0.944,-1.674 -0.706,-2.51Z" style="fill:#fdc760;"/><path d="M435.429,355.444c3.103,0.126 3.01,0.168 6.02,0.826c-0.39,3.526 -2.928,15.691 -5.262,20.305c-0.16,0.108 -1.998,1.355 -1.998,1.355c-1.097,1.03 -1.241,0.511 -2.565,1.056c2.941,-21.885 2.832,-21.99 3.805,-23.543Z" style="fill:#f9f5cd;"/><path d="M128.691,409.25c0.151,0.639 0.302,1.277 0.454,1.916c-5.476,4.4 -3.62,6.022 -5.336,8.159c-0.875,1.09 -2.91,-2.615 -5.038,-4.528c-2.257,-2.028 -2.399,-1.578 -5.167,-2.396c0.975,-1.402 0.806,-1.524 2.225,-2.204c3.477,-1.665 4.91,-8.836 5.087,-9.721c0.657,-3.286 1.178,0.198 2.522,3.152c1.128,2.478 4.774,5.257 5.252,5.622Z" style="fill:#e7e8e9;"/><path d="M650.924,158.913c0.053,-0.028 0.503,-1.911 2.375,-1.28c12.72,4.283 10.606,12.78 11.139,14.232c0.174,0.473 0.933,0.474 1.035,0.974c0.034,0.168 -0.051,0.148 -0.684,2.003c-0.649,-0.066 -7.419,-0.752 -7.918,-2.168c-0.853,-2.424 0.372,-3.06 -5.948,-13.76Z" style="fill:#c37329;"/><path d="M316.104,346.707c3.181,0.834 3.128,0.699 6.41,1.23c1.931,4.661 -4.619,23.011 -7.276,20.348c-0.643,-0.644 -0.779,-1.803 -1.422,-2.447c0.768,-6.94 0.795,-6.886 2.287,-19.131Z" style="fill:#fdf7c5;"/><path d="M666.344,372.55c0.803,0.525 3.104,-0.903 2.614,5.263c-0.204,2.575 -1.707,14.062 -2.47,17.785c-1.541,7.528 -6.526,4.25 -5.57,1.409c1.107,-3.291 2.263,-2.94 5.426,-24.457Z" style="fill:#e0edc3;"/><path d="M421.828,354.629c3.361,9.08 -1.536,25.627 -3.252,26.453c-2.943,1.415 -1.093,-7.417 -0.961,-8.049c2.407,-11.492 0.396,-12.303 4.213,-18.404Z" style="fill:#fdf6d0;"/><path d="M545.451,387.25c-2.408,7.543 -4.139,1.639 -4.112,1.248c0.017,-0.243 3.631,-22.026 3.798,-22.307c4.709,-7.929 0.566,19.399 0.314,21.059Z" style="fill:#fcf4b2;"/><path d="M796.897,808.697c0.314,0.356 0.951,0.084 1.265,0.44c0.707,0.801 -4.458,33.823 -6.982,27.333c-0.017,-0.043 3.68,-24.256 5.717,-27.772Z" style="fill:#ba927c;"/><path d="M74.61,339.872c0.169,0.903 5.502,4.931 -10.523,21.81c-1.031,0.091 -2.063,0.182 -3.094,0.273c-1.024,-0.862 -0.807,-0.988 -1.334,-2.255c9.205,-4.715 10.65,-8.908 14.95,-19.829Z" style="fill:#fefacc;"/><path d="M526.16,167.396c-3.93,-0.406 -7.111,1.026 -4.998,-2.792c7.657,-13.835 11.114,1.703 10.919,2.163c-1.011,2.383 -1.685,0.879 -5.921,0.629Z" style="fill:#fcfcfc;"/><path d="M303.883,348.923c0.983,0.945 1.724,0.817 1.324,6.263c-0.327,4.451 -1.828,12.636 -2.603,14.058c-0.165,0.303 -4.956,4.439 -2.661,-3.257c2.681,-8.99 1.454,-13.377 3.94,-17.064Z" style="fill:#fda398;"/><path d="M756.671,175.146c1.955,-2.572 4.973,-8.193 8.587,2.38c1.233,3.606 -0.985,2.524 -4.366,2.403c-1.799,-0.064 -8.363,2.092 -4.222,-4.783Z" style="fill:#fbfaf9;"/><path d="M198.452,328.008c-2.116,2.82 -1.038,3.205 -1.133,6.872c-0.011,0.418 -0.042,1.609 -0.806,5.142c-2.253,0.372 -2.301,0.105 -4.298,1.49l-1.079,0.532l0.375,-2.41c0.552,-5.491 0.669,-5.375 0.958,-10.801l0.884,0.111c0.589,-0.358 0.384,-1.323 5.097,-0.935Z" style="fill:#ad3532;"/><path d="M408.368,155.024c0.628,-0.598 2.49,-3.882 4.824,-0.965c0.225,0.281 2.967,5.135 2.535,6.987c-0.243,1.044 -12.544,1.387 -10.13,-2.229c0.874,-1.31 1.896,-2.483 2.77,-3.793Z" style="fill:#fdfcfc;"/><path d="M294.566,155.516c-0.524,-0.019 -5.712,0.981 -3.256,-3.049c0.54,-0.886 5.778,-11.965 9.513,1.297c0.779,2.766 -4.228,1.858 -6.257,1.752Z" style="fill:#fcfbfa;"/><path d="M641.968,173.299c-0.712,-0.105 -1.44,0.072 -2.152,-0.033c-3.697,-0.547 4.479,-16.272 8.52,-1.645c0.794,2.874 -4.163,1.855 -6.368,1.678Z" style="fill:#fcfbfa;"/><path d="M758.88,150.547c-5.391,2.881 -5.152,3.222 -9.362,7.934c-1.882,2.106 -1.845,2.184 -2.068,2.233c-1.139,0.25 -0.338,-1.706 -1.468,-1.458c4.443,-6.395 4.38,-6.648 10.839,-10.019c1.918,-1.001 2.055,1.308 2.059,1.31Z" style="fill:#f7b14e;"/><path d="M813.806,208.534c-5.367,-7.936 -2.448,-9.38 -2.389,-9.581c0.577,-1.951 0.967,-0.071 2.197,1.331c0.521,0.594 2.525,0.945 1.932,3.467c-0.603,2.56 -0.703,2.445 -1.74,4.783Z" style="fill:#f9b2b3;"/><path d="M788.718,855.613c-1.866,5.354 -1.454,6.749 -2.99,5.933c-2.535,-1.348 5.161,-19.362 4.136,-10.666c-0,0 -1.055,4.355 -1.146,4.733Z" style="fill:#b58a72;"/><path d="M436.187,376.576c-0.14,4.845 -2.109,3.766 -2.893,6.236c-0.303,0.954 -0.054,2.103 -0.468,3c-0.082,0.177 -0.144,-0.061 -2.042,-0.866c0.28,-1.986 0.56,-3.972 0.841,-5.958c1.325,-0.546 1.468,-0.027 2.565,-1.056c0,0 1.838,-1.247 1.998,-1.355Z" style="fill:#f6ec93;"/><path d="M440.893,636.621c-0.269,-0.479 -3.214,-5.728 -3.077,-6.193c0.186,-0.635 1.22,-0.556 1.406,-1.192l1.143,0.67l1.034,0.024l1.034,1.295l0.216,1.586l-0.37,1.192l-0.161,1.192l-1.224,1.427Z" style="fill:#e14b43;"/><path d="M210.824,639.991c1.204,-0.862 0.976,-1.716 3.107,-1.23c2.94,0.671 3.677,-4.894 5.04,-2.292c0.265,0.506 -0.383,3.231 -1.903,3.582c-2.705,0.624 -5.751,0.035 -6.244,-0.06Z" style="fill:#c3e4f0;"/><path d="M784.792,405.287c0.337,1.734 0.305,1.664 0.934,3.349c-0.486,0.052 -6.215,0.671 -6.101,-0.038c0.308,-1.913 3.72,-2.047 5.168,-3.311Z" style="fill:#9fdbf2;"/><path d="M632.665,132.398l1.05,-1.366c2.927,0.342 2.89,0.328 2.932,0.357c0.244,0.175 1.823,1.474 -2.145,3.325c-0.612,-0.772 -1.225,-1.545 -1.837,-2.317Z" style="fill:#fcda7c;"/><path d="M286.277,114.591c0.062,-0.006 1.382,-1.164 3.274,-0.325c2.436,1.081 -0.306,2.227 -0.459,2.291c-1.104,0.462 -0.838,0.713 -1.734,1.474c-0.229,-0.616 0.201,-0.633 -0.01,-1.199c-0.07,-0.188 -0.079,-0.166 -1.072,-2.241Z" style="fill:#fddf8c;"/><path d="M721.018,910.933c-2.609,-0.267 -4.73,-0.742 -2.519,-2.297c0.463,-0.326 2.834,-3.111 2.519,2.297Z" style="fill:#e2c5ad;"/><path d="M198.678,486.752c-1.19,1.474 -1.352,1.722 -2.799,0.68c0.933,-0.227 1.866,-0.453 2.799,-0.68Z" style="fill:#cce9f3;"/><path d="M58.193,360.394l1.466,-0.694c0.526,1.266 0.31,1.393 1.334,2.255c-1.545,-0.583 -1.474,-0.485 -2.8,-1.561Z" style="fill:#fde180;"/><path d="M128.691,409.25c0.858,0.548 0.933,0.165 1.809,0.725c1.083,0.692 -0.352,0.309 -1.356,1.192c-0.151,-0.639 -0.302,-1.277 -0.454,-1.916Z" style="fill:#c0a8c3;"/><path d="M835.045,544.24c0.105,-0.148 1.311,-1.856 1.311,-1.856c1.597,-0.028 -0.318,0.451 -1.311,1.856Z" style="fill:#e0c3ad;"/><path d="M438.399,622.146c0.033,2.466 0.217,2.693 0.036,2.652c-0.788,-0.175 -0.805,-1.378 -0.807,-1.52c-0.011,-0.846 0.782,-0.312 0.771,-1.132Z" style="fill:#eb544d;"/><path d="M423.947,602.932c-0.043,-0.712 -1.116,-0.962 -1.159,-1.674c-0.027,-0.442 0.678,-0.816 1.021,-0.616c0.142,0.083 0.01,0.164 0.138,2.29Z" style="fill:#c32f2c;"/></g></svg>