<?xml version="1.0" encoding="UTF-8" standalone="no"?><!DOCTYPE svg PUBLIC "-//W3C//DTD SVG 1.1//EN" "http://www.w3.org/Graphics/SVG/1.1/DTD/svg11.dtd"><svg width="100%" height="100%" viewBox="0 0 2112 2016" version="1.1" xmlns="http://www.w3.org/2000/svg" xmlns:xlink="http://www.w3.org/1999/xlink" xml:space="preserve" xmlns:serif="http://www.serif.com/" style="fill-rule:evenodd;clip-rule:evenodd;stroke-linejoin:round;stroke-miterlimit:2;"><g id="Background"><path d="M1063.788,1155.686c4.135,-11.45 10.389,-16.277 -1.12,-18.885c-231.25,-52.401 -265.589,-69.158 -267.36,-62.122c-2.386,9.48 1.828,145.889 1.742,146.153c-0.247,0.76 -2.135,6.566 -2.189,9.769c-0.054,3.214 -0.94,2.765 -1.924,5.664c-14.653,6.572 -6.492,-12.682 -5.538,-13.543c4.177,-3.771 4.962,-5.776 -0.09,-8.12c-2.718,-1.262 -1.765,-1.993 -2.996,-8.303l0.152,-2.716c-0.22,-2.76 -6.253,-119.094 4.328,-143.29c9.44,-21.585 148.639,-57.126 151.254,-63.926c3.516,-9.143 -18.689,-57.046 -3.571,-72.544c8.226,-8.433 69.276,-37.674 91.079,-40.257c82.376,-9.76 82.518,-11.349 89.443,-9.333c23.511,6.844 16.119,44.658 22.687,26.976c1.078,-2.903 -0.253,-2.778 -1.393,-38.862c-0.355,-11.22 -9.39,-17.322 -72.101,-110.482c-59.66,-88.627 -119.359,-171.186 -111.575,-189.667c18.612,-44.188 140.299,-161.287 312.591,-126.528c94.492,19.063 200.605,32.061 450.847,90.995c123.358,29.052 227.581,54.203 249.137,225.927c1.253,9.983 9.139,118.513 -36.014,233.848c-31.365,80.115 -49.452,84.69 -47.626,100.273c2.635,22.484 3.732,31.842 2.481,283.114c-0.054,10.931 -1.335,10.706 -3.358,136.594c-0.81,50.387 -24.474,55.337 -49.949,72.101c-1.692,1.114 -225.426,134.364 -262.595,149.488c-32.516,13.23 -34.111,7.95 -152.633,-21.152c-22.62,-5.554 -21.915,-7.921 -281.911,-73.002c-112.252,-28.099 -234.871,-64.82 -237.641,-62.272c-7.047,6.482 8.217,52.168 -16.458,65.426c-92.622,49.766 -97.861,51.839 -170.672,27.062c-46.041,-15.667 -52.593,-16.539 -55.897,-35.85c-1.095,-6.4 -12.88,-3.467 -35.961,-5.086c-8.712,-0.611 -8.679,-0.374 -16.463,-4.617c-2.758,-1.504 -2.508,0.022 -5.332,1.565c-3.589,1.96 -10.764,-5.37 -15.2,-0.779c-12.161,12.583 -54.742,51.52 -80.427,53.763c-20.082,1.753 -125.179,-14.351 -133.091,-23.463c-5.863,-6.752 -6.145,-18.061 -9.324,-74.939c-4.259,-76.218 8.164,-84.979 13.912,-89.033c4.715,-3.325 13.945,-9.834 63.161,-34.215c34.594,-17.137 86.972,6.4 89.267,-3.369c0.798,-3.396 -8.121,-96.316 6.985,-111.949c4.036,-4.177 4.701,-4.865 63.178,-34.155c9.309,-4.663 33.025,-16.542 128.82,10.107c26.239,7.3 25.985,16.286 28.399,72.387c1.306,30.344 -3.648,59.864 2.223,59.466c1.343,-0.091 1.225,-0.239 16.537,-3.227c18.358,0.111 18.718,0.741 25.548,-3.989c3.423,0.16 11.196,3.052 16.15,-3.909l1.46,2.893l1.343,2.44l-1.712,2.44l1.051,2.44c-0.683,0.534 -4.78,3.738 -8.719,6.408c4.02,4.206 3.935,4.253 4.342,4.542c0.603,0.429 2.126,1.512 7.978,-4.614c11.023,7.355 23.524,7.309 39.564,13.483c2.412,2.787 2.36,2.589 4.618,5.335c2.286,2.781 2.607,0.262 8.143,-4.116c11.822,13.144 19.786,7.708 21.701,25.486c0.56,5.2 2.279,4.128 17.364,8.481c8.307,2.397 8.188,2.031 10.685,2.247c25.664,11.42 322.167,80.521 533.895,136.272c8.768,2.309 10.887,6.948 15.597,-1.214c0.622,-1.079 4.451,-69.803 -0.609,-73.855c-1.446,-1.158 -1.474,-0.772 -7.681,-2.164c-15.508,-3.586 -120.068,-30.646 -145.704,-35.855c-5.108,-1.038 -4.157,-6.055 2.211,-5.766c24.261,1.103 150.011,35.554 152.346,34.146c3.808,-2.296 0.83,-22.64 2.841,-91.736c0.612,-21.034 1.784,-36.351 -2.754,-37.841c-13.751,-4.517 -96.781,-22.065 -105.224,-23.85c-38.054,-8.043 -121.943,-30.396 -122.373,-30.495c-0.887,-0.204 -14.357,-3.301 -8.951,-7.249c8.743,-6.385 60.633,17.602 119.442,26.414c50.722,7.6 115.565,28.654 119.501,23.975c0.588,-0.699 0.926,-0.627 -0.277,-72.933c-0.442,-26.535 2.421,-31.567 -11.029,-34.661c-160.504,-36.923 -159.908,-38.673 -173.853,-41.854c-15.263,-3.102 -16.833,-5.847 -18.627,-1.427c-2.128,5.243 -2.235,45.923 -54.558,72.472c-34.203,17.355 -67.032,7.417 -72.626,5.723c-22.804,-6.903 -39.949,-23.274 -44.455,-27.192c-28.942,-27.411 -37.381,-89.061 -38.522,-97.401c-1.439,-10.516 -5.088,-8.35 -34.219,-15.445c-11.233,-2.736 -11.168,-2.372 -140.86,-32.178c-1.528,-0.351 -18.292,-4.204 -19.499,-1.554c-1.123,2.464 0.139,85.916 1.376,107.539c-0.242,1.688 -0.484,3.376 -0.725,5.064c0.434,6.094 0.211,5.957 1.131,11.881c-3.807,0.017 -10.425,0.392 -11.331,0.443c-0.152,-1.759 -1.386,-16.069 -2.507,-21.926c0.365,0.304 4.563,3.805 4.563,3.805c0.744,0.016 7.645,-2.693 -3.28,-9.038c-2.929,-98.04 1.583,-103.365 7.014,-106.188c12.703,-6.601 30.024,2.413 98.324,15.101c95.019,17.652 99.881,26.362 100.445,17.915c1.129,-16.929 1.156,-16.683 3.657,-33.485Z" style="fill:#824c37;"/><path d="M903.153,1245.476c-0.289,0.65 -1.671,0.034 -1.96,0.683c-2.072,4.651 1.55,23.915 -6.699,33.881c-4.067,-1.763 -3.524,-2.766 -7.719,-3.347c-10.337,-1.432 -9.817,-3.493 -20.277,-4.582c-1.237,-21.622 -2.499,-105.075 -1.376,-107.539c1.208,-2.65 17.972,1.203 19.499,1.554c129.691,29.806 129.626,29.442 140.86,32.178c29.131,7.094 32.78,4.929 34.219,15.445c1.142,8.34 9.58,69.989 38.522,97.401c0.317,1.43 -3.78,1.11 -3.463,2.54c0.185,0.835 19.049,26.209 34.511,35.626c91.82,55.918 163.46,-43.295 159.219,-87.742c13.945,3.181 13.349,4.931 173.853,41.854c13.45,3.094 10.588,8.126 11.029,34.661c1.203,72.306 0.865,72.234 0.277,72.933c-3.936,4.68 -68.779,-16.374 -119.501,-23.975c-58.809,-8.812 -110.699,-32.799 -119.442,-26.414c-5.406,3.948 8.065,7.045 8.951,7.249c0.431,0.099 84.32,22.453 122.373,30.495c8.443,1.784 91.473,19.333 105.224,23.85c4.539,1.491 3.367,16.807 2.754,37.841c-2.011,69.097 0.966,89.44 -2.841,91.736c-2.335,1.408 -128.085,-33.043 -152.346,-34.146c-6.368,-0.29 -7.319,4.728 -2.211,5.766c25.636,5.209 130.196,32.268 145.704,35.855c6.206,1.392 6.234,1.006 7.681,2.164c5.06,4.053 1.231,72.776 0.609,73.855c-4.709,8.162 -6.829,3.523 -15.597,1.214c-211.727,-55.751 -508.23,-124.852 -533.895,-136.272c0.364,-4.042 1.763,-3.859 0.76,-8.439c-7.353,-33.562 -44.796,-44.655 -49.94,-46.179c-2.952,-29.456 -2.216,-30.764 0.115,-30.473c30.518,3.809 32.314,13.355 39.504,4.491c-0.663,-0.885 -1.326,-1.771 -1.99,-2.656c14.79,-5.128 15.183,-4.558 16.35,-6.376c0.946,-1.474 -3.718,-22.087 -21.003,3.801c-35.452,-7.511 -35.008,-9.612 -35.079,-10.316c-2.172,-21.645 -1.499,-24.677 -1.036,-26.765c1.424,-6.416 -2.551,-7.214 -3.211,-7.714c4.635,-4.807 4.409,-5.22 3.156,-11.821l-0.314,-2.779c-0.941,-1.565 -1.883,-3.13 -2.824,-4.694c-0.036,-0.83 -0.073,-1.659 -0.109,-2.489l-0.497,-4.801c0.169,-0.302 2.117,-3.78 2.117,-3.78c-1.505,-2.695 -3.52,-1.802 -3.739,-1.914c3.218,-4.252 4.325,-3.853 3.934,-9.11c-1.183,-15.884 -0.629,-15.763 -0.311,-31.546c0.573,-3.958 0.333,-3.808 -0.093,-7.625c-0.92,-5.924 -0.697,-5.786 -1.131,-11.881c11.077,4.845 21.606,5.4 23.533,5.502c0.538,3.411 -0.472,3.792 2.219,6.508c15.314,15.454 5.767,21.807 11.609,39.169c9.183,-19.299 -0.25,-23.435 13.197,-39.744c2.592,1.108 5.184,2.216 7.776,3.324c2.89,1.202 6.645,2.109 7.234,2.251c67.249,16.25 104.953,28.993 107.124,24.259c3.098,-6.757 -98.195,-29.41 -111.591,-30.647l-2.372,0.003c-5.598,-6.138 -7.341,-3.695 -12.926,-9.766c-8.064,-8.766 -6.312,-12.534 -6.315,-22.81c3.416,-11.391 0.572,-11.497 -0.299,-11.386c-0.794,0.101 -1.015,1.536 -1.808,1.637Z" style="fill:#eb9bb0;"/><path d="M1704.048,803.895c-60.141,-95.244 -65.335,-91.481 -69.524,-100.364c-6.619,-14.036 68.017,-111.552 159.046,-123.033c33.127,-4.178 70.286,9.747 77.754,15.231c74.579,54.763 80.633,137.837 84.177,173.933c5.112,52.06 -12.284,158.765 -43.975,229.639c-2.435,5.446 -27.827,62.233 -31.897,67.348c-0.468,0.588 -2.191,2.337 -6.897,-6.305c-6.297,-11.561 -71.782,-104.427 -78.129,-113.429c-8.267,-11.723 7.72,-25.866 0.658,-47.778c-19.035,-59.06 -57.875,-46.999 -60.496,-47.339c-4.399,-0.571 -3.251,-2.31 -30.718,-47.904Z" style="fill:#d29951;"/><path d="M1608.491,1388.995c-0.969,-5.809 -1.669,-86.273 0.102,-89.533c3.985,-7.335 78.954,-47.724 85.773,-45.604c51.742,16.084 51.778,-26.73 63.95,-32.584c56.206,-27.031 56.002,-27.379 60.981,-29.502c5.916,-2.523 6.758,2.789 4.638,82.884c-0.353,13.32 -34.254,22.481 -39.988,29.191c-14.689,17.186 37.123,-14.678 39.577,-11.867c1.217,1.394 -1.107,130.244 -1.526,131.601c-2.418,7.837 -101.539,53.655 -103.47,58.554c-4.249,10.779 37.664,-12.54 40.1,-13.703c56.12,-26.786 63.796,-39.384 63.665,-25.486c-0.546,57.948 -2.577,58.893 -7.464,61.458c-24.232,12.718 -115.482,67.949 -132.255,76.734c-61.895,32.418 -71.499,41.697 -71.582,30.121c-0.443,-61.742 -1.309,-62.239 2.048,-67.897c12.407,-7.477 46.532,-24.815 57.655,-32.49c0.036,-2.49 -0.036,-2.5 -1.923,-3.71c-20.512,6.938 -46.401,26.923 -59.217,28.814c-0.144,-43.003 -2.17,-42.807 -1.583,-85.668c0.62,-45.27 -5.566,-50.331 6.635,-54.587c25.938,-9.047 123.028,-61.097 126.019,-65.572c12.552,-18.781 -71.032,34.773 -128.064,58.131c-1.357,0.238 -2.713,0.476 -4.07,0.715Z" style="fill:#d3798f;"/><path d="M840.831,576.163c-4.296,13.04 -47.371,76.776 -63.902,42.683c-15.134,-31.213 -18.253,-71.049 -28.29,-64.233c-1.556,1.056 -262.948,248.208 -285.529,268.684c-32.115,29.121 -32.763,32.539 -33.476,36.297c-3.763,19.842 -15.81,11.154 -29.473,27.18c-56.388,66.138 -137.294,133.819 -150.155,144.578c-7.837,6.556 -4.709,19.258 -20.785,21.865c-10.258,1.663 -26.327,29.425 -57.808,19.067c-24.853,-8.177 -39.699,-36.988 -15.887,-62.912c8.089,-8.807 5.943,-9.846 13.313,-18.872c10.997,-13.469 16.582,-7.588 28.129,-20.885c22.631,-26.06 159.463,-137.647 160.866,-141.159c6.568,-16.447 10.539,-13.479 26.216,-19.242c5.667,-2.084 206.141,-187.376 241.374,-216.009c8.326,-6.767 73.1,-66.173 88.142,-77.54c4.958,-3.747 7.033,-6.251 0.867,-7.967c-67.065,-18.663 -90.229,-28.022 -86.089,-43.647c5.255,-19.83 96.129,-56.787 96.453,-75.005c1.476,-83.069 -2.398,-129.217 42.636,-98.225c38.745,26.664 71.897,58.547 81.666,56.192c58.807,-14.177 135.049,-49.92 117.182,1.248c-16.476,47.184 -39.167,83.596 -31.674,93.29c29.952,38.753 93.437,98.837 43.103,101.34c-90.657,4.507 -89.938,-8.123 -97.599,-6.633c-11.358,2.209 -8.95,5.264 -18.856,16.111c-1.519,1.759 -14.615,18.671 -16.234,19.672c-2.681,1.657 -1.961,1.93 -4.189,4.124Z" style="fill:#804e38;"/><path d="M1659.51,1194.687c1.369,4.305 1.388,4.27 1.479,4.65c10.782,45.184 18.738,42.387 18.161,46.345c-0.667,4.573 -57.073,27.378 -78.039,46.209c-4.883,4.386 -4.3,168.628 -3.951,187.691c2.548,139.182 0.952,147.369 15.443,147.403c18.501,0.043 214.06,-114.061 217.283,-121.119c3.862,-8.457 5.76,-150.549 5.807,-184.856c0.182,-133.98 -1.152,-134.333 -4.543,-139.174c-5.912,-8.439 -54.552,20.19 -70.555,27.112c-3.841,1.661 -4.385,-2.278 -4.444,-2.702c-0.547,-3.956 -0.623,-7.972 -1.179,-11.927c-3.778,-26.896 -17.707,-37.3 -3.603,-43.534c59.746,-26.407 59.023,-27.769 89.478,-43.645c30.017,-15.648 29.535,-18.701 31.82,-16.916c4.201,3.281 -3.224,429.829 -5.12,440.437c-1.521,8.512 -2.587,14.471 -85.446,61.933c-98.452,56.392 -98.109,56.708 -106.679,61.565c-109.614,62.122 -111.943,64.552 -121.633,64.862c-7.165,0.229 1.073,-5.218 0.4,-93.062c-0.07,-9.165 -0.844,-109.994 -1.332,-114.557c-5.747,-53.737 4.668,-180.702 -0.037,-260.928c-0.451,-7.684 -1.248,-9.482 5.846,-11.483c37.643,-10.615 55.863,-24.841 100.846,-44.304Z" style="fill:#d29951;"/><path d="M1295.363,1204.129c7.776,2.572 24.458,8.091 98.959,25.703c29.357,6.94 58.79,7.05 84.441,17.525c12.838,5.243 41.933,-5.336 46.554,20.062c6.328,34.784 6.717,222.972 2.006,307.309c-3.631,65 0.827,138.772 0.343,141.498c-0.104,0.587 -0.337,0.42 -4.603,5.725c-68.992,-21.897 -577.715,-151.085 -582.893,-153.65c-2.427,-1.202 -29.806,-7.45 -34.663,-8.248c-6.101,-1.003 -9.007,1.608 -9.278,-4.862c-1.984,-47.479 -2.015,-49.151 1.775,-49.77c1.315,-0.215 62.281,20.007 169.679,46.91c186.663,46.759 186.546,46.583 373.185,93.906c36.317,9.208 39.541,1.694 40.532,-12.911c3.447,-50.823 6.923,-229.099 2.315,-300.136c-1.72,-26.516 1.5,-33.149 -14.616,-38.442c-14.164,-4.653 -14.354,-3.54 -180.455,-45.495c0.932,-8.44 1.659,-8.131 1.713,-8.852c1.823,-24.598 -3.047,-28.159 5.005,-36.271Z" style="fill:#e5b963;"/><path d="M1252.268,445.84c-3.717,3.434 -3.615,3.445 -3.954,3.714c-45.26,7.957 -70.766,9.861 -144.695,60.259c-1.457,0.993 -18.14,12.366 -9.726,20.248c3.564,3.339 3.91,3.071 58.466,13.962c239.979,47.905 239.679,48.292 260.567,52.232c156.171,29.455 155.398,32.715 169.108,34.182c15.467,1.655 78.145,-104.439 204.382,-73.132c27.461,6.81 28.325,7.372 28.012,9.806c-1.194,9.276 -8.549,-7.753 -51.726,6.639c-49.121,18.769 -92.003,36.982 -134.789,114.698c-3.246,5.897 -17.011,1.319 -22.279,0.074c-9.952,-2.352 -77.374,-18.285 -124.808,-27.477c-387.147,-75.029 -389.921,-82.639 -507.318,-98.262c-9.732,-1.295 4.211,-16.147 5.179,-17.179c108.361,-115.429 231.59,-103.181 248.791,-101.419c13.981,1.432 15.261,-3.102 24.79,1.655Z" style="fill:#eac373;"/><path d="M1924.516,806.226c-1.175,13.454 -9.273,106.151 -42.614,162.957c-13.061,22.254 -19.874,4.573 -53.97,-45.233c-10.422,-15.224 -68.549,-100.134 -125.411,-193.794c-10.02,-16.505 -19.639,-24.354 13.801,-55.192c73.265,-67.563 212.907,-64.794 208.194,131.263Z" style="fill:#82422d;"/><path d="M1209.174,468.337c97.504,-22.548 134.123,-3.196 201.55,7.406c54.04,8.497 72.158,15.332 91.345,18.731c70.46,12.481 70.103,13.931 208.912,43.825c-0.012,1.372 -0.024,2.743 -0.036,4.115c-30.079,7.388 -30.927,4.977 -58.325,20.147c-13.391,6.213 -13.742,2.608 -26.096,0.438c-69.623,-12.227 -84.016,-20.489 -145.336,-30.916c-54.217,-9.219 -76.881,-17.189 -79.404,-15.255c-11.09,8.5 79.665,22.198 114.232,29.608c9.065,1.943 105.373,22.59 113.064,25.49c4.726,1.782 -4.771,8.503 -5.447,8.981c-40.974,28.998 -34.625,42.924 -46.125,39.276c-18.7,-5.932 -18.591,-5.484 -37.616,-9.882c-74.165,-17.145 -164.073,-33.18 -164.597,-33.294c-156.64,-34.244 -259.594,-50.367 -268.046,-53.394c-4.898,-1.754 -2.049,-7.205 54.725,-35.974c27.281,-13.824 28.536,-7.099 58.431,-2.051c73.502,12.412 124.986,29.694 124.783,23.039c-0.133,-4.361 -110.072,-31.42 -136.523,-34.616c-0.223,-2.406 -1.284,-2.256 -0.432,-4.666c0.238,-0.674 0.665,-0.226 0.941,-1.007Z" style="fill:#eca5b9;"/><path d="M1355.67,936.259c-7.537,-18.96 9.137,-56.202 0.913,-117.821c-5.219,-39.104 -60.789,-14.54 -52.131,-34.287c10.888,-24.832 9.278,-40.893 12.791,-77.889c0.309,-3.252 -5.023,-23.112 1.756,-24.041c1.029,-0.141 77.617,10.462 171.315,36.665c7.399,2.069 7.587,0.393 93.864,19.78c14.03,3.153 15.06,3.792 48.66,55.992c24.943,38.751 46.313,59.273 31.411,55.401c-14.606,-3.795 -13.934,-5.554 -30.778,-8.852c-10.938,-2.142 -11.342,-6.704 -27.935,-5.371c-12.874,1.034 -9.1,-5.323 -10.089,-12.361c-4.776,-33.993 -53.857,-51.953 -89.829,-13.737c-16.343,17.363 -18.381,54.844 1.421,66.854c7.523,4.563 13.25,4.163 7.879,11.086c-5.551,7.155 -6.685,10.746 -13.451,4.847c-15.228,-13.276 -120.344,-19.237 -132.347,-7.231c-5.634,5.634 -6.658,16.18 -7.088,18.819c-2.973,18.231 2.607,20.014 -6.361,32.145Z" style="fill:#b25a6b;"/><path d="M1560.723,859.558c0.971,-0.339 34.355,-19.728 75.369,-9.561c58.016,14.381 66.818,52.723 71.772,36.509c3.895,-12.748 22.85,-38.789 55.577,-17.812c9.587,8.546 10.578,7.687 16.542,20.312c0.667,1.906 5.712,11.454 5.032,22.244c-3.377,53.57 -52.175,44.687 -53.261,45.061c-5.492,1.888 -1.716,4.105 1.021,18.194c3.702,19.055 1.109,67.568 -34.2,91.589c-53.714,36.542 -104.472,15.621 -109.651,14.427l2.498,-3.25l2.349,-0.271l2.349,-0.216c14.971,-2.592 14.962,-2.403 16.256,-2.652c3.97,7.693 6.084,6.153 13.47,1.76c40.386,-40.968 13.646,-91.128 -16.068,-107.793c-62.604,-35.112 -101.107,31.782 -93.395,37.823c2.896,2.269 3.092,0.207 4.41,0.296c-4.121,9.539 -2.791,21.931 -2.669,31.799l-0.433,2.44l-2.506,3.404c-25.388,-28.518 -49.676,-64.763 -9.921,-124.814c34.223,-51.694 37.376,-49.156 55.458,-59.487Z" style="fill:#e8af8d;"/><path d="M1807.123,648.647c14.55,27.561 83.618,140.95 74.949,111.312c-0.524,-1.792 -62.655,-100.314 -68.147,-113.196c2.916,-0.713 46.58,1.039 70.426,37.988c32.439,50.267 28.642,112.317 28.761,116.58c-10.718,-5.596 -6.733,-10.49 -14.104,-14.004c-12.002,-5.721 7.814,20.177 8.943,21.653c9.686,17.088 -10.29,84.225 -13.352,94.934c-4.657,16.286 -38.382,-50.432 -44.87,-53.408c-13.588,-6.232 23.244,47.101 30.656,55.743c5.804,6.767 17.057,9.638 -7.457,53.484c-5.022,8.983 -6.516,-1.067 -36.862,-43.944c-16.234,-22.938 -103.22,-153.324 -133.127,-205.283c-3.334,-5.791 2.5,-11.151 25.206,-32.892c5.915,-5.664 5.912,1.171 26.262,30.322c30.154,43.195 53.714,92.963 59.527,90.058c3.834,-1.915 -5.336,-13.791 -5.552,-14.148c-5.398,-8.912 -66.714,-110.137 -67.012,-111.707c-1.819,-9.564 53.591,-27.775 65.753,-23.494Z" style="fill:#d57d92;"/><path d="M1630.685,770.144c-24.513,-35.808 -27.073,-40.122 -41.809,-43.196c-120.121,-25.054 -119.189,-28.57 -239.595,-51.25c-257.641,-48.53 -292.704,-56.409 -307.576,-55.467c-14.136,0.896 -0.82,19.951 3.461,26.693c24.546,38.652 26.703,36.922 68.192,104.959c31.769,52.099 45.119,53.37 33.922,61.449c-8.312,5.997 -6.639,29.792 -14.526,15.373c-12.796,-23.391 -115.427,-173.191 -115.99,-174.143c-38.464,-64.993 -55.648,-80.403 -45.455,-79.904c10.456,0.512 27.132,1.327 129.022,22.629c207.341,43.347 207.597,41.868 225.619,45.664c204.983,43.169 205.223,40.825 223.002,44.715c28.801,6.302 72.327,13.121 77.188,21.418c16.329,27.873 18.964,25.724 35.89,53.168c45.5,73.773 63.831,92.925 59.645,96.043c-17.14,12.769 -15.766,14.751 -17.57,14.692c-5.428,-0.176 -5.144,-2.125 -73.421,-102.843Z" style="fill:#d39b56;"/><path d="M952.229,339.131c-33.559,88.952 -34.686,88.51 -35.003,96.659c-0.427,10.972 64.279,83.005 63.482,90.311c-0.898,8.221 -96.758,-1.93 -113.947,1.522c-3.853,0.774 -7.898,1.586 -31.28,35.193c-5.249,8.162 -9.851,14.211 -10.765,15.411c-27.501,36.146 -28.866,36.427 -32.807,35.574c-4.406,-0.953 -29.092,-88.925 -31.286,-96.744c-6.255,-22.292 -18.35,-9.64 -109.656,-44.771c-12.073,-6.737 -3.021,-10.88 30.902,-31.994c22.67,-14.11 22.248,-14.123 45.213,-27.889c21.029,-12.606 4.761,-52.594 18.03,-113.642c1.599,-7.356 8.152,-4.88 82.74,54.348c22.033,17.496 25.147,1.933 112.594,-17.398c12.856,-2.842 10.999,2.706 11.782,3.418Z" style="fill:#e9c37c;"/><path d="M1065.43,657.263c-15.136,-22.78 -16.13,-21.904 -16.644,-24.224c-0.511,-2.305 1.046,-5.574 28.409,1.905c43.896,11.998 44.376,8.533 89.055,17.601c131.258,26.64 138.563,21.703 138.426,34.204c-0.459,41.867 3.189,42.325 -7.703,82.669c-7.357,27.253 -16,17.998 -25.169,16.082c-55.652,-11.63 -55.788,-0.026 -105.793,17.54c-7.585,2.664 -27.66,-36.992 -100.58,-145.777Z" style="fill:#b25b6d;"/><path d="M1063.788,1155.686c-2.501,16.801 -2.529,16.556 -3.657,33.485c-0.563,8.447 -5.426,-0.262 -100.445,-17.915c-68.3,-12.689 -85.621,-21.703 -98.324,-15.101c-5.431,2.822 -9.943,8.148 -7.014,106.188c-0.428,1.744 -0.855,3.489 -1.283,5.233c1.121,5.856 2.356,20.166 2.507,21.926c-0.226,3.69 -0.16,3.562 0.433,7.077l-0.98,7.335c-0.255,-0.08 -1.348,-4.167 -5.635,-1.761c-0.591,0.331 -8.082,6.813 5.135,6.891c2.73,12.452 1.161,15.105 2.03,16.244c0.475,0.623 6.445,-0.397 1.393,11.222c-4.554,0.502 -4.41,0.495 -8.912,1.337c-2.158,12.489 0.44,13.371 3.821,23.023c-0.331,0.541 -2.24,3.66 -4.771,6.291c0.086,0.248 -2.556,3.536 3.437,4.653c2.768,0.516 2.609,0.534 5.418,1.108c0.198,1.016 0.897,0.838 0.808,4.146c-0.806,29.926 6.179,47.675 2.381,70.461c0.389,8.751 2.838,9.413 -1.526,15.28c-16.039,-6.174 -28.541,-6.128 -39.564,-13.483c-0.383,-0.434 -0.261,-0.47 -3.6,-6.336l-1.051,-2.44l1.712,-2.44l-1.343,-2.44l-1.46,-2.893c1.122,-1.349 2.244,-2.698 3.366,-4.048c0.686,0.109 10.559,1.672 8.309,-2.579c-0.257,-0.486 -6.43,-0.621 -4.545,-5.118c0.192,-0.459 9.033,-5.624 2.638,-6.998c-4.473,-0.961 -4.449,0.415 -4.787,0.227c-0.467,-0.259 -0.301,-0.402 -4.065,-5.427l-2.084,-2.44l-2.938,-1.902l-2.349,-0.424l-1.156,-2.554l0.701,-2.44l-0.303,-2.44l-0.384,-2.44c-0.814,-1.495 -1.629,-2.991 -2.443,-4.486c0.476,-13.776 0.375,-13.6 -0.467,-27.473c1.505,-6.098 1.339,-6.069 -0.536,-11.937c-2.281,-44.886 -2.719,-44.783 -2.34,-65.884c4.902,-3.499 4.796,-3.647 5.294,-3.779c9.311,-2.484 3.121,-8.697 -5.325,-10.895c-0.926,-11.343 -4.216,-9.857 -9.334,-20.135c2.326,-0.415 13.193,-0.555 15.899,-4.53c1.779,-2.613 0.056,-2.702 0.081,-3.905l2.663,-2.398c1.027,-1.085 4.615,0.377 3.198,-8.436c-0.394,-2.451 -0.066,-107.256 -0.036,-116.583c0.029,-9.305 -1.029,-22.438 6.244,-21.208c0.625,0.106 86.79,27.675 141.049,37.583c7.144,1.305 6.589,3.631 88.852,18.778c8.385,1.544 8.194,1.738 15.289,6.775Z" style="fill:#e6af7d;"/><path d="M1173.326,1162.248c25.274,5.459 61.875,13.368 62.674,17.922c7.995,45.556 3.925,110.639 -25.808,132.545c-67.75,49.913 -146.511,-16.928 -139.772,-135.608c2.141,-37.707 13.162,-35.313 16.064,-34.682c43.66,9.486 43.32,10.282 86.842,19.824Z" style="fill:#eac277;"/><path d="M393.512,1510.719c5.446,0.772 66.533,9.434 68.211,8.538c1.255,-0.67 1.767,-2.409 3.022,-3.079c2.123,0.78 1.729,1.615 3.912,1.437c2.055,-0.168 1.732,-0.731 3.534,-1.49c0.866,1.294 0.447,3.233 1.314,4.527c1.198,1.789 27.543,0.617 28.61,7.606c1.778,11.641 -0.911,31.783 -1.276,34.521c-0.011,1.456 -0.023,2.913 -0.034,4.369c2.089,9.878 1.62,9.824 1.739,19.903c0.158,20.099 0.054,38.086 0.035,41.398c-0.137,23.588 0.668,30.43 -0.796,31.957c-4.029,4.204 -120.699,-14.986 -124.122,-18.324c-6.18,-6.026 -8.102,-112.299 -7.439,-128.307c0.222,-5.363 2.492,-5.439 23.292,-3.056Z" style="fill:#a3bb86;"/><path d="M948.742,1025.669c1.235,11.791 -4.848,8.304 -21.58,15.939c-1.659,0.757 -21.735,9.918 -11.708,20.131c8.053,8.202 260.486,59.1 319.035,73.412c142.478,34.827 183.709,39.88 244.369,55.934c-1.629,0.832 -3.259,1.664 -4.888,2.496c-13.055,0.972 -18.448,-2.949 -23.835,-0.507c-21.275,9.643 -28.936,-4.094 -35.023,11.471c-29.608,-7.18 -87.936,-21.479 -105.518,-25.294c-219.839,-47.703 -361.513,-84.001 -486.403,-111.314c2.644,-0.907 2.674,-0.187 4.794,-1.644c0.176,-0.121 0.253,-0.174 2.349,-1.245c12.171,-6.22 17.277,-6.979 18.869,-7.215c15.156,-2.252 68.594,-28.981 91.536,-29.069l2.349,0.045l2.349,0.38l3.306,-3.52Z" style="fill:#e8bc6c;"/><path d="M672.939,1501.809c6.044,0.044 5.828,0.165 11.87,1.674c1.876,0.469 22.767,5.687 23.409,6.009c3.808,0.423 3.823,0.291 4.112,0.457c12.541,7.207 12.921,5.892 26.502,10.822c-0.773,0.529 -3.742,-1.239 -6.288,4.303c-0.083,0.18 6.578,3.038 6.431,6.443c-0.017,0.395 -1.469,-2.123 -4.174,2.371c-0.366,0.609 -0.751,7.357 8.618,0.64l2.027,-0.943c10.445,7.4 8.923,-5.246 8.976,-6.849c12.545,-1.49 13.321,1.022 17.194,6.294c4.981,3.277 5.445,2.098 5.834,2.429c0.622,0.529 -0.07,1.91 0.552,2.44c-3.987,46.049 2.264,126.146 -1.698,129.531c-3.365,2.875 -62.658,-9.607 -105.308,-32.448c-9.426,-5.048 -7.778,-7.354 -6.935,-26.173c-0.217,-2.313 0.195,-19.358 -5.31,-21.731c-3.959,-1.707 -1.36,-2.954 0.671,-6.788c0.504,-1.764 2.094,-7.334 2.595,-22.847c0.207,-1.459 0.415,-2.919 0.622,-4.378c3.298,-6.325 2.69,-6.918 -1.705,-12.6c4.164,-26.033 -6.928,-41.3 12.002,-38.657Z" style="fill:#cb94ca;"/><path d="M835.133,1513.092c15.353,-10.125 46.023,-23.201 48.173,-18.572c2.052,4.42 4.05,123.119 -2.108,128.152c-0.169,0.138 -88.683,53.022 -93.548,40.074c-3.505,-9.33 4.175,-41.968 -1.993,-109.965c-2.319,-25.566 11.724,-23.04 32.593,-32.66c3.217,-1.483 3.815,-0.656 5.194,-3.943c1.05,-2.504 1.504,-2.461 1.736,-2.44c2.588,0.243 1.136,2.709 3.722,2.952c0.147,0.765 2.031,10.568 7.524,5.833c4.266,-3.676 -0.774,-8.893 -1.293,-9.431Z" style="fill:#ab78b1;"/><path d="M548.439,1347.882c48.331,9.478 48.25,8.859 96.495,18.78c17.148,3.526 3.357,12.988 9.581,112.877c0.484,7.765 2.448,11.771 -5.128,10.722c-19.727,-2.731 -73.168,-13.028 -79.515,-14.251c-12.136,-2.338 -11.957,-2.454 -23.947,-5.302c2.335,-5.17 2.575,-4.949 2.625,-10.616c0.854,-96.699 1.419,-96.679 -0.622,-104.79c-0.618,-2.457 -0.062,-2.364 -0.131,-5.017l0.643,-2.403Z" style="fill:#eace81;"/><path d="M899.937,369.195c20.319,7.26 0.826,38.749 -11.044,66.242c-4.303,9.967 16.304,24.963 33.159,48.05c20.208,27.68 -34.512,19.24 -62.458,17.722c-17.648,-0.959 -29.31,37.864 -45.018,48.606c-19.164,13.105 -24.152,-15.186 -33.881,-54.604c-4.62,-18.717 -22.752,-12.782 -62.896,-27.899c-35.774,-13.47 15.948,-34.668 36.468,-45.383c20.124,-10.509 1.79,-54.299 19.043,-72.158c3.288,-3.403 8.12,-7.644 52.478,30.017c15.261,12.957 17.556,1.096 74.148,-10.593Z" style="fill:#885232;"/><path d="M1520.793,1006.217c0.199,-0.503 4.859,-26.235 33.57,-37.81c58.646,-23.643 110.514,59.994 71.212,100.119c-3.026,3.089 -12.089,5.331 -13.199,5.605c-1.294,0.249 -1.285,0.059 -16.256,2.652l-2.349,0.216l-2.349,0.271l-2.498,3.25c-9.245,-2.172 -45.695,-7.414 -73.737,-36.661l2.506,-3.404l0.433,-2.44c-0.122,-9.868 -1.452,-22.26 2.669,-31.799Z" style="fill:#f4d0ae;"/><path d="M1497.127,1054.128c20.724,-10.021 14.776,19.059 84.864,37.693c17.244,4.585 64.83,8.441 77.36,4.066c3.983,-1.391 7.868,-3.067 11.838,-4.495c15.566,-5.6 64.224,49.668 72.307,107.718c4.925,35.37 -17.952,52.983 -41.791,44.237c4.347,-4.457 4.294,-4.32 9.289,-8.059c25.748,-19.276 -2.121,-92.1 -19.179,-111.41c-12.49,-14.139 -14.322,-18.727 -27.645,-15.728c-16.252,3.659 -16.468,7.891 -17.244,8.549c-3.428,-0.736 -3.809,-1.128 -5.59,1.87c3.363,20.264 10.178,23.278 1.826,26.917c-17.297,7.534 -32.933,15.757 -34.768,9.405c-0.67,-2.319 -3.905,-33.763 -34,-52.427c-20.356,-12.624 -64.543,-12.371 -90.708,30.899c-18.42,30.462 -15.971,31.659 -17.887,38.834c-1.647,6.171 -10.672,2.311 -17.853,0.573c2.559,-1.308 4.459,0.818 8.172,-7.217c0.584,-1.264 5.043,-10.913 7.9,-15.485c16.999,-27.204 14.864,-28.346 22.098,-38.558c11.976,-16.906 27.373,-15.391 14.862,-33.259c5.035,-4.942 4.925,-4.835 9.946,-9.626c0.434,-0.485 8.894,-15.343 -5.943,-5.517c-18.745,12.413 -61.164,58.239 -70.394,101.948c-1.634,7.737 -22.565,-0.594 -26.492,-1.641c18.844,-15.743 42.115,-56.487 63.853,-81.048c11.925,-12.354 13.022,-10.827 25.5,-22.393l2.363,-2.106l-2.683,-3.738Z" style="fill:#d9987b;"/><path d="M1220.525,1041.677c40.511,8.82 40.222,9.473 75.199,17.108c15.094,3.295 21.446,-0.19 21.188,15.827c-1.007,62.566 5.34,71.107 -5.077,68.675c-54.228,-12.661 -53.806,-13.658 -108.204,-26.157c-1.067,-1.312 -1.081,-3.333 -2.148,-4.645c-2.033,-2.498 -3.329,0.916 -5.723,-1.281c-0.5,-0.458 -0.499,-33.746 -0.499,-36.681c0.001,-20.693 -6.637,-31.125 13.269,-29.886l2.349,0.005l2.349,0.549l2.349,0.617l2.349,0.477l2.6,-4.607Z" style="fill:#91bdd0;"/><path d="M1286.156,1188.33c216.367,49.865 222.143,50.55 241.782,52.879c1.162,0.138 13.439,1.594 14.035,4.242c1.501,6.671 -7.967,279.99 0.007,448.828c0.104,2.21 1.258,26.647 -1.883,27.587c-4.348,1.301 -15.675,0.215 -17.032,0.085c4.265,-5.305 4.499,-5.138 4.603,-5.725c0.484,-2.725 -3.974,-76.498 -0.343,-141.498c4.711,-84.337 4.322,-272.524 -2.006,-307.309c-4.621,-25.398 -33.716,-14.819 -46.554,-20.062c-25.651,-10.475 -55.084,-10.585 -84.441,-17.525c-74.501,-17.612 -91.184,-23.131 -98.959,-25.703c-1.108,-0.609 -3.942,0.768 -5.818,-5.696c-0.56,-1.928 1.143,-3.667 -5.847,-6.117l2.458,-3.985Z" style="fill:#f6db9a;"/><path d="M734.422,1331.172c3.753,-1.923 5.283,-2.125 5.675,2.215c0.192,2.126 0.065,1.976 0.878,26.672c1.854,17.311 -0.591,17.242 0.726,38.586c-4.424,5.433 -6.013,5.488 -4.387,7.448c1.193,1.439 3.228,1.934 4.421,3.373c-2.709,27.44 5.063,36.726 -5.698,42.482c-17.452,9.336 -70.246,36.989 -72.481,34.945c-1.94,-1.774 1.262,-2.387 1.218,-33.528c-0.081,-1.358 -0.161,-2.716 -0.242,-4.074c6.794,-4.098 7.827,-3.425 8.134,-6.356c0.728,-6.94 -6.652,-8.282 -7.524,-8.441c-0.629,-0.114 -0.769,1.473 -1.398,1.359c1.111,-15.18 1.123,-15.073 -1.822,-65.997c22.204,-16.484 56.483,-28.222 72.499,-38.685Z" style="fill:#dfa67c;"/><path d="M1268.932,859.929c0.438,69.357 2.122,81.464 -13.508,78.843c-84.26,-14.128 -84.257,-13.894 -91.541,-15.356l-0.863,-2.501l-2.583,-2.44c0.074,-0.906 -1.25,-1.533 -1.176,-2.44c0.086,-1.058 1.206,-1.738 1.597,-2.719c0.748,-1.877 0.174,-3.966 0.083,-4.297c-1.75,-6.369 -2.003,-6.178 -1.689,-19.817c1.08,-46.831 -1.645,-47.19 0.191,-50.776c0.818,-1.598 38.637,6.988 41.968,7.744c30.212,6.859 30.678,1.756 60.986,7.458c3.611,0.679 3.914,3.745 4.03,3.855l2.504,2.444Z" style="fill:#93c17e;"/><path d="M1138.426,1293.456c-6.149,-5.423 -66.985,-59.081 -39.592,-96.32c12.696,-17.259 34.933,-6.619 43.573,2.268c6.483,6.669 7.673,10.231 17.411,3.026c42.774,-31.652 87.019,35.901 3.617,88.444c-13.571,8.55 -17.752,6.327 -25.009,2.582Z" style="fill:#84462d;"/><path d="M579.068,1538.272c-1.564,3.678 -5.773,7.86 2.631,13.535c-1.3,0.65 -16.473,9.734 -3.212,10.205c3.75,5.355 8.561,6.935 2.708,9.593c-6.925,3.145 -4.585,16.661 -4.424,32.416c0.151,14.793 -52.346,47.043 -58.989,50.89c-5.625,3.257 -5.847,-0.46 -5.535,-7.009c0.261,-5.458 3.257,-68.188 3.21,-68.233c-1.547,-1.487 -3.989,-1.686 -5.536,-3.173l5.102,-4.093c-1.532,-3.744 -1.321,-3.962 -1.651,-4.034c-1.428,-0.312 -1.18,0.87 -2.535,0.574l-2.253,0.078c0.747,-2.139 1.495,-4.279 2.242,-6.418c1.236,-1.025 2.473,-2.05 3.709,-3.075c-1.266,-28.763 -8.672,-32.878 5.01,-41.967c21.591,-14.343 21.941,-13.367 43.192,-27.885c18.261,-12.475 11.348,28.848 14.974,46.018l1.357,2.577Z" style="fill:#979778;"/><path d="M1429.364,1077.582c-1.907,-4.996 -1.904,-4.962 -1.089,-10.34c0.215,-1.414 0.627,-40.275 -1.885,-48.525c-4.682,-15.373 -25.776,-7.968 -24.422,-22.089c1.689,-17.627 7.877,-59.493 8.988,-60.717c3.579,-3.945 16.139,-0.104 55.961,1.791c1.157,0.055 13.534,0.644 14.25,2.64c5.007,13.956 -27.029,37.959 13.047,96.052c11.061,16.034 -23.006,6.779 -64.849,41.188Z" style="fill:#a46eaf;"/><path d="M1102.762,1094.511c-5.465,-1.836 -5.86,-2.246 -7.245,-10.113c-5.383,-30.576 -18.505,-81.793 -17.326,-85.64c0.992,-3.237 54.243,-33.213 59.969,-32.048c3.305,0.673 4.255,1.401 11.545,42.045c16.153,90.059 21.776,90.339 17.861,97.124c-1.476,2.558 -11.935,0.216 -12.948,-0.01c-24.215,-5.422 -23.809,-6.729 -51.856,-11.358Z" style="fill:#cd5d5c;"/><path d="M1381.874,1128.155c-2.648,8.62 -3.935,8.373 -2.527,17.08c-0.025,0.56 -0.315,6.994 -0.315,6.994c-1.005,3.878 -2.787,7.606 -48.084,-5.087c-5.137,-1.44 -1.877,-4.112 -2.473,-67.643c-0.148,-15.8 1.889,-16.364 15.829,-22.988c66.557,-31.628 67.68,-34.633 71.032,-30.812c3.186,3.632 2.93,53.163 2.587,56.315c-1.629,14.997 -14.694,6.448 -36.05,46.141Z" style="fill:#6e91a7;"/><path d="M1495.249,1183.483c-16.559,-3.411 -26.886,0.443 -21.344,-16.191c24.624,-73.906 106.606,-91.59 126.144,-11.95c2.182,8.896 -1.101,9.404 -34.743,25.989c-28.411,14.006 -32.832,8.72 -70.057,2.152Z" style="fill:#f4d1b0;"/><path d="M952.617,934.051c37.572,-5.329 37.43,-4.876 75.105,-10.184c15.444,-2.176 21.541,-8.91 24.767,7.017c11.016,54.388 12.163,56.371 7.992,58.2c-1.349,0.591 -71.131,12.248 -77.322,13.282c-2.893,0.473 -26.863,6.948 -29.877,-1.248c-0.912,-2.48 -11.424,-57.987 -11.717,-60.732c-0.389,-3.653 10.066,-6.103 11.051,-6.334Z" style="fill:#98bfd1;"/><path d="M966.533,1012.298c70.298,-4.931 95.185,-15.97 100.388,-10.213c5.673,6.276 17.638,77.898 18.783,84.753c1.04,6.225 -4.339,2.732 -112.081,-19.528c1.238,-6.059 3.714,-6.197 -1.721,-29.513c-2.971,-12.745 -1.712,-12.803 -5.37,-25.499Z" style="fill:#df7c74;"/><path d="M406.655,838.595c-0.717,-0.829 -8.966,-10.364 -8.966,-10.364c-7.898,-13.258 6.106,-11.235 331.28,-310.508c10.966,-10.093 23.012,4.242 19.18,17.668c-0.75,2.629 -137.599,128.561 -167.293,156.851c-19.286,18.373 -96.74,91.115 -105.164,99.027c-50.783,47.693 -56.201,57.877 -69.037,47.326Z" style="fill:#e3bdce;"/><path d="M1063.788,1155.686c-7.095,-5.038 -6.904,-5.231 -15.289,-6.775c-82.263,-15.147 -81.708,-17.474 -88.852,-18.778c-54.258,-9.908 -140.424,-37.478 -141.049,-37.583c-7.273,-1.23 -6.215,11.902 -6.244,21.208c-0.029,9.327 -0.358,114.131 0.036,116.583c1.418,8.813 -2.171,7.351 -3.198,8.436l-2.663,2.398c-0.346,-0.074 -4.321,-0.924 -4.321,-0.924c-5.211,-0.659 -4.919,-1.093 -9.273,-3.985c0.985,-2.899 1.871,-2.45 1.924,-5.664c0.054,-3.203 1.942,-9.008 2.189,-9.769c0.086,-0.263 -4.128,-136.673 -1.742,-146.153c1.771,-7.036 36.11,9.722 267.36,62.122c11.508,2.608 5.255,7.435 1.12,18.885Z" style="fill:#f2d39f;"/><path d="M651.952,1520.881c-1.306,1.627 -2.612,3.253 -3.918,4.88c0.24,0.86 -0.835,1.755 -0.595,2.615c0.44,1.576 1.749,2.193 1.964,2.295c1.161,0.547 0.951,-0.92 2.011,-0.42c-0.683,9.116 -3.417,10.428 3.252,16.351c-3.695,3.348 -6.75,3.236 -3.623,7.117c0.539,0.669 0.17,1.961 0.858,2.462c0.581,0.423 1.529,-0.724 2.11,-0.3c-6.045,8.764 -1.381,12.543 -2.195,21.288c-1.917,20.586 1.976,27.29 -0.253,31.547c-1.793,3.423 -28.23,2.174 -34.74,0.555c-0.841,-6.194 0.185,-13.592 -5.038,-14.296c-16.358,-2.206 -14.773,10.958 -14.923,12.174c-6.12,-1.152 -8.774,1.095 -9.189,-5.454c-1.683,-26.564 3.138,-56.535 -9.186,-39.682c-13.262,-0.471 1.912,-9.555 3.212,-10.205c10.974,3.838 15.589,-9.789 -0.196,-15.048c9.26,-9.86 4.671,-11.805 5.235,-42.393c0.086,-4.64 2.993,-3.232 55.631,5.153c13.262,2.112 8.631,7.572 9.582,21.362Z" style="fill:#da938b;"/><path d="M771.548,1450.257c17.395,3.838 18.938,6.193 23.39,8.712c12.594,-2.204 26.369,8.734 37.785,8.879c4.312,0.055 3.927,0.934 7.364,3.361c-13.431,7.172 -0.928,8.8 -0.249,8.81c8.99,0.122 8.185,-4.415 9.632,-6.198c13.632,1.878 13.093,4.697 23.157,4.373c1.973,-0.064 8.204,5.068 -2.242,6.719c-11.014,1.742 -48.731,20.482 -49.946,20.706c-3.7,0.682 -3.304,1.257 -6.544,3.242c-0.674,-5.528 -1.227,-5.178 -4.883,-9.465c-9.252,2.282 -7.576,4.869 -9.315,14.551c-0.699,0.43 -8.525,5.24 -8.635,5.538c-0.953,2.574 -0.043,13.839 -9.584,3.284c-2.059,-0.881 -15.541,-6.651 -26.162,-9.877c-5.85,-3.045 -5.844,-2.664 -11.662,-4.785l-2.85,-0.845c-14.921,-4.377 -14.654,-5.4 -30.263,-4.845c-5.156,0.183 -10.623,-12.488 -23.805,-6.362c-3.731,1.734 -3.954,-0.063 -4.322,-4.225c9.03,-8.065 30.927,-11.655 37.023,-22.478c5.397,9.278 6.824,7.805 9.693,7.566c1.904,-3.278 3.604,-4.227 0.217,-5.933c-0.695,-0.35 -1.61,0.094 -2.305,-0.256c2.146,-2.1 -0.069,-4.488 8.979,-8.785c2.202,-1.046 4.575,-1.657 6.819,-2.603c4.465,-1.882 2.81,-6.324 14.695,-6.508c4.984,-0.077 4.813,2.828 9.577,0.942c0.417,-0.165 0.306,-0.279 4.438,-3.517Z" style="fill:#d593c0;"/><path d="M423.948,1469.225c19.57,-9.086 18.559,-14.586 40.028,-12.294c22.269,2.377 60.592,4.176 63.359,10.44c9.151,20.712 21.657,9.345 21.506,16.941c-0.048,2.398 -40,30.453 -49.675,29.052c-23.743,-3.438 -23.209,-6.788 -35.463,-6.18c-1.176,0.058 -1.168,-0.033 -46.825,-6.212c-17.631,-1.431 -17.493,-1.52 -35.056,-2.33c-1.34,-1.433 -1.069,-1.509 -2.299,-4.234c2.752,-1.664 2.949,-1.208 34.938,-19.798c5.362,-1.372 5.04,-1.811 9.485,-5.385Z" style="fill:#aec28d;"/><path d="M876.238,385.064c1.65,-0.466 20.216,-5.703 21.351,-2.835c1.67,4.221 0.037,4.277 -20.033,50.799c-6.271,14.535 7.214,22.323 32.38,52.722c10.368,12.524 -27.293,7.437 -53.761,6.474c-21.754,-0.791 -33.811,35.704 -45.125,47.94c-8.171,8.836 -15.093,-30.176 -19.409,-45.059c-7.971,-27.49 -18.126,-19.657 -66.233,-35.952c-1.082,-0.366 -10.333,-3.5 4.988,-12.482c5.556,3.49 5.643,5.752 11.226,2.5c18.58,-10.821 29.377,-2.806 51.229,-9.257c19.069,1.03 31.589,-7.536 33.855,-9.087c2.647,-1.811 27.981,-19.144 32.408,-23.472c18.138,-17.736 23.272,-15.27 23.578,-15.577c0,-0 -5.938,-6.178 -6.454,-6.715Z" style="fill:#e196a5;"/><path d="M1339.647,913.847c-2.694,-3.65 -2.126,-4.679 -6.603,-5.221c-7.099,-0.86 -45.211,11.254 -47.103,12.022c-7.475,3.032 -7.324,-1.115 -7.161,-9.495c1.15,-59.354 -5.178,-64.55 7.712,-69.572c53.365,-20.792 59.922,-32.336 59.686,-20.631c-1.182,58.567 5.535,118.986 -4.816,96.116c-0,-0 -1.577,-2.96 -1.714,-3.217Z" style="fill:#6c9258;"/><path d="M1812.145,1070.397c22.325,5.168 22.112,5.228 44.636,9.266c2.616,0.469 2.796,3.666 1.922,4.22c-9.404,5.969 -59.714,30.312 -64.953,32.846c-54.708,26.47 -57.079,28.637 -59.192,23.841c-5.923,-13.445 -14.41,-17.163 -1.854,-23.828c11.845,-6.288 56.048,-24.507 39.138,-33.946c-4.247,-2.37 -56.279,-11.423 -56.39,-15.378c-0.021,-0.742 8.624,-13.882 12.256,-14.518c6.792,-1.191 6.666,0.905 84.437,17.497Z" style="fill:#d19854;"/><path d="M561.978,1329.609c4.133,-1.978 44.384,-21.237 52.145,-23.599c9.245,-2.813 60.167,4.045 94.172,14.698c10.082,3.158 16.464,-3.839 16.236,7.06c-23.24,4.387 -38.762,16.97 -67.789,31.773c-6.969,-2.973 -6.895,-3.046 -7.526,-3.211c-87.608,-22.824 -88.875,-15.305 -96.335,-17.766c-9.041,-2.982 0.734,-4.394 9.097,-8.954Z" style="fill:#f0c992;"/><path d="M1795.512,967.464c5.171,7.707 61.855,92.199 62.982,97.51c1.648,7.766 -4.632,-0.112 -104.886,-20.234c-1.624,-0.326 -19.325,-3.879 -19.673,-6.613c-0.455,-3.579 5.056,-21.254 10.189,-19.798c15.883,4.508 50.418,19.097 52.526,2.761c1.399,-10.843 -34.699,-53.927 -30.428,-57.663c4.628,-4.048 5.727,-2.067 10.187,-6.542c0.609,-0.611 7.404,-7.43 9.018,-5.767c1.061,1.094 0.746,1.208 10.087,16.346Z" style="fill:#d29856;"/><path d="M1544.371,1200.442c4.858,-1.368 14.838,-4.179 58.331,-24.502c46.763,-21.851 49.276,-22.968 50.531,-18.706c6.394,21.716 4.766,23.611 -2.903,27.566c-94.377,48.673 -103.039,47.485 -112.956,47.458c-4.652,-0.013 -64.767,-13.599 -72.957,-15.558c4.44,-5.258 4.206,-5.638 4.786,-5.668c0.766,-0.04 0.618,0.515 9.55,0.812c6.893,0.229 30.79,-5.407 35.151,-6.597l2.349,0.144l2.349,-0.047l2.349,0.386l2.349,-1.224c1.604,-1.342 3.208,-2.683 4.811,-4.025c5.42,-0.013 10.84,-0.026 16.26,-0.038Z" style="fill:#e0ad63;"/><path d="M1646.925,1116.698c0.777,-0.658 0.993,-4.89 17.244,-8.549c13.322,-2.999 15.155,1.589 27.645,15.728c17.058,19.31 44.927,92.134 19.179,111.41c-4.995,3.74 -4.942,3.602 -9.289,8.059c-19.49,-10.919 -18.792,-12.605 -26.546,-34.208c1.998,-1.176 1.008,-2.06 3.177,-3.337c1.172,-0.69 1.162,1.049 2.039,0.266c0.158,-0.141 0.085,-3.684 -0.351,-4.816c-0.346,-0.897 -0.651,-1.689 -1.177,-12.014c-1.658,-32.531 5.127,-46.079 -9.732,-39l-2.524,-2.358l-2.349,-1.925l-2.349,-0.547l-2.723,0.108c-5.598,-14.695 -5.604,-14.492 -12.245,-28.817Z" style="fill:#e9b38f;"/><path d="M1288.489,1261.574c4.241,44.447 -67.399,143.661 -159.219,87.742c-15.462,-9.417 -34.326,-34.791 -34.511,-35.626c-0.317,-1.43 3.78,-1.11 3.463,-2.54c4.506,3.918 21.652,20.289 44.455,27.192c5.594,1.693 38.424,11.631 72.626,-5.723c52.323,-26.549 52.43,-67.23 54.558,-72.472c1.794,-4.42 3.364,-1.675 18.627,1.427Z" style="fill:#d17a8f;"/><path d="M1126.345,1201.435c11.229,7.867 11.44,7.572 19.804,18.6c7.654,10.091 16.178,-16.022 36.511,-15.446c11.248,0.319 14.882,15.709 15.057,16.117l-3.282,1.885c-10.637,4.669 -6.7,23.497 -41.623,54.505c-3.546,3.148 -2.939,3.492 -2.652,8.221c-2.992,0.354 -11.976,1.417 -29.783,-23.908c-37.947,-53.969 -11.365,-70.838 5.968,-59.975Z" style="fill:#e27a96;"/><path d="M1112.48,889.661c1.454,-0.479 2.908,-0.957 4.361,-1.436c5.155,1.779 6.565,2.358 18.873,59.524c2.65,12.311 -4.835,9.061 -47.296,31.122c-5.521,2.868 -13.01,8.293 -15.335,0.228c-1.212,-4.205 -0.789,-4.266 -12.597,-53.292c-2.697,-11.198 4.637,-7.921 51.994,-36.147Z" style="fill:#6f93a5;"/><path d="M1296.204,942.461c25.183,42.839 49.915,71.651 47.725,75.542c-1.555,2.764 -90.522,-13.774 -118.989,-21.348l0.987,-2.552l1.393,-2.906l2.349,-0.917l2.349,-0.161c5.567,-1.036 8.094,2.1 9.965,-5.291c1.722,-6.804 6.373,-5.649 7.574,-6.781c15.423,-14.536 16.359,-13.213 31.239,-28.409c0.608,-0.621 4.667,-4.766 9.58,-4.846c3.167,-0.052 2.495,1.358 2.717,1.269c2.337,-0.934 0.758,-2.658 3.11,-3.599Z" style="fill:#f5d587;"/><path d="M1329.684,809.462c-1.048,0.604 -0.826,2.583 -1.874,3.187c-3.098,1.786 -4.367,-1.572 -41.292,16.635c-17.769,8.761 -18.441,6.662 -37.93,3.016c-39.755,-7.437 -39.757,-6.48 -79.78,-12.172c-12.735,-1.811 10.541,-10.366 11.723,-10.8c49.54,-18.208 53.594,-17.568 58.386,-16.812c82.062,12.943 84.021,13.844 90.767,16.946Z" style="fill:#729761;"/><path d="M1195.52,1024.037c4.332,-2.472 32.928,-15.133 38.848,-15.302c4.953,-0.141 34.464,11.638 100.897,20.319c40.596,5.305 60.785,-25.808 68.114,-15.36c3.952,5.634 -3.369,2.916 -75.058,38.939c-7.737,3.888 -81.668,-16.998 -119.939,-23.468c-7.383,-1.248 -9.352,1.869 -12.861,-5.128Z" style="fill:#92b6c7;"/><path d="M1340.103,930.653c47.4,64.71 47.304,66.175 46.842,73.189c-0.349,5.306 -29.085,17.447 -32.383,11.949c-21.941,-36.579 -21.486,-36.731 -46.316,-71.257c-12.163,-16.913 -10.039,-18.904 -8.454,-19.322c31.471,-8.299 33.025,-5.939 34.596,-3.555c0.469,0.712 0.423,0.666 5.715,8.996Z" style="fill:#dfae6b;"/><path d="M1497.127,1054.128l2.683,3.738l-2.363,2.106c-12.478,11.565 -13.575,10.038 -25.5,22.393c-21.738,24.561 -45.009,65.305 -63.853,81.048c-11.63,-2.599 -18.797,0.247 -17.814,-15.609c3.172,-51.183 76.884,-80.468 106.847,-93.676Z" style="fill:#efc2a1;"/><path d="M1445.733,892.535c7.411,0.602 63.511,0.95 53.001,18.068c-7.632,12.43 -10.903,18.047 -15.372,17.846c-15.08,-0.676 -14.85,-1.665 -56.36,-3.071c-12.408,-0.42 -16.02,3.677 -42.07,-29.032c-7.875,-9.887 14.801,-6.787 60.802,-3.811Z" style="fill:#daa5c2;"/><path d="M876.238,385.064c0.516,0.537 6.454,6.715 6.454,6.715c-0.306,0.307 -5.44,-2.159 -23.578,15.577c-4.426,4.328 -29.76,21.661 -32.408,23.472c-2.267,1.551 -14.787,10.116 -33.855,9.087c-21.852,6.451 -32.65,-1.564 -51.229,9.257c-5.583,3.252 -5.67,0.99 -11.226,-2.5c13.69,-7.589 13.129,-7.86 27.308,-15.139c23.077,-11.847 12.987,-21.596 18.655,-67.161c1.959,-15.751 40.131,21.547 50.21,29.983c7.721,6.462 25.824,-1.228 49.669,-9.291Z" style="fill:#f6d6d1;"/><path d="M1523.442,808.932c56.067,-36.397 72.008,31.165 60.403,35.423c-10.027,3.678 -9.41,-1.198 -14.191,-10.983c-9.34,-19.114 -33.028,-13.633 -41.454,-2.581c-13.96,18.309 2.56,36.788 1.764,38.768c-7.51,18.683 -53.712,-23.345 -6.522,-60.626Z" style="fill:#edbb96;"/><path d="M374.326,859.238c15.807,13.865 15.827,14.086 15.991,15.81c0.625,6.606 -133.173,137.434 -151.602,151.626c-12.58,-2.026 -13.985,-2.358 -23.597,-10.849c27.836,-25.949 31.904,-22.095 47.56,-38.19c32.784,-33.702 91.033,-84.296 107.143,-115.138l4.505,-3.259Z" style="fill:#d46d87;"/><path d="M366.549,847.26c3.491,6.423 3.573,6.1 7.777,11.978l-4.505,3.259c-16.109,30.843 -74.359,81.437 -107.143,115.138c-15.656,16.095 -19.725,12.241 -47.56,38.19c-11.202,-10.71 -9.709,-11.537 -14.586,-18.521c5.575,0.182 6.747,1.85 9.075,-2.611c11.097,-21.258 143.719,-121.381 150.1,-141.54l2.62,-3.115l4.222,-2.777Z" style="fill:#f089a8;"/><path d="M454.761,563.782c-24.159,-12.751 -36.893,-12.021 -27.102,-16.177c3.242,-1.376 6.703,-2.284 9.937,-3.677c44.103,-18.993 27.598,-56.851 35.42,-60.664c14.083,-6.864 -0.922,48.682 43.04,57.242c25.243,4.916 -3.552,13.061 -3.94,13.237c-36.618,16.537 -28.812,57.632 -31.407,61.971c-9.074,15.173 -5.995,-31.84 -25.948,-51.932Z" style="fill:#e390b6;"/><path d="M1268.932,859.929l-2.504,-2.444c-0.116,-0.111 -0.419,-3.176 -4.03,-3.855c-30.308,-5.702 -30.773,-0.6 -60.986,-7.458c-3.331,-0.756 -41.15,-9.342 -41.968,-7.744c-1.837,3.586 0.888,3.945 -0.191,50.776c-0.314,13.639 -0.061,13.447 1.689,19.817c0.091,0.331 0.665,2.42 -0.083,4.297c-0.391,0.981 -1.511,1.661 -1.597,2.719c-0.074,0.906 1.25,1.533 1.176,2.44l2.583,2.44l0.863,2.501c-8.1,-1.855 -15.612,-2.584 -15.682,-7.463c-0.099,-6.822 -1.128,-77.947 1.691,-85.261c2.694,-6.989 32.949,6.721 105.58,12.959c0.933,0.08 10.066,0.864 11.558,1.94c2.3,1.659 1.264,2.129 1.902,14.338Z" style="fill:#bbd093;"/><path d="M787.996,1248.102l2.555,1.507c5.118,10.278 8.408,8.791 9.334,20.135c-0.713,4.959 -0.058,13.504 0.031,14.674c-0.379,21.101 0.059,20.998 2.34,65.884c-2.282,1.729 -1.86,2.01 -4.474,3.391c-0.687,0.363 -6.534,3.827 5.01,8.546c0.843,13.873 0.943,13.697 0.467,27.473c-0.828,9.448 0.157,9.586 -4.19,17.904c-1.37,1.99 -2.74,3.979 -4.11,5.969c-3.181,1.568 -2.961,1.607 -6.568,2.416c0.191,-10.807 0.649,-10.599 -0.247,-16.916c3.526,0.26 3.276,0.161 6.689,-0.291c5.204,-0.689 2.463,-5.084 -5.904,-9.616c0.236,-56.047 -3.119,-102.233 -2.812,-104.586c2.641,-20.206 -5.684,-23.427 1.879,-36.49Z" style="fill:#c98193;"/><path d="M948.742,1025.669l-3.306,3.52l-2.349,-0.38l-2.349,-0.045c-22.942,0.088 -76.38,26.817 -91.536,29.069c-1.592,0.237 -6.698,0.995 -18.869,7.215c-2.096,1.071 -2.173,1.124 -2.349,1.245c-2.12,1.457 -2.151,0.738 -4.794,1.644c-8.329,-1.377 -8.109,-1.564 -16.447,-2.961l-0.957,-2.979c1.699,-1.135 1.766,-3.267 24.589,-11.666c108.841,-40.05 114.253,-43.814 116.537,-34.039c0.724,3.099 1.106,6.278 1.83,9.377Z" style="fill:#f5d9a2;"/><path d="M917.539,1423.689c8.496,-5.687 9.289,-0.005 124.032,25.032c11.774,2.569 82.261,17.949 145.832,38.14c0.77,0.245 15.835,5.029 7.071,7.44c-3.978,1.095 -110.526,-30.93 -204.479,-48.428c-26.784,-4.988 -28.37,-7.473 -63.64,-16.583c-4.12,-1.064 -5.187,0.49 -8.816,-5.602Z" style="fill:#8f4e4d;"/><path d="M1762.702,903.894c4.88,43.097 -31.874,37.343 -36.413,28.702c-0.945,-1.8 -9.792,-24.117 -10.626,-26.221c-5.821,-14.686 32.506,-38.818 47.039,-2.481Z" style="fill:#814333;"/><path d="M1365.581,942.86c0.443,-3.375 5.465,-41.652 7.084,-41.942c3.046,-0.546 3.382,0.095 27.568,28.124c6.311,7.314 -1.421,8.44 -4.397,55.096c-0.747,0.494 -1.494,0.988 -2.241,1.482c-4.904,-1.866 -3.918,-3.05 -12.195,-15.103c-8.844,-12.881 -14.834,-17.825 -15.82,-27.657Z" style="fill:#f1b6c2;"/><path d="M1520.793,1006.217c-1.318,-0.088 -1.515,1.973 -4.41,-0.296c-7.711,-6.042 30.791,-72.935 93.395,-37.823c29.714,16.665 56.454,66.825 16.068,107.793c-7.386,4.393 -9.5,5.933 -13.47,-1.76c1.11,-0.274 10.173,-2.516 13.199,-5.605c39.302,-40.125 -12.566,-123.762 -71.212,-100.119c-28.711,11.575 -33.371,37.306 -33.57,37.81Z" style="fill:#976245;"/><path d="M1478.858,1191.086c24.55,5.965 24.412,5.362 49.253,9.394c-1.604,1.342 -3.208,2.683 -4.811,4.025l-2.349,1.224l-2.349,-0.386l-2.349,0.047l-2.349,-0.144c-4.361,1.191 -28.258,6.826 -35.151,6.597c-8.932,-0.297 -8.784,-0.853 -9.55,-0.812c-0.58,0.031 -0.346,0.41 -4.786,5.668c-3.939,-0.994 -23.251,-5.87 -49.305,-12.153c6.087,-15.565 13.748,-1.827 35.023,-11.471c5.387,-2.442 10.78,1.479 23.835,0.507c1.629,-0.832 3.259,-1.664 4.888,-2.496Z" style="fill:#e6b865;"/><path d="M548.439,1347.882l-0.643,2.403c0.069,2.653 -0.487,2.56 0.131,5.017c2.041,8.111 1.476,8.091 0.622,104.79c-0.05,5.667 -0.29,5.446 -2.625,10.616c-11.079,-5.635 -7.804,-8.642 -9.082,-30.16c-0.446,-7.506 -5.373,-90.521 0.274,-94.005c1.844,-1.138 1.932,-0.373 11.321,1.34Z" style="fill:#f5daa1;"/><path d="M366.549,847.26l-4.222,2.777l-2.62,3.115c-6.381,20.159 -139.003,120.282 -150.1,141.54c-2.329,4.461 -3.501,2.793 -9.075,2.611c-1.621,-4.015 -1.554,-3.678 -1.621,-4.015c-1.7,-8.481 -2.198,-10.964 78.85,-79.485c79.864,-67.52 82.64,-74.003 88.788,-66.544Z" style="fill:#f6aebf;"/><path d="M1246.172,1180.077c14.546,3.121 11.778,8.617 14.429,35.985c0.749,7.732 5.515,56.936 -28.869,92.389c-1.089,1.123 -1.026,0.935 -4.377,3.378c-4.811,-7.081 4.349,-5.651 13.504,-30.069c2.119,-5.651 10.627,-28.344 7.446,-75.412c-0.119,-1.765 -0.503,-7.441 -3.614,-21.799c0.494,-1.491 0.987,-2.982 1.481,-4.472Z" style="fill:#d89b5e;"/><path d="M863.193,1369.597l2.39,0.02c0.66,0.5 4.634,1.298 3.211,7.714c-0.463,2.088 -1.136,5.12 1.036,26.765c0.071,0.704 -0.373,2.805 35.079,10.316c1.551,0.858 3.102,1.716 4.652,2.575c0.663,0.885 1.326,1.771 1.99,2.656c-7.19,8.864 -8.985,-0.682 -39.504,-4.491c-2.331,-0.291 -3.067,1.017 -0.115,30.473c-0.141,9.355 0.236,9.178 -0.569,18.404c-5.536,4.378 -5.857,6.897 -8.143,4.116c-2.257,-2.746 -2.206,-2.548 -4.618,-5.335c4.364,-5.867 1.915,-6.529 1.526,-15.28c3.798,-22.786 -3.187,-40.535 -2.381,-70.461c0.089,-3.308 -0.61,-3.13 -0.808,-4.146c2.336,-3.163 2.508,-2.695 6.253,-3.324Z" style="fill:#b97775;"/><path d="M871.932,1445.624c5.144,1.524 42.587,12.617 49.94,46.179c1.004,4.58 -0.396,4.397 -0.76,8.439c-2.497,-0.215 -2.378,0.151 -10.685,-2.247c-15.085,-4.354 -16.804,-3.281 -17.364,-8.481c-1.914,-17.777 -9.879,-12.342 -21.701,-25.486c0.805,-9.225 0.427,-9.049 0.569,-18.404Z" style="fill:#d68298;"/><path d="M1220.525,1041.677l-2.6,4.607l-2.349,-0.477l-2.349,-0.617l-2.349,-0.549l-2.349,-0.005c-19.906,-1.239 -13.269,9.193 -13.269,29.886c-0,2.935 -0.001,36.223 0.499,36.681c2.395,2.197 3.691,-1.217 5.723,1.281c1.067,1.312 1.081,3.333 2.148,4.645c-5.152,-1.104 -5.054,-0.81 -13.981,-2.997c-12.67,-3.105 -7.865,-8.279 -8.349,-12.687c-0.004,-5.093 -0.051,-59.399 0.461,-63.663c0.778,-6.479 22.199,0.331 38.765,3.894Z" style="fill:#b3cdda;"/><path d="M1500.977,1078.25c12.511,17.868 -2.886,16.353 -14.862,33.259c-7.234,10.213 -5.099,11.354 -22.098,38.558c-2.857,4.572 -7.316,14.221 -7.9,15.485c-3.713,8.035 -5.613,5.909 -8.172,7.217c-3.675,-2.548 -11.365,-7.88 19.922,-53.507c12.553,-18.306 28.649,-35.568 33.109,-41.013Z" style="fill:#f2c19f;"/><path d="M563.645,317.589c0.233,-0.882 4.54,-17.179 7.93,-8.664c9.662,24.265 8.58,24.513 9.604,26.542c5.485,10.88 37.749,10.295 18.131,17.851c-23.315,8.98 -19.749,13.639 -24.459,41.492c-3.715,21.97 -7.015,-3.565 -15.242,-24.49c-7.019,-17.853 -40.012,-17.225 -19.614,-23.336c8.659,-2.594 15.445,1.056 23.651,-29.396Z" style="fill:#e190b3;"/><path d="M1708.84,1079.625c45.742,8.61 47.314,6.039 49.061,9.771c2.086,4.454 -6.421,4.554 -20.557,12.623c-15.072,8.604 -18.176,13.869 -29.399,0.229c-9.133,-11.1 -18.028,-16.018 -15.065,-19.964c3.744,-4.985 14.687,-2.901 15.959,-2.659Z" style="fill:#b06567;"/><path d="M1567.819,979.338l2.812,2.567l1.998,1.895c2.467,5.005 11.482,8.639 12.061,9.877c2.035,4.353 6.491,-6.807 11.759,-12.231c18.657,19.456 -16.762,18.787 -14.253,29.703c5.477,23.825 19.349,6.47 22.242,12.787c2.846,6.214 -19.463,16.378 -28.505,-1.118c-2.668,-5.163 -3.704,-5.793 -8.485,-2.739c-15.81,10.101 -25.462,-22.288 -14.449,-12.596c1.067,0.939 12.546,11.041 17.46,-1.069c4.622,-11.392 -9.684,-12.155 -2.64,-27.076Z" style="fill:#7a4833;"/><path d="M964.765,712.616c-3.641,-21.125 -5.625,-25.888 -6.517,-28.029c-7.31,-17.543 -34.031,-15.492 -17.167,-23.651c35.366,-17.112 11.411,-48.219 26.351,-41.329c11.864,5.471 -12.254,29.202 31.093,39.815c7.975,1.952 -6.006,7.359 -6.797,7.665c-24.857,9.613 -16.515,47.086 -21.703,48.093c-1.022,0.198 -1.773,-1.506 -2.795,-1.308l-2.465,-1.257Z" style="fill:#e18eb4;"/><path d="M858.294,959.67c9.947,11.428 26.56,11.853 12.528,19.135c-24.897,12.921 -16.815,63.224 -26.865,38.796c-6.342,-15.415 5.645,-23.892 -20.71,-37.648c-13.986,-7.3 8.839,-10.362 12.952,-20.812c5.907,-15.005 9.18,-48.785 14.501,-22.736c2.613,12.79 6.747,21.485 7.594,23.264Z" style="fill:#e9d491;"/><path d="M1286.156,1188.33l-2.458,3.985c6.99,2.451 5.287,4.189 5.847,6.117c1.877,6.465 4.71,5.088 5.818,5.696c-8.053,8.113 -3.182,11.673 -5.005,36.271c-0.053,0.72 -0.781,0.412 -1.713,8.852c-9.519,-2.056 -15.682,-2.265 -15.809,-8.725c-0.484,-24.612 -0.553,-24.399 -2.293,-48.919c-0.771,-10.861 5.225,-4.616 15.612,-3.278Z" style="fill:#d69d56;"/><path d="M1743.389,1003.877c-0.676,-16.041 -0.996,-15.854 -2.213,-31.743c-0.437,-5.709 9.011,-7.315 13.97,0.61c22.766,36.387 33.472,44.961 21.907,42.406c-26.191,-5.786 -31.139,-0.403 -33.663,-11.273Z" style="fill:#b36066;"/><path d="M414.336,1354.896c-15.327,15.009 -4.597,41.255 -14,32.129c-3.923,-3.807 1.971,-26.852 -16.15,-34.522c-9.141,-3.869 10.756,-5.75 13.011,-22.053c1.993,-14.412 4.245,-13.832 5.221,-13.292c3.68,2.039 2.488,24.027 14.708,27.859c0.121,0.038 11.537,1.782 1.807,7.217c-2.339,1.307 -2.196,1.271 -4.598,2.661Z" style="fill:#e8c78e;"/><path d="M1296.204,942.461c-2.352,0.94 -0.773,2.664 -3.11,3.599c-0.222,0.089 0.45,-1.321 -2.717,-1.269c-4.914,0.081 -8.972,4.226 -9.58,4.846c-14.88,15.197 -15.816,13.874 -31.239,28.409c-1.201,1.132 -5.852,-0.023 -7.574,6.781c-1.871,7.391 -4.398,4.255 -9.965,5.291l-2.349,0.161l-2.349,0.917l-1.393,2.906l-0.987,2.552c-4.407,-2.324 -4.53,-2.135 -4.759,-2.51c-3.188,-5.2 51.207,-52.206 65.697,-61.381c4.741,-3.002 6.599,2.103 10.325,9.696Z" style="fill:#f8e4a3;"/><path d="M532.239,1157.137l1.924,0.843l2.704,1.511c2.591,18.584 18.525,6.912 26.985,23.096c3.403,6.511 3.483,6.221 8.092,11.582l-5.767,5.231c-9.571,-4.207 -12.812,-3.101 -16.303,-6.981c-5.71,-6.347 -8.395,1.339 -15.355,-3.426c-0.996,-4.785 -0.983,-4.553 -3.028,-8.694c-0.643,-0.899 -1.285,-1.797 -1.928,-2.696c-5.433,-3.77 -10.579,-5.25 -11.56,-5.532c-0.26,-0.4 -7.486,-6.672 14.235,-14.935Z" style="fill:#ebc0b1;"/><path d="M789.253,766.234l2.957,-0.109c1.304,-0.292 1.499,-2.378 2.803,-2.67c5.293,-1.185 -0.932,20.206 18.445,29.275c19.477,9.116 -6.715,10.628 -12.975,30.015c-1.082,3.351 -4.734,46.343 -10.834,17.543c-4.097,-19.343 -0.699,-22.068 -17.234,-34.493c-6.451,-4.848 -8.434,-1.631 -10.414,-2.665c-0.92,-0.481 0.893,-2.45 -0.027,-2.93l0.13,-2.796c22.92,-1.114 22.375,-9.073 27.149,-31.17Z" style="fill:#eac693;"/><path d="M1807.123,648.647c1.531,-0.423 1.209,-0.804 2.778,-1.237c0.315,-0.087 0.298,-0.048 4.025,-0.646c5.492,12.881 67.623,111.404 68.147,113.196c8.669,29.638 -60.399,-83.752 -74.949,-111.312Z" style="fill:#a6555f;"/><path d="M1542.441,860.678c-20.781,9.543 -16.54,-35.981 8.877,-31.738c10.771,1.798 18.861,18.166 13.738,20.494c-11.63,5.284 -11.452,5.13 -22.616,11.244Z" style="fill:#e898a0;"/><path d="M1732.993,927.853c-0.98,-2.163 -11.313,-24.97 -8.954,-28.402c3.069,-4.464 9.736,-4.911 10.67,-4.974c34.224,-2.297 18.226,50.958 -1.716,33.376Z" style="fill:#eca3a8;"/><path d="M903.153,1245.476c0.702,3.25 1.405,6.499 2.107,9.749c0.003,10.276 -1.749,14.044 6.315,22.81c5.586,6.071 7.329,3.628 12.926,9.766c-4.257,-0.286 -4.113,-0.08 -8.171,0.81c-13.447,16.309 -4.013,20.445 -13.197,39.744c-5.843,-17.362 3.704,-23.715 -11.609,-39.169c-2.691,-2.716 -1.68,-3.097 -2.219,-6.508c2.881,-1.011 2.789,-0.922 5.188,-2.638c8.249,-9.966 4.626,-29.23 6.699,-33.881c0.289,-0.65 1.671,-0.034 1.96,-0.683Z" style="fill:#f3bc95;"/><path d="M724.531,1327.767c5.141,1.46 4.971,1.432 9.89,3.405c-16.016,10.463 -50.295,22.201 -72.499,38.685c-3.229,-4.793 -4.872,-9.443 -5.18,-10.317c29.027,-14.803 44.548,-27.386 67.789,-31.773Z" style="fill:#a26757;"/><path d="M682.413,1491.829c0.367,4.162 0.591,5.959 4.322,4.225c13.182,-6.126 18.649,6.545 23.805,6.362c15.609,-0.555 15.342,0.468 30.263,4.845l2.85,0.845c-0.657,5.99 -0.891,5.984 -0.71,6.47c1.64,4.401 3.594,3.864 2.534,8.358c-0.658,-0.239 -1.179,1.279 -1.837,1.04c-0.431,-0.157 -0.356,-0.237 -4.807,-3.202c-13.581,-4.929 -13.961,-3.615 -26.502,-10.822c-0.29,-0.166 -0.305,-0.034 -4.112,-0.457c-0.642,-0.322 -21.533,-5.541 -23.409,-6.009c-6.043,-1.509 -5.826,-1.631 -11.87,-1.674c-1.272,-3.246 -2.74,-7.825 5.575,-11.46c3.781,-1.653 3.245,1.232 3.9,1.48Z" style="fill:#b4707e;"/><path d="M926.873,1287.798c13.395,1.237 114.688,23.89 111.591,30.647c-2.171,4.734 -39.875,-8.009 -107.124,-24.259c-0.588,-0.142 -4.344,-1.05 -7.234,-2.251c0.771,-1.448 -0.949,-1.431 -0.122,-2.984c0.12,-0.225 0,0 2.888,-1.152Z" style="fill:#97565c;"/><path d="M1197.717,1220.706c0.265,1.234 12.989,21.71 -39.387,60.075c-0,0 -7.516,4.174 -8.17,4.536c-0.287,-4.729 -0.894,-5.073 2.652,-8.221c34.923,-31.008 30.986,-49.837 41.623,-54.505l3.282,-1.885Z" style="fill:#d26b82;"/><path d="M1659.17,1145.515l2.723,-0.108l2.349,0.547l2.349,1.925l2.524,2.358c14.858,-7.078 8.074,6.469 9.732,39c0.526,10.326 0.831,11.117 1.177,12.014c0.436,1.132 0.509,4.675 0.351,4.816c-0.876,0.782 -0.866,-0.956 -2.039,-0.266c-2.169,1.277 -1.18,2.161 -3.177,3.337c-9.217,-31.481 -5.813,-32.267 -15.989,-63.623Z" style="fill:#f0bc98;"/><path d="M1652.791,955.962c14.386,-0.958 16.065,13.48 10.441,25.37c-11.324,23.941 -38.02,-9.233 -10.441,-25.37Z" style="fill:#814832;"/><path d="M1562.778,940.33c-9.645,30.307 -33.895,5.227 -20.221,-11.654c7.326,-9.043 22.725,-8.876 20.221,11.654Z" style="fill:#773f29;"/><path d="M966.533,1012.298c3.658,12.696 2.399,12.754 5.37,25.499c5.435,23.315 2.959,23.453 1.721,29.513c-8.287,-4.03 -6.438,-5.85 -8.459,-14.946c-4.867,-21.903 -5.423,-21.484 -7.905,-33.877c-1.427,-7.124 2.157,-5.517 9.273,-6.189Z" style="fill:#eb9a93;"/><path d="M799.069,1407.616c0.576,0.168 7.159,2.089 7.199,2.114c5.463,3.393 7.464,2.215 7.773,8.842c0.248,5.312 0.818,4.977 2.623,10.159c-1.122,1.349 -2.244,2.698 -3.366,4.048c-4.954,6.961 -12.726,4.069 -16.15,3.909c-0.249,-2.702 1.1,-2.878 -0.476,-5.161c-2.803,-4.061 -1.914,-4.25 -3.139,-10.049c0.712,-3.209 1.329,-7.258 1.426,-7.892c1.37,-1.99 2.74,-3.979 4.11,-5.969Z" style="fill:#f7eee5;"/><path d="M647.594,852.616c1.371,0.805 2.742,1.611 4.113,2.416c-9.134,31.482 -14.964,33.972 -18.03,35.282c-7.948,3.394 -5.525,5.485 -10.547,12.035c-0.939,1.267 -1.877,2.534 -2.816,3.801c-5.169,1.997 -6.275,1.936 -8.144,-2.787l-1.779,-3.696c-0.54,-0.897 0.607,-2.181 0.067,-3.078c-0.783,-1.3 -2.993,-1.552 -3.668,-2.902c-2.056,-4.111 5.23,-2.191 4.247,-6.739c-0.405,-1.875 -4.705,-1.383 -5.11,-3.258c5.239,-2.198 5.441,-4.561 10.279,-1.488c7.51,4.771 8.302,0.834 11.208,-7.07c6.267,-7.262 7.005,-6.848 9.046,-16.14c0.921,-4.192 2.427,-2.923 11.135,-6.376Z" style="fill:#e5a2b8;"/><path d="M1161.608,932.976l-0.094,2.576c-6.675,19.306 -0.57,45.352 -3.386,51.232c-0.846,1.766 -1.663,0.937 -2.355,2.888c-0.461,1.299 0.988,0.969 0.566,2.158c-5.913,-23.015 -8.759,-36.275 -7.893,-56.138c0.401,-9.196 4.642,-5.031 13.161,-2.715Z" style="fill:#efbac0;"/><path d="M605.926,883.69c0.405,1.875 4.705,1.383 5.11,3.258c0.984,4.548 -6.303,2.629 -4.247,6.739c0.675,1.35 2.886,1.602 3.668,2.902c0.54,0.897 -0.607,2.181 -0.067,3.078c-5.429,1.009 -5.503,0.798 -5.863,1.089c-0.491,0.396 -3.882,11.147 7.643,2.606c1.869,4.723 2.975,4.783 8.144,2.787c-4.442,15.146 -8.494,32.752 -31.307,18.749c-0.363,-3.341 -1.049,-3.037 -1.425,-6.496c-0.672,-6.18 -3.405,-4.515 -4.83,-6.405c2.831,-2.817 2.606,-2.841 6.47,-4.07c6.483,-2.062 1.646,-11.696 16.705,-24.238Z" style="fill:#eab7b4;"/><path d="M234.082,1037.296c-23.009,19.565 -63.46,-26.102 -55.92,-41.051c9.857,-19.541 5.656,9.907 35.105,33.202c8.732,6.907 11.642,1.144 20.815,7.848Z" style="fill:#e6bd7f;"/><path d="M848.372,639.483c0.82,-3.794 -0.176,-3.858 1.606,-7.429c3.439,-6.891 2.621,-8.24 2.235,-8.876c-8.706,-14.347 16.781,-0.494 16.747,-0.428c-5.444,10.567 -11.39,12.807 2.546,25.899l5.944,2.038c-9.991,13.307 -9.179,17.609 -21.129,14.864c-2.371,-3.093 -2.345,-2.754 -5.552,-5.524c-0.581,-6.51 -1.162,-6.467 1.456,-12.685c1.957,-4.647 0.523,-4.745 -3.853,-7.859Z" style="fill:#eabbbe;"/><path d="M857.947,1336.508c1.809,0.277 3.617,0.553 5.426,0.83c0.541,1.898 1.082,3.796 1.622,5.694l0.497,4.801l0.109,2.489c-5.893,5.567 -6.428,5.427 -7.129,12.172c1.878,3.998 1.613,3.998 4.721,7.104c-3.744,0.629 -3.916,0.161 -6.253,3.324c-2.809,-0.575 -2.651,-0.592 -5.418,-1.108c-5.993,-1.117 -3.351,-4.405 -3.437,-4.653c4.644,-1.865 4.896,-1.578 5.004,-2.009c0.344,-1.384 -0.577,-2.898 -0.233,-4.282c-3.381,-9.652 -5.978,-10.534 -3.821,-23.023c4.501,-0.842 4.358,-0.835 8.912,-1.337Z" style="fill:#f2e3d1;"/><path d="M856.004,1296.577c5.531,-0.167 5.361,-0.37 10.992,0.105c-0.319,15.783 -0.872,15.662 0.311,31.546c0.391,5.257 -0.716,4.857 -3.934,9.11c-1.809,-0.277 -3.617,-0.553 -5.426,-0.83c5.052,-11.619 -0.918,-10.599 -1.393,-11.222c-0.869,-1.139 0.7,-3.793 -2.03,-16.244l0.5,-5.13l0.98,-7.335Z" style="fill:#bf7b7d;"/><path d="M1668.771,1507.163c0.641,1.237 1.282,2.473 1.923,3.71c-11.123,7.675 -45.248,25.013 -57.655,32.49c-1.526,-2.784 -2.783,-2.043 -2.855,-5.207c-0.029,-1.255 -0.603,-0.975 -0.63,-2.179c12.816,-1.891 38.705,-21.875 59.217,-28.814Z" style="fill:#9f4656;"/><path d="M750.36,824.565c-2.393,2.498 -5.148,14.747 -24.538,-3.543c-12.97,-12.234 16.282,-40.329 25.34,-8.314c1.658,5.861 0.482,5.672 -0.802,11.857Z" style="fill:#ef8ace;"/><path d="M779.398,730.827l2.154,4.406c-3.505,18.63 -13.873,12.918 -14.171,16.715c-0.01,0.132 9.568,17.437 -2.416,23.009c-2.033,0.945 -13.97,-0.196 -16.53,0.821c-5.488,2.18 -10.885,-12.851 10.07,-22.219c3.424,-1.531 2.345,-3.705 2.552,-4.033c4.482,-5.178 4.675,-4.758 5.601,-7.348c0.254,-0.282 3.172,-3.522 3.172,-3.522c4.9,-5.168 3.809,-5.825 5.494,-7.202c1.031,-0.843 3.043,0.215 4.074,-0.628Z" style="fill:#e9a7c1;"/><path d="M384.371,828.131c13.741,22.534 16.482,20.306 29.529,28.733c13.583,8.773 -23.822,17.248 -40.799,-22.089c-2.899,-6.716 1.393,-18.292 11.27,-6.644Z" style="fill:#eabe7c;"/><path d="M182.306,1033.526c9.061,8.297 8.498,8.395 13.758,11.926c7.048,4.732 14.245,3.478 8.535,9.366c-17.818,18.372 -39.285,-1.245 -41.664,-3.419l2.108,-2.277c2.182,-1.307 2,-1.442 17.262,-15.597Z" style="fill:#e0b065;"/><path d="M539.8,1045.819c1.383,0.587 1.817,2.42 3.2,3.007c3.658,1.552 17.079,-0.706 5.72,19.071c-6.488,11.295 -9.696,6.873 -13.087,7.492c-8.135,-4.025 -9.424,-2.874 -10.422,-7.154c-0.169,-0.724 -1.38,-5.916 1.749,-9.113c6.667,-6.814 -4.286,-17.334 4.955,-13.576c1.684,0.685 2.126,3.483 3.964,3.547c1.76,0.061 2.16,-3.335 3.921,-3.274Z" style="fill:#eecab2;"/><path d="M933.893,1050.89c14.974,-5.587 14.856,-5.62 16.172,-6.034c4.482,-1.413 6.441,11.549 6.614,12.689c0.99,6.547 -9.209,2.724 -27.814,0.318c-13.883,-1.795 4.38,-6.795 5.028,-6.972Z" style="fill:#bb6c68;"/><path d="M755.315,1512.891c10.62,3.226 24.103,8.996 26.162,9.877c-1.129,2.153 -2.259,4.306 -3.388,6.459c-5.841,3.842 -6,3.426 -6.472,3.803c-3.873,-5.272 -4.649,-7.784 -17.194,-6.294c-4.482,-4.17 -4.489,-4.641 -4.498,-5.2c-0.013,-0.824 -0.032,-2.12 5.39,-8.645Z" style="fill:#b87179;"/><path d="M601.852,1530.22c6.73,0.132 6.846,-1.044 7.196,-0.567c2.831,3.853 -3.19,5.906 -2.018,8.631c1.465,3.407 3.332,1.602 4.957,4.791c1.227,2.408 -4.943,12.666 -5.548,13.673c-1.886,3.136 -0.952,3.58 -1.246,3.618c-4.708,0.61 -7.675,-9.042 -7.98,-10.034l0.135,-2.44l-0.071,-2.44l0.265,-2.44l0.056,-2.44l-0.592,-2.44l-1.575,-1.765c2.01,-4.563 1.694,-5.201 6.421,-6.15Z" style="fill:#d68882;"/><path d="M1567.819,979.338c2.116,-0.925 15.162,-6.631 28.63,2.109c-5.268,5.423 -9.725,16.584 -11.759,12.231c-0.579,-1.238 -9.594,-4.872 -12.061,-9.877l-1.998,-1.895l-2.812,-2.567Z" style="fill:#6f3a25;"/><path d="M182.306,1033.526c-15.262,14.155 -15.08,14.29 -17.262,15.597l-2.108,2.277c-4.088,-7.319 -9.92,-11.491 -1.705,-30.264c4.172,-9.534 8.904,-3.954 21.076,12.391Z" style="fill:#f5be8c;"/><path d="M535.865,1084.313c3.939,1.094 22.96,0.447 16.21,26.867c-2.192,8.581 -22.969,-0.089 -19.113,-5.868c3.087,-4.627 7.776,-5.943 -0.194,-12.488c-6.216,-5.105 1.39,-7.016 3.096,-8.512Z" style="fill:#eac4b9;"/><path d="M803.259,1389.712c0.814,1.495 1.629,2.991 2.443,4.486l0.384,2.44l0.303,2.44l-0.701,2.44l1.156,2.554l2.349,0.424l2.938,1.902l2.084,2.44c3.764,5.025 3.598,5.168 4.065,5.427c0.338,0.188 0.314,-1.188 4.787,-0.227c6.395,1.373 -2.446,6.539 -2.638,6.998c-1.885,4.497 4.288,4.632 4.545,5.118c2.25,4.251 -7.623,2.688 -8.309,2.579c-1.805,-5.182 -2.375,-4.847 -2.623,-10.159c-0.309,-6.626 -2.31,-5.449 -7.773,-8.842c-0.04,-0.025 -6.623,-1.946 -7.199,-2.114c4.347,-8.318 3.362,-8.456 4.19,-17.904Z" style="fill:#ecc9b6;"/><path d="M596.862,1607.148c0.15,-1.216 -1.435,-14.38 14.923,-12.174c5.223,0.704 4.197,8.102 5.038,14.296c-10.564,2.18 -10.517,1.218 -19.961,-2.122Z" style="fill:#fbf2e7;"/><path d="M571.944,1194.17c16.939,-2.418 27.022,0.52 17.033,14.91c-1.582,-0.691 -3.163,-1.382 -4.745,-2.073c0.017,-3.083 0.111,-2.926 0.033,-5.936c-0.127,-4.944 -5.686,1.525 -6.022,1.916c-2.802,3.26 -3.032,2.815 -7.041,4.407l-1.916,-0.854c-1.448,-3.698 -1.328,-3.599 -3.111,-7.138l5.767,-5.231Z" style="fill:#f1cfa1;"/><path d="M743.653,1508.106c5.818,2.122 5.812,1.741 11.662,4.785c-5.423,6.525 -5.403,7.821 -5.39,8.645c0.009,0.559 0.016,1.03 4.498,5.2c-0.053,1.603 1.47,14.249 -8.976,6.849c-1.301,-5.298 -1.156,-5.199 0.03,-10.652c1.06,-4.494 -0.894,-3.957 -2.534,-8.358c-0.181,-0.486 0.053,-0.479 0.71,-6.47Z" style="fill:#e4b8bf;"/><path d="M904.909,1414.411c17.285,-25.888 21.949,-5.275 21.003,-3.801c-1.167,1.818 -1.561,1.248 -16.35,6.376c-1.551,-0.858 -3.102,-1.716 -4.652,-2.575Z" style="fill:#f5cdd0;"/><path d="M539.919,968.185c1.712,6.501 4.74,14.409 5.212,15.644c0.868,10.249 0.305,10.585 -0.501,11.065c-2.102,1.253 -2.262,0.513 -15.903,-1.882c3.139,-8.171 3.197,-8.097 3.39,-8.825c1.301,-4.904 -2.918,-4.256 -2.223,-9.449c0.097,-0.728 1.055,-7.872 4.329,-8.247c1.979,-0.227 3.716,1.922 5.695,1.695Z" style="fill:#f3d1c1;"/><path d="M728.837,763.142c-1.858,2.785 -2.178,6.294 -4.036,9.079c-0.741,1.111 -1.205,1.806 -17.382,2.879c0.784,-9 -1.262,-18.905 10.507,-20.949c4.217,-0.733 3.54,1.031 10.912,8.991Z" style="fill:#f4d7c3;"/><path d="M581.504,1536.759c15.784,5.259 11.169,18.886 0.196,15.048c-8.404,-5.675 -4.195,-9.857 -2.631,-13.535l2.435,-1.513Z" style="fill:#f4ead8;"/><path d="M809.011,1499.395c3.656,4.287 4.209,3.937 4.883,9.465c-2.998,4.364 -3.033,8.237 -14.198,5.086c1.74,-9.682 0.063,-12.268 9.315,-14.551Z" style="fill:#f7e4df;"/><path d="M719.966,1184.263c1.427,4.53 1.432,4.497 1.541,4.893c0.344,1.248 -0.12,1.181 0.22,2.416c0.659,6.92 0.486,6.92 0.712,7.473c5.559,13.607 -12.086,1.024 -11.077,-2.77c2.14,-8.051 0.812,-10.157 8.604,-12.011Z" style="fill:#f6d8d9;"/><path d="M866.497,1272.112c10.461,1.089 9.941,3.15 20.277,4.582c4.195,0.581 3.652,1.583 7.719,3.347c-2.399,1.716 -2.307,1.627 -5.188,2.638c-1.927,-0.102 -12.456,-0.657 -23.533,-5.502c0.242,-1.688 0.484,-3.376 0.725,-5.064Z" style="fill:#c37b85;"/><path d="M496.318,1221.329c-1.764,-3.595 -2.904,-3.614 -0.982,-7.299c0.284,-0.545 2.403,-4.606 6.189,-4.333c11.798,0.852 7.302,23.636 -5.207,11.632Z" style="fill:#eb85bc;"/><path d="M773.963,1474.609c1.109,5.01 2.892,6.801 -2.069,7.993c-4.836,1.162 -24.532,11.95 -14.289,-4.849c8.493,0.034 8.487,0.422 16.358,-3.144Z" style="fill:#eabacf;"/><path d="M1913.111,801.332c-0.094,0.267 -1.179,3.333 -1.179,3.333c-1.547,4.843 -3.151,3.415 -3.983,4.316c-1.129,-1.476 -20.945,-27.374 -8.943,-21.653c7.371,3.514 3.386,8.408 14.104,14.004Z" style="fill:#9b4554;"/><path d="M582.752,911.998c1.425,1.889 4.158,0.225 4.83,6.405c0.376,3.458 1.062,3.155 1.425,6.496c-1.01,2.015 0.827,2.718 -2.974,5.931c-9.57,8.088 -19.186,0.926 -15.967,-2.752c6.906,-7.891 6.732,-7.698 12.686,-16.079Z" style="fill:#e6a6ba;"/><path d="M829.813,1323.51c2.772,2.524 6.393,4.927 6.976,5.314c1.235,3.736 1.15,3.555 2.975,6.805c-0.02,0.875 -0.471,20.921 -6.136,8.889c-4.157,-8.829 -3.864,-19.298 -3.816,-21.008Z" style="fill:#f6cebd;"/><path d="M500.804,1567.148c2.593,0.625 5.187,1.249 7.78,1.874l2.253,-0.078l4.186,3.46l-5.102,4.093c-2.051,2.613 -1.863,2.427 -2.051,2.613c-3.316,3.266 -0.98,4.513 -1.167,5.377c-0.963,0.527 -0.161,1.14 -1.048,1.625c-0.229,0.125 -0,-0 -3.112,0.939c-0.119,-10.078 0.35,-10.025 -1.739,-19.903Z" style="fill:#916b5a;"/><path d="M461.391,1550.931c1.08,0.854 11.016,5.953 9.814,11.757c-0.165,0.795 -5.755,5.254 -9.445,-2.954c-0.75,-1.669 -13.529,-5.703 -7.137,-9.086c1.042,-0.552 6.232,0.205 6.769,0.283Z" style="fill:#b7be9c;"/><path d="M738.833,1520.771c4.451,2.965 4.375,3.046 4.807,3.202c0.658,0.239 1.179,-1.279 1.837,-1.04c-1.186,5.453 -1.331,5.355 -0.03,10.652l-2.027,0.943c-9.369,6.717 -8.984,-0.031 -8.618,-0.64c2.705,-4.494 4.157,-1.976 4.174,-2.371c0.147,-3.405 -6.514,-6.262 -6.431,-6.443c2.545,-5.542 5.515,-3.774 6.288,-4.303Z" style="fill:#db9ec6;"/><path d="M848.372,639.483c4.375,3.114 5.809,3.212 3.853,7.859c-2.619,6.218 -2.037,6.175 -1.456,12.685c-1.683,1.613 -3.366,3.226 -5.049,4.839c-14.99,1.081 -6.67,-6.899 -2.781,-20.341c0.159,-0.55 0.402,-0.373 5.434,-5.042Z" style="fill:#f3d0cc;"/><path d="M663.744,1435.853c0.629,0.114 0.769,-1.473 1.398,-1.359c0.873,0.159 8.252,1.501 7.524,8.441c-0.307,2.932 -1.34,2.258 -8.134,6.356c-2.284,-3.693 -2.762,-3.09 -5.353,-6.389l-0.375,-2.386c2.69,-2.081 4.581,-4.252 4.939,-4.664Z" style="fill:#f1dec9;"/><path d="M539.919,968.185c0.721,-1.1 7.103,-10.84 16.201,-5.857c7.876,4.314 3.198,6.571 -4.471,11.354c-0.681,0.425 -1.927,0.26 -2.233,0.964c-1.28,2.938 0.582,3.024 -0.713,5.799c-1.058,2.268 -2.44,0.959 -3.571,3.384c-0.473,-1.234 -3.501,-9.143 -5.212,-15.644Z" style="fill:#e7b7ac;"/><path d="M824.267,681.058c-6.207,9.569 -0.307,14.733 -11.932,16.979c-0.592,-11.576 -1.252,-12.591 -1.859,-13.527c-2.616,-4.028 3.182,-17.252 13.791,-3.452Z" style="fill:#f6d3e2;"/><path d="M844.224,1389.842c12.967,15.322 -0.913,13.968 -1.806,13.408c-1.022,-0.641 -5.111,-9.238 -4.52,-11.273c1.13,-3.89 2.4,-2.142 6.326,-2.135Z" style="fill:#f6d8be;"/><path d="M660.226,1542.442c0.159,0.858 1.01,5.451 2.415,10.624c-0.207,1.459 -0.415,2.919 -0.622,4.378c-2.915,-0.565 -2.712,-1.235 -5.624,-1.09c-1.292,0.065 -1.066,-0.541 -2.384,-0.475c-0.581,-0.423 -1.529,0.724 -2.11,0.3c-0.688,-0.501 -0.318,-1.792 -0.858,-2.462c-3.127,-3.881 -0.072,-3.768 3.623,-7.117c4.557,-3.649 4.46,-3.778 5.56,-4.159Z" style="fill:#d19290;"/><path d="M823.119,1284.519c-1.906,2.966 -2.155,2.742 -2.555,6.349c-12.698,6.682 -12.728,-11.588 -4.384,-10.808c4.347,0.406 4.043,1.062 6.939,4.458Z" style="fill:#fae5d5;"/><path d="M680.362,1213.572c12.851,-2.794 4.835,-13.108 9.058,-14.202c3.564,-0.924 4.743,1.737 4.921,2.14c1.171,2.644 -3.22,10.54 -3.682,11.371c-3.823,6.874 -5.243,5.275 -5.952,5.757l-2.128,-0.68l-2.217,-4.386Z" style="fill:#f2c7c7;"/><path d="M784.465,1203.582l-0.152,2.716c-6.965,5.058 -9.494,5.945 -12.68,2.461c-0.758,-0.829 -5.128,-14.46 12.832,-5.177Z" style="fill:#fae2e1;"/><path d="M889.939,564.526c7.275,-0.828 11.715,-1.203 8.247,4.612c-7.292,12.224 -7.57,12.078 -7.636,13.475c-0.36,7.644 -3.598,5.967 -9.017,8.296c-3.847,1.654 8.59,-19.316 8.407,-26.383Z" style="fill:#f1b6cd;"/><path d="M569.288,1206.539l1.916,0.854c6.785,3.392 7.931,5.493 13.029,-0.387c1.582,0.691 3.163,1.382 4.745,2.073c-1.842,3.371 -7.89,17.358 -19.69,-2.541Z" style="fill:#e6b9a3;"/><path d="M1098.232,884.155c9.043,-3.383 9.109,-2.78 18.685,-2.085l2.349,0.82l-1.01,1.431c-0.471,1.301 -0.943,2.603 -1.414,3.904c-1.454,0.479 -2.908,0.957 -4.361,1.436c-1.604,-0.879 -0.449,-3.24 -4.972,-2.723c-0.535,0.061 -0.498,0.016 -6.727,0.215l-2.55,-2.998Z" style="fill:#8c5e52;"/><path d="M840.087,1471.208c0.757,0.18 0.505,0.233 9.383,2.611c-1.447,1.783 -0.642,6.32 -9.632,6.198c-0.679,-0.009 -13.182,-1.637 0.249,-8.81Z" style="fill:#e6abc6;"/><path d="M663.609,1194.182c-7.92,11.606 -14.004,-11.281 -4.762,-8.947c5.535,1.397 3.918,3.154 4.762,8.947Z" style="fill:#f8decd;"/><path d="M799.884,1269.743c8.446,2.198 14.636,8.411 5.325,10.895c-0.498,0.133 -0.392,0.28 -5.294,3.779c-0.09,-1.17 -0.744,-9.715 -0.031,-14.674Z" style="fill:#df9695;"/><path d="M360.537,1416.014c0.7,0.42 7.706,4.626 2.558,10.151c-4.139,4.442 -16.695,-5.984 -2.558,-10.151Z" style="fill:#dc95b9;"/><path d="M823.119,1284.519c7.764,3.915 10.071,2.541 9.737,7.245c-0.43,6.047 -11.433,-0.393 -12.291,-0.896c0.4,-3.607 0.649,-3.383 2.555,-6.349Z" style="fill:#f4d4c2;"/><path d="M766.658,742.179c-0.927,2.59 -1.119,2.17 -5.601,7.348c-8.338,1.444 -8.656,0.436 -13.89,-5.58c5.409,-9.136 8.173,-3.186 19.491,-1.768Z" style="fill:#eab9a9;"/><path d="M571.204,1207.394c4.008,-1.593 4.239,-1.147 7.041,-4.407c0.335,-0.39 5.895,-6.86 6.022,-1.916c0.077,3.01 -0.016,2.853 -0.033,5.936c-5.098,5.88 -6.244,3.779 -13.029,0.387Z" style="fill:#edcda4;"/><path d="M855.572,1289.501c0.906,-0.051 7.524,-0.427 11.331,-0.443c0.426,3.817 0.666,3.667 0.093,7.625c-5.631,-0.476 -5.461,-0.272 -10.992,-0.105c-0.593,-3.514 -0.659,-3.386 -0.433,-7.077Z" style="fill:#d68c93;"/><path d="M865.601,1350.322c0.941,1.565 1.883,3.13 2.824,4.694l0.314,2.779c-4.567,3.72 -4.462,4.083 -10.267,4.698c0.701,-6.744 1.236,-6.604 7.129,-12.172Z" style="fill:#b88c8a;"/><path d="M680.163,801.371c-13.139,-5.28 4.797,-12.683 10.834,-10.488c15.579,5.664 -9.602,10.263 -10.834,10.488Z" style="fill:#edc7a9;"/><path d="M835.133,1513.092c0.52,0.538 5.559,5.755 1.293,9.431c-5.493,4.735 -7.377,-5.068 -7.524,-5.833c2.202,-3.685 2.653,-2.878 6.231,-3.598Z" style="fill:#f7e7ea;"/><path d="M868.739,1357.795c1.253,6.601 1.479,7.014 -3.156,11.821l-2.39,-0.02c-3.108,-3.106 -2.843,-3.106 -4.721,-7.104c5.805,-0.615 5.7,-0.978 10.267,-4.698Z" style="fill:#d6a6a3;"/><path d="M779.018,709.801c5.705,2.133 6.352,1.358 9.411,6.349c-1.159,12.358 -2.968,12.082 -9.031,14.676c-0.106,-1.679 0.231,-1.611 -0.38,-21.026Z" style="fill:#f8dbd6;"/><path d="M765.778,1494.397c-5.917,16.978 -11.25,8.447 -11.35,7.341c-0.066,-0.731 -0.25,-2.762 5.699,-7.021c2.46,-1.761 2.557,-0.862 5.652,-0.32Z" style="fill:#eab3d1;"/><path d="M806.72,1449.397c3.939,-2.669 8.037,-5.874 8.719,-6.408c3.339,5.865 3.218,5.902 3.6,6.336c-5.851,6.126 -7.375,5.043 -7.978,4.614c-0.407,-0.289 -0.322,-0.336 -4.342,-4.542Z" style="fill:#d39486;"/><path d="M1209.174,468.337c-0.276,0.782 -0.703,0.334 -0.941,1.007c-0.852,2.41 0.209,2.259 0.432,4.666c-1.014,-0.004 -25.527,-0.113 -11.926,-4.477c0.955,-0.306 1.173,-0.376 12.435,-1.196Z" style="fill:#94573d;"/><path d="M1381.874,1128.155l2.771,2.566l0.426,2.44c-0.125,1.361 0.315,1.189 -0.226,2.464c-0.147,0.346 0.255,0.38 -0.978,4.611c0,0 -4.159,4.6 -4.521,5c-1.409,-8.707 -0.121,-8.46 2.527,-17.08Z" style="fill:#6d6d6e;"/><path d="M627.044,1315.351c5.395,12.204 1.39,17.817 -3.366,12.92c-2.561,-2.637 2.836,-12.001 3.366,-12.92Z" style="fill:#f8deaa;"/><path d="M827.913,1386.897c6.751,-8.812 6.623,-8.848 7.163,-9.063c6.404,-2.549 0.275,18.801 -7.163,9.063Z" style="fill:#efb79a;"/><path d="M710.277,1261.56c5.527,1.008 8.36,0.837 5.995,6.215c-1.592,3.62 -15.85,4.034 -5.995,-6.215Z" style="fill:#fceef1;"/><path d="M788.929,1389.178c8.367,4.531 11.108,8.927 5.904,9.616c-3.412,0.452 -3.163,0.551 -6.689,0.291c-0.321,-5.159 -0.266,-5.003 0.785,-9.907Z" style="fill:#e7b1bd;"/><path d="M802.256,1350.302c1.875,5.868 2.041,5.838 0.536,11.937c-11.544,-4.718 -5.697,-8.182 -5.01,-8.546c2.614,-1.382 2.193,-1.662 4.474,-3.391Z" style="fill:#e09894;"/><path d="M719.966,1184.263c0.728,-0.299 14.874,-6.106 9.462,2.594c-2.575,4.14 -3.397,2.838 -7.701,4.715c-0.34,-1.234 0.124,-1.167 -0.22,-2.416c-0.109,-0.396 -0.114,-0.362 -1.541,-4.893Z" style="fill:#f1c8db;"/><path d="M796.991,1485.193c-4.149,-7.285 -8.579,-7.563 -3.826,-12.612c8.68,-9.221 4.055,11.581 3.826,12.612Z" style="fill:#e5a2ce;"/><path d="M383.725,1555.274c-0.416,2.61 -0.832,5.22 -1.248,7.831c-0.627,0.052 -0.442,1.563 -1.07,1.616c-0.748,0.063 -15.935,-6.402 2.317,-9.446Z" style="fill:#cbd8ad;"/><path d="M633.624,912.042c0.659,0.153 8.764,-3.637 6.527,11.754l-3.086,0.903c-7.864,-3.88 -7.663,-5.617 -3.441,-12.657Z" style="fill:#fbe7f2;"/><path d="M690.167,1531.013c2.84,-5.405 3.023,-6.674 8.668,-5.171c4.949,1.318 -0.812,6.085 -1.206,6.41c-3.433,2.84 -3.828,1.278 -7.462,-1.24Z" style="fill:#ecc7d8;"/><path d="M778.622,1514.047c-4.988,-4.62 -6.352,-4.995 -7.017,-5.178c-4.617,-1.271 -1.703,-6.535 2.136,-3.616c5.265,4.002 9.989,4.441 4.881,8.794Z" style="fill:#e3a5cc;"/><path d="M525.373,1570.938c-13.986,-3.995 -3.486,-8.363 -2.819,-8.579c2.953,-0.961 5.037,1.571 5.262,2.365c1.01,3.555 -0.135,3.287 -2.443,6.215Z" style="fill:#e9e1cd;"/><path d="M771.643,1496.653c-0.075,-6.093 -2.212,-7.549 3.024,-10.403c1.114,-0.607 1.79,7.58 1.854,7.808c0.123,0.437 2.647,14.551 -4.879,2.595Z" style="fill:#e4accc;"/><path d="M719.436,1469.351c3.912,-1.165 3.713,0.011 7.604,1.377c2.092,2.767 2.218,2.678 2.089,6.189c-2.868,0.239 -4.295,1.711 -9.693,-7.566Z" style="fill:#dfa4b9;"/><path d="M728.629,1302.399c-0.44,-0.462 -5.244,-5.51 -3.13,-7.445c4.448,-4.071 15.412,14.205 3.13,7.445Z" style="fill:#e2b9af;"/><path d="M458.82,1472.364c4.834,-2.974 5.709,-7.123 8.878,-2.139c2.111,3.32 0.885,3.549 -1.774,6.578c-1.368,-0.021 -2.736,-0.042 -4.104,-0.064c-1,-1.458 -2,-2.917 -3.001,-4.375Z" style="fill:#e4edce;"/><path d="M722.282,1552.746c-2.01,2.503 -1.884,2.278 -2.01,2.503c-0.664,1.186 0.154,1.273 -0.544,2.52c-10.66,-9.455 -3.527,-11.396 -2.647,-11.246c2.084,0.355 1.494,0.9 5.201,6.223Z" style="fill:#e4aed4;"/><path d="M633.64,1220.645c-0.247,-1.554 -4.059,-8.057 6.308,-6.802c1.528,0.185 5.857,6.29 -6.308,6.802Z" style="fill:#f6e3e0;"/><path d="M500.838,1562.778c5.102,-0.512 4.852,-0.544 9.988,-0.175c-0.747,2.139 -1.495,4.279 -2.242,6.418c-2.593,-0.625 -5.187,-1.249 -7.78,-1.874c0.011,-1.456 0.023,-2.913 0.034,-4.369Z" style="fill:#cdb19e;"/><path d="M829.813,1323.51c0.874,-4.64 -0.137,-6.519 4.461,-6.341c2.071,0.08 2.479,10.701 2.515,11.655c-0.583,-0.387 -4.204,-2.79 -6.976,-5.314Z" style="fill:#f3c4af;"/><path d="M855.024,1303.912l-0.5,5.13c-13.217,-0.078 -5.726,-6.56 -5.135,-6.891c4.287,-2.406 5.38,1.681 5.635,1.761Z" style="fill:#f1c1b1;"/><path d="M721.245,1248.727c0.113,2.139 0.157,1.914 0.214,4.045c0.133,5 -2.313,1.599 -6.912,0.082c-1.162,-6.326 1.596,-7.523 6.698,-4.127Z" style="fill:#f3cadf;"/><path d="M653.857,843.938c4.935,6.182 5.806,8.695 -2.15,11.093c-1.371,-0.805 -2.742,-1.611 -4.113,-2.416c0.125,-1.82 0.25,-3.64 0.375,-5.46c1.875,-2.598 2.187,-1.877 5.889,-3.217Z" style="fill:#f5d8d8;"/><path d="M580.361,1121.025c-10.409,11.804 -12.595,4.25 -12.761,3.283c-0.156,-0.91 -1.564,-9.127 8.557,-8.367c0.376,0.028 0.239,0.039 4.204,5.084Z" style="fill:#fbe8e6;"/><path d="M572.083,902.984c-3.563,8.708 -8.712,11.574 -11.94,2.899c-1.166,-3.132 2.617,-5.017 3.071,-5.244c4.028,-2.008 3.93,-0.144 8.869,2.345Z" style="fill:#fcecee;"/><path d="M759.862,1372.239c3.196,0.479 4.218,-0.739 4.882,2.35c0.505,2.354 -0.422,6.614 -0.693,7.049c-6.054,9.725 -4.269,-8.575 -4.189,-9.399Z" style="fill:#efc2bd;"/><path d="M731.986,1601.522c-4.557,-10.863 3.642,-4.228 3.958,-3.914c4.444,4.429 -0.994,9.591 -3.958,3.914Z" style="fill:#e1bbdf;"/><path d="M613.342,1191.621c9.814,-11.225 8.017,1.652 7.623,2.165c-3.279,4.269 -4.216,1.804 -7.623,-2.165Z" style="fill:#f9dfc9;"/><path d="M741.702,1398.646c2.448,5.188 2.382,5.373 0.034,10.821c-1.193,-1.439 -3.228,-1.934 -4.421,-3.373c-1.625,-1.96 -0.037,-2.014 4.387,-7.448Z" style="fill:#e8b0ab;"/><path d="M768.617,1311.916c2.765,11.21 -7.597,5.25 -6.131,1.907c1.551,-3.538 2.406,-2.588 6.131,-1.907Z" style="fill:#fadde7;"/><path d="M417.073,1467.54c3.671,-0.391 3.561,-0.027 6.875,1.684c-4.445,3.574 -4.124,4.013 -9.485,5.385l0.554,-4.693l2.057,-2.377Z" style="fill:#b8a680;"/><path d="M468.849,1604.829c3.317,1.396 4.751,0.421 4.579,4.092c-0.03,0.629 -5.245,12.11 -7.191,-2.477l2.612,-1.615Z" style="fill:#d1dfbe;"/><path d="M661.454,1145.812c-2.877,15.16 -9.028,5.999 -9.473,5.291c-2.227,-3.539 4.283,-8.594 5.356,-8.307c1.682,0.45 2.435,2.565 4.116,3.015Z" style="fill:#fadecf;"/><path d="M750.92,1179.854c5.987,-5.81 6.572,1.914 5.522,3.606c-3.179,5.123 -6.164,2.325 -5.522,-3.606Z" style="fill:#f7d0e0;"/><path d="M779.018,709.801c0.673,-5.181 0.464,-5.216 0.727,-5.595c8.459,-12.181 8.673,10.793 8.684,11.944c-3.059,-4.992 -3.706,-4.216 -9.411,-6.349Z" style="fill:#f7d1e0;"/><path d="M820.817,1240.217c4.5,0.661 6.551,0.628 4.773,5.139c-0.71,1.801 -11.482,4.63 -4.773,-5.139Z" style="fill:#f6c0ad;"/><path d="M794.959,1413.585c-0.097,0.634 -0.714,4.683 -1.426,7.892c-1.248,0.002 -2.073,1.791 -3.321,1.793c-4.667,0.008 -2.256,-2.416 -1.822,-7.269c3.608,-0.809 3.387,-0.848 6.568,-2.416Z" style="fill:#e7c6cc;"/><path d="M493.601,1564.912c-0.748,0.656 -0.618,2.043 -1.366,2.699c-5.53,4.846 -7.761,-9.851 -0.742,-6.536c1.887,0.891 1.249,1.33 2.108,3.837Z" style="fill:#e2e0c5;"/><path d="M671.849,1557.482c1.921,5.777 -0.027,5.535 -1.118,8.625c-0.451,0.022 -5.936,0.29 -5.637,-0.242c0.183,-0.325 3.521,-0.977 3.148,-5.729c-0.225,-2.869 0.771,-2.447 3.607,-2.655Z" style="fill:#cd95be;"/><path d="M461.821,1476.739c1.368,0.021 2.736,0.042 4.104,0.064c0.129,0.658 3.497,17.881 -4.021,7.275c-0.335,-0.473 -0.598,-0.843 -0.083,-7.338Z" style="fill:#c4d9ab;"/><path d="M532.239,1157.137c0.679,-4.196 -0.729,-5.641 2.386,-5.998c4.384,-0.502 4.146,1.16 3.999,5.618c-1.487,0.408 -2.974,0.815 -4.461,1.223l-1.924,-0.843Z" style="fill:#f7dee0;"/><path d="M568.061,949.556c-7.208,1.655 -9.606,0.655 -8.389,-5.965c0.142,-0.771 5.945,-7.451 8.389,5.965Z" style="fill:#fadbe4;"/><path d="M854.348,1262.342c10.925,6.345 4.024,9.054 3.28,9.038c-0,-0 -4.198,-3.5 -4.563,-3.805c0.428,-1.744 0.855,-3.489 1.283,-5.233Z" style="fill:#d68d86;"/><path d="M1710.981,538.298c4.913,2.776 7.433,1.75 8.319,4.046c2.155,5.584 -7.758,0.382 -8.355,0.069c0.012,-1.372 0.024,-2.743 0.036,-4.115Z" style="fill:#9b644d;"/><path d="M639.967,1559.971c-13.35,-0.455 -3.029,-6.366 -2.519,-6.564c4.546,-1.769 2.855,1.622 2.519,6.564Z" style="fill:#eca99b;"/><path d="M562.926,1557.046c-2.575,-3.966 -2.81,-3.871 -2.781,-4.283c0.446,-6.412 9.116,0.444 7.093,2.435c-1.129,1.11 -3.183,0.737 -4.312,1.848Z" style="fill:#c4bfa8;"/><path d="M635.481,1574.016c3.759,4.379 3.529,8.004 -1.995,6.829c-0.539,-0.115 -7.254,-2.382 1.995,-6.829Z" style="fill:#f4c2b6;"/><path d="M651.952,1520.881c4.015,4.634 2.562,5.32 0.253,8.322c-1.39,-1.147 -2.78,-2.294 -4.171,-3.442c1.306,-1.627 2.612,-3.253 3.918,-4.88Z" style="fill:#e9aca8;"/><path d="M694.017,1193.571c-10.144,-3.639 -0.313,-7.513 1.504,-5.718c3.921,3.871 0.828,4.263 -1.504,5.718Z" style="fill:#f5d3da;"/><path d="M464.745,1516.178c0.027,-0.058 -0.382,-5.777 5.321,-3.81c0,0 1.956,3.457 2.126,3.757c-1.802,0.76 -1.479,1.323 -3.534,1.49c-2.184,0.178 -1.79,-0.657 -3.912,-1.437Z" style="fill:#d8d5b9;"/><path d="M459.47,1535.85c-8.021,7.182 -6.244,-4.678 -2.576,-5.275c3.448,-0.561 1.991,1.449 2.576,5.275Z" style="fill:#bacaa4;"/><path d="M722.282,1552.746c4.818,2.486 6.924,4.423 2.283,7.203c-2.705,1.621 -2.454,-0.063 -4.837,-2.181c0.699,-1.247 -0.12,-1.334 0.544,-2.52c0.126,-0.225 0,0 2.01,-2.503Z" style="fill:#f4c6e4;"/><path d="M660.937,1540.466c4.394,5.682 5.003,6.275 1.705,12.6c-1.405,-5.173 -2.256,-9.766 -2.415,-10.624l0.71,-1.976Z" style="fill:#d69bab;"/><path d="M732.543,782.1c10.961,-7.807 9.005,5.568 5.674,6.416c-5.928,1.509 -5.566,-0.946 -5.674,-6.416Z" style="fill:#f4c8dc;"/><path d="M377.954,1495.156c0.644,1.022 1.288,2.044 1.932,3.066l-3.523,3.318c-1.129,-0.11 -1.332,2.55 -2.461,2.44c-0.589,-0.058 -6.247,-3.204 4.052,-8.824Z" style="fill:#966949;"/><path d="M546.132,1603.594c-2.689,-1.674 -3.809,-1.427 -2.965,-4.652c0.996,-3.807 11.095,0.754 2.965,4.652Z" style="fill:#dad4b9;"/><path d="M699.18,1544.363c-0.657,-3.909 -1.847,-5.26 1.961,-6.2c1.7,-0.42 9.693,6.765 -1.961,6.2Z" style="fill:#f0c8dc;"/><path d="M862.317,607.1c-6.653,13.03 -10.623,-3.267 -6.05,-5.083c4.639,-1.842 3.96,0.662 6.05,5.083Z" style="fill:#f5ced9;"/><path d="M775.88,1463.115c-0.499,1.109 1.236,1.909 -1.922,4.272c-2.394,1.791 -3.589,2.853 -4.063,-0.221c-1.304,-8.472 4.612,-4.394 5.985,-4.051Z" style="fill:#e3b0d7;"/><path d="M873.312,1323.202c0.162,-0.768 -1.621,-1.322 0.564,-2.679c2.413,-1.499 2.51,-2.587 4.649,-0.774c0.383,0.325 4.668,9.029 -5.214,3.453Z" style="fill:#f3b5bf;"/><path d="M437.445,1525.664c0.498,-0.567 0.067,-1.66 0.566,-2.227c2.107,-2.4 8.81,2.464 4.534,4.779c-0.354,0.191 -4.288,2.322 -4.582,2.039c-1.087,-1.049 0.57,-3.542 -0.517,-4.59Z" style="fill:#b5c59e;"/><path d="M839.474,1419.248c-6.525,-10.336 5.303,-4.29 5.399,-3.115c0.315,3.863 -1.634,2.223 -5.399,3.115Z" style="fill:#efb797;"/><path d="M818.705,1498.014c-1.765,-3.251 -3.07,-3.257 -1.644,-5.406c1.618,-2.44 11.292,2.205 1.644,5.406Z" style="fill:#f3c0e0;"/><path d="M614.519,1181.356c0.26,-4.5 0.515,-5.908 4.542,-4.642c22.993,7.227 -4.035,4.702 -4.542,4.642Z" style="fill:#f5cad8;"/><path d="M924.501,1287.801l2.372,-0.003c-2.888,1.152 -2.769,0.927 -2.888,1.152c-0.828,1.554 0.893,1.536 0.122,2.984c-2.592,-1.108 -5.184,-2.216 -7.776,-3.324c4.058,-0.89 3.914,-1.096 8.171,-0.81Z" style="fill:#ca8883;"/><path d="M727.772,1490.967c-3.168,-2.78 -3.897,-3.718 -0.821,-6.544c2.331,-2.142 8.13,1.487 0.821,6.544Z" style="fill:#e7b8d9;"/><path d="M850.768,660.027c3.207,2.77 3.181,2.431 5.552,5.524c-1.283,2.284 -2.567,4.568 -3.85,6.853c-2.724,-4.378 -2.445,-4.283 -6.75,-7.538c1.683,-1.613 3.366,-3.226 5.049,-4.839Z" style="fill:#ebbec1;"/><path d="M428.983,1579.732c2.575,-2.366 3.022,-3.385 5.239,-0.887c1.824,2.056 -3.136,10.457 -5.239,0.887Z" style="fill:#c8dbad;"/><path d="M743.679,1230.777c4.003,-1.853 3.971,-2.162 4.314,-1.997c5.762,2.774 -0.011,8.175 -4.035,4.2c-0.517,-0.51 0.238,-1.692 -0.279,-2.202Z" style="fill:#f1bfd3;"/><path d="M818.468,1377.436c-1.833,-2.427 -2.854,-2.1 -2.249,-5.202c0.438,-2.243 10.034,-0.764 2.249,5.202Z" style="fill:#f6c0ae;"/><path d="M891.486,1399.255c-8.431,-2.61 -0.025,-7.204 1.513,-4.847c1.604,2.457 0.194,2.354 -1.513,4.847Z" style="fill:#f4b3c0;"/><path d="M610.39,899.667l1.779,3.696c-11.525,8.541 -8.133,-2.21 -7.643,-2.606c0.36,-0.291 0.434,-0.081 5.863,-1.089Z" style="fill:#f6ccd3;"/><path d="M684.117,1514.166c-6.298,9.965 -6.583,0.124 -6.36,-0.352c1.823,-3.893 2.9,-1.752 6.36,0.352Z" style="fill:#e4aed0;"/><path d="M566.805,1589.986c1.895,3.363 3.694,4.328 0.304,6.062c-3.508,1.794 -2.949,-0.562 -4.183,-4.209c1.293,-0.618 2.586,-1.235 3.88,-1.853Z" style="fill:#c3b39c;"/><path d="M778.089,1529.227c0.684,4.412 0.443,4.211 -0.085,8.672c-0.622,-0.529 0.07,-1.91 -0.552,-2.44c-0.389,-0.331 -0.853,0.848 -5.834,-2.429c0.471,-0.377 0.631,0.039 6.472,-3.803Z" style="fill:#d28fa7;"/><path d="M540.938,1589.852c-0.45,-3.902 -0.85,-5.225 2.803,-5.097c0.452,0.016 6.618,4.143 -2.803,5.097Z" style="fill:#d3c5af;"/><path d="M625.972,1528.563c-7.531,-6.04 -0.396,-6.048 0.068,-6.034c4.724,0.148 3.486,2.965 -0.068,6.034Z" style="fill:#f3b3a6;"/><path d="M562.394,1585.242c-2.616,-2.929 -2.825,-2.818 -2.826,-3.163c-0.001,-0.472 4.263,-8.478 5.227,2.314l-2.401,0.849Z" style="fill:#d4c1ad;"/><path d="M531.613,1570.039c10.587,4.439 1.137,6.494 0.671,6.335c-0.97,-0.332 -2.664,-0.453 -2.697,-1.513c-0.009,-0.288 1.157,0.963 2.577,-2.415c0.54,-1.286 -1.095,-1.112 -0.551,-2.407Z" style="fill:#baac9a;"/><path d="M564.306,987.167c1.777,1.945 3.553,3.89 5.33,5.835c0.063,1.168 3.309,0.448 3.372,1.616c0,0 -5.662,5.112 -6.154,5.556c-3.223,-6.136 -2.301,-6.224 -2.548,-13.008Z" style="fill:#ebb2c9;"/><path d="M881.904,1361.817c1.094,0.984 1.422,-0.268 2.458,0.664c0.156,0.14 1.052,0.947 1.017,2.462c-0.036,1.529 -8.622,4.914 -3.475,-3.126Z" style="fill:#f8bcc6;"/><path d="M616.446,1575.017c0.027,0.69 1.2,0.942 1.227,1.632c0.21,5.402 -7.279,3.199 -5.473,-1.205c0.134,-0.326 0.303,-0.03 4.246,-0.427Z" style="fill:#ebad9d;"/><path d="M562.394,1585.242l2.401,-0.849c0.67,1.864 1.34,3.729 2.01,5.593c-1.293,0.618 -2.586,1.235 -3.88,1.853c0.014,-1.313 -0.844,-1.013 -0.83,-2.447c0.003,-0.333 0.022,-0.307 0.299,-4.15Z" style="fill:#ad9c89;"/><path d="M881.251,1483.204c1.402,-1.517 -0.706,-2.187 0.675,-3.682c0.155,-0.168 1.025,-1.109 2.797,-0.076c0.35,0.204 6.385,8.344 -3.472,3.757Z" style="fill:#b66c6e;"/><path d="M903.153,1245.476c0.794,-0.101 1.015,-1.536 1.808,-1.637c0.871,-0.111 3.715,-0.005 0.299,11.386c-0.702,-3.25 -1.405,-6.499 -2.107,-9.749Z" style="fill:#e994a6;"/><path d="M653.857,843.938c-3.702,1.34 -4.014,0.619 -5.889,3.217c-0.226,-1.98 -3.931,-2.595 -4.157,-4.576c-0.085,-0.746 0.33,-3.537 10.046,1.358Z" style="fill:#edbfc6;"/><path d="M1511.49,1642.697c-0.419,0.36 -4.343,3.732 -6.442,2.28c-5.592,-3.869 5.902,-2.351 6.442,-2.28Z" style="fill:#e6b761;"/><path d="M415.076,1503.98c0.612,2.788 3.717,3.599 0.929,4.233c-0.256,0.058 -1.234,0.281 -3.244,-0.482c-2.778,-1.054 0.7,-1.134 2.315,-3.751Z" style="fill:#a68968;"/><path d="M863.373,1337.338c0.219,0.112 2.234,-0.781 3.739,1.914c0,0 -1.947,3.477 -2.117,3.78c-0.541,-1.898 -1.082,-3.796 -1.622,-5.694Z" style="fill:#e8c3b9;"/><path d="M677.815,1202.561c-0.914,-0.197 -1.401,1.832 -2.315,1.635c-2.681,-0.579 -1.513,-5.431 -0.193,-5.146c1.374,0.297 1.134,3.214 2.508,3.511Z" style="fill:#e7c0bb;"/><path d="M1246.172,1180.077c-0.494,1.491 -0.987,2.982 -1.481,4.472c-0.265,-0.447 -3.314,-5.584 -3.314,-5.584c0.293,-0.272 0.344,0.08 4.795,1.112Z" style="fill:#a76c4a;"/><path d="M852.856,1360.868c-0.344,1.384 0.577,2.898 0.233,4.282c-0.107,0.432 -0.359,0.144 -5.004,2.009c2.531,-2.631 4.44,-5.75 4.771,-6.291Z" style="fill:#e9bba0;"/><path d="M1489.27,649.951c-0.36,1.261 1.59,2.473 1.23,3.734c-0.284,0.995 -8.554,-0.804 -1.23,-3.734Z" style="fill:#ecc26e;"/><path d="M1111.568,1228.147l1.442,4.853c-1.091,-0.816 -2.937,1.028 -4.027,0.212c-2.796,-2.092 1.002,-1.817 2.585,-5.065Z" style="fill:#e67b96;"/><path d="M1516.889,972.912c-0.049,-0.483 -0.928,-9.114 0.902,-5.997c0.214,0.365 1.741,2.965 0.89,5.265c-0.23,0.622 -1.562,0.11 -1.792,0.732Z" style="fill:#eaac8d;"/><path d="M640.048,1099.911c0.306,0.664 1.906,0.049 2.212,0.713c0.272,0.591 0.12,0.584 1.618,7.889c-3.752,-3.596 -3.385,-3.71 -3.83,-8.602Z" style="fill:#ecbbb6;"/><path d="M648.035,1525.761c1.39,1.147 2.78,2.294 4.171,3.442l-0.79,1.048c-1.06,-0.5 -0.85,0.968 -2.011,0.42c-0.215,-0.102 -1.525,-0.719 -1.964,-2.295c-0.24,-0.86 0.835,-1.755 0.595,-2.615Z" style="fill:#db9190;"/><path d="M1563.233,808.519l2.349,-0.849l2.349,0.204l-1.362,3.258l-3.336,-2.613Z" style="fill:#ecb692;"/><path d="M1608.491,1388.995c1.357,-0.238 2.713,-0.476 4.07,-0.715c-0.084,0.065 -2.722,7.621 -4.07,0.715Z" style="fill:#a45657;"/><path d="M510.837,1568.943c1.355,0.296 1.106,-0.886 2.535,-0.574c0.33,0.072 0.119,0.29 1.651,4.034l-4.186,-3.46Z" style="fill:#a28373;"/><path d="M727.04,1470.728c0.695,0.35 1.61,-0.094 2.305,0.256c3.387,1.706 1.687,2.655 -0.217,5.933c0.129,-3.512 0.003,-3.422 -2.089,-6.189Z" style="fill:#d497b7;"/><path d="M1252.762,448.867c1.723,1.15 3.447,2.3 5.17,3.45c-1.285,-0.208 -1.178,0.243 -2.34,0.055c-0.348,-0.056 -0.21,-0.26 -2.83,-3.505Z" style="fill:#875138;"/><path d="M377.954,1495.156l1.571,-0.748c1.23,2.725 0.959,2.801 2.299,4.234l-1.938,-0.42c-0.644,-1.022 -1.288,-2.044 -1.932,-3.066Z" style="fill:#ab8e6d;"/><path d="M840.988,1336.576c4.221,0.15 4.075,-0.261 8.048,1.27c-4.704,-0.573 -4.613,-0.342 -8.048,-1.27Z" style="fill:#ecbda7;"/><path d="M871.505,648.65c6.545,-0.933 6.907,-1.515 7.04,-1.003c0.271,1.039 -1.367,2.002 -1.096,3.041l-5.944,-2.038Z" style="fill:#ecbbc9;"/><path d="M811.925,1097.546c-1.738,-0.459 -1.331,-0.673 -3.01,-1.116c-3.688,-0.973 -0.656,-2.258 -0.998,-3.437l4.008,4.553Z" style="fill:#f7dae5;"/><path d="M1026.576,973.396c-1.27,0.362 -0.573,3.267 -1.843,3.629c-1.011,0.288 -2.104,-1.46 -1.976,-2.54c0.039,-0.327 0.271,-0.077 3.82,-1.089Z" style="fill:#8bbdd2;"/><path d="M1668.771,1507.163c1.888,1.21 1.96,1.22 1.923,3.71c-0.641,-1.237 -1.282,-2.473 -1.923,-3.71Z" style="fill:#c5687d;"/><path d="M713.441,1528.88c-0.344,0.387 -0.548,0.892 -0.892,1.28c-0.629,0.709 -1.105,1.81 -2.016,1.997c-3.311,0.681 0.536,-0.604 2.907,-3.277Z" style="fill:#d298c2;"/><path d="M1705.465,901.797c-0.227,-0.1 -2.841,-1.244 -2.841,-1.244c0.084,-0.749 1.46,-0.846 1.543,-1.595l1.298,2.839Z" style="fill:#e3a989;"/><path d="M534.163,1157.98c1.487,-0.408 2.974,-0.815 4.461,-1.223l-1.757,2.734l-2.704,-1.511Z" style="fill:#f2cfd0;"/></g></svg>