<?xml version="1.0" encoding="UTF-8" standalone="no"?><!DOCTYPE svg PUBLIC "-//W3C//DTD SVG 1.1//EN" "http://www.w3.org/Graphics/SVG/1.1/DTD/svg11.dtd"><svg width="100%" height="100%" viewBox="0 0 1024 1024" version="1.1" xmlns="http://www.w3.org/2000/svg" xmlns:xlink="http://www.w3.org/1999/xlink" xml:space="preserve" xmlns:serif="http://www.serif.com/" style="fill-rule:evenodd;clip-rule:evenodd;stroke-linejoin:round;stroke-miterlimit:2;"><g id="Background"><path d="M692.4,438.231c-7.136,61.336 -47.547,58.446 -46.045,66.715c3.392,18.678 9.018,41.742 -10.794,68.235c-2.727,3.647 -3.289,4.006 -1.551,8.517c2.329,6.047 34.3,81.647 -10.137,113.811c-8.229,5.956 -14.331,4.441 -10.492,10.432c10.128,15.807 65.792,102.685 93.542,222.014c3.377,14.523 2.801,16.688 -8.22,24.238c-128.945,88.329 -310.287,90.45 -428.822,32.095c-5.545,-2.73 -49.71,-24.473 -66.355,-41.583c-4.643,-4.773 -5.009,-6.157 1.963,-37.984c32.452,-148.155 76.915,-190.603 73.445,-196.173c-2.399,-3.851 -2.742,-3.43 -5.061,-7.382c-3.282,-5.592 -1.649,-7.768 -7.142,-9.842c-28.81,-10.88 -46.785,-47.576 -28.369,-98.708c6.063,-16.833 12.195,-26.142 9.836,-28.928c-0.332,-0.392 -8.549,-5.143 -10.655,-25.857c-2.768,-27.222 8,-49.286 9.835,-53.047c3.03,-6.209 -11.514,-4.18 -26.148,-32.565c-10.203,-19.79 -10.079,-61.628 0.494,-61.3c1.172,0.036 25.852,16.096 34.767,-16.739c3.479,-12.814 -5.336,-9.573 -11.45,-24.833c-12.836,-32.037 8.615,-56.264 8.436,-59.815c-2.344,-46.609 5.709,-76.565 26.455,-113.605c19.693,-35.16 54.09,-59.295 73.95,-68.093c5.958,-2.639 9.497,-0.507 8.334,-7.998c-9.966,-64.186 -11.153,-64.309 -9.537,-69.597c3.764,-12.316 17.215,1.876 42.658,23.259c3.036,2.551 6.624,6.191 8.003,4.036c4.829,-7.544 24.445,-56.589 31.074,-57.461c5.282,-0.695 4.237,2.678 30.435,54.415c1.916,3.785 2.183,5.472 5.248,3.138c38.847,-29.567 39.775,-37.159 45.681,-29.737c4.397,5.525 -1.365,24.834 -5.451,65.165c-0.063,0.619 -0.682,6.735 1.313,7.636c2.75,1.242 24.278,7.429 53.073,29.926c37.438,29.251 69.103,83.023 68.755,146.606c-0.057,10.385 -1.775,20.23 0.329,22.622c2.165,2.462 16.11,18.319 13.453,41.516c-2.338,20.418 -10.178,24.331 -9.294,29.988c7.47,47.791 40.813,23.599 48.201,31.465c5.852,6.23 6.202,32.524 6.241,35.419Z" style="fill:#502e21;"/><path d="M389.638,715.967c17.65,8.18 29.247,14.32 41.463,19.215c4.443,1.78 5.424,1.719 30.88,-9.306c0.782,0.406 1.564,0.811 2.346,1.217l1.15,0.233l1.15,-0.079c3.014,-0.346 5.048,1.513 12.619,1.58l0.82,1.647c33.232,94.448 34.241,135.111 38.956,131.396c1.812,-1.427 -5.142,-77.426 -24.704,-134.481l-0.493,-1.189c0.29,-0.149 1.566,-3.099 3.488,0.331c15.016,26.801 52.445,28.305 67.099,17.16c5.696,12.089 6.317,11.643 14.951,35.522c1.464,4.049 4.362,2.994 3.741,-1.368c-1.779,-12.501 -2.772,-12.14 -11.366,-38.137c0.982,-0.939 1.964,-1.879 2.946,-2.818c3.401,10.011 5.762,10.345 17.809,43.391c22.879,62.759 24.948,62.087 46.824,172.166c0.216,1.089 0.914,4.598 2.395,13.688c0.623,3.825 3.046,2.777 3.142,2.82c-47.168,22.199 -92.334,31.488 -105.821,33.84c-178.236,31.085 -280.978,-38.126 -307.043,-54.031c1.303,-5.481 0.976,-5.42 1.809,-11.137c17.619,-120.871 54.022,-180.94 61.501,-197.927c8.867,0.121 18.278,1.193 19.862,1.373c-0.916,2.734 -11.789,35.21 -7.294,35.745c2.646,0.315 10.691,-30.11 18.954,-40.704c4.867,0.212 18.26,-8.428 25.139,-19.285c2.021,-3.189 5.115,2.335 20.61,2.372c-3.177,10.593 -18.407,61.364 -23.238,137.813c-0.666,10.535 1.71,9.857 2.355,9.618c2.532,-0.938 9.474,-60.059 24.712,-110.794c8.943,-29.776 10.413,-34.661 13.238,-39.873Z" style="fill:#f691aa;"/><path d="M291.157,281.453l0.733,1.226c1.18,0.681 0.916,1.395 2.271,1.31c4.37,-0.272 57.878,2.579 113.928,-40.699c19.922,-15.383 36.461,-40.774 37.808,-40.796c1.586,-0.026 11.94,30.645 47.96,57.673c41.121,30.857 93.084,39.384 99.235,37.517c0.012,7.528 0.088,56.181 -18.133,91.605l-1.716,-1.567l-1.209,1.364l-1.154,1.364c-11.34,16.862 -39.699,40.946 -62.978,50.025c-80.671,31.464 -158.372,-4.092 -190.855,-47.175c-12.482,-16.556 -10.513,-18.652 -12.056,-19.221c-0.68,-0.251 -1.443,0.548 -2.123,0.297c-10.248,-28.344 -13.963,-55.571 -11.709,-92.925Z" style="fill:#fddfb3;"/><path d="M504.859,131.243c4.612,3.712 45.63,8.589 87.666,68.758c28.31,40.523 26.972,76.86 26.708,84.038c-0.08,2.172 -0.182,2.097 0.516,4.096c0.759,2.174 0.213,2.287 -1.498,3.349c-0.327,0.203 -0.761,-0.446 -1.088,-0.243c-11.475,-1.956 -14.162,1.575 -14.73,-4.482c-0.707,-7.54 -5.429,-0.378 -47.224,-17.896c-35.317,-14.803 -78.228,-51.018 -95.213,-88.685c-6.917,-15.34 -7.404,-22.63 -14.104,-20.448c-6.657,2.168 -7.748,32.736 -66.727,73.671c-46.977,32.605 -94.074,34.477 -95.464,35.444c-2.399,1.67 -0.365,11.549 -4.502,11.964c-6.333,0.635 -6.259,0.492 -12.557,2.101c-0.317,-2.206 0.657,-18.694 3.091,-28.982c20.377,-86.111 90.129,-114.04 98.427,-119.88c1.43,12.213 4.376,10.6 14.598,13.233c8.974,2.312 65.834,16.962 114.728,-4.341c7.188,-3.132 6.29,-4.783 7.373,-11.697Z" style="fill:#b06b47;"/><path d="M352.406,579.28c-2.396,-2.063 -6.759,-8.401 -17.856,-2.898c-9.297,4.611 -4.877,9.879 -12.408,17.833c-4.956,5.235 -5.645,3.265 -12.004,1.345c-2.976,-0.899 -1.9,-3.085 -0.245,-8.688c3.107,-1.984 2.871,-2.169 5.18,-5.2c26.5,-34.779 61.317,-11.444 67.597,-9.652c59.834,17.068 93.485,-2.585 105.744,-5.863c19.475,-5.208 35.416,4.69 40.057,10.172c9.045,10.683 8.176,11.473 12.941,25.525c0.852,2.512 1.605,1.201 2.308,1.727c-1.209,0.675 -10.998,6.135 -12.137,13.618c-2.928,19.235 6.582,22.252 4.446,25.921c-1.09,1.872 -9.415,16.171 1.882,28.361c3.786,4.085 -2.959,7.333 -0.162,19.169c4.767,20.174 32.424,13.592 32.513,14.883c0.458,6.623 -15.759,12.286 -17.327,12.833c-0.314,-0.27 -0.84,0.452 -1.154,0.182c-0.154,-0.132 -0.139,-2.088 -2.375,-2.109c-25.499,-0.236 -33.947,-25.654 -35.944,-28.258c-2.259,-2.945 -2.724,-1.988 -3.146,-2.257l-0.458,-0.798l-0.691,-0.84l-1.15,-0.917c-0.603,0.053 -1.205,0.106 -1.808,0.159c-4.21,-14.082 -4.392,-14.941 -4.675,-16.275c-0.364,-1.717 -1.331,-8.455 -1.959,-10.562c-0.087,-0.291 -4.92,-12.343 -3.243,-0.217c3.184,23.032 -21.122,39.135 -37.663,27.1c-13.192,-9.599 -12.586,-24.267 -12.927,-27.041c-0.266,-2.163 -4.801,-2.24 -12.464,-2.368c-27.139,-0.455 -28.193,-0.322 -28.516,2.364c-5.402,44.878 -39.617,24.742 -40.274,24.184c-14.358,-12.21 -9.715,-32.474 -10.465,-32.519c-6.043,-0.364 -4.572,31.23 -24.966,53.894c-3.494,-6.459 -4.912,-2.011 -4.994,-1.978c-0.385,0.158 -0.745,-0.54 -1.15,-0.491c-2.075,0.254 -1.793,0.763 -3.449,2.305c-1.643,1.529 -14.452,5.757 -24.503,-1.42c-2.952,-2.108 -3.552,-1.372 -4.794,-4.465l-0.604,-1.145c2.104,0.233 20.04,2.219 26.274,-3.24c11.72,-10.262 6.735,-23.931 6.699,-24.195c-0.629,-4.624 8.653,-7.65 7.772,-21.951c-0.375,-6.074 -8.663,-17.931 1.947,-11.158c12.163,7.763 22.895,-0.928 23.813,-9.285c0.855,-7.785 4.22,-3.772 10.278,-7.135c1.64,-2.008 9.535,-11.541 0.118,-24.04c1.085,-2.099 3.112,-3.328 -2.49,-9.461c-0.703,-0.769 -8.3,-9.086 -10.019,-7.727c-0.74,0.585 -0.807,1.995 -1.547,2.58Z" style="fill:#848282;"/><path d="M571.737,739.71c8.594,25.997 9.587,25.636 11.366,38.137c0.621,4.362 -2.277,5.417 -3.741,1.368c-8.634,-23.879 -9.255,-23.433 -14.951,-35.522c-6.281,-11.003 -7.515,-13.601 -8.101,-14.832c7.853,-3.246 8.371,-2.038 14.775,-8.503c0.833,-0.84 6.158,-6.216 8.801,-12.404c2.591,-6.066 3.978,-3.824 9.752,-3.578c0.735,0.031 8.382,0.358 9.12,1.315c14.604,18.93 42.107,73.393 45.451,80.015c30.806,61.004 51.195,140.929 53.026,149.221c1.084,4.907 -29.511,23.183 -52.382,34.03c-0.096,-0.042 -2.519,1.005 -3.142,-2.82c-1.481,-9.09 -2.179,-12.599 -2.395,-13.688c-21.876,-110.079 -23.945,-109.407 -46.824,-172.166c-12.047,-33.046 -14.408,-33.38 -17.809,-43.391c-0.982,0.939 -1.964,1.879 -2.946,2.818Z" style="fill:#e47a93;"/><path d="M429.842,356.18c37.727,1.463 37.006,-10.452 47.053,-7.585c19.813,5.654 6.461,96.072 -51.691,81.612c-42.97,-10.685 -46.523,-82.361 -27.561,-82.034c11.212,0.193 10.457,5.251 32.199,8.007Z" style="fill:#482f25;"/><path d="M613.865,385.137c-0.122,2.175 -0.993,17.761 2.3,27.105c14.214,40.335 52.04,26.667 60.118,7.025c0.793,-1.928 1.111,-1.528 2.284,-3.141c12.485,61.177 -37.954,73.382 -38.159,73.278c-4.408,-2.234 -20.739,-47.541 -77.18,-46.579c-7.477,0.128 -14.94,3.925 -16.162,4.547c-0.266,-0.358 -0.532,-0.716 -0.797,-1.074c1.31,-3.163 3.765,-0.322 26.211,-31.207c8.25,-11.351 15.485,-31.681 18.305,-31.278c0.467,0.067 5.802,2.096 14.985,1.741c7.478,-0.289 7.473,-0.201 8.096,-0.417Z" style="fill:#72482e;"/><path d="M352.712,476.367c1.188,-4.037 0.161,-5.393 3.625,-6.277c17.268,-4.409 17.104,0.582 16.95,2.19c-1.068,11.175 -4.362,31.918 20.118,52.635c25.091,21.234 88.34,24.963 108.787,-30.814c2.423,-9.418 2.578,-9.314 3.236,-19.101c0.284,-4.221 6.827,-3.663 16.129,-8.81c2.674,-1.48 3.557,-4.004 4.516,-0.669c0.011,0.037 -5.814,24.671 -2.564,54.467c0.743,6.808 3.173,16.261 1.846,16.628c-3.513,0.971 -3.178,-5.58 -44.934,-4.49c-23.199,0.606 -14.773,23.459 -17.484,25.614c-5.488,4.362 -74.674,5.792 -74.477,-3.582c0.486,-23.16 -6.016,-25.082 -44.872,-24.249c-0.32,-9.746 1.609,-9.259 6.671,-27.694c2.913,-10.608 2.12,-10.731 4.183,-21.725l0.028,-1.364c-0.586,-0.92 -1.172,-1.84 -1.758,-2.76Z" style="fill:#f894aa;"/><path d="M537.445,473.595c1.487,0.398 1.432,1.366 3.948,0.222c3.259,-1.483 23.316,-10.608 43.515,-3.711c21.241,7.253 22.836,20.196 32.62,17.081c18.806,46.738 -22.602,76.108 -58.506,41.873c-12.2,-11.633 -16.934,-26.699 -17.786,-29.413c-3.895,-12.397 -2.618,-12.763 -2.943,-13.698c-0.295,-0.85 -1.707,-0.548 -2.002,-1.398c0.523,-5.49 0.406,-5.392 1.154,-10.956Z" style="fill:#fc99af;"/><path d="M302.866,374.379c0.68,0.251 1.443,-0.548 2.123,-0.297c1.543,0.569 -0.426,2.665 12.056,19.221c32.483,43.084 110.184,78.639 190.855,47.175c23.28,-9.08 51.639,-33.164 62.978,-50.025l1.154,-1.364l1.209,-1.364l1.716,1.567c-7.743,15.923 -8.038,15.606 -16.94,27.692c-57.78,78.449 -205.99,84.156 -255.152,-42.604Z" style="fill:#f5c093;"/><path d="M279.313,732.963c0.736,0.096 1.472,0.193 2.208,0.289c1.12,0.458 1.016,0.479 13.778,6.45c-7.479,16.987 -43.881,77.056 -61.501,197.927c-0.833,5.717 -0.506,5.657 -1.809,11.137c-2.904,-1.912 -7.451,-4.21 -17.842,-13.305c-3.069,-2.687 -3.388,-3.713 2.152,-29.251c24.347,-112.231 59.373,-166.667 63.014,-173.247Z" style="fill:#fbcac7;"/><path d="M440.132,28.966c11.369,22.312 20.879,43.599 23.056,46.334c2.452,3.08 23.588,-15.192 26.383,-17.801l1.307,1.446c-3.428,19.926 -4.389,19.565 -8.583,39.214c-1.357,1.662 -4.039,4.948 -23.718,6.687c-2.744,0.6 -13.317,1.284 -16.096,1.575c-3.261,0.341 -3.195,-0.126 -3.449,0c-0.569,0.281 -0.585,1.433 -1.154,1.714c-2.364,-0.061 -2.267,-0.066 -4.527,0.474c-0.591,-0.315 -0.627,-1.481 -1.217,-1.796c-1.132,-0.604 -1.098,0.467 -2.298,0.156c-7.48,-1.937 -16.416,1.928 -50.578,-7.757c1.098,-8.028 -5.019,-28.029 -4.767,-40.318c1.173,1.051 2.68,0.94 3.288,3.091c0.668,2.363 24.423,19.562 32.453,21.794c5.483,1.523 15.996,-32.726 29.899,-54.814Z" style="fill:#f5cd3c;"/><path d="M291.157,281.453c4.068,-4.723 5.922,-0.536 30.622,-8.241c7.117,-2.22 50.044,-15.609 83.539,-45.684c36.37,-32.656 39.319,-49.17 41.788,-49.112c0.702,0.017 0.539,0.336 1.667,2.895c27.421,62.208 90.823,96.2 121.475,106.189c18.686,6.089 22.359,3.708 22.842,10.184c-6.151,1.867 -58.113,-6.661 -99.235,-37.517c-36.02,-27.029 -46.374,-57.699 -47.96,-57.673c-1.347,0.022 -17.885,25.413 -37.808,40.796c-56.05,43.277 -109.557,40.427 -113.928,40.699c-1.355,0.084 -1.091,-0.629 -2.271,-1.31l-0.733,-1.226Z" style="fill:#f4bd90;"/><path d="M616.531,479.989c23.114,19.45 41.046,83.791 -21.14,101.445c-11.897,3.377 -12.251,-7.2 -26.544,-11.825c-5.275,-1.707 -8.159,0.37 -10.944,-3.61c-12.844,-18.354 -16.571,-15.11 -17.53,-21.425c-3.342,-22.028 -6.977,-37.249 -4.081,-60.024c0.295,0.85 1.707,0.548 2.002,1.398c0.325,0.935 -0.952,1.301 2.943,13.698c0.853,2.714 5.586,17.78 17.786,29.413c35.904,34.235 77.311,4.865 58.506,-41.873c-1.839,-5.521 -2.125,-5.232 -2.121,-5.33c0.029,-0.764 1.095,-1.103 1.124,-1.867Z" style="fill:#de768f;"/><path d="M340.719,472.587c-1.396,4.464 -12.639,40.433 -14.521,56.971c-0.577,5.073 -1.898,4.296 -12.412,11.118l-1.223,-2.172l-1.15,-0.063l-1.15,1.003c-1.38,0.528 -15.898,3.213 -17.284,3.47c0.201,-2.7 0.358,-2.52 0.937,-5.091c0.908,-4.035 -23.548,-10.296 -25.367,-39.539c-0.185,-2.977 -1.108,-17.814 19.764,-29.021c22.87,-12.279 42.743,-1.673 48.354,0.499c2.272,0.88 1.975,1.377 4.051,2.825Z" style="fill:#fb9cb0;"/><path d="M602.309,610.079l-1.167,1.672l-0.586,1.07c-0.755,16.504 9.203,32.299 -10.922,61.379c-8.404,12.144 -36.349,16.472 -40.047,9.365c-1.248,-2.398 -1.416,-2.072 -2.943,-4.304c6.053,-6.643 36.531,-4.282 33.466,-11.652c-0.646,-1.554 -2.915,-1.119 -7.724,-0.446c-9.497,-10.977 -15.198,0.231 -30.393,-17.861c7.199,-10.263 41.852,-6.985 34.856,-14.459c-0.735,-0.785 -9.368,0.2 -10.178,0.293c-0.692,-0.848 1.821,-2.43 1.129,-3.278c-0.006,-0.007 -7.485,-2.011 -8.136,-2.186c-4.005,-1.073 -3.978,-0.693 -7.999,-1.677c-5.409,-1.324 -8.878,-8.075 -9.159,-8.222c-0.408,-0.213 -0.742,1.023 -1.15,0.809c-0.377,-0.763 -0.753,-1.527 -1.13,-2.29c9.998,-15.15 42.067,-10.16 36.379,-17.319c-1.923,-2.42 -15.359,1.966 -15.309,-9.978c0.066,-16.043 26.666,-1.867 41.013,19.085Z" style="fill:#fcdaa7;"/><path d="M279.286,375.249c12.029,0.191 12.322,0.127 12.841,1.373c2.383,5.723 19.092,45.855 40.715,63.5c21.355,17.427 -19.144,-20.623 -64.316,16.609c-11.885,9.796 -10.848,17.88 -18.954,12.283c-29.146,-20.125 -24.979,-55.96 -24.968,-58.11c3.262,3.988 3.178,3.95 6.36,8.16c11.436,15.126 35.062,12.843 44.484,1.007c14.606,-18.347 4.465,-42.724 3.838,-44.822Z" style="fill:#76492f;"/><path d="M318.616,608.141c-0.306,0.747 -1.681,0.046 -1.356,3.308c1.307,13.114 -15.067,8.489 -21.919,16.061c-0.791,-0.085 -9.578,-1.034 -9.918,0.5c-0.449,2.024 0.135,3.561 28.221,9.694l-0.463,1.037c0.065,0.479 -0.491,0.885 -0.426,1.364c0.145,1.068 4.748,7.048 -3.569,11.122c-12.014,5.885 -12.525,3.659 -17.316,5.973c-0.551,0.266 -0.56,1.392 -1.112,1.658c-5.732,-1.276 -5.815,-1.996 -6.921,-0.993c-5.64,5.113 24.302,10.072 26.516,10.439c-0.215,0.577 -0.241,1.237 -0.455,1.814c-4.446,11.965 -17.185,12.406 -30.387,-1.752c-5.038,-5.403 -0.539,-8.374 -5.159,-14.341c-10.615,-13.709 -10.171,-14.161 -11.152,-15.284l-1.733,1.603c-1.11,-5.464 -10.487,-38.457 24.545,-59.169c18.722,-11.069 19.536,8.68 12.81,11.362c-0.68,0.271 -14.912,-1.087 -12.28,3.572c1.422,2.516 18.103,3.638 32.075,12.032Z" style="fill:#fddba7;"/><path d="M619.362,586.545c0.453,1.379 1.339,1.038 0.961,2.923c-0.434,2.167 -0.59,2.03 -1.187,4.085c4.207,6.529 15.473,47.132 11.334,71.105c-0.682,3.95 -0.181,3.856 0.829,7.083c-1.873,2.891 -15.568,24.027 -33.692,21.909c-4.642,-0.542 9.889,-13.568 6.711,-16.321c-2.151,-1.863 -9.953,19.368 -45.714,18.472c-16.47,-0.413 -13.925,-12.886 -11.961,-16.54c1.526,2.232 1.695,1.906 2.943,4.304c3.697,7.107 31.643,2.779 40.047,-9.365c20.124,-29.08 10.167,-44.875 10.922,-61.379l0.586,-1.07l1.167,-1.672c13.078,28.977 2.414,34.938 7.155,37.636c4.825,2.747 10.422,-30.685 -6.622,-50.459c-2.87,-3.329 1.811,-2.581 16.521,-10.712Z" style="fill:#f6be8e;"/><path d="M472.643,401.341c-5.383,-13.834 -49.587,-25.231 -71.249,-0.982c-0.131,0.146 -0.077,0.175 -1.046,2.362l-1.895,0.01l-0.852,-1.364c-0.586,-3.437 -5.482,-13.219 -5.972,-27.29c-0.978,-28.087 10.385,-20.328 10.547,-20.281c34.131,9.895 34.859,11.295 71.342,-0.199c7.973,-2.512 7.938,15.274 7.38,20.595c-2.122,20.243 -5.516,22.535 -8.256,27.149Z" style="fill:#59332c;"/><path d="M408.004,709.646c-22.087,-10.425 -22.009,-10.489 -23.927,-11.39c-6.659,-3.128 6.201,-2.016 15.485,-9.71c14.371,-11.91 8.062,-23.56 16.465,-23.299c19.141,0.594 19.181,-0.055 20.783,0.473c1.653,0.544 5.152,23.091 23.094,29.709c25.211,9.3 36.027,-11.096 37.569,-9.934c0.772,0.582 2.371,6.165 2.358,6.451c-0.052,1.166 -0.151,1.974 -60.956,29.514c-6.361,2.881 -6.367,-0.297 -30.871,-11.815Z" style="fill:#d7758a;"/><path d="M459.811,107.303c3.414,-0.321 7.136,-1.521 12.255,3.895c3.969,4.2 2.697,-2.633 7.214,-5.857c11.28,-8.051 14.453,1.454 18.824,3.23c-0.709,1.259 -1.419,2.518 -2.128,3.778c-0.382,-0.557 -2.994,-8.106 -10.873,-6.492c-7.917,1.621 -15.47,18.374 1.084,25.079c-0.287,0.263 -0.786,-0.473 -1.073,-0.21c-0.614,0.562 -0.592,1.833 -1.243,2.333c-0.253,0.194 0.074,-1.081 -3.434,-1.836c-0.728,-0.157 -3.076,-2.775 -3.321,-3.048c-2.793,-3.114 -1.906,3.564 -5.037,7.113c-1.326,1.503 -1.05,1.954 0.354,3.385c0.29,0.295 0.841,-0.517 1.13,-0.221c-4.78,1.2 -28.755,7.219 -60.988,3.869c-34.348,-3.57 -35.431,-8.61 -36.173,-12.066c0.59,0.099 1.106,-0.766 1.695,-0.668c0.408,0.068 -0.126,1.247 4.711,2.486c14.584,3.736 15.997,-26.563 -1.198,-23.503c-1.577,0.281 -1.428,0.569 -2.756,1.545c-1.423,1.818 -1.336,1.743 -2.606,3.735l-1.21,-1.7c0.253,-0.598 -0.667,-1.349 -0.413,-1.948c0.166,-0.392 0.705,0.713 1.027,0.498c0.316,-0.211 0.028,-0.872 0.145,-1.279c1.805,-6.26 16.656,-6.476 19.82,3.932c1.545,5.082 2.42,-0.664 6.528,-2.756c14.216,-7.24 15.384,7.313 21.583,5.206c3.992,-5.013 4.434,-4.197 9.623,-7.193c2.26,-0.539 2.163,-0.535 4.527,-0.474c2.067,1.591 7.547,4.576 9.406,7.745c1.517,2.586 1.86,0.369 3.488,-2.104c1.946,-2.958 8.26,-6.088 9.039,-6.475Z" style="fill:#bc752e;"/><path d="M772.789,270.437c-2.937,26.895 -0.976,40.851 -19.909,40.027c-15.51,-0.675 -15.996,-24.572 4.613,-24.278c4.017,0.057 5.421,1.321 6.07,-3.439c3.315,-24.289 4.935,-28.864 -7.16,-32.993c-11.456,-3.91 -16.382,-5.033 -17.395,1.528c-4.602,29.8 -3.253,47.896 -24.018,46.043c-15.299,-1.365 -15.072,-27.584 8.02,-24.181c6.361,0.937 5.381,-2.257 6.494,-9.648c5.265,-34.974 3.357,-38.928 8.454,-38.121c1.521,0.241 36.228,9.892 38.022,14.965c1.167,3.299 -0.923,9.336 -3.192,30.097Z" style="fill:#563122;"/><path d="M504.859,131.243c1.785,-12.146 -1.028,-20.152 8.798,-15.991c119.258,50.513 110.06,174.474 107.808,176.424c-1.018,0.882 -1.113,0.283 -4.301,-0.435c0.327,-0.203 0.761,0.446 1.088,0.243c1.71,-1.062 2.256,-1.174 1.498,-3.349c-0.697,-1.999 -0.596,-1.924 -0.516,-4.096c0.264,-7.178 1.603,-43.516 -26.708,-84.038c-42.036,-60.169 -83.055,-65.046 -87.666,-68.758Z" style="fill:#da9160;"/><path d="M386.954,497.043c-0.944,-2.377 -3.797,-8.156 -2.891,-20.572c0.547,-7.498 21.454,15.113 83.696,6.593c17.626,-2.413 27.249,-8.733 25.969,-2.668c-2.779,13.168 -5.437,16.724 -9.331,22.381c-0.671,-0.418 -1.005,-1.404 -1.676,-1.823c-0.362,-0.226 -22.88,9.392 -54.064,5.832c-20.124,-2.297 -20.002,-2.889 -39.064,-11.255c-0,-0 -2.428,1.39 -2.639,1.511Z" style="fill:#f4bb8b;"/><path d="M368.16,134.048c-8.298,5.839 -78.05,33.768 -98.427,119.88c-2.434,10.288 -3.409,26.776 -3.091,28.982c-1.751,-0.262 -2.431,0.586 -2.68,-1.483c-0.489,-4.06 -0.121,-30.769 5.36,-51.787c20.845,-79.928 92.91,-115.284 95.78,-111.653c0.607,0.768 2.851,14.767 3.058,16.061Z" style="fill:#d68d5c;"/><path d="M309.892,586.872c0.412,-3.384 0.379,-3.27 0.307,-6.793c-0.078,-3.817 8.763,-15.779 20.856,-21.531c34.198,-16.266 36.086,16.974 117.186,10.79c22.434,-1.711 29.385,-10.96 50.582,-12.3c24.123,-1.525 41.992,19.729 46.602,32.872c2.797,7.974 5.114,10.751 -1.706,13.671c-0.703,-0.526 -1.456,0.785 -2.308,-1.727c-4.766,-14.052 -3.897,-14.842 -12.941,-25.525c-4.641,-5.482 -20.582,-15.38 -40.057,-10.172c-12.259,3.278 -45.91,22.931 -105.744,5.863c-6.279,-1.791 -41.097,-25.127 -67.597,9.652c-2.309,3.03 -2.073,3.216 -5.18,5.2Z" style="fill:#b9b5b4;"/><path d="M472.643,401.341c-1.349,5.22 -14.39,27.224 -43.897,22.687c-15.742,-2.421 -26.474,-16.443 -28.398,-21.308c0.969,-2.187 0.915,-2.216 1.046,-2.362c21.662,-24.249 65.866,-12.852 71.249,0.982Z" style="fill:#f2807d;"/><path d="M340.719,472.587c-2.076,-1.448 -1.779,-1.945 -4.051,-2.825c-5.611,-2.172 -25.484,-12.778 -48.354,-0.499c-20.872,11.207 -19.95,26.044 -19.764,29.021c1.819,29.243 26.275,35.504 25.367,39.539c-0.578,2.571 -0.735,2.391 -0.937,5.091c-15.448,1.915 -33.052,2.964 -38.948,-13.365c-2.331,-6.457 0.037,-15.292 -0.763,-16.317c-0.572,-0.732 -1.608,-0.777 -2.18,-1.509c11.809,-53.888 58.228,-65.834 85.634,-51.74c10.159,5.224 4.796,9.014 3.996,12.603Z" style="fill:#fabdbc;"/><path d="M613.865,385.137c13.472,-5.771 14.014,-6.827 14.529,-5.342c0.023,0.067 4.63,28.979 27.87,35.52c12.405,3.491 18.78,-1.524 22.303,0.811c-1.173,1.613 -1.491,1.213 -2.284,3.141c-8.077,19.642 -45.903,33.31 -60.118,-7.025c-3.293,-9.343 -2.421,-24.93 -2.3,-27.105Z" style="fill:#9b5f3c;"/><path d="M279.286,375.249c0.627,2.099 10.768,26.476 -3.838,44.822c-9.422,11.835 -33.048,14.119 -44.484,-1.007c-3.183,-4.209 -3.098,-4.172 -6.36,-8.16c0.47,-3.859 0.288,-3.947 0.507,-4.162c0.78,-0.765 17.053,6.652 30.926,-8.35c8.78,-9.495 7.188,-10.836 11.105,-24.063c0.776,-2.62 6.642,-0.283 12.145,0.919Z" style="fill:#9e603d;"/><path d="M376.183,709.16c2.596,0.763 2.553,0.75 13.455,6.807c-2.826,5.212 -4.295,10.097 -13.238,39.873c-15.238,50.735 -22.18,109.856 -24.712,110.794c-0.645,0.239 -3.021,0.917 -2.355,-9.618c4.83,-76.449 20.06,-127.22 23.238,-137.813c2.189,-4.752 3.268,-9.145 3.613,-10.042Z" style="fill:#db5b79;"/><path d="M534.417,370.407c-1.611,-0.364 -15.136,-3.421 -18.999,-9.136c-2.772,-4.101 -3.1,-7.533 -1.924,-11.856c2.633,-9.676 15.845,-13.992 17.592,-14.347c30.891,-6.273 47.429,21.737 25.174,32.074c-11.921,5.537 -17.87,3.385 -21.844,3.266Z" style="fill:#fabbaa;"/><path d="M489.46,713.485c5.292,-2.219 5.154,-2.316 13.929,-6.619c6.568,-3.221 10.184,29.553 52.921,21.995c0.585,1.232 1.82,3.83 8.101,14.832c-14.654,11.145 -52.083,9.641 -67.099,-17.16c-1.922,-3.43 -3.198,-0.481 -3.488,-0.331c-2.132,-6.402 -1.976,-6.349 -4.364,-12.717Z" style="fill:#de7f94;"/><path d="M356.376,360.676c-33.419,19.42 -66.416,-13.152 -33.586,-27.891c20.255,-9.094 54.086,10.605 33.586,27.891Z" style="fill:#f9baa9;"/><path d="M386.954,497.043c0.211,-0.121 2.639,-1.511 2.639,-1.511c19.062,8.365 18.94,8.957 39.064,11.255c31.183,3.56 53.702,-6.058 54.064,-5.832c0.671,0.418 1.005,1.404 1.676,1.823c-22.47,27.988 -73.06,37.201 -97.443,-5.734Z" style="fill:#fcdfb5;"/><path d="M494.317,727.391c19.562,57.054 26.515,133.054 24.704,134.481c-4.715,3.714 -5.724,-36.948 -38.956,-131.396c0.218,-0.174 2.721,-2.178 2.721,-2.178c6.645,-0.207 7.027,1.522 11.531,-0.907Z" style="fill:#dc5c7b;"/><path d="M726.97,199.582c-2.532,12.336 -1.959,31.52 -22.319,29.558c-17.284,-1.666 -14.315,-31.852 6.808,-27.808c2.859,0.547 6.574,3.991 8.103,-4.6c5.425,-30.495 4.043,-41.363 12.378,-36.207c13.202,8.168 21.128,12.014 16.229,18.33c-5.501,7.094 -15.48,-11.229 -17.932,1.597c-0.291,1.523 -0.834,4.365 -3.267,19.129Z" style="fill:#593424;"/><path d="M485.912,645.806c18.168,34.538 -29.047,48.792 -33.31,16.152c-2.278,-17.444 17.83,-36.459 33.31,-16.152Z" style="fill:#392820;"/><path d="M369.093,639.146c22.657,-12.681 33.684,14.922 26.004,29.439c-14.966,28.289 -52.009,-6.573 -26.004,-29.439Z" style="fill:#3b2920;"/><path d="M602.282,314.056c0.399,-8.414 -0.534,-8.943 1.271,-10.723c5.191,-5.119 42.011,7.585 30.371,47.31c-7.796,26.606 -42.852,26.81 -40.549,18.073c0.721,-2.736 1.515,-5.445 2.236,-8.181c27.66,10.011 44.858,-41.846 7.83,-46.23l-1.159,-0.249Z" style="fill:#fbe1b9;"/><path d="M280.972,307.197c-0.584,-0.552 0.08,-1.561 -1.75,-1.655c-18.148,-0.936 -24.763,44.391 6.118,45.203c0.42,1.984 3.124,11.429 0.689,11.961c-19.419,4.244 -41.548,-19.194 -31.578,-49.758c5.871,-18 26.341,-23.754 26.742,-17.922c0.067,0.971 -0.016,0.902 -0.221,12.171Z" style="fill:#fce3bc;"/><path d="M251.089,511.723c0.572,0.732 1.608,0.777 2.18,1.509c0.8,1.025 -1.568,9.86 0.763,16.317c5.896,16.329 23.501,15.28 38.948,13.365c1.386,-0.256 15.903,-2.942 17.284,-3.47l1.15,-1.003l1.15,0.063l1.223,2.172c-5.795,4.668 -5.647,4.718 -10.867,10.15c-7.999,8.321 -6.348,10.61 -15.897,16.425c-4.886,2.975 -17.362,-13.773 -27.342,-13.742c-10.452,0.032 -12.444,-19.868 -8.59,-41.785Z" style="fill:#e17c92;"/><path d="M256.97,574.191c8.597,7.695 2.114,14.432 2.478,15.438c0.296,0.816 1.457,0.851 1.753,1.668c-4.237,7.52 -5.928,7.895 -9.135,24.36c-0.762,13.856 -1.95,16.343 3.658,31.531c2.367,6.41 0.66,16.84 4.32,25.581c0.092,0.219 2.615,6.244 -1.423,2.544c-2.147,-1.968 -26.774,-18.814 -15.245,-65.291c2.974,-11.989 9.849,-28.427 13.594,-35.831Z" style="fill:#f7d1aa;"/><path d="M327.715,312.515c-1.308,-3.16 -1.691,-3.104 -1.124,-6.565c0.585,-3.574 3.255,-0.647 3.459,-0.423c5.303,5.813 13.522,4.827 8.685,0.771c-8.61,-7.219 -5.952,-21.582 -0.767,-12.802c4.756,8.053 6.5,6.343 13.777,1.667c25.043,-16.092 49.389,15.575 40.94,23.858c-6.088,5.969 -8.321,-9.632 -16.023,-13.834c-20.199,-11.02 -30.197,13.678 -31.823,14.527c-7.799,4.072 -16.106,-5.969 -17.124,-7.199Z" style="fill:#38261e;"/><path d="M526.338,319.567c-1.104,-2.042 -9.688,-17.913 -22.884,-13.508c-15.82,5.282 -14.088,21.45 -20.504,15.771c-10.549,-9.337 19.489,-41.589 43.123,-20.884c6.248,5.474 7.491,3.154 12.14,-4.351c3.958,-6.389 6.079,8.071 -1.867,14.187c-5.795,4.46 2.923,4.775 7.082,1.447c7.773,-6.222 5.324,4.358 0.996,8.058c-11.653,9.961 -17.245,0.677 -18.087,-0.72Z" style="fill:#38271f;"/><path d="M602.282,314.056l1.159,0.249c37.028,4.384 19.83,56.241 -7.83,46.23c6.001,-28.243 5.419,-31.001 6.671,-46.479Z" style="fill:#f5be96;"/><path d="M538.857,555.837c6.941,6.442 20.096,21.047 17.417,25.581c-3.236,5.477 -3.819,8.053 -5.258,5.12c-28.609,-58.297 -76.166,-28.778 -79.013,-31.885c-1.301,-1.42 -3.571,-12.031 3.89,-13.667c1.313,-0.288 35.554,-4.024 52.516,7.026c6.03,3.928 6.267,4.414 10.449,7.825Z" style="fill:#858283;"/><path d="M303.221,570.948c-2.216,-1.177 -4.087,-1.44 -1.657,-5.465c19.469,-32.25 55.4,-28.097 71.946,-26.51c12.078,1.158 9.041,18.201 2.312,15.106c-2.384,-1.097 -4.74,-2.282 -7.134,-3.35c-9.907,-4.419 -27.06,-4.129 -36.463,-0.248c-23.96,9.89 -22.336,24.126 -29.004,20.467Z" style="fill:#878484;"/><path d="M339.718,705.118c3.44,-5.081 3.412,-4.941 6.354,-10.326c2.402,-4.396 8.206,2.308 30.111,14.369c-0.346,0.897 -1.424,5.29 -3.613,10.042c-15.495,-0.037 -18.589,-5.562 -20.61,-2.372c-6.879,10.857 -20.273,19.498 -25.139,19.285c4.517,-10.712 6.387,-10.542 13.936,-27.798l0.678,-1.364l-1.717,-1.835Z" style="fill:#d88094;"/><path d="M440.132,28.966c-13.902,22.089 -24.416,56.337 -29.899,54.814c-8.031,-2.231 -31.785,-19.431 -32.453,-21.794c-0.608,-2.151 -2.115,-2.041 -3.288,-3.091c0.505,-3.071 0.634,-2.876 1.516,-5.724c27.23,23.585 28.571,22.815 30.845,20.8c2.322,-2.057 23.962,-48.005 25.957,-52.24c2.394,-5.082 3.078,-0.091 7.323,7.234Z" style="fill:#f8e47a;"/><path d="M537.445,473.595c0.219,-1.104 -0.998,-7.708 14.335,-13.26c19.143,-6.932 46.51,-0.145 62.836,17.836c0.908,1 0.916,0.869 1.916,1.818c-0.029,0.764 -1.095,1.103 -1.124,1.867c-0.004,0.098 0.282,-0.191 2.121,5.33c-9.784,3.115 -11.379,-9.827 -32.62,-17.081c-20.199,-6.898 -40.256,2.228 -43.515,3.711c-2.516,1.145 -2.461,0.176 -3.948,-0.222Z" style="fill:#fac2c3;"/><path d="M261.466,640.345l1.733,-1.603c0.981,1.123 0.536,1.574 11.152,15.284c4.62,5.967 0.122,8.938 5.159,14.341c13.201,14.159 25.94,13.717 30.387,1.752c0.215,-0.577 0.241,-1.237 0.455,-1.814c13.892,5.036 2.204,27.796 -29.839,14.9c-1.329,-0.535 -9.025,-3.632 -13.409,-13.423c-4.756,-10.62 -0.529,-11.986 -5.638,-29.437Z" style="fill:#f4b986;"/><path d="M489.571,57.5c14.269,-11.32 17.464,-16.227 16.45,-10.932c-1.643,8.578 -5.938,45.209 -6.401,49.15l-1.074,0.062c-7.296,2.612 -7.674,0.529 -14.675,4.023l-1.576,-1.642c4.194,-19.65 5.155,-19.289 8.583,-39.214l-1.307,-1.446Z" style="fill:#f4a031;"/><path d="M280.972,307.197c-0.118,19.212 2.458,31.576 4.368,43.548c-30.881,-0.812 -24.266,-46.139 -6.118,-45.203c1.83,0.094 1.166,1.103 1.75,1.655Z" style="fill:#f5bf96;"/><path d="M484.136,662.005c-10.918,30.775 -37.906,-3.343 -19.557,-15.967c7.653,-5.265 13.656,0.217 14.582,1.063c7.105,6.489 5.043,12.631 4.975,14.904Z" style="fill:#697c5f;"/><path d="M367.824,664.612c-6.887,-20.313 10.788,-23.286 14.764,-21.407c23.667,11.187 -1.969,44.395 -14.764,21.407Z" style="fill:#6a805f;"/><path d="M339.718,705.118l1.717,1.835l-0.678,1.364c-7.549,17.256 -9.419,17.086 -13.936,27.798c-8.263,10.594 -16.308,41.019 -18.954,40.704c-4.495,-0.535 6.378,-33.011 7.294,-35.745c7.578,-20.22 8.044,-20.209 7.679,-23.592c9.081,-4.899 9.125,-4.729 16.878,-12.365Z" style="fill:#d45b75;"/><path d="M619.362,586.545c2.134,-0.788 3.303,-3.451 5.216,1.448c10.443,26.749 19.739,58.333 6.722,83.748c-1.01,-3.228 -1.511,-3.134 -0.829,-7.083c4.139,-23.973 -7.127,-64.576 -11.334,-71.105c0.597,-2.055 0.753,-1.918 1.187,-4.085c0.377,-1.885 -0.508,-1.544 -0.961,-2.923Z" style="fill:#fae5cb;"/><path d="M424.25,120.418c11.616,-18.552 30.16,-2.229 20.231,13.332c-4.446,5.788 -10.991,5.752 -13.639,3.282c-6.67,-6.223 -7.889,-6.575 -6.592,-16.615Z" style="fill:#f65b70;"/><path d="M451.037,128.515c-0.134,-1.703 -1.265,-16.061 9.814,-17.938c16.462,-2.789 16.236,25.66 2.383,26.652c-8.177,0.585 -11.36,-7.439 -12.197,-8.714Z" style="fill:#faef59;"/><path d="M420.079,128.459c-4.773,8.18 -4.939,9.72 -13.281,8.713c-10.624,-1.283 -13.525,-25.166 2.343,-25.102c4.448,0.018 7.396,3.698 7.921,4.322c5.127,6.094 3.238,9.483 3.017,12.067Z" style="fill:#f3e549;"/><path d="M491.053,624.771c-11.399,-12.606 0.545,-21.496 3.354,-22.331c20.771,-6.174 16.177,33.712 -3.354,22.331Z" style="fill:#3a291d;"/><path d="M376.007,53.172c-0.881,2.847 -1.011,2.653 -1.516,5.724c-0.253,12.289 5.864,32.29 4.767,40.318c-3.517,-0.619 -3.432,-0.884 -6.994,-0.65c-0.668,-2.653 -0.69,-2.629 -0.721,-2.865c-4.372,-33.426 -8.454,-50.208 -7.027,-51.424c0.892,-0.76 1.173,-0.468 11.491,8.898Z" style="fill:#f9e98b;"/><path d="M513.982,635.343c-1.278,-1.09 -9.807,-5.27 -3.403,-19.416c4.122,-9.106 19.979,-5.761 18.008,13.19c-1.124,10.807 -13.411,6.632 -14.604,6.227Z" style="fill:#402718;"/><path d="M481.892,585.594c4.907,-17.206 17.589,-10.384 20.039,-5.284c9.579,19.948 -20.365,27.054 -20.039,5.284Z" style="fill:#41281a;"/><path d="M527.109,596.384c-3.613,26.178 -31.942,1.139 -15.493,-11.925c4.621,-3.67 9.575,-1.079 10.333,-0.683c6.798,3.555 5.16,12.272 5.16,12.608Z" style="fill:#3a2c1b;"/><path d="M495.976,112.35c0.528,1.854 1.378,1.743 0.17,13.36c-5.104,1.574 -3.979,5.14 -9.959,5.226c-16.554,-6.705 -9.001,-23.458 -1.084,-25.079c7.879,-1.613 10.491,5.935 10.873,6.492Z" style="fill:#dfe864;"/><path d="M372.264,98.563c3.562,-0.234 3.477,0.031 6.994,0.65c34.162,9.685 43.098,5.82 50.578,7.757c1.2,0.311 1.166,-0.76 2.298,-0.156c0.591,0.315 0.627,1.481 1.217,1.796c-5.189,2.996 -5.631,2.181 -9.623,7.193c-6.199,2.107 -7.367,-12.446 -21.583,-5.206c-4.107,2.092 -4.983,7.838 -6.528,2.756c-3.164,-10.408 -18.015,-10.191 -19.82,-3.932c-0.117,0.407 0.171,1.068 -0.145,1.279c-0.323,0.215 -0.861,-0.89 -1.027,-0.498c-0.253,0.598 0.667,1.349 0.413,1.948l1.21,1.7l-1.191,2.498c-2.037,-2.676 -2.175,-2.576 -2.197,-2.886c-0.2,-2.796 0.024,-2.668 -0.128,-5.46c-0.262,-4.821 -0.233,-4.701 -0.467,-9.439Z" style="fill:#e08836;"/><path d="M322.84,717.483c0.366,3.383 -0.1,3.372 -7.679,23.592c-1.584,-0.18 -10.995,-1.252 -19.862,-1.373c2.274,-3.599 8.527,-11.984 9.841,-17.742l0.537,-1.478c9.486,0.435 9.941,-0.47 17.162,-2.999Z" style="fill:#de889b;"/><path d="M305.677,720.481l-0.537,1.478c-1.315,5.758 -7.567,14.144 -9.841,17.742c-12.762,-5.971 -12.657,-5.992 -13.778,-6.45c-0.736,-0.096 -1.472,-0.193 -2.208,-0.289c4.85,-7.634 9.087,-16.805 12.679,-15.565c6.769,2.335 6.706,2.151 13.685,3.084Z" style="fill:#dca5ad;"/><path d="M400.999,612.722c0.608,-0.564 5.065,-4.703 9.186,-3.479c0.746,0.222 5.755,1.709 7.159,7.62c4.716,19.841 -28.501,17.4 -16.345,-4.141Z" style="fill:#432d27;"/><path d="M437.594,610.969c7.904,-5.586 15.073,2.266 14.331,10.074c-1.88,19.78 -30.158,5.553 -14.331,-10.074Z" style="fill:#412c27;"/><path d="M289.561,694.894l0.604,1.145c1.243,3.093 1.842,2.357 4.794,4.465c10.051,7.178 22.861,2.949 24.503,1.42c1.656,-1.541 1.374,-2.05 3.449,-2.305c0.405,-0.05 0.765,0.649 1.15,0.491c0.081,-0.033 1.5,-4.481 4.994,1.978c-1.649,1.568 -1.627,1.576 -1.781,1.693c-23.549,17.882 -41.892,-3.552 -44.444,-6.535c-4.683,-5.473 1.555,-3.34 6.731,-2.352Z" style="fill:#6d6d6e;"/><path d="M313.643,637.704c13.756,5.26 11.355,23.37 -7.978,22.834c-9.342,-0.259 -14.241,-1.57 -14.908,-1.679c0.551,-0.266 0.56,-1.392 1.112,-1.658c4.792,-2.315 5.302,-0.088 17.316,-5.973c8.317,-4.074 3.714,-10.054 3.569,-11.122c-0.065,-0.479 0.491,-0.885 0.426,-1.364l0.463,-1.037Z" style="fill:#f8be8a;"/><path d="M506.207,683.527c0.603,-0.053 1.205,-0.106 1.808,-0.159l1.15,0.917l0.691,0.84l0.458,0.798c0.422,0.269 0.887,-0.688 3.146,2.257c1.997,2.604 10.446,28.022 35.944,28.258c2.236,0.021 2.222,1.977 2.375,2.109c0.314,0.27 0.84,-0.452 1.154,-0.182c-28.856,3.44 -37.963,-11.279 -46.727,-34.837Z" style="fill:#6f6d6e;"/><path d="M541.993,649.302c15.195,18.092 20.897,6.884 30.393,17.861c-14.034,1.551 -23.773,3.262 -28.534,-2.72c-5.647,-7.095 -2.362,-14.072 -1.859,-15.141Z" style="fill:#f8c38f;"/><path d="M318.616,608.141c9.846,8.303 6.73,23.381 -10.661,21.232c-6.392,-0.79 -6.284,-0.866 -12.614,-1.863c6.852,-7.572 23.226,-2.947 21.919,-16.061c-0.325,-3.262 1.05,-2.561 1.356,-3.308Z" style="fill:#f3b681;"/><path d="M540.226,618.291c0.377,0.763 0.753,1.527 1.13,2.29c0.408,0.213 0.742,-1.023 1.15,-0.809c0.281,0.147 3.751,6.898 9.159,8.222c4.021,0.984 3.994,0.604 7.999,1.677c0.651,0.174 8.13,2.179 8.136,2.186c0.692,0.848 -1.821,2.43 -1.129,3.278c-5.744,0.704 -34.438,7.592 -26.444,-16.844Z" style="fill:#f7c18d;"/><path d="M499.62,95.718c-0.709,7.196 -0.511,7.098 -1.517,12.854c-4.372,-1.776 -7.545,-11.281 -18.824,-3.23c-4.517,3.224 -3.245,10.056 -7.214,5.857c-5.119,-5.417 -8.841,-4.217 -12.255,-3.895l-1.233,-2.456c19.678,-1.74 22.361,-5.025 23.718,-6.687l1.576,1.642c7.002,-3.494 7.379,-1.41 14.675,-4.023l1.074,-0.062Z" style="fill:#e78f34;"/><path d="M352.712,476.367c0.586,0.92 1.172,1.84 1.758,2.76l-0.028,1.364c-2.063,10.994 -1.271,11.117 -4.183,21.725c-5.061,18.435 -6.99,17.948 -6.671,27.694c-0.313,-0.019 -4.608,1.587 -3.706,-3.099c5.106,-26.519 8.865,-37.674 12.831,-50.444Z" style="fill:#e66f89;"/><path d="M343.548,629.951c-20.361,-2.787 -5.845,-16.182 -3.412,-15.655c8.225,1.78 12.772,-0.078 10.538,9.501c-0.995,4.266 -6.443,5.944 -7.126,6.154Z" style="fill:#786354;"/><path d="M378.853,110.116c1.329,-0.976 1.179,-1.264 2.756,-1.545c17.195,-3.061 15.782,27.238 1.198,23.503c-4.836,-1.239 -4.302,-2.418 -4.711,-2.486c-0.59,-0.099 -1.106,0.766 -1.695,0.668c-1.935,-6.513 -2.62,-6.465 -1.829,-12.659c0.586,1.147 1.176,0.232 1.761,1.377c0.757,1.48 -0.001,1.665 0.613,3.268c0.357,0.93 2.937,2.251 3.449,2.812c2.88,3.157 12.888,0.929 8.048,-11.165l-1.15,-0.903l-1.15,-0.704l-1.15,0.422l-1.15,-0.36l-1.15,-0.207l-1.15,-0.161l-1.15,0.517l-1.544,-2.376Z" style="fill:#f6ca70;"/><path d="M348.113,584.287c0.057,0.083 9.151,12.854 -0.997,10.412c-8.586,-2.066 -8.539,1.131 -10.459,0.616c-8.391,-2.251 -0.92,-21.851 11.456,-11.028Z" style="fill:#846c5e;"/><path d="M430.782,322.352c4.482,7.804 14.684,7.972 7.086,10.764c-13.439,4.938 -20.795,-23.518 -4.583,-24.597c0.283,-0.019 5.575,0.497 0.015,4.199c-3.82,2.544 -2.663,8.846 -2.518,9.634Z" style="fill:#f7bf8b;"/><path d="M489.46,713.485c2.388,6.368 2.232,6.315 4.364,12.717l0.493,1.189c-4.505,2.429 -4.886,0.7 -11.531,0.907c0,0 -2.504,2.004 -2.721,2.178l-0.82,-1.647c-2.313,-3.378 -1.071,-4.063 -3.368,-9.205c3.645,-1.711 3.614,-1.666 13.584,-6.138Z" style="fill:#ca516a;"/><path d="M256.97,574.191c2.12,-4.471 2.086,-6.968 5.892,-4.432c4.283,2.854 13.425,7.244 8.558,10.762c-4.591,3.319 -9.49,9.809 -10.22,10.776c-0.296,-0.816 -1.457,-0.851 -1.753,-1.668c-0.364,-1.006 6.118,-7.743 -2.478,-15.438Z" style="fill:#f1ae84;"/><path d="M378.853,110.116l1.544,2.376l1.15,-0.517l1.15,0.161l1.15,0.207l1.15,0.36l1.15,-0.422l1.15,0.704l1.15,0.903c4.84,12.094 -5.168,14.322 -8.048,11.165c-0.512,-0.561 -3.093,-1.882 -3.449,-2.812c-0.615,-1.603 0.143,-1.788 -0.613,-3.268c-0.585,-1.145 -1.175,-0.229 -1.761,-1.377l0.483,-1.247l1.191,-2.498c1.27,-1.992 1.183,-1.916 2.606,-3.735Z" style="fill:#fbe07d;"/><path d="M496.146,125.71c1.525,9.704 -5.07,9.042 -22.583,12.742c-0.29,-0.295 -0.841,0.517 -1.13,0.221c-1.404,-1.432 -1.68,-1.883 -0.354,-3.385c3.131,-3.549 2.245,-10.227 5.037,-7.113c0.245,0.273 2.593,2.892 3.321,3.048c3.508,0.755 3.181,2.03 3.434,1.836c0.651,-0.5 0.629,-1.77 1.243,-2.333c0.287,-0.263 0.786,0.473 1.073,0.21c5.98,-0.087 4.855,-3.652 9.959,-5.226Z" style="fill:#d27e30;"/><path d="M514.836,618.13c3.516,-1.782 3.903,-2.656 6.873,0.294c2.748,2.729 2.473,6.098 2.426,6.677c-0.972,11.933 -19.634,3.466 -9.299,-6.971Z" style="fill:#f7ad2b;"/><path d="M494.162,619.742c-2.517,-2.865 -3.076,-2.932 -2.432,-6.964c0.622,-3.888 3.259,-5.062 3.691,-5.254c9.902,-4.405 11.427,18.211 -1.26,12.218Z" style="fill:#84d87c;"/><path d="M362.187,613.153c-10.144,5.017 -8.362,-20.78 -0.436,-14.863c2.022,1.509 3.365,5.433 3.45,7.741c0.127,3.466 -2.63,6.676 -3.013,7.122Z" style="fill:#886d5a;"/><path d="M511.072,593.672c2.612,-9.072 9.317,-4.46 10.573,-2.533c5.891,9.038 -9.609,18.085 -10.573,2.533Z" style="fill:#c8d427;"/><path d="M459.811,107.303c-0.779,0.386 -7.093,3.517 -9.039,6.475c-1.627,2.473 -1.971,4.69 -3.488,2.104c-1.859,-3.169 -7.338,-6.154 -9.406,-7.745c0.569,-0.281 0.585,-1.433 1.154,-1.714c0.255,-0.126 0.188,0.341 3.449,-0c2.779,-0.291 13.351,-0.974 16.096,-1.575l1.233,2.456Z" style="fill:#dd9638;"/><path d="M496.596,582.721c8.006,12.528 -13.843,13.84 -10.182,2.929c3.324,-9.906 9.546,-3.576 10.182,-2.929Z" style="fill:#ef9219;"/><path d="M352.406,579.28c0.74,-0.585 0.807,-1.995 1.547,-2.58c1.719,-1.359 9.317,6.958 10.019,7.727c5.602,6.133 3.575,7.362 2.49,9.461c-0.291,-0.302 -2.869,-3.795 -5.654,-3.798c-2.95,-0.004 -3.853,1.582 -4.807,-1.711c-1.396,-4.821 -1.067,-4.884 -3.596,-9.099Z" style="fill:#767473;"/><path d="M434.433,116.616l1.15,-0.866l1.15,0.333c0.701,0.724 0.992,0.25 1.288,1.329c0.231,0.842 2.324,8.486 -0.169,11.071c-1.532,1.588 -13.323,3.559 -6.646,-10.519c0.77,-1.623 1.043,-0.967 3.228,-1.347Z" style="fill:#f77c8b;"/><path d="M475.876,719.623c2.297,5.142 1.056,5.827 3.368,9.205c-7.572,-0.067 -9.606,-1.926 -12.619,-1.58l-1.15,0.079l-1.15,-0.233c-0.782,-0.406 -1.564,-0.811 -2.346,-1.217c1.116,-0.488 4.79,-2.096 13.896,-6.253Z" style="fill:#d27b8f;"/><path d="M403.213,619.622c0.225,-0.766 2.806,-9.539 8.233,-2.717c4.352,5.471 -6.146,15.074 -8.233,2.717Z" style="fill:#8a7e6f;"/><path d="M440.243,615.672c2.758,-1.133 3.024,-1.868 5.233,0.46c0.261,0.275 1.896,1.998 1.486,4.859c-1.02,7.12 -14.291,5.21 -6.719,-5.318Z" style="fill:#7e7466;"/><path d="M343.447,610.419c-0.459,-0.501 -5.765,-6.29 0.331,-9.24c4.985,-2.413 9.311,11.566 -0.331,9.24Z" style="fill:#c9c3c1;"/><path d="M334.062,608.45c-6.293,4.935 -10.132,-11.105 -3.022,-8.163c5.236,2.167 3.263,7.509 3.022,8.163Z" style="fill:#aa9688;"/><path d="M447.43,711.777c2.159,1.857 2.446,1.767 2.323,1.997c-0.281,0.525 -1.242,-0.063 -1.523,0.462l-0.8,-2.459Z" style="fill:#de7a91;"/><path d="M518.241,498.34c0.107,0.207 1.34,2.584 1.34,2.584c-0.563,1.211 -0.369,-0.388 -1.242,-1.307l-0.098,-1.277Z" style="fill:#f18fa0;"/><path d="M379.528,631.56c0.408,0.541 1.365,0.02 1.773,0.561c1.301,1.725 -0.387,1.19 -0.472,1.164c-1.043,-0.33 -0.242,-1.39 -1.301,-1.725Z" style="fill:#8a8685;"/></g></svg>