<?xml version="1.0" encoding="UTF-8" standalone="no"?><!DOCTYPE svg PUBLIC "-//W3C//DTD SVG 1.1//EN" "http://www.w3.org/Graphics/SVG/1.1/DTD/svg11.dtd"><svg width="100%" height="100%" viewBox="0 0 1024 1024" version="1.1" xmlns="http://www.w3.org/2000/svg" xmlns:xlink="http://www.w3.org/1999/xlink" xml:space="preserve" xmlns:serif="http://www.serif.com/" style="fill-rule:evenodd;clip-rule:evenodd;stroke-linejoin:round;stroke-miterlimit:2;"><g id="Background"><path d="M222.066,445.133c-2.862,-2.359 -3.924,-3.591 -5.503,-0.037c-17.432,39.233 -18.139,60.866 -14.83,79.621c2.663,15.091 16.069,37.594 37.984,43.837c-0.165,0.107 -3.087,-0.854 -1.719,4.483c0.729,2.843 2.22,2.657 2.219,2.664c-0.145,1.074 -1.483,2.033 -1.655,2.156c-0.467,0.334 -0.416,-0.673 -0.935,-0.301c-85.739,-34.273 -23.496,-139.015 -24.795,-141.699c-0.831,-1.718 -10.368,-1.952 -11.53,-30.241c-0.561,-13.644 4.053,-23.054 2.495,-25.44c-27.617,-42.28 -26.165,-46.345 -24.639,-50.618c2.234,-6.255 17.181,-23.357 29.476,-3.763c1.444,2.301 12.551,20.002 17.59,29.1c4.404,7.952 12.449,-11.722 52.76,9.807c15.365,8.206 49.451,43.071 36.914,77.261c-5.954,16.238 -13.271,17.886 -9.657,27.132c0.758,1.94 1.608,1.61 23.761,-4.575c1.984,-0.554 20.356,-26.152 30.857,-34.85c4.498,-3.726 -6.543,-5.864 -11.351,-27.225c-3.729,-16.571 0.839,-44.461 10.047,-40.954c0.094,0.036 16.393,15.845 29.624,-40.659c0.961,-4.102 -13.379,-15.353 -11.502,-39.753c2.232,-29.012 15.531,-30.855 15.422,-34.385c-0.042,-1.368 -9.35,-50.438 34.624,-100.573c31.102,-35.459 72.159,-45.067 79.199,-46.714c0.58,-0.136 6.814,-1.595 6.857,-3.071c0.475,-16.466 -1.254,-76.646 4.021,-79.389c8.539,-4.439 28.52,43.797 31.31,42.456c4.391,-2.109 28.617,-38.351 36.47,-37.15c6.914,1.057 17.617,47.735 21.616,47.203c2.267,-0.302 32.818,-19.224 35.634,-20.969c22.873,-14.167 1.88,29.95 -6.014,57.558c-1.492,5.219 16.052,1.392 55.589,28.398c42.545,29.061 73.61,86.733 79.083,134.772c7.225,63.419 -6.816,83.196 -3.599,123.385c0.68,8.499 2.372,-2.783 2.42,-3.105c0.354,-2.358 2.832,-18.886 7.277,-28.793c7.131,-15.893 36.96,-18.249 65.243,0.279c5.668,3.713 29.709,9.098 32.277,40.369c0.976,11.886 -4.4,15.35 -3.059,21.308c4.832,21.466 -3.12,21.031 -2.791,29.153c0.544,13.411 0.389,13.537 -4.088,23.864c-1.201,2.77 1.31,19.619 -16.782,35.684c-14.242,12.646 -10.177,57.078 -33.259,113.104c-18.918,45.919 -74.914,91.158 -138.771,21.311c-9.761,-10.677 -8.772,-13.02 -15.108,-13.355c-13.898,-0.735 -24.085,-7.934 -24.785,-4.615c-1.498,7.1 -6.165,42.712 -4.478,45.046c4.543,6.286 65.667,32.637 114.614,139.856c24.899,54.543 40.654,119.205 43.258,129.891c3.417,14.026 5.833,17.075 0.864,21.033c-68.544,54.594 -318.162,99.279 -481.277,7.825c-15.729,-8.819 -41.452,-27.587 -40.501,-35.36c1.218,-9.951 11.644,-59.336 12.73,-64.477c1.354,1.521 1.73,1.225 2.127,3.34c0.261,1.394 3.379,3.071 5.801,5.273c-8.146,34.873 -10.637,53.851 -10.384,54.721c1.156,3.965 16.229,15.175 21.373,19.337c107.53,68.152 287.899,77.623 431.508,27.169c26.326,-10.054 50.573,-23.075 49.731,-27.018c-2.676,-12.532 -19.773,-73.795 -28.663,-96.507c-28.859,-73.733 -51.185,-109.949 -99.936,-154.647c-1.724,-1.58 -14.082,-12.912 -23.424,-17.016c-1.313,0.389 -1.019,1.083 -15.596,7.39c-5.084,1.778 -4.974,1.921 -9.981,3.867c-11.731,3.582 -11.66,3.618 -23.631,6.417c-9.792,2.005 -10.788,2.176 -11.731,2.338c-17.648,2.648 -23.264,1.552 -23.428,12.907c-0.882,60.956 0.993,106.346 -4.562,115.67c-11.557,19.398 -69.246,52.827 -143.995,48.148c-40.08,-2.509 -40.062,-2.478 -41.305,-2.627l-0.97,-1.491l-0.983,-0.528l-0.983,-0.463l-0.983,-0.109l-0.983,0.113l-0.983,-0.178l-0.983,-0.078l-0.983,-0.281l-0.983,-0.076l-0.983,-0.466c-3.075,-0.713 -2.767,-1.745 -5.892,-1.978c-13.063,-0.974 -12.937,-1.599 -25.589,-5.215c-2.826,-0.808 -16.224,-2.687 -21.634,-6.5c-4.625,-3.259 -6.451,-5.525 -8.474,0.118c-0.1,0.278 -1.427,2.329 -1.54,2.403c-0.242,0.158 -0.524,-0.55 -0.766,-0.392c-24.185,-9.052 -50.192,-26.311 -51.738,-39.809c-1.895,-16.542 -2.608,-121.931 -4.743,-127.52c-11.077,-29 -82.766,-12.5 -76.19,-52.841c1.709,-10.481 14.875,-33.505 39.212,-27.472c24.049,5.961 48.63,17.611 52.209,15.706c49.998,-26.612 63.831,-18.618 67.472,-23.91c0.795,-1.155 -0.256,-1.423 1.427,-18.001c0.104,-1.026 0.433,-7.449 -1.51,-12.395l-0.136,-1.583c-1.026,-1.489 -1.006,-1.401 -1.778,-2.987c-1.247,-2.563 -1.127,-2.515 -2.802,-4.88c0.754,-0.854 1.419,-1.456 -7.147,-19.758c-33.732,-64.528 -33.925,-64.389 -35.575,-67.114c-5.059,-8.353 -7.295,-16.595 -10.142,-15.862c-23.954,6.165 -19.693,-17.016 -22.837,-18.89c-0.428,-0.255 -0.41,-0.208 -5.529,-2.814Z" style="fill:#4a190d;"/><path d="M631.626,747.334c5.551,6.477 19.9,47.294 22.589,58.93c1.012,4.378 2.552,1.532 2.484,1.082c-3.28,-21.645 -12.917,-51.603 -14.328,-55.991c19.998,8.63 34.551,36.822 54.257,94.557c10.107,29.612 23.698,80.842 30.175,121.392c1.823,11.415 2.632,12.554 3.256,13.432c0.681,0.241 1.362,0.483 2.043,0.724c-143.609,50.453 -323.978,40.983 -431.508,-27.169c1.064,-4.161 0.112,-24.883 6.997,-65.49c7.687,-1.195 27.734,14.281 90.267,14.078c69.143,-0.224 98.244,-18.392 119.83,-29.266c4.237,-2.134 21.895,-15.108 29.161,-25.888c22.356,-33.164 11.495,-70.082 12.884,-83.461c0.51,-4.91 16.74,-5.475 28.838,-10.806l0.714,0.376c0.865,1.834 0.876,1.814 0.934,1.98c9.929,28.36 14.493,51.7 15.041,52.446c5.907,8.045 -9.011,-52.621 -9.052,-56.962c10.334,-1.045 12.208,-5.734 35.419,-3.964Z" style="fill:#fb899b;"/><path d="M423.726,236.562c1.519,0.062 1.509,0.077 1.64,0.066c61.319,-4.734 108.544,-41.114 116.683,-47.383c4.652,-3.583 2.175,2.893 11.561,20.642c29.995,56.725 90.19,93.55 125.331,105.561c7.275,2.487 7.392,1.745 8.766,1.038l1.416,-0.984c-1.07,4.14 -7.751,29.988 -16.571,50.633c-0.635,0.322 -1.079,-1.647 -1.715,-1.325c-0.426,0.216 -1.023,2.161 -4.268,6.775c-19.764,28.095 -45.941,54.325 -96.775,64.785c-63.82,13.132 -117.322,-24.584 -122.794,-29.595l-0.983,-0.738l-0.983,-0.866l-0.978,-0.628l-0.988,-0.704l-0.983,-0.75l-1.145,1.663c-5.436,-5.398 -5.656,-5.024 -10.83,-10.752c0.314,-0.908 0.782,-0.417 1.077,-1.269c0.022,-0.064 0.021,-0.06 -0.38,-0.745c-0.244,-0.417 -0.621,-0.756 -0.771,-1.224c-0.245,-0.764 -1.017,-3.166 -4.778,-8.674c-4.326,-6.335 -15.975,-30.397 -16.465,-60.235c-0.024,-1.462 0.22,-1.299 1.254,-3.402c1.388,1.469 12.12,17.286 33.868,10.437c21.582,-6.797 14.829,-37.086 -11.678,-41.153c-1.549,-0.238 -9.576,-1.469 -18.738,6.119c-0.088,-0.551 0.608,-0.12 0.53,-0.607c-0.146,-0.912 -0.691,-0.516 -0.861,-1.46c-0.301,-1.67 7.801,-29.137 8.96,-37.647c1.199,-8.803 -0.543,-9.004 1.598,-17.579Z" style="fill:#fdd399;"/><path d="M515.267,121.841c38.177,27.536 106.147,23.621 109.784,17.589c0.29,-0.481 0.515,-0.854 2.677,-6.584c33.115,6.574 84.024,39.345 107.959,93.588c5.736,12.999 17.875,38.504 20.66,78.333c0.193,2.76 1.829,1.362 2.007,0.851c0.339,-0.975 0.216,-0.952 2.481,-12.756c0.136,-0.708 -0.067,-1.534 0.283,-2.148c0.325,-0.569 1.232,-0.507 1.557,-1.076c3.06,58.394 -10.227,74.653 -3.629,110.502c1.129,6.132 -12.948,5.766 -21.891,24.932c-2.147,4.601 -1.948,4.638 -2.974,9.688c-11.116,-7.404 -12.89,-43.074 -13.092,-44.245c3.535,-4.25 21.937,-22.299 15.137,-52.628c-1.755,-7.829 -9.991,-23.166 -28.773,-23.63c-2.34,-0.058 -9.03,1.179 -8.573,-0.965c1.254,-5.875 5.063,-9.09 -2.231,-10.808c-12.151,-2.862 -41.929,-16.773 -67.533,-37.969c-61.697,-51.077 -69.752,-95.639 -71.621,-105.979c-1.405,-7.772 -0.753,-8.641 -2.372,-8.709c-2.415,-0.101 -20.491,24.409 -62.848,45.466c-59.868,29.762 -77.564,19.172 -78.496,26.733c-2.43,19.7 -1.122,21.309 -4.062,21.777c-8.272,1.316 -9.065,0.903 -9.167,-1.388c-0.027,-0.603 -0.004,-0.559 -0.059,-7.542c0.625,-0.811 2.255,0.526 2.408,-3.123c0.776,-18.61 15.599,-42.894 17.634,-46.228c32.927,-53.945 92.819,-63.678 94.735,-63.682Z" style="fill:#cc6e3b;"/><path d="M454.479,470.033c0.437,0.725 5.163,8.57 6.794,7.905c0.555,-0.226 0.863,-1.049 1.451,-1.119c0.453,-0.054 0.695,0.864 1.148,0.81c-2.748,7.439 -11.384,27.353 10.575,40.882c21.588,13.301 52.966,12.019 68.869,9.52c25.423,-3.996 32.316,-5.542 48.67,-44.365c5.817,-0.31 12.283,1.953 15.163,1.66c1.892,-0.192 1.611,0.672 2.258,0.942c-5.007,7.808 -8.946,22.913 -9.812,30.002c-4.844,39.681 4.185,63.136 9.861,78.276c2.435,4.824 2.293,4.846 5.078,9.42c7.24,11.892 11.615,10.081 10.416,17.514c-3.307,20.496 -4.024,20.369 -5.729,52.627c-0.276,5.216 -12.779,8.697 -19.945,11.585c-0.382,0.154 -10.479,4.223 -5.088,0.05c1.505,-1.165 10.375,-8.033 8.318,-23.494c-3.776,-28.385 -28.663,-22.437 -59.237,-18.689c-7.089,0.869 -29.472,-32.591 -129.707,-38.628c0.067,-0.902 0.176,-0.837 0.127,-1.718c-1.144,-20.406 -0.909,-20.333 0.376,-40.739c2.371,-37.663 37.353,-88.722 40.413,-92.44Z" style="fill:#f1838d;"/><path d="M462.733,719.256l-0.272,1.007c-0.034,0.414 -0.548,0.659 -0.583,1.074c-0.119,1.427 0.102,2.864 0.136,4.297c0.418,17.581 -0.798,127.29 -0.287,133.226c-23.727,7.243 -65.059,7.946 -70.749,8.043c-4.877,0.083 -39.682,0.675 -60.843,-4.193c-3.287,-0.756 -3.336,-1.744 -6.409,-0.314c-0.077,-0.238 -0.776,-0.282 -0.848,-3.579c-2.562,-118.536 -2.421,-124.508 -2.166,-135.333l0.505,-1.186c16.17,2.303 16.092,2.304 32.386,3.595c54.131,4.134 100.522,-4.951 109.129,-6.637Z" style="fill:#acbdd7;"/><path d="M629.81,686.273c9.342,4.104 21.7,15.436 23.424,17.016c48.751,44.698 71.078,80.914 99.936,154.647c8.889,22.712 25.986,83.975 28.663,96.507c0.842,3.942 -23.405,16.964 -49.731,27.018c-0.681,-0.241 -1.362,-0.483 -2.043,-0.724c-0.624,-0.878 -1.433,-2.018 -3.256,-13.432c-6.477,-40.55 -20.068,-91.779 -30.175,-121.392c-19.706,-57.735 -34.259,-85.926 -54.257,-94.557c-6.043,-19.579 -22.661,-51.766 -28.157,-57.693c14.577,-6.307 14.284,-7.001 15.596,-7.39Z" style="fill:#df6c7c;"/><path d="M822.971,522.386l0.71,1.359l0.354,1.074l-0.104,1.074l-0.199,1.074l-0.253,1.074l-0.381,1.074l-0.226,1.074l-0.259,1.074c-12.64,76.88 -42.24,119.199 -50.696,122.882c-0.299,0.13 -0.612,-0.476 -0.911,-0.346c-1.222,-3.72 -6,-2.104 -3.352,2.858c-0.238,0.652 -0.477,1.304 -0.715,1.956c-15.615,9.612 -19.805,9.486 -30.001,11.627l-0.983,0.168l-0.942,1.261c-8.697,-1.929 -21.052,-3.64 -40,-19.536c-44.051,-36.957 -36.904,-54.404 -27.897,-72.568c1.915,-3.094 13.251,-21.409 34.538,-27.501c1.224,-0.35 25.225,-7.256 33.934,4.24c2.592,3.421 -8.296,11.432 -13.928,18.349c-15.283,18.77 -13.515,42.146 -11.077,34.074c8.431,-27.915 22.863,-20.056 42.771,-61.529c3.826,-7.971 7.275,0.982 16.882,2.1c1.165,5.997 1.066,5.957 1.215,6.458c1.994,0.665 3.222,2.371 6.873,-4.124c6.349,0.55 6.256,0.682 6.801,0.713c28.922,1.653 29.518,-5.624 37.846,-29.96Z" style="fill:#fdc189;"/><path d="M525.386,696.405c0.676,7.617 -0.515,128.237 -1.539,130.272c-9.709,19.292 -56.755,30.863 -62.12,32.183c-0.511,-5.937 0.705,-115.645 0.287,-133.226c-0.034,-1.433 -0.254,-2.869 -0.136,-4.297c0.034,-0.414 0.548,-0.659 0.583,-1.074l0.272,-1.007c47.069,-10.516 51.936,-18.501 62.653,-22.851Z" style="fill:#6882ab;"/><path d="M222.066,445.133c5.12,2.606 5.101,2.559 5.529,2.814c3.144,1.874 -1.116,25.054 22.837,18.89c2.847,-0.733 5.083,7.509 10.142,15.862c1.65,2.724 1.843,2.586 35.575,67.114l-0.547,0.778l-0.943,0.972c-1.024,-0.397 -21.523,-8.348 -10.503,9.414c0.569,0.917 4.413,5.558 6.548,11.209l-0.971,-0.038c-10.828,0.858 -10.765,0.929 -21.584,1.28c-5.937,0.012 -5.86,-0.076 -11.784,-0.653c-7.894,-1.474 -7.905,-1.157 -16.648,-4.218c-21.915,-6.243 -35.321,-28.746 -37.984,-43.837c-3.309,-18.756 -2.602,-40.388 14.83,-79.621c1.579,-3.554 2.641,-2.322 5.503,0.037Z" style="fill:#fdbd87;"/><path d="M568.871,706.285c0.593,0.704 19.049,37.596 19.698,47.173c-12.098,5.331 -28.329,5.897 -28.838,10.806c-1.389,13.379 9.472,50.297 -12.884,83.461c-7.267,10.78 -24.924,23.754 -29.161,25.888c-21.586,10.875 -50.687,29.043 -119.83,29.266c-62.533,0.202 -82.58,-15.273 -90.267,-14.078l-0.236,-0.949c2.222,-6.551 1.211,-6.799 3.287,-13.372c8.619,1.576 20.593,5.053 44.94,5.903c1.243,0.149 1.225,0.118 41.305,2.627c74.749,4.679 132.438,-28.749 143.995,-48.148c5.555,-9.324 3.68,-54.714 4.562,-115.67c0.164,-11.355 5.78,-10.259 23.428,-12.907Z" style="fill:#d36473;"/><path d="M721.089,390.516c0.202,1.171 1.976,36.841 13.092,44.245c-0.85,18.708 -1.271,19.268 10.386,45.085c2.704,5.989 -4.524,21.763 -5.885,34.161c-0.47,0.587 -0.939,1.174 -1.409,1.761c-10.941,-35.987 -40.499,-50.285 -45.338,-52.625c-29.935,-14.48 -54.866,-0.862 -58.194,-2.758c-22.552,-12.853 -26.042,-7.814 -26.266,-11.772c-0.183,-3.224 27.049,-6.848 55.327,-46.584c7.683,-10.796 8.388,-14.461 10.001,-13.219c0.334,0.257 6.342,7.871 20.893,9.251c14.708,1.395 22.725,-7.032 27.393,-7.544Z" style="fill:#79351d;"/><path d="M525.386,696.405c8.833,-8.34 9.962,-7.28 10.248,-6.3c0.325,1.114 -1.362,123.393 -1.59,131.091c-0.643,21.744 -57.382,45.892 -111.611,50.551c-78.221,6.72 -125.528,-11.3 -129.865,-12.56c0.911,-1.02 1.201,-0.382 2.171,-1.467c0.054,-0.061 0.078,-0.088 0.083,-1.057c0.005,-1.079 -0.067,-2.157 -0.062,-3.236c-0.434,-59.925 -1.525,-84.911 -2.103,-136.925c13.885,3.342 17.364,3.965 28.561,5.797l-0.505,1.186c-0.255,10.825 -0.396,16.797 2.166,135.333c0.071,3.297 0.77,3.341 0.848,3.579c3.073,-1.43 3.122,-0.442 6.409,0.314c21.161,4.868 55.966,4.276 60.843,4.193c5.69,-0.097 47.022,-0.8 70.749,-8.043c5.366,-1.32 52.412,-12.891 62.12,-32.183c1.024,-2.035 2.215,-122.655 1.539,-130.272Z" style="fill:#d9e4f1;"/><path d="M404.512,616.323c-4.897,-5.542 -4.841,-5.87 -4.434,-6.482c1.516,-2.283 74.911,3.932 110.612,21.748c90.896,45.359 -37.629,100.155 -177.681,84.184c-58.533,-6.675 -113.89,-28.376 -106.335,-56.78c7.43,-27.933 74.035,-41.685 78.856,-42.419c4.278,-0.652 3.695,1.316 4.146,5.932l-1.257,-0.232l-0.983,-0.71c-20.434,5.18 -57.978,13.195 -66.217,33.193c-0.714,1.732 0.313,1.385 1.809,2.384c-0.291,1.058 -0.769,2.048 -1.06,3.107c-4.104,14.931 20.418,39.933 107.747,46.85c67.259,5.327 126.426,-6.178 152.371,-18.933c50.981,-25.064 12.669,-59.699 -83.622,-67.257c-8.44,-0.662 -9.939,1.531 -13.953,-4.585Z" style="fill:#dddce3;"/><path d="M619.649,486.98c0.921,-1.216 1.733,-2.526 2.654,-3.742c17.784,-23.482 73.276,-30.912 102.563,26.671c-7.419,6.729 -12.13,4.302 -15.448,5.92c-0.473,0.231 -0.505,1.089 -0.978,1.32c-17.947,0.026 -32.661,1.996 -53.907,22.903c-0.313,-0.109 -1.274,-1.549 -3.103,-0.102c-0,0 -15.458,10.024 -28.253,1.639c-8.78,-5.754 -11.193,-22.127 -11.511,-24.287l-0.073,-1.074l-1.835,-1.155c3.774,-20.401 7.888,-24.673 9.891,-28.093Z" style="fill:#fc9195;"/><path d="M484.18,378.895c-13.938,-23.688 -14.786,-63.219 -5.033,-56.521c2.574,1.768 15.983,10.977 35.723,14.172c43.489,7.038 56.268,-8.371 58.926,0.341c5.05,16.555 -12.538,62.029 -49.172,64.084c-26.198,1.47 -37.642,-18.299 -40.444,-22.076Z" style="fill:#49170a;"/><path d="M213.607,378.419c1.534,-2.055 19.095,-32.145 60.269,-9.008c20.326,11.422 44.601,43.858 35.142,68.247c-3.926,10.124 -9.728,18.541 -20.362,30.131c-8.869,9.665 -12.357,13.733 -20.484,11.8c6.23,-8.144 6.261,-8.088 7.423,-9.826c22.11,-33.04 21.345,-33.648 23.081,-41.569c1.94,-8.853 -3.461,-9.589 -5,-10.651l-0.983,-0.447l-0.983,-0.049l-0.983,0.205l-0.983,0.302l-0.983,0.332l-0.983,0.152l-0.983,0.256l-0.983,0.567l-0.983,0.301l-0.983,0.541l-0.983,0.714l1.142,1.694c-10.8,5.541 -10.69,5.671 -20.672,12.699c-0.48,-0.488 -0.63,-1.287 -1.11,-1.775c-1.229,-1.249 -6.243,-1.304 -15.959,-14.715c17.4,-18.926 25.959,-15.929 25.506,-21.19c-0.356,-4.138 -21.289,6.119 -29.13,16.082c-0.729,-1.549 -0.478,-1.83 -1.978,-2.432c-4.233,-1.699 -8.469,-9.024 -12.92,-11.657c9.851,-14.587 28.284,-18.541 24.401,-22.171c-0.928,-0.867 -6.739,0.633 -11.393,3.232c-11.457,6.397 -13.739,10.468 -16.63,13.855c-9.704,13.394 -7.283,32.889 -8.964,33.312c-5.636,1.42 -12.953,-29.173 -1.55,-48.934Z" style="fill:#fdd29b;"/><path d="M258.404,704.743c18.409,7.44 18.307,7.614 34.253,11.759c0.579,52.014 1.669,76.999 2.103,136.925l-1.429,1.071l-0.638,0.641c-0.093,-0.023 -0.479,0.291 -1.083,-0.261c-7.212,-6.586 -9.916,-0.635 -29.539,-13.832c-0.341,-10.455 -1.396,-80.238 -1.98,-87.481c-0.188,-2.33 -1.751,-44.492 -1.687,-48.821Z" style="fill:#a6b9d6;"/><path d="M348.719,591.232c7.007,1.226 6.882,1.5 13.627,3.719c0.504,0.166 4.044,1.33 6.023,2.894c16.507,13.045 26.984,19.976 37.866,41.076c4.284,8.306 3.583,8.637 7.811,16.909l0.513,1.112c-7.875,0.053 -13.205,-1.511 -22.825,8.265c-4.419,4.491 -6.734,-5.318 -21.616,3.052c-5.029,2.829 -8.396,-3.035 -16.418,1.685c-0.4,0.235 -0.359,0.241 -4.841,3.247c-1.932,-3.57 -29.149,-39.032 -17.218,-70.085c0.256,-0.602 0.511,-1.203 0.767,-1.805c0.591,-0.741 1.182,-1.482 1.773,-2.223c0.82,-1.076 0.827,-1.003 2.453,-2.78c0.285,0.652 1.111,0.889 1.396,1.542c0.137,0.313 -0.545,0.567 1.327,4.021c5.945,10.972 5.817,10.985 10.734,22.546c1.205,2.833 14.793,29.971 17.339,33.534c1.599,2.237 2.481,3.646 6.842,-0.043c-8.965,-12.592 -8.52,-12.803 -16.057,-26.587c-0.837,-1.53 -3.137,-3.062 -7.424,-13.122c-2.554,-5.993 -3.428,-5.427 -5.299,-11.612c-0.332,-1.098 -2.539,-8.395 -6.703,-12.47l1.072,-0.611c1.883,-0.66 4.272,-2.6 8.856,-2.266Z" style="fill:#c7653b;"/><path d="M618.854,73.446c-1.792,18.817 -6.804,22.875 -7.776,31.113c-51.49,1.044 -84.746,-17.445 -88.312,-17.922c-0.413,-1.913 -0.433,-1.897 -0.446,-2.066c-0.125,-1.582 0.648,-49.126 0.693,-49.171c2.171,-2.226 1.089,1.752 20.591,33.88c4.174,6.876 10.508,-2.839 22.062,-16.154c13.602,-15.676 17.175,-19.889 18.458,-16.7c7.713,19.171 7.232,19.303 14.737,38.661c3.775,9.736 7.022,5.771 19.992,-1.639Z" style="fill:#fdc94c;"/><path d="M317.215,648.328c7.49,17.539 16.835,30.137 19.734,30.61c6.546,1.067 6.343,3.108 12.873,2.095c1.644,1.015 1.335,1.321 2.909,2.516c0.189,0.144 0.126,-0.776 2.874,-0.208c0.485,0.1 0.705,0.855 1.188,0.968c0.469,0.11 2.579,0.604 5.681,-2.107l0.291,-0.598l-1.415,-1.37c1.407,-0.586 1.272,-0.626 2.679,-1.192c0.43,-0.556 0.861,-1.111 1.291,-1.667c0.145,0.067 0.138,0.056 1.919,0.629c0.393,-0.215 0.786,-0.43 1.178,-0.645c2.165,-2.311 2.816,-2.787 3.09,-2.987c11.279,-8.246 14.544,1.745 23.51,-5.548c-0.827,4.16 -1.017,4.065 -0.992,6.278l0.184,0.959c-0.122,2.035 -0.536,2.02 0.215,3.91c1.629,1.541 1.645,1.361 3.472,2.454l0.943,1.651c-0.046,0.25 1.174,0.634 -0.253,1.389c-2.27,1.201 -2.41,1.031 -3.534,3.569c3.284,7.791 1.005,8.052 -3.052,15.356c-5.606,0.406 -5.498,0.441 -6.93,0.445c-50.115,0.143 -79.752,-7.341 -86.527,-9.051c1.692,-1.934 2.84,-1.767 1.851,-3.298c-2.027,-3.14 -2.509,-2.556 -4.76,-5.533c7.11,-6.174 0.047,-9.904 3.266,-12.602c1.492,-1.251 1.578,-0.89 3.497,-0.747c0.369,-0.058 0.737,-0.116 1.106,-0.174l0.983,0.044l0.983,-0.084l1.098,-1.916c3.538,0.134 7.918,0.464 6.549,-4.538c1.873,-1.623 1.843,-1.852 4.195,-1.744c-0.228,-0.293 -0.804,0.054 -1.032,-0.239c-0.329,-0.422 -0.13,-1.136 -0.402,-1.604c-1.299,-2.232 -2.002,-0.975 -4.087,-2.34c-1.312,-2.695 -1.62,-2.399 -4.356,-3.159c-0.56,-0.054 -0.552,-0.414 -1.001,-0.097c-0.972,0.685 -1.069,0.323 -2.032,1.019c-0.447,0.397 -3.36,2.979 -3.095,7.104c-4.797,-0.79 -4.705,-0.78 -9.515,-1.559c-1.644,-1.045 -6.194,-2.574 -9.713,3.24c2.096,3.177 5.758,1.638 8.842,0.494l2.531,0.723c-1,7.304 -4.525,3.09 -10.7,6.044c-2.936,1.405 -12.878,-0.475 -11.653,7.85c-1.318,1.74 -1.594,1.619 -1.569,3.8c-14.587,-4.654 -17.285,-9.768 -18.119,-11.35c17.143,-15.052 41.504,-19.849 56.972,-23.838c6.317,-1.184 6.277,-1.169 6.822,-1.278c2.107,-0.424 1.615,-1.346 2.009,-1.675Z" style="fill:#c85424;"/><path d="M421.291,228.32c2.682,-2.247 29.341,-3.571 62.053,-17.132c53.542,-22.196 65.766,-47.938 66.848,-42.893c1.105,5.151 6.665,31.068 27.986,58.636c52.397,67.749 108.973,82.449 110.633,83.034c2.578,0.908 0.908,1.892 0.311,5.539l-1.416,0.984c-1.374,0.707 -1.491,1.449 -8.766,-1.038c-35.141,-12.011 -95.336,-48.837 -125.331,-105.561c-9.385,-17.749 -6.909,-24.225 -11.561,-20.642c-8.139,6.27 -55.365,42.65 -116.683,47.383c-0.131,0.01 -0.122,-0.005 -1.64,-0.066c-1.318,-4.043 0.002,-6.085 -0.841,-7.059c-0.441,-0.51 -1.153,-0.673 -1.594,-1.183Z" style="fill:#fcb57a;"/><path d="M485.884,461.047c10.545,12.44 45.662,27.355 81.02,25.064c1.013,-0.066 7.139,-0.553 7.76,-0.603c1.229,-0.098 1.053,0.344 2.217,0.724c-11.094,22.183 -11.635,24.67 -34.529,27.984c-25.478,3.688 -70.732,-0.685 -69.649,-21.608c0.608,-11.754 9.901,-25.773 13.182,-31.561Z" style="fill:#fdd399;"/><path d="M811.701,379.464c6.523,1.498 6.482,1.306 12.745,3.494c-0.667,0.297 -1.333,0.594 -2,0.892c-2.484,3.942 -2.719,11.356 -4.545,18.627c-0.178,0.709 -0.913,1.367 -0.707,2.067c0.222,0.751 1.513,0.668 1.735,1.419c-4.493,7.507 -4.003,8.655 -4.031,15.762c-0.577,0.716 -1.153,1.432 -1.73,2.149c1.21,8.17 -2.691,7.49 -13.738,52.46c-0.1,0.407 -0.091,0.289 -1.653,2.672c-12.283,-5.065 -17.068,-5.654 -28.428,-5.487c0.504,-1.839 3.683,-13.45 7.014,-22.739c0.907,-2.529 -1.23,-3.677 1.781,-5.592c7.186,-4.571 5.17,-19.928 6.075,-26.317c0.639,-0.277 6.274,-2.726 2.729,-8.899c0.437,-0.635 0.874,-1.27 1.311,-1.905c0.396,-0.508 5.308,-6.8 -0.107,-8.339c-0.49,-0.139 -2.784,-0.791 -5.422,3.559c-0.145,0.24 -0.349,0.26 0.343,6.563c-1.88,2.2 -1.998,2.017 -3.307,4.627c-1.13,-3.92 -1.246,-3.765 -2.831,-7.49c-2.754,-4.186 -1.808,-4.772 3.004,-21.858c2.733,-9.705 29.209,-6.021 31.763,-5.665Z" style="fill:#dc9547;"/><path d="M627.728,132.846c1.768,-5.614 3.926,-15.677 6.913,-14.677c115.605,38.726 125.446,145.737 128.034,171.469c-0.325,0.569 -1.232,0.507 -1.557,1.076c-0.35,0.614 -0.147,1.44 -0.283,2.148c-2.265,11.804 -2.142,11.781 -2.481,12.756c-0.177,0.51 -1.814,1.909 -2.007,-0.851c-2.785,-39.829 -14.924,-65.334 -20.66,-78.333c-23.935,-54.243 -74.845,-87.014 -107.959,-93.588Z" style="fill:#f7a266;"/><path d="M417.455,425.889c10.221,0.351 10.165,-0.015 15.81,0.927c10.644,1.775 10.823,4.743 14.936,2.064c1.478,0.922 17.132,10.689 17.472,13.25c0.209,1.577 -10.02,4.704 -23.162,20.859c-44.576,54.797 -46.03,103.622 -46.467,103.886c-1.811,1.089 -17.407,-0.472 -13.118,-3.606c14.401,-10.521 24.29,-46.743 9.138,-78.264c0.224,-0.048 0.185,0.647 0.409,0.599c1.695,-0.363 9.407,-4.567 10.208,-5.003c2.45,-1.335 21.343,-11.634 22.994,-27.695c2.403,-23.383 -5.665,-21.002 -8.275,-25.851c-0.18,-0.335 0.235,-0.83 0.055,-1.165Z" style="fill:#d26676;"/><path d="M366.455,495.795c2.352,4.074 11.89,20.417 8.499,41.848c-2.893,18.286 -13.633,18.301 -16.457,19.238c-9.845,3.267 -9.9,2.973 -13.267,2.898c-12.129,-20.314 -25.695,-47.726 -27.088,-50.998c15.23,-3.629 42.704,-9.353 48.313,-12.985Z" style="fill:#fcab73;"/><path d="M672.551,366.137c-3.63,8.266 -3.539,8.241 -8.003,16.095c-47.345,83.292 -151.841,91.022 -223.608,22.522l1.145,-1.663l0.983,0.75l0.988,0.704l0.978,0.628l0.983,0.866l0.983,0.738c5.471,5.011 58.974,42.727 122.794,29.595c50.834,-10.46 77.011,-36.69 96.775,-64.785c3.246,-4.614 3.842,-6.559 4.268,-6.775c0.635,-0.322 1.079,1.647 1.715,1.325Z" style="fill:#fcaf78;"/><path d="M485.884,461.047c0.396,-0.675 4.723,-8.048 4.945,-8.451c2.888,-5.241 4.374,-1.566 21.946,2.74c37.841,9.273 74.072,-0.71 75.099,0.476c1.24,1.433 -9.99,28.043 -10.993,30.419c-1.163,-0.38 -0.988,-0.822 -2.217,-0.724c-0.621,0.049 -6.747,0.537 -7.76,0.603c-35.358,2.292 -70.475,-12.624 -81.02,-25.064Z" style="fill:#fdae77;"/><path d="M410.46,623.372c16.067,1.184 64.019,3.264 98.314,23.101c19.776,11.439 13.772,27.024 6.994,27.672c-4.422,-4.096 -20.576,-19.06 -68.726,-25.121c-13.204,-1.829 -13.102,-1.853 -26.387,-3.021c-3.439,-8.406 -8.928,-17.509 -11.113,-21.266l0.917,-1.365Z" style="fill:#746b76;"/><path d="M415.585,426.203c0.333,-0.026 0.666,-0.052 0.998,-0.078l0.871,-0.235c0.18,0.335 -0.235,0.83 -0.055,1.165c2.611,4.85 10.678,2.468 8.275,25.851c-1.65,16.061 -20.544,26.359 -22.994,27.695c-0.801,0.437 -8.514,4.641 -10.208,5.003c-0.224,0.048 -0.185,-0.647 -0.409,-0.599c-1.622,-3.309 -11.979,-24.446 -30.67,-32.845l1.081,-0.372c1.845,-1.423 22.673,-24.601 53.111,-25.585Z" style="fill:#fc8e95;"/><path d="M552.344,383.293c-3.52,3.021 -30.327,26.029 -55.853,3.599c-12.585,-11.059 -6.454,-14.125 -5.175,-15.543c26.732,-29.622 76.198,-13.214 73.522,-5.51c-2.425,6.98 -11.318,16.231 -12.493,17.453Z" style="fill:#fc796b;"/><path d="M597.345,331.479c1.005,-0.707 7.608,-5.351 13.815,-6.221c34.056,-4.77 51.97,30.409 28.509,42.841c-28.249,14.969 -64.821,-14.528 -42.324,-36.621Z" style="fill:#fdb98b;"/><path d="M241.993,696.275c2.125,0.791 2.117,0.769 2.295,0.854c7.253,3.477 6.903,4.04 14.116,7.614c-0.065,4.329 1.499,46.491 1.687,48.821c0.584,7.243 1.639,77.026 1.98,87.481c-14.458,-10.385 -15.9,-10.494 -16.259,-20.924c-4.154,-120.819 -4.552,-120.878 -3.819,-123.847Z" style="fill:#7d97bf;"/><path d="M425.587,662.655c6.664,-0.983 6.613,-0.52 13.354,0.14c16.5,7.032 17.183,7.2 22.718,4.712c1.437,-0.664 2.007,-0.505 2.179,-0.457c4.404,1.233 3.8,-1.064 4.786,-1.802c17.278,0.816 18.496,0.82 21.544,2.578c11.903,6.864 7.293,15.949 6.742,17.832c-6.646,6.212 -46.669,13.685 -50.809,14.457c1.67,-1.814 1.988,-2.996 2.071,-3.303c0.275,-1.019 3.405,-5.909 2.55,-6.32c-0.36,-0.173 -1.27,-0.611 -3.716,-3.523c-4.318,-9.512 -30.153,-13.745 -39.743,3.118c-3.746,7.302 -0.437,8.294 6.307,13.542c-15.844,2.343 -19.896,1.223 -21.569,0.76c4.057,-7.304 6.336,-7.565 3.052,-15.356c1.124,-2.538 1.264,-2.368 3.534,-3.569c1.427,-0.755 0.207,-1.138 0.253,-1.389l-0.943,-1.651c10.411,2.461 19.429,-6.086 21.137,-9.722c0.158,-2.851 0.001,-2.797 -1.197,-5.249c-0.142,-3.5 -0.441,-3.385 -0.453,-3.681c3.87,0.247 3.852,0.348 8.203,-1.118Z" style="fill:#dd5523;"/><path d="M401.811,361.59c6.529,10.059 7.945,26.933 31.693,49.284c5.239,4.93 -14.166,-5.892 -40.491,1.523c-16.027,4.515 -20.409,11.603 -23.516,8.119c-0.244,-0.273 -14.229,-12.503 -12.273,-39.649c0.213,-2.96 0.371,-2.92 2.01,-5.26c0.712,1.816 6.476,16.521 16.999,16.282c19.884,-0.451 24.211,-25.909 25.578,-30.3Z" style="fill:#78331a;"/><path d="M609.758,515.073l1.835,1.155l0.073,1.074c0.318,2.16 2.731,18.534 11.511,24.287c12.795,8.384 28.252,-1.639 28.253,-1.639c1.829,-1.447 2.79,-0.007 3.103,0.102c-3.256,4.419 -3.231,4.394 -3.516,4.772c-3.017,4.006 -23.803,31.607 -11.902,63.538c2.686,7.206 9.743,13.354 3.534,9.507c-44.662,-27.673 -34.568,-95.517 -32.891,-102.796Z" style="fill:#d56879;"/><path d="M822.971,522.386c1.526,-1.393 1.697,-0.925 9.348,-2.362c2.429,-0.456 1.442,1.109 0.965,3.726c-4.505,24.754 -16.524,88.098 -36.505,115.877c-24.331,33.825 -46.251,33.337 -61.766,32.042l0.942,-1.261l0.983,-0.168c10.196,-2.141 14.386,-2.015 30.001,-11.627c0.493,-0.59 0.985,-1.18 1.478,-1.77c1.726,-1.061 1.575,-1.198 2.589,-3.044c0.299,-0.13 0.612,0.476 0.911,0.346c8.456,-3.683 38.056,-46.002 50.696,-122.882l0.259,-1.074l0.226,-1.074l0.381,-1.074l0.253,-1.074l0.199,-1.074l0.104,-1.074l-0.354,-1.074l-0.71,-1.359Z" style="fill:#fcd39b;"/><path d="M413.499,293.856c9.162,-7.588 17.189,-6.357 18.738,-6.119c26.507,4.067 33.26,34.357 11.678,41.153c-21.748,6.849 -32.48,-8.967 -33.868,-10.437c-1.211,-2.988 -3.176,-14.453 3.452,-24.598Z" style="fill:#fdb889;"/><path d="M522.299,90.761c6.064,1.054 7.174,4.555 14.044,5.896c0.393,0.66 0.786,1.32 1.179,1.98c-0.799,0.406 -6.826,3.469 -5.167,10.634c3.299,14.25 22.865,2.172 12.818,-8.555c1.09,-0.119 1.028,-0.68 2.039,-0.222c0.861,0.39 0.879,0.277 10.969,2.848c8.28,2.11 9.088,0.823 10.742,3.839c-0.644,0.362 -5.8,3.256 -4.701,8.452c3.811,18.019 23.979,0.572 12.979,-6.886c2.545,-2.828 3.17,-0.623 21.193,0.225c1.003,0.047 0.953,0.011 1.021,0.06c1.61,1.137 0.506,1.58 0.676,2.111c-4.113,4.219 -5.387,10.47 2.203,15.256c-0.972,3.452 -1.793,7.263 -1.93,7.899c-6.246,-0.039 -44.03,-0.276 -76.538,-16.863c-2.986,-1.524 -2.068,-12.261 -1.527,-26.673Z" style="fill:#fcc94a;"/><path d="M604.233,697.53c0.263,0.578 26.599,40.522 27.394,49.804c-23.211,-1.77 -25.085,2.919 -35.419,3.964l-0.73,-0.959c-9.564,-31.928 -11.078,-31.269 -14.875,-46.392c11.971,-2.799 11.9,-2.835 23.631,-6.417Z" style="fill:#d96776;"/><path d="M515.267,121.841c-1.916,0.004 -61.808,9.737 -94.735,63.682c-2.035,3.333 -16.858,27.618 -17.634,46.228c-0.152,3.649 -1.782,2.311 -2.408,3.123c1.626,-22.465 3.944,-41.007 26.368,-72.369c30.091,-42.087 87.051,-57.961 87.303,-52.283c0.111,2.501 -0.883,7.424 1.106,11.62Z" style="fill:#f6a367;"/><path d="M310.448,628.914c4.25,12.704 6.19,17.875 6.767,19.413c-0.394,0.328 0.097,1.251 -2.009,1.675c-0.545,0.11 -0.505,0.095 -6.822,1.278c-15.469,3.988 -39.829,8.786 -56.972,23.838c-8.612,-5.158 -18.376,-23.459 31.559,-39.344c17.085,-5.435 25.24,-6.553 27.477,-6.86Z" style="fill:#7e7175;"/><path d="M241.993,696.275c-0.733,2.969 -0.335,3.028 3.819,123.847c0.359,10.43 1.8,10.539 16.259,20.924c19.624,13.197 22.327,7.246 29.539,13.832c0.605,0.552 0.99,0.238 1.083,0.261l0.638,-0.641l1.429,-1.071c-0.005,1.079 0.067,2.157 0.062,3.236c-0.005,0.969 -0.029,0.996 -0.083,1.057c-0.969,1.085 -1.26,0.447 -2.171,1.467c-11.976,-4.537 -25.039,-9.194 -36.943,-17.032c-2.431,-1.6 -12.842,-9.226 -16.577,-13.827c-1.916,-2.36 -1.563,-2.692 -2.64,-39.323c-1.422,-48.378 -2.896,-90.131 -3.173,-97.967c-0.106,-3.015 4.585,1.926 8.757,5.238Z" style="fill:#f1f4f8;"/><path d="M777.268,512.991l0.43,1.231c-1.683,6.396 6.015,7.337 5.388,0.942c0.905,0.09 1.944,-0.526 6.756,1.592c1.482,0.653 1.16,1.017 1.183,2.795c-4.374,1.825 -1.028,6.295 3.346,3.63c2.433,-0.499 2.648,-0.566 3.863,1.369c1.031,1.641 4.126,0.673 6.794,2.986c1.646,1.428 1.783,1.538 3.7,0.48c0.666,1.263 5.641,6.886 -0.159,12.774c-6.437,6.535 -22.541,4.72 -26.355,4.05c-1.078,-0.19 -0.976,-0.417 -2.081,-0.56c-1.161,-0.151 -0.92,-0.541 -1.915,-1.125c8.035,-5.669 5.344,-13.385 1.962,-15.108c-11.273,-5.746 -12.734,10.778 -5.894,13.509l0.949,0.948c-0.626,0.558 -1.252,1.116 -1.878,1.674c-4.07,-3.556 -33.415,-12.194 -27.98,-29.193c0.96,1.414 1.048,2.316 2.339,1.187c9.021,-7.886 26.896,-4.974 29.552,-3.182Z" style="fill:#aaa19d;"/><path d="M289.603,880.233c2.378,0.936 12.964,5.665 17.751,7.619l0.236,0.949c-6.885,40.606 -5.933,61.329 -6.997,65.49c-5.145,-4.162 -20.218,-15.372 -21.373,-19.337c-0.254,-0.87 2.238,-19.849 10.384,-54.721Z" style="fill:#fdc7ca;"/><path d="M691.642,339.015c3.867,-13.606 2.846,-18.485 15.81,-17.147c24.944,2.574 25.5,34.949 15.358,50.181c-9.011,13.534 -24.209,21.901 -40.042,13.36c0.316,-0.824 2.702,-7.043 2.075,-10.932c-0.67,-4.155 -2.372,-2.64 -2.337,-2.95c0.093,-0.816 1.48,-0.952 1.573,-1.768c15.384,16.805 41.135,-6.903 33.486,-23.275c-9.157,-15.109 -22.453,-5.481 -24.854,-5.792c-1.851,-0.24 -0.946,-1.485 -1.068,-1.676Z" style="fill:#fcd39d;"/><path d="M294.531,477.658c-1.326,1.474 -2.453,1.409 -1.38,3.148c0.464,0.751 1.182,1.322 1.528,2.145c0,0 -1.629,3.04 -1.771,3.304l-1.427,0.605c-0.613,0.423 -1.225,0.845 -1.838,1.268c-3.08,2.75 -3.13,2.57 -6.43,4.942c-0.045,1.327 -0.27,1.503 13.258,28.621c9.231,18.503 24.424,40.719 25.043,63.298c-0.4,11.244 -1.352,11.241 -0.488,15.048c0.654,2.882 1.903,3.322 -0.187,5.157c-2.052,1.801 2.38,34.468 14.075,51.739c8.301,12.259 7.627,12.943 11.712,16.078l1.11,1.079c-2.379,1.303 -7.557,4.138 -22.192,-27.08c-18.716,-39.924 2.476,-52.686 -21.527,-96.201c-2.037,-3.693 -1.306,-4.126 -24.615,-46.704c-8.342,-15.238 -8.554,-16.183 -7.285,-16.701c2.501,-1.02 5.407,1.651 16.234,-9.206c3.108,-3.116 3.066,-5.45 4.867,-3.396c0.675,0.769 0.639,2.086 1.314,2.855Z" style="fill:#c37a4c;"/><path d="M652.039,558.987c6.219,-10.597 31.787,-44.112 72.342,-28.232c7.127,2.791 8.51,2.195 10.147,10.209c1.1,5.387 -5.003,-4.444 -28.968,-0.593c-26.057,4.187 -41.687,26.033 -44.243,29.606c-0.353,-0.544 -1.159,-0.585 -1.512,-1.13c-0.808,-1.244 1.206,-3.176 -6.408,-8.662l-1.358,-1.198Z" style="fill:#f98b91;"/><path d="M343.052,473.823c11.911,6.833 14.966,10.017 23.403,21.972c-5.609,3.632 -33.084,9.357 -48.313,12.985c-0.722,-2.13 -0.663,-2.082 -7.536,-25.929c2.481,-1.702 2.749,-0.561 5.606,-1.413c18.174,-5.421 22.122,-4.998 25.623,-6.345l1.217,-1.27Z" style="fill:#fdd399;"/><path d="M294.531,477.658c45.369,82.36 40.494,87.824 75.572,114.127c32.425,24.313 50.06,65.214 45.491,65.411c-0.353,0.015 -0.681,-0.268 -1.034,-0.253l-0.513,-1.112c-4.228,-8.272 -3.527,-8.603 -7.811,-16.909c-10.883,-21.1 -21.36,-28.031 -37.866,-41.076c-1.979,-1.564 -5.519,-2.728 -6.023,-2.894c-6.744,-2.219 -6.62,-2.493 -13.627,-3.719l-0.987,-1.118c-4.864,-3.985 -3.703,-4.93 -6.814,-10.588c-6.973,-12.686 -6.576,-12.817 -10.852,-22.499c-6.139,-13.9 -4.295,-16.135 -11.091,-26.653c-15.775,-24.416 -14.574,-25.238 -18.352,-31.388c-0.623,-1.014 -4.855,-7.903 -7.713,-12.731c0.142,-0.264 1.771,-3.304 1.771,-3.304c-0.347,-0.823 -1.065,-1.394 -1.528,-2.145c-1.073,-1.739 0.053,-1.674 1.38,-3.148Z" style="fill:#e8b080;"/><path d="M289.644,488.129c3.735,2.037 2.102,3.44 4.377,7.269c1.244,2.093 0.844,2.321 14.926,26.59c1.482,2.554 0.373,3.182 17.292,32.739c3.243,5.666 2.113,6.201 5.149,11.955c6.099,11.56 8.099,16.865 3.197,18.656c-7.092,-11.401 -7.304,-11.412 -8.377,-11.467c-3.028,-0.156 -2.592,-2.931 -4.058,-1.848c-0.389,0.287 -0.39,0.474 1.383,6.229c0.099,0.521 0.198,1.042 0.297,1.564c2.426,5.893 9.61,14.423 10.125,15.882c0.032,0.091 -0.626,-0.336 -0.531,1.071c0.085,1.261 0.669,0.977 0.76,2.312c-0.591,0.741 -1.182,1.482 -1.773,2.223c-1.382,-2.18 -9.363,-15.249 -9.414,-15.273l-0.818,-0.684l-0.663,-0.355c-0.62,-22.579 -15.813,-44.795 -25.043,-63.298c-13.528,-27.118 -13.302,-27.294 -13.258,-28.621c3.3,-2.372 3.351,-2.192 6.43,-4.942Z" style="fill:#e1a574;"/><path d="M226.174,646.57c-7.603,12.941 -6.635,15.816 -7.161,17.87c-3.829,-0.676 -44.347,-11.83 -48.196,-12.889c-4.077,-1.122 -4.076,-0.855 -7.974,-2.632c11.031,-24.64 24.21,-15.132 39.426,-10.26c20.851,6.676 20.777,6.699 22.608,7.184l1.297,0.729Z" style="fill:#aec1dd;"/><path d="M401.811,361.59c-1.368,4.39 -5.695,29.849 -25.578,30.3c-10.522,0.239 -16.287,-14.466 -16.999,-16.282c-0.655,-7.784 4.295,-1.274 12.085,-3.285c16.518,-4.263 24.194,-42.47 24.676,-42.681c1.387,-0.606 0.998,6.336 2.196,13.622c1.261,7.668 3.523,13.236 3.619,18.326Z" style="fill:#ca6330;"/><path d="M558.093,290.737c12.062,-17.108 34.915,-21.522 49.577,0.69c3.58,5.423 11.37,-4.111 11.593,0.326c0.266,5.29 -8.883,10.074 -6.323,11.025c4.345,1.615 14.905,-6.613 12.033,3.003c-2.325,7.784 -16.953,8.958 -19.886,7.965c-3.87,-1.311 -2.579,-20.145 -18.484,-24.285c-12.22,-3.181 -19.524,8.307 -20.762,9.756c-4.165,4.872 -13.615,3.933 -7.749,-8.48Z" style="fill:#280701;"/><path d="M460.47,457.767c0.07,0.546 0.834,0.782 0.904,1.328c0.188,1.468 -4.728,4.991 -6.895,10.938c-3.06,3.717 -38.042,54.777 -40.413,92.44c-1.285,20.406 -1.52,20.333 -0.376,40.739c0.049,0.88 -0.06,0.815 -0.127,1.718c-5.427,-0.632 -5.425,-0.482 -5.86,-0.682c-2.527,-1.164 -1.881,-28.988 -1.591,-34.299c2.767,-50.678 36.868,-94.431 54.357,-112.181Z" style="fill:#fbb0b1;"/><path d="M429.184,269.322c-0.983,-2.204 -1.237,-2.032 -1.423,-4.435c-0.781,-10.118 5.687,-2.073 6.639,-1.293c0.225,0.184 9.27,6.852 2.985,-2.022c-2.908,-4.105 -2.883,-13.178 1.149,-7.758c5.061,6.802 7.899,2.057 9.336,1.242c33.595,-19.069 44.611,25.55 34.553,28.312c-8.716,2.393 -3.647,-17.541 -17.797,-20.2c-11.967,-2.249 -18.155,9.969 -18.951,11.174c-3.296,4.992 -10.878,3.156 -16.49,-5.02Z" style="fill:#260601;"/><path d="M614.213,693.663c5.497,5.927 22.115,38.114 28.157,57.693c1.412,4.388 11.049,34.346 14.328,55.991c0.068,0.449 -1.472,3.295 -2.484,-1.082c-2.689,-11.636 -17.038,-52.454 -22.589,-58.93c-0.795,-9.282 -27.131,-49.226 -27.394,-49.804c5.007,-1.947 4.897,-2.089 9.981,-3.867Z" style="fill:#cc4755;"/><path d="M447.043,649.024c48.15,6.061 64.304,21.025 68.726,25.121l-0.102,1.016c-0.342,0.758 -0.047,0.897 -0.629,1.394c-7.206,6.156 -7.482,5.619 -15.899,9.445c-1.076,0.489 -0.936,0.709 -1.032,0.694c-0.835,-0.128 -0.372,-0.91 -1.196,-1.037c0.551,-1.883 5.161,-10.968 -6.742,-17.832c-3.048,-1.758 -4.266,-1.762 -21.544,-2.578c-2.846,-1.528 -2.046,-2.925 -5.138,-3.848c-1.09,-0.325 -0.387,-0.784 -0.553,-1.273c-0.164,-0.487 -0.866,-0.587 -1.03,-1.074l-1.144,-0.727l-1.385,1.181c-0.877,-0.669 -8.348,-6.375 -13.362,-0.458c-1.926,2.273 2.579,3.336 2.913,3.414c2.23,0.526 6.753,0.489 9.862,0.688c0.935,0.592 1.87,1.184 2.805,1.776c0.023,0.86 0.045,1.72 0.068,2.58c-5.535,2.488 -6.218,2.321 -22.718,-4.712c-0.399,-4.597 -1.009,-6.361 9.858,-11.259l-0.817,-0.886l-0.94,-1.626Z" style="fill:#7e2f18;"/><path d="M717.564,346.484c7.649,16.372 -18.102,40.08 -33.486,23.275c-1.622,-1.094 -1.457,-1.233 -2.524,-2.986c2.332,-5.993 2.315,-5.878 4.786,-11.882c4.6,-1.804 4.607,-1.719 8.606,-4.731c12.974,-9.77 16.416,-2.566 22.618,-3.676Z" style="fill:#fdaf75;"/><path d="M284.007,422.113l-1.142,-1.694l0.983,-0.714l0.983,-0.541l0.983,-0.301l0.983,-0.567l0.983,-0.256l0.983,-0.152l0.983,-0.332l0.983,-0.302l0.983,-0.205l0.983,0.049l0.983,0.447c1.539,1.062 6.939,1.797 5,10.651c-1.735,7.921 -0.971,8.529 -23.081,41.569c-1.162,1.737 -1.193,1.681 -7.423,9.826c-18.006,-10.288 11.82,-35.074 21.135,-51.721c3.679,-6.575 3.541,-7.224 2.949,-7.782c-0.754,-0.711 -7.607,1.792 -8.249,2.027Z" style="fill:#fdb37a;"/><path d="M226.174,646.57l-1.297,-0.729c-1.83,-0.485 -1.757,-0.508 -22.608,-7.184c-15.217,-4.872 -28.395,-14.379 -39.426,10.26l-0.938,0.202c-3.412,-0.325 -3.234,-0.908 -6.541,-1.951c-0.273,-8.157 12.002,-27.165 28.277,-23.796c0.114,0.024 48.231,14.163 48.17,16.351c-0.009,0.331 -0.077,0.272 -5.638,6.846Z" style="fill:#f9fafa;"/><path d="M578.617,654.906c-8.747,-4.535 -12.943,-1.826 -32.179,0.717c-1.558,-2.787 -3.861,-5.333 -0.122,-5.939c19.999,-3.239 46.706,-8.53 48.061,9.362c-4.851,4.835 -8.028,15.292 -49.805,24.586c-0.05,-0.591 -0.402,-4.759 0.753,-7.373c1.205,-2.726 43.943,-8.556 33.292,-21.352Z" style="fill:#c9d2e6;"/><path d="M161.905,649.119l0.938,-0.202c3.898,1.778 3.897,1.51 7.974,2.632c3.849,1.06 44.367,12.214 48.196,12.889c0.69,11.546 3.816,17.224 -1.012,13.934c-6.662,-4.539 -31.829,-10.261 -37.37,-11.724c-10.795,-2.851 -15.487,-2.463 -21.847,-9.416c1.949,-3.954 2.052,-3.821 3.12,-8.114Z" style="fill:#58698a;"/><path d="M594.377,659.047c2.396,7.836 0.572,12.992 0.202,14.04c-5.036,14.239 -48.366,25.01 -49.344,24.844c-2.601,-0.442 -1.117,-1.872 -0.663,-14.299c41.777,-9.294 44.954,-19.75 49.805,-24.586Z" style="fill:#516285;"/><path d="M783.106,374.381c-0.299,-0.155 -0.667,0.4 -0.966,0.246c-1.177,-0.61 1.595,-9.752 2.121,-10.821c7.413,-15.075 55.207,-0.888 51.531,4.975c-0.441,0.703 -5.468,8.721 -5.542,8.769c-1.264,0.833 -26.753,-10.731 -47.144,-3.169Z" style="fill:#913f34;"/><path d="M415.585,426.203c-30.437,0.984 -51.265,24.162 -53.111,25.585l-1.081,0.372c-0.526,-0.214 -6.433,-2.619 -6.546,-2.764c-2.202,-2.828 39.513,-50.152 93.353,-20.516c-4.113,2.679 -4.292,-0.289 -14.936,-2.064c-5.645,-0.942 -5.589,-0.576 -15.81,-0.927l-0.871,0.235l-0.998,0.078Z" style="fill:#fab2b3;"/><path d="M618.854,73.446c15.732,-8.985 26.093,-17.482 24.306,-12.637c-5.625,15.261 -12.716,38.677 -15.116,43.267c-8.537,-0.703 -8.443,0.427 -16.966,0.482c0.972,-8.238 5.983,-12.296 7.776,-31.113Z" style="fill:#fba018;"/><path d="M246.265,418.321c9.717,13.411 14.73,13.466 15.959,14.715c0.48,0.488 0.63,1.287 1.11,1.775c-8.504,9.029 -15.293,33.768 -25.55,23.271c-2.58,-2.64 -5.529,-19.52 8.48,-39.762Z" style="fill:#fdab70;"/><path d="M353.719,568.006c6.107,-1.857 6.446,-3.041 11.94,0.364c19.685,12.199 29.374,7.546 29.657,11.11c0.147,1.851 1.748,22.054 0.245,23.223c-2.009,1.562 -1.963,-0.596 -25.912,-18.233c-17.725,-13.054 -17.167,-15.104 -15.93,-16.463Z" style="fill:#fdfcf9;"/><path d="M421.291,228.32c0.441,0.51 1.153,0.673 1.594,1.183c0.843,0.974 -0.477,3.016 0.841,7.059c-2.141,8.574 -0.399,8.776 -1.598,17.579c-1.159,8.51 -9.261,35.976 -8.96,37.647c0.17,0.944 0.715,0.548 0.861,1.46c0.078,0.488 -0.618,0.057 -0.53,0.607c-6.628,10.145 -4.663,21.61 -3.452,24.598c-1.034,2.103 -1.278,1.94 -1.254,3.402c0.489,29.838 12.139,53.9 16.465,60.235c3.761,5.508 4.533,7.909 4.778,8.674c0.15,0.467 0.527,0.806 0.771,1.224c0.401,0.685 0.402,0.681 0.38,0.745c-0.295,0.852 -0.763,0.361 -1.077,1.269c-36.909,-45.88 -23.06,-95.302 -20.791,-103.4c12.134,-43.303 8.194,-46.714 11.972,-62.28Z" style="fill:#fbddb0;"/><path d="M818.152,451.921c-0.153,-0.953 -1.265,-7.875 2.46,-11.789c4.391,-4.614 17.053,-3.961 21.403,-2.956c25.335,5.857 23.073,23.982 18.611,31.677c-1.041,1.795 -1.369,0.412 -3.069,-0.599c0.331,-0.67 1.304,-0.754 1.635,-1.424c0.168,-0.341 -0.437,-0.689 -0.403,-1.075c0.037,-0.415 0.488,-0.668 0.596,-1.068c0.431,-1.599 0.24,-2.906 0.204,-3.156c-1.932,-13.268 -35.793,-11.355 -39.015,-11.173c-2.175,0.123 -1.666,1.075 -2.423,1.564Z" style="fill:#fcd199;"/><path d="M821.118,476.529c2.327,0.072 20.402,0.627 28.628,5.71c7.257,4.484 -0.817,11.054 1.202,13.532c0.33,0.405 0.704,0.765 1.034,1.17c-7.177,9.744 -13.269,14.181 -24.659,16.814c-3.996,0.924 -1.366,-10.421 2.048,-11.07c3.899,-0.741 4.359,-0.153 6.744,-3.693c0.99,-1.605 1.003,-1.507 2.212,-2.879c12.121,-7.156 -1.798,-6.273 -7.054,-7.729c-10.016,-2.775 -9.78,-8.773 -10.155,-11.854Z" style="fill:#fdad71;"/><path d="M772.546,413.045c0.395,1.482 3.045,11.425 -1.518,19.217c-7.103,12.131 -18.229,10.352 -21.368,10.69c-0.533,0.057 -4.12,2.995 3.89,5.947c1.497,0.552 1.994,1.393 -3.817,21.167c-0.855,2.908 -1.37,-0.09 -3.312,-2.977c0.388,-0.643 1.338,-0.691 1.726,-1.333c1.288,-2.134 -9.515,-22.324 0.904,-32.865c13.282,-10.057 13.574,-10.178 20.462,-17.397c0.492,-0.324 0.44,-0.314 3.033,-2.448Z" style="fill:#fbaf75;"/><path d="M447.007,686.97c-0.694,6.503 -1.867,8.005 -21.646,10.623c-0.868,0.115 -8.033,-0.871 -9.651,-1.479c-0.763,-0.287 -1.712,-0.643 -8.445,-6.026c9.59,-16.863 35.425,-12.63 39.743,-3.118Z" style="fill:#fd6712;"/><path d="M779.881,415.334c2.282,1.907 3.986,3.259 4.336,3.537c-0.905,6.389 1.111,21.746 -6.075,26.317c-3.011,1.915 -0.874,3.063 -1.781,5.592c-3.331,9.289 -6.51,20.9 -7.014,22.739c-12.068,1.217 -11.722,2.872 -12.765,2.896c-2.155,0.049 0.105,-6.513 3.5,-18.359c0.076,-0.288 0.805,-3.182 1.983,-7.488c1.175,-4.296 21.75,-9.071 17.815,-35.234Z" style="fill:#c16b2b;"/><path d="M321.515,584.99l0.663,0.355l0.818,0.684c0.051,0.024 8.031,13.093 9.414,15.273c-0.256,0.602 -0.511,1.203 -0.767,1.805c-11.931,31.053 15.286,66.515 17.218,70.085l-1.125,0.9l-1.11,-1.079c-4.084,-3.135 -3.411,-3.819 -11.712,-16.078c-11.694,-17.271 -16.126,-49.938 -14.075,-51.739c2.09,-1.835 0.842,-2.275 0.187,-5.157c-0.864,-3.807 0.088,-3.804 0.488,-15.048Z" style="fill:#e7ad7e;"/><path d="M591.987,483.666c8.481,-23.786 8.426,-23.785 8.656,-24.076c1.854,-2.346 18.1,4.53 22.001,6.638c3.735,2.018 -5.693,4.574 -13.236,20.04c-0.647,-0.27 -0.366,-1.134 -2.258,-0.942c-2.881,0.293 -9.346,-1.97 -15.163,-1.66Z" style="fill:#ce6070;"/><path d="M522.767,86.637c3.565,0.477 36.821,18.966 88.312,17.922c8.523,-0.055 8.43,-1.185 16.966,-0.482c-0.263,2.157 -0.29,2.088 -0.951,4.087c-0.646,0.04 -7.848,0.489 -8.072,0.506c-5.326,0.401 -5.639,-1.037 -10.141,1.975c-0.553,-0.131 -1.105,-0.263 -1.658,-0.394c-1.965,-0.417 -1.86,-0.523 -3.889,-0.603c-0.265,0.103 -2.627,1.022 -3.242,1.495c-0.17,-0.531 0.934,-0.973 -0.676,-2.111c-0.069,-0.049 -0.018,-0.013 -1.021,-0.06c-18.023,-0.848 -18.648,-3.053 -21.193,-0.225c-2.511,-1.994 -2.799,-2.433 -8.278,-1.565c-1.654,-3.016 -2.462,-1.73 -10.742,-3.839c-10.091,-2.571 -10.109,-2.458 -10.969,-2.848c-1.011,-0.458 -0.948,0.103 -2.039,0.222c-3.448,-2.785 -5.467,-2.277 -5.809,-2.327c-1.007,-0.577 -2.014,-1.155 -3.021,-1.732c-6.87,-1.34 -7.98,-4.842 -14.044,-5.896c-0.242,-2.122 -0.161,-2.047 0.467,-4.124Z" style="fill:#b67110;"/><path d="M227.744,399.124c4.451,2.633 8.687,9.958 12.92,11.657c1.5,0.602 1.249,0.883 1.978,2.432c-7.383,10.658 -6.743,11.021 -11.147,24.511c-1.874,5.742 -14.505,-0.875 -8.094,-27.665c0.982,-4.102 1.269,-3.912 4.343,-10.936Z" style="fill:#fda76d;"/><path d="M292.91,486.255c2.858,4.828 7.09,11.717 7.713,12.731c3.778,6.15 2.577,6.972 18.352,31.388c6.796,10.519 4.952,12.753 11.091,26.653c4.276,9.682 3.879,9.813 10.852,22.499c3.11,5.658 1.95,6.603 6.814,10.588l0.987,1.118c-4.584,-0.334 -6.973,1.606 -8.856,2.266c-0.229,-0.278 -0.728,0.684 -0.957,0.406c-0.479,-0.582 0.059,-0.907 -4.323,-8.567c4.902,-1.791 2.902,-7.096 -3.197,-18.656c-3.036,-5.754 -1.906,-6.289 -5.149,-11.955c-16.918,-29.557 -15.81,-30.185 -17.292,-32.739c-14.081,-24.269 -13.682,-24.497 -14.926,-26.59c-2.275,-3.829 -0.642,-5.232 -4.377,-7.269c0.613,-0.423 1.225,-0.845 1.838,-1.268c0.476,-0.202 0.952,-0.404 1.427,-0.605Z" style="fill:#dda171;"/><path d="M800.129,488.948c0.688,0.358 5.524,2.873 8.264,5.161c12.597,10.52 12.153,13.171 6.801,29.441c-0.85,2.583 -2.088,1.02 -2.211,0.865c-4.075,-5.141 -4.215,-7.168 -18.098,-15.564c1.528,-2.107 1.52,-1.99 1.663,-2.445c1.529,-4.892 3.587,-13.808 3.582,-14.912c-0.002,-0.402 -0.558,-0.638 -0.558,-1.039c-0,-0.542 0.557,-0.965 0.557,-1.506Z" style="fill:#af683c;"/><path d="M325.16,680.225c6.923,-0.383 6.937,-0.304 9.796,0.769c2.287,1.022 5.443,0.863 9.203,6.564c1.94,2.941 2.308,0.599 2.582,0.404c0.415,-0.295 5.715,0.017 5.696,0.34c-0.147,2.52 -1.192,1.525 -3.826,2.641c-0.695,0.294 -6.649,2.816 -8.6,3.9c-3.262,1.812 -27.252,-4.232 -35.705,-3.042c-3.964,0.558 0.098,-2.474 0.255,-2.591c11.126,-8.305 13.982,-7.04 20.599,-8.984Z" style="fill:#ee7e3c;"/><path d="M580.602,703.947c3.797,15.124 5.311,14.464 14.875,46.392c-0.488,0.309 -0.563,1.14 -1.052,1.449c-0.379,0.24 -0.579,-0.424 -5.142,2.046l-0.714,-0.376c-0.649,-9.577 -19.105,-46.469 -19.698,-47.173c0.942,-0.162 1.939,-0.333 11.731,-2.338Z" style="fill:#c2414f;"/><path d="M821.118,476.529c0.5,-5.205 0.853,-9.673 13.119,-10.289c5.145,-0.258 17.017,2.548 21.233,8.462c5.55,7.787 -1.206,18.169 -3.487,22.238c-0.33,-0.405 -0.704,-0.765 -1.034,-1.17c-2.019,-2.478 6.055,-9.048 -1.202,-13.532c-8.227,-5.083 -26.301,-5.638 -28.628,-5.71Z" style="fill:#fbd097;"/><path d="M291.793,664.316c4.81,0.779 4.718,0.769 9.515,1.559l0.58,0.232l-1.162,1.536l-0.027,1.074l0.839,0.773c1.53,-0.596 1.562,-0.11 3.067,-0.62c0.645,1.591 0.72,1.479 1.963,2.602l-1.098,1.916l-0.983,0.084l-0.983,-0.044c-0.369,0.058 -0.737,0.116 -1.106,0.174c-1.919,-0.143 -2.005,-0.503 -3.497,0.747c-3.219,2.698 3.845,6.428 -3.266,12.602c-1.176,0.499 -4.839,2.054 -15.761,0.305c-6.489,-1.039 -5.976,-2.354 -7.068,-3.151c-0.569,-0.48 -1.138,-0.959 -1.707,-1.439c-1.224,-8.325 8.717,-6.445 11.653,-7.85c6.175,-2.955 9.7,1.26 10.7,-6.044c0.236,-0.701 0.472,-1.402 0.708,-2.103c-0.811,0.339 -1.623,0.677 -2.434,1.016c-0.169,-1.715 -0.189,-1.65 0.067,-3.37Z" style="fill:#fb811d;"/><path d="M356.841,458.904c13.51,8.429 17.404,10.798 28.39,30.431c-8.462,2.854 -8.282,3.252 -9.377,3.739c-7.613,-11.525 -12.415,-17.951 -25.246,-26.012c2.256,-4.904 2.527,-4.61 6.234,-8.159Z" style="fill:#fc8e92;"/><path d="M652.039,558.987l1.358,1.198c7.613,5.486 5.6,7.418 6.408,8.662c0.353,0.544 1.159,0.585 1.512,1.13c-18.57,29.274 -5.602,43.401 -10.895,41.894c-0.395,-0.112 -5.88,-10.179 -6.198,-21.53c-0.481,-17.187 5.857,-27.323 7.815,-31.353Z" style="fill:#d86776;"/><path d="M281.871,865.262c0.242,-0.158 0.524,0.55 0.766,0.392c0.113,-0.074 1.44,-2.124 1.54,-2.403c2.023,-5.643 3.849,-3.378 8.474,-0.118c5.41,3.813 18.809,5.692 21.634,6.5c12.653,3.616 12.526,4.241 25.589,5.215c3.124,0.233 2.816,1.265 5.892,1.978l0.983,0.466l0.983,0.076l0.983,0.281l0.983,0.078l0.983,0.178l0.983,-0.113l0.983,0.109l0.983,0.463l0.983,0.528l0.97,1.491c-24.348,-0.85 -36.322,-4.327 -44.94,-5.903c-15.735,-4.954 -17.298,-7.897 -18.611,-3.748c-1.572,4.968 -2.282,8.727 -2.428,9.5c-2.422,-2.202 -5.54,-3.879 -5.801,-5.273c-0.396,-2.115 -0.773,-1.819 -2.127,-3.34c0.63,-3.981 1.397,-4.041 0.196,-6.357Z" style="fill:#7c4434;"/><path d="M409.152,260.746l-1.293,-1.174l-0.173,-0.655l-0.983,0.042c-2.038,0.431 -13.322,2.814 -14.998,23.136c1.237,10.479 -0.097,16.586 5.39,22.611c-0.004,0.035 -0.461,7.628 -2.313,5.657c-15.853,-16.871 -9.666,-56.057 11.008,-58.855c7.111,-0.962 4.061,4.77 3.362,9.238Z" style="fill:#fbd9a8;"/><path d="M772.546,413.045c-2.593,2.134 -2.541,2.125 -3.033,2.448l-1.123,-1.331l-0.983,0.391c-5.766,2.957 -5.052,4.1 -10.456,7.677c-0.957,0.633 -6.505,6.328 -8.218,7.633c-1.007,0.767 -0.995,0.877 -0.983,0.993c0.144,1.369 1.163,0.72 1.301,2.034c-10.419,10.541 0.384,30.731 -0.904,32.865c-0.388,0.643 -1.338,0.691 -1.726,1.333c-1.243,-2.352 -1.273,-2.251 -2.27,-4.716c-12.069,-29.841 5.155,-42.778 6.923,-44.487c18.425,-17.809 21.046,-5.609 21.473,-4.841Z" style="fill:#fbddb1;"/><path d="M385.231,489.335c7.666,17.027 9.338,47.538 -5.131,65.412c-0.282,-0.662 -0.565,-1.324 -0.847,-1.986c13.202,-24.629 1.212,-50.269 -3.4,-59.687c1.095,-0.487 0.915,-0.885 9.377,-3.739Z" style="fill:#cc5d6d;"/><path d="M818.152,451.921c0.757,-0.489 0.248,-1.441 2.423,-1.564c3.222,-0.182 37.083,-2.096 39.015,11.173c0.036,0.25 0.227,1.557 -0.204,3.156c-0.108,0.4 -0.558,0.653 -0.596,1.068c-0.035,0.385 0.571,0.734 0.403,1.075c-0.331,0.67 -1.304,0.754 -1.635,1.424c-21.224,-16.308 -32.469,0.965 -39.405,-16.332Z" style="fill:#fcab70;"/><path d="M822.257,422.889c0.217,-0.745 0.434,-1.491 0.651,-2.236c0.337,-0.128 0.183,-0.894 0.52,-1.022c0.295,-0.112 14.505,1.568 15.765,1.717c11.506,1.36 18.987,6.991 20.417,8.068c3.634,3.799 3.188,4.141 4.046,9.493c0.148,0.923 0.114,0.997 0.079,1.074c-0.414,0.895 -0.784,0.452 -1.167,1.281c-5.164,-4.187 -9.957,-9.509 -27.343,-10.986c-3.822,-0.325 -9.168,0.908 -12.968,-7.389Z" style="fill:#fca86b;"/><path d="M784.202,482.506c7.782,2.229 8.979,2.442 15.927,6.443c0,0.542 -0.557,0.965 -0.557,1.506c0,0.402 0.556,0.638 0.558,1.039c0.005,1.105 -2.053,10.02 -3.582,14.912c-0.142,0.455 -0.134,0.338 -1.663,2.445c-8.641,-4.085 -8.549,-4.147 -17.638,-6.643c5.677,-7.215 6.282,-15.067 6.485,-16.072c-0.134,-0.662 0.638,-0.344 0.506,-0.993c-0.175,-0.864 -0.924,-0.268 -0.936,-1.133c-0.008,-0.599 0.908,-0.906 0.9,-1.506Z" style="fill:#d19a6e;"/><path d="M811.056,451.756c0.188,1.023 1.427,7.762 5.859,11.357c2.284,1.853 1.514,2.463 0.057,5.106c-7.34,13.321 6.152,25.135 6.143,25.459c-0.281,10.11 -3.347,-3.601 -21.336,-12.799c-0.664,-7.053 7.296,-16.282 7.089,-25.862l0.612,-1.074l0.521,-1.074l1.054,-1.113Z" style="fill:#aa521e;"/><path d="M627.094,108.163c-2.06,5.992 -6.023,18.832 -7.49,22.343c-0.483,1.157 -0.741,3.351 -19.239,3.791c0.137,-0.637 0.958,-4.447 1.93,-7.899c3.934,0.512 4.215,1.04 7.162,-1.776l0.689,-0.364c1.077,-1.342 1.133,-1.279 1.379,-3.025c2.38,-3.776 0.363,-6.441 0.043,-6.864c-0.202,-1.286 -0.262,-1.163 -1.102,-2.222c-0.369,-0.34 -0.738,-0.679 -1.107,-1.019l-0.478,-0.483c4.502,-3.012 4.815,-1.573 10.141,-1.975c0.224,-0.017 7.426,-0.465 8.072,-0.506Z" style="fill:#f89719;"/><path d="M822.141,413.016l1.287,1.299c0.425,-0.003 0.542,0.912 0.967,0.909c0.607,-0.005 -0.518,-2.555 6.866,-3.517c15.956,-2.079 30.824,9.047 31.192,15.413c0.013,0.221 -2.607,2.125 -2.843,2.296c-1.43,-1.077 -8.911,-6.707 -20.417,-8.068c-1.26,-0.149 -15.47,-1.829 -15.765,-1.717c-0.337,0.128 -0.183,0.894 -0.52,1.022c-0.217,0.745 -0.434,1.491 -0.651,2.236c-1.245,-4.369 -1.33,-5.27 -0.116,-9.873Z" style="fill:#fdc98a;"/><path d="M296.149,549.813c8.566,18.302 7.901,18.904 7.147,19.758c-6.331,1.208 -6.237,1.378 -12.593,2.614c-2.135,-5.651 -5.979,-10.291 -6.548,-11.209c-11.019,-17.761 9.479,-9.811 10.503,-9.414l0.943,-0.972l0.547,-0.778Z" style="fill:#fdc99c;"/><path d="M408.175,265.23c-4.341,20.118 -6.041,19.502 -11.08,39.476c-5.487,-6.025 -4.153,-12.131 -5.39,-22.611c0.37,-0.583 1.326,-0.463 1.696,-1.046c0.043,-0.068 1.393,-7.441 1.457,-7.542c6.606,-10.476 8.967,-8.912 13.317,-8.277Z" style="fill:#fba462;"/><path d="M309.675,622.505c0.395,2.057 0.471,2.119 -0.592,3.794c-54.616,10.102 -63.089,25.464 -66.055,30.842c-1.496,-1 -2.523,-0.652 -1.809,-2.384c8.239,-19.998 45.783,-28.013 66.217,-33.193l0.983,0.71l1.257,0.232Z" style="fill:#d0d4e0;"/><path d="M822.141,413.016c7.098,-14.423 33.281,-6.377 42.318,7.821c5.287,8.306 2.547,24.199 -1.892,20.427c0.383,-0.829 0.753,-0.386 1.167,-1.281c0.036,-0.077 0.07,-0.15 -0.079,-1.074c-0.858,-5.352 -0.412,-5.694 -4.046,-9.493c0.235,-0.171 2.856,-2.075 2.843,-2.296c-0.369,-6.366 -15.236,-17.492 -31.192,-15.413c-7.384,0.962 -6.259,3.513 -6.866,3.517c-0.425,0.003 -0.542,-0.912 -0.967,-0.909l-1.287,-1.299Z" style="fill:#fad7a6;"/><path d="M578.617,654.906c-0.267,0.144 -0.505,-0.636 -0.771,-0.492c-0.344,0.186 -0.72,7.271 -22.664,12.499c-0.515,0.123 -6.091,1.451 -6.569,-0.486c-1.029,-4.174 -0.434,-4.243 -1.438,-8.406c-0.047,-0.196 -0.055,-0.178 -0.738,-2.397c19.237,-2.543 23.432,-5.252 32.179,-0.717Z" style="fill:#3f4b69;"/><path d="M836.75,386.41l1.421,-1.461c2.147,-0.007 6.525,-0.022 24.332,12.383c6.246,6.866 1.678,9.132 3.345,12.582c0.273,0.566 0.918,0.844 1.192,1.409c-2.853,1.835 -2.692,-0.423 -9.095,-5.887c-6.948,-5.927 -17.417,-5.211 -21.194,-19.027Z" style="fill:#fcac6f;"/><path d="M447.007,686.97c2.445,2.912 3.356,3.349 3.716,3.523c0.855,0.411 -2.275,5.3 -2.55,6.32c-0.083,0.307 -0.402,1.489 -2.071,3.303c-11.808,2.911 -29.916,3.439 -32.53,3.515c-6.744,-5.247 -10.053,-6.24 -6.307,-13.542c6.733,5.383 7.682,5.74 8.445,6.026c1.618,0.608 8.783,1.594 9.651,1.479c19.78,-2.619 20.952,-4.12 21.646,-10.623Z" style="fill:#f0410a;"/><path d="M460.47,457.767c2.475,-2.149 3.092,-3.02 9.286,-5.496c2.442,-0.976 10.615,-1.985 8.281,1.384c-10.446,15.081 -9.938,15.422 -14.165,23.974c-0.453,0.054 -0.695,-0.864 -1.148,-0.81c-0.589,0.07 -0.896,0.893 -1.451,1.119c-1.632,0.665 -6.358,-7.181 -6.794,-7.905c2.167,-5.947 7.083,-9.47 6.895,-10.938c-0.07,-0.546 -0.834,-0.782 -0.904,-1.328Z" style="fill:#cb606f;"/><path d="M420.656,646.003c13.285,1.168 13.183,1.192 26.387,3.021l0.94,1.626l0.817,0.886c-10.867,4.898 -10.258,6.662 -9.858,11.259c-6.741,-0.66 -6.69,-1.123 -13.354,-0.14c-2.251,-7.121 -1.837,-7.208 -4.316,-14.242c-0.109,-0.517 -0.218,-1.034 -0.328,-1.55l-0.287,-0.859Z" style="fill:#852f1a;"/><path d="M189.187,329.045c0.394,0.634 1.274,0.768 1.668,1.402c0.608,0.978 -0.799,1.736 6.082,13.197c1.235,2.057 14.349,23.903 15.38,25.747c-0.349,0.409 -3.498,6.149 -5.648,2.615c-20.949,-34.427 -24.093,-37.055 -17.481,-42.961Z" style="fill:#b96838;"/><path d="M766.42,481.062l0.986,0.898c0.903,1.022 1.807,2.045 2.71,3.067c-2.777,6.7 -2.484,6.739 -3.979,13.854c-0.032,0.153 -0.055,0.132 -0.744,1.783c-7.304,0.832 -7.319,0.243 -12.657,1.974c-2.308,0.749 -3.737,1.135 -3.005,-1.443c4.125,-14.527 2.928,-18.281 16.69,-20.134Z" style="fill:#fcf8f2;"/><path d="M338.791,594.11c4.163,4.075 6.37,11.371 6.703,12.47c1.871,6.185 2.745,5.619 5.299,11.612c4.287,10.06 6.587,11.592 7.424,13.122c7.536,13.783 7.092,13.995 16.057,26.587c-4.362,3.689 -5.243,2.281 -6.842,0.043c-2.547,-3.563 -16.135,-30.702 -17.339,-33.534c-4.917,-11.561 -4.789,-11.574 -10.734,-22.546c-1.872,-3.455 -1.19,-3.708 -1.327,-4.021c-0.285,-0.652 -1.111,-0.889 -1.396,-1.542c0.719,-0.73 1.437,-1.46 2.156,-2.191Z" style="fill:#c2623b;"/><path d="M417.384,663.772c0.012,0.297 0.311,0.181 0.453,3.681c-1.139,1.481 -10.849,14.11 -20.028,10.3c-0.293,-0.122 -3.179,-1.32 -3.598,-1.693l-0.184,-0.959c-0.025,-2.213 0.164,-2.118 0.992,-6.278c5.561,-4.737 9.545,-9.636 22.366,-5.051Z" style="fill:#fdd451;"/><path d="M763.749,578.561c0.416,-1.201 3.863,-11.164 7.802,-13.601c7.402,-4.58 4.383,15.435 4.371,15.647c-0.235,1.243 -0.314,5.956 -3.719,8.445c-2.141,1.564 -4.464,0.412 -4.815,0.238c-5.586,-2.771 -4.892,-4.174 -3.639,-10.729Z" style="fill:#fdfdfd;"/><path d="M770.116,485.027c4.102,-2.657 4.331,-1.478 9.046,-0.841c0.39,0.053 3.205,0.433 4.569,1.951c-0.202,1.005 -0.808,8.857 -6.485,16.072c-5.967,-0.936 -5.872,-0.885 -11.855,-1.544c0.689,-1.651 0.712,-1.631 0.744,-1.783c1.495,-7.115 1.203,-7.154 3.979,-13.854Z" style="fill:#cf884e;"/><path d="M310.641,874.48c-2.076,6.573 -1.065,6.82 -3.287,13.372c-4.786,-1.954 -15.372,-6.683 -17.751,-7.619c0.146,-0.773 0.856,-4.532 2.428,-9.5c1.313,-4.149 2.876,-1.206 18.611,3.748Z" style="fill:#c49d98;"/><path d="M595.477,750.339l0.73,0.959c0.04,4.341 14.958,65.007 9.052,56.962c-0.548,-0.746 -5.112,-24.086 -15.041,-52.446c-0.058,-0.166 -0.069,-0.147 -0.934,-1.98c4.564,-2.47 4.763,-1.806 5.142,-2.046c0.488,-0.309 0.563,-1.14 1.052,-1.449Z" style="fill:#d85364;"/><path d="M814.897,421.726c2.729,9.831 4.543,8.738 4.765,9.575c1.189,4.48 -9.26,1.992 -8.607,20.455l-1.054,1.113l-0.521,1.074l-0.612,1.074c0.207,9.58 -7.753,18.809 -7.089,25.862l-4.004,-1.872c1.561,-2.383 1.553,-2.265 1.653,-2.672c11.047,-44.97 14.948,-44.291 13.738,-52.46c0.577,-0.716 1.153,-1.432 1.73,-2.149Z" style="fill:#b86022;"/><path d="M838.914,375.347l1.222,1.241c1.224,0.755 3.819,-0.761 14.581,5.764c3.535,2.143 10.067,12.392 9.376,13.602c-0.358,0.627 -1.233,0.751 -1.591,1.378c-17.807,-12.405 -22.185,-12.39 -24.332,-12.383l-1.421,1.461c-0.355,-5.67 -0.555,-6.129 2.164,-11.062Z" style="fill:#fdc789;"/><path d="M838.914,375.347c10.417,-11.026 36.599,11.667 28.125,35.976c-0.273,-0.566 -0.918,-0.844 -1.192,-1.409c-1.667,-3.45 2.901,-5.716 -3.345,-12.582c0.358,-0.627 1.233,-0.751 1.591,-1.378c0.691,-1.21 -5.841,-11.459 -9.376,-13.602c-10.763,-6.525 -13.357,-5.008 -14.581,-5.764l-1.222,-1.241Z" style="fill:#fbd8a6;"/><path d="M691.642,339.015c0.122,0.191 -0.783,1.436 1.068,1.676c2.402,0.312 15.697,-9.316 24.854,5.792c-6.202,1.111 -9.644,-6.093 -22.618,3.676c-3.999,3.012 -4.006,2.927 -8.606,4.731c2.57,-8.029 2.929,-7.81 5.302,-15.876Z" style="fill:#f4854c;"/><path d="M506.003,287.49c-0.067,1.138 -0.654,11.052 7.84,11.401c1.704,0.07 1.732,-0.661 1.961,-0.621c0.109,0.019 -0,0 0.978,1.063l1.223,1.412c-13.76,7.307 -29.991,-13.528 -10.886,-22.508c1.499,-0.705 11.155,-6.408 8.692,-1.477c-2.64,5.287 -8.315,4.224 -9.807,10.73Z" style="fill:#fa9d5c;"/><path d="M537.523,98.636c0.614,-0.083 1.228,-0.165 1.842,-0.248c0.342,0.05 2.361,-0.458 5.809,2.327c10.047,10.727 -9.519,22.804 -12.818,8.555c-1.659,-7.165 4.368,-10.228 5.167,-10.634Z" style="fill:#a6171c;"/><path d="M568.923,107.18c5.479,-0.868 5.767,-0.428 8.278,1.565c11,7.458 -9.168,24.905 -12.979,6.886c-1.099,-5.196 4.057,-8.09 4.701,-8.452Z" style="fill:#2b7a17;"/><path d="M289.732,572.147c0.868,1.239 4.134,5.238 6.049,8.94c-9.137,1.133 -9.189,1.503 -24.715,1.852l0.988,-1.364c0.658,-1.755 1.582,-2.115 -0.703,-5.286l0.017,-0.997l-1.28,-0.445l-0.983,-0.543l-0.957,-0.875c10.819,-0.352 10.756,-0.423 21.584,-1.28Z" style="fill:#492115;"/><path d="M271.904,539.898c0.162,13.91 -25.026,-13.086 -11.65,-15.15c6.91,-1.066 11.209,13.642 11.65,15.15Z" style="fill:#fdc599;"/><path d="M775.235,542.504l-0.949,-0.948c-6.841,-2.732 -5.38,-19.256 5.894,-13.509c3.381,1.724 6.072,9.439 -1.962,15.108l-1.344,0.268c-0.546,-0.306 -1.093,-0.612 -1.639,-0.918Z" style="fill:#49322c;"/><path d="M784.944,511.353c-2.387,1.594 -3.38,1.322 -2.726,2.68c0.21,0.435 0.659,0.695 0.868,1.13c0.627,6.395 -7.071,5.454 -5.388,-0.942c1.303,-1.021 2.456,-0.989 1.31,-2.29c-0.183,-0.208 -0.608,0.159 -0.791,-0.049l-0.95,1.108c-2.656,-1.792 -20.531,-4.704 -29.552,3.182c-1.291,1.128 -1.379,0.226 -2.339,-1.187c10.077,-14.989 39.432,-3.675 39.567,-3.632Z" style="fill:#f0eae5;"/><path d="M343.052,473.823l-1.217,1.27c-3.501,1.347 -7.45,0.924 -25.623,6.345c-2.857,0.852 -3.125,-0.29 -5.606,1.413c-1.142,-3.996 -0.848,-4.764 2.822,-6.045c25.806,-9.009 28.526,-3.543 29.624,-2.984Z" style="fill:#fbdfb4;"/><path d="M239.716,568.555c8.742,3.062 8.753,2.744 16.648,4.218c-0.667,0.264 -1.335,0.527 -2.002,0.791l-0.524,0.652c0.254,3.435 1.414,2.984 2.068,6.443l0.393,1.309c-9.497,-1.616 -9.412,-1.558 -18.674,-4.411c0.519,-0.372 0.468,0.635 0.935,0.301c0.172,-0.123 1.51,-1.082 1.655,-2.156c0.001,-0.007 -1.49,0.179 -2.219,-2.664c-1.368,-5.337 1.554,-4.376 1.719,-4.483Z" style="fill:#744d3d;"/><path d="M323.532,578.252c-1.773,-5.755 -1.771,-5.942 -1.383,-6.229c1.466,-1.083 1.03,1.692 4.058,1.848c1.073,0.055 1.285,0.066 8.377,11.467c4.382,7.659 3.844,7.985 4.323,8.567c0.229,0.278 0.728,-0.684 0.957,-0.406l-1.072,0.611c-0.719,0.73 -1.437,1.46 -2.156,2.191c-1.626,1.776 -1.633,1.703 -2.453,2.78c-0.09,-1.335 -0.674,-1.051 -0.76,-2.312c-0.095,-1.407 0.563,-0.98 0.531,-1.071c-0.515,-1.459 -7.699,-9.989 -10.125,-15.882c-0.099,-0.521 -0.198,-1.042 -0.297,-1.564Z" style="fill:#d89873;"/><path d="M784.154,610.735c-0.297,0.93 -4.507,14.125 -9.679,6.291c-1.876,-2.841 -2.294,-10.33 1.13,-13.388c8.179,-7.304 8.524,6.159 8.549,7.097Z" style="fill:#fefdfc;"/><path d="M754.126,600.213c0.609,-0.848 8.756,-12.199 12.148,-2.307c1.479,4.314 -2.459,13.759 -9.461,11.352c-2.676,-2.329 -4.496,-3.127 -2.686,-9.045Z" style="fill:#fdfdfd;"/><path d="M761.042,624.601c-0.762,3.209 -4.585,20.046 -11.844,11.538c-2.123,-10.402 11.456,-20.127 11.936,-13.573c0.05,0.677 -0.142,1.358 -0.092,2.035Z" style="fill:#fefcfa;"/><path d="M201.314,325.811c5.05,2.353 21.441,33.765 21.241,34.55c-0.139,0.546 -0.239,0.419 -2.63,2.231c-1.258,-3.179 -17.064,-31.028 -19.806,-35.367c0.398,-0.471 0.797,-0.943 1.195,-1.414Z" style="fill:#e5ac7d;"/><path d="M271.099,682.667c0.569,0.48 1.138,0.959 1.707,1.439c1.092,0.797 0.58,2.113 7.068,3.151c10.922,1.748 14.586,0.194 15.761,-0.305c2.252,2.977 2.734,2.393 4.76,5.533c0.988,1.531 -0.16,1.364 -1.851,3.298c-1.657,-0.39 -13.82,-3.25 -20.471,-5.989c-7.818,-3.22 -7.901,-2.958 -8.543,-3.326c-0.025,-2.182 0.251,-2.061 1.569,-3.8Z" style="fill:#dd460e;"/><path d="M291.697,641.854l0.298,1.091c0.916,1.514 0.873,1.433 1.769,2.977c-4.558,4.113 -3.197,5.056 -3.497,5.408c-0.222,0.26 -1.689,1.979 -3.576,2.106c-0.843,0.057 -0.872,0.083 -0.93,0.136c-0.667,0.605 -0.206,0.895 -0.93,1.552l-0.983,0.404c-0.794,0.007 -6.485,0.058 -4.342,-9.745c1.122,-5.133 6.297,-1.261 12.191,-3.928Z" style="fill:#92705f;"/><path d="M467.898,672.328c-0.015,0.429 -0.117,0.339 -0.132,0.784c-0.063,1.819 0.496,1.613 0.928,3.02c-0.007,0.026 -1.571,1.065 -0.876,3.172c0.603,1.828 5.538,4.57 8.661,4.589c4.92,0.029 8.493,-2.581 9.128,-3.044c2.157,0.012 2.112,0.179 4.223,-0.439c-3.019,12.355 -21.211,9.047 -24.194,1.215c-2.116,-5.554 -3.01,-7.437 2.263,-9.296Z" style="fill:#fd9b13;"/><path d="M256.364,572.774c5.924,0.577 5.847,0.666 11.784,0.653l-1.009,1.002l-0.983,0.348c-0.01,0.3 -0.666,0.214 -0.676,0.514c-0.041,1.258 1.409,3.129 1.588,3.36c0.147,0.19 1.863,2.404 2.846,-0.139c0.492,-1.273 0.68,-1.053 1.436,-2.224c2.284,3.172 1.361,3.531 0.703,5.286l-0.988,1.364c-7.436,-0.187 -7.372,-0.223 -14.766,-0.969l-0.393,-1.309c-0.654,-3.459 -1.815,-3.008 -2.068,-6.443l0.524,-0.652c0.667,-0.264 1.335,-0.527 2.002,-0.791Z" style="fill:#66382a;"/><path d="M689.856,591.268c10.876,12.236 4.909,14.403 3.821,14.309c-4.536,-0.392 -16.238,-14.401 -8.81,-16.225c1.692,-0.416 4.634,1.665 4.989,1.916Z" style="fill:#fde6c6;"/><path d="M417.837,667.454c1.198,2.452 1.355,2.398 1.197,5.249c-1.708,3.636 -10.726,12.183 -21.137,9.722c-1.827,-1.094 -1.843,-0.914 -3.472,-2.454c-0.75,-1.89 -0.337,-1.874 -0.215,-3.91c0.42,0.373 3.305,1.571 3.598,1.693c9.179,3.81 18.889,-8.818 20.028,-10.3Z" style="fill:#fb9a07;"/><path d="M824.445,382.958c1.618,0.762 3.235,1.523 4.853,2.285l-0.956,1.305l-0.541,0.814c-2.114,7.01 -1.916,7.013 -3.228,14.266c-3.016,1.885 -3.101,1.682 -5.645,4.335c-0.222,-0.751 -1.513,-0.668 -1.735,-1.419c-0.206,-0.7 0.528,-1.358 0.707,-2.067c1.826,-7.272 2.061,-14.686 4.545,-18.627c0.667,-0.297 1.333,-0.594 2,-0.892Z" style="fill:#be6829;"/><path d="M362.45,689.056c2.35,-0.959 3.833,-2.247 11.816,-3.25c3.917,-0.492 3.011,2.303 1.736,2.918c-6.985,3.371 -7.323,2.61 -15.745,9.621c-2.172,1.808 -6.391,-0.112 -6.314,-2.78c0.095,-3.294 8.066,-6.285 8.507,-6.509Z" style="fill:#feeed2;"/><path d="M190.377,328.132l1.447,1.241c2.428,2.421 1.984,4.59 10.78,17.931c7.56,11.467 6.593,15.684 12.739,18.971c-1.009,1.039 -2.019,2.077 -3.028,3.116c-1.03,-1.844 -14.145,-23.69 -15.38,-25.747c-6.88,-11.462 -5.474,-12.22 -6.082,-13.197c-0.394,-0.634 -1.274,-0.768 -1.668,-1.402c0.397,-0.304 0.794,-0.609 1.19,-0.913Z" style="fill:#dd9c6b;"/><path d="M303.296,569.571c1.675,2.366 1.554,2.318 2.802,4.88c0.772,1.586 0.751,1.498 1.778,2.987l0.136,1.583c-1.75,-0.48 -1.737,-0.345 -12.231,2.065c-1.915,-3.702 -5.18,-7.7 -6.049,-8.94l0.971,0.038c6.356,-1.236 6.262,-1.406 12.593,-2.614Z" style="fill:#856961;"/><path d="M196.274,325.693c2.549,-0.373 2.482,-0.246 5.041,0.118c-0.398,0.471 -0.797,0.943 -1.195,1.414c2.742,4.338 18.548,32.188 19.806,35.367l-3.53,2.737l-1.765,-1.592c0.634,-0.803 0.931,-0.205 1.616,-1.074c0.052,-0.065 0.173,-0.219 0.079,-1.074c-0.185,-1.685 -0.489,-1.53 -17.795,-31.405c-0.793,-1.368 -0.646,-1.356 -1.041,-2.959l-1.216,-1.532Z" style="fill:#ce8959;"/><path d="M193.545,326.481l0.864,0.819c0.577,1.067 0.711,0.874 1.102,2.038c0.946,2.816 1.768,2.293 17.69,32.135c0.657,1.232 0.639,1.173 1.429,2.265l1.765,1.592l-1.051,0.947c-6.147,-3.288 -5.179,-7.505 -12.739,-18.971c-8.796,-13.341 -8.352,-15.51 -10.78,-17.931l-1.447,-1.241c1.056,-0.551 2.112,-1.101 3.167,-1.652Z" style="fill:#cc8554;"/><path d="M808.298,384.72c1.135,0.402 1.042,0.528 2.236,0.793c12.076,2.673 5.464,12.141 0.096,12.021c-10.799,-0.241 -2.899,-11.972 -2.332,-12.814Z" style="fill:#c06b25;"/><path d="M724.866,509.908c3.815,8.523 3.868,8.404 5.124,11.703c0.988,2.594 -2.562,0.828 -2.769,0.724c-6.58,-3.275 -15.606,-4.568 -18.78,-5.187c0.473,-0.231 0.505,-1.089 0.978,-1.32c3.317,-1.618 8.029,0.808 15.448,-5.92Z" style="fill:#c85d6c;"/><path d="M468.694,676.132c6.716,1.813 7.574,1.945 10.002,0.323c0.527,-0.146 1.069,-0.229 1.596,-0.375c2.121,-0.588 0.171,-3.333 2.411,-3.348c1.179,-0.008 2.758,7.436 2.902,8.115c-0.635,0.464 -4.208,3.074 -9.128,3.044c-3.122,-0.019 -8.058,-2.76 -8.661,-4.589c-0.695,-2.107 0.869,-3.146 0.876,-3.172Z" style="fill:#fed334;"/><path d="M784.944,511.353c2.085,0.953 17.594,8.04 23.783,16.662c-1.917,1.058 -2.054,0.948 -3.7,-0.48c-2.668,-2.313 -5.763,-1.345 -6.794,-2.986c-1.215,-1.934 -1.43,-1.868 -3.863,-1.369c-0.783,-1.718 0.096,-2.886 -3.346,-3.63c-0.023,-1.778 0.3,-2.142 -1.183,-2.795c-4.813,-2.119 -5.851,-1.502 -6.756,-1.592c-0.21,-0.435 -0.659,-0.695 -0.868,-1.13c-0.654,-1.358 0.34,-1.086 2.726,-2.68Z" style="fill:#e8dbd4;"/><path d="M716.376,413.125c1.646,8.372 2.088,8.112 4.691,16.136c2.184,6.733 -11.214,-4.098 -9.317,-18.19c0.465,-3.451 3.524,-6.975 4.187,-2.157c0.192,1.397 0.248,2.814 0.44,4.212Z" style="fill:#b85c31;"/><path d="M193.545,326.481c0.91,-0.262 1.819,-0.525 2.729,-0.787l1.216,1.532c0.395,1.602 0.248,1.591 1.041,2.959c17.306,29.875 17.61,29.72 17.795,31.405c0.094,0.855 -0.027,1.009 -0.079,1.074c-0.685,0.868 -0.982,0.27 -1.616,1.074c-0.791,-1.092 -0.772,-1.034 -1.429,-2.265c-15.922,-29.842 -16.744,-29.319 -17.69,-32.135c-0.391,-1.164 -0.525,-0.971 -1.102,-2.038l-0.864,-0.819Z" style="fill:#de9d6b;"/><path d="M808.62,406.806c8.136,10.518 -9.561,15.288 -8.923,5.242c0.539,-8.488 8.159,-5.538 8.923,-5.242Z" style="fill:#b56019;"/><path d="M437.223,632.518c2.761,-0.545 3.73,-1.934 4.54,1.052c2.678,9.877 -12.442,7.692 -13.99,5.816c-3.12,-3.78 9.005,-6.715 9.45,-6.868Z" style="fill:#8d6a56;"/><path d="M795.134,428.414c0.626,-0.443 7.548,-5.347 8.932,2.908c1.71,10.204 -16.43,7.692 -8.932,-2.908Z" style="fill:#b5641a;"/><path d="M681.555,366.772c1.068,1.753 0.902,1.892 2.524,2.986c-0.093,0.816 -1.48,0.952 -1.573,1.768c-0.035,0.31 1.667,-1.205 2.337,2.95c0.628,3.889 -1.759,10.109 -2.075,10.932c-1.01,-0.729 -7.496,-4.416 -6.589,-6.574c2.576,-6.131 2.891,-5.896 5.376,-12.063Z" style="fill:#fcb77d;"/><path d="M788.994,450.692c0.529,-0.63 6.005,-7.153 9.553,2.28c2.978,7.917 -14.721,8.949 -9.553,-2.28Z" style="fill:#b96b22;"/><path d="M258.049,457.026c0.703,-1.285 7.644,-13.972 9.346,-15.682c0.399,-0.401 4.201,-4.219 5.783,-3.865c0.506,0.113 2.325,1.018 -2.333,6.582c-12.74,15.215 -10.99,16.778 -12.415,17.642c-2.764,1.674 -0.512,-4.329 -0.381,-4.677Z" style="fill:#9a4b25;"/><path d="M409.152,260.746c-0.452,2.341 -0.339,2.278 -0.976,4.484c-4.351,-0.635 -6.712,-2.199 -13.317,8.277c-0.064,0.101 -1.414,7.475 -1.457,7.542c-0.37,0.583 -1.326,0.463 -1.696,1.046c1.677,-20.322 12.96,-22.705 14.998,-23.136l0.983,-0.042l0.173,0.655l1.293,1.174Z" style="fill:#fcc88d;"/><path d="M785.186,384.193c0.7,-0.439 6.278,-3.938 9.819,-2.523c6.327,2.529 -8.895,19.723 -9.013,4.619c-0.268,-0.699 -0.537,-1.397 -0.805,-2.096Z" style="fill:#b66420;"/><path d="M829.298,385.243c3.897,13.479 6.861,12.013 6.527,13.153c-0.104,0.354 -0.723,0.301 -0.826,0.656c-0.266,0.289 -0.532,0.578 -0.798,0.867c-4.896,0.123 -4.779,0.522 -9.627,1.709c1.312,-7.253 1.114,-7.255 3.228,-14.266l0.541,-0.814l0.956,-1.305Z" style="fill:#9e4917;"/><path d="M608.469,113.16c0.851,0.813 0.936,0.573 1.756,1.396c0.368,0.723 0.737,1.445 1.105,2.168l0.085,2.234c-0.736,1.639 -0.875,1.535 -0.983,3.363c-0.374,0.404 -0.531,-0.309 -0.906,0.096c-0.385,0.416 0.253,0.606 -0.125,1.018c-0,0 -1.917,1.027 -2.084,1.116c-4.971,-0.318 -5.678,0.201 -8.003,-4.572c-0.244,-2.228 -0.236,-2.134 0.066,-4.293c0.238,-0.41 0.477,-0.82 0.715,-1.23l1.593,1.217c0.067,0.102 1.18,3.823 3.671,2.371c0.467,-0.272 0.85,-0.705 1.331,-0.945c1.29,-0.645 0.74,-1.003 0.528,-2.5l1.249,-1.439Z" style="fill:#37d4a4;"/><path d="M787.402,598.679c-4.589,-11.575 2.765,-8.434 3.214,-7.942c4.187,4.597 5.467,5.776 4.418,10.404c-4.002,4.679 -6.17,-0.506 -7.632,-2.462Z" style="fill:#fefdfb;"/><path d="M763.749,578.561c-1.253,6.556 -1.947,7.959 3.639,10.729c0.351,0.174 2.674,1.326 4.815,-0.238c3.405,-2.489 3.484,-7.202 3.719,-8.445c0.16,0.299 -0.257,0.735 -0.097,1.034c0.257,0.48 3.124,1.992 0.508,7.66c-4.292,9.301 -19.148,-0.235 -15.549,-8.505c1.627,-3.739 0.779,-4.061 1.078,-4.179c0.813,-0.32 1.073,2.262 1.886,1.942Z" style="fill:#d49973;"/><path d="M356.841,458.904c-3.707,3.549 -3.977,3.255 -6.234,8.159c-5.321,-2.406 -10.113,-1.46 -6.338,-6.245c2.959,-3.749 3.725,-6.971 12.571,-1.914Z" style="fill:#f9b7b6;"/><path d="M769.512,415.494c-6.888,7.219 -7.181,7.34 -20.462,17.397c-0.138,-1.314 -1.157,-0.665 -1.301,-2.034c-0.012,-0.116 -0.024,-0.226 0.983,-0.993c1.713,-1.305 7.261,-7 8.218,-7.633c5.404,-3.577 4.691,-4.72 10.456,-7.677l0.983,-0.391l1.123,1.331Z" style="fill:#fbd19a;"/><path d="M506.003,287.49c10.539,8.163 17.841,7.304 12.001,13.254l-1.223,-1.412c-0.978,-1.063 -0.869,-1.044 -0.978,-1.063c-0.228,-0.04 -0.256,0.691 -1.961,0.621c-8.494,-0.348 -7.907,-10.262 -7.84,-11.401Z" style="fill:#fdaa66;"/><path d="M304.403,658.771c3.89,2.128 3.908,5.098 7.389,2.237c2.084,1.365 2.787,0.108 4.087,2.34c0.272,0.468 0.074,1.182 0.402,1.604c0.228,0.293 0.804,-0.054 1.032,0.239c-2.352,-0.109 -2.322,0.121 -4.195,1.744c-0.615,-0.355 -3.899,-2.251 -8.512,1.936c-1.262,-1.88 -2.458,-2.606 -2.717,-2.763l-0.58,-0.232c-0.265,-4.125 2.647,-6.707 3.095,-7.104Z" style="fill:#812e0d;"/><path d="M775.235,542.504c0.546,0.306 1.093,0.612 1.639,0.918c1.387,3.939 1.108,3.929 1.45,8.209c-3.651,6.494 -4.879,4.789 -6.873,4.124c-0.149,-0.502 -0.05,-0.461 -1.215,-6.458c2.194,-2.019 1.708,-2.316 3.122,-5.12c0.626,-0.558 1.252,-1.116 1.878,-1.674Z" style="fill:#fcfbfa;"/><path d="M454.79,691.48c-8.153,-7.459 15.897,-8.457 10.918,-1.253c-2.261,3.271 -10.059,1.454 -10.918,1.253Z" style="fill:#fcbc87;"/><path d="M473.533,669.93c8.186,0.023 15.622,-0.535 16.296,10.479c-2.112,0.618 -2.066,0.451 -4.223,0.439c-0.144,-0.679 -1.724,-8.123 -2.902,-8.115c-2.241,0.014 -0.29,2.759 -2.411,3.348c-0.527,0.146 -1.069,0.229 -1.596,0.375c-0.11,-0.209 -1.588,-3.458 -4.177,-5.312l-0.986,-1.213Z" style="fill:#fdcd3c;"/><path d="M459.374,659.507c0.24,2.033 0.699,2.223 -0.587,3.643c-3.108,-0.199 -7.631,-0.162 -9.862,-0.688c-0.334,-0.079 -4.84,-1.141 -2.913,-3.414c5.014,-5.917 12.486,-0.211 13.362,0.458Z" style="fill:#fbc43f;"/><path d="M543.445,102.68c0.524,0.771 1.048,1.543 1.573,2.314c0.152,1.558 0.159,1.472 0.084,3.087c-1.217,3.237 -1.591,2.866 -3.76,5.417c-2.26,-0.79 -2.13,-0.869 -3.845,-1.184c-4.322,-4.124 -2.48,-7.89 -2.175,-8.513c0.703,0.256 0.494,1.791 1.198,2.047c0.375,0.136 0.266,-1.053 4.896,-0.682c1.809,0.145 1.47,-1.14 1.685,-1.306l0.344,-1.181Z" style="fill:#f42955;"/><path d="M788.257,408.067c-0.437,0.635 -0.874,1.27 -1.311,1.905c-0.308,-0.039 -0.255,0.035 -3.875,-0.122c-0.693,-6.302 -0.489,-6.323 -0.343,-6.563c2.639,-4.35 4.933,-3.698 5.422,-3.559c5.415,1.539 0.504,7.832 0.107,8.339Z" style="fill:#b86821;"/><path d="M365.32,677.375c-0.43,0.556 -0.861,1.111 -1.291,1.667c-1.406,0.565 -1.271,0.605 -2.679,1.192c-2.82,0.895 -6.441,3.412 -9.366,-0.588c4.478,-7.171 10.719,-6.017 13.336,-2.271Z" style="fill:#feec50;"/><path d="M761.042,624.601l0.97,1.162l0.132,1.074c0.075,7.513 -2.488,7.771 -2.797,8.49c-0.486,1.133 0.073,1.298 -0.638,2.337c-0.413,0.603 -2.677,3.909 -8.064,3.301c-3.212,-0.363 -3.126,-1.764 -1.447,-4.825c7.259,8.508 11.082,-8.33 11.844,-11.538Z" style="fill:#db9a73;"/><path d="M576.335,110.582c0.505,1.058 0.86,0.794 0.959,2.006c1.109,13.623 -11.449,8.507 -10.959,1.973c0.518,0.054 1.036,0.108 1.554,0.162l0.983,0.361c1.834,0.632 2.58,2.863 6.215,-1.56l0.32,-1.074c0.309,-0.623 0.619,-1.246 0.928,-1.869Z" style="fill:#4be281;"/><path d="M603.334,109.647c1.296,0.201 2.593,0.402 3.889,0.603c0.553,0.131 1.105,0.263 1.658,0.394l0.478,0.483c-0.749,0.158 -1.497,0.316 -2.246,0.474c-5.989,-0.333 -5.628,1.206 -7.017,2.854c-0.238,0.41 -0.477,0.82 -0.715,1.23c-0.442,1.1 -0.811,0.904 -0.858,2.135c-0.046,1.21 0.363,0.989 0.792,2.158c2.325,4.774 3.032,4.254 8.003,4.572c0.713,0.024 1.426,0.047 2.139,0.071c-2.946,2.816 -3.228,2.288 -7.162,1.776c-7.59,-4.787 -6.316,-11.037 -2.203,-15.256c0.615,-0.473 2.977,-1.392 3.242,-1.495Z" style="fill:#1c702d;"/><path d="M473.533,669.93l0.986,1.213c2.589,1.854 4.067,5.102 4.177,5.312c-2.429,1.622 -3.286,1.49 -10.002,-0.323c-0.433,-1.408 -0.991,-1.202 -0.928,-3.02c0.015,-0.444 0.118,-0.354 0.132,-0.784c2.697,-1.704 2.661,-1.667 5.635,-2.398Z" style="fill:#fefac0;"/><path d="M576.335,110.582c-0.309,0.623 -0.619,1.246 -0.928,1.869l-0.32,1.074c-3.636,4.423 -4.381,2.193 -6.215,1.56l-0.983,-0.361c-0.518,-0.054 -1.036,-0.108 -1.554,-0.162c0.041,-1.67 -0.128,-1.723 0.804,-3.037c2.458,-3.037 3.632,-3.208 3.732,-3.27c0.407,-0.254 2.367,-1.477 5.465,2.327Z" style="fill:#67f7a9;"/><path d="M783.071,409.849c3.62,0.157 3.567,0.083 3.875,0.122c3.545,6.173 -2.09,8.621 -2.729,8.899c-0.35,-0.278 -2.054,-1.629 -4.336,-3.537l-0.117,-0.857c1.308,-2.611 1.426,-2.428 3.307,-4.627Z" style="fill:#ab5917;"/><path d="M752.501,586.905c-5.768,4.03 -9.759,-2.498 -3.681,-6.05c1.089,-0.637 8.877,-1.346 3.681,6.05Z" style="fill:#fdfcfa;"/><path d="M789.882,580.584c-0.421,0.433 -5.637,5.804 -6.623,-3.17c-0.723,-6.581 8.113,-5.457 6.623,3.17Z" style="fill:#fefcf9;"/><path d="M766.42,481.062c9.004,-0.709 8.975,-0.622 17.782,1.443c0.008,0.599 -0.908,0.906 -0.9,1.506c0.012,0.865 0.761,0.269 0.936,1.133c0.131,0.649 -0.64,0.331 -0.506,0.993c-1.365,-1.518 -4.18,-1.899 -4.569,-1.951c-4.715,-0.637 -4.945,-1.815 -9.046,0.841c-0.903,-1.022 -1.807,-2.045 -2.71,-3.067l-0.986,-0.898Z" style="fill:#dc9c69;"/><path d="M721.314,648.477c5.403,-3.241 4.803,0.484 4.727,0.895c-0.338,1.817 -3.622,5.482 -6.788,6.487c-7.088,2.251 1.654,-6.954 2.061,-7.382Z" style="fill:#fddbbd;"/><path d="M781.063,556.944c0.398,-0.364 5.067,-4.637 5.73,3.339c0.519,6.239 -8.774,5.174 -5.73,-3.339Z" style="fill:#fefaf8;"/><path d="M291.793,664.316c-0.256,1.72 -0.236,1.655 -0.067,3.37l-0.805,0.365c-3.083,1.144 -6.745,2.683 -8.842,-0.494c3.52,-5.815 8.069,-4.285 9.713,-3.24Z" style="fill:#f4a51d;"/><path d="M745.124,595.903c-5.147,5.841 -10.49,-1.701 -5.415,-3.898c2.718,-1.176 7.859,-1.445 5.415,3.898Z" style="fill:#fdfdfd;"/><path d="M280.994,681.201c-2.163,-7.015 11.335,-5.536 10.188,-3.892c-3.555,5.092 -4.362,3.87 -10.188,3.892Z" style="fill:#fef9d0;"/><path d="M459.374,659.507l1.385,-1.181l1.144,0.727c0.164,0.487 0.866,0.587 1.03,1.074c0.165,0.49 -0.537,0.948 0.553,1.273c3.093,0.923 2.292,2.32 5.138,3.848c-0.987,0.738 -0.382,3.034 -4.786,1.802c-0.172,-0.048 -0.741,-0.207 -2.179,0.457c-0.023,-0.86 -0.045,-1.72 -0.068,-2.58c-0.194,-0.156 0.403,-1.011 -2.805,-1.776c1.286,-1.421 0.827,-1.61 0.587,-3.643Z" style="fill:#af3914;"/><path d="M749.844,656.998c-6.047,7.279 -6.224,-0.047 -5.768,-1.064c2.482,-5.534 7.576,-4.752 5.768,1.064Z" style="fill:#fdf9f0;"/><path d="M313.117,666.935c1.369,5.002 -3.011,4.672 -6.549,4.538c-1.243,-1.123 -1.318,-1.011 -1.963,-2.602c4.613,-4.186 7.897,-2.291 8.512,-1.936Z" style="fill:#fef09c;"/><path d="M155.364,647.168c3.306,1.043 3.129,1.626 6.541,1.951c-1.068,4.293 -1.171,4.16 -3.12,8.114c-3.547,-4.587 -3.296,-6.351 -3.42,-10.065Z" style="fill:#788db4;"/><path d="M607.113,111.601c1.36,1.34 1.225,1.463 1.356,1.559l-1.249,1.439c0.212,1.497 0.762,1.855 -0.528,2.5c-0.481,0.241 -0.864,0.673 -1.331,0.945c-2.49,1.452 -3.604,-2.27 -3.671,-2.371l-1.593,-1.217c1.389,-1.648 1.028,-3.187 7.017,-2.854Z" style="fill:#5ceac7;"/><path d="M787.402,598.679c1.462,1.956 3.63,7.141 7.632,2.462c0.331,0.406 0.85,0.59 1.18,0.996c1.066,1.307 -2.271,5.704 -8.057,2.987c-1.394,-0.654 -1.567,-3.843 -1.587,-4.206c-0.068,-1.248 0.387,-1.041 0.832,-2.239Z" style="fill:#d79771;"/><path d="M774.436,533.543c2.893,-1.956 3.751,-2.203 5.272,1.164c2.096,4.638 -8.652,6.649 -5.272,-1.164Z" style="fill:#efe8e4;"/><path d="M744.472,538.818c-2.255,-7.125 -2.351,-7.349 -1.86,-7.693c0.485,-0.34 0.652,-0.141 5.13,5.514c1.868,2.36 0.49,2.601 -1.188,5.12c-1.828,2.744 -2.067,-2.644 -2.081,-2.941Z" style="fill:#652816;"/><path d="M693.426,627.703c-7.073,6.471 -5.387,-1.943 -4.539,-2.811c0.337,-0.345 8.172,-4.251 4.539,2.811Z" style="fill:#fbd3b0;"/><path d="M543.445,102.68l-0.344,1.181c-0.215,0.166 0.125,1.451 -1.685,1.306c-4.63,-0.371 -4.521,0.818 -4.896,0.682c-0.703,-0.256 -0.494,-1.791 -1.198,-2.047c4.291,-5.58 6.626,-2.296 8.123,-1.121Z" style="fill:#fd5792;"/><path d="M351.984,679.645c2.926,4 6.547,1.483 9.366,0.588l1.415,1.37l-0.291,0.598c-3.102,2.71 -5.212,2.216 -5.681,2.107c-0.483,-0.113 -0.703,-0.868 -1.188,-0.968c-2.748,-0.567 -2.685,0.352 -2.874,0.208c-1.575,-1.195 -1.265,-1.501 -2.909,-2.516c1.157,-0.444 1.028,-0.534 2.162,-1.387Z" style="fill:#cf4c12;"/><path d="M752.964,572.263c4.092,-6.362 8.559,-1.292 5.454,1.794c-0.854,0.849 -3.473,1.15 -3.786,1.186c-0.38,-0.695 -0.537,-0.44 -0.911,-1.124c-0.076,-0.14 -0.056,-0.137 -0.757,-1.856Z" style="fill:#fcfcf9;"/><path d="M754.126,600.213c-1.81,5.918 0.011,6.715 2.686,9.045c-0.52,0.287 -0.68,1.102 -1.2,1.388c-0.335,0.185 -2.74,-0.767 -4.914,-5.277l-0.759,0.111c0.904,-1.619 0.497,-1.804 1.742,-3.12c1.145,-1.21 1.186,-1.042 2.445,-2.147Z" style="fill:#e9ab7d;"/><path d="M838.327,496.112c-1.209,1.373 -1.222,1.275 -2.212,2.879c-0.125,-0.187 -1.558,-2.335 -1.558,-2.335c-1.36,-0.405 -2.832,0.138 -4.227,-0.082c-0.889,-0.14 -1.912,-2.329 0.919,-2.493c3.481,-0.202 3.673,0.969 3.974,0.984c0.382,0.018 0.602,-0.606 0.983,-0.646c0,0 1.952,1.558 2.122,1.693Z" style="fill:#581d0b;"/><path d="M268.148,573.427l0.957,0.875l0.983,0.543l1.28,0.445l-0.017,0.997c-0.757,1.172 -0.944,0.952 -1.436,2.224c-0.983,2.542 -2.699,0.329 -2.846,0.139c-0.179,-0.231 -1.63,-2.103 -1.588,-3.36c0.01,-0.3 0.666,-0.214 0.676,-0.514l0.983,-0.348l1.009,-1.002Z" style="fill:#905e4b;"/><path d="M791.025,519.551c3.442,0.744 2.563,1.912 3.346,3.63c-4.374,2.665 -7.72,-1.805 -3.346,-3.63Z" style="fill:#fdfcfb;"/><path d="M304.403,658.771c0.963,-0.696 1.059,-0.334 2.032,-1.019c0.449,-0.317 0.441,0.043 1.001,0.097c2.736,0.76 3.044,0.463 4.356,3.159c-3.481,2.861 -3.499,-0.108 -7.389,-2.237Z" style="fill:#87330d;"/><path d="M763.473,561.315c-6.703,-0.445 0.913,-6.62 2.655,-4.13c1.331,1.903 -2.326,3.946 -2.655,4.13Z" style="fill:#fdeec8;"/><path d="M771.006,653.798c-1.015,1.846 -0.863,1.984 -2.589,3.044l-0.763,-0.186c-2.649,-4.962 2.13,-6.578 3.352,-2.858Z" style="fill:#fcf2df;"/><path d="M799.708,567.583c5.546,-3.979 2.216,2.085 2.025,2.224c-0.191,0.139 -7.956,3.848 -2.025,-2.224Z" style="fill:#fdbf8d;"/><path d="M698.346,486.312c-3.214,6.631 -4.792,2.496 -4.791,2.047c0.001,-0.49 1.342,-2.729 2.124,-3.153c1.484,-0.804 1.333,0.153 2.667,1.106Z" style="fill:#fd9195;"/><path d="M752.964,572.263c0.701,1.718 0.681,1.716 0.757,1.856c0.374,0.684 0.53,0.429 0.911,1.124c-0.353,0.098 -6.576,2.091 -5.486,-0.843c0.241,-0.65 3.497,-2.004 3.818,-2.137Z" style="fill:#f9ead4;"/><path d="M301.888,666.107c0.26,0.158 1.455,0.883 2.717,2.763c-1.505,0.509 -1.538,0.023 -3.067,0.62l-0.839,-0.773l0.027,-1.074l1.162,-1.536Z" style="fill:#cf4918;"/><path d="M779.926,621.078l1.121,0.22c-0.43,0.778 -0.263,0.765 -0.766,1.386c-1.441,1.779 -1.736,1.284 -3.743,0.453c1.577,-1.028 1.551,-1.059 1.703,-1.11c0.932,-0.317 0.777,-0.437 1.686,-0.95Z" style="fill:#eba271;"/><path d="M611.568,114.368c0.32,0.423 2.337,3.088 -0.043,6.864l-0.11,-2.275l-0.085,-2.234c0.079,-0.785 0.158,-1.57 0.237,-2.355Z" style="fill:#4b7121;"/><path d="M607.113,111.601c0.749,-0.158 1.497,-0.316 2.246,-0.474c0.369,0.34 0.738,0.679 1.107,1.019c-0.08,0.803 -0.16,1.607 -0.24,2.41c-0.82,-0.823 -0.905,-0.583 -1.756,-1.396c-0.131,-0.095 0.003,-0.218 -1.356,-1.559Z" style="fill:#248a47;"/><path d="M784.21,617.211c-0.816,3.12 -1.424,2.623 -3.163,4.087l-1.121,-0.22c2.05,-2.225 2.027,-2.085 4.284,-3.867Z" style="fill:#e79b6c;"/><path d="M379.527,639.718c-0.172,0.122 -2.145,1.523 -2.145,1.523c-0.684,-0.438 -0.189,-5.145 2.145,-1.523Z" style="fill:#d26f40;"/><path d="M294.16,666.67c-0.236,0.701 -0.472,1.402 -0.708,2.103l-2.531,-0.723l0.805,-0.365c0.811,-0.339 1.623,-0.677 2.434,-1.016Z" style="fill:#b44e0c;"/><path d="M611.415,118.958l0.11,2.275c-0.247,1.746 -0.302,1.684 -1.379,3.025c0.096,-0.646 0.191,-1.292 0.287,-1.937c0.109,-1.827 0.247,-1.724 0.983,-3.363Z" style="fill:#4b7b23;"/><path d="M610.465,112.146c0.84,1.059 0.901,0.937 1.102,2.222c-0.079,0.785 -0.158,1.57 -0.237,2.355c-0.368,-0.723 -0.737,-1.445 -1.105,-2.168c0.08,-0.803 0.16,-1.607 0.24,-2.41Z" style="fill:#398032;"/><path d="M610.432,122.32c-0.096,0.646 -0.191,1.292 -0.287,1.937l-0.689,0.364c-0.713,-0.024 -1.426,-0.047 -2.139,-0.071c0.167,-0.089 2.084,-1.116 2.084,-1.116c0.378,-0.412 -0.26,-0.602 0.125,-1.018c0.375,-0.405 0.532,0.308 0.906,-0.096Z" style="fill:#367b29;"/><path d="M777.268,512.991l0.95,-1.108c0.183,0.208 0.608,-0.159 0.791,0.049c1.145,1.301 -0.008,1.269 -1.31,2.29l-0.43,-1.231Z" style="fill:#d5ceca;"/><path d="M536.343,96.657c1.007,0.577 2.014,1.155 3.021,1.732c-0.614,0.083 -1.228,0.165 -1.842,0.248c-0.393,-0.66 -0.786,-1.32 -1.179,-1.98Z" style="fill:#d48534;"/><path d="M410.46,623.372l-0.917,1.365c0.054,-1.294 -1.078,-0.782 -1.022,-2.119c0.004,-0.107 0.038,-0.926 1.131,-0.502c0.441,0.171 0.368,1.084 0.809,1.255Z" style="fill:#735752;"/><path d="M599.381,115.686c-0.302,2.159 -0.31,2.065 -0.066,4.293c-0.429,-1.169 -0.838,-0.947 -0.792,-2.158c0.047,-1.231 0.416,-1.036 0.858,-2.135Z" style="fill:#33a572;"/><path d="M537.497,112.314c1.715,0.315 1.585,0.394 3.845,1.184c-1.782,-0.182 -1.771,-0.214 -1.925,-0.196c-1.19,0.14 -0.932,-0.479 -1.921,-0.988Z" style="fill:#d61538;"/><path d="M545.018,104.994c0.245,0.469 0.905,0.554 1.15,1.023c0,0 -0.981,1.899 -1.066,2.064c0.075,-1.615 0.068,-1.528 -0.084,-3.087Z" style="fill:#ca1e2e;"/><path d="M379.253,552.761c0.282,0.662 0.565,1.324 0.847,1.986c-1.546,0.086 -1.597,0.218 -1.665,0.092c0,0 0.753,-1.912 0.818,-2.078Z" style="fill:#62251e;"/><path d="M458.787,663.15c3.207,0.765 2.611,1.619 2.805,1.776c-0.935,-0.592 -1.87,-1.184 -2.805,-1.776Z" style="fill:#9d4215;"/><path d="M603.334,109.647c2.029,0.08 1.924,0.187 3.889,0.603c-1.296,-0.201 -2.593,-0.402 -3.889,-0.603Z" style="fill:#488236;"/><path d="M738.681,514.007c-0.196,1.449 -0.09,1.897 -1.409,1.761c0.47,-0.587 0.939,-1.174 1.409,-1.761Z" style="fill:#652b18;"/><path d="M333.634,612.012c-0.907,-2.091 -0.75,-2.141 -0.589,-2.192c1.34,-0.423 0.212,0.789 0.589,2.192Z" style="fill:#c1623c;"/><path d="M767.654,656.657l0.763,0.186c-0.493,0.59 -0.985,1.18 -1.478,1.77c0.238,-0.652 0.477,-1.304 0.715,-1.956Z" style="fill:#fbc99a;"/><path d="M769.928,612.636c0.458,-0.4 0.137,-1.409 0.595,-1.809c1.41,-1.232 0.841,0.498 0.814,0.578c-0.337,1.025 -1.072,0.206 -1.41,1.232Z" style="fill:#fdb57a;"/></g></svg>