<?xml version="1.0" encoding="UTF-8" standalone="no"?><!DOCTYPE svg PUBLIC "-//W3C//DTD SVG 1.1//EN" "http://www.w3.org/Graphics/SVG/1.1/DTD/svg11.dtd"><svg width="100%" height="100%" viewBox="0 0 1024 1024" version="1.1" xmlns="http://www.w3.org/2000/svg" xmlns:xlink="http://www.w3.org/1999/xlink" xml:space="preserve" xmlns:serif="http://www.serif.com/" style="fill-rule:evenodd;clip-rule:evenodd;stroke-linejoin:round;stroke-miterlimit:2;"><g id="Background"><path d="M310.05,559.53c-0.567,-6.166 -5.707,-62.089 -7.163,-77.07c-6.942,-71.463 -6.197,-72.128 -8.546,-73.696c-12.177,-8.129 -13.949,-9.467 -17.373,-31.334c-3.609,-23.047 4.829,-46.917 9.603,-51.861c32.477,-33.634 100.635,-45.143 147.982,-50.67c4.937,-0.576 7.645,0.312 6.281,-4.5c-12.536,-44.215 22.71,-51.829 34.693,-50.14c22.971,3.236 30.093,23.38 32.648,19.971c23.956,-31.957 51.111,-18.351 58.011,-11.426c16.555,16.614 6.254,44.288 6.346,44.687c0.398,1.732 19.232,2.02 45.027,6.664c78.712,14.171 100.8,36.402 107.318,42.962c13.545,13.633 14.881,42.144 10.847,62.426c-4.679,23.522 -14.985,19.21 -17.483,24.829c-0.46,1.035 -34.477,372.816 -34.505,373.149c-3.19,37.831 4.126,60.928 -63.173,86.155c-74.848,28.058 -181.079,21.565 -240.854,-5.641c-50.971,-23.2 -46.986,-46.129 -48.227,-66.533c-1.717,-28.22 -19.643,-218.94 -21.432,-237.971Z" style="fill:#985f54;"/><path d="M307.633,426.517c-0.123,-1.263 -1.659,-10.414 -0.092,-10.855c1.138,-0.32 43.542,23.815 137.93,32.157c49.074,4.337 108.619,2.462 146.019,-2.386c85.496,-11.082 114.38,-31.048 115.638,-29.66c0.923,1.017 -1.698,24.569 -1.935,26.697c-0.805,7.235 -40.725,-6.751 -79.331,50.229c-11.655,19.464 -9.613,29.374 -10.718,45.78c-3.122,46.346 -11.937,199.048 -11.98,200.002c-2.528,56.313 -6.55,60.676 4.566,64.539c2.101,0.391 13.324,5.576 42.903,-9.258c19.79,-9.925 21.252,-16.543 22.227,-16.795c0.304,-0.079 0.222,0.86 0.526,0.781c0.256,0.254 0.512,0.507 0.768,0.761c-1.346,7.174 -0.49,13.339 -2.878,15.788c-66.025,67.721 -256.177,59.686 -318.037,9.632c-8.898,-8.139 -11.102,-7.436 -12.293,-19.474c-0.23,-2.327 -1.29,-8.205 0.63,-6.253c18.598,18.91 49.929,26.734 58.906,25.835c15.732,-1.575 13.867,-7.545 12.219,-38.551c-0.968,-18.206 -12.616,-213.427 -12.833,-216.015c-2.435,-29.074 0.563,-29.691 -6.599,-46.865c1.36,-1.399 1.983,-1.384 1.185,-3.093c-0.967,-2.071 -1.455,-1.731 -2.06,-3.998c-9.454,-35.446 -34.453,-41.992 -47.98,-51.784c-7.249,-3.671 -7.299,-3.357 -15.081,-5.738c-0.147,0.041 -1.835,0.515 -1.835,0.515c-7.704,0.401 -7.734,0.728 -8.291,0.366c-2.643,-1.715 2.019,-6.513 -11.574,-12.361Z" style="fill:#e8bb7c;"/><path d="M429.068,799.538c0.363,-11.266 -1.435,-17.224 -2.583,-27.037c-0.854,-7.296 -14.675,-250.77 -12.363,-257.135c6.438,-17.729 35.854,-31.607 39.601,-33.374c69.216,-32.653 135.466,7.598 146.27,33.283c2.101,4.995 -3.149,80.116 -4.908,124.214c-5.809,145.574 -9.67,145.345 -9.731,158.009c-0.173,35.692 -149.261,36.713 -156.286,2.04Z" style="fill:#9e6155;"/><path d="M543.55,482.284c0.258,0.088 34.141,9.407 50.565,34.428c1.502,2.288 -1.046,33.739 -1.869,55.774c-0.197,5.287 -1.902,50.948 -3.517,66.042c-0.208,0.229 -1.27,0.054 -1.788,1.973c-1,3.705 -17.167,45.274 -23.683,56.862c-1.842,3.275 -17.011,30.253 -25.376,39.522c-0.263,0.291 -0.961,0.226 -1.003,0.617c-0.059,0.555 0.838,0.927 0.778,1.482c-7.644,3.122 -3.573,7.24 -7.324,9.251c-7.988,4.283 -8.105,4.529 -8.741,4.091c-1.733,-1.192 -8.494,-14.488 -9.155,-15.79c-1.114,-2.191 5.693,-9.844 -3.96,-12.927c-3.571,-1.14 -9.618,2.762 -7.579,8.768c2.318,6.829 -0.342,6.627 -3.868,12.856c-3.414,6.031 -3.549,9.69 -9.272,5.847c-4.018,-2.698 -5.326,-1.818 -6.345,-6.556c-2.342,-10.897 -19.05,-1.626 -9.811,5.855c2.998,2.428 3.122,2.546 10.071,26.068c0.482,1.631 1.296,2.09 5.093,3.627c-11.568,9.276 -40.557,17.076 -42.426,10.477c-9.272,-32.728 -15.277,-205.495 -16.924,-243.05c-1.12,-25.55 0.104,-25.776 3.155,-28.934c20.553,-21.278 51.915,-34.997 80.927,-36.126c2.32,-0.09 19.281,-0.751 29.003,0.9c1.903,0.323 1.98,-1.22 2.088,-1.289c0.277,-0.178 0.684,0.41 0.962,0.232Z" style="fill:#f1b5b7;"/><path d="M565.081,287.056c10.583,5.314 73.276,9.965 97.242,42.566c10.138,13.791 -20.746,35.901 -79.783,47.067c-6.662,1.26 -39.799,7.528 -84.009,11.165c-3.887,0.32 -21.765,0.08 -22.03,0.253c-0.597,0.389 -0.415,1.493 -1.011,1.883c-14.732,-0.897 -113.574,-4.538 -166.17,-34.088c-0.122,-1.066 1.301,-0.373 1.181,-1.415c-0.017,-0.149 -0.418,0.35 -1.477,-1.16c-0.109,-0.155 0.001,-4.484 0.011,-4.873c0.475,-18.795 30.066,-27.157 44.522,-32.812c22.452,-8.783 22.818,-7.502 36.82,-11.554c19.239,-5.567 59.801,-10.695 61.124,-11.32c0.538,-0.254 0.619,-1.107 1.157,-1.361c11.042,14.454 30.052,27.032 31.083,27.784c-1.866,0.934 -2.617,0.339 -2.835,2.405c-0.589,5.583 4.584,7.049 13.768,10.443c21.632,7.994 81.295,1.139 85.8,-9.551c5.799,-13.761 -16.309,-15.195 -24.953,-17.123c-6.327,-1.411 -6.342,4.306 -8.02,3.456c-0.624,-0.316 -0.66,-1.345 -1.285,-1.661c5.192,-4.566 8.642,-6.792 18.866,-20.103Z" style="fill:#ebc178;"/><path d="M680.414,701.407c-0.875,0.254 -8.952,2.594 -6.879,9.082c1.446,4.526 0.072,4.532 -6.442,16.776c-2.055,3.863 -3.329,1.984 -9.392,-2.075c-3.185,-2.132 -1.844,-3.261 -2.918,-5.816c-3.984,-9.476 -16.833,1.429 -8.998,7.811c4.892,3.984 4.284,14.017 7.574,27.351c1.787,7.245 11.7,3.89 20.15,3.79c2.844,-0.034 1.591,5.021 1.58,5.134c-1.862,18.559 -69.752,48.891 -68.631,27.038c0.686,-13.367 4.48,-87.316 9.789,-167.015c1.14,-17.115 5.595,-104.92 6.583,-106.792c2.985,-5.66 17.69,-58.279 78.616,-65.5c3.792,-0.449 3.08,1.475 2.711,4.237c-2.464,18.465 -1.638,18.471 -3.715,37.066c-0.551,4.935 1.058,7.055 -3.921,7.399c-8.123,0.561 -3.952,10.795 -4.807,12.707c-0.579,1.295 -4.366,9.769 -8.649,15.472c-1.076,1.433 -9.144,-2.906 -10.378,-7.598c-3.23,-12.292 -18.682,-3.226 -9.918,4.731c4.133,3.753 5.154,18.544 8.008,28.203c2.274,7.696 20.861,1.788 22.674,3.154c2.236,1.685 0.57,2.225 0.258,5.961c-0.221,2.652 -2.436,29.221 -2.901,33.136c-0.247,2.074 -2.519,-0.599 -2.662,-0.768c-25.993,-30.582 -68.383,7.994 -35.02,56.888c18.578,27.226 29.951,25.228 29.647,30.737c-0.811,14.701 -1.831,17.464 -2.358,18.893Z" style="fill:#e595a2;"/><path d="M321.561,452.28c6.146,1.294 42.144,8.875 62.523,47.48c7.792,14.761 7.572,15.038 8.61,31.73c5.278,84.891 12.344,211.633 13.37,230.039c1.642,29.444 2.637,32.294 -0.535,35.03c-1.871,-2.46 -1.588,-2.746 -3.007,-3.112c-2.036,-0.525 -18.588,-4.79 -25.11,-7.759c-23.751,-10.813 -22.114,-13.525 -24.17,-14.445c-0.243,-0.109 -0.514,0.362 -0.756,0.254c-0.097,-0.987 -0.754,-7.686 -0.904,-12.361c0.831,-0.042 7.449,0.917 8.677,-2.717c0.813,-2.409 4.575,-22.044 4.944,-23.967c0.878,-4.581 2.009,-3.946 4.076,-6.161c7.59,-8.134 -8.867,-15.98 -10.347,-5.729c-0.705,4.885 -2.298,4.598 -8.314,9.129c-4.586,-7.8 -6.337,-50.186 -8.307,-56.509c3.791,-3.401 30.444,-27.315 30.842,-55.695c0.287,-20.458 -13.264,-41.563 -37.427,-30.654c-0.297,-0.676 -0.821,-0.44 -1.024,-2.332c-2.526,-23.565 -2.247,-24.9 -2.165,-27.249c1.971,-0.128 3.952,-0.042 5.923,-0.169c5.537,-0.359 5.331,-6.568 7.055,-13.578c3.574,-14.534 2.494,-15.365 6.6,-18.451c7.304,-5.49 -7.567,-19.318 -10.652,-3.56c-0.565,2.883 -9.088,7.155 -9.943,6.951c-1.812,-0.433 -8.622,-14.514 -9.261,-15.835c-1.024,-2.117 0.746,-4.19 0.807,-6.125c0.266,-8.476 -8.505,-4.477 -8.891,-8.947c-3.585,-41.508 -4.314,-41.417 -4.262,-45.036c0.04,-2.822 10.011,-0.45 11.649,-0.221Z" style="fill:#f1b6b8;"/><path d="M543.55,482.284c-0.277,0.178 -0.684,-0.41 -0.962,-0.232c-0.108,0.069 -0.186,1.612 -2.088,1.289c-9.722,-1.651 -26.683,-0.991 -29.003,-0.9c-29.012,1.13 -60.374,14.848 -80.927,36.126c-3.051,3.158 -4.275,3.384 -3.155,28.934c1.647,37.556 7.652,210.322 16.924,243.05c1.869,6.598 30.858,-1.201 42.426,-10.477c18.268,3.012 43.363,1.426 44.956,-1.436c3.681,-6.61 4.812,-23.81 10.663,-28.289c1.894,-1.45 7.262,-9.607 -4.728,-11.367c0.059,-0.555 -0.838,-0.927 -0.778,-1.482c0.042,-0.39 0.74,-0.325 1.003,-0.617c8.365,-9.269 23.535,-36.246 25.376,-39.522c6.516,-11.587 22.682,-53.156 23.683,-56.862c0.518,-1.918 1.58,-1.744 1.788,-1.973c-0.827,39.072 -4.215,93.803 -4.719,101.952c-0.383,6.188 -5.136,59.338 -5.405,60.066c-8.249,22.277 -125.984,24.8 -142.829,0.78c-0.262,-0.373 -5.049,-47.839 -6.088,-71.829c-0.83,-19.162 -9.975,-202.638 -10.667,-208.982c-0.757,-6.929 27.191,-40.413 85.487,-44.92c14.662,-1.133 36.026,5.721 39.043,6.689Z" style="fill:#e496a2;"/><path d="M447.926,630.416c-5.438,-32.139 20.878,-45.441 37.636,-40.119c13.033,4.14 18.976,12.108 20.032,13.095c2.182,2.041 2.266,-0.033 6.264,-3.486c43.883,-37.908 88.371,31.016 16.948,80.023c-21.022,14.424 -22.823,12.15 -28.195,9.351c-43.368,-22.592 -51.113,-52.743 -52.685,-58.864Z" style="fill:#9c6156;"/><path d="M460.444,602.452c5.511,-5.7 22.419,-15.987 42.479,6.705c7.392,8.362 9.7,-6.451 24.758,-12.216c21.927,-8.394 49.827,15.921 21.402,55.241c-12.366,17.106 -35.525,30.919 -40.471,32.595c-6.856,2.323 -78,-43.889 -48.168,-82.325Z" style="fill:#eec38a;"/><path d="M354.78,813.194c65.961,41.326 167.645,45.21 243.665,26.049c0.276,0.214 0.744,-0.454 1.02,-0.241c2.773,2.143 -9.101,19.194 -25.205,28.103c-6.082,3.364 -12.419,4.823 -12.761,5.11c-0.484,0.406 -0.447,1.244 -0.93,1.65c-14.6,1.883 -14.507,2.432 -36.087,3.363c-4.716,0.204 -31.497,1.36 -58.974,-1.799c-62.029,-7.13 -91.731,-25.692 -94.078,-26.788c0.421,-0.462 1.067,-0.68 1.488,-1.142c0.569,-0.625 -3.835,-3.301 -6.369,-7.029c-13.868,-20.402 -11.753,-26.885 -11.769,-27.277Z" style="fill:#ebc07d;"/><path d="M611.482,390.311c-3.258,6.34 2.797,8.279 -4.265,25.091c-0.903,2.15 -0.072,4.368 -3.806,5.902c-17.94,7.369 -46.45,11.275 -66.949,14.927c-6.103,1.087 -15.507,1.489 -15.962,1.933c-0.479,0.467 -0.515,1.277 -0.994,1.743c-26.142,-0.034 -39.769,1.735 -88.961,-3.776c-0.728,-0.082 -4.278,-0.479 -9.08,-1.219c0.737,-0.417 2.212,0.787 2.958,-3.42c0.519,-2.926 -0.866,-26.588 3.08,-26.956c7.658,-0.715 27.478,5.224 92.975,1.71c26.553,-1.425 40.709,-7.544 45.293,-8.284c2.938,-0.474 5.375,1.361 4.188,-1.462c-0.184,-0.439 -0.26,-0.918 -0.444,-1.357c3.371,-0.233 22.884,-1.584 41.966,-4.832Z" style="fill:#ebc178;"/><path d="M565.081,287.056c3.172,-4.579 4.881,-2.976 12.36,-2.136c10.218,1.147 10.204,1.156 11.091,1.252c58.174,6.298 103.385,24.516 116.718,33.692c21.109,14.529 13.963,19.749 13.22,21.624c-13.139,33.161 -144.138,53.613 -242.981,48.502c0.597,-0.389 0.415,-1.493 1.011,-1.883c0.265,-0.173 18.143,0.067 22.03,-0.253c44.21,-3.637 77.348,-9.905 84.009,-11.165c59.037,-11.167 89.921,-33.276 79.783,-47.067c-23.966,-32.601 -86.658,-37.251 -97.242,-42.566Z" style="fill:#dba469;"/><path d="M541.542,230.126c2.6,4.48 14.083,16.09 3.564,39.185c-7.242,15.901 -32.872,37.645 -44.667,44.067c-2.84,1.547 -2.072,2.227 -2.979,3.202c-3.66,-2.266 -30.207,-18.705 -40.589,-35.331c-28.271,-45.274 19.216,-73.108 45.613,-29.735c1.016,1.67 2.784,5.319 7.227,2.282c3.144,-3.555 12.22,-22.01 31.831,-23.67Z" style="fill:#eb9ca9;"/><path d="M611.482,390.311c62.674,-9.668 87.418,-22.19 99.317,-30.429c14.584,-10.099 13.244,-19.296 14.617,-15.32c4.581,13.266 1.709,32.207 1.29,34.975c-3.278,21.623 -9.032,18.895 -33.042,30.314c-38.433,18.277 -117.146,30.813 -174.157,30.057c0.479,-0.467 0.515,-1.277 0.994,-1.743c0.455,-0.443 9.859,-0.846 15.962,-1.933c20.5,-3.652 49.009,-7.558 66.949,-14.927c3.734,-1.534 2.903,-3.752 3.806,-5.902c7.062,-16.811 1.007,-18.751 4.265,-25.091Z" style="fill:#dca569;"/><path d="M481.502,605.511c14.087,1.063 16.234,5.37 24.209,13.778c2.622,2.764 2.637,-0.255 7.279,-5.322c5.965,-6.512 23.189,-13.733 32.43,-2.395c20.848,25.579 -27.365,64.892 -37.95,65.636c-2.515,0.177 -53.077,-24.813 -41.56,-61.457c2.152,-3.664 4.784,-8.599 15.591,-10.239Z" style="fill:#9f6054;"/><path d="M569.516,395.143c0.184,0.439 0.26,0.918 0.444,1.357c1.187,2.823 -1.25,0.987 -4.188,1.462c-4.585,0.74 -18.74,6.859 -45.293,8.284c-65.497,3.514 -85.317,-2.425 -92.975,-1.71c-3.947,0.369 -2.561,24.03 -3.08,26.956c-0.747,4.207 -2.221,3.003 -2.958,3.42c-10.594,-1.401 -10.498,-1.579 -21.047,-3.024c3.302,-1.465 3.28,-2.08 3.269,-2.404c-0.403,-11.541 -0.7,-11.507 0.393,-23.01c0.367,-3.868 0.758,-5.086 -3.603,-5.77c-39.968,-6.272 -80.262,-23.071 -98.151,-35.858c-0.789,-0.564 -3.407,-0.796 -3.329,11.656c0.021,3.318 2.25,21.282 2.468,22.002c0.552,1.821 -1.069,2.273 -1.088,2.313c-7.814,-5.211 -12.119,-4.967 -13.967,-29.308c-1.107,-14.577 2.39,-28.992 3.09,-28.491c0.847,0.606 1.203,34.274 136.999,50.49c71.848,8.58 132.813,2.548 143.017,1.635Z" style="fill:#f6dfad;"/><path d="M300.377,400.816c0.019,-0.04 1.64,-0.492 1.088,-2.313c-0.218,-0.719 -2.447,-18.683 -2.468,-22.002c-0.078,-12.451 2.54,-12.22 3.329,-11.656c17.889,12.787 58.183,29.586 98.151,35.858c4.361,0.684 3.97,1.902 3.603,5.77c-1.093,11.504 -0.796,11.469 -0.393,23.01c0.011,0.324 0.033,0.939 -3.269,2.404c-65.29,-11.521 -79.803,-22.171 -100.041,-31.072Z" style="fill:#eac078;"/><path d="M504.644,671.223c-36.774,-22.189 -42.51,-52.575 -26.94,-59.237c11.957,-5.116 24.441,11.626 26.02,13.278c4.467,4.672 10.997,-4.882 15.124,-8.379c18.768,-15.904 33.588,2.705 21.465,24.506c-5.723,10.292 -27.722,32.954 -35.669,29.832Z" style="fill:#ec8e99;"/><path d="M757.895,268.285c-10.83,-16.838 -29.255,-13.803 -33.147,-17.11c-6.055,-5.145 11.779,-7.419 11.814,-7.428c34.48,-8.081 23.962,-40.568 30.797,-44.429c5.41,-3.057 6.326,8.841 9.517,20.081c8.204,28.899 30.308,20.913 37.414,26.404c7.107,5.491 -9.585,7.54 -15.86,9.48c-27.754,8.578 -20.562,39.702 -27.795,42.526c-7.272,2.839 -2.984,-11.652 -12.74,-29.523Z" style="fill:#d0ab8c;"/><path d="M347.863,173.639c1.898,-7.075 1.843,-7.025 3.221,-14.213c2.422,-12.63 7.308,-5.669 7.577,-4.995c7.111,17.833 -0.849,36.576 36.772,42.452c8.479,1.324 6.901,6.039 5.206,6.852c-14.823,7.11 -32.117,-3.154 -40.126,39.769c-1.522,8.154 -6.696,8.359 -8.036,4.006c-5.639,-18.331 -0.019,-34.953 -35.983,-41.979c-12.445,-2.431 -4.516,-7.1 -4.043,-7.23c20.717,-5.661 27.77,-1.197 35.411,-24.662Z" style="fill:#cc9ba2;"/><path d="M491.47,563.873c-0.726,-0.106 -7.434,-1.089 -8.828,-2.509c-0.796,-0.811 -0.549,-0.946 -3.134,-8.867c-4.82,-14.77 -3.338,-15.815 -7.892,-19.155c-4.624,-3.392 -2.955,-9.014 0.921,-10.764c7.775,-3.51 8.498,6.981 9.279,7.565c9.562,7.145 10.916,5.036 11.443,4.215c9.323,-14.522 8.92,-15.512 8.351,-16.909c-5.262,-12.925 7.071,-11.334 7.914,-11.009c7.195,2.772 2.493,11.83 2.518,12.124c0.044,0.521 8.345,15.051 8.799,15.708c1.615,2.333 5.69,-0.84 9.458,-3.08c2.623,-1.559 1.725,-2.767 2.284,-4.667c3.195,-10.859 18.961,0.207 9.678,6.616c-3.668,2.533 -2.565,3.395 -10.337,27.52c-0.73,2.266 -3.583,4.987 -40.454,3.211Z" style="fill:#9f6459;"/><path d="M537.657,738.982c11.99,1.76 6.622,9.917 4.728,11.367c-5.852,4.479 -6.982,21.679 -10.663,28.289c-1.594,2.862 -26.688,4.448 -44.956,1.436c-3.796,-1.537 -4.611,-1.996 -5.093,-3.627c-6.95,-23.522 -7.073,-23.64 -10.071,-26.068c-9.239,-7.482 7.469,-16.752 9.811,-5.855c1.018,4.739 2.327,3.859 6.345,6.556c5.723,3.842 5.858,0.183 9.272,-5.847c3.527,-6.23 6.186,-6.028 3.868,-12.856c-2.039,-6.006 4.007,-9.909 7.579,-8.768c9.653,3.082 2.846,10.735 3.96,12.927c0.662,1.302 7.423,14.598 9.155,15.79c0.636,0.438 0.753,0.192 8.741,-4.091c3.751,-2.011 -0.32,-6.13 7.324,-9.251Z" style="fill:#a0645a;"/><path d="M570.187,121.598c7.234,19.443 14.797,15.755 30.186,21.229c0.629,0.224 7.593,4.299 -3.962,7.346c-27.61,7.28 -23.897,14.861 -29.673,34.401c-1.122,3.796 -6.022,7.79 -8.285,-1.062c-6.26,-24.488 -6.436,-27.846 -30.989,-33.88c-5.925,-1.456 -6.845,-5.511 -0.938,-7.04c21.327,-5.52 25.472,-5.263 30.425,-27.995c0.355,-1.628 2.063,-14.804 6.675,-12.282c2.247,1.228 1.244,1.962 6.562,19.283Z" style="fill:#c08993;"/><path d="M452.657,291.406c-0.538,0.254 -0.619,1.107 -1.157,1.361c-1.323,0.625 -41.886,5.753 -61.124,11.32c-14.002,4.052 -14.368,2.771 -36.82,11.554c-14.455,5.655 -44.046,14.017 -44.522,32.812c-0.01,0.39 -0.119,4.718 -0.011,4.873c1.058,1.51 1.459,1.01 1.477,1.16c0.12,1.042 -1.303,0.349 -1.181,1.415c-0.914,-0.588 -7.829,-5.04 -10.467,-8.655c-3.377,-4.628 -2.542,-9.232 -4.056,-10.993c-0.416,-0.484 -1.85,-2.152 3.151,-7.328c31.562,-32.67 134.401,-43.675 146.599,-44.98c1.83,-0.196 2.192,-0.184 8.11,7.461Z" style="fill:#f6e0ae;"/><path d="M598.446,839.243c5.06,-1.485 28.582,-7.665 49.327,-19.253c19.152,-10.697 22.188,-15.711 22.971,-16.092c2.791,-1.357 -0.336,14.806 -0.522,15.531c-0.46,1.791 -0.726,1.586 -1.245,3.275c-7.488,24.357 -60.745,45.274 -108.408,51.161c0.484,-0.406 0.447,-1.244 0.93,-1.65c0.342,-0.287 6.679,-1.745 12.761,-5.11c16.104,-8.909 27.977,-25.96 25.205,-28.103c-0.276,-0.214 -0.744,0.454 -1.02,0.241Z" style="fill:#dba46c;"/><path d="M185.82,431.391c-9.072,-23.506 -22.66,-15.428 -30.067,-20.304c-6.24,-4.107 9.267,-7.452 11.87,-8.185c20.735,-5.838 19.719,-24.83 23.207,-35.286c1.735,-5.201 5.996,-3.054 7.181,5.911c4.345,32.891 24.125,27.74 33.551,31.853c0.289,0.126 5.803,4.356 -6.059,7.128c-34.219,7.997 -23.002,30.141 -28.337,37.77c-5.211,7.451 -6.004,-1.374 -11.345,-18.887Z" style="fill:#cca484;"/><path d="M541.542,230.126c2.218,-0.001 18.719,-0.012 23.094,15.34c9.801,34.391 -35.891,63.9 -51.392,73.621c-7.599,4.766 -8.351,2.444 -15.785,-2.506c0.907,-0.975 0.139,-1.655 2.979,-3.202c11.795,-6.422 37.425,-28.166 44.667,-44.067c10.519,-23.095 -0.964,-34.705 -3.564,-39.185Z" style="fill:#df7e8b;"/><path d="M844.176,476.579c9.007,27.101 29.819,12.698 27.698,23.019c-1.222,5.944 -19.027,-1.306 -26.44,19.878c-2.175,6.216 -3.558,20.427 -8.88,13.985c-5.036,-6.096 0.866,-24.019 -22.134,-29.641c-0.713,-0.174 -17.875,-4.369 -3.912,-8.295c23.089,-6.492 19.559,-11.986 24.337,-27.908c1.96,-6.533 6.169,-5.701 7.359,-0.058c0.152,0.723 1.088,5.16 1.973,9.021Z" style="fill:#b9888f;"/><path d="M546.215,307.159c0.624,0.316 0.66,1.345 1.285,1.661c1.678,0.851 1.693,-4.867 8.02,-3.456c8.644,1.928 30.752,3.363 24.953,17.123c-4.505,10.689 -64.168,17.545 -85.8,9.551c-9.184,-3.394 -14.357,-4.861 -13.768,-10.443c0.218,-2.066 0.969,-1.471 2.835,-2.405c8.322,5.52 8.275,5.506 8.993,5.94c16.515,9.975 20.834,7.471 53.483,-17.971Z" style="fill:#daa568;"/><path d="M155.056,472.459c-0.968,6.772 -5.904,26.266 -13.565,26.655c-18.06,0.917 -44.292,-29.576 -22.982,-34.565c7.981,-1.868 10.554,6.234 15.582,-1.32c6.869,-10.318 21.337,-10.846 20.965,9.229Z" style="fill:#bd848f;"/><path d="M168.396,322.119c-25.765,9.003 -12.345,24.976 -20.876,27.446c-7.861,2.276 -0.295,-21.269 -21.968,-27.266c-0.704,-0.195 -8.055,-2.229 -8.336,-3.741c-1.19,-6.422 17.355,-0.968 23.442,-18.999c1.217,-3.604 4.235,-24.443 9.009,-9.113c5.427,17.427 6.454,18.098 20.681,23.496c0.551,0.209 6.323,2.4 6.517,3.45c0.247,1.339 -1.149,2.073 -1.329,2.168c-2.096,1.102 -2.101,0.9 -7.14,2.559Z" style="fill:#ba8690;"/><path d="M803.591,634.152c-7.714,-2.503 -8.716,-1.573 -10.797,-3.05c-6.651,-4.721 10.516,-8.094 11.716,-8.578c15.627,-6.29 9.036,-26.497 15.998,-26.618c2.3,-0.04 4.025,6.872 4.192,7.542c7.571,30.339 24.59,16.268 26.038,24.001c0.659,3.52 -9.298,5.609 -10.283,5.941c-19.993,6.724 -12.518,26.462 -18.912,27.376c-7.389,1.057 -2.331,-22.282 -17.952,-26.614Z" style="fill:#c9a586;"/><path d="M743.171,600.653c-0.805,-2.073 -12.104,-28.287 2.267,-33.336c10.298,-3.618 13.437,11.544 16.958,9.905c21.246,-9.89 22.864,13.276 6.13,23.319c-16.967,10.183 -19.987,9.057 -25.355,0.112Z" style="fill:#be878f;"/><path d="M194.174,589.598c-0.686,-2.411 -2.188,-11.799 -8.834,-15.84c-4.132,-2.512 -11.22,-3.546 -12.522,-4.631c-5.963,-4.971 8.917,-6.259 12.54,-8.843c7.251,-5.172 8.424,-15.079 8.964,-16.841c4.665,-15.22 8.511,1.772 8.999,3.118c6.454,17.798 12.694,11.75 20.001,17.198c4.224,3.15 2.097,4.998 -2.916,6.433c-26.058,7.458 -12.667,26.053 -21.911,25.379c-4.188,-0.305 -2.827,-2.078 -4.32,-5.974Z" style="fill:#c7989d;"/><path d="M688.142,624.475c-3.27,35.536 -3.11,38.503 -5.417,36.644c-18.624,-15.008 -30.346,-43.095 -18.11,-54.48c8.988,-8.363 17.191,4.438 23.441,12.182c0.674,0.835 0.327,0.94 0.086,5.654Z" style="fill:#e4808c;"/><path d="M798.086,249.118c-33.271,10.114 -23.859,36.656 -29.209,31.089c-0.081,-0.085 -1.452,-9.28 -5.968,-15.964c-11.607,-17.178 -28.057,-13.546 -19.214,-16.316c30.208,-9.462 21.641,-37.29 26.58,-32.235c1.209,1.237 -0.995,23.882 25.266,31.701c1.617,0.481 1.755,0.272 2.545,1.724Z" style="fill:#edcc97;"/><path d="M325.852,622.469c-0.002,-0.083 -0.647,-2.996 0.88,-4.793c7.162,-8.428 7.919,-9.698 10.654,-11.373c18.748,-11.483 28.055,26.888 -6.152,54.745c-2.416,1.968 -1.733,-1.32 -5.382,-38.579Z" style="fill:#e98e98;"/><path d="M217.481,220.913c1.931,0.29 12.308,1.846 9.193,22.612c-1.058,7.052 -5.307,19.484 -14.083,16.644c-29.027,-9.395 -28.781,-28.552 -18.095,-31.681c4.013,-1.175 10.15,4.734 12.697,0.784c3.885,-6.027 3.207,-7.659 10.288,-8.359Z" style="fill:#b8808a;"/><path d="M354.085,227.601c-2.42,-7.124 -2.337,-7.103 -2.816,-7.982c-8.709,-15.956 -23.332,-16.608 -23.241,-18.176c0.047,-0.81 0.416,-0.539 4.507,-1.859c23.126,-7.458 21.292,-30.828 23.071,-31.838c1.348,-0.766 0.88,0.542 1.76,5.765c4.099,24.335 25.812,26.026 26.718,27.334c2.282,3.295 -15.041,-0.718 -24.734,22.609c-1.273,3.065 -2.753,15.234 -5.264,4.147Z" style="fill:#f0b2ba;"/><path d="M411.835,456.863c18.93,-8.365 25.102,14.984 3.362,29.167c-7.594,4.954 -8.972,5.465 -15.666,-0.566c-23.162,-20.866 -7.417,-41.348 6.59,-27.593c2.477,2.432 2.886,0.958 5.715,-1.007Z" style="fill:#a16557;"/><path d="M600.221,455.948c4.658,2.198 5.062,4.751 8.323,1.6c13.034,-12.594 30.935,6.478 4.754,29.693c-3.777,3.349 -5.601,4.831 -15.503,-2.214c-17.384,-12.369 -11.121,-24.386 -10.077,-26.39c5.322,-4.36 5.808,-4.416 12.503,-2.69Z" style="fill:#a26556;"/><path d="M520.718,542.098c0.899,-0.258 1.729,0.381 8.621,-3.848c1.956,-1.2 2.088,-2.703 3.573,-1.047c0.718,0.8 -5.429,19.23 -5.846,19.997c-0.787,1.448 -25.499,1.717 -37.591,0.616c-1.757,-0.16 -3.286,-0.299 -8.593,-20.31c-0.105,-0.397 0.408,-1.292 4.886,1.557c11.568,7.36 11.83,-0.48 20.023,-15.406c2.915,-5.311 6.914,13.808 14.927,18.441Z" style="fill:#e8bc7d;"/><path d="M648.79,604.586c1.162,-2.558 12.783,-28.13 34.452,-6.795c7.3,7.187 6.559,8.487 6.372,12.738c-0.132,3.011 -1.548,0.609 -3.409,-1.803c-21.164,-27.424 -49.07,9.929 -15.232,47.354c9.185,10.158 14.04,8.219 12.559,16.432c-0.607,3.364 -14.421,-9.935 -17.488,-13.59c-21.583,-25.709 -20.777,-41.402 -17.253,-54.336Z" style="fill:#dca674;"/><path d="M324.905,612.194c-0.474,-2.917 -2.513,-5.895 6.888,-15.382c23.001,-23.214 56.615,14.318 17.612,60.605c-6.685,7.934 -18.314,18.405 -18.827,15.054c-1.372,-8.952 4.643,-6.255 15.371,-19.603c2.403,-2.991 21.709,-27.013 9.111,-47.084c-6.086,-9.696 -20.526,-8.153 -28.212,5.09c-0.659,1.136 -0.622,1.241 -1.942,1.322Z" style="fill:#eec48d;"/><path d="M564.375,121.519c5.571,26.233 24.158,20.601 21.804,24.84c-1.346,2.425 -14.695,1.863 -21.517,22.196c-3.353,9.994 -3.019,-7.555 -14.601,-16.597c-2.935,-2.292 -13.598,-5.732 -8.699,-7.753c24.115,-9.947 17.552,-27.885 22.127,-25.69c0.349,0.168 0.839,2.758 0.886,3.004Z" style="fill:#f5acb7;"/><path d="M307.633,426.517c13.594,5.848 8.931,10.645 11.574,12.361c0.557,0.361 0.586,0.035 8.291,-0.366c0,-0 1.688,-0.474 1.835,-0.515c7.781,2.38 7.831,2.067 15.081,5.738c13.527,9.792 38.526,16.338 47.98,51.784c0.605,2.268 1.093,1.927 2.06,3.998c0.798,1.709 0.175,1.694 -1.185,3.093c-2.504,-4.924 -18.497,-36.368 -47.993,-49.64c-21.991,-9.895 -31.721,-7.888 -32.757,-7.941c-3.757,-0.192 -3.482,-1.663 -4.885,-18.509Z" style="fill:#f7deab;"/><path d="M770.069,484.422c-0.112,0.644 -1.55,8.929 -5.526,6.011c-4.807,-3.529 -1.081,-14.084 -13.971,-19.097c-0.211,-0.082 -7.38,-2.156 -7.192,-4.846c0.422,-6.048 13.191,1.151 18.108,-16.993c1.609,-5.939 0.868,-6.649 2.918,-7.269c9.159,-2.771 -1.993,14.609 18.009,20.527c14.697,4.348 -2.29,7.831 -6.771,10.966c-5.189,3.63 -4.258,4.448 -5.576,10.701Z" style="fill:#cca68b;"/><path d="M465.838,171.605c-0.758,3.328 -2.77,15.72 -7.347,10.904c-3.873,-4.076 0.477,-13.204 -13.096,-18.747c-0.371,-0.151 -7.74,-2.109 -6.8,-5.225c0.946,-3.134 14.65,-2.554 16.57,-16.085c1.706,-12.02 6.568,-6.286 6.965,-5.686c3.57,5.388 0.993,13.569 11.372,16.729c18.591,5.659 -1.343,9.175 -5.015,12.994c-1.476,1.534 -1.155,1.669 -2.648,5.117Z" style="fill:#d3ae8e;"/><path d="M192.194,385.459c2.191,-9.243 2.742,2.53 5.731,7.795c6.227,10.971 15.019,13.353 16.665,14.143c1.651,0.792 -1.952,2.734 -2.207,2.871c-19.282,10.395 -16.498,25.95 -18.063,26.824c-1.559,0.87 -1.922,-5.566 -1.922,-5.569c-4.215,-17.9 -20.148,-21.441 -20.239,-22.959c-0.304,-5.112 14.541,-0.107 20.035,-23.106Z" style="fill:#f2cd98;"/><path d="M860.46,334.907c20.192,3.921 -13.474,33.518 -21.649,22.357c-8.87,-12.11 -7.332,-34.284 5.663,-29.691c5.663,2.002 3.371,8.526 11.013,7.746c2.501,-0.255 2.44,-0.203 4.973,-0.413Z" style="fill:#d6a5ab;"/><path d="M517.88,757.344c-10.803,10.087 -14.178,12.25 -22.393,17.815c-4.827,-0.207 -7.716,1.047 -9.126,-3.615c-4.779,-15.797 -5.277,-15.624 -5.539,-17.033c-0.446,-2.391 1.227,-0.341 8.798,3.783c6.294,3.428 8.994,-2.721 16.8,-18.87c1.225,-2.535 4.09,5.867 11.462,17.92Z" style="fill:#edc484;"/><path d="M145.562,463.41c1.446,1.28 7.352,6.508 -1.003,24.114c-2.37,4.994 -2.917,7.613 -9.158,4.178c-24.224,-13.33 -19.912,-23.432 -12.889,-22.311c6.681,1.067 11.089,8.542 13.631,2.916c2.185,-4.836 3.262,-10.457 9.418,-8.898Z" style="fill:#e996a7;"/><path d="M844.648,490.383c4.858,5.145 5.019,5.055 11.763,7.287c6.005,1.987 -8.147,2.068 -13.749,12.927c-1.702,3.3 -3.542,10.751 -4.78,7.683c-1.743,-4.321 -2.216,-10.856 -15.106,-18.212c-5.57,-3.179 9.541,-4.319 12.927,-14.472c1.741,-5.222 1.167,-6.074 2.796,-6.06c0.954,0.008 1.688,1.87 1.768,2.073c1.835,4.655 1.732,4.612 4.382,8.775Z" style="fill:#f2b3b9;"/><path d="M129.367,561.627c3.455,3.202 15.676,5.389 8.153,8.908c-16.179,7.567 -9.153,14.618 -14.051,16.911c-4.798,2.246 -2.353,-9.858 -11.162,-14.556c-2.602,-1.387 -10.005,-3.931 -3.575,-6.938c7.644,-3.575 7.304,-4.359 10.195,-12.296c1.346,-3.695 4.968,-6.438 6.888,0.732c1.061,3.961 0.832,4.099 3.552,7.239Z" style="fill:#e4c79b;"/><path d="M697.418,514.805c0.298,0.242 0.595,0.484 0.893,0.726c-1.924,10.829 -1.574,34.38 -4.776,35.097c-0.105,0.024 -15.293,1.579 -16.625,0.44c-1.415,-1.209 -0.68,-1.619 -5.758,-20.553c-1.903,-7.094 11.043,10.429 15.903,1.765c9.008,-16.06 8.619,-16.428 10.364,-17.475Z" style="fill:#dba671;"/><path d="M689.297,173.379c-3.492,5.422 -4.775,14.14 -9.252,6.38c-3.996,-6.925 -2.84,-8.489 -11.403,-12.573c-7.755,-3.699 6.779,-4.026 9.593,-11.767c5.452,-14.997 8.426,0.639 12.357,3.973c2.673,2.267 14.371,3.144 3.661,9.657c-2.913,1.771 -3.091,1.535 -4.957,4.33Z" style="fill:#e7cea4;"/><path d="M198.517,234.395c8.264,2.278 10.757,6.512 12.689,0.022c0.153,-0.513 1.811,-9.6 6.231,-8.704c8.031,1.628 2.253,30.515 -2.939,29.839c-7.355,-0.957 -31.786,-19.386 -18.012,-21.231c0.161,-0.022 0.15,0.006 2.03,0.075Z" style="fill:#e497a7;"/><path d="M679.427,717.549c0.019,0.268 -2.477,33.596 -3.961,34.914c-0.311,0.276 -15.927,1.335 -16.544,0.684c-0.935,-0.987 0.454,-1.445 -3.451,-16.639c-0.118,-0.458 -1.394,-5.422 -0.83,-5.851c3.159,-2.401 8.308,12.628 15.526,1.629c8.155,-12.428 6.521,-13.947 9.261,-14.737Z" style="fill:#dca770;"/><path d="M342.31,673.181c1.97,6.323 3.721,48.709 8.307,56.509c-0.404,-0.008 -0.729,0.442 -1.133,0.434c-1.304,-0.026 -1.795,-0.036 -8.823,-13.703c-2.115,-4.112 0.199,-4.35 -0.253,-8.912c-0.52,-5.252 -5.781,-5.412 -6.129,-5.626c-1.266,-0.779 -1.295,-1.058 -2.645,-18.394c-0.308,-3.955 1.436,-3.175 10.676,-10.309Z" style="fill:#fbd3d3;"/><path d="M350.675,735.908c8.145,-5.051 8.05,-5.648 8.772,-5.262c1.355,0.725 -2.293,11.183 -3.505,19.903c-0.581,4.177 -2.441,2.844 -5.442,2.692c-6.469,-0.326 -12.504,0.684 -12.867,-2.754c-0.261,-2.476 -3.095,-29.321 -3.079,-30.974c0.043,-4.394 3.082,3.302 5.546,7.242c6.237,9.973 7.134,10.265 10.575,9.153Z" style="fill:#f2d3a0;"/><path d="M597.163,476.785c-0.713,-0.824 -6.674,-7.717 -5.827,-12.317c1.765,-9.587 14.202,2.924 15.168,2.983c1.677,0.103 11.642,-14.074 14.007,-4.954c1.889,7.282 -8.234,17.102 -9.493,18.657c-4.136,5.108 -7.936,0.965 -13.855,-4.369Z" style="fill:#e7979e;"/><path d="M417.594,460.835c9.17,-0.415 5.935,10.699 -1.545,17.253c-6.592,5.776 -9.076,6.906 -12.347,3.24c-10.015,-11.223 -9.832,-13.868 -10.318,-17.828c-0.111,-0.901 1.797,-10.225 11.182,1.953c4.318,5.603 4.703,-1.169 13.028,-4.619Z" style="fill:#e699a0;"/><path d="M754.188,581.591c5.005,11.419 10.405,-2.958 17.284,-0.022c8.166,3.486 -14.3,22.8 -19.878,18.812c-9.076,-6.489 -8.689,-34.393 -0.289,-25.702c1.305,1.35 0.918,1.484 2.884,6.911Z" style="fill:#eb98a7;"/><path d="M332.537,557.251c-0.082,2.348 -0.361,3.684 2.165,27.249c0.203,1.892 0.727,1.656 1.024,2.332c-0.069,0.044 -4.892,2.693 -8.866,6.966c-2.115,2.275 -3.355,4.872 -3.64,1.805c-0.275,-2.965 -2.726,-29.399 -3.015,-37.104c-0.085,-2.263 1.118,-2.114 12.331,-1.247Z" style="fill:#fad2d3;"/><path d="M153.662,311.343c6.658,5.85 11.472,5.853 7.647,7.832c-7.55,3.907 -9.374,3.21 -13.628,15.459c-2.371,6.825 0.627,-5.796 -10.394,-12.76c-0.456,-0.288 -7.943,-3.369 -3.572,-5.9c12.611,-7.303 8.672,-10.628 11.83,-15.438c1.319,-2.009 2.513,0.888 2.599,1.097c2.22,5.385 2.286,5.315 5.518,9.711Z" style="fill:#f4acb8;"/><path d="M517.88,757.344c7.905,5.754 17.765,-9.57 15.148,-1.952c-5.923,17.246 -5.029,17.585 -5.96,18.865c-1.497,2.056 -29.056,1 -31.581,0.903c8.216,-5.565 11.59,-7.729 22.393,-17.815Z" style="fill:#dba76f;"/><path d="M354.78,813.194c0.016,0.392 -2.099,6.875 11.769,27.277c2.534,3.728 6.938,6.404 6.369,7.029c-0.421,0.462 -1.067,0.68 -1.488,1.142c-22.754,-15.05 -27.546,-18.635 -29.27,-43.179c-0.31,-4.414 2.106,0.009 12.619,7.731Z" style="fill:#f8e0b2;"/><path d="M819.775,644.464c-1.403,-7.357 -3.062,-8.838 -10.574,-13.522c-6.105,-3.807 -0.079,-4.98 1.188,-5.637c8.683,-4.502 7.746,-12.593 10.117,-12.704c1.716,-0.08 1.185,0.737 3.168,4.788c5.122,10.46 16.578,10.03 10.714,12.869c-15.57,7.536 -8.116,14.331 -12.882,17.254c-1.817,1.114 -1.153,-0.564 -1.732,-3.05Z" style="fill:#f6d2a7;"/><path d="M406.314,851.852c-0.3,-0.268 -2.883,-2.571 -2.234,-4.501c1.417,-4.216 12.559,0.646 12.597,0.658c20.332,6.538 41.339,4.772 38.051,12.618c-1.976,4.714 -36.738,-2.722 -48.413,-8.775Z" style="fill:#f7e1ac;"/><path d="M352.486,771.497c0.243,0.109 0.514,-0.362 0.756,-0.254c2.057,0.919 0.419,3.631 24.17,14.445c6.521,2.969 23.074,7.234 25.11,7.759c1.419,0.366 1.136,0.652 3.007,3.112c-0.307,0.158 -2.914,1.5 -4.048,1.485c-20.947,-0.269 -37.554,-10.735 -48.992,-18.515c1.817,-3.779 0.542,-3.867 -0.004,-8.032Z" style="fill:#e2959f;"/><path d="M195.612,576.422c-3.886,-6.187 -4.64,-5.468 -10.776,-8.217c-4.067,-1.822 5.811,-2.691 8.671,-7.701c5.74,-10.055 1.831,-13.421 2.952,-15.015c2.961,-4.21 1.456,5.992 2.484,8.6c4.29,10.883 16.102,11.48 11.214,13.94c-11.089,5.579 -9.45,12.428 -11.658,12.468c-0.919,0.017 -0.716,-0.377 -2.888,-4.075Z" style="fill:#ddabb1;"/><path d="M458.321,248.446c6.152,-14.183 16.655,-10.939 18.348,-7.021c2,4.629 -4.947,19.757 -14.116,18.742c-6.302,-0.698 -4.416,-10.74 -4.232,-11.72Z" style="fill:#fbcbd1;"/><path d="M330.465,534.612c-3.928,3.414 -1.901,4.291 -2.011,9.886c-0.078,3.946 -0.699,4.295 2.044,7.09c-7.517,-0.639 -11.1,0.123 -11.516,-4.125c-3.023,-30.879 -3.625,-33.446 -1.397,-32.155c1.503,0.871 6.613,15.934 12.88,19.303Z" style="fill:#f6ddb2;"/><path d="M330.465,534.612c7.465,-0.293 8.65,-5.578 12.09,-5.178c1.472,0.171 0.269,1.041 -3.759,18.143c-1.236,5.249 -2.882,4.077 -8.297,4.011c-2.743,-2.795 -2.122,-3.144 -2.044,-7.09c0.11,-5.596 -1.917,-6.473 2.011,-9.886Z" style="fill:#eabd81;"/><path d="M452.447,161.602c-1.797,-1.646 -3.004,-1.536 -1.941,-3.098c0.073,-0.107 0.005,-0.03 2.735,-2.351c6.879,-5.849 4.211,-7.513 5.532,-9.519c1.873,-2.844 1.306,0.739 2.904,3.795c2.476,4.736 7.25,7.324 7.906,8.012c0.98,1.028 -2.533,3.244 -2.834,3.434c-7.334,4.626 -4.175,13.687 -6.855,11.214c-2.46,-2.27 1.137,-4.919 -7.446,-11.487Z" style="fill:#f1c694;"/><path d="M351.581,759.136c0.15,4.675 0.808,11.374 0.904,12.361c0.546,4.165 1.821,4.253 0.004,8.032c-12.892,-9.371 -13.639,-17.164 -13.819,-19.037c-0.315,-3.287 5.306,-1.751 12.911,-1.356Z" style="fill:#fbd2d3;"/><path d="M619.435,201.802c-10.501,-4.858 -5.017,-12.102 -2.601,-13.866c9.82,-7.172 21.667,13.072 2.601,13.866Z" style="fill:#dfbc91;"/><path d="M760.373,470.636c-3.867,-3.882 -5.068,-3.997 -3.804,-5.054c3.04,-2.541 3.268,-2.212 3.509,-2.456c2.044,-2.063 4.704,-7.18 4.714,-7.187c2.981,-2.046 0.51,3.232 8.405,8.948c4.468,3.235 -3.492,3.061 -5.808,10.569c-1.804,5.847 -2.905,-0.335 -7.016,-4.82Z" style="fill:#f0c28c;"/><path d="M155.553,628.007c-9.933,-3.149 -4.181,-13.014 -1.055,-14.51c8.929,-4.274 19.151,13.221 1.055,14.51Z" style="fill:#e0be8f;"/><path d="M475.781,624.58c0.241,-0.475 1.512,-5.246 6.814,-6.68c4.696,-1.27 6.003,1.987 6.202,2.483c5.039,12.563 -16.787,21.387 -13.015,4.197Z" style="fill:#fac4c9;"/><path d="M874.04,425.452c-5.007,17.013 -22.185,-0.329 -11.472,-6.831c3.148,-1.911 5.41,-1.064 5.854,-0.898c6.801,2.546 5.558,6.777 5.618,7.729Z" style="fill:#debf94;"/><path d="M813.235,400.459c-2.438,14.113 -18.191,4.603 -13.697,-1.936c9.132,-13.286 13.77,-1.041 13.697,1.936Z" style="fill:#e9b8bf;"/><path d="M215.663,324.304c-0.454,-0.448 -3.56,-3.517 -1.949,-7.727c4.594,-12.007 21.494,1.787 10.681,8.722c-4.098,2.628 -4.388,1.102 -8.732,-0.995Z" style="fill:#deb890;"/><path d="M861.71,569.634c-8.859,11.795 -16.301,-3.048 -11.903,-6.773c7.099,-6.013 15.565,-1.415 11.903,6.773Z" style="fill:#d9b8b8;"/><path d="M659.895,229.499c1.505,-8.949 8.303,-6.741 10.444,-4.807c8.888,8.032 -8.092,18.475 -10.444,4.807Z" style="fill:#ecc5c6;"/><path d="M805.847,548.497c-2.156,14.984 -18.78,0.985 -10.951,-4.534c9.063,-6.389 10.789,3.6 10.951,4.534Z" style="fill:#debb94;"/><path d="M173.729,509.376c-0.696,-1.994 -1.045,-1.964 -0.536,-3.968c3,-11.799 19.074,-0.45 9.231,5.969c-5.308,3.462 -6.282,0.687 -8.695,-2.001Z" style="fill:#eec1c4;"/><path d="M236.389,635.91c10.108,6.164 -6.612,17.208 -8.882,6.588c-0.328,-1.536 0.558,-4.813 1.383,-5.562c3.063,-2.782 3.481,-1.613 7.499,-1.026Z" style="fill:#e8b7be;"/><path d="M511.535,173.87c7.025,0.696 9.721,3.452 4.416,8.112c-7.882,6.924 -14.709,-5.901 -4.416,-8.112Z" style="fill:#f1c4c9;"/><path d="M792.267,530.477c-3.97,10.567 -16.178,-5.224 -5.813,-7.232c2.933,-0.568 6.643,2.618 6.18,5.28c-0.027,0.157 -0.027,0.145 -0.367,1.953Z" style="fill:#eec4c9;"/><path d="M470.903,272.456c0.766,10.019 -11.009,3.733 -7.003,-2.692c0.166,-0.267 1.241,-1.99 3.648,-1.462c2.091,0.459 3.217,3.75 3.355,4.154Z" style="fill:#fdd1d6;"/><path d="M483.801,859.009c7.855,7.691 -7.489,9.027 -7.062,3.504c0.507,-6.556 6.49,-3.77 7.062,-3.504Z" style="fill:#f6dea6;"/><path d="M133.981,424.574c1.741,-2.973 1.959,-5.832 6.535,-3.099c5.422,3.238 -4.856,13.788 -6.535,3.099Z" style="fill:#ebcccd;"/><path d="M266.638,236.711c0.347,-0.123 4.445,-1.576 4.229,1.808c-0.025,0.385 -1.344,4.651 -1.529,4.869c-0.84,0.99 -8.622,-0.314 -2.7,-6.677Z" style="fill:#eacbcf;"/><path d="M212.509,610.172c-0.461,-0.177 -3.899,-1.494 -2.7,-5.552c1.387,-4.695 11.689,3.016 2.7,5.552Z" style="fill:#ebcece;"/><path d="M811.517,456.084c-8.609,-2.796 1.065,-9.885 2.882,-5.527c1.781,4.271 -2.4,5.398 -2.882,5.527Z" style="fill:#e9ccce;"/><path d="M676.779,817.487c-1.057,6.197 -3.486,12.235 -4.439,9.078c-0.486,-1.608 2.011,-5.405 2.332,-7.873c0.204,-1.57 -0.088,-1.667 0.668,-2.381c1.489,-1.406 1.382,1.076 1.439,1.175Z" style="fill:#aa726b;"/><path d="M300.518,225.12c-0.371,-0.144 -4.319,-1.675 -2.538,-4.283c1.779,-2.606 9.727,2.428 2.538,4.283Z" style="fill:#e7d0d2;"/><path d="M502.484,251.513c3.782,-1.327 5.52,-0.147 7.227,2.282c-4.443,3.037 -6.211,-0.612 -7.227,-2.282Z" style="fill:#b97575;"/><path d="M359.75,513.997c-0.131,0.014 -1.642,0.175 -1.642,0.175l-0.832,-0.813c1.332,-0.142 1.134,0.78 2.473,0.637Z" style="fill:#f1b5b7;"/><path d="M490.851,602.373c0.207,1.15 1.554,1.566 0.313,1.738c-1.184,0.164 -0.109,-0.603 -0.313,-1.738Z" style="fill:#efc888;"/></g></svg>