<?xml version="1.0" encoding="UTF-8" standalone="no"?><!DOCTYPE svg PUBLIC "-//W3C//DTD SVG 1.1//EN" "http://www.w3.org/Graphics/SVG/1.1/DTD/svg11.dtd"><svg width="100%" height="100%" viewBox="0 0 2048 2048" version="1.1" xmlns="http://www.w3.org/2000/svg" xmlns:xlink="http://www.w3.org/1999/xlink" xml:space="preserve" xmlns:serif="http://www.serif.com/" style="fill-rule:evenodd;clip-rule:evenodd;stroke-linejoin:round;stroke-miterlimit:2;"><g id="Background"><path d="M477.86,320.892c17.063,-20.728 43.513,-23.354 48.892,-24.753c7.221,-1.878 -10.942,-24.877 -5.365,-72.94c5.05,-43.517 61.359,-23.415 98.722,-0.397c9.396,5.789 11.081,-22.245 40.718,-33.703c6.31,-2.439 30.127,-11.648 50.593,66.721c8.177,31.313 20.882,16.199 51.476,4.194c125.445,-49.224 170.232,-59.539 229.665,-60.784c122.825,-2.573 189.308,46.12 194.127,48.773c9.137,5.03 32.69,-1.216 60.963,15.956c79.845,48.493 37.222,128.342 -15.431,257.16c-9.254,22.64 -14.376,22.288 -9.584,46.463c3.935,19.849 -2.464,44.691 -26.713,54.621c-16.392,6.712 -14.677,9.226 -21.087,25.457c-5.99,15.165 -9.415,16.416 2.395,39.227c40.604,78.426 34.927,81.191 40.208,86.789c0.277,0.293 61.298,17.463 66.633,18.964c5.734,1.613 2.213,-10.112 10.374,-17.892c25.306,-24.124 13.591,-29.537 11.103,-29.076c-40.964,7.574 -48.251,-53.065 2.551,-57.532c5.255,-0.462 3.086,-2.683 1.758,-7.801c-0.904,-3.485 -7.081,-27.291 -4.728,-44.705c6.558,-48.548 22.75,4.786 24.34,4.893c4.292,0.291 1.844,-2.175 1.156,-14.148c-2.396,-41.712 30.805,-104.129 44.681,-111.695c12.899,-7.033 9.458,22.224 9.559,22.398c5.517,9.539 2.215,-18.576 21.832,-53.295c16.235,-28.733 104.74,-95.619 104.867,-95.695c40.866,-24.726 19.281,13.927 17.948,25.06c-1.973,16.482 5.83,-3.738 6.041,-4.285c24.764,-64.172 150.769,-99.159 248.052,-71.325c3.068,0.878 51.201,11.523 27.642,27.514c-24.827,16.851 -24.912,20.03 -55.601,81.234c-46.556,92.848 -119.458,84.343 -131.634,91.732c-11.5,6.979 40.821,-0.128 44.755,-0.238c22.251,-0.623 3.327,21.236 -22.314,40.718c-39.27,29.836 -42.838,52.815 -77.255,76.944c-45.595,31.965 -98.588,30.685 -99.024,31.618c-4.577,9.783 59.64,-1.847 39.941,20.444c-29.404,33.272 -86.594,36.94 -94.75,37.463c-7.106,0.456 -4.229,3.649 -1.724,10.064c7.66,19.612 -8.042,44.758 -29.22,44.72c-28.513,-0.052 -25.283,-23.861 -26.819,-24.764c-1.878,-1.104 -14.612,12.186 -15.754,13.377c-4.688,4.893 -1.592,11.84 -7.8,18.278c-3.598,3.732 1.035,4.508 60.325,24.919c23.38,8.302 28.777,10.535 31.238,11.553c3.45,1.274 34.477,12.735 42.946,16.388c75.469,32.554 112.46,37.341 107.765,97.279c-3.05,38.949 -19.303,44.404 -22.161,46.908c-3.742,3.278 -2.716,3.971 -8.511,60.94c-11.199,110.082 -10.482,110.26 -6.868,131.259c2.09,12.143 8.371,69.944 -9.85,138.423c-14.495,54.471 -22.78,66.902 -26.26,77.39c-4.249,12.807 -16.607,130.521 -16.545,131.054c1.235,10.613 7.856,9.433 6.456,28.011c-0.552,7.33 -3.487,46.303 -9.787,91.37c-9.902,70.832 -21.1,86.948 -191.449,133.935c-10.048,2.894 -76.857,22.138 -126.919,31.418c-234.096,43.397 -257.97,50.066 -389.728,-16.829c-8.696,-4.19 -60.892,-29.338 -105.395,-58.506c-89.984,-58.977 -93.499,-68.887 -99.188,-115.905c-11.305,-93.425 -6.719,-94.118 -1.477,-101.462c3.157,-4.422 1.407,-4.833 -5.656,-67.254c-9.469,-83.685 -21.88,-81.146 -35.876,-164.066c-18.483,-109.51 -4.135,-150.251 2.257,-173.229c2.168,-7.793 3.679,-13.223 -5.498,-100.832c-2.963,-28.291 1.684,-30.834 -11.245,-42.516c-15.273,-13.801 -17.206,-59.014 -6.393,-76.399c6.544,-10.521 -4.524,-6.045 -17.255,-13.323c-53.338,-30.493 -36.967,-80.871 -40.525,-90.638c-42.597,-116.936 -3.374,-215.383 1.036,-229.67c12.246,-32.925 20.095,-45.877 26.576,-58.577c51.231,-88.678 58.339,-83.962 74.034,-110.168c12.728,-21.252 -105.047,-40.822 -72.235,-87.222Z" style="fill:#81473d;"/><path d="M1415.549,1075.734c15.646,3.189 15.621,2.653 30.641,8.303c43.604,22.395 62.975,44.345 75.986,104.829c10.921,88.524 -3.22,154.611 -58.408,264.905c-0.929,-0.372 -1.96,-0.461 -2.889,-0.833c-5.295,-2.121 -4.862,0.366 -8.191,4.732c-22.324,29.27 -22.764,28.939 -24.398,31.681c-1.039,1.743 -3.208,5.383 -14.051,21.136c-52.566,76.363 -133.945,152.221 -156.451,177.386c-22.499,25.158 -28.021,10.531 -59.365,-2.912c-20.636,-8.851 -86.266,-48.512 -105.318,-62.907c-81.759,-61.778 -117.843,-115.153 -125.823,-126.957c-4.386,-6.436 -4.363,-6.391 -4.736,-6.95c-3.298,-4.937 -25.161,-45.945 -27.078,-51.02l-1.76,-2.343l-4.296,2.715c-18.656,-60.624 -26.615,-122.377 1.744,-204.005c8.604,-24.766 24.059,-44.49 26.777,-47.958c3.066,-4.028 70.903,-111.237 213.905,-57.898c60.54,26.787 57.147,50.485 73.84,37.446c13.342,-10.421 19.923,-46.658 100.502,-79.495c28.044,-11.429 63.767,-10.067 69.371,-9.853Z" style="fill:#f2cd8b;"/><path d="M1334.357,1125.683c106.97,-45.324 202.715,34.582 145.472,224.677c-33.638,102.554 -86.339,184.725 -178.095,282.09c-17.058,19.252 -40.655,39.917 -44.386,43.184c-20.491,17.945 -27.044,18.973 -70.849,-7.077c-82.605,-49.124 -93.701,-64.012 -115.186,-81.349c-56.351,-50.754 -94.603,-114.533 -109.085,-161.985c-64.347,-210.839 110.556,-362.119 265.017,-227.696c29.387,25.575 18.407,-29.213 107.11,-71.844Z" style="fill:#824b3d;"/><path d="M1254.778,1659.126c-20.242,18.803 -21.926,19.032 -27.477,15.932c-50.776,-28.352 -147.298,-77.206 -214.655,-177.699c-101.063,-150.782 -37.652,-338.695 94.604,-336.523c80.921,1.329 109.211,59.349 133.87,56.798c27.24,-2.817 53.907,-79.754 136.047,-90.43c141.529,-18.396 177.069,246.261 -122.39,531.922Z" style="fill:#f8e8ce;"/><path d="M572.48,1097.984c5.072,-3.096 35.728,-21.81 70.866,23.088c21.035,29.623 18.794,31.41 21.61,32.882c6.888,3.601 6.251,-0.999 15.605,-8.675c66.046,-54.195 129.069,15.981 147.389,99.638c49.316,225.199 -116.154,414.083 -137.433,425.398c-9.059,4.817 -62.681,-111.102 -67.331,-121.155c-52.943,-114.45 -140.569,-383.226 -50.706,-451.176Z" style="fill:#e1aa72;"/><path d="M1157.406,1029.707c-105.388,-42.17 -214.961,24.922 -339.475,-11.439c-23.321,-6.81 -145.629,-57.648 -184.081,-74.966c-29.688,-13.37 -44.384,-17.368 -30.585,-21.209c21.742,-6.053 21.866,-5.423 276.935,-54.799c88.753,-17.181 93.906,-21.213 96.996,-15.788c4.584,8.048 -15.804,12.697 -19.845,14.725c-26.105,13.102 -13.604,49.277 -12.006,52.781c25.083,54.999 82.402,20.584 102.496,12.795c82.403,-31.94 168.489,-12.35 175.8,-101.748c0.611,-7.474 14.303,-1.918 17.703,-1.016c14.409,3.823 25.247,3.181 15.621,14.602c-22.102,26.221 -12.727,30.192 -14.659,32.292c-14.205,15.44 -15.426,15.56 -21.175,47.783c-0.302,1.691 -6.235,34.944 16.918,13.598c13.66,-12.594 15.063,-10.828 28.446,-23.56c12.154,-11.563 1.784,-18.832 14.589,-26.013c9.513,-5.335 11.877,-32.559 20.166,-37.972c2.856,-1.865 178.518,63.915 187.486,72.479c7.608,7.266 -2.938,7.612 -125.893,41.263c-114.681,31.386 -138.023,106.015 -147.537,102.423c-4.803,-1.813 -1.155,-7.02 -47.665,-32.624c1.702,-5.944 8.791,-134.033 -9.062,-106.356c-3.309,5.13 -1.086,94.595 -0.971,95.358c0.674,4.46 1.161,4.326 1.151,4.714c-0.046,1.695 -1.309,1.081 -1.352,2.676Z" style="fill:#d3838c;"/><path d="M564.015,1162.643c1.333,-3.123 12.515,-29.318 29.417,-30.959c41.312,-4.01 61.369,48.831 65.345,56.688c5.49,10.849 8.858,3.307 16.623,-6.139c83.833,-76.005 144.28,65.983 129.503,196.406c-0.227,1.777 -3.508,33.612 -13.834,69.986c-24.297,85.583 -76.35,157.323 -90.241,173.446c-15.618,18.128 -25.545,-4.113 -34.148,-22.741c-18.129,-39.259 -145.615,-294.714 -102.665,-436.686Z" style="fill:#84463a;"/><path d="M701.729,1599.233c-4.673,6.195 -10.477,19.795 -16.499,8.514c-39.527,-74.052 -149.485,-334.636 -107.441,-444.469c12.41,-32.42 40.27,-18.226 55.276,5.046c12.018,18.638 19.968,57.556 41.505,34.266c12.51,-13.528 39.064,-50.544 76.7,-11.542c35.525,36.815 52.878,126.752 34.718,220.092c-19.374,99.577 -73.105,171.482 -84.259,188.094Z" style="fill:#eac1ae;"/><path d="M1147.668,663.66c-3.73,9.196 1.274,8.522 11.102,10.618c2.689,3.845 2.435,3.744 4.607,7.721c43.262,79.214 47.34,111.509 47.834,113.346c0.702,6.44 0.543,6.362 -2.557,11.93c-1.718,3.085 1.078,6.025 1.444,6.409c16.351,17.192 -13.71,93.98 -62.851,66.655l3.019,-3.547c14.55,-4.454 27.783,7.325 32.792,-2.438c3.64,-7.093 -7.851,-9.672 -8.899,-9.69c-4.065,-0.071 -3.288,-1.559 -5.734,-2.719c23.793,-23.722 3.468,-58.029 -27.687,-56.97c-24.082,0.819 -155.216,71.608 -153.291,48.626c6.206,-74.097 -36.084,-101.99 -45.474,-168.68c-0.954,-6.775 5.354,-9.46 3.147,-14.297c-1.507,-3.304 -6.372,-1.212 -6.767,-13.853c-1.808,-57.906 48.866,-62.287 59.246,-64.507c69.921,-14.953 66.887,-22.737 107.844,-42.136c29.79,-14.109 49.031,-25.281 37.694,-10.503c-5.48,7.143 -9.177,24.424 -8.919,39.796c0.856,51.021 24.098,69.973 13.45,84.239Z" style="fill:#f4e1c3;"/><path d="M1474.312,1564.518c0.7,2.735 -4.336,125.671 -23.578,146.288c-21.717,23.269 -54.241,34.081 -58.953,36.152c-152.714,56.82 -415.4,106.525 -494.831,93.547c-15.793,-2.58 -55.119,-9.006 -182.133,-81.361c-8.248,-4.699 -65.706,-37.43 -98.942,-65.257c-20.889,-17.489 -26.426,-23.175 -34.92,-109.049c-2.905,-29.371 -1.858,-30.552 0.615,-30.39c0.644,0.042 2.301,-0.774 14.658,30.218c5.082,10.193 2.322,14.32 13.908,15.372c15.015,1.362 14.047,26.919 9.804,38.662c-5.423,15.008 0.314,14.823 13.261,24.385c34.761,25.672 110.086,69.027 168.036,95.579c7.29,2.154 7.068,2.342 14.445,4.457c10.051,2.882 19.574,6.933 15.072,-0.443c-6.33,-10.37 -18.861,-26.035 -10.257,-51.39c1.013,-2.985 13.763,-21.922 33.95,20.921c17.196,36.494 2.892,-31.816 31.82,-56.562c2.027,1.713 4.054,3.425 6.082,5.138c25.664,43.844 18.512,46.428 24.52,72.291c1.104,4.751 2.559,0.209 7.003,-2.228c11.846,1.176 13.393,-20.762 37.549,-25.923c1.896,-0.405 16.252,-3.472 22.819,8.068c7.006,12.309 -1.862,32.382 -3,34.957c-11.671,18.017 -26.61,23.364 -12.673,24.043c44.51,2.167 281.73,-31.383 437.423,-96.919l4.883,-2.113c6.648,-6.23 3.693,-7.65 -1.578,-15.061c-11.52,-16.199 -6.953,-27.578 -6.385,-30.017c7.864,3.596 7.475,-0.268 14.858,-4.827c1.783,0.198 3.263,1.642 5.046,1.839c8.12,0.899 15.227,0.752 16.552,0.725c2.777,-0.057 3.09,-6.511 5.058,-5.037c4.912,3.679 5.026,0.742 5.041,0.346c0,-0 -3.375,-4.582 -3.668,-4.98c3.958,-12.937 0.377,-24.968 16.46,-54.034c6.806,-12.3 5.003,-13.841 12.054,-17.394Z" style="fill:#e9bb7e;"/><path d="M1349.94,1322.668c-14.427,-51.689 60.186,-54.114 56.487,-7.347c-1.53,19.354 -21.393,20.384 -23.59,30.578c-6.308,29.269 -12.011,75.951 -20.515,112.157c-2.43,10.344 2.945,22.753 -4.683,37.402c-9.667,18.563 -39.271,25.205 -61.417,31.505c-4.375,-4.746 -4.352,-8.661 -9.35,-4.558c-2.794,2.293 -22.996,5.145 -26.518,6.715c-4.216,1.879 -6.296,2.806 -57.496,6.565c-4.945,0.363 -3.878,-4.123 -7.195,-2.844c-20.099,7.747 -21.273,-0.477 -26.392,1.434c-14.34,5.353 -14.426,-0.674 -30.715,-2.126c-10.897,-0.971 -12.088,-15.191 -14.573,-15.04c-1.395,0.085 -2.036,2.28 -3.431,2.365c-3.211,-11.568 0.499,-11.903 -1.902,-23.609c-1.362,-6.644 -3.727,-6.031 -21.49,-82.05c-6.428,-27.512 -2.628,-31.498 -15.843,-36.236c-32.681,-11.718 -12.704,-75.073 27.87,-54.371c22.836,11.652 9.154,39.009 15.35,42.815c20.015,12.295 20.687,10.864 40.65,23.322c6.964,4.346 9.264,7.758 12.901,0.544c43.516,-86.337 42.752,-88.277 40.953,-90.643c-0.523,-0.687 -14.271,-12.744 -9.447,-30.967c11.839,-44.724 82.395,-20.539 56.514,24.228c-2.553,4.417 -5.901,7.828 -3.802,11.204c3.254,5.235 40.012,64.358 41.087,65.189c3.534,2.731 48.129,-39.143 48.177,-39.383c0.112,-0.552 -0.121,-0.507 -1.631,-6.85Z" style="fill:#9a5d57;"/><path d="M964.208,591.725c-23.667,13.701 -31.639,23.679 -36.666,57.979c-2.352,16.047 7.428,24.258 6.597,28.136c-1.752,8.174 -3.514,8.527 4.238,37.537c-16.197,7.702 -18.273,8.69 -218.367,53.205c-136.69,30.41 -137.183,32.092 -148.802,28.669c38.876,-80.733 36.458,-81.686 80.948,-159.833c0.695,0.378 0.477,5.648 15.362,4.471c6.002,-0.475 122.839,-43.06 133.471,-46.936c109.083,-39.76 133.919,-72.113 143.286,-52.765c7.191,14.852 6.805,14.99 7.459,16.264c7.492,14.592 4.479,28.458 8.535,30.363c0.462,0.217 0.777,-1.107 1.239,-0.89l2.7,3.8Z" style="fill:#d8888e;"/><path d="M1002.055,400.916c0.321,0.192 3.356,-1.53 4.537,2.709c0.036,0.131 0.187,0.672 -0.731,1.538c-3.846,3.629 -4.319,3.009 -6.948,7.506c-8.905,15.237 -38.374,61.726 -27.084,133.822c5.784,36.938 7.627,36.978 6.408,39.987c-7.073,2.543 -6.811,2.707 -14.029,5.247l-2.7,-3.8c-0.462,-0.217 -0.777,1.107 -1.239,0.89c-4.056,-1.905 -1.043,-15.771 -8.535,-30.363c-0.654,-1.274 -0.268,-1.412 -7.459,-16.264c-9.368,-19.348 -34.203,13.006 -143.286,52.765c-10.633,3.876 -127.469,46.461 -133.471,46.936c-14.885,1.177 -14.667,-4.093 -15.362,-4.471c79.231,-144.142 87.111,-150.561 194.682,-186.815c11.423,-3.85 94.23,-32.309 155.218,-49.687Z" style="fill:#cb707a;"/><path d="M911.4,1430.068c12.82,36.238 30.022,92.485 102.712,166.368c77.835,79.112 176.827,127.306 210.011,138.754c3.084,1.252 3.105,1.176 3.331,1.352c0.992,0.772 -0.231,1.278 0.828,2.101c-29.851,5.09 -83.242,18.568 -202.247,36.031c-31.907,4.682 -34.259,4.719 -33.378,2.24c0.514,-1.446 13.086,-19.447 7.79,-42.388c-4.461,-19.321 -30.754,-33.939 -57.982,-16.082c-4.76,3.122 -7.124,5.833 -8.266,0.235c-2.978,-14.601 -3.021,-14.429 -8.171,-28.541c2.266,-14.079 1.133,-14.168 -6.538,-178.052c-0.332,-7.1 -0.492,-6.92 -0.998,-14.031c-1.543,-39.806 -2.414,-39.93 -7.577,-49.099c-2.251,-3.998 -2.396,-13.023 -2.414,-14.173c0.967,-1.572 1.933,-3.143 2.9,-4.715Z" style="fill:#f3bec0;"/><path d="M1357.996,856.365c-39.309,-14.945 -50.7,-15.018 -47.041,-21.217c7.005,-11.868 9.96,-11.551 11.247,-11.413c5.792,0.621 96.732,34.2 143.068,51.97c61.392,24.931 90.014,33.428 93.276,64.653c3.795,36.316 -4.515,48.189 -25.792,56.774c-114.111,46.044 -168.796,22.728 -262.104,115.087c-25.882,29.188 -31.408,45.939 -36.573,41.148c-26.121,-24.225 -24.203,-27.575 -74.388,-48.656c1.637,-1.173 3.274,-2.346 4.911,-3.519c4.681,1.833 4.783,1 9.624,2.612c12.558,4.18 24.423,-3.299 33.506,-3.548c5.544,-0.152 0.087,-4.878 -0.228,-5.151c-25.427,-22.019 -35.387,-25.303 -59.275,-33.548c-69.562,-26.714 -227.354,5.743 -273.002,11.828c-2.081,1.508 -11.691,8.472 -6.532,31.059c0.217,0.951 1.618,1.352 1.835,2.303c-2.684,-0.339 -3.069,2.538 -8.659,-1.093c-7.657,-4.975 -7.491,-15.678 -8.456,-19.885c-2.968,-12.944 -5.68,-12.571 -51.849,-28.602c-62.93,-22.643 -149.733,-66.74 -203.535,-90.573c2.624,-1.497 2.03,-2.445 5.038,-2.874c2.28,-0.326 2.044,-0.741 2.232,-0.73c12.188,0.714 12.216,2.078 26.479,-0.978c1.584,-0.96 3.169,-1.919 4.753,-2.879c26.217,10.799 25.871,11.236 52.077,22.167c40.516,17.683 40.444,17.352 83.799,34.859l4.94,1.918c4.942,2.074 4.804,1.868 9.854,3.992c-1.599,1.504 -1.392,8.807 -19.184,0.024c-7.701,-3.802 -8.257,-0.978 -11.994,-2.099c-3.366,-1.009 -1.275,-3.457 -4.55,-4.739c-1.42,-0.556 -13.915,2.949 -14.669,3.368c-2.066,1.148 -2.06,0.406 -4.559,0.898c4.402,2.624 15.547,9.268 59.874,23.228c47.574,14.983 47.873,14.666 97.782,15.619c70.781,1.352 182.689,-35.213 248.416,-12.1c10.236,2.006 44.314,21.789 52.024,28.125c1.938,1.593 23.459,19.28 24.435,19.672c1.034,0.415 2.317,-0.479 3.351,-0.063c3.617,2.941 3.546,2.993 3.906,3.176c49.96,25.447 24.878,-61.469 181.514,-100.566c85.299,-21.291 126.911,-36.883 133.224,-38.082c13.165,-9.382 15.166,-13.904 7.653,-16.065c-72.183,30.907 -148.614,37.842 -200.679,63.347c-0.675,-0.273 -1.322,1.155 -1.997,0.882c-6.302,-2.551 -4.774,-5.918 1.797,-8.177c1.975,-0.679 16.085,-5.532 23.381,-11.503c4.848,-3.967 -10.417,-2.512 -13.567,-2.77c-1.626,-0.663 -3.253,-1.326 -4.879,-1.99c12.711,-4.872 12.662,-4.728 69.634,-19.978c66.12,-15.474 74.202,-21.643 79.486,-25.675c19.416,-19.241 -11.748,-30.698 -14.804,-32.298c-16.778,-8.165 -47.671,-19.194 -71.744,-28.229c-16.298,-6.157 -48.806,-18.143 -53.055,-19.709Z" style="fill:#f4d596;"/><path d="M1270.668,314.13c9.568,23.606 5.187,32.797 0.85,54.251c-19.507,73.982 -51.787,137.886 -61.048,162.035c-3.797,9.902 -6.756,1.643 -17.437,-4.626c-8.147,-4.782 14.098,-28.416 51.194,-142.946c16.011,-64.951 -46.818,-45.5 -84.543,-38.474c-14.22,3.494 -117.896,28.968 -176.817,47.18c-172.194,53.224 -224.023,72.142 -254.841,101.931c-50.104,48.43 -147.437,243.067 -178.591,317.478c-35.549,84.909 53.057,40.205 58.77,49.443c7.623,12.327 -3.727,14.668 -4.981,14.927c-66.511,13.717 -66.494,14.133 -74.177,13.967c-30.162,-0.651 -26.421,-17.106 -18.01,-47.109c18.037,-64.338 84.403,-183.66 92.954,-199.035c17.267,-30.346 17.189,-30.124 33.718,-60.754c50.654,-85.523 76.127,-106.276 84.432,-113.515c47.203,-41.146 205.723,-80.604 253.616,-98.45c24.176,-7.282 29.247,3.316 46.242,-15.279c16.917,1.054 167.537,-47.194 216.663,-45.938c27.657,0.707 26.326,6.41 28.679,6.454c1.226,0.023 2.1,-1.563 3.325,-1.54Z" style="fill:#e0a26b;"/><path d="M1183.764,353.605c0.196,1.899 0.391,3.799 0.587,5.698c-38.008,117.146 -48.703,113.028 -70.81,174.783c-62.082,41.114 -115.149,49.905 -121.74,46.268c-8.253,-16.525 -10.1,-39.626 -10.382,-43.162c-6.059,-75.808 34.262,-128.616 37.599,-140.306c38.546,-14.082 140.787,-38.168 164.746,-43.281Z" style="fill:#cc737d;"/><path d="M1656.813,344.937c-5.979,10.518 -9.869,6.433 -18.342,15.129c-14.423,14.801 -19.022,20.917 -30.773,46.586c-1.513,-0.678 -1.946,-2.848 -3.459,-3.526c-1.458,-0.653 -9.136,18.191 -6.814,21.548c4.575,6.612 9.287,-5.776 12.03,-8.864c2.33,-4.066 6.005,-11.553 7.964,-14.994c18.136,-32.475 22.061,-29.426 51.311,-55.773c52.341,-16.673 130.654,7.567 131.225,11.84c0.625,4.672 -3.294,2.18 -13.255,12.417c-23.661,25.955 -30.831,48.918 -30.884,49.05c-0.665,-0.09 -1.465,-4.419 -5.995,-0.811c-20.411,16.258 -50.403,26.092 -55.098,27.631c-0.686,0.225 -22.915,7.514 -4.464,7.709c37.007,0.391 49.457,-15.997 52.645,-15.677c1.622,0.163 0.935,3.928 2.557,4.091c-0.848,1.538 -0.945,1.322 -1.726,2.738c-0.205,0.372 -0.183,0.348 -2.473,4.698l-3.338,-2.862c-5.714,5.933 -5.66,5.829 -12.363,10.717c-54.436,23.012 -56.829,11.392 -116.422,15.331c-1.449,0.096 -14.369,9.692 -16.672,8.801c-1.373,-0.531 -2.119,-2.138 -3.492,-2.669c42.6,-37.064 86.291,-67.545 89.174,-74.433c9.857,-23.555 -85.363,32.28 -162.401,103.097c-29.43,27.465 -28.815,27.786 -56.84,56.767c-1.364,-3.801 -2.08,-3.848 -0.29,-7.464c7.619,-15.393 -4.642,-45.117 15.751,-105.82c7.547,7.018 10.29,5.9 9.729,12.037c-0.565,6.186 5.154,7.163 7.573,9.562c1.804,1.789 6.161,13.323 5.658,16.303c-0.875,5.184 2.598,3.932 2.947,4.666c0.702,1.474 -0.254,3.245 -0.315,4.871c-0.141,3.718 3.495,11.819 10.19,1.519c11.336,-17.44 -4.639,-46.357 1.364,-48.14c1.379,-0.409 3.048,0.835 4.318,0.169c0.939,-0.493 0.078,-2.477 1.017,-2.97l2.02,-3.13c16.33,1.834 8.478,-10.167 41.247,-51.676c1.255,-1.59 18.729,-32.883 96.695,-48.469Z" style="fill:#f1c9a4;"/><path d="M590.876,388.483c0.209,0.279 2.615,3.492 2.615,3.492c-0.713,14.057 -1.318,13.963 0.986,27.933c0.432,1.558 7.585,34.323 26.755,58.693c-0.441,2.176 -1.625,8.023 -12.086,25.072c-74.155,120.865 -72.572,128.607 -126.193,236.585c-0.529,-0.372 -2.753,-0.145 -3.736,-3.99c-21.436,-83.771 -3.068,-152.85 -2.196,-156.718c1.492,-5.478 2.984,-10.955 4.476,-16.433c0.092,-0.273 22.094,-87.25 109.38,-174.634Z" style="fill:#e89ca8;"/><path d="M1329.631,1465.91c-31.418,11.423 -82.164,28.866 -164.971,26.715c-0.442,-4.34 -37.152,-90.7 -37.191,-92.992c-0.022,-1.311 2.24,-1.965 2.218,-3.276c51.109,28.029 55.419,28.768 62.605,19.019c20.084,-27.248 43.931,-99.873 53.439,-92.646c1.63,1.239 42.964,73.663 50.681,70.266c0.594,-0.262 0.511,-0.314 6.9,-4.244c19.609,-6.69 69.119,-62.576 65.646,-47.723c-17.07,72.996 -17.868,116.049 -23.684,118.676c-1.226,0.554 -1.159,0.46 -15.641,6.205Z" style="fill:#f6b0b6;"/><path d="M843.832,1404.135l2.988,1.859c2.134,2.425 3.468,2.285 2.065,5.302c-0.753,1.621 -2.675,3.35 -3.564,13.929c-1.092,12.996 6.421,198.863 10.283,264.981c0.956,12.852 1.231,13.037 0.415,13.798c-1.981,1.848 -4.537,-1.286 -4.79,-1.595c-11.491,-14.087 -26.832,-11.291 -30.459,-9.396c-26.745,13.972 -14.192,49.324 -12.719,53.472c-5.826,0.562 -6.26,0.419 -65.722,-31.555c-4.237,-2.278 -48.51,-26.085 -52.081,-30.005c-2.262,-2.483 12.747,0.84 52.878,-51.707c32.452,-42.492 41.821,-60.692 61.435,-99.617c38.659,-88.262 29.5,-92.587 39.272,-129.465Z" style="fill:#ea9da8;"/><path d="M975.98,244.919c-0.384,0.108 -10.816,1.642 -20.599,9.922c-2.96,2.505 -7.5,12.934 -15.532,11.444c-5.197,-0.964 -44.803,-8.311 -61.973,22.573c-16.551,29.77 6.11,40.571 -4.894,44.233c-107.121,35.644 -125.955,48.583 -150.422,56.028c-36.359,-31.553 -37.109,-40.432 -37.822,-65.113c3.492,-0.102 12.325,-3.314 14.633,-6.544c6.425,-8.993 14.351,-4.408 32.685,-12.337c18.157,-7.852 17.416,-9.146 19.07,-9.592c23.083,-6.216 21.767,-9.313 23.765,-9.816c24.76,-6.245 37.784,-16.324 124.511,-34.24c3.56,-0.735 57.077,-7.569 62.106,-7.342l2.389,-1.259l2.389,-1.209l2.389,0.185l2.389,0.262c1.638,0.935 3.277,1.871 4.915,2.806Z" style="fill:#f5cac9;"/><path d="M942.604,729.127c3.524,4.331 2.823,4.508 4.725,9.608c7.173,19.235 11.733,18.962 8.781,27.407c-45.952,17.145 -217.757,48.46 -271.911,63.117c-77.218,14.955 -76.649,17.097 -95.488,18.78c-28.643,2.559 -31.875,3.742 -34.668,-6.069c6.224,-17.405 4.312,-18.133 11.85,-29.791c16.388,0.92 299.072,-61.388 376.712,-83.052Z" style="fill:#e2989e;"/><path d="M893.298,346.379c10.016,5.69 14.693,10.361 62.051,18.702c-4.214,1.668 -3.641,2.729 -8.252,3.266c-11.181,1.301 -10.724,2.276 -40.666,11.542c-188.014,58.185 -201.784,88.028 -204.455,90.391c-1.257,-0.836 -0.353,-3.749 -12.864,-3.271c-0.443,0.017 -0.41,0.025 -5.529,0.333c-2.975,-8.061 -3.745,-8.84 -4.332,-9.435c-7.072,-7.158 -51.86,54.73 -80.855,107.513c-23.396,39.907 -46.109,84.109 -49.919,91.524c-72.687,141.455 -80.587,160.51 -60.573,189.885c1.111,1.631 1.423,1.046 2.904,2.136l3.02,2.434c-3.137,14.803 -0.328,14.855 -0.568,29.985c-21.543,-14.062 -27.813,-34.778 -28.14,-44.195c-1.129,-32.493 69.076,-173.936 115.063,-257.233c75.426,-134.343 93.793,-153.199 183.085,-192.478c21.124,-8.869 39.413,-15.492 42.877,-16.746c79.6,-28.821 81.142,-28.331 87.152,-24.354Z" style="fill:#f4d697;"/><path d="M892.161,1128.218c-0.821,5.069 0.609,13.246 -1.067,25.637c-7.175,0.65 -22.161,-4.855 -22.004,4.509c1.51,89.667 21.006,472.211 20.269,496.699l0.413,1.674c-5.149,2.34 -9.012,1.098 -21.252,19.644c-4.838,-10.234 1.779,-11.102 -7.915,-140.791c-2.823,-37.762 -9.092,-202.663 -9.762,-220.29c-0.831,-21.849 -2.24,-34.464 -2.877,-58.714c-0.188,-4.679 -2.295,-57.219 -2.359,-58.489c-0.904,-21.332 -0.705,-21.134 -2.468,-42.251c-1.25,-17.323 -3.304,-30.396 1.262,-30.022c23.969,1.964 23.742,2.661 47.76,2.396Z" style="fill:#dfa66a;"/><path d="M1467.691,437.941c0.009,0.065 2.88,2.201 0.811,5.619c-6.268,10.352 -6.757,12.433 -9.208,23.57c-11.874,78.43 -0.766,80.706 -10.513,95.907c-0.279,0.43 -3.483,5.373 -3.483,5.373c-0.176,0.479 0.314,0.334 4.404,4.681c-7.179,8.4 -7.129,8.155 -7.716,8.891c-0.901,0.98 -8.051,8.758 -11.104,12.388c-5.072,6.029 -4.985,5.982 -5.435,6.488c-6.254,-6.112 -7.79,-8.047 -14.166,-2.231c-3.657,3.336 -1.617,6.87 -3.832,11.161c-2.604,5.044 -3.58,4.302 -5.784,9.732c-1.735,4.272 -1.822,4.254 -1.669,4.446c1.13,1.412 3.385,1.652 4.515,3.064c-9.638,12.08 -9.34,12.033 -18.497,24.336c-0.783,1.119 -8.455,12.082 -9.885,13.915c-30.584,39.196 -33.634,52.208 -36.127,48.961c-4.237,-5.519 -13.642,-22.885 -14.745,-24.921c-5.918,-10.928 -9.788,-43.885 -9.56,-46.425c0.982,-10.923 9.886,16.636 18.583,20.852c13.945,6.759 7.505,-14.308 7.721,-39.776c0.408,-48.173 30.776,-90.92 30.832,-90.909c5.642,1.128 2.84,3.314 3.045,8.852c0.739,20.02 16.498,50.239 19.303,23.386c7.422,-71.073 20.444,-79.772 72.511,-127.36Z" style="fill:#f1a8a7;"/><path d="M539.903,215.304c1.479,1.727 2.959,3.454 4.438,5.181c6.31,5.021 40.049,10.292 55.612,23.851l3.153,1.611c13.959,4.389 21.054,11.75 33.451,2.765c3.057,-2.215 4.899,-1.645 5.39,-1.81c5.892,-12.513 6.822,-11.697 12.317,-17.943c4.61,-3.984 3.829,-4.5 8.776,-8.388c3.15,3.188 5.859,5.928 19.005,52.267c-19.72,8.153 -76.23,27.369 -123.228,93.946c-1.984,-0.487 -4.148,0.282 -6.133,-0.204c-4.723,-1.158 -50.443,-27.015 -53.124,-29.983c-2.504,-2.772 -2.998,-1.922 -6.363,-0.308l-0.31,-2.904l-2.451,-2.598c11.192,-13.247 22.66,-15.51 35.875,-19.408c9.813,-1.756 23.92,0.174 18.338,-19.889c-0.406,-1.46 -12.225,-30.892 -9.106,-65.974c0.506,-5.687 0.701,-5.601 4.359,-10.212Z" style="fill:#e9b979;"/><path d="M530.182,941.903c10.415,6.616 10.351,6.571 11.248,7.146c24.338,15.588 128.66,62.993 141.027,67.573c39.72,14.711 39.63,14.491 78.332,31.541c2.8,1.233 4.752,-0.173 4.836,-0.145c1.089,0.35 1.265,2.078 2.337,2.475c0.832,0.307 1.738,-0.931 2.581,-0.656c3.126,1.02 7.533,6.885 23.709,9.194c4.744,0.677 3.623,-1.677 5.243,-2.568c0.636,-0.35 1.431,1.054 2.067,0.704c46.17,16.031 48.881,15.658 51.849,28.602c0.965,4.207 0.798,14.911 8.456,19.885c5.59,3.631 5.975,0.754 8.659,1.093c2.119,0.117 24.945,1.376 26.472,1.664c2.605,0.493 2.293,-0.671 4.836,-1.1c0.813,-0.137 12.573,-0.205 14.185,-0.049c7.377,0.716 5.54,3.712 7.357,4.929c-81.983,8.1 -106.705,-0.598 -286.378,-79.295c-20.046,-9.708 -74.78,-33.345 -94.247,-44.656c0.053,-1.96 2.727,-3.251 2.781,-5.211c0.074,-2.734 -13.589,-1.348 -12.907,-12.367c0.9,-14.562 -4.182,-14.166 -2.442,-28.758Z" style="fill:#dca068;"/><path d="M553.501,1009.819c150.892,75.102 246.957,104.735 269.266,111.616c13.775,4.249 5.764,9.595 6.788,27.522c2.628,33.005 1.782,34.646 3.06,44.441c2.597,19.903 7.449,20.087 4.75,22.253c-0.93,0.746 -2.666,-0.964 -3.596,-0.219c-2.578,-5.606 -2.793,-5.443 -2.984,-5.939c-3.625,-9.422 -31.877,-82.85 -84.573,-94.682c-46.662,-10.478 -72.906,20.604 -74.283,21.472c-3.466,2.186 -13.302,-20.434 -21.751,-29.002c-45.196,-45.83 -75.258,-25.225 -84.731,-20.846c-1.393,0.865 -2.786,1.73 -4.18,2.595c-10.573,-15.504 -3.605,-36.238 -7.89,-62.194c1.621,-6.93 1.282,-6.821 -0.302,-13.865l0.424,-3.152Z" style="fill:#e299a1;"/><path d="M1393.222,1635.847l2.159,2.812l0.277,2.343c-0.157,1.107 1.783,1.841 1.626,2.948c-0.235,1.659 -2.537,2.628 -2.651,4.299c-0.12,1.749 2.151,1.166 1.603,4.427c-2.078,12.363 2.415,12.472 6.604,28.164c0.534,2.002 6.205,8.494 8.033,12.119l-4.883,2.113c-155.693,65.536 -392.913,99.087 -437.423,96.919c-13.937,-0.679 1.002,-6.026 12.673,-24.043c1.138,-2.575 10.006,-22.647 3,-34.957c-6.568,-11.539 -20.923,-8.473 -22.819,-8.068c-24.156,5.16 -25.703,27.099 -37.549,25.923c-0.704,-4.316 -1.124,-39.466 -15.996,-62.333c-13.769,-21.171 -18.592,-15.715 -21.609,-12.868c-28.928,24.746 -14.624,93.057 -31.82,56.562c-20.187,-42.843 -32.937,-23.906 -33.95,-20.921c-8.604,25.355 3.927,41.019 10.257,51.39c4.502,7.376 -5.02,3.325 -15.072,0.443c-7.378,-2.115 -7.156,-2.303 -14.445,-4.457l2.575,-3.918l3.539,-1.26c3.269,2.166 3.231,2.507 3.52,2.331c0.675,-0.41 1.641,-0.998 -2.821,-9.333c-1.473,-4.148 -14.025,-39.5 12.719,-53.472c3.627,-1.895 18.968,-4.692 30.459,9.396c0.253,0.31 2.809,3.443 4.79,1.595c0.816,-0.761 0.541,-0.946 -0.415,-13.798c7.079,-6.656 6.681,-6.676 12.917,-13.825c12.239,-18.546 16.102,-17.303 21.252,-19.644c11.887,0.314 12.542,3.984 20.945,10.982c5.629,5.543 11.298,18.436 12.053,20.152l3.258,2.268c5.15,14.112 5.193,13.94 8.171,28.541c1.142,5.598 3.505,2.887 8.266,-0.235c27.229,-17.858 53.521,-3.239 57.982,16.082c5.297,22.941 -7.276,40.942 -7.79,42.388c-0.881,2.479 1.471,2.442 33.378,-2.24c119.005,-17.463 172.396,-30.941 202.247,-36.031c0.206,-1.037 0.412,-2.074 0.618,-3.11c12.114,-0.432 12.071,-0.828 22.942,-6.053c1.392,0.229 1.011,3.006 5.932,0.974c4.206,-1.737 8.686,-2.98 9.456,-3.194c10.217,-2.835 98.515,-27.331 126.151,-40.473c12.582,-5.983 -19.942,-16.757 -0.159,-50.94Z" style="fill:#905649;"/><path d="M963.167,926.98c-1.189,-1.535 -7.743,-10 -10.031,-21.999c-6.871,-36.035 31.907,-36.259 39.369,-37.627c10.219,-1.873 59.952,-10.992 121.714,-44.636c12.435,-6.774 2.827,5.407 2.781,19.184c-0.139,41.156 33.105,49.964 33.863,51.256c2.106,3.589 -1.417,3.603 -51.033,13.194c-87.443,16.902 -104.583,53.206 -136.663,20.629Z" style="fill:#f0dbbd;"/><path d="M891.094,1153.855c3.568,42.342 1.967,116.148 7.804,135.637c0.638,29.366 -2.018,29.158 -1.24,58.576c0.904,34.233 3.671,33.77 6.384,67.983c-1.358,19.465 -1.297,19.486 10.167,243.675c0.297,5.807 1.543,5.651 1.175,6.969c-0.101,0.362 -0.333,0.073 -4.666,1.023c-8.403,-6.998 -9.058,-10.668 -20.945,-10.982l-0.413,-1.674c0.737,-24.488 -18.759,-407.032 -20.269,-496.699c-0.158,-9.363 14.829,-3.859 22.004,-4.509Z" style="fill:#f5cf86;"/><path d="M530.182,941.903c-1.74,14.592 3.342,14.196 2.442,28.758c-0.681,11.019 12.982,9.633 12.907,12.367c-0.053,1.96 -2.727,3.251 -2.781,5.211c-5.78,-3.498 -30.47,-8.772 -25.309,-59.567c3.054,-30.053 83.08,-36.004 176.513,-56.065c2.88,-0.618 230.857,-46.006 277.28,-57.964c9.005,-2.32 6.971,18.059 6.042,19.5c-3.271,5.077 -350.215,68.675 -371.503,74.332c-60.795,16.154 2.39,38.405 30.757,50.656c-1.584,0.96 -3.169,1.919 -4.753,2.879c-14.264,3.056 -14.291,1.692 -26.479,0.978c-0.188,-0.011 0.048,0.404 -2.232,0.73c-3.008,0.43 -2.415,1.378 -5.038,2.874c-54.55,-25.019 -80.648,-45.514 -67.847,-24.691Z" style="fill:#e1a770;"/><path d="M1148.228,1061.557c23.888,8.245 33.848,11.529 59.275,33.548c0.315,0.273 5.772,4.999 0.228,5.151c-9.083,0.249 -20.949,7.728 -33.506,3.548c-4.841,-1.611 -4.942,-0.779 -9.624,-2.612c-1.637,1.173 -3.274,2.346 -4.911,3.519c-21.239,-6.583 -43.884,-18.301 -109.857,-10.35c-66.689,8.037 -68.307,12.307 -126.457,17.83c-1.816,-1.217 0.02,-4.213 -7.357,-4.929c-1.612,-0.156 -13.372,-0.088 -14.185,0.049c-2.543,0.429 -2.232,1.593 -4.836,1.1c-1.526,-0.289 -24.353,-1.547 -26.472,-1.664c-0.217,-0.951 -1.618,-1.352 -1.835,-2.303c-5.159,-22.587 4.452,-29.551 6.532,-31.059c0.692,0.336 1.565,-0.845 2.257,-0.509c1.227,0.595 1.678,2.172 2.788,2.957c3.302,2.336 25.151,-0.732 31.126,-1.165c108.802,-7.896 107.898,-15.585 143.329,-16.811c65.484,-2.265 79.812,3.299 86.242,5.795c0,0 4.157,-0.017 4.518,-0.018l2.741,-2.077Z" style="fill:#f1c77c;"/><path d="M290.741,1057.436c-2.751,-17.803 -6.153,-49.894 -30.121,-64.412c-15.518,-9.399 -44.951,-12.218 -46.662,-17.661c-4.403,-14.003 15.951,-14.036 25.955,-16.346c54.714,-12.633 45.07,-74.47 53.344,-83.638c11.62,-12.875 12.974,17.805 25.253,50.991c14.362,38.814 63.197,30.596 67.399,41.985c3.847,10.426 -24.836,15.253 -31.022,17.243c-51.328,16.515 -40.952,70.254 -51.328,80.347c-9.138,8.888 -12.567,-7.32 -12.818,-8.509Z" style="fill:#c18f93;"/><path d="M1734.143,856.184c5.832,-33.063 6.377,-33.527 8.621,-35.438c15.118,-12.876 12.494,29.471 29.715,60.504c16.279,29.335 73.826,18.892 60.075,37.317c-4.459,5.975 -5.982,3.549 -20.586,7.233c-62.545,15.778 -47.573,74.451 -59.948,81.703c-17.588,10.307 -12.213,-47.086 -33.277,-64.64c-18.28,-15.235 -40.193,-17.932 -47.398,-19.719c-8.609,-2.135 -12.76,-11.685 -0.337,-16.041c34.298,-12.027 47.238,-2.107 63.134,-50.919Z" style="fill:#bf8d91;"/><path d="M1010.004,347.803c-6.105,9.23 -8.231,6.925 -34.114,5.787c-19.927,-0.876 -72.053,-9.268 -85.118,-25.659c-17.193,-21.572 2.193,-54.624 42.143,-51.33c12.821,1.057 14.959,3.978 24.82,-8.041c18.136,-22.104 47.623,-13.119 57.661,0.086c21.628,28.451 1.526,64.966 -5.393,79.157Z" style="fill:#eec28c;"/><path d="M968.762,675.489c-2.492,-13.528 13.868,-26.883 23.263,-4.441c2.396,5.724 23.759,6.135 24.32,5.973c5.61,-1.626 11.668,-36.684 8.604,-40.502c-17.166,-21.386 16.549,-31.067 20.199,-12.555c2.583,13.101 4.151,12.441 14.129,21.313c12.694,11.285 15.031,14.369 20.304,7.598c8.906,-11.437 14.474,-10 11.842,-22.023c-4.297,-19.625 33.226,-16.263 21.877,4.241c-8.173,14.767 -0.415,21.485 3.627,56.826c1.506,13.169 -32.425,29.816 -64.533,37.845c-42.593,10.651 -44.592,-1.235 -46.739,-5.581c-8.681,-17.58 -9.034,-17.117 -19.004,-33.806c-6.065,-10.153 -11.546,-4.732 -17.889,-14.887Z" style="fill:#ad7e64;"/><path d="M1448.774,1509.696c2.784,2.711 7.13,3.037 2.226,9.354c0,0 -4.183,4.411 -4.547,4.794c-0.233,0.787 -0.466,1.574 -0.698,2.361c-0.502,4.682 -6.223,58.065 -6.023,58.555c0.468,1.148 2.257,1.424 2.725,2.572c-4.696,13.787 -4.764,13.575 -7.068,28.063c-1.378,8.667 -20.311,-1.883 -35.851,12.305c-0.611,0.558 -0.468,0.604 -6.315,8.148c-19.783,34.183 12.741,44.957 0.159,50.94c-27.636,13.142 -115.933,37.638 -126.151,40.473c-0.77,0.214 -5.25,1.457 -9.456,3.194c-4.921,2.033 -4.54,-0.745 -5.932,-0.974c67.538,-49.109 171.723,-171.613 196.931,-219.784Z" style="fill:#f4c1c3;"/><path d="M1584.298,482.503c2.767,1.386 5.534,2.772 8.3,4.157l0.5,1.389c-4.751,12.611 -9.54,7.521 -16.885,12.809c-10.119,7.285 -18.778,15.783 -20.298,17.274c-8.777,7.757 -13.144,12.795 -14.187,13.998c-21.307,20.279 -21.589,19.861 -39.881,42.928c-1.746,2.201 -5.628,5.425 -6.151,5.86c-4.083,3.39 0.875,5.505 1.281,6.312c-12.011,4.578 -12.694,3.83 -20.964,13.69c-1.286,1.533 -1.283,1.588 -1.273,1.761c0.097,1.764 1.431,1.09 1.534,2.966c-4.413,6.846 -4.769,6.306 -11.236,11.004c-5.169,3.755 -1.942,4.926 2.516,9.291c-17.793,14.78 -21.732,15.489 -21.773,15.799c-0.147,1.091 1.248,2.029 1.102,3.12c3.264,-1.88 3.272,-4.893 37.797,-3.719c4.304,0.146 4.44,0.412 6.194,4.271c0.816,1.794 1.386,1.519 24.849,3.037c3.93,0.873 18.107,4.816 31.173,1.045c0.769,-0.222 1.996,-0.945 2.389,-0.261c0.12,0.208 -1.203,-0.15 -0.898,2.853c0.208,2.05 1.339,1.496 1.531,3.395c-39.597,21.031 -69.772,17.959 -103.537,24.012c-21.807,3.909 24.101,24.385 43.768,25.452c4.47,0.243 1.274,4.284 0.7,4.685c-38.172,26.641 -77.673,26.55 -108.803,24.238c-13.3,-0.988 -1.952,-8.018 36.689,-67.166c6.019,-9.214 28.506,-43.634 85.594,-107.999c35.716,-40.27 79.464,-75.654 79.97,-76.201Z" style="fill:#eb8b95;"/><path d="M1463.768,1453.771c-6.359,11.88 -42.007,78.483 -94.077,140.056c-4.607,5.448 -13.244,15.03 -14.41,16.325c-11.149,12.472 -10.994,12.303 -22.604,24.515c-1.352,-0.732 -1.86,-2.541 -3.212,-3.274c-3.87,-2.096 -40.703,43.239 -46.921,45.351c-4.279,1.454 -2.23,3.749 -8.096,8.213c-14.993,11.41 -16.021,19.531 -20.729,19.943c-3.805,0.333 -4.549,-0.919 -5.927,1.832c-0.343,0.685 1.166,1.718 0.579,2.219c-2.118,1.81 -9.024,0.697 -9.799,0.572c-2.52,-0.406 -9.363,7.203 -9.605,7.22c-0.617,0.043 -0.05,-1.217 -6.937,-3.343c-13.156,-4.061 -16.572,-9.968 -17.398,-11.396c-0.324,-0.561 -3.917,-6.772 -6.585,-4.816c-4.322,3.168 -4.354,4.461 -9.553,2.41c-5.729,-2.26 -3.807,-5.154 -9.622,-6.88c-3.381,-1.004 -26.263,-15.507 -28.501,-16.926c-0.896,-0.568 -1.473,-1.685 -2.504,-1.954c-0.885,-0.231 -1.864,1.017 -2.677,0.603c-1.075,-0.547 0.341,-2.304 -11.856,-9.235c-47.638,-27.069 -114.163,-85.443 -138.745,-122.51c-13.549,-20.43 -15.169,-19.139 -28.43,-39.855c-2.39,-3.734 -1.333,-3.937 1.122,-7.745c7.981,11.805 44.064,65.179 125.823,126.957c19.051,14.395 84.681,54.057 105.318,62.907c31.344,13.443 36.867,28.07 59.365,2.912c22.505,-25.166 103.885,-101.023 156.451,-177.386c10.843,-15.752 13.013,-19.393 14.051,-21.136c1.634,-2.742 2.073,-2.41 24.398,-31.681c3.33,-4.366 2.897,-6.853 8.191,-4.732c0.929,0.372 1.96,0.461 2.889,0.833Z" style="fill:#dda369;"/><path d="M1257.574,291.443c5.399,5.661 5.474,5.304 9.931,11.412c-0.449,0.733 1.436,1.643 0.987,2.375c-2.846,4.642 -3.789,0.92 -8.326,-2.289c-7.361,-5.205 -37.339,-4.953 -40.613,-4.925c-66.637,8.489 -187.353,44.434 -189.344,43.234c-1.098,-0.662 -0.923,-2.571 -2.021,-3.233c1.039,-2.342 7.562,-17.054 10.013,-30.376c2.353,-12.794 5.969,-10.672 18.951,-13.862c136.689,-33.59 155.785,-38.024 200.423,-2.336Z" style="fill:#f5dd9e;"/><path d="M670.148,324.993c2.979,5.852 1.909,5.964 3.368,17.631c2.815,22.504 34.459,50.285 37.791,54.426c-31.086,19.808 -45.277,25.609 -81.441,73.1c-32.843,-52.603 -24.104,-89.565 -23.447,-94.144c6.089,-11.106 20.554,-20.867 34.351,-31.637c10.257,-7.067 21.766,-15.618 29.377,-19.375Z" style="fill:#ecbe7d;"/><path d="M1362.918,210.037c30.571,4.487 21.024,35.038 32.908,24.295c26.18,-23.666 56.213,-3.945 45.353,28.559c-9.61,28.766 -64.48,52.685 -66.283,52.708c-13.979,0.175 -33.602,-48.839 -34.815,-52.809c-14.325,-46.89 18.221,-52.025 22.836,-52.753Z" style="fill:#c4898d;"/><path d="M975.98,244.919c-1.638,-0.935 -3.277,-1.871 -4.915,-2.806l-2.389,-0.262l-2.389,-0.185l-2.389,1.209l-2.389,1.259c-5.03,-0.227 -58.546,6.607 -62.106,7.342c-86.727,17.916 -99.751,27.995 -124.511,34.24c-1.998,0.504 -0.682,3.6 -23.765,9.816c-1.653,0.445 -0.913,1.739 -19.07,9.592c-18.334,7.929 -26.26,3.344 -32.685,12.337c-2.308,3.23 -11.141,6.442 -14.633,6.544c0.428,-6.367 -0.691,-8.855 26.244,-22.711c32.241,-16.586 65.878,-30.068 71.727,-32.412c170.208,-68.221 266.257,-30.388 322.417,-6.131l1.72,0.771c0.604,1.101 1.209,2.202 1.813,3.303c-2.563,0.761 -7.881,2.34 -32.412,8.185c-33.204,7.912 -32.929,9.018 -35.892,9.178c-7.193,0.39 -7.46,-47.392 -64.375,-39.269Z" style="fill:#f9dad5;"/><path d="M1183.764,353.605c36.447,-5.621 55.692,-11.548 49.149,24.152c-2.906,15.858 -53.878,139.892 -56.236,140.921c-8.84,3.859 -11.247,-6.505 -45.485,8.599c0.413,-2.797 71.708,-149.026 61.616,-170.369c-0.735,-1.554 -7.833,2.076 -8.457,2.395c-0.196,-1.899 -0.391,-3.799 -0.587,-5.698Z" style="fill:#d17a82;"/><path d="M598.396,565.421c11.913,13.549 -8.817,18.729 -11.896,32.809c-1.428,6.529 -5.232,5.067 -5.558,11.721c-0.524,10.706 1.49,10.618 -0.633,21.146c-3.795,18.829 -0.529,21.376 -15.779,46.637c-1.217,2.015 0.107,2.466 -13.719,26c-4.372,7.442 1.618,8.509 2.502,9.478c-32.276,68.107 -34.871,66.912 -59.486,138.189l-3.02,-2.434c-1.482,-1.09 -1.793,-0.505 -2.904,-2.136c-20.014,-29.376 -12.115,-48.431 60.573,-189.885c3.81,-7.415 26.524,-51.617 49.919,-91.524Z" style="fill:#db9b65;"/><path d="M902.66,309.812c-2.491,-37.289 42.842,-25.803 49.533,-24.408c15.237,3.178 9.201,-18.667 30.952,-21.69c46.654,-6.485 33.35,77.003 11.826,76.215c-82.373,-3.013 -88.561,-20.321 -92.311,-30.117Z" style="fill:#ad6e59;"/><path d="M683.583,467.342c0.103,0.707 0.334,1.393 0.437,2.1c0.106,0.728 1.031,7.094 0.868,9.155c-0.384,4.87 2.645,7.841 2.665,7.899c-13.559,16.218 -54.904,65.671 -134.239,226.715c-0.884,-0.969 -6.874,-2.036 -2.502,-9.478c13.826,-23.534 12.502,-23.985 13.719,-26c15.25,-25.261 11.984,-27.808 15.779,-46.637c2.122,-10.528 0.108,-10.44 0.633,-21.146c0.326,-6.654 4.13,-5.191 5.558,-11.721c3.079,-14.08 23.809,-19.26 11.896,-32.809c28.995,-52.783 73.783,-114.671 80.855,-107.513c0.587,0.594 1.357,1.373 4.332,9.435Z" style="fill:#e9b673;"/><path d="M732.247,1019.521c2.499,-0.492 2.494,0.251 4.559,-0.898c0.754,-0.419 13.249,-3.924 14.669,-3.368c3.275,1.282 1.184,3.729 4.55,4.739c3.737,1.12 4.293,-1.703 11.994,2.099c17.792,8.783 17.585,1.48 19.184,-0.024c83.567,30.621 97.556,25.425 233.916,10.946c65.676,-6.974 121.584,-6.852 181.582,41.051c13.429,12.167 14.929,17.996 15.428,19.937c-1.034,-0.415 -2.317,0.479 -3.351,0.063c-0.976,-0.392 -22.497,-18.079 -24.435,-19.672c-7.71,-6.336 -41.788,-26.119 -52.024,-28.125c-65.727,-23.113 -177.634,13.452 -248.416,12.1c-49.909,-0.954 -50.208,-0.636 -97.782,-15.619c-44.326,-13.96 -55.472,-20.604 -59.874,-23.228Z" style="fill:#f1d598;"/><path d="M1555.909,529.826c2.005,3.728 1.048,5.904 5.316,5.009c8.865,-1.859 14.305,-1.007 31.067,-0.27l2.961,1.192c-0.636,2.266 -3.923,13.985 25.741,15.022c35.015,1.223 35.352,-2.281 37.891,-0.656c1.535,0.982 2.092,2.718 -15.801,16.266c-11.46,1.198 -11.269,1.669 -21.758,6.676c-38.367,18.317 -70.508,-1.634 -124.35,14.166c-0.406,-0.807 -5.363,-2.921 -1.281,-6.312c0.524,-0.435 4.405,-3.658 6.151,-5.86c18.292,-23.067 18.574,-22.649 39.881,-42.928c0.413,0.268 5.166,3.345 5.166,3.345c0,0 8.293,-5.198 9.014,-5.65Z" style="fill:#f4babb;"/><path d="M962.603,777.629l1.798,0.75c-0.696,1.122 -1.392,2.245 -2.088,3.367c-11.22,3.577 -22.409,3.839 -19.654,20.247c-1.578,7.224 -4.966,4.702 -91.127,23.231c-14.894,3.203 -139.975,29.096 -143.149,28.046c-0.256,-0.085 -12.061,-14.175 -4.952,-16.121c23.73,-6.496 53.073,-7.844 259.172,-59.521Z" style="fill:#dea16e;"/><path d="M938.377,715.377c0.425,1.071 3.322,8.372 4.227,13.75c-77.64,21.664 -360.324,83.972 -376.712,83.052c2.385,-7.635 1.971,-7.611 5.316,-14.928c11.619,3.422 12.112,1.74 148.802,-28.669c200.094,-44.515 202.17,-45.502 218.367,-53.205Z" style="fill:#a25a5e;"/><path d="M396.697,1170.102c0.129,43.442 -0.385,71.058 -46.456,52.754c-4.257,-1.691 -51.678,-20.531 -33.584,-45.677c15.159,-21.067 35.29,3.755 38.262,-9.443c6.51,-28.911 33.902,-33.086 41.779,2.366Z" style="fill:#d18995;"/><path d="M1558.308,785.667c0.258,-5.008 -0.781,-35.232 19.532,-42.509c18.614,-6.668 24.614,16.899 25.234,19.336c2.048,8.046 4.831,5.582 13.129,4.656c30.164,-3.364 46.07,44.378 -31.245,57.272c-25.848,4.311 -24.015,-10.416 -26.65,-38.756Z" style="fill:#c68a8e;"/><path d="M1217.573,1436.89c-2.068,-3.54 -16.526,-8.088 15.26,-58.99c15.672,-25.096 21.462,-4.354 38.423,19.952c10.272,14.72 14.121,18.011 -11.925,66.926c-11.223,21.077 -21.581,1.28 -41.758,-27.889Z" style="fill:#b26f71;"/><path d="M1544.425,942.465c7.513,2.161 5.512,6.683 -7.653,16.065c-6.312,1.2 -47.925,16.791 -133.224,38.082c-156.636,39.097 -131.554,126.013 -181.514,100.566c-0.36,-0.183 -0.289,-0.235 -3.906,-3.176c-0.5,-1.941 -2,-7.771 -15.428,-19.937l2.521,-3.495c12.786,5.501 11.449,7.837 24.493,12.6c1.043,1.196 6.634,12.028 13.633,4.688c37.555,-39.385 31.309,-48.926 100.399,-82.046c52.066,-25.504 128.496,-32.439 200.679,-63.347Z" style="fill:#b88354;"/><path d="M1324.179,1480.734c0.554,2.086 2.595,3.597 3.149,5.683c0.14,0.527 -0.385,0.376 -2.407,6.382c3.205,1.359 6.411,2.719 9.616,4.078c-41.794,26.948 -194.601,43.1 -199.43,20.129c-1.021,-4.858 -4.167,-16.007 3.273,-15.094c60.575,7.433 95.731,6.744 185.8,-21.178Z" style="fill:#efa2aa;"/><path d="M295.633,912.299c6.776,-3.075 4.493,2.628 14.134,25.461c15.046,35.635 72.229,31.603 45.382,36.11c-60.421,10.143 -49.956,81.119 -59.009,49.117c-15.272,-53.985 -55.665,-45.344 -55.619,-52.048c0.028,-4.102 13.957,-0.425 31.741,-13.036c20.283,-14.384 22.969,-41.539 23.371,-45.604Z" style="fill:#f5b3bc;"/><path d="M1501.767,1023.421c-0.393,2.133 -1.122,6.084 -1.262,27.067c-2.374,41.261 -5.581,41.512 -3.652,44.545c0.33,0.519 5.846,1.274 1.9,9.701c-3.194,-2.958 -18.271,-19.577 -40.781,-29.77c-3.044,-1.378 -22.361,-10.126 -40.195,-11.634c-47.026,-3.978 -69.092,11.778 -69.178,11.71c-11.819,-9.303 63.649,-25.96 153.169,-51.619Z" style="fill:#f3babe;"/><path d="M1741.264,448.73c-9.488,18.539 -10.104,20.545 -36.122,44.699l-2.94,-1.475l-2.389,-0.672l-2.389,1.288c-33.052,1.476 -39.048,-11.947 -47.465,0.735c-1.613,2.43 -3.185,0.852 -4.812,4.255c-0.904,1.89 -10.066,4.624 -0.685,6.977c2.303,-3.05 3.119,-1.98 28.844,-3.894c9.992,-0.744 15.063,-5.352 15.037,4.576c-24.203,12.265 -24.128,12.306 -50.412,18.841l-2.629,-3.834l-2.389,1.35l-2.389,-1.627l-2.389,0.048c-18.542,1.6 -17.609,-6.171 -38.222,-5.539c-3.627,0.111 -6.041,3.483 -9.365,-0.915c-5.238,-6.931 -5.821,2.733 -9.645,3.073c-6.385,0.567 -5.836,1.849 -12.058,3.312l-2.926,-1.796c1.52,-1.491 10.178,-9.989 20.298,-17.274c7.345,-5.288 12.134,-0.198 16.885,-12.809l-0.5,-1.389c36.393,-6.935 58.337,-2.949 92.78,-6.453c30.551,-3.108 44.317,-18.415 43.821,-19.411c-0.823,-1.653 -2.814,-2.559 -3.637,-4.212c6.703,-4.887 6.649,-4.784 12.363,-10.717l3.338,2.862Z" style="fill:#f3c2bd;"/><path d="M336.198,781.271c-3.671,12.056 -7.664,35.499 -17.238,23.01c-4.849,-6.325 -2.949,-33.829 -29.03,-41.543c-1.305,-0.386 -14.566,-4.309 -15.349,-7.268c-3.249,-12.288 31.983,-2.85 39.45,-37.761c3.175,-14.845 0.489,-17.369 7.099,-18.892c17.846,-4.111 -0.244,35.602 38.454,46.273c34.848,9.609 -4.195,15.741 -13.856,22.553c-7.061,4.978 -5.433,6.119 -9.529,13.628Z" style="fill:#c79f90;"/><path d="M1771.933,1008.733c-2.099,-5.286 -6.187,-67.495 -72.904,-85.457c-31.331,-8.435 21.123,-4.548 49.389,-36.385c24.897,-28.042 20.529,-74.328 31.525,-40.041c24.94,77.762 101.529,67.679 77.736,75.288c-19.199,6.14 -57.58,11.829 -75.874,65.27c-6.238,18.225 -1.92,18.799 -3.025,20.087c-1.415,1.648 -5.432,-0.41 -6.847,1.238Z" style="fill:#f6bac2;"/><path d="M1033.695,1110.96l-0.685,2.608c-86.214,20.17 -118.873,124.853 -123.268,138.942c-1.428,-0.816 -5.156,1.297 -3.972,-5.054c1.447,-7.758 1.874,-10.051 -1.577,-98.568c2.581,1.609 9.17,5.716 38.228,0.594c27.836,-4.906 30.663,-8.017 26.861,-12.739c-3.785,-4.7 -0.241,-7.814 -5.551,-8.668c-8.191,-1.317 -6.786,-3.538 -9.499,-5.535c66.447,-9.436 66.121,-12.984 79.462,-11.581Z" style="fill:#f7c5c7;"/><path d="M929.41,1437.498l4.296,-2.715l1.76,2.343c1.918,5.075 23.781,46.083 27.078,51.02c0.374,0.559 0.351,0.515 4.736,6.95c-2.455,3.809 -3.512,4.011 -1.122,7.745c13.261,20.716 14.881,19.425 28.43,39.855c24.582,37.067 91.107,95.441 138.745,122.51c12.198,6.931 10.781,8.688 11.856,9.235c0.813,0.413 1.792,-0.834 2.677,-0.603c1.031,0.269 1.608,1.386 2.504,1.954c2.239,1.419 25.12,15.922 28.501,16.926c5.814,1.726 3.893,4.621 9.622,6.88c5.2,2.051 5.232,0.758 9.553,-2.41c2.669,-1.956 6.261,4.255 6.585,4.816c0.826,1.428 4.242,7.335 17.398,11.396c6.886,2.126 6.32,3.386 6.937,3.343c0.242,-0.017 7.085,-7.626 9.605,-7.22c0.775,0.125 7.681,1.238 9.799,-0.572c0.587,-0.502 -0.923,-1.534 -0.579,-2.219c1.378,-2.751 2.122,-1.499 5.927,-1.832c4.708,-0.412 5.737,-8.532 20.729,-19.943c5.866,-4.464 3.817,-6.76 8.096,-8.213c6.218,-2.112 43.051,-47.447 46.921,-45.351c1.352,0.732 1.86,2.541 3.212,3.274c-7.537,8.663 -87.142,93.062 -98.567,89.836c-12.59,-3.555 -148.964,-59.205 -243.251,-175.415c-16.9,-23.153 -42.462,-53.947 -61.449,-111.59Z" style="fill:#e5aa76;"/><path d="M1682.821,1092.725c11.856,30.316 19.786,23.477 36.468,32.209c3.247,1.7 5.789,7.925 -4.745,10.956c-43.313,12.466 -24.993,41.066 -38.389,46.281c-12.717,4.95 -6.755,-32.274 -29.404,-41.534c-3.138,-1.283 -24.743,-5.857 -17.492,-14.241c4.531,-5.24 28.354,1.341 36.589,-36.216c0.287,-1.309 3.275,-14.935 7.68,-14.95c4.04,-0.014 8.838,15.981 9.292,17.495Z" style="fill:#c59b89;"/><path d="M1313.302,144.734c26.553,34.451 15.455,77.445 46.965,48.16c20.612,-19.156 34.112,-33.555 59.813,-24.401c12.341,4.396 17.696,41.8 -8.333,68.381c-5.799,5.922 -51.465,52.556 -80.27,64.792c-6.825,2.899 -17.489,7.429 -49.841,-80.495c-1.947,-5.293 -16.411,-44.602 -2.854,-70.76c7.334,-14.15 31.842,-6.512 34.52,-5.677Z" style="fill:#f199a2;"/><path d="M1457.992,578.992c35.188,-37.234 59.923,-63.591 111.322,-106.279c26.208,-21.766 67.027,-49.018 70.752,-50.321c4.808,-1.681 4.807,2.749 0.313,5.122c-22.256,11.753 -99.539,76.038 -149.399,132.396c-63.049,71.266 -57.868,75.107 -87.703,113.042c-22.28,28.33 -27.988,51.916 -54.185,71.2c-1.276,-2.59 -5.788,-3.643 1.568,-12.593c34.898,-42.461 63.492,-95.635 92.909,-127.032c12.12,-12.936 9.689,-14.452 11.413,-16.667c0.257,-0.33 7.372,-3.55 5.945,-6.075c-0.661,-1.169 -2.274,-1.624 -2.935,-2.793Z" style="fill:#ebc08e;"/><path d="M995.699,327.257c-4.315,8.672 -7.302,3.413 -36.406,0.327c-57.463,-6.092 -48.649,-30.849 -36.101,-34.34c24.464,-6.806 37.729,8.997 43.392,-4.251c17.968,-42.036 46.835,-11.073 37.243,18.394c-4.671,14.349 -4.987,14.131 -8.127,19.87Z" style="fill:#f09aa6;"/><path d="M1600.281,607.765c-5.595,7.734 -5.692,7.348 -11.875,14.612l-2.32,-3.097l-0.961,-1.618c-7.112,0.157 -7.707,4.653 -9.617,5.389c-1.725,0.665 -3.888,-2.772 -16.435,10.516c-12.961,13.727 -24.401,2.213 -36.703,10.702c-1.368,0.944 -1.598,0.997 -1.757,1.033c-3.07,0.705 -2.386,1.536 -4.89,3.148c-23.463,-1.518 -24.033,-1.243 -24.849,-3.037c-1.754,-3.859 -1.89,-4.124 -6.194,-4.271c-34.525,-1.174 -34.533,1.839 -37.797,3.719c0.147,-1.091 -1.248,-2.029 -1.102,-3.12c0.042,-0.31 3.98,-1.019 21.773,-15.799c10.4,-7.028 9.749,-7.43 10.638,-8.021c4.298,-2.86 36.643,-12.951 51.577,-7.459c17.709,8.367 62.515,-3.414 70.512,-2.697Z" style="fill:#f2a4ad;"/><path d="M1045.783,646.781c23.687,18.582 27.597,26.77 39.868,12.249c2.943,-3.483 13.418,-20.492 14.866,-9.381c3.657,28.06 4.657,30.356 -4.958,35.622c-4.594,2.516 -18.361,17.046 -81.514,25.545c-2.921,0.393 -9.641,-12.412 -10.274,-13.617c12.636,-7.74 19.534,1.193 25.532,-6.713c13.527,-17.83 1.377,-34.102 16.48,-43.705Z" style="fill:#efc686;"/><path d="M1348.479,982.254c1.626,0.663 3.253,1.326 4.879,1.99c3.151,0.258 18.415,-1.197 13.567,2.77c-7.296,5.97 -21.406,10.823 -23.381,11.503c-6.57,2.26 -8.098,5.626 -1.797,8.177c0.675,0.273 1.322,-1.155 1.997,-0.882c-69.09,33.12 -62.843,42.661 -100.399,82.046c-6.999,7.34 -12.591,-3.492 -13.633,-4.688c-0.003,-4.004 -0.155,-4.012 -0.003,-4.324c31.935,-65.355 107.181,-92.423 118.769,-96.592Z" style="fill:#eaba7c;"/><path d="M1219.553,298.016c3.274,-0.028 33.252,-0.28 40.613,4.925c4.537,3.209 5.481,6.931 8.326,2.289c0.449,-0.733 -1.436,-1.643 -0.987,-2.375c2.013,5.646 1.847,5.449 3.163,11.275c-1.226,-0.023 -2.1,1.563 -3.325,1.54c-2.354,-0.044 -1.022,-5.746 -28.679,-6.454c-49.125,-1.256 -199.746,46.992 -216.663,45.938c1.856,-9.06 3.401,-8.391 6.186,-17.137c1.098,0.662 0.923,2.571 2.021,3.233c1.991,1.2 122.707,-34.744 189.344,-43.234Z" style="fill:#b77d55;"/><path d="M904.041,1416.051l3.697,2.329c0.692,6.27 1.089,6.065 3.662,11.689c-0.967,1.572 -1.933,3.143 -2.9,4.715c0.018,1.149 0.163,10.174 2.414,14.173c5.162,9.17 6.034,9.293 7.577,49.099c0.506,7.11 0.666,6.931 0.998,14.031c7.672,163.885 8.804,163.973 6.538,178.052l-3.258,-2.268c-0.755,-1.716 -6.423,-14.609 -12.053,-20.152c4.333,-0.95 4.565,-0.661 4.666,-1.023c0.368,-1.318 -0.878,-1.163 -1.175,-6.969c-11.464,-224.189 -11.525,-224.21 -10.167,-243.675Z" style="fill:#b47765;"/><path d="M1106.553,1383.491c-0.244,-1.446 -4.863,-13.855 5.888,-8.027c36.089,19.562 65.442,45.03 72.99,33.012c18.966,-30.199 47.123,-107.934 58.149,-105.227c2.003,0.492 16.653,24.577 32.347,50.098c18.977,30.86 17.458,33.777 27.384,35.405c-6.389,3.93 -6.305,3.983 -6.9,4.244c-7.717,3.397 -49.051,-69.027 -50.681,-70.266c-9.508,-7.227 -33.355,65.398 -53.439,92.646c-7.185,9.748 -11.496,9.009 -62.605,-19.019c-0.68,-0.43 -7.176,-4.539 -8.539,-5.306c-13.2,-7.429 -13.53,-6.793 -14.594,-7.56Z" style="fill:#f9cdcb;"/><path d="M539.903,215.304c4.304,-2.419 17.306,-9.728 60.525,13.216c22.31,11.844 28.077,21.839 35.614,8.502c11.555,-20.447 28.961,-48.549 43.858,-20.978c6.382,11.813 20.009,48.32 16.482,51.807c-0.857,0.847 -1.107,1.095 -14.336,4.988c-13.147,-46.339 -15.855,-49.079 -19.005,-52.267c-1.94,-1.723 -1.513,-1.794 -3.343,-3.397c-2.647,-2.319 -2.458,0.079 -5.351,3.728l-2.117,2.343l-0.688,2.343l2.725,3.371c-5.496,6.245 -6.426,5.43 -12.317,17.943c-0.491,0.165 -2.333,-0.405 -5.39,1.81c-12.397,8.985 -19.492,1.624 -33.451,-2.765l-3.153,-1.611c-15.563,-13.559 -49.302,-18.83 -55.612,-23.851c-1.479,-1.727 -2.959,-3.454 -4.438,-5.181Z" style="fill:#f8f0c3;"/><path d="M481.496,563.117c-1.492,5.478 -2.984,10.955 -4.476,16.433c-0.471,-0.6 0.917,-1.628 0.446,-2.228c-0.521,-0.663 -4.828,-5.723 -8.083,6.825c-1.297,5 -2.303,4.361 -4.267,9.299c-21.298,53.555 -0.674,136.125 2.191,147.594c4.022,15.799 5.324,15.199 6.121,16.527c-0.013,2.605 -0.048,9.892 -11.054,30.699c-7.505,14.189 -38.899,-126.697 9.573,-227.435c2.92,-6.07 4.727,-2.274 9.549,2.285Z" style="fill:#e7b583;"/><path d="M530.182,941.903c-12.801,-20.824 13.297,-0.329 67.847,24.691c53.802,23.833 140.605,67.93 203.535,90.573c-0.636,0.35 -1.431,-1.054 -2.067,-0.704c-1.62,0.892 -0.499,3.246 -5.243,2.568c-16.177,-2.309 -20.583,-8.174 -23.709,-9.194c-0.843,-0.275 -1.749,0.963 -2.581,0.656c-1.073,-0.397 -1.248,-2.124 -2.337,-2.475c-0.084,-0.027 -2.037,1.379 -4.836,0.145c-38.702,-17.051 -38.612,-16.83 -78.332,-31.541c-12.367,-4.58 -116.689,-51.985 -141.027,-67.573c-0.898,-0.575 -0.833,-0.529 -11.248,-7.146Z" style="fill:#ba7f51;"/><path d="M1480.785,432.356c2.058,-3.55 10.659,-18.387 37.559,-35.335c9.98,-6.288 -11.906,30.707 0.527,48.06l-2.02,3.13c-0.939,0.493 -0.078,2.477 -1.017,2.97c-1.27,0.667 -2.939,-0.578 -4.318,-0.169c-6.003,1.782 9.972,30.699 -1.364,48.14c-6.695,10.3 -10.33,2.199 -10.19,-1.519c0.062,-1.626 1.017,-3.397 0.315,-4.871c-0.349,-0.733 -3.822,0.518 -2.947,-4.666c0.503,-2.98 -3.853,-14.514 -5.658,-16.303c-2.418,-2.398 -8.138,-3.375 -7.573,-9.562c0.561,-6.137 -2.183,-5.019 -9.729,-12.037c2.236,-6.134 2.023,-5.941 4.489,-11.852l1.925,-5.987Z" style="fill:#f3cfc8;"/><path d="M1106.553,1383.491c1.064,0.767 1.394,0.131 14.594,7.56c1.363,0.767 7.86,4.876 8.539,5.306c0.022,1.311 -2.24,1.965 -2.218,3.276c0.039,2.292 36.75,88.652 37.191,92.992c-4.645,-0.34 -30.961,-0.122 -33.095,-6.431c-13.558,-40.077 -23.49,-94.388 -25.011,-102.702Z" style="fill:#ef879b;"/><path d="M959.242,216.475c93.448,-10.022 168.262,19.341 181.901,24.695c3.022,1.455 26.114,10.426 22.616,14.207c-1.65,1.783 -2.449,-0.269 -30.103,5.887c-14.195,3.16 -24.707,-22.892 -105.418,-37.181c-49.069,-8.687 -68.957,0.581 -69.888,-5.898c-0.091,-0.634 0.983,-1.075 0.892,-1.709Z" style="fill:#f4dba4;"/><path d="M1184.351,359.303c0.624,-0.319 7.722,-3.949 8.457,-2.395c10.092,21.342 -61.203,167.572 -61.616,170.369c-1.224,0.292 -7.596,1.815 -14.378,6.289l-3.273,0.52c22.107,-61.755 32.802,-57.637 70.81,-174.783Z" style="fill:#a15357;"/><path d="M1425.702,1204.724c-20.552,-29.512 -30.038,-20.316 -36.864,-32.183c-18.856,-32.779 38.005,-34.727 57.098,9.402c8.561,19.786 1.16,50.245 -20.234,22.781Z" style="fill:#fafaee;"/><path d="M1019.018,396.886c-3.337,11.69 -43.658,64.498 -37.599,140.306c0.283,3.537 2.129,26.637 10.382,43.162c-5.442,5.352 -5.867,4.726 -13.565,6.123c1.22,-3.009 -0.623,-3.049 -6.408,-39.987c-11.29,-72.095 18.179,-118.584 27.084,-133.822c2.628,-4.497 3.102,-3.877 6.948,-7.506c0.918,-0.866 0.767,-1.407 0.731,-1.538c-1.18,-4.238 -4.216,-2.517 -4.537,-2.709c8.476,-2.384 8.127,-2.943 16.963,-4.03Z" style="fill:#9e5056;"/><path d="M663.306,310.73l-1.847,-3.123l1.381,-2.246c-1.444,-0.114 -9.483,-0.751 -16.963,6.205c-4.411,4.102 -1.927,5.191 3.148,8.458c-5.982,4.148 -15.182,11.159 -16.485,12.152c-33.985,27.519 -33.568,27.632 -64.821,58.025c-10.23,9.948 -5.226,-9.202 7.728,-25.596c49.055,-62.08 133.805,-94.328 135.089,-80.432c0.393,4.254 -3.382,1.344 -47.231,26.556Z" style="fill:#eec28e;"/><path d="M1192.951,537.656c10.519,10.366 15.07,11.446 19.705,34.721c6.289,31.575 -24.176,48.332 -35.933,25.702c-6.367,-12.256 30.507,-2.682 20.532,-27.71c-16.155,-40.533 -55.357,3.251 -51.53,-12.009c6.8,-27.114 18.398,-39.231 47.226,-20.704Z" style="fill:#eac7af;"/><path d="M598.045,249.64c6.601,4.384 20.629,7.912 19.238,36.869c-1.284,26.723 -42.78,9.868 -47.762,-4.621c-0.423,-1.229 -13.05,-43.955 14.253,-36.823c1.161,0.303 1.057,0.339 14.271,4.575Z" style="fill:#cf8274;"/><path d="M477.019,579.55c-0.872,3.869 -19.239,72.948 2.196,156.718c0.984,3.845 3.208,3.618 3.736,3.99c-0.48,1.078 -1.313,-0.526 -1.782,0.527c-0.153,0.343 0.726,0.378 -0.523,4.651c0,0 -6.642,11.16 -7.22,12.131c-0.798,-1.328 -2.099,-0.728 -6.121,-16.527c-2.865,-11.47 -23.489,-94.04 -2.191,-147.594c1.964,-4.938 2.97,-4.299 4.267,-9.299c3.255,-12.548 7.562,-7.488 8.083,-6.825c0.471,0.6 -0.917,1.628 -0.446,2.228Z" style="fill:#a86754;"/><path d="M1148.228,1061.557l-2.741,2.077c-0.361,0.001 -4.518,0.018 -4.518,0.018c-6.43,-2.497 -20.758,-8.06 -86.242,-5.795c-35.431,1.225 -34.527,8.915 -143.329,16.811c-5.976,0.434 -27.824,3.501 -31.126,1.165c-1.11,-0.785 -1.561,-2.362 -2.788,-2.957c-0.692,-0.336 -1.565,0.845 -2.257,0.509c45.649,-6.085 203.44,-38.542 273.002,-11.828Z" style="fill:#c49b6b;"/><path d="M892.161,1128.218c0.974,-0.045 7.243,-0.331 12.192,-0.07c-0.845,10.469 -0.487,10.273 -0.159,20.74c3.451,88.517 3.023,90.81 1.577,98.568c-1.184,6.351 2.543,4.239 3.972,5.054c-4.424,16.147 -2.824,16.347 -7.11,32.399c-0.963,3.607 -3.576,4.388 -3.734,4.582c-5.838,-19.489 -4.236,-93.294 -7.804,-135.637c1.676,-12.391 0.246,-20.568 1.067,-25.637Z" style="fill:#b37566;"/><path d="M1590.156,810.089c-5.915,1 -15.489,8.695 -17.687,-12.592c-3.744,-36.255 10.169,-48.316 15.607,-35.601c2.245,5.249 1.019,22.563 11.394,21.248c0.131,-0.017 29.848,-8.376 26.665,7.288c-2.086,10.265 -32.809,18.779 -35.98,19.658Z" style="fill:#eb99a5;"/><path d="M1629.246,580.553c-19.37,15.589 -20.443,16.684 -22.044,18.318c-0.334,-0.152 -0.35,-4.336 -5.046,-2.303c-16.243,7.033 -16.425,5.874 -33.539,9.666l-2.606,-2.389l-2.389,-0.595l-2.389,0.255l-2.389,-0.794l-2.389,-0.116c-4.358,1.136 -6.628,0.73 -7.197,0.628c-24.912,-4.454 -50.135,-3.096 -54.384,-5.079c-1.051,-0.49 -0.359,-2.641 -1.41,-3.131c16.449,-6.413 17.116,-3.417 34.322,-7.577c20.969,-5.07 60.2,11.876 95.759,-9.668c2.086,-1.264 2.085,-1.265 2.269,-1.175c2.535,1.239 0.931,2.738 3.434,3.961Z" style="fill:#e8ba85;"/><path d="M1533.056,1024.716c-6.647,66.98 -9.06,73.504 -10.376,110.007c-0.374,10.367 -5.432,-5.781 -17.407,-22.777c0.699,-1.185 2.271,-1.71 2.97,-2.895c1.689,-2.863 2.638,-54.355 7.718,-77.281c7.602,-1.813 7.039,-2.898 14.208,-5.698l2.887,-1.355Z" style="fill:#fbedd7;"/><path d="M1457.992,578.992c0.661,1.169 2.274,1.624 2.935,2.793c1.427,2.525 -5.689,5.746 -5.945,6.075c-1.724,2.215 0.707,3.731 -11.413,16.667c-29.416,31.397 -58.01,84.571 -92.909,127.032c-7.356,8.95 -2.844,10.003 -1.568,12.593c-9.179,8.141 -9.162,8.57 -10.168,8.256c-3.335,-1.04 -7.436,-4.345 15.858,-39.981c49.629,-75.925 88.753,-116.697 103.21,-133.436Z" style="fill:#f5deb6;"/><path d="M988.445,1196.348c-19.104,20.974 -23.752,2.173 -20.501,-5.504c8.821,-20.831 52.273,-60.264 57.976,-37.237c2.755,11.127 -9.737,11.957 -37.475,42.741Z" style="fill:#f8f5cb;"/><path d="M954.233,1122.541c2.713,1.997 1.309,4.218 9.499,5.535c5.31,0.854 1.767,3.968 5.551,8.668c3.802,4.722 0.975,7.832 -26.861,12.739c-29.058,5.122 -35.647,1.015 -38.228,-0.594c-0.328,-10.467 -0.686,-10.271 0.159,-20.74c15.182,-3.343 15.32,-0.628 49.88,-5.607Z" style="fill:#efaeb6;"/><path d="M1355.229,749.761c4.722,3.076 4.948,3.512 10.133,1.256c4.753,-2.068 14.5,-2.758 19.203,-1.219c15.196,4.972 13.283,16.801 14.831,21.802l0.089,2.343l2.225,2.6c-16.696,29.629 -43.055,1.668 -29.076,-9.463c10.265,-8.173 9.599,14.657 15.79,8.581c8.218,-8.067 -8.136,-40.377 -47.927,-0.202c-11.534,11.645 -14.769,7.719 -25.289,0.605c4.853,-9.86 2.494,-12.361 12.864,-16.122c0.563,6.39 -0.843,12.042 4.051,7.606c10.895,-9.875 10.802,-9.772 23.105,-17.788Z" style="fill:#d9a172;"/><path d="M1725.563,456.584c0.823,1.653 2.814,2.559 3.637,4.212c0.496,0.996 -13.27,16.303 -43.821,19.411c-34.444,3.504 -56.388,-0.482 -92.78,6.453c-2.767,-1.386 -5.534,-2.772 -8.3,-4.157c1.56,-1.485 3.119,-2.97 4.679,-4.455c1.373,0.531 2.119,2.138 3.492,2.669c2.303,0.892 15.222,-8.705 16.672,-8.801c59.593,-3.94 61.987,7.681 116.422,-15.331Z" style="fill:#c69177;"/><path d="M804.546,1478.834c-18.109,58.624 -38.461,74.188 -59.858,115.513l-1.042,1.971c-4.163,7.23 -10.88,16.771 -11.342,16.824c-0.595,0.068 -1.705,-4.252 -9.737,-0.273c-6.167,3.055 -9.23,9.237 -9.478,2.405c-0.066,-1.818 17.453,-23.796 19.053,-25.804c0.734,-0.92 0.832,-2.784 2.018,-2.893c1.225,-0.113 1.624,1.893 2.712,2.458c3.765,1.956 10.571,-12.808 11.481,-16.254c1.176,-4.455 7.986,-0.969 27.737,-50.68c13.599,-34.229 17.49,-34.981 20.773,-35.616c1.137,-0.22 3.4,-5.471 3.621,-5.983c1.354,-3.141 0.709,-3.391 0.982,-3.503c2.078,-0.852 1.105,2.647 3.081,1.836Z" style="fill:#cf925e;"/><path d="M1293.15,703.177c1.776,-1.07 14.754,-8.887 26.038,-0.85c19.462,13.86 8.995,47.777 8.885,57.616c-10.37,3.761 -8.011,6.262 -12.864,16.122c-1.128,-0.724 -5.261,-0.55 -2.964,-6.997c4.55,-12.771 5.973,-12.148 8.642,-25.451c4.409,-40.99 -23.999,-31.414 -26.095,-27.534c-5.517,10.21 15.996,1.998 13.146,13.33c-3.741,14.877 -42.985,0.8 -14.788,-26.236Z" style="fill:#ebbb8a;"/><path d="M1240.67,1390.094l3.932,2.508c-1.683,7.781 4.304,30.401 10.67,29.184c2.468,-0.472 9.917,-0.456 10.78,-0.454c-12.85,37.794 -18.09,36.982 -20.305,34.638c-1.988,-2.103 -22.071,-28.163 -21.724,-32.898c0.044,-0.606 0.241,-0.511 3.25,-6.896c6.165,-13.321 5.86,-13.29 13.397,-26.081Z" style="fill:#f0a2ac;"/><path d="M1157.406,1029.707c0.044,-1.595 1.306,-0.981 1.352,-2.676c0.011,-0.388 -0.477,-0.254 -1.151,-4.714c-0.115,-0.763 -2.338,-90.228 0.971,-95.358c17.854,-27.678 10.765,100.412 9.062,106.356c-5.39,-1.291 -5.276,-1.199 -10.235,-3.608Z" style="fill:#a0545a;"/><path d="M606.419,376.005c-0.657,4.58 -9.396,41.541 23.447,94.144c-3.183,5.591 -3.016,5.683 -8.635,8.451c-19.17,-24.37 -26.323,-57.135 -26.755,-58.693c-2.304,-13.969 -1.699,-13.876 -0.986,-27.933c0,-0 -2.406,-3.213 -2.615,-3.492c6.121,-6.124 4,-8.663 12.231,-11.35l3.312,-1.128Z" style="fill:#a56958;"/><path d="M1120.551,1519.474c1.395,-0.085 2.036,-2.28 3.431,-2.365c2.485,-0.151 3.676,14.068 14.573,15.04c16.289,1.452 16.375,7.48 30.715,2.126c5.119,-1.911 6.293,6.313 26.392,-1.434c3.317,-1.279 2.25,3.207 7.195,2.844c51.2,-3.759 53.281,-4.686 57.496,-6.565c3.522,-1.57 23.725,-4.422 26.518,-6.715c4.998,-4.103 4.975,-0.188 9.35,4.558c-12.265,3.177 -98.523,25.521 -158.113,11.751c-13.896,-3.211 -14.053,-10.767 -17.558,-19.24Z" style="fill:#865349;"/><path d="M1688.862,684.889c0.75,-2.683 9.465,-33.866 31.691,-15.592c27.35,22.487 -25.353,57.594 -31.691,15.592Z" style="fill:#e3b0af;"/><path d="M1480.785,432.356l-1.925,5.987c-2.466,5.911 -2.253,5.718 -4.489,11.852c-20.393,60.703 -8.132,90.427 -15.751,105.82c-1.79,3.616 -1.075,3.663 0.29,7.464c-3.069,3.204 -6.138,6.409 -9.208,9.613c-4.09,-4.347 -4.58,-4.202 -4.404,-4.681c0,0 3.205,-4.943 3.483,-5.373c9.747,-15.201 -1.361,-17.478 10.513,-95.907c2.452,-11.137 2.94,-13.218 9.208,-23.57c2.07,-3.418 -0.802,-5.554 -0.811,-5.619c6.134,-5.201 6.585,-4.246 13.093,-5.586Z" style="fill:#c58d7c;"/><path d="M1104.494,745.014c-24.755,13.968 -24.165,15.651 -52.307,21.308c-35.125,7.06 -44.887,24.886 -43.76,12.191c1.3,-14.641 46.595,-15.251 77.22,-32.869c48.131,-27.689 66.57,-17.678 56.85,-12.519c-5.655,3.002 -11.294,-1.865 -38.003,11.89Z" style="fill:#ad8976;"/><path d="M1457.878,1495.447c3.448,-6.187 3.483,-5.88 6.814,-11.982c4.585,-8.399 15.194,-33.398 14.449,-20.453c-0.249,4.325 -1.033,4.177 -7.393,53.667c-2.232,21.177 2.556,23.069 -10.713,40.061c-1.008,1.291 -5.941,9.503 -6.442,10.338c-6.831,-7.074 -2.22,-8.27 0.416,-22.363c3.097,-16.559 7.129,-45.389 6.194,-46.642c-0.84,-1.126 -2.485,-1.499 -3.325,-2.625Z" style="fill:#f9e3cc;"/><path d="M1643.085,566.388c-4.969,9.472 -12.129,12.859 -13.84,14.165c-2.504,-1.223 -0.899,-2.722 -3.434,-3.961c-0.184,-0.09 -0.182,-0.089 -2.269,1.175c-35.559,21.545 -74.79,4.599 -95.759,9.668c-17.206,4.16 -17.873,1.164 -34.322,7.577c-9.929,3.15 -9.182,4.251 -17.188,10.635c-0.103,-1.876 -1.437,-1.202 -1.534,-2.966c-0.01,-0.172 -0.013,-0.228 1.273,-1.761c8.27,-9.86 8.952,-9.112 20.964,-13.69c53.842,-15.8 85.983,4.151 124.35,-14.166c10.489,-5.007 10.298,-5.478 21.758,-6.676Z" style="fill:#cc9179;"/><path d="M553.501,1009.819l-0.424,3.152c1.584,7.044 1.923,6.935 0.302,13.865c4.284,25.956 -2.683,46.69 7.89,62.194c-7.024,6.198 -7.048,6.091 -7.586,6.694c-3.241,3.626 -2.947,5.233 -5.56,4.011c-6.265,-2.93 -1.306,-5.036 -1.787,-11.808c-5.379,-75.604 -6.657,-75.409 -6.988,-81.982c-0.297,-5.879 12.492,2.986 14.153,3.875Z" style="fill:#f2c1b0;"/><path d="M1515.466,1019.298l-0.455,3.047c-0.976,4.625 0.667,8.72 0.95,9.425c-5.08,22.926 -6.029,74.417 -7.718,77.281c-0.699,1.185 -2.271,1.71 -2.97,2.895c-2.174,-2.404 -4.347,-4.808 -6.521,-7.212c3.946,-8.426 -1.57,-9.181 -1.9,-9.701c-1.929,-3.033 1.278,-3.284 3.652,-44.545c0.14,-20.984 0.868,-24.934 1.262,-27.067c8.621,-2.122 12.636,-3.704 13.7,-4.123Z" style="fill:#d8a2a2;"/><path d="M1524.243,223.63c3.255,9.717 5.895,7.377 14.826,12.288c12.621,6.94 -10.891,7.606 -14.232,17.566c-0.353,1.053 -3.998,11.917 -6.564,12.273c-7.418,1.029 -6.698,-15.249 -16.514,-19.541c-7.735,-3.382 -12.024,-6.547 -4.299,-10.111c12.445,-5.741 11.425,-7.219 16.443,-19.596c0.148,-0.366 1.202,-2.964 4.302,-2.542c2.894,0.395 2.091,1.348 6.038,9.662Z" style="fill:#e6cb9e;"/><path d="M321.371,773.865c-8.369,-13.55 -10.556,-11.239 -20.915,-17.182c-6.221,-3.569 5.165,-1.463 13.752,-15.393c7.956,-12.907 5.019,-13.752 5.522,-16.104c1.909,-8.93 8.014,9.12 9.355,10.895c11.463,15.172 21.478,14.22 14.333,19.952c-14.849,11.913 -14.042,14.8 -17.379,20.357c-1.556,-0.842 -3.112,-1.683 -4.668,-2.525Z" style="fill:#e7ba85;"/><path d="M689.044,857.971c-51.537,9.175 -69.955,17.95 -65.981,2.872c1.493,-5.663 3.248,-5.3 54.153,-16.376c12.307,-2.678 23.15,9.7 11.828,13.504Z" style="fill:#e7b27e;"/><path d="M435.608,1082.503c-38.816,5.462 -24.043,-46.424 4.366,-30.871c5.587,3.059 16.15,20.983 -4.366,30.871Z" style="fill:#e2a8a6;"/><path d="M1493.462,595.012c1.051,0.49 0.359,2.641 1.41,3.131c4.25,1.983 29.472,0.625 54.384,5.079c0.569,0.102 2.838,0.507 7.197,-0.628l2.389,0.116l2.389,0.794l2.389,-0.255l2.389,0.595l2.606,2.389c-28.882,1.986 -32.234,-0.28 -36.082,0.657c-1.479,0.36 -1.287,3.21 -2.765,3.57c-14.934,-5.492 -47.28,4.599 -51.577,7.459c-0.888,0.591 -0.237,0.993 -10.638,8.021c-4.458,-4.364 -7.685,-5.536 -2.516,-9.291c6.467,-4.698 6.823,-4.158 11.236,-11.004c8.005,-6.385 7.259,-7.485 17.188,-10.635Z" style="fill:#dfa188;"/><path d="M580.376,1491.098c2.965,0.972 2.826,0.918 5.462,2.564l0.541,2.051c7.787,26.935 32.761,79.958 40.321,93.747c-0.67,0.086 -1.281,3.233 -6.503,-0.596c-17.733,-13.003 -11.136,-17.725 -22.993,-36.21c-4.881,-7.61 -6.738,-8.071 -8.845,-21.733c-3.113,-20.179 -3.645,-19.831 -7.982,-39.823Z" style="fill:#efb8b6;"/><path d="M490.437,330.787l2.451,2.598l0.31,2.904c3.366,-1.614 3.86,-2.464 6.363,0.308c2.681,2.968 48.401,28.824 53.124,29.983c1.984,0.487 4.148,-0.282 6.133,0.204c-6.229,9.002 -5.15,15.105 -15.031,10.372c-14.64,-7.014 -55.133,-31.277 -55.995,-39.036c-0.414,-3.729 0.638,-3.383 2.645,-7.332Z" style="fill:#edba98;"/><path d="M1695.44,1129.889c-6.551,5.915 -17.391,14.737 -19.819,25.752c-1.921,8.716 -4.727,-7.37 -7.712,-10.613c-10.616,-11.533 -15.998,-11.889 -10.754,-16.948c9.279,-8.951 8.357,-9.551 14.574,-20.814c5.375,-9.738 1.41,8.246 23.711,22.623Z" style="fill:#e8bd88;"/><path d="M1457.878,1495.447c0.84,1.126 2.485,1.499 3.325,2.625c0.935,1.253 -3.097,30.083 -6.194,46.642c-2.636,14.093 -7.247,15.29 -0.416,22.363c-8.48,13.622 -6.734,14.525 -12.136,20.255c-0.468,-1.148 -2.257,-1.424 -2.725,-2.572c-0.2,-0.49 5.521,-53.873 6.023,-58.555l0.698,-2.361c0.364,-0.384 4.547,-4.794 4.547,-4.794c4.904,-6.317 0.557,-6.643 -2.226,-9.354c4.424,-7.25 4.055,-7.257 9.104,-14.249Z" style="fill:#cd9290;"/><path d="M635.758,1604.307c4.908,9.879 3.743,10.118 8.882,19.849c22.692,42.97 25.011,41.618 26.916,45.38c5.122,10.115 -3.969,1.032 -13.36,-5.283c-22.755,-15.3 -28.086,-14.129 -25.439,-25.28c7.223,-30.428 -0.966,-30.451 -0.212,-32.983c0.844,-2.833 3.086,-1.615 3.213,-1.682Z" style="fill:#ea9da2;"/><path d="M1143.302,816.806c24.152,-3.541 29.323,31.33 19.023,36.982c-15.225,8.355 -12.794,-14.971 -12.623,-16.62c1.198,-11.501 -26.867,7.192 -21.705,-4.868c4.535,-10.596 13.708,-14.768 15.304,-15.494Z" style="fill:#e7c0a6;"/><path d="M1755.817,418.35c-5.78,11.42 -4.001,12.001 -10.354,22.943c-1.622,-0.163 -0.935,-3.928 -2.557,-4.091c-3.189,-0.32 -15.638,16.068 -52.645,15.677c-18.452,-0.195 3.778,-7.484 4.464,-7.709c4.695,-1.539 34.687,-11.373 55.098,-27.631c4.53,-3.608 5.33,0.721 5.995,0.811Z" style="fill:#cb906b;"/><path d="M1588.406,622.377c-15.611,16.437 -14.194,18.089 -38.489,33.105c-0.192,-1.899 -1.324,-1.345 -1.531,-3.395c-0.304,-3.003 1.018,-2.645 0.898,-2.853c-0.394,-0.685 -1.621,0.039 -2.389,0.261c-13.065,3.771 -27.243,-0.171 -31.173,-1.045c2.504,-1.612 1.819,-2.443 4.89,-3.148c0.16,-0.037 0.39,-0.089 1.757,-1.033c12.302,-8.489 23.742,3.025 36.703,-10.702c12.547,-13.288 14.71,-9.851 16.435,-10.516c1.91,-0.736 2.506,-5.232 9.617,-5.389l0.961,1.618l2.32,3.097Z" style="fill:#ec929d;"/><path d="M1050.122,791.479c27.692,-4.218 30.496,-5.464 32.946,-6.553c14.621,-6.499 29.99,-17.51 36.12,-17.617c0.956,-0.017 6.897,2.905 -5.312,10.502c-35.476,22.076 -58.772,20.487 -59.084,20.529c-21.448,2.855 -21.552,12.536 -28.992,11.657c-2.446,-0.289 -8.175,-9.981 24.322,-18.517Z" style="fill:#ab8575;"/><path d="M1106.603,689.851c-0.457,9.933 -2.939,9.326 -22.537,19.615c-20.88,10.962 -68.326,25.455 -69.725,10.561c-0.355,-3.774 34.896,-1.623 70.947,-19.686c10.609,-5.316 10.415,-5.405 17.339,-10.209c2.06,-1.43 2.761,-1.479 3.032,-1.498c0.95,-0.067 -0.125,1.293 0.945,1.217Z" style="fill:#f0c293;"/><path d="M1555.916,518.132l2.926,1.796c6.223,-1.463 5.673,-2.745 12.058,-3.312c3.824,-0.34 4.406,-10.004 9.645,-3.073c3.324,4.398 5.738,1.027 9.365,0.915c20.613,-0.632 19.681,7.139 38.222,5.539l2.389,-0.048l2.389,1.627l2.389,-1.35l2.629,3.834c-7.958,2.275 -15.915,4.551 -23.873,6.826c-8.846,-12.279 -11.356,-8.876 -26.57,-8.458c-9.784,0.269 -10.629,-1.804 -31.578,7.397c-0.721,0.452 -9.014,5.65 -9.014,5.65c0,0 -4.753,-3.077 -5.166,-3.345c1.043,-1.203 5.41,-6.241 14.187,-13.998Z" style="fill:#ebb8b5;"/><path d="M1261.147,887.646c15.764,10.768 -14.057,25.548 -26.872,39.338c-7.417,7.982 -1.725,-7.413 -1.498,-8.026c6.394,-17.291 6.484,-45.233 28.37,-31.311Z" style="fill:#edc996;"/><path d="M886.267,1675.647c3.016,-2.848 7.839,-8.303 21.609,12.868c14.872,22.868 15.292,58.017 15.996,62.333c-4.444,2.437 -5.9,6.978 -7.003,2.228c-6.008,-25.863 1.144,-28.447 -24.52,-72.291c-2.027,-1.713 -4.054,-3.425 -6.082,-5.138Z" style="fill:#f9e1a3;"/><path d="M1343.852,401.493c20.634,-2.363 19.907,14.999 17.562,21.281c-8.517,22.818 -50,-4.731 -17.562,-21.281Z" style="fill:#e0c292;"/><path d="M1292.704,805.638c7.465,-4.633 23.932,2.551 19.014,9.778c-8.778,12.899 -23.736,38.565 -28.152,44.887c-3.408,4.879 -10.809,-1.642 -11.444,-1.998c4.305,-7.296 8.527,-11.687 15.245,-23.009c7.109,-11.98 13.421,-10.887 9.239,-24.186c-1.081,-3.437 -1.901,-2.666 -3.902,-5.471Z" style="fill:#dea97c;"/><path d="M1461.433,715.026c-0.08,0.064 -0.036,2.644 -3.072,2.484c-28.601,-1.503 -28.459,-0.593 -30.918,-0.862c-30.801,-3.373 -30.937,-2.284 -33.491,-3.117c-5.08,-1.657 -0.11,-2.761 4.262,-7.992c2.284,-2.733 1.294,-4.523 5.284,-4.117c29.833,3.034 29.981,2.592 57.935,13.604Z" style="fill:#d86978;"/><path d="M1159.686,344.369c37.725,-7.025 100.553,-26.476 84.543,38.474c-0.183,-0.306 -4.274,-0.172 -2.957,-4.934c0.209,-0.757 -1.68,-13.767 -0.775,-18.865c0.259,-1.46 1.817,-10.233 -11.383,-14.776c-9.539,-0.938 -13.695,-5.332 -50.24,2.431c-3.776,0.802 -10.095,0.191 -11.883,0.65c-0.819,0.21 -1.692,1.313 -2.389,0.843c-2.158,-1.456 -0.488,-2.569 -2.581,-4.197c-1.051,-0.818 -1.181,1.272 -2.334,0.374Z" style="fill:#7d3d24;"/><path d="M1656.813,344.937c0.952,0.054 0.872,-0.273 11.918,0.106c-29.25,26.347 -33.175,23.297 -51.311,55.773c-1.959,3.441 -5.634,10.928 -7.964,14.994c-0.846,-1.246 -2.775,-1.503 -3.621,-2.749c0,0 1.715,-5.896 1.864,-6.409c11.751,-25.669 16.35,-31.785 30.773,-46.586c8.473,-8.696 12.363,-4.611 18.342,-15.129Z" style="fill:#b68b6c;"/><path d="M1045.783,646.781c-15.103,9.603 -2.953,25.875 -16.48,43.705c-5.998,7.906 -12.897,-1.027 -25.532,6.713c-4.766,-9.75 -15.088,-16.153 -4.053,-14.386c8.96,1.435 24.831,11.925 29.427,-9.462c4.961,-23.084 2.741,-38.489 16.638,-26.57Z" style="fill:#f7dcb6;"/><path d="M1292.704,805.638c2.001,2.806 2.821,2.035 3.902,5.471c4.182,13.299 -2.13,12.206 -9.239,24.186c-6.719,11.323 -10.941,15.714 -15.245,23.009c-0.629,-0.363 -7.868,-4.541 -7.868,-4.541c-1.438,-5.167 25.893,-44.449 28.45,-48.126Z" style="fill:#f6dfaa;"/><path d="M1705.142,493.429c-8.232,6.171 -7.894,6.353 -16.8,11.791c0.026,-9.928 -5.046,-5.32 -15.037,-4.576c-25.724,1.915 -26.541,0.844 -28.844,3.894c-9.382,-2.353 -0.219,-5.087 0.685,-6.977c1.627,-3.403 3.199,-1.825 4.812,-4.255c8.417,-12.682 14.413,0.741 47.465,-0.735l2.389,-1.288l2.389,0.672l2.94,1.475Z" style="fill:#efbfbd;"/><path d="M1224.047,811.653c-0.769,-2.519 -8.239,-20.98 7.28,-17.871c47.258,9.467 46.05,16.001 44.455,19.486c-2.063,4.51 -2.278,4.172 -5.51,8.074c-0.967,-4.169 -2.008,-3.762 -1.839,-7.925c0.055,-1.36 0.565,-1.362 -0.417,-2.289c-5.517,-5.211 -6.913,0.105 -7.845,0.432c-2.804,0.984 -9.301,-2.308 -9.615,-2.386c-14.337,-3.547 -16.604,-8.486 -26.508,2.479Z" style="fill:#ebb88a;"/><path d="M1555.909,529.826c20.948,-9.201 21.794,-7.128 31.578,-7.397c15.214,-0.418 17.725,-3.821 26.57,8.458c-9.467,2.271 -9.226,2.618 -18.803,4.869l-2.961,-1.192c-16.763,-0.737 -22.203,-1.589 -31.067,0.27c-4.268,0.895 -3.311,-1.28 -5.316,-5.009Z" style="fill:#f8d2ce;"/><path d="M579.166,256.044l3.295,2.352c0.757,1.849 5.543,13.541 20.817,14.262c1.429,0.067 1.928,-2.69 3.357,-2.623c0.651,1.553 9.906,23.629 -3.466,20.71c-8.974,-1.959 -28.945,-11.703 -24.07,-30.008c0.097,-0.363 0.005,-0.348 0.069,-4.693Z" style="fill:#f0939f;"/><path d="M1084.642,1337.836c27.658,-20.803 34.263,32.455 8.166,27.077c-0.597,-0.123 -0.527,-0.2 -7.115,-2.697c7.908,-8.523 5.436,-9.735 3.49,-21.169l-4.541,-3.211Z" style="fill:#f3a9af;"/><path d="M894.383,1765.235c3.035,30.002 1.198,56.937 22.584,69.575c-3.782,1.445 -3.663,2.825 -10.441,0.747c-1.825,-0.56 -1.662,-0.458 -3.132,-1.742c-14.894,-13.015 -14.554,-62.957 -14.656,-63.856c-0.444,-3.902 -5.93,-11.958 2.948,-7.1l2.697,2.376Z" style="fill:#c58454;"/><path d="M1240.67,1390.094c3.674,-5.099 2.374,-10.485 7.222,-6.476c1.45,1.199 10.293,15.424 11.144,16.792c2.692,4.33 9.749,12.406 7.017,20.922c-0.863,-0.002 -8.312,-0.018 -10.78,0.454c-6.366,1.217 -12.353,-21.403 -10.67,-29.184l-3.932,-2.508Z" style="fill:#fbe4e0;"/><path d="M688.609,981.299c1.262,-0.842 1.641,-2.63 2.903,-3.472c2.38,-1.588 9.024,3.266 14.495,4.383c0.469,0.096 0.342,0.277 4.619,3.743c0.707,0.371 1.683,-0.633 2.389,-0.262c0.938,0.492 0.899,2.165 1.902,2.514c2.383,0.829 2.584,-1.629 4.699,-0.187c2.609,1.779 2.703,1.077 36.498,15.378c18.24,7.719 19.187,7.279 19.024,8.971c-0.149,1.54 -2.583,2.251 -2.731,3.791c-43.355,-17.507 -43.283,-17.176 -83.799,-34.859Z" style="fill:#6b3621;"/><path d="M639.47,356.61c1.599,5.716 3.161,32.499 23.913,63.139c4.051,5.982 -3.148,6.108 -4.832,2.384c-1.288,-2.848 -3.685,-1.244 -21.003,-33.05c-2.37,-25.679 -5.897,-32.849 -0.99,-33.02c0.988,-0.034 1.924,0.581 2.912,0.547Z" style="fill:#d1a066;"/><path d="M1497.599,936.601c-5.284,4.033 -13.366,10.201 -79.486,25.675l-2.631,-3.651c0.621,-0.473 -0.33,-2.679 3.901,-2.971c0.262,-0.018 2.807,-0.194 3.267,-0.335c15.586,-4.772 15.35,-4.951 16.725,-5.232c0.817,-0.167 1.573,0.897 2.389,0.73c3.449,-1.46 3.197,-1.905 7.168,-1.752c3.665,-1.382 3.432,-1.604 7.074,-2.667c17.129,-5 17.767,-2.971 33.359,-11.645c4.343,-2.416 4.398,-0.565 8.234,1.848Z" style="fill:#6a3a23;"/><path d="M1607.201,598.871l-6.92,8.894c-7.997,-0.717 -52.803,11.063 -70.512,2.697c1.479,-0.36 1.287,-3.21 2.765,-3.57c3.848,-0.938 7.2,1.329 36.082,-0.657c17.114,-3.793 17.297,-2.634 33.539,-9.666c4.696,-2.033 4.712,2.151 5.046,2.303Z" style="fill:#be7d77;"/><path d="M1233.061,1260.275c0.569,2.563 2.119,2.18 1.315,5.928c-3.434,15.998 11.387,11.773 21.551,16.543c-17.614,27.061 -49.22,-5.33 -22.866,-22.471Z" style="fill:#f1abae;"/><path d="M572.48,1097.984c-0.396,-0.8 -6.467,-2.289 -0.09,-7.527c0.445,-0.366 0.833,1.145 6.823,-2.439c4.673,-2.795 20.823,-4.61 30.964,0.212c12.071,5.739 16.845,8.208 19.43,11.25c4.916,5.786 6.904,3.549 11.278,9.601c0.554,0.766 -0.827,2.14 -0.159,2.813c1.263,1.273 3.464,1.14 5.006,2.07c3.497,2.109 0.694,2.741 -2.387,7.109c-35.138,-44.898 -65.794,-26.184 -70.866,-23.088Z" style="fill:#6a3527;"/><path d="M1143.909,577.246c6.212,-9.638 16.463,-10.703 16.608,-7.292c0.164,3.856 -4.262,20.022 10.019,36.628c1.333,1.55 10.664,7.987 5.744,9.938c-1.053,0.418 -1.013,0.278 -13.677,3.751l-0.034,-3.334c0.549,-1.138 2.469,-1.206 3.018,-2.343c2.619,-5.427 -6.665,-3.32 -12.591,-30.948c-3.458,-1.514 -3.248,-1.524 -5.881,-4.203l-1.628,-0.664l-1.578,-1.532Z" style="fill:#edc8ad;"/><path d="M1143.909,577.246l1.578,1.532l1.628,0.664c2.633,2.679 2.423,2.689 5.881,4.203c5.926,27.628 15.21,25.52 12.591,30.948c-0.549,1.138 -2.469,1.206 -3.018,2.343l0.034,3.334c-4.124,1.407 -10.016,6.275 -12.594,-3.283c-5.798,-21.493 -6.047,-36.527 -6.1,-39.742Z" style="fill:#e6bba0;"/><path d="M1439.597,1249.634c1.233,-21.383 13.613,-16.712 18.468,-11.317c13.007,14.454 -10.621,37.27 -18.468,11.317Z" style="fill:#faf9ed;"/><path d="M637.711,582.398c-16.528,30.63 -16.45,30.408 -33.718,60.754c-4.114,-5.792 -3.663,-6.876 -3.41,-7.483c2.683,-6.449 29.381,-52.498 29.816,-53.097c2.563,-3.53 3.41,-2.174 7.311,-0.174Z" style="fill:#a66642;"/><path d="M1224.047,811.653c9.904,-10.965 12.171,-6.026 26.508,-2.479c0.313,0.077 6.811,3.37 9.615,2.386c0.932,-0.327 2.328,-5.644 7.845,-0.432c0.982,0.927 0.472,0.929 0.417,2.289c-0.169,4.163 0.871,3.756 1.839,7.925c-5.779,4.339 -6.315,0.769 -36.169,-6.073c-5.453,-1.25 -5.506,-0.644 -10.055,-3.616Z" style="fill:#ebb884;"/><path d="M1168.424,861.946c2.446,1.16 1.67,2.647 5.734,2.719c1.048,0.018 12.538,2.597 8.899,9.69c-5.009,9.763 -18.242,-2.016 -32.792,2.438l-3.019,3.547c-4.945,-3.263 -13.732,-8.173 -1.688,-9.948c10.05,-1.481 21.156,-7.516 22.866,-8.445Z" style="fill:#e4c0a3;"/><path d="M1233.061,1260.275c12.197,-6.294 29.208,0.951 22.866,22.471c-10.164,-4.771 -24.984,-0.545 -21.551,-16.543c0.804,-3.748 -0.747,-3.365 -1.315,-5.928Z" style="fill:#f8d1cf;"/><path d="M1411.051,876.074c24.073,9.035 54.966,20.064 71.744,28.229c-4.525,3.024 -4.388,4.759 -7.462,2.905c-8.146,-4.914 -47.404,-17.945 -59.826,-23.182c-7.125,-3.004 -7.226,-3.065 -7.193,-3.496c0.134,-1.729 2.603,-2.726 2.737,-4.455Z" style="fill:#764126;"/><path d="M508.916,579.25c5.737,-17.056 19.559,-6.477 20.606,-2.275c4.215,16.921 -24.194,30.87 -20.606,2.275Z" style="fill:#fac9cc;"/><path d="M968.643,206.692c27.567,-0.783 27.401,-1.668 55.104,-0.419c4.023,0.181 48.512,2.187 50.169,4.088c1.227,1.409 1.068,3.674 2.295,5.082c-17.545,-3.153 -17.624,-1.083 -19.132,-1.364c-1.039,-0.194 -1.491,-1.614 -2.504,-1.909c-2.256,-0.656 -4.664,-0.626 -7.005,-0.858c-37.925,-3.756 -75.273,-0.726 -76.398,-1.022c-1.434,-0.378 -1.094,-3.22 -2.528,-3.598Z" style="fill:#8d514c;"/><path d="M1369.516,1298.227c7.797,5.305 1.813,10.139 10.073,14.75c0.875,0.488 0.117,1.455 10.077,7.387c-21.641,21.66 -34.399,-8.93 -20.15,-22.137Z" style="fill:#f09ca3;"/><path d="M1355.229,749.761c33.235,-18.193 54.623,1.905 46.481,26.783l-2.225,-2.6l-0.089,-2.343c-1.548,-5.001 0.365,-16.83 -14.831,-21.802c-4.703,-1.539 -14.45,-0.85 -19.203,1.219c-5.185,2.256 -5.411,1.82 -10.133,-1.256Z" style="fill:#f8cca5;"/><path d="M1324.179,1480.734c9.664,-3.33 25.277,-12.787 22.383,-1.38c-3.141,12.377 -3.779,12.497 -12.025,17.523c-3.205,-1.359 -6.411,-2.719 -9.616,-4.078c2.022,-6.006 2.547,-5.855 2.407,-6.382c-0.554,-2.086 -2.595,-3.597 -3.149,-5.683Z" style="fill:#fae3df;"/><path d="M1544.302,1015.313c-0.051,3.006 -0.47,27.878 -2.574,37.496c-0.322,1.472 -3.133,14.322 -2.483,18.665c0.137,0.913 1.3,1.614 1.155,2.525c-0.161,1.007 -1.761,1.389 -1.94,2.393c-0.683,3.826 0.664,7.947 -0.566,11.639c-0.495,1.486 -3.359,1.019 -4.112,2.397c-0.269,0.492 -0.066,0.513 -0.889,6.923c6.845,-83.557 6.911,-83.563 6.817,-84.38c0.859,0 -1.142,-2.511 -0.284,-2.511c0,0 4.486,4.464 4.876,4.853Z" style="fill:#8a4f49;"/><path d="M1442.063,1659.425c14.988,16.753 -28.299,13.143 -20.997,-4.149c3.748,-8.876 19.639,3.124 20.997,4.149Z" style="fill:#fbe293;"/><path d="M1300.158,785.561c2.023,-5.158 2.86,-7.231 7.435,-3.965c16.573,11.834 17.55,10.511 18.608,11.912c7.166,9.486 -25.235,12.477 -26.043,-7.948Z" style="fill:#efc299;"/><path d="M1425.447,600.858c-10.349,13.205 -10.481,12.879 -20.937,26.172c-1.13,-1.412 -3.385,-1.652 -4.515,-3.064c-0.153,-0.192 -0.066,-0.174 1.669,-4.446c2.205,-5.429 3.18,-4.688 5.784,-9.732c2.215,-4.291 0.175,-7.825 3.832,-11.161c6.376,-5.816 7.912,-3.881 14.166,2.231Z" style="fill:#ed919a;"/><path d="M1369.516,1298.227c19.717,-8.389 26.588,9.197 20.15,22.137c-9.96,-5.933 -9.203,-6.899 -10.077,-7.387c-8.259,-4.611 -2.275,-9.445 -10.073,-14.75Z" style="fill:#f9d0d1;"/><path d="M1170.483,570.393c0.319,-0.711 3.181,-7.082 5.747,-7.912c5.437,-1.76 24.552,15.213 -2.117,21.377c-4.418,1.021 -3.69,-12.352 -3.63,-13.465Z" style="fill:#e7bca6;"/><path d="M971.137,1741.632c-1.115,0.69 -1.347,2.345 -2.462,3.035c-0,0 -1.131,-1.369 -3.917,2.017c-18.864,-6.735 -16.226,7.326 -22.288,9.217c-8.105,2.528 -6.965,6.207 -15.435,5.476l3.29,-4.133c16.411,-15.785 25.828,-22.085 40.811,-15.612Z" style="fill:#e4c586;"/><path d="M1255.832,873.936c-0.809,-0.851 -6.254,-2.183 -1.66,-10.049c2.309,-3.953 18.48,5.881 19.912,6.752c7.17,4.36 0.491,10.143 -4.239,8.483c-7.051,-2.475 -6.792,-2.72 -14.013,-5.185Z" style="fill:#f1c29a;"/><path d="M579.166,256.044c0.481,-0.57 -0.182,-1.631 0.299,-2.201c1.78,-2.111 16.078,3.8 18.303,5.267c6.192,4.083 5.973,4.216 8.866,10.925c-1.429,-0.067 -1.928,2.69 -3.357,2.623c-15.274,-0.721 -20.06,-12.413 -20.817,-14.262l-3.295,-2.352Z" style="fill:#f7b4bb;"/><path d="M1434.644,1633.863c-1.01,0.977 -1.427,2.446 -2.437,3.424c-2.333,2.256 -7.991,-1.375 -14.439,5.767c-7.383,4.559 -6.994,8.424 -14.858,4.827c1.205,-2.323 8.757,-21.457 31.734,-14.018Z" style="fill:#f5d6a1;"/><path d="M1515.466,1019.298c9.299,-3.429 9.24,-3.405 10.042,-3.703c13.465,-5.007 7.474,8.247 7.548,9.122l-2.887,1.355c-7.169,2.8 -6.606,3.884 -14.208,5.698c-0.283,-0.705 -1.926,-4.8 -0.95,-9.425l0.455,-3.047Z" style="fill:#f0b8bc;"/><path d="M650.768,346.861c1.363,-0.932 14.584,-9.975 16.851,-11.916l0.744,3.126l0.993,2.343c-6.398,7.863 -4.4,8.61 -4.433,11.625c-0.024,2.125 -5.028,8.45 -7.029,9.227c-7.593,2.95 -2.048,-3.494 -3.155,-11.26c-0.651,-4.57 -3.481,-2.757 -3.971,-3.146Z" style="fill:#f4d78a;"/><path d="M843.139,1155.844c1.763,21.117 1.564,20.919 2.468,42.251c-1.709,0.003 -2.825,2.345 -4.534,2.348c-2.678,0.005 -2.707,-1.314 -1.177,-32.808l-0.79,-2.343l-0.029,-2.343l-0.196,-2.343l-0.093,-2.343l4.35,-2.418Z" style="fill:#a15944;"/><path d="M952.416,802.072c3.565,-10.565 2.569,-13.995 13.778,-13.496c8.444,0.376 4.672,11.801 4.333,12.829c-1.262,0.369 -11.619,3.396 -16.182,2.975c-1.01,-0.093 -0.919,-2.215 -1.928,-2.308Z" style="fill:#dfa476;"/><path d="M996.106,289.691c-19.233,16.71 -17.7,-13.121 -8.477,-13.432c3.441,-0.116 8.011,6.486 8.517,7.217c2.505,3.618 0.719,4.257 -0.04,6.215Z" style="fill:#f4dfd8;"/><path d="M1084.642,1337.836l4.541,3.211c1.946,11.434 4.418,12.646 -3.49,21.169c-2.583,-2.015 -14.15,-10.033 -1.051,-24.38Z" style="fill:#ef919b;"/><path d="M683.583,467.342c5.119,-0.308 5.086,-0.316 5.529,-0.333c12.511,-0.478 11.608,2.435 12.864,3.271c-7.252,8.118 -7.142,7.999 -14.423,16.216c-0.019,-0.057 -3.049,-3.029 -2.665,-7.899c0.163,-2.061 -0.762,-8.427 -0.868,-9.155c-0.103,-0.707 -0.334,-1.393 -0.437,-2.1Z" style="fill:#f1d692;"/><path d="M1434.644,1633.863c5.434,2.506 5.371,2.369 11.153,2.083c0.293,0.398 3.668,4.98 3.668,4.98c-0.015,0.396 -0.13,3.333 -5.041,-0.346c-1.968,-1.474 -2.281,4.98 -5.058,5.037c-1.325,0.027 -8.432,0.174 -16.552,-0.725c-1.783,-0.198 -3.263,-1.642 -5.046,-1.839c6.448,-7.142 12.106,-3.51 14.439,-5.767c1.01,-0.977 1.427,-2.446 2.437,-3.424Z" style="fill:#f3d691;"/><path d="M1141.527,853.441c0.69,6.599 1.166,8.705 -5.663,9c-9.605,0.414 -10.555,-21.019 2.617,-16.113c2.263,0.843 1.434,1.436 3.047,7.113Z" style="fill:#ecc2ab;"/><path d="M1135.884,771.193c-13.638,-0.467 -3.154,-7.973 0.065,-8.915c1.218,-0.357 22.801,-6.673 15.794,1.733c-3.343,4.011 -14.506,6.84 -15.859,7.182Z" style="fill:#ba9883;"/><path d="M1415.549,1075.734l2.322,-2.946c3.909,-0.078 8.658,-2.2 9.604,-1.537c2.278,1.595 1.933,2.396 4.801,2.071c2.766,-0.313 13.258,4.549 14.362,5.06c6.432,2.981 -0.017,4.801 -0.449,5.655c-15.02,-5.65 -14.995,-5.115 -30.641,-8.303Z" style="fill:#63392d;"/><path d="M1607.698,406.651c-0.149,0.513 -1.864,6.409 -1.864,6.409c0.846,1.246 2.775,1.503 3.621,2.749c-2.743,3.088 -7.456,15.476 -12.03,8.864c-2.322,-3.356 5.356,-22.201 6.814,-21.548c1.513,0.678 1.946,2.848 3.459,3.526Z" style="fill:#e5bf7c;"/><path d="M663.306,310.73c-6.03,3.609 -5.728,3.599 -14.28,9.294c-5.075,-3.266 -7.558,-4.356 -3.148,-8.458c7.48,-6.955 15.519,-6.319 16.963,-6.205l-1.381,2.246l1.847,3.123Z" style="fill:#f1ca84;"/><path d="M545.085,506.703c-4.916,-7.859 -8.575,-8.221 -3.648,-16.001c0.419,-0.661 19.907,2.3 20.016,2.436c2.244,2.794 -10.99,4.953 -11.683,5.496c-2.252,1.763 -3.483,0.541 -3.983,3.479c-0.396,2.331 -0.322,2.106 -0.701,4.591Z" style="fill:#e59da8;"/><path d="M1565.437,961.205c0.413,1.508 3.533,1.133 3.946,2.641c2.269,8.283 -19.169,45.695 -15.06,28.195c0.341,-1.454 4.166,0.388 8.538,-16.668c1.796,-7.007 0.497,-7.057 2.576,-14.169Z" style="fill:#8c524e;"/><path d="M1147.668,663.66c5.928,2.503 6.307,2.82 11.855,-0.504c0.375,0.911 2.57,-0.323 2.945,0.588c0.592,1.439 -0.812,3.034 -0.817,4.586c-0.003,0.874 1.178,1.714 0.795,2.504c-0.727,1.501 -2.949,1.943 -3.676,3.444c-9.828,-2.096 -14.832,-1.423 -11.102,-10.618Z" style="fill:#895d4f;"/><path d="M616.561,1685.989l3.271,-2.025c9.864,-1.21 5.438,6.601 14.134,11.273c3.418,1.836 1.71,3.553 -2.119,4.2c-2.657,0.449 -14.194,-12.245 -15.287,-13.448Z" style="fill:#d79360;"/><path d="M695.952,1004.353c-15.847,-2.136 4.262,-9.854 5.124,-10.186c0.398,-0.153 14.206,-2.245 2.325,4.719c-0.639,0.374 -0.27,0.775 -7.45,5.467Z" style="fill:#edc981;"/><path d="M896.944,223.23c1.593,1.296 3.187,2.592 4.78,3.889c-5.641,0.467 -11.283,0.934 -16.924,1.401c0.39,-0.824 -0.696,-1.884 -0.307,-2.708c0.551,-1.165 2.166,-1.557 2.844,-2.656c0.362,-0.586 -0.552,-1.727 0.061,-2.055c0.34,-0.182 0.35,0.07 4.812,-0.55c4.117,-0.573 4.456,2.522 4.733,2.679Z" style="fill:#753232;"/><path d="M1220.646,525.765c-0.367,11.037 -1.596,10.606 -5.096,21.085c-3.773,-5.431 -2.966,-5.804 -0.787,-11.938c0.829,-2.333 1.045,-4.941 2.388,-7.031c0.73,-1.136 2.764,-0.981 3.494,-2.116Z" style="fill:#8a5449;"/><path d="M1107.352,870.674c0.308,-0.007 8.295,-5.895 10.327,3.818c0.765,3.657 0.79,3.453 1.616,7.064c-4.597,0.31 -4.567,0.354 -4.965,0.335c-3.576,-0.172 -0.009,-4.673 -6.978,-11.216Z" style="fill:#eac9b5;"/><path d="M602.373,1605.732c0.278,0.373 3.472,4.662 3.472,4.662c1.432,4.047 2.554,3.176 4.66,6.807c4.626,7.978 -11.075,4.268 -10.005,-8.698c0.091,-1.105 1.782,-1.666 1.873,-2.771Z" style="fill:#e0a56d;"/><path d="M880.351,1844.176c10.561,6.754 23.094,2.017 23.812,3.235c0.751,1.274 -0.746,3.14 0.005,4.414c-1.541,-0.097 -18.912,-1.185 -19.248,-1.486c-1.913,-1.713 -2.656,-4.451 -4.569,-6.164Z" style="fill:#91574f;"/><path d="M663.041,220.571c-4.946,3.888 -4.166,4.404 -8.776,8.388l-2.725,-3.371l0.688,-2.343l2.117,-2.343c2.893,-3.649 2.705,-6.047 5.351,-3.728c1.83,1.604 1.403,1.675 3.343,3.397Z" style="fill:#f4db91;"/><path d="M1105.125,262.75l2.132,-2.117c3.65,-1.595 3.732,-1.844 7.252,0.021c4.628,2.452 4.792,2.369 4.913,2.841c0.22,0.859 -0.602,0.152 -10.763,3.329c-0.604,-1.101 -1.209,-2.202 -1.813,-3.303l-1.72,-0.771Z" style="fill:#9a5d59;"/><path d="M1176.44,257.971c-5.652,-0.718 -11.074,3.888 -8.102,-1.029c4.396,-7.274 11.382,-0.787 12.342,-1.343c1.427,-0.827 2.254,-3.304 3.889,-3.037c0.476,0.078 -0.064,0.412 -0.907,5.855l-7.222,-0.446Z" style="fill:#8b4b40;"/><path d="M1254.046,446.069c0.66,-4.815 0.353,-4.67 1.314,-9.586c0.503,-2.57 1.175,-2.096 2.425,-4.323c0.335,1.178 2.606,1.091 2.941,2.269c1.794,6.305 -5.763,11.063 -6.68,11.64Z" style="fill:#874f44;"/><path d="M1036.491,623.469c1.426,9.553 -9.451,7.061 -7.333,0.702c1.402,-4.21 6.828,-1.001 7.333,-0.702Z" style="fill:#f3c59d;"/><path d="M1033.695,1110.96c0.531,0.038 6.641,0.48 6.641,0.48c19.157,0.527 -2.187,4.081 -2.578,4.134c-0.41,0.055 -0.352,-0.149 -4.748,-2.006l0.685,-2.608Z" style="fill:#98584c;"/><path d="M1161.24,637.437c-8.467,6.163 -6.578,-5.632 -1.394,-6.165c4.715,-0.485 3,1.977 1.394,6.165Z" style="fill:#eec4b5;"/><path d="M976.4,673.045c0.784,-3.577 0.413,-5.062 4.168,-4.325c4.442,0.872 1.48,12.576 -4.168,4.325Z" style="fill:#e9b795;"/><path d="M715.406,1687.92c-3.891,1.434 -4.255,2.937 -7.179,0.2c-2.109,-1.974 -1.948,-2.601 0.534,-4.256c0.518,-0.345 4.328,-2.885 6.645,4.056Z" style="fill:#eca2a8;"/><path d="M1439.717,544.237c0.791,8.355 0.627,8.154 0.349,16.428c-2.493,-6.178 -5.544,-6.506 -0.349,-16.428Z" style="fill:#e5b194;"/><path d="M539.189,295.463c0.982,12.943 -5.413,8.92 -5.69,8.177c-2.137,-5.73 0.155,-5.571 5.69,-8.177Z" style="fill:#8e5248;"/><path d="M1104.98,631.09c-9.574,4.211 -4.986,-8.913 -0.665,-6.279c2.119,1.292 1.029,1.724 0.665,6.279Z" style="fill:#e6b59e;"/><path d="M623.004,231.564c5.662,0.856 9.417,0.887 5.76,5.287c-1.558,1.875 -7.007,-0.469 -7.111,-0.842c-0.414,-1.492 1.765,-2.953 1.351,-4.446Z" style="fill:#965b4e;"/><path d="M1052.254,1556.711c5.41,6.07 5.326,6.077 5.843,6.555c1.625,1.504 -0.533,3.69 -3.693,0.625c-4.464,-4.331 -4.845,-4.113 -4.836,-4.644c0.02,-1.219 2.667,-1.318 2.687,-2.537Z" style="fill:#9a5b4e;"/><path d="M1566.153,410.715c-0.156,-0.481 -1.309,0.002 -1.466,-0.479c-0.395,-1.218 0.405,-1.123 -0.139,-2.435c-4.616,-11.142 4.065,-4.568 4.294,-4.152c1.239,2.255 -0.036,2.18 -2.69,7.066Z" style="fill:#ecd0cb;"/><path d="M1126.32,1624.655c2.126,0.381 0.41,-2.871 2.489,-2.499c3.563,0.638 2.59,1.935 5.483,3.925c0.5,0.344 1.725,0.347 1.571,0.927c-1.724,6.488 -3.996,1.534 -9.544,-2.354Z" style="fill:#95584c;"/><path d="M1080.99,1371.488c-0.568,-0.629 -11.426,-12.655 -4.763,-9.412c3.894,1.895 4.666,8.577 4.763,9.412Z" style="fill:#a06058;"/><path d="M1417.037,520.653c-0.502,1.257 -1.431,4.505 -1.544,4.9c-1.401,4.897 -7.809,-0.156 -4.416,-1.977c0.468,-0.251 0.442,-0.217 5.961,-2.924Z" style="fill:#f2b5bc;"/><path d="M1630.51,490.492c-0.533,4.216 0.451,6.12 -1.853,4.93c-0.544,-0.281 -8.934,-4.616 -1.611,-7.373c1.328,-0.5 2.136,2.943 3.464,2.443Z" style="fill:#f5c0bd;"/><path d="M1280.853,802.309c3.527,-1.609 5.614,-4.117 5.47,-0.235c-0.009,0.245 0.018,0.108 -1.858,3.057c-1.716,2.698 -1.73,-0.204 -3.612,-2.823Z" style="fill:#966154;"/><path d="M571.76,541.675c0.727,1.354 3.119,1.262 3.847,2.616c0.82,1.526 -8.232,5.09 -3.847,-2.616Z" style="fill:#f4a9b5;"/><path d="M997.079,1485.324c1.89,2.447 3.78,4.895 5.67,7.342c-3.925,-2.853 -4.057,-2.646 -5.67,-7.342Z" style="fill:#92574d;"/><path d="M960.257,1394.739c5.805,4.287 3.954,6.591 4.357,7.282c-0.565,-0.731 -2.239,0.615 -2.804,-0.116c-0.361,-0.467 -0.115,-0.531 -1.553,-7.166Z" style="fill:#9a5f50;"/><path d="M1264.497,1188.589c0.321,-0.291 13.444,-12.194 4.976,-2.208c-1.934,2.281 -2.41,1.07 -4.976,2.208Z" style="fill:#895448;"/><path d="M1176.44,257.971l7.222,0.446c-4.143,3.049 -4.093,3.533 -4.459,3.282c-1.284,-0.88 -1.48,-2.847 -2.763,-3.728Z" style="fill:#905449;"/><path d="M580.079,1488.936l1.523,-1.41c0.849,0.544 1.64,-0.475 2.186,1.401c0.115,0.396 0.654,2.247 2.049,4.736c-2.636,-1.647 -2.496,-1.592 -5.462,-2.564l-0.297,-2.162Z" style="fill:#a2645b;"/><path d="M616.848,332.623c-0.526,1.682 0.766,1.57 0.203,3.372c-0.076,0.242 -0.809,2.588 -2.027,2.463c-6.506,-0.67 1.403,-5.574 1.824,-5.835Z" style="fill:#e9ad71;"/><path d="M321.371,773.865c1.556,0.842 3.112,1.683 4.668,2.525c-0.346,4.026 -0.053,4.184 -0.373,4.336c-0.334,0.159 -0.289,-0.162 -4.027,-2.259c-0.09,-1.534 -0.179,-3.068 -0.269,-4.602Z" style="fill:#daa98b;"/><path d="M510.386,894.867c0.831,1.31 1.661,2.62 2.492,3.93c-0.831,-1.31 -1.661,-2.62 -2.492,-3.93Z" style="fill:#814949;"/><path d="M1305.572,994.486c-4.974,4.104 -4.803,4.449 -5.363,4.425c-0.56,-0.024 -3.486,-3.682 5.363,-4.425Z" style="fill:#733830;"/><path d="M930.326,1757.245l-3.29,4.133c-0.169,-0.216 -2.108,-2.704 -2.108,-2.704c0.275,-0.346 0.4,-0.106 5.398,-1.429Z" style="fill:#eec07c;"/><path d="M1508.06,432.111l3.322,2.039c-0.678,0.567 0.351,2.036 -0.327,2.603c-2.879,2.407 -0.949,-1.472 -2.995,-4.643Z" style="fill:#f2cac2;"/><path d="M1415.582,1055.069c-4.719,2.25 -4.648,2.521 -5.09,2.427c-0.491,-0.105 -0.343,-3.91 2.601,-4.065c0.998,-0.052 1.492,1.691 2.489,1.638Z" style="fill:#f2b6bc;"/><path d="M969.406,612.441c0.555,-4.535 0.196,-4.879 0.597,-4.879c0.25,0 2.294,0.003 2.007,2.343c-0.146,1.191 -2.459,1.344 -2.604,2.535Z" style="fill:#f5f1e0;"/><path d="M1224.124,1735.19l4.776,0.343c-0.206,1.037 -0.412,2.074 -0.618,3.11c-1.059,-0.823 0.164,-1.33 -0.828,-2.101c-0.226,-0.176 -0.247,-0.1 -3.331,-1.352Z" style="fill:#ab6567;"/><path d="M964.401,778.38c2.625,4.29 3.178,4.36 2.824,4.615c-0,0 -4.519,-1.148 -4.912,-1.248c0.696,-1.122 1.392,-2.245 2.088,-3.367Z" style="fill:#9a574e;"/><path d="M531.646,1162.871c-0.208,-1.317 -2.594,-1.588 -2.802,-2.905c-0.25,-1.578 1.955,-1.241 2.151,-1.211c0.336,0.051 0.046,0.292 0.651,4.116Z" style="fill:#803f3b;"/><path d="M1394.48,1327.382c-3.224,0.876 -4.328,4.413 -4.663,1.268c-0.139,-1.304 1.762,-0.214 1.608,-1.663l3.055,0.396Z" style="fill:#a36661;"/><path d="M1159.494,647.395c-1.797,-3.851 -6.666,-4.276 -2.696,-5.776c3.931,-1.486 1.003,2.149 2.696,5.776Z" style="fill:#905a4d;"/><path d="M766.576,832.108c0.563,0.921 1.125,1.843 1.688,2.764l-1.688,-2.764Z" style="fill:#dda068;"/><path d="M809.632,1125.51c0.769,-0.085 0.578,-1.769 1.347,-1.854c0.795,-0.088 1.427,1.383 1.495,1.54c0.089,0.207 0,0 -2.842,0.314Z" style="fill:#e1909d;"/></g></svg>