<?xml version="1.0" encoding="UTF-8" standalone="no"?><!DOCTYPE svg PUBLIC "-//W3C//DTD SVG 1.1//EN" "http://www.w3.org/Graphics/SVG/1.1/DTD/svg11.dtd"><svg width="100%" height="100%" viewBox="0 0 1024 1024" version="1.1" xmlns="http://www.w3.org/2000/svg" xmlns:xlink="http://www.w3.org/1999/xlink" xml:space="preserve" xmlns:serif="http://www.serif.com/" style="fill-rule:evenodd;clip-rule:evenodd;stroke-linejoin:round;stroke-miterlimit:2;"><g id="Background"><path d="M688.44,213.528c25.481,72.171 7.684,80.781 19.309,90.122c14.261,11.458 29.246,46.136 3.604,75.287c-4.937,5.613 4.658,39.515 19.526,44.736c20.434,7.176 33.019,-11.631 34.387,11.908c2.156,37.1 -12.836,59.773 -15.648,64.026c-4.845,7.328 11.927,6.457 22.529,58.064c3.921,19.085 -1.225,36.493 -2.112,39.494c-6.354,21.496 -3.276,22.005 -5.891,44.864c-13.533,118.274 -72.022,120.97 -117.357,62.627c-11.68,-15.031 -11.14,-16.214 -17.436,-18.333c-6.97,-2.346 -12.03,-18.67 -12.37,-4.698c-0.621,25.506 -3.773,27.508 2.116,31.855c67.325,49.695 104.052,115 137.585,212.548c5.262,15.308 2.033,17.387 -18.584,31.91c-91.561,64.495 -299.365,114.577 -480.459,-13.734c-10.429,-7.389 -6.849,-13.373 0.811,-37.258c20.198,-62.982 57.079,-126.546 94.21,-163.644c6.369,-6.364 -19.575,-2.825 -28.628,-47.9c-4.287,-21.348 -0.081,-44.888 -3.244,-47.894c-10.842,-10.301 -11.657,-9.463 -18.765,-23.179c-23.034,-44.446 2.039,-87.447 0.214,-90.097c-1.905,-2.766 -44.956,-17.025 -51.167,-79.755c-4.034,-40.747 11.245,-35.49 13.81,-34.607c17.238,5.931 32.264,9.662 42.166,-36.038c1.25,-5.77 -28.961,-28.627 -10.042,-66.853c5.682,-11.48 12.057,-13.245 12.148,-17.365c0.975,-44.148 1.602,-89.471 55.87,-153.209c22.14,-26.003 56.048,-38.281 56,-42.998c-0.047,-4.531 -13.346,-63.658 -10.234,-68.703c4.886,-7.919 10.161,0.075 28.992,12.936c11.671,7.971 22.774,20.684 25.289,16.046c8.908,-16.427 29.143,-62.273 35.091,-63.541c6.995,-1.491 9.629,8.101 28.019,42.538c10.612,19.873 11.535,19.87 12.862,19.099c15.571,-9.052 42.072,-40.679 49.781,-31.902c2.289,2.607 3.332,3.795 -3.287,45.828c-3.1,19.683 -6.125,25.614 0.463,28.398c33.379,14.107 57.827,41.495 62.052,46.228c25.123,28.144 36.066,58.032 38.389,63.192Z" style="fill:#683f32;"/><path d="M409.297,722.491c4.047,2.288 8.093,4.576 12.14,6.863c-0.893,0.507 -2.927,-1.177 -23.85,25.232c-32.45,40.96 -51.841,99.554 -47.526,100.413c3.572,0.711 26.546,-55.093 40.092,-65.777c8.052,-7.624 37.109,-38.664 50.589,-28.087c5.643,4.428 4.147,9.567 4.369,10.004c0.508,0.999 2.025,0.933 2.533,1.932c-4.741,7.224 -3.908,7.706 -15.043,38.924c-9.155,25.667 -11.809,40.842 -14.238,52.112c-9.922,46.044 -10.372,83.291 -10.294,84.21c3.768,44.109 9.492,-111.995 64.643,-192.272c15.685,9.3 15.059,10.245 30.79,19.623c9.146,5.452 9.491,0.647 37.763,-16.239c28.799,44.805 50.919,142.366 56.456,175.079c1.212,7.163 3.689,3.864 3.745,3.432c0.389,-3.04 -2.554,-39.018 -6.097,-60.039c-0.918,-5.443 -4.342,-25.761 -14.985,-67.158c6.257,-17.023 -14.356,-53.199 9.378,-43.129c9.164,3.888 29.295,23.749 31.657,26.079c19.322,20.776 32.456,64.518 33.944,51.522c0.295,-2.575 -10.448,-44.068 -38.851,-82.404c0.884,-0.452 1.108,-1.952 1.992,-2.404c2.217,-1.135 26.64,38.309 29.814,45.652c7.979,18.457 4.552,19.796 11.852,38.742c3.682,9.554 24.383,63.278 33.148,124.785c-172.685,83.554 -335.267,27.511 -414.922,-26.073c4.389,-6.833 3.045,-7.445 5.365,-15.509c39.769,-138.274 111.026,-194.139 125.535,-205.514Z" style="fill:#f693af;"/><path d="M669.454,297.961c2.798,37.626 1.954,59.756 -13.836,103.458l-2.856,-2.021l-1.019,1.721c-1.375,2.282 -19.842,26.143 -25.553,31.588c-16.188,-1.919 -17.023,-0.095 -57.926,-24.296c-5.105,-3.02 7.154,-29.217 -6.152,-39.459c-7.364,-5.669 -25.148,16.193 -57.468,6.653c-10.362,-3.059 -31.241,-19.056 -35.869,4.969c-3.843,19.952 7.318,30.84 -2.037,32.433c-16.862,2.872 -32.663,15.326 -37.193,23.107c-4.192,7.199 -5.723,4.885 -12.555,8.659c-3.05,-3.898 -2.949,-3.985 -3.293,-4.21c-5.355,-3.49 -35.997,-23.459 -54.657,-61.817l-1.014,-1.721l-1.591,-1.721l-2.53,0.204c-7.64,-32.221 -7.663,-32.335 -7.169,-69.05l1.602,0.963c17.175,7.631 84.241,-7.87 124.089,-34.495c34.385,-22.975 46.832,-41.523 49.954,-46.175c3.449,-5.14 4.501,-9.687 7.482,-4.082c17.33,32.582 71.106,80.205 131.243,76.66c2.339,-0.138 2.318,-0.777 4.545,0.322c1.995,0.984 2.242,1.681 3.785,-0.161c0.309,-0.369 -0.289,-1.159 0.02,-1.528Z" style="fill:#fce2c5;"/><path d="M578.566,132.567c0.293,0.506 -0.92,2.243 2.062,3.559c6.317,2.788 7.032,0.517 28.819,13.791c62.835,38.282 74.922,104.097 77.004,115.431c0.721,3.926 -0.753,7.721 1.972,5.093c0.696,-0.671 1.492,-1.2 2.189,-1.871c1.023,8.134 5.225,28.845 -0.59,28.452c-13.293,-0.899 -10.745,-5.989 -12.22,-11.208c-2.285,-8.081 -19.948,0.441 -61.923,-21.415c-57.069,-29.715 -77.713,-80.676 -81.513,-90.057c-0.088,-0.217 -6.176,-11.045 -12.421,1.662c-27.726,56.42 -99.706,102.871 -175.117,105.162c-12.869,0.391 -5.824,10.478 -10.521,13.417c-2.049,1.282 -14.062,2.323 -15.372,1.698c-1.352,-0.645 -2.153,-1.027 -0.199,-20.779c4.37,-2.707 3.311,-3.751 5.315,-13.58c4.815,-23.619 22.887,-59.754 36.49,-75.248c35.205,-40.099 49.004,-43.607 65.027,-48.88c6.85,12.528 70.156,19.856 93.771,16.411c3.211,-0.468 23.552,-3.436 39.69,-8.941c14.448,-4.928 15.332,-5.239 17.537,-12.697Z" style="fill:#bf7253;"/><path d="M579.405,428.044l-1.813,2.889c3.959,6.487 7.868,3.399 8.883,11.262c-5.346,5.345 -2.544,6.479 -1.303,9.059c2.667,-2.211 4.865,-2.927 5.745,-5.557c1.851,-3.125 1.898,-3.332 0.504,-6.718l1.353,-0.96l1.827,-1.576c25.028,9.787 25.571,6.283 66.408,13.467c34.795,6.121 48.437,34.216 48.104,35.443c-1.33,4.909 -4.042,-2.12 -24.921,4.232c-1.123,1.107 -6.939,6.84 -9.299,18.267c-1.947,9.432 1.403,16.836 1.934,18.759c0.783,2.034 1.23,9.291 10.423,14.961c7.467,4.606 -3.233,7.29 -9.671,10.447c-30.069,14.744 -91.356,10.484 -116.741,2.459c-51.49,-16.279 -51.84,-15.474 -68.485,-25.696c-4.581,-2.813 10.438,-14.789 6.196,-24.352c-4.204,-9.477 -0.298,-23.659 -9.277,-28.722c-20.79,-11.722 -21.181,-16.036 -45.263,-9.112c-1.584,0.413 -2.968,1.566 -4.552,1.979c-2.984,0.778 -7.658,-23.735 6.405,-34.187c21.198,-15.755 38.534,-10.459 43.61,-11.343c8.395,-1.462 35.871,-33.483 89.93,4.999Z" style="fill:#fbd681;"/><path d="M408.396,516.244c12.878,-53.909 63.046,-45.249 68.592,-40.45c9.002,7.789 -17.487,6.595 -22.335,6.561c-10,-0.071 -25.579,14.89 -28.18,20.639c-3.251,7.184 7.44,-1.206 16.228,-6.771c13.624,-8.628 43.848,-9.416 45.565,-5.803c6.388,13.444 -13.582,7.139 -33.086,24.951c-2.502,2.285 -2.502,14.562 1.408,6.804c4.718,-9.363 28.209,-14.006 31.537,-13.075c11.887,3.324 -13.525,19.844 -21.24,31.489c-1.549,7.666 -0.682,21.63 -3.185,30.894c-5.135,19.005 -19.266,22.968 -19.439,23.07c-4.149,2.454 2.251,6.186 -17.29,57.661c-26.853,70.74 -59.819,86.326 -76.931,72.142c-21.195,-17.569 -17.72,-69.043 -17.618,-77.184c0.095,-7.496 15.862,-12.101 21.881,-14.234c11.358,-4.025 -3.213,10.723 -6.868,26.346c-0.068,0.29 -0.476,14.163 2.785,2.031c2.076,-7.723 10.673,-16.387 18.604,-27.135c30.793,-41.732 33.253,-48.581 37.809,-55.292c11.229,-16.539 -3.594,-19.877 1.762,-62.644Z" style="fill:#fbdabd;"/><path d="M446.767,624.746c0.222,0.493 -0.645,1.097 -0.423,1.59c0.336,0.745 0.847,0.226 6.371,7.572c4.271,5.68 -1.567,25.088 20.089,29.008c15.593,2.822 19.654,1.948 54.682,5.324c14.261,1.374 30.623,-7.538 30.793,-15.976c0.056,-2.769 0.625,-2.475 2.699,-4.042c43.288,5.54 47.148,1.042 46.921,7.597c-1.817,52.575 -3.055,53.673 -6.218,56.48c-9.538,8.465 -59.531,30.614 -82.989,47.416c-5.967,4.274 -5.992,8.047 -12.181,3.973c-49.341,-32.482 -55.452,-28.651 -91.092,-51.665c-7.627,-4.925 -0.318,-6.91 11.424,-32.376c9.561,-20.736 18.561,-50.41 19.923,-54.901Z" style="fill:#f16999;"/><path d="M591.086,732.947c16.073,-9.534 15.777,-10.108 17.181,-10.92c3.444,-1.994 39.569,24.276 70.941,68.119c41.667,58.23 68.276,140.921 68.018,144.496c-0.53,7.328 -49.387,32.606 -53.907,34.945c-8.765,-61.507 -29.467,-115.231 -33.148,-124.785c-7.301,-18.946 -3.873,-20.284 -11.852,-38.742c-3.174,-7.342 -27.597,-46.786 -29.814,-45.652c-0.884,0.452 -1.108,1.952 -1.992,2.404c-20.031,-25.607 -19.449,-26.303 -21.697,-27.832c-0.284,-0.193 -0.276,-0.151 -3.729,-2.033Z" style="fill:#ef6d98;"/><path d="M397.251,519.901c1.56,44.813 5.168,45.216 2.02,51.15c-1.939,3.655 -2.05,3.469 -21.895,33.315c-7.01,9.643 -5.962,12.1 -16.77,14.337c-22.987,4.757 -34.285,19.434 -38.971,14.048c-47.293,-54.357 2.162,-146.248 66.065,-126.163c10.31,3.24 9.758,5.516 9.552,13.314Z" style="fill:#f48aab;"/><path d="M333.18,392.413c12.59,-0.299 12.696,-0.516 13.555,0.234c2.115,1.845 9.031,33.144 45.897,70.066c6.797,6.807 6.984,6.41 10.328,9.014c3.115,5.043 -4.668,3.86 -5.912,18.889c-0.37,4.472 0.422,6.989 -3.261,5.565c-53.553,-20.722 -80.482,27.841 -84.909,28.083c-0.702,0.038 -21.514,-8.197 -34.472,-30.557c-15.84,-27.332 -12.211,-49.573 -12.203,-54.765l1.111,0.201c0.585,0.811 17.762,34.151 48.326,19.866c27.25,-12.736 21.573,-60.34 21.539,-66.597Z" style="fill:#a25b47;"/><path d="M747.763,521.5l-1.647,0.726l-1.658,1.079c-0.656,15.737 10.131,17.859 8.621,46.386c-1.28,24.197 -4.65,23.12 -8.043,28.132c-0.465,0.687 -0.109,1.132 -0.052,1.204c0.695,0.869 1.034,0.024 1.775,0.95c1.347,1.649 3.296,2.564 4.643,4.212c3.549,4.343 -11.574,55.501 -12.963,60.202c-11.565,39.125 -42.068,64.547 -72.59,20.518c-5.776,-8.332 16.552,-19.504 18.44,-20.448c-1.545,9.307 -0.562,9.611 0.09,9.45c2.447,-0.606 2.958,-6.906 4.385,-11.027c3.303,-9.541 15.589,-32.311 16.953,-33.797c11.113,-12.102 12.821,-11.51 15.617,-28.603c0.92,-5.625 3.66,4.803 17.159,3.671l1.078,-1.784c0.392,-20.845 -1.858,-20.482 -4.448,-41.149c-0.781,-6.235 -2.329,-5.205 -7.226,-8.254l-2.152,1.835c-7.228,-8.057 -16.144,-9.73 -23.711,-12.4c-5.646,-1.992 -9.9,-8.355 -10.608,-8.745c-9.361,-5.156 1.514,-3.404 1.573,-3.413c18.296,-2.813 18.53,-2.985 34.949,2.924c1.702,0.613 3.763,-1.814 0.987,-4.067c-14.572,-11.824 -38.395,-4.008 -43.253,-8.02c-10.817,-8.933 9.657,-13.84 24.002,-13.437c7.715,0.217 24.22,9.871 17.696,2.359c-9.453,-10.883 -33.09,-6.815 -35.969,-6.319c-8.413,1.448 -3.84,-8.205 7.756,-10.698c31.739,-6.824 47.671,26.966 48.596,28.513Z" style="fill:#fad8ba;"/><path d="M508.373,29.045c26.04,47.981 27.025,50.01 31.091,48.04c4.998,-2.422 15.474,-11.713 24.316,-18.688c1.253,2.754 1.81,2.726 0.861,5.564c-16.078,48.048 -12.273,55.786 -25.106,59.639c-39.487,11.855 -66.758,3.95 -87.84,-0.393c-4.055,-0.835 -3.712,-1.413 -6.719,-4.459c-12.246,-53.649 -8.184,-54.385 -6.69,-57.299c1.558,1.105 3.116,2.21 4.675,3.315c-4.345,7.788 2.431,5.385 4.493,7.154c0.984,0.844 0.167,1.327 1.117,2.199c0.458,0.42 10.93,13.648 24.254,15.607c12.241,1.8 22.027,-51.274 35.549,-60.678Z" style="fill:#fdd758;"/><path d="M669.454,297.961c-0.309,0.369 0.289,1.159 -0.02,1.528c-1.543,1.842 -1.789,1.145 -3.785,0.161c-2.226,-1.098 -2.205,-0.46 -4.545,-0.322c-60.137,3.545 -113.912,-44.078 -131.243,-76.66c-2.981,-5.605 -4.033,-1.058 -7.482,4.082c-3.122,4.652 -15.568,23.2 -49.954,46.175c-39.848,26.625 -106.914,42.126 -124.089,34.495l-1.602,-0.963c0.862,-9.674 -1.008,-13.39 7.672,-13.869c78.068,-4.306 145.373,-54.925 170.993,-100.16c4.37,-7.716 7.147,3.684 11.758,12.109c20,36.542 66.488,71.912 101.291,82.444c25.863,7.827 29.271,3.148 31.005,10.979Z" style="fill:#f6c4a7;"/><path d="M747.763,521.5c10.644,19.667 16.101,44.228 14.505,60.262c-1.614,16.22 -6.049,20.469 -6.575,22.698c-0.215,0.912 0.585,0.912 -0.189,11.798c-1.367,19.238 -4.679,63.136 -19.073,89.048c-36.851,66.344 -94.323,-24.156 -95.892,-26.131c-2.414,-3.04 -2.735,-6.557 33.195,-34.604c2.602,-2.031 20.285,-9.746 17.9,-0.737c-2.841,10.729 -4.058,10.032 -7.346,20.627c-1.888,0.945 -24.216,12.116 -18.44,20.448c30.522,44.029 61.025,18.607 72.59,-20.518c1.39,-4.701 16.512,-55.859 12.963,-60.202c-1.347,-1.649 -3.296,-2.564 -4.643,-4.212c-0.741,-0.926 -1.08,-0.081 -1.775,-0.95c-0.057,-0.071 -0.414,-0.517 0.052,-1.204c3.393,-5.012 6.763,-3.934 8.043,-28.132c1.509,-28.527 -9.277,-30.648 -8.621,-46.386l1.658,-1.079l1.647,-0.726Z" style="fill:#f4c0a7;"/><path d="M409.297,722.491c-14.51,11.375 -85.767,67.24 -125.535,205.514c-2.319,8.064 -0.976,8.676 -5.365,15.509c-12.514,-8.424 -12.454,-8.231 -13.493,-9.027c-3.048,-2.338 -4.506,-4.319 13.357,-49.899c35.922,-91.661 81.842,-131.476 88.975,-140.242c6.414,-7.881 16.279,-3.613 32.614,-21.527c5.331,-5.847 6.111,-1.82 9.446,-0.326Z" style="fill:#f8c9da;"/><path d="M456.393,605.405c43.178,31.669 46.133,24.166 95.259,40.549c3.343,1.115 3.22,0.907 9.325,2.267c-2.073,1.567 -2.643,1.273 -2.699,4.042c-0.171,8.438 -16.533,17.351 -30.793,15.976c-35.028,-3.376 -39.088,-2.501 -54.682,-5.324c-21.656,-3.92 -15.818,-23.328 -20.089,-29.008c-5.524,-7.346 -6.035,-6.827 -6.371,-7.572c-0.222,-0.493 0.645,-1.097 0.423,-1.59c5.3,-19.849 4.748,-20.656 6.294,-20.829c0.899,-0.101 3.084,1.326 3.333,1.488Z" style="fill:#ec7e9e;"/><path d="M686.695,391.944c12.098,-4.02 12.876,-4.75 13.503,-2.706c2.121,6.922 5.758,43.16 36.82,47.948c11.178,1.723 17.362,-5.068 17.683,1.797c0.18,3.849 1.7,34.428 -14.741,54.972c-0.992,-0.107 -18.832,-5 -20.676,-10.424c-0.609,-1.791 -4.106,-12.079 -11.179,-20.377c-7.555,-7.056 -7.289,-7.244 -15.417,-13.324c0.269,-3.838 0.438,-3.858 0.29,-4.145c-12.178,-23.652 -7.429,-28.77 -6.283,-53.741Z" style="fill:#b46b4e;"/><path d="M430.56,734.254c17.872,9.742 30.984,15.466 42.153,21.792c-55.151,80.277 -60.875,236.38 -64.643,192.272c-0.078,-0.918 0.372,-38.166 10.294,-84.21c2.428,-11.27 5.083,-26.444 14.238,-52.112c11.135,-31.218 10.301,-31.701 15.043,-38.924c-0.508,-0.999 -2.025,-0.933 -2.533,-1.932c-0.223,-0.438 1.274,-5.576 -4.369,-10.004c-13.479,-10.577 -42.537,20.463 -50.589,28.087c-0.069,-1.029 -1.397,-1.584 -1.465,-2.613c-0.035,-0.53 0.351,-0.297 3.581,-5.252c15.603,-23.933 27.65,-32.983 37.092,-44.655l1.199,-2.447Z" style="fill:#e96892;"/><path d="M563.779,58.397c1.212,-1.002 13.722,-11.347 15.077,-12.65c5.274,-5.074 2.017,3.383 -4.426,47.305c-5.286,36.033 -4.859,36.874 -7.423,37.987c-50.945,22.116 -127.319,7.966 -129.582,-1.655c-0.533,-2.265 -0.926,-4.571 -1.459,-6.837c5.448,-2.036 7.396,0.613 9.009,-3.799c3.008,3.047 2.665,3.624 6.719,4.459c21.081,4.343 48.352,12.247 87.84,0.393c12.833,-3.853 9.028,-11.591 25.106,-59.639c0.95,-2.838 0.392,-2.81 -0.861,-5.564Z" style="fill:#fbba43;"/><path d="M333.18,392.413c0.034,6.256 5.711,53.861 -21.539,66.597c-30.564,14.285 -47.741,-19.055 -48.326,-19.866l-1.111,-0.201c0.38,-14.215 8.385,-0.225 23.961,-4.689c30.985,-8.88 25.524,-48.899 34.875,-45.289c6.014,2.322 5.977,2.089 12.139,3.449Z" style="fill:#c07754;"/><path d="M653.122,603.958l1.9,0.628l1.518,0.585c2.879,0.115 14.809,-3.401 24.214,-2.021c19.795,2.904 20.132,-5.252 25.927,-5.389c2.843,-0.067 11.912,18.815 -21.476,29.796c-33.111,10.89 -46.806,17.608 -103.077,13.051c-2.028,-0.164 -20.285,-1 -13.964,-4.064c11.08,-5.37 10.804,-5.701 21.436,-12.016c10.111,-6.005 20.4,8.919 32.012,7.12c10.226,-1.584 14.499,-12.475 15.909,-14.714c4.146,-6.582 5.836,1.313 18.962,0.262c18.173,-1.456 19.312,6.028 32.195,-2.486l2.217,-0.729c-0.449,-0.768 0.491,-1.611 -1.269,-2.174c-0.172,-0.055 -0.165,0.021 -2.222,0.279c-19.238,-3.558 -19.439,-0.369 -35.42,-3.57c-1.012,-0.497 -2.023,-0.994 -3.035,-1.491c2.445,-1.199 2.474,-0.905 4.172,-3.065Z" style="fill:#efb84f;"/><path d="M557.729,375.641c0.233,0.16 0.292,0.55 0.525,0.71c0.92,0.632 1.137,0.541 1.236,0.499c1.027,-0.433 0.373,-1.178 1.464,-1.639c0.89,1.492 4.681,7.848 2.493,22.337c-1.918,12.702 -6.741,5.778 -14.673,4.948c-26.421,-2.762 -43.186,-3.013 -49.875,4.036c-1.167,-0.696 -0.442,-1.391 -1.692,-2.137c-0.114,-0.068 -0.21,-0.125 -1.601,0.173c-9.289,1.992 -11.46,7.085 -11.947,8.227c-5.548,-2.499 -7.296,-1.455 -7.853,-8.223c-0.677,-8.233 -8.232,-43.506 14.787,-28.611c6.133,3.969 5.336,7.925 33.903,9.292c11.801,0.565 11.457,-1.608 19.949,-5.88c6.567,-3.303 6.362,-5.782 13.283,-3.734Z" style="fill:#993948;"/><path d="M427.568,137.794c-16.023,5.273 -29.823,8.781 -65.027,48.88c-13.603,15.494 -31.675,51.629 -36.49,75.248c-2.004,9.83 -0.945,10.873 -5.315,13.58c10.444,-105.624 76.993,-143.553 97.783,-155.816c3.527,-2.08 5.074,-3.691 5.923,0.857c1.622,8.699 2.191,8.421 3.127,17.251Z" style="fill:#d38c69;"/><path d="M578.566,132.567c2.017,-13.325 2.342,-18.589 5.159,-17.474c40.25,15.94 64.649,50.533 68.899,56.558c31.657,44.882 35.65,81.219 37.988,96.919c-0.696,0.671 -1.492,1.2 -2.189,1.871c-2.725,2.628 -1.251,-1.167 -1.972,-5.093c-2.082,-11.334 -14.168,-77.149 -77.004,-115.431c-21.787,-13.274 -22.502,-11.003 -28.819,-13.791c-2.983,-1.317 -1.769,-3.053 -2.062,-3.559Z" style="fill:#d8916c;"/><path d="M548.589,755.276l1.675,1.805l1.518,-0.42c2.726,0.884 3.162,0.903 12.966,20.036c6.792,13.256 10.448,27.609 15.637,34.047c10.643,41.397 14.067,61.715 14.985,67.158c3.543,21.021 6.486,56.999 6.097,60.039c-0.055,0.432 -2.532,3.731 -3.745,-3.432c-5.537,-32.713 -27.657,-130.274 -56.456,-175.079c2.441,-1.385 4.882,-2.77 7.323,-4.154Z" style="fill:#e55f8c;"/><path d="M580.611,738.369c0.405,0.301 0.943,-0.916 1.348,-0.615c0.617,0.459 -0.653,1.695 5.929,8.011c15.441,14.818 28.239,33.96 32.345,40.732c3.005,4.956 3.478,4.787 3.322,5.274c-0.31,0.969 -1.826,0.953 -2.136,1.922c-2.362,-2.33 -22.493,-22.19 -31.657,-26.079c-23.733,-10.07 -3.12,26.106 -9.378,43.129c-5.189,-6.438 -8.845,-20.79 -15.637,-34.047c-9.804,-19.133 -10.24,-19.153 -12.966,-20.036l-1.518,0.42l-1.675,-1.805c16.181,-8.275 15.954,-8.579 32.023,-16.907Z" style="fill:#ed6c98;"/><path d="M437.604,368.589c8.659,31.218 -65.868,26.947 -50.857,-1.584c6.83,-12.982 40.485,-17.574 50.857,1.584Z" style="fill:#f9bcb3;"/><path d="M598.433,382.674c-12.89,-17.528 14.055,-34.054 36.815,-24.461c36.921,15.562 -12.236,47.497 -36.815,24.461Z" style="fill:#f9bdb2;"/><path d="M421.437,729.354c3.041,1.633 6.083,3.267 9.124,4.9l-1.199,2.447c-9.443,11.673 -21.489,20.722 -37.092,44.655c-3.23,4.955 -3.617,4.722 -3.581,5.252c0.069,1.029 1.397,1.584 1.465,2.613c-13.546,10.685 -36.52,66.489 -40.092,65.777c-4.316,-0.859 15.075,-59.453 47.526,-100.413c20.923,-26.409 22.957,-24.726 23.85,-25.232Z" style="fill:#e4628c;"/><path d="M498.589,547.618c2.002,3.875 2.288,3.432 5.055,6.433c0.522,0.817 4.303,6.743 10.262,4.864c1.133,-0.357 -3.397,-2.593 -4.131,-4.683c-3.843,-10.943 30.579,6.489 76.718,16.065c2.911,2.507 1.066,3.251 -1.698,5.853c-18.471,17.386 -32.304,9.385 -34.836,7.921c-0.471,-0.093 -2.731,-0.539 -5.965,-0.336c-8.802,-15.072 -6.818,-18.834 -15.022,-24.199c-0.497,0.054 -0.995,0.108 -1.492,0.162c-20.587,6.536 -20.777,5.102 -27.314,3.202c-1.879,-0.546 -1.74,0.242 -3.747,0.522c-4.762,-11.838 -5.081,-11.522 -5.304,-12.611c-1.097,-5.359 6.574,-3.277 7.473,-3.195Z" style="fill:#e6c377;"/><path d="M539.947,626.24c0.4,0.403 8.75,8.817 2.71,6.935c-55.452,-17.282 -56.419,-15.642 -79.963,-34.877c-4.288,-3.503 0.824,-5.62 2.416,-7.996c2.822,-4.215 2.117,-7.842 6.219,-5.073c8.443,5.698 8.315,6.329 18.192,7.089c8.38,0.645 7.565,18.165 18.233,17.103c12.557,-1.249 14.302,-5.398 22.925,4.91c4.823,5.766 4.742,5.666 9.269,11.909Z" style="fill:#f4b262;"/><path d="M335.595,323.645l-0.922,-0.398c-28.479,-5.741 -21.138,41.654 -3.019,43.372c1.995,0.189 6.773,2.333 8.212,-0.148c0.263,-0.454 -0.546,-1.144 -0.282,-1.598c2.597,10.133 5.139,16.013 -0.351,15.84c-50.426,-1.591 -44.972,-71.108 -10.656,-73.1c9.898,-0.575 7.117,4.798 7.018,16.032Z" style="fill:#fce3c8;"/><path d="M490.832,580.796c6.836,1.127 5.94,3.492 12.371,6.17c21.096,8.787 29.881,8.25 47.156,22.274c12.972,11.588 17.543,8.494 27.525,4.158c2.203,0.596 2.077,-0.038 4.114,-0.974c0.871,-0.478 0.793,0.861 1.67,0.379c0,-0 1.405,-3.576 1.527,-3.887c19.613,1.313 19.538,0.385 21.22,0.646c9.548,1.483 10.543,7.003 24.185,-2.382c0.825,0.591 1.533,1.376 2.358,1.967c1.191,0.853 -7.62,18.738 -17.596,14.578c-19.368,-8.078 -20.938,-14.655 -39.756,-1.449c-25.564,17.94 -29.491,-6.13 -40.63,-16.203c-15.059,-13.618 -23.452,0.699 -30.095,-3.967c-8.217,-5.772 -3.103,-15.885 -14.075,-17.325c2.004,-1.726 2.296,-2.72 0.028,-3.984Z" style="fill:#7bb734;"/><path d="M686.695,391.944c-1.146,24.971 -5.895,30.09 6.283,53.741c0.148,0.287 -0.021,0.307 -0.29,4.145c-18.812,-9.259 -18.946,-8.648 -39.228,-12.395c-6.846,-1.265 1.609,-4.07 15.773,-41.206c1.93,-5.06 3.316,-3.599 17.462,-4.286Z" style="fill:#a05c47;"/><path d="M591.086,732.947c3.453,1.883 3.445,1.84 3.729,2.033c2.248,1.528 1.667,2.225 21.697,27.832c28.403,38.336 39.146,79.828 38.851,82.404c-1.489,12.996 -14.622,-30.746 -33.944,-51.522c0.31,-0.969 1.826,-0.953 2.136,-1.922c0.156,-0.487 -0.317,-0.318 -3.322,-5.274c-4.107,-6.772 -16.904,-25.914 -32.345,-40.732c-6.582,-6.317 -5.312,-7.552 -5.929,-8.011c-0.405,-0.301 -0.943,0.916 -1.348,0.615c3.491,-1.807 6.983,-3.614 10.474,-5.421Z" style="fill:#e05986;"/><path d="M681.409,318.492c0.05,-2.838 -0.168,-5.677 -0.118,-8.515c0.216,-12.283 49.614,12.676 27.731,52.808c-10.452,19.169 -27.906,17.724 -31.228,17.707c-5.527,-0.028 -1.944,-8.308 -0.464,-13.951c0.279,0.435 -0.563,1.144 -0.285,1.579c1.562,2.438 3.98,0.017 5.118,-0.337c1.089,-0.339 2.211,-0.528 3.297,-0.879c14.689,-4.749 29.161,-37.193 -3.11,-47.5l-0.941,-0.913Z" style="fill:#fbdfc1;"/><path d="M353.905,375.509l2.53,-0.204l1.591,1.721l1.014,1.721c18.66,38.357 49.302,58.327 54.657,61.817c0.344,0.224 0.244,0.312 3.293,4.21c-1.962,1.873 -5.109,4.031 -6.803,9.521c-1.59,5.154 -1.705,8.482 -5.446,4.991c-28.675,-26.757 -41.211,-49.559 -50.838,-83.777Z" style="fill:#f7c5aa;"/><path d="M406.316,330.237c-9.489,-14.96 6.639,-6.971 7.326,-6.63c7.615,3.772 1.823,-4.813 1.589,-5.161c-1.414,-2.096 -4.7,-15.524 6.31,-5.556c4.362,3.949 6.664,-4.473 17.921,-6.169c29.313,-4.416 43.824,34.812 28.705,31.467c-4.835,-1.07 -3.513,-2.972 -6.571,-8.863c-5.354,-10.31 -22.813,-13.408 -30.84,-3.469c-5.801,7.182 -6.822,20.323 -24.439,4.381Z" style="fill:#6f4437;"/><path d="M606.432,332.286c-0.831,-1.243 -4.125,-7.982 -10.488,-10.715c-22.222,-9.545 -25.597,16.31 -32.077,17.15c-16.491,2.139 4.912,-40.552 32.048,-30.946c9.115,3.227 9.744,9.768 17.017,2.721c4.151,-4.021 9.868,1.988 3.63,9.217c-3.621,4.197 0.253,6.269 4.703,3.315c8.926,-5.924 8.984,6.24 0.005,12.012c-11.367,7.307 -12.075,1.457 -14.837,-2.754Z" style="fill:#6a3f34;"/><path d="M508.373,29.045c-13.523,9.404 -23.308,62.478 -35.549,60.678c-13.325,-1.959 -23.797,-15.187 -24.254,-15.607c-0.949,-0.871 -0.132,-1.355 -1.117,-2.199c-2.062,-1.769 -8.838,0.634 -4.493,-7.154c23.209,17.524 24.703,15.884 26.379,14.047c5.083,-5.575 29.48,-61.386 32.33,-61.316c1.532,0.038 2.278,3.544 6.704,11.551Z" style="fill:#fbeebb;"/><path d="M681.409,318.492l0.941,0.913c32.271,10.308 17.799,42.751 3.11,47.5c-1.086,0.351 -2.208,0.541 -3.297,0.879c-1.138,0.354 -3.556,2.775 -5.118,0.337c-0.279,-0.435 0.563,-1.144 0.285,-1.579c3.904,-22.099 3.75,-22.073 4.079,-48.051Z" style="fill:#f4bca1;"/><path d="M335.595,323.645c0.385,20.934 0.645,20.779 3.988,41.228c-0.263,0.454 0.546,1.144 0.282,1.598c-1.438,2.48 -6.216,0.337 -8.212,0.148c-18.119,-1.718 -25.46,-49.113 3.019,-43.372l0.922,0.398Z" style="fill:#f5bea4;"/><path d="M438.285,61.449c-1.494,2.914 -5.556,3.65 6.69,57.299c-1.613,4.411 -3.561,1.763 -9.009,3.799c-1.199,-5.719 -14.785,-70.531 -12.895,-72.011c1.702,-1.333 4.081,3.556 15.214,10.913Z" style="fill:#fbf3cf;"/><path d="M586.494,570.297c1.458,0.413 1.436,-0.103 2.902,0.312c0.158,0.045 0,0 1.928,0.719c2.512,3.067 2.33,3.164 5.419,5.389c0.576,1.15 1.152,2.299 1.728,3.449c-0.062,1.026 -0.123,2.053 -0.185,3.079c-2.092,2.008 -2.112,2.027 -31.471,15.362l-2.977,1.681c-14.738,2.072 -16.935,-0.123 -19.844,-16.552c3.234,-0.203 5.494,0.243 5.965,0.336c2.532,1.464 16.365,9.464 34.836,-7.921c2.765,-2.602 4.61,-3.347 1.698,-5.853Z" style="fill:#c6542f;"/><path d="M496.994,566.343c3.55,-0.172 3.079,1.177 6.429,2.841c15.383,7.642 23.28,-12.119 29.228,5.451c2.886,8.527 8.474,11.495 7.027,17.637l-1.569,0.289c-7.67,-2.392 -12.303,-6.147 -15.212,-7.2c-16.628,-6.019 -22.612,-2.862 -25.903,-19.018Z" style="fill:#da491f;"/><path d="M692.928,553.951c0.885,0.563 0.816,-0.93 1.684,-0.378c0.182,0.116 1.366,0.869 1.508,2.41c0.053,0.569 -0.441,0.336 -1.837,6.842c-4.919,22.93 -17.882,-0.073 -22.552,6.947c-0.401,0.603 -0.875,1.894 6.901,5.291l0.302,1.464c-4.827,6.205 -5.866,8.858 -11.763,5.275c-6.913,-4.2 -7.479,-2.845 -13.582,-8.63l0.231,-1.481c0.44,-0.544 0.88,-1.088 1.32,-1.632c21.215,-5.339 24.933,-7.664 37.787,-16.106Z" style="fill:#e23428;"/><path d="M725.745,554.803l2.152,-1.835c4.897,3.048 6.445,2.018 7.226,8.254c2.59,20.667 4.839,20.304 4.448,41.149c-0.557,-0.238 -0.638,-1.265 -1.194,-1.503c-0.131,-0.056 -3.309,-0.109 -7.134,-2.266c-10.753,-6.063 -0.353,-11.252 -5.497,-43.798Z" style="fill:#f5c5aa;"/><path d="M557.098,519.283c-0.411,0.613 -2.534,3.778 -5.459,7.381c-3.013,4.076 -7.916,12.642 -12.941,1.61c-0.478,-2.278 -1.057,-4.527 -1.535,-6.805c-4.443,-21.153 25.828,-25.503 19.935,-2.186Z" style="fill:#7a4d3b;"/><path d="M647.324,570.498c2.56,5.293 -1.843,4.361 -14.713,27.139c-2.46,-1.174 -2.161,-1.824 -4.794,-2.287c-1.172,-0.206 -1.184,-0.13 -1.77,-1.414c-1.994,-4.376 -2.665,-0.879 -3.172,-0.417c-0.873,0.795 -0.883,0.175 -2.917,-0.19c-1.416,-0.254 -1.306,-0.264 -2.796,-0.565c1.167,-1.792 1.289,-1.736 1.247,-4.005c4.553,-4.616 4.226,-4.781 8.084,-10.108c5.459,-10.226 7.889,-6.571 20.831,-8.152Z" style="fill:#ea6723;"/><path d="M709.702,577.176c0.461,0.355 1.073,-1.108 1.534,-0.754c0,0 -1.257,3.409 -1.366,3.706c-0.014,0.019 -12.119,22.742 -33.306,14.965c-0.783,-1.697 -1.921,-1.672 -0.507,-4.816c7.597,-16.899 20.43,-2.811 33.645,-13.101Z" style="fill:#fae4a9;"/><path d="M539.438,426.842c6.386,-0.387 9.856,0.481 10.692,0.691c21.25,5.32 24.214,13.854 25.403,15.5c-0.109,3.765 0.773,5.651 -2.494,5.086c-2.417,-0.418 -7.268,-2.921 -7.878,-3.236c-23.718,-12.24 -24.915,-11.182 -26.305,-16.15l0.581,-1.891Z" style="fill:#e49342;"/><path d="M658.992,589.128c0.281,4.141 -0.126,4.017 -1.336,7.871c-0.334,0.579 -2.212,3.835 -4.535,6.958c-1.697,2.16 -1.727,1.867 -4.172,3.065c-7.162,-1.062 -9.993,-0 -9.244,-8.055c9.041,-15.076 8.609,-15.697 10.647,-16.252c2.637,-0.719 8.068,5.735 8.638,6.413Z" style="fill:#fbeea6;"/><path d="M489.532,438.951c1.792,-0.098 19.754,-2.18 21.46,1.601c1.591,3.526 -1.36,6.767 -6.241,7.329c-19.248,2.219 -20.412,4.825 -26.794,-2.11c0.941,-2.732 0.903,-2.585 2.689,-4.724c4.372,-2.157 4.35,-1.629 8.886,-2.096Z" style="fill:#744737;"/><path d="M643.979,653.775c-7.373,7.239 -7.262,7.186 -13.738,15.282c-2.191,2.739 -9.356,-5.427 -10.486,-7.849c-3.436,-7.367 -0.975,-9.186 6.397,-9.536c14.801,-0.702 17.834,-3.921 17.827,2.103Z" style="fill:#f06b90;"/><path d="M655.619,401.42c-0.799,2.083 -5.359,13.964 -11.909,24.981c-5.73,9.637 -7.373,7.853 -17.518,6.307c5.711,-5.446 24.178,-29.307 25.553,-31.588l1.019,-1.721l2.856,2.021Z" style="fill:#f0bea3;"/><path d="M614.032,459.671c5.402,-0.054 5.255,-0.076 10.541,-0.294c6.295,3.256 5.946,4.189 12.705,4.889c1.964,1.485 1.808,1.559 3.785,2.861c13.152,8.661 -10.997,12.362 -28.39,-2.504c0.273,-2.656 0.357,-2.526 1.36,-4.953Z" style="fill:#744838;"/><path d="M605.971,586.11c6.569,5.006 10.227,6.31 11.192,6.653c1.49,0.301 1.381,0.311 2.796,0.565c2.034,0.365 2.044,0.985 2.917,0.19c0.507,-0.462 1.178,-3.958 3.172,0.417c0.585,1.284 0.598,1.208 1.77,1.414c2.633,0.463 2.333,1.113 4.794,2.287c-14.128,17.732 -20.665,1.593 -27.85,-5.337c-1.98,-1.91 -2.384,-1.815 -2.32,-5.293c2.438,-0.491 2.419,-0.354 3.53,-0.896Z" style="fill:#de4f2f;"/><path d="M566.815,598.607c0.877,0.362 0.816,2.166 1.693,2.529c0.901,0.372 1.87,-0.485 2.815,-0.667c12.046,-2.321 15.853,-5.482 17.011,-6.443c8.161,-6.776 17.678,7.362 17.536,8.39c-0.478,3.474 -29.013,-2.675 -41.943,2.182l1.068,-2.128l-1.157,-2.18l2.977,-1.681Z" style="fill:#c5ac5d;"/><path d="M531.221,342.218c6.489,16.075 -10.066,19.626 -9.269,12.518c0.685,-6.107 2.399,-7.365 -3.446,-12.321c-0.519,-0.44 -8.705,-7.379 -0.253,-9.187c6.472,-1.384 12.264,7.865 12.968,8.989Z" style="fill:#f8c6ab;"/><path d="M699.087,576.327c-2.016,-0.535 -2.33,0.175 -3.053,-1.407c-0.547,-1.198 3.791,-18.091 4.238,-19.096c6.83,-15.356 20.146,18.056 -1.185,20.503Z" style="fill:#e2f089;"/><path d="M550.359,609.239c0.153,-0.388 -0.902,-0.563 -0.749,-0.951c1.506,-3.82 4.845,-3.078 5.31,-2.974c15.104,3.357 15.014,3.096 30.274,3.601c-0.122,0.311 -1.527,3.887 -1.527,3.887c-0.877,0.482 -0.799,-0.858 -1.67,-0.379c-1.371,0.325 -2.742,0.649 -4.114,0.974c-9.982,4.336 -14.554,7.431 -27.525,-4.158Z" style="fill:#c25e28;"/><path d="M646.36,526.344c-1.186,-2.031 -6.51,-14.852 -12.28,-7.821c-5.295,6.451 -4.982,-1.504 -3.291,-3.77c9.408,-12.603 25.277,2.998 24.614,8.619c-1.093,9.267 -8.425,3.461 -9.043,2.972Z" style="fill:#794a39;"/><path d="M537.807,458.479c2.704,4.675 2.713,4.444 2.928,4.846c0.888,1.659 1.395,13.405 -21.307,2.292c-7.302,-3.574 9.69,-10.576 18.379,-7.138Z" style="fill:#744635;"/><path d="M591.324,571.329c2.514,0.516 2.535,-0.869 31.906,1.671c-1.507,5.093 -1.406,5.327 -5.356,8.211c-0.28,0.204 -0.833,0.091 -0.914,0.458c-0.297,1.354 0.714,1.294 0.254,2.547c-0.519,1.412 -1.365,0.476 -1.887,1.894c-1.199,-0.756 -11.364,-7.164 -14.834,-9.764c-1.704,-1.496 -1.79,-0.515 -3.75,0.372c-3.089,-2.225 -2.907,-2.322 -5.419,-5.389Z" style="fill:#dd3d19;"/><path d="M488.699,562.702c2.385,18.051 -14.294,3.544 -14.296,0.181c-0.001,-0.99 -0.007,-11.686 1.345,-12.279c2.677,-1.173 6.6,2.309 7.226,2.804c4.241,3.353 3.961,3.71 5.725,9.294Z" style="fill:#d9e260;"/><path d="M586.865,453.417c6.809,0.019 22.796,5.188 27.167,6.254c-1.003,2.426 -1.087,2.297 -1.36,4.953c-10.401,0.415 -10.339,-0.171 -20.076,-4.469c-5.018,-2.215 -8.503,-1.471 -5.732,-6.738Z" style="fill:#9f6847;"/><path d="M427.89,463.053c-1.368,15.079 -14.605,8.334 -10.481,-1.377c0.302,-0.711 2.499,-5.884 6.795,-6.171c4.413,-0.294 3.586,6.127 3.686,7.548Z" style="fill:#ddd851;"/><path d="M663.433,482.868c-0.993,0.618 -6.231,3.878 -14.161,0.013c-9.99,-4.87 21.411,-15.559 14.161,-0.013Z" style="fill:#7e543d;"/><path d="M490.832,580.796c2.269,1.264 1.976,2.258 -0.028,3.984c-12.436,3.609 -22.802,-8.13 -17.766,-10.774c1.539,-0.808 11.955,5.642 17.793,6.79Z" style="fill:#92b74a;"/><path d="M579.405,428.044c7.587,4.543 7.473,4.446 15.196,8.399l-1.827,1.576l-1.353,0.96c1.394,3.386 1.347,3.593 -0.504,6.718c-2.994,-2.592 -2.774,-2.655 -4.442,-3.502c-1.015,-7.863 -4.924,-4.775 -8.883,-11.262l1.813,-2.889Z" style="fill:#fdebb0;"/><path d="M600.493,576.346c3.471,2.599 13.635,9.008 14.834,9.764l3.081,2.649c0.042,2.268 -0.08,2.212 -1.247,4.005c-0.964,-0.344 -4.623,-1.648 -11.192,-6.653l-1.189,-0.531c-0.102,-0.17 -1.279,-2.13 -1.279,-2.13c-0.875,-0.163 -1.242,0.44 -1.922,-1.415c-1.384,-3.77 -2.998,-3.27 -3.467,-3.782c0.794,-0.636 1.587,-1.271 2.381,-1.907Z" style="fill:#6a3a24;"/><path d="M509.267,428.693l1.158,1.867c-0.11,0.343 0.348,2.575 -2.888,2.787c-5.33,0.348 -5.326,-0.204 -10.079,2.191l-1.852,-0.718l-1.518,0.396l-1.518,0.101l-1.518,0.052l-1.518,-0.028l-1.518,1.224c-0.813,-0.736 -2.178,-0.273 -2.991,-1.009c-4.622,-4.187 22.25,-6.678 24.242,-6.862Z" style="fill:#dc9949;"/><path d="M495.934,541.45c-1.787,0.975 -1.379,1.921 -3.586,1.957c-0.76,0.012 -14.729,6.964 -13.366,-2.877c1.131,-8.16 11.805,-0.916 16.951,0.92Z" style="fill:#eb3a0f;"/><path d="M405.479,485.283c4.161,-8.775 7.807,-4.045 8.127,-1.556c1.185,9.203 -7.747,11.691 -8.127,1.556Z" style="fill:#a5d629;"/><path d="M624.574,459.377c1.281,-9.691 12.14,-3.644 12.705,4.889c-6.759,-0.7 -6.41,-1.633 -12.705,-4.889Z" style="fill:#91644a;"/><path d="M658.992,589.128c5.328,0.562 5.705,-0.718 9.971,2.795c-0.129,1.181 -0.257,2.363 -0.386,3.544l-1.314,2.359c-3.961,-0.353 -3.949,-0.711 -7.686,1.013l-1.92,-1.84c1.209,-3.855 1.616,-3.731 1.336,-7.871Z" style="fill:#9f622a;"/><path d="M623.231,573c0.65,0.615 0.832,-0.545 1.487,0.073c0.198,0.188 0.05,0.265 0.67,3.581l1.106,1.996c-3.858,5.328 -3.531,5.493 -8.084,10.108l-3.081,-2.649c0.521,-1.417 1.367,-0.481 1.887,-1.894c0.461,-1.253 -0.551,-1.193 -0.254,-2.547c0.08,-0.366 0.634,-0.253 0.914,-0.458c3.951,-2.885 3.85,-3.119 5.356,-8.211Z" style="fill:#a44f29;"/><path d="M480.645,441.047c-1.786,2.14 -1.747,1.992 -2.689,4.724c-2.72,4.796 -2.466,5.119 -3.551,5.511c-6.986,2.521 -1.518,-12.985 4.5,-12.116c0.795,0.115 0.944,1.766 1.739,1.881Z" style="fill:#fae9c0;"/><path d="M498.9,406.533c-13.753,8.083 -14.409,6.3 -15.239,6.263c0.486,-1.141 2.657,-6.235 11.947,-8.227c1.391,-0.298 1.487,-0.241 1.601,-0.173c1.25,0.746 0.525,1.441 1.692,2.137Z" style="fill:#cd6c70;"/><path d="M546.209,514.849c2.035,-5.107 5.665,-4.112 5.203,1.587c-0.323,3.991 -6.362,7.096 -5.203,-1.587Z" style="fill:#fce8c8;"/><path d="M586.474,442.195c1.668,0.848 1.448,0.911 4.442,3.502c-0.88,2.629 -3.078,3.346 -5.745,5.557c-1.241,-2.58 -4.043,-3.715 1.303,-9.059Z" style="fill:#fdefd1;"/><path d="M446.304,451.016c-0.765,2.775 0.164,5.92 -0.602,8.694c-0.654,2.37 -1.385,-0.003 -3.531,-0.008c0.028,-0.859 -0.553,-11.622 1.691,-10.637c0.929,0.408 1.514,1.543 2.442,1.951Z" style="fill:#fde386;"/><path d="M648.933,653.203c-0.926,-2.626 -2.492,-3.611 -0.039,-4.372c0.539,-0.167 9.433,-2.925 6.898,1.198c-0.684,1.112 -6.291,2.984 -6.859,3.173Z" style="fill:#8e484a;"/><path d="M501.89,545.06c1.794,0.827 1.669,0.816 3.015,2.199c0.779,3.478 -0.303,3.24 -1.26,6.792c-2.767,-3.001 -3.054,-2.557 -5.055,-6.433c1.1,-0.853 2.201,-1.705 3.301,-2.558Z" style="fill:#b34922;"/><path d="M718.994,586.978c-2.12,6.786 -6.01,1.964 -4.378,-1.485c1.711,-3.616 3.347,-2.465 4.378,1.485Z" style="fill:#c3b448;"/><path d="M598.112,578.253c0.469,0.512 2.084,0.012 3.467,3.782c0.681,1.855 1.047,1.252 1.922,1.415c0,0 1.177,1.959 1.279,2.13l-3.025,0.096c-2.224,-0.116 -2.009,-0.556 -3.471,-2.429c0.062,-1.026 0.123,-2.053 0.185,-3.079l-0.359,-1.914Z" style="fill:#904f31;"/><path d="M408.26,473.944c1.875,-1.701 1.543,-2.489 3.849,-2.351c2.21,0.132 1.569,1.03 2.318,3.322l-2.218,0.512l-1.656,0.461c-0.728,-0.251 -0.402,0.896 -1.124,0.648c-0.197,-0.068 -0.087,-0.192 -1.169,-2.592Z" style="fill:#8a782c;"/><path d="M715.007,571.232c-0.272,0.756 1.283,1.41 1.011,2.167c-1.271,3.532 -4.75,6.06 -5.272,6.439c-0.256,0.186 -0.62,0.104 -0.876,0.291c0.109,-0.296 1.366,-3.706 1.366,-3.706c-0.461,-0.355 -1.073,1.108 -1.534,0.754c2.598,-3.138 2.771,-2.771 5.305,-5.945Z" style="fill:#7d6133;"/><path d="M687.405,612.084c2.058,-0.258 2.05,-0.334 2.222,-0.279c1.76,0.562 0.82,1.405 1.269,2.174l-2.217,0.729c-0.425,-0.875 -0.85,-1.75 -1.274,-2.624Z" style="fill:#be7f24;"/><path d="M596.743,576.718c1.961,-0.887 2.046,-1.868 3.75,-0.372c-0.794,0.636 -1.587,1.271 -2.381,1.907l0.359,1.914c-0.576,-1.15 -1.152,-2.299 -1.728,-3.449Z" style="fill:#ac3b20;"/><path d="M563.52,578.118c0.13,0.828 1.249,1.151 1.379,1.978c0.182,1.16 -3.32,1.092 -3.62,1.087c0.48,-0.666 0.679,-0.213 1.136,-0.848c0.114,-0.158 0.082,-0.164 1.105,-2.217Z" style="fill:#f3df95;"/><path d="M557.729,375.641l1.643,-1.221c0.528,0.264 1.055,0.528 1.583,0.792c-1.092,0.461 -0.438,1.205 -1.464,1.639c-0.098,0.042 -0.315,0.133 -1.236,-0.499c-0.233,-0.16 -0.292,-0.55 -0.525,-0.71Z" style="fill:#83333f;"/><path d="M601.757,585.675l3.025,-0.096l1.189,0.531c-1.11,0.543 -1.092,0.405 -3.53,0.896l-0.685,-1.332Z" style="fill:#964b31;"/><path d="M678.632,575.062c1.545,-0.34 -0.609,-2.285 0.899,-2.617c0.168,-0.037 1.202,-0.265 0.836,2.235c-0.118,0.809 -1.316,1.037 -1.434,1.846l-0.302,-1.464Z" style="fill:#795439;"/><path d="M668.963,591.923c0.127,0.132 1.593,1.65 1.593,1.65c-0.398,0.869 -1.582,1.025 -1.979,1.894c0.129,-1.181 0.257,-2.363 0.386,-3.544Z" style="fill:#8e5629;"/><path d="M577.884,613.397c1.371,-0.325 2.742,-0.649 4.114,-0.974c-2.037,0.936 -1.911,1.571 -4.114,0.974Z" style="fill:#938a2d;"/><path d="M718.585,573.052c-0.095,1.192 -0.144,1.092 -0.769,3.9c-0.072,-2.178 -0.106,-2.089 0.769,-3.9Z" style="fill:#635824;"/><path d="M658.156,470.226c-0.882,0.111 -1.453,1.34 -2.336,1.452l-0.677,-1.072c1.412,-0.878 1.612,0.491 3.012,-0.38Z" style="fill:#fde176;"/><path d="M410.553,475.888l1.656,-0.461c-0.342,0.267 0.218,1.139 -0.124,1.406c0,0 -1.409,-0.869 -1.532,-0.945Z" style="fill:#7e6319;"/><path d="M697.582,480.466c0.866,-1.25 0.16,-2.95 1.319,-1.905c1.181,1.065 -0.451,0.651 -1.319,1.905Z" style="fill:#feea8d;"/><path d="M717.817,576.951c-0.246,0.832 0.754,0.547 0.508,1.381c-0.067,0.228 -0.59,1.998 -1.617,2.378c0,0 1.02,-3.458 1.109,-3.758Z" style="fill:#625325;"/></g></svg>