<?xml version="1.0" encoding="UTF-8" standalone="no"?><!DOCTYPE svg PUBLIC "-//W3C//DTD SVG 1.1//EN" "http://www.w3.org/Graphics/SVG/1.1/DTD/svg11.dtd"><svg width="882" height="882" viewBox="0 0 882 882" version="1.1" xmlns="http://www.w3.org/2000/svg" xmlns:xlink="http://www.w3.org/1999/xlink" xml:space="preserve" xmlns:serif="http://www.serif.com/" style="fill-rule:evenodd;clip-rule:evenodd;stroke-linejoin:round;stroke-miterlimit:2;"><g id="Background"><path d="M277.65,650.643c8.495,6.792 8.387,6.818 9.175,7.335c10.929,7.184 71.63,-17.684 56.956,30.709c-3.882,12.803 40.311,21.886 16.05,63.057c-36.652,40.193 -78.45,6.501 -122.392,-20.303c-28.43,-17.342 -31.287,-31.806 -43.237,-15.944c-38.475,59.224 -41.16,94.05 -48.394,129.775c-32.268,17.812 -1.319,-69.944 14.493,-101.557c16.755,-33.498 19.697,-31.765 28.097,-47.293c4.907,-9.07 -59.381,-36.905 7.87,-140.174c12.125,-18.619 -2.042,-20.695 1.601,-44.914c2.334,-15.52 -5.61,-13.172 -13.626,-17.049c-19.145,-9.261 -45.104,-36.806 -47.483,-66.115c-2.641,-32.538 7.819,-31.574 24.414,-30.495c30.075,1.956 35.362,-33.987 27.414,-40.047c-34.692,-26.449 -20.721,-61.553 -4.21,-75.662c12.806,-10.943 2.896,-26.092 10.708,-53.184c18.772,-65.102 46.775,-101.955 114.302,-133.059c5.851,-2.695 2.248,-4.792 -7.115,-60.9c-5.1,-30.564 36.403,5.241 56.038,19.1c9.729,6.867 19.711,-24.615 37.419,-48.998c17.66,-24.317 40.725,49.268 50.465,50.435c3.514,0.421 3.409,-0.486 36.475,-24.339c37.708,-27.201 19.85,19.559 14.379,56.492c-3.134,21.154 69.803,12.025 111.235,122.233c7.194,19.136 9.912,58.234 10.267,63.353c0.384,5.532 9.481,11.21 12.284,14.772c30.367,38.594 -13.596,70.859 -13.217,76.727c2.724,42.157 38.033,32.306 39.929,32.196c22.772,-1.323 18.245,43.222 1.649,66.723c-26.776,37.917 -50.458,26.898 -48.526,45.296c2.923,27.85 -9.636,29.74 2.448,48.915c54.162,85.944 21.651,114.108 7.914,134.005c-3.634,5.263 0.203,5.104 9.882,19.718c11.189,16.894 23.74,45.249 24.283,46.198c3.051,5.333 20.808,3.755 30.897,3.612c5.223,-0.074 6.331,-2.121 6.741,-5.985c3.822,-35.984 -3.897,-34.606 -6.316,-36.638c-20.679,-17.378 -7.086,-74.2 -6.401,-74.581c23.268,-12.939 -7.048,47.386 19.153,68.071c20.265,15.998 0.71,45.01 9.352,48.941c11.312,5.145 10.327,-2.156 9.673,-14.292c-1.103,-20.454 -5.846,-23.222 10.044,-36.508c15.779,-13.193 1.036,-61.911 8.985,-66.05c12.405,-6.46 11.067,21.767 12.1,41.675c1.514,29.2 -14.333,34.478 -17.407,38.948c-2.506,3.643 1.19,36.066 1.274,36.313c1.86,5.484 46.964,11.199 47.269,11.082c2.534,-0.97 6.675,-44.301 1.436,-49.356c-51.912,-50.091 19.092,-115.189 48.737,-69.733c26.359,40.417 -2.673,65.856 -6.951,69.604c-4.193,3.674 -4.195,4.633 1.017,68.533c0.773,9.471 23.18,26.684 -18.562,47.601c-30.541,15.304 -33.102,44.202 -131.548,42.497c-89.104,-1.543 -89.978,-26.079 -114.271,-37.163c-17.831,-11.483 -17.718,-11.284 -19.215,-12.327c-18.056,-12.588 -33.131,-49.826 76.292,-66.33c14.89,-2.246 24.344,0.023 18.017,-13.497c-9.597,-20.51 -23.98,-49.171 -32.056,-43.834c-43.138,28.511 -110.054,92.773 -154.022,44.062c-6.859,-11.093 -17.316,-30.744 11.434,-55.123c7.282,-6.175 2.4,-7.564 1.083,-16.937c-4.265,-30.365 40.32,-21.837 44.185,-21.097c14.649,2.802 14.835,0.649 26.229,-8.73c1.811,-1.638 12.76,-7.746 4.425,-13.061c-128.157,-81.728 -245.74,-11.022 -263.673,-0.238c-8.845,5.319 2.514,11.739 4.532,13.537Z" style="fill:#6a1e40;"/><path d="M563.592,272.121c5.685,1.147 16.907,-3.183 15.517,31.492c-0.845,21.071 -9.767,48.213 -11.104,52.281c-6.513,0.455 -6.518,0.982 -10.305,6.265c-80.341,112.096 -230.231,103.591 -305.25,2.862l-2.853,-2.917l-4.205,3.056c-3.19,-6.53 -22.775,-46.62 -13.278,-89.42c1,1.92 2.001,3.841 3.001,5.761c0.284,0.274 0.055,7.925 60.288,-1.866c83.188,-13.523 122.214,-57.077 129.905,-65.659c14.171,-15.815 11.165,27.103 86.302,54.524c23.931,8.734 54.422,12.464 54.648,11.212c0.114,-0.632 -0.197,-0.562 -2.666,-7.591Z" style="fill:#fbdfbc;"/><path d="M491.051,120.791c4.352,-17.778 11.87,-8.128 27.566,1.595c13.988,8.666 80.327,47.591 84.084,142.504c0.286,7.225 -1.4,9.152 -8.279,6.385c-5.977,-2.404 -0.437,-9.536 -11.193,-11.18c-4.639,-0.709 -53.444,-3.813 -94.142,-36.586c-54.31,-43.735 -46.716,-77.853 -61.67,-63.016c-10.367,10.286 -49.954,90.731 -197.846,98.412c-16.216,0.842 -14.228,21.2 -22.519,11.326c-2.536,-3.02 -4.157,-103.162 93.143,-153.364c9.678,-4.994 14.346,-9.536 16.391,1.043c0,0 1.615,5.192 1.755,5.644c4.492,7.617 15.327,25.989 110.887,21.152c9.127,-0.462 37.312,-4.865 43.055,-6.736c18.242,-5.941 16.255,-9.09 18.768,-17.178Z" style="fill:#ce776e;"/><path d="M194.201,715.497c11.95,-15.862 14.808,-1.398 43.237,15.944c43.943,26.805 85.74,60.497 122.392,20.303c0.67,1.416 2.628,1.991 3.299,3.408c3.852,8.137 -24.52,43.305 -70.788,25.193c-0.57,-0.223 -31.863,-12.473 -6.969,3.126c35.098,21.992 124.114,72.448 236.771,0.989c7.502,-4.759 1.852,-7.826 -1.3,-6.256c-37.177,18.516 -70.552,1.624 -75.317,-23.052l3.908,-2.859c43.968,48.711 110.884,-15.551 154.022,-44.062c8.076,-5.337 22.459,23.324 32.056,43.834c6.326,13.52 -3.127,11.251 -18.017,13.497c-109.423,16.504 -94.348,53.742 -76.292,66.33c1.497,1.043 1.384,0.844 19.215,12.327c-0.896,0.209 -1.682,-1.181 -2.578,-0.972c-0.58,0.135 -1.187,2.812 -8.705,2.956c-51.797,0.991 -344.317,-0.066 -382.26,0.574c-5.96,0.101 -5.668,-0.113 -11.419,-0.228c8.064,-12.472 3.583,-40.764 37.507,-105.1c3.732,-7.077 10.711,-7.424 1.238,-25.954Z" style="fill:#f66c91;"/><path d="M277.65,650.643c65.948,-54.544 208.559,-44.011 254.716,-0.237c-11.394,9.379 -11.58,11.532 -26.229,8.73c-3.865,-0.739 -48.45,-9.268 -44.185,21.097c1.317,9.373 6.199,10.762 -1.083,16.937c-28.75,24.379 -18.293,44.029 -11.434,55.123l-3.908,2.859c4.765,24.676 38.14,41.568 75.317,23.052c3.152,-1.57 8.802,1.497 1.3,6.256c-112.658,71.459 -201.674,21.004 -236.771,-0.989c-24.894,-15.599 6.399,-3.349 6.969,-3.126c46.269,18.112 74.64,-17.055 70.788,-25.193c-0.67,-1.416 -2.628,-1.991 -3.299,-3.408c24.261,-41.171 -19.932,-50.254 -16.05,-63.057c14.674,-48.393 -46.027,-23.525 -56.956,-30.709c-0.787,-0.518 -0.68,-0.543 -9.175,-7.335Z" style="fill:#f98ea7;"/><path d="M754.745,839.454c-15.624,2.003 -127.133,16.3 -196.515,-13.329c-67.097,-28.653 104.94,-77.068 235.899,-34.075c55.443,18.201 -5.31,38.882 -8.483,39.962c-3.3,1.123 -3.246,0.959 -30.901,7.443Z" style="fill:#faf6e8;"/><path d="M511.121,547.596c-4.254,4.576 -4.996,4.074 -6.485,10.894c-5.79,26.511 -26.818,20.711 -46.75,16.478c-109.864,-23.33 -132.277,30.837 -154.951,-16.08c-1.941,-4.016 -2.89,-2.924 -6.023,-6.093c19.127,-87.647 50.05,-84.518 50.793,-74.797c3.524,46.081 49.895,64.924 87.391,44.595c29.178,-15.819 23.897,-51.838 31.386,-50.404c26.523,5.079 40.184,58.217 44.639,75.407Z" style="fill:#f98ca7;"/><path d="M205.579,571.342c1.739,1.342 18.044,13.926 22.067,16.36c14.868,8.997 17.359,5.718 27.195,17.649c-4.95,10.13 -7.27,14.676 -10.935,13.997c-1.394,-0.258 -27.381,-5.07 -5.427,16.399c50.807,49.685 56.871,39.66 56.883,39.658c2.702,-0.551 31.374,-6.401 34.505,-0.907c5.362,9.406 -12.63,12.485 -14.45,14.351c-10.947,11.228 24.336,9.474 34.956,35.623c-0.493,0.845 0.933,2.036 0.44,2.881c-8.712,14.942 -30.061,12.121 -32.836,11.755c-17.223,-2.275 -104.232,-48.343 -130.089,-94.752l-3.749,-2.77l-3.117,-2.763c2.382,-19.675 1.912,-30.705 24.554,-67.482Z" style="fill:#fadfbb;"/><path d="M604.257,571.727c16.936,31.836 20.941,35.184 22.917,67.154l-4.582,2.706c-28.033,42.359 -43.975,47.896 -96.786,82.302c-44.297,28.859 -58.246,10.108 -62.249,11.473c-1.718,0.586 -2.255,3.056 -3.973,3.642c-10.454,-40.896 48.166,-35.77 32.631,-50.464c-0.21,-0.198 -19.094,-6.917 -13.92,-13.408c9.132,-11.456 32.551,10.113 55.632,-7.005c4.332,-3.213 41.282,-35.561 43.439,-40.52c7.055,-16.219 -14.569,-3.658 -18.652,-11.442c-0.418,-0.798 -0.349,-0.756 -4.716,-10.21c9.769,-9.992 10.921,-8.257 23.082,-15.291c14.483,-8.377 14.202,-8.46 27.177,-18.936Z" style="fill:#fbdfba;"/><path d="M759.208,115.271c-0.334,1.871 7.486,34.359 -81.532,50.764c-18.966,3.495 -40.221,-63.035 -34.655,-81.263c6.218,-20.361 38.266,-48.007 66.749,-6.103c5.519,8.119 45.326,-13.029 49.438,36.603Z" style="fill:#6d1e43;"/><path d="M228.816,368.388c52.001,94.253 95.542,79.86 96.004,93.331c0.661,19.287 -53.391,-54.594 -116.128,21.237c-1.601,1.935 -7.502,9.068 -29.91,-10.905c-27.877,-24.847 -25.772,-44.075 -27.126,-54.763c25.745,13.175 26.143,11.815 26.579,11.837c51.561,2.588 45.367,-47.143 45.341,-50.711c-0.061,-8.34 2.452,-7.263 2.971,-8.277l2.269,-1.749Z" style="fill:#ba5e5d;"/><path d="M583.313,367.091c1.778,4.213 1.969,4.108 1.372,8.587c-5.502,41.249 34.087,73.701 69.494,41.548l3.037,-2.621c-0.413,13.889 0.684,48.438 -48.75,70.655c-11.418,5.132 -18.975,-37.539 -76.374,-36.339c-23.459,0.491 -50.164,22.992 -48.705,12.62c0.17,-1.208 62.815,-27.861 87.464,-75.333c6.287,-12.109 4.472,-13.244 12.462,-19.118Z" style="fill:#b95d5d;"/><path d="M410.439,29.02c10.35,16.359 9.954,16.299 20.204,32.86c13.891,22.446 20.272,10.034 34.947,-0.309c0.322,0.667 3.414,0.047 1.439,9.595c-0.406,1.963 -1.524,3.724 -2.169,5.626c-8.827,25.99 -5.596,40.121 -44.05,42.091c-52.858,2.707 -73.15,-5.926 -74.22,-6.133c-3.428,-0.663 -2.857,-1.53 -5.838,-3.126c0.191,-23.176 -11.17,-37.685 -4.933,-53.122c2.334,1.496 2.252,1.504 11.468,8.036c0,0 10.59,7.343 11.511,7.982c-0.044,1.013 -3.254,4.601 2.494,9.102c20.837,16.316 28.567,-26.084 49.149,-52.601Z" style="fill:#fac851;"/><path d="M126.883,122.634c55.813,4.702 16.61,77.965 11.254,83.91c-8.353,9.27 -74.519,-7.378 -75.131,-38.541c-0.667,-33.926 35.596,-26.821 37.843,-28.338c10.203,-6.888 6.417,-13.016 26.034,-17.031Z" style="fill:#6c1e42;"/><path d="M568.004,355.894c-56.224,134.444 -251.818,146.017 -322.612,9.266l4.205,-3.056l2.853,2.917c75.019,100.729 224.908,109.234 305.25,-2.862c3.786,-5.283 3.791,-5.81 10.305,-6.265Z" style="fill:#f6ba9d;"/><path d="M563.592,272.121c2.469,7.029 2.78,6.959 2.666,7.591c-0.226,1.253 -30.717,-2.478 -54.648,-11.212c-75.136,-27.421 -72.13,-70.34 -86.302,-54.524c-7.69,8.582 -46.716,52.136 -129.905,65.659c-60.234,9.791 -60.005,2.141 -60.288,1.866c-1,-1.92 -2.001,-3.841 -3.001,-5.761c12.474,-8.584 67.801,5.02 153.528,-50.857c24.286,-15.829 44.032,-43.644 46.607,-43.487c2.501,0.153 21.265,44.79 80.362,74.297c15.664,7.821 46.813,15.412 50.981,16.428Z" style="fill:#f6b99f;"/><path d="M307.279,481.401c-2.112,4.288 -18.427,37.413 -23.078,55.024c-4.378,-0.318 -4.475,-1.343 -7.983,1.217c-21.846,15.943 -54.616,-3.998 -58.002,-4.753c-1.454,-0.798 -2.907,-1.596 -4.361,-2.394c-0.449,-5.826 -7.847,-42.637 36.11,-62.587c20.051,-9.1 67.197,-1.683 57.314,13.493Z" style="fill:#f896b0;"/><path d="M585.758,813.797c23.073,-8.316 29.765,-13.467 77.638,-16.018c73.705,-3.927 100.691,13.21 108.028,17.869c-24.518,25.349 -163.043,25.881 -185.666,-1.851Z" style="fill:#f1dec7;"/><path d="M511.121,547.596c0.813,4.486 9.26,51.062 0.206,56.934c-3.647,2.365 -101.352,-47.29 -207.987,0.107c-18.018,8.008 -7.222,-47.737 -6.427,-51.842c3.132,3.169 4.082,2.077 6.023,6.093c22.674,46.917 45.087,-7.25 154.951,16.08c19.932,4.233 40.96,10.033 46.75,-16.478c1.49,-6.821 2.231,-6.318 6.485,-10.894Z" style="fill:#f66590;"/><path d="M677.528,72.745c29.061,4.578 15.664,33.506 30.899,27.412c3.02,-1.208 22.326,-13.897 34.063,4.405c18.099,28.222 -62.573,54.049 -68.496,41.564c-10.784,-22.731 -34.377,-69.462 3.534,-73.381Z" style="fill:#f97395;"/><path d="M502.162,482.021c7.856,-3.138 41.094,-20.926 74.932,13.531c12.14,12.362 8.894,19.814 14.84,31.109c-12.484,13.887 -13.032,14.073 -31.56,17.179c-7.37,1.235 -20.243,-1.234 -25.384,-4.863c-2.055,-1.45 -3.339,-4.241 -5.817,-4.781c-1.63,-0.355 -2.613,2.943 -4.243,2.588c-9.602,-28.138 -9.894,-27.831 -22.767,-54.764Z" style="fill:#f98ca8;"/><path d="M277.65,650.643c-2.018,-1.798 -13.377,-8.218 -4.532,-13.537c17.933,-10.784 135.516,-81.489 263.673,0.238c8.335,5.315 -2.615,11.423 -4.425,13.061c-46.157,-43.774 -188.768,-54.307 -254.716,0.237Z" style="fill:#f8c4d3;"/><path d="M827.465,680.495c-0.252,19.868 0.981,21.634 -15.154,34.055c-14.859,11.439 8.1,75.485 -8.885,67.426c-16.183,-7.678 -4.156,-27.56 -5.042,-57.366c-0.241,-8.098 -34.082,-26.257 -14.627,-60.467c1.096,-1.927 9.963,-17.519 25.314,-12.377c10.906,3.653 17.617,26.129 18.393,28.728Z" style="fill:#e2d3c2;"/><path d="M181.025,638.824l3.117,2.763l3.749,2.77c25.856,46.409 112.866,92.476 130.089,94.752c2.774,0.367 24.123,3.187 32.836,-11.755c0.493,-0.845 -0.933,-2.036 -0.44,-2.881c3.468,26.575 -23.314,43.364 -66.108,18.921c-110.198,-62.941 -101.827,-92.935 -103.241,-104.57Z" style="fill:#f3b89c;"/><path d="M627.174,638.88c-2.144,41.055 -29.203,58.253 -101.593,104.06c-5.822,3.684 -49.621,28.43 -65.997,-3.938c1.718,-0.586 2.255,-3.056 3.973,-3.642c4.003,-1.365 17.953,17.386 62.249,-11.473c52.811,-34.406 68.753,-39.943 96.786,-82.302l4.582,-2.706Z" style="fill:#f1b69a;"/><path d="M465.59,61.571c7.036,-5.003 25.176,-22.176 22.342,-7.3c-12.047,63.239 -12.015,63.238 -12.251,64.067c-3.068,10.8 -71.601,15.547 -100.621,11.189c-37.285,-5.599 -38.761,-6.572 -42.888,-16.905c2.86,-1 5.719,-2 8.579,-3c2.981,1.597 2.411,2.463 5.838,3.126c1.07,0.207 21.362,8.84 74.22,6.133c38.454,-1.969 35.223,-16.101 44.05,-42.091c0.646,-1.902 1.763,-3.662 2.169,-5.626c1.975,-9.547 -1.116,-8.928 -1.439,-9.595Z" style="fill:#f7a840;"/><path d="M372.503,474.082c26.37,2.519 26.328,4.781 62.749,-0.098c0.691,-0.093 12.188,-3.12 11.441,4.19c-4.488,43.88 -67.858,56.061 -82.934,5.518c-4.277,-14.339 6.268,-9.711 8.744,-9.609Z" style="fill:#f7cbad;"/><path d="M141.989,154.035c-1.521,17.521 -11.523,40.712 -17.985,39.901c-51.171,-6.419 -56.756,-44.126 -28.546,-39.351c1.816,0.307 14.227,7.009 17.387,-0.391c4.823,-11.297 1.442,-16.083 14.069,-16.933c11.276,-0.759 14.697,15.031 15.075,16.774Z" style="fill:#f987a2;"/><path d="M736.682,218.063c11.372,25.812 27.198,11.761 31.085,24.783c2.608,8.737 -21.763,2.834 -29.513,22.328c-5.152,12.959 -3.003,17.097 -9.285,15.347c-12.703,-3.539 3.332,-22.048 -28.301,-30.691c-26.099,-7.131 8.577,-12.343 16.147,-21.398c4.946,-5.916 10.956,-32.082 17.163,-18.622c1.215,2.635 1.49,5.618 2.705,8.253Z" style="fill:#f6889e;"/><path d="M585.758,813.797c-4.059,-17.428 21.137,-21.441 60.339,-25.865c32.884,-3.711 144.195,-1.093 125.327,27.716c-7.337,-4.659 -34.323,-21.796 -108.028,-17.869c-47.873,2.551 -54.565,7.702 -77.638,16.018Z" style="fill:#e4ccb5;"/><path d="M583.313,367.091c8.857,-0.1 17.538,-0.968 18.882,3.397c0.472,1.534 0.913,18.909 16.069,32.253c15.391,13.552 26.093,7.166 38.952,11.863l-3.037,2.621c-35.408,32.153 -74.997,-0.299 -69.494,-41.548c0.597,-4.479 0.406,-4.374 -1.372,-8.587Z" style="fill:#cd7c70;"/><path d="M228.816,368.388l-2.269,1.749c-0.519,1.014 -3.032,-0.064 -2.971,8.277c0.026,3.567 6.22,53.299 -45.341,50.711c-0.436,-0.022 -0.834,1.338 -26.579,-11.837c3.18,-8.791 6.288,-4.701 12.372,-4.602c24.963,0.405 38.586,-20.893 41.353,-31.827c1.19,-4.702 -3.488,-18.625 23.435,-12.471Z" style="fill:#cc7b70;"/><path d="M194.201,715.497c9.473,18.529 2.494,18.877 -1.238,25.954c-33.924,64.335 -29.443,92.628 -37.507,105.1c-0.752,-0.199 -0.7,0.37 -9.65,-1.278c7.235,-35.725 9.92,-70.552 48.394,-129.775Z" style="fill:#f7a5b7;"/><path d="M595.625,531.018c-1.597,5.525 -9.795,33.88 -57.746,44.751c-4.818,1.092 -6.385,1.815 -7.216,-2.965c-3.14,-18.063 -2.474,-17.866 -5.735,-36.02c1.63,0.355 2.613,-2.943 4.243,-2.588c2.479,0.54 3.762,3.33 5.817,4.781c5.141,3.629 18.014,6.098 25.384,4.863c18.528,-3.106 19.076,-3.292 31.56,-17.179l3.692,4.357Z" style="fill:#f66590;"/><path d="M213.855,530.495c1.454,0.798 2.907,1.596 4.361,2.394c3.385,0.755 36.156,20.696 58.002,4.753c3.508,-2.56 3.605,-1.536 7.983,-1.217c-3.685,17.889 -3.302,17.713 -6.159,35.896c-0.944,6.006 -10.209,2.362 -11.043,2.034c-50.769,-19.968 -48.586,-32.616 -53.144,-43.859Z" style="fill:#f66590;"/><path d="M65.174,314.359c-4.933,-15.218 -6.105,-15.359 -21.292,-21.229c-0.37,-0.143 -10.889,-6.076 3.525,-10.386c21.884,-6.543 12.505,-15.988 20.057,-22.897c9.608,-8.79 1.912,15.117 22.234,22.092c19.23,6.6 3.768,11.97 -2.329,14.287c-16.546,6.288 -9.183,30.124 -22.196,18.134Z" style="fill:#c18085;"/><path d="M500.905,338.275c3.455,-0.59 41.893,-7.149 40.944,15.254c-1.318,31.099 -92.163,9.871 -40.944,-15.254Z" style="fill:#faa79f;"/><path d="M321.437,350.681c-2.428,37.89 -82.636,10.147 -45.734,-10.157c4.367,-2.403 36.43,-12.028 45.734,10.157Z" style="fill:#faa79e;"/><path d="M708.982,867.043c-8.968,0.548 -77.12,4.711 -111.647,-11.879c-4.146,-1.992 -1.092,-5.349 0.427,-5.116c2.414,0.37 24.093,9.845 96.903,8.456c59.585,-1.137 77.368,-14.008 68.199,-3.851c-5.277,5.846 -49.494,11.799 -53.882,12.39Z" style="fill:#e2c5bb;"/><path d="M391.931,382.279c-2.888,-1.089 -18.307,-4.21 -27.912,-17.893c-3.193,-4.549 -1.837,-22.944 14.64,-5.9c14.339,14.832 38.322,13.762 50.693,0.596c18.011,-19.169 16.997,2.825 15.806,4.804c-13.954,23.17 -48.741,18.94 -53.226,18.394Z" style="fill:#69233e;"/><path d="M502.162,482.021c-10.439,-15.531 38.393,-25.619 63.44,-11.001c33.065,19.297 31.334,45.307 30.023,59.998l-3.692,-4.357c-5.945,-11.295 -2.7,-18.747 -14.84,-31.109c-33.838,-34.457 -67.076,-16.669 -74.932,-13.531Z" style="fill:#f6bfd0;"/><path d="M214.308,300.813l-1.798,0.737c-0.924,0.326 -1.946,-0.985 -2.869,-0.66c-17.057,6.012 -11.425,42.308 7.949,33.477c0.498,1.645 7.666,15.9 0.448,17.952c-23.041,6.552 -53.233,-43.304 -19.254,-61.685c20.484,-11.081 15.555,7.756 15.524,10.178Z" style="fill:#f9d9ba;"/><path d="M594.517,300.913c-0.02,-1.942 -5.276,-22.339 16.663,-10.031c31.372,17.601 5.875,65.293 -19.153,61.371c-5.764,-0.903 -3.854,-6.308 -1.105,-18.418c11.543,1.166 13.783,2.411 18.425,-7.892c8.188,-18.176 -9.614,-23.37 -11.708,-23.981l-3.121,-1.049Z" style="fill:#f9dbbc;"/><path d="M343.959,292.274c27.933,20.44 10.412,33.898 3.234,27.4c-2.099,-1.9 -7.667,-20.654 -26.253,-15.927c-14.078,3.581 -14.544,24.653 -25.058,15.795c-8.923,-7.517 12.489,-45.585 48.078,-27.268Z" style="fill:#661f3e;"/><path d="M471.709,305.793c-8.733,7.576 -15.021,23.718 -21.701,11.401c-9.502,-17.52 44.447,-51.69 64.167,-7.697c4.592,10.244 -6.566,16.849 -12.866,7.623c-1.862,-2.727 -8.671,-21.05 -29.6,-11.327Z" style="fill:#661f3d;"/><path d="M380.464,792.209c38.323,9.083 38.312,-0.288 57.414,-0.76c7.644,-0.189 10.774,10.457 -5.451,14.363c-55.219,13.291 -82.12,-12.882 -63.063,-15.33c0.892,-0.115 0.822,0.128 11.1,1.727Z" style="fill:#f3658b;"/><path d="M604.257,571.727c-12.975,10.476 -12.694,10.559 -27.177,18.936c-12.161,7.035 -13.313,5.299 -23.082,15.291c-0.861,-1.498 -10.787,-15.275 -4.097,-18.515c2.593,-1.256 21.171,-6.725 42.182,-23.219c7.631,-5.99 10.692,4.858 12.174,7.506Z" style="fill:#f1c0a5;"/><path d="M410.439,29.02c-20.582,26.516 -28.312,68.916 -49.149,52.601c-5.749,-4.501 -2.538,-8.089 -2.494,-9.102c13.323,3.91 13.124,-0.563 20.448,-11.844c5.985,-9.219 18.381,-30.59 19.938,-33.274c6.72,-11.586 10.807,0.975 11.258,1.619Z" style="fill:#faf0bf;"/><path d="M205.579,571.342c4.552,-7.743 5.165,-12.647 12.235,-6.832c18.306,15.057 32.475,19.149 40.018,22.29c8.258,3.439 -1.342,15.67 -2.99,18.552c-9.836,-11.931 -12.327,-8.652 -27.195,-17.649c-4.023,-2.434 -20.329,-15.018 -22.067,-16.36Z" style="fill:#f3ba9d;"/><path d="M335.818,56.501c-6.237,15.437 5.123,29.945 4.933,53.122c-2.86,1 -5.719,2 -8.579,3c-2.803,-12.293 -9.608,-51.108 -10.389,-55.562c-0.064,-0.364 -5.413,-14.58 5.456,-6.839c4.56,3.248 4.28,3.133 8.579,6.279Z" style="fill:#faf3c8;"/><path d="M360.616,626.699c1.085,-0.164 11.071,-1.671 13.618,1.706c7.262,9.629 -16.526,12.879 -22.391,14.96c-22.414,7.952 -19.682,-2.992 -19.263,-4.476c1.433,-5.072 25.666,-11.556 28.035,-12.19Z" style="fill:#fabccc;"/><path d="M696.417,674.823c0.047,-11.981 -1.661,-29.601 4.308,-32.131c1.41,-0.598 6.953,-0.482 7.537,4.599c4.789,41.699 -1.449,42.165 -4.957,42.427c-10.569,0.789 -6.2,-4.761 -6.888,-14.894Z" style="fill:#651e3f;"/><path d="M727.635,672.064c-0.031,3.658 0.239,7.315 0.208,10.973c-0.057,6.646 -11.518,13.014 -11.531,-2.677c-0.01,-11.804 -2.391,-39.742 6.585,-37.706c5.931,1.345 4.599,22.243 4.738,29.41Z" style="fill:#651f3f;"/><path d="M594.517,300.913l3.121,1.049c2.094,0.611 19.896,5.805 11.708,23.981c-4.641,10.303 -6.882,9.059 -18.425,7.892c2.776,-16.555 2.339,-16.322 3.595,-32.922Z" style="fill:#f3b69b;"/><path d="M214.308,300.813c0.658,17.02 0.655,16.784 3.282,33.554c-19.375,8.832 -25.007,-27.465 -7.949,-33.477c0.924,-0.326 1.946,0.985 2.869,0.66l1.798,-0.737Z" style="fill:#f2af95;"/><path d="M271.349,607.752c4.616,-8.761 3.98,-9.076 4.699,-9.556c0.956,-0.639 4.727,-1.844 5.749,12.933c0.299,4.324 -15.43,14.595 -18.228,14.356c-4.156,-0.355 5.884,-14.237 7.78,-17.732Z" style="fill:#f4e9e4;"/><path d="M537.829,608.292c6.308,11.686 11.643,13.581 5.497,15.804c-0.112,0.04 -16.335,-6.592 -15.696,-15.568c0.067,-0.942 0.815,-11.447 4.308,-11.037c1,0.118 1.244,0.146 5.891,10.8Z" style="fill:#f0e2de;"/><path d="M671.811,79.967c21.995,3.677 6.336,15.163 2.767,15.34c-11.563,0.572 -5.937,-12.188 -5.475,-13.237l2.708,-2.103Z" style="fill:#fac7d5;"/><path d="M388.802,630.635c1.8,-7.395 2.548,-9.99 9.753,-6.779c7.372,3.285 -0.177,21.395 -9.753,6.779Z" style="fill:#fbc8d9;"/></g></svg>