<?xml version="1.0" encoding="UTF-8" standalone="no"?><!DOCTYPE svg PUBLIC "-//W3C//DTD SVG 1.1//EN" "http://www.w3.org/Graphics/SVG/1.1/DTD/svg11.dtd"><svg width="100%" height="100%" viewBox="0 0 1024 1024" version="1.1" xmlns="http://www.w3.org/2000/svg" xmlns:xlink="http://www.w3.org/1999/xlink" xml:space="preserve" xmlns:serif="http://www.serif.com/" style="fill-rule:evenodd;clip-rule:evenodd;stroke-linejoin:round;stroke-miterlimit:2;"><g id="Background"><path d="M748.177,416.949c6.178,-0.771 6.168,-2.077 12.035,-0.039c17.034,5.918 7.374,67.31 -20.277,92.254c-19.513,17.603 -30.346,15.257 -27.153,21.656c17.531,35.134 12.892,55.531 9.132,74.388c-0.883,4.428 5.918,7.075 12.208,14.178c18.738,21.158 5.269,30.955 15.103,40.186c15.558,14.605 23.304,48.004 12.045,75.337c-16.482,40.009 -48.893,47.778 -49.635,49.07c-1.505,2.618 23.776,35.085 48.208,97.115c20.856,52.95 19.244,55.793 16.841,60.034c-4.674,8.248 -47.469,32.708 -50.359,34.152c-92.591,46.271 -168.994,54.703 -256.703,45.308c-104.742,-11.219 -202.705,-74.501 -207.02,-87.62c-3.081,-9.369 25.098,-84.167 43.62,-117.696c45.123,-81.68 81.607,-104.365 100.125,-120.478c2.695,-2.345 2.659,-3.192 -2.042,-48.05c-0.846,-8.07 -4.704,-0.406 -26.532,0.767c-5.493,0.295 -51.016,40.164 -89.93,14.141c-60.618,-40.538 19.666,-148.791 20.438,-150.346c2.093,-4.222 -14.684,-11.697 -23.377,-29.458c-4.436,-9.064 -9.185,-4.741 -18.963,-5.946c-13.485,-1.663 -19.85,-15.608 -19.981,-23.16c-0.512,-29.502 27.425,-25.96 27.976,-32.902c2.429,-30.596 15.807,-13.705 31.986,-16.819c8.596,-1.655 14.293,-19.989 14.599,-21.48c0.675,-3.285 -19.415,-18.876 -19.552,-41.453c-0.175,-28.757 13.747,-39.081 18.047,-43.894c1.641,-1.837 0.743,-42.171 9.542,-72.311c27.072,-92.73 97.668,-122.779 99.375,-123.729c6.189,-3.443 2.754,-11.733 2.185,-14.92c-8.778,-49.09 -10.529,-58.74 -1.915,-59.478c6.657,-0.571 42.837,31.599 46.332,34.707c3.942,3.505 8.486,-11.25 17.427,-27.565c13.965,-25.483 16.203,-33.937 23.558,-32.801c7.829,1.21 32.913,58.94 34.932,59.666c3.981,1.433 40.959,-35.447 47.65,-37.052c15.837,-3.798 4.454,29.132 -0.346,69.469c-0.681,5.721 5.35,5.552 18.966,13.466c102.405,59.514 97.531,174.443 97.841,185.902c0.198,7.351 16.76,11.683 19.511,36.446c3.62,32.583 -16.541,44.762 -15.639,50.324c5.388,33.212 12.281,38.709 29.741,38.628Z" style="fill:#5a2b28;"/><path d="M422.409,710.513c10.085,6.207 10.021,6.301 10.91,6.811c-54.672,57.619 -75.072,130.321 -70.877,132.282c6.669,3.117 13.627,-45.01 49.191,-77.69c6.671,-6.13 35.425,-35.158 45.106,-17.197c2.85,5.288 0.24,6.075 2.465,11.891c-24.938,49.597 -49.233,195.765 -35.181,182.431c5.552,-5.269 4.927,-78.233 47.974,-177.788c3.611,-8.35 3.286,-8.431 5.363,-11.55c2.649,2.174 15.885,21.051 38.543,38.937c22.78,17.983 62.433,30.437 69.633,30.559c3.158,5.926 13.18,44.245 14.198,48.138c14.668,56.085 10.715,59.928 15.127,60.081c1.777,0.062 1.095,-9.021 1.036,-9.808c-4.229,-56.297 -13.843,-88.918 -15.002,-95.401c4.659,0.551 35.648,4.214 58.477,-3.396c7.241,13.059 6.374,13.746 7.465,14.217c6.844,2.955 0.717,-7.257 -0.296,-16.274c4.321,2.413 4.253,2.939 12.068,23.205c19.674,51.019 27.555,110.186 31.46,117.884c-229.712,108.726 -410.182,-22.509 -418.21,-27.491c3.709,-9.592 3.109,-9.651 5.98,-19.775c36.08,-127.252 101.402,-187.714 124.57,-210.066Z" style="fill:#f287a1;"/><path d="M675.796,288.223c4.515,53.409 -1.636,77.038 -17.263,114.636l-2.234,-0.562l-1.531,-0.138l-1.044,0.318c-17.012,28.149 -56.165,59.311 -93.766,66.365c-9.212,1.728 -9.116,1.677 -18.452,2.941c-4.16,0.563 -4.618,-1.705 -5.057,-1.972c7.973,-17.776 3.112,-18.541 -0.366,-27.884c-2.095,-5.629 25.695,0.06 39.126,-37.704c6.226,-17.508 5.534,-51.018 -12.401,-41.931c-50.982,25.831 -71.061,-19.266 -81.76,5.961c-4.827,11.382 0.219,34.744 0.851,37.672c1.82,8.426 -15.929,-1.576 -36.427,21.248c-6.041,6.726 -5.282,8.97 -9.57,8.197c-1.02,-0.184 -17.289,-6.012 -23.135,-8.064c-0.242,-7.165 -6.917,-10.947 -10.542,-13.733l-1.531,-2.304l-1.531,-0.281l-2.061,2.644l-2.749,-2.094c-7.589,-3.178 -6.686,-4.54 -10.638,-10.681c-4.521,-7.025 -10.455,-3.413 -18.058,-34.833c-7.184,-29.691 -7.11,-41.95 -6.298,-65.803c0.562,0.555 0.978,1.284 1.54,1.839c6.24,6.158 84.8,-4.775 134.171,-42.565c23.852,-18.257 23.185,-19.119 41.925,-44.1c2.795,-3.726 3.084,-0.281 5.397,3.843c19.857,35.41 72.416,75.82 129.192,73.746c1.122,-0.041 0.677,-0.666 1.452,-1.427l1.627,-1.692l1.13,-1.642Z" style="fill:#f9d5ae;"/><path d="M591.703,128.66c2.934,-16.87 2.756,-16.994 3.275,-17.48c2.925,-2.739 19.577,8.498 21.141,9.553c76.958,51.931 83.933,122.816 85.324,163.899c0.227,6.717 -2.55,4.878 -8.46,3.936c-8.759,-1.396 -3.877,-6.973 -7.693,-12.531c-3.445,-5.018 -32.452,-4.34 -56.898,-18.293c-75.308,-42.985 -75.365,-90.325 -85.42,-94.206c-7.747,-2.99 -12.231,10.172 -12.882,11.376c-24.221,44.811 -81.487,82.409 -129.277,93.01c-41.511,9.208 -49.752,-1.29 -51.993,16.731c-0.165,1.326 -0.516,4.146 -13.905,5.695c-3.753,0.434 -2.884,-9.229 -1.953,-21.308c2.984,1.452 3.057,1.826 3.211,1.562c0.965,-1.656 -2.002,-2.466 4.32,-24.318c23.812,-82.299 86.873,-111.085 97.352,-115.868c0.423,1.836 -0.045,1.836 1.178,5.117c3.816,10.232 63.058,21.768 110.098,13.333c45.852,-8.223 42.037,-18.671 42.583,-20.207Z" style="fill:#b46a55;"/><path d="M717.497,683.246c0.283,7.977 3.52,13.426 -3.179,11.126c-1.996,-0.685 -15.405,-5.287 -26.04,-1.351c-20.039,7.416 -24.211,14.625 -32.007,23.121c-1.011,-0.346 -2.021,-0.692 -3.032,-1.038l-1.531,0.015c-66.981,10.238 -67.121,3.166 -113.581,-1.396c-16.603,-1.63 29.147,17.494 30.508,23.265c0.558,2.364 -7.098,7.31 -10.433,7.913c-23.967,4.33 -24.026,-0.911 -25.999,-0.166c-2.304,0.87 -2.6,-1.402 -4.47,0.292c-0.808,0.732 -0.93,2.179 -1.738,2.911c-1.584,-0.861 -13.018,-7.078 -19.496,-11.455c-3.149,-1.599 -3.179,-1.636 -6.565,-0.694c-6.705,-6.418 -35.507,-33.244 -39.832,-92.382c-3.512,-48.017 136.193,-67.687 216.179,-45.438c65.946,18.344 57.377,47.569 55.966,55.66c-1.508,8.651 -12.725,2.764 -14.75,29.617Z" style="fill:#f9f7f1;"/><path d="M668.592,612.751c7.074,0.16 7.041,-0.03 13.533,3.265c4.992,5.201 5.895,4.503 8.158,11.638c3.339,10.523 7.937,-0.094 17.915,4.036c14.157,5.86 10.36,21.902 15.374,16.783c5.421,-5.535 4.567,5.607 -7.887,15.162c-59.698,45.803 -238.47,29.296 -250.128,-15.18c-2.414,-9.211 7.972,6.486 11.427,3.285c12.939,-11.99 13.862,-10.834 30.906,-11.31c4.822,-0.134 8.593,-22.742 23.051,-27.662c17.046,-5.801 18.782,12.286 26.333,3.424c1.047,-1.229 13.675,-16.148 29.676,-1.552c4.979,4.542 8.858,-10.093 21.924,-7.876c16.541,2.807 13.322,17.737 21.776,13.19c11.898,-6.399 20.405,5.87 23.542,1.949c5.478,-6.846 6.092,-6.922 14.4,-9.153Z" style="fill:#562911;"/><path d="M327.181,514.523c0.34,-0.584 1.214,-0.558 1.553,-1.141c1.304,-2.239 -10.2,-16.164 -11.724,-36.446c-4.759,-63.338 55.563,-82.641 58.526,-67.364c2.056,10.603 -13.849,-3.614 -34.445,31.095c-2.312,3.896 0.524,6.516 3.988,2.778c35.346,-38.141 56.703,-12.333 45.003,-9.355c-2.691,0.685 -22.595,5.753 -30.088,19.074c-0.291,0.518 -2.148,8.846 6.499,2.193c32.036,-24.647 33.54,-5.589 33.339,-2.571c-0.399,5.986 -18.806,6.564 -24.629,17.586c-5.795,10.969 17.659,-8.97 23.667,-3.313c5.016,4.723 -2.736,17.719 -3.062,18.453c-9.325,20.972 -2.565,36.049 -36.181,40.325c-2.548,0.662 -2.406,0.951 -4.925,1.279c-3.494,0.455 -5.959,75.301 -41.467,107.207c-4.917,4.418 -13.12,6.567 -16.634,6.47c-2.439,-0.068 -2.267,-0.476 -4.613,-0.472c-4.057,0.006 -4.222,2.893 -4.655,3.19c-1.144,-1.64 -2.288,-3.28 -3.432,-4.92c3.813,-4.308 3.431,-4.927 2.015,-10.805c-7.531,-31.256 36.184,-96.734 38.779,-105.611c1.009,-3.452 1.395,-3.156 2.536,-5.023l-0.049,-2.628Z" style="fill:#f9d5ae;"/><path d="M483.584,604.042c-24,14.461 -44.806,25.785 -22.529,91.038c4.88,14.294 12.933,27.066 7.01,24.39c-0.562,-0.254 -39.616,-20.356 -44.245,-24.352c-4.536,-3.917 -7.143,-57.219 -6.462,-58.778c0.632,-1.447 31.799,-19.964 32.844,-77.863c0.643,-35.662 -13.618,-54.712 -8.024,-56.761c13.058,-4.785 15.901,-4.397 20.951,10.093c1.195,3.429 -0.314,14.002 11.753,32.15c22.738,34.193 112.051,40.558 118.013,-35.828c0.428,-5.486 -0.941,-8.367 3.766,-7.357c1.074,0.231 12.418,2.666 12.759,5.54c0.446,3.754 -0.039,3.752 5,47.008c1.002,8.606 0.453,8.652 3.866,24.135c2.786,12.638 -8.316,-4.17 -93.583,12.392c-23.344,4.534 -39.572,13.481 -41.118,14.193Z" style="fill:#eb7893;"/><path d="M520.351,29.701c1.9,3.63 21.726,41.516 24.586,44.796c8.175,9.378 34.773,-22.99 45.735,-30.288c4.886,-3.253 2.193,3.424 -10.281,79.374c-2.137,13.009 -83.754,22.206 -127.402,6.091c-2.841,-1.049 -1.921,-2.098 -4.141,-9.98c9.302,-0.581 8.064,-3.566 8.045,-6.602c-4.066,-21.944 -7.067,-36.155 -7.932,-45.243c-0.175,-1.834 0.934,-5.263 8.049,0.647c8.872,7.369 8.561,7.835 9.416,8.317c10.284,5.795 8.878,9.394 18.39,10.652c11.862,1.569 23.817,-47.95 35.535,-57.764Z" style="fill:#f4bd4a;"/><path d="M648.516,791.756c8.688,-2.603 8.625,-2.431 17.028,-6.07c2.38,-1.03 4.467,-0.407 4.569,-0.382c21.493,5.095 23.777,-1.366 28.5,5.883c32.902,50.496 41.501,78.243 50.117,97.953c18.395,42.081 16.903,44.029 14.155,46.429c-14,12.228 -48.447,30.021 -52.816,32.277c-3.905,-7.698 -11.785,-66.866 -31.46,-117.884c-7.815,-20.265 -7.747,-20.792 -12.068,-23.205c-0.967,-2.683 -10.219,-28.359 -13.949,-32.59c-0.238,-0.269 -0.646,0.821 -0.883,0.551l-1.531,0.007l-1.662,-2.969Z" style="fill:#e7698c;"/><path d="M693.225,387.451c-0.002,1.681 -8.417,46.518 16.956,62.983c3.253,2.111 23.275,15.103 45.372,-13.326c-0.823,9.598 1.433,48.463 -39.687,72.559c-15.428,9.041 -16.096,2.661 -26.388,-6.002c-35.429,-29.82 -73.58,-13.491 -76.148,-13.949c-6.653,-1.188 -16.215,-1.804 -7.787,-6.275c47.278,-25.082 68.35,-82.567 71.665,-91.61c2.898,-7.906 7.197,-5.022 16.018,-4.38Z" style="fill:#794337;"/><path d="M675.796,288.223l-1.13,1.642l-1.627,1.692c-0.775,0.761 -0.33,1.386 -1.452,1.427c-56.777,2.074 -109.335,-38.336 -129.192,-73.746c-2.312,-4.124 -2.602,-7.568 -5.397,-3.843c-18.74,24.981 -18.073,25.843 -41.925,44.1c-49.371,37.79 -127.931,48.723 -134.171,42.565c-0.562,-0.555 -0.978,-1.284 -1.54,-1.839c0.401,-3.4 0.246,-6.864 0.647,-10.264c0.978,-8.289 48.57,4.721 119.127,-42.743c50.759,-34.145 58.729,-68.201 62.061,-62.821c0.935,1.51 -0.553,2.474 10.167,19.974c40.287,65.772 104.894,78.478 115.594,80.582c4.706,0.926 4.987,-0.032 8.839,3.273Z" style="fill:#f1af8c;"/><path d="M433.318,717.324c4.626,1.871 4.26,2.788 51.666,26.323c-0.01,0.024 -7.604,16.013 -7.625,16.055c-2.077,3.118 -1.752,3.2 -5.363,11.55c-43.047,99.556 -42.422,172.52 -47.974,177.788c-14.052,13.334 10.243,-132.834 35.181,-182.431c-2.225,-5.815 0.385,-6.602 -2.465,-11.891c-9.681,-17.961 -38.435,11.067 -45.106,17.197c-35.564,32.68 -42.522,80.806 -49.191,77.69c-4.194,-1.96 16.205,-74.663 70.877,-132.282Z" style="fill:#d9587b;"/><path d="M656.27,716.142c-11.518,17.491 -16.468,24.209 -11.118,46.908c-1.286,0.306 -22.538,6.543 -62.272,2.646c-30.308,-2.972 -52.63,-15.726 -56.886,-17.759c0.808,-0.732 0.93,-2.179 1.738,-2.911c1.87,-1.694 2.165,0.578 4.47,-0.292c1.973,-0.745 2.033,4.496 25.999,0.166c3.336,-0.603 10.991,-5.549 10.433,-7.913c-1.361,-5.771 -47.111,-24.895 -30.508,-23.265c46.46,4.562 46.6,11.634 113.581,1.396l1.531,-0.015c1.011,0.346 2.021,0.692 3.032,1.038Z" style="fill:#e0dfde;"/><path d="M660.994,730.116c27.777,-40.284 60.155,-25.798 66.784,-11.858c4.922,10.351 3.365,-1.689 3.247,-1.996c-2.052,-5.319 -5.017,-5.927 -1.545,-9.121c6.385,-5.873 -7.277,-17.384 0.114,-32.675c3.215,-6.652 13.292,-11.675 21.759,13.916c9.471,28.628 -9.07,54.296 -11.73,57.98l-2.203,-2.133c-15.776,7.309 -38.339,19.872 -63.927,2.401c-6.184,-4.222 -9.812,-12.728 -12.498,-16.512Z" style="fill:#f9d2aa;"/><path d="M422.409,710.513c-23.169,22.351 -88.491,82.814 -124.57,210.066c-2.871,10.124 -2.271,10.183 -5.98,19.775c-1.241,-0.824 -14.085,-9.354 -15.117,-11.017c-3.246,-5.232 20.064,-62.654 22.201,-67.918c22.261,-54.838 63.629,-115.945 108.348,-149.634c9.411,-7.09 10.216,-3.811 15.118,-1.272Z" style="fill:#f6b8ca;"/><path d="M359.627,525.836c1.404,8.098 11.509,0.18 9.858,8.236c-14.402,70.269 -27.193,86.965 -25.278,90.155c2.614,4.354 14.022,-17.1 15.602,-18.291c3.803,-2.867 12.441,23.763 12.806,25.401c0.422,1.891 0.542,3.269 -18.051,13.287c-42.69,23.001 -59.646,6.18 -67.231,-1.113c0.434,-0.297 0.599,-3.184 4.655,-3.19c2.346,-0.004 2.174,0.404 4.613,0.472c3.515,0.098 11.717,-2.051 16.634,-6.47c35.508,-31.907 37.974,-106.752 41.467,-107.207c2.519,-0.328 2.377,-0.617 4.925,-1.279Z" style="fill:#f4b18c;"/><path d="M417.533,511.635l1.531,2.574c3.09,0.727 2.827,1.161 5.196,3.67c0.369,0.391 0.799,0.846 6.201,-1.376c1.613,5.334 1.42,5.291 2.719,10.683c-0.85,1.182 -1.701,2.363 -2.551,3.545c-4.705,25.027 -11.994,51.99 -40.586,60.912c-1.247,0.389 -5.657,1.765 -15.531,-5.11c-0.618,-0.43 -0.644,-1.824 -1.365,-1.92c-1.27,-0.169 -0.382,1.641 -1.531,1.536c-1.454,-0.134 -0.548,-1.727 -2.004,-1.861c13.754,-47.539 11.324,-49.011 14.403,-51.574c9.617,-8.004 9.686,-7.979 16.125,-19.502c8.625,-1.962 8.579,-1.282 17.394,-1.576Z" style="fill:#f1829c;"/><path d="M484.984,743.647c19.873,14.189 31.942,37.838 93.21,51.072l-1.484,1.514c-0.109,0.762 -1.519,0.639 -1.628,1.4c-0.116,0.809 0.803,1.369 1.126,2.103c3.577,8.114 3.092,8.28 9.325,29.463c-7.2,-0.123 -46.853,-12.577 -69.633,-30.559c-22.658,-17.886 -35.893,-36.763 -38.543,-38.937c0.021,-0.042 7.615,-16.032 7.625,-16.055Z" style="fill:#dc7089;"/><path d="M630.136,500.9c11.633,-1.877 16.672,-3.292 35.699,4.73l-1.882,3.008c16.296,18.069 34.072,29.272 30.897,63.8c-0.839,0.493 -1.964,0.002 -2.803,0.496c-0.901,0.53 -1.321,1.789 -2.167,2.425c-0.396,0.298 -17.023,1.007 -22.643,-1.883c-28.532,-14.668 -21.725,-47.858 -30.797,-63.599c-4.242,-4.141 -4.046,-4.197 -6.304,-8.977Z" style="fill:#f7adbe;"/><path d="M433.179,527.185c0.286,1.46 5.559,21.516 3.606,39.87c-0.285,2.68 -2.065,19.413 -7.739,32.589c-12.742,29.592 -42.102,32.181 -42.249,32.146c-2.514,-0.608 -1.608,-1.813 -4.593,-12.623c-5.726,-20.737 -15.121,-25.649 -12.594,-34.879c1.457,0.134 0.551,1.727 2.004,1.861c1.149,0.106 0.26,-1.704 1.531,-1.536c0.721,0.096 0.747,1.489 1.365,1.92c9.874,6.875 14.284,5.499 15.531,5.11c28.592,-8.922 35.881,-35.884 40.586,-60.912c0.85,-1.182 1.701,-2.363 2.551,-3.545Z" style="fill:#e06184;"/><path d="M658.533,402.859c-44.066,96.408 -136.604,89.998 -136.939,90.004c-12.447,0.235 3.56,-4.091 14.856,-23.052c0.439,0.266 0.897,2.535 5.057,1.972c9.337,-1.264 9.24,-1.213 18.452,-2.941c37.601,-7.054 76.753,-38.216 93.766,-66.365l1.044,-0.318l1.531,0.138l2.234,0.562Z" style="fill:#f2b290;"/><path d="M630.136,500.9c2.258,4.78 2.062,4.835 6.304,8.977c9.072,15.742 2.265,48.932 30.797,63.599c5.62,2.889 22.247,2.18 22.643,1.883c0.846,-0.636 1.265,-1.895 2.167,-2.425c0.839,-0.493 1.964,-0.002 2.803,-0.496c0.36,3.198 3.223,8.781 -8.114,21.448c-48.377,-13.905 -52.109,-5.962 -54.464,-13.116c-5.574,-16.935 -9.508,-68.304 -9.966,-74.294c-0.404,-5.272 7.349,-5.448 7.83,-5.577Z" style="fill:#ea6e8e;"/><path d="M478.391,522.201c-0.864,-4.032 -2.605,-5.108 1.457,-7.92c3.595,-2.488 5.428,-9.069 9.623,-9.531c21.532,-2.369 34.815,9.39 85.824,-6.501c7.817,-2.435 1.962,22.014 1.52,23.861c-0.276,-0.482 0.792,-1.14 0.516,-1.622c-4.414,-7.711 -17.19,19.225 -80.187,6.61c-15.343,-3.072 -14.613,-5.122 -15.52,-6.234c-0.187,-0.229 -0.23,0.095 -3.233,1.337Z" style="fill:#eea889;"/><path d="M409.444,447.715c-1.866,-8.551 -3.867,-11.699 0.457,-10.897c22.533,4.181 26.106,16.206 40.602,-2.246c23.868,-30.384 55.29,-13.914 59.809,-7.338c0.319,0.464 1.714,13.118 -6.245,1.982c-2.811,-3.933 -13.497,-6.458 -17.299,-3.544c-4.089,3.134 -4.749,3.719 -8.497,-0.031c-8.951,-8.956 -22.35,7.559 -24.225,13.11c-6.697,19.819 1.316,53.699 13.199,35.463c11.323,-17.376 16.244,0.149 16.558,0.686c7.839,13.363 34.152,-2.108 41.856,-10.649c8.909,-9.877 -3.558,-30.075 4.675,-19.487c15.263,19.63 -17.185,41.634 -31.821,45.358c-42.964,10.933 -54.833,-20.147 -61.638,-29.86c1.82,-7.644 -1.201,-6.804 -7.444,-10.308c-17.049,-9.569 -19.305,-5.429 -20.164,-3.853c-0.251,0.461 0.428,1.153 0.177,1.614Z" style="fill:#e6eee9;"/><path d="M693.225,387.451c12.527,-3.525 13.564,-5.317 14.134,-2.631c0.017,0.082 2.312,47.999 39.268,46.053c5.144,-0.271 8.627,-3.118 8.926,6.236c-22.097,28.43 -42.118,15.438 -45.372,13.326c-25.374,-16.465 -16.959,-61.302 -16.956,-62.983Z" style="fill:#995d45;"/><path d="M641.023,793.501c9.301,17.495 16.72,28.222 18.348,35.312c-22.83,7.611 -53.818,3.947 -58.477,3.396c-8.257,-30.412 -10.023,-30.856 -11.939,-33.49l-1.531,-0.44l-1.51,-2.558c33.148,2.907 36.748,-0.33 55.109,-2.22Z" style="fill:#db728b;"/><path d="M437.844,130.417c-10.479,4.784 -73.54,33.569 -97.352,115.868c-6.323,21.853 -3.355,22.662 -4.32,24.318c-0.154,0.264 -0.227,-0.11 -3.211,-1.562c0.413,-2.85 5.759,-105.056 95.438,-153.881c9.992,-5.44 7.932,2.881 9.445,15.256Z" style="fill:#d0806a;"/><path d="M478.391,522.201c3.003,-1.242 3.046,-1.567 3.233,-1.337c0.907,1.113 0.177,3.162 15.52,6.234c62.997,12.614 75.774,-14.321 80.187,-6.61c0.276,0.482 -0.792,1.14 -0.516,1.622c-7.58,16.347 -14.025,26.605 -41.397,31.462c-10.532,1.869 -36.55,-0.072 -49.923,-18.244c-4.429,-6.018 -3.892,-6.302 -7.104,-13.127Z" style="fill:#f8d1a9;"/><path d="M520.351,29.701c-11.718,9.815 -23.673,59.333 -35.535,57.764c-9.512,-1.258 -8.106,-4.857 -18.39,-10.652c-0.855,-0.482 -0.544,-0.948 -9.416,-8.317c-7.116,-5.91 -8.224,-2.481 -8.049,-0.647c0.865,9.088 3.866,23.299 7.932,45.243c0.019,3.036 1.256,6.021 -8.045,6.602c-13.341,-71.654 -12.475,-71.892 -12.365,-72.035c1.628,-2.117 33.88,27.695 40.895,30.029c5.478,1.822 5.264,-1.594 34.51,-55.21c2.787,-5.109 3.925,-0.879 8.463,7.223Z" style="fill:#f9e7ad;"/><path d="M660.994,730.116c2.686,3.784 6.314,12.29 12.498,16.512c25.588,17.471 48.151,4.908 63.927,-2.401l2.203,2.133c-3.528,4.444 -26.965,33.969 -61.77,26.22c-38.347,-8.537 -17.511,-41.172 -16.858,-42.465Z" style="fill:#f3b391;"/><path d="M449.556,364.382c3.239,31.075 -66.651,22.784 -51.539,-3.233c8.383,-14.432 43.5,-18.339 51.539,3.233Z" style="fill:#f2b0a0;"/><path d="M507.86,416.296c-9.158,-5.142 -9.315,-4.204 -13.518,-5.887c-7.965,-3.19 10.522,-14.719 34.875,-12.504c12.245,1.113 40.715,11.833 25.529,24.601c-23.187,19.496 -35.673,2.355 -46.886,-6.21Z" style="fill:#f28a93;"/><path d="M578.194,794.719l7.72,1.003l1.51,2.558l1.531,0.44c1.916,2.634 3.681,3.078 11.939,33.49c1.159,6.483 10.773,39.104 15.002,95.401c0.059,0.787 0.741,9.87 -1.036,9.808c-4.412,-0.153 -0.459,-3.996 -15.127,-60.081c-1.018,-3.893 -11.04,-42.212 -14.198,-48.138c-6.233,-21.183 -5.748,-21.349 -9.325,-29.463c-0.323,-0.734 -1.242,-1.294 -1.126,-2.103c0.109,-0.762 1.519,-0.639 1.628,-1.4l1.484,-1.514Z" style="fill:#d35276;"/><path d="M654.544,362.726c8.187,33.838 -67.594,23.473 -48.744,-3.569c8.473,-12.155 38.415,-15.069 48.744,3.569Z" style="fill:#f1b1a1;"/><path d="M499.934,735.788c3.386,-0.942 3.416,-0.905 6.565,0.694c-0.006,0.295 -3.611,1.458 1.584,5.089c8.987,6.282 55.512,38.802 129.761,27.548c6.639,-1.006 6.209,-2.381 8.404,-3.222c2.739,4.478 3.509,3.627 6.244,8c0.716,1.145 0.027,2.117 -14.692,5.566c-65.858,15.433 -132.889,-28.422 -137.866,-43.674Z" style="fill:#bbb3b1;"/><path d="M665.835,505.63c44.61,20.76 49.74,68.681 44.448,92.845c-0.984,4.49 -2.835,3.255 -23.547,-4.589c11.337,-12.667 8.474,-18.25 8.114,-21.448c3.175,-34.528 -14.602,-45.731 -30.897,-63.8l1.882,-3.008Z" style="fill:#e36989;"/><path d="M426.832,331.164c-6.793,-4.429 -8.868,-2.186 -11.693,-10.418c-0.163,-0.474 -1.276,-3.72 1.189,-6.219c3.026,-3.068 17.407,9.366 9.396,-2.568c-3.289,-4.899 -2.079,-13.713 4.939,-7.447c3.904,3.486 4.39,2.573 8.643,-0.151c28.347,-18.156 52.687,18.359 43.794,26.679c-9.708,9.082 -10.589,-20.534 -30.401,-17.211c-17.323,2.906 -11.418,22.922 -25.868,17.334Z" style="fill:#4f2b22;"/><path d="M576.454,306.747c19.581,-14.017 29.746,-4.322 37.245,-0.43c3.07,1.594 7.006,-5.457 10.217,-3.848c4.934,2.472 -1.943,12.711 -1.889,13.545c0.041,0.634 0.421,1.982 6.928,-1.299c5.426,-2.736 10.545,4.627 0.956,12.668c-15.433,12.941 -17.768,-6.12 -25.99,-10.857c-19.016,-10.959 -28.529,14.595 -28.788,14.818c-7.915,6.83 -17.173,-7.852 1.32,-24.598Z" style="fill:#4f2a23;"/><path d="M689.671,315.848c-0.049,-9.364 -1.548,-15.67 4.949,-14.296c44.979,9.513 29.273,74.45 -9.337,72.077c-3.432,-0.211 -0.897,-8.692 0.646,-16.093c2.112,3.079 2.088,4.043 5.515,3.064c27.433,-7.838 19.963,-49.814 -1.773,-44.753Z" style="fill:#f9d8b4;"/><path d="M597.243,658.176c4.396,4.109 7.421,6.025 6.741,14.629c-0.091,1.153 -0.721,9.126 -7.48,11.729c-3.555,1.369 -25.572,-0.7 -26.029,-0.848c-1.189,-0.385 -3.692,-1.196 0.766,-17.477c1.057,-3.861 9.133,-4.112 4.879,-8.18c-8.182,-7.825 0.55,-19.002 8.252,-19.488c11.194,-0.706 9.615,14.725 12.871,19.635Z" style="fill:#f2ad31;"/><path d="M310.892,441.193c-2.26,9.385 -2.405,9.155 -4.644,18.642c-0.685,2.904 -1.148,4.863 -32.58,7.115c-14.664,1.051 -23.302,-13.033 -15.673,-24.856c10.837,6.358 28.864,-2.66 52.897,-0.902Z" style="fill:#a7a7ab;"/><path d="M327.181,514.523l0.049,2.628c-1.141,1.867 -1.527,1.571 -2.536,5.023c-2.595,8.877 -46.31,74.355 -38.779,105.611c1.416,5.878 1.798,6.496 -2.015,10.805c-20.87,-36.514 19.178,-94.116 25.892,-104.885c11.556,-18.534 11.66,-20.266 17.389,-19.182Z" style="fill:#fbeedb;"/><path d="M538.798,655.765c3.095,-5.146 4.068,-9.1 10.303,-11.11c0.438,-0.141 3.2,-1.145 5.948,0.959c19.58,14.991 11.354,23.443 5.707,33.783c-1.78,3.259 -2.557,3.33 -30.028,-1.07c-4.547,-0.728 -2.41,-7.701 0.492,-9.969c5.705,-4.459 4.859,-5.256 7.578,-12.593Z" style="fill:#f7ba39;"/><path d="M514.132,648.298c9.799,2.282 7.937,7.466 17.681,9.309c0.125,1.254 1.593,1.692 -1.091,4.761c-5.037,5.759 -5.671,5.042 -8.96,12.365c-1.764,3.926 -43.028,-10.575 -40.136,-19.313c2.226,-6.726 22.749,-14.281 32.506,-7.122Z" style="fill:#f5bd40;"/><path d="M605.793,612.221c23.182,1.895 14.493,22.207 14.396,29.443c-0.112,8.338 -3.636,5.756 -9.383,10.983c-1.329,1.209 -2.464,2.677 -3.798,3.88c-6.114,5.511 -5.432,-12.98 -12.432,-19.378c-5.656,-5.17 -5.931,-21.763 11.217,-24.927Z" style="fill:#f7c037;"/><path d="M533.603,653.522c-0.729,-0.477 -1.792,0.314 -2.521,-0.163c-6.101,-3.992 -4.909,-5.781 -11.287,-9.337c-7.264,-4.05 -3.433,-6.556 0.121,-11.174c2.015,-2.618 3.244,-16.837 18.571,-15.978c13.346,0.748 16.297,18.986 10.892,21.753c-5.425,2.778 -8.075,1.558 -15.776,14.899Z" style="fill:#f4ab20;"/><path d="M347.279,317.565c0.568,23.562 1.003,23.38 3.409,39.737c-0.244,0.473 0.488,1.146 0.244,1.619c-1.61,3.117 -2.944,1.289 -3.59,1.19c-0.603,-0.093 -1.13,0.556 -1.733,0.651c-9.417,1.485 -20.96,-12.779 -17.408,-31.302c2.546,-6.023 2.577,-9.749 15.865,-13.27l1.531,0.525l1.682,0.851Z" style="fill:#f0ac8f;"/><path d="M689.671,315.848c21.736,-5.061 29.206,36.915 1.773,44.753c-3.427,0.979 -3.403,0.015 -5.515,-3.064c2.152,-15.63 3.078,-15.819 3.742,-41.689Z" style="fill:#f0ae8e;"/><path d="M347.279,317.565l-1.682,-0.851l-1.531,-0.525c-13.288,3.521 -13.319,7.247 -15.865,13.27c-0.834,0.173 -1.668,0.345 -2.502,0.518l-1.675,1.441l-0.13,1.733l-0.479,1.733l0.013,1.733l-0.029,1.733c0.031,1.485 0.376,18.272 0.121,18.572c-0.863,1.014 -2.027,1.659 -2.89,2.674c-18.634,-33.453 4.368,-55.984 20.389,-57.35c9.403,-0.802 6.551,4.556 6.261,15.319Z" style="fill:#fbe2c7;"/><path d="M656.258,627.767c0.886,-1.545 7.097,-12.382 18.557,-9.422c16.399,4.236 12.553,29.214 4.412,29.908c-9.024,0.769 -8.815,-0.776 -12.36,-2.773c-5.561,-3.132 -13.698,0.93 -10.609,-17.713Z" style="fill:#f3992d;"/><path d="M487.844,463.188c0.509,0.743 1.018,1.485 1.527,2.228c1.504,0.245 3.008,0.49 4.511,0.735c-0.082,4.06 -0.475,3.963 -2.883,6.915l-1.096,1.353c-2.432,-2.726 -2.425,-2.605 -3.964,-5.977c-4.442,-9.726 -13.934,-26.683 -0.656,-35.836c19.183,-13.223 21.579,22.224 16.447,25.36c-8.708,5.322 -17.387,0.147 -16.015,3.438c0.377,0.904 1.752,0.88 2.13,1.784Z" style="fill:#f6a03f;"/><path d="M295.084,421.821c-6.715,-0.412 -7.956,1.263 -8.617,-2.095c-1.79,-9.106 15.681,4.556 31.115,-9.188c9.829,-8.753 8.131,-10.295 13.324,-23.284c1.734,-4.337 10.455,1.605 22.343,1.277c0.42,-0.012 16.351,1.689 1.615,5.663c-10.049,2.71 -27.279,15.833 -29.97,19.389c-6.813,9.002 -7.911,8.308 -29.809,8.238Z" style="fill:#b26d54;"/><path d="M576.703,613.965c1.38,0.541 13.361,5.232 10.257,17.103c-1.184,4.528 -12.704,0.622 -17.446,14.36c-1.875,5.432 -3.512,2.49 -7.611,-1.045c-2.469,-2.129 -15.405,-11.869 3.541,-27.82c0.282,0.162 3.529,2.025 3.529,2.025c4.448,-1.028 4.411,-1.168 7.731,-4.624Z" style="fill:#c73f2a;"/><path d="M703.791,636.171c1.622,0.693 19.08,8.157 10.849,21.245c-1.647,2.619 -16.587,13.205 -18.643,8.581c-6.436,-14.471 -15.008,-16.675 -4.098,-27.207c3.034,-2.929 10.923,-2.653 11.892,-2.619Z" style="fill:#f4a932;"/><path d="M506.499,736.482c6.478,4.377 17.912,10.594 19.496,11.455c4.256,2.033 26.578,14.787 56.886,17.759c39.733,3.896 60.985,-2.34 62.272,-2.646c0.365,0.949 0.73,1.898 1.095,2.847c-2.195,0.841 -1.764,2.216 -8.404,3.222c-74.25,11.254 -120.774,-21.266 -129.761,-27.548c-5.195,-3.631 -1.59,-4.794 -1.584,-5.089Z" style="fill:#4b4340;"/><path d="M628.847,627.926c16.311,-11.275 22.25,3.512 22.381,5.164c0.611,7.709 0.455,8.705 -5.772,11.75c-5.822,2.847 -6.355,12.909 -10.06,9.938c-9.821,-7.875 -10.432,-7.146 -10.618,-8.296c-1.731,-10.71 3.201,-17.384 4.068,-18.557Z" style="fill:#f8ce4a;"/><path d="M422.012,465.19c11.29,5.306 9.794,7.463 17.896,17.695c1.362,1.72 3.561,3.976 -0.604,5.267c-13.807,4.28 -13.783,0.489 -27.706,-3.177c-3.62,-0.953 0.569,-7.976 0.43,-13.153c-0.196,-7.275 -1.898,-8.347 0.99,-9.881c0.684,-0.363 0.75,-0.208 8.995,3.249Z" style="fill:#773f33;"/><path d="M328.201,329.459c-3.552,18.523 7.991,32.787 17.408,31.302c0.603,-0.095 1.13,-0.744 1.733,-0.651c0.646,0.099 1.98,1.927 3.59,-1.19c0.244,-0.473 -0.488,-1.146 -0.244,-1.619c1.626,7.23 1.674,7.049 3.457,14.196c0.877,3.517 -2.108,3.381 -2.414,3.368c-21.18,-0.96 -25.829,-9.104 -31.101,-15.269c0.863,-1.014 2.027,-1.659 2.89,-2.674c0.255,-0.3 -0.09,-17.086 -0.121,-18.572l0.029,-1.733l-0.013,-1.733l0.479,-1.733l0.13,-1.733l1.675,-1.441c0.834,-0.173 1.668,-0.345 2.502,-0.518Z" style="fill:#f8d2b0;"/><path d="M633.695,660.308c5.058,5.176 3.413,6.825 8.874,11.313c-1.789,1.899 -1.481,2.05 -1.586,4.691c-0.045,0.594 -0.089,1.189 -0.134,1.783c0.114,0.979 0.227,1.957 0.341,2.936c-12.245,1.193 -11.98,2.924 -27.743,3.62c-7.4,0.327 -5.49,-3.55 -4.551,-11.802l1.892,-1.735c1.934,-2.099 1.882,-3.261 5.731,-1.938c9.678,3.329 8.005,-3.986 17.177,-8.868Z" style="fill:#e66b4d;"/><path d="M310.892,441.193c-24.033,-1.758 -42.06,7.26 -52.897,0.902c5.481,-5.825 9.13,-8.214 44.74,-8.885c3.88,-0.073 14.607,-3.619 8.157,7.984Z" style="fill:#edeae8;"/><path d="M648.516,791.756l1.662,2.969l1.531,-0.007c0.238,0.269 0.646,-0.821 0.883,-0.551c3.73,4.231 12.983,29.907 13.949,32.59c1.014,9.016 7.14,19.229 0.296,16.274c-1.092,-0.471 -0.225,-1.159 -7.465,-14.217c-1.628,-7.09 -9.047,-17.817 -18.348,-35.312l7.492,-1.745Z" style="fill:#cd5273;"/><path d="M665.154,671.093c2.018,-7.743 3.148,-15.037 11.021,-15.789c1.4,-0.134 11.908,-1.137 14.796,10.704c2.153,8.828 -19.218,10.628 -24.086,11.039c-1.982,-5.382 -1.533,-5.506 -1.731,-5.955Z" style="fill:#f7a240;"/><path d="M664.943,655.625c-2.872,24.879 -24.629,11.83 -21.848,0.002c2.336,-9.937 15.943,-13.852 21.848,-0.002Z" style="fill:#f36e4b;"/><path d="M513.986,435.492c0.795,-0.136 7.83,-1.338 8.93,5.206c2.088,12.418 4.304,16.562 -4.646,21.824c-5.053,2.97 -16.823,-17.042 -4.284,-27.03Z" style="fill:#f8b938;"/><path d="M633.695,660.308c-9.172,4.882 -7.499,12.197 -17.177,8.868c-3.848,-1.324 -3.797,-0.161 -5.731,1.938l-1.892,1.735c0.261,-8.394 -2.119,-15.735 10.738,-19.957c4.316,-1.417 13.093,6.538 14.062,7.416Z" style="fill:#fb936d;"/><path d="M456.333,442c6.93,-13.454 8.811,-14.078 13.288,-14.178c10.457,-0.233 5.397,12.618 3.902,17.605c-0.962,3.21 -8.605,0.79 -11.633,1.565c-4.588,1.174 -5.63,0.266 -5.557,-4.992Z" style="fill:#fbc64a;"/><path d="M417.533,511.635c-8.815,0.294 -8.769,-0.386 -17.394,1.576c2.802,-8.945 4.169,-14.871 6.693,-14.966c15.477,-0.582 20.768,11.358 21.652,13.354c-5.541,0.615 -5.456,0.3 -10.952,0.036Z" style="fill:#f7bec8;"/><path d="M532.42,327.696c21.035,14.09 1.857,28.759 -0.293,22.939c-1.826,-4.941 5.282,-8.723 -4.009,-14.831c-4.366,-2.87 -5.896,-11.462 4.302,-8.108Z" style="fill:#e9ad8b;"/><path d="M456.826,457.746c4.086,-5.181 3.54,-7.467 9.668,-6.575c15.221,2.215 -0.132,20.346 -4.604,18.993c-6.213,-1.879 -5.183,-11.332 -5.064,-12.418Z" style="fill:#fcdd6a;"/><path d="M409.444,447.715c0.251,-0.461 -0.428,-1.153 -0.177,-1.614c0.859,-1.577 3.115,-5.716 20.164,3.853c6.243,3.504 9.264,2.663 7.444,10.308c-3.519,-2.038 -6.503,-4.633 -21.026,-8.444c-3.846,-1.009 -4.017,-0.707 -6.405,-4.102Z" style="fill:#b0acac;"/><path d="M493.883,466.151c10.507,-3.992 12.895,-1.721 13.738,-0.92c7.544,7.176 -10.385,11.709 -17.718,9.187l1.096,-1.353c2.408,-2.952 2.801,-2.854 2.883,-6.915Z" style="fill:#fde9a4;"/><path d="M471.098,495.743c0.915,0.164 12.751,2.289 8.711,8.635c-7.814,12.274 -21.776,-5.331 -8.711,-8.635Z" style="fill:#fae484;"/><path d="M642.568,671.622c1.006,0.017 8.579,0.146 11.749,5.098c1.704,2.662 -2.702,7.242 -13.129,4.312c-0.114,-0.979 -0.227,-1.957 -0.341,-2.936l0.134,-1.783c0.105,-2.641 -0.203,-2.792 1.586,-4.691Z" style="fill:#f1a06a;"/><path d="M397.105,413.632l2.061,-2.644l1.531,0.281l1.531,2.304c3.624,2.785 10.3,6.568 10.542,13.733c-6.716,-1.988 -7.455,-0.747 -9.158,-3.908c-2.871,-5.331 -2.577,-5.436 -6.506,-9.766Z" style="fill:#f2bb95;"/><path d="M304.268,473.423l0.888,2.341c0.192,9.047 1.58,11.631 1.979,13.324c0.544,2.301 -0.571,1.777 -2.611,1.611c-2.78,-6.375 -2.511,-6.423 -6.79,-11.646c-4.297,-5.244 0.679,-4.866 6.534,-5.629Z" style="fill:#743a30;"/><path d="M417.533,511.635c5.496,0.264 5.411,0.578 10.952,-0.036c0.659,1.635 1.317,3.269 1.976,4.904c-5.403,2.222 -5.832,1.767 -6.201,1.376c-2.369,-2.509 -2.106,-2.943 -5.196,-3.67l-1.531,-2.574Z" style="fill:#d7778c;"/><path d="M576.703,613.965c-3.32,3.456 -3.283,3.596 -7.731,4.624c0,0 -3.247,-1.863 -3.529,-2.025c5.786,-4.12 6.847,-2.941 11.26,-2.599Z" style="fill:#cb4d3e;"/><path d="M665.154,671.093c0.197,0.449 -0.251,0.573 1.731,5.955c-0.543,0.189 -8.075,2.814 -7.084,-0.626c0.177,-0.614 0.421,-0.346 5.354,-5.329Z" style="fill:#b86d3e;"/></g></svg>