<?xml version="1.0" encoding="UTF-8" standalone="no"?><!DOCTYPE svg PUBLIC "-//W3C//DTD SVG 1.1//EN" "http://www.w3.org/Graphics/SVG/1.1/DTD/svg11.dtd"><svg width="100%" height="100%" viewBox="0 0 882 882" version="1.1" xmlns="http://www.w3.org/2000/svg" xmlns:xlink="http://www.w3.org/1999/xlink" xml:space="preserve" xmlns:serif="http://www.serif.com/" style="fill-rule:evenodd;clip-rule:evenodd;stroke-linejoin:round;stroke-miterlimit:2;"><g id="Background"><path d="M630.007,736.833c-0.059,1.983 -0.626,21.014 -3.595,24.535c-0.682,0.808 -4.527,5.368 -11.739,6.079c-30.552,3.015 -12.942,-40.399 -24.968,-37.542c-31.304,7.438 -40.14,-0.281 -39.524,14.484c1.184,28.337 -56.069,30.927 -65.536,24.576c-18.633,-12.502 10.09,-30.876 10.277,-31.927c0.401,-2.262 -0.486,-3.21 -28.055,-6.138c-0.509,-0.054 -4.631,-0.492 -5.433,3.379c-6.39,30.82 -32.055,12.615 -36.24,22.985c-3.109,7.704 -0.164,8.089 -1.868,16.126c-18.629,13.092 -31.396,-0.135 -33.246,-2.052c-2.542,-14.968 -1.193,-14.921 -1.239,-31.994c0.109,-14.952 1.066,-27.934 -2.177,-30.066c-2.971,-1.953 -19.384,-8.012 -34.499,-16.093c-1.455,-0.778 -12.837,0.002 -0.616,-39.007c13.184,-42.084 33.075,-55.223 22.661,-55.615c-7.221,-0.272 -50.132,-1.887 -90.327,0.278c-3.66,0.197 -3.607,14.006 -3.602,15.26c0.433,110.852 -0.499,110.752 -0.031,120.37c0.475,9.744 25.526,8.231 40.529,20.761c30.702,25.641 -101.042,25.241 -116.585,13.549c-18.758,-14.11 38.655,-28.796 39.42,-29.594c2.399,-2.505 0.755,-137.552 0.672,-137.78c-1.962,-5.365 -92.135,-2.164 -92.724,-1.712c-3.901,2.992 -1.094,70.915 -1.892,164.723c-0.185,21.679 -29.484,13.097 -32.767,9.346c-6.94,-7.93 0.443,-170.055 -4.063,-173.886c-8.077,-6.866 -27.153,12.066 -30.6,-23.479c-2.444,-25.208 20.066,-19.5 26.746,-54.933c0.938,-4.975 -14.773,-18.19 -19.237,-28.228c-23.594,-53.055 9.133,-76.903 8.946,-82.102c-0.192,-5.375 -14.371,8.785 -15.405,9.818c-16.487,16.466 -28.783,-9.689 -17.039,-34.687c0.966,-2.056 -2.231,-23.472 12.036,-19.342c7.747,2.243 7.805,2.026 15.28,-0.75c9.919,-3.683 6.899,-24.323 52.509,-28.355c49.032,-4.334 45.864,18.501 60.086,21.248c7.615,1.471 25.861,-9.914 24.952,7.003c-0.919,17.095 9.529,15.351 7.882,32.588c-3.398,35.539 -26.05,2.187 -32.769,2.247c-8.807,0.08 8.655,9.862 16.534,28.255c16.597,38.75 -5.869,69.739 -5.886,69.78c-0.381,0.91 -0.64,3.126 11.947,3.069c33.315,-0.151 36.332,3.487 43.114,-7.851c11.06,-18.491 39.712,-18.578 42.106,-18.095c10.772,2.173 9.422,17.014 9.521,17.847c0.512,4.301 2.823,6.124 18.003,7.151c6.277,0.425 10.188,-8.347 17.46,-4.581c12.543,6.494 13.418,3.713 35.16,4.133c16.602,0.321 20.4,21.466 22.395,8.225c2.564,-17.012 -0.785,-16.699 -6.255,-32.922c-2.195,-6.509 -4.353,-3.935 -10.996,-5.373c-34.461,-7.457 -48.618,-39.463 -49.041,-51.902c-0.702,-20.645 23.766,-2.752 30.188,-22.901c3.688,-11.571 4.175,-13.496 -5.98,-20.227c-19.052,-12.629 -11.653,-29.641 -16.381,-36.222c-3.944,-5.489 -26.533,-36.932 -12.081,-83.62c16.17,-52.241 48.782,-70.905 54.527,-75.848c3.297,-2.837 -5.655,-19.824 -11.751,-41.643c-5.029,-18.001 37.253,9.65 43.184,11.518c5.338,1.681 9.436,-15.886 18.975,-41.989c3.974,-10.875 10.195,-4.179 37.203,28.94c6.553,8.036 12.663,-1.803 33.982,-23.383c8.414,-8.517 11.153,-1.394 11.358,2.346c0.488,8.907 -0.223,8.784 0.394,17.588c0.227,3.241 11.999,4.538 13.105,4.66c13.777,1.518 35.908,7.49 51.932,16.401c104.516,58.12 75.371,174.791 76.264,196.776c2.106,51.818 36.286,25.635 43.759,40.458c3.092,6.133 1.205,6.292 -0.475,19.856c-1.089,8.794 24.122,4.641 30.53,25.18c4.304,13.795 0.739,14.132 -13.392,180.142c-5.548,65.176 -1.199,65.048 -2.376,130.223c-0.475,26.305 -33.579,22.568 -34.398,0.056c-3.257,-89.519 3.515,-95.597 -3.973,-94.504c-4.302,0.628 -55.208,20.525 -59.978,22.389c-6.476,2.531 -4.935,6.194 -4.898,61.999Z" style="fill:#793c35;"/><path d="M410.553,200.753c0.886,1.797 1.566,3.691 2.452,5.488c6.294,12.77 68.682,11.019 111.124,-8.608c21.467,-9.927 0.345,-52.33 15.338,-51.893c57.365,1.673 145.213,59.17 128.588,182.963c-8.23,61.279 15.488,65.947 39.356,66.354c10.467,0.179 -0.87,20.215 -1.729,21.733l-3.37,0.957c-13.078,6.831 -18.321,6.98 -20.017,7.028c-48.548,1.375 -45.549,-59.86 -45.941,-67.06c2.627,-1.423 2.438,-1.45 5.198,-2.816c34.923,-17.282 22.343,-54.476 2.637,-62.982c-13.218,-5.706 -15.94,2.981 -27.091,-5.96c-8.697,-6.974 -97.172,21.633 -164.517,-53.331c-16.723,-18.614 -11.956,5.864 -24.32,27.695c-25.055,44.236 -62.806,50.785 -58.228,57.687c4.406,6.643 2.258,7.428 -3.59,12.773c-8.385,7.665 -42.792,-75.055 30.469,-137.327c11.27,-9.58 11.743,0.682 13.643,7.301Z" style="fill:#bc7460;"/><path d="M514.219,580.6l1.909,3.436c4.721,4.91 4.347,5.655 10.998,6.513c15.276,1.971 20.865,-1.761 22.364,-2.762c6.281,-4.194 15.03,-2.231 30.045,-3.008c34.228,-1.772 46.893,-13.75 50.453,-5.909c23.795,52.417 -64.29,77.948 -42.554,141.365c-12.365,2.647 -77.952,16.684 -157.909,-7.047c-6.097,-1.81 -4.91,-4.489 -5.12,-104.105c-0.046,-21.793 23.603,-0.479 28.473,-17.127c0.56,-1.914 0.142,-18.934 6.428,-17.994c36.526,5.462 36.317,10.089 54.912,6.636Z" style="fill:#f595a3;"/><path d="M431.194,289.29c19.373,-14.889 13.348,-36.765 26.286,-23.969c2.595,2.567 21.226,20.993 39.341,23.116c4.094,5.855 3.927,5.943 10.557,9.159c-1.026,1.912 -2.052,3.825 -3.078,5.737c-0.371,4.232 -1.41,4.39 0.63,7.25c2.888,4.049 5.021,4.036 2.555,8.192c-22.927,38.646 17.87,50.221 23.852,44.633c3.896,2.258 3.573,3.043 8.167,2.796l3.13,2.377c0.117,0.786 1.729,0.723 1.847,1.509c0.12,0.801 -4.078,4.563 11.224,10.896c0.662,3.341 1.324,6.682 1.986,10.023c0.382,1.585 2.211,10.412 3.457,17.765l0.294,2.51c-22.318,11.857 -29.471,18.579 -59.551,22.863l-2.505,0.523l-2.505,-0.172l-2.505,0.082l-2.505,0.087l-2.505,0.155l-2.505,0.1l-2.505,0.115l-2.525,3.954c-33.921,-5.825 -39.625,-9.207 -63.504,-26.729c0.334,-9.523 -0.141,-9.362 -1.112,-18.702c9.499,-6.722 10.14,-8.47 10.531,-9.537c1.637,-4.465 0.209,-4.347 -1.49,-9.04l3.219,-2.09c30.355,-7.518 13.984,-39.227 4.318,-46.201c-7.964,-5.746 -1.584,-7.761 -1.967,-13.24c-1.034,-14.798 -6.463,13.672 -35.352,16.451c-5.945,0.572 -3.442,5.719 -5.557,8.3c-0.227,0.277 -2.44,2.977 0.934,4.372c11.019,4.556 3.47,10.095 10.379,19.773c-4.558,18.615 4.053,19.568 0.65,23.77c-1.05,1.297 -3.154,1.421 -4.204,2.718c-10.597,-28.854 -13.523,-50.917 -15.231,-65.301c-0.626,-5.272 -0.812,-6.304 13.049,-15.403c1.771,1.743 3.541,3.485 5.312,5.228c2.158,0.775 13.186,4.733 26.671,-10.484c5.156,-5.819 6.331,-6.534 2.721,-13.586Z" style="fill:#f9dab5;"/><path d="M110.603,408.175c83.577,-58.758 147.639,52.944 87.589,102.544c-62.933,51.981 -153.027,-34.649 -87.589,-102.544Z" style="fill:#f3c058;"/><path d="M114.087,414.318c69.157,-51.151 127.201,31.791 88.993,81.473c-48.358,62.878 -152.352,-12.078 -88.993,-81.473Z" style="fill:#7a3d38;"/><path d="M146.166,405.863c6.408,15.591 -5.65,21.824 -0.376,25.772c13.722,10.272 -6.443,34.515 10.385,35.308c12.648,0.595 29.319,17.412 27.766,6.818c-0.68,-4.637 -25.039,-10.84 -26.143,-24.868c-0.833,-10.586 -1.267,-10.573 2.656,-20.244c0.601,-1.482 -4.639,-8.593 -5.143,-9.276c-0.757,-1.028 -1.423,-0.694 -1.427,-3.314c-0.008,-5.634 1.035,-5.272 2.113,-10.758c9.015,1.194 8.831,0.974 17.707,3.356c-0.176,3.881 -0.045,3.7 -0.344,7.565c-0.248,3.206 4.781,3.924 7.278,-0.726c0.913,-1.7 1.382,-0.846 3.129,-1.916c7.021,5.771 7.527,4.954 12.929,12.532c-0.342,0.432 -10.205,14.669 4.38,5.315c3.305,5.419 2.715,5.551 7.011,17.396c-14.617,6.902 -1.305,9.179 1.076,9.822c-0.457,10.018 -0.958,9.782 -3.961,19.478c-6.35,-2.047 -12.104,-1.203 -8.875,3.143c1.829,2.462 3.314,-0.017 5.231,2.489c0.539,0.704 -0.602,1.954 -0.064,2.658c-4.555,6.368 -4.132,6.506 -10.174,12.579c-0.536,-0.415 -13.179,-10.209 -8.441,0.668c0.155,0.356 0.093,0.347 1.254,4.686c-9.775,4.873 -9.373,5.976 -20.19,6.509c-0.725,-5.227 0.098,-8.266 -4.965,-6.29c-0.653,0.255 -1.459,0.569 -3.009,8.23c-10.445,-0.982 -10.395,-0.602 -20.349,-3.425c6.678,-17.982 -6.438,-4.101 -6.826,-3.619c-7.887,-5.524 -7.706,-5.526 -14.704,-12.158c13.143,-14.93 -4.743,-7.652 -5.182,-7.554c-3.93,-8.537 -3.824,-8.301 -6.656,-17.376c9.748,-4.757 7.127,-7.105 6.529,-7.641c-4.248,-3.804 -3.66,0.606 -7.164,5.235c-0.484,-13.191 -0.215,-13.048 2.693,-27.117c1.184,0.182 -0.441,-1.77 0.76,-1.585c0.299,0.046 0.396,0.061 3.095,2.178c0.223,0.175 0.267,0.558 0.53,0.665c11.497,4.699 0.476,-8.559 0.01,-9.12c5.505,-7.401 5.446,-7.285 12.025,-13.8c5.122,4.764 4.961,4.948 5.532,5.145c0.714,0.246 6.516,-0.163 -0.674,-9.416c8.605,-3.62 8.235,-4.056 20.578,-7.343Z" style="fill:#fbfbfb;"/><path d="M704.339,594.007c-0.139,1.035 -1.701,12.638 -4.546,12.233c-2.099,-0.299 -23.611,-3.36 -24.63,-9.799c-2.876,-18.16 -1.452,-30.484 -19.811,-53.001c-5.227,-6.411 4.144,-8.327 -2.774,-37.16c-2.741,-11.424 -4.763,-11.56 -0.329,-24.949c3.89,-11.743 0.193,-15.891 12.275,-18.583c31.943,-7.116 43.483,-37.487 51.6,-18.494c2.104,4.923 -7.849,100.034 -11.784,149.752Z" style="fill:#d8a78f;"/><path d="M228.73,510.346c2.476,0.022 25.325,0.22 30.952,0.013c11.656,-0.43 -3.256,2.3 -10.902,10.961c-4.133,-0.746 -8.813,-5.14 -14.429,3.291c-19.025,28.562 -29.573,33.237 -18.16,35.061c18.351,2.931 28.824,-24.873 32.521,-27.92c20.953,21.854 73.428,47.672 130.056,3.748c5.641,-4.376 2.442,3.593 8.079,8.17c9.819,7.974 4.886,15.334 17.484,15.894c14.792,-5.619 -2.62,-12.568 2.159,-21.194c11.195,2.566 7.165,7.196 14.119,16.46c7.545,10.052 15.716,-0.288 15.991,-0.518c0.653,0.704 10.689,11.511 2.583,11.719c-45.629,1.171 -313.363,0.292 -340.612,0.203c-14.737,-0.048 27.178,-38.402 32.481,-37.067c27.51,6.926 29.957,6.815 55.125,-2.882c6.167,-2.376 14.424,7.48 14.707,7.717c-17.412,14.16 -14.788,16.997 -12.323,20.197c6.418,2.419 7.125,4.036 12.247,-0.725c27.676,-25.729 32.068,-25.846 28.121,-37.192c-0.066,-1.978 -0.133,-3.957 -0.199,-5.935Z" style="fill:#dbad96;"/><path d="M570.309,490.891l-3.984,2.955l1.529,2.505l2.106,2.505l2.642,2.505l2.738,2.505c10.003,7.587 10.42,8.934 6.953,20.797c-16.511,2.872 -16.386,3.02 -17.832,3.102c-12.851,0.734 -26.379,-24.313 -35.327,1.019c-0.833,2.357 -8.521,3.457 -9.991,0.335c-7.43,-15.786 -12.318,-11.096 -30.05,-3.398c-5.218,2.265 -30.28,0.625 -15.775,-12.725c4.799,-14.398 -14.981,-14.336 -4.715,-54.427c4.8,-18.746 20.023,-10.071 24.152,-3.008c10.098,17.273 28.192,18.309 39.118,13.091c17.276,-8.249 18.563,-29.44 18.586,-29.512c1.638,-5.136 26.674,-17.351 21.326,-8.056c-11.731,20.391 -17.548,29.101 -1.477,59.806Z" style="fill:#f397a5;"/><path d="M630.007,736.833l2.158,0.359c30.653,2.874 46.24,10.669 46.713,10.94c29.235,16.723 -51.796,24.573 -56.734,25.051l-2.505,0.151l-2.505,0.174l-2.505,0.344l-2.505,0.342c-50.195,3.298 -49.927,4.003 -100.211,4.746l-2.505,-0.027l-2.505,-0.103l-2.505,-0.155l-2.505,-0.038l-2.505,-0.007l-2.505,-0.101l-2.505,-0.009l-2.505,-0.034c-22.228,-0.544 -50.585,-0.024 -68.542,-5.077c1.704,-8.038 -1.241,-8.423 1.868,-16.126c4.184,-10.369 29.85,7.835 36.24,-22.985c0.803,-3.871 4.924,-3.433 5.433,-3.379c27.569,2.928 28.456,3.876 28.055,6.138c-0.187,1.052 -28.91,19.425 -10.277,31.927c9.467,6.351 66.719,3.761 65.536,-24.576c-0.617,-14.764 8.22,-7.046 39.524,-14.484c12.026,-2.857 -5.583,40.556 24.968,37.542c7.212,-0.712 11.057,-5.271 11.739,-6.079c2.969,-3.521 3.536,-22.552 3.595,-24.535Z" style="fill:#e2d3d2;"/><path d="M236.335,574.253c4.208,-0.012 43.833,-0.126 52.603,-0.091c37.645,0.152 37.423,0.048 75.165,0.092c26.382,0.03 26.105,-0.017 52.608,-0.068c20.267,-0.039 32.041,-7.327 28.497,12.58c-0.858,4.82 -3.603,3.71 -206.379,3.523c-142.19,-0.131 -145.007,1.833 -146.763,-4.031c-3.418,-11.413 0.832,-11.937 8.983,-11.943c83.084,-0.055 82.968,0.032 90.182,0c13.444,-0.059 13.283,-0.07 45.104,-0.062Z" style="fill:#cc9783;"/><path d="M514.219,580.6c13.288,-2.517 19.8,6.504 35.348,1.137c12.18,-4.204 12.029,-4.782 24.94,-4.378c42.244,1.322 66.652,-20.659 71.127,-24.69c8.178,-7.365 32.749,41.479 10.434,73.205c-20.768,29.526 -54.113,27.878 -41.45,80.923c2.003,8.391 -11.731,10.444 -27.184,13.439c-21.736,-63.417 66.348,-88.948 42.554,-141.365c-3.559,-7.841 -16.225,4.137 -50.453,5.909c-15.015,0.777 -23.763,-1.186 -30.045,3.008c-1.499,1.001 -7.089,4.733 -22.364,2.762c-6.651,-0.858 -6.276,-1.603 -10.998,-6.513l-1.909,-3.436Z" style="fill:#ea7188;"/><path d="M507.378,297.596c10.061,3.281 15.962,7.839 29.713,0.949c6.783,5.081 6.618,5.76 15.112,6.221c11.344,0.616 23.133,1.415 37.335,0.279c25.769,-2.062 24.854,-4.917 25.522,-5.229c6.124,0.394 5.954,-0.342 12.051,-1.638c26.821,-5.701 51.056,51.039 -9.899,50.672l0.527,-2.817c0.987,-3.456 0.541,-6.539 4.404,-6.601c23.947,-0.389 25.924,-21.439 17.152,-27.91c-17.926,-13.223 -26.528,27.721 -30.705,37.017l-0.87,2.505l-1.361,2.505l-1.17,2.505l-1.408,2.505l-0.756,2.505l-0.894,2.505l-0.937,2.505l-0.837,2.505l-1.432,2.505l-1.036,2.505l-1.474,2.505l-1.829,1.989l-1.871,3.021l-2.238,2.505l-2.401,2.505l-2.478,2.505l-1.928,2.505l-1.083,2.505l-2.537,2.505l-2.143,2.425c-1.739,-6.722 -3.478,-13.443 -5.217,-20.165c2.427,-3.168 14.706,-16.337 4.255,-22.166c-0.653,-0.364 -7.467,-4.165 -8.526,-3.817c-1.376,0.453 -0.864,3.272 -2.24,3.725c-2.602,-8.047 -3.707,-7.448 -11.839,-10.242c1.663,-6.225 2.262,-6.169 0.695,-12.505c-1.449,-5.859 -3.525,-6.755 1.135,-10.809c0.743,-0.646 10.754,-12.979 -8.993,-8.399c-22.84,5.297 -32.003,-8.568 -42.876,-10.854c1.026,-1.912 2.052,-3.825 3.078,-5.737Z" style="fill:#f9dab5;"/><path d="M513.779,134.86c4.041,10.371 0.994,10.594 0.146,25.722c-0.109,1.951 -1.245,22.198 -4.998,23.905c-4.1,1.864 -23.56,10.711 -54.638,13.57c-1.407,0.129 -16.64,1.531 -17.537,2.066c-1.444,0.862 -1.143,3.47 -2.587,4.332c-2.477,-0.361 -4.954,-0.722 -7.431,-1.083c2.161,-9.625 -2.081,-11.347 -13.073,-45.108c-1.51,-4.639 1.66,-5.939 1.771,-6.381c0.14,-0.557 -1.629,-0.309 -1.489,-0.866c20.946,9.019 24.909,14.997 29.263,4.193c11.639,-28.882 9.375,-47.014 21.715,-32.65c13.976,16.269 13.468,16.327 20.414,24.702c10.435,12.581 20.36,-4.149 28.444,-12.401Z" style="fill:#f8c85e;"/><path d="M741.177,441.576c1.009,14.09 -14.858,187.185 -16.816,189.751c-4.673,6.125 -7.51,0.971 -89.867,34.608c-14.828,6.056 1.254,-7.16 1.733,-7.553c17.159,-14.101 15.442,-16.673 30.834,-22.234c29.656,-10.713 42.966,-12.328 44.317,-27.09c4.242,-46.361 3.279,-46.286 7.727,-92.727c6.085,-63.533 9.565,-76.11 -2.556,-84.047c-12.581,-8.239 14.992,-14.339 24.628,9.293Z" style="fill:#cd9580;"/><path d="M625.38,430.182l-2.511,3.538l2.079,2.505c17.717,21.493 1.845,46.064 -0.299,49.383c-0.236,0.365 -0.212,0.342 -2.859,4.613c-9.923,3.381 -9.857,3.01 -19.497,6.644c-20.774,7.829 -37.995,-27.064 -30.226,-48.104c14.093,-38.168 49.273,-20.597 53.314,-18.578Z" style="fill:#f396a2;"/><path d="M636.354,357.713c0.392,7.201 -2.607,68.435 45.941,67.06c1.697,-0.048 6.939,-0.197 20.017,-7.028l3.37,-0.957c-1.746,4.028 -11.613,26.793 -41.253,36.182c-16.943,5.367 -9.34,-11.586 -25.832,-25.79c-30.876,-26.592 -57.816,-2.953 -60.029,-4.955c-6.916,-6.259 17.211,-3.279 41.073,-61.158c1.643,-3.986 5.33,-3.282 16.713,-3.354Z" style="fill:#a45a4d;"/><path d="M604.974,513.819l2.138,-0.22l2.505,-0.213c24.216,-11.29 25.973,-6.242 26.684,-4.201c5.24,15.053 0.265,43.492 -41.715,50.028c-17.414,2.711 -17.308,1.717 -35.074,3.208l-2.505,0.476l-2.505,0.977l-2.505,1.111l-2.505,0.406l-2.505,0.917l-2.505,1.706l-2.505,0.025l-2.505,0.308l-2.505,0.46l-2.505,0.116c-1.328,-0.921 -2.656,-1.842 -3.985,-2.764c-1.264,-0.483 -2.529,-0.966 -3.793,-1.448c0.202,-1.871 0.404,-3.741 0.606,-5.612c-1.95,-3.203 -1.446,-3.783 -3.51,-3.976c-8.686,-0.813 -8.882,-0.58 -9.312,-1.188c-3.389,-4.786 12.252,-4.393 12.629,-4.831c4.35,-5.055 -9.339,-5.107 -9.767,-5.532c-4.879,-4.837 15.686,-5.16 17.116,-5.183c9.013,-0.142 3.777,-8.237 4.039,-9.965c1.913,-12.582 7.458,12.452 33.329,7.002c29.493,-6.212 35.967,-5.845 33.163,-21.608Z" style="fill:#f7dab5;"/><path d="M397.211,701.792c0.393,-73.227 -0.323,-73.009 -0.139,-97.694c0.057,-7.658 16.187,-5.494 18.082,-3.326c2.991,3.423 1.299,148.235 1.148,161.124c-0.139,11.895 -17.406,5.488 -17.491,5.402c-1.429,-1.455 -1.437,-18.834 -1.437,-20.476c-0.01,-22.705 -0.007,-22.515 -0.162,-45.03Z" style="fill:#d19f8b;"/><path d="M461.574,529.571c15.408,4.157 24.231,8.458 30.617,4.934c1.233,-0.68 23.851,-13.16 17.352,-2.972c-0.226,0.354 -0.88,-0.615 -4.38,2.905c-2.862,2.878 1.555,7.026 1.222,9.423c-1.788,12.87 -0.427,12.73 3.923,24.955c3.245,9.121 -4.684,3.515 -43.542,-1.807c-18.687,-2.56 -15.536,-8.135 -31.116,-27.117c-9.285,-11.312 -14.322,-11.507 -10.348,-33.272c1.751,-9.593 6.224,-2.417 31.543,2.017c0.945,0.165 12.933,5.932 -4.635,11.055c-8.699,2.537 8.355,9.469 9.364,9.879Z" style="fill:#f5d2b0;"/><path d="M122.523,654.181c-0.024,-46.163 -0.461,-46.149 -0.109,-50.145c0.118,-1.338 0.834,-9.455 16.112,-4.736c3.698,1.142 2.41,3.067 2.712,147.578c0.037,17.835 1.025,27.111 -15.751,21.226c-3.556,-1.247 -2.911,-2.893 -2.965,-113.923Z" style="fill:#d4a58e;"/><path d="M253.303,651.683c-0.065,-46.909 -0.954,-51.432 3.127,-52.405c21.598,-5.151 15.533,7.752 15.42,29.852c-0.583,114.291 2.404,118.085 -5.482,120.173c-15.538,4.113 -12.788,-6.934 -13.065,-97.62Z" style="fill:#cd9b88;"/><path d="M504.299,303.333c10.873,2.286 20.036,16.151 42.876,10.854c19.747,-4.58 9.735,7.753 8.993,8.399c-4.659,4.054 -2.583,4.95 -1.135,10.809c1.567,6.337 0.968,6.28 -0.695,12.505c-0.638,0.402 -7.605,4.793 -9.137,2.317c-4.247,-6.864 -4.396,-11.955 -10.309,-6.642c-6.289,5.651 3.266,7.779 -0.288,14.566c-1.866,3.563 -2.012,3.258 -3.268,7.268c-5.983,5.588 -46.779,-5.987 -23.852,-44.633c2.466,-4.156 0.333,-4.144 -2.555,-8.192c-2.04,-2.86 -1.001,-3.019 -0.63,-7.25Z" style="fill:#7a3c34;"/><path d="M402.226,362.349c-6.908,-9.678 0.641,-15.217 -10.379,-19.773c-3.374,-1.395 -1.161,-4.095 -0.934,-4.372c2.115,-2.581 -0.388,-7.728 5.557,-8.3c28.889,-2.78 34.317,-31.249 35.352,-16.451c0.383,5.479 -5.997,7.494 1.967,13.24c9.666,6.974 26.038,38.683 -4.318,46.201c-11.002,-9.788 -15.13,-9.294 -27.245,-10.545Z" style="fill:#7f4039;"/><path d="M554.339,345.9c8.132,2.794 9.237,2.195 11.839,10.242c3.362,11.189 3.127,11.024 6.511,22.258c1.739,6.722 3.478,13.443 5.217,20.165l2.143,-2.425l2.537,-2.505l1.083,-2.505l1.928,-2.505l2.478,-2.505l2.401,-2.505l2.238,-2.505l1.871,-3.021l1.829,-1.989l1.474,-2.505l1.036,-2.505l1.432,-2.505l0.837,-2.505l0.937,-2.505l0.894,-2.505l0.756,-2.505l1.408,-2.505l1.17,-2.505l1.361,-2.505l0.87,-2.505c4.177,-9.296 12.779,-50.24 30.705,-37.017c8.772,6.471 6.795,27.521 -17.152,27.91c-3.863,0.063 -3.417,3.145 -4.404,6.601l-0.527,2.817c-13.511,10.339 0.336,20.985 -42.501,62.495c-1.028,-2.786 -1.455,-2.434 -1.912,-5.184c-3.059,-18.388 -3.782,-18.181 -3.989,-19.782c-0.416,-3.218 -4.594,-14.638 -4.839,-17.751c-0.605,-7.675 -6.605,-16.759 -14.396,-5.261c-9.222,2.519 -9.195,2.452 -10.071,2.837c-4.594,0.247 -4.271,-0.537 -8.167,-2.796c1.256,-4.011 1.403,-3.705 3.268,-7.268c3.554,-6.787 -6.001,-8.915 0.288,-14.566c5.913,-5.313 6.062,-0.222 10.309,6.642c1.532,2.476 8.499,-1.915 9.137,-2.317Z" style="fill:#d7cabe;"/><path d="M193.223,395.112c-17.723,-2.952 -16.281,-7.846 -34.316,-9.782c-8.921,-0.958 7.657,-5.837 2.955,-17.086c-2.339,-5.596 -17.329,-2.623 -20.707,-2.019c-2.71,0.484 -15.045,8.049 -0.582,15.724c8.958,4.754 -5.457,2.107 -24.035,15.114c-3.481,2.437 -3.576,1.875 -7.526,3.433c0.003,-0.073 -1.785,-1.84 0.185,-3.932c6.236,-6.62 26.763,-14.638 9.172,-25.089c-7.33,-4.355 -10.461,-6.484 -3.886,-11.965c29.435,-24.536 89.229,-5.621 71.266,3.196c-14.642,7.186 -19.547,13.958 -4.945,21.667c13.746,7.257 12.413,8.779 12.419,10.74Z" style="fill:#f9f9f9;"/><path d="M720.304,755.343c-15.378,2.078 -12.295,-7.009 -12.387,-68.598c-0.035,-23.603 -0.933,-37.744 2.396,-39.208c13.903,-6.112 14.354,-1.991 14.405,-0.838c0.007,0.167 0.225,100.622 -0.141,102.633c-0.646,3.555 -1.412,3.008 -4.273,6.011Z" style="fill:#cb9682;"/><path d="M442.169,437.917c17.363,6.615 17.485,6.228 18.945,6.915c4.627,2.179 0.941,3.558 -1.892,11.407c-8.469,23.468 7.338,45.377 -4.952,43.438c-21.611,-3.41 -26.064,-7.89 -30.498,-13.048c5.366,-14.351 -3.474,-19.213 6.064,-35.053c4.551,-7.558 11.102,-12.357 12.333,-13.66Z" style="fill:#f390a0;"/><path d="M604.974,513.819c-0.51,-6.807 -0.075,-10.353 27.402,-16.355c11.713,-2.559 11.071,4.783 13.062,16.31c10.994,63.643 -82.487,53.821 -85.959,55.147c-2.578,0.985 -27.463,10.489 -34.237,4.252c-4.124,-3.798 1.477,-2.818 5.231,-7.014c1.328,0.921 2.656,1.842 3.985,2.764l2.505,-0.116l2.505,-0.46l2.505,-0.308l2.505,-0.025l2.505,-1.706l2.505,-0.917l2.505,-0.406l2.505,-1.111l2.505,-0.977l2.505,-0.476c17.766,-1.491 17.66,-0.497 35.074,-3.208c41.981,-6.537 46.956,-34.975 41.715,-50.028c-0.71,-2.041 -2.468,-7.089 -26.684,4.201l-2.505,0.213l-2.138,0.22Z" style="fill:#f3b89b;"/><path d="M308.258,310.752c-5.065,17.608 -10.033,17.33 -27.115,10.927c-26.577,-9.961 -25.292,-31.051 -2.173,-28.677c6.574,0.675 4.576,-20.419 20.11,-14.915c11.741,4.16 9.421,29.961 9.178,32.665Z" style="fill:#f4bec1;"/><path d="M380.645,613.305c5.49,-6.836 5.166,-7.295 5.918,-7.369c0.332,-0.033 2.961,-0.293 2.766,3.121c-1.928,33.64 0.695,84.408 -1.008,87.288c-2.164,3.659 -24.95,-7.744 -26.98,-8.76c4.441,-22.158 3.473,-29.125 22.608,-68.475l1.17,-2.505l-4.475,-3.3Z" style="fill:#f597a4;"/><path d="M404.669,410.757c17.843,16.679 24.5,18.965 21.522,22.668c-9.949,12.37 -10.539,11.956 -15.7,27.055c-0.924,2.704 -23.963,3.894 -42.122,-21.066c12.842,-7.714 29.321,-1.232 33.135,-23.254c0.815,-4.704 2.268,-3.872 3.165,-5.404Z" style="fill:#a55c4f;"/><path d="M748.972,200.508c-8.886,20.004 -37.932,22.992 -41.805,12.815c-12.786,-33.596 10.411,-51.467 18.74,-27.928c3.394,9.592 23.824,-8.625 23.065,15.112Z" style="fill:#f5cacb;"/><path d="M497.576,277.576c-0.326,1.901 -0.652,3.802 -0.979,5.703c0.074,1.719 0.149,3.439 0.223,5.158c-18.115,-2.123 -36.746,-20.549 -39.341,-23.116c-12.938,-12.796 -6.912,9.08 -26.286,23.969c-10.869,5.348 -8.098,12.021 -21.869,17.097c-3.167,1.167 -3.168,0.828 -5.079,2.179c-2.807,1.985 -1.366,2.679 -2.444,4.794c-1.771,-1.743 -3.541,-3.485 -5.312,-5.228c34.674,-29.684 36.142,-32.14 48.576,-64.346c3.461,-8.966 12.604,16.082 52.51,33.789Z" style="fill:#f4bb9d;"/><path d="M248.565,752.128c1.436,1.394 10.671,10.355 24.767,3.545c3.061,-1.479 5.448,-7.525 10.603,-6.316c1.993,0.467 51.076,11.975 20.134,15.793c-7.159,0.883 -57.885,7.142 -90.162,-1.015c-13.282,-3.357 28.35,-16.971 32.275,-14.472c0.964,0.614 1.419,1.852 2.383,2.465Z" style="fill:#ccc0bb;"/><path d="M513.779,134.86c7.276,-8.221 7.436,-8.283 8.329,-8.634c2.92,-1.146 3.003,3.813 3.009,4.228c0.942,56.499 -1.632,57.58 -6.038,59.43c-39.877,16.749 -78.03,14.904 -84.914,14.571c1.444,-0.862 1.143,-3.47 2.587,-4.332c0.897,-0.535 16.13,-1.937 17.537,-2.066c31.077,-2.859 50.537,-11.706 54.638,-13.57c3.753,-1.706 4.889,-21.954 4.998,-23.905c0.848,-15.128 3.895,-15.351 -0.146,-25.722Z" style="fill:#f2a94f;"/><path d="M807.418,395.129c0.418,0.027 3.877,-0.508 7.516,1.227c22.375,10.668 -30.926,40.413 -35.43,19.959c-7.872,-35.747 15.605,-41.078 19.551,-24.932c1.871,7.654 6.102,3.815 8.363,3.746Z" style="fill:#f4cacb;"/><path d="M388.841,739.343c0.045,17.073 -1.303,17.026 1.239,31.994c-23.734,-4.95 -23.76,-4.703 -25.799,-5.233c-49.448,-12.849 0.764,-29.483 22.365,-26.905l2.195,0.144Z" style="fill:#e2d3d1;"/><path d="M389.741,394.349l2.007,-0.915c8.375,12.489 11.737,16.063 12.921,17.323c-0.897,1.531 -2.351,0.7 -3.165,5.404c-3.814,22.022 -20.292,15.54 -33.135,23.254c-7.114,-12.49 -8.327,-11.95 -9.051,-18.256c-1.475,-12.845 20.755,3.276 30.424,-26.809Z" style="fill:#bc7663;"/><path d="M346.663,515.865c9.394,4.669 9.317,4.675 10.145,5.043c3.953,1.751 5.947,-3.453 12.301,-2.005c13.193,3.006 9.224,10.55 -2.876,16.845c-30.049,6.338 -42.318,7.703 -84.604,4.873c-2.546,-0.709 -5.093,-1.418 -7.639,-2.126l2.478,-4.576c2.048,0.8 5.734,5.629 12.308,-0.294c0.904,0.068 1.627,-1.064 2.532,-0.996c6.257,0.469 29.24,9.347 45.172,-6.309c3.475,1.681 3.641,1.4 4.623,2.734c2.318,2.807 2.192,4.101 5.63,2.662c7.761,-3.249 4.063,-6.03 -1.388,-12.289l1.318,-3.561Z" style="fill:#e6dcd9;"/><path d="M226.985,380.686l-2.502,2.928c-2.986,16.064 -8.271,15.309 -8.45,15.444c-13.227,-8.624 -13.049,-8.42 -26.398,-16.675c-7.982,-4.936 -11.228,-8.384 -2.795,-12.667c21.299,-10.817 37.966,8.452 40.144,10.97Z" style="fill:#f7ca5a;"/><path d="M539.463,290.542c3.933,0.844 25.486,5.471 50.087,4.421c14.311,-0.611 17.575,-7.262 25.51,4.854c-0.668,0.312 0.247,3.167 -25.522,5.229c-14.201,1.136 -25.99,0.338 -37.335,-0.279c-8.495,-0.461 -8.33,-1.14 -15.112,-6.221c0.349,-1.703 0.697,-3.406 1.046,-5.109l1.327,-2.894Z" style="fill:#f3b899;"/><path d="M86.319,376.794l2.199,2.589c12.744,4.057 7.458,8.846 9.416,11.746c0.984,1.458 2.969,2.038 3.953,3.496c-6.544,6.248 -6.534,5.934 -13.27,11.662c-6.955,5.915 -18.2,21.87 -19.88,-2.629c-0.903,-13.17 15.517,-25.335 17.581,-26.864Z" style="fill:#f8ce61;"/><path d="M402.226,362.349c12.115,1.251 16.244,0.757 27.245,10.545l-3.219,2.09c-0.681,0.327 -8.518,4.087 -8.518,4.087c-1.651,2.554 -0.773,2.769 -0.524,14.49c0.971,9.34 1.446,9.179 1.112,18.702c-6.194,-5.682 -10.284,-5.868 -19.651,-23.426c1.05,-1.297 3.154,-1.421 4.204,-2.718c3.402,-4.202 -5.209,-5.155 -0.65,-23.77Z" style="fill:#abe9f9;"/><path d="M146.166,405.863c4.979,-1.294 4.848,-0.92 9.832,-0.562c-1.077,5.486 -2.121,5.124 -2.113,10.758c0.004,2.62 0.669,2.286 1.427,3.314c0.503,0.683 5.744,7.794 5.143,9.276c-3.923,9.671 -3.489,9.658 -2.656,20.244c1.104,14.028 25.463,20.231 26.143,24.868c1.553,10.594 -15.118,-6.223 -27.766,-6.818c-16.828,-0.792 3.337,-25.036 -10.385,-35.308c-5.274,-3.948 6.784,-10.18 0.376,-25.772Z" style="fill:#74433e;"/><path d="M466.392,599.732c-3.414,-3.23 -4.452,-2.642 -4.576,-5.677c-0.352,-8.638 12.794,2.531 15.701,3.837c42.66,19.155 73.354,0.797 79.262,1.938c0.756,0.146 6.382,3.685 -5.233,8.079c-45.259,17.122 -79.375,-4.512 -85.154,-8.177Z" style="fill:#df667a;"/><path d="M248.781,521.32c-0.023,3.477 -0.045,6.954 -0.068,10.431c-3.698,3.047 -14.17,30.852 -32.521,27.92c-11.413,-1.823 -0.865,-6.498 18.16,-35.061c5.615,-8.43 10.296,-4.036 14.429,-3.291Z" style="fill:#774137;"/><path d="M625.38,430.182c2.197,1.715 18.059,14.097 20.072,28.473c4.396,31.407 -16.147,30.037 -23.662,31.565c2.647,-4.271 2.624,-4.248 2.859,-4.613c2.144,-3.319 18.016,-27.89 0.299,-49.383l-2.079,-2.505l2.511,-3.538Z" style="fill:#ea7389;"/><path d="M683.728,156.997c-6.336,-0.225 -3.91,-3.164 -5.764,-9.127c-3.541,-11.384 -22.278,-10.643 -13.372,-14.949c10.987,-5.311 11.412,-5.595 15.149,-17.387c2.515,-7.936 5.752,4.113 5.908,4.696c3.716,13.835 19.876,11.282 15.7,16.858c-2.916,3.894 -10.635,-2.528 -17.622,19.91Z" style="fill:#f7dede;"/><path d="M308.953,234.647c-30.719,-5.72 -6.571,-42.351 10.02,-23.87c0.82,0.914 6.144,6.844 2.753,15.098c-2.574,6.265 -11.569,8.477 -12.773,8.773Z" style="fill:#7c3e3b;"/><path d="M293.912,489.97c1.062,-1.068 0.306,-4.428 10.048,-6.259c11.956,-2.247 -6.717,9.65 2.092,30.383c-0.049,1.404 -0.099,2.808 -0.148,4.211c-1.887,-0.043 -8.077,4.67 -30.43,-9.062c0.6,-7.784 0.08,-8.412 6.343,-12.676c2.732,5.884 2.926,10.213 7.774,5.67c5.498,-5.152 7.894,-5.463 4.321,-12.268Z" style="fill:#a75448;"/><path d="M549.575,363.367c7.791,-11.498 13.791,-2.414 14.396,5.261c0.245,3.113 4.423,14.534 4.839,17.751c0.207,1.601 0.93,1.394 3.989,19.782c0.458,2.75 0.885,2.398 1.912,5.184c-4.939,4.133 -4.596,4.126 -9.957,7.847c-2.138,-3.858 -2.51,-3.553 -3.313,-7.908l-0.294,-2.51c2.137,-3.848 2.926,-3.759 2.167,-15.14c-1.501,-0.683 -0.755,-1.464 -2.409,-2.215c-0.236,-0.107 0,0 -3.214,-0.409c-0.662,-3.341 -1.324,-6.682 -1.986,-10.023c-2.506,-9.194 -2.536,-8.982 -6.129,-17.62Z" style="fill:#c3eef6;"/><path d="M738.945,310.673c-0.174,0.592 -3.071,10.44 -5.96,4.892c-3.529,-6.778 0.137,-10.2 -12.731,-15.588c-11.75,-4.921 7.652,-5.109 10.585,-16.201c0.181,-0.685 4.185,-15.827 6.894,-5.558c2.981,11.297 4.205,11.021 14.277,15.914c11.163,5.422 -7.598,3.084 -13.066,16.542Z" style="fill:#f7dadb;"/><path d="M561.441,411.285c0.803,4.355 1.175,4.05 3.313,7.908c-34.523,20.694 -52.112,21.885 -82.927,19.799l2.525,-3.954l2.505,-0.115l2.505,-0.1l2.505,-0.155l2.505,-0.087l2.505,-0.082l2.505,0.172l2.505,-0.523c30.08,-4.284 37.233,-11.005 59.551,-22.863Z" style="fill:#f1b499;"/><path d="M621.33,736.878c-0.022,1.572 -0.244,17.693 -2.171,19.532c-4.845,4.625 -14.416,2.703 -15.369,-4.344c-3.214,-23.769 0.915,-25.404 2.875,-26.179c10.768,-4.261 11.856,-4.077 12.92,-3.898c2.532,0.427 1.355,1.593 1.745,14.888Z" style="fill:#d5a38d;"/><path d="M481.867,506.124c0.11,-1.675 -1.088,-3.264 -0.978,-4.939c0.422,-6.419 45.223,-18.953 70.747,-4.222c6.223,3.592 2.662,7.953 -1.955,6.286c-35.203,-12.708 -36.221,-5.036 -67.814,2.875Z" style="fill:#ba4f5c;"/><path d="M512.021,762.659c-0.438,0.045 -26.941,5.305 -24.897,-5.688c2.212,-11.892 17.708,4.48 47.165,-10.43c17.784,-9.002 5.046,6.92 4.688,7.154c-6.067,3.97 -6.415,3.006 -26.957,8.964Z" style="fill:#ac4046;"/><path d="M380.645,613.305l4.475,3.3l-1.17,2.505c-19.135,39.35 -18.167,46.317 -22.608,68.475c-4.085,-2.527 -6.13,-1.147 -6.203,-5.942c-0.396,-25.764 22.474,-63.353 25.507,-68.339Z" style="fill:#f5cad2;"/><path d="M413.944,151.017c-0.14,0.557 1.629,0.309 1.489,0.866c-0.111,0.442 -3.282,1.742 -1.771,6.381c10.992,33.761 15.234,35.484 13.073,45.108c-4.555,-1.294 -5.439,-0.641 -8.006,-7.453c-17.544,-46.562 -19.905,-47.2 -16.806,-50.073c1.539,-1.426 7.008,2.303 12.021,5.17Z" style="fill:#f9edd2;"/><path d="M319.021,501.354c0.938,0.688 5.393,3.955 12.276,7.805c1.036,1.508 2.071,3.015 3.107,4.523c-2.394,15.244 -11.289,9.779 -12.237,9.486c-9.836,-8.256 -10.711,-10.607 -11.45,-14.142c-0.954,-4.567 0.468,-16.56 1.864,-19.41c3.329,-6.797 3.247,1.967 6.44,11.738Z" style="fill:#e99a84;"/><path d="M471.715,388.461c25.125,-12.56 38.817,6.718 39.413,10.233c1.836,10.842 -11.346,-3.924 -16.663,-5.312c-26.06,-6.807 -25.8,23.171 -31.613,12.165c-3.692,-6.991 7.663,-16.121 8.863,-17.086Z" style="fill:#7d4239;"/><path d="M311.788,411.545c-14.684,8.724 -28.972,-18.92 -10.429,-17.323c0.786,0.068 19.425,-6.817 15.271,9.471c-1.209,4.742 -1.628,4.318 -4.842,7.852Z" style="fill:#f8d8d9;"/><path d="M228.929,516.281c3.947,11.346 -0.444,11.463 -28.121,37.192c-5.122,4.762 -5.829,3.144 -12.247,0.725c1.281,-1.763 2.562,-3.526 3.843,-5.29c2.503,0.598 3.444,2.251 11.284,-5.011c3.035,-2.811 1.553,-3.316 0.073,-4.899c1.875,-1.657 3.75,-3.314 5.624,-4.971c0.916,0.361 2.684,5.198 11.82,-5.179c6.989,-7.938 1.907,-8.787 1.873,-8.773c-0.685,0.288 -1.449,0.608 -6.794,6.337c-1.646,-1.695 -3.291,-3.389 -4.937,-5.084c9.078,-2.153 8.193,-6.223 17.581,-5.047Z" style="fill:#754138;"/><path d="M86.319,376.794c1.488,-0.572 13.265,-5.102 19.694,-3.029c19.678,6.344 4.897,12.849 -4.125,20.86c-0.984,-1.458 -2.969,-2.038 -3.953,-3.496c-1.958,-2.9 3.328,-7.688 -9.416,-11.746l-2.199,-2.589Z" style="fill:#efb849;"/><path d="M496.597,283.279c4.542,0.632 4.559,0.49 4.905,0.682c16.96,9.426 17.071,9.928 36.634,9.475c-0.349,1.703 -0.697,3.406 -1.046,5.109c-13.751,6.89 -19.651,2.332 -29.713,-0.949c-6.63,-3.216 -6.463,-3.304 -10.557,-9.159c-0.074,-1.719 -0.149,-3.439 -0.223,-5.158Z" style="fill:#733832;"/><path d="M570.309,490.891c16.75,19.925 29.599,14.331 26.871,28.03c-1.108,5.56 -3.333,3.143 -14.886,5.743c3.467,-11.863 3.05,-13.21 -6.953,-20.797l-2.738,-2.505l-2.642,-2.505l-2.106,-2.505l-1.529,-2.505l3.984,-2.955Z" style="fill:#ec7389;"/><path d="M384.092,520.712c-4.187,-2.588 -18.178,-8.524 -18.26,-9.497c-0.207,-2.45 1.2,-2.211 30.717,-1.091c13.503,0.512 3.839,14.125 3.644,14.671c-1.173,0.466 0.642,1.569 -0.676,2.092c-0.199,0.079 -0.959,0.381 -2.544,-0.813c-4.263,-3.212 -2.82,-8.889 -12.882,-5.361Z" style="fill:#daa995;"/><path d="M516.855,322.654c1.455,0.21 20.122,2.907 9.735,15.586c-12.261,14.966 -30.385,-8.146 -9.735,-15.586Z" style="fill:#f9fafa;"/><path d="M442.169,437.917c-1.231,1.302 -7.782,6.102 -12.333,13.66c-9.538,15.84 -0.698,20.702 -6.064,35.053c-0.817,-1.69 -6.715,-13.878 -5.145,-22.89c5.16,-29.616 20.804,-26.387 23.542,-25.822Z" style="fill:#f0d1ce;"/><path d="M278.153,546.56c15.988,-3.899 25.097,6.681 65.899,-1.466c24.563,-4.904 -21.544,19.796 -65.899,1.466Z" style="fill:#cdc1bf;"/><path d="M516.998,735.699c2.198,-0.087 33.005,-2.149 15.804,4.507c-31.876,12.333 -34.121,4.22 -32.639,2.064c6.858,-9.976 13.705,-6.514 16.835,-6.571Z" style="fill:#f6ddc0;"/><path d="M372.034,360.811c-0.865,-1.933 -8.049,-17.987 0.348,-26.474c5.571,-5.631 5.754,13.332 5.897,14.307c0.647,4.409 13.672,36.919 -6.245,12.168Z" style="fill:#f1d2b0;"/><path d="M537.043,453.808c-0.861,-1.385 -1.723,-2.769 -2.584,-4.154l-2.505,1.271l-2.505,0.859c-3.853,0.692 -7.001,1.521 -7.603,1.679c-0.592,0.156 -0.581,0.068 -7.429,1.837c-1.632,0.422 -3.503,-0.062 -5.011,0.692c-1.315,0.658 -1.626,2.629 -2.941,3.287c-15.9,-13.991 5.549,-8.409 25.552,-15.326c0.638,-0.221 6.999,-2.42 8.381,-0.959c1.274,1.347 -2.957,10 -3.354,10.813Z" style="fill:#ecb797;"/><path d="M384.092,520.712c10.062,-3.528 8.618,2.149 12.882,5.361c1.585,1.194 2.345,0.892 2.544,0.813c1.317,-0.524 -0.498,-1.626 0.676,-2.092c1.42,7.488 1.979,7.184 6.297,13.576c-4.779,8.627 12.633,15.575 -2.159,21.194c-0.875,-1.925 -1.75,-3.851 -2.626,-5.776c4.972,-5.251 -0.759,-5.568 -2.234,-12.582c-0.093,-0.442 -0.228,-0.351 -3.084,-4.735c-0.429,-0.878 -4.238,-13.851 -8.745,-9.973c-1.183,-1.928 -2.366,-3.857 -3.549,-5.785Z" style="fill:#845146;"/><path d="M431.194,289.29c3.61,7.052 2.435,7.767 -2.721,13.586c-13.485,15.217 -24.513,11.259 -26.671,10.484c1.078,-2.115 -0.363,-2.809 2.444,-4.794c1.911,-1.351 1.912,-1.012 5.079,-2.179c13.771,-5.075 11,-11.749 21.869,-17.097Z" style="fill:#773a35;"/><path d="M341.784,170.865l2.18,0.547c0.776,0.454 0.77,-2.664 1.546,-2.21c0.871,0.51 -2.139,3.113 8.091,9.676c6.518,4.181 -3.223,5.781 -5.897,10.419c-2.514,4.361 -4.389,4.18 -7.158,-0.215c-3.914,-6.213 -13.246,-3.321 -7.882,-7.759c5.472,-4.527 5.707,-4.252 9.12,-10.458Z" style="fill:#f7dbd8;"/><path d="M670.031,625.486c0.207,-1.331 -1.046,-2.621 -0.839,-3.952c0.242,-1.558 3.816,-10.882 4.175,-11.819c1.28,-3.339 13.018,1.294 16.404,1.936c18.991,3.599 -3.139,8.052 -19.74,13.835Z" style="fill:#d49b7e;"/><path d="M497.576,277.576c4.022,0.693 4.024,0.599 4.344,0.749c13.333,6.238 13.169,6.34 37.544,12.218l-1.327,2.894c-19.563,0.453 -19.674,-0.049 -36.634,-9.475c-0.346,-0.192 -0.363,-0.051 -4.905,-0.682c0.326,-1.901 0.652,-3.802 0.979,-5.703Z" style="fill:#e8ae90;"/><path d="M411.436,354.499c-1.16,-0.553 -13.982,-6.658 -4.33,-15.472c10.559,-9.642 27.65,14.119 4.33,15.472Z" style="fill:#f6f6f5;"/><path d="M273.779,521.489c-11.884,4.75 -9.183,7.731 -8.398,8.252c6.127,4.064 6.078,0.035 11.843,-4.367l1.494,1.216c-0.142,0.597 -0.981,4.121 -2.249,7.328l-2.478,4.576c-1.717,-0.494 -36.166,-10.402 -10.198,-19.868c6.522,-2.378 8.701,1.859 9.987,2.863Z" style="fill:#e9e6e8;"/><path d="M316.5,262.352c-20.171,-6.816 -1.236,-25.269 7.198,-13.824c6.865,9.316 -6.011,13.443 -7.198,13.824Z" style="fill:#7c413e;"/><path d="M537.043,453.808c-1.247,1.431 -12.842,16.697 -30.578,5.471c1.315,-0.658 1.626,-2.629 2.941,-3.287c1.508,-0.754 3.378,-0.271 5.011,-0.692c6.848,-1.769 6.837,-1.681 7.429,-1.837c0.602,-0.159 3.75,-0.987 7.603,-1.679l2.505,-0.859l2.505,-1.271c0.861,1.385 1.723,2.769 2.584,4.154Z" style="fill:#f5e0c2;"/><path d="M436.842,737.257c13.774,-4.125 13.678,-4.939 14.792,-4.406c12.898,6.177 -25.471,19.502 -27.025,11.503c-1.49,-7.668 3.236,-4.611 12.233,-7.097Z" style="fill:#ac404a;"/><path d="M566.178,356.143c1.376,-0.453 0.864,-3.272 2.24,-3.725c1.058,-0.348 7.873,3.453 8.526,3.817c10.451,5.829 -1.828,18.998 -4.255,22.166c-3.384,-11.233 -3.149,-11.069 -6.511,-22.258Z" style="fill:#f3b8a0;"/><path d="M226.985,380.686c0.913,1.749 8.906,17.061 3.229,24.445c-1.985,2.582 -13.173,-5.359 -14.18,-6.073c0.179,-0.135 5.464,0.62 8.45,-15.444l2.502,-2.928Z" style="fill:#f3b74c;"/><path d="M236.979,539.551c-14.066,17.049 -16.76,15.583 -17.055,13.85c-0.256,-1.5 28.314,-40.988 20.466,-19.71c-1.198,3.249 -1.367,2.994 -3.411,5.86Z" style="fill:#e9d7cb;"/><path d="M549.575,363.367c3.593,8.637 3.624,8.426 6.129,17.62c-15.303,-6.332 -11.105,-10.095 -11.224,-10.896c-0.117,-0.786 -1.729,-0.723 -1.847,-1.509l-3.13,-2.377c0.877,-0.385 0.849,-0.319 10.071,-2.837Z" style="fill:#f6b79d;"/><path d="M426.253,374.984c1.698,4.693 3.127,4.575 1.49,9.04c-0.391,1.067 -1.032,2.815 -10.531,9.537c-0.249,-11.72 -1.127,-11.936 0.524,-14.49c0,0 7.836,-3.76 8.518,-4.087Z" style="fill:#fcaf9b;"/><path d="M228.73,510.346c0.066,1.978 0.133,3.957 0.199,5.935c-9.388,-1.176 -8.504,2.894 -17.581,5.047c-2.342,-5.609 -5.875,-5.876 -2.368,-9.712c1.026,-1.122 1.236,-0.618 7.332,-0.873c6.23,-0.261 6.075,-0.194 12.418,-0.397Z" style="fill:#d5a593;"/><path d="M309.061,226.858c-16.618,-5.27 -1.355,-18.713 4.681,-10.895c5.21,6.748 -3.806,10.528 -4.681,10.895Z" style="fill:#fafafa;"/><path d="M200.884,534.002c0.959,1.666 1.918,3.331 2.878,4.997c-6.072,4.657 -6.274,4.174 -11.357,9.91c-1.281,1.763 -2.562,3.526 -3.843,5.29c-2.465,-3.2 -5.09,-6.037 12.323,-20.197Z" style="fill:#7a493f;"/><path d="M462.079,358.783c0.607,-0.589 6.966,-6.754 9.429,-4.775c2.619,2.105 0.465,2.533 -2.2,7.053c-1.584,2.688 1.818,9.564 -2.543,9.703c-7.384,0.236 -4.908,-10.976 -4.686,-11.981Z" style="fill:#f3af87;"/><path d="M293.912,489.97c3.572,6.805 1.177,7.116 -4.321,12.268c-4.848,4.543 -5.042,0.214 -7.774,-5.67c5.079,-4.954 5.169,-4.852 12.095,-6.598Z" style="fill:#c27467;"/><path d="M443.262,725.474c0.006,1.039 1.462,3.457 -9.294,5.221c-0.72,0.118 -7.695,1.262 -8.958,-1.685c-4.149,-9.681 17.702,-3.614 18.252,-3.536Z" style="fill:#eebda3;"/><path d="M429.1,353.375c18.762,-3.251 6.372,10.704 2.752,9.625c-8.011,-2.388 -3.223,-8.977 -2.752,-9.625Z" style="fill:#fdfdfd;"/><path d="M216.285,526.412c5.346,-5.729 6.109,-6.049 6.794,-6.337c0.034,-0.014 5.116,0.835 -1.873,8.773c-9.136,10.377 -10.904,5.54 -11.82,5.179c3.322,-4.028 3.04,-4.045 6.899,-7.615Z" style="fill:#e2cfc8;"/><path d="M351.658,503.957c4.848,-1.668 7.189,-2.744 6.967,2.342c-0.184,4.211 1.186,3.756 1.425,7.715c0.209,3.469 -5.317,-0.195 -5.698,-0.448c-10.021,-6.645 -3.204,-8.66 -2.694,-9.609Z" style="fill:#e4cac2;"/><path d="M417.172,531.496c-0.702,0.49 -7.704,5.376 -10.38,-2.624c-1.276,-3.816 6.45,-12.155 10.38,2.624Z" style="fill:#e7ccbd;"/><path d="M345.345,519.426c5.451,6.259 9.149,9.04 1.388,12.289c-3.437,1.439 -3.312,0.145 -5.63,-2.662l0.502,-2.653c-0.057,-1.041 1.357,-1.804 1.3,-2.845c-0.019,-0.338 -0.212,-0.231 -2.86,-3.116c0.431,0.016 0.367,-0.122 5.3,-1.013Z" style="fill:#814744;"/><path d="M278.717,526.59c0.875,0.325 0.648,0.409 1.688,0.796c7.797,2.896 6.667,4.969 8.37,6.238c-6.574,5.924 -10.259,1.094 -12.308,0.294c1.268,-3.207 2.107,-6.732 2.249,-7.328Z" style="fill:#7f4c46;"/><path d="M148.66,376.651c-10.342,0.304 -7.301,-4.319 -6.699,-4.558c1.272,-0.504 12.292,-1.791 13.667,-0.453c3.088,3.006 -6.295,4.876 -6.968,5.01Z" style="fill:#edc94f;"/><path d="M421.068,537.01l4.731,7.717c3.381,5.635 3.36,6.149 3.337,6.751c-0.323,8.236 -8.911,-7.083 -9.392,-7.942c-2.843,-5.071 1.307,-6.49 1.325,-6.526Z" style="fill:#bd9f93;"/><path d="M396.387,536.47c2.856,4.384 2.991,4.292 3.084,4.735c1.475,7.014 7.206,7.331 2.234,12.582c-7.078,-5.885 -3.232,-8.591 -9.956,-15.039c0.764,-0.358 1.653,1.107 2.417,0.749c0.272,-0.127 0.165,-0.224 2.221,-3.027Z" style="fill:#c6aa9f;"/><path d="M387.642,526.497c4.507,-3.878 8.317,9.095 8.745,9.973c-2.056,2.803 -1.949,2.9 -2.221,3.027c-0.764,0.358 -1.653,-1.107 -2.417,-0.749c-4.378,-5.166 -2.981,-5.655 -4.108,-12.251Z" style="fill:#dccac0;"/><path d="M273.779,521.489c1.148,1.295 2.296,2.59 3.444,3.885c-5.765,4.401 -5.716,8.431 -11.843,4.367c-0.785,-0.521 -3.486,-3.502 8.398,-8.252Z" style="fill:#8c615d;"/><path d="M557.69,391.01c3.214,0.409 2.978,0.302 3.214,0.409c1.654,0.752 0.908,1.533 2.409,2.215c0.759,11.382 -0.03,11.293 -2.167,15.14c-1.245,-7.353 -3.074,-16.18 -3.457,-17.765Z" style="fill:#b9d4e7;"/><path d="M203.761,538.999c1.48,1.583 2.962,2.088 -0.073,4.899c-7.84,7.262 -8.781,5.609 -11.284,5.011c5.083,-5.736 5.285,-5.253 11.357,-9.91Z" style="fill:#d6b19e;"/><path d="M208.088,448.823c1.666,4.861 1.665,4.809 1.076,9.822c-2.381,-0.643 -15.692,-2.919 -1.076,-9.822Z" style="fill:#aa827d;"/><path d="M191.321,498.991c-3.131,3.262 -3.277,2.816 -7.187,5.354c-1.161,-4.339 -1.099,-4.33 -1.254,-4.686c-4.738,-10.877 7.906,-1.083 8.441,-0.668Z" style="fill:#b18988;"/><path d="M173.704,408.656c5.503,1.316 5.255,1.622 10.064,4.924c-1.747,1.069 -2.216,0.216 -3.129,1.916c-2.498,4.65 -7.526,3.933 -7.278,0.726c0.299,-3.865 0.167,-3.685 0.344,-7.565Z" style="fill:#a27f7b;"/><path d="M108.91,486.038c0.439,-0.099 18.324,-7.376 5.182,7.554c-3.044,-3.632 -3.113,-3.332 -5.182,-7.554Z" style="fill:#9d726e;"/><path d="M369.767,531.46c-11.398,0.355 -8.362,-4.32 -7.874,-4.878c5.185,-5.925 9.006,-2.94 7.874,4.878Z" style="fill:#6c3733;"/><path d="M125.589,413.205c7.191,9.253 1.388,9.662 0.674,9.416c-0.571,-0.197 -0.41,-0.381 -5.532,-5.145c2.319,-2.577 2.203,-2.324 4.858,-4.271Z" style="fill:#a98483;"/><path d="M198.739,523.918c-0.01,-0.94 -1.209,-1.603 -1.219,-2.543c-0.022,-1.991 3.501,-4.748 6.043,-2.239c2.242,2.212 3.821,13.233 -4.824,4.782Z" style="fill:#eeb856;"/><path d="M163.944,510.853c-2.658,0.647 -5.316,1.293 -7.974,1.94c1.55,-7.661 2.356,-7.975 3.009,-8.23c5.063,-1.976 4.24,1.063 4.965,6.29Z" style="fill:#9c6765;"/><path d="M205.202,478.123c-1.236,2.763 -2.472,5.526 -3.708,8.289c-0.539,-0.704 0.602,-1.954 0.064,-2.658c-1.917,-2.506 -3.402,-0.027 -5.231,-2.489c-3.229,-4.346 2.525,-5.189 8.875,-3.143Z" style="fill:#a27270;"/><path d="M108.706,431.276c0.466,0.561 11.488,13.819 -0.01,9.12c-0.262,-0.107 -0.307,-0.49 -0.53,-0.665c-2.699,-2.117 -2.796,-2.132 -3.095,-2.178c-1.201,-0.185 0.425,1.767 -0.76,1.585c1.539,-4.331 1.645,-3.99 4.394,-7.862Z" style="fill:#a28084;"/><path d="M128.796,505.749c0.387,-0.482 13.504,-14.363 6.826,3.619c-2.275,-1.206 -4.55,-2.413 -6.826,-3.619Z" style="fill:#a67d77;"/><path d="M114.402,532.862c-4.166,-14.131 6.63,-8.435 6.376,-6.452c-0.328,2.559 -1.065,2.089 -6.376,6.452Z" style="fill:#efb85b;"/><path d="M527.286,559.099c-0.202,1.871 -0.404,3.741 -0.606,5.612c-0.701,0.091 -45.293,1.871 -7.806,-4.13c3.921,-0.628 3.819,0.002 8.411,-1.481Z" style="fill:#d5b098;"/><path d="M196.697,426.112c2.906,2.119 2.839,1.932 4.38,5.315c-14.584,9.354 -4.722,-4.883 -4.38,-5.315Z" style="fill:#a37c77;"/><path d="M101.619,466.256c3.504,-4.629 2.916,-9.039 7.164,-5.235c0.599,0.536 3.22,2.884 -6.529,7.641l-0.635,-2.406Z" style="fill:#a07e7d;"/><path d="M346.663,515.865l-1.318,3.561c-4.933,0.891 -4.869,1.029 -5.3,1.013c-0.186,-0.731 -1.756,-0.431 -1.943,-1.163c-1.079,-4.233 7.827,-3.473 8.561,-3.41Z" style="fill:#c9aea7;"/><path d="M318.597,511.636c2.865,-1.198 2.921,-2.36 5.695,-0.654c1.8,1.107 2.191,0.881 2.057,2.82c-0.044,0.642 -0.762,3.441 -7.752,-2.166Z" style="fill:#90574b;"/><path d="M331.297,509.159c5.182,-1.636 9.009,-5.268 7.359,-0.185c-0.157,0.483 -0.315,0.349 -4.252,4.708c-1.036,-1.508 -2.071,-3.015 -3.107,-4.523Z" style="fill:#af5f54;"/><path d="M78.217,376.22c-4.002,1.446 -5.888,3.938 -6.269,-0.331c-0.045,-0.5 0.794,-8.756 6.269,0.331Z" style="fill:#c99651;"/><path d="M316.493,256.105c-2.043,-2.275 -4.005,-2.358 -1.843,-4.538c0.276,-0.278 8.405,-2.643 1.843,4.538Z" style="fill:#fbfbfb;"/><path d="M224.065,366.447c-7.88,-1.601 -2.959,-4.426 -2.555,-4.525c3.28,-0.797 2.069,1.094 2.555,4.525Z" style="fill:#cd9a46;"/><path d="M106.311,404.139c-5.838,5.035 -5.373,-0.073 -5.196,-0.451c1.074,-2.299 2.315,-2.191 2.584,-2.168c2.014,0.175 0.464,2.433 2.613,2.619Z" style="fill:#ac816d;"/><path d="M193.223,395.112c5.545,1.172 5.556,3.02 5.559,3.548c0.028,4.949 -1.914,0.007 -5.559,-3.548Z" style="fill:#9a6656;"/><path d="M336.479,526.319c1.447,-0.731 1.119,-1.077 2.763,-1.397c1.557,-0.303 1.052,0.658 2.362,1.477l-0.502,2.653c-0.982,-1.334 -1.148,-1.052 -4.623,-2.734Z" style="fill:#c7a698;"/></g></svg>