<?xml version="1.0" encoding="UTF-8" standalone="no"?><!DOCTYPE svg PUBLIC "-//W3C//DTD SVG 1.1//EN" "http://www.w3.org/Graphics/SVG/1.1/DTD/svg11.dtd"><svg width="100%" height="100%" viewBox="0 0 1024 1024" version="1.1" xmlns="http://www.w3.org/2000/svg" xmlns:xlink="http://www.w3.org/1999/xlink" xml:space="preserve" xmlns:serif="http://www.serif.com/" style="fill-rule:evenodd;clip-rule:evenodd;stroke-linejoin:round;stroke-miterlimit:2;"><g id="Background"><path d="M755.726,435.52c-3.296,86.787 -57.737,83.809 -52.373,95.143c23.637,49.944 3.298,72.949 10.262,79.234c20.652,18.639 19.463,21.344 20.555,43.823c0.226,4.642 30.725,27.443 16.056,77.73c-10.632,36.448 -42.379,49.858 -47.21,51.899c-6.897,2.914 7.91,2.044 44.25,95.981c1.697,4.387 18.712,48.369 17.546,56.669c-2.624,18.671 -85.871,60.721 -125.085,71.388c-48.524,13.2 -155.898,38.909 -287.077,-23.473c-8.887,-4.226 -69.908,-38.175 -74.134,-51.105c-3.206,-9.812 26.698,-93.982 45.556,-126.182c18.171,-31.026 27.301,-54.329 77.967,-101.855c10.711,-10.048 13.457,-8.653 13.078,-16.409c-1.605,-32.871 -1.697,-45.786 -6.381,-45.008c-10.89,1.808 -10.587,3.096 -21.6,4.173c-3.279,0.321 -64.125,50.714 -97.794,0.688c-23.372,-34.726 8.027,-94.512 11.667,-101.442c10.72,-20.411 21.212,-35.145 20.043,-38.653c-10.425,-31.284 -9.499,-33.057 -11.894,-32.986c-10.551,0.316 -44.742,8.802 -49.517,-18.719c-4.82,-27.784 26.069,-33.45 26.568,-34.626c0.539,-1.273 -0.301,-23.435 17.082,-20.223c14.327,2.648 20.913,7.398 29.1,-17.952c3.074,-9.517 -26.373,-21.193 -15.329,-63.905c4.252,-16.446 15.538,-20.735 15.644,-27.951c0.578,-39.652 3.705,-78.54 34.977,-128.767c30.933,-49.684 69.783,-61.175 70.307,-66.934c0.464,-5.091 -12.191,-59.945 -7.652,-67.653c7.463,-12.676 47.338,36.345 51.047,32.083c5.612,-6.449 24.896,-59.792 34.11,-60.471c6.413,-0.473 8.77,8.982 15.141,20.985c18.492,34.835 18.278,41.359 22.093,38.028c41.481,-36.217 45.027,-42.792 49.612,-32.45c3.603,8.129 -9.795,65.25 -7.115,69.16c2.793,4.074 84.746,31.453 105.987,147.621c6.208,33.953 0.38,48.11 7.236,54.357c17.673,16.104 22.85,51.613 1.137,76.16c-2.245,2.538 0.653,33.247 14.016,40.283c10.59,5.576 17.087,0.414 22.91,2.104c10.389,3.015 8.87,12.516 9.215,19.253Z" style="fill:#643430;"/><path d="M429.241,710.393c0.812,0.566 7.276,5.077 10.186,6.991c-1.067,1.256 -48.395,50.666 -67.077,126.813c-0.096,0.39 -0.717,11.443 4.062,1.457c1.73,-3.614 20.55,-53.455 38.418,-70.234c6.517,-6.357 36.779,-40.105 46.816,-20.808c1.895,3.643 -0.193,4.292 1.358,8.212c0.418,1.058 1.986,0.946 2.404,2.004c-4.243,4.814 -29.607,75.514 -36.056,147.066c-0.741,8.222 -5.122,38.77 0.831,37.422c3.843,-0.87 9.309,-90.051 43.867,-174.077c3.324,-8.082 2.385,-8.573 6.814,-15.884c24.151,26.487 21.018,32.19 63.868,56.527c6.447,3.662 15.703,6.644 17.101,7.094c15.671,5.048 15.534,5.943 20.242,5.5c9.374,10.865 24.891,97.111 26.444,105.744c0.711,3.952 2.204,3.004 2.219,3.013c0.389,-0.41 0.777,-0.821 1.166,-1.231c-2.257,-54.516 -13.848,-100.9 -14.281,-103.891c14.31,1.9 37.027,2.335 55.129,-3.576c4.423,8.295 6.038,15.162 8.811,14.708c1.11,-0.181 2.166,-0.956 -2.125,-16.609c3.115,1.906 6.41,3.923 19.219,47.109c13.762,46.403 19.529,86.648 20.631,94.338c-88.646,48.746 -252.913,72.365 -393.154,-28.043c6.17,-15.424 21.269,-103.594 84.928,-186.202c17.941,-23.282 18.593,-22.225 38.18,-43.443Z" style="fill:#f483a1;"/><path d="M668.482,290.024c3.195,36.831 1.898,67.283 -16.618,112.959l-2.088,-1.64l-1.443,2.08c-32.922,52.306 -98.699,75.187 -112.977,66.362c13.248,-19.857 -6.145,-28.678 1.778,-30.973c1.94,-0.562 3.935,-0.834 5.872,-1.411c33.78,-10.05 36.624,-56.148 31.968,-69.577c-5.722,-16.505 -15.606,2.952 -45.004,2.525c-23.049,-0.335 -47.101,-27.902 -47.482,11.471c-0.114,11.792 5.318,17.048 -4.475,19.011c-9.156,1.836 -15.629,9.324 -16.21,9.792c-7.058,5.698 -26.591,-5.298 -22.664,21.419c0.751,5.111 -2.342,2.85 -17.543,-2.934c-1.513,-6.388 -1.682,-6.359 -5.89,-10.574c-12.318,-12.336 -14.329,-10.081 -33.802,-43.644l-1.075,-1.732l-0.628,-1.732l-0.567,-1.732l-1.205,0.085l-1.589,-0.02c-6.938,-29.283 -7.745,-37.665 -7.131,-65.895l1.503,-0.707l1.443,0.137c6.677,-0.359 24.803,2.156 67.75,-11.936c10.565,-3.467 57.07,-24.253 84.969,-58.814c7.456,-9.237 13.062,-19.334 14.201,-17.928c5.598,6.907 8.632,26.643 54.066,57.722c10.958,7.496 36.971,18.783 50.328,19.953c24.676,2.162 24.186,-2.052 24.513,-2.265Z" style="fill:#f7d4ab;"/><path d="M588.887,128.952c1.288,-7.806 1.003,-7.707 2.259,-15.464c0.885,-5.463 2.735,-2.967 6.847,-0.603c20.563,11.821 54.396,31.808 78.221,88.499c18.026,42.893 17.24,86.649 15.283,88.015c-0.491,0.342 -10.654,-0.468 -11.619,-2.635c-1.416,-3.18 -0.478,-12.686 -7.035,-13.78c-18.25,-3.046 -37.423,-2.324 -77.792,-35.155c-30.487,-24.794 -44.457,-60.651 -46.928,-66.994c-9.1,-23.356 -15.694,7.488 -33.055,28.525c-66.204,80.221 -149.334,71.983 -152.922,76.27c-3.288,3.928 -0.781,12.201 -5.255,13.141c-10.28,2.161 -13.007,3.317 -12.951,-3.955c0.011,-1.389 0.042,-5.506 1.034,-17.318c0.767,-0.712 2.131,0.408 2.898,-0.304c0.172,-0.16 2.025,-10.731 2.189,-11.667c2.463,-14.054 21.903,-92.138 93.682,-124.821c2.008,8.272 2.497,10.275 28.6,16.677c52.526,12.883 111.684,-3.427 115.534,-14.897c0.388,-1.156 0.624,-2.38 1.012,-3.537Z" style="fill:#b76858;"/><path d="M570.331,588.584c9.093,-2.326 103.306,-0.412 135.335,26.052c19.229,15.888 17.298,26.881 15.849,37.293c-1.051,7.547 -14.85,10.87 -14.027,33.016c0.312,8.411 0.404,8.45 0.214,8.777c-0.631,1.086 -1.443,1.189 -1.592,1.207c-0.996,0.125 -0.645,-0.926 -1.579,-0.808c-22.564,-6.645 -34.017,-2.176 -55.644,22.721c-0.873,-0.25 -1.123,-1.921 -1.996,-2.171c-2.297,-0.657 -2.178,0.07 -10.082,1.62c-19.095,3.744 -69.635,7.307 -101.052,-7.121c-2.433,-1.195 -2.271,-1.496 -4.334,-1.742c-9.265,-1.108 0.053,7.415 0.834,8.695l1.194,1.732l0.861,1.468l0.631,1.996l-0.892,1.732l0.481,1.732l-1.663,0.132l-1.443,0.996l-1.41,2.149c-5.745,-1.892 -5.665,-1.833 -11.626,-2.832c-14.266,-2.39 -13.605,-4.733 -27.377,-9.814l-1.95,2.932c-2.029,-3.309 -14.6,-23.807 -19.919,-45.452c-8.694,-35.376 -5.358,-51.233 29.243,-67.174c27.441,-12.643 62.797,-14.269 71.948,-17.137Z" style="fill:#f9f8f5;"/><path d="M569.742,592.356c1.014,-0.504 0.954,0.86 1.954,0.364c0.71,-0.352 -0.47,-0.891 0.096,-1.381c0.4,-0.347 0.987,0.039 1.479,0.015c7.662,-0.379 8.019,0.276 14.112,9.012c1.737,4.822 1.245,4.9 2.204,9.942c1.042,5.478 2.802,1.547 7.04,-0.714c1.032,-0.551 12.689,-3.576 20.874,5.021c9.584,10.066 11.785,-6.224 23.592,-0.616c6.732,3.198 7.293,1.767 11.877,-4.833c8.004,-8.207 12.132,-5.053 17.934,3.466c1.68,5.663 1.452,5.618 2.49,11.571c0.672,3.856 4.845,4.302 6.095,6.057c3.84,5.387 3.065,5.839 3.399,6.284c2.229,2.977 20.058,-12.056 27.161,10.441c0.541,0.882 -0.05,2.349 0.49,3.23c0.939,1.532 2.668,-1.293 2.814,-1.532c4.839,-7.907 3.289,1.458 3.176,1.766c-19.741,53.924 -231.882,53.731 -246.932,-3.562c3.96,-3.11 10.99,13.785 14.506,0.157c5.966,-23.124 23.221,-15.023 31.201,-21.421c11.916,-9.554 11.261,-15.163 33.454,-12.033c1.018,0.144 1.77,1.226 10.352,-9.744c5.372,-5.844 4.829,-6.431 10.63,-11.488Z" style="fill:#673d25;"/><path d="M336.802,514.238c0.233,-0.462 0.935,-0.349 1.168,-0.811c1.276,-2.533 -6.701,-11.426 -9.61,-20.955c-17.981,-58.9 34.633,-97.345 48.547,-86.244c8.746,6.978 -5.612,8.747 -15.412,16.173c-8.02,6.078 -14.483,18.822 -14.753,20.064c-2.293,10.54 10.438,-5.379 13.356,-7.879c19.229,-16.473 39.046,-14.317 36.373,-2.917c-0.451,1.924 -23.732,7.657 -30.789,21.313c-0.037,0.072 -2.297,9.852 6.586,2.64c2,-1.624 22.239,-18.055 28.813,-10.807c8.591,9.472 -2.912,13.183 -3.829,13.478c-16.492,5.32 -19.926,19.015 -13.152,15.026c1.534,-0.903 2.986,-2.005 4.536,-2.866c20.46,-11.372 15.967,5.051 15.524,6.539c-3.65,12.244 -4.552,11.716 -7.498,24.188c-6.163,26.089 -24.25,22.732 -29.117,25.108c-1.817,0.515 -1.644,0.927 -3.562,1.009c-3.961,0.17 1.514,18.076 -14.844,69.093c-3.994,12.456 -16.984,35.53 -27.276,41.06c-8.804,4.73 -17.027,2.832 -18.488,2.494l-1.443,-0.259l-2.008,1.019c-0.456,-0.668 -0.912,-1.336 -1.367,-2.005c1.146,-2.43 1.758,-1.76 2.865,-4.107c0.052,-0.11 0.089,-0.19 -0.195,-1.558c-1.144,-5.512 -6.085,-29.309 14.376,-68.873c15.459,-29.893 14.265,-30.548 15.621,-33.121c4.072,-7.728 3.127,-8.1 5.58,-16.8Z" style="fill:#f6d2a9;"/><path d="M576.142,582.348c-12.971,1.22 -83.162,5.048 -110.526,39.193c-7.979,9.956 -13.118,18.279 -4.98,54.764c7.572,33.948 19.688,48.108 10.375,42.554c-19.146,-11.418 -41.677,-21.001 -42.627,-28.6c-0.121,-0.964 -5.17,-50.277 -3.913,-53.897c1.626,-4.684 17.304,-9.001 27.094,-46.84c9.861,-38.116 -2.975,-76.91 -5.025,-83.106c-0.119,-0.361 -1.269,-3.835 1.327,-4.582c0.96,-0.277 11.771,-3.39 12.341,-0.234c0.297,1.644 -5.966,45.455 10.68,36.313c0.811,-0.445 5.607,-5.402 6.762,-3.278c3.172,5.836 5.944,18.992 16.271,23.784c14.154,6.568 24.963,14.319 54.877,7.288c8.013,-1.883 36.36,-14.688 40.493,-50.491c1.322,-11.448 -1.169,-15.783 4.25,-14.504c1.004,0.237 11.524,2.719 11.881,5.701c0.512,4.276 5.102,55.718 7.349,65.804c1.343,6.027 4.844,9.018 -0.351,9.51c-2.893,0.274 -2.773,-1.212 -36.275,0.621Z" style="fill:#eb7195;"/><path d="M521.563,30.055c1.77,3.638 19.803,40.707 23.239,44.671c9.747,11.246 47.836,-43.004 45.135,-27.285c-6.5,37.835 -6.483,44.627 -11.458,76.158c-1.77,11.22 -63.702,20.841 -104.793,10.539c-12.51,-3.137 -16.617,0.851 -19.52,-14.156c3.719,-1.323 3.753,-0.723 7.51,-2.012c0.51,-8.335 -5.068,-24.261 -6.936,-46.209c-1.336,-15.695 7.772,-0.82 10.181,0.232c3.538,1.544 2.592,3.139 5.917,4.884c9.843,5.167 10.738,11.151 18.708,11.031c8.435,-0.127 21.596,-47.703 32.017,-57.852Z" style="fill:#f2c04c;"/><path d="M641.056,791.943c17.598,-5.094 17.225,-6.499 18.765,-6.863c2.441,-0.578 7.94,1.851 11.586,2.278c7.365,0.863 7.281,0.135 14.578,0.829c4.412,0.42 20.313,32.077 25.176,41.087c14.198,26.308 41.006,97.131 40.165,103.475c-1.037,7.818 -47.676,32.979 -52.039,35.332c-1.102,-7.69 -6.868,-47.935 -20.631,-94.338c-12.808,-43.186 -16.104,-45.203 -19.219,-47.109c-0.883,-2.756 -7.301,-22.785 -13.991,-32.864l-1.443,-0.655c-0.982,-0.391 -1.965,-0.782 -2.947,-1.173Z" style="fill:#e8658e;"/><path d="M684.645,387.635c-0.788,10.224 -8.166,53.185 22.979,66.538c14.689,6.298 35.173,-15.08 35.514,-15.319c3.69,29.379 -22.176,70.518 -48.692,75.889c-5.978,1.211 -31.256,-42.628 -80.681,-25.284c-3.344,1.174 -19.576,-1.229 -14.244,-5.009c35.399,-25.095 36.007,-25.571 62.538,-73.783c1.225,-2.226 1.069,-2.239 8.38,-21.604c1.391,-3.684 8.93,-2.13 14.205,-1.428Z" style="fill:#704338;"/><path d="M668.482,290.024c-0.327,0.213 0.163,4.427 -24.513,2.265c-13.357,-1.17 -39.37,-12.458 -50.328,-19.953c-45.434,-31.079 -48.468,-50.815 -54.066,-57.722c-1.14,-1.406 -6.745,8.691 -14.201,17.928c-27.899,34.561 -74.404,55.348 -84.969,58.814c-42.947,14.092 -61.073,11.577 -67.75,11.936l-1.443,-0.137l-1.503,0.707c0.061,-1.258 0.723,-14.8 1.423,-15.661c2.132,-2.622 40.544,0.35 89.295,-26.594c57.333,-31.688 78.226,-77.631 79.682,-77.498c0.764,0.07 16.362,38.556 48.559,65.184c53.579,44.314 77.309,29.684 79.814,40.73Z" style="fill:#f2b191;"/><path d="M535.755,709.171c31.418,14.428 81.958,10.865 101.052,7.121c7.904,-1.55 7.785,-2.277 10.082,-1.62c0.873,0.25 1.123,1.921 1.996,2.171c-11.653,18.47 -14.09,28.292 -9.579,46.15c-6.239,2.315 -6.204,2.195 -12.645,2.758c-60.238,5.264 -84.09,-7.317 -115.367,-27.302c-0.447,-0.361 -5.435,-4.389 -5.908,-3.869c0,0 -1.484,4.025 -1.613,4.375c-7.484,-10.262 -7.721,-9.898 -14.715,-20.609l1.95,-2.932c13.772,5.08 13.11,7.424 27.377,9.814c5.962,0.999 5.881,0.94 11.626,2.832c6.421,3.269 6.296,3.407 11.427,9.21c3.994,4.517 10.935,-2.363 20.381,3.709c1.459,-0.734 2.999,-1.218 4.457,-1.952c5.365,-2.699 -8.276,-9.617 -9.194,-10.082c-2.096,-1.063 -28.191,-14.297 -22.805,-20.395c0.379,-0.429 1.097,1.049 1.476,0.619Z" style="fill:#d7d6d5;"/><path d="M439.427,717.384c2.71,1.359 2.62,1.19 5.237,2.627c40.045,21.987 40.19,21.456 43.595,23.547c-0.123,0.332 -6.544,13.661 -7.396,15.798c-4.429,7.311 -3.49,7.802 -6.814,15.884c-34.559,84.026 -40.025,173.207 -43.867,174.077c-5.953,1.348 -1.572,-29.2 -0.831,-37.422c6.449,-71.552 31.813,-142.252 36.056,-147.066c-0.418,-1.058 -1.986,-0.946 -2.404,-2.004c-1.551,-3.921 0.537,-4.569 -1.358,-8.212c-10.037,-19.296 -40.3,14.452 -46.816,20.808c-17.868,16.78 -36.688,66.62 -38.418,70.234c-4.779,9.986 -4.157,-1.067 -4.062,-1.457c18.683,-76.148 66.01,-125.557 67.077,-126.813Z" style="fill:#dd5a81;"/><path d="M653.557,731.345c1.775,-2.774 13.771,-21.529 29.366,-25.87c26.99,-7.512 35.909,15.585 36.153,15.605c5.086,0.418 -3.122,-11.086 -0.32,-13.983c4.439,-4.59 0.656,-5.695 -1.231,-16.936c-3.118,-18.577 9.132,-32.896 19.743,-8.333c15.145,35.061 -9.599,65.411 -10.245,66.429l-2.193,-3.283c-26.32,16.662 -56.142,12.544 -68.096,-9.604c-1.261,-2.336 -1.492,-1.891 -3.176,-4.025Z" style="fill:#f5cea4;"/><path d="M429.241,710.393c-19.587,21.218 -20.239,20.161 -38.18,43.443c-63.659,82.608 -78.758,170.779 -84.928,186.202c-13.505,-9.18 -15.62,-9.848 -13.517,-18.026c32.278,-125.504 97.602,-187.468 110.109,-199.332c16.324,-15.484 17.381,-17.363 26.516,-12.288Z" style="fill:#f4b5cc;"/><path d="M625.044,500.753c2.011,4.538 1.866,4.623 7.179,9.647c0.601,4.29 0.553,4.275 0.649,4.633c3.432,12.862 3.416,12.75 5.879,26.016c6.858,36.927 32.63,38.799 47.298,31.409c6.28,-29.963 -19.61,-52.475 -28.044,-64.192l0.781,-2.558c1.972,1.065 25.055,9.043 38.812,45.756c6.587,17.577 5.918,51.379 -0.122,49.768c-10.286,-2.744 -9.312,-7.083 -51.995,-15.328c-12.333,-2.382 -16.619,2.65 -19.901,-11.911c-1.065,-4.724 -8.823,-68.313 -7.332,-70.696c0.79,-1.263 6.235,-2.424 6.795,-2.544Z" style="fill:#ea6890;"/><path d="M367.546,526.287c2.284,4.362 3.209,2.674 8.25,3.782c8.652,1.902 -20.959,93.549 -20.518,94.295c2.152,3.635 8.278,-8.797 13.62,-16.711c4.897,-7.257 13.346,24.037 13.14,24.969c-0.278,1.251 -54.131,46.559 -82.114,8.081l2.008,-1.019l1.443,0.259c1.462,0.337 9.684,2.236 18.488,-2.494c10.292,-5.53 23.282,-28.603 27.276,-41.06c16.358,-51.017 10.884,-68.923 14.844,-69.093c1.918,-0.082 1.745,-0.494 3.562,-1.009Z" style="fill:#f3b18a;"/><path d="M406.944,509.858c2.903,2.074 2.844,2.261 3.136,2.24c6.613,-0.477 6.524,-0.276 13.084,-0.554c5.868,0.158 5.778,0.329 11.686,0.136c2.639,7.658 2.591,7.55 4.513,15.56l-2.415,1.811l-0.134,1.732c-2.46,14.431 -7.289,50.841 -38.06,61.084c-3.656,1.217 -3.83,-0.151 -7.357,1.951c-4.721,2.814 -6.215,-1.298 -7.194,-0.293c-0.799,0.821 -0.841,2.415 -1.64,3.236c-7.996,-12.693 -3.047,-14.038 0.864,-29.34c3.999,-15.65 2.893,-15.784 6.133,-31.565c0.791,-3.852 2.826,-2.87 8.846,-10.533c6.176,-7.861 7.169,-12.205 8.539,-15.465Z" style="fill:#f1799f;"/><path d="M488.259,743.557c26.644,23.561 34.113,36.454 84.937,50.904l-0.168,1.341c5.439,17.255 7.923,16.311 9.047,32.674c-4.708,0.443 -4.571,-0.452 -20.242,-5.5c-1.398,-0.45 -10.654,-3.432 -17.101,-7.094c-42.851,-24.338 -39.717,-30.04 -63.868,-56.527c0.852,-2.137 7.272,-15.466 7.396,-15.798Z" style="fill:#df708d;"/><path d="M625.044,500.753c13.531,-2.076 17.723,-2.67 33.743,4.954l-0.781,2.558c8.434,11.717 34.324,34.229 28.044,64.192c-14.668,7.39 -40.44,5.518 -47.298,-31.409c-2.464,-13.266 -2.447,-13.153 -5.879,-26.016c-0.096,-0.358 -0.048,-0.343 -0.649,-4.633c-5.314,-5.024 -5.169,-5.109 -7.179,-9.647Z" style="fill:#f5aec4;"/><path d="M439.362,527.24c18.999,95.934 -42.605,106.005 -44.754,103.646c-1.823,-2.001 1.83,-3.955 -12.047,-34.124c0.799,-0.821 0.841,-2.415 1.64,-3.236c0.979,-1.005 2.473,3.106 7.194,0.293c3.526,-2.102 3.701,-0.734 7.357,-1.951c30.771,-10.244 35.6,-46.654 38.06,-61.084l0.134,-1.732l2.415,-1.811Z" style="fill:#e35c89;"/><path d="M567.494,601.796c5.755,-14.802 17.561,-4.735 18.185,10.409c0.745,18.115 12.024,-4.907 24.88,3.999c8.845,6.128 7.387,13.003 9.942,10.906c5.494,-4.509 5.362,-4.734 11.979,-6.145c8.668,8.847 11.811,7.021 12.84,20.505c-6.702,4.338 -9.147,1.578 -9.735,7.121c-0.571,5.39 0.672,20.972 -5.482,10c-2.571,-4.584 -1.647,-6.285 -6.235,-7.082c-8.785,-1.526 -2.287,-9.599 -7.126,-13.583c-1.612,-1.328 -18.143,-14.941 -24.374,2.128c-3.153,8.637 6.057,16.345 -1.768,14.851c-1.603,-0.306 0.532,-3.529 -15.476,-15.744c-0.128,-0.098 -1.978,-6.967 -4.652,-11.442c-3.715,-6.216 -14.595,-2.155 -18.362,-1.227c-0.701,-3.082 -0.676,-3.07 -0.757,-3.329c-0.356,-1.144 -0.869,-0.594 -1.252,-1.825c1.128,-1.821 1.192,-1.587 2.22,-3.584c3.39,-6.586 10.765,-9.566 15.174,-15.957Z" style="fill:#ea7326;"/><path d="M651.864,402.983c-35.986,83.221 -107.307,90.536 -126.22,89.834c-9.758,-0.362 -4.008,-11.123 -2.779,-12.066c6.557,-5.029 6.725,-4.501 12.489,-10.966c14.278,8.826 80.056,-14.056 112.977,-66.362l1.443,-2.08l2.088,1.64Z" style="fill:#f3b394;"/><path d="M684.645,387.635c0.666,-0.22 8.321,-2.755 8.321,-2.755c3.157,-1.137 4.469,-3.831 5.107,0.019c0.334,2.018 -0.718,14.429 10.139,32.682c10.66,17.923 34.071,11.156 35.063,14.608c0.473,1.646 0.183,1.659 -0.137,6.666c-0.341,0.239 -20.825,21.617 -35.514,15.319c-31.145,-13.353 -23.767,-56.314 -22.979,-66.538Z" style="fill:#955c46;"/><path d="M635.358,793.62c0.68,1.245 15.322,26.342 17.393,34.915c-18.101,5.911 -40.819,5.476 -55.129,3.576c-9.2,-33.784 -10.695,-32.941 -11.353,-34.297l-1.442,-2.035c9.316,0.769 18.111,2.469 50.531,-2.158Z" style="fill:#dc6f8e;"/><path d="M474.162,439.424c-0.567,-0.439 -5.768,-4.467 -4.322,-8.687c2.293,-6.691 3.83,-4.628 9.739,-4.774c7.244,-0.179 5.002,-14.054 31.613,-9.296c12.164,2.175 19.145,27.867 14.061,35.836c-8.215,12.877 -6.103,-9.824 -10.347,-21.817c-1.629,-4.603 -6.579,-4.9 -4.662,1.174c4.255,13.478 3.904,19.46 3.879,35.115c-3.13,3.751 -2.594,5.027 -7.066,5.415c-0.818,0.071 -6.427,0.557 -10.251,-0.412c5.748,-12.974 -13.066,-42.005 -6.162,-19.033c4.328,14.399 -4.031,18.813 -5.178,11.942c-0.37,-2.217 -0.586,-4.468 -0.929,-6.691c-1.591,-10.305 -1.846,-10.133 -5.803,-17.963c-1.717,-3.398 1.227,-6.888 -1.976,-5.855c-0.533,0.172 -0.758,-0.02 -2.596,5.046Z" style="fill:#f6c832;"/><path d="M443.741,130.71c-71.779,32.682 -91.218,110.767 -93.682,124.821c-0.164,0.936 -2.017,11.507 -2.189,11.667c-0.767,0.712 -2.131,-0.408 -2.898,0.304c6.134,-38.467 14.557,-102.57 85.824,-149.841c6.003,-3.982 10.585,-6.641 11.393,-0.937c0.993,7.006 0.763,6.875 1.552,13.986Z" style="fill:#d17966;"/><path d="M521.563,30.055c-10.42,10.149 -23.582,57.725 -32.017,57.852c-7.97,0.12 -8.865,-5.864 -18.708,-11.031c-3.325,-1.745 -2.38,-3.34 -5.917,-4.884c-2.409,-1.051 -11.517,-15.926 -10.181,-0.232c1.869,21.948 7.447,37.874 6.936,46.209c-3.757,1.289 -3.792,0.69 -7.51,2.012c-9.67,-56.07 -9.611,-56.082 -9.703,-56.813c-1.284,-10.231 -3.854,-18.456 2.185,-12.896c2.161,1.99 28.922,24.324 31.627,26.128c9.312,6.213 8.398,-2.664 35.316,-53.587c2.664,-5.04 3.802,-1.021 7.973,7.242Z" style="fill:#f4e2a6;"/><path d="M454.383,363.02c6.329,31.605 -63.026,25.139 -48.216,-1.77c5.805,-10.547 34.259,-21.688 48.216,1.77Z" style="fill:#f3b2a8;"/><path d="M653.557,731.345c1.684,2.134 1.915,1.689 3.176,4.025c11.954,22.148 41.776,26.265 68.096,9.604l2.193,3.283c-38.643,45.704 -95.275,23.925 -73.465,-16.912Z" style="fill:#f2b08c;"/><path d="M573.197,794.461c3.877,0.439 7.754,0.878 11.631,1.317l1.442,2.035c0.659,1.357 2.153,0.513 11.353,34.297c0.433,2.992 12.024,49.375 14.281,103.891c-0.389,0.41 -0.777,0.821 -1.166,1.231c-0.015,-0.009 -1.508,0.939 -2.219,-3.013c-1.553,-8.633 -17.07,-94.879 -26.444,-105.744c-1.124,-16.362 -3.607,-15.419 -9.047,-32.674l0.168,-1.341Z" style="fill:#da527b;"/><path d="M645.482,376.67c-25.637,21.515 -64.251,-6.539 -35.911,-23.757c15.272,-9.279 50.107,1.667 35.911,23.757Z" style="fill:#f3b3a9;"/><path d="M575.002,522.255c-4.272,9.615 -15.473,38.691 -61.011,29.977c-17.181,-3.288 -9.051,-12.796 -7.107,-12.51c5.727,0.841 6.648,3.391 10.392,-1.91c0.578,-2.7 0.585,-2.553 0.887,-5.409c0.713,-0.281 0.999,-1.473 1.712,-1.754c1.043,-0.411 11.957,-0.335 12.997,-0.328c13.939,0.097 39.307,-10.435 40.407,-9.808c0.678,0.386 1.044,1.356 1.723,1.742Z" style="fill:#f4cea8;"/><path d="M575.002,522.255c-0.678,-0.386 -1.044,-1.356 -1.723,-1.742c-1.1,-0.627 -26.468,9.905 -40.407,9.808c-1.04,-0.007 -11.954,-0.083 -12.997,0.328c-0.713,0.281 -0.999,1.473 -1.712,1.754l-1.586,-2.29c7.222,-7.627 6.799,-8.654 5.684,-20.093c-0.735,-7.541 11.113,1.829 51.068,-11.939c8.193,-2.823 2.122,22.31 1.672,24.173Z" style="fill:#eda58e;"/><path d="M503.774,738.956c0.129,-0.35 1.613,-4.375 1.613,-4.375c0.473,-0.521 5.461,3.508 5.908,3.869c-0.007,0.419 -3.077,1.145 -0.064,3.632c39.242,32.4 94.147,29.011 102.558,28.492c2.868,-0.177 5.739,-0.289 8.609,-0.438c16.387,-0.847 16.244,-3.64 17.973,-4.282c2.023,3.492 1.784,3.635 4.431,6.425c2.009,2.118 0.427,3.904 0.42,3.907c-31.8,10.28 -95.963,12.194 -141.447,-37.23Z" style="fill:#b1afaf;"/><path d="M559.112,603.844c-8.582,10.969 -9.334,9.887 -10.352,9.744c-22.193,-3.129 -21.537,2.48 -33.454,12.033c-7.98,6.398 -25.235,-1.703 -31.201,21.421c-3.516,13.628 -10.546,-3.267 -14.506,-0.157c-1.316,-21.837 23.758,-28.925 44.67,-37.62c8.868,-3.687 39.773,-10.108 41.69,-8.845c0.339,0.223 -0.195,1.157 0.144,1.381l1.299,0.672l1.71,1.371Z" style="fill:#eeebc3;"/><path d="M358.259,316c1.341,53.967 7.852,53.316 6.412,57.635c-0.111,0.334 -18.216,6.923 -32.644,-15.89c3.582,-3.632 3.508,-3.733 3.568,-5.263c0.282,-7.123 1.107,-6.947 0.379,-13.968l-0.02,-1.732l0.012,-1.732l0.406,-1.732l0.921,-1.732l0.722,-1.367c0.764,-0.202 1.528,-0.404 2.292,-0.607c2.912,-8.704 4.932,-10.125 15.028,-13.285l1.443,0.103l1.481,-0.43Z" style="fill:#f5bea1;"/><path d="M553.458,633.77c1.162,-0.802 13.367,-9.226 16.586,2.847c1.857,6.967 -13.033,3.073 -7.517,19.267c4.094,12.019 1.237,12.326 -4.18,23.533c-2.578,5.333 -15.435,0.114 -19.805,-0.76c-8.152,-1.63 -14.441,0.892 -10.298,-7.777c1.879,-3.931 6.287,-2.672 8.289,-8.718c7.005,-21.161 13.431,-15.493 15.587,-22.012c0.162,-0.489 0.621,-1.878 1.338,-6.38Z" style="fill:#f7bf23;"/><path d="M467.944,315.926c-15.31,-6.867 -20.962,4.182 -25.012,11.86c-6.838,12.964 -26.068,-6.358 -19.584,-13.255c2.87,-3.052 16.955,10.713 8.828,-2.236c-2.829,-4.507 -2.477,-14.233 4.939,-7.659c4.152,3.681 4.617,2.146 9.073,-0.934c24.216,-16.733 49.695,18.822 40.229,27.406c-7.186,6.518 -7.011,-6.853 -18.473,-15.182Z" style="fill:#59342c;"/><path d="M584.739,315.777c-13.036,9.594 -9.791,22.228 -18.817,16.032c-8.445,-5.797 11.808,-44.55 39.271,-28.325c4.879,2.883 5.357,3.973 9.857,0.232c5.464,-4.543 7.75,2.726 4.207,8.684c-7.028,11.821 4.9,0.148 8.734,2.189c7.142,3.802 -9.54,27.505 -19.196,12.36c-7.698,-12.075 -13.728,-15.128 -24.056,-11.172Z" style="fill:#5d372f;"/><path d="M499.788,404.434c11.139,-9.393 42.463,-10.55 57.434,7.035c8.031,9.433 -24.479,26.294 -28.007,18.185c-8.328,-19.14 -10.431,-17.906 -28.066,-21.99c-0.454,-1.077 -0.907,-2.153 -1.361,-3.23Z" style="fill:#e89;"/><path d="M681.482,314.27c-0.169,-9.377 -1.813,-14.575 5.876,-12.416c42.845,12.031 22.803,75.99 -10.255,71.813c-1.658,-0.21 -1.839,-1.874 -1.866,-2.118c0,-0 1.445,-8.205 1.571,-8.919c4.407,-1.575 4.272,-1.777 4.651,-1.899c2.327,-0.748 21.575,-6.937 17.727,-29.221c-3.071,-17.786 -16.454,-16.85 -17.704,-17.239Z" style="fill:#f5d8b4;"/><path d="M319.427,440.916c-2.244,9.408 -2.516,9.188 -3.799,19.004c-0.374,2.864 -0.81,6.196 -29.559,7.429c-13.149,0.564 -23.345,-10.971 -15.885,-24.901c13.194,3.755 35.681,-3.122 49.243,-1.532Z" style="fill:#9c9d9f;"/><path d="M336.802,514.238c-2.452,8.7 -1.507,9.072 -5.58,16.8c-1.356,2.573 -0.162,3.228 -15.621,33.121c-20.46,39.564 -15.52,63.362 -14.376,68.873c0.284,1.368 0.246,1.448 0.195,1.558c-1.106,2.347 -1.719,1.676 -2.865,4.107c-2.754,-5.192 -15.435,-29.102 8.326,-76.282c24.173,-47.997 25.916,-48.051 29.92,-48.177Z" style="fill:#f8eedd;"/><path d="M508.584,477.734c-0.05,0.536 -0.533,5.71 0.995,6.634c1.952,1.18 5.412,-0.203 5.47,3.144c0.479,27.617 6.475,32.628 -2.344,34.886c-1.073,-0.647 -2.146,-1.295 -3.219,-1.942c-4.143,-20.055 -7.384,2.543 -7.492,3.299c-2.272,15.839 -2.92,30.676 -9.245,26.967c-3.95,-2.317 -2.892,-8.589 -2.761,-9.369c8.668,-24.068 5.384,-38.628 9.275,-59.159l-1.118,-2.189c5.155,-1.905 5.073,-1.676 10.438,-2.27Z" style="fill:#efc736;"/><path d="M609.922,661.864c-3.699,-12.024 -3.927,-12.05 -4.821,-12.149c-4.668,-0.52 -1.13,7.496 3.422,19.268l-0.604,2.936c1.156,2.067 1.355,1.9 1.448,4.364c0.167,4.428 0.769,4.088 2.814,7.935c-18.987,0.761 -26.307,2.069 -26.22,-2.731c0.004,-0.226 2.275,-19.949 9.015,-22.333c6.332,-2.24 0.563,-4.468 -0.052,-7.116c-3.789,-16.329 22.62,-21.796 20.714,1.778c-0.639,7.901 -5.012,8.028 -5.717,8.049Z" style="fill:#f4b920;"/><path d="M634.837,618.404c8.536,-2.902 10.542,8.459 15.883,1.881c2.028,-2.497 9.006,-16.642 15.784,-5.878c1.377,2.187 1.948,5.906 2.031,6.449c1.611,10.506 -2.328,8.415 -2.978,8.768c-0.29,-0.422 -3.194,-4.645 -4.209,-4.622c-0.602,0.014 -6.888,3.414 2.889,8.349c4.466,0.7 4.307,-1.685 8.704,-1.024c7.734,1.161 2.825,10.321 7.379,15.1c-1.439,1.987 -1.24,2.041 -2.668,3.988c-7.141,-3.251 -7.279,-1.426 -13.386,-0.581c-2.39,0.331 -4.558,-4.345 -5.909,-5.583c-2.052,-1.879 -9.136,-3.685 -9.955,-3.893c-0.739,-12.429 -0.755,-13.699 -10.136,-19.304c-0,0 -3.152,-3.358 -3.427,-3.65Z" style="fill:#f3ba29;"/><path d="M681.482,314.27c1.251,0.389 14.633,-0.546 17.704,17.239c3.848,22.284 -15.4,28.473 -17.727,29.221c-0.38,0.122 -0.244,0.324 -4.651,1.899c3.619,-21.318 4.158,-25.597 4.674,-48.36Z" style="fill:#f1b090;"/><path d="M587.383,600.365l1.773,-0.703c10.516,-0.557 26.075,1.099 33.216,1.681c28.114,2.292 27.602,5.263 30.599,7.822c-4.584,6.6 -5.145,8.031 -11.877,4.833c-11.807,-5.608 -14.008,10.682 -23.592,0.616c-8.185,-8.597 -19.842,-5.571 -20.874,-5.021c-4.238,2.26 -5.999,6.191 -7.04,0.714c-0.959,-5.042 -0.468,-5.12 -2.204,-9.942Z" style="fill:#e7e4ad;"/><path d="M670.905,612.631l1.965,-2.322c12.452,5.399 13.824,1.342 32.299,14.965c6.414,4.73 8.035,2.889 10.811,11.169c1.463,4.365 -3.878,8.304 -5.929,10.541c-7.103,-22.497 -24.933,-7.464 -27.161,-10.441c-0.334,-0.446 0.441,-0.897 -3.399,-6.284c-1.251,-1.754 -5.423,-2.201 -6.095,-6.057c-1.038,-5.953 -0.81,-5.909 -2.49,-11.571Z" style="fill:#efebd7;"/><path d="M358.259,316l-1.481,0.43l-1.443,-0.103c-10.096,3.16 -12.116,4.581 -15.028,13.285c-0.764,0.202 -1.528,0.404 -2.292,0.607l-0.722,1.367l-0.921,1.732l-0.406,1.732l-0.012,1.732l0.02,1.732c0.728,7.021 -0.097,6.845 -0.379,13.968c-0.061,1.53 0.014,1.632 -3.568,5.263c-0.467,-1.183 -1.095,-2.268 -1.562,-3.451c-9.727,-24.64 2.134,-49.878 21.991,-51.898c8.142,-0.828 6.088,3.87 5.804,13.603Z" style="fill:#f8e5ca;"/><path d="M439.964,460.601c0.695,-0.507 1.277,-1.217 1.971,-1.723c5.452,-3.977 13.31,18.84 43.218,13.597c5.847,-0.121 5.717,0.058 11.652,-0.497c3.823,0.97 9.432,0.483 10.251,0.412c4.472,-0.388 3.937,-1.664 7.066,-5.415c1.467,-0.74 14.222,-7.175 16.712,-12.949c3.736,-8.661 3.392,1.857 3.336,2.255c-1.699,12.132 -23.212,20.525 -25.586,21.452c-5.365,0.594 -5.282,0.365 -10.438,2.27c-10.318,1.19 -17.827,4.863 -42.787,-7.245c-8.006,-5.619 -7.815,-5.744 -15.395,-12.158Z" style="fill:#e0e8e4;"/><path d="M411.164,442.879c16.864,0.707 30.548,10.606 33.029,9.148c0.829,-0.487 1.723,-0.801 2.552,-1.288c3.405,1.635 3.268,2.03 5.292,2.075c10.603,0.239 9.716,3.309 17.517,11.852c2.598,1.489 2.565,1.534 2.806,1.608c6.953,2.139 7.526,0.571 12.793,6.201c-29.908,5.243 -37.766,-17.574 -43.218,-13.597c-0.695,0.507 -1.277,1.217 -1.971,1.723c-11.107,-5.857 -10.9,-6.396 -25.408,-9.73c-3.588,-0.824 -3.384,-7.933 -3.391,-7.993Z" style="fill:#a0aeb2;"/><path d="M569.143,647.247c11.712,-6.219 18.055,9.971 17.279,15.204c-1.569,10.572 -3.144,9.99 -4.895,20.547c-0.243,1.464 -0.681,2.522 -15.54,0.56c-4.328,-0.572 2.488,-15.667 3.321,-21.027c0.788,-5.07 -7.943,-6.693 -0.165,-15.284Z" style="fill:#f6c92a;"/><path d="M448.835,484.374c-3.232,6.928 -13.375,7.075 -15.397,6.101c-7.765,-3.741 -7.611,-4.175 -17.552,-6.134c-5.461,-1.076 0.285,-5.795 -0.513,-14.164c-0.521,-5.468 -2.392,-8.947 2.102,-7.555c16.861,5.221 19.046,7.492 31.359,21.752Z" style="fill:#703e34;"/><path d="M306.258,421.367c-5.111,-0.322 -8.677,2.752 -7.256,-3.19c1.385,-5.794 20.412,6.642 33.982,-11.221c12.386,-16.304 8.422,-22.595 12.258,-21.798c23.114,4.799 23.728,3.102 24.709,5.203c2.693,5.767 -2.949,1.406 -11.968,6.459c-19.726,11.052 -19.5,11.52 -27.385,21.136c-4.085,4.983 -12.055,3.268 -24.34,3.412Z" style="fill:#b1644d;"/><path d="M550.101,621.338c0.67,1.718 1.339,3.436 2.009,5.154c-2.815,2.353 -3.675,3.81 -12.365,2.146c-8.726,-0.72 -7.674,3.173 -15.268,8.409c-5.591,3.854 -6.668,-3.253 -9.873,-0.023c-5.187,5.229 -5.309,5.567 -12.056,5.042c-0.208,-0.016 -0.172,0.104 -2.326,1.411c-1.328,0.653 -2.242,2.236 -3.57,2.889c-0.562,0.276 -0.716,-0.612 -7.341,2.317c-4.936,-16.146 29.272,-12.524 32.475,-20.663c2.071,-5.263 14.583,-16.723 28.315,-6.681Z" style="fill:#f1ad26;"/><path d="M680.319,647.426c16.015,-20.778 36.828,2.355 19.658,14.389c-0.941,0.66 -10.925,7.657 -12.708,5.884c-1.874,-1.863 0.541,-7.948 -9.618,-16.285c1.428,-1.947 1.23,-2.002 2.668,-3.988Z" style="fill:#f4bc29;"/><path d="M511.295,738.45c31.276,19.985 55.128,32.566 115.367,27.302c6.441,-0.563 6.406,-0.444 12.645,-2.758l1.064,2.862c-1.728,0.642 -1.585,3.434 -17.973,4.282c-2.869,0.148 -5.74,0.261 -8.609,0.438c-8.41,0.519 -63.316,3.908 -102.558,-28.492c-3.013,-2.488 0.057,-3.214 0.064,-3.632Z" style="fill:#7f7a78;"/><path d="M522.363,647.6c4.986,4.133 4.044,5.358 9.342,9.161c5.649,4.055 -6.867,7.058 -8.675,14.457c-1.851,7.578 -4.179,4.147 -10.455,1.992c-14.946,-5.134 -22.956,-10.583 -24.815,-11.847l1.804,-1.592l1.443,-1.037c2.741,-2.081 2.686,-2.338 2.954,-2.242c1.324,0.474 1.781,2.58 2.893,3.563c0.861,0.761 1.313,-1.2 12.882,4.247c9.037,4.255 8.022,-3.486 6.993,-11.696c1.793,-1.561 1.653,-1.603 3.521,-3.228c0.167,-0.145 0.156,-0.132 2.112,-1.776Z" style="fill:#f2a51c;"/><path d="M535.755,709.171c-0.379,0.429 -1.097,-1.049 -1.476,-0.619c-5.386,6.098 20.709,19.332 22.805,20.395c0.918,0.465 14.559,7.383 9.194,10.082c-1.459,0.734 -2.999,1.218 -4.457,1.952c-9.446,-6.072 -16.387,0.808 -20.381,-3.709c-5.131,-5.803 -5.006,-5.941 -11.427,-9.21l1.41,-2.149l1.443,-0.996l1.663,-0.132l-0.481,-1.732l0.892,-1.732l-0.631,-1.996l-0.861,-1.468l-1.194,-1.732c-0.781,-1.28 -10.099,-9.803 -0.834,-8.695c2.063,0.247 1.901,0.548 4.334,1.742Z" style="fill:#ededeb;"/><path d="M376.839,369.758l1.589,0.02l1.205,-0.085l0.567,1.732l0.628,1.732l1.075,1.732c19.473,33.563 21.484,31.307 33.802,43.644c4.208,4.215 4.378,4.186 5.89,10.574c-4.99,-1.438 -4.849,-1.456 -9.844,-2.836c-7.386,-2.041 -4.529,-9.55 -14.944,-15.893c-6.77,-4.123 -3.404,-7.758 -8.817,-14.087c-7.79,-9.108 -7.231,-13.778 -11.152,-26.534Z" style="fill:#f2b28f;"/><path d="M500.221,643.476c1.303,3.556 1.603,4.882 12.379,3.922c0.338,0.408 2.635,3.177 4.13,5.207c1.029,8.21 2.044,15.952 -6.993,11.696c-11.568,-5.447 -12.021,-3.487 -12.882,-4.247c-1.113,-0.983 -1.569,-3.089 -2.893,-3.563c-0.268,-0.096 -0.213,0.162 -2.954,2.242l-1.443,1.037l-1.804,1.592c-4.372,-4.4 -1.629,-5.433 1.111,-9.916c0.111,-0.182 0.032,-0.205 0.439,-2.764c6.625,-2.93 6.779,-2.041 7.341,-2.317c1.328,-0.653 2.242,-2.236 3.57,-2.889Z" style="fill:#f7d542;"/><path d="M656.996,678.036c-12.205,2.387 0.509,-5.883 1.115,-7.171c2.435,-5.178 5.868,-25.513 20.414,-11.723c10.083,9.559 2.58,13.684 -10.095,16.486c-0.913,0.202 -0.847,0.178 -11.434,2.407Z" style="fill:#f4b627;"/><path d="M641.056,791.943c0.982,0.391 1.965,0.782 2.947,1.173l1.443,0.655c6.69,10.079 13.108,30.108 13.991,32.864c4.292,15.653 3.235,16.428 2.125,16.609c-2.773,0.453 -4.389,-6.414 -8.811,-14.708c-2.07,-8.573 -16.713,-33.67 -17.393,-34.915l5.697,-1.677Z" style="fill:#d25076;"/><path d="M645.323,667.955c-6.164,-4.634 -6.827,-5.029 -6.703,-15.601c0.046,-3.949 8.952,-8.699 15.028,-4.746c6.28,4.086 7.268,27.557 -8.325,20.347Z" style="fill:#f7912f;"/><path d="M319.427,440.916c-13.562,-1.59 -36.049,5.286 -49.243,1.532c0.71,-0.628 2.342,-9.791 49.087,-8.895c4.475,0.086 2.663,2.888 0.156,7.363Z" style="fill:#ede9e4;"/><path d="M469.25,532.216c-5.775,0.513 -5.655,-6.722 -4.085,-29.13c0.643,-9.176 -1.842,-14.403 5.715,-12.698c4.705,1.062 5.694,1.988 4.16,7.446c-0.594,2.115 -4.835,18.452 -3.859,24.18c0.974,5.721 2.006,6.619 -1.932,10.201Z" style="fill:#f7c43c;"/><path d="M478.155,504.937c3.636,1.242 11.42,0.247 12.407,0.12c0.364,2.037 0.982,5.487 -1.985,25.929c-0.191,1.317 -0.346,1.47 -0.43,1.554c-0.691,0.687 -0.89,-0.244 -1.619,0.48c-14.045,-16.866 -10.798,-20.941 -8.374,-28.084Z" style="fill:#fcbea7;"/><path d="M406.944,509.858c2.376,-8.979 1.273,-13.129 8.881,-11.25c15.618,3.859 15.927,6.054 19.024,13.072c-5.908,0.192 -5.817,0.021 -11.686,-0.136c-6.56,0.278 -6.472,0.077 -13.084,0.554c-0.291,0.021 -0.232,-0.166 -3.136,-2.24Z" style="fill:#f2a9c2;"/><path d="M539.745,628.637c0.521,2.487 0.724,2.939 -1.227,4.055c-1.232,0.624 -5.846,2.095 -4.122,7.16c1.242,3.651 0.889,3.951 -1.603,6.622c-2.88,-5.27 -4.483,-9.446 -6.532,-3.633c-0.63,0.019 -1.249,-0.281 -1.879,-0.262c-3.205,0.096 -2.675,2.178 -3.158,2.572c-4.435,-3.136 -5.07,-2.42 -8.623,2.246c-10.776,0.96 -11.076,-0.366 -12.379,-3.922c2.154,-1.306 2.118,-1.427 2.326,-1.411c6.746,0.525 6.869,0.186 12.056,-5.042c3.205,-3.23 4.282,3.876 9.873,0.023c7.595,-5.235 6.543,-9.129 15.268,-8.409Z" style="fill:#8d401c;"/><path d="M535.923,329.613c15.071,17.152 -2.933,27.182 -3.405,19.325c-0.055,-0.923 2.702,-7.975 -1.396,-11.598c-4.044,-3.575 -6.144,-2.321 -5.618,-7.522c0.7,-6.928 9.697,-0.704 10.419,-0.205Z" style="fill:#f3ba98;"/><path d="M411.164,442.879c-1.806,-4.376 -3.629,-7.375 0.399,-6.507c7.134,1.537 15.445,4.259 15.924,4.407c13.019,4.036 14.202,2.127 19.258,9.96c-0.829,0.487 -1.723,0.801 -2.552,1.288c-2.481,1.458 -16.165,-8.442 -33.029,-9.148Z" style="fill:#e7e6e5;"/><path d="M455.359,472.759c24.96,12.107 32.469,8.435 42.787,7.245l1.118,2.189c-0.827,0.174 -1.654,0.349 -2.482,0.523l-1.443,0.708l-1.443,0.438l-1.443,0.409l-1.443,0.306l-1.443,0.155l-1.443,0.187l-1.443,0.134l-1.443,0.16l-1.443,0.129l-1.443,0.095l-1.443,0.004l-1.443,-0.106l-1.443,-0.127l-1.443,-0.119l-1.443,-0.237l-1.443,-0.187l-1.443,-0.536l-1.443,-0.579l-1.443,-0.559c-7.416,-3.239 -7.613,-2.408 -14.433,-7.367l0.434,-2.862Z" style="fill:#797e80;"/><path d="M538.517,632.692c5.183,0.874 5.07,0.494 10.683,1.451c-1.704,8.574 -6.142,4.037 -10.37,11.222c-1.831,3.111 -1.459,3.265 -3.399,6.374c-2.45,3.926 -2.87,0.548 -5.858,-2.918c1.073,-0.783 2.146,-1.565 3.219,-2.348c2.492,-2.671 2.846,-2.971 1.603,-6.622c-1.724,-5.065 2.89,-6.536 4.122,-7.16Z" style="fill:#f5b913;"/><path d="M633.898,669.392c16.924,3.643 12.961,10.547 11.831,11.025c-2.979,1.262 -10.909,1.429 -11.863,1.449c-0.548,-6.303 0.182,-6.218 0.032,-12.474Z" style="fill:#f2b04d;"/><path d="M622.446,656.702c14.401,7.956 -2.771,18.899 -6.743,10.571c-0.556,-1.165 -0.264,-3.765 0.113,-4.502c2.387,-4.669 2.28,-5.157 6.63,-6.068Z" style="fill:#fabe7d;"/><path d="M478.155,504.937c1.816,-8.992 2.293,-10.188 9.969,-10.59c1.8,-0.094 2.481,1.613 2.586,1.875c0,0 -0.136,8.129 -0.148,8.836c-0.987,0.126 -8.771,1.122 -12.407,-0.12Z" style="fill:#c76458;"/><path d="M633.898,669.392c0.15,6.257 -0.58,6.172 -0.032,12.474c-4.073,0.67 -12.776,3.886 -11.233,-3.768c1.643,-8.146 10.194,-8.644 11.265,-8.706Z" style="fill:#f38234;"/><path d="M634.837,618.404c0.274,0.292 3.427,3.65 3.427,3.65c9.382,5.604 9.397,6.874 10.136,19.304c-1.027,0.038 -2.054,0.075 -3.08,0.113c-1.029,-13.484 -4.172,-11.658 -12.84,-20.505c0.786,-0.854 1.571,-1.707 2.357,-2.561Z" style="fill:#815515;"/><path d="M445.089,431.571c-4.007,-6.198 1.2,-11.449 2.432,-12.106c5.871,-3.13 11.558,2.419 6.049,5.832c-2.455,1.521 -7.815,5.748 -8.481,6.273Z" style="fill:#ebefec;"/><path d="M608.524,668.983c5.067,-0.128 15.517,13.229 3.657,15.235c-2.045,-3.847 -2.647,-3.506 -2.814,-7.935c-0.093,-2.464 -0.292,-2.297 -1.448,-4.364l0.604,-2.936Z" style="fill:#e2881f;"/><path d="M509.487,520.456c1.073,0.647 2.146,1.295 3.219,1.942c-0.279,1.235 -1.368,2.056 -1.647,3.291c-0.135,0.599 0.06,0.433 2.698,3.877c0.124,4.425 0.515,4.394 0.365,4.728c-0.226,0.503 -1.121,0.066 -1.347,0.569c-8.337,-0.425 -7.796,-5 -3.288,-14.407Z" style="fill:#eeb95f;"/><path d="M499.312,434.151c0.303,0.612 4.767,9.63 0.299,8.896c-2.476,-0.407 -11.104,-10.023 -5.611,-12.113c1.625,-0.619 4.952,2.843 5.312,3.217Z" style="fill:#6d4014;"/><path d="M521.223,645.152c0.38,0.816 0.76,1.632 1.14,2.448c-1.955,1.644 -1.945,1.631 -2.112,1.776c-1.867,1.626 -1.728,1.667 -3.521,3.228c-1.495,-2.03 -3.792,-4.799 -4.13,-5.207c3.553,-4.666 4.188,-5.381 8.623,-2.246Z" style="fill:#bd6a18;"/><path d="M665.557,629.624c-0.927,1.898 -0.519,1.92 -1.32,3.727c-9.777,-4.934 -3.491,-8.335 -2.889,-8.349c1.015,-0.023 3.919,4.2 4.209,4.622Z" style="fill:#713711;"/><path d="M628.12,635.12c6.801,0.843 3.166,4.375 2.801,4.468c-6.075,1.559 -9.511,-2.999 -5.541,-4.254c0.885,-0.28 1.855,0.066 2.74,-0.214Z" style="fill:#79430e;"/><path d="M526.26,642.842c2.05,-5.813 3.653,-1.637 6.532,3.633c-1.073,0.783 -2.146,1.565 -3.219,2.348c-0.294,-0.453 -1.188,-1.828 -3.313,-5.98Z" style="fill:#e57226;"/><path d="M513.757,529.565c0.94,0.183 1.88,0.365 2.821,0.548l1.586,2.29c-0.303,2.856 -0.31,2.709 -0.887,5.409c-0.328,-0.502 0.648,-1.373 0.32,-1.874c-0.242,-0.37 -0.465,-0.71 -4.822,-1.075c0.226,-0.503 1.121,-0.066 1.347,-0.569c0.15,-0.334 -0.241,-0.303 -0.365,-4.728Z" style="fill:#b68469;"/><path d="M670.204,639.311c3.78,7.385 -2.522,3.134 -2.559,2.33c-0.057,-1.263 0.652,-1.909 0.769,-2.016c0.787,-0.717 0.95,0.45 1.789,-0.314Z" style="fill:#d18b16;"/><path d="M499.788,404.434c0.454,1.077 0.907,2.153 1.361,3.23c-0.187,-0.121 -2.333,-1.507 -2.333,-1.507c0.013,-0.693 0.959,-1.03 0.972,-1.723Z" style="fill:#b3645e;"/><path d="M454.787,438.244c0.669,-0.284 0.463,-0.802 1.671,-0.708c2.124,0.164 0.856,1.377 1.077,1.732c-0.916,-0.341 -1.832,-0.682 -2.748,-1.024Z" style="fill:#c1461a;"/><path d="M550.101,621.338c0.383,1.231 0.896,0.681 1.252,1.825c0.081,0.259 0.056,0.247 0.757,3.329c-0.67,-1.718 -1.339,-3.436 -2.009,-5.154Z" style="fill:#d2691a;"/></g></svg>