<?xml version="1.0" encoding="UTF-8" standalone="no"?><!DOCTYPE svg PUBLIC "-//W3C//DTD SVG 1.1//EN" "http://www.w3.org/Graphics/SVG/1.1/DTD/svg11.dtd"><svg width="100%" height="100%" viewBox="0 0 1024 1024" version="1.1" xmlns="http://www.w3.org/2000/svg" xmlns:xlink="http://www.w3.org/1999/xlink" xml:space="preserve" xmlns:serif="http://www.serif.com/" style="fill-rule:evenodd;clip-rule:evenodd;stroke-linejoin:round;stroke-miterlimit:2;"><g id="Background"><path d="M516.147,457.602c24.071,2.914 24.105,2.483 37.714,2.054c6.17,-0.195 17.503,-1.11 10.109,8.607c-4.924,6.472 -26.188,20.855 -60.611,29.706c-42.614,10.956 -58.096,7.081 -53.674,12.643c2.298,2.891 12.296,12.473 9.108,24.401c-3.619,13.542 -39.25,31.144 -61.822,10.624c-1.993,-1.812 -3.151,0.073 -20.666,4.134c-4.941,1.146 -6.9,0.438 -6.745,4.212c0.234,5.702 -4.927,11.203 -9.682,13.07c-8.702,3.417 -8.353,3.877 -12.788,10.351c-17.867,26.077 -18.454,25.8 -36.317,51.874c-13.561,19.793 -52.834,79.761 -51.904,82.737c2.018,6.46 10.296,14.122 -12.974,21.147c-9.618,2.904 1.054,40.39 -8.908,50.349c-9.551,9.549 -38.33,14.262 -67.704,45.194c-8.834,9.303 -26.126,4.487 -22.677,-7.843c15.528,-55.518 -10.403,-62.183 12.312,-77.478c5.927,-3.991 19.867,-11.09 35.719,-24.719c3.214,-2.763 -6.582,-14.395 9.038,-21.742c4.966,-2.336 7.807,-0.409 12.339,-7.414c6.375,-9.853 32.782,-50.667 84.325,-121.485c8.209,-11.279 9.521,-11.166 9.136,-19.231c-0.574,-12.04 15.973,-10.219 12.124,-17.105c-3.844,-6.879 -3.6,-6.883 -6.147,-14.076c-0.899,-2.539 -21.386,2.688 -33.172,-10.328c-9.262,-10.229 -4.848,-35.727 30.514,-39.347c0.677,-0.069 6.736,-0.166 6.708,-2.034c-0.025,-1.641 -23.285,-24.412 -17.488,-51.87c2.632,-12.465 12.165,-2.174 12.747,-1.546c4.155,4.486 3.712,4.629 7.919,9.077c9.21,9.735 15.628,13.519 13.767,8.871c-0.327,-0.817 -20.907,-38.304 11.787,-87.143c14.863,-22.202 24.536,-25.629 27.712,-16.427c4.128,11.962 6.482,25.209 9.249,22.181c0.808,-0.883 -9.827,-41.341 35.95,-76.533c3.432,-2.638 61.269,-44.12 69.288,-49.3c31.553,-20.384 45.949,-20.543 44.831,-13.878c-0.797,4.755 -11.935,39.617 -5.051,32.745c3.034,-3.029 2.054,-65.212 169.6,-88.573c36.454,-5.083 85.15,-9.846 156.336,0.608c1.239,0.182 33.072,3.332 17.331,13.467c-15.017,9.668 -28.055,5.863 -60.189,66.639c-42.196,79.808 -101.863,78.405 -147.437,90.281c-6.207,1.617 10.582,3.096 26.756,1.883c31.253,-2.342 46.98,-12.038 45.57,-3.083c-2.687,17.071 -39.269,28.826 -68.459,58.223c-38.101,38.37 -49.761,58.899 -140.498,70.747c-19.833,2.59 -27.978,1.187 -25.973,3.258c0.571,0.59 11.853,1.945 12.895,2.07Z" style="fill:#7c463f;"/><path d="M672.446,222.024c-2.568,1.211 -14.852,7.002 -31.144,16.173c-66.973,37.697 -96.052,63.19 -96.12,63.243c-4.434,3.319 -4.322,3.304 -8.568,6.697c-3.053,-4.088 0.273,-7.654 1.923,-18.481c1.184,-7.768 -2.696,-24.79 -5.413,-10.308c-2.672,14.244 -0.976,14.657 -7.607,31.885c-0.133,0.347 -1.653,4.295 -1.615,4.342c0.379,0.469 1.459,0.457 1.838,0.926c-6.852,4.754 -42.848,37.77 -46.486,41.106c-4.144,4.09 -4.114,4.065 -4.475,4.417c-0.306,0.298 -0.355,0.177 -0.671,0.485c-3.857,-2.372 -0.57,-3.199 -2.228,-25.354c-2.497,-33.354 -16.632,-37.554 -0.658,-76.935c5.23,-12.893 5.711,-12.847 5.603,-15.146c7.652,-8.881 46.794,-34.678 43.848,-26.288c-8.402,23.925 0.567,39.737 6.145,39.812c13.163,0.176 4.795,-17.32 36.94,-49.007c34.533,-34.041 132.921,-48.422 135.944,-47.719c2.585,0.601 2.613,1.218 4.985,0.248c24.524,-10.029 123.422,-6.588 153.638,0.81c0.313,0.077 2.092,0.654 -1.751,2.74c-31.281,16.978 -40.372,42.586 -53.099,59.334c-18.197,7.098 -23.184,14.829 -79.082,26.576c-0.271,0.057 -14.183,4.023 -1.179,2.434c2.778,-0.339 45.934,-3.69 71.573,-19.831c2.775,-1.747 6.089,-6.1 7.786,-4.15c0.234,0.269 -0.609,0.648 -0.375,0.917c-6.484,10.78 -8.966,15.542 -12.68,20.092c-0.66,2.112 -0.637,2.102 -0.712,2.281c-0.396,0.938 -0.648,0.807 -1.037,1.729c-1.811,-1.445 -1.727,-1.601 -1.95,-1.557c-0.771,0.154 1.276,1.501 -6.389,5.64c-40.295,21.758 -124.896,14.848 -158.563,25.242c-3.484,1.076 -25.133,15.126 -58.166,46.434c-40.094,38 -39.206,45.62 -52.545,39.873c6.172,-7.129 30.843,-29.821 33.61,-32.365c57.473,-52.861 62.44,-49.677 66.579,-54.698c3.249,-3.941 49.359,-35.297 53.754,-38.286c31.597,-21.486 54.383,-29.675 56.071,-35.917c2.996,-11.079 -44.301,11.008 -47.725,12.607Z" style="fill:#f1c1a1;"/><path d="M769.039,621.337c-0.149,2.606 -0.122,2.546 0.442,5.17c1.65,7.677 -7.093,9.248 -10.991,13.838c-8.3,9.772 15.008,8.115 20.424,11.85c-2.545,1.342 -2.476,1.437 -2.746,1.448c-15.178,0.613 -15.102,1.337 -16.404,1.184c-6.443,-0.757 -6.383,0.142 -12.986,0.228c-9.043,0.117 -64.455,0.836 -109.547,20.527c-39.067,17.061 -61.089,25.448 -110.331,59.885c-0.897,-0.111 -1.538,-0.792 -2.435,-0.903c-1.709,-0.212 -2.951,0.948 -3.123,1.109c-0.935,0.874 -0.247,0.921 0.905,3.25c-38.312,27.158 -38.315,27.145 -38.901,27.598c-52.078,40.249 -84.678,51.655 -98.853,58.704c-6.831,-2.371 -8.905,2.586 -10.322,4.352c-4.208,-0.261 -3.89,0.599 -13.421,3.961c-8.22,2.9 -50.51,17.818 -111.532,17.28c-33.846,-0.298 -72.321,-12.773 -65.397,-18.345c4.018,-3.234 31.429,9.028 63.05,5.729c59.622,-6.221 73.733,-8.319 136.777,-35.893c6.383,-2.792 50.892,-26.871 88.631,-59.383c31.396,-27.047 61.324,-54.7 115.811,-86.903c43.693,-25.823 127.995,-53.594 180.948,-34.682Z" style="fill:#f1babe;"/><path d="M466.803,250.76c1.122,2.131 0.776,2.143 -0.161,4.316c-22.428,51.998 3.996,65.453 -1.415,107.983c-0.791,6.221 -8.332,6.206 -3.212,11.225c-0.585,0.726 -2.736,3.397 -8.061,8.725c-1.666,-1.504 -2.273,-1.35 -1.92,-2.603c0.215,-0.766 1.344,-2.521 2.03,-4.33c5.191,-13.699 -9.471,-52.678 -9.573,-52.737c-3.779,-2.165 -1.514,1.676 4.198,33.756c3.769,21.168 -4.478,24.846 0.481,30.173c-7.194,9.61 -17.524,15.561 -57.02,64.518c-1.995,-1.686 -2.167,-1.791 -1.304,-3.992c0.729,-1.86 6.36,-2.544 -6.78,-27.576c-19.774,-37.669 -14.111,-42.072 -18.317,-40.599c-0.892,0.312 1.238,24.031 9.881,40.309c9.914,18.673 8.457,18.959 11.738,32.07c0.338,1.351 0.587,1.187 1.986,2.686c-1.611,2.328 -1.502,2.264 -3.289,4.46c-16.045,19.714 -15.597,21.299 -17.953,20.413c-8.793,-3.305 -8.781,-3.763 -20.097,-3.704c-3.826,0.02 -14.986,-8.6 -20.588,-15.386c-14.073,-17.046 -17.055,-37.225 -13.559,-36.793c0.038,0.005 26.554,23.072 35.335,23.256c14.684,0.307 -29.367,-31.537 3.714,-90.701c5.75,-10.283 11.377,-20.354 13.647,-19.581c0.671,0.228 6.824,20.816 19.545,30.45c11.354,8.599 7.766,-3.356 9.561,-29.066c3.394,-48.609 34.904,-59.08 71.135,-87.271Z" style="fill:#f2a2a1;"/><path d="M690.402,352.789c-21.072,14.392 -27.893,21.36 -31.188,24.703c-33.915,34.405 -40.488,47.969 -100.762,62.165c-24.02,5.658 -95.244,8.673 -77.328,16.513c20.598,9.013 58.163,10.171 63.35,10.33c12.902,0.398 -11.304,12.301 -24.92,17.168c-23.005,8.224 -39.203,14.159 -78.588,16.057c-20.204,0.974 -21.025,1.492 -25.056,-1.66c-5.862,-4.584 -10.86,-4.096 -8.296,-7.308c45.037,-56.42 57.454,-74.672 73.372,-87.907c2.906,-0.297 2.8,-0.279 5.774,-0.187c-0.456,13.025 -11.818,15.36 -9.035,18.969c1.419,1.841 11.012,-1.765 18.437,-2.616c51.665,-5.918 80.459,0.591 125.682,-20.82c7.106,-3.365 28.904,-13.071 21.454,-14.448c-2.237,-0.413 -6.579,1.658 -18.918,2.346c-4.319,0.241 -13.887,2.789 -19.922,-0.597c-8.224,-0.472 -8.203,0.775 -16.426,-0.271c-11.354,-1.443 -31.472,0.788 -34.178,1.088c-8.274,0.918 -9.201,-0.71 -14.087,2.836c-5.873,-0.06 -18.338,-2.096 -48.097,7.81c-5.032,1.675 -4.317,2.919 -9.863,3.242c0.944,-1.611 0.969,-1.654 16.922,-18.054c1.906,1.408 1.825,1.552 2.054,1.517c1.384,-0.21 -1.401,-3.134 14.243,-7.676c74.253,-21.559 101.126,-1.826 157.427,-19.374c11.941,-3.722 11.862,-5.511 17.951,-3.828Z" style="fill:#eb8c89;"/><path d="M787.769,255.05c-0.613,0.71 -0.405,0.726 -7.492,8.947c-38.178,44.287 -91.641,44.694 -134.766,58.323c-17.983,5.683 6.915,10.691 28.301,11.68c22.128,1.023 22.26,0.833 43.561,-3.734c7.475,-1.603 -7.245,9.37 -18.409,15.909c-4.883,2.86 -4.106,3.303 -8.561,6.614c-6.089,-1.683 -6.01,0.106 -17.951,3.828c-56.301,17.548 -83.174,-2.185 -157.427,19.374c-15.644,4.542 -12.859,7.466 -14.243,7.676c-0.228,0.035 -0.147,-0.109 -2.054,-1.517c10.502,-10.586 10.528,-10.543 11.429,-11.467c13.339,5.747 12.451,-1.873 52.545,-39.873c33.032,-31.308 54.681,-45.358 58.166,-46.434c33.667,-10.394 118.268,-3.484 158.563,-25.242c7.666,-4.139 5.618,-5.486 6.389,-5.64c0.222,-0.045 0.139,0.111 1.95,1.557Z" style="fill:#f7bbbb;"/><path d="M678.651,228.44c-63.902,34.953 -129.422,94.208 -139.406,103.237c-9.85,9.044 -9.808,8.966 -10.859,10.028c-68.243,63.471 -88.254,93.954 -128.934,144.778c-3.045,3.804 -2.992,4.339 -9.01,4.868c-4.13,0.363 -10.323,2.745 -11.743,0.405c-3.634,-5.988 -1.832,-6.256 1.857,-11.362c24.961,-34.542 76.119,-88.043 83.215,-95.464c3.133,-3.277 3.135,-3.209 6.228,-6.49c13.927,-14.715 80.53,-80.429 164.271,-128.132c12.845,-7.317 60.104,-35.13 44.381,-21.868Z" style="fill:#f1c995;"/><path d="M337.389,485.702c12.558,-6.903 29.662,-4.623 35.58,9.486c4.073,9.71 13.229,-2.584 29.03,2.886c13.457,4.658 11.954,11.332 12.37,13.587c-3.002,1.967 -2.764,2.036 -4.831,4.501c-3.792,4.524 -17.724,14.614 -19.231,15.286c-0.445,0.198 -6.49,2.893 -3.888,3.832c2.318,0.836 4.812,-0.805 5.128,-1.013c1.941,-1.277 2.059,0.615 2.565,0.964c-8.475,3.915 -17.698,6.35 -36.632,9.415c-12.319,1.994 -15.796,3.297 -17.113,0.574c-11.033,-22.82 -17.373,-28.907 -14.471,-41.324c1.113,-6.125 2.416,-12.381 11.492,-18.193Z" style="fill:#ebc090;"/><path d="M604.456,385.499c6.036,3.386 15.603,0.838 19.922,0.597c12.339,-0.688 16.681,-2.76 18.918,-2.346c7.451,1.377 -14.347,11.083 -21.454,14.448c-45.223,21.411 -74.016,14.902 -125.682,20.82c-7.425,0.851 -17.018,4.456 -18.437,2.616c-2.783,-3.609 8.578,-5.945 9.035,-18.969c52.027,-15.71 77.277,-8.145 71.782,-12.772c-0.884,-0.744 -6.459,-0.538 -18.775,-0.74c4.886,-3.546 5.813,-1.918 14.087,-2.836c2.706,-0.3 22.824,-2.531 34.178,-1.088c8.223,1.045 8.202,-0.201 16.426,0.271Z" style="fill:#f49aa0;"/><path d="M200.982,725.875c1.247,2.638 1.104,2.64 2.25,4.351c11.664,8.804 17.591,5.125 18.615,11.254c0.294,1.761 0.949,20.513 -0.216,25.806c-3.04,13.816 -24.234,18.786 -38.065,30.474c-2.67,2.256 -5.274,6.762 -5.853,6.733c-0.778,-0.04 -1.115,-0.971 -1.893,-1.011c4.005,-6.575 10.945,-17.463 11.909,-18.977c3.527,-5.533 4.492,-5.071 12.108,-7.623c12.059,-4.041 11.239,-10.25 7.838,-12.708c-3.862,-2.791 -9.367,-1.113 -10.202,-1.185c-0.544,-0.047 -7.112,-7.921 -13.993,-4.147c-7.442,4.082 -0.989,15.63 -0.395,17.189c1.276,3.348 -14.405,23.9 -19.232,32.964c-0.211,0.397 -8.019,15.057 -4.474,4.188c8.303,-25.463 -2.848,-51.464 2.03,-59.519c1.78,-2.939 2.897,-2.294 39.572,-27.79Z" style="fill:#efcf9b;"/><path d="M769.039,621.337c0.264,-18.483 20.893,-1.347 26.906,-3.754c1.609,-0.644 20.564,-8.233 22.82,-1.46c2.423,7.275 -5.322,12.105 2.534,17.856c1.822,1.334 9.959,6.07 8.433,11.484c-1.379,4.889 -20.848,3.484 -23.628,8.024c-0.014,0.022 -4.01,10.163 -12.258,11.144c-1.783,0.212 -6.598,0.785 -14.932,-12.436c-5.416,-3.735 -28.725,-2.078 -20.424,-11.85c3.899,-4.59 12.641,-6.161 10.991,-13.838c-0.564,-2.624 -0.591,-2.563 -0.442,-5.17Z" style="fill:#bf9385;"/><path d="M323.199,560.38c0.119,0.023 1.141,-1.098 1.798,0.343c0.816,1.79 4.637,3.661 5.129,3.901c0.774,0.246 8.989,2.863 9.544,3.285c1.801,1.371 -15.169,22.74 -31.27,46.674c-56.169,83.497 -53.391,84.53 -59.428,91.304c-1.68,1.885 -14.66,-1.715 -21.714,-5.421c-5.981,-3.143 -3.665,-4.239 -0.373,-9.13c1.702,0.402 15.461,4.483 18.59,-0.081c0.679,-0.99 5.812,-10.312 41.845,-62.817c2.014,-2.935 24.584,-35.823 23.735,-37.204c-0.134,-0.218 -0.75,0.355 -3.322,-1.737c-0.126,-0.103 -2.776,-0.819 -3.02,-0.885c1.221,-1.475 3.202,-3.869 11.066,-19.986c0.792,-1.623 1.672,-1.106 2.721,-2.571c3.996,-5.577 5.021,-5.04 5.307,-5.54c0.082,-0.143 -0.69,0.008 -0.608,-0.135Z" style="fill:#dea579;"/><path d="M352.726,492.332c13.531,2.217 13.527,7.412 16.197,12.553c0.6,1.156 1.216,0.394 6.285,-0.585c2.117,-0.409 9.735,-0.987 14.943,0.805c19.404,6.675 9.315,24.512 -18.587,30.769c-21.003,4.71 -25.63,3.437 -30.151,-4.513c-17.429,-30.647 1.629,-36.496 3.322,-37.504c3.887,-1.146 3.794,-1.268 7.991,-1.525Z" style="fill:#945046;"/><path d="M321.453,558.401l1.746,1.98c-0.082,0.143 0.69,-0.008 0.608,0.135c-0.286,0.499 -1.311,-0.037 -5.307,5.54c-1.049,1.464 -1.929,0.947 -2.721,2.571c-7.864,16.117 -9.846,18.511 -11.066,19.986c0.244,0.066 2.894,0.782 3.02,0.885c2.572,2.092 3.187,1.518 3.322,1.737c0.849,1.381 -21.721,34.269 -23.735,37.204c-36.032,52.505 -41.166,61.827 -41.845,62.817c-3.129,4.565 -16.889,0.483 -18.59,0.081c32.725,-50.43 85.844,-122.6 89.97,-128.497c1.777,-2.539 3.238,-1.789 4.599,-4.439Z" style="fill:#f1d39e;"/><path d="M548.51,751.034c0.223,-0.703 2.712,-8.568 2.809,-8.786c4.36,-9.839 10.106,8.728 10.524,9.619c8.581,18.325 34.083,9.955 30.083,17.353c-0.62,1.147 -10.147,2.976 -11.066,3.152c-26.353,5.058 -17.682,20.843 -24.614,23.508c-5.278,2.029 -6.302,-6.572 -6.705,-7.873c-6.829,-22.073 -28.328,-12.696 -30.86,-18.956c-2.846,-7.034 21.741,1.082 29.829,-18.017Z" style="fill:#bb9284;"/><path d="M567.728,645.601c-2.699,-7.312 -2.646,-7.273 -2.915,-7.897c-6.588,-15.268 -28.193,-9.928 -28.621,-15.474c-0.615,-7.979 21.942,3.784 30.909,-21.55c5.914,-16.709 10.469,1.577 11.345,3.439c9.609,20.44 32.628,10.961 29.917,18.216c-0.791,2.117 -1.865,1.314 -9.833,3.264c-23.369,5.72 -18.272,10.968 -23.498,21.676c-3.416,7 -7.113,-1.248 -7.304,-1.675Z" style="fill:#be908b;"/><path d="M369.101,509.25c0.415,0.137 0.83,0.274 1.245,0.411c2.037,-0.249 3.993,-0.794 6.029,-1.043c23.021,-2.812 24.285,16.616 -7.138,23.04c-12.734,2.603 -17.636,4.842 -20.997,-0.202c-16.806,-25.224 -2.968,-39.327 6.661,-35.083c7.728,3.406 8.433,8.629 9.38,11.023c1.022,2.584 2.848,0.518 3.735,0.869c0.506,0.201 0.579,0.784 1.085,0.985Z" style="fill:#f08792;"/><path d="M769.337,638.782c4.978,-4.269 4.962,-4.218 5.372,-4.598c4.974,-4.613 -2.857,-18.438 5.137,-15.624c10.486,3.692 10.589,3.508 11.463,3.879c3.809,1.618 3.976,0.24 17.765,-3.777c5.964,-1.738 1.969,8.201 1.803,8.839c-2.535,9.747 6.562,7.348 10.976,14.644c1.655,2.736 -14.636,4.14 -17.331,4.574c-2.74,0.441 -7.198,9.297 -9.707,11.689c-3.132,2.986 -9.889,-9.483 -10.919,-10.912c-1.679,-2.329 -16.768,-2.875 -18.18,-3.803c-1.323,-0.87 3.215,-4.58 3.622,-4.912Z" style="fill:#eac38a;"/><path d="M395.449,768.225c-0.249,1.546 -2.343,14.571 -9.838,18.07c-8.514,3.976 -53.588,-10.87 -38.748,-22.393c1.763,-1.369 8.173,-3.737 15.397,-2.003c4.15,0.996 5.333,1.582 6.87,-1.481c2.661,-5.301 25.58,-16.725 26.319,7.806Z" style="fill:#bc8e8d;"/><path d="M809.849,576.336c-0.031,0.045 -0.419,6.67 -25.297,13.361c-13.422,3.61 -19.788,0.956 -23.454,-20.175c-1.69,-9.742 14.477,-21.751 24.791,-5.269c2.979,4.761 15.077,-3.938 22.956,4.553c2.489,2.682 1.185,6.939 1.004,7.53Z" style="fill:#bd8988;"/><path d="M384.493,825.223c5.409,5.528 3.882,7.451 12.97,8.46c17.002,1.888 6.682,8.917 2.864,12.547c-2.494,2.371 5.419,16.651 -8.818,12.76c-7.713,-2.108 -8.119,-2.316 -15.497,0.43c-14.171,5.273 -10.41,-7.668 -10.315,-9.145c0.286,-4.448 -20.56,-10.636 0.098,-15.262c5.497,-1.231 5.506,-1.465 8.376,-5.439c1.417,-1.766 3.491,-6.723 10.322,-4.352Z" style="fill:#bc9385;"/><path d="M468.137,719.487c-6.895,-0.718 -11.55,4.681 -16.553,2.882c-4.719,-1.698 -2.389,-11.089 -2.385,-11.168c0.142,-3.406 -20.614,-10.557 1.261,-14.266c6.895,-1.169 5.559,-2.56 8.504,-7.205c6.048,-9.541 14.78,4.24 15.33,4.816c1.567,1.641 15.243,0.031 16.175,5.416c1.025,5.919 -9.43,4.303 -6.906,13.792c3.281,12.336 -10.591,6.846 -15.425,5.733Z" style="fill:#be9486;"/><path d="M200.982,725.875c0.268,-0.261 2.971,-2.893 3.715,-3.041c1.414,-0.28 1.333,0.169 7.195,2.675c15.972,6.829 22.146,3.823 20.618,9.843c-3.415,13.454 -1.666,32.835 -1.733,35.455c-0.445,17.208 -30.479,14.244 -62.603,46.79c-9.605,9.731 0.785,-3.216 7.646,-14.116c0.778,0.04 1.115,0.971 1.893,1.011c0.578,0.03 3.183,-4.476 5.853,-6.733c13.831,-11.687 35.025,-16.658 38.065,-30.474c1.165,-5.293 0.51,-24.045 0.216,-25.806c-1.025,-6.129 -6.951,-2.45 -18.615,-11.254c-1.146,-1.711 -1.002,-1.713 -2.25,-4.351Z" style="fill:#dca47b;"/><path d="M476.825,245.075c0.108,2.299 -0.373,2.253 -5.603,15.146c-15.974,39.381 -1.84,43.581 0.658,76.935c1.659,22.155 -1.629,22.982 2.228,25.354c-1.23,0.971 -4.076,4.576 -12.092,11.774c-5.121,-5.019 2.42,-5.005 3.212,-11.225c5.411,-42.529 -21.013,-55.984 1.415,-107.983c0.937,-2.173 1.282,-2.186 0.161,-4.316c7.617,-5.569 8.006,-5.22 10.022,-5.685Z" style="fill:#b8766b;"/><path d="M289.96,490.004c0.797,-1.35 6.198,-10.495 17.06,-13.459c2.093,-0.571 12.593,-3.654 24.396,0.76c6.323,2.364 -0.621,2.997 -6.452,8.703c-3.791,3.71 -4.802,2.538 -8.688,2.241c-3.222,-0.246 -11.049,1.357 -12.085,5.232c-1.236,4.623 10.281,-1.021 14.077,1.233c0.934,0.554 0.279,0.727 -1.573,10.96c-1.161,6.418 -33.601,4.754 -26.735,-15.67Z" style="fill:#edc391;"/><path d="M634.652,733.641c0.188,-0.657 1.55,-5.413 5.493,-7.365c11.662,-5.773 14.687,6.752 19.662,5.856c17.603,-3.172 23.284,10.08 4.332,17.525c-17.699,6.953 -21.599,2.921 -22.654,1.83c-6.895,-7.127 -6.204,-13.416 -6.833,-17.845Z" style="fill:#be8a89;"/><path d="M422.945,516.835c0.26,-7.385 -0.568,-9.138 2.521,-8.24c40.914,11.891 20.972,42.786 -11.472,37.319c-3.958,-0.667 -11.524,-5.148 -7.899,-8.038c0.68,-0.542 0.707,-0.493 8.614,-6.69c1.257,1.774 0.997,1.777 1.088,3.754c0.212,4.549 22.553,5.199 21.825,2.602c-1.321,-4.715 -0.87,-4.692 -1.91,-9.453c-1.475,-6.754 -7.61,-8.543 -12.767,-11.254Z" style="fill:#ebb880;"/><path d="M729.237,699.661c-10.378,-3.304 4.573,-4.56 10.274,-7.677c7.632,-4.173 8.867,-23.622 13.623,-8.491c4.281,13.618 22.738,9.04 20.674,13.88c-0.676,1.586 -1.382,1.038 -8.077,2.855c-15.845,4.299 -10.287,19.079 -17.456,15.005c-6,-3.41 3.383,-10.832 -19.038,-15.571Z" style="fill:#edaeb5;"/><path d="M787.975,584.267c-9.724,2.807 -13.285,5.475 -16.474,-1.782c-3.728,-8.483 -9.01,-17.754 0.215,-21.246c0.259,-0.098 7.009,-1.252 8.938,4.874c1.596,5.067 0.991,8.404 7.031,5.726c0.668,-0.296 10.788,-6.506 15.278,-0.477c4.119,5.531 -13.352,12.273 -14.987,12.905Z" style="fill:#e38d91;"/><path d="M376.296,760.47c12.328,-10.517 15.116,10.786 7.854,19.647c-5.189,6.33 -38.378,-7.303 -32.192,-13.404c4.753,-4.687 16.277,1.545 17.415,2.16c5.453,2.949 1.75,-2.485 6.923,-8.403Z" style="fill:#e7aaac;"/><path d="M533.141,767.642c24.943,-4.883 16.935,-18.398 21.909,-15.844c0.319,0.164 4.22,13.057 19.931,15.655c11.755,1.944 -7.635,0.319 -14.843,9.59c-2.562,3.295 -5.061,11.576 -6.222,7.566c-0.302,-1.044 -2.364,-8.163 -8.718,-11.711c-8.706,-4.86 -11.888,-2.537 -12.057,-5.256Z" style="fill:#ebc693;"/><path d="M571.212,638.84c-4.87,-13.626 -9.972,-12.934 -19.333,-16.176c-3.552,-1.23 4.362,-2.695 7.693,-4.119c10.299,-4.405 10.726,-18.81 14.03,-10.938c5.321,12.675 17.362,12.794 18.879,13.208c7.613,2.08 -13.713,0.134 -18.889,16.038c-0.536,1.647 -1.016,1.393 -2.38,1.988Z" style="fill:#eb9da3;"/><path d="M392.149,451.786c-1.309,1.523 -1.282,1.467 -2.797,2.898c-1.398,-1.499 -1.647,-1.334 -1.986,-2.686c-3.281,-13.11 -1.824,-13.397 -11.738,-32.07c-8.643,-16.278 -10.773,-39.997 -9.881,-40.309c4.206,-1.473 -1.457,2.931 18.317,40.599c13.14,25.032 7.509,25.716 6.78,27.576c-0.862,2.201 -0.69,2.306 1.304,3.992Z" style="fill:#cd7579;"/><path d="M714.366,602.222c-3.892,-7.093 -4.763,-6.949 -14.398,-9.714c-0.479,-0.137 -5.315,-2.294 3.247,-4.069c8.526,-1.768 7.939,-2.82 11.742,-10.286c1.206,-2.367 3.791,-2.633 4.673,-0.811c4.777,9.871 7.554,9.434 14.472,11.684c7.322,2.382 -4.544,4.785 -6.946,5.934c-6.89,3.297 -6.536,17.312 -12.791,7.262Z" style="fill:#e8d1a9;"/><path d="M383.436,832.081c4.067,4.885 3.882,5.759 11.619,6.299c3.162,0.22 5.26,0.355 3.162,2.158c-3.997,3.437 -7.042,3.087 -4.915,10.511c0.083,0.29 1.195,4.172 -0.593,3.685c-3.778,-1.028 -3.324,-1.546 -7.147,-2.501c-6.05,-1.511 -13.924,5.511 -14.01,2.361c-0.065,-2.38 2.695,-6.713 -2.524,-10.221c-0.378,-0.254 -4.496,-3.021 -4.194,-3.558c1.342,-2.389 9.421,0.253 13.284,-6.258c0.137,-0.231 1.343,-6.457 5.318,-2.476Z" style="fill:#ebc590;"/><path d="M476.211,716.465c-13.557,-5.732 -14.908,0.847 -19.974,0.802c-2.254,-0.02 -0.882,-0.856 -0.434,-3.509c1.524,-9.016 -7.541,-7.839 -7.487,-11.157c0.021,-1.287 0.956,-0.729 5.463,-1.299c6.973,-0.882 7.206,-5.432 9.761,-8.056c1.857,-1.907 2.211,-0.196 4.028,1.738c6.153,6.552 8.87,3.448 14.687,5.729c0.565,0.222 1.045,0.667 -4.037,5.078c-6.269,5.441 2.38,7.929 -2.007,10.674Z" style="fill:#e9c18d;"/><path d="M545.182,301.44c0.235,0.159 2.939,1.987 2.939,1.987c1.422,0.823 1.686,0.754 1.487,1.112c-0.357,0.642 -0.967,0.239 -8.549,5.972c-2.749,2.078 -12.565,10.375 -13.601,10.923c-0.082,0.043 -11.448,10.459 -13.406,11.672c-1.731,1.073 -5.519,3.42 -17.819,16.158c-6.199,6.419 -7.49,5.69 -10.322,9.599c-1.102,1.522 -3.761,2.408 -3.779,2.407c-0.283,-0.019 -0.008,-0.459 -0.208,-0.608c-0.226,-0.168 -0.978,0.004 -0.913,-0.227c0.113,-0.403 1.095,-0.449 1.216,-0.85c0.069,-0.23 -0.213,-0.141 -2.973,-1.978c3.638,-3.337 39.634,-36.353 46.486,-41.106c4.291,-2.897 10.04,-7.671 10.874,-8.364c4.246,-3.393 4.134,-3.378 8.568,-6.697Z" style="fill:#7c463e;"/><path d="M803.474,225.003c-0.197,3.125 -1.098,5.482 -1.276,5.945c-0.234,-0.269 0.609,-0.648 0.375,-0.917c-1.697,-1.949 -5.011,2.403 -7.786,4.15c-25.64,16.141 -68.795,19.491 -71.573,19.831c-13.004,1.589 0.908,-2.377 1.179,-2.434c55.898,-11.747 60.884,-19.478 79.082,-26.576Z" style="fill:#b97958;"/><path d="M206.093,706.078c0.447,-0.645 3.558,-5.132 11.359,-3.492c1.73,0.364 8.47,6.179 21.172,8.644c4.805,0.933 5.213,0.274 8.843,2.779c-3.054,2.73 -6.253,6.626 -18.129,4.676c-11.633,-1.91 -20.674,-11.111 -23.246,-12.607Z" style="fill:#eeca93;"/><path d="M640.468,736.229c0.179,-0.824 0.569,-5.335 2.929,-6.768c5.53,-3.357 8.206,5.226 8.414,5.891c1.907,6.117 6.085,1.615 9.001,0.753c13.285,-3.924 10.086,9.99 -11.666,13.089c-2.927,0.417 -8.264,-5.098 -8.678,-12.965Z" style="fill:#e38e93;"/><path d="M453.955,383.009c-2.17,2.351 -1.766,2.521 -4.785,4.259c-4.959,-5.327 3.288,-9.004 -0.481,-30.173c-5.712,-32.081 -7.977,-35.921 -4.198,-33.756c0.102,0.058 14.764,39.037 9.573,52.737c-0.686,1.81 -1.815,3.564 -2.03,4.33c-0.352,1.253 0.254,1.099 1.92,2.603Z" style="fill:#bb716c;"/><path d="M539.765,389.152c12.316,0.201 17.892,-0.004 18.775,0.74c5.496,4.626 -19.755,-2.938 -71.782,12.772c-2.974,-0.091 -2.867,-0.109 -5.774,0.187c0.273,-0.882 0.547,-1.765 0.82,-2.647c5.546,-0.323 4.831,-1.567 9.863,-3.242c29.759,-9.905 42.224,-7.87 48.097,-7.81Z" style="fill:#b86b62;"/><path d="M440.863,823.65c-3.405,-1.045 -5.52,-0.123 -4.884,-2.789c0.205,-0.859 2.473,-1.38 2.729,-1.439c12.457,-2.865 7.181,-7.284 11.911,-9.318c4.225,-1.816 1.19,6.071 11.609,8.869c11.589,3.113 -0.376,4.281 -3.615,6.267c-3.842,2.357 -6.349,12.223 -9.562,6.949c-3.019,-4.956 -1.889,-5.701 -8.188,-8.539Z" style="fill:#e5d1a9;"/><path d="M673.977,178.315c2.164,-1.257 2.673,-2.398 4.163,-0.717c0.847,0.956 -1.064,2.708 -1.271,2.898c-40.076,36.746 -31.63,40.995 -36.3,43.167c-5.411,2.517 2.292,-11.457 4.647,-16.18c7.17,-14.373 18.922,-24.945 21.642,-25.454c4.394,-0.822 3.918,-1.342 7.118,-3.714Z" style="fill:#9b6a4d;"/><path d="M206.093,706.078c2.572,1.496 11.613,10.697 23.246,12.607c11.876,1.949 15.075,-1.946 18.129,-4.676c3.146,5.181 4.734,7.517 -4.075,11.079c-2.132,0.862 -7.688,3.108 -29.097,-6.54c-12.542,-5.652 -8.804,-9.618 -8.202,-12.471Z" style="fill:#dba37b;"/><path d="M320.716,548.802c6.159,2.534 6.704,1.697 12.36,4.773c2.559,1.392 8.165,5.539 12.079,1.931c0.255,-0.235 0.86,-0.793 -1.875,-3.496c4.524,-0.89 6.559,-1.075 7.139,-1.127c13.56,-1.229 7.139,8.97 1.147,10.053c-14.015,2.532 -30.118,-10.096 -24.366,-3.562c2.318,2.633 2.394,2.521 3.999,5.359c1.093,1.932 -0.897,1.58 -1.073,1.892c-0.492,-0.241 -4.313,-2.111 -5.129,-3.901c-0.657,-1.441 -1.679,-0.32 -1.798,-0.343l-1.746,-1.98c0.591,-4.855 -0.952,-4.757 -0.737,-9.598Z" style="fill:#d79f7b;"/><path d="M536.614,308.136c-0.834,0.693 -6.583,5.468 -10.874,8.364c-0.379,-0.469 -1.459,-0.457 -1.838,-0.926c-0.038,-0.047 1.482,-3.996 1.615,-4.342c6.632,-17.229 4.935,-17.641 7.607,-31.885c2.717,-14.482 6.597,2.54 5.413,10.308c-1.65,10.827 -4.976,14.392 -1.923,18.481Z" style="fill:#dc9a94;"/><path d="M548.153,696.306c-1.111,-0.37 -2.271,-0.657 -3.382,-1.027c-9.569,-3.192 5.833,-2.731 8.546,-10.189c0.116,-0.319 2.535,-6.968 5.621,0.062c2.503,5.703 4.595,4.982 9.833,6.566c5.023,1.519 -5.134,4.209 -6.824,5.571c-3.168,2.551 -3.479,5.54 -3.773,5.923c-3.705,4.819 -2.358,-2.363 -10.022,-6.905Z" style="fill:#eac08d;"/><path d="M561.499,247.361c-5.854,23.301 -5.797,23.24 -6.695,29.325c-0.537,3.64 -4.236,4.325 -5.267,0.815c-2.317,-7.884 4.904,-38.524 11.292,-35.957c0.998,0.401 0.699,5.351 0.67,5.817Z" style="fill:#fdd5c7;"/><path d="M681.983,690.838c20.309,5.527 -0.882,21.56 -9.982,12.28c-2.191,-2.235 -6.13,-12.724 9.982,-12.28Z" style="fill:#e6ca99;"/><path d="M422.945,516.835c5.157,2.711 11.291,4.5 12.767,11.254c1.04,4.761 0.59,4.739 1.91,9.453c0.727,2.596 -21.614,1.946 -21.825,-2.602c-0.092,-1.977 0.168,-1.979 -1.088,-3.754c8.899,-8.854 6.287,2.859 9.028,4.271c2.466,1.27 10.885,-6.075 0.586,-12.417c-3.646,-2.245 -2.204,-2.774 -1.377,-6.205Z" style="fill:#d99d6c;"/><path d="M279.746,813.162c-6.928,-8.81 4.443,-12.469 9.468,-12.128c17.668,1.198 4.473,23.272 -9.468,12.128Z" style="fill:#e79fa7;"/><path d="M662.723,602.342c-0.446,1.312 -0.235,6.07 -8.869,6.928c-14.974,1.489 -15.41,-17.044 2.221,-14.287c5.791,0.905 6.555,6.656 6.649,7.359Z" style="fill:#e6a1a7;"/><path d="M626.873,649.226c6.383,-2.365 5.253,-3.204 7.92,-8.129c1.668,-3.08 4.592,3.257 4.769,3.64c2.511,5.443 16.114,5.518 9.411,7.496c-7.895,2.33 -7.39,3.028 -10.993,8.642c-1.774,2.764 -4.427,-2.73 -4.593,-3.075c-2.389,-4.947 -9.8,-5.683 -9.818,-5.69c-3.365,-1.166 2.916,-2.785 3.304,-2.885Z" style="fill:#fcdedb;"/><path d="M414.369,511.66c-0.032,11.612 -4.456,15.782 -20.256,23.569c-0.506,-0.349 -0.624,-2.241 -2.565,-0.964c-0.316,0.208 -2.811,1.849 -5.128,1.013c-2.602,-0.939 3.443,-3.633 3.888,-3.832c1.507,-0.672 15.439,-10.761 19.231,-15.286c2.066,-2.465 1.828,-2.534 4.831,-4.501Z" style="fill:#dfa476;"/><path d="M320.716,548.802c0.206,-0.635 2.033,-6.268 6.174,-6.792c8.615,-1.089 0.794,11.253 16.39,9.999c2.735,2.703 2.13,3.261 1.875,3.496c-3.915,3.608 -9.52,-0.539 -12.079,-1.931c-5.656,-3.076 -6.201,-2.239 -12.36,-4.773Z" style="fill:#f1cb9b;"/><path d="M858.928,623.113c2.312,-7.794 10.762,-5.227 12.373,-4.203c11.663,7.417 -11.662,16.333 -12.373,4.203Z" style="fill:#e8a7ae;"/><path d="M510.452,658.107c-11.173,-3.258 -3.422,-9.71 -3.373,-9.742c9.683,-6.344 21.318,9.816 3.373,9.742Z" style="fill:#e6a6ab;"/><path d="M335.179,865.222c12.013,-0.794 9.229,6.952 8.92,7.383c-6.846,9.529 -23.34,-2.886 -8.92,-7.383Z" style="fill:#e4cb9d;"/><path d="M429.594,786.358c0.029,-0.105 -0.234,-3.331 4.304,-5.182c0.487,-0.199 4.897,-1.997 6.899,-0.713c11.818,7.578 -9.365,17.191 -11.204,5.895Z" style="fill:#eac08d;"/><path d="M220.268,866.672c1.204,-8.446 10.99,-5.044 12.351,-4.185c10.127,6.392 -9.513,15.314 -12.351,4.185Z" style="fill:#e5c99b;"/><path d="M493.17,813.944c-0.018,-0.517 -0.162,-4.669 2.986,-6.08c0.482,-0.216 3.703,-1.659 7.016,-0.556c12.835,4.273 -4.906,17.219 -10.002,6.636Z" style="fill:#e8a7b0;"/><path d="M584.566,726.017c0.576,-0.179 5.255,-1.629 7.813,0.123c2.01,1.376 3.47,3.967 3.06,5.842c-1.802,8.251 -23.911,2.616 -10.873,-5.965Z" style="fill:#e39ca4;"/><path d="M689.185,635.711c-0.749,-0.122 -7.221,-1.177 -6.958,-4.851c0.584,-8.144 16.269,-6.117 14.88,0.836c-0.825,4.127 -7.265,3.932 -7.923,4.015Z" style="fill:#eabd8f;"/><path d="M354.92,508.979c-11.767,8.47 -13.414,-8.946 -2.223,-8.943c8.671,0.002 2.686,8.301 2.223,8.943Z" style="fill:#f8bdc0;"/><path d="M412.597,805.333c-6.073,10.198 -19.286,-1.596 -9.374,-5.268c1.082,-0.401 10.054,-2.476 9.374,5.268Z" style="fill:#fce5da;"/><path d="M416.433,740.902c0.788,-0.098 9.036,-1.12 7.4,4.931c-1.644,6.08 -18.251,1.507 -7.4,-4.931Z" style="fill:#e5a7af;"/><path d="M719.798,737.622c-0.288,-0.084 -3.636,-0.381 -4.366,-3.144c-0.738,-2.792 1.585,-4.02 1.98,-4.229c7.233,-3.826 13.822,7.167 2.386,7.374Z" style="fill:#e2a7ad;"/><path d="M520.922,671.883c11.714,2.274 1.65,11.949 -4.319,6.301c-1.788,-1.691 -0.511,-3.811 -0.329,-4.112c1.36,-2.257 4.276,-2.132 4.648,-2.189Z" style="fill:#e2c89b;"/><path d="M172.729,851.651c-12.637,-1.399 -2.402,-11.546 3.445,-6.483c1.703,1.475 0.979,3.818 0.823,4.123c-1.173,2.297 -3.554,2.202 -4.268,2.36Z" style="fill:#e2a6ae;"/><path d="M714.427,645.543c-2.577,8.469 -14.9,0.356 -7.537,-3.325c5.976,-2.988 7.411,2.816 7.537,3.325Z" style="fill:#fee1dc;"/><path d="M591.589,675.711c8.546,5.917 -7.98,8.947 -8.051,2.67c-0.068,-5.962 7.433,-2.921 8.051,-2.67Z" style="fill:#fde1de;"/><path d="M832.284,676.685c0.055,-0.526 0.642,-6.154 7.514,-3.606c7.379,2.735 -3.284,11.739 -7.514,3.606Z" style="fill:#e4cca2;"/><path d="M303.109,861.633c-3.726,-5.502 3.066,-5.562 3.742,-5.568c7.404,-0.066 4.873,10.843 -3.742,5.568Z" style="fill:#e0a6ad;"/><path d="M679.265,568.704c-1.864,8.066 -13.336,1.269 -7.623,-2.494c4.487,-2.955 7.363,2.042 7.623,2.494Z" style="fill:#e2a4ac;"/><path d="M338.132,799.32c0.147,-0.483 1.816,-5.98 7.255,-3.132c6.063,3.175 -4.44,10.59 -7.255,3.132Z" style="fill:#e2c89e;"/><path d="M225.219,822.606c0.17,-0.397 2.059,-4.812 6.251,-2.45c5.679,3.2 -4.991,9.5 -6.251,2.45Z" style="fill:#e4cfa9;"/><path d="M546.791,652.826c9.221,2.762 0.576,8.323 -3.469,4.798c-4.149,-3.615 2.89,-4.708 3.469,-4.798Z" style="fill:#e2acb1;"/><path d="M272.467,844.086c-8.228,4.332 -8.712,-4.485 -3.218,-4.75c5.315,-0.256 3.388,4.344 3.218,4.75Z" style="fill:#fee6e3;"/><path d="M303.169,482.804c3.141,1.262 4.512,1.558 2.472,3.748c-0.359,0.386 -0.794,0.853 -7.788,1.185c0.405,-2.412 -0.1,-3.196 5.316,-4.933Z" style="fill:#efcc95;"/><path d="M316.396,837.554c-4.05,0.501 -5.544,0.173 -4.628,-2.791c1.176,-3.806 11.483,-0.874 4.628,2.791Z" style="fill:#fedfde;"/><path d="M382.193,394.182c-2.202,6.486 -9.406,-1.482 -4.854,-2.73c3.403,-0.933 4.717,2.385 4.854,2.73Z" style="fill:#feb3b7;"/><path d="M740.14,628.884c3.458,4.767 -6.748,5.089 -5.352,1.055c1.078,-3.114 4.981,-1.233 5.352,-1.055Z" style="fill:#feddd7;"/><path d="M625.425,701.692c0.107,-0.293 1.236,-3.397 4.728,-1.534c3.774,2.014 -2.576,6.606 -4.728,1.534Z" style="fill:#f6ede8;"/><path d="M465.289,758.809c0.211,-2.205 -0.309,-3.014 2.726,-2.967c4.239,0.067 2.323,6.767 -2.726,2.967Z" style="fill:#fedfdd;"/><path d="M668.841,656.074c-0.123,-0.274 -1.615,-3.588 2.73,-2.993c2.994,0.41 2.806,5.921 -2.73,2.993Z" style="fill:#fededd;"/><path d="M526.9,735.467c-1.551,1.152 -3.102,2.303 -4.653,3.455c-1.152,-2.328 -1.84,-2.376 -0.905,-3.25c0.172,-0.16 1.414,-1.32 3.123,-1.109c0.897,0.111 1.538,0.792 2.435,0.903Z" style="fill:#f2d1d1;"/><path d="M502.104,733.666c-0.187,-2.09 -0.473,-2.988 2.385,-2.662c2.778,0.316 2.31,5.749 -2.385,2.662Z" style="fill:#fedede;"/><path d="M597.063,268.718c-0.167,0.434 0.782,0.842 0.615,1.277c-0.073,0.19 -0.338,-0.048 -2.656,1.504c-0.155,0.104 -4.95,3.317 -2.624,0.058c1.518,-2.126 2.522,-1.322 4.665,-2.839Z" style="fill:#7a4139;"/><path d="M700.668,218.687c-1.501,0.586 -1.372,0.657 -3.182,0.737c0.085,-2.139 1.88,-2.697 3.182,-0.737Z" style="fill:#92534a;"/></g></svg>