<?xml version="1.0" encoding="UTF-8" standalone="no"?><!DOCTYPE svg PUBLIC "-//W3C//DTD SVG 1.1//EN" "http://www.w3.org/Graphics/SVG/1.1/DTD/svg11.dtd"><svg width="100%" height="100%" viewBox="0 0 2048 2048" version="1.1" xmlns="http://www.w3.org/2000/svg" xmlns:xlink="http://www.w3.org/1999/xlink" xml:space="preserve" xmlns:serif="http://www.serif.com/" style="fill-rule:evenodd;clip-rule:evenodd;stroke-linejoin:round;stroke-miterlimit:2;"><g id="Background"><path d="M1506.155,897.187c-0.267,-14.025 -73.582,-48.065 -70.054,-118.366c3.706,-73.852 100.108,-134.226 175.284,-63.042c17.094,16.186 15.145,18.096 209.241,206.817c60.299,58.63 27.401,125.924 3.183,149.89c-204.128,202.006 -203.897,202.213 -222.577,218.799c-69.377,61.6 -200.211,-13.517 -157.557,-115.847c16.614,-39.858 75.179,-75.822 60.34,-76.024c-9.663,-0.131 -113.294,-1.535 -120.787,0.704c-5.264,1.572 -2.625,4.401 -3.184,265.344c-0.524,244.814 5.036,248.341 -18.146,281.196c-37.312,52.88 -76.755,45.215 -180.881,45.429c-66.579,0.137 -137.704,-0.086 -238.534,-0.259c-15.431,-0.027 -12.033,6.44 -11.857,21.607c0.244,20.908 12.833,107.376 -67.483,125.032c-19.81,4.355 -21.782,4.788 -244.11,-68.274c-22.408,-7.363 -237.054,-76.583 -240.665,-77.512c-27.685,-7.127 -137.833,25.263 -176.586,-63.232c-9.956,-22.736 -7.734,-23.628 -8.171,-261.434c-1.098,-595.996 -0.504,-600.857 5.827,-652.698c36.706,-300.571 357.095,-600.099 766.207,-480.34c126.811,37.121 414.674,197.467 414.443,576.779c-0.05,81.873 -0.991,83.772 3.193,84.939c2.434,0.678 83.011,0.414 122.872,0.494l0.001,0Z" style="fill:#e481ac;"/><path d="M444.565,626.137c3.483,-6.08 27.363,-47.766 51.963,-70.615c165.797,-153.993 380.916,-8.58 396.474,235.964c3.121,49.053 1.504,598.174 1.35,650.19c-0.937,318.481 5.371,320.42 -6.738,339.836c-23.578,37.809 -68.564,15.662 -75.912,13.218c-285.4,-94.885 -286.036,-92.097 -310.774,-100.504c-58.734,-19.964 -100.526,-30.805 -104.247,-34.467c-1.541,-1.516 -1.49,-18.376 -1.486,-19.978c0.135,-44.688 0.056,-557.037 0.091,-563.871c1.464,-284.441 -10.776,-326.988 49.275,-449.772l0.003,-0Z" style="fill:#f8b7d9;"/><path d="M358.755,1027.644c0.35,624.673 0.2,625.371 -1.517,626.762c-1.002,0.81 -65.446,4.539 -83.644,-3.094c-51.087,-21.429 -43.02,-56.999 -43.465,-163.92c-0.038,-9.382 0.068,-679.977 0.328,-698.497c5.063,-359.766 360.973,-642.247 742.637,-512.65c185.013,62.822 369.521,250.451 370.15,525.353c0.213,92.78 0.292,94.09 -2.794,95.07c-0.655,0.208 -121.008,1.728 -123.78,-0.819c-13.428,-12.342 37.32,-176.255 -101.205,-344.038c-102.925,-124.664 -340.8,-236.638 -579.853,-71.588c-38.693,26.715 -119.227,66.649 -164.365,237.729c-14.851,56.288 -12.422,104.382 -12.492,309.692l0.001,0Z" style="fill:#fdfcfc;"/><path d="M660.873,457.93c0.022,-0.719 -1.248,-1.063 -1.226,-1.782c0.097,-3.203 1.758,-1.792 7.84,-3.522c266.64,-75.836 474.343,106.922 506.3,313.342c6.702,43.288 4.447,127.694 3.664,129.036c-1.243,2.13 -17.915,2.144 -19.483,2.145c-70.877,0.057 -70.807,-0.067 -76.963,-0.004c-102.971,1.06 -144.064,138.608 -48.111,190.285c51.712,27.85 142.456,1.473 145.056,16.509c0.625,3.613 0.254,437.031 0.171,439.285c-0.204,5.455 -10.545,4.407 -12.466,4.402c-230.492,-0.513 -234.716,1.944 -235.188,-4.427c-1.171,-15.773 0.145,-644.887 0.262,-700.964c0.573,-274.174 -160.84,-379.758 -269.853,-384.307l-0.001,0.003Z" style="fill:#fdfdfc;"/><path d="M1817.936,997.159c-2.83,47.806 -28.607,53.825 -133.01,161.161c-8.75,8.995 -92.093,94.68 -112.456,109.421c-48.023,34.765 -151.658,-31.544 -71.593,-108.739c70.453,-67.926 70.308,-69.703 69.628,-78.005c-2.407,-29.38 -19.382,-14.872 -276.627,-17.95c-223.238,-2.671 -227.189,6.923 -253.443,-13.199c-40.89,-31.341 -35.904,-116.274 48.264,-116.381c152.175,0.113 304.349,0.225 456.524,0.338c2.714,0.003 29.979,0.034 24.858,-22.852c-4.427,-19.777 -85.045,-70.843 -95.806,-112.086c-14.511,-55.612 58.002,-109.26 111.096,-57.345c17.035,16.656 209.166,204.522 212.606,208.539c20.431,23.858 18.736,36.299 19.959,47.099l-0,-0.001Z" style="fill:#f8b6d9;"/><path d="M1343.459,1207.985c0.038,30.687 0.458,371.266 -0.095,383.589c-1.807,40.244 -38.143,63.08 -62.295,63.951c-4.141,0.15 -346.108,0.127 -346.352,0.093c-5.339,-0.744 -4.49,-3.406 -4.195,-66.609c0.035,-7.437 4.656,-5.339 101.753,-5.632c168.588,-0.509 177.291,5.273 182.257,-14.662c1.815,-7.286 -2.147,-463.664 2.184,-467.661c4.493,-4.147 108.737,-1.561 118.189,-1.327c6.511,0.161 8.31,0.076 8.398,6.642c0.29,21.412 0.076,40.631 0.158,101.617l-0.001,0Z" style="fill:#fdfcfc;"/><path d="M824.843,1107.18c48.355,-14.357 76.699,42.901 5.55,96.781c-19.066,14.439 -21.486,18.827 -33.505,10.864c-88.079,-58.363 -55.726,-105.946 -31.149,-109.918c32.781,-5.297 36.01,23.608 44.595,12.844c5.825,-7.305 6.609,-6.036 14.509,-10.57Z" style="fill:#e681ab;"/><path d="M852.077,306.224c-1.023,4.765 -0.047,30.617 -48.246,65.865c-14.024,10.257 -16.181,11.222 -29.979,1.857c-98.357,-66.757 -33.266,-131.225 6.486,-94.963c12.508,11.41 12.247,-3.94 28.611,-8.795c2.177,-0.646 16.322,-4.841 28.214,3.364c16.992,11.726 14.79,27.878 14.914,32.672Z" style="fill:#e583ae;"/><path d="M1101.659,489.053c-1.847,-2.522 -16.208,-22.144 -16.4,-35.387c-0.028,-1.943 -0.214,-14.754 8.78,-22.68c20.472,-18.039 40.641,10.037 47.344,3.663c23.616,-22.464 46.617,-2.306 47.511,13.868c1.718,31.1 -26.961,50.01 -36.661,57.663c-13.343,10.528 -20.262,12.244 -50.574,-17.127Z" style="fill:#e585b0;"/><path d="M1225.584,758.404c1.348,-11.487 13.061,-43.733 48.273,-15.93c8.052,6.358 17.151,-18.55 40.835,-7.554c44.091,20.467 -23.092,98.345 -43.616,84.011c-37.964,-26.515 -43.869,-39.572 -45.492,-60.527l0.001,0Z" style="fill:#e583ad;"/><path d="M249.417,742.724c2.215,-2.463 19.628,-21.82 41.573,-2.021c10.4,9.383 17.713,-14.261 38.525,-7.642c41.218,13.112 4.359,74.392 -31.022,88.053c-7.721,2.982 -72.524,-40.15 -49.077,-78.392l-0,0.001Z" style="fill:#e584ae;"/><path d="M411.654,424.683c21.054,3.47 20.296,18.11 29.12,9.841c31.876,-29.871 80.14,16.274 18.016,65.962c-16.403,13.119 -19.113,18.838 -36.377,5.729c-67.029,-50.892 -29.6,-80.376 -10.759,-81.532Z" style="fill:#e584ae;"/><path d="M1280.247,1412.483c34.936,-37.069 81.357,18.079 17.798,66.033c-18.301,13.808 -21.847,12.802 -39.719,-1.737c-70.724,-57.535 -8.789,-91.99 16.726,-66.989c2.781,2.725 4.713,2.443 5.195,2.694Z" style="fill:#e584ad;"/><path d="M346.49,1423.971c-0.43,17.032 -2.339,32.837 -39.388,59.303c-15.839,11.314 -17.717,4.853 -33.106,-7.235c-63.841,-50.145 -11.339,-95.913 18.024,-65.747c6.827,7.014 10.56,-9.816 29.815,-9.352c8.084,0.194 14.277,4.493 15.34,5.231c8.678,6.024 6.504,7.577 9.315,17.8Z" style="fill:#e682ac;"/><path d="M270.534,1066.945c12.012,2.725 12.206,2.408 21.573,10.295c6.436,5.418 26.073,-22.648 46.832,-2.985c30.374,28.772 -33.116,87.802 -47.517,79.717c-46.834,-26.293 -69.096,-80.094 -20.89,-87.028l0.001,0.001Z" style="fill:#e685ae;"/></g></svg>