<?xml version="1.0" encoding="UTF-8" standalone="no"?><!DOCTYPE svg PUBLIC "-//W3C//DTD SVG 1.1//EN" "http://www.w3.org/Graphics/SVG/1.1/DTD/svg11.dtd"><svg width="100%" height="100%" viewBox="0 0 2048 2048" version="1.1" xmlns="http://www.w3.org/2000/svg" xmlns:xlink="http://www.w3.org/1999/xlink" xml:space="preserve" xmlns:serif="http://www.serif.com/" style="fill-rule:evenodd;clip-rule:evenodd;stroke-linejoin:round;stroke-miterlimit:2;"><g id="Background"><path d="M1446.535,946.273c-0.208,-11.043 -57.379,-37.846 -54.628,-93.201c2.89,-58.151 78.064,-105.689 136.687,-49.639c13.33,12.745 11.81,14.249 163.166,162.847c47.021,46.165 21.367,99.152 2.482,118.023c-159.179,159.059 -158.999,159.222 -173.566,172.282c-54.1,48.504 -156.125,-10.643 -122.863,-91.218c12.956,-31.384 58.625,-59.702 47.053,-59.861c-7.535,-0.103 -88.347,-1.209 -94.19,0.554c-4.105,1.238 -2.047,3.465 -2.483,208.931c-0.409,192.766 3.927,195.543 -14.15,221.413c-29.096,41.638 -59.854,35.602 -141.051,35.771c-51.918,0.108 -107.382,-0.068 -186.009,-0.204c-12.033,-0.021 -9.383,5.071 -9.246,17.013c0.19,16.463 10.007,84.548 -52.623,98.45c-15.448,3.429 -16.986,3.77 -190.357,-53.759c-17.474,-5.798 -184.855,-60.301 -187.671,-61.033c-21.589,-5.612 -107.482,19.892 -137.702,-49.789c-7.764,-17.902 -6.031,-18.605 -6.372,-205.853c-0.856,-469.286 -0.393,-473.114 4.544,-513.933c28.623,-236.669 278.463,-472.517 597.489,-378.219c98.887,29.229 323.363,155.485 323.183,454.155c-0.039,64.467 -0.773,65.962 2.49,66.881c1.898,0.534 64.732,0.326 95.816,0.389Z" style="fill:#e481ac;"/><path d="M618.706,732.849c2.716,-4.787 21.338,-37.611 40.521,-55.602c129.289,-121.254 297.039,-6.756 309.171,185.798c2.434,38.624 1.173,471.001 1.053,511.958c-0.731,250.771 4.188,252.298 -5.254,267.586c-18.386,29.771 -53.466,12.332 -59.196,10.408c-222.555,-74.712 -223.051,-72.517 -242.342,-79.137c-45.801,-15.72 -78.39,-24.256 -81.292,-27.139c-1.202,-1.194 -1.162,-14.469 -1.159,-15.731c0.105,-35.187 0.044,-438.61 0.071,-443.991c1.142,-223.968 -8.403,-257.47 38.425,-354.15Z" style="fill:#f8b7d9;"/><path d="M551.791,1048.995c0.273,491.866 0.156,492.416 -1.183,493.511c-0.781,0.638 -51.035,3.574 -65.226,-2.436c-39.838,-16.873 -33.547,-44.881 -33.894,-129.07c-0.03,-7.387 0.053,-535.413 0.256,-549.995c3.948,-283.279 281.487,-505.704 579.109,-403.66c144.273,49.466 288.153,197.205 288.643,413.662c0.166,73.055 0.228,74.086 -2.179,74.858c-0.511,0.164 -94.362,1.361 -96.524,-0.645c-10.471,-9.718 29.102,-138.783 -78.92,-270.895c-80.261,-98.16 -265.756,-186.328 -452.17,-56.368c-30.173,21.035 -92.973,52.479 -128.172,187.187c-11.581,44.321 -9.687,82.19 -9.741,243.851Z" style="fill:#fdfcfc;"/><path d="M787.383,600.403c0.017,-0.566 -0.973,-0.837 -0.956,-1.403c0.076,-2.522 1.371,-1.411 6.114,-2.773c207.926,-59.713 369.893,84.19 394.813,246.725c5.226,34.085 3.468,100.546 2.857,101.603c-0.969,1.677 -13.97,1.688 -15.193,1.689c-55.27,0.045 -55.215,-0.053 -60.016,-0.003c-80.297,0.835 -112.341,109.14 -37.517,149.83c40.325,21.929 111.087,1.16 113.115,12.999c0.487,2.845 0.198,344.117 0.133,345.892c-0.159,4.295 -8.223,3.47 -9.721,3.466c-179.738,-0.404 -183.032,1.531 -183.4,-3.486c-0.913,-12.42 0.113,-507.783 0.204,-551.938c0.447,-215.884 -125.423,-299.021 -210.432,-302.603Z" style="fill:#fdfdfc;"/><path d="M1689.662,1024.991c-2.207,37.642 -22.308,42.382 -103.721,126.898c-6.823,7.083 -71.814,74.551 -87.693,86.158c-37.448,27.374 -118.263,-24.838 -55.828,-85.621c54.939,-53.485 54.826,-54.884 54.296,-61.421c-1.877,-23.134 -15.114,-11.71 -215.714,-14.134c-174.081,-2.103 -177.162,5.451 -197.635,-10.393c-31.886,-24.678 -27.998,-91.554 37.636,-91.638c118.666,0.089 237.332,0.177 355.998,0.266c2.116,0.002 23.378,0.027 19.384,-17.994c-3.452,-15.572 -66.318,-55.782 -74.71,-88.256c-11.316,-43.789 45.23,-86.031 86.633,-45.153c13.284,13.115 163.108,161.04 165.79,164.203c15.932,18.786 14.61,28.582 15.564,37.086Z" style="fill:#f8b6d9;"/><path d="M1319.664,1190.995c0.03,24.163 0.357,292.334 -0.074,302.037c-1.409,31.688 -29.744,49.669 -48.578,50.355c-3.229,0.118 -269.895,0.1 -270.086,0.073c-4.163,-0.586 -3.501,-2.682 -3.271,-52.448c0.027,-5.856 3.631,-4.204 79.347,-4.435c131.465,-0.401 138.252,4.152 142.124,-11.545c1.415,-5.737 -1.674,-365.088 1.703,-368.235c3.504,-3.265 84.793,-1.229 92.164,-1.045c5.077,0.127 6.48,0.06 6.549,5.23c0.226,16.86 0.059,31.993 0.123,80.013Z" style="fill:#fdfcfc;"/><path d="M915.247,1111.621c37.707,-11.305 59.81,33.78 4.328,76.205c-14.868,11.369 -16.755,14.824 -26.127,8.554c-68.684,-45.955 -43.455,-83.422 -24.29,-86.549c25.563,-4.171 28.081,18.589 34.775,10.113c4.542,-5.752 5.154,-4.753 11.314,-8.323Z" style="fill:#e681ab;"/><path d="M936.484,480.95c-0.798,3.752 -0.037,24.108 -37.622,51.862c-10.936,8.076 -12.618,8.836 -23.378,1.462c-76.699,-52.564 -25.941,-103.326 5.058,-74.774c9.754,8.984 9.55,-3.102 22.311,-6.925c1.698,-0.509 12.728,-3.812 22.001,2.649c13.25,9.233 11.533,21.951 11.63,25.726Z" style="fill:#e583ae;"/><path d="M1131.108,624.909c-1.44,-1.986 -12.639,-17.436 -12.789,-27.864c-0.022,-1.53 -0.167,-11.617 6.847,-17.858c15.964,-14.204 31.692,7.903 36.919,2.884c18.416,-17.688 36.352,-1.816 37.049,10.92c1.34,24.488 -21.024,39.378 -28.588,45.404c-10.405,8.29 -15.8,9.641 -39.438,-13.486Z" style="fill:#e585b0;"/><path d="M1227.745,836.996c1.051,-9.045 10.185,-34.435 37.643,-12.543c6.279,5.006 13.374,-14.606 31.843,-5.948c34.382,16.116 -18.007,77.437 -34.012,66.15c-29.604,-20.878 -34.209,-31.159 -35.475,-47.659Z" style="fill:#e583ad;"/><path d="M466.529,824.649c1.727,-1.939 15.306,-17.181 32.419,-1.591c8.11,7.388 13.813,-11.229 30.042,-6.017c32.142,10.324 3.399,58.576 -24.191,69.333c-6.021,2.348 -56.554,-31.614 -38.27,-61.726Z" style="fill:#e584ae;"/><path d="M593.042,574.224c16.418,2.732 15.827,14.26 22.708,7.749c24.857,-23.52 62.493,12.814 14.049,51.938c-12.791,10.33 -14.904,14.833 -28.367,4.511c-52.269,-40.072 -23.082,-63.288 -8.39,-64.198Z" style="fill:#e584ae;"/><path d="M1270.371,1352.016c27.243,-29.188 63.442,14.235 13.879,51.994c-14.271,10.872 -17.036,10.08 -30.973,-1.368c-55.151,-45.303 -6.854,-72.433 13.043,-52.747c2.169,2.146 3.675,1.924 4.051,2.121Z" style="fill:#e584ad;"/><path d="M542.227,1361.062c-0.335,13.411 -1.824,25.856 -30.715,46.695c-12.351,8.909 -13.816,3.821 -25.816,-5.697c-49.783,-39.484 -8.842,-75.522 14.055,-51.769c5.324,5.523 8.235,-7.729 23.25,-7.364c6.304,0.153 11.133,3.538 11.962,4.119c6.767,4.743 5.072,5.966 7.264,14.016Z" style="fill:#e682ac;"/><path d="M482.996,1079.94c9.367,2.146 9.518,1.896 16.823,8.106c5.019,4.266 20.332,-17.833 36.52,-2.35c23.686,22.655 -25.824,69.135 -37.054,62.769c-36.521,-20.703 -53.881,-63.066 -16.29,-68.526Z" style="fill:#e685ae;"/></g></svg>