<?xml version="1.0" encoding="UTF-8" standalone="no"?><!DOCTYPE svg PUBLIC "-//W3C//DTD SVG 1.1//EN" "http://www.w3.org/Graphics/SVG/1.1/DTD/svg11.dtd"><svg width="100%" height="100%" viewBox="0 0 2048 2048" version="1.1" xmlns="http://www.w3.org/2000/svg" xmlns:xlink="http://www.w3.org/1999/xlink" xml:space="preserve" xmlns:serif="http://www.serif.com/" style="fill-rule:evenodd;clip-rule:evenodd;stroke-linejoin:round;stroke-miterlimit:2;"><g id="Background"><path d="M352.52,1532.228c-32.553,23.816 -52.432,42.969 -69.779,43.044c-3.404,-3.495 -3.512,-3.389 -3.676,-3.775c-3.102,-7.298 -3.323,-11.347 74.463,-66.379c10.032,-7.097 6.248,-9.32 4.491,-21.402c-5.33,-36.647 15.537,-27.547 112.606,-92.947c21.986,-14.813 11.934,-23.164 25.317,-74.788c13.842,-53.394 50.149,-33.093 61.887,-21.565c6.921,6.797 5.533,7.734 11.974,14.776c6.183,6.759 29.999,-36.904 79.624,-73.722c67.853,-50.343 93.514,-38.252 95.191,-52.462c1.849,-15.674 0.346,-15.825 19.097,-128.872c10.637,-64.133 17.653,-67.708 0.405,-85.592c-116.11,-120.389 -225.839,-203.247 -192.161,-275.984c31.26,-67.515 286.896,-77.34 329.692,-96.149c6.055,-2.661 47.717,-92.724 73.606,-140.061c34.334,-62.779 98.765,-213.728 185.338,-125.696c48.65,49.47 135.906,244.246 148.297,263.193c10.636,16.263 274.231,30.039 322.98,84.843c61.274,68.884 -58.395,163.578 -185.635,294.073c-8.372,8.587 -7.921,13.188 -4.094,36.413c1.268,7.697 14.393,87.356 16.536,96.103c3.042,12.423 34.062,-17.563 64.692,19.924c1.354,1.657 10.767,-1.549 11.66,-1.853c5.185,-1.766 44.71,-15.226 68.561,-1.284c32.825,19.187 18.488,49.852 17.946,54.923c-0.528,4.943 12.533,1.811 25.826,6.293c18.997,6.405 78.418,30.05 -34.346,141.921c-90.338,89.623 -98.627,121.196 -187.723,159.11c-178.606,76.005 -176.171,81.641 -228.539,98.349c-76.645,24.454 -315.283,-34.661 -402.717,4.415c-8.577,3.833 16.588,8.5 27.58,38.196c17.254,46.617 -38.013,39.768 -86.445,50.467c-15.596,3.445 -12.684,8.357 -88.161,118.379c-21.522,31.373 -40.902,0.091 -48.064,7.701c-27.127,28.819 -54.198,94.36 -76.843,71.974c1.999,-6.689 0.746,-7.524 41.706,-61.926c13.837,-18.378 22.706,-20.537 12.133,-28.241c-84.263,-61.402 -71.535,-149.417 -71.398,-154.543c0.149,-5.568 -2.699,-3.184 -8.252,-3.881c-5.712,-0.717 -42.164,-5.294 -67.835,-23.705c-46.667,-33.47 -53.68,-62.746 -59.532,-76.478c-2.381,-5.589 -8.435,0.507 -16.405,7.21Z" style="fill:#a96f61;"/><path d="M1083.99,333.37c7.014,-3.909 19.923,-12.341 37.376,-4.518c59.093,26.487 147.683,249.274 171.679,280.754c3.084,4.047 8.142,10.681 61.519,18.192c21.376,3.008 105.11,17.378 114.24,18.945c122.867,22.772 145.33,36.521 155.889,61.749c-16.385,13.503 -33.475,50.658 -90.866,90.835c-4.412,3.089 -68.683,54.712 -74.636,59.494c-1.454,1.168 -52.915,45.049 -68.849,70.956c-1.272,2.069 -8.52,13.853 -10.685,28.338c-0.102,0.681 0.789,1.462 0.393,2.029c-0.787,1.124 -2.646,1.19 -3.433,2.315c-3.481,-10.583 -1.26,-13.774 -5.685,-12.756c-1.6,0.368 -1.519,8.388 -1.785,10.489c-1.458,11.556 -19.711,11.779 -10.876,14.621c18.235,5.866 6.209,26.152 14.726,19.895c4.904,-3.603 -2.29,-7.803 7.66,-16.982c-0.387,5.644 -0.466,6.793 7.919,70.284c6.219,47.093 6.828,46.886 12.56,94.05c5.782,47.585 5.465,57.798 -6.156,81.38c-1.553,3.152 -8.915,18.091 -40.478,18.141c-19.016,0.03 -75.216,-26.755 -99.547,-36.426c-23.157,-9.204 -101.344,-67.066 -145.713,-70.723c-39.867,-3.286 -120.136,52.843 -143.563,62.557c-6.138,2.545 -7.386,5.825 -8.025,6.33c-64.87,-17.317 -80.404,-23.468 -145.569,-23.529c-0.357,-1.127 -3.784,-4.3 1.427,-39.777c1.681,-11.447 17.399,-118.448 21.925,-142.954c8.258,-44.717 10.534,-59.293 -155.909,-188.741c-52.148,-40.557 -48.403,-44.329 -92.081,-93.672c4.174,-16.085 7.15,-17.549 16.036,-25.266c7.366,4.04 8.506,3.163 25.775,3.592c2.675,0.067 20.335,0.506 33.353,-2.524c69.733,-16.23 210.765,-21.649 257.044,-46.333c61.062,-32.569 121.232,-245.785 164.516,-303.88c2.544,-3.415 1.201,-3.624 -0.18,-6.864Z" style="fill:#fade91;"/><path d="M1637.355,1202.814c4.212,29.344 -31.011,49.326 -166.375,187.084c-35.545,36.173 -94.522,48.341 -241.424,109.79c-12.833,5.368 -63.572,19.048 -99.57,22.233c-11.444,1.012 -26.568,2.35 -143.275,-9.824c-87.491,-9.127 -158.081,-29.27 -234.487,-0.843c-6.66,2.478 -6.829,1.64 -12.904,5.534c-12.49,-4.974 -12.45,-4.457 -24.819,-6.437c-7.343,-1.175 2.383,-15.242 -4.787,-38.6c-15.39,-50.137 -67.023,-44.07 -68.09,-45.018c-2.139,-1.902 -0.825,-2.4 0.567,-12.401c4.064,-29.206 -16.591,-66.962 -52.409,-66.372c-8.546,0.141 -9.43,-1.041 -10.735,-9.335c-0.779,-4.952 0.595,-4.945 41.501,-47.469c110.266,-114.629 214.952,-103.45 351.694,-61.333c145.712,44.88 192.959,10.759 276.285,26.683c42.564,8.134 75.088,34.832 54.986,70.638c-0.226,-0.024 -1.941,-2.272 -5.174,-0.539c-43.237,23.175 -82.031,20.711 -89.351,20.247c-77.579,-4.926 -81.993,0.514 -137.171,7.815c-7.546,0.998 -54.591,7.223 -85.703,40.736c-0.438,0.472 -4.871,5.247 -4.572,6.609c0.304,1.384 3.211,1.081 3.515,2.465c-3.909,5.414 -3.781,6.083 -0.383,11.781c-0.424,0.953 -1.903,1.167 -2.327,2.12c-0.139,0.312 5.18,12.276 14.714,11.935c15.183,-0.542 72.655,-10.884 78.941,-12.016c28.131,-5.062 157.615,12.817 215.579,-27.288c20.288,-14.037 27.541,-23.911 29.409,-26.453c28.376,-7.454 28.191,-7.487 56.274,-15.834c56.479,-16.787 49.796,-28.328 123.836,-88.847c45.555,-37.235 92.662,-66.576 136.256,-57.059Z" style="fill:#f5e2d8;"/><path d="M1624.693,708.493c5.84,32.964 -11.635,61.554 -72.291,125.341c-106.583,112.082 -129.891,121.533 -133.866,146.719c-3.812,24.146 42.509,234.116 32.261,290.703c-0.861,4.753 -41.56,43.899 -48.443,45.387c-8.659,1.873 -60.393,-15.691 -70.314,-19.879c-3.51,-1.481 -2.341,-2.47 -6.577,-13.451c-3.52,-9.126 -19.016,-49.294 -112.309,-51.601c-33.664,-0.832 -30.508,-11.008 -93.434,-38.529c-16.857,-7.372 -26.189,-0.811 -81.287,28.455c-5.836,3.1 -8.416,4.47 -80.778,-18.321c0.64,-0.504 1.887,-3.785 8.025,-6.33c23.427,-9.713 103.696,-65.842 143.563,-62.557c44.369,3.657 122.556,61.519 145.713,70.723c24.331,9.671 80.532,36.457 99.547,36.426c31.563,-0.05 38.924,-14.99 40.478,-18.141c11.621,-23.582 11.939,-33.794 6.156,-81.38c-5.731,-47.164 -6.341,-46.958 -12.56,-94.05c-8.384,-63.491 -8.306,-64.64 -7.919,-70.284c4.347,-2.637 5.795,-0.687 8.229,-5.033c-0.481,-0.642 -0.963,-1.285 -1.444,-1.927c-6.455,-2.952 -6.739,-2.627 -10.826,-8.306c0.787,-1.124 2.646,-1.19 3.433,-2.315c0.397,-0.567 -0.494,-1.348 -0.393,-2.029c2.165,-14.485 9.413,-26.269 10.685,-28.338c15.934,-25.907 67.395,-69.788 68.849,-70.956c5.953,-4.781 70.224,-56.405 74.636,-59.494c57.39,-40.178 74.48,-77.332 90.866,-90.835Z" style="fill:#f2bc6e;"/><path d="M614.173,1436.664c-1.267,2.297 -14.999,27.185 -16.182,28.531c-7.587,6.178 -21.76,28.804 -16.694,41.325c-0.185,1.65 -2.136,19.097 10.574,17.947c14.221,-1.287 1.655,-14.174 37.594,-56.869c6.548,-7.779 6.66,-7.822 8.358,-17.716c1.976,-0.169 31.872,-7.925 47.968,19.436c11.5,19.547 -0.045,40.583 -1.732,43.658c-13.769,4.016 -15.794,11.16 -28.283,16.915c-14.427,6.648 -15.204,4.858 -27.977,13.972c-0.767,0.547 -2.212,0.155 -2.665,0.974c-0.485,0.878 0.976,2.081 0.49,2.958c-17.327,18.782 26.174,16.538 40.546,4.975c14.012,3.182 23.44,-13.716 27.531,-15.547c0.632,-0.283 1.774,0.73 2.078,0.116c0.643,-1.299 -0.631,-3.037 0.012,-4.336c13.606,-1.647 36.336,-6.725 50.221,20.254c-1.615,9.533 -0.966,10.456 -9.211,15.681c-34.661,21.963 -75.979,-10.282 -96.827,9.301c-6.916,6.496 9.361,18.289 -17.326,48.448c-24.842,28.073 -25.446,27.344 -48.45,57.065c-1.374,-3.533 -14.587,-29.414 -11.297,-62.847c3.599,-36.567 8.704,-36.958 4.188,-45.101c-4.456,-8.035 -59.681,7.214 -105.375,-27.519c-33.422,-25.405 -57.772,-91.276 -45.837,-98.237c6.626,-3.865 63.04,-36.772 80.308,-52.262c17.371,-15.583 14.27,-82.894 30.877,-94.693c0.244,-0.173 29.554,-0.655 32.437,53.886c1.705,32.268 31.755,-1.135 50.306,21.235c17.051,20.562 11.68,35.542 4.37,58.448Z" style="fill:#f5e0d7;"/><path d="M1637.355,1202.814c39.3,14.613 26.714,38.627 -63.263,131.123c-89.984,92.503 -86.057,99.559 -166.107,134.559c-155.69,68.071 -155.732,67.923 -171.669,75.295c-84.691,39.176 -91.888,22.134 -262.15,12.147c-159.38,-9.349 -159.714,-0.067 -201.791,19.34c-14.675,6.769 17.699,-27.536 -33.056,-58.491c6.075,-3.893 6.244,-3.056 12.904,-5.534c76.405,-28.427 146.995,-8.284 234.487,0.843c116.708,12.174 131.832,10.837 143.275,9.824c35.999,-3.185 86.738,-16.865 99.57,-22.233c146.903,-61.449 205.88,-73.617 241.424,-109.79c135.364,-137.758 170.587,-157.74 166.375,-187.084Z" style="fill:#e5bfb8;"/><path d="M352.52,1532.228c2.624,3.233 2.949,2.968 4.279,6.95c32.796,98.272 117.585,109.038 119.389,116.358c0.884,3.585 -2.652,23.632 8.659,59.136c6.073,19.06 14.653,20.706 2.822,34.816c-4.741,5.654 -52.172,62.218 -62.374,68.036c-85.549,-70.204 -139.531,-182.188 -141.835,-235.358c-0.024,-0.554 -0.133,-3.078 -0.719,-6.893c17.348,-0.075 37.226,-19.228 69.779,-43.044Z" style="fill:#f4d1b8;"/><path d="M587.447,714.645c43.677,49.343 39.933,53.115 92.081,93.672c166.443,129.448 164.167,144.024 155.909,188.741c-4.526,24.506 -20.243,131.508 -21.925,142.954c-5.211,35.478 -1.784,38.65 -1.427,39.777c-40.433,1.582 -40.717,5.318 -43.596,3.361c-5.464,-3.714 20.151,-141.138 21.93,-151.533c10.227,-59.737 5.956,-62.193 -18.593,-87.117c-112.412,-114.126 -185.364,-172.557 -184.38,-229.856Z" style="fill:#f0bc6e;"/><path d="M746.012,1553.259c2.512,9.099 5.686,13.293 -3.884,27.18c-0.885,1.285 -8.606,12.49 -0.204,19.409c5.357,4.411 52.219,-1.039 59.698,37.44c2.441,12.561 -50.45,9.048 -81.133,19.943c-20.543,7.295 -50.949,65.945 -71.35,93.679c-2.253,3.062 -50.722,-16.32 -74.941,-67.157c23.005,-29.721 23.608,-28.992 48.45,-57.065c26.687,-30.158 10.41,-41.951 17.326,-48.448c20.848,-19.583 62.166,12.662 96.827,-9.301c8.245,-5.225 7.596,-6.147 9.211,-15.681Z" style="fill:#e5c0ba;"/><path d="M352.52,1532.228c7.969,-6.703 14.023,-12.799 16.405,-7.21c5.851,13.732 12.865,43.008 59.532,76.478c25.671,18.412 62.123,22.988 67.835,23.705c5.553,0.697 8.401,-1.687 8.252,3.881c-0.137,5.126 -12.865,93.14 71.398,154.543c10.573,7.704 1.703,9.863 -12.133,28.241c-40.959,54.402 -39.707,55.238 -41.706,61.926c-0.526,-0.103 0.011,-1.397 -0.514,-1.5c-2.378,-0.466 -2.259,1.317 -4.603,0.541c-36.733,-12.162 -71.524,-36.754 -91.69,-55.31c10.203,-5.818 57.633,-62.382 62.374,-68.036c11.831,-14.109 3.251,-15.755 -2.822,-34.816c-11.312,-35.503 -7.776,-55.551 -8.659,-59.136c-1.804,-7.32 -86.593,-18.086 -119.389,-116.358c-1.329,-3.983 -1.655,-3.718 -4.279,-6.95Z" style="fill:#e6ae9d;"/><path d="M1083.99,333.37c1.381,3.24 2.725,3.449 0.18,6.864c-43.284,58.095 -103.454,271.31 -164.516,303.88c-46.278,24.684 -187.31,30.104 -257.044,46.333c-13.018,3.03 -30.678,2.591 -33.353,2.524c-17.269,-0.429 -18.409,0.447 -25.775,-3.592c55.713,-43.869 289.223,-56.378 314.018,-75.636c17.589,-13.661 107.665,-237.9 166.49,-280.373Z" style="fill:#fbf3c4;"/><path d="M702.044,408.531c14.329,1.043 14.159,1.375 27.224,6.854c5.841,2.45 6.971,-24.028 30.869,-30.251c42.386,-11.037 52.406,72.073 15.84,116.047c-1.75,2.105 -9.318,11.206 -34.529,0.833c-92.36,-38 -73.654,-89.88 -39.404,-93.483Z" style="fill:#ca8f96;"/><path d="M1695.197,967.138c47.226,2.741 30.438,47.844 11.545,63.675c-28.636,23.995 -70.918,39.857 -81.327,24.861c-29.316,-42.234 -30.723,-114.006 9.481,-112.951c12.973,0.34 25.837,12.077 29.253,23.511c1.773,5.934 -0.04,10.002 5.886,7.682c10.064,-3.94 9.556,-5.921 25.162,-6.778Z" style="fill:#c99097;"/><path d="M407.111,1491.979c0.313,0.792 23.361,83.601 116.168,94.565c13.37,1.58 31.6,-1.802 30.594,3.57c-6.936,37.041 -11.527,60.712 13.615,112.455c-8.232,12.828 -9.814,11.541 -18.514,24.052c-49.312,-77.425 -7.419,-116.917 -33.925,-118.484c-11.689,-0.691 -99.077,-0.67 -129.798,-99.367c1.331,-1.747 4.475,-5.871 21.859,-16.791Z" style="fill:#f0cd8b;"/><path d="M1320.989,1364.554c-1.868,2.542 -9.121,12.416 -29.409,26.453c-57.964,40.105 -187.447,22.226 -215.579,27.288c-6.286,1.131 -63.758,11.473 -78.941,12.016c-9.534,0.341 -14.853,-11.623 -14.714,-11.935c0.424,-0.953 1.903,-1.167 2.327,-2.12c7.58,2.608 9.971,1.512 29.237,-5.467c108.582,-39.331 170.946,0.012 259.664,-34.94c22.76,-8.967 23.464,-6.083 47.414,-11.295Z" style="fill:#e6c1ba;"/><path d="M1303.513,1327.143c-15.458,22.46 -41.337,31.046 -63.3,36.206c-77.862,18.294 -187.208,-8.876 -255.157,41.126c-0.304,-1.384 -3.211,-1.081 -3.515,-2.465c-0.299,-1.362 4.134,-6.137 4.572,-6.609c31.112,-33.512 78.157,-39.737 85.703,-40.736c55.178,-7.301 59.592,-12.741 137.171,-7.815c7.32,0.465 46.114,2.928 89.351,-20.247c3.233,-1.733 4.948,0.516 5.174,0.539Z" style="fill:#e5c0b9;"/><path d="M1587.455,1139.31c4.063,1.629 9.86,2.748 13.802,9.245c1.762,2.904 2.215,11.51 0.616,16.216c-4.591,13.512 -3.006,16.146 -16.738,20.573c-9.655,3.112 -56.937,18.354 -107.775,66.121c-4.824,4.533 -2.263,-2.619 -4.936,-35.528c12.5,-9.794 41.043,-36.736 44.932,-40.064c16.35,-13.992 52.477,-31.299 59.982,-32.664c7.292,-1.325 6.795,-2.338 10.117,-3.899Z" style="fill:#e6c0b8;"/><path d="M1061.038,472.897c1.485,-1.445 9.796,-11.273 20.674,-4.939c23.3,13.568 -36.173,123.594 -55.694,136.007c-33.018,20.995 -11.079,-72.749 35.02,-131.067Z" style="fill:#fbf4c6;"/><path d="M779.542,438.493c-0.446,4.282 -4.311,41.361 -17.35,51.025c-8.33,6.174 -90.015,-39.697 -66.214,-61.01c14.955,-13.392 46.542,27.274 51.792,3.863c10.373,-46.258 27.934,-25.225 29.128,-22.553c2.606,5.834 2.641,26.372 2.645,28.676Z" style="fill:#e6a1ab;"/><path d="M1663.837,993.927c25.998,-9.997 33.224,-10.533 39.717,-7.256c7.855,3.965 2.774,15.298 2.227,16.517c-10.73,23.929 -55.215,40.837 -64.695,42.01c-13.956,1.726 -31.183,-95.511 -4.228,-84.586c20.787,8.424 4.725,31.452 26.979,33.316Z" style="fill:#e19fa9;"/><path d="M1309.621,1146.437c-0.361,3.174 -1.392,23.023 -6.381,17.451c-3.801,-4.245 3.408,-60.875 -44.312,-69.015c-29.371,-5.01 4.745,-7.453 12.204,-10.425c43.763,-17.438 23.087,-76.485 35.489,-66.975c8.608,6.601 -10.558,64.733 49.785,70.513c5.406,0.518 7.237,5.522 -0.006,6.546c-38.066,5.382 -40.918,22.064 -46.778,51.906Z" style="fill:#fdf2b8;"/><path d="M808.679,749.72c5.171,-16.206 4.948,-16.102 7.373,-33.085c1.381,-9.671 5.318,-4.087 5.541,-3.611c6.679,14.287 -8.736,53.567 46.664,62.903c14.89,2.509 2.478,7.384 1.864,7.517c-44.559,9.654 -40.938,19.786 -48.283,64.003c-0.51,3.07 -4.792,4.066 -5.45,0.15c-0.218,-1.3 0.381,-1.23 -1.717,-16.379c-7.453,-53.811 -49.95,-45.658 -51.024,-50.872c-2.803,-13.603 25.195,8.924 45.032,-30.627Z" style="fill:#fcf8ce;"/><path d="M443.107,1046.051c3.9,-21.522 68.947,-32.46 109.473,-44.535c25.767,-7.677 31.395,7.201 23.819,15.031c-9.972,10.304 -79.363,33.24 -86.478,35.211c-34.068,9.44 -43.757,8.879 -46.814,-5.707Z" style="fill:#e5ba78;"/><path d="M1559.316,356.692c-3.56,23.557 -41.06,57.529 -66.182,85.45c-19.785,21.99 -37.621,13.876 -29.23,-1.913c11.257,-21.185 73.4,-106.926 89.937,-93.704c4.786,3.826 4.199,4.296 5.475,10.167Z" style="fill:#e5b974;"/><path d="M567.488,1702.569c47.066,67.998 76.173,52.273 69.979,65.55c-8.827,18.92 -12.459,18.16 -14.259,17.783c-2.435,-0.51 -40.885,-15.418 -65.539,-47.714c-5.275,-6.91 -5.267,-6.751 -8.694,-11.566c8.699,-12.511 10.282,-11.223 18.514,-24.052Z" style="fill:#daa86e;"/><path d="M535.801,912.192c-10.554,-0.358 -100.242,-11.355 -65.079,-36.849c11.992,-8.694 68.727,13.034 75.942,16.392c1.333,0.62 17.741,8.256 11.08,14.5c-8.674,8.133 -9.9,5.525 -21.944,5.957Z" style="fill:#e6bc77;"/><path d="M1381.496,312.431c2.905,0.321 4.228,-0.885 8.161,3.418c9.859,10.787 3.394,29.858 3.205,30.821c-5.103,26.085 -4.184,26.15 -8.91,40.838c-5.451,16.938 -17.683,26.832 -23.542,10.188c-3.206,-9.108 1.328,-47.123 1.786,-49.301c7.597,-36.154 13.466,-34.713 19.301,-35.963Z" style="fill:#e4ba6f;"/><path d="M1584.862,529.676c-6.246,1.153 -52.738,15.074 -45.953,-5.425c4.793,-14.482 100.368,-51.038 91.337,-18.416c-3.5,12.644 -23.841,18.183 -45.384,23.841Z" style="fill:#e5b771;"/><path d="M561.45,1158.708c4.564,-15.733 49.792,-64.161 63.714,-59.542c5.199,1.725 14.326,8.834 -30.001,60.714c-19.507,22.831 -35.027,18.304 -33.714,-1.172Z" style="fill:#e5bb79;"/><path d="M1587.455,1139.31c-3.322,1.561 -2.825,2.573 -10.117,3.899c-7.504,1.364 -43.632,18.671 -59.982,32.664c-3.889,3.328 -32.433,30.27 -44.932,40.064c-1.114,-10.342 -4.571,-19.932 2.628,-26.574c26.98,-24.893 34.667,-30.257 41.828,-34.264c41.669,-23.314 64.977,-17.246 70.575,-15.789Z" style="fill:#f5dbc1;"/><path d="M614.173,1436.664c-1.313,20.129 18.685,13.95 23.65,13.219c-1.698,9.894 -1.81,9.937 -8.358,17.716c-35.939,42.695 -23.373,55.582 -37.594,56.869c-12.71,1.15 -10.759,-16.297 -10.574,-17.947c9.662,-4.864 13.834,-10.743 21.534,-32.774c1.972,-5.642 0.419,-5.924 -4.84,-8.552c1.183,-1.346 14.914,-26.234 16.182,-28.531Z" style="fill:#e6bfb8;"/><path d="M548.464,1438.867c4.909,2.353 7.109,5.021 7.921,1.952c0.905,-3.423 4.019,-3.258 1.754,-5.719c-5.264,-5.72 1.566,-26.894 8.528,-29.658c15.087,-5.99 13.32,16.377 4.56,41.624c-7.641,22.021 -6.356,22.375 -7.149,24.237c-4.948,11.614 -11.939,0.41 -13.742,0.227c-3.835,-0.389 -7.113,1.879 -11.815,-13.248c1.098,-0.533 2.575,0.553 3.673,0.02c3.763,-1.827 6.04,-17.818 6.27,-19.434Z" style="fill:#e4bfb7;"/><path d="M1727.26,1138.117c0.366,-3.197 -1.748,-11.822 11.798,-20c4.795,-2.895 17.689,-2.064 22.29,2.004c29.692,26.253 -26.912,58.857 -34.089,17.996Z" style="fill:#e6c89d;"/><path d="M875.753,321.898c-0.878,11.185 0.497,12.296 -8.085,19.77c-18.582,16.184 -48.926,-20.097 -22.043,-35.684c9.917,-5.75 18.843,-0.749 20.251,0.04c9.318,5.221 9.157,12.577 9.877,15.874Z" style="fill:#e5c99e;"/><path d="M684.059,1512.977c-7.257,18.379 9.861,19.865 11.732,20.028c-0.643,1.299 0.631,3.037 -0.012,4.336c-0.304,0.614 -1.446,-0.399 -2.078,-0.116c-4.091,1.831 -13.519,18.729 -27.531,15.547c-1.151,-17.036 -9.876,-9.028 -40.546,-4.975c0.485,-0.878 -0.976,-2.081 -0.49,-2.958c0.453,-0.819 1.898,-0.426 2.665,-0.974c12.774,-9.114 13.55,-7.324 27.977,-13.972c12.489,-5.755 14.514,-12.899 28.283,-16.915Z" style="fill:#e5c0b9;"/><path d="M1477.019,761.707c-5.862,13.889 -4.735,30.81 -8.559,20.688c-2.463,-6.52 1.079,-24.188 -16.586,-28.171c-6.507,-1.467 -12.398,0.212 -8.017,-4.73c3.602,-4.063 19.105,2.787 22.504,-20.564c0.132,-0.91 3.035,-20.85 5.894,-9.913c4.555,17.427 -0.094,23.398 21.193,28.983c14.898,3.909 -6.477,2.179 -16.428,13.706Z" style="fill:#fceeb6;"/><path d="M1071.78,1228.075c0.203,-0.123 28.63,-14.116 31.591,-15.448c7.562,-3.403 35.124,13.212 37.684,14.597c3.837,2.076 4.921,0.718 6.708,4.711c-0.424,0.545 -0.849,1.089 -1.273,1.634c-30.184,-0.452 -30.002,-0.088 -60.031,-2.144c-8.444,-0.578 -8.813,1.811 -14.518,-1.304l-0.161,-2.044Z" style="fill:#f9edc2;"/><path d="M896.16,1137.164c-2.604,-6.244 -1.453,-24.704 -15.831,-28.96c-0.748,-0.221 -11.885,-3.517 -8.24,-5.144c3.449,-1.539 20.718,-0.02 21.831,-22.075c0.037,-0.732 0.806,-15.977 4.664,-7.933c0.398,0.831 -1.791,25.699 17.333,28.654c20.613,3.185 -5.606,4.717 -11.862,12.26c-6.239,7.522 -1.456,19.599 -7.893,23.198Z" style="fill:#fdf0aa;"/><path d="M1463.336,1135.939c0.528,-3.377 -1.919,-7.407 11.534,-8.79c2.153,-0.221 13.262,-1.363 26.43,5.735c8.429,4.544 -16.187,15.444 -30.29,30.128c-4.634,4.825 -3.079,-2.032 -7.674,-27.074Z" style="fill:#ecc7b3;"/><path d="M548.464,1438.867c-0.23,1.615 -2.506,17.607 -6.27,19.434c-1.098,0.533 -2.575,-0.553 -3.673,-0.02c-20.098,-17.78 19.044,-106.27 13.944,-41.945c-0.909,11.459 -1.663,11.235 -4.001,22.531Z" style="fill:#c6a197;"/><path d="M910.889,735.514c-4.888,-6.85 -5.043,-7.049 -13.264,-9.348c-8.77,-2.452 -2.775,-5.153 -2.319,-5.232c22.046,-3.808 15.671,-18.63 18.107,-27.033c2.866,-9.884 5.286,5.574 5.387,6.22c3.963,25.319 16.101,16.52 20.123,22.701c2.498,3.839 -1.205,2.567 -9.926,5.135c-10.777,3.173 -10.692,23.524 -11.65,25.034c-4.738,7.474 -3.441,-2.117 -6.459,-17.478Z" style="fill:#fdf8ce;"/><path d="M407.111,1491.979c-17.384,10.92 -20.528,15.045 -21.859,16.791c-8.31,-30.019 -10.323,-33.92 2.531,-42.068c9.985,-6.329 10.928,-4.382 11.183,-3.492c4.121,14.391 3.31,14.453 8.145,28.769Z" style="fill:#f6e5b2;"/><path d="M1100.907,407.195c0.112,0.013 12.815,-1.076 15.905,10.965c1.865,7.271 -3.585,14.447 -4.367,15.476c-16.021,21.093 -42.87,-21.488 -11.538,-26.442Z" style="fill:#fcf2c1;"/><path d="M614.724,554.274c-32.889,-4.048 -7.614,-44.17 10.232,-23.58c6.978,8.052 1.393,15.459 0.592,16.521c-4.068,5.394 -4.106,5.675 -10.824,7.059Z" style="fill:#e5c99b;"/><path d="M1721.462,868.1c-5.139,30.873 -42.9,2.725 -23.384,-11.264c17.942,-12.86 22.933,9.262 23.384,11.264Z" style="fill:#e3c59a;"/><path d="M625.624,1547.797c30.669,-4.052 39.395,-12.061 40.546,4.975c-14.371,11.563 -57.873,13.806 -40.546,-4.975Z" style="fill:#c4a098;"/><path d="M689.593,1609.469c-28.132,1.725 -23.49,-9.159 -21.904,-10.261c8.602,-5.975 48.035,-5.663 43.923,2.954c-2.233,4.678 -20.177,7.061 -22.019,7.306Z" style="fill:#c39c94;"/><path d="M1376.617,962.459c4.087,5.68 4.371,5.354 10.826,8.306l1.444,1.927c-2.435,4.347 -3.882,2.396 -8.229,5.033c-9.951,9.179 -2.756,13.38 -7.66,16.982c-8.518,6.258 3.508,-14.028 -14.726,-19.895c-8.835,-2.842 9.418,-3.065 10.876,-14.621c0.265,-2.102 0.184,-10.121 1.785,-10.489c4.425,-1.018 2.204,2.172 5.685,12.756Z" style="fill:#fdf4bb;"/><path d="M597.991,1465.195c5.259,2.628 6.812,2.909 4.84,8.552c-7.7,22.031 -11.872,27.909 -21.534,32.774c-5.066,-12.521 9.108,-35.147 16.694,-41.325Z" style="fill:#caa69d;"/><path d="M1328.175,1326.525c4.561,-11.532 8.55,-3.43 24.46,0.996c18.694,5.201 -2.525,7.428 -23.19,12.868c-9.239,2.432 -4.82,-4.022 -1.271,-13.865Z" style="fill:#ecc9c3;"/><path d="M889.24,859.863c0.253,-0.575 -1.616,-0.741 -1.363,-1.316c0.379,-0.863 8.534,-2.556 9.731,-8.765c0.712,-3.692 0.493,-10.374 3.793,-9.864c4.085,0.631 -1.226,12.812 10.886,17.331c4.752,1.773 5.829,1.405 5.202,2.658c-1.037,2.073 -11.807,4.327 -13.052,10.642c-0.128,0.65 -4.158,21.102 -5.769,6.013c-1.02,-9.547 -0.657,-10.557 -9.295,-15.023l-0.132,-1.677Z" style="fill:#fdf7cf;"/><path d="M986.924,654.999c-6.207,-6.601 -2.329,-7.572 -0.436,-16.224c1.44,-6.579 15.338,-10.869 14.258,2.446c-0.346,4.263 1.759,3.933 1.183,8.047c-1.479,10.558 -13.795,6.163 -15.005,5.731Z" style="fill:#fbf3bc;"/><path d="M1345.478,1195.418c0.115,-0.997 1.056,-9.128 6.762,-10.631c3.027,-0.797 8.057,-0.396 9.909,1.181c13.034,11.098 -11.827,32.118 -16.672,9.45Z" style="fill:#fce9a6;"/><path d="M737.09,749.694c12.854,20.096 -20.175,21.773 -16.464,5.867c3.07,-13.158 15.238,-6.535 16.464,-5.867Z" style="fill:#fcf5c5;"/><path d="M1288.391,685.975c-1.674,15.186 -20.627,5.149 -11.505,-4.661c7.612,-8.186 11.221,3.722 11.505,4.661Z" style="fill:#fcf8d7;"/><path d="M1405.081,814.8c-2.093,17.897 -19.487,4.995 -12.246,-3.166c7.377,-8.314 11.855,2.245 12.246,3.166Z" style="fill:#fdf3b5;"/><path d="M979.551,1072.814c0.71,-6.136 1.18,-8.541 7.04,-6.121c7.212,2.977 -0.599,18.955 -7.04,6.121Z" style="fill:#fbefb7;"/></g></svg>