<?xml version="1.0" encoding="UTF-8" standalone="no"?><!DOCTYPE svg PUBLIC "-//W3C//DTD SVG 1.1//EN" "http://www.w3.org/Graphics/SVG/1.1/DTD/svg11.dtd"><svg width="100%" height="100%" viewBox="0 0 2048 2048" version="1.1" xmlns="http://www.w3.org/2000/svg" xmlns:xlink="http://www.w3.org/1999/xlink" xml:space="preserve" xmlns:serif="http://www.serif.com/" style="fill-rule:evenodd;clip-rule:evenodd;stroke-linejoin:round;stroke-miterlimit:2;"><g id="Background"><path d="M1687.544,169.155c0.937,17.961 -36.148,46.03 -68.817,84.416c-2.194,2.096 -7.998,6.792 -5.236,9.581c19.086,19.267 19.615,18.773 24.883,26.419c26.15,37.961 21.175,84.173 20.373,91.627c-0.762,7.083 3.519,4.26 18.993,6.561c85.081,12.649 97.293,97.521 99.928,108.144c2.952,11.902 79.037,-49.478 109.159,-56.322c10.507,9.832 -15.776,23.486 -22.74,27.886c-4.064,2.568 -27.465,17.355 -51.241,31.456c-26.262,15.443 -26.675,14.505 -28.417,16.423c-3.243,3.571 -1.003,4.065 -0.121,10.855c4.132,31.806 -6.45,31.482 -50.752,44.951c-33.958,12.169 -33.513,12.668 -86.932,34.016c-20.258,8.096 -24.449,4.971 -32.657,24.306c-4.405,10.375 -14.523,16.307 -20.418,17.339c-13.694,2.396 -15.751,0.09 -23.304,11.296c-89.48,132.747 -196.152,119.553 -256.605,144.184c-55.159,22.474 -106.747,82.387 -110.299,85.939c-14.535,14.534 18.281,104.579 -60.739,114.329c-4.299,3.374 -15.139,13.377 -16.429,14.567c-2.36,2.177 -0.431,2.639 2.696,22.93c-0.411,0.211 -0.327,-0.225 -5.437,2.03c-6.751,3.621 -3.715,5.449 -6.27,12.535l-2.201,-3.206c-5.424,-13.228 -4.332,-13.39 -5.597,-27.675c-1.014,-11.444 -4.518,-14.545 6.615,-18.923c1.922,-0.756 16.754,-6.587 11.462,-22.287c-9.148,-27.138 -46.134,-3.715 -30.136,17.955c7.508,10.17 5.347,13.17 -5.486,25.433c-29.609,36.455 -29.123,36.604 -49.642,58.188c-4.753,5 0.363,5.342 8.361,22.47c-0.245,7.788 2.793,9.618 -3.366,12.451c-0.044,0.265 -0.545,3.318 -0.545,3.318c1.389,1.282 1.976,-0.092 3.343,1.288c5.495,5.545 3.18,6.426 2.46,14.017c-18.754,-24.743 -90.954,-164.72 -89.781,-169.082c1.259,-4.681 37.37,-23.103 12.111,-49.196c-9.306,-7.28 -15.745,-8.742 -27.061,-5.574c-7.594,4.058 -8.334,3.046 -14.504,11.011c-15.492,28.812 12.822,32.092 13.805,45.878c-3.849,11.448 -21.201,46.954 -23.17,50.983c-60.808,117.861 -72.508,150.159 -117.658,116.271c-27.049,-20.303 -102.35,-83.902 -104.496,-93.432c-0.421,-1.869 0.737,-1.551 6.207,-23.145c-2.98,-30.743 -24.14,-26.874 -35.32,-23.365c-4.473,2.891 -4.396,2.812 -7.93,6.838c-1.678,2.313 -15.246,21.019 6.017,34.707c7.297,4.697 18.809,2.899 20.985,5.665c4.243,5.391 7.601,21.267 13.996,50.106c7.994,31.885 5.36,33.047 19.459,53.356c34.938,50.326 14.192,56.343 12.824,89.307c-0.382,9.215 12.797,13.421 19.111,16.524c15.195,6.131 18.82,11.188 84.215,23.546c7.332,1.235 7.143,1.266 14.556,2.452c1.741,0.279 1.656,0.364 21.731,3.668l0.897,1.638c0.044,0.828 -0.128,0.694 -0.497,10.349c-11.135,-0.309 -10.95,-0.714 -22.105,-2.384c-82.504,-14.189 -80.42,-20.65 -111.274,-31.611c-7.292,-2.591 -7.971,0.727 -6.871,8.087c1.78,11.911 6.527,14.926 16.92,21.062c14.371,6.524 14.25,6.222 28.857,11.66c30.018,9.558 34.74,10.007 60.271,14.388c23.097,3.236 174.94,24.513 291.331,-15.892c48.34,-16.781 38.334,-40.262 36.57,-40.409c-0.874,-0.073 -0.863,0.132 -19.608,8.708c-33.135,12.068 -86.285,30.745 -209.305,31.678c-4.701,0.036 -39.764,0.302 -58.557,-4.761c-0.42,-1.769 -1.039,-1.499 -0.789,-3.327c0.084,-0.612 0.074,-0.567 0.993,-7.653l1.021,-0.606c49.36,2.262 116.333,7.702 204.432,-10c44.074,-9.683 43.261,-11.678 65.059,-20.701c15.372,-7.567 20.655,-7.133 17.384,-23.466c-6.3,-31.456 -15.051,-47.564 11.647,-77.807l2.016,-2.813c10.033,-4.291 8.229,-6.184 12.69,-15.743c0.378,-0.81 2.437,-6.075 2.645,-6.605c0.646,-2.882 0.856,-2.725 0.416,-5.739c1.936,-18.41 3.198,-17.992 7.012,-36.149c2.526,-12.622 2.778,-12.348 4.671,-25.273c2.823,-14.149 3.981,-15.402 18.711,-17.872c26.318,-4.412 32.132,-48.214 -7.441,-47.068c-5.432,1.647 -5.435,1.192 -10.348,3.844c-20.999,16.313 -5.595,27.554 -2.639,42.383c-5.734,11.881 -40.463,40.024 -63.219,61.112c-3.28,2.992 -2.923,3.229 -18.32,16.33c-0.276,-0.594 -1.729,0.234 -2.005,-0.36c-0.264,-0.568 0.669,-0.422 -0.305,-7.759c-0.479,-2.482 0.736,-2.309 0.284,-4.647c-0.074,-0.382 -0.113,-0.343 -1.52,-4.631c1.371,1.267 2.743,2.535 4.114,3.802c0.844,0.13 12.225,1.886 8.756,-5.846c-7.143,-15.923 -10.616,-15.385 -8.807,-32.62c3.375,0.294 4.531,-0.933 5.227,2.211c3.229,14.589 2.657,14.479 3.12,15.676c1.863,4.816 4.722,1.166 51.307,-41.418c5.013,-4.583 -0.345,-10.424 -1.311,-17.916c-7.468,-57.885 77.934,-59.404 79.531,-9.173c1.133,35.638 -34.957,38.946 -37,43.619c-0.7,1.602 -18.329,79.936 -18.408,80.805c-2.717,30.11 22.75,36.689 -15.878,84.462c-19.259,23.818 0.931,29.285 -10.592,58.508c-3.555,5.683 -3.491,5.673 -3.839,6.138c-22.835,30.541 -113.806,47.89 -187.061,51.197c-31.153,1.406 -32.595,-2.286 -48.739,8.494c-17.513,11.694 -35.066,16.348 -25.668,18.226c26.047,5.204 57.31,2.726 62.279,2.332c84.993,-6.737 81.546,-40.975 144.589,-26.344c6.331,1.469 13.908,-6.197 24.754,-10.731c45.042,-18.826 70.01,4.863 74.145,5.008c4.327,0.151 40.36,1.412 48.032,23.85c8.957,26.194 -12.337,31.597 -17.568,55.029c-8.02,35.928 -105.937,116.155 -145.501,137.087c-1.253,-0.584 0.112,-3.63 -5.469,-2.548c-3.689,0.715 -3.523,0.557 -7.262,1.326c-3.174,0.653 -2.334,1.595 -4.788,3.272c-7.337,-0.004 -7.224,-0.405 -14.472,1.362c-7.717,1.881 -8.289,4.014 -14.817,-0.617c26.833,-10.82 30.756,-5.293 112.776,-71.489c3.307,-2.669 71.376,-61.199 62.329,-79.236c-1.934,-3.855 -2.411,-3.231 -6.434,-6.822c-55.207,-17.007 -97.634,54.292 -161.05,68.611c-1.369,0.309 -1.269,0.282 -17.126,3.804c-18.612,7.557 -10.135,35.986 -141.918,38.527c-37.794,0.729 -37.965,-1.8 -74.762,5.792c-13.369,2.655 -13.973,5.436 -18.704,1.77c-5.58,-4.323 -5.754,-22.212 86.231,-23.909c126.112,-2.327 126.467,-25.071 130.715,-32.743c5.187,-19.509 -3.976,-26.497 -14.509,-33.292c-38.538,-20.754 -119.842,-5.588 -166.6,-20.636c-76.809,-24.719 -146.075,-59.179 -245.26,10.967c-28.41,20.092 -30.247,16.987 -60.454,34.474c-56.769,32.864 -58.09,32.352 -58.575,35.86c-0.536,3.871 -0.711,7.782 -1.247,11.653c-0.443,2.251 -0.886,4.503 -1.329,6.754c-2.653,7.801 -6.081,10.966 2.45,12.707c0.582,0.119 0.527,0.153 7.119,2.069c-0.084,1.233 -0.167,2.465 -0.251,3.698l0.659,1.52c-0.567,0.076 -15.843,1.332 -19.279,2.112l-2.46,3.482c-8.361,-2.017 -9.632,-0.377 -12.121,-4.731c-5.553,-9.715 21.598,-35.223 4.213,-57.065c-7.757,-9.746 -18.948,-9.626 -46.116,47.55c-2.982,0.984 -2.747,0.897 -2.982,0.984c-4.083,1.517 -3.81,1.667 -7.858,3.172c-5.743,0.486 -22.741,1.291 -36.095,3.92c-30.308,5.967 -95.65,49.472 -149.69,67.923c-1.217,0.415 -23.351,1.159 -1.911,-15.326c19.492,-8.692 56.988,-26.492 61.923,-28.835c64.992,-31.139 62.901,-39.271 115.966,-41.876c11.226,-0.551 13.185,-10.793 19.837,-24.216c3.939,-5.275 3.918,-5.054 7.341,-10.774c2.129,-3.293 7.27,-9.943 7.926,-10.791c20.462,-26.466 39.045,2.184 40.33,-10.634c1.695,-16.904 -10.678,-20.684 -12.629,-21.28c-40.68,-12.428 11.341,-29.205 4.249,-43.12c-21.082,-41.366 -38.929,16.767 -53.014,36.423c-6.055,2.222 -6.052,1.889 -11.561,5.417c-16.9,0.944 -16.692,1.198 -33.627,2.783l-1.201,-3.374l-1.372,-1.805l-2.41,0.396l-2.41,1.951c-16.041,-5.586 -52.784,11.438 -31.32,8.644c2.586,-0.337 2.184,-0.78 4.5,-1.789c4.28,-1.865 3.376,0.933 5.442,4.849c-62.117,21.371 -88.942,27.516 -105.312,25.875c-7.646,-12.252 10.732,-14.558 20.731,-17.12c81.924,-20.993 79.207,-33.263 142.089,-35.171c9.761,-0.296 6.457,-4.597 10.541,-13.105c2.355,-4.906 27.804,-57.911 54.109,-43.329c13.918,7.715 18.741,22.263 20.013,24.345c2.859,4.683 5.423,3.146 65.256,-26.532c59.788,-29.656 66.346,-75.352 170.723,-81.469c0.065,-1.235 0.561,-0.99 0.625,-2.222c0.307,-5.848 -0.196,-5.688 0.1,-11.612c1.207,-24.162 0.249,-24.682 -14.541,-44.323c-31.552,-41.901 -1.58,-48.213 -9.937,-84.791c-16.502,-72.219 -15.714,-74.559 -22.167,-75.848c-57.528,-11.489 -29.887,-90.277 21.771,-73.953c38.676,12.222 21.361,57.496 22.585,59.611c2.03,3.507 49.909,45.383 49.985,45.397c5.196,0.904 5.099,-2.077 16.897,-60.994c3.428,-17.116 -16.288,-10.649 -19.606,-34.622c-7.226,-52.211 88.936,-46.482 62.719,11.576c-4.012,8.885 -0.904,9.459 20.676,35.127c20.693,24.613 27.649,36.169 31.493,28.944c32.153,-60.423 32.539,-60.554 32.428,-66.416c-0.729,-38.42 2.613,-38.195 2.378,-41.513c-1.006,-14.184 -14.157,0.241 -15.581,1.27c-33.033,23.865 -65.076,9.994 -69.697,-10.298c-4.858,-21.33 21.617,-99.986 30.987,-122.572c31.328,-75.513 33.454,-96.852 61.328,-126.205c33.391,-35.162 31.517,-36.47 64.636,-71.755c65.641,-69.934 56.929,-82.89 120.727,-103.572c124.941,-40.503 198.426,-67.797 209.544,-71.69c78.289,-27.836 79.222,-29.873 80.451,-33.902c6.846,-22.45 14.463,-22.964 32.936,-27.969c19.168,-5.193 107.554,-128.42 114.613,-138.718c25.818,-37.668 44.702,4.947 55.525,-7.172c54.09,-60.57 75.026,-86.038 85.558,-77.51Z" style="fill:#995d5a;"/><path d="M1560.763,295.132c77.398,58.749 26.079,135.619 30.638,143.37c6.104,10.378 75.056,-27.435 116.174,34.376c-6.861,10.122 -39.513,29.616 -50.902,35.994c-56.955,31.895 -62.116,47.898 -77.546,35.522c-2.421,-1.942 -29.551,-23.703 -31.522,-22.768c-1.306,0.62 -1.731,2.389 -3.037,3.008l-4.279,-5.101c-1.066,-0.585 -13.192,-7.241 -15.355,-0.455c-0.445,1.397 0.139,19.578 0.556,21.094c4.959,18.006 25.569,39.154 19.889,41.705c-15.962,7.17 -26.844,4.811 -29.145,4.312c-12.431,-2.695 -36.974,34.984 -39.36,38.647c-50.804,77.996 -97.146,87.672 -130.246,104.76c-2.019,-2.609 -2.204,-2.328 -5.662,-2.419c-5.947,8.2 -5.795,8.016 -11.928,16.312c-5.608,-1.462 -7.697,-2.248 -8.348,-2.493c-6.623,-2.491 -4.799,3.57 -33.031,18.657c-41.874,22.377 -150.115,140.135 -179.499,161.894c-3.597,2.664 -32.143,23.802 -56.079,9.115c-0.635,-0.389 -3.506,-3.555 -4.301,-5.92c-2.085,-6.201 -0.651,-6.718 -5.053,-11.715c15.213,-65.8 104.148,-117.9 137.792,-189.005c15.633,-33.04 26.842,-75.693 24.698,-77.786c-4.13,-4.03 -4.759,-1.134 -9.275,2.307l-3.321,-2.492c0.658,-8.17 -10.304,-15.825 -17.338,3.756c-4.871,13.561 -20.324,2.605 -30.268,5.613c-3.606,-2.473 -3.411,-2.352 -7.291,-4.045c-2.858,-6.736 -2.279,-7.182 -4.316,-8.122c-7.535,-3.476 -7.15,5.72 -7.723,7.393c-2.326,6.794 -4.498,5.099 -45.684,25.507c-6.454,0.053 -6.182,1.292 -9.229,6.889c0.937,2.328 0.544,2.336 1.798,4.468c2.06,3.502 -2.485,19.236 -0.422,26.882c-11.747,11.276 -21.24,28.684 -70.558,64.038c-19.209,13.77 -17.247,28.472 -47.916,78.877c-15.661,25.739 -9.015,29.223 -29.113,52.289c-1.262,1.448 -14.239,34.057 -46.716,45.619c-28.27,10.064 -30.244,-11.763 -30.478,-14.352c3.122,2.713 3.562,2.108 6.168,5.36c4.586,5.721 9.998,-2.655 10.011,-2.868c0.614,-10.202 -1.353,-10.555 5.871,-30.302c11.456,-31.317 15.035,-57.432 26.723,-85.302c2.997,-7.146 36.424,-86.852 37.818,-89.194c6.396,-10.745 115.889,-125.96 126.15,-136.757c51.025,-53.692 62.942,-35.555 140.595,-65.988c84.277,-33.029 168.837,-59.902 188.215,-75.806c9.806,-8.048 35.853,28.424 42.324,21.813c8.262,-8.44 -7.314,-14.458 -9.766,-33.847l3.426,-2.374c7.244,10.488 8.013,9.741 15.301,19.998c13.302,18.721 41.497,46.645 33.363,18.974c-2.024,-4.072 -9.131,-18.374 -34.576,-45.646l2.545,-3.183c40.529,17.799 47.402,30.754 48.723,16.929c1.369,-14.326 -43.311,-32.717 -34.586,-39.644c2.645,-2.1 6.269,-8.305 9.808,-9.21c21.119,-5.396 21.226,-7.034 54.069,-47.257c29.118,-35.661 35.428,-43.87 41.215,-61.427Z" style="fill:#efb1bd;"/><path d="M1233.899,1399.779c-8.656,10.802 -10.884,22.877 -22.98,32.823c-25.272,20.779 -74.672,80.647 -166.981,111.784c-33.316,11.238 -33.403,10.521 -60.026,19.087c-48.3,15.541 -50.939,29.494 -224.472,-2.485c-97.001,-17.876 -100.692,-6.791 -164.384,28.446c-8.641,4.781 -18.374,19.935 -48.709,-9.469c-5.722,-5.546 -17.95,-34.931 -19.078,-35.655c-0.34,-0.218 -0.313,0.18 -4.391,2.525c-4.038,-7.226 -1.892,-9.519 -14.722,-19.884l0.583,-3.37l-0.61,-2.303l-1.612,-1.181c-2.212,-1.776 -2.61,-1.204 -4.267,-3.426c-4.509,-6.044 -5.445,-4.721 -12.94,-9.261c0.443,-2.251 0.886,-4.503 1.329,-6.754c4.786,5.035 5.596,4.957 6.238,4.895c5.733,-0.55 4.145,-3.228 9.073,-5.808c5.224,-2.735 60.243,-31.537 65.053,-34.618c48.668,-31.171 45.944,-35.206 87.873,-53.406c9.63,-4.18 58.81,-25.528 132.064,-5.823c4.057,1.091 38.334,10.312 50.422,14.577c23.548,8.309 24.146,6.819 166.413,10.554c11.285,0.296 10.892,2.307 11.846,2.166c0,0 2.901,-4.466 3.154,-4.855c10.533,6.795 19.696,13.783 14.509,33.292c-4.248,7.672 -4.603,30.416 -130.715,32.743c-91.985,1.697 -91.811,19.585 -86.231,23.909c4.731,3.666 5.335,0.886 18.704,-1.77l2.442,3.202l2.41,0.496l2.41,-0.044l2.41,0.276c96.692,8.09 98.25,13.649 168.516,-8.86c4.137,-1.325 32.05,-10.266 41.286,-34.067c0.706,-1.819 0.539,-2.136 0.451,-2.303c-1.05,-2 -2.116,-0.868 -3.245,-3.02c15.857,-3.522 15.757,-3.495 17.126,-3.804c63.417,-14.319 105.843,-85.618 161.05,-68.611Z" style="fill:#f5d1b8;"/><path d="M974.761,919.374c25.258,26.092 -10.853,44.514 -12.111,49.196c-1.173,4.362 71.027,144.339 89.781,169.082l4.112,3.341c6.676,7.063 6.468,7.61 16.145,10.041c11.593,2.912 39.778,-15.633 49.503,-25.462c6.928,-5.198 6.872,-5.078 7.907,-6.042c15.397,-13.102 15.04,-13.338 18.32,-16.33c22.757,-21.089 57.485,-49.231 63.219,-61.112l4.092,-2.186c2.456,-11.198 5.22,-9.574 12.74,-14.644c0.752,-0.507 4.099,-2.763 3.887,-10.345c0.976,-7.396 2.307,-7.577 -1.479,-14.166l-1.408,-0.952l-2.137,-1.351l-2.709,-2.583c39.573,-1.146 33.76,42.656 7.441,47.068c-14.73,2.47 -15.888,3.723 -18.711,17.872c-1.055,-1.2 -2.109,-2.4 -3.164,-3.6c-13.219,16.617 -14.041,15.769 -29.12,30.917c-6.802,5.573 -17.446,20.019 -31.903,31.355c-5.71,4.478 -15.556,13.082 -16.886,14.244c4.881,18.874 -18.102,54.417 -11.906,65.206c3.827,6.663 6.27,27.445 -1.633,27.541c-1.362,0.016 -1.783,-2.51 -3.146,-2.494c11.63,-44.189 -37.124,-45.444 -39.486,-11.256c-0.822,11.897 3.188,31.615 25.55,27.074c-0.187,0.989 1.361,1.81 1.174,2.799c-0.517,2.741 -5.096,1.019 -13.02,32.512c-88.1,17.701 -155.072,12.262 -204.432,10c-0.595,-3.124 -1.564,-2.846 -1.121,-5.885c1.141,-7.83 -3.691,-36.955 22.425,-43.122c22.308,-5.268 -2.452,-6.755 -4.86,-7.574c-29.054,-9.88 -13.046,-55.655 -23.259,-51.883c-6.573,2.428 11.164,47.531 -24.914,52.56c-6.943,0.968 -7.012,0.427 -9.651,1.986c11.636,8.248 33.778,1.87 34.346,36.668c0.114,6.969 0.46,6.784 0.942,13.894l-1.762,2.429c-20.075,-3.303 -19.99,-3.389 -21.731,-3.668c-7.413,-1.186 -7.224,-1.217 -14.556,-2.452c-65.395,-12.358 -69.019,-17.415 -84.215,-23.546c-6.314,-3.103 -19.493,-7.309 -19.111,-16.524c1.367,-32.964 22.114,-38.981 -12.824,-89.307c-14.099,-20.309 -11.465,-21.471 -19.459,-53.356c-6.395,-28.84 -9.753,-44.715 -13.996,-50.106c-2.176,-2.765 -13.688,-0.967 -20.985,-5.665c-21.263,-13.687 -7.695,-32.394 -6.017,-34.707l1.965,2.817c0.044,0.557 0.145,0.483 1.58,6.816c-0.07,1.409 -3.579,0.988 -3.649,2.397c-0.093,1.88 2.309,3.057 3.297,4.684c0.694,1.143 5.058,8.327 14.614,8.821c11.014,0.57 16.2,-17.695 25.284,-11.125c0.59,0.427 -0.431,1.69 0.159,2.116c-5.47,21.594 -6.628,21.276 -6.207,23.145c2.145,9.53 77.446,73.129 104.496,93.432c45.15,33.889 56.85,1.59 117.658,-116.271c1.969,-4.029 19.322,-39.536 23.17,-50.983c5.547,-4.22 5.773,-4.005 5.985,-4.554c0.982,-2.535 -2.308,-2.114 -1.464,-4.733c1.049,-3.256 -0.981,-2.58 -6.838,-6.004c-11.013,-6.438 3.619,-4.733 9.925,-5.697c6.639,-1.015 15.386,-13.824 15.036,-15.567c-0.188,-0.935 -1.511,-1.49 -1.553,-2.441c-0.039,-0.891 1.381,-1.456 1.342,-2.347l-0.061,-2.303l1.732,-2.303l1.411,-2.303l2.245,-3.063Z" style="fill:#f4bebf;"/><path d="M1707.576,472.877c14.222,23.66 27.733,78.052 20.602,83.151c-3.634,2.599 -21.323,6.337 -55.381,20.76c-61.924,24.63 -66.026,27.872 -69.422,34.907c-6.682,13.84 -3.91,16.606 -12.761,19.493c-13.271,4.329 -19.651,-4.089 -36.763,21.121c-33.648,49.571 -63.68,68.673 -70.612,73.082c-5.541,3.525 -26.371,16.773 -73.046,38.079c-6.069,2.77 -10.484,-0.249 -5.773,-2.939c24.293,-13.873 56.362,-29.228 89.008,-85.138c0.808,-1.384 13.196,-22.599 1.258,-19.773c-11.304,2.676 -28.123,53.132 -94.74,90.81c-69.725,39.436 -124.753,37.332 -203.101,123.982c-99.996,110.592 -161.25,96.945 -154.118,42.614c4.402,4.997 2.968,5.514 5.053,11.715c0.795,2.364 3.667,5.53 4.301,5.92c23.936,14.687 52.481,-6.451 56.079,-9.115c29.384,-21.759 137.624,-139.517 179.499,-161.894c28.232,-15.087 26.408,-21.148 33.031,-18.657c0.651,0.245 2.74,1.031 8.348,2.493c-3.213,5.256 -20.032,27.827 -15.472,34.123c1.477,2.039 13.602,-5.477 18.418,-12.416c11.186,-16.117 9.976,-16.687 14.644,-35.599c33.101,-17.088 79.443,-26.764 130.246,-104.76c2.386,-3.663 26.929,-41.343 39.36,-38.647c2.301,0.499 13.183,2.859 29.145,-4.312c5.68,-2.552 -14.93,-23.699 -19.889,-41.705c-0.418,-1.516 -1.002,-19.697 -0.556,-21.094c2.163,-6.786 14.29,-0.13 15.355,0.455c-6.969,5.08 -5.355,6.972 0.499,13.348c30.691,33.432 40.324,60.33 47.972,58.184c14.19,-3.983 -42.109,-64.019 -44.192,-66.431c1.306,-0.62 1.731,-2.389 3.037,-3.008c1.971,-0.935 29.101,20.826 31.522,22.768c15.43,12.377 20.591,-3.627 77.546,-35.522c11.389,-6.378 44.041,-25.872 50.902,-35.994Z" style="fill:#e294a2;"/><path d="M415.93,1534.842c2.237,5.426 4.475,10.851 6.712,16.277c-0.507,0.685 0.392,1.829 -0.114,2.515c-2.475,3.348 -3.315,1.134 -7.635,0.668c-3.254,-0.351 -27.757,-2.992 -40.676,4.323c-20.006,11.33 15.223,6.745 16.651,6.559c17.979,-2.34 18.465,1.423 35.699,-4.225c3.386,4.445 1.597,5.29 31.442,61.809l-3.222,2.155l-0.081,2.303c-0.11,2.811 -0.9,22.981 -5.174,34.816c-0.254,0.703 -1.274,1.358 -0.954,2.036c0.682,1.443 2.825,1.923 3.507,3.366c-13.022,9.369 -20.501,13.152 -20.031,21.866l0.884,1.918c-0.333,0.374 -2.15,2.414 -3.825,4.941c-17.089,25.785 -44.476,32.798 -79.874,52.027c-44.638,24.247 -46.161,21.366 -65.269,33.515c-9.44,-8.487 -24.216,-35.817 -29.307,-46.736c-39.844,-85.447 -38.352,-119.314 -38.604,-121.462c3.369,-0.081 3.095,0.266 6.103,1.722c2.185,1.058 17.605,-2.345 19.111,-2.677c18.474,-4.076 77.825,-32.726 81.566,-34.726c42.457,-22.688 43.058,-21.685 46.32,-24.251l2.41,-0.251l2.41,-0.754l2.41,-0.503l2.41,-1.377l2.41,-0.54l2.41,-0.523l2.41,-0.621c9.495,-4.534 9.422,-5.016 21.475,-5.335c3.819,-0.101 3.276,-1.092 5.754,-3.973l-0.371,-2.303l3.046,-2.559Z" style="fill:#f7e1da;"/><path d="M1687.544,169.155l2.203,0.951c27.9,5.334 106.919,53.642 156.97,160.24c0.669,1.425 0.565,1.285 8.07,17.94c-3.157,5.97 -5.138,7.406 -5.779,7.87c-9.498,6.882 -60.644,50.002 -65.867,54.405c-14.881,12.546 -15.061,-1.582 -30.581,-11.159c-31.452,-19.408 -30.959,-21.346 -67.668,-27.217c-7.945,-1.271 -7.794,-17.687 -7.902,-18.612c-6.95,-59.837 -35.507,-77.032 -58.263,-100.001c32.669,-38.387 69.754,-66.455 68.817,-84.416Z" style="fill:#f6d3b9;"/><path d="M725.607,1288.897c3.045,2.965 3.037,2.714 6.021,5.863c21.24,22.405 111.508,45.358 199.215,46.497c-1.128,0.923 0.135,3.227 -0.993,4.15c-2.287,1.871 -2.956,0.49 -35.292,12.488c-15.039,5.58 -62.774,-20.843 -56.413,-4.437c2.294,5.917 21.845,9.253 31.466,14.65c31.061,17.424 121.285,26.526 171.513,7.026c24.137,-9.371 63.209,-29.814 73.285,-17.016c-7.052,4.429 -7.124,4.054 -90.242,44.745c-18.229,8.924 -22.131,-1.797 -91.138,-3.143c-64.677,-1.262 -64.077,-5.819 -125.596,-25.029c-123.335,-38.514 -186.906,17.837 -219.766,39.52c-1.424,0.94 -90.704,50.867 -95.992,53.192c-0.514,0.226 -11.219,2.913 -2.436,-6.348c5.256,-5.541 10.615,-29.08 -10.861,-42.258c-20.662,-12.678 74.232,-34.773 114.637,-70.52c66.834,-59.131 86.578,-50.169 132.593,-59.379Z" style="fill:#eeb6a8;"/><path d="M1233.899,1399.779c4.023,3.591 4.5,2.967 6.434,6.822c9.048,18.036 -59.021,76.566 -62.329,79.236c-82.02,66.196 -85.943,60.669 -112.776,71.489c-45.851,18.498 -74.784,31.995 -110.785,43.578c-37.789,12.158 -67.414,7.091 -98.411,4.675c-96.328,-7.751 -122.534,-14.307 -159.133,-13.568c-53.098,1.072 -106.639,58.298 -118.112,60.457c-19.278,3.628 -8.491,-9.076 -12.61,-27.429c-8.582,-38.24 -45.143,-32.588 -43.544,-41.635c3.261,-18.45 5.114,-18.509 0.245,-36.568c4.079,-2.345 4.051,-2.743 4.391,-2.525c1.128,0.724 13.356,30.109 19.078,35.655c30.335,29.404 40.068,14.25 48.709,9.469c63.692,-35.237 67.383,-46.321 164.384,-28.446c173.533,31.979 176.172,18.026 224.472,2.485c26.623,-8.566 26.71,-7.85 60.026,-19.087c92.309,-31.137 141.709,-91.005 166.981,-111.784c12.096,-9.946 14.324,-22.021 22.98,-32.823Z" style="fill:#e9b09c;"/><path d="M1547.803,285.12c6.698,4.8 6.519,4.639 12.96,10.012c-5.787,17.557 -12.097,25.766 -41.215,61.427c-32.843,40.223 -32.95,41.861 -54.069,47.257c-3.539,0.904 -7.163,7.11 -9.808,9.21c-8.725,6.927 35.954,25.319 34.586,39.644c-1.321,13.825 -8.193,0.871 -48.723,-16.929l-2.545,3.183c-9.598,-8.562 -17.202,-5.561 -14.088,6.674l-3.426,2.374c2.453,19.389 18.029,25.407 9.766,33.847c-6.472,6.611 -32.518,-29.861 -42.324,-21.813c-19.379,15.904 -103.939,42.777 -188.215,75.806c-77.652,30.433 -89.57,12.296 -140.595,65.988c-10.26,10.797 -119.753,126.012 -126.15,136.757c-1.394,2.342 -34.821,82.047 -37.818,89.194c-11.688,27.87 -15.267,53.985 -26.723,85.302c-7.224,19.747 -5.257,20.101 -5.871,30.302c-0.013,0.213 -5.425,8.589 -10.011,2.868c-2.606,-3.252 -3.046,-2.647 -6.168,-5.36c4.187,-40.007 41.664,-134.045 46.192,-145.406c23.534,-59.051 21.959,-60.218 45.674,-85.789c124.619,-134.372 115.584,-146.2 162.274,-163.333c38.56,-14.151 38.662,-13.283 77.66,-26.228c72.6,-24.589 72.429,-24.634 144.695,-50.325c88.698,-31.532 89.003,-33.986 91.78,-42.332c1.051,-3.159 1.381,-13.751 11.36,-16.565c23.997,-6.768 23.872,-7.986 39.66,-26.623c37.388,-44.132 37.444,-43.88 72.054,-90.075c3.921,-5.233 3.366,-5.577 9.088,-9.068Z" style="fill:#f8d0d6;"/><path d="M498.88,1522.186c6.332,3.171 6.193,3.008 9.277,4.764c12.83,10.365 10.684,12.658 14.722,19.884c4.869,18.058 3.017,18.118 -0.245,36.568c-1.599,9.047 34.961,3.396 43.544,41.635c4.119,18.352 -6.669,31.056 12.61,27.429c11.473,-2.159 65.014,-59.385 118.112,-60.457c36.599,-0.739 62.805,5.817 159.133,13.568c30.997,2.416 60.622,7.483 98.411,-4.675c36.001,-11.583 64.933,-25.08 110.785,-43.578c6.529,4.631 7.1,2.498 14.817,0.617c7.249,-1.767 7.135,-1.366 14.472,-1.362c2.453,-1.677 1.613,-2.619 4.788,-3.272c3.739,-0.769 3.573,-0.611 7.262,-1.326c5.58,-1.082 4.216,1.964 5.469,2.548c-12.035,6.107 -11.972,5.654 -24.542,10.937c-7.334,3.111 -47.734,20.249 -92.156,37.852c-78.986,31.3 -83.243,23.768 -259.751,6.633c-65.001,-6.31 -65.694,1.432 -136.719,48.176c-7.741,5.094 0.372,7.481 4.628,17.232c26.856,61.519 -63.161,44.428 -70.465,43.85c-7.549,-0.597 -11.777,19.513 -39.051,45.759c-25.145,24.197 -102.403,72.698 -102.572,72.799c-20.671,12.407 -30.69,21.436 -36.373,10.482c1.954,-9.934 5.304,-7.928 65.49,-49.613c59.434,-41.165 67.02,-44.936 94.233,-88.028c31.975,-15.347 41.279,0.695 68.982,-7.075c12.81,-3.593 0.079,-27.278 -1.045,-29.369c-11.411,-8.635 -20.471,-7.685 -30.509,-9.656c-19.365,-3.802 0.965,-14.051 -1.9,-32.729c-5.166,-33.681 -43.472,-28.061 -45.908,-28.727c-17.946,-4.905 9.965,-23.245 4.885,-44.978c-5.234,-22.388 -23.756,-23.239 -31.714,-25.078l2.46,-3.482c3.436,-0.781 18.711,-2.036 19.279,-2.112l-0.659,-1.52c0.084,-1.233 0.167,-2.465 0.251,-3.698Z" style="fill:#874c44;"/><path d="M423.525,1518.752c27.168,-57.176 38.359,-57.296 46.116,-47.55c17.386,21.842 -9.766,47.35 -4.213,57.065c2.489,4.354 3.76,2.714 12.121,4.731c7.958,1.839 26.481,2.69 31.714,25.078c5.081,21.734 -22.831,40.074 -4.885,44.978c2.435,0.666 40.741,-4.954 45.908,28.727c2.865,18.678 -17.465,28.927 1.9,32.729c10.038,1.971 19.098,1.021 30.509,9.656c1.124,2.091 13.855,25.776 1.045,29.369c-27.703,7.771 -37.007,-8.272 -68.982,7.075c-1.766,-1.95 -12.234,-13.51 -19.228,-26.493c-9.078,-16.853 -4.385,27.018 -54.756,52.567c-15.272,7.746 -17.376,-3.838 -11.067,-7.598c35.591,-21.211 35.25,-22.717 54.117,-58.422c2.033,-3.847 0.471,-4.095 -25.817,-47.895c-29.845,-56.519 -28.056,-57.365 -31.442,-61.809c-1.308,-3.28 -2.616,-6.56 -3.924,-9.841c-2.237,-5.426 -4.475,-10.851 -6.712,-16.277l-3.245,-11.934c4.048,-1.505 3.776,-1.655 7.858,-3.172c0.235,-0.087 -0,-0 2.982,-0.984Z" style="fill:#e5cac3;"/><path d="M458.008,1622.768c26.288,43.8 27.85,44.047 25.817,47.895c-18.867,35.705 -18.527,37.212 -54.117,58.422c-6.309,3.76 -4.205,15.344 11.067,7.598c50.371,-25.549 45.678,-69.42 54.756,-52.567c6.994,12.983 17.462,24.543 19.228,26.493c-27.212,43.092 -34.799,46.863 -94.233,88.028c-60.186,41.685 -63.535,39.68 -65.49,49.613c-7.355,-2.906 -39.554,-15.629 -71.068,-66.539c19.108,-12.149 20.631,-9.268 65.269,-33.515c35.398,-19.228 62.786,-26.241 79.874,-52.027c1.675,-2.527 3.491,-4.567 3.825,-4.941l1.772,-0.139c3.377,-0.426 11.403,-1.439 35.137,-22.98c9.017,-8.185 1.317,-11.863 -1.563,-10.452c-1.364,0.668 -1.086,1.047 -16.199,9.785c-0.682,-1.443 -2.825,-1.923 -3.507,-3.366c-0.32,-0.678 0.7,-1.333 0.954,-2.036c4.274,-11.835 5.064,-32.005 5.174,-34.816l0.081,-2.303l3.222,-2.155Z" style="fill:#e9c7c1;"/><path d="M405.358,1429.739c0.261,0.947 1.891,1.15 2.152,2.097c0.585,2.122 -4.404,2.518 2.279,27.35c3.062,11.379 3.867,19.433 12.926,25.312c-6.652,13.423 -8.611,23.665 -19.837,24.216c-53.064,2.605 -50.974,10.738 -115.966,41.876c-4.935,2.343 -42.431,20.142 -61.923,28.835c-5.396,-6.712 -5.685,-6.525 -5.823,-7.244c-7.725,-40.348 -1.476,-67.489 18.482,-104.913c16.369,1.641 43.195,-4.504 105.312,-25.875c14.372,-4.886 14.111,-4.83 28.771,-8.872c16.935,-1.585 16.727,-1.839 33.627,-2.783Z" style="fill:#e7c7bf;"/><path d="M1618.727,253.571c22.756,22.969 51.313,40.164 58.263,100.001c0.107,0.925 -0.044,17.341 7.902,18.612c36.709,5.871 36.216,7.808 67.668,27.217c15.52,9.577 15.7,23.705 30.581,11.159c5.223,-4.403 56.369,-47.523 65.867,-54.405c0.641,-0.465 2.623,-1.9 5.779,-7.87c4.779,12.559 16.236,25.334 27.188,67.572c3.047,11.751 1.298,11.908 4.852,23.724c-30.122,6.844 -106.208,68.225 -109.159,56.322c-2.635,-10.623 -14.847,-95.496 -99.928,-108.144c-15.475,-2.301 -19.756,0.522 -18.993,-6.561c0.802,-7.455 5.777,-53.666 -20.373,-91.627c-5.267,-7.647 -5.797,-7.152 -24.883,-26.419c-2.762,-2.788 3.043,-7.485 5.236,-9.581Z" style="fill:#e9b29f;"/><path d="M722.505,477.737c-0.161,0.724 -2.845,24.184 -11.159,23.256c-18.366,-2.05 7.64,-72.002 -67.303,-88.032c-4.78,-1.022 -9.618,-1.786 -14.401,-2.795c-17.697,-3.733 -9.506,-12.313 -5.203,-13.281c48.221,-10.852 67.669,-5.728 78.838,-82.629c2.294,-15.792 12.228,-12.453 14.059,-4.791c15.028,62.867 13.798,74.526 80.489,86.544c7.439,1.34 10.591,11.246 -1.936,13.561c-51.209,9.461 -61.667,18.138 -73.385,68.167Z" style="fill:#dbb08a;"/><path d="M1035.148,825.774c-8.08,33.743 -7.351,33.735 -17.875,66.688c-2.683,8.401 0.32,39.405 -22.098,106.787c-11.62,-20.923 -16.674,-24.687 -9.482,-31.134c18.864,-16.906 23.862,-61.521 -26.315,-70.203c-15.213,-2.632 19.442,-44.731 35.469,-81.777c14.381,-33.242 22.717,-26.949 50.487,-51.349c21.042,-18.488 28.608,-32.347 34.08,-27.842c6.927,5.704 15.039,12.779 15.101,15.054c0.047,1.714 -15.479,28.118 -41.507,52.443c-10.493,9.806 -11.712,8.795 -17.86,21.333Z" style="fill:#e494a3;"/><path d="M1022.776,1428.339c-0.252,0.388 -3.154,4.855 -3.154,4.855c-0.954,0.141 -0.561,-1.87 -11.846,-2.166c-142.267,-3.735 -142.865,-2.245 -166.413,-10.554c-12.089,-4.265 -46.366,-13.486 -50.422,-14.577c-73.253,-19.705 -122.434,1.643 -132.064,5.823c-41.929,18.2 -39.205,22.235 -87.873,53.406c-4.81,3.081 -59.829,31.883 -65.053,34.618c-4.928,2.58 -3.34,5.258 -9.073,5.808c-0.643,0.062 -1.452,0.139 -6.238,-4.895c0.536,-3.871 0.711,-7.782 1.247,-11.653c0.485,-3.507 1.806,-2.996 58.575,-35.86c30.207,-17.487 32.044,-14.382 60.454,-34.474c99.185,-70.146 168.452,-35.686 245.26,-10.967c46.758,15.048 128.062,-0.118 166.6,20.636Z" style="fill:#fae6d7;"/><path d="M974.507,1249.825c-7.981,10.006 -14.826,25.88 -28.206,10.155c-4.16,-4.889 -43.314,-50.909 -41.601,-68.001c0.59,-5.884 39.404,-78.315 52.551,-76.675c11.194,1.396 51.301,73.17 50.592,78.923c-1.656,13.44 -28.917,49.103 -33.336,55.599Z" style="fill:#a8636b;"/><path d="M1132.461,215.46c13.162,53.371 16.709,57.776 67.828,69.947c8.288,1.973 8.778,11.039 -1.921,13.573c-57.084,13.522 -52.654,24.429 -65.155,70.73c-2.547,9.435 -12.778,12.331 -15.317,0.138c-12.174,-58.459 -20.698,-61.053 -64.464,-71.223c-5.566,-1.294 -16.67,-10.116 2.543,-14.122c52.317,-10.907 51.046,-22.701 61.076,-68.977c0.253,-1.169 4.294,-19.811 12.673,-8.711c1.382,1.831 0.962,1.885 2.738,8.644Z" style="fill:#c58c97;"/><path d="M438.826,827.317c-58.198,21.545 -31.721,74.671 -50.151,77.607c-15.434,2.459 -4.159,-67.846 -53.089,-77.488c-21.52,-4.24 -22.28,-2.886 -26.205,-6.696c-12.509,-12.144 45.434,-8.877 59.034,-39.02c14.126,-31.309 10.043,-61.771 22.437,-50.458c10.186,9.298 -4.132,66.154 57.711,76.513c0.842,0.141 19.779,0.721 18.779,8.628c-0.842,6.655 -21.024,9.264 -28.517,10.913Z" style="fill:#d1a883;"/><path d="M1579.174,258.754c54.6,36.381 70.722,70.187 60.473,134.017c-3.921,24.419 60.546,-17.015 105.881,61.962c-12.689,7.182 -11.374,9.156 -24.956,14.421c-39.496,-59.406 -98.237,-43.393 -110.35,-42.402c-3.522,0.288 -2.711,-2.07 3.983,-22.737c0.583,-2.966 1.166,-5.933 1.749,-8.899c1.118,-17.705 2.517,-22.778 -2.427,-44.104c-12.758,-36.578 -16.69,-42.502 -49.131,-68.794c9.422,-10.386 6.877,-11.789 14.778,-23.463Z" style="fill:#f4d088;"/><path d="M1181.07,1088.118l2.839,2.439c-5.644,9.032 -1.705,9.83 -3.719,20.202c-1.49,7.676 -14.175,11.667 -15.711,12.15c0.25,0.708 0.501,1.415 0.751,2.123c0.48,0.273 -0.485,1.328 -0.006,1.601c0.646,0.368 1.065,-0.859 8.837,3.066c12.66,6.394 -1.701,15.313 9.842,23.425c-26.697,30.244 -17.946,46.352 -11.647,77.807c3.271,16.332 -2.013,15.898 -17.384,23.466c-21.798,9.023 -20.985,11.018 -65.059,20.701c7.924,-31.493 12.503,-29.771 13.02,-32.512c0.187,-0.989 -1.361,-1.81 -1.174,-2.799c9.428,-4.822 8.71,-6.049 13.936,-15.817c1.362,-0.016 1.783,2.51 3.146,2.494c7.904,-0.095 5.46,-20.877 1.633,-27.541c-6.196,-10.789 16.787,-46.332 11.906,-65.206c1.33,-1.162 11.175,-9.766 16.886,-14.244c14.457,-11.337 25.101,-25.782 31.903,-31.355Z" style="fill:#ed9fac;"/><path d="M820.963,1027.782c6.826,9.354 9.091,12.06 9.936,13.069c2.496,3.061 4.991,6.123 7.487,9.184l0.852,1.178c17.132,20.313 17.79,19.546 30.327,32.973c5.219,5.589 -13.799,28.582 -28.131,52.399c-5.661,2.922 -5.921,1.856 -11.337,-1.016c-15.15,-13.012 -24.216,-13.954 -44.463,-35.573c0.923,-1.61 1.847,-3.219 2.77,-4.829c7.409,-41.787 15.479,-70.484 15.25,-82.899c-0.194,-10.488 -20.137,-6.112 -20.535,-25.309c-0.616,-29.723 50.256,-16.492 30.802,13.104c-5.018,7.634 -6.751,9.572 7.042,27.72Z" style="fill:#e993a6;"/><path d="M1091.82,1025.921c10.833,-12.263 12.994,-15.263 5.486,-25.433c-15.998,-21.67 20.988,-45.093 30.136,-17.955c5.292,15.7 -9.54,21.532 -11.462,22.287c-11.134,4.378 -7.629,7.479 -6.615,18.923c1.266,14.285 0.173,14.447 5.597,27.675l2.201,3.206c-1.676,2.972 -1.327,4.354 -14.849,6.462c-0.006,0.792 -1.557,1.056 -1.562,1.848c-0.004,0.483 0.417,0.16 5.866,2.247c7.289,3.81 9.842,1.817 11.7,9.61c0.11,0.461 0.238,0.373 3.217,5.041c0.29,1.804 1.375,8.564 5.018,22.302c-1.872,1.501 -3.745,3.002 -5.617,4.504c-3.466,3.862 -1.264,4.693 -3.953,9.112c-0.774,-0.077 0.588,-2.146 -0.186,-2.224c-8.904,-0.891 -34.468,31.081 -46.027,20.328c-3.685,-3.428 -3.427,-3.428 -9.734,-10.389c5.815,-2.339 9.492,-1.571 6.712,-5.06c-1.026,-1.288 -10.553,1.34 -11.09,-5.289c-0.052,-0.646 -0.605,-7.475 -2.777,-7.649c-1.175,-0.095 -2.166,1.205 -3.341,1.111c-7.998,-17.127 -13.114,-17.47 -8.361,-22.47c20.518,-21.583 20.032,-21.732 49.642,-58.188Z" style="fill:#e58fa3;"/><path d="M1706.638,1014.599c-25.317,18.734 -16.343,62.978 -31.177,54.855c-9.576,-5.244 -4.302,-49.988 -38.581,-59.954c-3.112,-0.905 -24.246,-4.677 -25.98,-11.169c-3.35,-12.541 44.91,0.136 55.269,-45.832c0.941,-4.178 4.225,-32.541 13.574,-27.101c10.237,5.957 -0.166,53.181 43.935,63.059c14.8,3.315 17.444,0.135 20.031,7.351c3.784,10.555 -8.571,4.322 -37.071,18.79Z" style="fill:#be8b93;"/><path d="M1152.019,1269.767c18.745,-8.576 18.733,-8.781 19.608,-8.708c1.764,0.147 11.769,23.628 -36.57,40.409c-116.39,40.405 -268.233,19.129 -291.331,15.892l-0.599,-3.374c-3.363,-2.544 -2.929,-3.121 -7.114,-4.133c-2.939,-0.711 -2.082,-6.45 3.004,-6.036c45.308,3.692 57.209,7.475 61.967,8.987c8.196,0.937 12.433,4.839 12.456,-3.189c1.801,-0.052 0.971,-1.626 2.749,-1.677c1.595,-0.046 0.785,1.44 2.379,1.53c0.798,0.045 1.239,-1.01 1.985,-1.283c3.647,-1.336 3.805,0.825 48.813,0.857c5.701,0.004 3.825,3.484 7.224,4.66c8.233,2.849 9.24,1.354 12.895,-6.371c0.385,-0.814 3.667,0.249 11.058,-0.216c1.74,-0.109 15.292,-0.961 21.632,-2.609c4.12,-1.071 1.787,2.488 2.831,4.246c0.7,1.177 1.568,2.258 2.267,3.435c11.583,-3.155 14.739,-4.491 20.348,-10.387l2.751,-1.996c1.614,-0.093 15.99,-0.922 19.974,-2.926c7.807,-3.93 8.747,-0.117 16.955,-3.387c3.365,-1.341 3.643,0.354 6.989,-1.006c7.032,-2.859 7.112,-0.061 14.671,0.603c18.437,1.62 25.495,-0.179 28.999,-0.229c16.138,-0.231 13.072,-15.502 13.44,-20.331l0.617,-2.761Z" style="fill:#f3c794;"/><path d="M223.006,956.757c-8.034,-35.405 26.176,-27.621 30.733,-25.604c11.703,5.18 11.52,0.082 14.97,-6.004c5.864,-10.346 30.324,-24.168 40.223,4.194c6.629,18.993 -10.506,56.181 -17.976,65.934c-7.747,10.116 -54.507,-6.472 -67.95,-38.52Z" style="fill:#c28791;"/><path d="M265.71,650.417c-18.778,-10.855 -33.378,-5.778 -31.78,-15.935c0.536,-3.409 15.567,-6.963 17.015,-7.306c37.347,-8.831 30.398,-44.041 38.401,-55.076c10.777,-14.862 8.653,29.893 27.435,45.589c12.893,10.775 63.642,15.211 21.045,26.045c-47.021,11.96 -29.09,52.847 -43.202,55.893c-14.012,3.024 -1.015,-26.582 -28.913,-49.21Z" style="fill:#bf8a94;"/><path d="M1137.724,651.374c-0.615,0.666 -1.638,0.904 -2.253,1.569c-6.235,6.748 38.609,48.024 34.08,57.719c-16.412,35.127 -23.459,38.766 -27.001,40.596c-4.198,-0.657 -31.053,-4.857 -49.597,-18.32c-9.99,-7.253 6.599,0.944 45.177,-12.707c13.358,-4.727 17.893,-17.999 2.043,-15.051c-19.405,3.61 -18.43,11.183 -58.02,8.372c4.273,-32.378 -0.315,-32.076 -2.151,-37.4c41.186,-20.408 43.358,-18.713 45.684,-25.507c0.573,-1.673 0.188,-10.869 7.723,-7.393c2.037,0.94 1.459,1.386 4.316,8.122Z" style="fill:#e294a2;"/><path d="M1630.074,1293.098c-9.922,-24.808 -16.898,-24.251 -41.625,-29.542c-6.095,-1.304 -10.935,-10.121 2.766,-13.089c43.409,-9.405 35.483,-24.566 43.915,-53.715c0.322,-1.113 8.786,-14.833 13.357,6.732c13.142,61.999 43.497,37.362 53.161,50.704c1.034,1.427 3.732,6.042 -19.003,11.868c-36.955,9.471 -29.878,47.123 -36.839,54.34c-9.656,10.01 -14.664,-22.851 -15.731,-27.297Z" style="fill:#cea885;"/><path d="M1476.419,1164.221c0.104,-2.262 -1.634,-17.448 6.439,-24.922c0.747,-0.691 5.242,-4.853 11.618,-5.567c17.122,-1.919 24.45,18.761 24.514,18.879c3.508,6.476 5.195,1.742 12.11,-1.224c29.491,-12.649 54.216,34.139 -19.953,62.735c-17.373,6.698 -27.797,-8.412 -34.728,-49.901Z" style="fill:#c38b92;"/><path d="M406.793,1095.46c10.255,28.122 17.277,22.896 39.564,31.8c1.574,0.629 11.892,10.091 -4.717,12.812c-48.977,8.024 -28.493,61.607 -48.504,49.674c-5.475,-3.265 -4.931,-37.906 -26.909,-45.099c-18.941,-6.2 -21.419,-4.1 -22.674,-10.427c-2.872,-14.479 33.754,4.923 44.069,-41.548c0.354,-1.595 4.114,-18.535 7.97,-18.904c5.948,-0.569 7.702,9.109 11.202,21.691Z" style="fill:#ce9b98;"/><path d="M769.137,402c-1.003,0.839 0.696,2.97 -0.307,3.809c-1.801,1.506 -4.86,-5.501 -27.76,10.65c-23.102,16.293 -27.012,45.392 -27.614,49.869c-6.474,-5.032 -2.634,-6.779 -5.179,-13.579c-16.395,-43.814 -44.612,-45.748 -50.507,-47.781c-10.086,-3.478 6.289,-5.371 7.573,-5.85c48.798,-18.214 43.226,-66.287 45.927,-66.398c8.146,-0.335 -8.76,51.519 57.867,69.279Z" style="fill:#f3ce95;"/><path d="M374.958,473.408c8.357,-27.586 30.495,-12.234 32.612,-11.36c10.32,4.26 7.782,-25.409 31.732,-19.646c27.843,6.7 13.523,86.677 -12.057,78.516c-50.016,-15.958 -51.891,-42.006 -52.287,-47.51Z" style="fill:#bc818d;"/><path d="M1152.019,1269.767l-0.617,2.761c-0.368,4.83 2.698,20.101 -13.44,20.331c-3.505,0.05 -10.562,1.849 -28.999,0.229c-7.56,-0.664 -7.64,-3.462 -14.671,-0.603c-3.346,1.36 -3.624,-0.335 -6.989,1.006c-8.208,3.271 -9.147,-0.542 -16.955,3.387c-3.983,2.005 -18.36,2.833 -19.974,2.926c-0.917,0.665 -1.834,1.331 -2.751,1.996c-5.609,5.897 -8.765,7.233 -20.348,10.387c-0.7,-1.177 -1.568,-2.258 -2.267,-3.435c-1.045,-1.757 1.289,-5.317 -2.831,-4.246c-6.34,1.648 -19.891,2.499 -21.632,2.609c-7.391,0.464 -10.673,-0.599 -11.058,0.216c-3.655,7.725 -4.662,9.22 -12.895,6.371c-3.399,-1.176 -1.522,-4.656 -7.224,-4.66c-45.008,-0.032 -45.166,-2.193 -48.813,-0.857c-0.746,0.273 -1.188,1.328 -1.985,1.283c-1.594,-0.09 -0.785,-1.576 -2.379,-1.53c-1.778,0.051 -0.949,1.625 -2.749,1.677c-0.446,-0.11 -1.998,-3.323 -6.89,-1.696c-0.571,0.19 -0.412,0.362 -5.566,4.885c-4.758,-1.512 -16.66,-5.295 -61.967,-8.987c-5.086,-0.415 -5.944,5.325 -3.004,6.036c4.185,1.012 3.751,1.589 7.114,4.133l0.599,3.374c-25.531,-4.381 -30.253,-4.83 -60.271,-14.388c-14.606,-5.438 -14.486,-5.135 -28.857,-11.66c0.539,-0.399 3.223,2.249 4.804,-5c1.377,-6.313 1.144,-9.462 7.367,-6.858c30.603,12.809 29.525,15.908 52.985,18.732c2.122,0.255 2.111,-0.412 26.733,0.305c4.305,0.125 3.804,-1.074 9.335,-4.718c11.154,1.669 10.97,2.075 22.105,2.384c3.214,0.562 3.079,0.92 6.23,0.527c18.793,5.062 53.855,4.796 58.557,4.761c123.02,-0.933 176.17,-19.61 209.305,-31.678Z" style="fill:#f0c794;"/><path d="M1251.451,1359.572c2.159,1.473 16.728,11.413 0.933,31.683c-5.577,7.158 -11.437,-24.05 -75.45,-0.201c-14.852,5.534 -96.817,70.798 -118.327,65.042c-3.08,-0.824 -6.581,-15.11 -0.116,-17.44c5.018,-1.808 78.209,-32.054 94.91,-45.375c45.659,-36.42 73.944,-43.664 98.051,-33.71Z" style="fill:#f1bca9;"/><path d="M593.553,675.889c-9.12,-19.007 -10.852,-18.488 -31.241,-26.085c-14.701,-5.478 1.519,-11.516 2.463,-11.868c26.782,-9.971 24.383,-14.159 32.898,-40.4c6.481,-19.973 16.465,20.561 20.881,26.985c9.759,14.199 54.224,17.096 18.333,26.883c-26.727,7.288 -22.462,34.597 -29.598,42.693c-7.287,8.266 -10.519,-7.207 -13.734,-18.208Z" style="fill:#bf9493;"/><path d="M1127.641,236.365c6.495,52.412 46.163,51.284 45.716,55.484c-0.769,7.226 -31.663,1.149 -45.321,50.078c-1.542,1.357 -1.508,0.961 -3.91,1.732c-11.968,-34.862 -21.436,-40.512 -44.128,-49.924l-0.199,-2.405c0.526,-0.378 -1.835,-1.033 -1.31,-1.411c1.643,-1.18 3.956,-1.097 5.853,-1.853c4.155,-1.656 28.744,-11.457 37.225,-40.335c2.611,-8.891 0.668,-11.202 6.074,-11.366Z" style="fill:#f5b0b9;"/><path d="M1026.71,937.205c25.027,49.296 55.053,26.04 56.551,33.048c0.476,2.226 -3.707,1.775 -4.338,28.102c-0.159,6.648 -7.789,13.965 -9.249,15.724c-0.352,0.386 -30.43,38.03 -44.436,-8.831c-3.707,-12.403 0.583,-13.189 -5.705,-27.448c-4.42,-10.025 3.317,-9.912 5.158,-36.91c0.023,-0.332 0.149,-0.273 2.018,-3.684Z" style="fill:#f0aebe;"/><path d="M1518.083,955.009c-9.087,-10.763 -9.914,-9.817 -23.318,-14.699c-10.577,-3.852 -11.177,-10.179 -0.225,-13.295c28.207,-8.025 25.495,-17.666 30.837,-39.319c1.18,-4.783 9.338,-5.703 10.93,-0.082c7.554,26.665 5.029,32.132 32.99,39.311c8.791,2.257 9.508,9.89 -0.468,12.796c-41,11.946 -22.015,29.442 -33.24,40.365c-9.04,8.797 -11.047,-11.58 -17.505,-25.078Z" style="fill:#d0a98d;"/><path d="M416.919,1424.322c14.084,-19.656 31.932,-77.789 53.014,-36.423c7.092,13.915 -44.93,30.691 -4.249,43.12c1.951,0.596 14.323,4.376 12.629,21.28c-1.285,12.819 -19.867,-15.832 -40.33,10.634c-0.656,0.848 -5.798,7.499 -7.926,10.791c-9.038,-8.028 -8.358,-35.392 -13.137,-49.402Z" style="fill:#eccac1;"/><path d="M1433.326,1375.934c-3.31,9.792 -6.34,14.958 -12.872,6.753c-4.318,-5.424 -2.925,-28.615 -20.015,-33.767c-14.887,-4.488 -16.76,-2.575 -18.402,-7.577c-3.758,-11.447 25.687,-5.013 32.894,-27.387c0,-0.002 4.232,-23.459 12.138,-23.399c14.795,0.111 -3.172,30.82 31.314,39.625c1.212,0.309 25.977,6.633 5.021,14.194c-22.528,8.128 -23.358,9.509 -30.076,31.558Z" style="fill:#d19a9c;"/><path d="M929.791,348.717c-3.264,12.961 -0.758,14.626 -6.78,17.637c-13.627,6.813 -2.922,-29.684 -30.753,-38.525c-1.381,-0.439 -15.621,-4.962 -15.704,-8.787c-0.213,-9.749 26.705,-3.495 32.955,-29.872c3.318,-14.003 0.388,-16.263 6.739,-18.403c15.251,-5.138 6.132,27.275 27.022,35.571c5.049,2.005 26.574,5.628 17.86,14.134c-2.758,2.692 -18.051,7.19 -20.288,8.596c-8.314,5.225 -10.402,17.686 -11.05,19.649Z" style="fill:#d9b18e;"/><path d="M343.473,815.102c51.436,-20.035 35.344,-51.135 44.963,-50.76c3.529,0.137 -2.171,16.191 19.585,38.027c3.966,3.981 12.797,9.355 17.099,10.888c5.494,1.957 6.142,1.369 6.166,3.146c0.044,3.389 -27.769,7.668 -39.535,41.93c-1.83,5.328 -2.274,27.313 -5.307,10.865c-7.852,-42.581 -42.342,-50.272 -43.091,-51.022c-0.178,-0.178 -0,-0 0.12,-3.074Z" style="fill:#f4d19a;"/><path d="M1055.723,1472.193c1.129,2.152 2.195,1.019 3.245,3.02c0.088,0.168 0.254,0.485 -0.451,2.303c-9.236,23.8 -37.149,32.742 -41.286,34.067c-70.267,22.508 -71.824,16.95 -168.516,8.86l-2.41,-0.276l-2.41,0.044l-2.41,-0.496l-2.442,-3.202c36.797,-7.592 36.968,-5.064 74.762,-5.792c131.783,-2.541 123.306,-30.969 141.918,-38.527Z" style="fill:#ebb6a2;"/><path d="M1034.228,1415.344c6.478,-9.008 33.792,-8.305 88.411,-44.7c3.338,-2.224 48.188,-35.574 75.477,-28.966c14.942,3.618 -4.939,3.948 -27.191,19.861c-28.073,20.076 -25.72,23.406 -57.594,36.783c-63.375,26.599 -63.897,32.245 -68.554,27.683c-0.858,-0.84 -0.731,-0.907 -10.549,-10.66Z" style="fill:#f2b9ae;"/><path d="M1723.592,701.435c-34.869,27.959 -43.416,16.523 -45.638,13.549c-15.634,-20.92 -17.82,-67.646 9.549,-60.171c15.059,4.113 7.908,21.035 23.779,16.153c21.5,-6.613 29.594,12.991 12.31,30.469Z" style="fill:#daa7ae;"/><path d="M1745.529,454.732c3.073,6.202 20.664,41.701 22.208,83.112c-1.265,3.622 -0.245,4.375 -3.833,5.957c-6.304,2.779 -19.407,7.038 -20.958,6.963c-0.873,-0.042 0.266,-35.349 -22.373,-81.611c13.582,-5.265 12.267,-7.239 24.956,-14.421Z" style="fill:#dca469;"/><path d="M268.144,981.876c-3.571,-1.944 -38.224,-20.813 -34.375,-36.49c3.943,-16.056 26.054,0.018 27.828,1.308c12.918,9.391 8.129,-5.417 18.724,-17.016c10.028,-10.979 30.661,1.753 4.007,54.747c-2.747,5.461 -7.99,1.849 -16.184,-2.549Z" style="fill:#ea97a7;"/><path d="M1131.21,768.238c-12.782,18.975 -58.062,53.752 -84.066,97.489c-0.273,0.46 -2.761,4.643 -3.536,5.683c-0.522,-0.482 -2.064,0.603 -2.62,-4.218c11.404,-34.38 6.521,-36.635 15.588,-45.534c25.954,-25.472 36.211,-33.993 47.543,-60.46c3.893,-9.093 25.098,4.739 27.091,7.041Z" style="fill:#e2919f;"/><path d="M1143.917,977.227c-5.167,-12.836 -9.527,-10.503 -11.218,-17.882c-2.021,-8.817 2.691,-12.14 3.581,-12.767c22.245,-15.683 20.729,-17.22 42.645,-33.269c9.748,-7.139 4.328,27.519 2.719,34.533c-2.602,11.342 -17.251,33.1 -17.715,33.424c-8.251,5.765 -16.437,4.759 -17.908,4.578c-0.929,-4.57 -1.163,-4.264 -2.104,-8.617Z" style="fill:#e799a7;"/><path d="M1677.722,959.195l1.763,0.433c10.297,36.649 30.11,32.509 36.397,36.95c0.642,0.453 -1.569,1.657 -0.927,2.11l-1.316,1.703c-28.552,6.44 -30.519,27.298 -34.066,36.809c-2.203,5.907 -3.099,-0.151 -5.325,-5.995c-12.361,-32.449 -41.572,-31.046 -29.677,-36.318c32.724,-14.505 25.614,-28.181 31.25,-37.46c0.444,-0.731 1.458,2.498 1.902,1.767Z" style="fill:#f2b4ba;"/><path d="M239.385,1104.553c8.527,-14.491 11.808,4.413 13.349,9.312c4.993,15.868 16.328,13.723 24.334,18.725c13.835,8.645 -20.567,7.834 -24.918,29.688c-0.206,1.037 -5.195,26.092 -12.16,6.246c-6.433,-18.331 -6.827,-19.129 -24.795,-27.734c-9.032,-4.326 1.539,-8.334 2.228,-8.595c14.939,-5.663 15,-7.04 21.962,-27.643Z" style="fill:#e7c998;"/><path d="M962.305,1141.098c5.148,7.465 7.895,9.97 17.556,27.186c11.662,20.784 15.74,20.372 12.49,32.347c-4.189,6.593 -4.088,6.568 -4.488,7.111c-4.769,-3.916 -9.38,-11.628 -15.879,2.734c-6.915,15.283 -15.337,35.356 -18.48,27.163c-2.201,-5.735 -3.117,-14.561 -15.875,-31.742c-1.568,-2.112 -0.869,-10.139 -9.123,-6.692c-0.575,0.24 -3.956,1.652 -6.167,4.638c-0.434,0.586 1.444,1.34 1.01,1.926c-3.539,-6.758 -3.726,-6.512 -4.968,-13.878c9.255,4.126 9.531,1.656 19.448,0.331c4.704,5.901 4.916,5.474 13.152,17c6.876,9.622 10.683,3.368 19.753,-13.171c1.328,-2.422 3.662,-6.677 -13.175,-31.782c-3.264,-16.988 -1.166,-17.298 4.747,-23.173Z" style="fill:#eb95a9;"/><path d="M395.699,467.968c14.83,3.048 23.648,17.504 26.888,0.828c5.93,-30.52 18.516,-13.306 18.971,-11.638c4.689,17.207 -4.689,55.857 -11.773,54.321c-15.908,-3.448 -67.665,-38.703 -34.086,-43.51Z" style="fill:#e397a5;"/><path d="M593.78,905.859c-3.103,-3.275 -33.677,-35.547 -32.444,-45.7c3.178,-26.153 80.033,58.723 71.869,70.744c-2.062,3.036 -6.929,7.296 -39.425,-25.043Z" style="fill:#e6a7b9;"/><path d="M1373.341,307.711c5.51,13.043 7.206,12.174 19.709,16.522c6.904,2.401 3.905,8.655 0.084,10.576c-16.89,8.494 -15.103,10.581 -22.518,27.504c-0.559,1.275 -7.538,9.243 -14.028,-10.896c-6.142,-19.061 -33.202,-16.826 -20.521,-24.788c3.557,-2.233 16.521,-3.854 20.346,-14.809c6.314,-18.084 11.207,-13.946 12.221,-12.943c3.419,3.384 2.434,3.701 4.707,8.834Z" style="fill:#eacfa0;"/><path d="M504.219,985.363c4.881,0.049 30.561,0.309 59.839,11.421c15.867,6.022 23.59,9.453 25.679,13.674c11.799,23.855 -133.556,-11.922 -85.518,-25.096Z" style="fill:#e4a3b5;"/><path d="M1516.211,1198.764c-0.901,0.368 -17.193,16.284 -24.471,-20.63c-6.65,-33.73 4.469,-32.194 6.921,-31.188c14.044,5.762 3.949,37.227 27.865,20.563c16.672,-11.617 23.768,-2.742 18.04,7.96c-6.406,11.969 -25.723,21.938 -28.355,23.296Z" style="fill:#eb9aa7;"/><path d="M1381.335,1049.967c2.289,-0.064 37.957,-4.476 33.562,10.62c-2.812,9.659 -87.833,19.452 -93.891,6.977c-7.284,-15 53.733,-17.101 60.329,-17.596Z" style="fill:#e3a0b5;"/><path d="M1115.596,1223.97c-5.226,9.768 -4.508,10.996 -13.936,15.817c-22.361,4.541 -26.372,-15.177 -25.55,-27.074c2.362,-34.188 51.116,-32.933 39.486,11.256Z" style="fill:#b26f62;"/><path d="M814.978,1240.267c-32.296,-7.564 -19.18,-40.527 -16.643,-43.572c27.892,-33.493 57.678,40.505 16.643,43.572Z" style="fill:#b47567;"/><path d="M263.022,634.449c30.505,-14.875 22.59,-26.851 28.871,-34.665c3.159,-3.93 5.115,5.425 5.666,6.798c9.93,24.75 26.133,25.386 28.097,28.046c1.431,1.938 -6.074,4.914 -6.71,5.166c-26.52,10.517 -23.026,43.283 -27.029,29.374c-8.254,-28.681 -21.057,-22.512 -28.895,-34.719Z" style="fill:#f5afba;"/><path d="M844.002,1231.18c2.639,-1.558 2.707,-1.018 9.651,-1.986c36.078,-5.028 18.341,-50.132 24.914,-52.56c10.212,-3.772 -5.795,42.002 23.259,51.883c2.408,0.819 27.168,2.306 4.86,7.574c-26.115,6.168 -21.284,35.293 -22.425,43.122c-0.443,3.039 0.526,2.761 1.121,5.885l-1.021,0.606c-0.178,0.053 -1.53,2.606 -5.072,1.501c-0.538,-0.168 -0.326,-1.229 -0.864,-1.397l-0.897,-1.638l1.762,-2.429c-0.482,-7.11 -0.828,-6.925 -0.942,-13.894c-0.568,-34.797 -22.71,-28.419 -34.346,-36.668Z" style="fill:#fcf8f7;"/><path d="M1639.676,1224.526c6.577,0.375 3.955,3.31 7.592,10.572c11.379,22.723 34.798,19.306 22.708,24.831c-15.449,7.06 -18.164,7.416 -24.18,28.511c-0.52,1.73 -1.039,3.46 -1.559,5.189c-1.015,0.723 0.188,2.398 -3.331,2.371c-0.383,-0.003 -0.64,-0.499 -1.023,-0.502c0.921,-31.731 -28.461,-32.141 -27.659,-39.173c0.901,-7.902 16.663,2.281 27.452,-31.8Z" style="fill:#f5d2a4;"/><path d="M1352.433,1253.524c-4.871,-1.537 -41.534,-13.106 -57.096,-27.891c-27.269,-25.906 15.698,-15.118 56.375,8.733c20.638,12.101 8.4,18.728 0.721,19.158Z" style="fill:#eab1c0;"/><path d="M754.598,1291.312c-10.393,-6.137 -15.14,-9.151 -16.92,-21.062c-1.1,-7.36 -0.421,-10.678 6.871,-8.087c30.854,10.962 28.769,17.422 111.274,31.611c-5.531,3.643 -5.03,4.843 -9.335,4.718c-24.622,-0.717 -24.611,-0.049 -26.733,-0.305c-23.46,-2.824 -22.382,-5.923 -52.985,-18.732c-6.223,-2.605 -5.991,0.545 -7.367,6.858c-1.581,7.248 -4.265,4.601 -4.804,5Z" style="fill:#f8e0b6;"/><path d="M366.88,1132.258c5.349,-0.497 5.525,-0.165 10.942,-3.504c14.344,-8.843 16.252,-28.38 16.248,-28.427c-1.736,-20.844 3.835,3.676 3.933,4.112c5.501,24.212 27.952,24.84 24.764,30.082c-4.458,7.331 -12.585,0.89 -23.242,24.57c-5.439,12.087 -3.21,-9.381 -20.926,-19.805c-6.755,-3.975 -11.608,0.442 -11.719,-7.027Z" style="fill:#f1c5a2;"/><path d="M1330.878,948.015c-1.202,0.805 -30.755,23.384 -33.873,13.556c-3.63,-11.441 56.177,-66.818 57.834,-41.442c0.547,8.372 -21.64,26.038 -23.961,27.886Z" style="fill:#e4a6b6;"/><path d="M574.136,1201.314c9.325,-6.239 8.628,-7.22 19.336,-11.228c23.934,-8.959 23.912,-9.398 26.084,-8.968c20.328,4.025 -37.012,45.242 -55.461,41.646c-1.927,-0.376 -11.581,-4.851 10.041,-21.45Z" style="fill:#edbbc7;"/><path d="M1438.989,438.924c25.445,27.272 32.552,41.573 34.576,45.646c8.134,27.671 -20.061,-0.253 -33.363,-18.974c-7.288,-10.257 -8.057,-9.51 -15.301,-19.998c-3.113,-12.235 4.49,-15.236 14.088,-6.674Z" style="fill:#bd7580;"/><path d="M1116.981,1115.75c3.244,4.703 3.342,4.497 5.209,9.823c-9.724,9.828 -37.91,28.373 -49.503,25.462c-9.677,-2.431 -9.469,-2.978 -16.145,-10.041c2.979,-11.329 -2.427,-13.73 4.492,-17.528c6.307,6.961 6.049,6.961 9.734,10.389c11.559,10.752 37.123,-21.219 46.027,-20.328c0.774,0.077 -0.588,2.146 0.186,2.224Z" style="fill:#b47b79;"/><path d="M1195.942,648.542c-15.43,30.33 -14.73,46.38 -21.268,38.424c-13.798,-16.788 -13.575,-16.693 -29.658,-31.548c9.944,-3.007 25.397,7.948 30.268,-5.613c7.034,-19.582 17.996,-11.926 17.338,-3.756l3.321,2.492Z" style="fill:#e193a0;"/><path d="M962.305,1141.098c-5.913,5.875 -8.011,6.185 -4.747,23.173l-1.983,2.609c-1.575,1.92 -8.045,9.805 -17.747,25.344c-9.917,1.325 -10.194,3.795 -19.448,-0.331c0.497,-1.032 9.067,-18.299 32.922,-55.983c4.612,-7.285 6.82,-2.206 11.002,5.188Z" style="fill:#fbe3e7;"/><path d="M947.7,913.801c11.316,-3.168 17.755,-1.706 27.061,5.574l-2.245,3.063l-1.411,2.303l-1.732,2.303l0.061,2.303c0.039,0.891 -1.381,1.456 -1.342,2.347c0.042,0.951 1.365,1.506 1.553,2.441c0.35,1.742 -8.397,14.552 -15.036,15.567c-6.307,0.964 -20.938,-0.741 -9.925,5.697c5.857,3.424 7.887,2.748 6.838,6.004c-0.844,2.619 2.446,2.198 1.464,4.733c-0.213,0.549 -0.438,0.333 -5.985,4.554c-0.983,-13.786 -29.297,-17.067 -13.805,-45.878c0.415,0.605 -1.455,1.323 -1.04,1.928c0.437,0.637 5.398,4.322 5.881,4.681c18.139,13.473 32.073,-6.393 12.845,-15.893l-3.181,-1.727Z" style="fill:#efc695;"/><path d="M923.349,1205.771c0.434,-0.586 -1.444,-1.34 -1.01,-1.926c2.211,-2.986 5.591,-4.398 6.167,-4.638c8.254,-3.448 7.555,4.58 9.123,6.692c12.757,17.181 13.674,26.007 15.875,31.742c3.143,8.193 11.565,-11.881 18.48,-27.163c6.499,-14.362 11.109,-6.651 15.879,-2.734c-2.103,3.421 -19.307,31.415 -29.008,41.126c-4.373,4.378 -12.984,-10.266 -35.505,-43.098Z" style="fill:#f3a1b7;"/><path d="M913.129,1090.484c2.436,-6.275 1.508,-8.369 13.654,-29.111c8.921,-15.236 23.9,-13.18 17.574,-1.142c-17.216,32.763 -23.503,51.23 -28.329,55.503c-14.985,13.265 -3.509,-23.304 -2.898,-25.25Z" style="fill:#fae3db;"/><path d="M582.408,644.334c26.281,-19.831 14.701,-35.653 22.476,-32.166c0.945,0.424 -0.219,9.785 10.91,23.869c2.364,2.992 13.624,5.806 4.869,11.158c-15.908,9.725 -16.234,31.091 -19.699,23.944c-3.005,-6.199 -0.655,-6.876 -4.035,-12.852c-5.205,-9.202 -10.084,-8.942 -15.642,-12.274l1.121,-1.679Z" style="fill:#f2c49d;"/><path d="M1001.73,1009.946c2.124,-2.399 2.326,-6.014 4.45,-8.412c5.181,-5.851 1.516,14.472 9.506,26.308c15.49,22.944 36.377,9.818 44.571,11.98c-23.246,24.722 -26.055,38.173 -32.199,24.949c-12.913,-27.789 -22.984,-40.724 -26.327,-54.825Z" style="fill:#fbdce9;"/><path d="M957.559,1164.271c16.837,25.105 14.504,29.36 13.175,31.782c-9.071,16.539 -12.878,22.793 -19.753,13.171c-8.236,-11.526 -8.447,-11.099 -13.152,-17c9.701,-15.538 16.172,-23.424 17.747,-25.344c0.661,-0.87 1.322,-1.739 1.983,-2.609Z" style="fill:#f9bfd0;"/><path d="M545.401,1112.855c-25.878,-16.269 38.387,-26.16 45.034,-23.572c17.759,6.916 -23.283,28.294 -45.034,23.572Z" style="fill:#e7adbd;"/><path d="M899.832,320.59c0.336,-8.455 15.797,-10.244 17.286,-21.747c0.061,-0.468 1.69,-13.05 3.503,-4.856c4.97,22.453 26.871,21.041 18.898,26.268c-12.329,8.083 -15.01,7.26 -16.569,21.505c-0.035,0.323 -1.412,12.908 -3.651,2.083c-3.708,-17.929 -15.639,-21.408 -19.468,-23.253Z" style="fill:#f1c994;"/><path d="M393.161,1594.821c-25.622,17.25 -32.448,23.369 -32.914,13.96c-0.546,-11.028 71.275,-54.005 65.887,-35.033c-0.603,2.123 -0.796,2.353 -32.973,21.073Z" style="fill:#be968f;"/><path d="M1236.427,402.502c-21.514,-12.593 -2.377,-27.222 -1.775,-27.582c22.659,-13.523 39.164,33.622 1.775,27.582Z" style="fill:#e3be8d;"/><path d="M672.564,998.002c11.18,-3.509 32.34,-7.378 35.32,23.365c-0.59,-0.427 0.431,-1.69 -0.159,-2.116c-9.084,-6.571 -14.27,11.694 -25.284,11.125c-9.556,-0.494 -13.919,-7.678 -14.614,-8.821c-0.989,-1.627 -3.39,-2.804 -3.297,-4.684c0.07,-1.409 3.579,-0.988 3.649,-2.397c1.288,0.548 11.733,4.988 17.543,-1.608c0.248,-0.281 2.775,-10.683 -5.696,-11.879c-0.835,-0.118 -0.79,-0.196 -7.462,-2.984Z" style="fill:#efcaa6;"/><path d="M1540.29,519.531l4.279,5.101c2.083,2.411 58.382,62.448 44.192,66.431c-7.648,2.147 -17.282,-24.752 -47.972,-58.184c-5.854,-6.377 -7.468,-8.268 -0.499,-13.348Z" style="fill:#b56a73;"/><path d="M1345.154,1154.354c-33.301,-4.416 -44.461,-22.23 -31.404,-24.877c23.258,-4.715 59.88,22.62 31.404,24.877Z" style="fill:#eaafc0;"/><path d="M416.919,1424.322c4.779,14.011 4.099,41.374 13.137,49.402c-3.423,5.72 -3.402,5.499 -7.341,10.774c-9.058,-5.879 -9.864,-13.934 -12.926,-25.312c-6.683,-24.833 -1.694,-25.228 -2.279,-27.35c-0.261,-0.947 -1.891,-1.15 -2.152,-2.097c5.509,-3.528 5.505,-3.195 11.561,-5.417Z" style="fill:#b6847f;"/><path d="M1528.772,952.169c-0.534,-1.468 -3.443,-9.453 -13.189,-14.779c-9.759,-5.333 1.753,-8.38 2.357,-8.772c9.536,-6.184 12.71,-27.269 15.594,-13.308c1.729,8.367 15.094,15.666 15.712,16.807c3.594,6.631 -12.823,1.623 -15.843,25.049c-2.637,-2.355 -2.556,-2.201 -4.631,-4.997Z" style="fill:#efc58d;"/><path d="M300.233,1238.172c9.044,-22.663 26.882,-7.133 27.367,-6.611c16.993,18.313 -28.686,41.452 -27.367,6.611Z" style="fill:#e4c08a;"/><path d="M1011.083,1109.791c1.114,-0.147 2.228,-0.294 3.341,-0.441c2.623,24.256 2.669,29.077 21.879,30.061c2.974,0.152 2.177,1.507 2.696,1.866c-32.035,9.577 -21.288,19.419 -23.95,29.947c-4.484,17.737 -0.901,-20.047 -12.123,-25.348c-2.148,-1.015 -1.974,-0.789 -7.264,-2.278c0.653,-1.327 -0.842,-1.244 -0.229,-2.488c0.116,-0.236 0,0 3.006,-1.536c14.471,-4.447 9.856,-14.99 12.643,-29.782Z" style="fill:#fcf6f3;"/><path d="M708.251,847.105c22.789,33.917 1.015,40.707 -5.667,33.164c-10.313,-11.641 -16.358,-45.498 5.667,-33.164Z" style="fill:#e4b4b9;"/><path d="M1744.568,859.747c-26.252,20.627 -37.47,-27.282 -9.093,-24.361c5.012,0.516 10.465,4.66 12.091,8.749c2.718,6.838 -2.295,14.534 -2.998,15.612Z" style="fill:#e2c28f;"/><path d="M1183.909,1090.557c3.18,7.765 -0.548,14.695 3.563,23.916c7.325,10.57 11.311,7.213 14.2,7.75c0.44,3.014 0.23,2.858 -0.416,5.739c-14.792,4.125 -11.6,8.073 -15.334,22.348l-2.016,2.813c-11.544,-8.112 2.818,-17.031 -9.842,-23.425c-7.772,-3.925 -8.191,-2.698 -8.837,-3.066c-0.48,-0.273 0.485,-1.328 0.006,-1.601l-0.751,-2.123c1.536,-0.483 14.22,-4.474 15.711,-12.15c2.014,-10.372 -1.925,-11.17 3.719,-20.202Z" style="fill:#fcf3ef;"/><path d="M756.527,1163.878c23.93,-13.355 5.669,-37.303 15.073,-31.453c4.853,3.019 -3.575,24.135 15.294,30.829l4.504,0.55c1.419,0.169 2.837,0.338 4.256,0.507l-0.933,1.671c-5.044,1.286 -5.017,1.259 -5.447,1.389c-0.795,0.239 -0.349,0.689 -1.056,0.901c-20.236,5.476 -9.698,24.453 -17.282,24.75c-0.616,0.024 -0.422,-1.488 -1.038,-1.464c-1.343,-10.694 -0.497,-18.933 -12.017,-23.789c-0.451,-1.297 -0.901,-2.594 -1.352,-3.891Z" style="fill:#fdf5f4;"/><path d="M441.455,652.687c-1.333,-0.264 -11.894,-2.355 -14.143,-9.044c-2.051,-6.101 0.221,-12.882 2.874,-15.356c19.611,-18.293 40.082,20.833 11.27,24.401Z" style="fill:#e4bb8e;"/><path d="M1340.966,727.176c3.458,0.091 3.643,-0.19 5.662,2.419c-4.668,18.912 -3.458,19.482 -14.644,35.599c-4.816,6.939 -16.941,14.456 -18.418,12.416c-4.56,-6.296 12.26,-28.867 15.472,-34.123c6.133,-8.296 5.981,-8.112 11.928,-16.312Z" style="fill:#bf7984;"/><path d="M1185.26,1175.371c5.892,5.499 6.038,5.232 10.637,11.752c3.09,4.381 5.034,4.919 5.706,5.576c-1.13,2.015 -10.984,19.589 -15.943,24.166c-4.176,3.854 -5.548,1.169 -6.071,-4.318c-2.721,-20.839 -5.787,-24.569 5.672,-37.177Z" style="fill:#f2a2b2;"/><path d="M1598.635,798.124c0.571,-1.185 5.166,-10.728 11.399,-12.128c1.171,-0.263 8.968,-2.014 13.826,5.639c13.151,20.719 -27,36.001 -25.226,6.489Z" style="fill:#fcfbf9;"/><path d="M1213.354,1060.801c-1.893,12.926 -2.145,12.651 -4.671,25.273c-5.218,-1.051 -6.401,-3.453 -9.191,1.087c-6.374,10.372 -8.858,9.696 -8.951,21.763c-0.004,0.502 -0.227,0.411 -3.069,5.55c-4.111,-9.221 -0.383,-16.151 -3.563,-23.916l-2.839,-2.439c15.079,-15.148 15.902,-14.3 29.12,-30.917c1.055,1.2 2.109,2.4 3.164,3.6Z" style="fill:#ea9da8;"/><path d="M1699.302,1141.31c-0.506,-0.952 -4.488,-8.445 -1.318,-13.281c4.869,-7.427 11.766,-7.524 13.451,-7.542c26.558,-0.288 9.461,43.34 -12.133,20.823Z" style="fill:#e0bcbe;"/><path d="M723.962,1170.923c8.627,10.977 9.849,12.502 7.251,34.862c-0.125,1.076 -1.6,13.771 -4.755,12.753c-0.695,-0.224 -0.598,-0.449 -15.662,-23.914c8.156,-7.624 7.242,-8.21 9.568,-18.916c0.66,-3.036 1.729,-2.299 3.598,-4.784Z" style="fill:#f3a4ac;"/><path d="M1421.434,1351.336c-4.608,-5.841 -4.968,-5.169 -10.855,-10.123c-2.748,-2.313 -1.814,-3.222 1.407,-4.9c12.754,-6.643 12.158,-23.675 17.154,-12.913c6.109,13.159 20.711,12.928 10.391,18.803c-9.545,5.434 -10.324,11.847 -10.886,12.764c-3,4.9 -4.231,1.244 -7.211,-3.631Z" style="fill:#f4c4af;"/><path d="M1214.275,999.705l0.301,3.346c0.832,12.718 4.414,12.609 17.779,11.863c0.212,7.582 -3.135,9.838 -3.887,10.345c-7.52,5.07 -10.285,3.446 -12.74,14.644l-4.092,2.186c-2.956,-14.83 -18.361,-26.07 2.639,-42.383Z" style="fill:#f2d0a3;"/><path d="M422.642,1551.118c1.308,3.28 2.616,6.56 3.924,9.841c-17.235,5.648 -17.72,1.886 -35.699,4.225c-1.428,0.186 -36.657,4.77 -16.651,-6.559c12.919,-7.316 37.423,-4.674 40.676,-4.323c4.32,0.466 5.16,2.68 7.635,-0.668c0.507,-0.685 -0.392,-1.829 0.114,-2.515Z" style="fill:#c19790;"/><path d="M452.084,1667.444c15.113,-8.739 14.834,-9.117 16.199,-9.785c2.88,-1.411 10.58,2.267 1.563,10.452c-23.733,21.542 -31.76,22.554 -35.137,22.98c-0.885,-0.593 -1.771,-1.187 -2.656,-1.78c-0.47,-8.714 7.009,-12.497 20.031,-21.866Z" style="fill:#c49c95;"/><path d="M1611.967,1099.7c-10.372,26.223 -38.116,-2.323 -20.311,-12.703c4.268,-2.488 20.746,-5.856 20.311,12.703Z" style="fill:#e4bd8f;"/><path d="M1208.683,1086.075c-3.814,18.157 -5.076,17.739 -7.012,36.149c-2.889,-0.538 -6.875,2.82 -14.2,-7.75c2.842,-5.139 3.065,-5.047 3.069,-5.55c0.093,-12.067 2.577,-11.391 8.951,-21.763c2.79,-4.54 3.973,-2.138 9.191,-1.087Z" style="fill:#f5b2b9;"/><path d="M346.785,1012.209c0.446,-1.607 5.468,-19.706 19.705,-8.789c16.434,12.601 -17.452,35.821 -19.705,8.789Z" style="fill:#fcfcf9;"/><path d="M947.7,913.801l3.181,1.727c19.228,9.5 5.294,29.365 -12.845,15.893c-0.483,-0.359 -5.445,-4.044 -5.881,-4.681c-0.415,-0.605 1.455,-1.323 1.04,-1.928c6.17,-7.965 6.91,-6.953 14.504,-11.011Z" style="fill:#fbeccf;"/><path d="M460.718,1272.509c1.57,-0.564 19.691,-7.075 17.112,11.568c-2.783,20.121 -35.993,4.214 -17.112,-11.568Z" style="fill:#fbfaf9;"/><path d="M1347.607,985.168c31.245,1.122 -2.298,29.404 -14.324,15.439c-8.728,-10.136 12.645,-15.053 14.324,-15.439Z" style="fill:#e0acb7;"/><path d="M1080.001,676.152c1.836,5.323 6.424,5.022 2.151,37.4c-4.658,0.835 -9.2,0.839 -10.004,0.84c-2.063,-7.646 2.481,-23.381 0.422,-26.882c-1.254,-2.132 -0.861,-2.14 -1.798,-4.468c3.047,-5.598 2.775,-6.836 9.229,-6.889Z" style="fill:#b96d77;"/><path d="M809.215,1224.761c-1.02,-1.594 -10.908,-17.056 1.075,-23.337c16.541,-8.67 17.838,42.489 -1.075,23.337Z" style="fill:#f7dcb5;"/><path d="M1091.991,1203.332c11.956,-9.852 16.019,8.688 12.882,16.499c-6.281,15.645 -25.935,3.877 -12.882,-16.499Z" style="fill:#f5caa0;"/><path d="M1579.174,258.754c-7.902,11.674 -5.356,13.077 -14.778,23.463c-8.988,-5.586 -12.809,-6.302 -8.442,-13.095c8.267,-12.861 9.726,-18.117 23.221,-10.368Z" style="fill:#fae4cb;"/><path d="M1027.1,347.929c25.252,5.041 -5.163,30.238 -13.122,15.227c-7.158,-13.501 11.477,-15.087 13.122,-15.227Z" style="fill:#fcfbf9;"/><path d="M1130.615,1067.47c-1.809,17.236 1.663,16.697 8.807,32.62c3.468,7.731 -7.913,5.976 -8.756,5.846c-1.371,-1.267 -2.743,-2.535 -4.114,-3.802c-3.643,-13.738 -4.728,-20.498 -5.018,-22.302c3.038,-7.712 0.608,-10.274 9.082,-12.362Z" style="fill:#c1898c;"/><path d="M723.962,1170.923c-1.87,2.486 -2.938,1.748 -3.598,4.784c-2.327,10.705 -1.412,11.292 -9.568,18.916c-1.224,-2.536 -6.058,-12.553 0.642,-34.911c0.577,-1.927 0.411,-2.208 2.328,-2.254c3.209,-0.078 2.391,1.357 10.197,13.465Z" style="fill:#f8c5c4;"/><path d="M1571.371,1065.768c-1.169,-0.934 -12.368,-9.879 -1.549,-18.148c13.517,-10.332 27.33,25.846 1.549,18.148Z" style="fill:#fcfaf8;"/><path d="M1185.26,1175.371c5.143,-7.445 4.918,-7.361 9.012,-15.222c4.73,-9.08 5.881,1.439 8.889,22.543c0.639,4.482 -1.258,9.251 -1.559,10.008c-0.672,-0.657 -2.616,-1.195 -5.706,-5.576c-4.599,-6.52 -4.745,-6.253 -10.637,-11.752Z" style="fill:#f8d8d3;"/><path d="M1563.737,610.197c-18.35,-8.355 -19.379,-9.238 -20.776,-10.437c-17.682,-15.175 28.131,-1.25 33.07,9.573c0.394,0.864 0.871,7.981 -12.294,0.864Z" style="fill:#b66873;"/><path d="M371.731,1432.522c-14.66,4.041 -14.399,3.986 -28.771,8.872c-2.067,-3.916 -1.162,-6.714 -5.442,-4.849c-2.315,1.009 -1.913,1.452 -4.5,1.789c-21.464,2.794 15.278,-14.231 31.32,-8.644l2.41,-1.951l2.41,-0.396l1.372,1.805l1.201,3.374Z" style="fill:#8f534b;"/><path d="M1224.623,995.861l2.709,2.583l2.137,1.351l1.408,0.952c3.786,6.589 2.455,6.77 1.479,14.166c-13.366,0.746 -16.947,0.855 -17.779,-11.863l-0.301,-3.346c4.912,-2.652 4.915,-2.197 10.348,-3.844Z" style="fill:#f7e9cb;"/><path d="M672.564,998.002c6.672,2.788 6.627,2.866 7.462,2.984c8.471,1.196 5.944,11.598 5.696,11.879c-5.81,6.596 -16.255,2.156 -17.543,1.608c-1.435,-6.334 -1.536,-6.259 -1.58,-6.816l-1.965,-2.817c3.534,-4.026 3.457,-3.947 7.93,-6.838Z" style="fill:#f4e9d0;"/><path d="M1048.951,1202.529l1.806,1.015c0.709,8.694 0.274,10.997 9.907,11.79c0.385,0.032 13.243,3.338 0.273,4.604c-13.6,1.327 -6.917,8.185 -10.716,12.883c-6.578,8.135 0.77,-8.712 -9.256,-12.549c-3.615,-1.383 -4.967,-2.892 -1.514,-4.675c6.249,-3.227 6.291,-3.145 6.33,-3.419c0.311,-2.168 0.006,-4.379 0.139,-6.563c0.327,-5.343 2.703,-2.974 3.03,-3.086Z" style="fill:#fbe7ea;"/><path d="M1050.539,1106.578c1.175,0.095 2.166,-1.205 3.341,-1.111c2.172,0.175 2.725,7.004 2.777,7.649c0.537,6.629 10.064,4.001 11.09,5.289c2.779,3.489 -0.897,2.721 -6.712,5.06c-6.919,3.798 -1.513,6.198 -4.492,17.528l-4.112,-3.341c0.72,-7.591 3.035,-8.473 -2.46,-14.017c-1.367,-1.379 -1.953,-0.006 -3.343,-1.288c0,-0 0.502,-3.053 0.545,-3.318c6.159,-2.834 3.121,-4.663 3.366,-12.451Z" style="fill:#f8e4e2;"/><path d="M284.469,848.676c-6.431,21.09 -21.721,4.123 -15.605,-3.898c1.026,-1.345 13.39,-12.305 15.605,3.898Z" style="fill:#fcfbf7;"/><path d="M1149.486,1194.875c6.628,1.697 6.567,1.724 7.399,1.83c-0.729,1.105 1.081,1.099 0.351,2.205c-0.279,0.423 -0.467,0.058 -6.482,0.799c-0.902,0.729 -2.311,0.698 -3.213,1.426c-0.576,0.466 -0.05,0.651 -0.696,8.991c-4.081,11.753 -4.572,-5.733 -4.589,-6.35c-0.111,-3.963 -3.726,-4.671 -1.486,-9.279c0.124,-0.256 3.269,-26.763 6.042,-15.889c1.625,6.373 -3.107,9.877 2.675,16.266Z" style="fill:#fad9db;"/><path d="M974.031,766.563c10.053,7.942 11.289,10.469 11.146,13.036c-0.775,13.994 -18.731,-5.6 -19.843,-6.813c2.262,-5.319 2.754,-5.278 8.696,-6.224Z" style="fill:#bb6f7b;"/><path d="M1613.527,351.011c4.944,21.326 3.545,26.399 2.427,44.104c-1.317,-1.575 -2.634,-3.149 -3.951,-4.724l-1.708,-2.303l1.281,-2.303l-0.524,-2.303l1.094,-2.303c-0.081,-4.265 -0.067,-4.238 -0.087,-4.606c-0.139,-2.493 -0.447,-2.263 -2.38,-6.842c-0.507,-1.202 2.963,-1.414 -0.72,-16.191l1.264,-0.809l3.305,-1.72Z" style="fill:#9c6640;"/><path d="M1338.094,1414.51c16.421,7.3 -2.489,26.099 -9.318,12.17c-5.056,-10.312 8.067,-12.008 9.318,-12.17Z" style="fill:#fdfbfa;"/><path d="M489.311,1507.41c7.495,4.54 8.431,3.217 12.94,9.261c1.658,2.222 2.055,1.65 4.267,3.426l1.612,1.181l0.61,2.303l-0.583,3.37c-3.084,-1.756 -2.945,-1.593 -9.277,-4.764c-6.592,-1.916 -6.537,-1.95 -7.119,-2.069c-8.531,-1.741 -5.103,-4.905 -2.45,-12.707Z" style="fill:#eec0ab;"/><path d="M1031.862,823.557c-16.04,5.026 -21.336,-13.737 -9.731,-13.434c2.496,0.065 6.591,3.883 7.073,4.331c1.177,1.097 3.212,1.815 3.448,3.37c0.055,0.363 -1.706,-0.501 -2.327,4.014c-0.175,1.274 1.731,0.318 1.538,1.719Z" style="fill:#c8818d;"/><path d="M1201.255,1127.963c-0.207,0.53 -2.267,5.795 -2.645,6.605c-4.46,9.559 -2.657,11.452 -12.69,15.743c3.735,-14.274 0.542,-18.223 15.334,-22.348Z" style="fill:#deb3b5;"/><path d="M529.362,478.209c8.163,-14.093 18.353,1.276 11.068,6.819c-9.07,6.901 -10.923,-5.822 -11.068,-6.819Z" style="fill:#fcf4f2;"/><path d="M1075.186,920.44c-0.77,-3.873 -2.327,-4.207 0.348,-7.159c2.638,-2.911 1.998,-3.051 1.835,-7.055c-0.025,-0.62 0.127,-1.265 0.427,-1.815c1.492,-2.743 1.64,0.446 4.508,2.041c0.603,0.336 10.241,-7.248 6.981,2.038c-2.254,6.421 -9.3,9.218 -9.316,9.237c-1.789,2.14 -2.27,1.288 -4.783,2.714Z" style="fill:#f0b2c0;"/><path d="M1622.323,897.982c0.968,0.316 11.415,3.731 6.749,10.375c-5.962,8.489 -22.007,-3.344 -6.749,-10.375Z" style="fill:#fcf7f5;"/><path d="M422.568,1218.659c-13.953,-13.714 6.805,-14.866 8.914,-8.224c2.986,9.402 -7.928,8.322 -8.914,8.224Z" style="fill:#fcf7f5;"/><path d="M707.262,1129.679c0.532,2.339 3.581,15.758 -1.488,29.892c-4.492,12.525 -3.653,-1.895 -3.55,-2.203c0.277,-0.831 1.623,-1.052 1.9,-1.882c-1.533,-11.892 -0.133,-11.698 -0.559,-23.453l3.696,-2.353Z" style="fill:#a96d6a;"/><path d="M1120.934,1106.638c3.153,2.139 2.277,3.283 6.066,4.115c0.34,0.075 0.447,0.585 0.787,0.659c0.974,7.337 0.041,7.192 0.305,7.759c0.276,0.594 1.729,-0.234 2.005,0.36c-1.036,0.964 -0.98,0.844 -7.907,6.042c-1.867,-5.327 -1.965,-5.12 -5.209,-9.823c2.689,-4.419 0.486,-5.25 3.953,-9.112Z" style="fill:#d8b9ad;"/><path d="M786.497,1074.292c-0.968,10.934 -4.76,11.767 1.907,20.874c-0.923,1.61 -1.847,3.219 -2.77,4.829c-8.271,-6.033 -6.116,-7.629 -3.771,-22.85c0.591,-3.837 1.964,-2.509 4.634,-2.853Z" style="fill:#d18e90;"/><path d="M830.899,1040.851c1.063,-1.215 3.257,-1.134 4.32,-2.349c0.503,-0.575 -0.55,-1.513 -0.315,-2.228c1.479,-4.491 3.14,-1.572 7.04,1.325c0.802,2.543 5.8,10.154 -3.558,12.436c-2.496,-3.061 -4.991,-6.123 -7.487,-9.184Z" style="fill:#b8797b;"/><path d="M1128.869,1040.059c3.111,11.621 5.104,17.072 5.637,18.529c1.031,2.819 -4.91,3.323 -6.23,-0.271c-2.618,-7.128 -1.85,-7.084 -2.125,-14.604c0.906,-1.218 1.812,-2.437 2.718,-3.655Z" style="fill:#d0bfc1;"/><path d="M1490.203,412.974c-2.015,-6.494 -2.006,-7.812 4.568,-10.351c5.137,-1.984 4.499,3.433 4.445,3.89c-0.849,7.205 -2.098,9.326 -9.013,6.461Z" style="fill:#f9ced7;"/><path d="M603.237,440.352c0.532,0.537 6.834,6.9 -0.605,9.221c-3.886,1.212 -16.517,-8.29 0.605,-9.221Z" style="fill:#fbf1f2;"/><path d="M913.441,1309.616c-0.023,8.028 -4.261,4.126 -12.456,3.189c5.154,-4.523 4.995,-4.695 5.566,-4.885c4.892,-1.626 6.444,1.586 6.89,1.696Z" style="fill:#fbe3b1;"/><path d="M241.675,1602.247c1.589,-3.606 0.849,-4.423 4.747,-5.224c0.847,-0.174 1.455,-0.909 2.243,-1.252c4.302,-1.874 3.757,8.014 0,7.788c-1.827,-0.11 -0.854,-1.576 -2.544,-1.893c-2.448,-0.459 -2.173,1.008 -4.447,0.582Z" style="fill:#fcf8f5;"/><path d="M1091.939,580.803c1.584,0.164 3.166,-0.684 4.75,-0.519c2.781,0.288 -0.837,7.217 -7.229,6.83c-7.743,-0.469 1.994,-6.034 2.479,-6.31Z" style="fill:#facbd3;"/><path d="M878.425,1285.808c0.538,0.168 0.326,1.229 0.864,1.397c3.541,1.105 4.894,-1.448 5.072,-1.501c-0.919,7.086 -0.909,7.042 -0.993,7.653c-0.25,1.828 0.37,1.557 0.789,3.327c-3.151,0.393 -3.016,0.035 -6.23,-0.527c0.369,-9.655 0.541,-9.521 0.497,-10.349Z" style="fill:#ceb099;"/><path d="M896.643,1060.558c-0.738,1.539 -1.477,3.079 -2.215,4.618c-3.259,0.025 -5.16,0.889 -4.296,-2.204c3.071,-10.999 6.995,-5.038 7.367,-4.474c0.412,0.625 -1.267,1.434 -0.855,2.059Z" style="fill:#b8767e;"/><path d="M1143.917,977.227c0.941,4.353 1.175,4.046 2.104,8.617c-1.435,1.664 -2.869,3.328 -4.304,4.992c-0.097,-0.543 -4.892,-4.611 2.201,-13.609Z" style="fill:#a16065;"/><path d="M921,1615.314c0.851,1.114 1.459,-1.268 2.416,-0.015c0.16,0.21 1.882,2.464 0.055,3.249c-0,0 -15.558,-0.018 -16.91,-0.02c1.088,-0.374 1.316,-2.014 2.404,-2.388c0,0 11.072,-0.76 12.035,-0.826Z" style="fill:#914e47;"/><path d="M822.851,1101.099c-3.694,-2.304 -4.249,-3.483 -0.799,-6.085c1.814,-1.368 11.488,1.976 0.799,6.085Z" style="fill:#f9c9cd;"/><path d="M757.222,1127.315l4.08,-0.403c0.357,5.998 0.101,6.275 -0.27,6.674c-1.8,1.94 -6.381,2.018 -3.81,-6.272Z" style="fill:#f1b9bb;"/><path d="M1213.33,655.557c1.617,-0.497 2.421,-2.473 4.037,-2.97c6.564,-2.019 4.583,2.245 4.415,2.607c-3.518,7.573 -8.082,0.904 -8.452,0.363Z" style="fill:#f5b9c2;"/><path d="M1528.772,952.169c2.075,2.796 1.993,2.642 4.631,4.997c-0.766,2.397 0.067,2.512 -1.415,4.426c-3.949,5.103 -3.486,-1.019 -3.216,-9.423Z" style="fill:#daaa83;"/><path d="M1126.551,1102.134c1.407,4.288 1.446,4.249 1.52,4.631c0.451,2.337 -0.764,2.165 -0.284,4.647c-0.34,-0.075 -0.447,-0.585 -0.787,-0.659c-3.789,-0.832 -2.913,-1.976 -6.066,-4.115c1.872,-1.501 3.745,-3.002 5.617,-4.504Z" style="fill:#cd9e9c;"/><path d="M966.281,1446.821c0.346,-9.307 4.979,-3.868 7.54,-3.596c9.203,0.976 -7.336,3.54 -7.54,3.596Z" style="fill:#f7d1ba;"/><path d="M757.222,1127.315c-2.141,-2.283 -2.09,-2.042 -2.141,-2.283c-0.296,-1.409 6.564,-10.196 6.221,1.88l-4.08,0.403Z" style="fill:#fddfda;"/><path d="M1178.935,1067.593c-0.073,-1.253 -2.409,-1.671 -2.483,-2.924c-0.077,-1.313 13.548,-10.967 5.013,0.646c-1.07,1.456 -1.23,1.108 -2.53,2.278Z" style="fill:#b2736e;"/><path d="M536.278,1647.389c6.988,4.961 -2.112,8.083 -2.532,7.238c-1.292,-2.595 -0.784,-4.049 -0.666,-4.385c0.75,-2.144 2.441,-0.688 3.198,-2.853Z" style="fill:#f2dfd8;"/><path d="M713.75,1003.059c-7.505,3.501 -8.884,-6.443 -5.177,-5.261c0.573,0.183 0.38,0.386 5.177,5.261Z" style="fill:#a26960;"/><path d="M991.551,1139.94l6.889,-0.367c-3.006,1.536 -2.89,1.3 -3.006,1.536c-0.613,1.245 0.883,1.161 0.229,2.488c-3.421,-0.409 -4.324,-0.335 -4.112,-3.657Z" style="fill:#f8d9db;"/><path d="M1769.915,552.1l-0.643,-3.913c3.173,0.742 5.557,-1.919 4.857,1.136c-0.088,0.382 -0.306,0.201 -4.214,2.777Z" style="fill:#904f49;"/><path d="M756.527,1163.878c0.451,1.297 0.901,2.594 1.352,3.891c-0.39,-0.08 -10.219,-2.098 -3.285,-3.592c0.637,-0.137 1.297,-0.162 1.934,-0.3Z" style="fill:#f4c9ce;"/><path d="M1198.06,502.749l2.622,-0.427c0.857,1.171 1.673,-0.971 2.614,0.316c0.144,0.197 0.757,1.035 -0.19,2.998c-1.661,3.442 -1.761,-1.007 -5.046,-2.886Z" style="fill:#8a4a40;"/><path d="M1102.313,1061.087c1.434,1.365 2.869,2.73 4.303,4.096c-5.449,-2.088 -5.869,-1.764 -5.866,-2.247c0.006,-0.792 1.557,-1.056 1.562,-1.848Z" style="fill:#f2b7c5;"/><path d="M1239.594,492.087c0.507,-0.964 -1.041,-2.232 -0.535,-3.196c0.338,-0.643 4.574,-0.016 4.59,0.61c0.009,0.373 -0.29,0.185 -4.055,2.586Z" style="fill:#8f504c;"/><path d="M983.608,915.686c-1.298,-0.046 -1.887,2.191 -3.185,2.145c-1.192,-0.043 -0.781,-4.419 0.748,-4.365c1.121,0.04 1.316,2.18 2.437,2.22Z" style="fill:#9f6462;"/><path d="M1040.988,867.192c0.556,4.821 2.098,3.737 2.62,4.218c-0.726,0.84 -1.452,1.68 -2.178,2.519c-1.196,-3.444 -1.1,-3.305 -0.441,-6.738Z" style="fill:#a86367;"/><path d="M755.582,1175.793l1.559,-1.346l2.41,0.843l0.094,2.807l-2.504,-0.907l-1.559,-1.396Z" style="fill:#f0a7b3;"/><path d="M1039,1141.276c3.88,0.401 3.922,0.099 7.03,2.601c-4.289,-0.276 -4.285,-0.172 -4.632,-0.298c-1.8,-0.654 -0.705,-1.688 -2.398,-2.303Z" style="fill:#efb6ad;"/><path d="M1128.869,1040.059c-0.906,1.218 -1.812,2.437 -2.718,3.655l-2.719,-1.625c5.11,-2.255 5.025,-1.819 5.437,-2.03Z" style="fill:#c4a3aa;"/><path d="M1128.037,341.927c-1.044,2.091 0.111,2.215 -0.866,4.174c-1.244,2.491 -0.898,-0.721 -3.044,-2.442c2.402,-0.77 2.368,-0.374 3.91,-1.732Z" style="fill:#d58c99;"/><path d="M1149.486,1194.875c6.97,0.146 6.956,-0.023 7.528,0.158c0.555,0.175 -0.684,1.497 -0.129,1.673c-0.832,-0.106 -0.77,-0.134 -7.399,-1.83Z" style="fill:#e9b9bf;"/><path d="M1121.031,1141.251c-1.046,1.285 -2.091,2.571 -3.137,3.856c1.046,-1.285 2.091,-2.571 3.137,-3.856Z" style="fill:#eebfb0;"/><path d="M1011.083,1109.791c0.603,-0.481 0.538,-1.49 1.141,-1.97c0.936,-0.745 1.539,-0.326 1.647,-0.251c0.996,0.692 -0.347,1.154 0.553,1.78c-1.114,0.147 -2.228,0.294 -3.341,0.441Z" style="fill:#f7cccf;"/><path d="M1645.797,1288.44c-0.52,1.73 -1.039,3.46 -1.559,5.189c0.52,-1.73 1.039,-3.46 1.559,-5.189Z" style="fill:#dcaf7f;"/><path d="M786.894,1163.254c2.394,-0.209 2.204,-0.153 4.504,0.55l-4.504,-0.55Z" style="fill:#eeccce;"/><path d="M432.053,1689.31c0.885,0.593 1.771,1.187 2.656,1.78l-1.772,0.139l-0.884,-1.918Z" style="fill:#d7b6b1;"/></g></svg>