<?xml version="1.0" encoding="UTF-8" standalone="no"?><!DOCTYPE svg PUBLIC "-//W3C//DTD SVG 1.1//EN" "http://www.w3.org/Graphics/SVG/1.1/DTD/svg11.dtd"><svg width="100%" height="100%" viewBox="0 0 2048 2048" version="1.1" xmlns="http://www.w3.org/2000/svg" xmlns:xlink="http://www.w3.org/1999/xlink" xml:space="preserve" xmlns:serif="http://www.serif.com/" style="fill-rule:evenodd;clip-rule:evenodd;stroke-linejoin:round;stroke-miterlimit:2;"><g id="Background"><path d="M907.35,820.658c5.57,0.028 2.521,-3.306 2.46,-33.653c-0.053,-26.419 1.706,-28.058 -4.711,-34.107c-1.019,-0.96 -27.157,-29.695 -31.548,-44.057c-12.157,-39.766 39.145,-26.072 120.56,-282.122c12.221,-38.434 7.492,-44.026 26.359,-60.332c1.974,-1.706 2.573,-2.172 2.373,-103.388c-0.057,-29.062 -3.75,-59.746 14.221,-54.232c10.077,3.092 3.46,13.998 14.015,13.179c68.41,-5.311 68.83,37.046 133.996,31.628c3.67,-0.305 42.853,-14.221 42.589,15.45c-0.138,15.505 -57.7,87.997 -126.66,63.956c-5.286,-1.843 -28.589,-14.278 -51.84,-5.532c-3.587,1.349 -5.386,2.021 -4.434,31.55c0.349,10.809 8.89,7.546 15.412,22.4c20.109,45.796 34.254,158.03 122.233,288.033c20.002,29.556 19.968,38.783 -15.519,79.44c-5.713,6.545 -8.248,5.464 -8.313,14.134c-0.254,33.81 1.309,33.703 -0.987,57.898c-0.835,8.802 5.783,-2.747 20.232,-29.476c42.888,-79.335 47.528,-159.137 67.541,-171.88c9.033,-5.752 31.565,-6.324 38.75,17.697c28.5,95.276 26.049,102.816 69.963,180.294c0.887,1.565 23.014,21.711 -15.799,70.856c-3.409,4.316 -8.714,7.472 -8.759,12.62c-0.074,8.487 -0.923,105.204 -0.644,106.09c2.303,7.313 2.6,-2.379 15.287,-44.35c7.864,-26.018 11.094,-70.495 44.967,-62.092c22.702,5.631 20.242,29.254 42.329,98.192c6.473,20.203 6.203,20.107 12.922,40.36c0.563,1.698 7.011,21.134 7.186,21.182c4.398,1.199 2.62,-2.116 8.789,-21.625c10.321,-32.64 10.714,-32.351 19.42,-65.578c10.744,-41.004 45.405,-32.641 54.432,-7.89c9.933,27.237 26.555,121.643 77.378,207.38c20.568,34.697 -18.415,51.318 -19.666,56.538c-1.861,7.762 0.084,7.87 -0.317,99.779c-0.044,10.078 -1.846,11.366 1.282,12.311c0.697,0.211 42.07,-10.015 48.44,21.642c0.483,2.4 1.934,54.684 -9.254,73.49c-15.513,26.077 -29.597,20.817 -28.622,46.543c5.022,132.513 20.122,271.484 12.61,285.478c-16.939,31.554 -110.918,26.466 -112.859,28.689c-0.263,0.301 -1.407,35.574 -100.127,42.381c-14.838,1.023 -82.512,1.973 -119.596,-15.415c-19.951,-9.355 -17.089,-16.342 -28.471,-16.027c-38.74,1.071 -458.068,-2.11 -461.766,1.176c-8.465,7.519 -39.869,35.415 -138.243,30.297c-13.994,-0.728 -86.187,-6.584 -98.972,-35.044c-0.858,-1.91 -1.458,-3.929 -2.296,-5.848c-3.011,-6.892 -46.823,3.16 -92.489,-14.206c-32.926,-12.521 -24.064,-30.316 -21.371,-87.422c4.056,-85.994 16.454,-220.078 10.493,-229.641c-7.032,-11.283 -29.705,-18.213 -33.983,-58.308c-3.048,-28.569 -12.904,-71.675 34.646,-69.116c4.78,0.257 12.526,2.608 12.691,-0.785c0.011,-0.218 -0.282,-97.7 -0.307,-106.196c-0.055,-18.202 -45.171,-18.447 -15.404,-67.402c46.764,-76.908 67.967,-200.343 79.371,-212.271c5.099,-5.333 33.734,-21.653 46.062,13.525c2.376,6.781 0.645,7.19 26.125,85.938c0.187,0.578 3.029,9.362 4.889,5.818c2.495,-4.756 31.931,-97.142 38.991,-125.509c2.546,-10.228 3.451,-26.106 23.523,-32.354c8.094,-2.519 26.147,0.369 32.654,18.041c6.755,18.346 6.931,32.878 34.926,116.409c4.068,12.137 2.819,12.273 3.296,13.256c0.189,0.39 0.662,-0.687 1.095,-0.7c3.99,-0.123 1.259,-2.805 1.379,-88.746c0.085,-60.43 -0.033,-61.021 -3.2,-64.089c-0.593,-0.574 -34.333,-37.056 -28.338,-61.982c5.051,-21.002 20.594,-22.357 53.577,-118.158c25.616,-74.402 22.01,-102.632 52.769,-98.439c32.49,4.429 23.878,69.844 73.487,168.89c8.991,17.95 10.907,16.837 18.774,35.433Z" style="fill:#6e3e34;"/><path d="M556.075,1303.089c-1.685,-16.059 -2.136,-15.915 -2.739,-32.108c-0.467,-12.565 7.382,-12.499 35.678,-12.799c17.057,-0.181 -0.376,27.324 29.978,30.887c37.672,4.423 34.932,-22.118 35.485,-26.165c0.361,-2.637 1.331,-9.727 32.621,-6.511c12.902,1.326 -0.431,27.156 24.105,31.741c41.68,7.788 38.408,-22.401 40.478,-26.795c3.162,-6.712 32.607,-2.053 37.473,-0.775c8,2.101 6.661,21.785 0.809,56.577c-6.902,41.033 -34.665,30.401 -36.671,71.87c-0.914,18.908 16.432,275.985 18.05,299.972c6.897,102.209 8.234,104.181 1.367,109.64c-36.619,29.109 -183.307,21.022 -196.844,-4.078c-1.972,-3.656 6.535,-125.519 8.195,-167.592c9.357,-237.227 25.6,-245.023 -5.213,-273.8c-17.474,-16.319 -18.376,-17.002 -22.773,-50.065Z" style="fill:#f0bebe;"/><path d="M1381.013,1256.085c8.996,0.195 19.701,-3.242 21.196,8.984c0.424,3.469 -1.611,26.062 32.802,24.208c33.131,-1.784 14.883,-31.269 31.986,-31.419c32.949,-0.289 33.983,4.204 34.617,6.957c0.178,0.773 1.847,59.383 -14.822,78.002c-12.813,14.312 -27.862,20.87 -27.349,52.179c0.642,39.216 2.886,53.969 10.519,205.962c3.621,72.104 5.276,71.881 8.414,144.081c1.777,40.868 8.656,49.085 -7.754,57.104c-60.028,29.332 -191.339,12.009 -192.186,-11.104c-0.059,-1.6 14.008,-220.297 15.469,-255.999c1.298,-31.714 13.393,-147.449 5.334,-164.145c-13.123,-27.186 -26.681,-19.657 -32.702,-49.793c-1.954,-9.781 -8.117,-54.762 -2.777,-59.171c1.105,-0.912 39.413,-10.427 41.927,2.908c0.876,4.647 -0.697,29.533 39.207,23.264c25.529,-4.011 10.98,-30.469 24.028,-31.702c0,-0 11.123,-0.291 12.09,-0.316Z" style="fill:#f0bfbe;"/><path d="M779.9,1482.961c-1.81,-24.884 -5.013,-80.905 -5.415,-87.942c-1.412,-24.698 16.767,-28.548 27.852,-46.417c6.442,-10.384 8.495,-8.342 20.669,-7.793c13.947,0.63 -1.621,31.429 29.941,32.946c40.099,1.927 41.739,-5.522 44.723,-26.674c0.188,-1.329 -1.382,-9.084 35.326,-6.033c7.985,0.664 6.375,9.488 6.817,13.865c3.194,31.657 56.751,15.938 57.022,15.776c11.538,-6.906 9.575,-20.575 9.845,-23.729c0.251,-2.931 0.874,-10.185 36.308,-5.851c15.324,1.874 -1.044,30.352 29.951,32.534c43.851,3.087 43.053,-9.579 45.45,-26.761c0.277,-1.983 -0.654,-7.85 32.611,-5.857c12.572,0.753 9.223,5.748 11.36,18.138c3.637,21.083 47.392,15.403 54.252,11.169c17.35,-10.71 1.931,-28.387 22.338,-29.885c14.271,-1.048 11.136,5.489 20.264,16.384c15.931,19.016 24.287,16.936 21.829,46.17c-5.389,64.077 -12.917,216.811 -16.182,257.987c-4.629,58.363 -5.7,123.089 -9.626,124.518c-1.496,0.544 -49.653,0.421 -50.438,0.283c-6.191,-1.083 2.778,-16.138 -0.648,-136.753c-0.639,-22.487 6.069,-153.407 -117.493,-213.305c-45.232,-21.927 -83.358,-22.559 -138.284,12.279c-108.275,68.677 -101.028,182.082 -94.355,333.074c0.29,6.569 -11.042,4.944 -23.016,4.781c-25.325,-0.346 -32.576,3.274 -33.023,-6.874c-1.288,-29.226 -17.496,-283.773 -18.075,-296.032Z" style="fill:#f4e6cc;"/><path d="M1128.776,731.863c-38.688,-11.025 -103.987,-27.683 -199.574,3.762c-10.362,3.409 -11.899,1.263 -29.041,-24.094c-9.747,-14.419 -4.468,-16.075 7.983,-35.051c82.727,-126.077 100.974,-236.054 118.833,-283.488c9.807,-26.046 22.51,26.08 24.144,31.969c51.342,185.036 119.833,264.479 122.333,273.933c0.81,3.065 1.386,5.242 -21.244,33.455c-6.714,8.37 -19.165,0.894 -23.435,-0.487Z" style="fill:#e7969f;"/><path d="M1099.83,1335.666c-0.614,-1.12 -2.072,-1.614 -2.686,-2.735c-0.138,-0.252 0.781,-5.895 0.807,-7.956c0.779,-61.057 -2.232,-78.081 -11.797,-93.429c-34.182,-54.851 -103.414,-35.736 -117.417,21.391c-4.44,18.111 -2.652,94.243 -1.903,99.625c-14.092,1.194 2.046,-21.285 -23.589,-30.27c-15.554,-5.451 -45.235,2.043 -46.015,-5.309c-1.586,-14.945 -0.28,-110.382 -0.149,-119.98c0.128,-9.331 15.338,-21.284 84.739,-101.225c3.926,-4.522 24.331,-27.091 26.454,-29.44c14.318,-15.836 19.308,-27.752 26.1,-20.73c4.285,4.431 127.27,144.423 127.489,145.041c3.466,9.77 1.081,116.229 0.855,126.333c-0.285,12.71 -48.958,-11.782 -62.888,18.683Z" style="fill:#f0bfbe;"/><path d="M572.113,1452.954c-11.607,219.159 -12.853,218.939 -13.812,237.986c-2.553,50.716 -2.746,81.585 -7.115,82.727c-1.07,0.28 -87.984,1.556 -91.578,-18.726c-1.643,-9.273 17.478,-274.637 13.829,-288.068c-8.118,-29.873 -29.731,-25.082 -34.83,-57.812c-6.789,-43.579 -1.098,-44.878 2.471,-45.693c20.777,-4.744 7.628,19.332 27.868,25.81c26.415,8.455 31.562,-11.391 32.269,-14.118c2.917,-11.248 4.131,-13.434 15.64,-11.299c9.35,1.735 -1.13,25.511 26.167,26.442c25.281,0.862 21.951,-12.991 25.791,-13.628c9.123,-1.513 4.622,38.305 3.298,76.379Z" style="fill:#f4e6cc;"/><path d="M1483.905,1462.968c-1.127,-34.328 -5.954,-80.605 1.907,-87c5.248,-4.269 0.85,13.74 27.196,13.641c27.152,-0.102 13.039,-25.985 29.993,-26.042c18.494,-0.062 4.633,24.472 30.099,26.514c26,2.085 26.455,-12.936 28.96,-23.331c0.255,-1.058 1.704,-7.073 13.33,-2.734c2.783,1.039 5.992,2.236 2.219,37.07c-5.07,46.802 -28.912,36.446 -35.915,66.072c-3.352,14.183 14.651,265.635 14.473,285.836c-0.201,22.929 -91.235,21.611 -93.014,19.848c-2.256,-2.236 -13.582,-220.494 -19.248,-309.873Z" style="fill:#f4e6cc;"/><path d="M1136.1,914.655c-2.956,0.395 -2.944,0.371 -5.3,-1.34c-2.067,-1.501 -8.633,-6.272 -31.719,-3.681c-25.216,2.83 -14.426,30.627 -30.458,24.068c-7.809,-3.195 4.583,-24.846 -33.621,-25.095c-40.058,-0.261 -26.698,24.349 -36.077,25.943c-15.965,2.713 -2.922,-23.884 -31.924,-25.566c-26.758,-1.552 -30.966,5.721 -32.034,5.848c-5.326,0.636 -2.305,-2.48 -2.275,-7.837c0.086,-14.886 -0.992,-146.429 0.445,-149.927c2.204,-5.366 39.246,-13.473 48.006,-15.087c79.185,-14.583 149.658,10.032 153.39,13.538c3.441,3.233 0.688,117.921 1.566,159.135Z" style="fill:#f0c0bf;"/><path d="M1148.109,1611.1c1.089,13.229 6.664,80.973 1.419,165.922c-0.698,11.302 -6.577,8.748 -44.527,8.757c-65.337,0.016 -68.747,1.244 -68.741,-4.769c0.073,-74.26 0.477,-75.228 2.739,-76.011c0.682,-0.236 23.018,-0.977 39.488,-22.354c11.96,-15.523 -2.321,-23.539 -9.421,-15.582c-1.93,2.163 -16.106,18.053 -30.078,20.207c-3.352,0.517 -2.644,-2.103 -2.733,-96.263c-0.107,-113.169 0.41,-113.295 0.959,-113.759c1.718,-1.451 88.919,15.29 108.437,117.611c0.246,1.291 0.114,1.292 2.457,16.241Z" style="fill:#d19c7e;"/><path d="M904.204,1692.997c0.054,-8.022 0.454,-68.016 6.351,-100.082c16.92,-92.001 103.842,-119.826 107.981,-115.456c1.884,1.989 0.273,128.953 1.055,203.536c0.212,20.237 -33.293,-16.436 -36.736,-17.117c-17.726,-3.509 -9.499,29.184 28.011,39.556c11.737,3.245 8.685,8.59 8.729,23.565c0.16,54.736 1.852,56.52 -2.473,58.272c-2.335,0.946 -105.408,0.534 -106.261,0.412c-4.427,-0.63 -6.55,-12.335 -6.658,-92.687Z" style="fill:#d29c7e;"/><path d="M666.997,1175.939c-69.027,2.141 -72.084,10.688 -81.809,6.57c-20.261,-8.579 -4.004,-27.729 -2.811,-29.871c44.457,-79.818 44.17,-83.008 75.274,-189.424c4.965,-16.987 13.034,-69.66 25.767,-22.334c42.144,156.648 51.768,155.773 87.138,222.361c6.824,12.848 -4.788,21.918 -17.619,20.141c-34.498,-4.778 -34.303,-6.564 -85.94,-7.443Z" style="fill:#e6959e;"/><path d="M1283.769,1169.073c3.638,-14.625 23.901,-38.614 41.681,-81.89c49.706,-120.977 44.094,-166.74 57.68,-164.886c7.871,1.074 16.549,53.845 33.646,104.79c43.619,129.971 76.942,136.406 60.129,151.814c-13.008,11.922 -40.504,-6.417 -115.946,-2.525c-50.189,2.589 -76.861,16.802 -77.192,-7.303Z" style="fill:#e6959e;"/><path d="M1163.856,1009.056c-0.679,58.114 2.282,62.177 -4.823,62.437c-15.473,0.565 -17.23,2.607 -27.317,-9.08c-78.121,-90.512 -83.783,-105.978 -110.443,-98.469c-20.635,5.812 -91.696,105.616 -104.233,107.317c-6.783,0.921 -11.044,0.549 -11.208,-4.313c-1.836,-54.319 8.38,-59.292 -16.765,-84.015c-12.888,-12.672 -11.034,-15.832 -11.871,-43.934c-0.042,-1.418 -0.399,-13.403 15.813,-8.029c8.328,2.761 1.829,24.513 26.011,25.234c30.938,0.922 24.638,-11.27 29.523,-23.414c1.318,-3.277 18.47,-6.026 20.767,2.119c2.387,8.463 0.37,24.023 35.75,20.57c23.144,-2.259 10.562,-25.039 25.968,-25.635c10.675,-0.413 13.549,-1.444 15.446,9.243c2.13,11.998 11.739,16.085 16.441,16.525c44.387,4.156 32.036,-18.374 38.37,-24.31c0.505,-0.473 17.6,-5.212 19.685,3.706c0.51,2.182 -0.412,24.925 33.919,21.086c19.897,-2.225 11.6,-25.452 24.066,-25.866c16.817,-0.559 13.74,10.357 11.321,34.669c-1.975,19.843 -20.742,17.201 -26.419,44.159Z" style="fill:#f4e6cb;"/><path d="M846.882,875.83c-3.956,-0.528 -21.173,-2.826 -49.856,-1.976c-35.066,1.04 -41.116,13.325 -53.778,-7.005c-17.984,-28.874 -12.718,-31.176 -7.449,-39.298c44.46,-68.539 68.922,-181.232 71.777,-186.272c13.384,-23.619 10.681,70.345 78.416,185.101c7.571,12.827 9.489,15.367 -7.977,41.958c-9.799,14.919 -13.358,10.033 -31.134,7.491Z" style="fill:#e797a0;"/><path d="M1296.846,875.935c-11.928,-1.698 -14.62,-1.87 -15.899,-1.951c-67.158,-4.276 -76.931,14.242 -89.398,-5.363c-15.394,-24.205 -16.171,-28.832 -9.842,-39.161c60.929,-99.429 66.334,-187.966 75.232,-190.608c15.473,-4.595 5.728,66.067 77.191,188.636c7.335,12.58 7.317,15.447 -7.854,39.047c-9.436,14.68 -12.312,12.733 -29.429,9.401Z" style="fill:#e696a0;"/><path d="M1252.982,892.117c9.24,-0.029 25.62,-0.766 48.106,4.572c9.008,2.138 6.588,5.099 6.593,14.297c0.007,12.488 0.09,154.472 0.042,156.095c-0.176,6.009 -8.538,4.785 -36.729,4.771c-55.375,-0.027 -56.095,1.885 -59.744,-1.203c-2.342,-1.981 -2.261,-85.724 0.095,-103.602c3.855,-29.242 -3.761,-56.443 -1.761,-65.946c0.283,-1.345 2.439,-7.388 43.397,-8.985Z" style="fill:#f4e7cc;"/><path d="M860.081,999.003c0.012,22.237 0.035,22.074 0.016,23.993c-0.418,43.056 2.137,48.765 -5.088,48.825c-7.216,0.06 -87.057,0.724 -90.209,-0.337c-4.338,-1.46 -1.619,-45.278 -2.309,-166.469c-0.038,-6.651 2.18,-11.602 46.509,-12.884c18.281,-0.529 49.338,2.946 50.945,8.566c4.442,15.535 -10.181,34.62 -0.351,78.186c0.713,3.159 0.081,3.064 0.488,20.12Z" style="fill:#f4e7cb;"/><path d="M1188.131,1655.024c0.185,10.311 2.214,123.116 -4.41,128.836c-2.247,1.94 -18.225,3.762 -18.168,-0.911c0.404,-33.087 2.395,-32.924 2.34,-91.947c-0.073,-78.351 0.638,-169.944 -93.342,-219.098c-39.408,-20.612 -67.477,-17.438 -110.058,10.315c-62.612,40.808 -81.78,99.278 -76.155,258.797c1.455,41.267 4.341,44.632 -1.252,44.834c-12.043,0.434 -15.739,1.189 -16.513,-10.817c-11.501,-178.594 11.153,-223.107 19.902,-240.298c27.84,-54.702 100.53,-113.593 164.572,-93.887c52.615,16.19 112.802,65.204 126.359,140.072c4.738,26.164 6.477,68.157 6.723,74.104Z" style="fill:#e8bd79;"/><path d="M1099.83,1335.666c-3.979,14.78 -2.813,17.245 -8.83,17.304c-12.727,0.123 -17.769,4.647 -19.779,-8.005c-1.236,-7.775 -1.588,-27.673 -50.272,-24.626c-45.703,2.86 -28.447,27.617 -38.072,32.178c-3.225,1.528 -14.768,0.193 -16.043,0.045c-0.749,-5.382 -2.537,-81.514 1.903,-99.625c14.003,-57.127 83.235,-76.242 117.417,-21.391c9.565,15.348 12.576,32.373 11.797,93.429c-0.026,2.061 -0.946,7.705 -0.807,7.956c0.614,1.12 2.072,1.614 2.686,2.735Z" style="fill:#b28183;"/><path d="M549.025,1204.228c-64.899,0.323 -70.594,14.136 -85.254,-5.751c-13.27,-18.002 18.138,-14.388 61.919,-167.29c13.816,-48.251 19.068,-80.104 26.474,-57.912c15.372,46.063 10.907,47.311 37.233,117.591c4.471,11.935 -44.276,61.507 -34.768,90.274c5.908,17.873 34.976,26.735 20.3,25.074c-13.025,-1.474 -12.854,-1.677 -25.905,-1.985Z" style="fill:#e6959e;"/><path d="M1506.953,1204.139c-12.186,0.239 -36.986,2.798 -23.5,-4.43c36.21,-19.408 12.339,-49.362 -7.672,-87.134c-8.557,-16.151 -10.866,-19.065 -9.01,-23.676c33.335,-82.841 32.424,-128.229 43.682,-120.968c11.086,7.15 11.415,88.098 77.967,209.387c2.263,4.124 15.05,17.707 -9.76,31.02c-8.8,4.722 -25.823,-5.258 -71.707,-4.199Z" style="fill:#e6969e;"/><path d="M859.913,1172.947c0.368,-2.024 -0.672,-5.693 5.988,-13.056c82.803,-91.538 94.073,-107.915 119.826,-136.232c29.713,-32.671 37.522,-49.867 51.07,-42.237c7.682,4.326 7.619,4.64 73.239,82.345c87.091,103.131 97.073,104.909 86.891,117.176c-12.897,15.536 -34.264,-15.916 -37.828,-20.031c-8.611,-9.943 -89.506,-103.353 -108.286,-123.73c-25.837,-28.036 -35.439,-5.056 -61.764,23.863c-12.512,13.745 -101.744,118.489 -109.844,122.326c-14.856,7.037 -18.861,-8.723 -19.293,-10.424Z" style="fill:#e6979f;"/><path d="M776.98,1212.187c-6.021,-1.225 -8.287,-1.423 -6.383,-7.329c2.263,-7.021 40.122,-15.335 15.599,-57.41c-30.046,-51.551 -31.909,-54.857 -27.05,-55.891c1.77,-0.377 122.328,0.341 139.853,-0.551c9.724,-0.495 -6.203,12.156 -15.031,22.806c-24.288,29.299 -59.657,54.789 -32.461,80.638c13.983,13.29 31.261,2.705 28.268,14.744c-0.831,3.341 -2.352,2.761 -102.795,2.992Z" style="fill:#e6969e;"/><path d="M1187.012,1212.17c-3.323,-0.231 -8.24,0.727 -6.789,-7.398c1.058,-5.926 29.747,4.686 37.362,-27.667c5.93,-25.192 -64.041,-80.002 -58.104,-85.484c1.418,-1.31 124.655,-0.348 135.494,-0.264c6.128,0.048 3.338,7.54 -23.126,52.143c-30.958,52.179 16.376,49.197 13.331,65.533c-0.65,3.485 -2.442,3.157 -98.169,3.137Z" style="fill:#e6969e;"/><path d="M880.119,1299.001c-0.018,30.122 0.337,30.147 -3.322,41.946c-1.624,5.237 1.511,11.703 -7.807,11.719c-11.608,0.02 -16.306,3.702 -17.489,-7.724c-3.267,-31.554 -38.26,-21.185 -39.243,-27.833c-2.283,-15.445 20.668,-67.678 -19.218,-78.292c-4.256,-1.133 -27.312,0.689 -22.173,-5.918c1.115,-1.434 1.465,-1.217 100.129,-1.147c12.115,0.009 8.858,5.3 8.897,17.239c0.149,46.202 0.145,46.01 0.226,50.01Z" style="fill:#f4e6cc;"/><path d="M598.108,1231.026c-0.047,-1.941 -0.544,-22.404 -0.054,-24.272c2.444,-9.326 104.431,-15.102 148.626,-2.985c3.816,1.046 4.629,32.011 0.027,34.679c-14.574,8.45 -13.323,10.214 -17.674,26.564c-1.154,4.336 -11.816,4.506 -13.18,-0.235c-6.062,-21.068 -4.878,-31.366 -50.876,-30.279c-40.014,0.945 -27.138,32.604 -36.044,33.669c-17.731,2.12 -6.055,-17.534 -22.225,-26.687c-5.633,-3.189 -7.443,-2.27 -8.6,-10.453Z" style="fill:#f3e5ca;"/><path d="M1334.996,1267.871c-1.373,-0.174 -2.777,0.077 -4.149,-0.097c-6.379,-0.81 -2.4,-21.447 -18.029,-28.38c-7.89,-3.5 -6.288,-7.347 -6.189,-30.399c0.032,-7.33 3.117,-5.377 10.274,-6.564c18.018,-2.988 65.831,-10.644 120.175,-2.018c14.497,2.301 20.122,-0.258 20.036,14.591c-0.102,17.567 1.541,20.907 -5.686,24.813c-15.286,8.262 -12.384,25.962 -16.123,27.683c-15.588,7.174 -7.91,-7.541 -17.076,-21.965c-10.848,-17.07 -54.861,-10.025 -59.159,-8.343c-25,9.781 -9.706,28.737 -24.073,30.68Z" style="fill:#f4e5ca;"/><path d="M1130.973,316.091c-31.861,0.05 -40.41,-19.28 -80.089,-11.547c-10.85,2.114 -6.48,-4.532 -6.481,-15.548c-0.007,-39.837 -2.071,-43.892 6.721,-45.208c61.758,-9.242 59.755,43.339 145.905,29.709c8.664,-1.371 -6.465,14.183 -14.645,20.618c-24.472,19.249 -46.96,21.526 -51.41,21.977Z" style="fill:#e4bf79;"/><path d="M1180.15,1333.01c-0.261,-11.883 -0.213,-47.607 -0.016,-56.016c0.99,-42.383 -0.643,-43.961 3.038,-45.119c3.738,-1.176 89.957,-0.267 97.779,-0.184c5.299,0.056 5.752,5.707 0.153,6.08c-42.458,2.828 -43.272,14.764 -39.075,59.328c1.423,15.112 8.062,22.28 -7.098,23.17c-32.841,1.928 -27.318,27.721 -29.949,30.719c-1.793,2.044 -16.509,1.678 -17.951,1.642c-5.207,-0.13 -6.052,-5.713 -6.88,-19.62Z" style="fill:#f4e6cb;"/><path d="M532.108,1266.973c2.054,86.419 21.246,85.082 20.035,93.887c-0.117,0.85 -5.355,17.119 -10.523,-2.07c-6.268,-23.273 -42.925,-19.256 -52.412,-11.142c-4.23,3.618 -2.317,-2.489 -3.155,-50.649c-0.089,-5.133 -1.032,-59.319 0.17,-64.172c0.875,-3.53 1.404,-5.667 44.777,-7.853c11.373,-0.573 43.378,-0.813 45.657,2.267c0.388,0.524 3.622,9.993 -3.574,10.423c-18.772,1.122 -39.182,0.831 -40.975,29.307Z" style="fill:#f4e5c9;"/><path d="M1522.158,1292.923c0.554,-6.279 2.624,-25.857 0.916,-31.942c-10.52,-37.473 -50.15,-12.505 -44.988,-32.227c2.23,-8.519 87.513,-2.757 90.277,2.616c2.807,5.457 0.893,104.555 0.718,113.645c-0.139,7.182 -5.915,-2.225 -16.184,-3.115c-37.68,-3.264 -37.529,15.077 -40.561,22.808c-2.868,7.312 -10.825,-2.728 -6.619,-9.234c12.274,-18.986 12.539,-25.494 16.441,-62.55Z" style="fill:#f4e5ca;"/><path d="M999.814,857.009c0.231,-13.14 0.146,-12.937 0.416,-26.054c1.095,-53.183 27.8,-59.023 36.752,-57.805c33.356,4.541 31.012,68.659 31.058,79.867c0.087,21.278 -7.907,18.402 -29.037,18.73c-34.699,0.539 -38.375,-1.507 -39.188,-14.739Z" style="fill:#b48282;"/><path d="M650.958,1531.85c-0.32,-0.06 -4.002,-0.744 -4.002,-0.744c-12.188,-4.712 -8.524,-62.992 4.771,-83.634c13.227,-20.536 58.333,-28.658 54.419,73.503c-0.455,11.884 -5.396,11.626 -55.189,10.875Z" style="fill:#b28384;"/><path d="M1368.978,1532.127c-24.64,-0.123 -19.443,-10.63 -18.067,-35.134c0.507,-9.02 -0.561,-46.144 22.337,-59.477c17.255,-10.046 41.646,8.431 42.612,51.453c0.732,32.628 2.861,42.995 -12.843,43.155c-17.146,0.175 -16.985,-0.458 -34.04,0.002Z" style="fill:#b38384;"/><path d="M1092.986,1611.851c-11.793,2.042 -10.871,4.316 -15.93,15.184c-5.538,11.896 -28.317,-4.226 -5.966,-25.942c29.889,-29.041 66.47,18.235 50.157,28.249c-16.262,9.982 -9.256,-15.529 -28.261,-17.49Z" style="fill:#6d3e34;"/><path d="M961.091,1611.836c-17.478,4.89 -10.259,24.59 -23.745,18.311c-22.086,-10.284 23.797,-64.298 53.502,-23.036c13.648,18.958 -5.194,30.474 -11.072,19.403c-5.353,-10.083 -3.712,-14.182 -18.685,-14.678Z" style="fill:#6c3d33;"/><path d="M1167.192,909.791c-5.585,1.565 -8.296,5.016 -8.609,-0.691c-0.211,-3.832 -1.409,-25.618 -0.83,-47.961c0.201,-7.766 5.516,3.038 5.754,3.522c13.007,26.444 24.882,28.323 23.974,40.397c-0.416,5.537 -3.296,2.571 -20.289,4.732Z" style="fill:#fcfcf9;"/><path d="M907.641,859.807c4.796,5.691 1.617,6.718 2.202,45.195c0.088,5.817 -1.152,7.407 -6.55,5.281c-4.541,-1.788 -4.632,-1.055 -18.246,-1.534c-3.65,-0.128 -3.593,-10.471 -1.246,-13.089c12.837,-14.323 13.265,-14.001 23.84,-35.853Z" style="fill:#fbfbf7;"/><path d="M1185.094,1029c-0.005,-5.381 -1.096,-19.943 1.955,-21.241c4.253,-1.809 1.933,60.893 1.752,61.098c-4.86,5.501 -3.69,-12.484 -3.707,-39.858Z" style="fill:#faebe2;"/><path d="M884.837,1027.003c0.002,3.216 0.04,69.474 -3.891,40.016c-0.131,-0.983 -0.72,-56.559 0.237,-57.911c1.767,-2.494 3.242,-0.148 3.386,0.081c0.267,0.425 0.268,16.388 0.268,17.814Z" style="fill:#dbc1b5;"/></g></svg>