<?xml version="1.0" encoding="UTF-8" standalone="no"?><!DOCTYPE svg PUBLIC "-//W3C//DTD SVG 1.1//EN" "http://www.w3.org/Graphics/SVG/1.1/DTD/svg11.dtd"><svg width="100%" height="100%" viewBox="0 0 2048 2048" version="1.1" xmlns="http://www.w3.org/2000/svg" xmlns:xlink="http://www.w3.org/1999/xlink" xml:space="preserve" xmlns:serif="http://www.serif.com/" style="fill-rule:evenodd;clip-rule:evenodd;stroke-linejoin:round;stroke-miterlimit:2;"><g id="Background"><path d="M1581.901,1364.539l-0.492,5.05c-1.913,2.928 -5.863,2.572 -2.955,4.525c1.236,0.83 1.367,-0.677 2.51,0.091c5.934,0.141 6.475,-1.192 5.63,-6.682c1.225,-18.617 6.714,-20.71 32.133,-17.373c14.42,1.893 17.5,5.738 13.274,52.501c-3.483,38.538 -11.255,36.146 -32.529,61.845c-6.835,8.257 -3.29,9.73 11.208,282.203c0.461,8.666 17.817,50.571 -105.189,44.188c-8.25,-0.428 -9.998,-0.18 -10.952,7.568c-4.296,34.884 -95.732,40.002 -144.949,36.883c-71.153,-4.509 -87.555,-29.302 -88.173,-29.575c-6.38,-2.823 -353.918,-1.707 -384.693,-1.608c-79.7,0.256 -80.982,-1.605 -85.772,3.598c-30.757,33.408 -137.13,30.349 -170.88,24.372c-68.791,-12.183 -59.945,-39.658 -60.595,-40.321c-0.756,-0.772 -113.992,5.208 -116.134,-28.553c-0.172,-2.707 14.483,-262.44 15.771,-285.26c0.884,-15.659 -15.61,-23.69 -26.514,-38.416c-3.116,-4.208 -9.707,-13.11 -12.388,-62.958c-1.34,-24.919 4.937,-26.867 31.473,-28.023c20.379,-0.888 15.086,14.725 16.138,23.272c3.222,26.178 5.229,-3.983 5.195,-4.513c-3.438,-53.796 -0.781,-138.062 -1.952,-141.357c-6.663,-18.748 -38.037,-10.925 -22.437,-42.85c49.882,-102.086 44.939,-103.723 82.288,-228.695c5.502,-18.411 -14.816,-23.608 3.884,-39.612c8.961,-7.669 4.376,-9.699 5.307,-82.611c0.125,-9.793 7.903,-9.526 9.604,-4.705c3.459,9.806 25.241,-3.4 44.739,12.45c27.319,22.207 30.24,17.55 48.435,17.637c7.207,0.034 2.324,11.465 -7.817,19.145c-30.293,22.941 -48.229,-5.15 -80.378,4.791c-5.31,1.642 -4.32,28.025 0.779,32.478c15.155,13.232 11.373,16.794 4.335,31.316c-1.969,4.063 37.77,131.899 42.469,131.155c4.805,-0.76 25.229,-64.434 27.062,-70.149c2.404,-7.495 29.049,-90.564 29.349,-93.882c1.051,-11.627 -20.518,-17.576 5.866,-36.573c5.976,-4.303 -3.093,-109.006 10.919,-81.359c4.074,8.039 6.381,5.432 15.111,4.516c22.227,-2.334 31.577,9.902 35.203,10.173c13.191,0.984 59.374,-132.959 72.058,-177.529c1.144,-4.02 -3.814,-9.382 -4.774,-13.832c-3.165,-14.681 10.061,-21.887 10.106,-21.929c8.778,-8.207 -5.894,-97.78 12.894,-79.298c8.724,8.582 28.211,-4.513 52.276,12.511c26.716,18.899 27.849,19.865 61.198,17.614c3.956,-0.267 10.191,6.399 -13.235,20.644c-41.627,25.313 -52.695,-9.998 -90.056,0.426c-13.174,3.675 -8.345,24.65 -4.309,28.034c20.597,17.27 4.916,25.405 3.811,33.572c-0.398,2.939 23.182,72.303 32.885,99.229c37.007,102.688 64.99,104.091 42.98,126.914c-13.8,14.309 -3.077,20.309 -17.354,33.21c-9.61,8.684 -9.172,9.54 -8.497,23.729c0.391,8.215 4.703,3.796 13.513,3.761c23.252,-0.094 20.625,7.43 22.922,19.56c0.718,3.79 6.687,6.449 6.58,-2.326c-0.371,-30.389 -0.59,-30.351 -0.61,-32.991c-0.934,-123.744 0.409,-123.542 0.206,-134.283c-0.281,-14.864 -7.101,-12.403 -13.476,-26.132c-9.263,-19.95 -38.232,-31.073 -19.673,-55.769c10.998,-14.635 56.536,-75.232 99.971,-203.187c32.84,-96.744 33.502,-97.96 28.669,-105.389c-13.386,-20.578 1.368,-27.403 7.105,-35.67c2.386,-3.438 1.737,-78.482 1.678,-85.307c-0.108,-12.515 -11.798,-14.001 -10.04,-25.914c4.847,-32.85 55.874,-11.968 37.089,11.569c-7.877,9.87 17.414,-1.368 43.212,1.09c44.56,4.246 36.314,21.154 42.846,27.397c20.667,19.752 76.587,3.957 82.942,2.161c1.083,-0.306 16.339,-1.086 1.343,13.194c-8.234,7.841 -9.783,5.813 -18.547,13.265c-4.238,3.604 10.882,7.252 12,7.522c5.14,1.24 10.318,2.347 15.429,3.691c35.745,9.398 -97.642,45.452 -115.033,7.056c-2.392,-5.281 3.44,-17.747 -33.36,-15.144c-30.376,2.148 -34.729,3.87 -34.776,13.051c-0.102,20.114 -1.717,22.926 6.465,31.047c18.314,18.177 -2.833,30.088 1.484,44.093c69.348,224.986 114.23,273.073 128.686,293.266c19.467,27.193 -1.526,30.104 -16.928,57.948c-7.183,12.986 -13.801,12.874 -14.39,21.454c-0.377,5.501 0.014,176.62 0.015,176.622c4.386,11.623 6.833,-13.818 8.313,-15.636c7.274,-8.936 28.762,-6.172 29.192,-6.17c9.466,0.044 5.5,-20.783 4.129,-22.208c-10.52,-10.937 -12.204,-10.183 -16.705,-26.571c-3.171,-11.544 -14.797,-12.804 -16.722,-28.332c-0.864,-6.967 33.058,-36.149 84.178,-207.466c3.13,-10.489 -18.214,-15.572 5.061,-35.622c5.509,-4.745 1.559,-38.563 3.08,-75.02c0.366,-8.762 5.758,-10.209 10.799,-2.806c5.087,7.471 29.91,-0.766 46.624,7.934c27.678,14.407 24.676,26.843 65.533,22.324c21.056,-2.329 4.326,21.418 -29.954,29.51c-29.354,6.929 -56.928,-20.213 -77.851,-7.192c-2.71,1.686 -2.554,17.054 -2.538,18.55c0.075,7.372 6.886,5.768 11.534,14.538c6.111,11.529 2.533,12.009 -3.623,23.393c-2.95,5.456 28.684,91.176 31.567,98.988c38.961,105.571 67.254,107.064 45.29,128.963c-11.883,11.847 -4.875,15.47 -15.102,28.351c-3.784,4.767 -4.456,3.963 -8.37,8.419c-7.748,8.822 0.818,74.863 -3.348,152.153c-0.159,2.942 3.618,4.202 4.782,0.122c7.193,-25.221 42.584,-129.54 41.683,-134.286c-2.39,-12.592 -14.23,-16.152 5.347,-33.787c4.313,-3.885 3.869,-4.673 3.43,-70.001c-0.126,-18.667 8.043,-14.223 8.745,-13.171c1.33,1.992 1.88,4.429 3.438,6.269c0.806,0.953 1.016,0.484 12.746,-0.211c35.602,-2.11 41.855,37.163 78.142,31.618c35.199,-5.379 -1.011,20.874 -8.23,24.09c-26.685,11.889 -43.737,-0.196 -47.117,-1.744c-20.33,-9.313 -35.59,-2.432 -36.145,2.496c-2.015,17.885 2.758,21.404 4.294,22.536c21.742,16.031 4.054,24.517 2.781,34.064c-0.422,3.163 28.305,91.619 37.416,117.649c16.38,46.793 17.754,49.397 21.449,47.195c3.952,-2.356 37.901,-116.71 40.935,-126.929c2.019,-6.801 -13.111,-18.346 -0.41,-33.052c13.758,-15.929 6.788,-18.432 8.102,-89.58c0.156,-8.459 7.454,-7.443 9.606,-2.449c2.82,6.543 4.685,4.697 9.852,4.22c53.599,-4.947 46.089,35.154 98.191,29.195c22.204,-2.539 1.958,14.623 -3.167,17.579c-48.976,28.252 -60.294,-4.427 -87.45,-1.6c-21.744,2.264 -16.077,10.251 -15.89,30.812c0.119,13.087 23.087,15.887 10.305,35.009c-6.215,9.298 -1.412,9.984 10.967,54.452c42.943,154.259 55.934,149.956 72.889,195.605c6.526,17.57 -13.133,20.109 -24.199,33.958c-2.213,2.769 -0.888,118.516 -2.765,140.229Z" style="fill:#8b554a;"/><path d="M826.461,1743.419c-11.035,-0.033 -32.433,0.824 -34.272,-2.016c-2.191,-3.382 -6.923,-97.107 -7.35,-105.561c-7.682,-152.153 -13.194,-227.518 -12.858,-230.852c0.674,-6.675 4.895,-3.03 99.696,-3.337c83.996,-0.273 83.754,-0.294 98.097,-0.294c308.871,0.006 309.714,-0.5 311.409,1.542c1.56,1.879 -16.654,329.564 -17.386,336.672c-0.635,6.168 -21.057,4.072 -27.477,4.066c-20.667,-0.278 -37.146,1.066 -37.895,-3.992c-0.406,-2.739 0.458,-25.634 0.326,-44.821c-0.464,-67.934 10.333,-184.002 -105.178,-243.716c-53.569,-27.693 -74.853,-24.741 -103.682,-13.17c-162.248,65.124 -129.361,206.217 -133.679,301.621c-0.271,5.981 -24.789,3.866 -29.752,3.858Z" style="fill:#f1dbc2;"/><path d="M607.593,1380.101c10.619,-0.21 59.526,-1.51 103.102,-0.446c43.848,1.071 48.319,-0.299 48.53,8.772c0.066,2.832 0.464,19.927 1.312,35.383c1.62,29.54 2.114,29.356 3.682,58.867c1.112,20.923 13.819,260.084 13.712,261.541c-1.306,17.674 -103.061,32.539 -170.386,16.808c-40.527,-9.469 -31.697,-21.95 -31.71,-23.721c5.102,6.197 5.963,5.937 14.142,4.523c8.827,-1.526 5.855,-52.596 10.086,-59.21l-1.898,-1.931l-0.476,-2.615c4.469,0.584 4.437,0.617 4.827,0.63c20.556,0.675 36.621,4.271 38.573,-9.682c4.582,-32.749 -10.922,-28.134 -46.063,-30.869l-5.015,0.256c0.158,-2.269 0.567,-8.143 -0.346,-28.426l-0.701,-2.357l-0.142,-2.357l0.425,-2.357l0.164,-2.357l-0.406,-2.357l0.511,-2.357l0.224,-2.357l-0.41,-2.357l0.456,-2.357l-0.426,-2.357l0.373,-2.357l0.112,-2.357l-0.522,-2.357l0.139,-2.357l0.002,-2.357l-0.295,-2.357l0.23,-2.357l-0.225,-2.357l0.153,-2.357l-0.044,-2.357l-0.422,-2.357l0.305,-2.357l-0.408,-2.357l-1.269,-0.768l-3.386,-1.63c5.976,-114.531 6.031,-149.074 6.899,-167.249c0.349,-7.304 7.777,-6.002 16.593,-6.026Z" style="fill:#f3dfc6;"/><path d="M1295.741,1383.229c8.576,-6.631 9.736,-2.811 33.717,-3.401c5.427,-0.134 40.695,-1.003 67.857,-0.547c60.291,1.012 60.994,-0.67 64.651,2.765c2.316,2.176 9.098,213.323 12.225,239.79c-0.951,-7.87 -42.586,-2.342 -46.253,-1.855c-13.322,13.173 2.639,28.487 -8.108,29.208c-26.049,1.748 -34.694,3.395 -28.656,27.052c3.357,13.156 24.938,10.566 38.973,11.158c1.258,56.079 4.771,68.417 -0.36,77.041c-49.501,5.872 -87.659,5.272 -130.922,-7.385c-17.978,-6.142 -22.482,-5.385 -21.667,-19.793c4.79,-84.681 17.181,-331.894 18.546,-354.034Z" style="fill:#f4e2c9;"/><path d="M930.3,759.185c-0.032,-6.807 -0.088,-18.65 87.256,-23.529c9.296,-0.519 69.656,-3.891 115.334,14.734c9.034,3.684 5.887,13.349 5.804,22.916c-1.305,150.283 3.267,150.306 0.753,163.143c-4.049,20.674 -5.584,-9.146 -5.631,-10.054c-0.615,-11.94 -17.219,-10.506 -30.75,-10.223c-21.577,0.452 -17.965,12.349 -19.715,19.891c-0.876,3.775 -19.853,5.842 -21.015,-2.444c-2.72,-19.393 -8.949,-18.711 -37.229,-17.897c-23.097,0.665 -17.85,15.538 -18.511,20.116c-0.636,4.403 -15.537,3.528 -16.919,3.447c-8.067,-0.474 -2.173,-17.052 -12.791,-21.288c-7.455,-2.974 -33.17,-1.528 -34.838,-1.199c-11.353,2.235 -6.985,19.422 -8.242,20.914c-1.988,2.36 -5.646,0.574 -4.213,-13.589c3.381,-33.431 0.975,-160.428 0.708,-164.94Z" style="fill:#f3dfc7;"/><path d="M893.529,1199.833c10.138,-8.649 10.27,-8.226 13.094,-11.887c39.645,-51.399 67.162,-81.017 101.265,-121.939c20.78,-24.935 23.162,-31.228 29.181,-23.647c34.574,43.541 34.991,43.134 37.949,46.944c36.424,46.909 76.057,91.737 87.137,105.869l1.267,2.042l3.261,2.64c0.052,10.006 0.578,111.311 0.059,125.073c-0.103,2.721 -1.028,5.072 -36.195,2.855c-5.725,-0.361 -0.304,-23.11 -3.386,-64.17c-5.787,-77.081 -79.216,-93.528 -114.752,-85.52c-108.866,24.532 -68.597,139.846 -77.77,149.141c-0.956,0.969 -39.84,3.452 -41.027,-2.293c-1.1,-5.328 -0.167,-115.099 -0.082,-125.108Z" style="fill:#f7eacc;"/><path d="M667.007,926.23c3.583,-10.795 3.462,-10.877 3.868,-11.112c2.181,-1.265 3.028,0.316 11.239,28.132c57.447,194.614 100.141,221.621 96.038,228.192c-1.701,2.725 -40.363,-6.827 -85.029,-7.288c-112.059,-1.154 -111.212,8.788 -120.902,8.414c-17.84,-0.689 20.501,-5.297 80.263,-196.708c7.041,-24.872 7.598,-24.561 14.524,-49.63Z" style="fill:#e899a4;"/><path d="M471.08,1484.993c8,-3.446 8.231,-1.549 16.256,1.473c58.45,7.943 61.541,5.659 63.776,13.029c2.69,8.87 2.166,8.968 -3.338,115.222c-0.479,9.256 -5.867,113.247 -9.835,115.463c-0.402,0.224 -0.357,-0.918 -5.783,0.779c-2.844,0.889 -2.372,1.414 -5.014,2.988c-5.565,-0.304 -60.369,-3.3 -67.639,-15.71c-2.12,-3.619 9.965,-178.036 11.577,-233.244Z" style="fill:#f7ebd1;"/><path d="M838.942,1076.802c-4.826,0.003 -54.379,0.038 -60.32,0.06c-13.654,0.052 -19.999,3.965 -19.771,-8.953c0.894,-50.537 0.093,-163.757 0.544,-169.56c0.639,-8.227 52.808,-10.977 92.229,-5.362c17.158,2.444 14.378,7.819 12.241,24.047c-6.451,49.01 1.366,52.053 0.877,63.654c-1.919,45.531 0.724,75.514 0.353,92.077c-0.147,6.554 -21.4,4.045 -26.153,4.035Z" style="fill:#f0d9c4;"/><path d="M1306.435,894.461c5.137,4.934 4.08,5.839 4.144,57.939c0.147,118.872 5.07,124.559 -3.798,124.388c-40.6,-0.782 -97.616,1.837 -99.927,-2.225c-2.283,-4.011 2.945,-117.391 -0.976,-152.755c-2.783,-25.097 0.076,-26.229 2.211,-27.075c2.165,-0.857 26.97,-4.119 43.338,-4.373c25.449,-0.394 46.456,3.036 55.008,4.101Z" style="fill:#f2ddc3;"/><path d="M1032.502,403.264c0.587,1.483 -0.901,3.254 -0.313,4.737c0.009,0.024 3.529,0.911 4.382,7.181c10.806,79.425 20.744,153.233 53.444,242.728c0,0 3.451,5.028 3.751,5.465c-1.778,0.547 -11.125,3.423 -23.374,-0.922c-11.62,-4.122 -13.124,-8.165 -18.784,-15.748c-26.596,-35.633 -32.04,7.942 -52.183,14.728c-35.546,11.973 -33.387,-16.975 -54.573,-14.998c0.005,-4.745 -0.115,-4.73 0.006,-5.124c10.587,-34.522 21.579,-40.734 25.148,-42.75c0.714,0.254 1.228,0.886 1.942,1.14c23.996,8.532 57.679,-173.335 55.551,-191.719l2.28,-2.357l2.726,-2.361Z" style="fill:#ed9faa;"/><path d="M1012.273,1210.945c47.236,-12.402 69.575,19.904 74.848,34.014c9.907,26.512 3.79,108.295 3.738,108.403c-1.164,2.443 -18.808,1.843 -20.45,1.787c-8.04,-0.274 -3.885,-4.121 -4.79,-11.537c-0.781,-6.404 2.558,-21.204 -55.721,-14.607c-23.066,2.611 -7.328,26.26 -19.918,25.654c-12.569,-0.606 -19.323,2.469 -19.751,-6.344c-5.282,-108.587 5.151,-122.518 42.044,-137.37Z" style="fill:#b68687;"/><path d="M1275.821,1263.517c0.252,4.193 -1.38,19.509 10.838,19.332c22.269,-0.323 7.293,-29.104 20.201,-30.087c18.747,-1.428 10.495,8.531 14.336,22.749c2.816,10.424 33.822,5.742 35.746,4.317c3.485,-2.58 4.373,-19.342 4.463,-21.058c0.403,-7.621 9.397,-7.311 33.332,-6.346c9.712,0.392 7.186,16.515 7.439,20.544c0.72,11.476 27.101,8.62 30.275,8.552c16.989,-0.361 7.902,-27.327 15.509,-28.844c16.8,-3.351 15.39,4.008 15.223,20.234c0.493,1.111 3.948,8.89 12.012,9.983c15.615,2.116 12.073,-18.861 12.163,-21.75c0.278,-8.947 13.781,-3.264 15.273,-2.024c3.627,3.014 -2.286,68.553 -4.409,70.676c-4.122,4.121 -84.418,-9.111 -209.095,-0.896c-17.225,1.135 -26.099,7.151 -28.084,-11.133c-6.213,-57.229 -4.112,-58.911 0.849,-60.153c16.139,-4.04 13.13,3.32 13.928,5.904Z" style="fill:#f5e4ca;"/><path d="M1241.351,1339.662l-2.479,2.235c-0.533,1.021 -2.584,0.738 -3.117,1.759c-0.348,0.666 0.614,0.608 -0.224,9.268c-3.292,34.018 5.432,35.715 5.892,36.529c-79.695,-0.901 -420.238,-0.09 -422.639,-0.061c3.494,-15.714 4.129,-15.513 4.921,-31.603c0.072,-1.463 0.736,-14.948 5.294,-17.617c0.803,-0.47 1.974,1.029 2.777,0.559c9.883,11.15 -2.704,25.714 22.298,26.59c19.257,0.675 37.309,3.914 38.153,-11.875c0.543,-10.154 -3.628,-14.387 7.263,-15.658c42.778,-4.996 43.748,3.025 44.151,6.352c1.516,12.538 -3.331,15.46 5.696,19.295c1.501,0.638 52.947,7.737 54.62,-7.788c0.159,-1.473 -2.696,-17.428 8.589,-18.236c24.107,-1.727 40.557,-4.204 42.168,6.685c1.588,10.737 -4.269,20.798 25.704,21.55c13.442,0.337 32.182,2.039 33.099,-9.806c0.965,-12.463 -3.629,-17.824 9.67,-18.848c41.579,-3.201 42.126,3.834 42.377,7.052c0.29,3.727 -2.655,19.997 10.449,20.974c36.929,2.754 43.97,2.753 46.378,-18.523c1.225,-10.821 10.067,-8.367 18.961,-8.831Z" style="fill:#f7eacd;"/><path d="M889.276,928.039l-2.505,3.358c-0.455,0.646 -3.616,-0.194 -3.251,4.614c0.961,12.651 -2.612,32.996 5.903,28.294c2.617,-1.445 4.103,-23.913 4.242,-26.014c0.054,-0.817 0.048,-0.756 0.654,-10.209c9.283,2.133 6.726,4.853 7.457,12.557c0.751,7.92 9.047,9.106 10.169,9.266c37.156,5.309 30.864,-15.181 30.981,-16.306c0.215,-2.073 1.116,-10.734 27.136,-5.557c10.251,2.04 -4.59,20.707 17.309,21.923c38.674,2.148 26.939,-15.601 29.857,-21.313c0.541,-1.06 32.644,-9.559 34.408,7.379c1.495,14.355 6.514,13.358 23.776,13.588c24.404,0.326 16.189,-10.364 19.075,-18.796c1.188,-3.47 19.463,-3.629 21.187,-3.644c10.671,-0.092 9.097,3.57 9.751,13.463c0.759,11.472 13.809,10.278 25.458,9.793c24.016,-1 13.098,-16.513 17.958,-21.237c2.581,-2.509 22.082,-1.155 22.469,-1.065c5.974,1.389 6.216,36.595 -1.536,48.84c-0.702,-0.053 -4.362,-0.33 -8.725,-1.116c-11.364,-2.048 -11.259,-2.842 -120.747,-4.31c-0,0 -5.807,3.044 -6.311,3.309c-0.311,-0.362 -13.133,-17.713 -24.013,-16.137c-7.988,1.157 -16.107,12.008 -21.69,18.052c-12.416,15.496 -12.097,15.681 -14.214,17.075c-1.54,1.014 -82.526,1.814 -89.704,1.884c-8.157,0.081 -28.026,-19.804 -30.475,-29.115c-0.22,-0.836 -0.182,-34.902 0.034,-35.516c1.912,-5.438 3.983,-2.542 15.348,-3.061Z" style="fill:#f4e1c6;"/><path d="M1376.692,926.357c1.182,1.616 2.364,3.232 3.546,4.848c11.232,81.576 9.504,81.704 25.829,162.439c5.425,26.831 12.066,30.552 -8.946,49.462c-6.008,5.407 -48.443,14.858 -50.105,16.088c-0.348,0.258 -0.001,0.374 -0.011,5.199c-64.602,3.581 -66.439,11.542 -69.394,6.646c-2.348,-3.889 21.388,-29.626 44.617,-84.11c9.661,-22.659 9.532,-22.442 18.682,-45.29c0.734,1.373 3.252,1.323 3.987,2.695c0.422,0.789 -1.395,1.481 -1.284,2.357c0.123,0.974 1.92,1.377 1.879,2.357c-0.033,0.797 -0.513,0.646 -6.507,18.741c-0.64,1.931 -9.528,28.76 2.731,25.147c8.478,-2.499 39.623,-113.929 31.994,-118.614c-5.006,-3.074 -5.359,0.073 -6.573,-0.272c-1.471,-0.418 -1.847,-2.585 -3.318,-3.002c3.014,-10.542 2.862,-10.433 5.988,-20.942c3.588,-12.059 3.547,-11.811 6.886,-23.749Z" style="fill:#eea1ab;"/><path d="M766.055,902.429c20.282,-4.451 62.291,-4.207 67.832,-1.609c14.541,6.819 9.441,89.408 8.313,160.034c-9.339,8.124 -10.67,5.541 -23.391,5.652c-3.164,0.028 -39.364,-0.551 -42.787,-0.606c-9.371,-0.15 -4.466,-4.768 -4.651,-16.868c-0.932,-60.903 1.067,-60.845 0.907,-66.135c-1.251,-41.263 5.049,-58.828 -6.222,-80.469Z" style="fill:#f7e8cb;"/><path d="M884.292,1088.181c2.373,-0.138 28.357,-1.648 29.721,-0.395c1.601,1.472 0.447,3.376 0.294,3.629c-1.681,2.773 -69,75.822 -67.967,82.576c2.288,14.952 32.89,12.126 34.39,14.402c0.353,0.536 0.965,24.66 0.706,25.541c-1.264,4.292 -113.998,1.98 -115.651,0.291c-9.802,-10.019 26.153,-29.874 29.483,-35.487c-7.167,-21.784 -12.866,-19.145 -40.277,-74.902c94.116,-8.066 137.672,10.543 129.302,-15.656Z" style="fill:#e998a2;"/><path d="M1583.16,1482.729l-2.249,1.703c-0.858,0.136 -7.508,1.194 -10.684,1.894c-3.545,0.584 -47.636,4.511 -44.08,24.637c0.318,1.798 1.794,3.299 2.112,5.098c-2.298,2.146 -17.384,4.708 -14.01,58.478c0.597,9.517 3.336,8.659 11.325,10.205l-0.476,1.67c1.759,71.341 9.56,138.018 10.491,147.059c-16.64,0.221 -43.497,2.925 -44.287,-8.052c-2.802,-38.961 -10.489,-216.774 -11.304,-235.628c-0.059,-1.358 -0.691,-15.992 2.725,-16.79c0.062,-0.014 94.815,-1.534 98.386,0.02c2.02,0.879 1.161,1.458 2.053,9.708Z" style="fill:#e9c8b4;"/><path d="M752.677,518.584c-3.948,12.091 -12.774,12.22 -15.85,-0.078c-14.364,-57.418 -14.269,-70.311 -78.625,-83.324c-1.201,-0.243 -18.235,-3.687 -9,-11.664c7.779,-6.72 74.012,4.814 84.737,-74.382c0.262,-1.938 2.975,-21.97 7.037,-23.506c24.906,-9.415 -14.114,84.501 90.327,94.866c7.851,0.779 17.922,11.117 -2.492,15.284c-57.966,11.832 -61.467,18.395 -76.134,82.803Z" style="fill:#d3ab81;"/><path d="M755.953,1277.686l-2.681,2.334c-2.502,15.242 -1.71,37.557 -17.4,37.701c-5.239,0.048 -57.942,0.533 -65.39,3.455c-3.223,1.265 -9.248,1.279 -10.06,1.281c-5.745,0.014 -5.318,0.923 -10.086,3.748c-44.035,1.395 -43.767,2.337 -87.967,4.221c-10.186,-1.891 -6.952,-5.329 -8.037,-15.004c-6.091,-54.313 -4.446,-55.84 0.188,-57.311c14.178,-4.499 12.53,3.041 13.863,17.056c0.088,0.925 0.689,7.252 8.948,8.022c22.289,2.078 6.463,-29.447 20.302,-30.481c19.013,-1.421 13.585,11.815 13.861,15.653c1.097,15.261 11.853,13.784 26.267,13.045c16.988,-0.871 14.005,-6.628 15.31,-22.586c0.714,-8.738 15.431,-6.75 29.978,-6.643c13.205,0.097 7.839,6.213 9.344,18.499c2.176,17.765 37.39,9.66 38.255,9.058c11.291,-7.851 -6.112,-28.815 17.694,-27.04c10.762,0.802 1.098,8.855 7.611,24.993Z" style="fill:#f8ead0;"/><path d="M884.324,1792.459c-11.866,-0.657 -11.874,-0.312 -12.809,-0.709c-5.717,-2.428 -4.655,-152.652 -0.252,-193.598c1.417,-13.175 10.357,-96.301 96.053,-138.901c38.247,-19.013 56.789,-24.45 85.573,-14.581c134.585,46.144 132.247,159.115 133.776,188.844c0.639,12.433 4.3,83.594 -0.599,155.589c-0.518,7.617 -4.409,3.763 -12.497,3.941l1.029,-1.585c0.245,-1.552 4.903,-163.941 -8.459,-216.895c-3.023,-11.98 -20.175,-79.96 -108.219,-115.732c-28.965,-11.768 -54.497,-8.452 -102.495,24.897c-71.7,49.816 -77.517,97.538 -74.34,279.504c0.261,14.934 -2.22,15.18 3.239,29.227Z" style="fill:#f7d295;"/><path d="M1422.339,1552.606c-5.824,0.137 -66.123,1.555 -72.816,0.904c-22.556,-2.194 -13.376,-25.622 -11.609,-27.744c8.44,-10.136 2.999,-11.701 5.128,-47.704c2.179,-36.849 33.301,-61.104 48.828,-53.494c41.308,20.245 33.671,76.631 34.549,93.716c0.145,2.83 4.402,5.557 6.128,9.198c8.796,18.562 -8.054,24.38 -10.207,25.124Z" style="fill:#8a5544;"/><path d="M716.003,1548.917c-11.253,9.188 -86.317,4.412 -90.159,1.385c-13.987,-11.017 2.7,-31.07 2.727,-32.176c0.261,-10.637 -8.054,-74.975 34.795,-93.532c14.982,-6.488 44.253,11.963 47.782,53.369c2.021,23.714 -1.674,39.366 4.685,47.107c9.553,11.629 1.359,22.299 0.169,23.848Z" style="fill:#895642;"/><path d="M805.279,1317.626c0.477,-4.88 5.311,-54.327 3.496,-61.167c-2.013,-7.586 -13.461,-9.615 -17.944,-10.668c-32.037,-7.524 -18.555,18.587 -22.54,22.264c-7.913,7.3 -3.37,-39.493 -2.616,-40.191c1.986,-1.84 113.113,-2.222 115.23,0.846c3.906,5.66 0.614,114.35 0.312,124.289c-0.179,5.909 -32.006,5.074 -33.484,-0.305c-4.477,-16.283 -1.694,-25.231 -33.9,-24.461c-12.512,0.299 -8.212,-5.077 -8.553,-10.606Z" style="fill:#e9c7b3;"/><path d="M1076.893,1520.28c10.631,7.078 11.385,6.132 19.764,15.539c15.308,17.184 19.213,18.967 21.384,19.958c1.074,49.428 0.154,201.65 0.048,219.184c-0.008,1.389 -0.099,16.463 -2.08,17.257c-2.459,0.987 -26.314,0.07 -33.035,0.289c-4.046,0.132 -6.08,0.356 -6.077,-5.815c0.052,-104.386 -1.47,-105.235 4.522,-112.252c2.653,-3.107 23.004,-26.941 15.4,-47.608c-5.884,-15.991 -19.42,-17.236 -19.641,-21.361c-0.879,-16.395 1.004,-16.333 -0.286,-85.191Z" style="fill:#d6a283;"/><path d="M978.24,1522.661c-0.918,82.987 0.361,84.135 -3.771,86.753c-45.624,28.907 3.237,64.975 3.364,73.565c0.128,8.664 1.569,106.036 -0.69,108.308c-1.088,1.095 -39.484,3.409 -40.726,-1.985c-0.428,-1.86 0.1,-184.5 0.146,-200.543c-0.004,-7.865 -0.007,-15.73 -0.011,-23.596c24.643,-23.479 18.644,-31.376 41.687,-42.502Z" style="fill:#d6a384;"/><path d="M1027.928,384.595c4.727,0.179 11.715,-0.369 12.731,-0.449c1.118,2.607 1.581,2.242 2.125,4.958c3.142,15.671 3.181,15.442 7.768,30.587c42.483,140.279 88.264,223.682 108.569,251.812c0.449,0.622 8.437,11.689 1.911,9.219c-21.957,-8.31 -25.834,-21.322 -31.271,-29.331c-10.996,-16.198 -25.052,5.368 -35.997,11.985c-0.3,-0.437 -3.751,-5.465 -3.751,-5.465c-32.7,-89.495 -42.639,-163.303 -53.444,-242.728c-0.853,-6.27 -4.372,-7.157 -4.382,-7.181c-0.587,-1.483 0.901,-3.254 0.313,-4.737c0.721,-6.273 4.133,-6.922 -0.462,-11.781l-1.914,-1.92l-3.07,-3.057l0.872,-1.911Z" style="fill:#dc8694;"/><path d="M1570.227,1486.325c-4.46,28.445 0.314,39.844 -2.135,67.09c-0.46,5.115 3.518,4.179 3.377,9.401c-1.037,38.4 2.647,38.083 2.731,70.735c0.011,4.315 0.774,4.081 1.562,8.237c-10.139,2.164 -20.683,0.918 -21.55,15.382c-0.631,10.542 -4.091,21.33 21.682,18.887c2.464,-0.234 4.908,-0.63 7.37,-0.881c5.153,-0.524 4.968,0.056 5.388,-0.032c2.487,-0.523 2.187,0.364 4.882,0.812c1.724,27.119 5.245,42.579 -2.985,46.431c-14.697,6.878 -50.492,10.617 -54.962,11.084c-0.93,-9.041 -8.732,-75.718 -10.491,-147.059l0.476,-1.67c15.606,-0.017 31.275,3.601 31.754,-10.135c0.321,-9.216 3.17,-69.708 -29.069,-58.547c-0.318,-1.798 -1.794,-3.299 -2.112,-5.098c-3.556,-20.126 40.535,-24.053 44.08,-24.637Z" style="fill:#f7e9cd;"/><path d="M1376.692,926.357c0.018,-0.052 4.489,-20.205 8.174,-6.984c38.852,139.404 77.418,207.518 86.971,224.388c6.508,11.493 18.505,29.595 11.125,28.745c-30.322,-3.49 -29.859,-9.619 -135.956,-8.114c0.01,-4.825 -0.337,-4.942 0.011,-5.199c1.662,-1.23 44.097,-10.681 50.105,-16.088c21.012,-18.91 14.371,-22.631 8.946,-49.462c-16.325,-80.735 -14.597,-80.863 -25.829,-162.439c-1.182,-1.616 -2.364,-3.232 -3.546,-4.848Z" style="fill:#dc8793;"/><path d="M747.395,980.69c-1.073,77.927 3.114,116.98 -7.912,89.133c-38.251,-96.608 -53.908,-157.913 -53.12,-159.559c0.001,-0.001 10.038,-12.947 4.976,-24.174c-2.537,-5.628 -11.35,-7.622 -11.896,-13.651c-1.826,-20.177 -0.559,-26.014 21.103,-25.117c26.023,1.077 31.447,29.94 33.742,33.891c7.093,12.211 12.918,9.946 12.966,24.043c0.129,37.72 0.315,37.563 0.141,75.433Z" style="fill:#fbfbf7;"/><path d="M423.176,893.197c-6.717,19.708 -5.844,19.7 -10.269,40.163c-2.112,9.766 -11.647,13.67 -14.619,0.348c-11.325,-50.777 -11.771,-65.168 -62.234,-73.507c-24.052,-3.974 -8.585,-12.833 -7.343,-13.192c43.595,-12.605 57.501,-11.068 68.845,-73.491c2.144,-11.797 11.278,-14.292 14.026,-2.615c12.406,52.71 14.192,63.539 67.724,73.25c1.063,0.193 16.053,2.912 6.852,10.933c-12.663,11.039 -39.279,-6.145 -62.982,38.111Z" style="fill:#c9a278;"/><path d="M1612.561,589.679c18.501,73.212 73.186,42.038 71.962,61.085c-0.659,10.26 -60.151,2.675 -71.666,61.094c-1.35,6.849 -2.497,34.949 -14.557,28.741c-8.648,-4.452 5.569,-63.124 -52.375,-78.689c-3.497,-0.939 -37.729,-5.97 -22.644,-15.608c10.446,-6.673 57.238,2.449 69.284,-59.344c0.925,-4.743 1.81,-28.874 11.301,-26.626c5.076,1.202 6.36,16.591 8.695,29.346Z" style="fill:#d3a77b;"/><path d="M1286.296,1249.886c-9.258,-12.239 -40.668,-3.615 -40.663,11.278c0.017,52.808 8.673,66.751 -1.676,66.981c-23.576,0.525 -28.117,0.955 -32.217,22.682c-1.739,9.213 -30.309,6.557 -32.138,2.018c-0.103,-0.254 -1.195,-50.179 -1.238,-77.539c-0.061,-39.186 -1.084,-46.877 2.999,-48.481c0.255,-0.1 94.555,0.363 102.777,0.403c9.492,0.047 6.543,16.55 6.434,21.888c-1.426,0.257 -2.852,0.514 -4.278,0.77Z" style="fill:#ebc8b5;"/><path d="M998.513,811.134c2.532,-10.978 4.039,-27.718 21.933,-42.107c23.142,-18.609 42.265,14.569 45.707,25.214c11.183,34.579 -2.444,58.103 11.54,62.327c10.621,3.209 8.968,18.881 6.874,22.395c-6.132,10.287 -23.935,7.501 -24.261,7.505c-59.351,0.632 -71.11,1.875 -75.453,-9.47c-6.874,-17.959 12.853,-20.048 12.922,-25.911c0.237,-20.007 -0.435,-19.825 0.737,-39.954Z" style="fill:#8a5848;"/><path d="M884.324,1792.459c-5.458,-14.047 -2.978,-14.292 -3.239,-29.227c-3.177,-181.966 2.64,-229.688 74.34,-279.504c47.998,-33.348 73.53,-36.665 102.495,-24.897c88.044,35.772 105.196,103.752 108.219,115.732c13.361,52.954 8.703,215.343 8.459,216.895l-1.029,1.585c-6.824,-0.12 -6.798,0.003 -7.37,-0.13c-6.114,-1.417 2.938,-136.687 -7.469,-199.479c-14.152,-85.389 -88.389,-123.096 -125.979,-132.396c-3.217,-0.796 -13,-3.216 -40.094,10.361c-105.698,52.964 -103.612,126.397 -102.387,263.487c0.449,50.262 7.365,57.333 -5.945,57.573Z" style="fill:#e4b179;"/><path d="M1159.955,1104c2.383,-1.586 0.923,-2.51 3.467,-4.203c0.168,-0.112 0.169,0.162 2.572,0.185c30.561,0.285 30.666,-1.172 60.406,5.246c14.076,19.428 12.284,20.229 25.149,40.393c0.373,0.585 0.499,0.304 5.131,7.04c1.614,2.347 3.764,4.385 5.099,6.882c0.705,1.319 -0.773,1.342 -0.013,2.634c1.206,2.052 2.165,1.026 3.479,3.262c-0.556,1.015 -6.01,10.973 -5.807,13.179c0.208,2.263 8.506,7.065 9.346,7.551c24.628,14.25 23.568,27.469 20.191,30.01c-2.598,1.955 -103.576,-0.409 -105.245,-0.713c-2.347,-0.428 -7.508,-1.368 -5.705,-27.497c0.277,-4.015 7.37,0.479 18.174,-1.716c39.064,-7.938 9.323,-24.451 -36.244,-82.253Z" style="fill:#de8895;"/><path d="M1302.839,1211.7c1.8,-13.355 7.28,-9.482 21.651,-10.935c49.489,-5.003 135.277,-2.885 135.382,6.205c0.392,34.188 -1.688,35.067 -4.71,35.126c-3.78,0.075 -20.421,-3.643 -21.625,12.077c-1.108,14.465 -1.091,20.028 -16.219,16.92c-12.972,-2.665 9.375,-29.16 -25.033,-30.008c-28.967,-0.713 -40.788,-1.602 -41.684,15.396c-0.363,6.881 4.63,15.45 -13.727,14.638c-12.2,-0.54 4.538,-29.406 -22.571,-29.61c-20.967,-0.158 -11.23,-10.27 -11.462,-29.81Z" style="fill:#f2dbc1;"/><path d="M557.741,987.659c-1.356,1.608 -2.713,3.216 -4.069,4.824l0.025,2.357l-0.205,2.357c8.838,72.219 9.214,72.533 4.355,89.609c-1.346,4.729 -14.87,52.257 -18.6,58.64c-18.785,32.143 -30.658,30.183 -54.986,35.228c-8.939,1.853 -6.28,5.563 -10.658,7.43c-1.374,0.586 -3.175,0.353 -4.321,1.274c-1.269,1.02 -1.131,3.107 -2.4,4.127c-4.391,0.568 -10.624,1.992 -6.041,-5.781c17.46,-29.611 42.34,-97.221 45.516,-105.852l3.882,2.53c0.181,1.676 1.832,3.012 2.013,4.687c1.4,12.99 -6.723,13.733 -4.953,18.822c0.583,1.675 0.054,9.518 4.729,9.425c3.536,-0.07 8.62,-14.078 9.073,-14.782c4.332,-6.73 20.034,-81.877 20.475,-86.649c0.693,-7.503 -1.67,-7.231 -9.419,-8.77l-3.317,-0.69c1.126,-4.111 13.687,-49.982 14.133,-51.373c4.018,-12.533 12.291,24.025 14.769,32.586Z" style="fill:#eea1ac;"/><path d="M893.529,1199.833c-0.612,-20.023 -1.331,-20.022 -0.044,-26.104c0.7,-3.308 91.509,-106.147 130.385,-156.25c11.04,-14.228 13.135,-0.375 34.301,24.229c18.581,21.599 68.187,83.758 99.224,118.895c14.454,16.363 9.817,18.249 9.287,39.25l-3.261,-2.64l-1.267,-2.042c-11.08,-14.132 -50.713,-58.96 -87.137,-105.869c-2.958,-3.81 -3.376,-3.403 -37.949,-46.944c-6.02,-7.581 -8.401,-1.288 -29.181,23.647c-34.103,40.922 -61.62,70.54 -101.265,121.939c-2.824,3.661 -2.956,3.238 -13.094,11.887Z" style="fill:#e7c5b2;"/><path d="M1554.041,1098.308c-0.946,1.288 -3.229,1.302 -4.175,2.59c-0.36,0.489 3.138,0.81 -0.625,7.405c-14.075,24.667 -32.959,-88.319 -31.686,-94.746c2.468,-12.458 -7.687,-19.955 -7.769,-23.295c-0.094,-3.826 0.556,-3.746 -0.77,-7.206l-4.64,0l-1.429,1.603l2.515,0.65l-2.713,2.461l-0.825,2.357l-0.127,2.357l0.086,2.357l-0.561,2.357l-0.091,2.357c-7.678,23.13 -8.191,80.504 -2.391,101.254c5.874,21.018 13.211,34.631 14.748,37.483c4.136,7.674 3.501,13.081 13.135,25.617c9.52,12.389 7.603,16.201 23.864,17.796c4.661,0.457 4.286,1.805 35.356,5.864c0.529,0.069 0.461,-0.167 6.23,-2.248c0.631,0.899 6.922,8.504 3.968,10.114c-2.213,1.206 -2.973,-4.026 -63.06,-4.189c-33.818,-0.092 -57.994,5.36 -39.85,-5.037c17.847,-10.227 3.755,-15.059 -29.865,-85.564c-4.327,-9.074 2.837,-8.801 35.734,-119.643c8.264,-27.845 9.115,-29.648 11.118,-28.15c4.332,3.242 10.786,48.581 43.824,145.459Z" style="fill:#e3949e;"/><path d="M1554.041,1098.308c17.327,44.257 18.731,43.527 38.131,87.011c-5.768,2.082 -5.701,2.317 -6.23,2.248c-31.069,-4.059 -30.695,-5.406 -35.356,-5.864c-16.261,-1.595 -14.343,-5.407 -23.864,-17.796c-9.633,-12.536 -8.999,-17.942 -13.135,-25.617c-1.538,-2.853 -8.874,-16.466 -14.748,-37.483c-5.8,-20.75 -5.287,-78.124 2.391,-101.254l0.091,-2.357l0.561,-2.357l-0.086,-2.357l0.127,-2.357l0.825,-2.357l2.713,-2.461l3.554,-2.253c1.326,3.46 0.676,3.38 0.77,7.206c0.082,3.34 10.237,10.837 7.769,23.295c-1.273,6.427 17.611,119.414 31.686,94.746c3.763,-6.595 0.265,-6.915 0.625,-7.405c0.946,-1.288 3.229,-1.302 4.175,-2.59Z" style="fill:#eda0aa;"/><path d="M806.258,646.015c5.825,6.154 6.41,5.977 7.981,14.122c0.168,0.87 -1.404,1.516 -1.236,2.387l0.556,2.357l-0.416,2.357l-0.269,2.357l0.175,2.357l0.162,2.357l-0.44,2.357l0.064,2.357l0.324,2.357l-0.414,2.357c0.83,4.913 8.427,49.901 10.875,61.338c12.395,57.902 20.318,55.993 22.961,78.517c-12.606,-1.234 -12.394,-1.489 -25.212,-1.993c-37.08,-1.46 -90.87,13.013 -81.104,-6.149c10.001,-19.622 14.097,-18.353 47.429,-110.779c0.73,0.97 1.829,1.664 2.559,2.634c3.674,4.882 -16.832,51.471 -10.923,58.11c10.367,11.648 15.73,-25.649 27.216,-72.184c9.023,-36.554 -1.13,-35.771 -3.022,-37.853l2.734,-9.362Z" style="fill:#ed9ea9;"/><path d="M471.08,1484.993c0.21,-8.958 -0.991,-9.229 1.266,-11.309c1.282,-1.182 18.001,-1.146 19.569,-1.143c80.12,0.17 81.824,-0.269 82.584,3.171c0.882,3.991 -9.332,228.262 -10.63,249.691c-0.64,10.573 -23.419,8.445 -36.728,8.543c2.642,-1.575 2.17,-2.099 5.014,-2.988c5.426,-1.697 5.382,-0.555 5.783,-0.779c3.968,-2.216 9.355,-106.208 9.835,-115.463c5.504,-106.254 6.028,-106.352 3.338,-115.222c-2.235,-7.37 -5.327,-5.087 -63.776,-13.029c-8.025,-3.022 -8.256,-4.919 -16.256,-1.473Z" style="fill:#e9c9b5;"/><path d="M483.246,1235.196c0.082,-0.569 1.026,-7.107 1.026,-7.107c4.059,-4.162 95.451,-2.614 97.416,-1.471c1.866,1.085 1.762,14.465 1.753,15.73c-0.156,20.002 -2.082,23.263 -3.123,25.027l-2.696,0.8c-1.622,-18.051 1.242,-21.016 -7.792,-23.299c-8.595,-2.171 -22.861,4.891 -27.596,4.244c-42.809,-5.847 -25.65,65.848 -25.191,66.275c5.476,5.096 6.6,2.583 20.081,3.271c9.684,0.494 4.317,11.992 12.04,25.278c5.647,9.714 4.34,10.082 3.073,20.919c-0.845,7.225 0.547,10.996 -10.069,10.164c-12.159,-0.953 3.29,-23.393 -20.173,-25.585c-38.5,-3.596 -33.728,9.583 -34.06,20.268c-0.653,21.025 -5.5,-2.042 -5.506,-2.501c-0.135,-10.56 2.192,-10.438 0.817,-132.013Z" style="fill:#f3e1c7;"/><path d="M1772.865,1063.688c-19.701,36.157 -6.362,47.677 -20.952,47.195c-17.638,-0.583 1.149,-52.308 -50.236,-64.398c-49.828,-11.723 5.838,-20.798 9.585,-22.132c40.836,-14.548 25.829,-78.159 45.104,-59.665c6.014,5.77 2.306,52.42 40.626,61.494c18.428,4.364 21.069,1.422 23.729,8.399c2.452,6.436 -7.589,8.951 -8.597,9.203c-26.239,6.572 -27.25,6.176 -39.258,19.903Z" style="fill:#b7838c;"/><path d="M765.904,1762.809c0.397,0.367 4.962,4.588 4.962,4.588c-0.01,2.143 -1.761,-0.058 -27.279,8.016c-6.382,2.02 -9.094,0.446 -9.17,6.876c-0.161,13.716 -8.125,27.903 -9.372,30.124c-2.197,3.913 -0.786,3.884 0.933,7.984c-66.977,10.193 -109.851,-0.506 -131.189,-6.988c0.338,-1.372 2.731,-1.723 3.07,-3.095c0.388,-1.572 -0.87,-3.128 -1.142,-4.721c-1.631,-9.535 -2.155,-9.317 -2.618,-18.994c-0.433,-9.041 -5.275,-11.454 3.449,-15.737l2.547,-3.067c87.319,21.386 153.317,-0.788 165.81,-4.985Z" style="fill:#f1cc8e;"/><path d="M1264.287,648.316c-0.927,1.289 -1.854,2.578 -2.78,3.867c-0.729,0.97 -2.941,-0.057 -3.671,0.913c-0.926,1.232 1.799,1.357 1.476,18.786c-0.07,3.796 17.482,127.655 47.439,153.41c-42.542,-5.822 -42.54,-4.564 -85.476,-2.059c-2.329,-5.692 -3.859,-5.413 -5.16,-42.774c7.322,-2.436 11.036,-1.088 21.936,-33.326c2.986,-8.83 6.971,-23.792 7.525,-25.874c4.367,-16.396 4.42,-22.414 2.849,-30.406c4.258,-7.441 5.605,-6.39 5.951,-7.031c5.272,-9.764 -6.919,-9.631 -7.958,-9.62l-3.247,-0.129c11.166,-36.275 10.239,-36.474 11.477,-39.54c4.126,-10.222 9.345,12.493 9.641,13.781Z" style="fill:#ed9fab;"/><path d="M1301.969,1767.154c9.298,1.985 62.554,17.315 132.997,4.975c-5.598,9.329 -2.139,25.23 -10.666,37.89c-4.651,6.905 -4.875,6.884 -4.703,7.365c0.174,0.488 0.39,0.306 5.261,4.126c-3.455,0.411 -70.642,10.809 -130.743,-8.606c0.688,-0.432 1.657,1.201 2.345,0.769c2.443,-1.532 1.78,-14.456 1.788,-38.686c0.003,-7.935 3.503,-7.503 3.721,-7.833Z" style="fill:#f1cd8f;"/><path d="M927.64,1537.279c5.849,4.077 1.942,5.611 2.435,39.699c0.248,17.122 3.025,209.221 -1.044,214.045c-1.858,2.203 -2.346,1.1 -14.57,1.349c-16.097,-0.546 -11.407,-7.096 -11.696,-22.106c-3.223,-167.75 2.832,-190.443 22.279,-225.973c0.289,-0.528 0.192,-0.52 2.596,-7.014Z" style="fill:#ca917c;"/><path d="M1571.337,1242.303c-1.315,127.286 4.911,137.009 -3.089,132.133c-6.37,-3.882 10.856,-25.417 -22.544,-25.403c-14.885,0.006 -16.012,0.282 -21.998,2.722l-0.323,-3.386c1.567,-7.214 0.983,-18.451 2.407,-28.282l-0.191,-1.687c15.535,-0.897 16.082,-5.326 15.473,-31.316c-1.136,-48.45 -22.312,-35.978 -32.753,-38.705c-10.335,-2.7 -9.92,-3.965 -20.464,-3.731c-10.987,0.244 -7.786,4.574 -9.156,14.668c-1.516,-1.35 -3.031,-2.7 -4.547,-4.05c-0.588,-2.941 -8.498,-29.628 3.619,-29.884c7.402,-0.156 88.002,-1.86 92.48,3.228c2.047,2.326 0.976,2.656 1.086,13.693Z" style="fill:#f4e4cc;"/><path d="M1038.362,973.017c6.251,6.517 80.794,100.408 100.988,124.651c59.125,70.979 61.391,71.159 59.502,74.034c-7.545,11.483 -17.782,-0.717 -18.712,-1.825l4.319,-2.986l-1.669,-2.357l-1.763,-2.36c-4.054,-4.867 -21.688,-27.387 -23.56,-29.777c-2.546,-3.252 -27.987,-35.742 -32.352,-40.281c-10.908,-11.343 -8.903,-12.621 -20.041,-23.773c-24.548,-24.579 -26.663,-32.748 -34.807,-42.789c-0.687,-0.847 -15.003,-14.722 -18.617,-21.287l-1.403,-1.361l-2.515,-2.821l-1.55,-2.889l-3.48,-1.608l-2.515,-0.185l-2.515,1.544l-2.737,1.312c-16.542,-0.609 -17.408,12.491 -81.68,86.883c-67.489,78.116 -66.947,78.357 -72.957,85.025c-13.943,15.47 -19.794,0.08 -17.629,-2.769c16.498,-21.712 20.059,-19.062 143.844,-170.982l4.744,3.137c3.092,-1.218 17.657,-14.791 17.854,-15.086c4.139,-6.212 3.62,-6.374 9.251,-11.451Z" style="fill:#eca5ac;"/><path d="M963.303,1247.265c-10.096,54.808 4.791,124.412 -7.671,107.526c-2.672,-3.62 2.086,-16.998 -7.971,-23.729c-4.629,-3.098 -3.527,-6.435 -3.276,-48.687c0.096,-16.163 -5.21,-77.628 68.343,-96.047c0.274,-0.069 102.866,-18.344 105.137,86.628c1.079,49.872 0.477,55.401 -2.319,56.356c-20.356,6.948 -2.985,36.148 -13.942,25.379c-8.136,-7.998 21.658,-105.618 -27.167,-142.028c-26.405,-19.691 -86.307,-27.705 -111.135,34.602Z" style="fill:#f3c990;"/><path d="M557.741,987.659c31.053,98.013 32.762,97.487 35.147,106.088c3.664,13.212 -39.226,72.444 -39.642,82.659c-0.33,8.106 25.449,17.042 9.037,15.523c-31.255,-2.892 -87.79,1.044 -95.402,1.575c1.269,-1.02 1.131,-3.107 2.4,-4.127c1.146,-0.921 2.947,-0.688 4.321,-1.274c4.377,-1.867 1.719,-5.576 10.658,-7.43c24.329,-5.044 36.202,-3.084 54.986,-35.228c3.73,-6.383 17.255,-53.911 18.6,-58.64c4.859,-17.076 4.483,-17.39 -4.355,-89.609l0.205,-2.357l-0.025,-2.357c1.356,-1.608 2.713,-3.216 4.069,-4.824Z" style="fill:#db8491;"/><path d="M549.759,1385.982l-2.513,3.254c-3.009,12.319 -0.722,12.333 -0.924,25.137c-0.098,6.181 1.36,5.682 5.94,9.991c-109.166,-0.841 -111.054,1.716 -114.633,-3.509c-1.773,-2.588 -5.215,-49.245 -5.156,-53.674c0.119,-8.909 21.092,-8.45 23.068,-6.019c6.116,7.526 -8.327,27.209 31.372,25.265c16.733,-0.819 5.268,-26.75 17.534,-27.04c14.153,-0.335 19.268,-3.15 21.013,10.14c2.605,19.845 9.475,16.376 24.298,16.454Z" style="fill:#f7ecd1;"/><path d="M231.804,985.392c0.182,-1.45 1.551,-12.332 8.73,-16.312c15.772,-8.745 29.8,1.841 32.419,2.738c6.503,2.226 4.831,-1.764 8.065,-7.446c16.21,-28.479 59.973,-17.684 37.966,40.116c-8.579,22.532 -12.026,40.875 -36.176,31.246c-47.682,-19.012 -50.418,-44.815 -51.004,-50.341Z" style="fill:#bd7e8b;"/><path d="M1720.769,1364.527c-14.911,23.418 -12.735,-25.996 -27.225,-41.67c-14.444,-15.625 -53.109,-11.926 -40.212,-24.415c7.662,-7.419 42.949,0.928 50.865,-41.981c0.325,-1.76 3.66,-19.835 7.508,-21.19c15.92,-5.607 4.959,49.693 42.573,57.142c1.817,0.36 21.029,4.165 22.054,6.787c6.137,15.716 -36.129,0.212 -48.968,39.911c-0.648,2.003 -0.489,1.883 -6.596,25.416Z" style="fill:#c6a480;"/><path d="M312.473,603.842c10.593,41.673 12.365,45.511 51.402,55.661c4.982,1.295 10.303,9.559 -2.639,12.802c-36.265,9.087 -36.379,13.589 -46.335,48.902c-3.125,11.083 -10.997,13.672 -14.066,2.58c-9.787,-35.366 -11.095,-41.795 -45.036,-50.587c-3.308,-0.857 -25.154,-9.261 2.218,-15.412c55.671,-12.51 30.904,-55.832 47.77,-58.971c4.882,-0.909 4.259,0.814 6.687,5.025Z" style="fill:#b9868e;"/><path d="M1550.017,473.843c-1.902,5.438 -10.962,31.33 -56.975,47.601c-4.328,1.53 -21.74,7.687 -31.811,-45.244c-7.517,-39.51 21.067,-50.319 38.221,-27.49c3.946,5.251 3.106,11.186 13.356,6.026c13.121,-6.605 40.036,-11.253 37.208,19.106Z" style="fill:#ba818c;"/><path d="M986.392,1124.669c-0.508,-2.518 -4.664,-23.116 8.366,-31.063c19.804,-12.077 30.627,8.897 40.652,2.938c2.357,-1.401 21.544,-12.807 34.885,-0.29c26.814,25.156 -27.265,73.026 -42.437,67.593c-29.078,-10.412 -39.703,-35.084 -41.466,-39.178Z" style="fill:#9e6d63;"/><path d="M1474.11,1626.53c0.075,4.521 0.315,19.062 2.188,56.485c0.227,4.536 2.636,52.689 2.766,56.7c0.503,15.495 -19.723,19.189 -49.279,24.726c5.131,-8.624 1.618,-20.961 0.36,-77.041c25.412,-2.545 26.769,-6.809 26.539,-20.84c-0.158,-9.674 0.726,-11.083 10.836,-12.664c5.23,-0.818 1.432,-3.003 1.692,-3.547c-0.425,-1.023 -0.85,-2.045 -1.275,-3.068c-27.795,-1.126 -37.212,6.693 -37.944,-4.305c-0.848,-12.736 -0.204,-16.875 4.981,-17.447c30.117,-3.321 30.215,-0.85 32.802,-1.274c0.653,-0.107 0.396,-1.824 1.014,-1.602c2.097,0.753 3.222,3.123 5.319,3.876Z" style="fill:#e9c3b2;"/><path d="M1524.78,1383.1c8.151,-13.351 -2.654,-23.205 13.36,-23.536c1.398,-0.029 15.937,-0.329 17.145,3.186c2.809,8.17 -3.994,22.529 15.573,23.164c7.822,0.254 23.207,3.408 25.619,-11.522c1.115,-6.9 -3.622,-18.596 21.792,-13.125c6.283,1.353 0.752,59.438 -2.752,61.643c-2.07,1.303 -3.224,1.285 -87.458,1.615c2.613,-13.251 1.255,-13.162 0.932,-26.662c-0.299,-12.541 -2.485,-11.92 -4.213,-14.763Z" style="fill:#f7ecd0;"/><path d="M806.258,646.015c8.757,-38.259 9.594,11.654 52.909,117.832c25.375,62.2 40.256,71.049 27.754,67.64c-12.806,-3.492 -12.656,-3.86 -40.341,-7.896c-2.642,-22.524 -10.566,-20.615 -22.961,-78.517c-2.448,-11.437 -10.045,-56.425 -10.875,-61.338l0.414,-2.357l-0.324,-2.357l-0.064,-2.357l0.44,-2.357l-0.162,-2.357l-0.175,-2.357l0.269,-2.357l0.416,-2.357l-0.556,-2.357c-0.168,-0.87 1.404,-1.516 1.236,-2.387c-1.571,-8.145 -2.156,-7.968 -7.981,-14.122Z" style="fill:#dd8795;"/><path d="M339.951,414.069c73.191,-7.023 66.398,16.23 87.845,16.905c22.419,0.706 21.592,-54.032 79.384,-67.013c134.537,-30.219 113.511,182.662 45.331,237.946c-62.881,50.987 -398.622,-123.007 -212.56,-187.839Z" style="fill:#b57e86;"/><path d="M594.397,1209.301l3.15,-1.384l2.515,0.205l2.515,-0.233l2.515,0.008l2.515,0.068l2.515,-0.063l2.515,-0.196l2.515,-0.02l2.515,-0.255c7.68,-1.424 92.774,2.485 94.617,18.51c3.917,34.051 0.362,35.425 8.703,45.117c-5.232,0.126 -5.052,0.357 -10.289,0.247c-9.485,-0.2 -7.058,-13.685 -7.152,-14.867c-1.358,-16.976 -15.716,-16.347 -38.034,-15.551c-24.17,0.861 -22.272,7.575 -24.107,25.176c-0.574,5.511 -16.857,10.748 -18.589,-2.55c-2.329,-17.879 -3.466,-21.387 -22.73,-21.65c-7.583,-0.104 -5.449,-19.41 -5.688,-32.561Z" style="fill:#f7e8cb;"/><path d="M1046.05,255.118c4.735,-4.155 68.11,-12.874 76.079,6.969c6.592,16.414 8.224,16.696 31.218,23.4l0.279,2.295c1.049,1.892 3.589,2.703 3.212,16.591c-0.349,12.853 -0.386,12.972 -0.72,14.053c-1.154,3.737 -4.145,1.704 -5.308,5.471c-1.877,-0.199 -19.12,-2.024 -22.991,-5.061c-6.662,-5.228 -1.817,-8.765 -12.168,-21.655c-27.376,-12.73 -65.302,0.358 -67.809,-0.328c-3.694,-1.011 -1.943,-40.453 -1.794,-41.735Z" style="fill:#edc384;"/><path d="M810.787,1457.943c19.558,1.987 1.295,-17.464 13.569,-26.504c1.773,-1.306 55.575,-11.147 61.557,6.728c8.257,24.677 -14.026,26.449 -16.653,26.658c-9.507,0.756 -13.998,-2.778 -14.2,6.174c-0.045,1.973 2.84,20.533 -5.958,23.61c-6.852,2.396 -32.485,1.652 -35.312,1.57c-17.808,-1.879 -25.785,0.303 -26.533,-13.569c-1.001,-18.551 0.605,-22.227 11.484,-23.322c6.086,-0.613 5.795,-0.646 12.047,-1.343Z" style="fill:#c39a91;"/><path d="M796.536,426.522c0.117,0.329 1.466,4.108 1.466,4.108c-2.777,1.682 -3.724,-0.597 -17.664,7.249c-39.466,22.214 -29.609,65.241 -38.624,42.872c-20.648,-51.238 -45.058,-44.724 -53.578,-51.596c-8.869,-7.153 17.441,4.356 41.438,-32.026c0.243,-0.368 15.628,-19.112 11.23,-33.935c-1.547,-5.214 5.375,0.436 5.953,2.281c2.349,7.496 -5.235,37.945 49.778,61.046Z" style="fill:#f0ca91;"/><path d="M1021.443,654.81c5.299,-7.489 10.845,-18.503 18.301,-8.491c10.991,14.759 14.522,25.924 48.261,27.098c24.22,0.843 26.853,-29.162 36.971,-12.86c23.812,38.369 38.674,21.641 49.978,33.392c2.261,2.351 5.568,15.801 -4.447,9.356c-11.187,-7.199 -81.389,-30.919 -167.973,-23.791c-103.17,8.493 -105.334,33.814 -110.185,22.932c-6.664,-14.948 29.235,-7.786 46.172,-33.559c6.714,-10.216 6.897,-19.507 15.562,-10.579c12.71,13.097 15.457,17.974 43.257,13.157c11.426,-1.98 22.596,-14.91 24.104,-16.655Z" style="fill:#efcb93;"/><path d="M1032.875,1496.847c9.559,6.333 18.209,3.598 37.799,16.476c1.59,88.959 0.3,91.983 -2.506,92.622c-16.351,3.721 -17.906,0.941 -30.115,11.687c-8.948,7.876 -4.103,-5.405 -5.178,-120.785Z" style="fill:#d5a282;"/><path d="M1264.287,648.316c1.54,4.716 38.831,129.445 72.275,177.025c8.225,11.702 -5.006,4.066 -19.618,1.549c-3.388,-0.584 -6.805,-1.014 -10.193,-1.598c-29.957,-25.755 -47.509,-149.614 -47.439,-153.41c0.324,-17.429 -2.402,-17.555 -1.476,-18.786c0.729,-0.97 2.941,0.057 3.671,-0.913c0.927,-1.289 1.854,-2.578 2.78,-3.867Z" style="fill:#dd8795;"/><path d="M1021.636,1501.599c-0.034,25.911 -0.069,51.822 -0.103,77.732c0.055,30.964 3.002,43.575 -6.97,35.951c-16.301,-12.462 -30.483,-3.654 -30.57,-14.738c-0.305,-38.834 0.362,-78.094 0.477,-84.884c9.672,-5.16 13.922,-10.905 33.082,-15.582l1.081,1.487l1.434,-0.107l1.569,0.141Z" style="fill:#d5a282;"/><path d="M983.315,1006.818c-1.851,2.481 -54.985,67.428 -56.28,68.183c-2.345,1.366 -25.463,6.363 -25.409,-4.735c0.024,-4.904 -0.249,-4.867 -0.182,-61.303c0.007,-6.162 3.763,-4.582 63.292,-4.946c10.065,-0.061 11.453,-4.109 18.58,2.801Z" style="fill:#f6e6ca;"/><path d="M621.165,709.391c-2.948,-8.129 -1.833,-8.506 -7.111,-15.329c-10.184,-13.166 -52.767,-15.286 -21.37,-26.335c38.154,-13.427 24.236,-32.562 33.615,-44.471c7.5,-9.522 17.219,24.55 17.319,24.79c8.008,19.143 30.964,17.263 34.274,23.972c4.396,8.909 -2.378,6.936 -12.166,10.073c-31.31,10.034 -22.298,36.841 -31.306,45.654c-7.665,7.499 -11.234,-11.132 -13.255,-18.354Z" style="fill:#b68d8f;"/><path d="M1165.955,1001.897c1.77,5.409 2.555,7.808 2.034,70.701c-0.06,7.216 -29.705,3.713 -31.934,1.981c-0.494,-0.384 -40.752,-49.087 -50.29,-61.075c6.979,-3.275 16.427,-2.058 72.452,-3.098c4.519,-0.084 3.829,-1.27 6.014,-3.782c0.575,-1.576 1.15,-3.151 1.725,-4.727Z" style="fill:#f3d8ba;"/><path d="M1009.204,806.196c0.881,-3.07 8.656,-30.152 23.37,-33.154c14.744,-3.009 24.588,27.839 25.543,30.83c1.395,4.37 4.385,43.764 3.426,47.457c-0.931,3.586 -2.133,5.203 -49.077,3.571c-8.255,-0.287 -5.798,-24.499 -3.262,-48.705Z" style="fill:#b08282;"/><path d="M1561.09,977.552c-23.105,-9.23 2.224,-14.342 7.156,-15.95c32.741,-10.672 18.341,-51.44 32.466,-41.653c4.297,2.977 2.796,3.861 7.459,18.441c11.092,34.68 35.695,18.818 38.179,30.512c1.653,7.778 -16.259,9.791 -17.398,10.099c-25.068,6.774 -19.594,52.026 -33.065,39.516c-11.755,-10.917 5.773,-26.484 -34.797,-40.965Z" style="fill:#cba58d;"/><path d="M1047.731,1792.283c-11.035,-0.658 -13.629,1.945 -14.198,-3.337c-0.268,-2.487 -0.221,-25.873 -0.217,-28.123c0.094,-47.073 0.402,-47.961 5.028,-50.993c29.15,-19.103 33.721,-28.104 33.489,-19.632c-1.472,53.651 -0.612,96.236 -1.16,98.982c-1.001,5.022 -22.451,3.107 -22.942,3.104Z" style="fill:#d5a384;"/><path d="M1021.561,1741.984c0.123,39.179 1.487,50.078 -3.875,50.352c-32.04,1.642 -32.597,-0.697 -33.178,-3.137c-1.841,-7.732 0.011,-7.831 -1.208,-99.02c-0.105,-7.865 5.685,1.754 30.064,17.664c11.138,7.269 8.159,12.004 8.197,34.14Z" style="fill:#d5a384;"/><path d="M1578.073,1736.351l-0.481,3.257c0.708,0.437 0.096,1.825 0.804,2.262c0.274,0.169 3.127,-1.144 4.007,2.554c2.99,12.578 -3.89,13.851 3.808,26.911c-6.789,1.874 -53.747,14.84 -88.099,7.551c-6.299,-1.336 -8.334,-38.173 -2.617,-38.625c3.404,-0.269 3.091,2.461 42.667,1.737c20.134,-1.766 19.927,-1.715 39.912,-5.646Z" style="fill:#eabd83;"/><path d="M987.513,727.183c-60.875,9.343 -69.261,24.159 -71.507,8.628c-3.249,-22.464 167.608,-39.175 234.183,-6.233c3.853,1.907 7.807,19.858 -12.187,11.215c-57.515,-24.864 -142.91,-14.301 -150.489,-13.609Z" style="fill:#f2ca8d;"/><path d="M1124.525,1558.136c-0.162,-6.211 -1.787,-19.265 1.401,-19.698c1.674,-0.227 17.578,27.099 21.454,55.16c0.852,6.169 8.214,46.946 4.867,181.348c-0.179,7.191 0.402,6.941 -0.141,14.07c-0.622,8.168 -4.76,3.873 -13.57,3.466c-0.315,-6.47 0.568,-33.401 0.664,-36.304c4.726,-144.104 -11.816,-159.771 -9.375,-172.054c0.587,-2.956 2.207,-1.941 3.121,-4.68c0.149,-0.446 -2.574,-3.135 -1.469,-5.166c5.098,-9.365 -5.232,-9.256 -6.962,-11.456c-0.988,-1.258 0.998,-3.428 0.01,-4.686Z" style="fill:#c38677;"/><path d="M755.953,1277.686c4.67,3.411 3.998,4.722 10.057,5.141c19.014,1.315 5.704,-29.012 20.193,-26.724c12.378,1.954 11.957,5.713 9.588,33.304c-3.291,38.329 -3.087,41.024 -9.615,41.085c-27.713,0.26 -27.427,-4.276 -135.839,-4.286c4.768,-2.825 4.341,-3.734 10.086,-3.748c0.812,-0.002 6.837,-0.016 10.06,-1.281c7.448,-2.923 60.151,-3.407 65.39,-3.455c15.691,-0.144 14.898,-22.46 17.4,-37.701l2.681,-2.334Z" style="fill:#ebcab5;"/><path d="M1555.99,652.807c-1.899,-3.854 0.123,-3.723 4.501,-5.041c33.804,-10.173 37.113,-44.384 40.549,-46.506c1.136,-0.702 2.596,-0.805 8.473,13.824c10.947,27.247 30.799,30.489 36.677,33.445c14.748,7.417 -24.318,-0.586 -40.436,46.848c-4.272,12.57 -8.011,-3.585 -8.266,-4.176c-13.591,-31.542 -33.032,-34.885 -41.498,-38.394Z" style="fill:#f1cd96;"/><path d="M1215.795,856.979c13.391,-1.458 62.355,-7.242 108.814,5.233c5.898,1.584 7.426,25.54 -17.704,21.196c-83.76,-14.478 -104.991,13.979 -116.629,-10.819c-6.964,-14.838 11.781,-13.213 25.519,-15.61Z" style="fill:#edc88b;"/><path d="M1072.16,1670.699c-33.133,33.022 -39.238,30.085 -39.364,26.455c-2.072,-59.699 -0.543,-61.389 3.071,-65.381c31.992,-35.343 72.857,-8.22 39.667,34.864c-1.072,1.391 -2.303,2.67 -3.375,4.061Z" style="fill:#ec9fad;"/><path d="M1021.476,1659.443c0.066,33.669 1.601,43.688 -5.723,39.037c-77.584,-49.271 -46.902,-95.598 -13.9,-80.259c25.61,11.903 19.498,30.728 19.623,41.222Z" style="fill:#ec9eaa;"/><path d="M1802.586,731.185c-2.699,2.397 -19.604,17.406 -40.496,21.38c-19.446,3.699 -35.135,-78.745 0.129,-67.111c12.272,4.048 14.195,18.207 19.915,17.273c2.011,-0.328 22.892,-9.942 27.852,9.251c2.196,8.498 -6.28,17.956 -7.401,19.207Z" style="fill:#d1a1aa;"/><path d="M594.397,1209.301c1.431,-9.726 5.241,-7.024 15.612,-8.035c21.402,-2.087 21.155,-2.534 42.877,-2.752c96.077,-0.963 99.354,3.349 99.223,10.837c-0.42,23.914 2.829,32.778 -6.123,32.34c-32.001,-1.566 -15.457,20.289 -24.999,29.367c-8.341,-9.692 -4.786,-11.067 -8.703,-45.117c-1.843,-16.025 -86.937,-19.935 -94.617,-18.51l-2.515,0.255l-2.515,0.02l-2.515,0.196l-2.515,0.063l-2.515,-0.068l-2.515,-0.008l-2.515,0.233l-2.515,-0.205l-3.15,1.384Z" style="fill:#ebc8b4;"/><path d="M403.382,805.936c3.242,1.316 3.569,0.735 5.016,2.958c0.592,1.743 3.289,9.687 11.542,20.141c16.531,20.942 41.065,18.501 24.871,25.451c-31.514,13.524 -33.115,42.969 -39.734,47.484c-16.895,-46.731 -31.865,-38.966 -43.698,-48.765c-8.696,-7.201 26.667,-0.748 42.003,-47.27Z" style="fill:#efcd93;"/><path d="M914.115,706.49c18.935,-5.925 130.151,-40.725 249.512,2.725c15.277,5.561 -2.564,14.203 -5.514,12.845c-83.894,-38.608 -204.824,-19.555 -243.074,-1.859c-6.341,2.934 -7.073,2.292 -11.902,-2.494c-6.589,-6.531 1.092,-7.332 10.977,-11.218Z" style="fill:#e5959d;"/><path d="M1235.424,985.427c0.096,-17.606 -1.186,-38.56 6.232,-51.737c0.82,-1.456 7.207,-12.803 17.367,-12.589c22.159,0.467 23.453,39.215 23.582,43.087c0.719,21.539 2.159,33.308 -10.968,33.648c-31.275,0.811 -34.612,-0.529 -36.212,-12.409Z" style="fill:#875349;"/><path d="M835.267,985.372c-0.02,0.127 7.471,16.81 -36.518,11.807c-15.06,-1.713 -12.123,-13.272 -11.341,-28.239c0.223,-4.272 2.767,-52.927 26.483,-47.358c24.856,5.837 21.324,58.636 21.376,63.79Z" style="fill:#87564a;"/><path d="M1124.525,1558.136c0.988,1.258 -0.998,3.428 -0.01,4.686c1.73,2.201 12.06,2.091 6.962,11.456c-1.106,2.031 1.618,4.72 1.469,5.166c-0.914,2.739 -2.533,1.724 -3.121,4.68c-2.441,12.283 14.101,27.949 9.375,172.054c-0.095,2.903 -0.978,29.834 -0.664,36.304c-9.708,0.331 -14.3,3.546 -14.257,-5.7c0.085,-18.292 0.689,-148.307 0.245,-228.646Z" style="fill:#d59f83;"/><path d="M1042.287,1102.634c23.333,-11.332 36.937,10.247 12.775,35.816c-19.69,20.837 -27.185,22.92 -47.212,2.235c-30.12,-31.11 -5.649,-54.35 16.743,-34.514c7.796,6.906 8.978,2.484 17.693,-3.537Z" style="fill:#eba1ab;"/><path d="M1427.937,1619.982c3.667,-0.487 45.302,-6.015 46.253,1.855l-0.08,4.693c-2.097,-0.753 -3.222,-3.123 -5.319,-3.876c-0.619,-0.222 -0.362,1.495 -1.014,1.602c-2.587,0.424 -2.686,-2.048 -32.802,1.274c-5.185,0.572 -5.83,4.711 -4.981,17.447c0.733,10.998 10.15,3.179 37.944,4.305l1.275,3.068c-0.259,0.544 3.538,2.729 -1.692,3.547c-10.11,1.581 -10.994,2.991 -10.836,12.664c0.23,14.031 -1.127,18.296 -26.539,20.84c-14.034,-0.591 -35.615,1.998 -38.973,-11.158c-6.037,-23.657 2.608,-25.305 28.656,-27.052c10.747,-0.721 -5.214,-16.035 8.108,-29.208Z" style="fill:#be9187;"/><path d="M1027.056,386.506l3.07,3.057l1.914,1.92c4.595,4.858 1.183,5.507 0.462,11.781l-2.726,2.361l-2.28,2.357c2.129,18.384 -31.555,200.251 -55.551,191.719c-0.714,-0.254 -1.228,-0.886 -1.942,-1.14c-3.812,-13.562 13.551,-38.265 26.278,-89.502c5.051,-20.333 7.995,-24.259 6.814,-25.658c-1.077,-1.275 -3.281,-1.394 -4.357,-2.669c11.859,-36.331 23.697,-76.564 28.318,-94.226Z" style="fill:#f6c4c9;"/><path d="M1269.058,1088.16c2.632,-0.022 27.599,-0.235 32.896,-0.029c7.217,0.281 7.39,6.233 -36.71,77.308c-1.314,-2.236 -2.273,-1.211 -3.479,-3.262c-0.759,-1.292 0.718,-1.316 0.013,-2.634c-1.334,-2.497 -3.485,-4.534 -5.099,-6.882c-4.632,-6.736 -4.758,-6.455 -5.131,-7.04c-12.865,-20.164 -11.073,-20.965 -25.149,-40.393c12.771,-3.715 65.7,-2.463 50.197,-10.782l-2.515,-0.848l-2.515,-1.265l-2.508,-4.173Z" style="fill:#ed9fa9;"/><path d="M476.611,1773.523c-1.606,-0.484 -15.547,-4.682 -18.946,-8.673c-3.456,-4.058 -1.427,-4.675 0.303,-30.194c0.027,-0.403 0.316,-4.658 3.62,-3.74c13.751,3.819 17.888,10.371 72.996,12.017l-0.201,1.389c-0.804,19.168 -4.699,18.163 -12.253,35.853c-23.081,-1.88 -22.859,-2.427 -45.519,-6.652Z" style="fill:#f2d394;"/><path d="M1583.16,1482.729c3.979,79.125 5.153,78.842 8.756,158.03c-8.132,0.772 -7.888,0.76 -16.153,1.03c-0.788,-4.155 -1.551,-3.922 -1.562,-8.237c-0.084,-32.653 -3.768,-32.335 -2.731,-70.735c0.141,-5.222 -3.837,-4.286 -3.377,-9.401c2.449,-27.246 -2.324,-38.646 2.135,-67.09c3.176,-0.7 9.827,-1.758 10.684,-1.894l2.249,-1.703Z" style="fill:#fbf7e6;"/><path d="M1528.259,1516.06c32.239,-11.161 29.39,49.331 29.069,58.547c-0.479,13.736 -16.148,10.119 -31.754,10.135c-7.989,-1.545 -10.728,-0.688 -11.325,-10.205c-3.373,-53.769 11.712,-56.332 14.01,-58.478Z" style="fill:#88554a;"/><path d="M541.181,1562.822c-0.67,15.627 1.143,21.926 -19.096,21.937c-17.865,0.01 -23.891,0.885 -23.973,-17.176c-0.042,-9.321 -2.067,-45.938 18.596,-52.659c1.001,-0.326 7.276,-3.141 15.243,5.657c10.551,11.653 9.122,39.521 9.231,42.241Z" style="fill:#87564a;"/><path d="M1491.319,454.858c0.639,1.44 7.116,16.043 11.626,16.157c0.442,0.011 35.953,-20.293 35.989,-1.8c0.04,20.488 -48.121,46.067 -53.388,42.142c-11.967,-8.917 -24.593,-79.974 0.291,-63.875c4.432,2.867 4.836,5.932 5.482,7.376Z" style="fill:#e799a7;"/><path d="M1053.989,974.857c0.505,-0.265 6.311,-3.309 6.311,-3.309c109.489,1.469 109.384,2.262 120.747,4.31c4.363,0.786 8.023,1.063 8.725,1.116c-10.65,11.313 -9.861,11.971 -17.177,16.883c-2.299,1.544 -78.473,-0.747 -94.701,-0.415c-8.335,0.17 -8.914,-0.564 -23.906,-18.586Z" style="fill:#e8c3ae;"/><path d="M286.43,980.899c12.963,-34.438 24.394,-11.685 24.72,-9.699c0.715,4.345 4.475,27.19 -13.991,53.373c-6.77,9.599 -64.916,-31.699 -51.116,-45.763c13.773,-14.036 31.284,19.35 40.386,2.09Z" style="fill:#e895a5;"/><path d="M1434.966,1772.129c20.714,-4.253 20.5,-4.463 40.116,-11.827c6.135,-2.303 4.903,1.474 5.208,7.588c0.877,17.566 5.156,32.318 -5.778,38.899c-14.37,8.649 -45.556,14.015 -49.654,14.721c-4.872,-3.821 -5.087,-3.638 -5.261,-4.126c-0.172,-0.481 0.052,-0.46 4.703,-7.365c8.527,-12.66 5.068,-28.56 10.666,-37.89Z" style="fill:#e6b17a;"/><path d="M998.738,480.732c1.077,1.275 3.281,1.394 4.357,2.669c1.181,1.399 -1.763,5.324 -6.814,25.658c-12.727,51.236 -30.091,75.94 -26.278,89.502c-3.569,2.017 -14.56,8.228 -25.148,42.75c-0.121,0.394 -0,0.38 -0.006,5.124c-9.84,7.006 -12.718,14.623 -16.41,20.169c-6.759,10.154 -28.023,18.368 -22.485,9.84c28.793,-44.339 48.132,-73.668 92.783,-195.713Z" style="fill:#eeacb5;"/><path d="M617.607,1189.917c-17.152,2.273 -26.241,6.473 -36.812,-2.646c-2.649,-2.285 -0.86,-5.185 -0.418,-5.272c69.522,-13.698 193.295,-5.01 187.589,3.457c-13.603,20.185 -22.204,-6.198 -150.36,4.461Z" style="fill:#eab580;"/><path d="M1524.78,1383.1c1.728,2.844 3.913,2.222 4.213,14.763c0.322,13.5 1.68,13.411 -0.932,26.662c-38.719,0.072 -50.71,2.218 -50.927,-5.442c-1.088,-38.433 -1.823,-39.583 8.72,-51.353c10.112,-11.288 -0.355,16.615 14.699,17.821c15.33,1.228 22.444,-1.714 24.227,-2.451Z" style="fill:#e9c8b3;"/><path d="M1309.115,1191.812c-11.541,1.303 -12.432,2.362 -21.289,-4.756c-5.968,-4.797 16.586,-7.302 46.621,-10.674c44.083,-4.949 140.269,1.648 141.091,6.906c0.365,2.332 -5.633,11.106 -15.376,9.817c-42.924,-5.677 -77.041,-10.648 -151.047,-1.293Z" style="fill:#ebbb86;"/><path d="M1752.079,996.47l1.853,0.999c9.629,34.707 35.211,36.911 37.742,38.022c7.13,3.131 -1.825,1.928 -9.109,4.861c-22.76,9.163 -28.655,35.185 -29.067,36.017c-6.192,12.486 3.34,-23.716 -38.559,-37.676c-7.712,-2.57 10.436,-6.169 18.249,-14.273c14.998,-15.557 15.945,-27.626 16.948,-28.936c0.43,-0.561 1.514,1.547 1.944,0.986Z" style="fill:#efb8be;"/><path d="M230.746,1172.618c24.341,-6.708 14.963,-31.216 25.066,-32.836c3.133,-0.502 8.743,16.369 9.248,17.887c4.839,14.55 22.06,15.045 25.114,17.041c16.516,10.797 -21.144,3.194 -26.145,32.413c-3.249,18.982 -11.301,8.243 -11.743,7.273c-8.77,-19.257 -7.189,-21.227 -26.688,-31.433c-7.841,-4.104 -3.054,-6.775 5.147,-10.344Z" style="fill:#e2c79a;"/><path d="M765.904,1762.809c8.755,-3.325 10.62,-7.384 12.845,-2.043c0.956,2.294 1.017,2.44 2.941,30.658c1.453,21.295 -32.696,24.946 -55.713,28.974c-1.718,-4.1 -3.129,-4.071 -0.933,-7.984c1.247,-2.222 9.211,-16.408 9.372,-30.124c0.076,-6.429 2.788,-4.856 9.17,-6.876c25.518,-8.075 27.269,-5.873 27.279,-8.016c0,0 -4.565,-4.221 -4.962,-4.588Z" style="fill:#e4b17a;"/><path d="M846.574,855.619c-3.234,12.464 -3.056,12.327 -7.576,24.519c-37.233,-2.24 -37.208,-2.341 -72.734,2.392c-1.166,-0.675 -1.206,0.931 -2.378,0.253c-0.327,-0.189 -2.289,-1.325 -3.108,-3.429c-2.362,-6.066 4.71,-9.947 -9.838,-18.98c48.385,-9.594 61.006,-7.204 95.633,-4.755Z" style="fill:#f2ce8e;"/><path d="M1324.025,569.377c-11.632,-4.544 -11.557,-4.515 -12.562,-4.908c-35.073,-13.684 -46.853,2.359 -47.198,-8.016c-0.825,-24.797 0.934,-26.621 7.241,-26.732c37.105,-0.651 33.305,10.685 60.802,23.607c22.152,10.41 55.052,-2.083 32.545,8.028c-29.263,13.145 -38.419,8.469 -40.826,8.021Z" style="fill:#edc789;"/><path d="M1248.934,1465.965c-52.572,6.079 -55.038,-2.537 -56.212,-6.64c-6.419,-22.429 6.237,-25.362 8.48,-25.882c2.145,-0.497 47.905,-4.211 53.221,4.234c9.797,15.566 -3.654,26.761 -5.489,28.288Z" style="fill:#c49a90;"/><path d="M1610.398,868.265l0.948,1.733c-27.787,13.271 -30.025,12.715 -57.948,-0.361c-24.36,-11.407 -39.505,5.294 -39.273,-6.819c0.326,-17.047 -2.418,-24.462 6.551,-24.997c48.777,-2.908 41.028,25.32 89.722,30.444Z" style="fill:#f2cc8d;"/><path d="M1434.689,327.961c5.187,13.752 5.618,14.575 18.228,18.131c24.885,7.019 -12.597,13.225 -17.197,29.05c-7.43,25.56 -16.629,8.466 -16.971,7.11c-7.395,-29.341 -32.083,-19.991 -25.372,-30.289c6.602,-10.129 20.166,-0.248 26.654,-26.445c1.322,-5.337 6.744,-5.006 7.475,-4.962c6.339,0.387 7.178,7.394 7.182,7.404Z" style="fill:#e5cc9f;"/><path d="M831.775,1340.73c-0.803,0.47 -1.974,-1.029 -2.777,-0.559c-4.558,2.669 -5.222,16.154 -5.294,17.617c-0.792,16.09 -1.427,15.889 -4.921,31.603c-40.643,0.232 -50.13,3.771 -46.845,-10.186c0.284,-1.206 25.644,-39.842 34.37,-39.754c20.944,0.212 20.746,0.832 25.467,1.279Z" style="fill:#e9c8b4;"/><path d="M486.547,411.255c67.994,-72.242 101.487,47.775 43.055,151.062c-4.448,7.862 -16.274,28.767 -139.778,-32.001c-62.851,-30.924 -71.305,-75.951 -40.909,-82.616c38.73,-8.492 87.719,19.686 88.642,19.932c54.885,14.605 31.815,-15.971 48.99,-56.377Z" style="fill:#e599a7;"/><path d="M1388.921,829.842c0.224,-14.141 -4.117,-19.87 10.93,-20.984c32.26,-2.388 40.807,32.275 70.396,30.464c19.897,-1.218 -11.503,17.786 -32.718,9.455c-21.901,-8.601 -22.3,-11.049 -45.243,-5.736c-1.125,0.26 -2.978,0.239 -3.366,-13.199Z" style="fill:#eec789;"/><path d="M1399.259,1480.415c1.431,25.604 3.947,41.104 -4.551,41.539c-17.675,0.904 -26.392,0.601 -26.376,-6.119c0.012,-5.012 0.203,-83.927 23.367,-58.697c5.077,5.53 7.29,21.347 7.561,23.278Z" style="fill:#b48685;"/><path d="M1363.818,971.048c1.471,0.418 1.847,2.585 3.318,3.002c1.214,0.344 1.567,-2.802 6.573,0.272c7.629,4.685 -23.516,116.115 -31.994,118.614c-12.259,3.613 -3.371,-23.215 -2.731,-25.147c5.995,-18.095 6.474,-17.945 6.507,-18.741c0.041,-0.98 -1.756,-1.383 -1.879,-2.357c-0.111,-0.876 1.706,-1.568 1.284,-2.357c-0.734,-1.373 -3.252,-1.323 -3.987,-2.695c11.149,-32.301 12.518,-33.084 22.908,-70.591Z" style="fill:#f9c4c9;"/><path d="M891.816,566.559c-31.225,0.488 -33.59,-16.147 -67.837,-9.313c-1.8,0.359 -5.78,3.483 -5.877,-3.052c-0.231,-15.453 -6.066,-26.496 18.346,-25.48c36.677,1.526 34.073,29.871 75.512,27.532c4.313,-0.243 5.574,2.299 1.825,4.175c-5.75,2.878 -20.176,5.778 -21.969,6.138Z" style="fill:#ecc689;"/><path d="M1276.546,833.027c62.471,5.927 65.206,11.273 61.987,15.006c-10.507,12.187 -14.834,-5.669 -89.594,-3.638c-59.464,1.616 -62.122,13.697 -72.291,3.703c-7.408,-7.281 22.216,-10.002 24.625,-10.443c32.646,-5.97 47.725,-5.251 75.272,-4.628Z" style="fill:#e6a395;"/><path d="M728.578,1591.969c7.076,0.022 28.141,-2.748 30.581,8.429c5.007,22.936 -3.408,23.809 -28.392,26.328c-10.603,-0.529 -28.656,2.418 -28.903,-12.031c-0.395,-23.186 7.283,-21.862 26.713,-22.726Z" style="fill:#c3978f;"/><path d="M654.554,1513.36c-0.002,-4.999 -0.021,-61.524 15.852,-60.69c12.1,0.636 13.76,27.437 13.922,30.054c2.341,37.809 -0.565,38.695 -3.893,39.015c-28.703,2.761 -25.387,-6.045 -25.881,-8.379Z" style="fill:#b28383;"/><path d="M675.46,1445.087c-35.711,-10.628 -29.279,70.573 -29.411,73.103c-0.195,3.733 -9.886,6.979 -9.787,-2.446c0.272,-25.689 -2.716,-63.246 27.332,-81.534c14.588,-8.879 35.371,12.226 38.492,41.545c4.68,43.958 2.211,45.252 -1.653,45.856c-15.989,2.501 9.295,-54.954 -24.975,-76.524Z" style="fill:#f2c396;"/><path d="M305.824,629.55l1.965,1.019c2.362,3.682 2.424,3.553 2.595,3.882c11.772,27.503 18.863,22.084 28.892,29.937c0.506,0.396 3.001,2.35 -5.485,5.759c-29.208,11.732 -23.669,48.988 -28.019,30.106c-2.52,-10.94 -1.554,-15.221 -26.951,-31.573c-6.561,-4.224 0.205,-4.519 6.391,-9.095c16.778,-12.41 17.336,-24.607 20.612,-30.035Z" style="fill:#f0b2ba;"/><path d="M1241.351,1339.662c20.219,0.552 16.257,7.863 31.059,24.626c1.791,2.028 11.672,9.882 10.581,21.735c-0.511,5.547 -25.576,3.578 -41.568,3.429c-0.46,-0.813 -9.184,-2.511 -5.892,-36.529c0.838,-8.66 -0.124,-8.602 0.224,-9.268c0.533,-1.021 2.584,-0.738 3.117,-1.759l2.479,-2.235Z" style="fill:#eacdb8;"/><path d="M551.356,855.805c0.229,-10.029 -3.908,-12.342 3.109,-14.785c26.434,-9.201 46.653,22.483 68.128,24.632c17.707,1.772 -9.598,15.582 -22.516,11.292c-20.847,-6.923 -21.114,-7.881 -42.686,-4.122c-11.033,1.922 -5.352,-4.804 -6.036,-17.017Z" style="fill:#f1ca8c;"/><path d="M1408.805,1496.846c-0.142,-4.688 -1.789,-58.963 -26.879,-52.932c-27.277,6.556 -22.374,64.701 -22.466,71.793c-0.102,7.872 -8.021,6.112 -8.268,2.564c-3.661,-52.59 10.513,-69.942 14.456,-74.769c23.212,-28.415 43.094,6.547 46.787,15.629c6.995,17.204 8.365,61.191 2.777,62.211c-9.372,1.71 -6.409,-19.387 -6.407,-24.496Z" style="fill:#f5c798;"/><path d="M528.84,1006.446l3.317,0.69c7.749,1.539 10.111,1.267 9.419,8.77c-0.44,4.772 -16.142,79.919 -20.475,86.649c-0.453,0.704 -5.537,14.711 -9.073,14.782c-4.675,0.093 -4.146,-7.749 -4.729,-9.425c-1.77,-5.09 6.353,-5.832 4.953,-18.822c-0.181,-1.676 -1.832,-3.012 -2.013,-4.687l-3.882,-2.53c12.118,-37.538 12.664,-37.187 22.483,-75.425Z" style="fill:#f7c0c5;"/><path d="M1712.511,1336.194c-0.783,-3.327 -2.725,-19.544 -25.249,-31.321c-8.493,-4.441 3.4,-7.571 6.03,-9.356c16.65,-11.303 18.923,-26.345 19.283,-26.53c4.494,-2.299 3.261,1.184 8.689,11.328c10.209,19.078 35.911,17.788 18.527,26.359c-21.761,10.728 -18.988,27.571 -25.257,31.698c-0.674,-0.726 -1.349,-1.452 -2.023,-2.178Z" style="fill:#f4d5a8;"/><path d="M771.109,1088.206c79.377,0.25 79.274,0.64 113.184,-0.025c8.371,26.198 -35.185,7.59 -129.302,15.656c3.74,-3.765 3.787,-3.565 13.576,-11.875l2.542,-3.756Z" style="fill:#f9c7c9;"/><path d="M1269.058,1088.16l2.508,4.173l2.515,1.265l2.515,0.848c15.503,8.319 -37.426,7.067 -50.197,10.782c-29.74,-6.418 -29.845,-4.961 -60.406,-5.246c-2.403,-0.022 -2.404,-0.297 -2.572,-0.185c-2.544,1.693 -1.083,2.617 -3.467,4.203c-10.362,-11.739 -10.381,-11.603 -11.191,-12.679c-6.227,-8.268 15.71,-0.271 120.294,-3.161Z" style="fill:#efadb5;"/><path d="M693.042,808.157c25.331,0.634 26.081,10.363 41.066,20.788c14.176,9.861 35.471,7.543 37.283,7.445c-0.071,0.682 2.127,0.033 2.056,0.714c-0.4,3.813 -13.808,8.183 -15.147,8.619c-35.352,11.521 -35.53,-11.396 -72.631,-5.9c11.595,-12.792 0.992,-16.486 7.373,-31.666Z" style="fill:#f0c88a;"/><path d="M1153.347,285.487c45.53,6.72 52.932,-8.684 52.072,-0.061c-0.648,6.503 -32.987,11.122 -13.858,20.32c10.788,5.187 10.715,4.795 22.174,7.948c-0.433,3.587 -0.158,3.747 -0.466,3.863c-16.302,6.155 -57.433,6.322 -62.459,6.342c1.163,-3.767 4.154,-1.734 5.308,-5.471c0.334,-1.081 0.371,-1.2 0.72,-14.053c0.377,-13.888 -2.163,-14.7 -3.212,-16.591l-0.279,-2.295Z" style="fill:#f2cb8a;"/><path d="M1034.934,998.26l2.737,-1.312l2.515,-1.544l2.515,0.185l3.48,1.608l1.55,2.889l2.515,2.821l1.403,1.361c3.613,6.564 17.93,20.44 18.617,21.287c8.144,10.041 10.259,18.21 34.807,42.789c11.138,11.152 9.133,12.43 20.041,23.773c4.364,4.538 29.806,37.029 32.352,40.281c1.872,2.391 19.506,24.911 23.56,29.777l1.763,2.36l1.669,2.357l-4.319,2.986c-35.077,-40.965 -34.137,-41.6 -37.22,-45.132c-100.983,-115.717 -95.473,-120.967 -107.986,-126.484Z" style="fill:#d7888d;"/><path d="M1225.527,728.265l4.512,2.607l-0.624,2.357l-0.984,2.357l-0.732,2.357l-0.191,2.357l-0.891,2.357l-0.903,2.357c-12.036,26.071 -10.338,32.604 -9.598,35.447c1.301,37.361 2.831,37.082 5.16,42.774c-20.621,3.135 -20.165,4.359 -40.614,7.795c-9.33,1.568 7.498,-3.123 44.866,-102.764Z" style="fill:#de8a96;"/><path d="M563.021,1365.168c1.37,-0.014 2.74,-0.028 4.11,-0.043c2.715,3.357 2.408,3.331 5.414,6.694c5.76,6.444 6.73,6.964 4.548,47.241c-0.433,7.99 -18.452,5.296 -24.83,5.304c-4.581,-4.309 -6.038,-3.81 -5.94,-9.991c0.202,-12.804 -2.085,-12.817 0.924,-25.137l2.513,-3.254c6.076,-0.857 14.085,1.135 13.262,-20.814Z" style="fill:#ebcbb8;"/><path d="M1482.837,1202.522c7.847,-0.264 64.143,-2.157 98.133,1.863c5.121,0.606 2.306,4.305 2.057,4.632c-6.877,9.039 -15.749,8.274 -17.291,8.141c-65.159,-5.613 -92.402,1.997 -93.45,-5.408c-1.197,-8.453 1.655,-8.444 10.551,-9.229Z" style="fill:#e9b07c;"/><path d="M797.248,952.574c0.377,-1.767 3.211,-15.043 9.776,-20.576c17.406,-14.67 18.488,46.679 18.564,50.988c0.116,6.578 -21.074,4.657 -24.334,4.626c-8.199,-0.078 -4.955,-15.629 -4.006,-35.038Z" style="fill:#b28887;"/><path d="M821.399,1752.436c0.485,0.573 1.849,-0.395 2.334,0.178c3.018,3.568 7.261,30.285 9.349,32.248c3.361,3.162 1.231,3.614 -1.689,7.273c-8.811,0.037 -32.431,0.909 -34.765,-1.101c-1.776,-1.53 -1.541,-1.827 -4.282,-27.98c-1.946,-18.565 9.112,-10.805 29.054,-10.619Z" style="fill:#e6b078;"/><path d="M978.24,1522.661c-23.043,11.127 -17.044,19.024 -41.687,42.502c-0.254,-29.806 -7.705,-33.818 15.778,-54.011c5.829,-5.013 22.743,-19.97 25.286,-16.947c0.9,1.07 0.615,23.993 0.623,28.456Z" style="fill:#c48677;"/><path d="M484.284,1203.525c13.789,-1.229 93.185,-4.341 97.382,1.518c12.299,17.17 -18.142,4.774 -94.682,12.001c-10.357,0.978 -21.284,-11.848 -15.247,-12.598c4.159,-0.517 8.388,-0.404 12.547,-0.921Z" style="fill:#ebb981;"/><path d="M1241.436,1752.747c-7.296,7.581 -5.951,8.26 -8.898,18.008c-3.374,11.159 -3.02,11.112 -8.664,21.525c-18.454,0.645 -27.175,4.14 -26.929,-7.854c0.383,-18.627 -1.151,-32.149 6.716,-32.246c3.022,-0.038 2.98,0.149 37.775,0.566Z" style="fill:#f3d094;"/><path d="M1253.924,933.528c3.627,-2.03 5.654,-5.968 12.377,2.564c8.825,11.201 7.608,41.538 6.49,47.188c-1.3,6.57 -27.404,7.051 -27.641,-2.668c-0.742,-30.503 0.984,-36.693 8.775,-47.084Z" style="fill:#b28987;"/><path d="M662.937,1369.91c-8.485,-0.894 -7.151,-3.498 -11.667,-24.11c-0.19,-0.868 -2.376,-10.843 1.673,-10.961c38.629,-1.12 39.774,-1.751 40.856,1.14c1.587,4.242 -4.982,30.109 -5.54,31.365c-1.459,3.287 -20.282,2.48 -25.322,2.566Z" style="fill:#eaa0a6;"/><path d="M803.525,655.377c1.892,2.082 12.045,1.299 3.022,37.853c-11.486,46.534 -16.85,83.831 -27.216,72.184c-5.909,-6.639 14.597,-53.229 10.923,-58.11c-0.73,-0.97 -1.829,-1.664 -2.559,-2.634c8.6,-24.45 8.111,-24.315 15.83,-49.292Z" style="fill:#f8c7ce;"/><path d="M1377.198,1369.664c-7.993,-0.356 -10.472,2.595 -11.697,-2.949c-6.705,-30.345 -5.973,-31.738 -3.246,-31.797c40.738,-0.883 42.038,0.832 41.903,3.987c-0.064,1.501 -6.168,27.355 -6.941,28.243c-3.518,4.038 -4.533,1.954 -20.018,2.517Z" style="fill:#eaa1a7;"/><path d="M578.839,1673.444c6.929,2.366 6.462,3.268 16.337,4.491l2.511,0.136l0.476,2.615l1.898,1.931c-4.231,6.614 -1.259,57.683 -10.086,59.21c-8.178,1.414 -9.04,1.674 -14.142,-4.523c1.611,-32.444 1.73,-32.211 3.005,-63.86Z" style="fill:#faf4df;"/><path d="M1238.375,690.685l3.012,-1.617c2.346,0.595 4.691,1.19 7.037,1.786c1.571,7.992 1.518,14.01 -2.849,30.406c-0.554,2.082 -4.539,17.044 -7.525,25.874c-10.9,32.237 -14.613,30.89 -21.936,33.326c-0.739,-2.842 -2.438,-9.376 9.598,-35.447l0.903,-2.357l0.891,-2.357l0.191,-2.357l0.732,-2.357l0.984,-2.357l0.624,-2.357l-4.512,-2.607c1.024,-3.008 7.973,-23.413 12.848,-37.58Z" style="fill:#f6bec4;"/><path d="M784.205,837.379c0.468,-0.403 1.824,-3.529 7.046,-4.19c37.575,-4.758 88.139,6.367 95.616,8.012c16.192,3.562 1.16,13.761 -4.996,11.905c-45.322,-13.661 -73.02,-8.999 -100.645,-7.422c-6.451,0.368 1.117,-6.407 2.98,-8.306Z" style="fill:#e6a597;"/><path d="M1076.893,1520.28c-0.04,-11.795 0.036,-11.571 -0.483,-23.353c-0.018,-0.397 -0.281,-6.368 3.523,-3.716c3.652,2.547 38.973,27.178 38.94,38.889c-0.005,1.895 -0.062,1.754 -0.831,23.677c-2.171,-0.991 -6.076,-2.774 -21.384,-19.958c-8.38,-9.406 -9.133,-8.461 -19.764,-15.539Z" style="fill:#c58879;"/><path d="M534.584,1742.932c24.898,-2.296 25.019,-3.315 26.784,-2.164c2.062,1.344 1.513,1.892 0.031,29.422c-0.672,12.472 -12.035,10.157 -39.269,9.985c7.554,-17.691 11.45,-16.685 12.253,-35.853l0.201,-1.389Z" style="fill:#e2ad78;"/><path d="M1241.436,1752.747c5.543,0.102 22.117,-2.167 21.476,5.609c-2.7,32.713 -3.352,33.403 -6.187,34.209c-2.077,0.59 -30.224,-0.21 -32.851,-0.284c5.643,-10.413 5.29,-10.366 8.664,-21.525c2.947,-9.748 1.602,-10.427 8.898,-18.008Z" style="fill:#e3ab75;"/><path d="M1419.747,1530.56c0.929,0.53 10.961,6.254 2.22,12.566c-0.498,0.36 -73.725,4.868 -77.308,-1.575c-6.096,-10.964 6.263,-11.451 7.408,-11.496c27.1,-1.067 62.269,0.295 67.679,0.505Z" style="fill:#f6cb90;"/><path d="M637.812,1530.506c61.476,-0.339 71.218,-2.284 72.991,4.038c2.814,10.031 -1.723,10.061 -12.661,9.969c-58.49,-0.487 -67.17,1.603 -68.516,-5.106c-1.48,-7.372 0.178,-8.355 8.186,-8.902Z" style="fill:#f6cb92;"/><path d="M1301.969,1767.154c-0.218,0.331 -3.718,-0.101 -3.721,7.833c-0.008,24.229 0.655,37.153 -1.788,38.686c-0.688,0.432 -1.657,-1.201 -2.345,-0.769c-14.587,-6.53 -19.481,-4.159 -20.768,-19.151c2.76,-32.028 1.679,-32.697 4.166,-34.157c1.746,-1.025 1.604,0.532 24.455,7.558Z" style="fill:#f8e3ac;"/><path d="M854.091,1435.138c1.961,0.069 23.064,0.813 24.287,3.245c0.625,1.242 2.737,17.416 -4.061,18.865c-1.223,0.261 -41.441,0.877 -43.122,0.449c-5.25,-1.337 -4.309,-16.483 -2.507,-19.967c1.323,-2.559 23.358,-2.589 25.402,-2.592Z" style="fill:#f5ccc2;"/><path d="M821.399,1752.436c11.093,-0.063 32.688,-1.188 34.673,1.618c0.784,1.108 0.787,1.56 1.511,32.683c0.205,8.821 -14.284,5.808 -26.191,5.398c2.92,-3.659 5.051,-4.111 1.689,-7.273c-2.087,-1.964 -6.33,-28.68 -9.349,-32.248c-0.485,-0.573 -1.849,0.395 -2.334,-0.178Z" style="fill:#f4d295;"/><path d="M1315.378,1337.474c2.251,-1.096 7.069,-3.441 31.601,-2.471c3.932,0.155 4.864,1.128 10.213,29.851c0.324,1.738 1.367,7.339 -22.848,5.31c-3.164,-0.265 -5.531,-0.463 -18.966,-32.69Z" style="fill:#eba4ac;"/><path d="M652.64,676.466c-25.369,14.448 -13.712,27.097 -22.62,26.959c-4.353,-0.068 1.787,-14.809 -15.249,-23.751c-9.171,-4.813 -21.674,-3.666 -11.899,-7.279c1.241,-0.459 9.127,4.429 19.622,-9.986c5.719,-7.855 4.613,-31.021 10.988,-14.446c9.361,24.341 20.701,23.432 20.742,25.144c0.004,0.173 -0.834,-0.887 -1.86,1.288c-0.532,1.128 0.774,1.015 0.276,2.07Z" style="fill:#eec498;"/><path d="M725.754,1335.194c2.671,0.259 17.251,-4.038 10.46,8.626c-9.705,18.101 -10.548,25.734 -15.418,25.859c-2.169,0.056 -24.566,2.319 -23.518,-4.896c0.332,-2.287 3.371,-23.197 5.726,-28.347c0.894,-1.955 20.927,-1.302 22.749,-1.243Z" style="fill:#e99fa5;"/><path d="M632.763,1370.119c-8.972,-0.292 -11.543,2.383 -14.548,-5.529c-2.534,-6.674 -15.133,-26.39 -10.659,-28.094c0.685,-0.261 33.203,-3.687 34.272,0.781c0.562,2.347 5.938,24.802 5.29,29.653c-0.831,6.221 -4.023,2.719 -14.355,3.188Z" style="fill:#eca8b0;"/><path d="M1179.863,1039.666c-0.586,-29.52 -3.343,-31.191 8.227,-43.03c7.501,-7.675 6.887,0.117 6.832,0.629c-4.353,40.332 2.256,77.621 -4.091,79.31c-12.798,3.404 -11.506,-6.635 -10.967,-36.909Z" style="fill:#fbf8f1;"/><path d="M1427.513,1370.158c-14.436,-0.242 -22.379,3.33 -19.525,-9.915c3.583,-16.625 -3.623,-25.339 14.457,-24.863c9.715,0.256 27.851,-0.405 25.175,5.919c-0.99,2.339 -10.523,24.867 -15.199,28.037c-0,0 -4.516,0.756 -4.908,0.822Z" style="fill:#e8a0a7;"/><path d="M1524.992,1539.15c14.357,-47.901 25.6,21.952 21.957,33.541c-1.356,4.313 -17.254,3.522 -18.783,3.446c-10.2,-0.507 -3.913,-31.141 -3.174,-36.987Z" style="fill:#b68581;"/><path d="M1027.629,864.182c35.035,-0.23 45.659,-1.452 47.007,3.54c3.55,13.152 -4.884,9.683 -19.343,9.789c-49.778,0.364 -61.405,2.563 -61.414,-7.539c-0.007,-7.462 11.03,-5.735 33.751,-5.79Z" style="fill:#f3cb90;"/><path d="M590.009,1638.406l5.015,-0.256c35.141,2.735 50.645,-1.88 46.063,30.869c-1.952,13.954 -18.018,10.358 -38.573,9.682c-0.39,-0.013 -0.358,-0.047 -4.827,-0.63c-0.837,-0.045 -1.674,-0.091 -2.511,-0.136c-9.875,-1.223 -9.408,-2.125 -16.337,-4.491l0.032,-4.558c5.555,1.923 5.463,2.096 11.385,1.211c6.752,1.078 6.7,1.148 7.292,1.164c2.64,0.07 32.357,0.86 33.006,0.76c1.669,-0.258 5.398,-0.834 2.585,-19.67c-0.766,-5.13 -18.931,-4.502 -25.534,-4.911c-20.851,-0.998 -20.889,-0.259 -22.464,-1.075c-3.577,-1.853 -1.158,-3.844 -4.876,-5.77c6.355,-1.764 6.18,-2.105 9.744,-2.189Z" style="fill:#c0978e;"/><path d="M1021.636,1501.599l-1.569,-0.141l-1.434,0.107l-1.081,-1.487c-19.16,4.677 -23.409,10.422 -33.082,15.582c-0.403,-20.54 -6.495,-25.546 13.324,-34.627c18.666,-8.552 20.434,-8.186 22.293,-7.801c2.903,0.601 1.659,19.317 1.549,28.366Z" style="fill:#c88d7d;"/><path d="M508.443,1553.397c0.18,-2.36 1.485,-19.525 8.326,-28.527c2.328,-3.064 14.827,-3.93 14.392,45.045c-0.098,10.97 -21.63,4.73 -21.643,4.717c-1.526,-1.557 -1.114,-19.534 -1.075,-21.235Z" style="fill:#b38280;"/><path d="M890.119,1032.559c-0.217,34.382 2.309,44.975 -8.299,44.083c-5.765,-0.485 -4.507,-3.286 -4.508,-53.513c-0,-22.116 -5.254,-37.757 4.774,-26.331c13.007,14.821 8.063,16.668 8.033,35.76Z" style="fill:#fcfaf3;"/><path d="M600.094,1767.794l-2.547,3.067c-8.724,4.283 -3.882,6.696 -3.449,15.737c0.464,9.676 0.988,9.459 2.618,18.994c0.272,1.593 1.53,3.149 1.142,4.721c-0.338,1.372 -2.731,1.723 -3.07,3.095c-1.92,-0.891 -20.503,-9.517 -21.44,-15.041c-0.472,-2.786 -0.693,-4.087 1.098,-35.25c0.234,-4.079 1.647,-4.486 5.648,-2.618c9.645,4.505 9.571,4.307 19.999,7.294Z" style="fill:#f9eab3;"/><path d="M1032.875,1496.847c-0.064,-7.386 -2.75,-26.117 4.873,-23.809c8.561,2.592 28.714,11.547 31.819,14.94c1.591,1.738 1.079,11.532 1.107,25.345c-19.591,-12.878 -28.24,-10.143 -37.799,-16.476Z" style="fill:#c88d7c;"/><path d="M1165.955,1001.897c-0.575,1.576 -1.15,3.151 -1.725,4.727c-2.185,2.512 -1.495,3.698 -6.014,3.782c-56.025,1.039 -65.473,-0.178 -72.452,3.098c-0.818,-0.929 -9.6,-10.896 -10.125,-11.685c-1.284,-1.928 -0.149,-2.044 2.416,-2.1c7.033,-0.154 64.505,-1.414 87.9,2.178Z" style="fill:#e7c1ad;"/><path d="M1208.72,1458.693c-2.985,-0.206 -11.6,3.018 -9.226,-13.661c0.874,-6.142 15.686,-5.787 39.391,-5.254c18.343,0.412 7.957,18.572 7.331,18.989c-2.445,1.629 -2.684,0.848 -37.496,-0.073Z" style="fill:#f2ccc1;"/><path d="M1575.899,1433.172c-0.025,2.194 -0.072,6.248 -10.722,25.521c-3.125,5.654 -28.107,3.783 -29.032,2.304c-1.096,-1.753 0.078,-1.767 5.73,-24.82c1.155,-4.711 16.629,-3.03 34.024,-3.005Z" style="fill:#eaa0a6;"/><path d="M1525.6,1318.4l0.191,1.687c-1.424,9.831 -0.84,21.068 -2.407,28.282l0.323,3.386c-11.648,11.263 0.977,24.839 -15.798,23.108c-4.808,-0.496 -4.383,-6.225 -7.368,-19.441c-1.555,-6.886 6.439,-9.472 10.047,-23.53c2.808,-10.944 2.064,-11.463 4.332,-12.747c1.316,-0.745 1.421,-0.418 10.681,-0.745Z" style="fill:#efd3bf;"/><path d="M1596.404,941.001c1.324,0.825 2.648,1.651 3.972,2.476c3.375,10.447 -0.209,13.932 24.815,27.795c-19.49,6.111 -18.07,8.732 -26.488,26.059l-2.432,-2.61c-0.331,-17.011 -13.306,-18.702 -17.234,-21.849c-0.455,-0.364 0.18,-1.298 -0.275,-1.662l-0.313,-2.238c19.065,-8.86 17.365,-21.441 17.955,-27.971Z" style="fill:#efc28c;"/><path d="M1513.462,1296.587c2.661,-24.762 3.041,-24.589 2.591,-37.799c-0.129,-3.783 16.19,-8.398 16.661,25.973c0.242,17.651 6.735,26.627 -12.138,25.645c-10.187,-0.53 -7.891,-4.228 -7.114,-13.818Z" style="fill:#be8684;"/><path d="M846.574,855.619c29.248,4.622 39.015,4.549 32.969,19.147c-5.04,12.169 -9.553,9.428 -40.544,5.372c4.52,-12.192 4.342,-12.055 7.576,-24.519Z" style="fill:#e3af77;"/><path d="M607.605,1647.44c6.603,0.409 24.768,-0.219 25.534,4.911c2.812,18.836 -0.916,19.412 -2.585,19.67c-0.649,0.1 -30.366,-0.69 -33.006,-0.76c-0.592,-0.016 -0.54,-0.086 -7.292,-1.164c0.129,-0.959 -3.117,0.203 -2.988,-0.756c0.399,-2.971 2.994,-5.305 4.177,-8.086c2.528,-5.945 2.057,-6.828 3.682,-6.271c3.3,1.131 4.436,2.993 5.612,-0.223c1.662,-4.543 3.299,-2.974 4.352,-3.924l2.513,-3.397Z" style="fill:#f6d1c9;"/><path d="M511.493,1434.196c4.433,20.834 12.322,27.108 0.535,27.031c-15.78,-0.103 -20.112,4.853 -26.346,-8.672c-7.656,-16.611 -11.865,-19.591 -6.387,-19.599c24.363,-0.035 29.657,0.827 32.197,1.241Z" style="fill:#ea9ea7;"/><path d="M540.686,1298.778c0.339,8.227 2.803,11.776 -6.015,11.904c-10.929,0.158 -12.365,-1.569 -12.483,-11.808c-0.043,-3.721 -0.506,-44.105 14.734,-44.42c3.795,-0.078 0.205,2.563 3.763,44.324Z" style="fill:#be8381;"/><path d="M1314.968,410.285c-2.44,36.618 -46.605,12.331 -30.451,-6.762c5.698,-6.735 24.113,-14.19 30.451,6.762Z" style="fill:#dfbb86;"/><path d="M809.032,1466.873c2.574,-0.376 12.202,-1.78 32.537,-1.337c6.314,0.138 6.266,8.271 5.068,19.552c-0.686,6.462 -26.378,3.49 -35.583,3.252c-1.323,-10.718 -0.47,-10.634 -2.021,-21.467Z" style="fill:#f6d1c7;"/><path d="M520.03,1434.069c11.164,-0.589 31.07,-3.508 31.915,3.906c0.52,4.559 3.36,23.198 -2.21,23.38c-1.954,0.064 -23.28,0.761 -24.264,-2.734c-5.046,-17.914 -5.322,-22.549 -5.441,-24.551Z" style="fill:#e99ca3;"/><path d="M322.972,1272.153c19.321,-7.204 25.381,9.523 23.642,17.443c-5.708,26.006 -54.019,2.841 -23.642,-17.443Z" style="fill:#e1bf87;"/><path d="M1503.311,1433.915c2.145,-0.376 5.928,-1.04 27.278,-0.525c6.839,0.165 -0.685,20.276 -1.573,23.634c-2.238,8.459 -23.595,4.069 -25.62,3.652c-0.115,-13.596 -0.092,-13.368 -0.085,-26.761Z" style="fill:#e89ba0;"/><path d="M1822.031,895.589c-26.749,20.11 -40.144,-24.209 -12.297,-26.193c6.769,-0.482 14.141,6.124 15.749,9.707c3.099,6.901 -2.679,15.353 -3.452,16.485Z" style="fill:#dfc18c;"/><path d="M475.94,665.008c1.656,35.591 -40.225,15.806 -28.29,-4.439c2.853,-4.839 20.755,-16.609 28.29,4.439Z" style="fill:#dbb687;"/><path d="M1430.305,1656.402c-1.162,9.062 -0.204,20.664 -0.056,22.455c-16.618,0.643 -16.51,0.704 -17.947,0.694c-16.369,-0.113 -13.433,-5.874 -13.515,-15.387c-0.098,-11.415 17.813,-8.417 31.518,-7.762Z" style="fill:#f7d0c6;"/><path d="M1801.674,1178.536c-14.347,30.122 -45.45,-5.818 -21.614,-15.295c9.413,-3.743 16.143,0.398 17.302,1.112c5.369,3.304 4.426,13.009 4.312,14.184Z" style="fill:#e0bab8;"/><path d="M1575.763,1641.789c8.266,-0.27 8.021,-0.258 16.153,-1.03l0.593,2.223l-2.316,2.352l-1.737,3.007c-14.929,3.411 -29.947,-4.402 -27.232,18.1c0.589,4.883 18.017,0.049 32.073,2.433c-0,1.339 0.361,1.082 0.361,2.376c-0,0.377 -0.009,0.349 -0.123,4.707c-2.695,-0.448 -2.394,-1.334 -4.882,-0.812c-0.421,0.088 -0.235,-0.492 -5.388,0.032c-2.462,0.251 -4.906,0.647 -7.37,0.881c-25.773,2.444 -22.313,-8.344 -21.682,-18.887c0.866,-14.464 11.41,-13.218 21.55,-15.382Z" style="fill:#c29c8f;"/><path d="M584.101,1553.375l3.386,1.63l1.269,0.768l0.408,2.357l-0.305,2.357l0.422,2.357l0.044,2.357l-0.153,2.357l0.225,2.357l-0.23,2.357l0.295,2.357l-0.002,2.357l-0.139,2.357l0.522,2.357l-0.112,2.357l-0.373,2.357l0.426,2.357l-0.456,2.357l0.41,2.357l-0.224,2.357l-0.511,2.357l0.406,2.357l-0.164,2.357l-0.425,2.357l0.142,2.357l0.701,2.357c0.913,20.282 0.504,26.156 0.346,28.426c-3.565,0.084 -3.389,0.425 -9.744,2.189c0.41,-6.973 1.655,-28.145 3.835,-87.22Z" style="fill:#f6e8d6;"/><path d="M1676.965,823.187c16.971,-11.703 20.522,11.549 19.996,13.805c-3.983,17.064 -22.452,12.095 -27.117,4.174c-3.644,-6.188 6.057,-16.813 7.121,-17.979Z" style="fill:#fafaf3;"/><path d="M1592.509,1642.982c0.104,9.508 0.702,23.821 0.788,25.892c-14.056,-2.384 -31.483,2.45 -32.073,-2.433c-2.715,-22.502 12.303,-14.689 27.232,-18.1l1.737,-3.007l2.316,-2.352Z" style="fill:#f7cdc6;"/><path d="M1588.863,1459.649c-9.822,5.223 -17.558,1.816 -15.34,-2.816c11.632,-24.296 13.943,-23.493 17.451,-23.521c2.486,-0.02 18.548,-1.245 18.567,2.135c0.012,2.228 -19.505,23.034 -20.678,24.202Z" style="fill:#efa6b1;"/><path d="M1578.073,1736.351c8.78,-3.032 18.414,-7.609 19.009,-1.683c2.857,28.435 3.213,31.719 -10.872,36.667c-7.698,-13.06 -0.818,-14.332 -3.808,-26.911c-0.879,-3.698 -3.733,-2.385 -4.007,-2.554c-0.708,-0.437 -0.096,-1.825 -0.804,-2.262l0.481,-3.257Z" style="fill:#fae8b2;"/><path d="M1684.404,1138.59c-4.8,25.112 -40.058,8.167 -24.452,-8.471c4.811,-5.129 20.52,-9.679 24.452,8.471Z" style="fill:#e2be92;"/><path d="M1291.415,1338.581c3.996,-0.598 3.766,-1.213 10.34,-1.548c2.848,-0.145 5.614,-0.286 19.107,28.209c0.55,1.162 2.987,10.245 -16.415,3.988c-0.538,-2.591 -1.419,-2.284 -13.031,-30.649Z" style="fill:#ec9fa2;"/><path d="M1027.007,350.511c18.788,-10.063 36.412,25.348 2.509,27.494c-11.147,-10.357 -12.943,-11.568 -7.627,-22.256c1.996,2.749 2.988,2.017 3.698,5.095c0.059,0.256 0.279,1.206 1.437,2.979c2.951,4.514 13.666,-4.718 -0.018,-13.313Z" style="fill:#edc690;"/><path d="M480.942,1458.491c-7.648,8.873 -22.799,-6.944 -33.338,-18.87c-8.105,-9.172 4.426,-6.983 14.14,-6.808c10.334,0.185 7.645,8.461 19.199,25.678Z" style="fill:#eda7ad;"/><path d="M763.649,1338.778c-6.633,15.816 -7.225,15.427 -15.194,30.824c-6.461,1.126 -6.374,1.552 -12.774,0.49c-2.37,-0.394 -2.854,-2.096 9.657,-26.705c4.437,-8.727 6.895,-6.478 18.31,-4.608Z" style="fill:#eba3a6;"/><path d="M1035.165,247.689c1.927,7.116 1.761,7.177 1.739,82.556c-0,0.582 -2.781,32.492 -6.022,4.581c-0.82,-7.063 -0.308,-75.737 -0.259,-82.322c0.047,-6.297 4.142,-4.582 4.542,-4.815Z" style="fill:#e7b48e;"/><path d="M582.089,1338.259c10.001,-0.801 12.82,-3.941 16.567,4.933c4.345,10.294 15.276,25.629 11.805,26.883c-2.615,0.945 -2.612,0.435 -15.52,-0.266c-6.027,-16.014 -7.009,-15.427 -12.851,-31.551Z" style="fill:#ea9ca0;"/><path d="M1472.863,1338.616c-11.039,21.456 -12.28,28.176 -12.761,30.779c-1.304,0.326 -21.11,5.279 -16.295,-4.075c0.966,-1.877 10.331,-20.07 12.167,-23.43c2.917,-5.34 16.013,-3.278 16.889,-3.274Z" style="fill:#ea9ea3;"/><path d="M1495.131,1433.844c-0.114,8.933 -0.227,17.866 -0.341,26.799c-18.819,5.791 -16.721,-4.289 -16.749,-22.709c-0.011,-6.982 14.815,-4.238 17.09,-4.09Z" style="fill:#e69da1;"/><path d="M363.526,1056.158c-0.149,-1.746 -1.893,-5.838 2.386,-12.022c1.741,-2.516 7.747,-5.986 12.761,-4.187c20.866,7.489 0.067,37.943 -15.147,16.209Z" style="fill:#fcfbf6;"/><path d="M575.997,1442.721c-0.528,15.388 2.996,17.732 -3.256,19.475c-14.068,3.922 -11.663,-3.634 -12.647,-17.216c-0.066,-0.914 -0.8,-11.046 2.337,-11.234c10.473,-0.628 13.558,-0.782 13.566,8.975Z" style="fill:#e49ca0;"/><path d="M1430.305,1656.402c13.689,-0.981 13.602,-1.155 14.784,-1.059c3.538,0.288 3.649,14.633 3.659,15.937c0.072,9.419 -16.285,7.362 -18.499,7.577c-0.148,-1.791 -1.106,-13.393 0.056,-22.455Z" style="fill:#e8b5ad;"/><path d="M580.265,1640.595c3.718,1.926 1.298,3.917 4.876,5.77c1.575,0.816 1.613,0.077 22.464,1.075l-2.513,3.397c-1.053,0.95 -2.69,-0.619 -4.352,3.924c-1.176,3.216 -2.312,1.354 -5.612,0.223c-1.625,-0.557 -1.154,0.326 -3.682,6.271c-1.183,2.782 -3.777,5.115 -4.177,8.086c-0.129,0.959 3.117,-0.203 2.988,0.756c-5.922,0.885 -5.83,0.711 -11.385,-1.211c0.539,-14.27 0.667,-14.128 1.394,-28.291Z" style="fill:#f2c5bd;"/><path d="M361.865,1174.034c0.361,-1.004 3.462,-9.626 9.167,-10.083c22.022,-1.765 11.097,19.677 7.416,20.894c-15.652,5.177 -16.496,-9.299 -16.584,-10.811Z" style="fill:#f6ceb3;"/><path d="M730.873,1600.462c0.639,9.479 0.478,9.281 -0.119,18.612c-5.097,0.039 -20.294,2.305 -20.868,-4.282c-0.092,-1.06 -1.021,-11.727 1.56,-13.215c2.778,-1.602 2.885,-0.77 19.427,-1.115Z" style="fill:#f5cdc1;"/><path d="M693.042,808.157c-6.381,15.181 4.221,18.875 -7.373,31.666c-1.367,0.012 -6.61,2.188 -7.103,-2.958c-0.223,-2.327 -0.334,-19.45 -0.345,-21.141c-0.055,-8.421 9.709,-6.907 14.821,-7.567Z" style="fill:#e6b681;"/><path d="M771.153,1339.082c1.035,-0.225 19.16,-4.172 12.388,4.504c-22.604,28.953 -24.708,27.568 -28.321,27.113c3.464,-8.983 7.834,-13.316 15.933,-31.617Z" style="fill:#e8a5a4;"/><path d="M730.873,1600.462c13.961,-0.23 20.344,-3.626 19.766,9.479c-0.551,12.511 -6.427,8.475 -19.886,9.133c0.597,-9.33 0.758,-9.133 0.119,-18.612Z" style="fill:#e6b9ae;"/><path d="M750.941,860.374c14.548,9.033 7.476,12.914 9.838,18.98c0.819,2.104 2.781,3.239 3.108,3.429c1.172,0.678 1.211,-0.928 2.378,-0.253c-10.853,1.454 -12.369,3.862 -19.344,-3.873c-8.784,-9.742 -8.806,-14.217 4.02,-18.283Z" style="fill:#faedcc;"/><path d="M889.276,928.039l5.043,0.044c-0.605,9.452 -0.6,9.392 -0.654,10.209c-0.139,2.101 -1.625,24.569 -4.242,26.014c-8.515,4.702 -4.943,-15.643 -5.903,-28.294c-0.365,-4.808 2.796,-3.969 3.251,-4.614l2.505,-3.358Z" style="fill:#f5e7c8;"/><path d="M1038.362,973.017c-5.631,5.077 -5.112,5.239 -9.251,11.451c-0.197,0.295 -14.762,13.867 -17.854,15.086l-4.744,-3.137c18.394,-23.96 22.908,-30.381 31.849,-23.4Z" style="fill:#f2afb7;"/><path d="M1477.873,1339.221c10.52,0.095 20.288,-2.58 13.039,4.793c-7.217,7.339 -12.022,16.628 -22.782,26.568c-0.506,-1.284 -1.911,-2.142 -2.417,-3.426c-0.219,-0.555 9.969,-14.126 12.161,-27.934Z" style="fill:#e99ca0;"/><path d="M1641.03,1105.946c-1.092,-1.045 -11.186,-10.707 -1.441,-18.227c12.347,-9.528 26.158,26.587 1.441,18.227Z" style="fill:#fcfaf7;"/><path d="M1283.95,1339.393c1.8,12.755 13.39,27.464 13.251,27.785c-0.627,1.447 -2.859,1.911 -3.486,3.358c-4.694,-4.47 -4.163,-4.619 -8.061,-9.59c-7.869,-10.036 -28.885,-27.179 -1.704,-21.554Z" style="fill:#ebada9;"/><path d="M809.032,1466.873c1.551,10.832 0.698,10.748 2.021,21.467c-0.222,-0.018 -13.558,0.342 -15,-3.178c-0.988,-2.412 -0.606,-10.99 -0.563,-11.945c0.383,-8.598 4.384,-5.661 13.542,-6.343Z" style="fill:#ebbeb5;"/><path d="M1374.311,890.943c0.179,-0.211 3.5,-6.935 10.61,-5.436c0.754,0.159 6.032,1.272 7.637,5.549c4.987,13.291 -23.654,22.011 -18.247,-0.113Z" style="fill:#edbf7d;"/><path d="M665.229,888.619c0.664,-0.535 5.515,-4.444 10.551,-2.713c2.195,0.755 5.677,4.35 6.33,7.708c2.525,12.986 -26.01,16.206 -16.881,-4.995Z" style="fill:#f5ce98;"/><path d="M1025.314,224.327c1.186,-0.656 12.609,-6.968 16.432,4.808c4.369,13.46 -26.976,16.125 -16.432,-4.808Z" style="fill:#f0c685;"/><path d="M1283.95,1339.393c3.704,-0.742 3.419,-0.917 7.465,-0.812c11.613,28.365 12.493,28.058 13.031,30.649c-3.588,1.069 -3.357,3.738 -10.732,1.306c0.627,-1.447 2.859,-1.911 3.486,-3.358c0.139,-0.321 -11.45,-15.03 -13.251,-27.785Z" style="fill:#b97576;"/><path d="M1115.565,806.266c0.416,-3.693 0.536,-3.475 0.033,-7.03c-1.17,-8.27 8.114,-13.676 7.481,-4.729c-1.761,24.927 -0.338,36.562 -3.39,36.754c-7.753,0.487 -4.41,-22.989 -4.124,-24.995Z" style="fill:#ceaea1;"/><path d="M574.597,1339.665c7.918,22.674 11.929,21.018 12.851,25.223c0.337,1.536 -3.852,1.821 -3.516,3.356c-15.762,-20.495 -27.528,-30.146 -21.292,-30.643c6.28,-0.5 6.036,0.296 11.957,2.063Z" style="fill:#eea5a5;"/><path d="M1254.19,622.004c-0.938,-0.899 -9.634,-9.232 -2.247,-15.576c11.747,-10.088 24.521,18.136 2.247,15.576Z" style="fill:#f6d49d;"/><path d="M809.033,622.011c-0.924,-0.946 -9.699,-9.934 -2.562,-15.849c11.119,-9.216 25.29,16.228 2.562,15.849Z" style="fill:#f2cb93;"/><path d="M1332.486,1127.065c-13.861,20.411 -16.664,-13.985 -3.146,-15.836c9.502,-1.301 3.597,14.618 3.146,15.836Z" style="fill:#facdd0;"/><path d="M574.597,1339.665c3.811,-1.076 3.536,-1.127 7.492,-1.405c5.842,16.124 6.824,15.536 12.851,31.551c-5.929,1.189 -6.258,1.762 -11.008,-1.566c-0.337,-1.536 3.852,-1.821 3.516,-3.356c-0.922,-4.205 -4.933,-2.549 -12.851,-25.223Z" style="fill:#bc7073;"/><path d="M298.484,884.101c-5.921,18.277 -25.864,3.357 -14.397,-6.221c1.446,-1.208 6.51,-2.818 8.627,-2.129c5.756,1.873 5.042,2.86 5.771,8.35Z" style="fill:#fcfcf7;"/><path d="M763.649,1338.778c3.809,0.497 3.66,-0.302 7.504,0.304c-8.099,18.301 -12.469,22.634 -15.933,31.617c-3.529,-0.027 -3.363,-0.255 -6.765,-1.097c7.969,-15.397 8.561,-15.007 15.194,-30.824Z" style="fill:#b57171;"/><path d="M1480.303,583.216c20.022,5.54 3.421,24.745 -5.596,13.706c-6.749,-8.263 4.463,-13.206 5.596,-13.706Z" style="fill:#fbf8f6;"/><path d="M1495.131,1433.844c4.26,-0.45 4.051,-0.372 8.18,0.071c-0.007,13.393 -0.031,13.165 0.085,26.761c-2.869,-0.011 -5.737,-0.022 -8.606,-0.033c0.114,-8.933 0.227,-17.866 0.341,-26.799Z" style="fill:#ac6165;"/><path d="M1549.178,1145.262c-1.75,-5.901 -3.334,-5.837 -1.149,-11.439c1.234,-3.163 6.828,-6.725 13.294,9.245c0.351,0.867 1.568,19.581 -12.145,2.194Z" style="fill:#f7bec2;"/><path d="M542.793,922.727c1.185,-0.234 12.952,-2.559 12.125,8.484c-0.939,12.545 -26.583,6.219 -12.125,-8.484Z" style="fill:#efbd7b;"/><path d="M1472.863,1338.616c1.67,0.201 3.34,0.403 5.01,0.604c-2.192,13.808 -12.38,27.379 -12.161,27.934c0.506,1.284 1.911,2.142 2.417,3.426c-4.244,0.334 -4.02,0.208 -8.027,-1.186c0.481,-2.603 1.723,-9.323 12.761,-30.779Z" style="fill:#bb6f6f;"/><path d="M969.078,628.865c-16.821,7.937 -12.275,-22.052 0.893,-13.696c5.51,3.496 -0.299,12.75 -0.893,13.696Z" style="fill:#f9c7ce;"/><path d="M771.109,1088.206l-2.542,3.756c-9.789,8.31 -9.836,8.11 -13.576,11.875c-0.57,-1.106 -6.966,-11.154 -5.309,-14.008c1.539,-2.65 19.821,-1.619 21.427,-1.623Z" style="fill:#f4aeb6;"/><path d="M1243.169,674.074l3.247,0.129c1.039,-0.011 13.23,-0.145 7.958,9.62c-0.346,0.641 -1.693,-0.41 -5.951,7.031c-2.346,-0.595 -4.691,-1.19 -7.037,-1.786l-3.012,1.617c1.598,-5.537 3.196,-11.074 4.794,-16.611Z" style="fill:#f1b6bb;"/><path d="M1505.251,923.859c1.098,-0.259 14.064,-3.312 11.838,7.273c-2.676,12.728 -24.387,4.644 -11.838,-7.273Z" style="fill:#edbe80;"/><path d="M411.223,634.353c6.606,17.051 -7.646,15.736 -10.244,9.5c-2.828,-6.788 1.603,-20.184 10.244,-9.5Z" style="fill:#fdf2f1;"/><path d="M510.127,1143.697c-15.147,13.351 -12.727,-16.137 -0.754,-14.226c9.278,1.481 1.399,13.26 0.754,14.226Z" style="fill:#fbd4d4;"/><path d="M606.78,1713.708c1.507,-15.749 10.525,-5.931 11.172,-2.426c1.831,9.931 -9.577,14.426 -11.172,2.426Z" style="fill:#fcf7e3;"/><path d="M765.348,787.321c4.516,-6.872 6.846,-7.95 12.919,-1.968c5.182,5.104 -11.137,20.446 -12.919,1.968Z" style="fill:#f4b9c5;"/><path d="M1699.362,947.983c-15.799,3.563 -10.557,-17.668 -0.753,-11.312c5.684,3.685 1.255,10.537 0.753,11.312Z" style="fill:#fcf7f2;"/><path d="M615.816,1131.585c-5.516,13.181 -16.427,-1.131 -8.074,-6.778c7.968,-5.386 8.066,5.965 8.074,6.778Z" style="fill:#fbc9cd;"/><path d="M630.341,466.622c0.829,0.517 8.716,5.439 1.827,11.539c-4.852,4.296 -20.832,-9.332 -1.827,-11.539Z" style="fill:#fceded;"/><path d="M1027.007,350.511c13.684,8.595 2.969,17.826 0.018,13.313c-1.159,-1.772 -1.378,-2.723 -1.437,-2.979c-0.711,-3.078 -1.703,-2.346 -3.698,-5.095c2.464,-2.859 2.315,-2.679 5.118,-5.238Z" style="fill:#fae0b4;"/><path d="M806.403,1120.306c6.134,0.137 8.97,-1.331 8.421,4.399c-0.757,7.894 -22.314,1.774 -8.421,-4.399Z" style="fill:#fbb6bc;"/><path d="M1327.668,565.891c-0.141,-0.829 -1.424,-1.217 -1.565,-2.046c-0.204,-1.198 1.523,-7.764 8.215,-2.598c3.725,2.876 2.37,4.606 -2.392,5.655l-2.515,-0.186l-1.743,-0.825Z" style="fill:#e2b376;"/><path d="M838.303,1126.411c-10.622,7.388 -6.643,-3.825 -3.772,-5.608c0.472,-0.293 6.185,-3.621 3.772,5.608Z" style="fill:#fab5bd;"/><path d="M1474.153,1255.266c1.516,1.35 3.031,2.7 4.547,4.05c0.066,0.805 0.987,12.059 -3.784,9.45c-2.135,-1.167 -0.883,-12.425 -0.763,-13.5Z" style="fill:#b47d71;"/><path d="M1288.916,1258.62c2.653,4.429 1.844,4.498 2.089,9.478c-1.358,0.72 -2.717,1.44 -4.075,2.159c-0.222,-0.731 -2.321,-7.645 -1.336,-9.412c0.63,-1.131 2.692,-1.094 3.322,-2.225Z" style="fill:#ad6c67;"/><path d="M1581.901,1364.539c1.914,2.135 1.72,2.005 1.914,2.135c1.306,0.874 1.589,0.052 2.779,0.848c0.844,5.49 0.304,6.823 -5.63,6.682c0.148,-1.539 0.297,-3.077 0.445,-4.616l0.492,-5.05Z" style="fill:#ad756b;"/><path d="M577.62,1268.175l2.696,-0.8l2.705,3.218l0.683,2.357c-0.93,1.817 2.114,1.361 1.266,3.018c-0.097,0.19 -0.089,0.175 -2.815,0.009c-6.724,-0.409 -4.544,-6.714 -4.536,-7.802Z" style="fill:#a5685e;"/><path d="M481.771,1710.014c7.671,-1.685 8.487,-5.338 14.125,-0.241c8.246,7.456 -13.056,0.585 -14.125,0.241Z" style="fill:#f4e6c9;"/><path d="M403.382,805.936c0.284,-0.671 3.553,-8.386 3.553,-8.386c0,0 1.346,10.437 1.463,11.344c-1.446,-2.224 -1.774,-1.642 -5.016,-2.958Z" style="fill:#d8a574;"/><path d="M1286.371,1251.992c1.405,-0.19 2.809,-0.381 4.214,-0.571c-0.496,3.706 -0.318,3.513 -1.669,7.2c-5.079,-1.946 -3.589,-3.25 -2.544,-6.628Z" style="fill:#b57671;"/><path d="M1546.291,1767.677c2.582,7.275 2.589,7.257 2.566,7.283c-0.695,0.787 -5.464,-0.277 -5.671,-1.23c-0.114,-0.527 0.226,-0.441 3.105,-6.053Z" style="fill:#e4b67b;"/><path d="M877.24,553.729c-1.527,0.155 -1.478,3.118 -3.005,3.273c-1.051,0.107 -0.297,-1.985 -0.717,-2.895c-0.471,-1.021 -2.82,-2.092 -1.915,-2.813c0.378,-0.301 0.401,0.173 5.637,2.434Z" style="fill:#dab174;"/><path d="M563.021,1365.168c-2.805,-5.739 -3.388,-5.759 -3.02,-6.18c0.491,-0.561 0.265,0.473 7.131,6.137c-1.37,0.014 -2.74,0.028 -4.11,0.043Z" style="fill:#a57166;"/><path d="M1286.296,1249.886c1.426,-0.257 2.852,-0.514 4.278,-0.77l0.011,2.305c-1.405,0.19 -2.809,0.381 -4.214,0.571l-0.076,-2.106Z" style="fill:#bf887e;"/><path d="M1596.404,941.001c4.293,-1.614 4.237,-1.739 4.637,-1.743c0.364,-0.004 -0.047,0.297 -0.665,4.219c-1.324,-0.825 -2.648,-1.651 -3.972,-2.476Z" style="fill:#d5ab93;"/><path d="M1581.409,1369.589c-0.148,1.539 -0.297,3.077 -0.445,4.616c-1.144,-0.768 -1.275,0.739 -2.51,-0.091c-2.908,-1.952 1.043,-1.596 2.955,-4.525Z" style="fill:#a0685b;"/><path d="M1509.016,983.056l-3.554,2.253l-2.515,-0.65l1.429,-1.603l4.64,0Z" style="fill:#ef9ca7;"/><path d="M1291.004,1268.098l-0.571,2.146l-1.153,2.324l-2.352,-2.31c1.358,-0.72 2.717,-1.44 4.075,-2.159Z" style="fill:#9e5e58;"/><path d="M1596.271,994.72l2.432,2.61c-0.643,0.162 -0.012,1.607 -0.655,1.769c-1.456,0.367 -1.979,-0.922 -2.046,-1.087c-0.67,-1.652 0.982,-1.536 0.269,-3.292Z" style="fill:#d9a886;"/><path d="M1290.434,1270.244c0.981,3.175 4.847,4.965 1.37,4.435c-1.867,-0.284 -0.682,-1.831 -2.523,-2.112l1.153,-2.324Z" style="fill:#94584e;"/><path d="M307.789,630.569c0.492,0.403 1.382,-0.942 1.875,-0.539c0.288,0.235 0.053,0.327 0.721,4.421c-0.171,-0.33 -0.233,-0.2 -2.595,-3.882Z" style="fill:#d6909d;"/><path d="M1119.262,276.065c0.268,-1.729 0.331,-4.474 0.374,-2.413c0.032,1.531 -0.345,2.228 -0.374,2.413Z" style="fill:#e7c18a;"/></g></svg>