<?xml version="1.0" encoding="UTF-8" standalone="no"?><!DOCTYPE svg PUBLIC "-//W3C//DTD SVG 1.1//EN" "http://www.w3.org/Graphics/SVG/1.1/DTD/svg11.dtd"><svg width="100%" height="100%" viewBox="0 0 1024 1024" version="1.1" xmlns="http://www.w3.org/2000/svg" xmlns:xlink="http://www.w3.org/1999/xlink" xml:space="preserve" xmlns:serif="http://www.serif.com/" style="fill-rule:evenodd;clip-rule:evenodd;stroke-linejoin:round;stroke-miterlimit:2;"><g id="Background"><path d="M561.705,926.827c-100.859,0.679 -121.442,0.466 -223.625,-20.152c-10.117,-2.041 -87.62,-20.962 -133.566,-44.956c-61.616,-32.177 -33.195,-73.175 -42.535,-141.132c-0.2,-1.455 -2.453,-45.741 -0.867,-55.646c2.989,-18.669 12.247,-22.064 10.633,-32.957c-12.942,-87.382 -30.863,-250.687 -32.274,-260.399c-0.92,-6.328 -0.767,-6.32 -9.73,-79.479c-5.856,-47.794 30.97,-73.095 61.154,-47.678c31.749,26.735 55.937,52.284 151.929,146.768c0.308,0.303 0.538,0.718 0.839,1.032c0.83,0.864 10.024,10.435 12.333,6.717c6.119,-9.854 105.577,-189.036 139.381,-267.491c5.301,-12.303 9.636,-28.842 29.783,-33.724c26.962,-6.534 36.668,31.679 55.934,69.547c7.601,14.94 24.496,54.381 80.716,158.253c39.944,73.8 41.594,77.883 46.263,73.267c134.392,-132.871 146.835,-143.239 160.294,-154.453c24.244,-20.202 72.509,-13.475 58.201,61.915c-3.231,17.025 -1.347,17.277 -25.492,216.501c-12.735,105.081 -14.825,104.754 -14.366,113.969c0.131,2.633 15.025,22.521 12.496,53.598c-9.581,117.703 4.541,125.586 -20.661,155.421c-27.011,31.976 -191.757,77.892 -303.975,80.139c-6.47,0.13 -6.298,0.221 -12.862,0.941Z" style="fill:#7a3923;"/><path d="M553.085,177.941c10.282,20.926 87.391,177.86 135.929,255.478c9.124,14.59 16.52,10.645 19.281,9.957c-0.217,1.952 -2.449,22.068 11.039,20.265c9.049,-1.21 89.271,-71.738 124.237,-109.104c5.224,-5.637 5.163,-5.384 7.842,-8.686c2.941,-3.272 5.962,-6.427 8.903,-9.699c28.016,-31.163 24.302,-36.746 38.996,-46.056c-0.099,8.611 -37.032,340.297 -42.698,351.124c-8.189,15.648 -152.949,49.421 -318.718,49.752c-19.246,0.038 -145.559,4.238 -282.261,-28.954c-51.037,-12.392 -52.836,-16.188 -55.743,-34.372c-17.25,-107.932 -33.502,-307.026 -43.592,-346.899c-0.676,-2.673 0.506,-7.177 2.165,-9.329c3.974,-5.155 10.695,-0.866 11.133,-0.712c-1.841,3.113 -4.001,1.678 -5.867,14.558c0.512,4.028 0.637,4.696 3.917,4.623c1.75,2.413 4.909,7.053 5.33,7.672c-0.488,0.692 -0.976,1.384 -1.463,2.076c-2.49,8.875 -0.26,8.888 0.699,18.419c2.01,19.977 0.216,24.944 10.65,88.172c0.234,1.416 5.961,55.68 15.159,107.411c0.611,3.438 -0.885,3.468 2.933,43.903c4.161,44.066 2.149,47.727 6.948,47.518c0.937,-0.041 0.081,-3.245 11.128,-4.688c4.186,-0.547 2.776,-2.681 3.254,-7.88l2.724,2.387c14.357,10.721 14.492,9.912 30.068,17.376l2.302,1.312c0.585,-0.16 1.076,1.025 1.661,0.865c20.361,-5.555 -12.332,-119.233 -14.66,-131.229c-13.313,-68.592 -13.656,-68.384 -14.698,-74.374c-5.667,-32.558 -3.457,-32.97 -1.422,-37.676c23.146,25.884 34.709,36.625 102.802,95.003c1.372,1.438 0.137,2.353 1.504,3.786c0.381,0.399 1.079,1.131 5.5,3.553c4.921,2.696 5.012,2.701 5.483,2.728c15.579,0.88 20.909,14.041 42.509,-6.686c40.493,-54.269 135.208,-255.631 150.305,-277.004c7.506,-10.626 10.747,-5.217 16.721,-14.588Z" style="fill:#fdc73a;"/><path d="M190.659,735.534c-0.238,-0.405 -4.873,-5.493 -3.39,-10.551c8.189,-27.931 -12.549,-69.48 18.861,-60.624c52.066,14.679 52.014,14.046 104.494,25.563c90.78,19.921 263.298,26.227 403.237,4.671c136.206,-20.981 134.795,-32.766 146.699,-32.269c19.337,0.807 6.286,40.805 9.363,60.183c-0.524,0.413 -1.281,-0.928 -1.805,-0.515c-4.179,3.297 0.449,10.823 0.899,11.556c-1.64,7.608 -0.151,21.051 -1.355,45.171c-0.264,5.294 -0.762,15.266 -45.714,32.057c-131.506,49.122 -245.819,53.747 -324.384,51.721c-62.109,-1.2 -76.908,-3.964 -100.956,-8.163c-16.129,-2.816 -140.177,-24.477 -197.462,-62.504c-8.46,-5.616 -7.074,-8.681 -8.488,-56.295Z" style="fill:#fdc846;"/><path d="M196.758,818.502c-0.663,-1.027 -8.375,-12.961 -3.332,-16.052c2.793,-1.712 55.218,27.768 102.502,38.943c190.974,45.135 277.315,34.971 405.222,12.757c140.251,-24.357 162.032,-63.952 166.133,-49.43c5.197,18.403 -44.451,34.766 -52.796,38.246c-110.239,45.974 -266.78,57.479 -355.351,48.308c-1.12,-7.321 -0.878,-10.418 -12.931,-12.007c-20.664,-2.723 -30.788,-6.18 -58.593,-10.274c-78.465,-11.555 -78.005,-17.008 -86.212,-15.913c-12.139,1.619 -18.207,-5.858 -29.104,-7.879c-32.916,-6.105 -45.066,-17.678 -55.712,-23.419c-17.989,-9.701 -18.901,-4.032 -19.826,-3.28Z" style="fill:#fbb337;"/><path d="M541.379,725.783c3.564,2.253 26.619,16.827 29.81,50.589c6.806,72.026 -63.684,100.918 -95.236,41.646c-0.403,-0.916 -0.935,-1.734 -1.339,-2.649c-17.421,-39.549 4.712,-111.842 66.766,-89.585Z" style="fill:#7a3825;"/><path d="M172.979,297.559c51.429,27.586 150.982,149.95 174.356,152.431c8.366,0.888 0.77,12.905 -4.055,15.768c-6.931,4.113 -10.719,1.088 -12.216,0.394c-68.093,-58.378 -79.656,-69.119 -102.802,-95.003c-7.657,-10.14 -8.708,-8.352 -16.928,-18.003c-26.236,-30.802 -5.01,70.323 -1.673,106.74c11.192,122.168 12.302,121.924 12.626,132.602c-0.478,5.199 0.932,7.333 -3.254,7.88c-11.047,1.444 -10.191,4.648 -11.128,4.688c-4.799,0.209 -2.787,-3.452 -6.948,-47.518c-3.818,-40.435 -2.322,-40.465 -2.933,-43.903c-9.198,-51.731 -14.926,-105.995 -15.159,-107.411c-10.434,-63.228 -8.64,-68.195 -10.65,-88.172c-0.959,-9.531 -3.189,-9.544 -0.699,-18.419l1.463,-2.076Z" style="fill:#fdf1c3;"/><path d="M228.262,371.15c-2.035,4.706 -4.245,5.118 1.422,37.676c1.043,5.99 1.386,5.782 14.698,74.374c2.328,11.996 35.021,125.674 14.66,131.229c-0.585,0.16 -1.076,-1.025 -1.661,-0.865l-2.302,-1.312c-15.576,-7.465 -15.71,-6.655 -30.068,-17.376l-2.724,-2.387c-0.324,-10.677 -1.434,-10.434 -12.626,-132.602c-3.336,-36.417 -24.563,-137.542 1.673,-106.74c8.22,9.651 9.271,7.862 16.928,18.003Z" style="fill:#fedc59;"/><path d="M484.127,238.201c3.033,4.39 4.302,4.613 2.272,9.815c-4.665,11.954 -11.198,21.649 -10.707,30.367c0.576,10.22 -6.371,7.223 -15.716,28.369c-10.693,24.196 -11.516,23.445 -21.837,47.876c-0.041,2.13 -0.082,4.261 -0.124,6.391c-5.603,9.493 -6,9.002 -10.442,19.532c-4.638,10.994 -7.21,8.83 -13.856,28.46c-5.761,17.014 -19.306,34.859 -24.096,46.414c-1.675,4.042 -2.099,3.293 -3.005,4.45c-5.988,7.65 -0.562,9.613 -0.557,9.658c-21.599,20.727 -26.93,7.566 -42.509,6.686c-0.471,-0.027 -0.562,-0.032 -5.483,-2.728c-4.421,-2.422 -5.119,-3.154 -5.5,-3.553c-1.368,-1.433 -0.132,-2.348 -1.504,-3.786c1.497,0.694 5.285,3.718 12.216,-0.394c4.825,-2.863 12.421,-14.88 4.055,-15.768c-23.374,-2.482 -122.927,-124.845 -174.356,-152.431c-0.422,-0.619 -3.58,-5.259 -5.33,-7.672l-3.917,-4.623c1.866,-12.881 4.026,-11.446 5.867,-14.558c1.9,1.069 2.407,-0.099 31.004,23.843c61.599,47.562 107.564,95.902 107.89,102.606c0.355,7.297 7.891,10.309 40.186,44.786c3.859,4.12 8.145,3.214 9.428,3.013c9.355,-1.468 7.91,-4.775 13.932,-13.775c1.081,-0.446 1.614,3.098 2.696,2.652c0.03,-0.013 7.583,-11.137 11.336,-15.418c4.569,-5.212 14.212,-16.213 48.454,-75.612c15.347,-26.623 13.546,-27.914 23.258,-45.377c15.514,-27.894 12.901,-29.573 26.344,-59.222Z" style="fill:#fbe196;"/><path d="M252.046,700.168c3.379,-1.232 26.188,-9.553 42.858,12.319c44.677,70.079 -37.303,137.245 -66.283,63.605c-7.996,-20.317 -1.265,-40.487 -0.191,-43.706c9.135,-27.378 18.919,-29.38 23.616,-32.218Z" style="fill:#783a27;"/><path d="M759.841,785.637c-1.384,-2.924 -9.852,-20.814 -6.994,-41.705c1.86,-13.595 9.974,-28.804 14.964,-33.857c49.248,-49.868 97.103,62.158 42.967,93.545c-28.136,16.313 -48.21,-13.88 -50.938,-17.984Z" style="fill:#783622;"/><path d="M523.182,138.639c8.711,-22.001 12.208,-1.273 22.603,22.903c0.569,1.323 0.612,1.255 7.301,16.398c-5.974,9.371 -9.215,3.963 -16.721,14.588c-15.097,21.372 -109.812,222.735 -150.305,277.004c-0.005,-0.045 -5.431,-2.008 0.557,-9.658c0.906,-1.157 1.33,-0.408 3.005,-4.45c4.789,-11.555 18.335,-29.4 24.096,-46.414c6.646,-19.63 9.218,-17.466 13.856,-28.46c4.442,-10.529 4.84,-10.038 10.442,-19.532c1.792,-3.295 1.943,-3.213 1.935,-3.559c-0.028,-1.216 -1.783,-1.617 -1.811,-2.832c10.321,-24.432 11.144,-23.68 21.837,-47.876c9.345,-21.146 16.292,-18.15 15.716,-28.369c-0.491,-8.718 6.042,-18.414 10.707,-30.367c2.03,-5.202 0.76,-5.425 -2.272,-9.815c14.771,-40.133 33.694,-53.27 40.764,-85.568l0.332,-2.328l-0.209,-2.328l0.57,-2.328l0.421,-2.328l0.104,-2.328l-1.043,-0.964l-1.883,-1.392Z" style="fill:#fdecb4;"/><path d="M825.729,757.807c-0.792,5.024 -7.571,48.043 -42.214,35.072c0.49,-0.455 1.216,1.266 1.706,0.811c0.65,-0.603 0.93,-0.863 -1.578,-12.613c-0.546,-2.56 -4.387,-6.35 -5.153,-7.897c-0.257,-0.518 -2.917,-5.886 -5.923,-1.389c-1.489,2.228 1.822,-0.182 2.947,2.385c0.228,0.521 0.446,1.22 0.249,1.761c-0.277,0.76 -1.557,0.818 -1.491,1.651c0.083,1.046 3.105,3.891 3.41,4.178c2.542,2.393 3.624,2.054 2.808,3.971c-0.574,1.35 -2.19,1.628 -2.765,2.979c-42.196,-41.574 19.057,-118.004 44.594,-54.345c4.449,11.091 3.413,22.36 3.409,23.436Z" style="fill:#f594b6;"/><path d="M855.315,308.874c0.863,0.886 1.726,1.772 2.59,2.658c0.342,11.745 -3.203,10.719 -3.435,17.637c-0.015,0.441 -0.093,2.781 -1.807,5.016l-0.595,2.328l-1.165,2.328l-1.298,2.328c0.603,1.561 1.206,3.121 1.809,4.682c-2.679,3.302 -2.618,3.049 -7.842,8.686c-34.966,37.366 -115.188,107.895 -124.237,109.104c-13.487,1.803 -11.255,-18.313 -11.039,-20.265c9.69,-7.315 9.274,-7.779 17.791,-17.16c1.225,0.916 1.25,3.494 2.474,4.411c1.781,1.333 50.46,-40.843 77.497,-67.717c14.59,-14.501 31.94,-29.579 41.408,-38.456c6.9,-6.469 4.633,-10.858 7.848,-15.58Z" style="fill:#fdeec0;"/><path d="M48.858,476.345c4.313,-34.051 4.604,15.263 18.193,32.013c16.47,20.301 34.922,20.712 35.593,22.049c5.09,10.139 -28.427,-5.812 -44.358,41.564c-5.594,16.635 -6.137,38.803 -8.539,20.827c-0.553,-4.139 -4.12,-30.841 -20.391,-45.643c-12.664,-11.521 -28.246,-13.379 -28.281,-13.412c-5.057,-4.661 8.98,-4.671 15.964,-9.244c20.978,-13.738 24.58,-20.793 31.818,-48.154Z" style="fill:#fdd26f;"/><path d="M899.312,290.096c-14.694,9.31 -10.979,14.893 -38.996,46.056c-2.941,3.272 -5.962,6.427 -8.903,9.699c-0.603,-1.561 -1.206,-3.121 -1.809,-4.682l1.298,-2.328l1.165,-2.328l0.595,-2.328c1.714,-2.235 1.793,-4.575 1.807,-5.016c0.232,-6.918 3.777,-5.892 3.435,-17.637c-0.863,-0.886 -1.726,-1.772 -2.59,-2.658c-3.215,4.722 -0.948,9.111 -7.848,15.58c-9.468,8.877 -26.819,23.955 -41.408,38.456c-27.038,26.873 -75.716,69.05 -77.497,67.717c-1.225,-0.916 -1.25,-3.494 -2.474,-4.411c7.988,-8.493 8.623,-7.449 102.075,-102.693c63.104,-64.314 69.391,-57.121 72.826,-49.934c2.713,5.677 1.612,6.174 -1.675,16.507Z" style="fill:#fcda80;"/><path d="M221.339,677.835c25.542,6.656 25.536,5.637 50.705,14.874c2.51,0.921 2.861,-2.729 9.098,-0.968c8.029,1.486 14.285,6.077 49.563,10.561c37.806,4.805 56.818,13.137 128.359,18.315c1.027,0.074 15.186,1.099 12.004,5.873c-4.852,7.277 -119.032,-0.281 -156.705,-11.273c-7.481,-2.183 -7.829,-0.263 -8.982,0.145c-5.007,-5.303 -5.856,-8.869 -10.475,-2.873c-16.67,-21.871 -39.479,-13.551 -42.858,-12.319l-1.977,-2.206l-1.833,0.403l-1.833,-0.442c-15.766,-6.079 -19.123,-0.269 -29.407,-10.264c0.328,-0.799 0.396,-0.728 4.343,-9.826Z" style="fill:#fdefba;"/><path d="M526.398,745.637c3.078,1.619 2.82,2.019 5.907,3.106c10.19,3.588 9.588,15.805 18.113,15.927c-0.096,2.968 -0.192,5.935 -0.288,8.903c-4.658,19.94 -3.816,20.124 -4.361,21.784c-9.61,29.279 -30.003,22.32 -35.425,22.434c-9.449,-8.435 -10.01,-6.427 -12.877,-6.685c0.064,-3.418 0.573,-3.431 -0.513,-6.435c-3.032,-8.383 -3.083,-8.11 -5.17,-16.967c0.442,-0.866 0.885,-1.732 1.327,-2.597c10.564,-1.938 8.111,-5.912 8.071,-6.339c-0.091,-0.968 -0.242,-2.578 -5.885,-9.63c14.928,-27.195 19.916,-17.841 29.529,-21.613c0.165,-0.065 0,0 1.571,-1.887Z" style="fill:#f890b7;"/><path d="M523.182,138.639l1.883,1.392l1.043,0.964l-0.104,2.328l-0.421,2.328l-0.57,2.328l0.209,2.328l-0.332,2.328c-7.07,32.298 -25.993,45.435 -40.764,85.568c-13.443,29.649 -10.83,31.328 -26.344,59.222c-9.712,17.463 -7.911,18.754 -23.258,45.377c-34.242,59.4 -43.885,70.401 -48.454,75.612c-3.753,4.281 -11.306,15.406 -11.336,15.418c-1.081,0.446 -1.614,-3.098 -2.696,-2.652c22.622,-43.235 101.641,-170.31 151.143,-292.539Z" style="fill:#fcd96b;"/><path d="M196.758,818.502c0.925,-0.751 1.838,-6.421 19.826,3.28c10.646,5.742 22.796,17.314 55.712,23.419c10.897,2.021 16.965,9.498 29.104,7.879c8.207,-1.095 7.747,4.358 86.212,15.913c27.804,4.095 37.929,7.551 58.593,10.274c12.053,1.588 11.811,4.686 12.931,12.007c-128.156,-10.69 -241.614,-52.712 -262.379,-72.772Z" style="fill:#fce9b5;"/><path d="M277.397,725.41c0.211,1.115 -0.874,3.262 4.192,8.094c1.942,-3.141 2.131,-2.804 3.311,-6.475c2.666,4.279 2.527,4.145 4.561,9.05c-0.185,0.45 -2.313,5.619 -2.313,5.619c0.667,3.471 0.515,3.276 0.58,6.628c0.089,4.616 -0.066,4.557 -1.794,8.731c-12.536,30.275 -20.983,18.739 -33.812,21.89c-1.847,3.535 -1.849,4.309 -1.85,4.732c-0.014,4.858 -1.801,3.87 -2.231,4.795c-14.652,-14.402 -13.174,-28.394 -13.466,-37.595c0.729,0.442 8.269,5.015 9.584,4.044c0.195,-0.144 4.904,-18.614 5.218,-20.435l-0.1,-5.257c4.277,-4.473 4.028,-4.871 6.425,-5.905c18.756,-8.092 19.173,-2.558 21.698,2.084Z" style="fill:#f78fb6;"/><path d="M331.997,211.071c14.849,48.579 36.921,28.983 36.479,39.227c-0.125,2.901 -32.982,4.421 -37.256,39.82c-0.09,0.743 -2.283,18.909 -4.673,7.289c-0.191,-0.927 -1.216,-19.916 -12.29,-33.079c-12.614,-14.995 -27.503,-10.207 -24.901,-15.865c1.245,-2.707 30.239,-2.452 35.74,-37.686c0.144,-0.922 3.948,-25.288 5.682,-9.281c0.543,5.009 0.607,4.769 1.219,9.575Z" style="fill:#fed56d;"/><path d="M1000.148,628.142c-29.329,21.82 -14.302,40.855 -22.256,40.726c-5.464,-0.088 3.986,-33.14 -31.238,-45.833c-7.65,-2.757 -6.451,-4.959 -6.016,-5.469c1.807,-2.115 24.073,0.981 33.651,-31.969c0.823,-2.833 2.217,-17.189 5.286,-13.816c1.624,1.785 -0.006,31.733 27.692,43.876c8.315,3.645 18.189,0.772 10.667,6.545c-1.259,0.966 -1.68,-1.563 -17.787,5.94Z" style="fill:#fed26c;"/><path d="M779.61,728.219c0.103,-1.289 -1.808,-1.94 -1.705,-3.229c0.078,-0.984 20.637,-6.843 25.108,-3.27c13.745,10.986 11.226,13.964 17.392,30.586c-5.588,5.992 -13.202,33.807 -33.217,25.474c-3.934,-1.638 -8.893,-16.887 -13.431,-22.823c3.67,-25.112 12.113,-24.786 8.353,-27.492c-0.745,-0.536 -1.755,1.291 -2.5,0.754Z" style="fill:#f98ab3;"/><path d="M778.13,154.849c7.783,5.505 7.634,5.649 16.254,7.995c12.307,3.348 -3.086,5.782 -3.548,5.855c-22.252,3.518 -25.639,33.298 -26.088,37.244c-0.439,3.859 -3.3,3.215 -3.697,0.674c-3.376,-21.642 -6.99,-31.937 -28.654,-38.395c-12.457,-3.714 1.361,-5.817 1.754,-5.877c25.155,-3.83 26.128,-42.732 29.273,-42.524c4.699,0.311 -2.584,16.514 14.706,35.028Z" style="fill:#fdd371;"/><path d="M554.296,757.879c23.328,52.283 -19.205,96.224 -53.315,72.729c0.002,-0.035 2.043,-2.289 0.228,-5.278c-0.384,-0.632 -1.491,-2.457 -5.891,-6.607c-6.96,-6.566 0.582,-6.95 2.149,-7.617c2.866,0.259 3.428,-1.75 12.877,6.685c5.422,-0.114 25.815,6.845 35.425,-22.434c0.545,-1.66 -0.297,-1.843 4.361,-21.784c0.096,-2.968 0.192,-5.935 0.288,-8.903c1.5,-3.942 1.374,-3.814 3.878,-6.79Z" style="fill:#ed709e;"/><path d="M526.398,745.637c-0.315,-2.15 -0.63,-4.3 -0.945,-6.45c-2.127,0.319 -1.943,0.543 -4.055,0.609c-5.849,0.181 -5.014,5.038 -9.167,3.845c-0.9,-0.259 -5.63,-1.618 -10.786,5.167c-10.576,13.916 -13.265,12.887 -14.163,32.376c-1.059,1.876 -1.88,0.344 -2.944,2.228c-1.158,2.051 0.819,0.683 2.422,2.02c2.396,1.666 2.24,1.922 5.025,2.273c2.087,8.857 2.138,8.584 5.17,16.967c1.086,3.003 0.577,3.016 0.513,6.435c-1.567,0.668 -9.109,1.051 -2.149,7.617c4.399,4.15 5.507,5.975 5.891,6.607c1.815,2.989 -0.226,5.243 -0.228,5.278c-8.172,-7.202 -8.395,-6.806 -10.64,-10.095c-35.074,-51.382 24.755,-127.431 63.955,-62.634c-2.504,2.976 -2.378,2.849 -3.878,6.79c-8.525,-0.122 -7.923,-12.339 -18.113,-15.927c-3.087,-1.087 -2.829,-1.487 -5.907,-3.106Z" style="fill:#fbbbcd;"/><path d="M277.397,725.41c-2.525,-4.642 -2.943,-10.177 -21.698,-2.084c-2.396,1.034 -2.147,1.432 -6.425,5.905c0.033,1.752 0.067,3.505 0.1,5.257c-0.314,1.821 -5.022,20.291 -5.218,20.435c-1.314,0.971 -8.855,-3.602 -9.584,-4.044c4.726,-65.924 76.221,-47.666 59.585,20.938c-0.42,-1.566 -0.841,-3.133 -1.261,-4.699c-1.561,-15.667 0.483,-15.962 -3.437,-31.039c-2.034,-4.905 -1.894,-4.771 -4.561,-9.05c-3.522,-2.463 -3.483,-2.518 -7.503,-1.618Z" style="fill:#fcd1e1;"/><path d="M289.461,736.078c3.92,15.077 1.876,15.372 3.437,31.039c0.42,1.566 0.841,3.133 1.261,4.699c-6.155,15.21 -8.734,15.928 -18.066,21.888c-6.26,-5.928 -7.13,-3.683 -13.211,1.725c-7.995,-1.635 -7.736,-2.243 -14.842,-6.956c0.431,-0.925 2.218,0.062 2.231,-4.795c0.001,-0.423 0.003,-1.197 1.85,-4.732c12.829,-3.152 21.276,8.384 33.812,-21.89c1.728,-4.174 1.883,-4.115 1.794,-8.731c-0.065,-3.352 0.087,-3.157 -0.58,-6.628c-0,-0 2.128,-5.169 2.313,-5.619Z" style="fill:#ed6d9e;"/><path d="M221.339,677.835c-3.948,9.098 -4.015,9.026 -4.343,9.826c-7.058,2.319 -6.857,2.325 -14.1,3.966c-1.426,-1.087 -2.852,-2.173 -4.278,-3.26c-0.484,-0.608 -5.474,-6.877 -4.295,-9.333c1.269,-2.642 1.696,-2.056 2.625,-4.893c0.975,-2.979 1.071,-3.305 3.687,-3.112c3.704,0.274 3.513,-0.569 7.268,-1.177l1.833,0.685l1.833,0.987c4.94,3.089 4.787,2.925 9.769,6.311Z" style="fill:#fef8e5;"/><path d="M526.398,745.637c-1.571,1.887 -1.406,1.822 -1.571,1.887c-9.613,3.772 -14.601,-5.582 -29.529,21.613c-1.112,2.627 -3.27,5.669 -2.186,15.969c-0.442,0.866 -0.885,1.732 -1.327,2.597c-2.784,-0.351 -2.628,-0.607 -5.025,-2.273c0.174,-1.416 0.348,-2.832 0.522,-4.247c0.898,-19.489 3.587,-18.46 14.163,-32.376c5.156,-6.785 9.887,-5.425 10.786,-5.167c4.153,1.194 3.318,-3.664 9.167,-3.845c2.112,-0.065 1.928,-0.289 4.055,-0.609c0.315,2.15 0.63,4.3 0.945,6.45Z" style="fill:#fde0ea;"/><path d="M710.773,758.792c17.942,10.836 1.189,35.917 -10.211,20.001l-0.276,-4.663c2.786,-6.809 2.626,-6.836 10.487,-15.338Z" style="fill:#ed9135;"/><path d="M550.749,720.659c27.586,-1.828 47.289,-2.906 51.083,0.176c-8.105,7.996 -9.102,4.003 -43.88,4.778c-4.484,0.1 -4.345,-0.66 -7.204,-4.954Z" style="fill:#fde7a3;"/><path d="M112.762,493.892c-4.73,-3.572 -9.095,-8.152 -4.088,-17.933c10.089,-19.709 20.172,17.288 4.088,17.933Z" style="fill:#fed878;"/><path d="M618.897,790.33c-3.289,21.238 -18.678,-3.334 -7.472,-15.891c0.517,-0.58 5.347,-5.992 8.622,-0.002c2.555,4.673 -1.278,4.962 -1.15,15.892Z" style="fill:#f1a143;"/><path d="M243.059,178.729c0.318,-0.371 3.382,-3.955 5.018,-2.521c8.763,7.683 9.696,11.411 1.869,20.46c-2.092,2.418 -20.099,-2.763 -6.887,-17.939Z" style="fill:#fedf87;"/><path d="M422.258,794.921c-13.414,17.404 -13.827,-29.687 -2.006,-20.101c6.621,5.37 2.478,18.595 2.006,20.101Z" style="fill:#e69d4d;"/><path d="M1020.4,546.511c-9.777,9.414 -16.631,-10.712 -5.766,-16.643c1.943,-1.061 15.774,3.376 5.766,16.643Z" style="fill:#fed675;"/><path d="M933.995,538.896c-1.692,-4.431 -3,-4.423 -1.165,-8.68c3.184,-7.391 5.842,-7.219 6.532,-7.175c9.82,0.633 11.005,31.167 -5.367,15.855Z" style="fill:#fed477;"/><path d="M350.002,768.581c-1.925,7.921 1.492,11.164 -4.743,13.429c-0.882,-0.49 -9.397,-5.219 -4.496,-14.179c4.094,-7.485 7.622,-7.982 9.239,0.75Z" style="fill:#f3ae40;"/><path d="M327.091,548.288c-0.502,-2.724 -3.404,-4.047 -3.906,-6.772c-0.263,-1.43 4.662,-7.167 5.131,-7.713c2.109,-2.457 8.777,-14.221 8.35,0.661c-0.225,7.869 -6.485,10.952 -9.575,13.824Z" style="fill:#fde165;"/><path d="M779.61,728.219c0.745,0.536 1.755,-1.291 2.5,-0.754c3.76,2.706 -4.683,2.38 -8.353,27.492c-2.766,0.517 -2.837,0.76 -5.154,-1.437l1.025,-2.695c1.622,-15.4 8.631,-21.441 9.982,-22.606Z" style="fill:#fdcde1;"/><path d="M527.252,622.372c6.945,13.164 -6.528,19.604 -8.146,7.525c-0.009,-0.07 -0.221,-15.246 8.146,-7.525Z" style="fill:#fefdfd;"/><path d="M777.726,788.717c0.574,-1.35 2.19,-1.628 2.765,-2.979c0.815,-1.917 -0.267,-1.578 -2.808,-3.971c-0.305,-0.287 -3.327,-3.132 -3.41,-4.178c-0.066,-0.833 1.215,-0.891 1.491,-1.651c0.197,-0.541 -0.021,-1.24 -0.249,-1.761c-1.125,-2.568 -4.436,-0.157 -2.947,-2.385c3.005,-4.497 5.666,0.871 5.923,1.389c0.767,1.547 4.607,5.338 5.153,7.897c2.508,11.749 2.228,12.01 1.578,12.613c-0.49,0.455 -1.216,-1.266 -1.706,-0.811c-2.981,-2.014 -2.904,-1.795 -5.789,-4.163Z" style="fill:#f888b3;"/><path d="M270.753,363.321c9.226,8.317 9.284,7.954 18.151,16.94c-5.146,2.963 -5.097,0.469 -9.744,-3.623c-3.349,-2.949 -3.506,-2.378 -6.908,-5.48c-5.852,-5.335 -1.521,-7.524 -1.498,-7.836Z" style="fill:#d59443;"/><path d="M785.513,622.484c-0.571,-0.571 -7.659,-7.662 1.711,-11.33c6.587,-2.579 11.324,14.032 -1.711,11.33Z" style="fill:#fef6e2;"/><path d="M495.298,769.137c5.643,7.053 5.794,8.662 5.885,9.63c0.04,0.427 2.493,4.401 -8.071,6.339c-1.084,-10.3 1.074,-13.342 2.186,-15.969Z" style="fill:#fda5c4;"/><path d="M650.851,780.586c8.607,-10.48 6.847,5.331 6.774,5.579c-2.094,7.049 -11.366,6.636 -6.774,-5.579Z" style="fill:#fef4c7;"/><path d="M387.797,778.246c7.408,9.634 -5.976,14.736 -6.554,5.278c-0.392,-6.404 1.585,-5.575 6.554,-5.278Z" style="fill:#fefefb;"/><path d="M270.056,620.576c-0.01,-0.027 -3.997,-4.953 0.248,-3.761c10.616,2.981 12.267,3.294 11.369,8.514c-1.315,7.643 -11.434,-4.604 -11.617,-4.753Z" style="fill:#fef3d5;"/><path d="M350.002,768.581c5.804,4.789 5.58,6.411 2.426,14.353c-1.974,4.973 -2.915,0.852 -7.169,-0.925c6.235,-2.265 2.818,-5.508 4.743,-13.429Z" style="fill:#fcde86;"/><path d="M869.924,722.507c0.688,0.35 10.523,4.118 -0.905,11.041c-0.45,-0.732 -5.079,-8.259 -0.899,-11.556c0.524,-0.413 1.281,0.928 1.805,0.515Z" style="fill:#edceac;"/><path d="M214.318,427.115c-0,-0.552 -0,-5.868 0.13,-6.897c0.873,-6.908 5.932,-4.425 4.974,2.553c-1.056,7.7 -0.578,8.12 -1.099,8.187c0,0 -3.685,-3.536 -4.005,-3.843Z" style="fill:#fee67e;"/><path d="M276.092,793.705c-6.408,2.545 -6.402,1.881 -13.211,1.725c6.081,-5.408 6.951,-7.653 13.211,-1.725Z" style="fill:#e48ba4;"/><path d="M206.246,753.8c4.165,1.979 4.818,2.83 3.297,8.185c-5.95,-0.018 -7.848,-3.54 -3.297,-8.185Z" style="fill:#fdfbf3;"/><path d="M277.397,725.41c4.02,-0.9 3.981,-0.845 7.503,1.618c-1.18,3.672 -1.369,3.334 -3.311,6.475c-5.065,-4.831 -3.981,-6.979 -4.192,-8.094Z" style="fill:#fdb3d3;"/><path d="M849.461,729.936c0.115,-4.034 -1.218,-5.957 1.946,-5.98c3.508,-0.025 4.437,14.949 -1.946,5.98Z" style="fill:#fcd897;"/><path d="M528.045,397.651c-2.577,-9.901 4.018,-4.779 4.494,-3.027c2.318,8.521 -4.151,3.304 -4.494,3.027Z" style="fill:#fefced;"/><path d="M163.732,285.264l3.917,4.623c-3.28,0.073 -3.405,-0.594 -3.917,-4.623Z" style="fill:#fde383;"/><path d="M438.14,354.629c0.028,1.216 1.783,1.617 1.811,2.832c0.008,0.346 -0.143,0.264 -1.935,3.559c0.041,-2.13 0.082,-4.261 0.124,-6.391Z" style="fill:#fdf3cc;"/><path d="M487.283,781.183c-0.174,1.416 -0.348,2.832 -0.522,4.247c-1.602,-1.336 -3.58,0.031 -2.422,-2.02c1.063,-1.883 1.884,-0.351 2.944,-2.228Z" style="fill:#fcbfd1;"/></g></svg>