<?xml version="1.0" encoding="UTF-8" standalone="no"?><!DOCTYPE svg PUBLIC "-//W3C//DTD SVG 1.1//EN" "http://www.w3.org/Graphics/SVG/1.1/DTD/svg11.dtd"><svg width="1024" height="1024" viewBox="0 0 1024 1024" version="1.1" xmlns="http://www.w3.org/2000/svg" xmlns:xlink="http://www.w3.org/1999/xlink" xml:space="preserve" xmlns:serif="http://www.serif.com/" style="fill-rule:evenodd;clip-rule:evenodd;stroke-linejoin:round;stroke-miterlimit:2;"><g id="Background"><path d="M334.756,375.958c-4.093,-39.729 14.508,-45.329 14.097,-52.176c-0.471,-7.855 -3.087,-51.481 12.564,-97.091c30.391,-88.567 92.86,-114.682 93.637,-115.138c5.023,-2.95 -0.692,-21.001 -4.471,-53.288c-2.138,-18.264 -5.028,-29.887 0.994,-32.866c6.591,-3.26 36.985,31.024 40.58,33.134c6.968,4.089 21.927,-60.204 33.219,-58.499c8.066,1.218 23.726,47.892 31.054,59.369c2.222,3.48 34.618,-31.881 40.43,-34.613c12.441,-5.849 6.852,20.261 2.231,60.377c-2.073,18.002 -4.474,21.507 4.319,26.369c6.205,3.43 45.25,25.018 68.089,65.033c35.883,62.869 36.514,103.117 36.601,143.776c0.008,3.713 6.747,6.147 12.357,16.961c16.391,31.595 -3.118,61.887 -5.726,65.936c-2.269,3.524 0.084,16.956 3.835,27.684c12.856,36.769 40.313,-0.465 41.236,28.896c2.965,94.388 -51.989,98.329 -50.326,107.403c5.683,31.01 10.602,40.491 -4.86,81.071c-1.927,5.057 9.375,23.563 14.269,41.823c21.382,79.79 -13.951,99.013 -15.99,102.412c-2.349,3.915 21.593,39.574 41.975,103.968c10.088,31.872 15.205,41.687 6.265,50.221c-21.649,20.667 -51.527,35.634 -56.255,38.003c-211.559,105.978 -379.443,-34.569 -384.617,-48.183c-1.043,-2.745 -1.972,-5.189 8.226,-36.805c47.967,-148.708 105.116,-180.698 110.599,-191.861c1.137,-2.314 -0.962,-40.237 -1.345,-41.768c-1.121,-4.486 -18.609,1.45 -37.322,-12.054c-8.302,-5.991 -8.874,-3.139 -18.193,-5.625c-31.214,-8.331 -40.407,-21.868 -44.749,-19.554c-3.29,1.754 -22.863,12.186 -44.347,1.799c-30.235,-14.619 -22.514,-39.44 -27.391,-51.251c-7.436,-18.009 -6.908,-18.99 -3.19,-38.965c0.528,-2.838 -2.366,-9.698 -1.928,-18.558c1.471,-29.771 28.936,-34.911 31.058,-35.51c7.196,-2.029 12.591,0.397 9.131,-8.219c-9.847,-24.517 -8.994,-63.972 11.253,-72.465c20.694,-8.68 26.124,30.07 27.571,35.871c4.048,16.231 21.566,-30.086 16.943,-36.966c-10.401,-15.478 -9.16,-16.487 -11.821,-28.651Z" style="fill:#603a32;"/><path d="M442.171,725.815c4.142,2.788 4.012,2.865 8.205,5.748c-0.336,0.593 0.092,1.603 -0.244,2.196c-4.283,7.555 -36.555,44.562 -53.78,112.273c-0.169,0.664 -3.668,14.419 1.5,8.531c4.106,-4.677 13.633,-46.505 41.07,-78.619c7.542,-7.75 38.943,-43.208 39.259,-5.416c0.002,0.249 -0.042,0.224 -0.566,3.017c-19.215,56.229 -25.689,84.581 -33.036,151.44c-2.858,26.009 -1.4,26.854 0.143,27.748c5.031,2.915 3.195,-23.364 19.086,-93.321c13.447,-59.197 24.917,-82.197 33.525,-100.616c14.069,7.058 28.541,17.649 30.937,19.403c17.037,12.468 17.906,3.626 35.441,-7.519c1.451,4.281 1.42,4.267 1.567,4.623c38.847,94.378 42.035,167.005 46.001,170.941c3.518,3.491 2.313,-10.202 2.233,-11.116c-9.462,-107.573 -24.434,-120.383 -23.397,-130.995c1.365,-13.977 -0.746,-13.994 -0.384,-25.173c1.034,-31.925 48.536,4.069 68.876,65.178c3.946,11.855 6.11,2.547 6.037,1.963c-3.757,-29.973 -34.478,-81.117 -38.283,-87.45c2.623,-0.786 3.674,-1.254 15.611,19.79c37.187,65.557 52.32,149.833 62.007,186.832c-125.19,72.104 -272.901,52.586 -367.551,-21.117c4.616,-29.458 30.196,-111.011 61.93,-161.298c27.506,-43.588 39.637,-53.598 43.814,-57.045Z" style="fill:#ee8ca4;"/><path d="M675.309,316.9c4.485,53.743 -3.914,80.023 -11.553,104.59c-0.533,0.506 -1.421,-0.836 -1.954,-0.33c-1.143,1.085 -5.194,10.579 -13.815,23.626c-63.098,95.491 -193.974,76.873 -250.029,-40.423l-1.175,-1.68l-1.053,-1.68l-2.19,1.929c-5.597,-22.74 -8.655,-31.433 -9.17,-70.78c6.069,-4.685 6.63,-1.104 24.887,-3.857c99.05,-14.936 133.604,-88.005 137.821,-93.604c2.735,-3.631 8.156,14.358 21.011,29.461c45.675,53.662 89.671,53.279 102.741,54.687c3.232,0.348 2.865,-1.241 4.479,-1.94Z" style="fill:#f4dcba;"/><path d="M593.974,140.61c1.08,-10.72 1.41,-18.904 4.045,-17.807c6.829,2.843 42.706,25.543 63.184,59.242c1.028,1.691 26.452,36.694 34.771,96.434c0.426,3.058 5.45,39.138 0.405,38.864c-8.675,-0.471 -9.928,-0.913 -11.926,-11.941c-2.41,-13.303 -17.36,0.504 -59.232,-27.73c-48.519,-32.716 -65.67,-82.46 -68.913,-91.866c-4.884,-14.167 -11.733,0.383 -12.251,1.484c-34.974,74.303 -93.761,97.665 -124.48,106.562c-29.388,8.511 -41.393,-1.042 -43.015,13.166c-0.785,6.877 0.172,7.641 -1.96,9.263c-0.962,0.732 -0.994,-0.02 -13.792,2.189c-7.16,1.236 1.667,-53.791 3.052,-60.046c3.005,-13.569 20.631,-93.177 89.073,-132.145c0.464,-0.264 5.853,-3.332 6.285,-0.857c1.48,8.477 1.221,8.381 2.131,16.914c1.142,11.343 2.357,13.024 23.222,18.509c54.986,14.455 105.458,-4.781 108.173,-13.642c0.154,-0.504 0.091,-0.488 1.228,-6.594Z" style="fill:#b87359;"/><path d="M623.239,612.782c2.957,15.027 9.265,37.475 8.04,85.525c-0.551,21.615 -5.753,18.739 -20.607,27.991c-26.166,16.296 -41.303,21.713 -67.742,41.787c-4.237,3.217 -4.015,-1.581 -32.832,-17.718c-56.748,-31.778 -61.46,-36.088 -66.26,-40.477c-2.327,-2.129 -2.745,-2.655 -4.273,-38.43c-0.039,-0.92 -0.426,-9.971 1.809,-11.265c9.22,-5.34 26.656,-11.519 40.18,-47.859c13.165,-35.374 2.108,-69.666 0.322,-75.205c-2.055,-6.372 1.431,-4.976 6.589,-3.884c8.076,1.71 -5.12,21.129 14.218,48.842c21.115,30.26 93.18,32.726 95.51,-38.306c0.251,-7.663 -0.973,-8.707 1.259,-9.914c0.097,-0.052 10.431,0.056 11.344,3.239c1.507,5.254 0.807,19.44 12.441,75.675Z" style="fill:#e87d9e;"/><path d="M613.714,741.113c1.492,-0.886 15.521,-9.219 18.427,-11.718c2.68,-2.305 2.674,-4.445 5.336,-2.106c37.012,32.515 67.806,99.264 72.377,109.172c17.862,38.718 34.59,93.116 34.821,97.029c0.4,6.797 -37.259,29.695 -40.696,31.785c-9.686,-37 -24.819,-121.275 -62.007,-186.832c-11.937,-21.044 -12.988,-20.576 -15.611,-19.79c-5.345,-8.811 -5.239,-8.825 -11.357,-16.673l-1.289,-0.866Z" style="fill:#e67393;"/><path d="M692.572,417.897c-9.471,73.322 33.745,84.107 54.757,53.582c1.331,-1.933 1.418,-1.601 2.9,-3.273c1.976,24.382 -10.073,57.713 -27.347,71.597c-17.018,13.678 -19.986,12.224 -22.148,8.452c-19.383,-33.814 -55.468,-44.822 -80.787,-30.877c-10.045,5.533 -10.556,0.814 -9.907,0.215c5.132,-4.739 31.583,-14.131 58.098,-74.7c5.032,-11.495 7.382,-25.378 11.643,-25.198c6.525,0.276 6.382,0.237 12.792,0.202Z" style="fill:#7b4e37;"/><path d="M675.309,316.9c-1.614,0.699 -1.247,2.289 -4.479,1.94c-13.07,-1.408 -57.066,-1.025 -102.741,-54.687c-12.855,-15.103 -18.276,-33.092 -21.011,-29.461c-4.218,5.599 -38.771,78.668 -137.821,93.604c-18.257,2.753 -18.818,-0.828 -24.887,3.857c0.262,-5.142 -1.203,-19.305 4.541,-19.886c8.633,-0.873 72.649,-2.759 130.602,-66.738c29.145,-32.176 27.375,-52.204 32.859,-39.5c35.083,81.281 101.467,100.721 112.177,103.857c9.689,2.837 9.658,2.82 9.69,2.849c0.988,0.901 0.606,1.161 1.072,4.165Z" style="fill:#f1bf9f;"/><path d="M295.449,458.216c0.528,-0.883 1.057,-1.766 1.585,-2.649l1.534,0.867l0.585,1.68c7.006,14.152 7.727,13.469 19.392,20.732c2.859,1.78 4.8,5.888 11.173,8.329c27.028,37.124 27.063,42.823 28.257,75.22c0.147,3.982 1.448,1.579 1.565,1.583c0.27,0.01 2.673,2.69 2.997,3.517c0.171,0.437 -0.36,1.016 -0.189,1.452c1.903,3.179 2.713,2.852 4.591,-0.259c2.711,-4.494 3.983,-24.42 4.121,-26.582c0.196,-3.074 1.617,-4.496 29.132,4.013c0.061,1.087 0.122,2.174 0.183,3.26l1.276,1.16c2.572,2.769 22.364,24.075 13.436,51.731c-9.802,30.363 -56.032,5.597 -56.934,5.217c4.031,-7.908 4.783,-7.45 6.412,-16.704c1.415,-8.04 -0.45,-10.978 -0.453,-10.98c-3.528,-2.364 -1.962,1.777 -3.132,7.71c-3.307,16.782 -27.021,34.905 -25.648,26.813c1.692,-9.977 1.608,-10.053 -0.174,-20.114c-1.009,-5.696 9.816,-13.711 1.213,-33.471c-3.675,-8.441 8.554,-14.923 -4.484,-35.877c-2.968,-4.77 8.672,-34.439 -19.616,-39.085c-7.486,-1.23 -10.457,-0.184 -16.822,-27.564Z" style="fill:#f2d7bd;"/><path d="M501.509,447.763c-1.134,-3.054 -8.49,-22.854 -5.797,-41.804c5.504,-38.736 28.619,17.009 75.755,-12.979c21.861,-13.908 18.132,75.722 -25.702,81.41c-29.61,3.842 -39.727,-18.737 -44.256,-26.626Z" style="fill:#6d3b3d;"/><path d="M312.39,494.627l-1.322,2.152c0.016,0.65 -0.811,0.997 -0.796,1.647c0.112,4.696 4.52,10.998 -4.21,13.948c-4.625,1.563 -9.547,10.718 -10.176,11.887c-0.759,0.261 -9.114,3.138 -9.238,4.329c-0.269,2.569 2.471,2.21 2.725,2.177c10.347,-1.355 10.218,-1.312 21.697,-1.889l0.352,1.461l1.164,1.68c6.637,11.503 4.298,14.676 -5.345,21.456c-0.368,0.258 -0.375,0.002 -5.103,1.382l-1.276,1.11l-1.276,0.606l-1.257,2.442c-5.778,1.721 -5.84,1.431 -6.236,1.857c-4.06,4.374 1.991,2.54 29.185,1.217l-1.46,1.843c-0.305,0.791 -1.262,0.889 -1.567,1.68c-0.723,1.875 6.701,7.116 -6.03,16.442c-2.492,1.825 -7.201,4.926 -7.531,6.192c-0.221,0.847 1.437,1.312 1.215,2.159c-31.849,6.008 12.936,5.293 14.109,5.274l-0.373,1.847c-0.857,15.963 -5.523,19.377 -20.055,20.263l-1.276,0.128l-1.276,-0.069l-1.276,0.395l-1.276,0.009l-1.276,-0.44l-1.276,-0.3l-1.276,-0.016l-1.418,2.548c-22.034,-9.883 -22.578,-21.249 -21.206,-35.91c0.678,-7.241 -10.762,-17.572 -8.115,-30.312c2.276,-10.954 4.003,-11.072 1.341,-21.778c-9.664,-38.878 46.453,-37.528 51.132,-37.416Z" style="fill:#f2dbbe;"/><path d="M530.17,28.385c21.1,46.198 22.077,51.596 29.464,46.263c4.032,-2.911 32.124,-31.312 33.299,-30.92c1.752,0.585 0.711,1.78 -5.945,56.775l-1.62,0.249c-56.012,20.185 -108.131,5.374 -109.703,5.053c-1.121,-5.457 -8.12,-47.884 -4.379,-44.678c0.77,0.66 0.239,1.251 8.585,10.038c1.379,1.451 16.171,13.427 18.615,14.502c9.222,4.055 11.055,-13.197 26.105,-47.106c2.452,-5.525 1.834,-6.077 5.577,-10.175Z" style="fill:#f0cf60;"/><path d="M393.54,402.933l2.19,-1.929l1.053,1.68l1.175,1.68c56.055,117.295 186.931,135.914 250.029,40.423c8.621,-13.047 12.671,-22.541 13.815,-23.626c0.533,-0.506 1.421,0.836 1.954,0.33c-46.527,149.746 -221.35,135.305 -268.35,-12.16c-0.671,-2.106 -1.195,-4.291 -1.866,-6.398Z" style="fill:#f2bfa1;"/><path d="M613.714,741.113l1.289,0.866c6.118,7.848 6.013,7.862 11.357,16.673c3.805,6.334 34.526,57.477 38.283,87.45c0.073,0.584 -2.091,9.892 -6.037,-1.963c-20.341,-61.108 -67.842,-97.103 -68.876,-65.178c-0.362,11.179 1.75,11.196 0.384,25.173c-1.036,10.612 13.935,23.422 23.397,130.995c0.08,0.914 1.285,14.607 -2.233,11.116c-3.965,-3.936 -7.154,-76.563 -46.001,-170.941c-0.147,-0.356 -0.116,-0.342 -1.567,-4.623c3.923,-2.58 12.265,-8.065 50.003,-29.568Z" style="fill:#da5f80;"/><path d="M381.255,526.685l1.258,-2.02c9.276,-8.796 20.495,-19.328 44.71,-14.875c20.939,3.851 29.926,26.479 40.011,23.684l0.735,1.916l-1.713,1.668l-0.487,1.68l0.417,1.68l1.113,1.68l0.321,1.68l0.761,1.68l0.174,1.68l0.3,1.68c-0.056,5.664 -0.482,48.869 -31.836,57.074c7.278,-73.909 -49.132,-77.92 -55.765,-79.205Z" style="fill:#ec87a5;"/><path d="M442.171,725.815c-4.177,3.447 -16.308,13.457 -43.814,57.045c-31.734,50.287 -57.314,131.84 -61.93,161.298c-6.046,-4.678 -5.992,-4.448 -11.781,-9.859c-3.867,-3.614 -3.724,-5.001 0.454,-19.313c22.087,-75.664 58.477,-145.567 103.787,-188.99c6.02,-5.769 6.776,-4.814 13.285,-0.18Z" style="fill:#f1bbcc;"/><path d="M504.675,560.72c-1.203,-5.203 -1.673,-4.99 -1.889,-10.265c-0.403,-9.815 -1.361,-14.365 5.943,-12.748c52.083,11.533 74.923,-9.421 76.873,-4.218c5.281,14.089 -3.907,59.371 -46.181,54.233c-26.349,-3.202 -32.15,-21.238 -34.746,-27.002Z" style="fill:#f2c9aa;"/><path d="M575.098,109.851c1.984,0.327 1.914,0.438 3.95,0.169c0.427,0.129 4.939,1.49 4.671,3.758c-0.114,0.965 -1.297,1.301 -1.411,2.267c-14.936,-10.515 -22.375,17.735 -7.136,22.319c4.969,-0.898 4.78,-1.678 8.376,-6.421c2.197,3.914 3.322,4.227 1.298,8.349c-2.427,4.943 -31.232,10.968 -34.007,11.549c-6.106,0.749 -47.072,5.772 -76.521,-5.925c-3.527,-1.401 -4.318,-6.343 -4.099,-6.791c0.486,-0.993 1.569,-1.297 2.055,-2.29c9.001,9.534 16.486,0.896 15.724,-11.132c2.267,-2.345 2.267,-2.308 2.449,-2.532c0.427,-0.527 -0.016,-0.725 0.405,-1.245c14.709,-15.119 20.294,1.771 22.222,3.195c2.514,1.857 12.068,-19.685 25.338,-1.637c0.209,0.196 0.678,4.07 2.295,0.364c10.079,-18.9 20.702,-4.241 23.115,-3.2c2.276,0.982 -0.618,-10.541 11.276,-10.797Z" style="fill:#b2774b;"/><path d="M625.858,529.663c1.907,3.101 1.807,3.103 4.126,5.778c14.08,18.277 0.697,56.47 44.686,61.382c6.496,0.726 15.283,-5.495 16.494,-6.352c3.681,-2.606 3.741,-0.256 5.287,0.347c-2.046,42.896 -37.865,44.713 -48.431,39.796c-7.184,-3.343 -6.769,-4.415 -7.417,-4.533c-0.218,-0.04 -0.185,0.112 -2.494,1.514c-0.102,-0.537 -18.404,-90.987 -15.72,-95.558c0.659,-1.122 3.174,-2.243 3.47,-2.375Z" style="fill:#ea7b9c;"/><path d="M369.91,420.812c7.231,-0.383 13.961,-0.013 15.174,0.053c7.306,0.401 0.482,10.707 34.897,58.777c3.318,4.634 -6.131,2.761 -13.15,4.195c-24.114,4.925 -36.391,22.878 -37.456,23.982c-2.655,2.749 -1.825,-1.84 -16.145,-22.978c17.013,-17.137 16.234,-27.212 16.679,-64.029Z" style="fill:#7e5038;"/><path d="M694.227,563.585c29.116,63.191 -17.233,115.932 -48.74,107.012c-6.249,-1.769 -1.951,-6.155 -7.379,-43.001c2.309,-1.402 2.277,-1.554 2.494,-1.514c0.648,0.118 0.233,1.19 7.417,4.533c10.567,4.917 46.385,3.1 48.431,-39.796c-0.381,-3.933 -0.762,-7.867 -1.144,-11.8c-0.727,-6.153 -0.119,-6.252 -2.217,-11.726l-0.649,-1.68l1.786,-2.028Z" style="fill:#da618a;"/><path d="M706.47,764.476c-25.028,-0.664 -27.678,-28.777 -30.805,-45.906c-5.24,-28.708 2.265,-27.408 18.494,-48.818l1.449,1.68l0.419,1.68c1.407,19.777 15.212,23.279 12.113,82.299c-0.397,7.554 -1.064,7.18 -1.67,9.065Z" style="fill:#f6e2c7;"/><path d="M693.979,666.607c0.06,1.049 0.121,2.098 0.181,3.146c-16.229,21.41 -23.733,20.11 -18.494,48.818c3.126,17.129 5.777,45.241 30.805,45.906c0.596,1.593 1.192,3.185 1.787,4.778c-8.558,13.812 -11.919,15.101 -18.953,3.955c-25.226,-39.971 -46.751,-56.186 -46.829,-61.424c-0.381,-25.852 1.246,-26.362 2.859,-26.292c25.745,1.122 29.63,-3.877 48.643,-18.887Z" style="fill:#f3bda3;"/><path d="M329.718,487.174c-6.372,-2.442 -8.313,-6.549 -11.173,-8.329c-11.666,-7.263 -12.386,-6.579 -19.392,-20.732l-0.585,-1.68l-1.534,-0.867c-0.528,0.883 -1.057,1.766 -1.585,2.649c-0.486,-3.476 -5.669,-40.533 11.826,-41.343c17.585,-0.814 -1.076,30.28 36.847,75.007c20.597,24.292 23.409,58.021 18.226,77.066c-0.171,-0.437 0.36,-1.016 0.189,-1.452c-0.323,-0.827 -2.726,-3.507 -2.997,-3.517c-0.117,-0.004 -1.418,2.399 -1.565,-1.583c-1.195,-32.397 -1.23,-38.097 -28.257,-75.22Z" style="fill:#f5e5d1;"/><path d="M629.983,535.442l1.314,-1.045c12.642,2.104 29.711,-0.466 53.242,38.219c1.781,2.927 0.211,18.139 10.767,6.403c0.381,3.933 0.762,7.867 1.144,11.8c-1.546,-0.603 -1.606,-2.953 -5.287,-0.347c-1.211,0.857 -9.998,7.078 -16.494,6.352c-43.988,-4.913 -30.605,-43.106 -44.686,-61.382Z" style="fill:#f2a5bc;"/><path d="M467.969,535.39c1.862,5.571 15.793,37.274 1.658,74.125c-15.025,39.173 -44.258,39.4 -53.872,39.583c-7.351,0.139 2.095,-5.112 3.611,-6.498c13.099,-11.973 17.032,-33.332 17.654,-36.71c31.354,-8.205 31.78,-51.41 31.836,-57.074l-0.3,-1.68l-0.174,-1.68l-0.761,-1.68l-0.321,-1.68l-1.113,-1.68l-0.417,-1.68l0.487,-1.68l1.713,-1.668Z" style="fill:#d96289;"/><path d="M692.572,417.897c7.591,-3.148 10.806,-8.594 12.441,1.663c8.674,54.418 43.137,41.041 44.358,42.582c0.917,1.158 0.493,1.285 0.858,6.064c-1.482,1.672 -1.569,1.34 -2.9,3.273c-21.012,30.525 -64.228,19.74 -54.757,-53.582Z" style="fill:#996443;"/><path d="M400.192,546.118c6.865,3.918 7.022,3.474 12.85,9.562c23.657,24.715 21.958,109.186 -57.198,73.29c-6.66,-3.02 -13.486,-5.5 -9.645,-8.608c6.694,-5.417 6.275,-5.892 11.954,-12.875c0.901,0.38 47.132,25.146 56.934,-5.217c8.928,-27.656 -10.864,-48.963 -13.436,-51.731l-1.276,-1.16c-0.061,-1.087 -0.122,-2.174 -0.183,-3.26Z" style="fill:#f1bca2;"/><path d="M488.376,753.827c4.549,2.438 4.476,2.275 8.958,4.97c-8.608,18.419 -20.078,41.419 -33.525,100.616c-15.891,69.957 -14.055,96.236 -19.086,93.321c-1.543,-0.894 -3.001,-1.739 -0.143,-27.748c7.347,-66.859 13.821,-95.211 33.036,-151.44c0.886,-1.28 1.276,-0.151 2.092,-1.332c0.151,-0.218 0.148,-0.214 1.153,-3.359c1.355,-4.241 4.217,-6.3 7.515,-15.027Z" style="fill:#d65a7c;"/><path d="M534.382,466.097c-2.692,-0.766 -12.383,-2.441 -21.54,-13.295c-8.2,-9.719 -4.502,-13.67 -3.781,-14.44c17.168,-18.34 64.985,-1.734 57.964,12.644c-8.533,17.475 -29.883,15.363 -32.643,15.09Z" style="fill:#ee919a;"/><path d="M369.91,420.812c-0.445,36.817 0.334,46.892 -16.679,64.029c-1.413,-1.613 -12.997,-14.84 -16.496,-21.814c-2.598,-5.177 0.986,-4.606 6.251,-11.6c9.103,-12.094 12.97,-32.468 13.229,-33.323c0.664,-2.192 1.351,-2.093 13.695,2.708Z" style="fill:#9a6541;"/><path d="M434.788,414.598c-28.416,-10.123 -6.749,-44.747 24.307,-30.498c18.365,8.426 11.825,38.56 -24.307,30.498Z" style="fill:#f2b9ad;"/><path d="M638.872,381.199c36.966,16.485 -2.382,47.223 -26.869,28.529c-12.513,-9.552 -3.284,-36.078 26.869,-28.529Z" style="fill:#f2b6ac;"/><path d="M530.17,28.385c-3.743,4.098 -3.125,4.65 -5.577,10.175c-15.05,33.909 -16.883,51.161 -26.105,47.106c-2.444,-1.075 -17.236,-13.05 -18.615,-14.502c-8.346,-8.787 -7.815,-9.378 -8.585,-10.038c-3.742,-3.207 3.257,39.221 4.379,44.678c-5.66,-1.143 -5.625,-1.124 -6.113,-1.235c-0.903,-0.206 -0.77,-0.461 -1.726,-0.679c-2.175,-7.264 -7.466,-47.952 -8.012,-52.148c-2.026,-15.582 5.02,-1.274 14.931,7.583c19.244,17.199 22.298,21.04 27.106,10.349c4.862,-10.808 21.163,-52.768 23.369,-51.15c0.627,0.46 0.472,0.626 4.948,9.86Z" style="fill:#f6ebbe;"/><path d="M450.376,731.563c10.389,6.38 10.393,6.286 11.29,6.852c-9.68,16.585 -12.037,13.765 -21.429,30.749c-0.929,1.681 -0.958,1.529 -1.958,3.049c-0.943,1.434 -0.933,1.496 -0.905,1.655c0.269,1.557 1.277,0.497 1.549,2.076c-27.438,32.113 -36.964,73.941 -41.07,78.619c-5.168,5.888 -1.669,-7.867 -1.5,-8.531c17.224,-67.71 49.497,-104.717 53.78,-112.273c0.336,-0.593 -0.092,-1.603 0.244,-2.196Z" style="fill:#d5587b;"/><path d="M374.611,343.885l-1.029,0.331c-33.36,7.265 -14.027,46.969 -3.821,48.371c5.317,0.73 5.314,2.2 10.457,-0.081c2.132,9.78 4.948,14.887 -2.813,14.863c-39.088,-0.122 -45.259,-64.129 -12.622,-76.309c12.112,-4.52 9.83,5.24 9.827,12.826Z" style="fill:#f5e3c8;"/><path d="M686.667,343.86c-0.012,-1.171 -0.144,-13.758 0.929,-14.587c4.915,-3.799 39.101,12.64 26.045,52.901c-7.659,23.617 -33.942,26.934 -32.885,18.783c0.105,-0.807 0.14,-0.735 1.896,-9.921c0.115,0.045 -0.277,2.489 5.972,1.009c19.435,-4.603 24.192,-47.089 -1.191,-49.094l-0.766,0.909Z" style="fill:#f4dec0;"/><path d="M438.192,350.74c0.157,-2.907 -0.34,-9.273 6.518,-4.387c8.898,6.338 2.028,-4.632 1.823,-9.195c-0.529,-11.773 7.563,2.506 11.162,-0.189c2.861,-2.142 26.07,-19.524 40.323,10.741c6.755,14.344 -2.971,19.128 -6.906,11.167c-14.079,-28.482 -27.853,-11.689 -33.515,-0.012c-5.527,11.398 -17.564,-2.478 -19.405,-8.125Z" style="fill:#5e3a31;"/><path d="M625.858,529.663c5.314,-2.296 39.08,-16.887 66.17,29.681c0.19,0.326 0.163,0.314 2.199,4.24l-1.786,2.028l0.649,1.68c2.098,5.474 1.49,5.573 2.217,11.726c-10.557,11.735 -8.987,-3.476 -10.767,-6.403c-23.532,-38.685 -40.6,-36.115 -53.242,-38.219l-1.314,1.045c-2.318,-2.675 -2.219,-2.677 -4.126,-5.778Z" style="fill:#f1bbcc;"/><path d="M612.447,351.932c-18.97,-23.337 -28.168,9.012 -32.101,10.735c-11.705,5.126 -5.964,-21.543 9.069,-29.833c18.41,-10.153 25.829,9.6 31.575,2.517c7.296,-8.993 7.896,2.816 4.61,7.934c-7.17,11.169 4.191,2.812 4.535,2.558c4.26,-3.134 8.852,3.489 1.098,11.374c-11.582,11.777 -14.772,0.582 -18.786,-5.285Z" style="fill:#613c33;"/><path d="M749.574,313.024c9.638,-1.691 9.666,-1.252 10.488,-1.504c21.433,-6.559 15.777,-35.863 16.97,-37.917c2.224,-3.831 2.407,4.234 2.417,4.687c1.003,44.374 25.019,36.972 31.636,39.01c11.13,3.429 -4.559,3.085 -5.001,3.076c-33.57,-0.735 -27.413,36.196 -29.519,36.681c-3.112,0.716 -0.903,-11.931 -1.801,-16.738c-4.849,-25.96 -22.006,-23.638 -27.392,-24.946c0.391,-0.728 -0.442,-1.662 1.074,-1.998c0.572,-0.127 0.449,-0.201 1.129,-0.351Z" style="fill:#efd565;"/><path d="M381.255,526.685c-6.65,-1.53 -7.737,-0.605 -7.579,-3.044c0.587,-9.017 56.82,-59.907 93.557,9.834c-10.085,2.795 -19.072,-19.833 -40.011,-23.684c-24.214,-4.454 -35.434,6.078 -44.71,14.875l-1.258,2.02Z" style="fill:#f0bece;"/><path d="M586.988,100.503c-0.064,5.816 -0.024,5.676 -0.128,11.626c-0.087,4.987 -0.062,4.963 -0.123,5.016c-0.668,0.578 -0.635,-0.768 -1.368,-0.303c-1.077,0.682 -0.422,1.437 -1.432,2.076l-1.629,-2.873c0.114,-0.965 1.297,-1.301 1.411,-2.267c0.268,-2.268 -4.244,-3.629 -4.671,-3.758c-2.001,-0.522 -1.905,-0.546 -3.95,-0.169c-11.894,0.256 -9.001,11.779 -11.276,10.797c-2.413,-1.041 -13.036,-15.7 -23.115,3.2c-0.765,-0.121 -1.53,-0.243 -2.295,-0.364c-13.27,-18.047 -22.824,3.495 -25.338,1.637c-1.928,-1.425 -7.513,-18.314 -22.222,-3.195c-8.241,-8.882 -11.559,-13.117 -17.753,-8.142c-2.464,1.979 0.413,4.008 0.451,4.104c-0.409,0.506 -0.817,1.011 -1.226,1.517l-1.779,-1.1c-1.524,0.257 -2.084,0.751 -2.198,-1.256c-0.357,-6.278 0.276,-6.128 0.138,-12.277c-0.009,-0.412 -0.648,-0.47 -0.657,-0.882c0.956,0.218 0.823,0.473 1.726,0.679c0.488,0.111 0.453,0.091 6.113,1.235c1.571,0.32 53.69,15.132 109.703,-5.053l1.62,-0.249Z" style="fill:#b88152;"/><path d="M374.611,343.885c1.425,24.612 1.332,24.557 5.607,48.621c-5.143,2.281 -5.14,0.811 -10.457,0.081c-10.206,-1.402 -29.539,-41.105 3.821,-48.371l1.029,-0.331Z" style="fill:#f1bb9f;"/><path d="M214.152,442.589c-17.908,-6.93 15.535,3.391 21.596,-19.772c4.169,-15.934 -2.041,-27.467 2.603,-23.508c5.126,4.369 -5.995,36.517 25.579,34.992c15.897,-0.768 -2.248,3.754 -2.554,3.781c-13.504,1.198 -18.166,16.225 -18.878,18.521c-0.341,1.1 -0.803,2.587 -2.079,14.595c-1.365,0.371 -1.298,0.506 -2.713,0.131c0.099,-3.29 1.038,-34.531 -22.254,-28.91c-0.433,0.057 -0.866,0.113 -1.299,0.17Z" style="fill:#edd15f;"/><path d="M686.667,343.86l0.766,-0.909c25.383,2.005 20.627,44.49 1.191,49.094c-6.249,1.48 -5.857,-0.964 -5.972,-1.009c3.25,-21.613 3.61,-26.628 4.015,-47.175Z" style="fill:#f2bc9e;"/><path d="M693.979,666.607c4.486,-6.76 4.775,-0.006 7.973,7.836c24.03,58.924 8.835,89.244 6.306,94.811c-0.596,-1.593 -1.192,-3.185 -1.787,-4.778c0.605,-1.885 1.273,-1.511 1.67,-9.065c3.1,-59.02 -10.706,-62.522 -12.113,-82.299l-0.419,-1.68l-1.449,-1.68c-0.06,-1.049 -0.121,-2.098 -0.181,-3.146Z" style="fill:#f9f3eb;"/><path d="M461.665,738.415c2.277,1.33 24.573,14.18 26.711,15.412c-3.298,8.727 -6.16,10.786 -7.515,15.027c-1.005,3.145 -1.002,3.141 -1.153,3.359c-0.817,1.181 -1.207,0.052 -2.092,1.332c0.524,-2.794 0.568,-2.769 0.566,-3.017c-0.316,-37.793 -31.717,-2.334 -39.259,5.416c-0.272,-1.579 -1.28,-0.518 -1.549,-2.076c-0.027,-0.159 -0.038,-0.221 0.905,-1.655c1,-1.52 1.028,-1.368 1.958,-3.049c9.392,-16.984 11.749,-14.164 21.429,-30.749Z" style="fill:#df6887;"/><path d="M538.447,130.435c2.628,21.298 -21.802,21.244 -22.373,3.526c-0.074,-2.304 7.822,-27.229 22.373,-3.526Z" style="fill:#f3858e;"/><path d="M311.069,528.879c5.219,0.155 17.534,-2.193 18.982,11.57c1.765,16.782 -8.473,13.152 -31.722,18.567l1.257,-2.442l1.276,-0.606l1.276,-1.11c4.728,-1.381 4.736,-1.124 5.103,-1.382c9.643,-6.779 11.982,-9.953 5.345,-21.456l-1.164,-1.68l-0.352,-1.461Z" style="fill:#f4c0a8;"/><path d="M543.472,137.226c-3.208,-17.365 9.678,-19.381 12.446,-17.968c16.096,8.219 2.846,41.183 -12.446,17.968Z" style="fill:#eee796;"/><path d="M312.39,494.627c19.018,4.636 11.623,25.194 6.399,26.282c-11.408,2.377 -11.45,1.011 -22.903,3.352c0.629,-1.17 5.551,-10.324 10.176,-11.887c8.73,-2.95 4.322,-9.252 4.21,-13.948c-0.016,-0.65 0.811,-0.997 0.796,-1.647l1.322,-2.152Z" style="fill:#f2bca4;"/><path d="M321.278,562.09c6.936,1.127 8.7,-0.517 10.645,8.39c4.092,18.736 -17.242,18.508 -26.019,19.925c0.221,-0.847 -1.437,-1.312 -1.215,-2.159c0.331,-1.266 5.039,-4.366 7.531,-6.192c12.731,-9.326 5.307,-14.567 6.03,-16.442c0.305,-0.791 1.262,-0.889 1.567,-1.68l1.46,-1.843Z" style="fill:#f3c1aa;"/><path d="M320.013,595.68c0.647,0.123 6.666,1.267 7.743,3.423c0.239,0.478 1.827,3.655 1.489,6.883c-2.544,24.252 -36.764,14.941 -40.008,14.058l1.418,-2.548l1.276,0.016l1.276,0.3l1.276,0.44l1.276,-0.009l1.276,-0.395l1.276,0.069l1.276,-0.128c14.532,-0.886 19.198,-4.3 20.055,-20.263l0.373,-1.847Z" style="fill:#f1bea6;"/><path d="M473.55,117.888c7.556,-3.811 9.981,-0.382 14.448,7.815c0.762,12.028 -6.723,20.666 -15.724,11.132c-3.097,-6.125 -5.432,-7.528 0.051,-17.431c0.409,-0.506 0.817,-1.011 1.226,-1.517Z" style="fill:#e8ddc3;"/><path d="M582.307,116.045l1.629,2.873c1.991,5.864 2.013,6.99 -0.389,13.026c-3.595,4.743 -3.407,5.523 -8.376,6.421c-15.239,-4.584 -7.801,-32.834 7.136,-22.319Z" style="fill:#e4eac0;"/><path d="M502.447,120.432l-1.283,1.98l-1.276,1.582l-0.72,1.543c-1.74,14.923 4.124,15.864 5.197,11.448c1.615,-6.648 1.438,-6.904 -0.88,-13.128l1.705,-2.146c6.699,6.257 8.251,9.855 5.609,16.955c-0.893,1.289 -4.892,10.885 -13.6,5.726c-8.486,-5.027 -8.423,-23.202 5.248,-23.961Z" style="fill:#f0e774;"/><path d="M266.264,373.963c0.944,0.564 1.168,-0.185 1.737,1.036c0.294,0.632 0.467,0.304 0.773,0.961c4.865,12.954 7.096,9.804 13.111,11.267c6.891,1.676 -3.702,3.398 -4.087,3.46c-7.665,1.246 -8.945,13.617 -9.103,15.148l-1.004,1.061c-0.13,-0.448 -0.874,1.021 -1.004,0.572c-0.168,-0.576 1.716,-14.366 -10.595,-16.274c-0.229,-0.036 -5.835,0.803 -4.963,-1.93c0.415,-1.3 5.965,-0.745 9.908,-3.9c4.546,-3.637 3.536,-4.744 5.229,-11.401Z" style="fill:#f0a35b;"/><path d="M754.709,374.419c1.671,14.408 3.16,14.436 11.703,18.361c2.824,6.387 -4.623,0.045 -9.885,8.463c-1.219,1.951 -0.629,2.286 -1.896,4.316c-2.733,4.377 -1.546,-8.737 -11.248,-10.965c-1.977,-0.038 -1.874,-0.33 -3.437,-1.782c17.514,-5.375 11.092,-18.295 13.088,-19.746c0.26,-0.189 0.482,0.841 0.743,0.652l0.933,0.702Z" style="fill:#f1a156;"/><path d="M658.093,85.218c4.082,11.151 4.394,12.151 13.797,13.925c-0.109,5.8 -7.336,0.317 -11.36,9.502c-1.105,2.521 -1.394,4.948 -1.403,4.979c-0.847,1.952 -0.781,2.028 -0.915,2.108c-0.755,0.449 -0.711,-0.625 -1.515,-0.147c-0.768,-2.946 -0.633,-9.081 -7.346,-12.324c-0.921,-0.973 -0.73,-1.048 -1.555,-3.016c3.742,-2.477 6.119,-2.221 8.555,-12.176c0.449,-1.893 0.513,-1.706 1.742,-2.852Z" style="fill:#f4b763;"/><path d="M543.029,358.093c19.47,14.63 1.119,30.443 -0.235,23.007c-0.615,-3.375 2.87,-7.891 -2.205,-13.485c-0.316,-0.349 -5.282,-4.129 -3.687,-8.591c0.816,-2.283 5.643,-1.054 6.127,-0.931Z" style="fill:#f2c4a5;"/><path d="M502.447,120.432c1.435,0.538 1.375,0.474 2.743,1.279l-1.705,2.146c2.317,6.224 2.495,6.48 0.88,13.128c-1.073,4.416 -6.937,3.474 -5.197,-11.448l0.72,-1.543l1.276,-1.582l1.283,-1.98Z" style="fill:#f6f394;"/><path d="M473.55,117.888c-0.037,-0.096 -2.914,-2.126 -0.451,-4.104c6.194,-4.975 9.511,-0.739 17.753,8.142c-0.421,0.52 0.021,0.718 -0.405,1.245c-0.182,0.224 -0.181,0.188 -2.449,2.532c-4.467,-8.198 -6.892,-11.626 -14.448,-7.815Z" style="fill:#8f684f;"/><path d="M801.442,355.133c-0.243,-3.844 0.396,-3.85 3.208,-5.167c0.496,-0.232 8.325,1.518 2.59,7.15c-2.812,2.761 -3.043,0.989 -5.797,-1.984Z" style="fill:#f1d05d;"/><path d="M262.703,473.13c0.762,12.755 -6.025,4.939 -5.641,1.626c0.132,-1.142 2.016,-3.309 2.919,-3.467c1.708,-0.298 1.531,0.334 2.723,1.841Z" style="fill:#ecc758;"/><path d="M677.422,127.553c0.808,-0.725 2.907,-2.865 4.473,-1.422c0.549,0.506 1.96,3.045 1.499,4.305c-2.033,5.555 -3.497,3.928 -7.068,-0.18l1.096,-2.703Z" style="fill:#f6cf69;"/><path d="M647.796,100.246c0.825,1.967 0.634,2.043 1.555,3.016c-5.592,-0.664 -6.809,1.204 -7.355,-2.491c-0.089,-0.601 0.15,-0.94 5.8,-0.525Z" style="fill:#fbf0d1;"/><path d="M749.574,313.024c-0.68,0.151 -0.557,0.225 -1.129,0.351c-1.516,0.336 -0.683,1.27 -1.074,1.998c-4.435,0.05 -4.163,-1.337 -4.028,-1.746c0.514,-1.557 5.735,-0.685 6.231,-0.603Z" style="fill:#fdfbe7;"/><path d="M237.705,471.329c1.415,0.375 1.348,0.24 2.713,-0.131c-0.277,1.203 -0.247,1.075 -0.549,2.384c-1.589,6.904 -2.147,-1.963 -2.165,-2.253Z" style="fill:#fbf6da;"/><path d="M658.093,85.218c-1.229,1.146 -1.293,0.959 -1.742,2.852c-0.302,-6.229 1.094,-5.868 1.312,-5.507c0.428,0.708 0.002,1.947 0.43,2.655Z" style="fill:#faeecf;"/><path d="M659.127,113.624c-0.296,1.262 -0.592,2.524 -0.888,3.786c-0.694,-0.158 -1.388,-0.316 -2.081,-0.475l0.539,-1.349c0.804,-0.479 0.76,0.596 1.515,0.147c0.134,-0.08 0.068,-0.156 0.915,-2.108Z" style="fill:#f7e7ba;"/><path d="M266.264,373.963c0.038,-0.209 0.473,-2.618 0.473,-2.618c0.793,0.114 0.59,0.488 2.036,4.615c-0.306,-0.657 -0.478,-0.329 -0.773,-0.961c-0.569,-1.221 -0.792,-0.473 -1.737,-1.036Z" style="fill:#f6e0b3;"/><path d="M739.945,392.812c1.563,1.453 1.46,1.744 3.437,1.782c-4.89,1.529 -4.462,-0.94 -4.302,-1.355c0.139,-0.362 0.726,-0.065 0.865,-0.427Z" style="fill:#fcf2d3;"/><path d="M656.158,116.935c0.694,0.158 1.388,0.316 2.081,0.475c-0.431,0.451 0.336,1.949 -1.57,1.64c-0,0 -0.47,-1.946 -0.511,-2.115Z" style="fill:#f8efcb;"/><path d="M575.098,109.851c2.045,-0.377 1.948,-0.353 3.95,0.169c-2.036,0.269 -1.966,0.158 -3.95,-0.169Z" style="fill:#9e7453;"/><path d="M677.422,127.553l-1.096,2.703c0.027,-1.656 -0.046,-1.738 1.096,-2.703Z" style="fill:#f8e4a5;"/><path d="M538.412,123.484c0.765,0.121 1.53,0.243 2.295,0.364c-1.617,3.705 -2.086,-0.168 -2.295,-0.364Z" style="fill:#a3604f;"/></g></svg>