<?xml version="1.0" encoding="UTF-8" standalone="no"?><!DOCTYPE svg PUBLIC "-//W3C//DTD SVG 1.1//EN" "http://www.w3.org/Graphics/SVG/1.1/DTD/svg11.dtd"><svg width="1024" height="1024" viewBox="0 0 1024 1024" version="1.1" xmlns="http://www.w3.org/2000/svg" xmlns:xlink="http://www.w3.org/1999/xlink" xml:space="preserve" xmlns:serif="http://www.serif.com/" style="fill-rule:evenodd;clip-rule:evenodd;stroke-linejoin:round;stroke-miterlimit:2;"><g id="Background"><path d="M648.887,384.341c5.126,0.197 8.246,-0.209 8.825,7.551c-1.283,7.171 -4.149,10.475 1.137,11.439c7.714,1.406 12.553,-1.492 12.967,-1.635c1.424,0.358 7.507,1.887 15.308,13.494c0.245,1.658 0.491,3.315 0.736,4.973l-1.327,1.675l-0.029,1.666l0.021,1.666l0.044,1.666c0.42,11.584 -0.355,12.179 4.494,21.485c-0.884,-0.115 -0.543,0.997 -1.37,0.89c-0.117,-0.015 -0.464,-0.06 -1.187,-1.222c-6.225,-10.004 -8.808,-28.594 -9.177,-31.248c-0.925,-6.659 -2.856,-3.232 -7.364,-1.218c-10.226,4.57 -17.556,-2.269 -19.32,2.772c-5.216,14.903 9.45,9.653 15.07,41.625c-0.273,11.05 0.536,10.829 0.766,21.898c0.294,14.162 -3.081,27.199 -2.988,29.992c0.123,3.701 13.963,29.176 17.125,28.861c13.851,-1.378 27.684,-19.653 29.642,-22.239c7.406,2.296 7.855,0.591 12.105,-8.291l0.222,-1.666l0.712,-1.666c0.402,-1.099 0.804,-2.199 1.206,-3.298l1.676,-0.572c0.734,2.747 0.886,2.717 0.231,5.564c-0.149,0.646 -0.838,1.024 -0.799,1.701c0.07,1.205 0.99,0.363 0.991,1.602c0.002,1.459 -0.988,0.781 -0.987,2.22c-3.006,2.091 -7.567,23.635 -34.355,34.468c-5.825,2.356 -7.792,1.072 -6.832,4.794c0.548,2.125 30.296,60.638 14.14,98.636c-16.391,38.55 -66.06,9.316 -71.333,6.213c-1.36,-0.8 -10.632,-2.717 -11.715,-1.082c-0.407,0.615 -4.117,46.319 -1.04,50.804c10.011,14.592 51.061,44.889 90.323,166.858c4.25,13.202 3.834,13.298 8.367,26.402c-0.636,14.835 -5.302,18.678 4.055,25.828c2.566,1.961 2.101,2.545 2.942,6.573c-1.219,4.822 -1.45,4.541 -4.23,7.702c-0.428,0.467 -0.855,0.934 -1.283,1.4c-5.825,3.897 -16.427,19.889 -61.534,45.183c-71.112,39.877 -177.791,58.798 -288.475,-7.408c-8.5,-5.084 -52.154,-33.599 -54.151,-43.839c-1.283,-6.582 9.617,-60.275 33.349,-114.482c41.773,-95.414 76.363,-109.357 75.822,-120.358c-2.226,-45.304 -2.267,-47.317 -4.989,-47.243c-14.787,0.398 -33.465,22.761 -62.972,15.679c-11.623,-2.79 -47.189,-25.125 -7.721,-114.579c4.732,-10.725 -6.349,-2.046 -23.968,-17.922c-12.798,-11.532 -16.407,-25.857 -17.154,-27.084c-1.544,-7.436 -3.178,-9.152 1.569,-13.096c1.298,-1.078 1.028,-1.283 2.169,-2.706l1.303,0.377l-0.01,1.666l0.072,1.666l-0.072,1.666l-0.13,1.666l-0.05,1.666l0.007,1.666l0.019,1.666c0.812,5.331 -0.709,11.648 10.799,10.488l0.135,1.174c7.686,16.415 31.844,23.115 34.055,19.73c6.852,-10.49 5.843,-11.526 12.686,-22.118c3.081,-4.768 -5.197,-16.925 -1.553,-59.137c0.875,-4.43 0.855,-4.3 2.081,-8.461c5.82,-12.385 6.217,-14.043 14.045,-22.101c3.189,-3.283 -0.203,-10.041 -3.356,-9.802c-6.532,0.494 -6.443,0.754 -13.057,0.369c-7.908,-1.837 -10.017,-3.783 -12.632,6.778c-0.28,1.133 -3.515,14.199 -3.977,13.911c-0.99,-0.617 -1.628,-2.431 -1.719,-2.69c-0.286,-0.812 0.516,-0.731 0.232,-1.539c0.524,-5.429 1.345,-29.284 12.385,-32.277c1.344,0.454 14.023,4.737 17.244,1.624c1.336,-1.291 -1.666,-11.697 -1.943,-12.657c0.049,-1.697 -0.607,-2.289 1.063,-3.323c3.604,-2.231 3.301,-3.221 7.155,-3.544c0.669,-0.056 0.839,1.919 1.508,1.863c0.561,2.865 1.121,5.731 1.682,8.596c3.48,13.822 3.411,13.759 3.759,14.928c2.647,8.908 3.967,8.381 9.676,6.489c1.582,-0.288 14.374,-2.62 19.925,0.856c11.877,7.436 14.565,23.355 14.822,23.946c2.433,5.603 3.321,4.954 9.86,32.179c0.887,8.1 0.462,8.008 0.933,16.305c0.596,10.504 72.857,56.068 140.514,2.594c6.043,-4.776 2.663,-9.795 4.017,-20.788c1.353,-4.393 1.301,-4.397 1.462,-4.744c4.575,-9.877 1.205,-11.976 6.101,-21.408c5.298,-10.208 3.76,-23.694 17.268,-28.83c11.386,-4.329 22.768,1.822 24.902,2.356c3.816,0.955 9.415,-27.231 9.077,-33.236Z" style="fill:#603732;"/><path d="M651.305,315.289c0.594,15.473 1.191,15.442 0.167,21.344c-2.759,0.909 -2.806,-0.064 -35.388,2.147c-4.844,0.329 -3.507,-25.733 -29.664,-21.77c-12.521,1.897 -21.892,19.87 -27.343,6.549c-1.475,-3.605 -0.682,-12.379 -3.561,-8.389c-0.879,1.219 -4.551,12.621 2.518,19.796c5.578,5.661 -2.952,12.883 3.554,16.412c4.865,2.64 5.77,-3.941 18.72,-11.787l0.161,3.017l-1.187,1.003c-0.104,0.245 -3.029,3.368 -1.185,8.248c4.836,10.09 15.05,12.777 24.93,16.66c-6.211,8.554 -16.166,6.552 -17.541,20.058c-2.371,23.293 36.142,23.965 45.808,8.007c4.633,-7.649 -2.799,-10.863 1.525,-20.347c8.158,3.715 8.171,3.35 16.067,8.102c0.338,6.006 -5.261,34.191 -9.077,33.236c-2.133,-0.534 -13.515,-6.685 -24.902,-2.356c-13.508,5.136 -11.969,18.622 -17.268,28.83c-4.895,9.431 -1.526,11.53 -6.101,21.408c-0.161,0.347 -0.108,0.351 -1.462,4.744c-8.684,3.317 -12.855,13.908 -48.738,23.642c-38.464,10.434 -85.926,-11.539 -94.985,-22.024l-1.74,0.27c-6.539,-27.224 -7.427,-26.576 -9.86,-32.179c-0.257,-0.592 -2.945,-16.51 -14.822,-23.946c-5.551,-3.476 -18.344,-1.144 -19.925,-0.856l-0.399,-1.603l0.094,-1.666c-4.044,-4.805 -3.497,-5.28 -8.612,-14.995l-1.316,-1.666l-1.322,-1.666l-1.88,0.179c-0.561,-2.865 -1.121,-5.731 -1.682,-8.596c-0.669,0.056 -0.839,-1.919 -1.508,-1.863c-3.854,0.323 -3.551,1.313 -7.155,3.544c-1.67,1.034 -1.014,1.626 -1.063,3.323c-2.585,0.006 -14.773,4.792 -15.301,11.034c-11.04,2.993 -11.861,26.848 -12.385,32.277c-1.007,4.313 -0.994,4.183 -2.394,8.125c-3.83,6.645 -3.564,6.766 -5.929,9.681c-0.744,0.549 -1.489,1.099 -2.233,1.648c-5.671,1.245 -5.626,0.616 -10.723,-2.057c-5.694,-2.986 -4.535,8.39 -4.445,9.275l0.081,3.27c-2.401,0.031 -2.659,-0.616 -3.158,0.841c-0.342,0.999 -2.739,7.996 -3.811,12.779c-5.639,25.159 -2.012,31.651 -0.824,33.779c11.008,9.796 14.208,-21.438 8.169,-40.951c-0.12,-1.593 -0.239,-3.187 -0.359,-4.78c3.412,7.167 3.426,7.091 5.376,15.283c0.509,3.301 3.822,16.001 -0.209,29.468c-1.575,5.261 -5.843,7.23 -6.482,7.525c-11.508,1.16 -9.988,-5.157 -10.799,-10.488l-0.019,-1.666l-0.007,-1.666l0.05,-1.666l0.13,-1.666l0.072,-1.666l-0.072,-1.666l0.01,-1.666l-1.303,-0.377c-1.14,1.423 -0.87,1.627 -2.169,2.706c-4.748,3.943 -3.113,5.659 -1.569,13.096c-4.336,4.516 -25.199,144.909 -19.308,329.485c2.068,64.803 2.344,83.312 6.091,72.98c10.584,-29.18 23.996,-14.891 23.103,-4.732c-0.952,10.83 -2.311,10.11 -8.243,17.223c-3.851,4.618 -4.661,3.961 -5.923,10.794c6.418,7.735 37.9,24.082 15.968,51.181c-7.204,5.956 -27.263,22.541 -104.128,12.681c-55.341,-7.099 -65.712,-31.436 -47.178,-49.556c7.469,-7.302 12.617,-2.87 11.456,-13.939c-2.496,-23.794 13.723,-35.671 28.236,-20.94c4.288,4.352 8.212,11.403 10.598,-2.569c5.341,-31.273 -3.636,-132.852 13.463,-261.434c6.03,-45.343 6.567,-45.083 14.467,-89.902c0.985,-5.588 1.449,-6.825 -2.305,-9.123c-19.509,-11.943 8.461,-66.102 20.371,-92.175c23.254,-50.909 69.704,-94.715 70.46,-95.535c0.509,-0.262 1.029,1.006 1.538,0.744c4.679,-2.408 4.451,-2.875 8.087,-7.561c0.786,-0.654 10.746,-9.8 28.384,-18.531c5.976,0.574 5.966,0.179 11.395,-3.271c-1.054,-3.833 -0.654,-3.815 -0.758,-7.91c3.782,-3.571 4.09,-1.802 8.676,-2.043c32.365,-1.7 39.384,-9.068 50.967,-13.329c7.909,-2.909 58.615,-21.562 86.384,-76.647c5.186,-10.289 4.262,6.978 23.442,29.654c47.208,55.812 92.665,49.682 96.939,50.326c0.44,0.066 0.652,1.035 1.094,1.057c0.455,0.022 0.732,-0.969 1.187,-0.947l1.187,-0.821l0.791,-0.439Z" style="fill:#b4b1a9;"/><path d="M436.483,722.55c2.241,1.713 4.482,3.425 6.723,5.138c-6.145,14.644 -29.247,34.749 -51.447,114.035c-0.255,0.912 -3.256,11.628 -1.366,12.103c4.703,1.182 8.156,-29.182 32.957,-69.38c0.133,-0.215 0.097,-0.216 1.45,-2.92c5.351,-1.1 29.785,-38.119 38.988,-19.529c8.415,16.998 -19.938,46.709 -28.502,171.274c-0.099,1.436 -1.51,21.968 2.219,17.766c2.826,-3.185 11.633,-124.872 49.23,-196.236c29.838,19.052 29.892,23.902 36.471,19.515c11.552,-7.703 11.101,-8.655 22.733,-16.341c63.274,-40.054 63.615,-40.818 65.277,-39.328c11.228,10.064 31.954,40.919 34.533,44.759c38.202,56.871 66.885,165.551 66.563,168.282c-0.683,5.786 -41.34,32.783 -45.072,35.261c-0.062,0.039 -101.528,69.893 -217.334,36.14c-73.885,-21.534 -113.128,-57.726 -115.295,-59.388c0.386,-0.861 1.229,-1.182 1.615,-2.043c1.611,-3.594 0.344,-4.269 12.636,-50.031c28.699,-106.85 80.625,-163.37 86.768,-168.03l0.854,-1.047Z" style="fill:#ee7d9c;"/><path d="M651.305,315.289c-1.027,-8.356 -3.11,-6.131 -9.018,-7.438c-7.404,-1.637 -46.853,-10.362 -84.054,-58.098c-20.13,-25.831 -24.814,-48.587 -27.677,-48.102c-2.409,0.408 -41.041,98.008 -145.971,108.633c-4.846,0.491 -3.762,14.121 -3.947,18.196c0.104,4.095 -0.296,4.077 0.758,7.91c-5.43,3.45 -5.419,3.845 -11.395,3.271c3.085,-13.502 -1.834,-15.296 -11.428,-10.631c-14.204,6.907 -15.121,20.983 -16.955,29.162c-3.636,4.686 -3.408,5.152 -8.087,7.561c-0.509,0.262 -1.029,-1.006 -1.538,-0.744c0.379,-9.252 -0.252,-9.293 1.718,-18.108c1.149,-3.497 1.144,-3.329 2.127,-6.763l0.448,-1.326c1.097,-2.693 0.968,-2.611 1.728,-5.511c6.06,-14.161 9.506,-11.172 9.587,-16.448c0.224,-14.605 -4.152,-107.134 58.445,-174.744c16.72,-18.059 39.824,-29.044 40.427,-31.737c1.299,-5.794 -11.562,-77.874 -7.01,-84.737c4.087,-6.161 7.274,-0.575 27.385,18.965c12.195,11.848 13.455,16.43 15.979,10.458c22.096,-52.286 24.709,-62.3 31.849,-50.761c9.49,15.336 22.99,58.959 27.581,55.3c15.227,-12.137 42.641,-50.328 43.323,-27.64c0.432,14.347 -10.239,71.951 -3.801,76.328c3.765,2.56 63.097,29.396 89.516,115.656c13.352,43.597 10.292,92.759 12.924,95.438c3.172,3.228 2.99,3.387 6.703,5.578c-0.289,0.53 -2.825,5.17 -3.1,7.117c-0.917,6.493 2.854,3.684 11.371,16.457c1.759,9.843 0.001,10.011 1.322,19.913c-6.272,-3.019 -7.675,-1.307 -9.964,-9.985c-0.199,-2.009 -0.248,-11.3 -4.549,-18.11c-3.52,-5.574 -7.462,-10.481 -15.377,-12.965c-11.584,-3.635 -8.51,5.345 -8.529,9.576c0.086,1.664 0.173,3.327 0.259,4.991c-0.477,-0.11 -5.958,-1.38 -5.958,-1.38c-4.51,-1.416 -3.943,-2.801 -4.925,-3.936c1.024,-5.902 0.428,-5.871 -0.167,-21.344Z" style="fill:#62392f;"/><path d="M607.729,344.197c24.792,0.593 47.357,-9.511 92.724,34.167c71.348,68.69 95.195,179.27 92.899,190.263c-0.716,3.429 -2.495,3.732 -2.661,3.86c-0.359,-1.926 0.287,-2.061 -1.089,-5.838c-12.133,-33.318 -11.647,-33.633 -12.721,-36.514l-1.71,-1.658l-1.448,1.83c-1.802,-6.518 -1.595,-6.479 -3.686,-12.973c-6.573,-1.756 0.187,4.872 5.6,40.983c1.318,8.79 1.606,14.815 7.25,22.593c1.961,2.701 13.061,77.696 17.747,130.736c11.273,127.577 8.084,127.889 10.222,191.69c1.067,31.849 6.284,33.154 20.159,30.474c14.001,-2.704 20.919,12.266 8.738,26.678c-1.827,2.161 -1.619,4.479 0.755,3.704c13.624,-4.448 9.252,-15.583 14.215,-15.282c20.684,1.255 25.044,21.063 6.939,30.448c-34.752,18.014 -156.71,18.45 -149.624,-14.455c5.279,-24.514 33.908,-18.704 37.011,-18.074c5.678,1.152 0.576,-5.406 0.334,-5.716c-6.652,-8.55 0.524,-11.001 3.892,-87.795c0.937,-21.373 0.894,-21.339 1.15,-24.986c0.225,-5.707 4.824,-168.434 -12.965,-288.077c-1.755,-11.803 -5.834,-51.357 -27.391,-97.928c-9.858,-21.297 -43.446,-64.84 -90.937,-76.58c-27.487,-6.795 -27.736,-5.375 -42.659,-13.141l1.18,-2.914l1.187,0.185l1.187,0.76l0.761,-0.438l0.426,-1.199c3.152,-1.543 5.483,0.083 10.673,-1.512c4.147,-1.275 4.093,-1.318 8.323,-0.374c0.391,0.087 0.876,0.26 1.187,-0.085c0.914,-1.014 0.324,-1.498 1.21,-2.575c0.476,-0.578 0.609,0.364 1.119,-0.255Z" style="fill:#a6dce6;"/><path d="M575.827,138.618c0.931,-9.127 0.64,-18.633 5.687,-16.049c14.283,7.312 70.786,44.375 86.825,134.322c4.596,25.775 5.914,54.094 3.725,55.4c-0.633,0.378 -10.493,1.093 -11.392,-5.24c-2.192,-15.432 -6.237,-10.655 -17.335,-13.044c-32.446,-6.984 -81.733,-38.345 -105.096,-105.777c-0.303,-0.876 -3.167,-9.141 -5.256,-9.68c-11.512,-2.97 -9.325,48.186 -82.879,95.713c-39.524,25.539 -73.418,19.743 -76.034,24.477c-1.675,3.031 -0.636,13.398 -4.884,13.657c-10.102,0.616 -12.134,1.47 -12.153,-3.827c-0.473,-130.845 86.268,-186.024 90.282,-182.681c1.509,1.257 0.176,2.528 2.776,17.664c1.705,3.897 4.507,10.303 38.968,16.62c38.356,7.032 83.483,-9.608 85.631,-16.465c0.973,-3.107 1.034,-4.644 1.134,-5.091Z" style="fill:#ad6751;"/><path d="M427.288,344.041c2.266,0.312 2.262,0.243 2.447,0.337c0.55,0.279 0.596,1.586 1.146,1.865l1.187,0.075l1.187,0.08l1.187,0.032l1.187,-0.045l1.187,0.415c4,-0.967 4.862,1.191 7.183,-3.615c4.274,0.204 14.48,-1.165 9.67,10.476c-1.037,-0.182 -0.948,-1.372 -2.594,-0.455c-28.177,15.686 -62.797,4.336 -103.146,48.949c-2.361,3.179 -2.357,3.172 -2.361,3.179c-1.398,0.331 -1.377,0.111 -2.639,1.093c-10.549,12.743 -31.641,40.089 -45.73,100.589c-5.131,22.031 -22.598,97.034 -22.328,288.026c0.083,58.504 -1.741,99.907 6.348,138.315c3.74,17.76 6.96,15.378 9.554,13.258c4.801,-3.923 18.63,6.875 20.904,10.633c26.518,43.811 -107.035,37.021 -138.449,19.481c-12.157,-6.788 -9.176,-13.469 -8.863,-15.29c0.697,0.457 1.07,1.627 1.767,2.084c0.069,0.045 0.031,0.032 2.354,-1.136c1.572,-0.791 1.501,0.017 3.548,1.057c7.265,6.929 7.993,4.085 15.388,6.809c8.168,3.407 8.181,2.552 16.694,3.639c4.731,1.446 5.595,2.714 10.592,0.254l6,1.268c18.066,6.746 18.16,-3.506 36.847,-2.317c10.8,0.687 10.887,-1.225 21.426,2.302c0.843,0.854 0.848,0.614 1.828,0.736l0.59,-1.002c2.978,-4.682 2.149,-6.749 -4.235,-16.249c-4.257,-6.334 -4.658,-6.002 -9.976,-6.019c-3.368,-2.107 -7.47,-6.325 -16.783,-3.003c-3.692,1.317 -3.99,3.087 -9.617,-1.156c-11.144,-8.404 -13.017,0.662 -18.163,-4.599c-4.427,-4.525 -14.392,-5.563 -18.347,4.161c-1.22,-1.07 -0.888,-1.766 -2.235,-1.961c-0.598,-0.087 -7.127,-5.006 -7.679,-9.637c-0.525,-4.408 0.013,-4.621 0.089,-5.01l-1.015,-1.342l-1.176,-2.14c12.693,1.71 11.886,12.11 22.546,7.338l1.197,-2.984c0.586,-0.299 4.117,-0.313 6.793,-11.024c12.031,-48.154 -5.331,-50.878 8.036,-218.014c9.331,-116.664 28.108,-173.433 29.393,-178.203c12.711,-47.182 15.308,-45.787 15.472,-50.153c0.444,-11.889 -6.904,9.213 -7.266,10.252l-1.388,0.638c-10.839,14.359 -8.789,19.278 -16.814,37.275c-4.482,10.052 -3.369,10.938 -8.281,18.809c-1.292,-2.228 -7.849,-6.073 19.792,-65.773c38.614,-83.399 87.533,-122.994 116.996,-130.393c25.025,-6.285 30.566,-1.332 48.549,-1.906Z" style="fill:#a4dae5;"/><path d="M727.616,514.027c3.62,13.177 6.485,23.067 12.203,96.036c7.72,98.517 6.626,217.489 2.465,271.667c-2.211,28.787 -2.056,36.502 -4.569,30.957c-9.517,-21.002 -13.11,-13.362 -22.544,-11.567c-4.533,-13.104 -4.117,-13.2 -8.367,-26.402c-39.262,-121.969 -80.312,-152.266 -90.323,-166.858c-3.077,-4.484 0.633,-50.189 1.04,-50.804c1.083,-1.635 10.355,0.281 11.715,1.082c5.273,3.103 54.942,32.338 71.333,-6.213c16.156,-37.999 -13.592,-96.511 -14.14,-98.636c-0.96,-3.722 1.006,-2.438 6.832,-4.794c26.788,-10.833 31.349,-32.377 34.355,-34.468Z" style="fill:#fcfcfc;"/><path d="M651.472,336.634c0.982,1.135 0.414,2.52 4.925,3.936c0,0 5.482,1.27 5.958,1.38c9.534,4.687 9.408,5.215 12.749,5.596c12.944,11.476 13.163,11.413 15.446,10.912c2.289,8.678 3.691,6.967 9.964,9.985c8.006,9.73 65.337,60.377 95.675,171.883c10.461,38.45 0.196,39.279 -4.325,43.28c-5.042,4.462 7.812,13.095 21.192,184.796c10.436,133.928 1.972,138.468 9.51,155.028c2.912,6.398 20.744,-8.252 29.392,11.861c0.898,2.088 0.705,7.214 3.976,7.64c34.724,4.529 27.362,39.406 10.712,47.266c-44.235,20.882 -135.981,15.819 -154.134,-0.815c-21.205,-19.429 -0.229,-39.342 -0.229,-39.343c0.185,-0.131 1.623,-1.152 2.079,-2.176c1.214,-2.721 1.452,-2.378 2.291,-5.239c0.428,-0.467 0.855,-0.934 1.283,-1.4c0.417,0.074 0.536,2.563 2.63,0.467c1.28,-1.281 1.093,-1.474 2.442,-2.709c4.759,-4.354 0.748,-7.53 -0.842,-5.46c-0.841,-4.028 -0.375,-4.612 -2.942,-6.573c-9.357,-7.15 -4.691,-10.993 -4.055,-25.828c9.434,-1.795 13.028,-9.435 22.544,11.567c2.513,5.545 2.358,-2.17 4.569,-30.957c4.162,-54.177 5.255,-173.149 -2.465,-271.667c-5.718,-72.969 -8.583,-82.859 -12.203,-96.036c-0.002,-1.439 0.988,-0.761 0.987,-2.22c-0.001,-1.239 -0.921,-0.397 -0.991,-1.602c-0.039,-0.677 0.65,-1.055 0.799,-1.701c0.655,-2.848 0.503,-2.817 -0.231,-5.564c-0.559,0.191 -1.117,0.381 -1.676,0.572c-0.402,1.099 -0.804,2.199 -1.206,3.298l-0.712,1.666l-0.222,1.666c-4.25,8.882 -4.699,10.586 -12.105,8.291c-12.395,-8.05 -8.508,-24.184 -6.59,-38.046c0.296,-1.468 0.317,-1.38 3.198,-11.799c0.208,2.633 0.236,2.498 0.95,4.887c-0.709,6.862 -6.937,40.705 6,40.58c2.116,-0.021 2.042,-0.322 3.609,-2.201c0.774,-2.044 4.421,-4.045 -0.627,-28.136c-0.177,-0.847 -0.622,-2.968 -2.808,-10.31c-1.828,-7.354 -0.216,-8.862 -4.914,-13.238c0.132,-4.684 -0.406,-6.826 -3.315,-4.425c-2.009,1.658 -10.01,4.533 -16.7,-7.421c-4.849,-9.306 -4.075,-9.901 -4.494,-21.485l-0.044,-1.666l-0.021,-1.666l0.029,-1.666l1.327,-1.675c0.391,2.893 4.578,33.858 14.952,30.247c9.017,-3.139 -7.36,-25.372 -8.81,-28.079c-3.038,-5.669 -2.216,-10.005 -6.878,-7.141c-7.8,-11.607 -13.884,-13.136 -15.308,-13.494c-0.762,-5.201 -11.872,-11.267 -12.843,-10.966c-0,0 -1.16,1.069 -1.261,1.162c-0.579,-7.76 -3.7,-7.354 -8.825,-7.551c-7.896,-4.752 -7.91,-4.387 -16.067,-8.102c-0.583,-0.207 -0.559,-0.269 -7.24,-2.851l-1.178,-0.8c-0.101,0.544 -2.068,3.133 0.719,4.411c0.344,1.034 3.941,11.836 -4.304,12.922c-5.922,0.78 -12.362,-8.112 -13.946,-13.251c-1.451,-4.707 -0.864,-5.325 -3.845,-8.149c-9.88,-3.883 -20.094,-6.57 -24.93,-16.66l2.379,0.742c14.923,7.766 15.172,6.346 42.659,13.141c47.49,11.74 81.079,55.283 90.937,76.58c21.557,46.571 25.636,86.125 27.391,97.928c17.79,119.644 13.191,282.37 12.965,288.077c-0.256,3.647 -0.213,3.613 -1.15,24.986c-3.367,76.794 -10.543,79.245 -3.892,87.795c0.241,0.31 5.343,6.868 -0.334,5.716c-3.103,-0.63 -31.731,-6.44 -37.011,18.074c-7.086,32.905 114.872,32.469 149.624,14.455c18.105,-9.385 13.746,-29.192 -6.939,-30.448c-4.963,-0.301 -0.591,10.834 -14.215,15.282c-2.374,0.775 -2.582,-1.543 -0.755,-3.704c12.181,-14.412 5.263,-29.382 -8.738,-26.678c-13.875,2.68 -19.092,1.374 -20.159,-30.474c-2.138,-63.801 1.05,-64.113 -10.222,-191.69c-4.687,-53.04 -15.787,-128.034 -17.747,-130.736c-5.644,-7.777 -5.933,-13.803 -7.25,-22.593c-5.413,-36.111 -12.173,-42.739 -5.6,-40.983c2.091,6.494 1.884,6.456 3.686,12.973c6.922,31.278 8.422,41.281 16.968,42.18c0.167,-0.128 1.946,-0.432 2.661,-3.86c2.295,-10.993 -21.551,-121.573 -92.899,-190.263c-45.367,-43.677 -67.932,-33.574 -92.724,-34.167c-2.35,-2.002 -6.336,-4.143 -6.904,-4.447c-10.027,-5.575 -14.892,-2.247 -20.518,-0.156c-12.949,7.846 -13.855,14.426 -18.72,11.787c-6.505,-3.53 2.024,-10.751 -3.554,-16.412c-7.07,-7.175 -3.398,-18.577 -2.518,-19.796c2.879,-3.991 2.086,4.784 3.561,8.389c5.451,13.321 14.821,-4.652 27.343,-6.549c26.157,-3.963 24.82,22.099 29.664,21.77c32.582,-2.212 32.63,-1.239 35.388,-2.147Z" style="fill:#3a6d90;"/><path d="M584.142,615.022c10.675,23.831 14.25,24.199 22.244,32.122c3.326,3.296 -1.031,56.89 -1.393,57.608c-2.097,4.155 -36.769,24.789 -40.034,26.732c-39.275,23.373 -44.122,33.324 -48.43,29.806c-19.55,-15.962 -47.69,-31.554 -59.61,-39.312c-23.358,-15.202 -25.591,-15.923 -26.2,-25.214c-3.077,-46.977 -3.061,-47.853 -0.963,-49.873c11.771,-11.333 11.633,-11.607 20.721,-27.188c2.357,7.376 1.696,7.536 2.719,15.454c7.243,56.069 102.539,50.427 123.271,19.364c6.396,-9.582 7.43,-26.603 6.823,-31.085l-0.506,-1.666l-0.272,-1.666l-0.28,-1.666l-0.466,-1.666l1.078,-0.797l1.298,-0.952Z" style="fill:#e2658b;"/><path d="M584.142,615.022l-1.298,0.952l-1.078,0.797l0.466,1.666l0.28,1.666l0.272,1.666l0.506,1.666c0.607,4.481 -0.427,21.502 -6.823,31.085c-20.732,31.063 -116.028,36.705 -123.271,-19.364c-1.023,-7.918 -0.361,-8.078 -2.719,-15.454c13.36,-37.197 12.4,-60.108 6.388,-89.523c-1.392,-6.812 9.095,-7.921 9.917,-7.494c2.181,1.131 0.962,2.253 1.076,9.106c0.81,48.683 40.168,63.574 65.005,54.389c37.683,-13.936 33.138,-57.674 33.308,-61.069c0.056,-1.115 0.58,-2.422 9.763,2.752c5.723,3.225 -9.942,37.682 8.208,87.158Z" style="fill:#ed7fa2;"/><path d="M403.956,530.717l-1.568,-2.624l-1.187,-0.539c-6.917,9.944 -2.618,12.223 -4.534,25.968c-13.49,96.733 -36.859,89.85 -40.579,89.844c-1.114,-0.002 -7.983,-0.013 -13.146,-6.448c-0.089,-0.111 -0.644,-2.723 -2.288,-0.689c-0.574,0.709 -0.972,1.669 -1.546,2.378c-4.186,-24.218 0.461,-50.777 25.742,-99.662c10.059,-19.45 14.487,-17.898 12.292,-28.672c-1.124,-5.518 -10.721,-52.624 6.633,-71.132c28.623,-30.525 43.835,-3.864 37.416,-1.457c-29.846,11.193 -29.759,16.284 -28.108,18.907c1.818,2.889 28.112,-21.755 36.342,-7.786c4.685,7.953 0.245,8.845 -6.905,11.055c-8.145,2.517 -15.065,9.35 -15.488,10.192c-4.724,9.405 9.805,-2.282 16.835,-4.067c16.882,-4.286 13.851,11.386 9.384,12.466c-1.333,0.322 -13.478,3.259 -16.068,7.367c-5.495,8.716 13.85,-4.119 18.388,1.107c8.165,9.401 -9.283,27.947 -13.148,32.979c-8.877,11.558 -12.931,8.191 -18.466,10.812Z" style="fill:#f5d1b2;"/><path d="M661.412,526.512l-1.742,1.956c-2.312,12.842 7.895,9.296 28.101,76.215c1.762,5.837 0.289,7.424 4.295,10.387c0.561,0.415 3.152,4.625 3.411,5.046c-0.033,3.314 -0.065,6.628 -0.098,9.942l-0.939,0.502l-1.187,-0.026l-1.563,1.231c-5.764,8.371 -20.235,20.416 -35.998,-2.221c-12.814,-18.402 -19.585,-86.624 -20.361,-94.442c-0.627,-6.314 -2.754,-5.179 -8.624,-4.69c-1.507,-0.223 -11.108,-1.643 -17.247,-10.987c-8.334,-12.684 -10.516,-12.473 -11.985,-19.474c-4.528,-21.567 17.675,-7.669 18.861,-9.475c4.39,-6.685 -17.489,-9.074 -18.913,-13.808c-0.845,-2.811 -1.016,-20.875 27.134,-2.093c2.775,1.851 3.61,-2.285 1.91,-3.976c-14.231,-14.155 -25.871,-7.336 -23.823,-17.246c4.145,-20.062 31.419,1.12 33.788,2.96c3.22,2.501 5.098,-1.303 2.071,-4.269c-12.8,-12.545 -25.536,-12.643 -27.286,-13.126c-4.744,-1.308 1.805,-18.985 20.371,-12.482c42.26,14.802 25.517,80.768 24.065,88.817c-0.764,4.239 0.366,4.053 5.756,11.258Z" style="fill:#f4d0af;"/><path d="M468.95,415.228c15.24,-37.038 36.248,-30.566 43.803,-28.114c18.54,6.016 21.745,-7.398 32.1,-5.261c38.181,7.879 36.735,106.934 -7.134,95.043c-18.442,-4.999 -18.571,-5.997 -36.895,-0.877c-21.081,5.891 -44.365,-19.586 -31.874,-60.791Z" style="fill:#5b3131;"/><path d="M651.305,315.289l-0.791,0.439l-1.187,0.821c-0.455,-0.022 -0.732,0.969 -1.187,0.947c-0.442,-0.021 -0.654,-0.99 -1.094,-1.057c-4.274,-0.643 -49.731,5.486 -96.939,-50.326c-19.18,-22.676 -18.256,-39.943 -23.442,-29.654c-27.768,55.085 -78.475,73.738 -86.384,76.647c-11.583,4.261 -18.602,11.63 -50.967,13.329c-4.586,0.241 -4.894,-1.528 -8.676,2.043c0.185,-4.075 -0.899,-17.705 3.947,-18.196c104.93,-10.625 143.562,-108.225 145.971,-108.633c2.863,-0.485 7.547,22.271 27.677,48.102c37.2,47.736 76.65,56.461 84.054,58.098c5.908,1.307 7.991,-0.918 9.018,7.438Z" style="fill:#edb297;"/><path d="M481.199,462.774c-17.224,-7.191 -13.777,-66.047 18.551,-70.753c13.356,-1.944 14.208,11.796 38.103,-1.403c22.993,-12.701 42.302,49.529 17.857,76.205l-1.36,0.447l-1.121,-2.03c2.011,-15.005 -20.558,-30.526 -30.863,-26.318c-7.986,3.261 -13.685,-5.384 -27.132,3.668c-16.846,11.34 -14.689,18.124 -14.034,20.185Z" style="fill:#6d2c36;"/><path d="M514.947,28.817c20.721,46.304 20.754,46.39 21.899,47.482c0.996,0.95 1.71,2.044 23.075,-18.494c2.907,7.515 -0.077,8.873 -2.896,24.264c-0.802,4.378 -1.218,4.122 -1.361,8.71c-2.922,0.792 -21.819,5.916 -36.926,6.386c-47.794,1.487 -48.997,-14.474 -63.759,-2.473c-1.321,-4.147 -1.521,-6.074 -3.463,-21.183c-3.51,-27.297 -4.034,-27.972 -2.591,-29.165c1.809,-1.496 27.505,30.738 34.244,29.778c3.481,-0.496 3.189,-2.066 24.304,-51.036c3.126,-7.249 4.315,-1.418 7.476,5.73Z" style="fill:#f5d97f;"/><path d="M732.051,475.186c0.274,-0.468 -0.151,-1.342 0.123,-1.81c1.804,-3.083 8.701,4.911 9.327,5.637c3.601,4.174 2.528,7.11 3.577,9.804c2.32,5.962 2.396,7.425 2.432,8.128c0.45,8.708 4.546,20.904 7.806,64.783c0.347,4.668 4.143,55.761 4.18,58.377c0.372,26.587 4.387,42.407 4.254,45.08c-0.105,2.098 0.348,1.89 0.737,3.997c12.683,6.481 20.749,9.044 22.592,9.63c-0.022,0.712 -0.864,1.027 -0.886,1.739c-0.487,15.774 12.306,165.092 -6.968,141.981c-3.633,-4.355 -7.493,-8.983 -10.585,-82.487c-1.199,-28.501 -2.552,-28.248 -3.773,-56.69c-0.632,-14.727 -2.712,-13.849 -7.254,-18.209c0.234,-4.305 0.197,-4.734 0.161,-5.142c-3.488,-39.745 -2.479,-114.019 -25.722,-184.819Z" style="fill:#99d8e3;"/><path d="M436.483,722.55l-0.854,1.047c-6.143,4.66 -58.069,61.18 -86.768,168.03c-12.291,45.762 -11.025,46.436 -12.636,50.031c-0.386,0.861 -1.229,1.182 -1.615,2.043c-8.642,-7.253 -9.11,-6.448 -11.391,-10.751c-0.972,-1.833 -1.741,-3.285 4.629,-27.812c28.877,-111.195 81.693,-169.901 91.611,-180.926c10.334,-11.486 11.996,-4.964 17.023,-1.663Z" style="fill:#f2acc1;"/><path d="M555.792,543.539c-1.516,5.145 -3.276,14.349 -12.464,22.44c-1.644,1.447 -12.689,9.812 -25.779,9.63c-43.034,-0.599 -44.599,-52.048 -36.817,-50.325c37.224,8.24 40.808,6.585 72.44,-1.714c6.111,-1.603 2.654,19.67 2.62,19.969Z" style="fill:#efbda1;"/><path d="M590.077,470.203c-1.354,10.993 2.025,16.012 -4.017,20.788c-67.656,53.474 -139.918,7.91 -140.514,-2.594c-0.471,-8.297 -0.045,-8.205 -0.933,-16.305l1.74,-0.27c9.059,10.485 56.522,32.458 94.985,22.024c35.883,-9.734 40.055,-20.325 48.738,-23.642Z" style="fill:#eeb499;"/><path d="M266.255,678.839c-0.034,1.303 -0.227,8.62 -0.885,16.245c-5.691,65.888 -3.637,106.533 -11.281,113.493c-18.121,16.5 -12.065,-43.124 -10.934,-128.334c4.668,-2.019 4.712,-1.133 20.195,-2.405c1.574,-0.129 1.38,0.475 2.906,1.001Z" style="fill:#a1d9e1;"/><path d="M454.71,734.74c12.956,7.808 29.332,18.406 32.025,20.062c-37.597,71.364 -46.404,193.052 -49.23,196.236c-3.729,4.202 -2.318,-16.33 -2.219,-17.766c8.565,-124.566 36.918,-154.277 28.502,-171.274c-9.204,-18.59 -33.637,18.429 -38.988,19.529c2.818,-13.104 21.402,-34.6 25.932,-42.018c0.272,-0.446 1.324,-2.168 3.979,-4.769Z" style="fill:#e26186;"/><path d="M626.708,530.413c5.87,-0.489 7.997,-1.625 8.624,4.69c0.776,7.818 7.547,76.04 20.361,94.442c15.762,22.637 30.233,10.592 35.998,2.221l1.563,-1.231l1.187,0.026l0.939,-0.502c-0.793,6.715 -1.081,22.611 -17.539,26.845c-17.317,4.455 -35.104,-3.762 -45.031,-10.428c-13.444,-9.027 -2.013,-19.994 -1.407,-20.196c2.604,-0.868 16.559,19.473 8.986,0.139c-8.824,-22.527 -17.109,-88.358 -16.65,-89.439c0.925,-2.179 7.57,-2.109 2.971,-6.566Z" style="fill:#edb498;"/><path d="M403.956,530.717c-0.054,3.656 0.614,3.471 3.261,4.205c3.955,1.097 2.245,7.711 -1.185,30.227c-9.85,64.646 -17.124,63.046 -15.06,67.946c2.506,5.949 6.923,-13.728 13.52,-5.874c15.128,18.01 -28.022,34.988 -48.457,29.983c-14.181,-3.473 -16.151,-16.193 -16.928,-18.596c0.574,-0.709 0.972,-1.669 1.546,-2.378c1.645,-2.034 2.199,0.578 2.288,0.689c5.163,6.435 12.031,6.446 13.146,6.448c3.72,0.006 27.089,6.889 40.579,-89.844c1.917,-13.745 -2.383,-16.024 4.534,-25.968l1.187,0.539l1.568,2.624Z" style="fill:#eeb498;"/><path d="M667.714,459.92c4.6,4.05 10.254,26.716 29.032,21.362c0.501,-0.143 0.339,-0.307 6.196,-2.202c0.397,-0.128 0.612,-1.173 0.997,-0.989c0.751,0.359 0.979,1.934 1.73,2.293c-1.918,13.862 -5.805,29.996 6.59,38.046c-1.958,2.587 -15.791,20.862 -29.642,22.239c-3.162,0.315 -17.002,-25.16 -17.125,-28.861c-0.093,-2.792 3.282,-15.83 2.988,-29.992c-0.23,-11.07 -1.039,-10.848 -0.766,-21.898Z" style="fill:#7c4d36;"/><path d="M365.859,456.947c-3.644,42.212 4.633,54.369 1.553,59.137c-6.844,10.591 -5.834,11.627 -12.686,22.118c-2.211,3.385 -26.368,-3.315 -34.055,-19.73l-0.135,-1.174c0.639,-0.295 4.907,-2.263 6.482,-7.525c4.031,-13.467 0.719,-26.167 0.209,-29.468c25.253,17.112 35.526,-17.705 36.069,-20.146l0.532,-1.666l2.032,-1.545Z" style="fill:#814d37;"/><path d="M691.063,448.322c6.689,11.954 14.69,9.079 16.7,7.421c2.909,-2.401 3.447,-0.259 3.315,4.425c-0.361,1.536 -0.173,1.465 -0.515,2.919c-0.041,0.174 -0,0 -0.622,2.112c-0.358,1.129 -0.716,2.258 -1.074,3.387c-2.881,10.419 -2.902,10.331 -3.198,11.799c-0.751,-0.359 -0.979,-1.934 -1.73,-2.293c-0.385,-0.184 -0.6,0.86 -0.997,0.989c-5.857,1.895 -5.695,2.059 -6.196,2.202c-18.777,5.353 -24.431,-17.312 -29.032,-21.362c-5.62,-31.972 -20.286,-26.722 -15.07,-41.625c1.764,-5.041 9.094,1.798 19.32,-2.772c4.507,-2.014 6.438,-5.441 7.364,1.218c0.369,2.654 2.952,21.245 9.177,31.248c0.723,1.162 1.07,1.207 1.187,1.222c0.827,0.107 0.486,-1.005 1.37,-0.89Z" style="fill:#90583a;"/><path d="M839.115,783.791c-1.334,-1.27 -9.359,-8.912 -12.373,-22.322c-2.6,-11.569 -2.994,-20.329 -0.466,-31.377c0.513,-2.24 5.45,-23.813 20.865,-2.695c30.484,41.763 10.75,68.46 -8.027,56.394Z" style="fill:#3c779e;"/><path d="M429.597,526.667l1.284,1.249c4.305,0.458 4.172,0.691 8.313,2.058c0.46,0.152 2.012,0.664 5.252,-3.793c3.098,5.41 2.378,5.871 3.86,12.403l-0.805,0.819l-1.083,0.727l-0.019,1.666l-0.181,1.666l0.074,1.666c-0.184,9.481 -5.039,39.232 -19.198,49.352c-3.637,2.6 -5.757,4.308 -17.75,5.575c6.065,-29.705 5.811,-37.391 8.857,-56.481c1.218,-7.634 2.626,-6.477 11.395,-16.909Z" style="fill:#eb789d;"/><path d="M204.279,948.269c3.955,-9.724 13.92,-8.687 18.347,-4.161c5.146,5.261 7.019,-3.805 18.163,4.599c5.627,4.243 5.924,2.472 9.617,1.156c9.313,-3.322 13.415,0.896 16.783,3.003l1.044,2.669l1.318,1.118l1.211,1.666c1.758,6.04 2.705,6.643 -0.146,11.729c-5.523,0.655 -4.763,-2.572 -9.681,-6.161c-6.796,-4.96 -14.528,2.777 -23.833,-3.089c-3.935,-2.481 -8.001,7.495 -12.893,12.275c-1.234,1.205 -0.815,1.78 -2.276,2.692c-0.38,0.237 -0.843,-0.588 -1.223,-0.351l-6,-1.268c-5.267,-8.418 -5.631,-8.385 -7.053,-7.568c-1.334,0.767 -1.808,6.947 -2.327,7.545c-0.315,0.363 -0.897,-0.593 -1.212,-0.23c-8.513,-1.087 -8.526,-0.232 -16.694,-3.639l-1.108,-2.49l-1.187,-0.63l-1.317,-0.484l-1.057,-0.938c-5.926,-7.306 -6.331,-7.111 -6.974,-6.802c-2.05,0.985 -1.739,1.527 -3.745,4.535c-2.047,-1.04 -1.975,-1.847 -3.548,-1.057c-2.323,1.168 -2.285,1.182 -2.354,1.136c-0.697,-0.457 -1.07,-1.627 -1.767,-2.084c0.623,-1.608 4.9,-12.649 13.608,-12.606c6.187,0.03 5.115,4.657 16.632,9.74c2.651,2.031 4.075,6.319 9.748,-3.433c5.831,0.046 6.022,-1.855 11.259,1.667c1.221,2.577 0.675,3.327 2.808,4.286c0.455,0.205 5.614,-3.364 -2.413,-7.671c-4.289,-3.194 -4.451,-2.5 -11.477,-1.896c-0.084,-1.086 -0.168,-2.171 -0.252,-3.257Z" style="fill:#daedef;"/><path d="M365.573,416.952l1.198,1.888l0.999,1.333c-1.816,9.266 -1.12,19.929 -1.007,21.658c0.123,1.889 -1.144,1.767 -0.477,3.334c0.72,1.692 1.408,0.381 2.183,1.936c0.415,0.833 -0.926,0.588 -0.528,1.387c-1.226,4.161 -1.206,4.031 -2.081,8.461l-2.032,1.545l-0.532,1.666c-0.543,2.441 -10.815,37.258 -36.069,20.146c-1.95,-8.192 -1.964,-8.116 -5.376,-15.283l-0.018,-1.667l-0.081,-3.27c4.003,-1.682 3.963,-1.098 8.223,-1.508c1.163,-0.685 2.327,-1.37 3.49,-2.055c3.951,-0.941 3.315,-3.463 3.454,-3.655c0.744,-0.549 1.489,-1.099 2.233,-1.648c1.074,0.365 0.436,1.545 1.5,1.907c0.107,0.037 0.211,0.072 1.187,-0.993c3.136,-3.421 3.766,-7.151 4.612,-8.634l-1.37,-1.961c1.4,-3.942 1.387,-3.812 2.394,-8.125c0.284,0.808 -0.518,0.727 -0.232,1.539c0.091,0.259 0.729,2.073 1.719,2.69c0.462,0.288 3.697,-12.778 3.977,-13.911c2.615,-10.561 4.724,-8.615 12.632,-6.778Z" style="fill:#995e40;"/><path d="M481.199,462.774c-0.655,-2.06 -2.812,-8.844 14.034,-20.185c13.447,-9.053 19.146,-0.408 27.132,-3.668c10.305,-4.208 32.875,11.313 30.863,26.318c-15.139,11.57 -21.224,-6.789 -42.719,-1.01c-15.031,4.041 -17.647,6.846 -29.311,-1.455Z" style="fill:#ec8c9c;"/><path d="M592.269,523.299l0.734,1.837c2.247,5.108 6.178,9.442 8.812,3.332l1.393,-1.928c10.771,11.344 10.986,12.175 11.396,13.762c1.154,4.468 -0.718,5.066 9.022,58.041c-0.563,-0.045 -1.041,0.799 -1.604,0.754c-1.251,-0.1 -1.125,-0.765 -2.308,-0.443c-6.744,1.839 -20.449,-6.116 -25.748,-25.427c-0.823,-3 -5.755,-20.974 -4.148,-39.762l-0.145,-1.666l-0.462,-1.666l-0.807,-1.914c1.685,-2.837 1.632,-2.802 3.865,-4.921Z" style="fill:#ec7ba0;"/><path d="M448.307,538.585c14.031,77.515 -28.325,98.532 -29.26,98.756c-4.798,1.149 0.175,-6.617 -8.53,-20.343c-4.412,-6.957 -2.968,-7.93 -1.172,-16.941c11.993,-1.267 14.113,-2.976 17.75,-5.575c14.158,-10.12 19.014,-39.871 19.198,-49.352l-0.074,-1.666l0.181,-1.666l0.019,-1.666l1.083,-0.727l0.805,-0.819Z" style="fill:#d95881;"/><path d="M588.405,528.22l0.807,1.914l0.462,1.666l0.145,1.666c-1.607,18.787 3.325,36.761 4.148,39.762c5.299,19.31 19.003,27.266 25.748,25.427c1.183,-0.323 1.057,0.342 2.308,0.443c0.563,0.045 1.041,-0.799 1.604,-0.754c2.921,11.977 4.832,13.304 -0.098,20.536c-8.046,11.803 -3.538,19.465 -8.689,18.269c-2.686,-0.624 -39.422,-25.824 -27.865,-103.544c0.428,-2.877 0.484,-2.718 1.431,-5.385Z" style="fill:#d5537d;"/><path d="M200.455,704.597c1.68,-0.649 6.618,-6.203 8.735,13.735c4.165,39.222 -24.823,54.459 -33.044,36.305c-3.577,-7.899 0.353,-19.575 0.868,-21.104c7.616,-22.624 22.271,-28.226 23.441,-28.936Z" style="fill:#3c779f;"/><path d="M824.025,968.316c2.932,6.425 4.806,4.6 23.664,6.36c-1.096,6.829 -4.635,4.418 -13.12,5.636c-32.675,4.689 -32.578,-1.529 -38.047,-1.373c-1.989,0.057 -14.877,9.824 -18.412,-0.91c-2.528,-7.676 14.342,-35.367 25.281,-25.609c5.944,5.303 6.585,3.404 12.242,-2.222c3.46,-3.441 16.76,-2.99 8.795,15.276c-0.639,1.465 -0.396,2.785 -0.404,2.843Z" style="fill:#ddeef0;"/><path d="M428.182,369.572c5.306,6.65 6.538,1.329 13.382,3.961c38.488,14.8 -1.99,47.606 -24.669,30.894c-3.821,-2.816 -3.068,-3.78 -5.807,-9.245c-0.592,-1.182 -1.643,-1.965 -1.975,-3.332c-0.185,-0.762 0.805,-1.489 0.621,-2.251c14.434,2.676 14.133,-12.332 18.448,-20.027Z" style="fill:#f3b5a6;"/><path d="M443.207,727.688c3.835,2.351 7.669,4.701 11.504,7.052c-2.655,2.601 -3.706,4.323 -3.979,4.769c-4.53,7.418 -23.114,28.914 -25.932,42.018c-1.353,2.703 -1.317,2.704 -1.45,2.92c-24.8,40.198 -28.254,70.562 -32.957,69.38c-1.89,-0.475 1.111,-11.191 1.366,-12.103c22.2,-79.285 45.302,-99.391 51.447,-114.035Z" style="fill:#db5c80;"/><path d="M603.027,368.522c2.98,2.824 2.394,3.442 3.845,8.149c1.583,5.139 8.024,14.03 13.946,13.251c8.245,-1.085 4.649,-11.888 4.304,-12.922c0.153,-1.204 0.306,-2.407 0.458,-3.611c6.68,2.582 6.657,2.644 7.24,2.851c-4.324,9.483 3.108,12.698 -1.525,20.347c-9.666,15.958 -48.179,15.286 -45.808,-8.007c1.375,-13.506 11.33,-11.504 17.541,-20.058Z" style="fill:#f3b5a3;"/><path d="M477.072,127.914c9.276,16.97 15.922,12.35 23.772,4.172c13.323,21.446 22.836,4.715 25.941,-0.859c4.37,4.961 6.467,9.56 15.737,5.95c6.385,-2.487 6.469,-10.241 9.338,-8.236c9.029,6.31 12.221,0.273 14.179,0.188c0.734,-0.032 1.318,1.158 2.052,1.126c-0.612,3.427 0.241,5.6 -4.404,7.627c-24.568,10.719 -51.932,17.369 -92.322,4.93c-8.797,-2.709 -10.939,-0.426 -13.713,-12.492c0.711,-0.271 1.011,-1.675 1.722,-1.946c1.017,-0.388 5.841,12.069 17.698,-0.458Z" style="fill:#eba366;"/><path d="M422.345,338.214c2.178,-3.805 2.114,-3.648 4.277,-7.472c16.592,-29.328 57.564,1.637 50.617,19.504c-5.704,14.669 -13.359,-20.243 -38.101,-10.22c-3.965,2.785 -3.818,3.256 -8.26,3.547c-4.6,-1.841 -4.838,-1.119 -8.534,-5.359Z" style="fill:#512527;"/><path d="M737.896,347.81c18.221,-17.094 38.412,37.159 11.136,36.136c-10.916,-0.409 -19.264,-22.906 -11.136,-36.136Z" style="fill:#3e79a0;"/><path d="M690.921,324.957c1.071,-0.097 26.632,-10.276 35.036,9.028c2.936,6.745 -4.2,24.491 -24.483,13.382c-0.181,-0.099 -0.169,0.086 -2.282,1.164c-8.516,-12.772 -12.288,-9.964 -11.371,-16.457c0.275,-1.947 2.81,-6.587 3.1,-7.117Z" style="fill:#387ba3;"/><path d="M314.693,773.776c-21.342,12.492 -22.088,-29.727 -8.294,-43.339c5.425,-5.353 13.008,15.897 14.116,21.268c2.785,13.498 -4.728,20.982 -5.822,22.071Z" style="fill:#3b7ba2;"/><path d="M457.24,98.796c10.619,-10.276 12.886,5.503 55.553,4.359c51.506,-1.38 57.837,-19.64 57.479,-7.92c-0.102,3.327 -0.038,3.192 0.145,6.632c-1.253,0.892 -1.208,0.579 -2.621,0.938c-0.454,-0.635 -3.274,-4.581 -7.507,-3.932c-9.529,1.459 -11.559,10.746 -11.94,11.27c-2.789,3.832 -7.437,-16.069 -22.612,5.787c-5.867,-7.806 -13.091,-14.584 -24.686,-0.281c-15.733,-18.411 -18.631,-2.604 -21.432,-2.459c-0.58,0.03 -5.519,-12.626 -10.751,-11.194c-1.283,0.351 -1.144,-0.161 -2.359,-1.122c-2.327,-1.841 -6.687,3.792 -7.146,4.385c-1.3,1.679 -0.972,1.854 -1.085,1.974c-0.34,0.359 -0.937,-0.416 -1.277,-0.057l-1.173,-0.232c0.255,-4.244 0.294,-4.122 1.413,-8.148Z" style="fill:#ea9d67;"/><path d="M731.651,746.922c-10.713,28.375 -34.646,1.348 -14.401,-31.521c7.437,-12.075 17.949,11.805 14.401,31.521Z" style="fill:#3c7aa2;"/><path d="M185.442,873.275c-1.623,-37.904 23.313,-22.204 25.786,5.075c1.309,14.443 -21.256,20.928 -25.786,-5.075Z" style="fill:#3a7ca6;"/><path d="M829.591,893.178c0.931,-1.809 7.391,-16.786 14.489,-15.394c5.88,1.152 7.487,12.6 7.174,18.899c-1.343,27 -34.481,33.142 -21.663,-3.505Z" style="fill:#417ca8;"/><path d="M267.19,952.865c5.318,0.016 5.719,-0.315 9.976,6.019c6.384,9.5 7.213,11.567 4.235,16.249c-0.806,0.089 -1.612,0.177 -2.418,0.266c-10.539,-3.527 -10.626,-1.615 -21.426,-2.302c-18.687,-1.189 -18.781,9.063 -36.847,2.317c0.38,-0.237 0.843,0.588 1.223,0.351c1.461,-0.913 1.042,-1.487 2.276,-2.692c4.893,-4.78 8.958,-14.756 12.893,-12.275c9.305,5.866 17.037,-1.871 23.833,3.089c4.918,3.589 4.158,6.816 9.681,6.161c2.851,-5.085 1.905,-5.689 0.146,-11.729l-1.211,-1.666l-1.318,-1.118l-1.044,-2.669Z" style="fill:#b6dee4;"/><path d="M202.269,707.272c0.268,-0.083 0.401,-0.589 0.668,-0.671c1.081,-0.333 0.78,0.443 0.871,1.968c0.91,15.26 2.024,15.685 -2.283,29.691c-4.776,15.534 -19.585,19.546 -20.588,5.15c5.059,-27.32 16.403,-29.929 21.332,-36.138Z" style="fill:#a3dbe4;"/><path d="M276.44,596.72c-2.516,1.872 -3.719,-1.698 1.333,-49.915c0.566,-5.398 8.101,-54.726 15.491,-68.207c7.017,-12.801 9.006,-8.941 9.241,-7.777c0.714,3.538 -13.486,20.64 -23.558,102.641c-2.042,16.624 -1.648,16.629 -2.507,23.259Z" style="fill:#7ad0e4;"/><path d="M192.264,928.18l1.176,2.14l1.015,1.342c-0.076,0.388 -0.614,0.602 -0.089,5.01c0.551,4.631 7.081,9.55 7.679,9.637c1.348,0.195 1.015,0.891 2.235,1.961c0.084,1.086 0.168,2.171 0.252,3.257l-0.177,3.615c-5.673,9.752 -7.097,5.464 -9.748,3.433c0.354,-0.356 0.917,0.776 1.271,0.42c0.119,-0.12 -0.087,-0.223 0.553,-2.446c1.017,-3.537 -17.253,-9.441 -12.709,-29.981c4.841,-21.882 20.359,2.895 32.286,5.967l-1.197,2.984c-10.659,4.772 -9.853,-5.628 -22.546,-7.338Z" style="fill:#b8dfe5;"/><path d="M661.412,526.512c29.831,51.61 32.626,78.663 34.066,93.604c-0.259,-0.421 -2.85,-4.631 -3.411,-5.046c-4.006,-2.963 -2.533,-4.55 -4.295,-10.387c-20.206,-66.919 -30.413,-63.373 -28.101,-76.215l1.742,-1.956Z" style="fill:#f4dccf;"/><path d="M752.368,961.213c0.689,-0.53 22.728,-23.481 23.837,-4.526c0.228,3.902 -7.547,23.889 -14.099,23.462c-3.914,-0.255 -15.018,1.582 -12.176,-10.311c0.857,-3.585 1.617,-2.896 2.627,-6.52c0.183,-0.658 -0.373,-1.445 -0.189,-2.104Z" style="fill:#daecef;"/><path d="M338.013,333.301c-0.76,2.899 -0.632,2.818 -1.728,5.511c-0.793,-0.718 -1.151,-2.169 -1.944,-2.886c-7.278,-6.588 -37.511,1.957 -30.763,13.226c7.102,6.057 18.711,-2.832 26.39,-7.288c0.451,-0.228 3.52,-1.776 5.868,-1.725c-0.982,3.434 -0.977,3.265 -2.127,6.763c-1.447,-1.671 -2.061,-1.027 -2.208,-0.873c-12.242,12.841 -24.564,13.393 -29.93,10.476c-19.987,-10.862 13.143,-37.917 31.808,-25.902c4.167,2.683 3.796,3.434 4.168,3.607c0.252,0.117 0.213,-1.024 0.465,-0.907Z" style="fill:#407ea5;"/><path d="M559.921,57.805c3.256,-3.196 13.871,-14.17 14.613,-14.183c2.19,-0.038 0.962,2.055 -2.901,38.208c-0.543,5.078 -1.903,3.85 -15.97,8.95c0.144,-4.588 0.56,-4.332 1.361,-8.71c2.819,-15.392 5.803,-16.75 2.896,-24.264Z" style="fill:#f1a14c;"/><path d="M274.48,371.248c-6.553,9.118 -22.374,14.662 -13.53,26.142c12.253,5.221 9.878,-11.742 18.24,-17.411c2.496,41.39 -36.051,29.532 -24.884,5.481c2.575,-5.547 12.3,-17.975 20.173,-14.212Z" style="fill:#3b79a3;"/><path d="M833.343,724.638l0.24,2.094c1.845,6.8 3.309,5.355 5.894,11.614c-2.816,4.991 -3.107,5.265 -2.136,11.579c0.924,6.009 5.082,13.495 9.07,13.334c1.791,-0.072 1.707,0.062 3.553,0.129c0.79,2.921 2.197,5.356 0.172,8.424c-0.234,0.355 -1.497,2.268 -2.544,4.889c-19.794,-5.992 -22.559,-47.799 -14.249,-52.062Z" style="fill:#7dcfe2;"/><path d="M662.096,336.959c0.019,-4.231 -3.054,-13.212 8.529,-9.576c7.915,2.484 11.857,7.391 15.377,12.965c4.301,6.81 4.349,16.101 4.549,18.11c-2.284,0.501 -2.502,0.564 -15.446,-10.912c-2.156,-8.705 -3.879,-6.566 -13.008,-10.587Z" style="fill:#f2d0b3;"/><path d="M370.001,339.661c-17.638,8.731 -27.597,17.878 -28.384,18.531c1.834,-8.179 2.751,-22.255 16.955,-29.162c9.594,-4.665 14.513,-2.871 11.428,10.631Z" style="fill:#f3d0b1;"/><path d="M455.827,106.945l1.173,0.232c0.34,-0.359 0.937,0.416 1.277,0.057c0.114,-0.12 -0.215,-0.295 1.085,-1.974c0.459,-0.593 4.819,-6.226 7.146,-4.385c1.215,0.961 1.076,1.473 2.359,1.122c5.232,-1.432 10.171,11.224 10.751,11.194c2.801,-0.145 5.699,-15.952 21.432,2.459c-0.711,0.747 -0.207,1.176 -0.87,1.873c-1.732,1.82 -1.971,1.035 -2.084,1.232c-0.249,0.433 0.754,1.078 0.504,1.511c-2.269,-4.607 -2.35,-4.386 -5.718,-7.348c-3.387,-1.834 -4.366,-1.757 -7.687,0.015c-2.715,2.92 -4.119,1.739 -5.011,9.002l-0.815,1.675c-0.766,1.435 -1.531,2.87 -2.297,4.306c-11.857,12.527 -16.681,0.07 -17.698,0.458c-0.711,0.271 -1.011,1.675 -1.722,1.946c-0.892,-4.873 -1.261,-5.657 1.808,-8.434c10.225,15.493 22.464,-1.027 13.109,-13.478c-6.476,-5.178 -9.484,-4.605 -13.418,3.448l-0.548,1.823c-1.753,-2.508 -2.307,-2.126 -2.777,-6.733Z" style="fill:#ae7549;"/><path d="M794.926,821.297c0.775,0.69 1.55,1.379 2.325,2.069l-0.068,1.666l0.051,1.666l-0.16,1.666l0.074,1.666l-0.042,1.666c1.62,5.981 -0.118,6.262 1.573,79.955c0.011,0.481 0.302,13.142 -2.797,4.559c-2.422,-6.708 -2.077,-86.66 -0.956,-94.914Z" style="fill:#43b3cf;"/><path d="M625.236,360.904c2.11,-3.013 2.059,-3.678 5.063,-3.014c19.715,4.355 30.903,8.322 61.952,42.023c-0.558,0.404 -0.813,1.408 -1.371,1.812c-2.66,1.927 -18.87,-28.249 -65.643,-40.822Z" style="fill:#62c4db;"/><path d="M711.077,460.168c4.698,4.376 3.086,5.884 4.914,13.238c-0.451,1.138 -0.903,2.276 -1.354,3.413l-0.07,1.666c1.778,15.227 0.125,20.247 -0.398,21.833c1.89,6.472 2.095,6.244 5.256,11.533c-1.567,1.879 -1.493,2.18 -3.609,2.201c-12.938,0.126 -6.71,-33.717 -6,-40.58c0.006,-4.176 0.117,-4.055 0.124,-8.275c0.622,-2.112 0.581,-1.938 0.622,-2.112c0.342,-1.454 0.154,-1.383 0.515,-2.919Z" style="fill:#b9dfe7;"/><path d="M535.225,111.499c0.739,-0.253 5.785,-1.98 9.336,2.496c11.737,14.797 -15.325,30.94 -15.881,7.953c1.956,-6.825 2.063,-6.886 6.546,-10.449Z" style="fill:#f2dd80;"/><path d="M268.435,485.391c-0.968,4.438 -2.63,12.064 -17.292,52.697c-3.098,8.586 -8.512,4.534 -9.192,4.025c4.912,-7.872 3.799,-8.757 8.281,-18.809c8.025,-17.998 5.975,-22.917 16.814,-37.275l1.388,-0.638Z" style="fill:#b2dee6;"/><path d="M510.559,112.696c-0.248,0.861 -0.497,1.722 -0.745,2.583l-1.02,1.666l-0.327,1.666l-0.581,1.666l0.197,1.666l0.044,1.666c0.575,2.559 0.922,8.618 3.45,4.818c6.519,-9.802 2.516,-13.892 2.407,-14.119l-1.166,-2.11c13.081,-0.284 14.881,18.415 4.612,24.315c-7.522,4.322 -24.867,-12.305 -6.872,-23.818Z" style="fill:#f4737b;"/><path d="M345.57,405.335c3.111,23.332 -12.061,52.201 -17.536,40.88c-2.754,-5.693 9.359,-21.005 14.803,-34.547c0.498,-1.238 0.492,-1.073 1.207,-1.895c0.163,-0.187 -0.079,-0.237 -1.113,-3.345c1.263,-0.982 1.242,-0.762 2.639,-1.093Z" style="fill:#b8dce4;"/><path d="M740.736,350.074c14.846,-1.118 22.646,29.199 7.092,23.597c-4.217,-1.519 -7.923,-10.557 -8.395,-11.709c-3.341,-8.15 1.026,-10.294 1.072,-10.369l0.231,-1.519Z" style="fill:#afdfe7;"/><path d="M687.123,415.19c4.662,-2.864 3.84,1.472 6.878,7.141c1.45,2.706 17.827,24.94 8.81,28.079c-10.374,3.611 -14.561,-27.354 -14.952,-30.247c-0.245,-1.658 -0.491,-3.315 -0.736,-4.973Z" style="fill:#b6dee4;"/><path d="M274.48,371.248c3.256,2.281 3.708,3.167 4.711,8.731c-8.362,5.669 -5.988,22.631 -18.24,17.411c-8.845,-11.48 6.976,-17.024 13.53,-26.142Z" style="fill:#abdbe1;"/><path d="M552.682,109.939c0.794,-1.14 8.856,-12.71 14.181,-0.992c2.175,4.786 -0.329,12.05 -0.652,12.988c-10.459,12.139 -17.738,-0.288 -13.529,-11.995Z" style="fill:#eddaa2;"/><path d="M365.573,416.952c6.614,0.385 6.525,0.126 13.057,-0.369c3.153,-0.239 6.545,6.519 3.356,9.802c-7.828,8.058 -8.225,9.716 -14.045,22.101c-0.398,-0.799 0.943,-0.554 0.528,-1.387c-0.774,-1.555 -1.462,-0.243 -2.183,-1.936c-0.667,-1.567 0.601,-1.444 0.477,-3.334c-0.113,-1.729 -0.809,-12.392 1.007,-21.658l-0.999,-1.333l-1.198,-1.888Z" style="fill:#834f37;"/><path d="M719.302,909.958c1.91,3.441 1.888,3.43 2.063,3.716c1.326,2.183 1.269,2.049 2.22,4.658c1.272,3.491 7.03,-2.151 8.926,4.493c1.084,3.798 2.433,2.262 3.482,2.116l1.581,-0.298c2.643,4.593 2.482,4.602 5.238,9.103c4.963,8.106 -4.939,10.45 -9.049,4.389c-12.206,-18.002 -18.716,-16.044 -14.462,-28.177Z" style="fill:#8bcfdc;"/><path d="M303.296,751.678c0.001,-0.005 2.756,-19.856 6.278,-16.228c1.28,1.318 5.533,11.558 5.677,17.952c0.366,16.199 -14.024,17.639 -11.956,-1.723Z" style="fill:#c1e5ec;"/><path d="M833.343,724.638c15.38,6.421 33.486,50.907 14.249,52.062c1.047,-2.621 2.309,-4.534 2.544,-4.889c2.025,-3.068 0.619,-5.503 -0.172,-8.424c0.122,-0.72 -0.596,-0.249 -0.477,-0.954c0.248,-1.466 0.837,-0.918 1.041,-2.379c0.06,-0.427 -0.292,-0.828 -0.563,-1.039c-0.395,-0.307 -1.063,0.097 -1.32,-0.425c-0.26,-0.527 0.253,-1.277 0.172,-1.908c-0.968,-7.608 -8.391,-17.121 -9.34,-18.337c-2.585,-6.259 -4.049,-4.813 -5.894,-11.614l-0.24,-2.094Z" style="fill:#d0e8eb;"/><path d="M746.711,961.56c-5.802,26.001 -28.036,10.887 -18.718,-1.022c1.155,-1.477 4.648,-3.733 8.021,-2.339c5.306,2.193 5.298,1.665 10.697,3.361Z" style="fill:#d9ecf0;"/><path d="M485.195,112.932l2.019,2.346l-0.827,1.666c-0.539,2.654 -0.648,2.654 0.139,5.057c0.647,1.978 0.976,1.342 2.527,1.981c0.056,0.023 0.623,2.054 1.458,0.01c2.049,-5.015 1.44,-5.296 0.518,-8.715l1.851,-2.361c3.367,2.961 3.448,2.741 5.718,7.348c0.284,3.421 0.285,3.342 -0.143,6.636c-1.761,3.018 -3.394,8.782 -10.601,6.768c-6.869,-1.92 -7.2,-8.303 -7.671,-11.736c0.892,-7.262 2.296,-6.082 5.011,-9.002Z" style="fill:#f2e17c;"/><path d="M321.834,463.355l0.018,1.667c0.12,1.593 0.239,3.187 0.359,4.78l-1.315,2.019c-2.37,4.82 -0.705,5.335 -0.748,16.569c-0.044,11.453 -5.267,20.852 -6.106,22.363c-1.189,-2.128 -4.816,-8.62 0.824,-33.779c1.072,-4.782 3.469,-11.78 3.811,-12.779c0.499,-1.456 0.757,-0.81 3.158,-0.841Z" style="fill:#91d5e0;"/><path d="M309.514,908.399c0.812,16.589 -9.554,9.963 -12.565,26.956l-0.367,0.945c-0.232,0.22 -4.024,4.294 -5.779,2.007c-4.423,-5.759 5.344,-22.884 5.642,-23.51c5.215,2.703 5.366,-2.058 10.967,-3.423l0.735,-1.372l1.368,-1.603Z" style="fill:#9cdee8;"/><path d="M336.285,338.812l-0.448,1.326c-2.349,-0.051 -5.417,1.498 -5.868,1.725c-0.791,-0.678 -1.583,-1.356 -2.374,-2.034l-1.187,0.068c-7.67,2.233 -17.475,2.751 -22.829,9.254c-6.748,-11.269 23.485,-19.814 30.763,-13.226c0.793,0.718 1.151,2.169 1.944,2.886Z" style="fill:#c8e7e8;"/><path d="M773.723,530.306l1.448,-1.83l1.71,1.658c1.074,2.881 0.588,3.197 12.721,36.514c1.376,3.777 0.73,3.912 1.089,5.838c-8.546,-0.899 -10.046,-10.902 -16.968,-42.18Z" style="fill:#a5dde4;"/><path d="M322.21,469.802c6.038,19.513 2.838,50.747 -8.169,40.951c0.84,-1.511 6.062,-10.91 6.106,-22.363c0.043,-11.234 -1.623,-11.748 0.748,-16.569l1.315,-2.019Z" style="fill:#c7e6e6;"/><path d="M720.706,335.028c-0.084,0.075 -0.317,2.475 -2.395,2.127c-1.054,-0.176 -1.063,0.227 -13.235,-1.273c-0.564,-0.069 -6.3,-0.776 -7.073,0.214c-0.968,1.239 -0.263,1.889 -1.291,2.892c-0.586,0.572 -0.469,-1.174 -1.04,-0.616c-3.415,-2.201 -4.578,-1.982 -4.595,-4.857c-0.027,-4.694 13.521,-8.468 23.458,-2.996c3.319,1.828 3.196,1.893 6.172,4.509Z" style="fill:#daf0f0;"/><path d="M472.569,108.406c9.355,12.451 -2.884,28.971 -13.109,13.478c-1.277,-3.873 -1.315,-3.846 -0.857,-8.207l0.548,-1.823c6.087,12.652 10.796,1.128 12.879,-1.574l0.538,-1.874Z" style="fill:#f0cf9a;"/><path d="M724.145,720.053c0.618,2.167 8.248,28.931 -3.595,28.737c-9.478,-0.156 -4.463,-17.514 -4.039,-18.983c0.254,0.777 0.232,1.696 0.486,2.473c2.766,8.468 6.266,2.227 5.587,-7.213l-0.062,-1.666c0.541,-1.116 1.081,-2.232 1.622,-3.348Z" style="fill:#96d6e1;"/><path d="M519.803,344.358c18.765,8.274 6.698,30.534 2.428,24.247c-2.597,-3.824 4.72,-9.366 -4.558,-17.048c-3.994,-3.307 -2.564,-6.92 2.13,-7.2Z" style="fill:#e7ab90;"/><path d="M600.826,339.749c0.568,0.305 4.554,2.445 6.904,4.447c-0.51,0.62 -0.644,-0.323 -1.119,0.255c-0.886,1.077 -0.296,1.561 -1.21,2.575c-0.311,0.345 -0.796,0.172 -1.187,0.085c-4.229,-0.944 -4.175,-0.901 -8.323,0.374c-5.19,1.595 -7.521,-0.031 -10.673,1.512l-0.426,1.199l-0.761,0.438l-1.187,-0.76l-1.187,-0.185l-1.18,2.914l-2.379,-0.742c-1.844,-4.88 1.081,-8.003 1.185,-8.248l1.187,-1.003l1.187,-0.081c8.157,-1.258 9.574,-0.88 14.246,-1.222l1.187,-0.015l1.187,-0.147l1.187,-0.073l1.361,-1.323Z" style="fill:#bcdee0;"/><path d="M198.389,859.749c0.927,1.335 18.536,26.701 2.208,23.086c-7.462,-1.652 -8.79,-11.488 -8.981,-12.906c0.608,0.475 1.216,0.95 1.824,1.426l1.187,0.937c2.236,0.593 2.172,0.685 2.365,0.711c4.651,0.643 1.307,-3.204 -0.385,-11.318l1.783,-1.936Z" style="fill:#9edae5;"/><path d="M747.783,1021.287c-1.112,0.291 -12.713,3.325 -13.745,-4.686c-1.251,-9.72 22.75,-9.912 17.449,1.768c-0.554,1.221 -0.68,0.896 -3.704,2.918Z" style="fill:#3289b4;"/><path d="M845.461,889.935c1.837,26.215 -19.37,27.055 -14.048,10.401c1.375,-4.303 1.68,-3.833 3.82,-7.486c0.345,1.09 1.69,1.067 2.034,2.158c0.323,1.021 -0.442,2.226 -0.3,3.326c0,0 1.032,1.712 1.122,1.86c3.614,-3.095 3.399,-3.356 5.588,-8.518l1.785,-1.74Z" style="fill:#a1dee4;"/><path d="M839.477,738.346c0.949,1.216 8.372,10.728 9.34,18.337c0.08,0.631 -0.432,1.38 -0.172,1.908c0.257,0.521 0.925,0.118 1.32,0.425c0.271,0.211 0.623,0.612 0.563,1.039c-0.204,1.461 -0.793,0.914 -1.041,2.379c-0.119,0.705 0.599,0.234 0.477,0.954c-1.846,-0.067 -1.762,-0.201 -3.553,-0.129c-3.989,0.161 -8.147,-7.325 -9.07,-13.334c-0.971,-6.313 -0.68,-6.588 2.136,-11.579Z" style="fill:#c2e3e7;"/><path d="M297.669,691.626c7.547,-18.679 15.727,12.496 6.17,15.042c-7.251,1.932 -6.258,-13.659 -6.17,-15.042Z" style="fill:#3a89a9;"/><path d="M375.163,390.101c0.277,0.96 3.279,11.366 1.943,12.657c-3.222,3.113 -15.9,-1.169 -17.244,-1.624c0.528,-6.242 12.717,-11.028 15.301,-11.034Z" style="fill:#f7ebe1;"/><path d="M715.992,473.406c2.186,7.342 2.63,9.463 2.808,10.31c5.047,24.09 1.401,26.091 0.627,28.136c-3.161,-5.289 -3.367,-5.061 -5.256,-11.533c0.522,-1.586 2.176,-6.606 0.398,-21.833l0.07,-1.666c0.451,-1.138 0.903,-2.276 1.354,-3.413Z" style="fill:#72cce1;"/><path d="M329.767,1004.785c0.745,-0.898 4.716,-5.685 12.2,-1.852c0.275,0.141 3.381,1.732 3.436,1.776c0.568,0.449 0.72,1.618 1.288,2.067c-5.187,7.909 -14.589,6.143 -20.281,1.521c1.119,-1.171 2.238,-2.341 3.357,-3.512Z" style="fill:#51a9c6;"/><path d="M720.706,335.028c1.189,5.825 0.507,6.786 -3.753,8.196c-8.333,2.758 -19.691,-3.917 -21.282,-4.852c0.571,-0.558 0.454,1.188 1.04,0.616c1.028,-1.003 0.323,-1.653 1.291,-2.892c0.774,-0.99 6.509,-0.283 7.073,-0.214c12.172,1.5 12.181,1.097 13.235,1.273c2.078,0.348 2.311,-2.053 2.395,-2.127Z" style="fill:#87d5e2;"/><path d="M329.968,341.864c-7.679,4.456 -19.288,13.345 -26.39,7.288c5.354,-6.503 15.16,-7.021 22.829,-9.254l1.187,-0.068c0.791,0.678 1.583,1.356 2.374,2.034Z" style="fill:#8cd1df;"/><path d="M329.767,1004.785c-1.119,1.171 -2.238,2.341 -3.357,3.512c-8.73,-13.24 25.406,-18.351 20.281,-1.521c-0.568,-0.449 -0.72,-1.618 -1.288,-2.067c-0.055,-0.044 -3.161,-1.635 -3.436,-1.776c-7.483,-3.834 -11.455,0.954 -12.2,1.852Z" style="fill:#39759d;"/><path d="M657.712,391.893c0.101,-0.093 1.261,-1.162 1.261,-1.162c0.971,-0.301 12.08,5.765 12.843,10.966c-0.414,0.143 -5.253,3.041 -12.967,1.635c-5.286,-0.963 -2.42,-4.268 -1.137,-11.439Z" style="fill:#f7e9da;"/><path d="M678.942,1003.238c-1.391,1.448 -3.579,3.694 -3.891,4.014c-7.885,-15.003 30.174,-15.383 20.332,0.57c-2.748,-5.417 -3.282,-4.558 -4.162,-5.145c-0.822,-0.353 -7.405,-3.729 -12.279,0.561Z" style="fill:#42789e;"/><path d="M719.302,909.958c6.186,-9.812 15.963,10.186 18.272,14.684l-1.581,0.298c-1.049,0.146 -2.398,1.683 -3.482,-2.116c-1.896,-6.643 -7.653,-1.002 -8.926,-4.493c-0.951,-2.609 -0.894,-2.475 -2.22,-4.658c-0.174,-0.287 -0.153,-0.275 -2.063,-3.716Z" style="fill:#c8eaee;"/><path d="M480.184,121.934c0.472,3.432 0.802,9.816 7.671,11.736c7.207,2.014 8.841,-3.75 10.601,-6.768c1.694,2.972 2.246,4.732 2.387,5.184c-7.85,8.178 -14.496,12.798 -23.772,-4.172c0.766,-1.435 1.531,-2.87 2.297,-4.306l0.815,-1.675Z" style="fill:#b5833b;"/><path d="M386.571,393.694l1.88,-0.179l1.322,1.666l1.316,1.666c5.115,9.715 4.568,10.19 8.612,14.995l-0.094,1.666l0.399,1.603c-5.709,1.892 -7.03,2.419 -9.676,-6.489c-0.347,-1.169 -0.278,-1.106 -3.759,-14.928Z" style="fill:#e5a98f;"/><path d="M472.569,108.406l-0.538,1.874c-2.083,2.702 -6.793,14.226 -12.879,1.574c3.934,-8.053 6.942,-8.626 13.418,-3.448Z" style="fill:#f1e9dd;"/><path d="M678.942,1003.238c3.733,3.49 3.93,2.418 8.377,2.621c3.306,0.151 3.243,0.202 3.484,0.006c1.176,-0.959 -0.804,-2.191 0.418,-3.187c0.88,0.587 1.414,-0.272 4.162,5.145c-1.472,0.972 -12.017,7.931 -20.332,-0.57c0.312,-0.32 2.5,-2.566 3.891,-4.014Z" style="fill:#3f99bd;"/><path d="M413.855,374.439c1.968,-2.166 1.783,-2.341 4.125,-3.693c9.01,-5.2 3.943,8.416 -2.705,11.984c-4.195,2.251 -6.417,-4.789 -1.421,-8.292Z" style="fill:#c0e4e8;"/><path d="M616.096,381.825c-0.5,-0.465 -4.091,-3.81 -5.58,-7.027c-5.019,-10.84 5.339,-4.151 10.105,2.363c0.322,0.44 4.268,9.186 -4.524,4.663Z" style="fill:#d4e0e0;"/><path d="M861.828,956.437c8.964,5.695 0.235,15.264 -8.391,17.615c-0.285,-1.331 -1.542,-1.957 -1.827,-3.288c-0.218,-1.02 9.879,-2.221 10.219,-14.326Z" style="fill:#42b2d2;"/><path d="M724.145,720.053c-0.541,1.116 -1.081,2.232 -1.622,3.348l0.062,1.666c0.679,9.44 -2.821,15.681 -5.587,7.213c-0.254,-0.777 -0.232,-1.696 -0.486,-2.473c1.973,-5.548 3.644,-17.028 7.634,-9.754Z" style="fill:#cceaea;"/><path d="M510.559,112.696l2.261,-0.497l1.166,2.11c0.108,0.226 4.112,4.317 -2.407,14.119c-2.527,3.8 -2.875,-2.259 -3.45,-4.818l-0.044,-1.666l-0.197,-1.666l0.581,-1.666l0.327,-1.666l1.02,-1.666c0.248,-0.861 0.497,-1.722 0.745,-2.583Z" style="fill:#f699a1;"/><path d="M429.597,526.667c4.359,-5.061 6.191,-10.176 14.85,-0.485c-3.241,4.457 -4.792,3.945 -5.252,3.793c-4.141,-1.367 -4.009,-1.6 -8.313,-2.058l-1.284,-1.249Z" style="fill:#ec94b3;"/><path d="M336.921,452.866c-0.139,0.192 0.497,2.714 -3.454,3.655c-1.163,0.685 -2.327,1.37 -3.49,2.055c-4.26,0.411 -4.221,-0.174 -8.223,1.508c-0.09,-0.885 -1.249,-12.261 4.445,-9.275c5.097,2.673 5.053,3.301 10.723,2.057Z" style="fill:#673625;"/><path d="M845.461,889.935l-1.785,1.74c-2.189,5.162 -1.974,5.423 -5.588,8.518c-0.09,-0.149 -1.122,-1.86 -1.122,-1.86c-0.142,-1.099 0.623,-2.304 0.3,-3.326c-0.345,-1.09 -1.69,-1.067 -2.034,-2.158c4.705,-7.607 7.081,-12.037 10.229,-2.914Z" style="fill:#d3ecee;"/><path d="M198.389,859.749l-1.783,1.936c1.692,8.113 5.037,11.961 0.385,11.318c-0.193,-0.027 -0.129,-0.118 -2.365,-0.711l-1.187,-0.937c-0.608,-0.475 -1.216,-0.95 -1.824,-1.426c0.431,-10.123 1.033,-16.301 6.773,-10.18Z" style="fill:#e1f3f2;"/><path d="M309.514,908.399l-1.368,1.603l-0.735,1.372c-5.601,1.365 -5.752,6.127 -10.967,3.423c0.665,-1.243 9.845,-18.409 13.07,-6.398Z" style="fill:#d5f1f2;"/><path d="M580.308,339.593c5.626,-2.091 10.491,-5.419 20.518,0.156l-1.361,1.323l-1.187,0.073l-1.187,0.147l-1.187,0.015c-4.673,0.342 -6.089,-0.036 -14.246,1.222l-1.187,0.081l-0.161,-3.017Z" style="fill:#e7dacd;"/><path d="M172.036,963.443c2.006,-3.008 1.695,-3.55 3.745,-4.535c0.643,-0.309 1.048,-0.504 6.974,6.802l1.057,0.938l1.317,0.484l1.187,0.63l1.108,2.49c-7.395,-2.725 -8.123,0.119 -15.388,-6.809Z" style="fill:#b8dee5;"/><path d="M592.269,523.299c5.811,-3.212 6.321,-2.629 10.939,3.241l-1.393,1.928c-2.634,6.11 -6.565,1.775 -8.812,-3.332l-0.734,-1.837Z" style="fill:#ea98b4;"/><path d="M588.95,510.706c-9.592,6.481 -9.983,2.104 -9.901,0.996c0.123,-1.66 14.092,-12.059 12.207,-3.177c-0.418,1.969 -0.83,1.244 -2.305,2.182Z" style="fill:#8e5442;"/><path d="M196.806,718.239l1.653,1.829c-1.568,13.482 -3.662,13.746 -5.712,16.94c-1.768,-5.532 -1.699,-9.675 4.06,-18.769Z" style="fill:#a1d8e1;"/><path d="M662.096,336.959c9.129,4.02 10.853,1.881 13.008,10.587c-3.341,-0.381 -3.215,-0.909 -12.749,-5.596c-0.086,-1.664 -0.173,-3.327 -0.259,-4.991Z" style="fill:#d08163;"/><path d="M485.195,112.932c3.321,-1.771 4.3,-1.849 7.687,-0.015l-1.851,2.361c0.922,3.419 1.531,3.7 -0.518,8.715c-0.835,2.044 -1.403,0.012 -1.458,-0.01c-1.551,-0.639 -1.88,-0.003 -2.527,-1.981c-0.787,-2.404 -0.678,-2.403 -0.139,-5.057l0.827,-1.666l-2.019,-2.346Z" style="fill:#f5edad;"/><path d="M538.917,114.385c5.121,8.124 -3.555,16.207 -5.473,5.892l0.505,-1.666l0.278,-1.666l0.675,-1.666l1.64,-1.684l1.187,-0.185l1.187,0.976Z" style="fill:#f5f0bc;"/><path d="M204.118,973.892c0.315,-0.363 0.897,0.593 1.212,0.23c0.519,-0.597 0.993,-6.777 2.327,-7.545c1.422,-0.818 1.786,-0.85 7.053,7.568c-4.997,2.46 -5.862,1.193 -10.592,-0.254Z" style="fill:#c4e3e7;"/><path d="M439.139,340.025c1.621,1.054 3.241,2.107 4.862,3.161c-2.321,4.806 -3.183,2.648 -7.183,3.615l-1.187,-0.415l-1.187,0.045l-1.187,-0.032l-1.187,-0.08l-1.187,-0.075c-0.55,-0.279 -0.596,-1.586 -1.146,-1.865c-0.185,-0.094 -0.181,-0.025 -2.447,-0.337l3.59,-0.468c4.442,-0.291 4.295,-0.762 8.26,-3.547Z" style="fill:#99c6cc;"/><path d="M726.924,454.837c4.206,10.233 6.798,10.16 4.326,16.983c-2.351,-3.012 -3.26,-2.279 -3.575,-6.651c-0.056,-0.774 -0.955,-3.954 -1.305,-4.6c-1.502,-2.77 -0.561,-2.993 0.553,-5.733Z" style="fill:#a7dde1;"/><path d="M678.942,1003.238c4.874,-4.29 11.457,-0.914 12.279,-0.561c-1.222,0.996 0.758,2.229 -0.418,3.187c-0.241,0.197 -0.178,0.145 -3.484,-0.006c-4.447,-0.203 -4.644,0.869 -8.377,-2.621Z" style="fill:#78c4de;"/><path d="M204.532,951.526c7.026,-0.603 7.188,-1.298 11.477,1.896c-0.132,1.128 -0.264,2.257 -0.395,3.385c-5.237,-3.521 -5.428,-1.621 -11.259,-1.667l0.177,-3.615Z" style="fill:#bfe0e5;"/><path d="M608.472,751.884c-0.367,-0.677 -1.652,-3.046 -4.066,-8.974c-0.848,-2.083 -1.908,-0.592 -2.47,-2.817c-0.666,-2.639 2.821,-2.966 3.161,-1.616c2.165,8.581 8.139,9.174 3.374,13.407Z" style="fill:#e6678d;"/><path d="M445.154,506.725c4.595,3.335 8.058,5.404 6.454,7.455c-1.653,2.114 -14.524,-6.883 -6.454,-7.455Z" style="fill:#89554c;"/><path d="M822.659,970.421c-11.055,4.982 -9.19,-3.834 -8.523,-4.228c2.145,-1.265 5.259,2.027 6.252,1.87c0.297,-0.047 0.584,-0.742 0.824,-0.493c0.668,0.694 0.779,2.157 1.447,2.851Z" style="fill:#b5dee5;"/><path d="M748.023,1012.877c-0.021,0.837 0.854,1.387 0.833,2.224c-0.153,6.232 -17.267,-0.95 -6.901,-1.323c1.175,-0.042 2.133,0.021 2.318,0.033c2.027,0.134 1.858,-0.463 3.75,-0.934Z" style="fill:#57b5db;"/><path d="M722.167,933.522c1.59,-2.069 5.602,1.106 0.842,5.46c-1.349,1.235 -1.162,1.427 -2.442,2.709c-2.094,2.096 -2.213,-0.393 -2.63,-0.467c2.781,-3.161 3.012,-2.88 4.23,-7.702Z" style="fill:#b5bcc0;"/><path d="M303.609,690.141c2.242,11.843 -1.652,10.424 -2.049,9.824c-0.726,-1.096 -0.621,-4.532 -0.609,-4.932c0.114,-3.736 -0.075,-4.836 2.658,-4.893Z" style="fill:#86d1de;"/><path d="M345.082,441.537l1.37,1.961c-0.845,1.483 -1.476,5.213 -4.612,8.634c-0.976,1.065 -1.08,1.03 -1.187,0.993c-1.064,-0.362 -0.426,-1.541 -1.5,-1.907c2.365,-2.915 2.099,-3.036 5.929,-9.681Z" style="fill:#6c453c;"/><path d="M797.718,971.609c-0.408,0.06 -7.066,1.04 -4.613,-3.146c1.237,-2.112 10.272,-3.041 4.613,3.146Z" style="fill:#c6e3e6;"/><path d="M216.009,953.422c8.027,4.308 2.868,7.876 2.413,7.671c-2.133,-0.96 -1.588,-1.709 -2.808,-4.286c0.132,-1.128 0.264,-2.257 0.395,-3.385Z" style="fill:#9ac8d4;"/><path d="M570.416,101.868c-0.281,1.793 -0.222,1.711 -0.551,3.51c-0.526,2.873 -0.901,-0.144 -2.07,-2.572c1.412,-0.359 1.367,-0.046 2.621,-0.938Z" style="fill:#a86b4e;"/><path d="M709.94,465.199c-0.007,4.219 -0.118,4.099 -0.124,8.275c-0.714,-2.39 -0.742,-2.254 -0.95,-4.887c0.358,-1.129 0.716,-2.258 1.074,-3.387Z" style="fill:#5688a4;"/><path d="M624.402,372.588l1.178,0.8c-0.153,1.204 -0.306,2.407 -0.458,3.611c-2.788,-1.279 -0.821,-3.867 -0.719,-4.411Z" style="fill:#85858d;"/><path d="M333.466,456.521c-1.163,0.685 -2.327,1.37 -3.49,2.055c1.163,-0.685 2.327,-1.37 3.49,-2.055Z" style="fill:#77462e;"/><path d="M296.949,935.355c0.814,0.24 1.628,0.479 2.442,0.719c-0.937,0.076 -1.873,0.151 -2.81,0.227l0.367,-0.945Z" style="fill:#559abf;"/><path d="M410.709,369.986c0.18,-0.079 2.249,-0.985 2.249,-0.985c1.236,1.716 -0.628,0.275 -2.249,0.985Z" style="fill:#64616f;"/><path d="M278.983,975.398c0.806,-0.089 1.612,-0.177 2.418,-0.266l-0.59,1.002c-0.98,-0.122 -0.985,0.118 -1.828,-0.736Z" style="fill:#7bcade;"/><path d="M836.934,901.099c-1.78,1.813 -2.215,5.596 -2.437,2.482c-0.024,-0.336 0.174,-0.177 2.437,-2.482Z" style="fill:#a1e0e7;"/><path d="M458.833,61.463c0.314,-1.403 0.605,-0.579 1.544,-0.166l-1.544,0.166Z" style="fill:#f2e09a;"/><path d="M669.467,290.258c0.323,2.014 1.789,3.311 0.421,2.627c0,0 -0.388,-2.417 -0.421,-2.627Z" style="fill:#b16c51;"/><path d="M275.437,949.745c-0.334,-0.338 -0.893,0.531 -1.226,0.193c-1.263,-1.279 -0.12,-1.459 -0.037,-1.472c0.918,-0.145 0.41,1.413 1.263,1.279Z" style="fill:#77d1e4;"/></g></svg>