<?xml version="1.0" encoding="UTF-8" standalone="no"?><!DOCTYPE svg PUBLIC "-//W3C//DTD SVG 1.1//EN" "http://www.w3.org/Graphics/SVG/1.1/DTD/svg11.dtd"><svg width="100%" height="100%" viewBox="0 0 2048 2048" version="1.1" xmlns="http://www.w3.org/2000/svg" xmlns:xlink="http://www.w3.org/1999/xlink" xml:space="preserve" xmlns:serif="http://www.serif.com/" style="fill-rule:evenodd;clip-rule:evenodd;stroke-linejoin:round;stroke-miterlimit:2;"><g id="Background"><path d="M1400.428,450.678c0.508,0.859 1.016,1.717 1.525,2.576c1.378,-2.177 1.624,-1.536 2.498,-3.947c0.242,-0.667 17.879,-40.188 20.23,-43.181c8.45,-10.758 14.554,19.111 27.359,60.336c9.428,30.352 8.624,34.601 12.03,32.25c18.439,-12.729 62.538,-66.499 56.809,-26.429c-4.634,32.413 -17.932,75.447 -12.321,80.041c7.978,6.532 104.15,55.741 119.004,224.728c10.054,114.374 -29.445,194.001 11.085,225.506c19.526,15.179 32.885,-17.217 37.269,9.496c8.154,49.682 -19.933,121.382 -67.269,141.391c-7.933,3.353 -9.873,0.876 -9.97,6.749c-0.053,3.202 3.266,21.414 -2.129,48.717c-3.982,20.153 -8.712,20.239 -3.656,39.964c2.598,10.134 24.563,95.829 -7.905,134.897c-10.354,12.458 -17.862,11.186 -13.554,17.254c9.935,13.994 74.394,104.787 108.188,196.623c27.727,75.348 28.735,74.416 51.537,153.42c3.994,13.84 24.331,78.705 18.455,91.095c-19.526,41.166 -52.074,43.583 -79.574,76.999c-22.868,27.787 -37.734,33.149 -39.137,33.956c-53.432,30.012 -90.799,7.567 -96.809,19.151c-3.903,7.523 -2.997,11.31 -19.281,36.371c-4.603,6.303 -44.378,60.762 -75.878,30.015c-7.18,-7.008 -8.81,-23.941 -9.035,-26.274c0.046,-18.688 -1.159,-18.953 -2.316,-18.838c-21.228,2.105 -21.694,10.094 -78.714,-0.667c-8.647,-1.632 -6.672,9.378 -47.708,24.767c-14.025,4.635 -18.197,7.179 -38.363,5.007c-57.184,-14.151 -7.999,-74.067 -8.008,-74.891c-0.192,-16.678 -91.742,6.052 -150.282,-101.831c2.815,-4.945 2.718,-5.081 2.976,-11.383c0.045,-1.091 0.32,-7.802 -0.839,-13.607l0.086,-2.697l-2.423,-2.957c17.449,-121.023 64.892,-267.674 92.335,-320.874c20.097,-38.961 18.451,-53.046 79.476,-133.728c14.396,-19.033 16.652,-15.457 16.909,-17.879c0.636,-5.996 -9.863,0.938 -24.709,4.184c-38.329,8.381 -38.081,9.638 -219.822,53.706c-132.201,32.055 -658.63,164.822 -670.331,162.856c-2.065,-0.347 -2.236,0.631 -42.362,-17.289c-25.998,-12.704 -36.386,-10.829 -37.188,-59.747c-0.607,-37.001 -0.339,-1313.371 -0.249,-1324.367c0.895,-108.879 -15.845,-149.492 57.676,-162.101c10.326,-1.771 468.849,48.15 498.269,50.465c4.937,0.388 235.84,24.466 256.348,26.604c21.54,2.246 254.652,26.554 269.181,29.548c25.777,5.313 21.474,34.864 21.567,120.208c0.23,210.045 -0.182,210.04 -0.982,223.808Z" style="fill:#441d11;"/><path d="M396.062,129.658c10.124,-2.732 10.068,2.424 128.506,9.345c2.309,0.135 165.419,14.102 190.458,16.093c33.997,2.704 407.443,32.405 424.923,34.836c9.212,1.282 9.114,-0.396 115.49,9.231c57.993,5.249 59.779,2.303 61.813,8.979c2.366,7.762 6.149,343.159 6.824,345.287c0.431,1.359 1.576,2.182 1.788,3.649c0.092,0.639 -1.195,0.457 -1.102,1.096c-122.227,98.108 -90.202,251.614 -91.691,256.561c-1.386,4.605 -15.992,16.179 -13.5,56.688c2.389,38.839 21.849,42.392 21.753,56.745c-0.286,42.707 -9.904,64.288 -20.573,58.362c-2.082,-1.156 -23.317,-21.51 -22.342,25.256c1.503,72.076 47.569,92.719 45.237,102.145c-10.562,42.678 -28.06,44.217 -31.625,37.611c-14.183,-26.273 -33.306,-63.205 -36.171,-68.737c-13.868,-26.781 0.369,-45.656 -20.384,-90.754c-8.687,-18.877 -31.247,-39.316 -59.32,-30.279c-10.437,3.36 -24.547,-67.101 -49.229,-30.467c-18.791,27.89 34.311,68.804 29.432,83.455c-4.172,12.531 -3.952,12.594 -3.861,26.68c0.108,16.666 -10.248,36.568 12.155,52.44c9.842,6.973 10.457,18.734 26.496,30.036c11.797,8.312 4.346,16.575 28.827,82.091c0.045,0.12 10.148,21.734 5.251,22.984c-11.077,2.828 -279.503,57.841 -303.812,62.823c-440.672,90.314 -445.176,95.609 -445.56,86.907c-1.301,-29.552 -0.248,-781.793 -0.153,-849.774c0.455,-324.816 -0.285,-374.374 0.369,-399.289Z" style="fill:#507655;"/><path d="M1312.837,1351.028c9.923,12.371 9.824,12.455 10.688,13.521c-4.877,3.986 -9.872,11.134 -10.647,12.243c-28.344,40.564 -52.753,93.568 -56.782,102.317c-25.03,54.352 -36.257,103.965 -34.582,106.078c4.169,5.257 -0.972,-7.952 44.147,-99.581c32.869,-66.751 62.921,-102.415 66.812,-110.01c10.352,11.981 14.068,16.884 15.244,18.435c-34.571,60.931 -95.945,280.904 -93.938,480.796c0.054,5.366 3.165,5.466 3.695,0.176c3.863,-38.521 1.149,-39.053 14.971,-134.798c24.914,-172.584 51.737,-244.753 64.441,-288.275c0.8,-2.741 1.579,-2.131 11.325,-33.352c1.332,-4.268 2.083,-8.941 3.676,-13.011c0.611,-1.56 2.179,-1.947 2.79,-3.507c10.381,9.978 10.098,12.337 17.878,11.087c11.732,20.856 10.386,39.222 51.202,55.383c13.31,5.27 18.894,-6.322 23.092,12.905c24.139,110.57 50.563,272.858 55.332,396.23c0.019,0.488 3.932,16.249 4.146,-0.082c0.221,-16.892 1.158,-88.285 -13.117,-210.306c-21.336,-182.376 -39.837,-201.177 -30.501,-206.688c26.187,-15.457 28.957,-9.999 35.783,-2.653c8.064,8.677 7.65,9.593 17.067,14.888c2.775,1.56 2.618,2.207 19.596,46.447c6.879,17.926 24.202,68.221 27.404,80.919c12.55,49.767 1.993,-36.488 -31.452,-134.739c-3.968,-11.657 -7.005,-14.089 -3.122,-15.021c4.523,-1.086 13.469,16.288 32.201,56.896c28.88,62.608 69.811,190.556 91.069,291.935c15.605,74.415 16.193,81.668 16.789,89.006c0.074,0.917 0.515,6.342 1.545,11.319c-24.161,25.799 -22.73,32.379 -60.84,46.964c-50.77,18.003 -72.546,-1.898 -115.137,9.852c-17.705,4.884 -17.366,6.179 -34.975,12.33c-89.401,31.227 -139.245,1.352 -177.814,-22.945c-42.571,-27.744 -44.334,-18.491 -89.708,-34.609c3.185,-10.751 5.012,-8.058 12.969,-7.881c3.064,0.068 6.115,0.702 9.179,0.77c-0.014,-0.484 0.379,-0.866 0.365,-1.349c-0.289,-9.932 -21.655,-4.034 -31.475,-5.272c-4.515,-0.569 -4.38,0.429 -7.516,5.181c-4.298,-2.76 -31.118,-19.986 -49.471,-46.284c2.944,-15.002 2.735,-14.851 5.219,-30.144c46.229,-284.558 142.576,-431.415 182.452,-475.168Z" style="fill:#f0849e;"/><path d="M1266.039,768.128l2.191,3.334c0.613,1.031 0.943,-0.773 1.552,0.251c0.761,1.281 -0.331,1.515 0.227,2.741c0.184,0.404 1.07,2.348 3.647,2.86c0.589,0.117 5.839,1.161 7.432,-0.099c0.734,-0.581 0.549,-2.693 1.331,-3.118c0.872,-0.473 1.919,1.622 2.717,0.92c1.459,-1.283 2.136,-3.903 3.061,-6.002c1.594,-3.616 3.844,1.249 7.607,-0.583c14.192,-6.907 14.954,-0.35 27.004,-6.036c24.038,-11.342 44.507,-35.208 44.647,-35.315c21.933,-16.803 23.477,-43.531 28.363,-27.925c1.569,5.013 12.165,38.862 25.058,58.308c14.13,21.312 17.289,17.707 23.123,16.203c2.362,-0.609 10.147,6.733 11.061,6.091c1.069,-0.751 1.329,-3.11 2.398,-3.861c39.874,40.313 58.526,44.972 72.787,52.155c2.133,1.074 1.56,1.983 4.092,10.915c1.925,11.377 1.209,11.585 5.265,24.243l-2.201,2.906c-4.401,22.59 4.716,91.184 -67.984,147.397c-13.904,10.751 -31.525,15.223 -36.452,16.521c-38.684,12.517 -38.973,8 -78.651,8.493c-6.565,-6.9 -6.583,-6.576 -14.533,-8.981c-4.656,-1.181 -4.492,-1.183 -9.122,-2.313c-8.378,-2.046 -10.98,-13.935 -17.307,-7.373l-1.391,3.27c-12.432,-12.022 -16.191,-14.559 -27.975,-34.659c0.1,-1.952 3.011,-1.724 3.111,-3.676c0.273,-5.308 -14.382,-16.745 -19.969,-67.792c7.619,6.23 7.502,5.923 8.135,6.486c24.473,21.733 37.78,-12.319 32.363,-24.094c-10.098,-21.949 -36.782,-8.117 -39.804,-6.55c-0.745,-9.421 -1.531,-58.022 0.446,-105.011c-1.869,-1.504 -1.729,-1.362 -1.869,-1.504c-1.71,-1.726 -1.052,-2.465 -2.703,-4.132c0.443,-7.554 -0.669,-7.981 2.344,-14.068Z" style="fill:#f8d0a9;"/><path d="M386.438,97.378c0.783,627.301 -0.869,627.108 -0.169,1254.226c0.034,30.727 4.226,34.109 -10.186,56.494c-27.449,42.634 -34.143,63.942 -34.004,43.305c1.127,-167.432 -1.897,-1398.384 0.902,-1413.429c0.209,-1.125 3.121,-16.774 7.144,-10.099c2.825,4.688 2.324,5.281 34.78,59.291c1.158,1.927 1.495,9.377 1.533,10.212Z" style="fill:#ac734d;"/><path d="M354.982,16.203c8.114,-6.777 8.674,-0.35 105.536,7.226c14.357,1.123 165.36,18.905 205.073,21.258c6.106,0.362 655.192,69.797 697.931,73.262c2.081,0.169 23.881,-0.547 17.842,8.582c-15.15,22.903 -22.966,44.691 -30.717,43.923c-134.661,-13.345 -645.821,-60.321 -776.564,-71.635c-13.014,-1.126 -155.057,-14.347 -168.54,-15.602c-19.331,-1.799 -17.599,-8.628 -30.305,-30.066c-7.744,-13.065 -7.476,-13.22 -20.256,-36.947Z" style="fill:#aa724c;"/><path d="M1349.772,574.908c8.293,26.247 76.117,49.481 134.711,30.243c18.475,-6.066 14.201,-28.779 18.437,-35.393c3.631,-5.67 66.334,35.374 94.842,118.476c54.696,159.441 -19.718,271.512 30.118,322.381c19.026,19.42 33.133,7.564 35.997,6.632c5.001,-1.627 1.917,3.43 2.383,10.937c-14.448,12.198 -22.896,53.78 -62.946,24.329c-10.274,-7.555 -23.848,-33.578 -25.235,-59.666c-0.939,-17.668 -0.835,-17.457 -0.35,-35.145c6.375,-6.067 6.305,-5.813 6.833,-6.363c12.959,-13.529 17.775,-46.948 17.797,-47.384c1.968,-40.064 -24.802,-73.644 -49.757,-52.791c-6.456,5.394 -7.355,-11.347 -10.481,-25.498c0.888,0.642 7.559,5.466 12.084,3.864c3.354,-1.187 3.698,-11.095 -13.09,-11.878c-9.758,-4.519 -78.42,-36.316 -109.142,-98.099c-32.196,-64.747 -29.038,-95.985 -40.313,-73.829c-2.859,5.619 -19.367,38.056 -43.311,60.292c-41.192,38.253 -66.331,41.858 -89.35,49.176c-9.287,2.953 -2.619,48.406 -9.201,53.866c-8.587,7.123 -8.547,-15.141 -9.175,-23.824c3.778,-5.551 3.331,-6.03 3.156,-13.787c-0.923,-40.994 20.274,-95.35 32.078,-115.329c41.258,-69.828 71.196,-75.388 73.624,-78.422c0.487,-0.608 -0.197,-2.18 0.29,-2.788Z" style="fill:#a05f45;"/><path d="M1557.47,1403.366c45.932,60.677 70.864,103.536 107.408,189.084c30.307,70.948 58.791,165.501 70.995,220.105c5.683,25.428 4.228,30.854 -24.174,54.913c-21.332,15.794 -21.814,13.969 -42.109,32.115c-1.03,-4.976 -1.471,-10.401 -1.545,-11.319c-0.596,-7.338 -1.185,-14.591 -16.789,-89.006c-21.259,-101.379 -62.19,-229.327 -91.069,-291.935c-18.732,-40.608 -27.678,-57.982 -32.201,-56.896c-3.883,0.932 -0.846,3.364 3.122,15.021c33.445,98.251 44.002,184.506 31.452,134.739c-3.202,-12.699 -20.524,-62.994 -27.404,-80.919c-16.978,-44.239 -16.821,-44.886 -19.596,-46.447c-9.418,-5.295 -9.004,-6.21 -17.067,-14.888c-6.826,-7.346 -9.596,-12.804 -35.783,2.653c-9.336,5.511 9.165,24.312 30.501,206.688c14.275,122.02 13.339,193.414 13.117,210.306c-0.214,16.331 -4.127,0.57 -4.146,0.082c-4.769,-123.373 -31.193,-285.66 -55.332,-396.23c-4.198,-19.227 -9.782,-7.636 -23.092,-12.905c-40.817,-16.161 -39.47,-34.527 -51.202,-55.383c11.401,-9.141 13.998,-12.596 17.605,-1.61c9.426,28.707 13.999,22.601 35.582,24.122c3.469,0.245 15.478,1.091 39.672,-25.979c9.334,-10.444 7.613,-19.217 18.965,-14.965c53.333,19.978 58.37,5.859 73.093,8.652Z" style="fill:#e06183;"/><path d="M1189.666,1281.788c-17.675,2.733 -17.405,3.815 -35.057,7.128c-8.635,1.621 -18.205,7.07 -18.605,-2.015c-0.722,-16.404 -6.969,-15.244 -17.813,-19.79c-6.245,-2.618 -16.453,-6.897 -80.805,11.293c-19.443,5.496 -3.833,31.039 -10.559,38.91c-1.815,2.123 -113.34,25.742 -123.21,27.833c-399.709,84.651 -399.231,88.268 -434.045,94.908c-109.742,20.932 -120.772,31.574 -114.344,21.831c12.555,-19.031 34.633,-63.024 41.124,-64.447c126.274,-27.684 126.471,-24.39 252.739,-51.692c147.366,-31.864 147.529,-28.748 294.999,-60.954c186.967,-40.831 187.128,-38.967 203.365,-42.7c9.914,-2.28 9.194,2.286 16.461,12.284c21.862,30.078 26.842,21.215 26.822,24.952c-0.005,0.974 -1.067,1.485 -1.072,2.459Z" style="fill:#a5704a;"/><path d="M640.112,1487.744c-24.841,4.197 -129.854,31.43 -141.124,34.353c-40.305,10.453 -79.025,17.771 -109.877,27.037c-0.96,0.288 -8.024,3.92 -7.554,-3.306c1.234,-18.973 -0.568,-18.938 0.907,-37.841c0.694,-8.897 13.521,-4.106 101.668,-27.792c11.38,-3.058 11.323,-1.7 142.886,-32.733c12.058,-2.844 665.603,-154.372 670.541,-154.823c4.268,-0.39 5.637,32.673 -0.098,34.159c-13.91,3.603 -31.997,7.416 -34.785,8.004c-54.158,11.42 -53.439,16.874 -107.947,25.406c-3.259,0.51 -3.052,2.122 -40.302,10.863c-66.854,15.687 -188.68,47.813 -219.886,52.942c-6.059,0.996 -5.486,5.301 -74.992,19.947c-66.207,13.951 -125.458,30.442 -179.435,43.785Z" style="fill:#8c5738;"/><path d="M335.396,20.126c0.146,2.335 0.839,2.212 0.273,4.377c-6.714,25.694 -3.337,26.758 -3.814,515.23c-0.072,73.799 -0.867,888.43 0.208,922.483c0.971,30.756 20.154,26.136 40.632,40.054c3.049,2.072 2.103,43.121 0.129,44.144c-2.459,1.274 -52.773,-23.112 -56.871,-25.584c-7.703,-4.647 -6.753,-24.96 -6.785,-93.684c-0.05,-109.617 -0.616,-1340.139 -0.38,-1370.208c0.125,-15.977 3.671,-14.082 5.507,-21.198c0.671,-2.6 4.293,-16.635 21.101,-15.615Z" style="fill:#8e5837;"/><path d="M709.5,125.611c16.539,1.9 16.373,2.114 33.019,2.797c34.663,1.845 192.07,17.206 208.766,18.835c96.668,8.445 382.359,34.605 384.794,36.298c3.807,2.646 1.277,23.941 2.166,151.21c0.634,90.831 -0.617,99.527 -1.834,107.98c-0.709,4.925 3.197,26.275 1.694,99.726c-0.228,11.13 -3.202,9.158 -13.343,15.716c-0.092,-0.639 1.195,-0.457 1.102,-1.096c-0.212,-1.467 -1.357,-2.29 -1.788,-3.649c-0.675,-2.128 -4.458,-337.525 -6.824,-345.287c-2.035,-6.676 -3.82,-3.73 -61.813,-8.979c-106.376,-9.627 -106.278,-7.95 -115.49,-9.231c-17.479,-2.432 -390.926,-32.132 -424.923,-34.836c-25.039,-1.991 -188.149,-15.958 -190.458,-16.093c-118.438,-6.921 -118.381,-12.077 -128.506,-9.345c-1.252,-30.954 0.4,-31.656 2.097,-32.378c7.917,-3.366 23.267,4.795 120.863,9.462c24.636,1.178 175.244,17.244 190.477,18.869Z" style="fill:#365b3e;"/><path d="M1346.74,1089.217c15.044,-9.459 0.531,15.003 9.684,38.317c7.945,20.236 18.159,22.633 23.739,26.202c9.866,3.256 9.763,2.333 20.041,2.151c8.198,-1.9 8.016,-1.722 16.195,-4.771c13.749,-7.391 29.334,-13.233 43.378,-56.288c4.055,-12.431 6.533,-9.755 15.093,-3.73c8.723,6.14 -25.467,40.228 -4.862,125.518c-1.001,1.845 -2.003,3.691 -3.004,5.536c0.418,42.453 -2.23,42.23 -1.55,51.046c0.25,3.247 -0.628,2.743 -1.341,5.858c-10.6,-8.606 -10.272,-9.592 -14.626,-10.449c-6.207,-1.221 -6.807,0.727 -11.441,-5.432c-13.352,-35.793 -8.846,-51.094 -39.793,-53.785c-3.316,-0.288 -10.752,-0.935 -37.967,24.753c-19.647,18.544 -16.008,27.613 -0.104,82.142l-1.767,2.968c-8.103,8.65 0.017,31.112 0.99,15.916c0.026,-0.409 0.283,-4.419 0.242,-5.127c-0.367,-6.349 2.593,-5.379 2.912,-6.039c5.422,16.349 4.869,16.57 10.54,32.634c8.287,23.476 14.846,33.05 -2.3,40.815c-5.028,2.277 -47.707,-53.622 -51.606,-58.728c1.583,-5.536 1.535,-5.726 -0.041,-11.296c-1.283,-4.536 -1.706,-17.467 -1.756,-18.999c-2.859,-87.386 4.252,-121.835 6.342,-131.961l1.86,2.529c2.412,24.682 -0.42,30.25 0.539,32.472c0.42,0.973 5.682,-1.026 6.164,-1.209c2.067,-0.785 -1.496,-13.512 0.941,-25.706c1.05,-5.251 -1.107,-8.549 0.389,-19.239c0.226,-1.617 -0.687,-6.406 -6.927,-7.971c10.438,-34.778 9.675,-35.16 11.226,-37.515c4.268,-6.48 5.405,-17.632 7.684,-21.536c0.257,-0.441 2.616,-4.48 3.138,-5.608l-2.01,-3.468Z" style="fill:#f1849e;"/><path d="M1577.73,957.703c-0.485,17.687 -0.589,17.477 0.35,35.145c1.387,26.088 14.961,52.111 25.235,59.666c40.05,29.452 48.498,-12.13 62.946,-24.329c0.876,7.664 0.492,29.653 -12.169,58.456c-20.39,46.387 -57.274,55.534 -58.1,55.174c-5.614,-2.452 -22.505,-99.365 -102.495,-65.405c-12.854,5.457 -12.708,-0.136 -31.318,-7.016c-34.043,-12.587 35.141,3.077 77.788,-102.966c6.153,-1.835 6.023,-1.245 12.181,-0.655c14.101,1.35 16.559,-5.508 25.582,-8.069Z" style="fill:#7a4432;"/><path d="M1535.832,1086.195c49.748,19.228 60.484,81.33 49.238,122.447c-2.703,9.883 -10.144,5.306 -18.214,6.415c-32.28,4.435 -55.696,41.676 -63.792,35.631c-36.952,-27.589 -28.021,-102.953 -26.908,-112.341c2.482,-16.959 4.916,-24.851 9.994,-34.933c7.479,7.226 7.973,2.991 16.515,-0.151c14.632,-5.382 47.252,6.169 31.156,-12.522l2.011,-4.546Z" style="fill:#ed7a9a;"/><path d="M1108.408,985.404l2.299,-3.94c1.911,0.362 1.77,-0.124 3.651,0.693c2.147,0.931 11.224,1.92 15.123,7.84c1.754,2.662 6.649,0.151 10.101,8.653c4.788,11.79 6.738,2.583 8.494,1.611c9.316,22.155 11.162,34.068 12.736,70.69c3.716,21.77 47.351,97.451 52.356,98.582c3.214,0.726 8.29,-3.268 9.318,-3.882l1.041,2.557c-0.08,7.178 2.788,6.528 1.898,13.691c-2.521,20.307 -0.089,24.688 0.816,26.32c0.552,0.135 1.104,0.27 1.655,0.404c1.041,-6.69 0.781,-6.582 0.888,-7.14c0.942,-4.91 2.127,-0.819 2.809,-1.083l2.551,-3.01c2.652,9.038 8.371,27.42 9.11,29.797c-2.832,2.414 -5.664,4.829 -8.496,7.243c-6.405,5.842 -8.906,14.264 -32.582,10.014c-43.742,-7.853 -68.14,-139.33 -73.331,-140.748c-7.046,-1.925 -7.889,-12.924 -18.142,-14.285l-1.497,3.273l-2.167,1.126l-1.805,-3.761c7.097,-8.31 2.945,-37.157 10.575,-31.498c1.902,1.411 1.452,33.067 14.917,37.889c9.028,3.233 0.794,-11.392 0.373,-12.14c-6.945,-12.335 -3.491,-22.507 -7.271,-37.761c-11.313,-20.431 -19.404,-26.405 -11.526,-38.679l2.064,4.1c2.331,5.811 8.235,10.415 9.068,11.065c2.455,1.914 2.86,3.841 3.754,1.262c0.558,-1.611 -0.1,-3.772 0.458,-5.383c7.483,7.847 11.32,10.96 12.351,11.797c0.699,0.091 13.061,1.707 2.846,-12.224c-12.921,-17.623 -24.201,-22.216 -26.583,-23.186c-2.015,-0.821 -7.288,-9.005 -7.857,-9.888Z" style="fill:#f7d2ac;"/><path d="M1563.05,1256.856l1.91,3.14l1.832,1.761l1.832,0.105c9.547,-0.054 7.162,5.902 9.296,19.598c7.063,45.329 -0.076,57.849 -2.232,61.63c-29.2,51.206 -83.159,10.745 -107.454,28.215c-29.404,21.144 -35.861,-2.879 -39.61,9.985c-0.386,1.324 -0.925,2.543 -1.311,3.867c-5.954,-4.725 -5.949,-4.615 -6.431,-5.103c-16.019,-16.216 12.21,-7.856 15.609,-12.69c7.933,-11.283 -22.546,-4.76 -30.064,-21.848c-11.057,-25.132 32.291,5.987 28.008,-17.438l2.522,-3.43c1.289,-6.934 2.413,-6.984 0.463,-13.409c-1.818,-5.991 0.961,-5.557 1.171,-6.769l3.645,-0.108c0.866,-0.093 12.542,-1.352 8.905,-9.135c-0.148,-0.317 -9.607,-12.457 -5.409,-14.177c8.014,-3.285 28.264,30.575 29.662,32.075c8.009,1.279 7.911,-0.201 19.895,-2.68c55.196,-11.419 56.552,-8.436 57.966,-13.287c3.648,-12.516 -23.739,-7.523 -24.825,-8.081c-11.826,-6.072 31.56,-30.498 34.621,-32.221Z" style="fill:#f6d3af;"/><path d="M356.562,1480.405c0.009,-2.836 -0.48,-3.773 1.499,-3.941c6.345,-0.538 23.618,-2.003 78.683,-16.204c22.021,-5.679 592.103,-132.004 593.275,-131.957c1.769,0.071 19.461,7.639 19.658,7.978c1.811,3.124 -1.188,2.303 -34.254,9.537c-136.794,29.926 -136.529,31.886 -148.45,34.148c-18.603,3.53 -459.145,105.365 -474.39,108.418c-18.471,3.699 -18.303,-0.091 -36.022,-7.98Z" style="fill:#b4815a;"/><path d="M1347.306,464.214c0.641,-1.472 0.969,-5.402 5.045,0.255c27.938,38.774 30.037,40.143 33.249,42.238c9.815,6.401 36.508,-78.661 42.027,-78.433c2.716,0.112 19.237,62.41 26.121,81.402c3.839,10.592 7.357,10.65 37.618,-16.628c2.934,10.299 -3.922,7.001 -6.798,17.235c-0.183,0.65 -18.698,54.945 -22.817,60.99c-2.057,3.019 -5.139,7.542 -35.989,6.951c-31.104,-0.596 -50.706,-9.974 -54.932,-11.996c-1.313,-0.963 -2.626,-1.925 -3.939,-2.888c-3.883,2.272 -4.022,1.652 -7.061,6.068c-5.458,-42.824 -3.974,-43.053 -12.526,-105.194Z" style="fill:#f9cf53;"/><path d="M890.946,775.238l0.124,1.869c0.873,0.692 0.795,2.935 1.668,3.626c0.559,0.443 1.226,-1.238 1.81,-0.87c0.473,0.298 0.391,0.401 5.273,5.408l0.406,2.57c-0.348,0.933 -1.335,3.58 -3.628,12.182l-2.661,-4.035c-0.029,-0.203 -0.898,-2.026 -0.747,-5.217c0.399,-8.435 -4.827,-5.501 -4.548,0.253c0.164,3.391 -1.17,1.35 -1.665,1.727c-0.509,0.387 0.011,2.034 -0.498,2.421c0.202,2.07 0.404,4.141 0.606,6.211l0.066,1.604c-1.298,0.264 -1.267,0.228 -40.267,5.83c-12.335,-0.135 -8.331,8.889 -8.35,43.894c0.109,5.761 0.069,5.559 0.212,11.191c0.081,3.177 1.412,2.409 15.432,-3.953c0.983,4.016 0.796,3.85 2.475,7.667c6.358,-1.806 11.468,2.309 8.609,-6.308l-1.825,-2.907c1.183,0.079 13.09,0.876 14.757,1.79c17.785,9.752 23.591,16.254 29.736,29.669c3.834,7.911 4.735,7.058 5.479,13.868c0.488,4.464 0.013,4.511 1.366,8.205c8.114,22.169 0.507,62.86 -6.645,73.469c-3.556,7.742 -3.557,7.554 -3.841,8.236c-2.106,-1.286 -5.015,-8.91 -8.76,4.645l3.079,3.53c-1.945,2.359 -18.341,22.248 -27.851,21.652c-5.631,-0.353 -5.304,2.499 -10.94,2.74c-17.657,0.755 -25.31,-7.61 -25.914,-8l-1.147,-3.739l-0.464,-2.855c-4.632,-1.704 -5.983,-4.538 -6.316,-5.237c-0.285,-0.597 -3.469,-7.279 -3.517,-7.507c-1.679,-8.09 0.949,-7.302 4.668,-14.743c6.11,6.227 14.409,18.527 36.23,13.725c2.485,-0.606 4.97,-1.211 7.455,-1.817c44.034,-26.844 27.176,-88.81 18.426,-97.908c-26.265,-27.308 -35.439,-8.554 -51.482,2.927c-4.044,-1.865 -7.527,-4.76 -7.312,6.824c-0.758,-0.436 -7.173,-4.131 -9.043,-6.846c-1.458,-2.117 -2.103,-3.053 -1.689,-37.608c0.721,-60.233 -5.072,-69.548 8.914,-78.255c2.703,8.299 3.185,10.596 8.968,7.291c7.301,-4.173 7.698,4.769 14.804,0.584l1.414,-1.005c0.631,-0.692 1.261,-1.385 1.892,-2.077c8.701,-3.698 9.382,-0.763 16.301,-7.457c-0.994,-1.417 -1.988,-2.834 -2.982,-4.251c6.99,-0.423 11.756,-2.885 21.923,-3.013Z" style="fill:#eaede8;"/><path d="M1312.837,1351.028c-39.876,43.753 -136.223,190.61 -182.452,475.168c-2.484,15.292 -2.275,15.142 -5.219,30.144c-0.811,-1.174 -10.14,-14.673 -10.14,-14.673c-4.216,-6.797 0.198,-28.342 8.218,-72.116c4.297,5.127 4.359,4.969 4.641,5.537c1.437,2.9 1.153,4.714 3.437,3.301c0.846,-0.523 0.345,-1.014 -1.282,-16.787l-0.196,-2.697l-3.485,-3.06c12.236,-62.149 35.959,-138.736 39.598,-150.482c45.214,-145.964 109.144,-223.67 121.654,-238.876c14.348,-17.439 16.794,-26.688 25.226,-15.458Z" style="fill:#f5bac9;"/><path d="M1382.945,142.551c2.967,4.561 4.911,4.293 2.857,11.548c-2.712,9.578 0.02,255.807 -1.165,302.225c-0.058,2.267 0.041,12.276 0.11,13.488c0.934,16.377 2.732,15.629 3.03,17.009c-5.024,2.592 -4.533,-1.501 -17.512,-18.879c-13.62,-18.237 -8.073,-22.293 -8.152,-49.565c-0.679,-235.668 -2.234,-237.107 2.083,-244.517c2.225,-3.818 11.506,-16.906 18.749,-31.309Z" style="fill:#ac744d;"/><path d="M652.965,442.188l1.657,4.341c0.575,-0.127 1.009,1.198 1.584,1.071c0.178,-0.039 0,0 1.998,-1.519c9.424,7.964 9.686,0.437 11.391,-1.082c8.531,25.989 4.49,36.306 2.364,49.42c-7.651,27.352 -18.828,27.576 -11.499,33.604c5.397,4.439 5.214,4.333 10.493,9.345c-4.699,5.791 -6.733,7.621 -7.363,8.187c-3.366,-5.8 -3.866,-4.411 -8.692,-6.857c-0.092,3.348 -2.455,1.332 -2.543,4.517c-0.01,0.363 -0.032,1.177 2.338,2.954c6.717,5.037 10.084,4.538 10.991,4.404c0.572,1.203 1.143,2.407 1.715,3.61c1.419,1.147 2.837,2.293 4.256,3.44c0.978,0.138 1.957,0.276 2.935,0.414c0.101,-0.6 1.264,-7.496 1.264,-7.496c0.597,-1.47 2.198,-1.605 2.795,-3.075c9.11,13.477 8.27,18.423 9.145,21.879c-0.598,2.899 0.014,2.975 -1.128,5.471c-2.297,5.021 -5.259,6.62 -1.385,8.833c1.625,0.928 1.056,4.232 1.644,5.146c2.706,4.21 -3.961,4.444 -2.045,12.924c0.603,2.67 0.684,2.417 0.46,5.283c-0.514,6.571 1.89,3.954 6.347,5.602c-5.908,28.399 -11.283,38.33 -27.343,55.017c-5.53,4.756 -5.514,4.229 -11.204,8.261c-1.989,1.154 -3.979,2.308 -5.968,3.463c-7.055,2.66 -10.957,9.075 -40.026,-0.55l1.684,-2.281l1.832,-1.255c3.667,-3.227 6.244,-3.671 3.179,-7.971c-0.933,-1.309 -1.046,-0.9 -5.255,-2.648c-2.694,0.358 -3.125,-0.38 -4.366,3.213c-2.036,5.894 -3.516,4.914 -4.232,5.915l-3.335,-3.017l1.187,-2.473c2.317,-4.672 2.801,-4.061 3.786,-9.879c1.354,-5.179 1.491,-5.115 1.463,-5.593c-0.236,-3.986 -1.545,-1.895 -5.088,-2.316c-1.235,-4.233 -0.406,-6.099 -3.646,-6.019c-4.104,0.102 -3.298,-3.336 -0.273,-7.617l1.763,-2.485c35.012,57.624 95.466,-10.156 72.975,-61.781c-8.682,-19.929 -21.182,-21.366 -23.384,-21.62c-3.486,-0.401 -3.499,-3.728 -20.163,1.016c-6.346,-2.063 -9.118,0.16 -8.776,-9.616c0.207,-5.906 -6.578,-13.493 7.02,-18.568c10.944,-4.084 24.941,-25.212 26.775,-27.98c5.582,4.033 6.196,6.424 7.388,3.107c0.278,-0.774 0.554,-1.542 -5.123,-7.93c3.193,-7.618 3.217,-7.485 4.321,-15.872c-0.302,-3.556 -0.603,-7.112 -0.905,-10.667c-4.083,-13.903 -6.402,-15.11 -15.964,-19.518l1.791,-3.361c4.355,-6.213 5.584,-3.799 11.165,0.613Z" style="fill:#ecefea;"/><path d="M1347.716,1394.029c3.636,3.737 3.494,3.581 6.959,8.029c-0.611,1.56 -2.179,1.947 -2.79,3.507c-1.593,4.07 -2.343,8.743 -3.676,13.011c-9.745,31.221 -10.525,30.612 -11.325,33.352c-12.704,43.522 -39.527,115.69 -64.441,288.275c-13.822,95.746 -11.108,96.278 -14.971,134.798c-0.531,5.29 -3.641,5.19 -3.695,-0.176c-2.007,-199.892 59.367,-419.865 93.938,-480.796Z" style="fill:#d85477;"/><path d="M1328.648,1073.881c0.553,0.434 5.298,4.159 6.597,6.206c3.806,6.003 -10.209,7.332 -26.116,77.704l-2.434,0.91l-1.832,-0.527c-4.545,12.19 -5.412,10.918 -18.75,30.786c-3.495,5.206 -11.338,5.271 -12.368,5.279c-1.839,0.015 -3.779,-0.968 -5.516,-0.079c-1.157,0.592 -1.224,3.529 -2.381,4.122c-0.961,-3.378 -2.588,-8.049 -2.828,-8.738c0.909,-1.734 4.43,-8.455 4.612,-26.523c-0.522,-0.553 -1.044,-1.107 -1.566,-1.66c-1.078,0.639 -1.744,-0.191 -2.629,4.346c-1.19,6.102 -1.054,6.22 -4.33,10.572c-4.186,-14.532 -3.985,-14.436 -7.551,-29.514c13.318,-28.372 12.612,-29.016 13.845,-31.398c4.966,-9.596 5.587,-9.736 13.735,-8.297c25.032,4.422 12.033,-25.46 19.997,-28.405c13.578,-5.021 14.002,4.142 27.709,-0.826l1.805,-3.957Z" style="fill:#f0869f;"/><path d="M1271.902,992.877c2.926,3.535 31.337,52.848 76.81,70.815c16.834,6.652 16.961,-1.587 18.624,-1.307c0.614,0.103 1.328,0.224 3.846,9.865c-0.33,0.106 -3.807,1.228 -4.113,1.37c-3.976,1.848 -3.324,-4.386 -7.554,-3.136c-22.565,6.671 -24.615,-10.18 -34.485,-13.041c-45.204,-13.106 -65.519,25.646 -73.622,37.037c-3.737,5.253 -39.245,-27.191 -40.503,-68.935c14.536,9.375 17.174,10.494 18.726,11.153c15.976,6.779 36.915,-14.431 39.729,-38.427c0.41,-3.495 1.198,-2.544 2.541,-5.393Z" style="fill:#7d4633;"/><path d="M978.838,482.899c1.243,0.969 2.485,1.937 3.728,2.906c-0.397,1.419 2.152,2.391 1.756,3.81c-0.172,0.617 -2.277,-3.783 -4.681,4.699c-0.017,0.06 -0.071,6.822 -0.173,7.674c-0.344,2.883 0.677,2.247 1.19,4.807c0.221,1.103 -0.94,2.181 -0.719,3.284c-3.526,7.685 -3.739,8.536 -0.655,16.52c-4.839,11.854 -5.106,11.302 -10.232,23.158l-1.265,-1.916c-1.493,-3.012 -1.202,-3.235 -3.613,-4.743c-0.3,-0.441 -3.753,-5.511 -3.753,-5.511c-2.637,-1.632 -1.778,1.106 -1.881,5.171l1.785,5.084l1.647,2.724l3.014,5.866c-3.634,7.503 -23.584,40.331 -25.68,43.779c-0.851,1.578 -8.786,16.296 -10.785,19.552c-10.301,16.774 6.946,-0.693 50.316,6.853c4.133,5.131 4.186,4.989 4.464,5.542c0.31,0.618 -0.682,1.622 -0.372,2.24c1.075,-0.788 2.15,-1.576 3.224,-2.365c0.892,2.67 1.731,2.058 1.638,4.901c-0.319,9.823 -5.834,13.398 -1.638,12.802c4.584,-0.651 2.776,-6.933 9.185,-7.505c-0.173,2.452 -0.346,4.903 -0.519,7.355c-3.705,10.613 -6.979,5.595 -19.711,4.691c-4.237,-0.555 -36.212,-4.746 -53.108,3.77c-3.781,-5.777 -3.534,-7.025 -9.043,-7.375c-3.961,-0.252 1.472,5.835 1.761,6.159c1.264,0.818 2.528,1.636 3.792,2.454c-8.252,1.849 -8.891,2.288 -14.776,-6.261l2.168,-2.687l0.413,-2.697l-0.847,-2.697l0.656,-2.697l-0.603,-2.697c1.572,-2.71 1.482,-4.097 3.717,-2.586c0.238,0.161 4.843,3.276 2.853,-2.349c-2.002,-5.659 -3.59,-2.349 -3.411,-2.722c0,0 4.036,-2.962 4.386,-3.22c1.794,2.454 2.87,3.55 3.295,0.028c0.59,-4.891 -0.513,-5.631 -3.762,-4.312c0.4,-1.176 -0.111,-2.747 0.289,-3.923c1.552,-4.563 2.976,-0.206 8.916,-3.118c0.256,-1.012 -0.15,-1.079 2.717,-12.889c2.476,-9.742 1.759,-10.367 1.246,-10.814c-0.964,-0.84 -0.84,1.634 -1.889,0.828c-1.813,-1.393 -0.776,-2.875 -2.581,-4.262c22.212,-40.559 42.108,-60.198 47.633,-99.24l2.571,-0.03c4.984,-0.384 4.365,-2.212 7.338,-8.04Z" style="fill:#eaeee9;"/><path d="M1539.603,863.21c0.288,0.641 2.938,10.253 7.228,9.357c0.785,-0.164 1.116,-0.233 8.409,-7.708c5.73,4.595 4.405,6.809 9.695,12.558c-11.847,10.198 -8.244,14.526 -13.642,36.866c-1.711,7.081 -4.409,8.364 -0.976,11.133c1.169,0.943 8.975,-3.71 10.397,-21.624c1.1,-13.848 2.328,-16.273 13.408,-15.521c1.727,0.117 1.802,0.051 1.935,-0.066c1.629,-1.434 0.852,-2.387 2.602,-3.928c13.732,28.202 -16.02,48.29 -18.853,50.203c-6.309,4.26 -5.925,6.178 -12.9,14.422c-0.948,-0.549 -10.005,-5.796 -12.715,1.114c-15.693,40.027 -21.308,54.737 -60.82,86.011c-0.211,-0.269 -1.377,-5.949 -5.584,-4.165c-6.259,2.654 -6.225,1.524 -12.736,1.219c-17.012,0.853 -16.932,1.379 -18.369,0.921c-1.173,-0.374 -1.011,-3.39 -1.982,-4.428c-0.476,-0.508 -1.26,0.966 -1.735,0.458c4.927,-1.298 22.549,-5.77 36.452,-16.521c72.7,-56.213 63.584,-124.807 67.984,-147.397l2.201,-2.906Z" style="fill:#eca88c;"/><path d="M1449.691,1081.696c7.371,16.493 -22.762,46.581 -25.553,49.368l-2.048,-4.093c-0.812,-0.222 -1.019,-2.236 -1.832,-2.458c-1.73,-0.472 -1.616,1.868 -21.974,1.547c-22.02,-0.346 -22.076,-0.137 -23.818,-1.279c-1.548,-1.014 -1.704,-0.866 -1.832,-0.744c-1.816,1.728 -0.659,3.114 -2.468,4.835c-10.401,-14.723 -11.74,-46.044 2.539,-44.683c4.116,0.393 1.775,-13.003 7.269,-12.806c30.532,1.095 30.494,2.556 60.511,-4.686c4.589,-1.107 1.818,5.105 9.204,14.998Z" style="fill:#f1be9b;"/><path d="M1491.366,493.048c6.864,-6.024 6.583,-6.185 13.298,-12.094c4.644,-4.087 2.44,7.178 2.312,7.835c-5.601,28.631 -16.735,92.804 -17.93,96.247c-6.893,19.845 -116.294,16.556 -129.213,-15.627c3.039,-4.416 3.177,-3.796 7.061,-6.068c1.313,0.963 2.626,1.925 3.939,2.888c4.225,2.021 23.828,11.399 54.932,11.996c30.85,0.591 33.932,-3.932 35.989,-6.951c4.118,-6.045 22.634,-60.339 22.817,-60.99c2.875,-10.234 9.732,-6.937 6.798,-17.235Z" style="fill:#f0a23a;"/><path d="M1266.039,768.128c7.521,-2.421 7.477,-1.896 15.069,-4.048c40.566,-11.497 90.111,-54.787 111.274,-95.299c12.288,-23.523 -2.052,30.47 65.076,107.117c-1.069,0.751 -1.329,3.11 -2.398,3.861c-0.914,0.642 -8.699,-6.7 -11.061,-6.091c-5.834,1.503 -8.992,5.109 -23.123,-16.203c-12.893,-19.446 -23.489,-53.294 -25.058,-58.308c-4.885,-15.607 -6.429,11.121 -28.363,27.925c-0.14,0.107 -20.608,23.974 -44.647,35.315c-12.05,5.686 -12.813,-0.871 -27.004,6.036c-3.764,1.832 -6.013,-3.034 -7.607,0.583c-0.925,2.099 -1.603,4.719 -3.061,6.002c-0.798,0.702 -1.845,-1.393 -2.717,-0.92c-0.782,0.425 -0.596,2.537 -1.331,3.118c-1.593,1.26 -6.843,0.216 -7.432,0.099c-2.578,-0.513 -3.463,-2.456 -3.647,-2.86c-0.558,-1.226 0.534,-1.46 -0.227,-2.741c-0.609,-1.025 -0.939,0.78 -1.552,-0.251l-2.191,-3.334Z" style="fill:#ebaa91;"/><path d="M1563.05,1256.856c1.288,-0.643 12.331,-6.159 16.574,-5.562c9.357,1.317 13.402,59.638 13.102,70.657c-1.35,49.517 -25.083,59.589 -28.005,61.194c-38.608,21.211 -82.628,-8.544 -91.667,-2.923c-1.945,1.21 -24.241,16.906 -45.742,4.935c0.386,-1.324 0.925,-2.543 1.311,-3.867c3.749,-12.864 10.206,11.158 39.61,-9.985c24.295,-17.47 78.255,22.991 107.454,-28.215c2.156,-3.781 9.295,-16.301 2.232,-61.63c-2.134,-13.696 0.251,-19.652 -9.296,-19.598l-1.832,-0.105l-1.832,-1.761l-1.91,-3.14Z" style="fill:#e8aa90;"/><path d="M1105.239,1090.049l1.805,3.761l2.167,-1.126l1.497,-3.273c10.252,1.361 11.095,12.36 18.142,14.285c5.19,1.418 29.588,132.895 73.331,140.748c23.676,4.251 26.177,-4.172 32.582,-10.014c-0.187,1.351 1.111,2.554 0.924,3.905c-0.285,2.065 -1.778,3.41 -2.212,5.418c-0.859,3.968 2.75,4.153 0.742,8.488c-5.494,11.859 -7.582,4.588 -17.359,3.864c-25.267,-1.871 -25.488,-2.061 -27.388,-3.696c-2.307,-1.985 -1.548,1.72 -5.968,5.878c-43.277,-41.39 -51.798,-135.983 -61.954,-143.618c-22.085,-16.602 -22.658,-19.349 -21.014,-21.116c1.42,-1.526 3.286,-1.979 4.706,-3.505Z" style="fill:#edab90;"/><path d="M799.593,482.037c0.289,0.452 6.587,3.949 5.886,41.432c-0.82,1.831 -1.64,3.661 -2.46,5.492c-0.809,3.089 -0.016,3.419 -1.494,5.702c-2.864,4.423 0.671,4.595 1.346,10.543c1.061,9.346 5.983,4.013 8.722,13.425c0,0 2.198,5.174 2.389,5.623c-11.817,0.578 -5.203,10.326 -5.708,53.708l-1.839,-2.69c-0.736,0.084 -0.881,-2.311 -1.617,-2.227c-1.064,0.121 -3.312,8.957 -3.586,15.947c-1.883,0.243 -6.095,4.567 -5.66,-8.269c0.255,-0.405 14.964,-28.685 0.637,-6.842c-0.261,0.398 -0.302,1.027 -0.535,1.461c-1.758,3.264 -1.934,3.391 -2.168,3.559c-0.928,0.666 -0.618,-1.559 -1.557,-0.886c-5.584,-22.542 -0.146,-40.034 -3.228,-48.981c-0.746,-2.164 -1.194,-2.24 -20.568,-1.65l1.863,-4.317l1.2,-1.74c0.236,-7.255 -0.376,-11.348 -4.306,-7.016c-0.269,0.297 -2.488,2.742 -4.168,0.815c-0.824,-0.946 -2.199,-2.222 -1.884,-3.69c0.102,-0.474 0.985,1.286 3.444,-3.595c0.764,-1.517 -0.698,-1.856 0.092,-3.425c1.287,-0.582 4.382,-1.981 16.665,-3.459c11.328,-1.363 7.072,-8.761 6.884,-25.527l2.445,-2.654c0.537,-0.674 5.748,-7.212 4.988,-10.71c-0.914,-4.206 -2.483,-2.477 -3.379,-6.51c-0.591,-2.661 0.966,-1.954 1.299,-4.741c0.12,-1.006 0.266,-2.229 6.297,-8.78Z" style="fill:#f0f2ee;"/><path d="M1323.525,1364.549c8.332,10.027 8.223,10.178 8.948,11.046c-3.89,7.595 -33.943,43.26 -66.812,110.01c-45.119,91.629 -39.978,104.838 -44.147,99.581c-1.675,-2.112 9.553,-51.726 34.582,-106.078c4.029,-8.749 28.438,-61.753 56.782,-102.317c0.775,-1.109 5.769,-8.257 10.647,-12.243Z" style="fill:#d7577c;"/><path d="M1382.945,142.551c6.685,-10.965 7.912,-8.719 8.26,-7.689c1.619,4.786 0.787,5.143 1.042,172.923c0.238,156.882 2.338,157.42 -0.992,170.115c-0.774,2.951 -0.891,2.743 -3.479,8.92c-0.298,-1.38 -2.096,-0.632 -3.03,-17.009c-0.069,-1.212 -0.168,-11.222 -0.11,-13.488c1.185,-46.418 -1.547,-292.647 1.165,-302.225c2.054,-7.254 0.111,-6.986 -2.857,-11.548Z" style="fill:#b37e5e;"/><path d="M961.948,447.274l-2.076,4.743c-0.912,-0.581 -7.641,-4.865 -12.157,-3.74c-20.82,5.188 -26.854,28.398 -30.832,40.776l-2.194,-3.248l-1.803,-1.422c-2.882,-2.821 -5.053,-1.997 -3.416,-6.569c0.963,-2.69 0.872,-2.492 1.885,-5.389c0.603,-0.472 6.736,-5.269 6.719,-7.753c-0.005,-0.764 -1.126,-0.811 -1.131,-1.575c-4.079,1.769 -3.699,2.445 -6.575,6.94c-0.553,0.49 -0.02,-1.626 -0.661,-1.058c-2.553,2.265 -1.676,3.325 -1.913,3.341c-1.179,0.081 -2.278,-1.524 -2.89,-3.01c-0.302,-0.733 0.972,-1.643 0.67,-2.376c23.205,-64.22 71.591,-56.897 81.289,2.273c-3.68,-0.011 -3.585,0.134 -7.211,-0.66c-0.788,2.233 -1.577,4.466 -2.365,6.698c-0.164,4.387 -0.494,4.668 1.552,7.656c-2.973,5.829 -2.355,7.656 -7.338,8.04l-2.571,0.03c0.816,-18.365 1.296,-19.549 -5.482,-33.972c0.685,-1.71 2.559,-1.849 3.244,-3.56c0.495,-1.237 -0.385,-2.935 -0.093,-4.305c0.144,-0.677 1.099,-0.408 1.243,-1.084c2.976,2.392 4.207,8.29 4.069,3.271c-0.016,-0.571 -0.206,-0.425 -2.823,-5.817c-0.628,-0.542 -0.701,-2.011 -1.329,-2.552c-1.478,-1.274 -5.418,3.819 -5.809,4.325Z" style="fill:#e7ede7;"/><path d="M1349.772,574.908c-0.487,0.608 0.197,2.18 -0.29,2.788c-2.428,3.034 -32.366,8.594 -73.624,78.422c-11.804,19.979 -33.001,74.335 -32.078,115.329c0.175,7.757 0.622,8.237 -3.156,13.787c-6.087,-87.84 35.828,-181.757 98.826,-219.337c8.592,-5.125 8.742,0.029 10.322,9.011Z" style="fill:#d59075;"/><path d="M1311.961,1023.129l1.391,-3.27c6.327,-6.562 8.928,5.327 17.307,7.373c4.63,1.131 4.466,1.133 9.122,2.313c4.426,7.76 3.906,9.543 7.211,9.462c3.863,-0.094 3.656,-0.24 7.322,-0.481c39.678,-0.493 39.967,4.024 78.651,-8.493c0.476,0.508 1.26,-0.966 1.735,-0.458c0.972,1.038 0.809,4.054 1.982,4.428c1.437,0.458 1.357,-0.068 18.369,-0.921c6.511,0.304 6.477,1.435 12.736,-1.219c4.207,-1.784 5.373,3.896 5.584,4.165c-4.3,2.723 -27.625,17.494 -56.861,20.306c-66.835,6.428 -100.966,-30.33 -104.55,-33.205Z" style="fill:#edab92;"/><path d="M1419.337,1235.016c-3.268,-0.591 -3.12,-0.498 -6.339,-1.147c-6.465,-1.303 -29.397,22.626 -29.445,22.68c-5.544,9.302 -0.72,10.638 14.052,57.677c2.379,7.574 -4.21,27.771 4.707,44.268c7.24,13.395 3.787,24.23 16.571,35.097c18.681,15.88 32.762,7.239 36.159,7.091c0.421,-0.018 4.655,2.648 -2.007,7.173c-18.471,12.546 -23.059,16.07 -27.396,15.164c-3.269,-0.682 -9.095,-1.898 -23.485,-49.968c-2.327,-7.773 -25.521,-85.249 -28.878,-97.294c-4.587,-16.455 -2.294,-18.552 8.275,-27.205c25.316,-20.728 31.035,-30.87 37.786,-13.538Z" style="fill:#d95950;"/><path d="M1419.337,1235.016c15.508,48.018 15.87,47.708 17.054,51.984c0.282,1.019 0.853,4.229 -8.851,4.42c-17.12,0.338 -25.68,10.589 -25.858,10.707c-4.948,3.27 -8.986,-28.187 -18.129,-45.579c0.049,-0.053 22.98,-23.982 29.445,-22.68c3.219,0.649 3.071,0.555 6.339,1.147Z" style="fill:#e75145;"/><path d="M1224.329,1285.056c72.645,-16.961 74.931,-20.335 75.604,-14.629c1.346,11.403 -2.643,10.497 -31.622,17.073c-125.59,28.498 -134.169,32.946 -134.32,26.434c-0.361,-15.564 6.063,-9.026 90.338,-28.878Z" style="fill:#aa7753;"/><path d="M658.327,440.136c-2.4,2.146 -4.919,2.066 -5.362,2.052c-5.581,-4.411 -6.81,-6.825 -11.165,-0.613l-1.791,3.361c-41.907,-1.764 -35.772,37.701 -47.621,33.492c-1.439,-0.511 -11.637,1.39 -7,-16.7c8.175,-31.888 58.632,-69.837 84.207,-16.731c-1.705,1.52 -1.968,9.047 -11.391,1.082c0.603,-0.537 1.488,0.987 2.091,0.45c2.952,-2.63 0.987,-3.812 -1.968,-6.394Z" style="fill:#ebefe9;"/><path d="M1270.002,1972.173c8.536,5.263 8.643,4.697 18.433,3.799c11.632,-1.067 11.649,-0.247 36.351,9.949c0.099,8.053 -2.186,6.014 -7.336,9.031c-5.703,2.61 -45.221,22.382 -66.057,7.701c4.318,-10.228 5.431,-9.822 5.412,-22.064c-2.605,-3.111 -2.599,-2.641 -5.725,-4.237c0.502,-0.769 5.832,-8.943 6.203,-9.707c2.801,-5.775 3.98,-2.859 12.721,5.527Z" style="fill:#d8667f;"/><path d="M1259.98,965.406c5.823,13.995 5.753,13.87 11.922,27.472c-1.342,2.849 -2.131,1.899 -2.541,5.393c-2.814,23.995 -23.753,45.206 -39.729,38.427c-1.553,-0.659 -4.19,-1.778 -18.726,-11.153c-1.982,-13.833 -1.516,-13.785 -2.112,-27.755c0.363,0.471 4.537,5.886 4.537,5.886c11.041,20.203 31.062,3.071 36.205,-8.518c6.3,-14.197 2.592,-17.275 10.444,-29.752Z" style="fill:#9f5f44;"/><path d="M1053.8,955.294c-0.771,-1.436 -9.213,-17.163 3.703,-22.216c6.574,-2.572 6.794,0.652 32.575,41.598c14.552,23.111 14.413,25.059 12.318,29.763c-4.47,10.036 0.1,21.985 0.731,23.634c3.7,9.673 8.999,7.06 6.815,17.666c-7.727,-7.635 -29.984,-49.907 -56.142,-90.445Z" style="fill:#f2f1ec;"/><path d="M1448.032,907.336c2.785,-1.044 22.085,-8.279 35.852,3.208c10.159,8.476 8.099,18.488 7.733,20.268c-7.519,36.546 -75.236,12.184 -43.585,-23.476Z" style="fill:#f5a297;"/><path d="M1346.932,426.465c-0.791,-241.476 0.243,-241.567 0.588,-242.116c7.587,-12.102 6.074,16.455 6.406,131.536c0.336,116.778 0.859,116.692 0.571,126.829c-0.045,1.575 -7.104,7.747 -7.564,-16.25Z" style="fill:#8c5b3d;"/><path d="M1309.129,1157.792c-13.06,81.729 -7.112,85.674 -11.556,88.747c-16.686,11.536 -27.866,-36.186 -31.724,-48.257c1.157,-0.592 1.224,-3.529 2.381,-4.122c1.737,-0.889 3.677,0.095 5.516,0.079c1.03,-0.008 8.873,-0.073 12.368,-5.279c13.338,-19.869 14.205,-18.596 18.75,-30.786l1.832,0.527l2.434,-0.91Z" style="fill:#e36386;"/><path d="M1134.199,523.273c-0.037,0.064 0.002,0.004 -2.896,4.193l-1.163,-3.9c-1.685,-2.942 -0.636,-6.993 -2.533,-4.422c-5.206,7.056 -0.635,10.625 -0.105,11.038c0.51,0.398 1.164,-1.058 1.674,-0.66c-1.903,0.42 -3.806,0.84 -5.709,1.26c-3.221,0.019 -27.386,0.165 -40.241,1.994l1.838,-4.979l0.966,-1.536c-0.206,-0.743 0.372,-4.138 -2.924,-4.718c-6.062,-1.067 -5.837,1.103 -5.68,1.747c0.291,1.197 1.554,1.704 1.624,2.971c0.06,1.088 -1.373,1.557 -1.312,2.645l-1.791,3.868c-9.67,0.909 -15.059,2.928 -20.275,-6.361c-3.327,-3.316 -5.089,-2.793 -3.692,-8.299c2.614,-10.302 10.174,-9.687 47.746,-12.262c2.872,-0.197 37.825,-2.592 35.788,4.769c-1.682,6.079 -3.131,6.087 -1.314,12.649Z" style="fill:#edf1eb;"/><path d="M1424.75,845.223c1.992,-3.819 4.981,-12.493 13.831,-12.303c1.271,0.027 7.488,-0.501 12.043,9.651c2.968,6.615 4.232,4.781 8.549,0.18c5.416,-5.772 11.431,7.491 -0.832,16.731c-7.322,5.516 -3.359,25.934 -14.249,33.666c-14.68,10.422 -21.019,-13.676 -21.725,-16.356c-2.746,-18.431 -0.972,-18.52 2.383,-31.57Z" style="fill:#41160c;"/><path d="M1440.058,2004.331c1.386,-12.42 1.094,-14.733 9.382,-16.962c4.444,-1.195 25.463,27.054 58.349,-13.522c9.886,-12.198 17.607,-7.515 12.696,2.985c-12.869,27.517 -32.902,43.269 -36.278,45.924c-2.855,-2.883 -9.582,-9.675 -41.968,-15.517l-2.181,-2.907Z" style="fill:#dc697e;"/><path d="M1470.007,1216.616c6.781,22.062 8.776,30.625 29.19,48.308c4.545,3.938 2.953,29.354 -1.89,30.664c-18.993,5.136 -19.124,2.716 -19.872,1.558c-6.317,-9.784 -6.205,-9.675 -13.322,-18.09c0.713,-3.115 1.591,-2.611 1.341,-5.858c-0.679,-8.815 1.969,-8.592 1.55,-51.046c1.001,-1.845 2.003,-3.691 3.004,-5.536Z" style="fill:#e7678a;"/><path d="M1346.74,1089.217l2.01,3.468c-0.522,1.128 -2.881,5.167 -3.138,5.608c-2.279,3.904 -3.416,15.056 -7.684,21.536c-1.551,2.354 -0.788,2.737 -11.226,37.515c-0.851,5.6 -1.091,5.252 -1.934,10.805c-0.1,0.66 -0.076,0.616 -1.032,8.32c-2.09,10.126 -9.2,44.575 -6.342,131.961c0.05,1.532 0.473,14.463 1.756,18.999c1.576,5.57 1.625,5.76 0.041,11.296c-4.867,-7.39 -6.784,-5.796 -7.303,-14.03c-6.596,-104.746 8.73,-209.024 34.85,-235.476Z" style="fill:#f5c1ce;"/><path d="M1355.353,1262.617c0.63,-7.409 0.781,-11.136 17.734,-25.831c19.376,-16.795 21.271,-16.974 23.355,-17.171c10.118,-0.957 -9.482,12.684 -17.915,19.751c-16.57,13.887 -18.538,18.631 -10.657,44.331c17.051,55.602 17.259,55.385 18.715,60.231c14.372,47.832 23.967,72.869 23.079,78.179c-0.309,1.851 -4.617,7.493 -11.842,-16.24c-40.034,-131.515 -41.96,-130.769 -42.469,-143.251Z" style="fill:#bfc6c5;"/><path d="M1263.695,782.196c1.651,1.667 0.993,2.406 2.703,4.132c0.141,0.142 -0,-0 1.869,1.504c-1.977,46.99 -1.191,95.59 -0.446,105.011c-1.977,12.011 -1.919,11.983 -0.694,24.159c5.587,51.047 20.242,62.485 19.969,67.792c-0.1,1.952 -3.011,1.724 -3.111,3.676c-36.401,-62.512 -27.326,-116.357 -20.291,-206.275Z" style="fill:#faeddb;"/><path d="M1064.918,569.484c0.589,-0.132 6.325,-1.421 7.371,-1.509c55.556,-4.719 55.709,-3.766 64.106,1.394c3.789,26.544 -11.572,12.52 -17.973,17.336c-2.386,1.795 -2.33,1.753 -33.324,4.915c2.772,-5.572 2.827,-5.474 2.994,-6.018c0.405,-1.321 -0.102,-3.125 -12.184,-2.55c-3.099,0.147 -1.847,2.829 1.856,8.86c-2.527,0.041 -5.053,0.082 -7.58,0.122c-0.74,-1.761 -1.48,-3.522 -2.22,-5.283c0.265,-8.07 1.1,-8.878 -0.697,-9.842c-2.136,-1.145 0.054,-1.572 0.012,-1.913c-0.166,-1.361 -1.862,-1.52 -2.028,-2.881l-0.332,-2.632Z" style="fill:#e8ede7;"/><path d="M1267.822,892.844c3.022,-1.567 29.706,-15.399 39.804,6.55c5.417,11.775 -7.89,45.828 -32.363,24.094c-0.634,-0.563 -0.517,-0.256 -8.135,-6.486c-1.225,-12.176 -1.283,-12.148 0.694,-24.159Z" style="fill:#f4a89a;"/><path d="M1555.239,864.86c43.661,-37.781 54.598,98.003 -8.334,84.043c6.975,-8.244 6.591,-10.162 12.9,-14.422c2.833,-1.913 32.585,-22.001 18.853,-50.203c-5.204,-6.737 -5.475,-6.113 -13.725,-6.86c-5.29,-5.75 -3.965,-7.963 -9.695,-12.558Z" style="fill:#f7d2af;"/><path d="M1328.648,1073.881l-1.805,3.957c-13.707,4.968 -14.131,-4.195 -27.709,0.826c-7.964,2.945 5.035,32.826 -19.997,28.405c-8.149,-1.439 -8.769,-1.299 -13.735,8.297c-1.233,2.382 -0.527,3.027 -13.845,31.398c-3.529,-16.167 -2.819,-17.396 8.242,-42.498c0.138,-0.254 23.76,-52.016 68.849,-30.385Z" style="fill:#f5b8ca;"/><path d="M1097.985,1298.945c27.086,-5.518 27.039,-5.268 27.59,-5.095c0.806,0.254 4.165,1.31 2.088,14.856c-0.957,6.242 -27.862,9.759 -40.843,12.617c-17.342,3.818 -26.694,15.531 -26.056,-10.301c0.084,-3.388 0.868,-4.444 37.221,-12.078Z" style="fill:#686369;"/><path d="M1243.258,1227.187c4.564,11.781 4.331,11.674 9.621,22.662c5.638,11.713 -38.692,22.161 -50.636,18.534c-11.017,-3.346 -11.655,-3.948 -18.742,-10.095c4.42,-4.159 3.661,-7.864 5.968,-5.878c1.9,1.635 2.121,1.826 27.388,3.696c9.777,0.724 11.865,7.995 17.359,-3.864c2.008,-4.335 -1.601,-4.52 -0.742,-8.488c0.435,-2.008 1.927,-3.353 2.212,-5.418c0.187,-1.351 -1.111,-2.554 -0.924,-3.905c2.832,-2.414 5.664,-4.829 8.496,-7.243Z" style="fill:#edaa92;"/><path d="M1249.407,1176.61c18.518,65.585 22.376,62.765 22.597,67.089c0.105,2.062 -4.956,15.853 -15.709,-11.543c-4.798,-12.224 -28.173,-82.556 -15.585,-83.47c1.667,-0.121 2.553,0.177 8.697,27.924Z" style="fill:#e57a91;"/><path d="M1548.337,1235.067c2.024,-0.98 15.386,-7.453 25.929,-8.951c11.447,-1.626 10.55,12.331 3.509,13.282c-38.745,5.235 -54.284,38.575 -60.37,28.513c-2.029,-3.355 -3.9,-10.729 30.933,-32.844Z" style="fill:#e4728d;"/><path d="M1248.87,844.779c-1.25,-0.13 -5.9,-7.363 -9.36,10.699c-0.134,0.698 -0.636,6.199 -0.16,10.533c1.236,11.255 2.736,10.157 7.555,18.931c0.839,20.379 2.051,20.372 1.354,21.791c-6.278,12.786 -34.164,-54.436 -7.265,-80.471c13.901,-13.454 8.153,15.827 7.876,18.518Z" style="fill:#f9dec3;"/><path d="M1251.96,935.567c4.576,14.632 3.319,15.206 8.02,29.838c-7.852,12.476 -4.144,15.554 -10.444,29.752c-5.143,11.589 -25.164,28.721 -36.205,8.518c-0,-0 -4.174,-5.415 -4.537,-5.886c3.149,-2.205 3.138,-1.151 6.296,0.576c8.906,4.869 21.425,2.833 28.814,-16.701c9.598,-25.377 3.561,-30.376 8.056,-46.097Z" style="fill:#ca8367;"/><path d="M1123.604,1281.486l-0.289,2.087c-16.361,0.26 -26.251,5.142 -60.192,12.017c-7.036,1.425 -27.812,-9.116 -16.962,-9.836c20.083,-1.332 54.456,-14.436 64.421,-11.66c1.162,0.324 12.81,3.569 14.249,5.785c0.378,0.582 -1.605,1.025 -1.227,1.607Z" style="fill:#83777a;"/><path d="M1398.192,949.572c-0.372,0.356 -26.063,30.812 -54.277,1.854c-0.455,-0.752 -7.948,-13.141 1.243,-12.449c3.013,0.227 24.775,25.727 48.4,-1.476c0.502,-0.578 6.041,-6.955 7.945,-0.924c2.274,7.203 0.234,7.146 -3.311,12.995Z" style="fill:#3a160d;"/><path d="M805.48,523.469c0.807,13.035 1.749,12.509 3.2,15.074c21.029,-2.542 23.637,-2.524 25.697,-2.51c1.293,6.282 2.898,5.29 3.333,11.842c0.197,2.96 -1.037,6.963 -0.548,8.072c0.703,1.595 2.215,2.156 2.918,3.752c-12.943,3.832 -12.821,3.127 -26.098,4.554c-0.191,-0.45 -2.389,-5.623 -2.389,-5.623c-2.739,-9.412 -7.661,-4.079 -8.722,-13.425c-0.675,-5.948 -4.21,-6.12 -1.346,-10.543c1.478,-2.283 0.685,-2.613 1.494,-5.702c0.82,-1.831 1.64,-3.661 2.46,-5.492Z" style="fill:#d7dfd7;"/><path d="M1535.832,1086.195l-2.011,4.546c16.096,18.691 -16.524,7.14 -31.156,12.522c-8.542,3.142 -9.035,7.377 -16.515,0.151c16.786,-24.396 31.293,-21.159 49.682,-17.219Z" style="fill:#f5cbd8;"/><path d="M1440.058,2004.331l2.181,2.907c32.387,5.842 39.113,12.634 41.968,15.517c-35.326,19.843 -44.562,4.864 -44.149,-18.424Z" style="fill:#e97a8d;"/><path d="M1370.167,1128.873c1.809,-1.721 0.652,-3.107 2.468,-4.835c0.128,-0.121 0.284,-0.27 1.832,0.744c1.742,1.142 1.798,0.932 23.818,1.279c20.358,0.32 20.243,-2.02 21.974,-1.547c0.812,0.222 1.019,2.236 1.832,2.458l2.048,4.093c-21.82,13.853 -39.212,15.37 -53.971,-2.191Z" style="fill:#f4d2ac;"/><path d="M1299.277,825.503c7.313,-6.976 11.409,-9.451 18.805,-0.478c-7.834,14.361 -3.773,16.183 -3.614,34.773c-1.185,0.354 -13.43,4.01 -15.096,0.888c-1.227,-2.3 -0.738,-2.397 -1.685,-13.489c-0.425,-4.986 -1.922,-6.078 1.021,-8.662c2.521,-2.213 4.872,-9.267 5.176,-10.181l-2.653,-2.697l-1.954,-0.155Z" style="fill:#481c11;"/><path d="M1299.277,825.503l1.954,0.155l2.653,2.697c-0.304,0.913 -2.655,7.968 -5.176,10.181c-2.943,2.584 -1.446,3.676 -1.021,8.662c0.946,11.092 0.458,11.19 1.685,13.489c1.666,3.122 13.911,-0.535 15.096,-0.888c4.237,1.456 4.193,1.483 4.732,1.564c1.542,-0.133 3.085,-0.265 4.627,-0.398c-4.45,15.263 -4.959,15.648 -13.472,19.68c-0.687,-5.83 -0.819,-5.798 -0.742,-6.296c1.605,-10.432 -3.267,-5.247 -12.077,-7.954l-2.435,0.243c-3.162,-11.296 0.672,-13.113 -4.309,-23.105c-12.659,-15.174 -3.399,-18.108 -2.407,-17.977c3.606,0.474 4.725,10.924 10.892,-0.051Z" style="fill:#371009;"/><path d="M1443.369,846.912c-1.26,31.74 2.127,37.405 -4.748,37.512c-8.042,0.125 -9.66,-0.804 -9.83,-12.761c-0.043,-2.997 -1.918,-31.242 6.054,-29.549c4.746,1.007 7.562,-3.384 8.524,4.798Z" style="fill:#482014;"/><path d="M1438.589,1304.47c-0.21,1.213 -2.989,0.778 -1.171,6.769c1.95,6.425 0.826,6.475 -0.463,13.409l-2.522,3.43c-7.216,-4.169 -22.718,-3.301 -26.588,-11.866c-1.408,-3.115 -1.98,-13.67 30.744,-11.742Z" style="fill:#f7deb6;"/><path d="M1466.068,809.502c-9.152,4.022 -13.59,-10.753 -25.618,-11.556c-7.452,-0.497 -11.656,3.617 -10.545,-7.203c1.669,-16.239 36.819,-5.425 36.163,18.759Z" style="fill:#75321b;"/><path d="M1398.192,949.572c-0.017,1.479 2.325,1.376 2.308,2.856c-0.025,2.151 -1.638,3.564 -2.405,5.394c-10.406,24.813 -63.031,10.504 -57.19,-2.697c0.713,-1.613 2.297,-2.086 3.011,-3.699c28.214,28.958 53.904,-1.498 54.277,-1.854Z" style="fill:#fae2c2;"/><path d="M1291.063,783.274c22.072,-26.851 38.498,-2.466 28.278,3.866c-3.001,1.859 -9.148,-5.712 -21.37,4.733c-0.76,0.65 -14.181,12.119 -10.964,-1.057c0.177,-0.724 0.47,-1.924 4.057,-7.542Z" style="fill:#682e19;"/><path d="M584.969,625.905c6.728,-1.762 6.053,1.701 10.876,8.46l-1.763,2.485c-3.025,4.28 -3.831,7.719 0.273,7.617c3.24,-0.081 2.411,1.785 3.646,6.019c-0.092,2.175 -0.856,1.965 -0.308,9.533c-1.927,1.674 -3.854,3.348 -5.781,5.022c-11.269,-12.776 -11.149,-14.999 -14.535,-28.226l2.147,0.171c1.382,-1.161 1.767,-0.024 2.414,-2.027c1.492,-4.622 1.402,-4.399 3.031,-9.053Z" style="fill:#e8ece7;"/><path d="M1363.547,883.076c-14.822,7.924 0.506,17.171 -2.039,23.355c-4.994,12.136 -25.838,-22.979 -5.317,-34.781c9.137,-5.255 18.244,5.673 7.356,11.426Z" style="fill:#d8927b;"/><path d="M1564.934,877.418c8.25,0.747 8.521,0.123 13.725,6.86c-1.75,1.541 -0.973,2.494 -2.602,3.928c-0.133,0.117 -0.208,0.183 -1.935,0.066c-11.08,-0.752 -12.308,1.673 -13.408,15.521c-1.423,17.915 -9.228,22.568 -10.397,21.624c-3.433,-2.769 -0.735,-4.052 0.976,-11.133c5.398,-22.34 1.795,-26.668 13.642,-36.866Z" style="fill:#c27155;"/><path d="M1108.408,985.404c-6.987,-10.917 -5.466,-12.513 -4.718,-12.917c5.167,-2.792 19.797,4.39 21.447,5.2c16.656,8.176 16.866,10.446 22.941,22.573c-1.756,0.973 -3.706,10.18 -8.494,-1.611c-3.453,-8.502 -8.348,-5.991 -10.101,-8.653c-3.9,-5.92 -12.976,-6.909 -15.123,-7.84c-1.882,-0.816 -1.741,-0.33 -3.651,-0.693l-2.299,3.94Z" style="fill:#f7ddc0;"/><path d="M1104.317,1055.71c4.464,5 -0.734,4.475 -6.359,5.376c-4.906,0.786 -17.322,-15.1 -17.365,-27.741c-0.074,-21.725 6.985,-1.129 23.723,22.365Z" style="fill:#f0bb9d;"/><path d="M1326.702,1157.343c6.24,1.566 7.153,6.355 6.927,7.971c-1.496,10.69 0.661,13.988 -0.389,19.239c-2.437,12.194 1.126,24.921 -0.941,25.706c-0.482,0.183 -5.744,2.182 -6.164,1.209c-0.959,-2.222 1.872,-7.791 -0.539,-32.472l-1.86,-2.529c0.955,-7.703 0.931,-7.659 1.032,-8.32c0.843,-5.552 1.084,-5.205 1.934,-10.805Z" style="fill:#f37d98;"/><path d="M869.024,778.251c0.994,1.417 1.988,2.834 2.982,4.251c-6.919,6.694 -7.6,3.759 -16.301,7.457c-0.39,-0.293 -0.528,-2.766 -3.469,-2.608c-0.546,0.029 -1.536,2.181 -1.353,2.935c0.27,1.113 1.245,1.642 1.516,2.755c-7.105,4.185 -7.502,-4.757 -14.804,-0.584c-5.782,3.305 -6.265,1.008 -8.968,-7.291c1.96,-0.712 1.965,-0.55 40.397,-6.915Z" style="fill:#d0d8cf;"/><path d="M827.129,984.123c-3.719,7.441 -6.346,6.653 -4.668,14.743c0.047,0.228 3.232,6.91 3.517,7.507c0.333,0.699 1.684,3.533 6.316,5.237l0.464,2.855l1.147,3.739c-15.051,-4.953 -14.215,-12.59 -20.245,-19.418c-8.5,-9.626 2.92,-25.503 13.469,-14.662Z" style="fill:#bfccc0;"/><path d="M979.652,468.545c3.626,0.794 3.531,0.65 7.211,0.66c1.721,23.086 2.285,28.036 -7.578,57.394c-3.083,-7.984 -2.871,-8.834 0.655,-16.52c-0.221,-1.103 0.94,-2.181 0.719,-3.284c-0.513,-2.561 -1.534,-1.924 -1.19,-4.807c0.102,-0.852 0.156,-7.614 0.173,-7.674c2.404,-8.483 4.508,-4.082 4.681,-4.699c0.397,-1.419 -2.152,-2.391 -1.756,-3.81c-1.243,-0.969 -2.485,-1.937 -3.728,-2.906c0.63,-1.912 2.076,-1.023 1.705,-5.179c-0.231,-2.586 -0.862,-1.658 -3.257,-2.476c0.788,-2.233 1.577,-4.466 2.365,-6.698Z" style="fill:#dae4dc;"/><path d="M1041.367,1318.268c-12.028,-8.733 -4.992,-18.68 -3.921,-18.393c13.515,3.624 17.953,1.695 17.904,21.971c-0.004,1.672 -0.908,3.947 -13.983,-3.579Z" style="fill:#635e67;"/><path d="M1290.793,843.531c4.981,9.992 1.147,11.809 4.309,23.105c2.14,4.919 1.979,4.854 4.783,9.233c-0.234,2.539 -1.716,1.163 -1.953,3.732c-0.158,1.712 1.613,0.121 1.437,1.86c-0.07,0.691 -2.445,2.551 -3.663,1.868c-4.946,-2.768 -4.795,-2.907 -10.018,-3.241c-0.357,-0.023 -1.222,-17.277 0.496,-30.216c0.523,-3.941 1.643,-2.1 2.195,-2.805l2.414,-3.538Z" style="fill:#f3cfa4;"/><path d="M912.66,606.938c1.898,2.029 3.796,4.058 5.693,6.087c2.065,2.176 1.91,1.983 2.065,2.176c0.859,1.062 0.555,1.121 1.384,2.146c-5.941,2.912 -7.365,-1.445 -8.916,3.118c-0.4,1.176 0.111,2.747 -0.289,3.923c0.156,1.428 0.312,2.856 0.467,4.285c-0.351,0.258 -4.386,3.22 -4.386,3.22c-0.179,0.373 1.409,-2.937 3.411,2.722c1.99,5.625 -2.615,2.509 -2.853,2.349c-2.234,-1.511 -2.145,-0.125 -3.717,2.586l0.603,2.697l-0.656,2.697l0.847,2.697l-0.413,2.697l-2.168,2.687c-1.014,-1.179 -8.742,-10.165 -1.333,-23.7c6.616,-12.085 5.321,-13.195 10.258,-22.386Z" style="fill:#e0e8e1;"/><path d="M1424.75,845.223c-3.355,13.05 -5.13,13.139 -2.383,31.57c-4.014,5.098 -4.125,4.907 -4.335,5.506c-6.333,18.104 -4.647,-38.124 -3.02,-40.047c2.431,-2.875 4.036,5.014 4.404,4.983c0.872,-0.074 1.002,-2.623 1.874,-2.697l3.461,0.685Z" style="fill:#fae8c8;"/><path d="M764.395,544.417c-0.79,1.568 0.672,1.907 -0.092,3.425c-2.459,4.881 -3.342,3.121 -3.444,3.595c-0.314,1.468 1.06,2.744 1.884,3.69c1.68,1.927 3.899,-0.518 4.168,-0.815c3.93,-4.332 4.543,-0.238 4.306,7.016l-1.2,1.74l-1.863,4.317c-9.107,0.442 -10.106,-0.338 -10.876,-0.939c-19.466,-15.2 5.811,-21.694 7.116,-22.029Z" style="fill:#dbe5dc;"/><path d="M1603.558,1979.853c-0.076,0.154 0.764,4.742 -3.819,4.677c-24.744,-0.352 -24.571,-0.708 -49.472,-0.908c0.624,-2.021 1.248,-4.042 1.871,-6.063l1.832,-0.067l1.832,0.166l1.832,0.008l1.832,0.161l1.832,0.001l1.832,0.077l1.832,-0.04l1.832,0.236l1.832,0.08l1.832,-0.13l1.832,0.094l1.832,-0.057l1.832,0.482l1.832,-0.078l1.832,0.09c10.941,-2.832 22.07,0.678 23.944,1.269Z" style="fill:#f0ebe5;"/><path d="M1174.637,1902.624c3.136,-4.752 3.001,-5.751 7.516,-5.181c9.819,1.238 31.185,-4.659 31.475,5.272c0.014,0.484 -0.379,0.866 -0.365,1.349c-3.064,-0.068 -6.115,-0.702 -9.179,-0.77c-7.957,-0.177 -9.784,-2.87 -12.969,7.881c-1.341,-0.581 -3.426,-1.484 -16.478,-8.551Z" style="fill:#f595aa;"/><path d="M1248.87,844.779c-1.798,20.121 -1.725,19.932 -1.965,40.162c-4.819,-8.774 -6.319,-7.675 -7.555,-18.931c-0.476,-4.334 0.026,-9.835 0.16,-10.533c3.459,-18.062 8.11,-10.828 9.36,-10.699Z" style="fill:#eca888;"/><path d="M1094.197,1083.509c-17.813,-2.896 -17.308,-31.175 -10.562,-21.328c9.519,13.895 22.769,11.229 15.881,19.325c-0.343,0.403 -0.394,0.148 -5.319,2.003Z" style="fill:#f6d0b2;"/><path d="M890.946,775.238c1.814,-0.344 3.518,-1.562 5.332,-1.906c10.203,-1.937 25.073,20.879 0.035,26.911l0.286,-0.22c2.292,-8.602 3.28,-11.249 3.628,-12.182c5.213,-0.414 5.359,-0.91 5.271,-1.529c-0.82,-5.816 -2.439,-4.844 -5.677,-1.041c-4.882,-5.007 -4.8,-5.109 -5.273,-5.408c-0.583,-0.368 -1.251,1.313 -1.81,0.87c-0.873,-0.692 -0.795,-2.935 -1.668,-3.626l-0.124,-1.869Z" style="fill:#afc2b3;"/><path d="M687.794,569.342c7.412,19.656 4.682,20.783 3.893,43.259c-4.457,-1.648 -6.86,0.97 -6.347,-5.602c0.224,-2.866 0.144,-2.613 -0.46,-5.283c-1.917,-8.479 4.751,-8.714 2.045,-12.924c-0.588,-0.914 -0.019,-4.218 -1.644,-5.146c-3.874,-2.213 -0.912,-3.812 1.385,-8.833c1.142,-2.496 0.53,-2.572 1.128,-5.471Z" style="fill:#d3ddd5;"/><path d="M1222.488,1165.651c10.04,-4.435 5.08,7.17 11.66,31.74l-2.551,3.01c-0.683,0.263 -1.867,-3.827 -2.809,1.083c-0.107,0.559 0.153,0.45 -0.888,7.14l-1.655,-0.404c-0.906,-1.632 -3.337,-6.014 -0.816,-26.32c0.889,-7.163 -1.978,-6.513 -1.898,-13.691l-1.041,-2.557Z" style="fill:#f6e3c0;"/><path d="M799.593,482.037c-6.031,6.551 -6.177,7.774 -6.297,8.78c-0.333,2.787 -1.89,2.079 -1.299,4.741c0.896,4.033 2.465,2.304 3.379,6.51c0.76,3.497 -4.451,10.036 -4.988,10.71l-2.445,2.654c0.02,-8.572 -0.903,-18.719 -0.63,-21.51c2.04,-20.882 7.274,-15.551 12.281,-11.885Z" style="fill:#d4ded5;"/><path d="M1343.462,491.17c2.983,5.982 3.269,5.693 3.437,8.027c1.006,13.953 0.206,13.781 -1.226,39.854c-0.028,0.501 0.958,-0.128 1.041,6.098c0.321,24.097 -3.762,-2.444 -3.774,-2.947c-0.557,-22.553 0.247,-22.297 0.523,-51.032Z" style="fill:#4f2929;"/><path d="M1324.785,1985.921l2.058,-2.589c2.802,0.731 2.641,0.829 5.573,1.455c0.728,0.155 9.042,1.929 9.08,2.139c0.251,1.378 -1.381,2.565 -1.13,3.942l-2.533,1.666l-1.832,1.151l-1.832,0.63c-1.937,1.92 -10.094,4.083 -10.99,4.321l-1.832,-0.311l-1.832,0.545l-2.068,-3.918c5.151,-3.017 7.436,-0.978 7.336,-9.031Z" style="fill:#531f14;"/><path d="M1251.078,1976.352c3.125,1.596 3.12,1.126 5.725,4.237c0.02,12.242 -1.094,11.836 -5.412,22.064c-9.718,-12.491 -4.958,-16.5 -0.313,-26.3Z" style="fill:#ef8c97;"/><path d="M978.837,626.616c6.611,-0.098 6.238,2.496 12.814,2.609c4.479,0.077 4.39,0.419 7.906,4.427c-3.824,2.443 -4.659,2.443 -4.219,8.579c-6.409,0.572 -4.6,6.854 -9.185,7.505c-4.195,0.596 1.319,-2.979 1.638,-12.802c0.092,-2.843 -0.746,-2.231 -1.638,-4.901c-1.075,0.788 -2.15,1.576 -3.224,2.365c-0.31,-0.618 0.682,-1.622 0.372,-2.24c-0.278,-0.553 -0.331,-0.411 -4.464,-5.542Z" style="fill:#d1dcd4;"/><path d="M1387.506,1164.824c0.562,-0.041 7.019,-0.511 7.019,-0.511c0.366,0.199 -0.53,1.793 3.804,4.503c3.555,2.223 3.584,1.178 7.516,0.884c5.337,-0.4 0.532,12.042 -6.221,7.295c-2.096,-1.474 -9.73,1.185 -10.642,-6.041c-0.48,-3.807 -0.843,-3.497 -1.478,-6.13Z" style="fill:#f386a3;"/><path d="M905.574,466.933c0.302,0.733 -0.972,1.643 -0.67,2.376c0.612,1.485 1.712,3.091 2.89,3.01c0.237,-0.016 -0.64,-1.076 1.913,-3.341c0.641,-0.568 0.108,1.548 0.661,1.058l0.988,2.389c-1.013,2.897 -0.922,2.7 -1.885,5.389c-1.637,4.573 0.534,3.749 3.416,6.569l1.803,1.422l2.194,3.248c-0.605,0.591 -5.695,5.559 -9.039,1.259c-6.89,-8.858 -5.224,-10.833 -2.27,-23.379Z" style="fill:#c7d4ca;"/><path d="M709.5,125.611l1.904,-3.451l1.832,0.157l1.832,-0.229c1.9,0.201 11.044,1.168 23.812,0.508l1.832,-0.201l1.832,0.603l1.832,0.878l-1.855,4.532c-16.646,-0.683 -16.48,-0.897 -33.019,-2.797Z" style="fill:#352317;"/><path d="M1059.69,570.291c2.658,-0.711 2.563,-0.631 5.227,-0.807l0.332,2.632c0.166,1.361 1.862,1.52 2.028,2.881c0.042,0.341 -2.148,0.767 -0.012,1.913c1.798,0.964 0.962,1.772 0.697,9.842c-0.665,0.027 -4.935,0.199 -8.294,0.889c-0.545,-0.553 -4.433,0.428 -4.905,-10.113c3.918,2.296 4.285,4.585 5.725,1.521c0.757,-1.611 0.286,-1.73 -0.798,-8.758Z" style="fill:#d5dfd4;"/><path d="M1491.638,1970.047l1.548,1.957c-1.424,2.069 -9.367,13.604 -23.688,11.801c-18.85,-2.373 4.298,-5.032 22.14,-13.759Z" style="fill:#d9bcb2;"/><path d="M834.377,536.034c4.966,0.324 5.181,-0.609 6.813,1.496c9.337,12.04 -0.101,21.192 -1.109,22.17c-0.703,-1.595 -2.215,-2.156 -2.918,-3.752c-0.489,-1.11 0.745,-5.112 0.548,-8.072c-0.436,-6.552 -2.04,-5.56 -3.333,-11.842Z" style="fill:#acc1b0;"/><path d="M1318.083,825.025c1.835,2.882 1.749,2.776 3.387,5.903c-2.061,3.165 -3.537,2.433 -2.878,10.077c0.885,10.258 -0.025,10.103 0.609,20.357c-0.54,-0.081 -0.495,-0.108 -4.732,-1.564c-0.158,-18.591 -4.22,-20.412 3.614,-34.773Z" style="fill:#59281b;"/><path d="M1321.469,830.928c3.599,11.68 4.329,11.727 2.358,30.036c-1.542,0.133 -3.085,0.265 -4.627,0.398c-0.634,-10.254 0.276,-10.098 -0.609,-20.357c-0.659,-7.644 0.816,-6.912 2.878,-10.077Z" style="fill:#471a0e;"/><path d="M921.296,590.21c1.805,1.387 0.768,2.869 2.581,4.262c1.049,0.806 0.925,-1.668 1.889,-0.828c0.513,0.447 1.23,1.072 -1.246,10.814c-0.507,-0.573 -0.165,-2.07 -0.671,-2.644c-3.692,-4.181 -3.135,10.727 -3.61,11.382c-0.46,0.634 -1.426,-0.806 -1.886,-0.172c-1.898,-2.029 -3.796,-4.058 -5.693,-6.087c4.09,-8.666 3.913,-8.551 8.636,-16.728Z" style="fill:#eef2ee;"/><path d="M1295.102,866.636l2.435,-0.243c8.81,2.707 13.682,-2.477 12.077,7.954c-0.077,0.499 0.055,0.466 0.742,6.296c-5.593,-0.875 -5.427,-1.259 -10.472,-4.774c-2.804,-4.379 -2.642,-4.315 -4.783,-9.233Z" style="fill:#4d1f12;"/><path d="M1541.115,817.653c16.787,0.783 16.443,10.691 13.09,11.878c-4.525,1.601 -11.196,-3.222 -12.084,-3.864c-0.237,-4.115 -0.722,-3.814 -1.006,-8.014Z" style="fill:#81432b;"/><path d="M1266.067,1161.36l1.566,1.66c-0.182,18.068 -3.703,24.789 -4.612,26.523l-3.913,-13.265c3.275,-4.352 3.14,-4.47 4.33,-10.572c0.885,-4.537 1.551,-3.707 2.629,-4.346Z" style="fill:#f39fb3;"/><path d="M1104.309,1815.286l2.423,2.957l-0.086,2.697c1.158,5.805 0.883,12.516 0.839,13.607c-0.258,6.302 -0.161,6.438 -2.976,11.383c-4.352,-10.883 -1.764,-18.123 -0.2,-30.645Z" style="fill:#230704;"/><path d="M1112.306,1007.861c7.129,1.292 6.788,2.702 15.344,11.044c-0.558,1.611 0.1,3.772 -0.458,5.383c-0.894,2.579 -1.299,0.653 -3.754,-1.262c-0.833,-0.649 -6.736,-5.254 -9.068,-11.065l-2.064,-4.1Z" style="fill:#f9eddb;"/><path d="M1126.358,1755.845l3.485,3.06l0.196,2.697c1.626,15.773 2.128,16.264 1.282,16.787c-2.284,1.413 -2,-0.4 -3.437,-3.301c-0.282,-0.568 -0.344,-0.41 -4.641,-5.537c1.038,-4.569 2.076,-9.137 3.115,-13.706Z" style="fill:#f0abbd;"/><path d="M828.254,545.21c-0.037,0.434 2.299,2.871 -2.924,5.68c-12.158,11.588 -11.278,-0.522 -11.419,-3.515c5.678,1.584 6.791,0.34 7.254,-0.177c2.404,-2.687 2.38,-5.6 7.09,-1.988Z" style="fill:#f0f1ed;"/><path d="M886.481,795.171c0.509,-0.387 -0.011,-2.034 0.498,-2.421c0.495,-0.377 1.829,1.664 1.665,-1.727c-0.278,-5.754 4.947,-8.688 4.548,-0.253c-0.151,3.191 0.718,5.014 0.747,5.217l2.661,4.035l-0.286,0.22c-0.745,0.104 -3.689,0.515 -9.161,2.743l-0.066,-1.604c-0.202,-2.07 -0.404,-4.141 -0.606,-6.211Z" style="fill:#e0e5de;"/><path d="M1077.763,591.912c-3.703,-6.031 -4.954,-8.713 -1.856,-8.86c12.082,-0.575 12.59,1.229 12.184,2.55c-0.167,0.544 -0.222,0.446 -2.994,6.018l-7.335,0.292Z" style="fill:#cdd7ce;"/><path d="M1360.181,1316.285l2.377,7.718c-0.318,0.66 -3.279,-0.309 -2.912,6.039c0.041,0.708 -0.216,4.718 -0.242,5.127c-0.973,15.196 -9.093,-7.266 -0.99,-15.916l1.767,-2.968Z" style="fill:#f59db2;"/><path d="M671.357,634.809c0.656,0.487 2.399,-0.339 4.62,5.71c1.212,3.3 -0.217,2.968 -3.463,8.031c-0.928,-0.101 -1.855,-0.202 -2.783,-0.303c-2.051,-2.199 -6.368,-2.584 -2.057,-8.511c2.534,-3.483 2.441,-3.467 3.683,-4.927Z" style="fill:#dce3dd;"/><path d="M1445.902,1038.733c-4.482,6.157 -4.877,4.968 -10.961,6.575c-3.486,0.921 -4.328,3.573 -5.933,-0.995c-0.966,-2.749 -1.858,-4.288 0.296,-4.238c5.734,0.133 5.568,-0.27 16.597,-1.342Z" style="fill:#e09f83;"/><path d="M584.969,625.905c-1.629,4.653 -1.539,4.431 -3.031,9.053c-0.647,2.003 -1.031,0.866 -2.414,2.027l-2.147,-0.171c0.234,-7.021 -1.617,-23.76 7.592,-10.909Z" style="fill:#9eb7a3;"/><path d="M863.438,858.4l1.825,2.907c2.859,8.617 -2.251,4.501 -8.609,6.308c-1.68,-3.817 -1.492,-3.651 -2.475,-7.667c4.602,-1.282 4.452,-1.016 9.259,-1.548Z" style="fill:#d6dfd7;"/><path d="M999.557,633.653c8.03,15.868 -3.792,15.929 -4.737,15.934c0.173,-2.452 0.346,-4.903 0.519,-7.355c-0.44,-6.136 0.395,-6.136 4.219,-8.579Z" style="fill:#96b09d;"/><path d="M945.844,634.91c-0.652,0.669 -7.595,7.787 -8.822,6.732c-2.75,-2.363 -0.83,-3.909 -1.391,-4.792c-0.605,-0.953 -1.991,0.112 -2.596,-0.84l-1.832,-2.716l1.832,-1.859l1.832,-0.121l2.255,0.143l1.409,1.605c3.764,0.238 3.676,0.184 7.314,1.849Z" style="fill:#e4e9e3;"/><path d="M1075.946,532.777l1.791,-3.868c-0.06,-1.088 1.373,-1.557 1.312,-2.645c-0.07,-1.267 -1.333,-1.774 -1.624,-2.971c-0.157,-0.644 -0.381,-2.814 5.68,-1.747c3.296,0.58 2.717,3.975 2.924,4.718l-0.966,1.536l-1.838,4.979l-7.28,-0.001Z" style="fill:#e6e9e3;"/><path d="M654.899,538.696c4.826,2.446 5.325,1.057 8.692,6.857c0.698,1.672 1.396,3.345 2.094,5.017c-0.907,0.134 -4.274,0.633 -10.991,-4.404c-2.37,-1.777 -2.348,-2.591 -2.338,-2.954c0.087,-3.184 2.451,-1.169 2.543,-4.517Z" style="fill:#f1f5f1;"/><path d="M608.586,664.637c4.21,1.748 4.322,1.339 5.255,2.648c3.064,4.3 0.488,4.744 -3.179,7.971l-1.832,1.255l-1.684,2.281c-1.208,-0.645 -2.415,-1.289 -3.623,-1.934c4.007,-5.114 4.976,-4.561 5.063,-12.221Z" style="fill:#dde3dc;"/><path d="M597.906,457.316c0.13,2.012 0.26,4.025 0.39,6.037c-2.029,1.942 -10.111,14.395 -6.577,0.087c1.88,-7.61 0.904,-16.649 3.65,-9.456c0.914,2.393 1.216,1.597 2.537,3.332Z" style="fill:#d7dbd5;"/><path d="M808.275,617.962c-0.6,9.214 -1.148,10.202 -7.043,11.03c0.274,-6.991 2.522,-15.826 3.586,-15.947c0.736,-0.084 0.881,2.311 1.617,2.227l1.839,2.69Z" style="fill:#b0c5b1;"/><path d="M1339.781,1029.546c7.95,2.405 7.968,2.082 14.533,8.981c-3.666,0.241 -3.459,0.387 -7.322,0.481c-3.304,0.081 -2.785,-1.702 -7.211,-9.462Z" style="fill:#efbea0;"/><path d="M670.954,537.366c2.219,2.332 2.018,2.358 4.172,4.667c-2.361,2.403 -2.785,1.832 -3.34,5.857l-2.493,0.19c-1.203,0.83 -2.405,1.661 -3.608,2.491c-0.698,-1.672 -1.396,-3.345 -2.094,-5.017c0.63,-0.566 2.665,-2.396 7.363,-8.187Z" style="fill:#dfe6df;"/><path d="M828.254,545.21c2.107,-2.709 2.126,-5.619 4.035,-2.601c0.198,0.313 -0.233,0.422 0.652,5.266c0.309,1.692 0.401,1.496 0.73,3.234c0.042,0.222 -2.818,12.729 -8.341,-0.219c5.223,-2.809 2.887,-5.246 2.924,-5.68Z" style="fill:#b5c2b8;"/><path d="M969.087,445.502l-1.246,2.546c-0.144,0.677 -1.099,0.408 -1.243,1.084c-0.292,1.37 0.588,3.068 0.093,4.305c-0.685,1.71 -2.559,1.849 -3.244,3.56l-3.575,-4.98l2.076,-4.743c0.391,-0.506 4.332,-5.599 5.809,-4.325c0.628,0.542 0.701,2.011 1.329,2.552Z" style="fill:#c6cfc5;"/><path d="M969.674,534.748c-2.677,2.208 -2.811,2.751 -2.88,2.375c-2.128,-11.663 -3.303,-11.039 -3.069,-12.005c1.247,-5.144 9.556,-5.416 8.14,-2.078c-0.392,0.924 -3.761,0.024 -2.192,11.708Z" style="fill:#e5eae6;"/><path d="M647.997,518.905c5.439,-4.819 7.376,-9.881 8.659,-10.667c7.58,-4.647 -3.333,11.908 -3.859,12.707c-3.24,2.484 -4.906,3.299 -4.8,-2.04Z" style="fill:#c7cdc6;"/><path d="M675.126,542.032c1.174,1.81 2.349,3.621 3.523,5.431c-0.597,1.47 -2.198,1.605 -2.795,3.075c0,0 -1.163,6.897 -1.264,7.496c-0.978,-0.138 -1.957,-0.276 -2.935,-0.414c0.626,-4.993 0.447,-4.776 0.131,-9.731c0.555,-4.025 0.978,-3.454 3.34,-5.857Z" style="fill:#b2bdb3;"/><path d="M909.572,952.541c2.128,2.161 2.57,1.602 2.944,5.281c-1.001,1.347 -2.808,5.354 -8.863,5.983c-1.753,0.182 -1.662,-7.018 3.629,-6.842c2.65,0.088 1.777,-1.641 2.289,-4.422Z" style="fill:#d4d9d5;"/><path d="M904.29,993.636c-2.596,4.476 -2.599,4.179 -5.681,8.175l-3.079,-3.53c3.745,-13.555 6.654,-5.932 8.76,-4.645Z" style="fill:#ccd7cd;"/><path d="M964.173,543.098c2.412,1.508 2.121,1.731 3.613,4.743l1.265,1.916l-4.066,6.675l-3.014,-5.866c0.382,-4.329 0.577,-4.011 2.201,-7.467Z" style="fill:#bfcac1;"/><path d="M918.511,659.285c-1.264,-0.818 -2.528,-1.636 -3.792,-2.454c-0.289,-0.324 -5.722,-6.411 -1.761,-6.159c5.509,0.351 5.262,1.599 9.043,7.375l-3.49,1.238Z" style="fill:#ced9cd;"/><path d="M601.626,658.395c-0.985,5.818 -1.47,5.207 -3.786,9.879l-1.187,2.473c-0.394,-0.428 -0.267,-0.411 -4.741,-5.707c1.927,-1.674 3.854,-3.348 5.781,-5.022c1.311,-0.541 2.623,-1.083 3.934,-1.624Z" style="fill:#c3ccc1;"/><path d="M1491.638,1970.047c-1.202,-1.473 -2.405,-2.946 -3.607,-4.419l1.832,-1.743c2.444,0.338 5.108,-0.161 5.548,-0.244c4.693,-0.88 -1.863,7.88 -2.225,8.363l-1.548,-1.957Z" style="fill:#4a271c;"/><path d="M1067.963,586.752c0.74,1.761 1.48,3.522 2.22,5.283c-0.421,0.092 -5.268,1.149 -5.268,1.149c-2.802,-0.169 -2.378,-1.312 -5.247,-5.542c3.36,-0.69 7.629,-0.862 8.294,-0.889Z" style="fill:#97af9a;"/><path d="M837.758,901.05c-2.691,7.591 -3.413,7.104 -7.312,6.824c-0.215,-11.584 3.268,-8.689 7.312,-6.824Z" style="fill:#9fb19f;"/><path d="M608.586,664.637c-0.087,7.66 -1.056,7.108 -5.063,12.221l-3.535,-3.093c0.717,-1.002 2.196,-0.021 4.232,-5.915c1.241,-3.592 1.672,-2.855 4.366,-3.213Z" style="fill:#c5cdc5;"/><path d="M1059.42,518.038c3.475,2.943 9.103,3.715 7.031,8.043c-2.372,4.957 -2.868,0.511 -6.43,-2.515l-2.107,0c0.502,-1.843 1.004,-3.685 1.506,-5.528Z" style="fill:#c7d1c8;"/><path d="M925.409,639.528c-0.188,6.697 0.903,8.391 -1.43,8.546c-4.036,0.268 -6.217,-20.138 1.43,-8.546Z" style="fill:#d4ded6;"/><path d="M1131.303,527.466c-0.709,0.686 -1.418,1.371 -2.128,2.057c-0.51,-0.398 -1.164,1.058 -1.674,0.66c-0.53,-0.414 -5.101,-3.982 0.105,-11.038c1.898,-2.572 0.848,1.48 2.533,4.422l1.163,3.9Z" style="fill:#b8c9ba;"/><path d="M1059.69,570.291c1.083,7.028 1.555,7.147 0.798,8.758c-1.44,3.063 -1.807,0.775 -5.725,-1.521c1.188,-5.234 1.371,-5.261 4.927,-7.237Z" style="fill:#9fb3a1;"/><path d="M878.306,876.949c3.183,-1.839 2.88,-2.232 5.275,-5.695c0.666,0.709 1.794,-0.962 2.46,-0.253c2.769,2.948 0.937,3.804 -1.941,6.747c-0.333,0.341 -4.126,4.22 -4.182,4.219c-0.886,-0.014 -1.103,-2.585 -1.989,-2.598l0.378,-2.419Z" style="fill:#e6ebe5;"/><path d="M907.358,936.25c1.112,-0.214 2.224,-0.427 3.336,-0.641c1.058,2.222 1.679,0.913 2.831,3.333c0.096,0.202 0.793,1.666 0.212,3.062c-0.531,1.276 -2.014,1.217 -2.528,2.508c-0.398,1 0.547,2.469 0.149,3.469l-2.377,0.994c0.147,-2.473 0.376,-2.26 0.28,-4.728c-0.16,-4.134 -1.334,-3.06 -2.258,-5.182l0.354,-2.815Z" style="fill:#eeefed;"/><path d="M924.52,604.458c-2.867,11.81 -2.461,11.877 -2.717,12.889c-0.829,-1.025 -0.525,-1.085 -1.384,-2.146c-0.156,-0.192 -0,-0 -2.065,-2.176c0.46,-0.634 1.426,0.806 1.886,0.172c0.475,-0.655 -0.083,-15.563 3.61,-11.382c0.507,0.573 0.165,2.07 0.671,2.644Z" style="fill:#d8ddd8;"/><path d="M1168.943,1167.516c-5.313,7.912 -6.262,4.32 -6.405,3.542c-0.971,-5.268 6.503,-10.297 6.855,-8.433c0.299,1.585 -0.749,3.306 -0.45,4.891Z" style="fill:#f9d3ad;"/><path d="M664.039,490.989c-0.703,1.615 -1.407,3.23 -2.11,4.845c-2.046,-5.934 -2.018,-5.908 -2.21,-6.409c-0.475,-1.243 -0.933,-0.425 -1.369,-1.57c-12.605,-33.078 5.417,2.54 5.689,3.133Z" style="fill:#c6cbc6;"/><path d="M1440.414,1189.822c-4.821,8.623 -6.511,11.099 -8.035,5.57c-0.456,-1.655 -0.051,-1.529 0.566,-3.098c1.069,-2.721 1.556,-1.511 7.469,-2.472Z" style="fill:#f3839c;"/><path d="M958.54,542.758c0.103,-4.065 -0.757,-6.803 1.881,-5.171c0,0 3.452,5.07 3.753,5.511c-1.624,3.456 -1.819,3.139 -2.201,7.467l-1.647,-2.724l-1.785,-5.084Z" style="fill:#e0e4e1;"/><path d="M1515.311,1291.44c-6.597,-0.159 -3.269,-10.092 -0.005,-6.837c4.19,4.179 0.549,6.307 0.005,6.837Z" style="fill:#eee1d2;"/><path d="M598.001,650.486c3.543,0.422 4.852,-1.67 5.088,2.316c0.028,0.478 -0.108,0.414 -1.463,5.593c-1.311,0.541 -2.623,1.083 -3.934,1.624c-0.547,-7.569 0.217,-7.358 0.308,-9.533Z" style="fill:#d5d7d1;"/><path d="M1678.585,1855.861c-0.491,0.476 -16.406,15.9 -7.135,-2.595c0.349,-0.697 1.25,-2.494 7.135,2.595Z" style="fill:#e36082;"/><path d="M658.327,440.136c2.955,2.582 4.92,3.764 1.968,6.394c-0.603,0.537 -1.488,-0.987 -2.091,-0.45c-1.998,1.519 -1.821,1.48 -1.998,1.519c-0.575,0.127 -1.009,-1.198 -1.584,-1.071l-1.657,-4.341c0.443,0.014 2.962,0.094 5.362,-2.052Z" style="fill:#dfe2dd;"/><path d="M916.943,463.095c0.005,0.764 1.126,0.811 1.131,1.575c0.017,2.484 -6.116,7.282 -6.719,7.753l-0.988,-2.389c2.876,-4.495 2.496,-5.171 6.575,-6.94Z" style="fill:#d3dcd5;"/><path d="M642.352,429.951c-3.919,1.88 -3.89,2.176 -4.232,2.03c-4.275,-1.818 -4.019,-5.322 0.017,-8.151c1.405,2.04 2.81,4.081 4.215,6.121Z" style="fill:#e4e8e2;"/><path d="M942.219,445.346c-1.185,-2.751 -1.297,-2.365 -2.343,-5.439c-2.986,-8.78 1.706,-5.161 1.875,-4.796c0.253,0.544 2.852,6.138 2.397,7.443c-0.412,1.181 -1.517,1.611 -1.929,2.792Z" style="fill:#d5dcd6;"/><path d="M652.557,490.994c5.677,6.388 5.401,7.156 5.123,7.93c-1.191,3.318 -1.806,0.927 -7.388,-3.107l2.265,-4.824Z" style="fill:#d3dbd4;"/><path d="M618.05,437.151c-2.647,-3.096 -5.445,-5.477 -2.08,-7.051c2.945,-1.377 7.03,6.431 6.001,7.178c-1.173,0.852 -2.749,-0.979 -3.922,-0.127Z" style="fill:#bac0b9;"/><path d="M856.806,871.614c0.724,18.263 -5.646,5.87 -5.857,5.13c-1.664,-5.844 2.146,-1.983 5.857,-5.13Z" style="fill:#dbddd9;"/><path d="M953.202,437.233c-2.116,3.849 -2.39,4.804 -5.248,2.344c-4.484,-3.86 -0.799,-5.416 -0.507,-5.54c3.188,-1.346 2.922,0.519 5.756,3.196Z" style="fill:#cdd4ce;"/><path d="M909.501,928.511c0.864,-0.014 1.373,-1.913 2.237,-1.927c0.229,-0.004 0.046,0.29 0.65,4.111l-1.092,3.389l-0.601,1.526c-1.112,0.214 -2.224,0.427 -3.336,0.641c0.663,-4.164 0.76,-3.972 2.142,-7.74Z" style="fill:#c0c5c0;"/><path d="M1151.207,1116.978c-0.465,8.354 1.174,9.958 -3.68,14.61c-0.153,0.147 0.07,0.739 -0.109,0.792c-2.236,0.666 -0.848,-1.524 -1.076,-1.934c3.097,-6.227 1.971,-6.849 4.865,-13.468Z" style="fill:#f8d5ad;"/><path d="M874.81,793.586c1.428,-0.387 0.158,-2.423 1.569,-2.805c0.176,-0.048 0.006,0.386 1.829,1.885c3.674,3.02 3.688,3 3.667,3.061c-2.507,7.457 -6.734,-1.445 -7.065,-2.141Z" style="fill:#d2d5cf;"/><path d="M938.394,583.657l-1.537,2.095c-0.413,-0.055 -9.57,-1.274 -3.805,-5.185c0.417,-0.283 1.764,-1.196 5.342,3.09Z" style="fill:#cfd5d0;"/><path d="M878.306,876.949l-0.378,2.419c-3.427,0.249 -4.022,-0.148 -4.107,-5.24c-0.01,-0.574 2.403,-8.071 4.485,2.821Z" style="fill:#c4cbc1;"/><path d="M1277.528,1256.802c5.111,10.086 -3.811,8.366 -3.582,5.697c0.355,-4.146 1.22,-3.142 3.582,-5.697Z" style="fill:#784b39;"/><path d="M907.004,939.065c0.925,2.122 2.098,1.048 2.258,5.182c0.096,2.468 -0.134,2.255 -0.28,4.728c-0.557,-0.412 -1.153,1.529 -1.711,1.116c-1.668,-1.235 -0.391,-10.162 -0.267,-11.026Z" style="fill:#e1e3e1;"/><path d="M669.293,548.079l2.493,-0.19c0.316,4.954 0.495,4.737 -0.131,9.731c-1.419,-1.147 -2.837,-2.293 -4.256,-3.44c1.361,-2.982 1.714,-2.622 1.893,-6.101Z" style="fill:#e2e8e1;"/><path d="M1274.895,1961.745c2.701,-3.927 3.064,-6.752 5.799,-2.788c0.348,0.504 1.85,7.469 -5.799,2.788Z" style="fill:#6c4b44;"/><path d="M830.439,817.547l1.855,1.764l1.684,0.952l-0.119,2.697c-0.086,-0.004 -2.342,3.085 -5.09,-0.217c-0.182,-0.219 -1.618,-1.945 0.478,-4.268c0.359,-0.398 0.833,-0.53 1.193,-0.928Z" style="fill:#e4e7e2;"/><path d="M782.567,550.37c0.391,0.019 8.775,0.427 3.527,4.992c-3.152,2.742 -3.701,0.32 -3.527,-4.992Z" style="fill:#dedfdb;"/><path d="M912.598,624.387c3.25,-1.319 4.352,-0.578 3.762,4.312c-0.425,3.522 -1.501,2.426 -3.295,-0.028c-0.156,-1.428 -0.312,-2.856 -0.467,-4.285Z" style="fill:#e5e8e4;"/><path d="M791.95,618.016c0.938,-0.673 0.629,1.551 1.557,0.886c0.233,-0.168 0.41,-0.294 2.168,-3.559c0.233,-0.434 0.274,-1.063 0.535,-1.461c14.327,-21.843 -0.382,6.437 -0.637,6.842c-1.812,-0.846 -1.622,-0.99 -3.622,-2.708Z" style="fill:#afbeaf;"/><path d="M977.287,475.243c2.395,0.818 3.026,-0.11 3.257,2.476c0.371,4.156 -1.076,3.267 -1.705,5.179c-2.046,-2.987 -1.716,-3.268 -1.552,-7.656Z" style="fill:#b7c2ba;"/><path d="M899.821,785.271c3.238,-3.803 4.857,-4.776 5.677,1.041c0.087,0.62 -0.058,1.116 -5.271,1.529l-0.406,-2.57Z" style="fill:#8ea493;"/><path d="M955.161,632.599c0.266,0.738 1.102,0.753 1.368,1.491c0.203,0.563 1.579,5.987 -5.109,2.62c1.346,-3.054 1.269,-3.006 3.741,-4.111Z" style="fill:#cbd1cb;"/><path d="M673.668,574.814c0.328,-1.572 -0.982,-3.267 -0.654,-4.839c0.305,-1.462 4.744,0.355 3.155,7.254c-0.699,3.034 -0.729,-0.703 -2.501,-2.415Z" style="fill:#c2c8c1;"/><path d="M840.166,1009.891l1.141,-1.216c1.002,0.434 2.005,0.868 3.007,1.302l0.767,1.802c-0.269,0.152 -3.363,1.9 -3.363,1.9c-1.781,-1.323 -1.512,-3.691 -1.552,-3.789Z" style="fill:#c0c6c0;"/><path d="M832.344,858.468l1.408,2.406c-1.172,3.835 -0.728,6.017 -2.578,4.361c-2.844,-2.545 -1.64,-4.046 1.17,-6.767Z" style="fill:#bac1ba;"/><path d="M948.079,566.951c0.365,-0.301 7.375,-6.093 5.221,-0.346c-1.564,4.174 -2.346,2.339 -5.221,0.346Z" style="fill:#b0b6b1;"/><path d="M921.997,448.286c0.034,-0.882 -1.76,0.129 -1.725,-0.753c0.045,-1.158 1.262,-1.398 1.839,-2.187c1.787,-2.444 1.963,-4.755 2.943,-2.292c1.663,4.182 0.178,4.622 -3.056,5.232Z" style="fill:#bdc3bb;"/><path d="M669.731,648.247c0.928,0.101 1.855,0.202 2.783,0.303c-0.343,1.095 1.396,2.362 -1.408,4.493c-1.345,1.022 -1.902,0.339 -2.027,0.186c-1.007,-1.235 0.525,-2.028 -0.452,-3.226l1.103,-1.756Z" style="fill:#a4aca5;"/><path d="M866.197,1005.472c2.682,5.973 2.693,5.909 2.897,6.45c2.454,6.54 -1.601,0.223 -5.653,-4.057c0.919,-0.798 1.838,-1.595 2.756,-2.393Z" style="fill:#e9ebe8;"/><path d="M855.705,789.958c-0.631,0.692 -1.261,1.385 -1.892,2.077l-1.414,1.005c-0.27,-1.113 -1.245,-1.642 -1.516,-2.755c-0.183,-0.754 0.807,-2.906 1.353,-2.935c2.942,-0.158 3.08,2.315 3.469,2.608Z" style="fill:#b7bdb6;"/><path d="M654.301,661.129c0.981,-6.091 0.285,-8.835 2.282,-6.976c3.235,3.012 0.952,4.167 -2.282,6.976Z" style="fill:#e3e4e2;"/><path d="M665.968,464.737c0.961,0.006 0.45,-1.333 1.48,-1.326c0.146,0.001 0.995,0.006 1.586,1.345c0.129,0.292 1.199,2.716 0.19,4.346c-0.292,0.472 -3.078,-0.106 -3.261,-0.67c-0.361,-1.111 0.367,-2.584 0.006,-3.695Z" style="fill:#acb2ae;"/><path d="M677.158,621.438c-0.147,-1.43 -1.624,-2.038 -1.771,-3.469c-0.15,-1.458 2.99,-3.259 4.032,-1.373c1.022,1.85 -0.002,1.681 -2.261,4.842Z" style="fill:#d1d6d2;"/><path d="M603.28,449.993c-6.664,-1.156 -1.97,-5.067 -1.664,-5.075c1.294,-0.035 1.435,0.393 1.488,0.556c0.751,2.29 -0.529,2.37 0.176,4.519Z" style="fill:#c5cac6;"/><path d="M847.065,1014.995c1.976,0.32 1.977,0.019 3.387,2.23l-1.926,2.069c-0.587,-0.599 -1.519,1.176 -2.105,0.577c-0.222,-0.226 0.046,-0.347 0.645,-4.876Z" style="fill:#8f948e;"/><path d="M669.293,548.079c-0.179,3.48 -0.532,3.119 -1.893,6.101c-0.572,-1.203 -1.143,-2.407 -1.715,-3.61c1.203,-0.83 2.405,-1.661 3.608,-2.491Z" style="fill:#90998f;"/><path d="M650.382,671.914c-0.523,0.008 -0.733,1.376 -1.255,1.384c-3.811,0.057 0.275,-9.064 1.683,-3.902c0.219,0.803 -0.647,1.715 -0.428,2.518Z" style="fill:#c8cec8;"/><path d="M938.394,583.657c1.396,4.022 3.235,6.21 0.039,6.417c-0.707,0.046 -1.052,-1.795 -1.758,-1.749l0.182,-2.573l1.537,-2.095Z" style="fill:#a3aaa3;"/><path d="M597.906,457.316c0.536,0.303 1.182,-0.496 1.719,-0.193c2.978,1.682 0.972,2.946 -1.329,6.23c-0.13,-2.012 -0.26,-4.025 -0.39,-6.037Z" style="fill:#bdc4bc;"/><path d="M1092.66,520.761c1.224,-3.493 1.681,-5.62 3.412,-2.604c0.391,0.682 -0.446,1.994 -0.055,2.676c-1.119,-0.024 -2.238,-0.048 -3.357,-0.072Z" style="fill:#d9dbd8;"/><path d="M667.398,478.546c1.067,3.239 1.012,3.223 0.047,6.335c-0.128,-0.351 -1.604,-4.39 -1.604,-4.39c0.504,-1.4 1.025,-0.468 1.557,-1.945Z" style="fill:#bec2bd;"/><path d="M969.087,445.502c2.616,5.392 2.807,5.246 2.823,5.817c0.138,5.019 -1.093,-0.879 -4.069,-3.271l1.246,-2.546Z" style="fill:#e1e3de;"/><path d="M801.66,606.933c-0.046,-4.306 -1.427,-7.691 1.226,-5.766c3.701,2.686 0.319,5.887 0.038,6.153c-0.362,0.343 -0.902,-0.73 -1.264,-0.387Z" style="fill:#b5bbb4;"/><path d="M1079.568,573.37c0.913,0.291 1.756,-1.544 2.669,-1.253c1.081,0.344 -2.021,10.389 -2.669,1.253Z" style="fill:#d3d6d1;"/><path d="M976.995,450.937c1.489,3.675 1.761,3.671 1.602,3.956c-5.227,9.43 -1.695,-3.614 -1.602,-3.956Z" style="fill:#bac5bc;"/><path d="M910.689,909.272l1.144,2.697c-1.221,0 -1.739,3.175 -2.96,3.175c-3.178,0 0.527,-1.703 1.816,-5.872Z" style="fill:#e8eeea;"/><path d="M623.536,675.526l-1.884,0.541c-1.187,-2.649 -3.616,-2.175 -1.821,-4.063c0,0 3.409,3.24 3.705,3.522Z" style="fill:#dfe0dc;"/><path d="M889.105,998.309c0.172,-0.479 -0.368,-5.432 3.332,-4.138c3.217,1.126 -0.555,1.378 -3.332,4.138Z" style="fill:#e3e4e2;"/><path d="M976.594,650.337c-0.717,-3.128 -2.017,-5.019 0.242,-4.509c0.182,0.041 1.798,1.824 1.774,1.923c-0.304,1.234 -1.712,1.352 -2.016,2.586Z" style="fill:#b5bdb5;"/><path d="M622.195,664.76c-4.487,1.826 -4.091,-0.687 -4.017,-1.157c0.603,-3.829 1.469,0.423 4.017,1.157Z" style="fill:#cccfca;"/><path d="M634.029,437.786c-0.64,-0.037 -0.747,1.995 -1.387,1.958c-1.742,-0.1 -1.386,-5.566 0.002,-4.533c0.664,0.494 0.721,2.081 1.385,2.575Z" style="fill:#d9dad4;"/><path d="M1265.036,1084.909l1.362,-3.798l1.659,0.785c-1.007,1.004 -2.014,2.009 -3.021,3.013Z" style="fill:#4a1c17;"/><path d="M1372.855,1094.761c-0.194,-0.166 -2.421,-2.076 -2.421,-2.076c0.873,-6.912 2.366,1.756 2.421,2.076Z" style="fill:#e7b094;"/><path d="M1110.467,575.23c-2.496,-2.883 -2.683,-2.71 -2.696,-3.114c-0.129,-3.932 0.648,0.748 2.696,3.114Z" style="fill:#e9eae5;"/><path d="M1620.037,1932.815c3.119,-0.984 3.298,-1.454 3.355,-1.059c0.471,3.283 -1.203,0.38 -3.355,1.059Z" style="fill:#f1849e;"/><path d="M1103.38,525.609c2.253,-1.443 3.656,-5.387 2.902,-1.858c-0,0 -2.669,1.709 -2.902,1.858Z" style="fill:#eaebe5;"/><path d="M1442.272,1327.365c-0.156,0.253 -1.951,3.158 -1.951,3.158c-1.702,-1.686 0.611,-0.989 1.951,-3.158Z" style="fill:#f7d9b5;"/><path d="M846.885,1008.844c2.118,-1.148 2.015,-2.262 3.915,-0.801c-1.305,0.267 -2.61,0.534 -3.915,0.801Z" style="fill:#e6eae3;"/><path d="M1092.66,520.761c1.119,0.024 2.238,0.048 3.357,0.072c-3.026,2.487 -3.021,2.945 -3.258,2.677c-0.494,-0.56 0.394,-2.189 -0.099,-2.75Z" style="fill:#ecedeb;"/><path d="M637.995,667.528l1.364,0.043c-0.911,0.62 -1.821,1.239 -2.732,1.859l1.368,-1.902Z" style="fill:#e1e2de;"/></g></svg>