<?xml version="1.0" encoding="UTF-8" standalone="no"?><!DOCTYPE svg PUBLIC "-//W3C//DTD SVG 1.1//EN" "http://www.w3.org/Graphics/SVG/1.1/DTD/svg11.dtd"><svg width="100%" height="100%" viewBox="0 0 2048 2048" version="1.1" xmlns="http://www.w3.org/2000/svg" xmlns:xlink="http://www.w3.org/1999/xlink" xml:space="preserve" xmlns:serif="http://www.serif.com/" style="fill-rule:evenodd;clip-rule:evenodd;stroke-linejoin:round;stroke-miterlimit:2;"><g id="Background"><path d="M5.231,917.995c117.19,-830.481 990.557,-1133.057 1561.782,-760.674c616.894,402.154 581.032,1162.092 225.919,1545.562c-369.393,398.889 -794.365,346.057 -874.624,339.006c-486.233,-42.714 -974.395,-470.259 -913.076,-1123.894l-0.001,0Z" style="fill:#896246;"/><path d="M1024.724,26.863c744.974,-0.159 1269.191,837.209 852.697,1517.917c-194.668,318.161 -589.722,538.199 -1024.813,463.185c-509.637,-87.868 -784.174,-518.826 -820.222,-846.23c-74.481,-676.479 479.195,-1137.936 992.338,-1134.873l0,0.001Z" style="fill:#e2bb88;"/><path d="M1983.76,966.648c37.877,512.132 -341.336,789.286 -362.525,806.833c-98.232,73.717 -107.789,79.619 -238.524,138.461c-260.387,117.195 -621.755,93.276 -895.482,-92.195c-502.715,-340.628 -508.937,-945.865 -268.466,-1309.839c513.876,-777.799 1680.032,-480.014 1764.997,456.741Z" style="fill:#9c6f54;"/><path d="M1293.141,1922.088c-113.865,31.817 -370.184,107.926 -723.883,-77.169c-273.722,-143.241 -608.856,-544.612 -445.719,-1090.047c153.09,-511.844 805.232,-887.802 1400.733,-523.27c382.929,234.408 649.46,854.409 241.575,1372.085c-172.51,218.945 -430.03,304.263 -472.706,318.401Z" style="fill:#e8bfb2;"/><path d="M1095.75,1732.702c-328.743,36.498 -698.054,-176.157 -764.642,-592.586c-52.755,-329.923 151.039,-695.007 521.455,-797.469c538.391,-148.924 1087.985,425.377 789.503,1019.624c-86.654,172.519 -283.568,327.408 -500.808,363.834c-3.63,0.609 -3.628,0.108 -45.509,6.597l0.001,0Z" style="fill:#9c6e53;"/><path d="M1710.159,1026.145c-18.78,566.403 -566.923,797.838 -937.576,642.723c-497.041,-208.006 -557.508,-807.399 -222.299,-1129.385c432.005,-414.963 1114.807,-139.759 1158.286,454.058c0.794,10.849 0.795,21.754 1.589,32.602l0,0.001Z" style="fill:#e3ba85;"/><path d="M1499.924,582.07c31.38,35.057 203.39,212.427 169.622,525.039c-36.422,337.178 -358.776,622.96 -740.67,567.625c-626.788,-90.82 -765.032,-935.961 -186.676,-1232.18c236.034,-120.891 544.23,-74.433 731.906,113.016c13.304,13.287 12.72,13.328 25.818,26.5Z" style="fill:#9c7251;"/><path d="M1602.12,776.484c47.755,119.787 118.194,327.825 -48.142,595.145c-100.765,161.94 -466.451,458.447 -897.446,172.958c-97.44,-64.543 -165.898,-175.877 -177.044,-194.003c-9.359,-15.22 -9.228,-14.85 -18.452,-30.442c0.202,-0.484 10.734,-1.082 5.141,-12.292c-30.908,-61.945 -35.982,-146.225 -39.031,-178.678c-27.632,-294.126 158.396,-599.462 562.345,-676.146c188.048,-35.698 359.997,71.705 379.324,85.198c110.067,76.843 160.899,133.14 210.149,222.483l4.377,5.418l2.675,2.924l3.853,7.911l4.241,5.418l8.011,-5.892l-0.001,-0.001Z" style="fill:#eee3c7;"/><path d="M753.932,961.335c-3.406,23.341 -19.441,133.242 -99.122,275.554c-17.385,31.049 -28.505,20.874 -67.708,-18.168c-74.364,-74.059 -169.041,-277.494 -101.463,-375.103c19.599,-28.308 74.272,-46.156 113,26.415c18.845,35.314 19.492,-52.253 67.549,-86.875c2.514,-1.811 105.751,-59.668 87.744,178.177Z" style="fill:#a67b6d;"/><path d="M1602.12,776.484l-8.011,5.892l-4.241,-5.418l-3.853,-7.911l-2.675,-2.924l-4.377,-5.418c-49.25,-89.343 -100.082,-145.639 -210.149,-222.483c-19.327,-13.493 -191.276,-120.896 -379.324,-85.198c-403.949,76.684 -589.977,382.02 -562.345,676.146c3.049,32.454 8.124,116.735 39.031,178.678c5.593,11.209 -4.939,11.807 -5.141,12.292c-28.321,-62.357 -66.043,-127.891 -69.624,-283.169c-10.4,-451.037 540.823,-868.82 1027.558,-503.539c111.404,83.605 173.021,220.539 183.15,243.05l0.001,0.001Z" style="fill:#dbc7a9;"/><path d="M1319.36,725.992c7.807,-4.989 6.665,-5.632 10.684,-12.657c36.726,-64.194 72.56,-45.887 81.968,-36.811c88.322,85.204 -58.891,358.4 -104.243,365.11c-26.605,3.936 -76.671,-125.583 -87.331,-155.72c-48.873,-138.156 -17.205,-239.528 31.845,-239.392c44.186,0.122 65.802,76.568 67.078,79.469l-0.001,0.001Z" style="fill:#aa7d6e;"/><path d="M492.537,955.847c-0.572,-1.845 -1.143,-3.691 -1.715,-5.537c-0.365,-47.813 2.731,-73.661 12.877,-81.496c57.746,-44.596 102.803,67.103 106.905,69.462c3.102,1.784 7.506,2.428 19.747,-42.13c25.935,-94.405 75.111,-98.233 89.171,-63.905c50.557,123.437 -47.615,312.912 -49.781,318.077c-21.358,50.938 -30.057,83.693 -57.144,52.063c-113.001,-131.956 -118.692,-224.334 -120.06,-246.532Z" style="fill:#e19096;"/><path d="M1042.114,820.476c0.33,-3.505 3.668,-38.995 8.144,-43.163c0.831,-0.774 8.828,-8.223 12.616,5.89c18.619,69.371 -7.916,191.556 109.281,241.034c52.49,22.16 11.585,37.522 -4.399,47.933c-93.633,60.99 -73.24,116.507 -101.948,230.557c-1.548,6.15 -14.444,16.056 -19.156,-6.157c-12.21,-57.57 -9.735,-57.714 -24.519,-114.13c-32.044,-122.286 -79.324,-91.265 -106.742,-125.41c-20.206,-25.164 40.394,-26.699 68.547,-58.326c50.25,-56.453 57.673,-174.315 58.176,-178.227l0,-0.001Z" style="fill:#b6976c;"/><path d="M1428.412,370.593c0.37,1.714 0.74,3.428 1.109,5.142c2.66,0.835 46.044,19.342 59.539,4.863c7.559,-8.11 -11.213,-30.666 -12.983,-32.793c-16.758,-20.136 8.469,-36.313 13.81,-37.131c69.321,-10.612 81.676,172.631 -45.923,126.519c-112.845,-40.781 -141.175,-136.914 -162.908,-179.371c-34.9,-68.18 -93.044,-47.642 -101.564,-22.878c-4.47,12.993 12.532,5.851 16.462,7.577c41.452,18.201 -7.101,92.635 -53.211,55.277c-65.904,-53.395 27.549,-176.168 109.495,-138.269c50.188,23.211 70.601,83.636 76.741,96.857c40.484,87.183 85.967,57.42 91.019,44.252c17.899,-46.654 -42.35,-12.478 -48.827,-48.638c-12.025,-67.133 98.285,-44.838 99.844,42.801c0.211,11.841 -12.375,45.614 -13.313,46.846c-19.885,26.139 -28.806,22.403 -31.539,25.878c-0.782,0.995 3.032,2.074 2.249,3.069l0,-0.001Z" style="fill:#a57956;"/><path d="M625.69,225.229c4.433,-1.328 41.205,-12.346 54.001,21.295c4.065,10.688 -3.802,33.291 -18.99,33.881c-24.621,0.956 -36.426,1.55 -26.736,25.955c6.857,17.272 54.749,27.455 80.876,-23.24c21.746,-42.193 54.727,-135.883 142.874,-126.827c72.156,7.413 104.976,130.995 35.856,150.618c-53.384,15.156 -64.287,-73.137 -25.398,-61.933c37.234,10.727 -30.336,-73.776 -83.786,2.774c-37.804,54.142 -43.785,134.997 -169.275,193.173c-77.855,36.093 -129.847,-33.989 -91.762,-97.881c20.737,-34.787 70.006,-23.972 56.63,11.483c-1.348,3.572 -38.662,36.665 -0.331,39.66c11.753,0.918 65.895,-11.96 40.355,-23.139c-22.604,-9.893 -67.48,-76.583 -3.699,-139.628l9.386,-6.193l-0.001,0.001Z" style="fill:#a57b59;"/><path d="M517.052,1687.09c0.848,-13.347 0.113,-43.158 27.809,-58.482c20.39,-11.282 57.147,-9.915 75.533,-1.883c124.319,54.309 132.119,127.027 168.355,183.798c43.346,67.911 117.941,4.181 78.986,3.045c-32.743,-0.956 -27.022,-68.338 15.425,-67.459c72.296,1.498 62.536,146.023 -20.072,153.864c-91.644,8.698 -133.757,-104.457 -138.977,-114.332c-42.527,-80.464 -81.983,-36.177 -82.204,-22.659c-0.568,34.77 36.438,9.546 46.889,33.639c25.272,58.257 -74.874,76.425 -94.587,-6.363c-16.033,-67.334 43.99,-98.262 38.276,-104.512c-19.946,-21.821 -94.477,-15.21 -56.234,21.02c34.552,32.734 -8.107,53.565 -31.282,38.752c-29.461,-18.831 -27.018,-52.369 -27.917,-58.426Z" style="fill:#a67b57;"/><path d="M1410.076,1683.227c1.051,0.91 0.636,6.319 9.545,8.264c15.554,3.396 31.121,24.537 32.807,30.246c14.623,49.514 10.227,51.311 -10.167,98.563c-5.909,5.553 -12.293,19.265 -43.4,23.254c-69.326,-11.325 -31.827,-69 -9.921,-65.666c41.302,6.288 17.521,-34.975 10.674,-38.198c-56.004,-26.366 -78.666,72.816 -113.64,113.703c-94.68,110.687 -219.006,-24.234 -148.561,-94.02c50.24,-49.77 96.467,39.6 48.935,51.694c-30.888,7.86 10.24,29.061 20.628,30.557c50.711,7.3 85.436,-87.882 88.284,-93.685c63.441,-129.242 179.916,-146.026 214.314,-119.431c57.547,44.494 -4.769,152.33 -38.805,116.109c-26.85,-28.574 34.74,-56 3.965,-73.744c-18.003,-10.38 -63.498,11.916 -64.657,12.355l-0.001,0Z" style="fill:#a87d59;"/><path d="M1848.015,1415.963c-12.775,39.298 -15.957,38.265 -35.18,53.087c-36.053,12.641 -46.905,18.602 -88.156,-16.728c-26.02,-22.285 -12.454,-106.719 -35.176,-51.181c-9.186,22.452 -20.433,100.491 23.356,69.797c37.218,-26.088 43.428,83.992 -31.368,60.895c-62.198,-19.207 -62.516,-180.231 35.863,-224.319c0.808,-0.362 127.93,-35.897 101.412,-108.082c-4.442,-12.092 -19.778,-19.552 -21.404,-0.138c-2.242,26.759 0.715,35.657 -24.361,36.599c-63.648,2.392 -24.352,-167.716 64.306,-99.387c39.768,30.65 57.879,156.136 -50.049,206.714c-35.531,16.651 -49.931,21.219 -30.228,57.359c9.41,17.26 35.239,15.37 37.676,5.39c0.582,-2.385 1.469,-46.477 28.931,-45.974c27.406,0.501 24.646,51.036 24.377,55.969l0.001,0Z" style="fill:#a47754;"/><path d="M411.109,1427.089c-0.073,6.653 6.721,47.443 -15.569,85.045c-37.175,62.711 -124.353,-4.796 -72.974,-40.093c16.842,-11.57 31.302,28.051 42.306,2.154c15.381,-36.195 -22.551,-131.191 -24.692,-63.445c-3.178,100.562 -155.411,85.109 -137.212,-21.107c5.73,-33.439 44.641,-34.395 46.51,-5.863c1.973,30.126 6.672,40.813 32.337,27.745c16.93,-8.621 21.734,-45.432 8.305,-52.499c-8.672,-4.564 -129.944,-39.05 -106.813,-165.371c21.37,-116.706 154.963,-64.405 119.985,22.781c-11.314,28.203 -51.982,37.923 -50.636,-17.056c1.121,-45.788 -54.912,29.541 -0.16,73.929c52.947,42.925 131.22,23.273 158.612,153.779l0.001,0.001Z" style="fill:#a47754;"/><path d="M1778.557,643.548c-33.588,13.317 -30.658,47.663 -14.901,56.411c15.717,8.726 121.492,48.46 103.421,163.368c-15.577,99.053 -133.049,99.582 -122.013,-4.758c4.539,-42.913 53.524,-49.015 52.838,-5.727c-0.677,42.7 39.979,-0.826 18.82,-42.347c-35.499,-69.66 -181.192,-39.883 -172.716,-212.176c5.634,-114.523 111.223,-82.883 100.511,-26.95c-6.204,32.391 -34.309,11.976 -36.827,10.146c-39.435,-28.645 -18.342,108.812 -1.148,91.887c9.128,-8.985 -11.963,-46.226 41.512,-85.273c59.911,-43.746 134.131,62.389 89.981,106.661c-14.295,14.334 -39.319,-1.265 -39.513,-20.76c-0.226,-22.716 0.865,-28.82 -19.964,-30.481l-0.001,-0.001Z" style="fill:#a47754;"/><path d="M231.707,604.847c3.397,-1.559 31.666,-14.53 44.656,-12.64c68.338,9.941 59.262,86.793 70.506,86.436c9.088,-0.29 37.828,-115.585 -11.196,-82.283c-23.536,15.988 -31.425,-16.109 -29.264,-25.343c15.901,-67.96 91.872,-42.787 99.01,22.119c15.601,141.863 -88.038,166.968 -127.778,186.473c-59.012,28.965 -61.486,73.933 -41.026,93.93c18.13,17.719 9.976,-17.147 13.749,-26.547c21.363,-53.225 79.292,16.688 44.744,69.76c-50.225,77.155 -142.021,-25.504 -109.644,-112.659c24.847,-66.885 83.384,-83.924 100.652,-92.9c16.809,-8.738 9.677,-54.92 -14.591,-59.819c-36.331,-7.334 -6.289,40.33 -36.683,58.574c-35.784,21.478 -37.18,-46.515 -37.288,-51.743c8.471,-32.83 8.613,-33.847 34.153,-53.356Z" style="fill:#a77a57;"/><path d="M1220.331,722.544c0.592,-2.959 5.852,-29.256 15.966,-33.733c43.626,-19.314 54.24,40.655 72.581,76.65c11.529,22.628 20.149,-10.218 26.689,-19.784c78.464,-114.779 93.294,24.343 75.306,80.685c-29.805,93.355 -86.448,162.951 -96.43,175.216c-7.067,8.683 -14.511,-4.887 -24.267,-20.683c-75.777,-122.686 -70.784,-236.857 -69.844,-258.351l-0.001,-0.001Z" style="fill:#e08d94;"/><path d="M1331.913,1382.947c-70.393,125.871 -92.651,106.903 -98.631,97.36c-11.471,-18.308 -57.356,-162.945 -47.251,-226.683c10.789,-68.055 47.471,-88.959 74.65,-26.135c10.344,23.911 8.619,33.881 17.014,26.4c0.106,-0.094 12.126,-24.911 35.605,-31.302c4.794,-1.305 28.174,-4.262 38.473,36.921c14.868,59.454 -19.298,121.997 -19.86,123.44l0,-0.001Z" style="fill:#a97b6f;"/><path d="M921.617,727.747c-14.442,61.506 -27.443,113.87 -52.669,96.086c-164.643,-116.078 -97.352,-311.12 -32.678,-224.072c17.018,22.905 15.126,-50.802 56.818,-62.038c12.754,-3.437 57.992,26.72 34.345,157.723c-0.466,2.584 -0.431,2.393 -5.816,32.302l0,-0.001Z" style="fill:#a77f6e;"/><path d="M1594.314,1058.656c-0.186,-5.743 -2.169,-66.915 11.713,-70.732c27.119,-7.456 31.93,125.831 -13.922,239.205c-5.432,13.431 -9.443,10.794 -13.473,25.111c-17.194,61.089 -23.768,57.455 -57.74,110.203c-15.386,23.891 -19.016,19.851 -36.903,42.285c-49.611,62.22 -71.175,62.874 -94.459,88.193c-32.084,34.888 -68.573,39.659 -81.18,48.5c-44.291,31.06 -66.129,-11.751 -39.927,-26.186c57.52,-31.686 55.242,-35.661 60.251,-38.361c49.268,-26.553 149.246,-123.708 168.894,-154.61c71.828,-112.966 65.776,-116.933 95.767,-236.522l0.412,-5.418l0.216,-5.418l0.932,-5.418l-0.684,-5.418l0.103,-5.418l0,0.002Z" style="fill:#f6f4e0;"/><path d="M966.884,1529.327c-7.195,24.116 -11.777,66.907 -41.567,41.617c-107.342,-91.124 -93.38,-246.737 -23.23,-200.95c2.611,1.705 13.467,17.246 17.455,3.422c16.084,-55.751 62.258,-64.419 70.132,10.25c1.212,11.492 4.011,35.434 -22.79,145.66Z" style="fill:#a97c6f;"/><path d="M1517.702,982.152c16.082,46.396 18.346,45.953 56.956,73.057c39.662,27.841 -36.38,26.224 -51.004,89.679c-15.062,65.353 -12.768,105.339 -27.324,95.615c-28.528,-19.059 18.805,-98.764 -68.318,-152.217c-46.926,-28.792 22.887,-24.523 43.705,-77.477c18.028,-45.856 14.183,-112.097 31.922,-101.518c4.855,2.895 4.172,4.171 14.063,72.862Z" style="fill:#b79a76;"/><path d="M1204.301,1269.614c0.264,-2.683 2.769,-55.526 22.544,-47.77c15.878,6.227 33.032,64.024 34.829,70.076c7.851,26.45 24.149,-15.483 25.054,-17.126c42.045,-76.262 86.756,31.815 -0.135,140.282c-19.49,24.33 -41.387,55.857 -50.906,23.288c-43.067,-147.36 -31.406,-158.842 -31.387,-168.75l0.001,0Z" style="fill:#e4a4a0;"/><path d="M901.786,738.693c-11.958,42.289 -13.816,67.262 -47.575,41.79c-61.216,-46.19 -104.387,-184.186 -41.437,-167.661c22.398,5.879 38.113,66.605 48.706,17.555c0.526,-2.437 24.14,-118.953 52.448,-32.319c14.292,43.741 -7.125,118.496 -12.142,140.635l0,-0.001Z" style="fill:#e5b2ab;"/><path d="M1056.483,872.95c12.559,95.703 26.045,129.815 90.434,168.427c18.283,10.964 -17.026,10.321 -39.102,41.231c-51.22,71.715 -35.529,181.694 -56.038,116.162c-9.123,-29.149 -21.472,-104.239 -66.336,-136.862c-3.057,-2.223 -14.415,-7.121 -14.866,-9.685c-0.176,-1 1.093,-0.323 6.351,-10.739c16.339,7.957 15.813,10.234 22.693,8.033c36.723,-11.745 44.333,-82.479 46.764,-88.836c3.19,-8.342 7.035,-9.499 -3.264,-27.208c2.809,-12.812 3.48,-12.463 4.842,-32.463c1.059,-15.534 -2.76,-17.448 8.521,-28.062l0.001,0.001Z" style="fill:#e9c07e;"/><path d="M1100.233,132.62c5.604,9.245 31.922,52.662 -45.969,128.693c-49.103,47.931 -108.397,-69.554 -108.839,-91.228c-1.08,-52.963 38.953,-59.675 62.616,-40.712c14.183,11.365 15.503,16.147 30.326,6.017c38.654,-26.415 47.549,-16.429 61.865,-2.77l0.001,-0Z" style="fill:#a17757;"/><path d="M1799.312,999.719c69.335,-98.796 156.281,-49.261 108.069,13.753c-10.585,13.835 -9.795,16.632 1.442,29.636c43.517,50.359 -22.811,116.011 -93.289,40.761c-33.29,-35.543 -42.038,-42.254 -16.222,-84.151Z" style="fill:#a47957;"/><path d="M170.218,947.944c43.816,3.931 117.385,70.099 89.293,109.37c-72.73,101.671 -174.071,66.774 -114.843,-15.106c12.759,-17.638 -42.036,-53.797 0.696,-85.742c11.14,-8.327 11.529,-6.759 24.854,-8.522Z" style="fill:#a57958;"/><path d="M1099.764,1919.264c-3.591,3.239 -29.225,26.357 -58.665,-1.197c-20.744,-19.414 -21.688,0.632 -46.716,12.721c-5.504,1.2 -56.768,12.376 -42.292,-60.034c3.101,-15.513 52.466,-119.62 101.864,-73.898c80.28,74.304 46.618,120.318 45.809,122.408l0,0.001Z" style="fill:#a17653;"/><path d="M1983.76,966.648l6.779,-1.988c7.659,-3.004 11.658,-7.779 11.764,0.904c0.629,51.599 14.952,120.928 -22.084,282.649c-72.801,317.893 -281.451,480.001 -318.482,508.772c-13.49,10.481 -10.823,13.279 -24.627,22.954c-11.495,8.057 -13.299,-3.802 -15.875,-6.459c21.189,-17.547 400.402,-294.701 362.525,-806.833Z" style="fill:#f3d7a7;"/><path d="M719.189,1269.587c0.534,-3.205 4.032,-38.824 12.046,-39.116c10.588,-0.387 14.226,44.86 14.264,45.069c18.069,98 59.144,76.866 64.634,102.835c5.095,24.102 -49.019,-1.135 -66.099,119.541c-10.34,73.061 -25.348,-33.302 -32.644,-54.71c-15.145,-44.435 -77.907,-54.813 -51.362,-71.284c44.403,-27.55 47.179,-30.14 59.161,-102.336l0,0.001Z" style="fill:#b89972;"/><path d="M1508.083,381.098c-0.249,-40.045 -27.648,-46.41 -12.359,-51.405c35.293,-11.53 52.643,111.314 -26.091,95.654c-144.931,-28.827 -156.957,-189.013 -216.956,-223.356c-70.243,-40.207 -115.475,64.26 -76.174,62.206c1.649,-0.086 42.684,-2.23 15.354,14.776c-63.679,39.624 -78.441,-79.086 -0.254,-103.333c86.567,-26.845 121.173,81.433 128.229,96.437c43.163,91.791 118.346,65.058 117.728,17.227c-0.62,-48.029 -49.596,-36.635 -51.325,-39.761c-11.383,-20.581 52.521,-36.601 64.702,28.698c15.789,84.634 -70.905,73.778 -72.234,76.177c-6.056,10.927 105.594,91.36 129.38,26.682l-0,-0.002Z" style="fill:#ddb57d;"/><path d="M883.264,286.921c-15.141,-3.48 -19.266,1.232 -23.911,-14.187c-3.58,-11.884 3.026,-10.727 14.288,-7.707c33.749,9.052 24.349,-77.22 -46.417,-69.744c-80.777,8.534 -56.206,139.582 -196.851,218.805c-128.468,72.362 -115.621,-82.236 -71.241,-74.258c16.41,2.95 -21.611,27.962 -12.644,51.418c25.083,65.614 163.142,-38.536 119.152,-35.605c-108.949,7.261 -65.158,-118.773 -20.121,-115.372c1.52,0.114 51.086,19.346 -0.087,20.405c-41.908,0.867 -35.526,78.008 5.08,78.44c94.72,1.007 82.629,-118.577 152.565,-156.412c89.802,-48.583 162.283,92.532 80.187,104.219l-0,-0.002Z" style="fill:#e5c18e;"/><path d="M1102.012,557.752c17.699,-9.797 22.22,-27.666 39.798,-21.775c44.595,14.945 9.642,130.918 -37.889,173.708c-32.294,29.073 -67.025,-113.391 -58.732,-154.789c9.231,-46.081 32.907,-36.585 56.824,2.856l-0.001,0.001Z" style="fill:#ae8b67;"/><path d="M286.383,1210.25c-31.015,19.154 -11.504,-16.54 -21.221,-31.879c-29.467,-46.519 -112.875,72.93 11.171,129.584c13.978,6.384 120.973,31.443 119.738,140.813c-0.998,88.309 -76.473,75.063 -70.807,42.454c2.538,-14.609 29.949,35.358 50.438,-5.615c31.488,-62.971 -41.372,-161.066 -45.749,-124.171c-0.551,4.644 5.172,90.684 -53.354,99.501c-59.212,8.92 -74.666,-92.199 -45.522,-77.667c8.212,4.095 2.099,70.551 55.999,45.374c23.351,-10.907 43.545,-70.34 8.768,-86.493c-4.259,-1.979 -82.074,-29.039 -98.418,-94.341c-19.895,-79.489 58.444,-133.889 86.626,-89.312c15.227,24.086 4.06,48.048 2.332,51.755l-0.001,-0.001Z" style="fill:#dbae77;"/><path d="M1771.999,908.169c-2.718,-3.378 -24.325,-30.235 -8.485,-55.008c23.805,-37.231 19.713,22.027 21.27,26.38c21.011,58.758 109.438,-58.687 2.636,-122.421c-18.106,-10.805 -142.163,-36.154 -128.587,-158.696c10.362,-93.529 80.791,-56.04 69.183,-27.045c-4.385,10.952 -6.649,1.007 -14.965,-6.732c-7.237,-6.734 -26.688,-11.651 -35.87,11.938c-26.047,66.911 23.414,117.226 30.372,124.304c18.755,19.079 10.142,-31.769 22.752,-65.9c28.3,-76.595 125.211,-15.855 101.026,37.381c-0.751,1.652 -19.907,23.803 -16.699,-14.406c3.129,-37.279 -55.73,-57.157 -72.657,-0.362c-18.183,61.012 15.008,61.299 31.789,68.916c145.42,66.003 61.169,237.923 -1.764,181.648l-0.001,0.002Z" style="fill:#dbb076;"/><path d="M1702.726,1498.362c9.619,-8.631 22.419,-19.558 21.06,-6.354c-4.161,40.423 -67.861,22.786 -70.471,-38.004c-5.169,-120.403 102.286,-142.177 114.341,-147.408c7.031,-3.051 63.718,-27.651 68.961,-69.734c10.61,-85.17 -61.881,-85.955 -55.049,-42.309c6.105,38.999 -22.848,20.513 -25.279,5.314c-10.907,-68.192 77.836,-86.208 93.591,-6.043c21.443,109.107 -91.091,142.027 -101.66,147.352c-23.226,11.705 -13.682,78.216 15.372,88.917c48.16,17.739 49.585,-45.109 50.358,-46.045c24.133,-29.228 25.388,64.036 -25.436,72.086c-80.446,12.742 -65.53,-99.5 -71.7,-103.744c-32.963,-22.677 -88.624,153.734 -14.089,145.972l0.001,-0Z" style="fill:#ddb277;"/><path d="M679.561,1697.579c-59.983,-52.663 -113.936,-50.265 -125.389,-26.98c-17.898,36.392 32.822,55.093 15.905,60.7c-36.301,12.035 -64.642,-90.668 9.722,-91.75c116.656,-1.698 187.926,167.415 189.566,170.217c45.453,77.658 112.401,60.762 124.253,7.328c8.686,-39.159 -28.522,-19.258 -30.721,-32.517c-6.349,-38.283 81.304,-12.059 51.183,54.585c-6.097,13.49 -90.489,118.345 -174.611,-58.352c-47.915,-100.645 -113.07,-53.424 -112.944,-17.937c0.227,63.883 46.611,32.792 50.34,42.433c13.651,35.289 -70.227,32.879 -68.118,-42.527c1.819,-65.059 62.071,-50.133 70.814,-65.2Z" style="fill:#dcb47d;"/><path d="M1387.218,1679.317c-13.096,12.165 -13.417,11.735 -14.144,13.137c-0.881,1.7 -1.691,5.499 20.909,9.424c75.826,13.174 54.933,110.341 9.84,119.808c-34.853,7.317 -32.795,-28.067 -15.451,-24.322c54.369,11.737 48.449,-76.602 5.213,-80.526c-81.385,-7.386 -77.397,94.225 -131.673,137.38c-101.854,80.984 -169.95,-70.084 -100,-88.775c26.012,-6.951 35.689,31.129 9.705,23.913c-25.159,-6.987 -23.185,61.583 30.465,69.03c83.87,11.644 81.479,-114.024 176.85,-187.234c131.338,-100.819 172.704,34.578 115.414,56.594c-32.327,12.424 1.525,-25.417 3.986,-30.731c1.409,-3.043 14.363,-95.322 -111.114,-17.7l0,0.002Z" style="fill:#e3bd84;"/><path d="M213.441,663.231c0.664,-5.52 5.507,-45.747 43.084,-52.042c72.045,-12.068 72.264,85.695 73.02,96.394c1.444,20.455 46.867,-15.7 48.321,-82.319c1.877,-86.032 -52.669,-43.292 -55.047,-49.29c-9.808,-24.741 66.516,-52.218 69.136,38.486c4.21,145.755 -129.337,115.25 -173.908,190.954c-39.294,66.742 50.336,133.045 48.351,69.046c-0.17,-5.483 -1.18,-10.93 -1.111,-16.416c0.16,-12.74 22.304,-16.839 24.02,11.215c5.072,82.928 -87.572,64.899 -94.498,-16.378c-7.432,-87.212 81.974,-115.429 95.364,-121.834c45.649,-21.838 13.704,-94.301 -13.928,-98.127c-49.978,-6.922 -43.497,50.178 -44.183,52.569c-0.656,2.286 -16.382,16.607 -18.618,-22.262l-0.003,0.002Z" style="fill:#deb47d;"/><path d="M943.339,1535.144c-1.765,3.67 -2.551,20.417 -24.818,0.284c-0.54,-0.489 -39.887,-57.906 -41.391,-64.807c-11.971,-54.916 -18.814,-72.778 6.439,-79.595c21.924,-5.919 34.226,50.575 42.346,20.546c0.712,-2.632 7.342,-27.151 8.597,-32.998c3.318,-15.459 25.697,-37.297 31.199,-6.232c5.218,29.462 11.829,43.824 -22.372,162.801Z" style="fill:#ca8381;"/><path d="M481.657,435.974c2.331,70.24 -5.556,89.823 -68.341,78.698c-24.651,-4.368 -81.064,-52.797 -5.439,-78.882c10.942,-3.774 15.834,-59.473 51.224,-45.197c13.792,5.564 21.675,41.377 22.556,45.381Z" style="fill:#a27651;"/><path d="M379.839,1600.239c1.099,-7.924 7.217,-52.049 83.746,-44.48c47.899,4.738 23.662,131.814 -10.172,129.028c-23.02,-1.896 -29.224,-38.826 -30.062,-41.244c-5.738,-16.55 -33.809,5.051 -43.511,-43.304l-0.001,0.001Z" style="fill:#a17550;"/><path d="M1558.59,1605.804c0.894,-19.49 0.576,-49.671 27.553,-53.168c84.474,-10.952 104.181,60.488 55.962,76.329c-16.731,5.496 -15.531,8.091 -20.772,25.562c-8.93,29.768 -33.017,28.386 -44.9,15.682c-11.423,-12.213 -17.187,-59.076 -17.842,-64.404l-0.001,-0.001Z" style="fill:#a4774f;"/><path d="M1567.791,425.07c0.55,-3.492 5.142,-32.621 14.809,-41.316c27.674,-24.891 49.728,35.486 53.42,36.893c78.745,29.999 17.843,77.521 -5.069,83.22c-76.773,19.095 -63.555,-48.231 -63.16,-78.797Z" style="fill:#9e724e;"/><path d="M1009.512,154.036c38.093,33.478 39.869,-24.492 70.231,-14.233c39.226,13.256 -31.21,124.374 -53.938,115.099c-38.532,-15.722 -100.955,-129.039 -35.979,-113.809c9.945,2.331 17.836,11.367 19.685,12.941l0.001,0.001Z" style="fill:#cba76a;"/><path d="M164.999,1104.188c-37.471,-9.146 -15.128,-42.475 -3.293,-54.445c30.189,-30.535 -20.484,-30.676 -15.931,-61.446c7.423,-50.164 81.15,3.285 100.16,37.938c14.726,26.844 -47.344,73.548 -80.935,77.953l-0.001,0Z" style="fill:#caa462;"/><path d="M814.154,983.251c7.251,-35.276 6.704,-35.667 8.869,-37.743c0.683,-0.656 7.013,-6.724 10.865,3.92c13.542,37.424 5.08,43.062 38.262,77.556c16.225,16.867 7.988,21.096 -9.12,37.197c-29.886,28.126 -24.969,81.532 -31.269,85.507c-9.463,5.972 -6.714,-3.909 -18.129,-48.145c-10.554,-40.9 -53.108,-42.595 -30.428,-68.69c19.399,-22.319 19.745,-21.837 30.949,-49.602l0.001,0.001Z" style="fill:#cfb177;"/><path d="M1893.823,1054.1c19.212,26.554 16.725,40.97 -14.515,43.398c-12.014,0.934 -107.948,-37.889 -63.722,-90.739c62.779,-75.023 102.485,-37.682 82.378,-9.125c-4.55,6.462 -22.185,22.82 -23.787,28.495c-1.972,6.985 17.709,26.091 19.646,27.972Z" style="fill:#c9a260;"/><path d="M1065.198,1833.318c55.769,73.573 10.392,78.143 4.86,76.544c-30.94,-8.942 -31.298,-42.372 -55.015,-16.598c-42.832,46.547 -58.509,0.333 -41.015,-32.944c9.394,-17.868 43.392,-69.622 64.987,-52.631c18.975,14.93 22.562,21.496 26.182,25.628l0.001,0.001Z" style="fill:#cba465;"/><path d="M1091.166,694.791c-37.25,-68.01 -43.73,-192.496 -1.284,-123.208c20.811,33.971 26.905,-18.536 45.233,-9.698c38.082,18.364 -24.413,122.156 -43.949,132.906Z" style="fill:#c8a46c;"/><path d="M1497.066,1149.064c-4.88,-22.776 -0.887,-24.82 -25.62,-59.42c-23.322,-32.626 13.09,-31.614 20.795,-84.503c0.227,-1.56 4.221,-28.978 8.292,-17.631c0.95,2.648 -0.287,27.589 16.471,47.907c26.249,31.825 30.932,31.846 26.59,38.006c-13.885,19.7 -19.227,14.068 -31.616,35.549c-11.211,19.439 3.339,28.06 -14.912,40.092Z" style="fill:#d0b180;"/><path d="M732.302,1442.413c-12.604,-30.991 -10.897,-32.564 -35.142,-54.589c-10.345,-9.397 -1.883,-10.934 6.827,-22.005c22.017,-27.984 22.923,-54.81 24.44,-55.565c12.88,-6.404 7.754,4.927 12.65,19.491c1.084,3.225 7.366,21.911 22.948,35.094c23.299,19.71 -2.031,22.07 -15.971,47.092c-8.888,15.954 -7.456,23.782 -8.207,25.051c-1.623,2.741 -5.923,2.69 -7.546,5.431l0.001,-0.001Z" style="fill:#dab784;"/><path d="M431.012,441.097c1.543,-16.441 0.467,-16.322 3.018,-21.425c5.027,-10.057 32.303,-22.09 31.578,43.292c-0.46,41.469 -14.762,39.223 -52.4,30.471c-39.7,-9.231 -21.109,-39.236 -0.212,-38.02c13.414,0.781 15.719,-0.097 18.015,-14.319l0.001,0Z" style="fill:#caa05e;"/><path d="M412.827,1613.706c-8.894,-1.571 -9.746,0.37 -12.837,-4.412c-20.478,-31.676 60.411,-48.459 69.971,-25.979c15.503,36.455 -24.783,135.913 -30.214,43.854c-1,-16.946 -23.013,-13.108 -26.92,-13.464Z" style="fill:#caa060;"/><path d="M1579.07,1633.392c-3.928,-33.587 -8.665,-33.817 -1.936,-54.182c5.493,-16.626 47.38,-6.78 53.808,-4.187c12.96,5.226 41.117,35.255 -9.615,34.774c-17.712,-0.168 -11.582,16.955 -12.915,34.052c-0.662,8.489 -16.507,33.113 -29.342,-10.456l0,-0.001Z" style="fill:#cca161;"/><path d="M497.433,950.405c2.437,-25.61 0.659,-25.494 5.508,-38.312c1.956,-5.17 10.449,-15.282 15.951,-16.877c51.175,-14.834 33.961,116.761 1.478,86.21c-20.04,-18.848 -20.922,-17.919 -21.688,-20.244c-1.124,-3.414 -0.126,-7.363 -1.249,-10.777l0,-0.001Z" style="fill:#f0b1b3;"/><path d="M1584.072,457.252c0.441,-5.058 5.355,-61.45 16.942,-60.848c19.197,0.998 2.728,46.393 25.553,47.195c47.265,1.659 25.035,33.829 -0.1,40.825c-30.866,8.592 -39.606,6.488 -42.395,-27.172Z" style="fill:#c9a05a;"/><path d="M1043.119,933.476c10.3,17.708 6.454,18.867 3.264,27.208c-2.431,6.357 -10.04,77.091 -46.764,88.836c-6.88,2.2 -6.353,-0.077 -22.693,-8.033c42.291,-47.639 46.396,-45.661 66.192,-108.01l0.001,-0.001Z" style="fill:#f8e7b6;"/><path d="M1229.805,749.872c3.329,-69.005 45.336,-38.901 42.574,-16.254c-5.425,44.465 -38.438,60.781 -42.574,16.254Z" style="fill:#f0b5b6;"/><path d="M1183.374,1562.711c0.794,-4.532 -4.086,-19.56 18.29,-22.447c8.674,-1.119 10.126,4.901 10.361,5.873c6.241,25.874 -27.696,49.637 -28.651,16.574Z" style="fill:#f7f5dc;"/><path d="M1661.876,4.652c-2.65,0.165 -2.147,6.326 -4.796,6.491c-4.017,0.25 -5.017,-10.941 -1.838,-11.139c2.677,-0.167 3.957,4.815 6.634,4.648Z" style="fill:#9e7454;"/><path d="M732.302,1442.413c1.979,4.52 4.102,2.069 5.948,6.286c0.15,0.342 1.264,2.886 -1.209,4.54c-0.758,0.507 -2.684,1.146 -4.74,-10.826l0.001,0Z" style="fill:#be9c70;"/></g></svg>