<?xml version="1.0" encoding="UTF-8" standalone="no"?><!DOCTYPE svg PUBLIC "-//W3C//DTD SVG 1.1//EN" "http://www.w3.org/Graphics/SVG/1.1/DTD/svg11.dtd"><svg width="100%" height="100%" viewBox="0 0 2048 2048" version="1.1" xmlns="http://www.w3.org/2000/svg" xmlns:xlink="http://www.w3.org/1999/xlink" xml:space="preserve" xmlns:serif="http://www.serif.com/" style="fill-rule:evenodd;clip-rule:evenodd;stroke-linejoin:round;stroke-miterlimit:2;"><g id="Background"><path d="M770.144,664.71c2.484,-13.927 7.771,-37.751 1.479,-47.683c-21.601,-34.096 -12.21,-36.796 -11.879,-68.603c0.397,-38.101 20.22,-37.721 21.848,-49.682c1.246,-9.161 8.666,-63.703 45.495,-106.492c34.633,-40.237 63.302,-50.877 67.013,-54.846c3.223,-3.447 -6.028,-27.947 -9.973,-29.964c-28.079,-14.356 -3.367,-40.573 12.033,-30.928c11.681,7.316 8.027,17.225 7.977,20.66c-0.08,5.398 23.672,20.124 26.383,19.596c2.016,-0.393 1.658,-1.119 7.563,-24.178c1.919,-7.493 -6.422,-9.171 -9.099,-17.145c-9.61,-28.632 45.329,-31.611 32.367,2.662c-0.676,1.787 -1.873,4.953 14.826,18.838c5.827,4.845 8.683,-4.487 11.225,-9.562c20.416,-40.775 24.084,-41.184 20.242,-47.323c-20.493,-32.746 20.694,-43.114 32.289,-27.364c11.551,15.69 -1.505,27.487 -1.993,29.795c-1.382,6.532 24.366,50.699 26.832,54.928c2.931,5.028 23.038,-13.826 21.22,-18.864c-10.363,-28.709 19.574,-26.782 24.539,-23.619c20.601,13.124 -2.569,30.935 -1.214,37.291c3.653,17.136 5.591,28.143 12.93,22.973c19.348,-13.629 20.848,-13.895 20.313,-22.805c-1.19,-19.788 24.452,-22.93 31.075,-9.586c9.073,18.278 -13.188,24.77 -14.341,28.7c-5.953,20.287 -8.713,24.055 -2.243,27.241c6.37,3.137 40.931,20.158 68.092,56.473c38.961,52.091 40.08,89.22 42.937,105.617c1.022,5.867 18.221,15.523 20.958,40.455c3.648,33.232 6.473,42.758 -3.406,61.168c-7.896,14.714 -11.843,14.767 -6.799,47.948c14.102,92.762 103.232,108.188 85.492,199.202c-7.973,40.907 -58.133,71.732 -36.112,86.489c11.869,7.954 20.175,-4.681 21.235,-5.606c9.784,-8.537 14.878,20.52 9.817,37.602c-16.041,54.147 -71.728,48.09 -72.756,49.629c-1.787,2.675 14.492,18.464 15.96,19.887c38.886,37.718 38.3,38.052 76.131,76.723c8.083,8.262 23.055,6.409 54.824,16.957c26.331,8.742 52.696,31.042 51.143,45.311c-3.14,28.84 -59.101,7.825 -63.258,7.019c-6.746,-1.308 1.184,8.297 0.588,14.302c-2.446,24.65 -43.085,11.508 -71.666,-26.959c-10.779,-14.507 -31.782,-16.933 -89.314,-59.602c-55.626,-41.255 -46.879,-64.107 -57.698,-54.564c-29.335,25.874 -67.041,5.535 -53.164,19.456c1.907,1.913 177.266,51.92 284.443,270.415c7.977,16.263 21.333,9.5 34.032,31.86c11.767,20.719 -4.854,28.799 14.738,42.948c17.558,12.68 21.451,45.383 14.444,55.694c-7.44,10.947 -1.28,11.722 13.572,42.641c68.304,142.195 83.381,142.183 70.848,166.093c-26.56,50.669 -100.316,63.684 -110.469,65.476c-22.751,4.015 -21.4,7.533 -32.289,21.419c-31.404,40.051 -161.376,51.439 -181.003,35.729c-28.877,-23.114 -66.35,70.897 -205.205,17.139c-70.407,-27.258 -75.068,1.646 -149.297,10.656c-51.792,6.287 -112.059,-47.387 -126.408,-30.269c-7.665,9.144 -102.155,14.271 -164.293,-21.353c-27.469,-15.748 -17.507,-31.236 -48.711,-37.254c-79.486,-15.331 -104.715,-68.019 -102.551,-80.159c1.015,-5.691 55.816,-107.793 91.064,-179.974c3.066,-6.278 -6.207,-10.724 -6.188,-21.574c0.063,-36.31 27.311,-50.013 27.543,-54.517c1.828,-35.41 2.171,-40.814 33.026,-57.538c13.343,-7.232 77.294,-194.281 286.542,-274.948c8.235,-3.175 6.102,-8.759 2.713,-9.04c-27.198,-2.255 -27.34,-2.658 -50.718,-16.173c-5.68,-3.284 -8.443,9.015 -27.072,22.46c-55.28,39.897 -158.89,-61.654 -165.593,-56.18c-2.934,2.396 -0.251,2.94 12.154,45.364c0.683,2.335 18.364,36.58 -4.461,43.352c-24.375,7.232 -26.177,-28.622 -45.697,-88.499c-3.859,-11.837 -6.024,-10.768 -17.256,-13.603c-29.988,-7.571 -32.517,-41.159 -32.854,-45.621c-3.292,-43.705 9.747,-42.923 13.479,-45.364c7.482,-4.892 2.018,-6.927 -4.067,-28.21c-33.971,-118.815 -33.643,-119.114 -34.807,-120.153c-3.181,-2.838 -3.3,0.098 -12.181,8.028c-20.803,18.574 -19.742,-33.094 -20.309,-34.875c-4.266,-13.42 -66.275,-18.942 -12.348,-41.76c19.401,-8.209 14.308,-13.264 17.316,-33.797c4.833,-32.984 33.227,6.776 37.872,11.646c4.609,4.832 16.439,-0.142 24.13,-1.196c40.476,-5.547 15.15,23.91 7.601,37.107c-3.737,6.533 14.454,27.517 14.704,37.647c0.469,19.003 -31.779,-4.288 -26.457,13.984c19.866,68.216 22.409,67.231 43.269,135.103c4.191,13.635 21.09,6.527 42.306,26.572c17.616,16.644 7.638,26.588 31.729,37.209c18.935,8.348 0.129,-10.242 5.488,-30.119c5.061,-18.77 20.537,15.348 31.879,-0.792c15.635,-22.249 -33.656,-43.745 -38.854,-87.259c-9.654,-80.811 72.069,-111.822 84.288,-179.861Z" style="fill:#7c443a;"/><path d="M1440.729,1750.266c-20.898,26.636 -49.69,53.183 -156.602,51.106c-23.471,-0.456 -20.309,-8.237 -27.139,-22.494c-114.682,-239.399 -138.799,-347.716 -194.499,-505.12c-1.342,-3.793 -7.858,-18.233 -4.205,-20.689c3.885,-2.612 1.639,10.097 19.652,36.664c60.62,89.403 137.605,132.37 140.657,134.174c17.033,10.071 122.629,72.51 238.793,67.172c11.691,-0.537 17.004,-2.121 19.176,-2.409c8.924,-1.18 6.096,3.664 10.421,12.209c-1.159,0.749 -0.001,2.568 -5.391,3.486c-10.001,1.702 -8.858,5.98 -31.464,8.029c-50.572,4.583 -50.411,1.426 -72.316,0.024c-5.661,-0.362 -2.095,3.896 27.348,64.422c4.949,10.175 6.481,9.159 69.622,123.235c13.74,24.823 18.304,23.703 16.391,33.772c-39.634,8.254 -42.542,8.433 -50.444,16.42Z" style="fill:#eca4ae;"/><path d="M1193.76,636.207c-3,22.747 -1.817,22.73 -8.004,45.036c-34.476,124.3 -219.547,134.535 -297.941,51.306c-26.677,-28.323 -36.725,-94.678 -35.283,-117.982c1.605,-3.275 1.525,-3.3 1.734,-3.537c14.194,-16.105 14.747,-15.587 26.069,-33.815c7.853,-12.643 70.223,-6.17 138.774,-38.761c68.09,-32.373 79.992,-74.369 80.511,-74.342c11.497,0.609 -9.397,46.794 69.815,111.689c14.586,11.95 7.934,16.393 19.158,31.27c9.461,12.54 6.718,13.708 5.166,29.136Z" style="fill:#f8d3bd;"/><path d="M1019.38,1246.813l2.004,1.008c2.612,22.638 2.96,22.362 6.803,44.993c3.218,18.952 3.125,18.831 5.314,37.834c22.368,194.1 20.976,194.233 23.312,211.061c12.895,92.89 8.751,101.236 15.428,96.947c5.539,-3.558 -12.171,-109.566 -21.769,-255.893c-1.499,-22.846 -4.515,-22.319 -6.836,-44.974c2.417,1.062 4.324,-0.419 6.601,7.339c15.722,53.592 35.241,97.926 91.786,279.414c13.093,42.023 59.704,165.779 65.106,180.12l2.726,2.976c-7.701,3.846 -56.324,28.126 -106.083,19.61c-27.84,-4.765 -49.979,-17.727 -77.037,-23.314c-29.606,-6.113 -57.646,3.388 -69.804,6.399c-0.611,-1.278 -2.085,-2.023 -2.696,-3.301c-0.736,-1.541 8.023,-47.523 10.041,-101.735c6.196,-35.943 6.111,-58.335 32.801,-324.973c8.041,-80.329 14.244,-94.787 19.645,-130.409c0.615,-4.057 1.953,-2.766 2.659,-3.102Z" style="fill:#f7e6c4;"/><path d="M962.009,1309.418c-3.835,11.172 -3.85,11.088 -4.141,12.066c-14.356,48.2 -102.096,294.657 -171.082,436.208c-16.875,34.626 -16.131,40.91 -27.401,41.228c-127.184,3.584 -151.475,-33.754 -164.38,-52.991c2.931,-3.804 2.506,-4.058 107.154,-241.906c26.303,0.212 105.939,-39.119 138.959,-64.48c3.63,-2.788 29.001,-17.305 71.635,-59.77c2.705,-2.695 30.355,-32.818 36.347,-49.759c0.35,-0.99 -0.233,-0.997 0.216,-1.91c1.102,-2.238 0.515,-2.236 1.062,-4.607c0.341,-11.17 0.285,-14.313 11.631,-14.079Z" style="fill:#f1adb6;"/><path d="M1122.281,1102.69c13.871,-6.702 18.919,-9.444 20.533,-10.321c17.6,-9.56 168.364,65.348 257.781,218.803c24.583,42.188 19.425,47.204 39.715,57.791c24.125,12.588 21.321,33.394 20.494,54.011c-0.706,3.401 -0.732,3.179 -2.955,5.913c-103.157,16.469 -323.555,-87.615 -403.057,-259.177c-8.117,-17.517 -16.752,-21.994 -0.131,-32.212c11.295,-6.944 17.161,-13.291 23.378,-7.039c11.515,11.58 11.363,11.388 21.533,24.306l-4.175,2.812l-0.968,2.37c0.301,0.828 -1.479,1.542 -1.178,2.37c0.304,0.837 5.552,3.967 8.937,8.728c4.477,6.297 4.122,6.248 8.818,12.44c2.904,3.829 2.517,3.826 6.211,7.275c4.598,4.293 5.24,-0.343 6.137,-0.402c2.958,5.613 1.53,6.373 6.239,10.833c9.149,4.643 17.645,8.395 16.257,-7.997c-1.932,-22.809 -32.261,-45.541 -22.926,-56.883c2.352,-2.857 3.184,-0.513 31.981,15.355c32.389,17.847 83.519,71.164 73.152,46.42c-2.742,-6.545 -27.685,-44.707 -60.378,-67.991c-18.146,-12.923 -33.001,-20.899 -45.397,-27.407Z" style="fill:#eea9b2;"/><path d="M891.834,1103.24c-3.105,4.15 -3.244,3.867 -7.099,7.331c-3.972,3.568 -1.205,5.408 -5.397,8.713c-26.015,20.507 -23.483,22.94 -47.173,46.068c-2.763,2.697 -27.486,33.919 -24.661,37.267c4.307,5.105 15.959,-6.614 19.379,-9.224c23.986,-16.569 21.264,-19.74 45.902,-35.439c4.35,-2.772 48.416,-30.85 59.452,-25.314c5.421,2.719 -35.708,60.01 -39.06,84.155c-3.492,25.149 54.203,-40.217 65.067,-66.33l1.941,-2.37l0.049,-2.37l-1.306,-2.513c11.154,-13.816 12.783,-17.778 21.284,-12.98c19.18,10.826 16.807,14.276 13.965,19.696c-32.579,62.114 -39.184,77.127 -98.92,139.068l-3.499,-3.982l-2.407,1.582l-2.407,2.348l-2.646,1.368c-7.335,6.957 -81.947,72.645 -194.947,98.973c-86.788,20.221 -86.093,-5.032 -82.931,-10.84c2.539,-4.662 3.755,-2.193 8.525,0.438c3.838,2.117 13.241,1.881 14.402,1.852l2.623,-3.272c62.828,-1.344 122.596,-40.009 137.888,-53.459c12.424,-15.116 72.568,-51.316 21.05,-25.999c-35.388,17.39 -34.952,17.897 -72.262,30.814c-68.081,23.572 -71.248,4.843 -72.539,3.596c50.744,-73.344 103.563,-124.394 113.695,-134.187c3.527,-3.409 24.179,-32.557 120.715,-94.027c0.359,-0.229 2.888,-1.839 4.741,-2.429c4.776,-1.523 4.371,0.976 6.574,1.468Z" style="fill:#f1aeb7;"/><path d="M1006.805,1207.194c0.353,0.667 -0.932,1.517 -0.579,2.184c0.648,1.224 2.261,1.669 3.174,2.716c0.288,0.33 2.427,2.783 2.783,4.695c1.684,9.052 -8.475,13.485 -7.284,23.748c1.595,13.748 -2.54,12.638 -3.881,14.22c-0.46,0.543 0.035,1.417 0.141,2.116c0.553,3.641 -1.175,9.041 -0.122,11.725c1.085,2.765 0.838,2.721 -0.587,5.305c-3.413,6.188 -3.9,23.114 -3.844,23.225c0.595,1.183 2.874,0.823 3.469,2.007l1.342,0.659c-2.564,4.653 -2.492,10.701 -4.988,21.4c-9.047,4.423 -5.437,7.09 -10.905,23.613c-1.858,5.616 -7.593,27.8 -8.22,30.226c3.694,4.433 4.454,4.524 3.004,10.045c-4.179,15.912 -3.081,56.492 -15.205,123.447c-4.773,26.357 -14.176,106.739 -15.264,116.038c-3.905,33.383 -27.901,159.08 -26.63,182.449c0.057,1.043 0.598,10.986 0.461,13.053c-47.375,14.74 -75.891,-12.669 -133.069,-29.428c-11.693,-3.427 25.912,-47.636 108.845,-267.853c67.849,-180.165 74.66,-217.609 107.359,-315.588Z" style="fill:#f1d8b2;"/><path d="M902.135,361.156c4.338,10.323 8.501,12.706 -0.915,18.68c-41.941,26.609 -61.375,68.275 -57.318,71.019c6.014,4.067 72.14,-73.882 189.881,-66.739c51.44,3.121 60.116,8.149 63.14,9.134c-4.006,12.144 -27.696,83.963 -103.614,122.734c-16.583,8.469 -70.455,17.518 -77.386,18.952c-35.511,7.348 -40.783,2.146 -74.98,15.118c-17.751,6.733 -53.898,8.828 -53.308,3.725c0.821,-7.092 0.145,-7.558 5.398,-12.248c37.723,3.069 56.199,-50.875 82.315,-53.954c6.908,-0.814 6.741,-5.745 2.092,-6.016c-25.055,-1.459 -64.57,62.313 -84.073,47.406c-3.351,-2.561 -0.341,-23.573 -0.05,-25.601l2.159,0.337c5.874,-4.541 4.428,-5.413 6.812,-12.356c4.285,-12.476 16.75,-40.405 20.5,-46.703c33.275,-55.887 71.411,-78.735 79.348,-83.489Z" style="fill:#a9765c;"/><path d="M1006.805,1207.194c11.687,-31.049 12.67,-43.64 15.505,-33.464c1.692,6.075 66.663,247.677 164,481.243c18.042,43.294 61.228,133.5 60.768,135.295c-0.805,3.147 -3.013,0.541 -37.224,17.369l-2.726,-2.976c-5.401,-14.341 -52.013,-138.097 -65.106,-180.12c-56.544,-181.488 -76.063,-225.822 -91.786,-279.414c-2.276,-7.759 -4.184,-6.277 -6.601,-7.339c2.322,22.655 5.338,22.128 6.836,44.974c9.598,146.328 27.308,252.336 21.769,255.893c-6.677,4.289 -2.534,-4.057 -15.428,-96.947c-2.336,-16.828 -0.944,-16.961 -23.312,-211.061c-2.19,-19.003 -2.096,-18.882 -5.314,-37.834c-3.843,-22.632 -4.192,-22.356 -6.803,-44.993c-0.668,-0.336 -1.336,-0.672 -2.004,-1.008c-0.705,0.337 -2.043,-0.955 -2.659,3.102c-5.401,35.622 -11.604,50.08 -19.645,130.409c-26.69,266.638 -26.606,289.03 -32.801,324.973c-3.864,-2.826 -4.764,-2.532 -4.485,-7.332c1.574,-27.098 19.211,-235.668 22.651,-263.185c7.11,-56.865 6.041,-56.792 13.988,-113.586c2.495,-10.698 2.424,-16.746 4.988,-21.4l-1.342,-0.659c-0.595,-1.183 -2.874,-0.823 -3.469,-2.007c-0.056,-0.111 0.431,-17.036 3.844,-23.225c1.425,-2.584 1.672,-2.54 0.587,-5.305c-1.053,-2.683 0.675,-8.084 0.122,-11.725c-0.106,-0.699 -0.601,-1.573 -0.141,-2.116c1.341,-1.583 5.476,-0.472 3.881,-14.22c-1.19,-10.263 8.968,-14.696 7.284,-23.748c-0.356,-1.912 -2.495,-4.365 -2.783,-4.695c-0.913,-1.047 -2.526,-1.492 -3.174,-2.716c-0.353,-0.667 0.932,-1.517 0.579,-2.184Z" style="fill:#e3be95;"/><path d="M1486.984,1500.878c13.582,29.734 44.943,90.25 48.978,98.036c35.07,67.674 42.187,68.909 33.124,83.208c-26.535,39.053 -76.58,51.292 -77.913,51.724c1.913,-10.068 -2.651,-8.948 -16.391,-33.772c-63.141,-114.076 -64.672,-113.06 -69.622,-123.235c-29.442,-60.525 -33.009,-64.784 -27.348,-64.422c21.905,1.401 21.744,4.559 72.316,-0.024c22.607,-2.049 21.464,-6.327 31.464,-8.029c5.39,-0.917 4.233,-2.736 5.391,-3.486Z" style="fill:#f2b2ba;"/><path d="M962.009,1309.418c-11.345,-0.234 -11.29,2.909 -11.631,14.079c-0.547,2.371 0.04,2.368 -1.062,4.607c-0.45,0.914 0.134,0.92 -0.216,1.91c-5.992,16.941 -33.642,47.065 -36.347,49.759c-42.634,42.465 -68.005,56.982 -71.635,59.77c-33.02,25.361 -112.656,64.692 -138.959,64.48c-104.648,237.849 -104.223,238.103 -107.154,241.906c-20.971,-13.521 -22.969,-8.389 -50.043,-16.513c36.995,-43.511 120.814,-214.43 119.915,-215.95c-1.482,-2.505 -75.588,9.362 -104.276,-11.648c4.641,-11.288 5.258,-11.794 6.126,-12.503c3.789,-3.099 105.189,18.17 242.562,-60.208c71.977,-41.067 127.221,-107.348 134.677,-117.939c34.529,-49.047 28.785,-52.343 32.382,-56.097c11.352,-11.847 1.588,6.168 -14.339,54.348Z" style="fill:#db8893;"/><path d="M1266.425,650.51c-0.519,0.221 -5.442,-0.745 -4.504,6.861c9.022,73.167 25.23,73.541 59.609,117.153c16.003,20.3 32.247,67.565 9.926,100.483c-6.373,9.398 -6.55,9.258 -6.477,9.996c0.158,1.607 3.276,1.86 3.434,3.467c-2.926,3.805 -26.782,29.567 -12.092,52.753c11.866,18.729 35.174,-1.922 32.801,14.884c-0.887,6.285 -1.355,6.088 -2.136,9.599c-4.551,10.254 -8.648,28.749 -38.942,37.055c-11.422,3.132 -41.24,1.73 -34.583,-6.993c17.765,-23.277 -10.858,-29.702 -7.046,-37.467c23.498,-47.866 -6.927,-67.462 -0.008,-83.272c5.253,-12.003 5.669,-27.866 5.734,-30.334c-7.929,-67.971 -35.221,-62.027 -37.084,-130.29c-0.298,-10.922 0.339,-10.753 -1.721,-21.502c7.441,-11.787 7.627,-11.433 14.118,-23.835c9.214,-27.198 -9.832,-34.945 5.11,-40.714c0.91,-0.351 11.825,-4.566 12.204,0.662c0.791,10.915 0.157,10.806 1.659,21.494Z" style="fill:#a47157;"/><path d="M1464.463,1426.87c12.6,4.004 20.351,6.122 23.165,36.532c0.363,3.918 1.724,18.637 -47.061,16.465c-91.133,-4.056 -177.52,-38.43 -239.137,-81.831c-117.151,-82.518 -153.945,-189.62 -160.782,-209.521c-0.251,-0.732 -17.474,-37.711 -4.448,-37.588c5.651,0.053 30.248,113.814 188.342,216.647c109.289,71.088 241.061,83.936 241.313,64.782c0.01,-0.781 -0.788,-1.435 -0.777,-2.216l-0.614,-3.269Z" style="fill:#f1c888;"/><path d="M569.034,1475.785c-4.014,-2.15 -14.658,-2.749 -7.152,-26.698c0.789,-2.516 13.93,-29.877 17.91,-16.916c7.351,23.936 268.877,-6.612 404.659,-244.472c6.624,-11.603 22.397,-53.242 25.627,-32.557c0.403,2.58 -26.616,106.536 -116.523,193.84c-121.887,118.359 -264.534,135.936 -324.521,126.803Z" style="fill:#efc586;"/><path d="M560.601,1501.818c28.687,21.01 102.793,9.143 104.276,11.648c0.899,1.52 -82.919,172.439 -119.915,215.95c-19.997,-8.239 -42.839,-16.615 -65.946,-49.424c1.343,-0.496 0.338,-3.48 5.763,-2.13c2.237,0.557 41.864,-57.144 72.005,-136.437c6.356,-16.72 13.673,-19.736 -0.245,-31.059c3.047,-6.082 3.035,-6.04 3.29,-6.569c0.463,-0.957 0.22,-0.841 0.77,-1.98Z" style="fill:#f1aeb6;"/><path d="M1096.924,393.251c12.154,3.329 11.873,3.484 23.583,7.803c-3.643,30.608 12.284,88.005 32.468,117.356c36.674,53.328 63.116,56.83 90.054,58.168c0.411,0.693 -0.842,1.678 -0.43,2.372c3.138,5.29 19.956,2.612 24.774,-1.902c7.524,-7.048 7.637,-11.682 11.938,-7.313c5.546,5.632 -6.841,64.533 -62.646,45.165c-15.136,-5.253 -32.424,-30.206 -21.567,-26.415c32.832,11.466 34.66,2.838 33.143,0.696c-5.507,-7.77 -58.113,1.977 -102.624,-85.961c-21.309,-42.1 -12.788,-91.356 -29.961,-54.694c-37.036,79.064 -113.721,102.244 -249.545,117.247c-0.112,0.012 -67.221,1.035 -28.568,7.628c4.151,0.708 31,0.609 40.581,-0.994c2.164,-0.362 5.35,-4.285 9.383,2.047c-44.967,82.252 -108.454,33.246 -98.22,-6.767c14.544,15.228 12.532,18.958 33.191,23.961c25.459,6.165 26.445,-3.091 26.671,-5.222c-20.188,-0.968 -21.232,3.26 -38.816,-6.616l2.141,-2.95c-0.215,-0.949 1.922,-1.696 -0.686,-3.027c-14.322,-7.31 -11.125,-21.046 -10.666,-23.019c1.298,-5.578 3.487,-4.445 5.408,-9.773c0.242,-0.671 -1.166,-1.263 -0.924,-1.934c4.886,1.766 4.745,1.911 7.428,2.425c-5.253,4.69 -4.578,5.156 -5.398,12.248c-0.59,5.102 35.557,3.008 53.308,-3.725c34.197,-12.971 39.47,-7.77 74.98,-15.118c6.932,-1.434 60.803,-10.483 77.386,-18.952c75.919,-38.771 99.609,-110.59 103.614,-122.734Z" style="fill:#98624e;"/><path d="M905.984,1091.576c-6.484,6.648 -7.142,5.609 -14.15,11.663c-2.204,-0.492 -1.798,-2.991 -6.574,-1.468c-1.853,0.591 -4.382,2.201 -4.741,2.429c-96.536,61.47 -117.188,90.618 -120.715,94.027c-10.133,9.793 -62.951,60.843 -113.695,134.187c1.29,1.247 4.458,19.976 72.539,-3.596c37.31,-12.918 36.874,-13.424 72.262,-30.814c51.518,-25.317 -8.626,10.883 -21.05,25.999c-1.498,0.172 -1.789,-3.235 -3.287,-3.063c-3.937,0.453 -1.499,5.097 -43.512,23.331c-83.925,36.424 -93.403,23.184 -92.835,30.883c0.071,0.957 1.675,1.352 1.746,2.309l-2.623,3.272c-1.162,0.029 -10.565,0.265 -14.402,-1.852c-4.77,-2.631 -5.987,-5.1 -8.525,-0.438c-3.163,5.808 -3.857,31.061 82.931,10.84c113.001,-26.329 187.612,-92.017 194.947,-98.973l2.646,-1.368l2.407,-2.348l2.407,-1.582l3.499,3.982c-74.479,79.93 -208.143,143.08 -302.005,141.669c-8.423,-0.127 -6.953,-12.767 -6.225,-28.873c1.67,-36.942 28.865,-30.912 36.759,-45.515c13.85,-25.619 11.694,-26.692 36.071,-64.087c10.08,-15.462 72.11,-110.618 162.578,-164.68c67.883,-40.566 76.563,-38 83.549,-35.935Z" style="fill:#e9a2ab;"/><path d="M1146.227,353.984c62.415,36.4 105.38,120.107 103.59,155.076c-0.023,0.457 0.631,0.697 0.8,1.123c1.192,3.003 -0.005,2.791 -2.844,4.523c-2.706,1.65 -1.687,4.331 -4.603,2.913c-0.493,-0.24 0.585,-1.163 -4.712,-4.928c-5.001,-3.555 4.064,-12.65 5.494,-13.283c20.301,-8.979 -7.795,-4.177 -8.542,-4.049c-5.769,0.986 2.584,9.018 -4.698,9.865c-4.703,0.547 -9.315,-0.742 -7.309,7.281c1.059,4.235 -0.787,3.613 -4.659,5.436c-44.222,-43.127 -39.449,-58.635 -46.022,-53.107c-3.58,3.011 2.875,11.396 3.497,12.204c2.548,3.311 2.716,3.343 1.745,7.549c-6.986,-4.204 -8.219,-8.381 -13.402,-1.991c-3.452,4.257 6.958,38.497 21.948,13.363c11.105,11.96 48.276,64.731 77.851,40.234c2.034,1.871 5.971,0.006 5.442,9.813c-0.047,0.865 0.061,4.247 0.121,4.649c1.023,6.799 2.395,6.122 3.102,7.752c-0.776,1.268 -8.245,13.469 -11.086,14.951c-1.357,0.707 -1.408,0.626 -18.909,3.218c-26.938,-1.338 -53.38,-4.84 -90.054,-58.168c-20.185,-29.351 -36.112,-86.748 -32.468,-117.356c64.563,30.651 58.394,40.849 72.257,45.104c15.512,4.761 -0.342,-18.898 -1.25,-20.253c-34.387,-51.317 -56.212,-39.835 -50.997,-55.002c3.842,-11.175 3.887,-11.044 5.709,-16.918Z" style="fill:#a9785c;"/><path d="M638.92,970.382c-12.878,-18.669 -5.286,-24.529 -12.576,-29.887c-1.04,-0.765 -2.53,-1.036 -8.822,-5.925c-10.479,-8.142 -8.18,-18.611 -2.503,-16.651c48.73,16.829 36.309,31.883 50.668,45.105c19.431,17.892 99.683,32.778 122.839,51.884c5.391,4.448 7.673,-1.355 3.7,-6.154c-12.706,-15.35 11.177,-18.487 14.81,-9.767c0.916,2.199 0.419,12.904 17.349,18.656c7.77,2.64 15.545,-5.822 20.769,9.789c0.744,2.222 -29.16,50.722 -61.789,45.366c-54.098,-8.88 -85.223,-43.748 -134.651,-69.394c-4.732,-2.455 -12.091,-24.829 -9.794,-33.022Z" style="fill:#f6cfb7;"/><path d="M784.652,658.947c0.838,-13.889 0.619,-13.749 1.548,-27.51c0.407,-6.033 9.939,-1.132 11.508,0.166c4.489,3.715 -11.807,38.28 22.442,65.674c-3.694,7.551 1.976,27.282 -11.717,60.115c-17.53,42.033 -18.559,50.573 -18.841,51.527c-1.248,0.499 -2.496,0.998 -3.744,1.497c-0.755,0.286 -1.652,-0.588 -2.407,-0.302c-11.947,4.532 -13.056,84.346 -16.907,86.892c-0.612,0.405 -1.59,-0.616 -2.202,-0.211c-5.87,-26.182 -15.763,-35.469 -18.493,-52.266c-9.045,-55.65 59.803,-109.045 48.951,-120.167c-2.848,-2.919 -9.573,12.761 -13.504,18.594c-28.666,42.525 -32.111,46.172 -35.474,49.732c-9.119,-11.489 -13.406,-5.881 -19.715,7.136c-3.349,6.91 -5.958,26.563 4.454,27.782c1.174,0.137 1.035,0.084 6.057,0.125c4.623,64.318 27.77,61.158 26.403,95.162c-0.53,13.184 -19.838,44.563 -54.188,27.999l-2.288,-1.906c4.874,-8.139 11.276,0.557 21.277,-5.201c30.917,-17.799 -3.957,-55.038 -7.203,-58.504c1.518,-3.453 3.516,-3.813 0.342,-9.789c-34.056,-64.116 24.917,-112.76 47.269,-147.44c15.823,-24.551 21.244,-64.613 20.178,-66.036c-0.965,-1.287 -2.78,-1.784 -3.745,-3.071Z" style="fill:#aa775c;"/><path d="M1028.837,252.183c21.296,44.189 26.855,52.112 29.786,56.29c13.409,19.114 35.947,-29.038 38.936,-16.863c7.763,31.618 6.423,43.769 27.019,35.255c3.234,5.54 3.477,5.431 3.493,5.983c0.015,0.521 -0.083,0.379 -5.382,4.528c-0.532,0.417 -0.097,1.505 -0.642,1.906c-0.62,0.457 -1.689,-0.189 -2.309,0.268c0.036,-0.358 0.448,-4.476 0.448,-4.476c-0.411,0.096 -0.152,0.343 -2.115,4.77c-0.747,1.597 -1.494,3.194 -2.241,4.79c-3.202,8.559 -3.211,8.53 -3.358,9.054c-0.458,0.743 -0.561,0.471 -6.765,8.585c-61.836,-15.388 -105.264,-18.878 -175.011,4.541l-1.648,-3.28c-0.252,-1.054 2.005,-1.698 1.753,-2.751c-0.181,-0.758 -1.674,0.578 -2.363,0.196c-1.655,-0.917 -5.039,-8.512 -5.388,-9.296c-0.025,-0.777 -0.05,-1.554 -0.075,-2.331c-3.113,-6.372 -2.805,-8.408 -5.989,-14.545c-3.139,-6.048 0.275,-8.923 0.379,-9.198l0.696,-2.127c5.204,3.16 5.164,3.151 5.62,3.412c2.422,1.39 2.331,1.056 4.624,2.372c17.43,3.198 11.556,-7.208 20.527,-37.204c1.825,-6.101 10.034,4.567 20.31,14.203c17.429,16.344 20.375,2.08 37.171,-30.891c11.816,-23.196 14.333,-37.964 22.525,-23.192Z" style="fill:#f3cb98;"/><path d="M989.617,815.699c1.78,0.808 0.596,3.585 17.919,6.897c28.602,5.469 49.416,-4.804 53.256,-6.699c20.897,26.962 45.107,13.712 48.154,28.633c6.294,30.824 7.865,34.706 1.799,35.07c-76.652,4.597 -79.63,37.002 -90.7,28.318c-38.133,-29.913 -76.329,-27.52 -80.617,-28.921c-2.64,-0.863 -5.422,-2.104 3.634,-34.048c5.587,-19.707 26.281,-1.073 46.555,-29.25Z" style="fill:#f8d7bf;"/><path d="M1267.77,1012.653c19.913,32.394 35.259,39.369 68.094,74.945c36.631,39.689 44.371,41.998 49.449,43.513c11.857,3.538 52.125,6.183 81.389,33.889c1.206,1.142 14.847,19.564 -16.324,12.877c-17.958,-3.853 -68.165,-22.237 -44.603,9.016c15.358,20.371 -21.251,8.32 -43.521,-20.59c-4.274,-5.548 -3.934,-5.652 -8.666,-10.756l0.807,-2.711l1.935,-2.37l-0.012,-1.362c-19.5,-15.939 -86.23,-52.388 -119.344,-103.799c-4.272,-6.633 -7.213,-8.628 -0.207,-12.289c16.537,-8.641 15.292,-10.26 31.002,-20.364Z" style="fill:#f6d6be;"/><path d="M820.149,697.276c21.636,4.776 16.83,17.504 16.12,19.383c-1.194,3.163 -12.451,32.974 0.535,42.177c18.29,12.962 25.905,-11.37 26.611,-13.628c1.757,-6.761 1.125,-6.868 -2.784,-11.956c-0.601,-2.008 -7.256,-24.238 -6.524,-25.363c4.362,-6.716 12.042,20.861 33.343,41.552c-7.396,5.207 -4.911,11.176 -6.151,26.394c-0.318,3.899 -2.443,29.986 -14.626,46.722c-11.543,15.857 -26.109,-1.334 -70.413,51.13c-1.984,-1.553 -3.967,-3.106 -5.951,-4.659c-7.352,-16.815 -8.325,-28.401 -0.72,-60.11c0.282,-0.954 1.31,-9.495 18.841,-51.527c13.694,-32.833 8.024,-52.564 11.717,-60.115Z" style="fill:#915c48;"/><path d="M1599.68,826.54c28.312,-10.529 40.899,-17.731 48.715,-69.417c2.829,-18.712 11.705,-8.323 12.46,-4.533c9.29,46.615 9.753,68.258 66.267,77.488c7.162,1.17 8.974,10.916 -0.041,12.583c-3.267,0.604 -6.596,0.885 -9.84,1.598c-69.433,15.274 -44.119,88.899 -64.985,83.748c-6.754,-1.667 -3.525,-4.392 -6.446,-21.804c-11.702,-69.744 -64.507,-58.891 -68.25,-66.1c-4.875,-9.388 11.513,-11.336 22.12,-13.563Z" style="fill:#cea37d;"/><path d="M1175.739,838.985c5.938,8.166 4.7,9.923 14.422,13.098c23.093,7.544 49.098,30.674 58.292,49.141c-0.734,11.194 1.854,10.931 1.265,22.183l-11.345,0.334l-2.407,0.225l-1.847,1.325l-0.303,2.6c-0.472,3.464 -0.568,3.353 -0.08,6.875c-3.321,4.433 -3.775,4.065 -5.656,9.23c-11.7,32.114 -21.841,22.378 -42.684,16.895c-1.93,-0.508 -2.046,-0.444 -2.202,-0.359c-2.124,1.161 -1.001,2.111 -3.307,3.372c-2.721,-5.437 -1.73,-8.014 -7.795,-6.839c-4.451,2.467 -6.052,3.501 -7.586,-1.206c-3.4,-10.435 -1.711,-10.702 -4.811,-21.087l-1.494,-2.37l-3.018,-2.367c0.385,-22.715 -0.216,-22.474 -1.777,-40.459c8.987,0.836 6.623,6.159 15.065,7.908c12.13,2.513 -7.958,-14.468 -9.054,-15.395c-9.156,-5.356 -8.116,-9.964 -8.39,-16.256c24.72,-5.606 32.682,5.831 33.494,-0.199c1.76,-13.077 -32.543,-9.274 -35.452,-8.951c-0.303,-1.721 -3.686,-11.15 0.623,-13.817c5.011,-3.102 23.943,-3.802 26.049,-3.88Z" style="fill:#f3acb7;"/><path d="M996.43,1321.193c-7.948,56.794 -6.879,56.721 -13.988,113.586c-3.44,27.518 -21.077,236.088 -22.651,263.185c-0.279,4.801 0.621,4.506 4.485,7.332c-2.018,54.212 -10.777,100.194 -10.041,101.735c0.611,1.278 2.085,2.023 2.696,3.301c-16.677,4.972 -16.449,4.907 -33.261,9.73c0.137,-2.067 -0.404,-12.01 -0.461,-13.053c-1.272,-23.369 22.724,-149.066 26.63,-182.449c1.088,-9.299 10.492,-89.68 15.264,-116.038c12.124,-66.955 11.027,-107.535 15.205,-123.447c1.45,-5.521 0.69,-5.612 -3.004,-10.045c0.627,-2.426 6.362,-24.61 8.22,-30.226c5.468,-16.523 1.858,-19.189 10.905,-23.613Z" style="fill:#e8c299;"/><path d="M873.089,846.225c2.22,0.271 4.461,0.347 6.68,0.618c2.953,0.361 2.757,0.629 5.304,2.246c1.1,0.698 1.034,-3.701 16.312,-1.236l3.405,1.824c-1.324,3.567 -1.589,3.287 -4.125,5.967c-2.627,-0.401 -23.897,-3.647 -32.682,5.903c-9.495,10.322 10.222,-1.729 32.397,2.324c-0.409,6.051 -0.188,6.036 -3.671,16.456c-20.257,8.844 -16.731,17.997 -12.084,17.004c1.368,-0.292 0.409,-1.237 12.2,-12.352c-3.542,25.318 -2.024,25.195 -2.674,52.162l-3.038,-2.37l-1.763,-2.129c-0.17,0.359 -6.475,25.997 -38.471,27.768c-18.949,1.049 -17.92,-18.114 -21.851,-15.876c-1.95,1.111 -3.002,3.419 -4.952,4.53c-0.069,-2.21 1.26,-28.354 -4.531,-28.226c-11.844,0.262 -0.196,41.32 -0.084,45.512c-22.626,-14.814 -20.238,-23.664 -23.231,-34.194c3.39,-5.002 3.294,-4.891 5.145,-10.581c2.917,-8.968 4.073,-8.308 7.058,-17.04c6.032,-17.652 8.856,-15.986 22.418,-32.358c1.732,1.562 0.538,2.669 4.975,4.485c4.664,1.91 -3.504,5.328 0.644,8.211c1.125,0.782 18.523,-1.187 -0.985,-16.926c9.96,-7.293 9.859,-7.341 11.244,-8.073c16.162,-8.538 20.774,-2.29 26.361,-13.649Z" style="fill:#f1acb6;"/><path d="M1065.801,1015.606c-5.582,-5.415 -7.213,-5.222 -7.969,-5.133c-4.876,0.577 -4.446,2.607 -9.452,1.822c-2.635,-0.413 -31.606,0.228 -41.041,-0.483c-13.936,-1.05 -20.451,-10.003 -22.149,3.548l0.342,2.37l-3.435,2.715c-2.072,-8.128 -25.396,-99.598 -22.96,-102.283c2.471,-2.723 38.829,9.767 39.179,18.941c0.069,1.824 -3.104,21.493 14.321,29.85c15.915,7.633 34.349,-3.638 35.945,-22.667c0.299,-3.563 -7.17,-11.689 26.185,-23.546c2.068,-0.735 13.381,-5.649 12.952,-0.304c-0.95,11.853 -20.01,87.591 -21.917,95.168Z" style="fill:#f6e8c2;"/><path d="M289.138,1015.113c2.579,-10.863 2.558,-10.795 2.786,-11.732c2.004,-8.266 9.373,-9.078 11.667,0.332c10.713,43.948 8.066,53.652 53.687,64.314c15.139,3.538 6.834,10.914 2.749,12.016c-44.162,11.91 -45.442,16.995 -55.15,61.054c-3.123,14.174 -11.519,8.131 -12.648,4.707c-11.638,-35.288 -0.941,-52.771 -52.766,-64.134c-9.999,-2.192 -13.198,-10.078 -2.119,-13.158c39.17,-10.888 40.293,-14.789 51.793,-53.398Z" style="fill:#ba828d;"/><path d="M1065.801,1015.606c-19.547,73.252 -9.789,78.204 -23.924,88.578c-15.489,11.368 -16.949,18.069 -27.691,8.769c-9.986,-8.645 -16.225,-10.739 -17.124,-16.908c-1.493,-10.253 -1.922,-24.874 -14.966,-75.6l3.435,-2.715l-0.342,-2.37c1.698,-13.551 8.213,-4.597 22.149,-3.548c9.435,0.711 38.406,0.07 41.041,0.483c5.007,0.784 4.576,-1.245 9.452,-1.822c0.756,-0.09 2.387,-0.283 7.969,5.133Z" style="fill:#eed0a0;"/><path d="M745.811,792.689c3.363,-3.56 6.808,-7.207 35.474,-49.732c3.932,-5.833 10.657,-21.512 13.504,-18.594c10.852,11.122 -57.996,64.516 -48.951,120.167c2.73,16.797 12.623,26.085 18.493,52.266c0.612,-0.405 1.59,0.616 2.202,0.211c3.851,-2.546 4.959,-82.36 16.907,-86.892c0.755,-0.286 1.652,0.588 2.407,0.302c1.248,-0.499 2.496,-0.998 3.744,-1.497c-7.605,31.709 -6.632,43.295 0.72,60.11c1.984,1.553 3.967,3.106 5.951,4.659c-27.008,44.826 -6.686,74.793 -5.949,84.427c-19.307,14.88 -7.753,19.712 -8.884,33.693c-0.474,5.863 -7.882,1.489 -41.751,-11.002c-14.224,-5.245 -29.45,-1.835 -33.143,-31.818l2.288,1.906c34.35,16.564 53.657,-14.815 54.188,-27.999c1.368,-34.004 -21.78,-30.844 -26.403,-95.162c3.945,-17.795 3.625,-17.698 9.204,-35.043Z" style="fill:#93604a;"/><path d="M487.699,386.044c7.009,-1.689 26.943,-4.087 37.586,-18.194c9.473,-12.556 13.058,-43.82 15.512,-46.574c13.282,-14.906 10.198,37.341 31.272,53.565c12.414,9.557 68.712,15.726 21.109,26.148c-47.352,10.367 -34.21,58.711 -45.93,63.667c-8.148,3.445 -11.54,-20.052 -11.67,-20.545c-13.757,-52.413 -33.174,-36.069 -50.259,-45.674c-10.572,-5.943 1.465,-11.938 2.379,-12.393Z" style="fill:#bd848c;"/><path d="M1633.981,439.51c1.775,-5.314 1.506,-7.65 6.732,-5.806c3.996,1.41 8.059,22.218 8.114,22.452c13.559,57.72 54.157,31.237 52.496,49.698c-1.579,17.549 -41.63,-11.15 -54.279,54.329c-4.117,21.314 -12.654,10.493 -13.003,9.276c-11.512,-40.082 -7.29,-50.025 -48.925,-57.387c-9.26,-1.637 -10.64,-10.665 -0.157,-13.545c29.124,-8.001 39.041,-5.268 49.022,-59.017Z" style="fill:#b9848e;"/><path d="M1423.169,344.011c-19.098,17.587 -47.864,31.223 -53.842,23.46c-25.771,-33.464 -27.961,-94.153 6.347,-87.378c14.127,2.79 14.913,23.148 24.101,19.825c39.707,-14.361 53.13,11.949 23.393,44.093Z" style="fill:#b9808b;"/><path d="M341.868,1401.974c-9.93,-40.132 -12.166,-42.971 -46.819,-53.09c-7.334,-2.142 -11.459,-10.238 -0.049,-12.63c51.58,-10.817 39.13,-34.46 46.635,-57.43c1.516,-4.641 10.51,-9.557 12.988,2.096c0.03,0.139 3.072,32.566 22.45,46.714c14.623,10.677 42.721,8.638 30.123,18.604c-11.35,8.979 -40.149,-4.704 -51.262,50.907c-2.074,10.376 2.207,17.179 -8.348,14.697c-3.183,-0.748 -5.474,-8.991 -5.718,-9.867Z" style="fill:#c9a682;"/><path d="M1587.108,1382.317c-22.224,12.837 -29.447,13.781 -39.489,-9.552c-28.013,-65.092 13.278,-83.609 29.372,-55.933c3.321,5.711 1.284,10.056 7.601,7.966c0.533,-0.176 17.764,-11.467 34.251,-1.512c2.776,1.676 24.88,25.596 -31.737,59.03Z" style="fill:#bb7f88;"/><path d="M264.594,728.765c9.7,-25.134 33.68,-10.706 37.295,-9.329c5.931,2.26 7.312,-8.938 10.634,-14.019c14.637,-22.385 48.014,3.082 35.462,42.175c-12.262,38.187 -22.085,37.662 -33.792,32.789c-49.769,-20.714 -49.63,-45.931 -49.598,-51.616Z" style="fill:#b97e8b;"/><path d="M535.733,1177.495c-40.754,10.944 -29.985,31.74 -38.344,51.377c-1.738,4.083 -10.235,7.45 -12.667,-2.48c-9.276,-37.875 -10.485,-41.29 -42.845,-50.552c-4.574,-1.309 -9.453,-9.405 1.842,-12.181c33.862,-8.321 33.039,-15.989 41.052,-53.54c1.632,-7.646 11.228,-10.618 14.034,2.552c6.024,28.277 5.405,38.816 31.861,47.385c1.539,0.499 17.646,5.715 17.957,9.231c0.72,8.155 -3.691,5.172 -12.889,8.209Z" style="fill:#d1aa80;"/><path d="M1122.281,1102.69c12.395,6.507 27.251,14.483 45.397,27.407c32.694,23.284 57.636,61.446 60.378,67.991c10.367,24.743 -40.763,-28.573 -73.152,-46.42c-28.797,-15.868 -29.63,-18.212 -31.981,-15.355c-9.335,11.341 20.994,34.074 22.926,56.883c1.388,16.392 -7.107,12.64 -16.257,7.997c-0.129,-2.053 5.412,-1.267 5.283,-3.32c-0.239,-3.784 -4.175,-6.375 -6.101,-9.658c-2.475,-4.219 -6.553,-14.115 -16.725,-29.948c-23.019,-35.829 -28.65,-30.949 -30.577,-34.051c-1.126,-1.813 23.346,-15.237 34.136,-15.777c2.805,-2.837 2.254,-3.333 6.673,-5.748Z" style="fill:#da8692;"/><path d="M1177.996,825.772c-4.875,0.768 -4.595,1.433 -9.354,1.474c-16.934,0.146 -23.019,7.726 -29.01,5.746c-13.074,-4.321 -12.848,-4.407 -26.427,-5.643c-2.131,-0.194 -38.604,-11.138 -40.452,-13.822c-0.983,-1.428 -7.363,-17.471 2.194,-20.138c44.552,-12.434 44.39,-13.566 81.893,-40.306c7.107,-5.067 -2.927,19.246 10.42,50.775c0.761,1.797 2.511,5.931 10.736,21.914Z" style="fill:#935f4b;"/><path d="M1513.469,761.575c-6.953,-21.465 -10.444,-27.527 -31.811,-31.548c-22.337,-4.204 -8.442,-12.662 -7.27,-12.911c32.988,-7.009 34.731,-12.31 41.387,-45.346c3.357,-16.663 11.326,-6.768 11.954,-5.016c10.37,28.94 3.865,37.906 40.052,48.457c8.505,2.48 13.666,12.83 0.203,14.89c-50.808,7.774 -27.457,45.281 -43.371,52.411c-7.638,3.422 -9.871,-14.565 -11.143,-20.936Z" style="fill:#d1ac86;"/><path d="M1433.319,554.079c17.198,3.103 16.402,12.306 21.157,7.811c1.349,-1.275 10.153,-15.876 24.657,-14.422c7.236,0.726 33.497,12.233 -1.435,63.29c-8.752,12.791 -10.113,18.03 -24.534,10.081c-45.949,-25.329 -51.635,-63.989 -19.845,-66.76Z" style="fill:#ba808c;"/><path d="M1752.324,1216.527c-0.419,1.306 -6.581,20.524 -12.676,11.726c-5.141,-7.421 0.311,-41.098 -34.237,-49.589c-32.46,-7.978 9.954,-15.851 16.673,-21.222c17.538,-14.02 13.291,-54.992 25.98,-44.255c8.002,6.771 -2.127,39.071 36.944,50.799c3.18,0.955 6.457,1.572 9.642,2.509c5.031,1.48 5.482,9.593 -2.859,11.494c-28.285,6.446 -30.542,8.312 -39.468,38.538Z" style="fill:#d0ae87;"/><path d="M1553.969,1066.484c-21.979,-9.399 10.927,-14.491 20.918,-20.964c20.009,-12.964 15.378,-59.97 28.869,-41.732c11.273,15.239 -8.408,37.538 41.412,49.485c6.288,1.508 9.792,9.297 0.217,12.343c-29.459,9.373 -31.963,10.837 -39.537,42.019c-3.135,12.906 -11.724,11.139 -14.165,0.278c-7.04,-31.324 -8.365,-34.754 -37.715,-41.429Z" style="fill:#be8c98;"/><path d="M521.036,676.406c1.064,-9.475 1.078,-9.493 1.591,-10.139c3.529,-4.448 15.957,12.265 19.029,15.818c11.165,12.915 14.171,5 34.739,3.045c13.368,-1.271 2.673,9.931 -1.562,17.821c-10.498,19.557 -0.946,19.83 8.036,40.133c3.159,7.141 -15.181,1.246 -27.909,-1.148c-11.309,-2.126 -19.46,12.501 -29.716,21.425c-7.735,6.73 -7.428,-21.787 -7.51,-22.782c-3.29,-14.26 -7.355,-12.978 -28.251,-23.485c-8.434,-4.241 12.079,-10.64 18.713,-13.251c4.789,8.966 5.586,11.098 15.209,7.92c10.447,-3.45 6.624,-28.014 2.736,-31.121c-5.06,-4.044 0.391,-4.338 0.103,-4.568c-1.352,-1.077 -3.855,1.409 -5.207,0.332Z" style="fill:#efa3ae;"/><path d="M935.058,1108.203c1.995,0.444 9.588,2.134 23.409,10.113c5.347,3.087 8.974,3.554 4.719,8.02c-4.34,4.555 -42.798,44.92 -44.777,64.425c-1.943,19.151 7.234,-8.351 40.519,-47.548l1.306,2.513l-0.049,2.37l-1.941,2.37c-10.864,26.113 -68.559,91.479 -65.067,66.33c3.352,-24.145 44.482,-81.436 39.06,-84.155c-11.036,-5.535 -55.102,22.542 -59.452,25.314c-24.637,15.698 -21.916,18.87 -45.902,35.439c-0.788,-0.496 -1.735,-0.712 -2.523,-1.208c-6.346,-3.997 18.593,-28.301 20.705,-30.359c0.036,0.015 1.457,3.794 5.697,2.371c3.157,-1.06 4.365,-0.206 4.89,-0.231c6.533,-3.303 6.753,-3.567 7.172,-4.072c26.034,-31.31 55.208,-39.819 72.234,-51.692Z" style="fill:#df8e99;"/><path d="M966.369,1110.187c-25.061,-13.536 -24.841,-13.6 -50.757,-25.652c-8.041,-3.739 -0.529,-21.014 7.045,-16.409c48.304,29.367 50.67,25.492 95.076,60.025c9.477,7.37 13.264,-12.929 86.291,-47.869c23.802,-11.388 25.488,-16.724 30.293,-10.021c9.733,13.577 -10.105,18.308 -40.141,33.242c-70.053,34.831 -68.096,48.016 -76.116,41.092c-18.991,-16.396 -18.785,-16.622 -51.692,-34.408Z" style="fill:#f4ca90;"/><path d="M369.364,486.832c-15.348,-19.168 -37.919,-9.604 -32.945,-21.151c1.276,-2.962 14.836,-6.824 16.202,-7.213c26.209,-7.464 24.858,-40.615 27.22,-44.656c9.585,-16.399 11.462,24.764 23.951,36.806c10.582,10.204 52.748,12.965 16.148,24.21c-36.558,11.232 -22.731,34.761 -31.811,44.621c-9.914,10.765 -10.13,-16.515 -18.764,-32.617Z" style="fill:#d2b18e;"/><path d="M954.499,380.825c-75.027,20.036 -80.494,45.386 -79.608,32.484c0.146,-2.127 29.77,-30.585 74.428,-43.336c149.513,-42.692 242.881,54.395 226.579,52.309c-2.674,-0.342 -22.789,-25.325 -82.165,-41.387c-6.599,-1.785 -42.109,-8.481 -57.533,-8.715c-41.954,-0.637 -55.106,2.942 -81.701,8.646Z" style="fill:#f3c895;"/><path d="M1700.424,835.322l-0.998,1.912l-1.635,2.071c-31.144,9.489 -39.574,43.082 -40.793,47.939c-0.775,3.088 -1.846,0.693 -2.287,0.858l-1.959,-0.951c-0.344,-1.319 -3.04,-37.006 -43.807,-49.594c0.532,-0.254 0.143,-1.36 0.675,-1.615c0.023,-0.011 5.353,-0.958 10.923,-3.888c29.936,-15.748 30.124,-43.999 32.376,-46.051c10.676,-9.73 -6.692,30.941 47.506,49.318Z" style="fill:#efcc90;"/><path d="M1267.77,1012.653c-15.71,10.104 -14.465,11.723 -31.002,20.364c-7.006,3.661 -4.065,5.656 0.207,12.289c33.113,51.411 99.844,87.86 119.344,103.799l0.012,1.362l-1.935,2.37l-0.807,2.711c-36.437,-26.394 -98.285,-49.035 -133.575,-105.22c-8.544,-13.602 -22.558,-29.881 3.795,-26.916c25.657,2.887 17.235,-22.653 36.182,-19.634c3.25,0.518 2.603,1.508 7.778,8.875Z" style="fill:#f1baa7;"/><path d="M556.541,1510.367c13.918,11.323 6.6,14.339 0.245,31.059c-30.142,79.293 -69.768,136.994 -72.005,136.437c-5.425,-1.35 -4.42,1.634 -5.763,2.13c-8.892,-12.678 -0.24,-13.975 77.524,-169.626Z" style="fill:#f9d2d3;"/><path d="M617.825,526.653c-7.377,-6.667 -8.088,-5.37 -17.493,-8.609c-3.163,-1.089 -9.08,-7.322 2.867,-11.477c33.003,-11.48 19.304,-25.209 27.606,-37.061c9.053,-12.924 13.549,16.885 18.872,26.155c6.433,11.201 49.121,13.088 16.066,24.967c-26.321,9.459 -20.03,30.314 -26.992,36.957c-10.772,10.279 -7.845,-16.228 -20.926,-30.932Z" style="fill:#d1b28e;"/><path d="M909.42,967.789l1.594,-0.787l2.444,-1.417l0.835,2.37l0.83,2.37l0.628,2.37l1.035,2.37c0.285,1.529 1.03,7.787 12.2,20.322c6.826,7.66 17.246,7.933 18.889,7.976c1.67,6.04 20.357,73.643 18.652,76.059c-2.161,3.061 -42.948,-21.338 -45.163,-24.166c-3.545,-4.527 2.537,-5.882 -9.407,-70.854c-0.243,-1.323 -0.188,-1.231 -2.538,-16.615Z" style="fill:#e39099;"/><path d="M435.295,991.875c-0.032,0.112 -4.826,26.317 -12.899,21.09c-7.234,-4.683 -1.928,-32.166 -23.935,-38.336c-12.309,-3.451 -14.465,-1.339 -15.402,-6.424c-1.98,-10.748 28.186,-2.307 34.037,-31.156c0.298,-1.472 5.467,-26.959 12.521,-14.138c2.975,5.408 1.769,28.881 23.761,36.388c11.468,3.914 12.314,2.897 13.428,5.827c4.728,12.443 -21.406,-0.836 -31.511,26.748Z" style="fill:#bf9093;"/><path d="M1140.957,960.702c-1.438,0.838 -2.875,1.676 -4.313,2.513l-0.759,2.37l-1.521,2.37c-7.118,17.43 -6.049,23.265 -28.143,38.509c-7.61,5.251 2.673,18.699 -3.579,32.251c-2.563,5.556 -0.7,7.215 -3.816,7.75c-3.246,0.558 -3.076,-0.163 -10.795,-2.83c15.498,-60.509 16.196,-60.074 29.432,-120.836c2.742,-12.589 7.091,-9.544 19.899,-7.488c6.942,1.115 7.019,3.986 3.596,45.388Z" style="fill:#f2aab4;"/><path d="M1266.425,650.51c12.275,76.397 33.301,67.033 72.53,128.147c32.569,50.74 1.516,93.479 -3.214,99.987c-3.715,5.113 -3.469,4.995 -7.329,9.826c-0.158,-1.607 -3.276,-1.86 -3.434,-3.467c-0.072,-0.738 0.105,-0.598 6.477,-9.996c22.321,-32.918 6.078,-80.183 -9.926,-100.483c-34.38,-43.612 -50.587,-43.986 -59.609,-117.153c-0.938,-7.606 3.985,-6.64 4.504,-6.861Z" style="fill:#d69f82;"/><path d="M784.652,658.947c0.965,1.287 2.78,1.784 3.745,3.071c1.066,1.423 -4.354,41.485 -20.178,66.036c-22.352,34.68 -81.325,83.324 -47.269,147.44c3.174,5.976 1.177,6.336 -0.342,9.789c-1.679,-2.141 -1.576,-1.972 -3.12,-3.978c-0.581,-0.754 -0.53,-0.441 -1.198,-1.259c-4.834,-5.92 -34.258,-41.951 -5.439,-94.802c29.535,-54.165 54.211,-44.82 73.801,-126.297Z" style="fill:#daa283;"/><path d="M1140.957,960.702c-6.705,45.044 -8.127,44.736 -11.809,90.173c-0.68,8.395 -22.921,15.53 -44.731,28.679c-7.105,4.284 -3.205,-7.131 3.613,-35.917c7.72,2.667 7.55,3.388 10.795,2.83c3.117,-0.536 1.253,-2.194 3.816,-7.75c6.253,-13.552 -4.031,-27.001 3.579,-32.251c22.093,-15.244 21.025,-21.079 28.143,-38.509l1.521,-2.37l0.759,-2.37c1.438,-0.838 2.875,-1.676 4.313,-2.513Z" style="fill:#e38e97;"/><path d="M1146.227,353.984c3.335,-11.224 10.999,-2.175 23.117,6.049c92.753,62.944 89.876,167.404 86.109,169.707c-11.433,6.989 -34.244,-9.965 -36.71,-11.798c3.872,-1.823 5.719,-1.201 4.659,-5.436c-2.006,-8.024 2.605,-6.734 7.309,-7.281c7.282,-0.847 -1.071,-8.879 4.698,-9.865c0.747,-0.128 28.843,-4.93 8.542,4.049c-1.431,0.633 -10.496,9.728 -5.494,13.283c5.297,3.765 4.219,4.688 4.712,4.928c2.916,1.417 1.897,-1.263 4.603,-2.913c2.839,-1.731 4.036,-1.519 2.844,-4.523c-0.169,-0.426 -0.823,-0.667 -0.8,-1.123c1.79,-34.969 -41.174,-118.676 -103.59,-155.076Z" style="fill:#c79076;"/><path d="M894.152,937.142c2.459,51.13 6.416,52.456 2.674,54.848c-16.35,10.451 -34.967,-2.971 -43.673,-7.259c-28.401,-13.902 -27.726,-15.18 -28.369,-17.039c0.185,-0.7 1.628,-0.697 -0.707,-18.627c1.95,-1.111 3.002,-3.419 4.952,-4.53c3.93,-2.238 2.901,16.925 21.851,15.876c31.996,-1.771 38.302,-27.409 38.471,-27.768l1.763,2.129l3.038,2.37Z" style="fill:#e18f9a;"/><path d="M1370.994,291.392c11.723,2.244 11.104,7.66 14.841,19.738c5.176,16.729 20.565,-9.093 32.996,-6.515c23.962,4.969 -4.627,42.362 -38.64,53.096c-10.261,3.238 -18.582,-42.306 -19.302,-46.243c11.523,-4.448 7.75,-10.22 10.105,-20.077Z" style="fill:#e59daa;"/><path d="M618.962,1738.348c4.784,-24.303 57.835,-155.34 65.503,-159.335c18.8,-9.795 -35.335,124.952 -47.028,143.324c-9.431,14.818 -7.268,20.544 -17.219,18.006l-1.256,-1.994Z" style="fill:#fad3d1;"/><path d="M1549.091,1335.354c0.072,-1.262 -1.376,-13.522 4.825,-18.723c9.611,-8.061 20.101,16.841 20.972,18.91c4.481,10.638 21.886,-10.057 34.383,-5.594c25.574,9.133 -41.62,58.48 -47.403,47.635c-10.561,-19.806 -12.431,-38.72 -12.778,-42.228Z" style="fill:#e89ba8;"/><path d="M282.672,747.602c-0.76,-1.007 -8.055,-10.666 -6.675,-14.238c5.482,-14.185 21.638,-5.907 23.687,-4.949c22.308,10.428 13.006,-10.513 22.244,-17.92c27.394,-21.963 16.575,61.54 -0.663,60.933c-16.1,-0.567 -36.081,-21.227 -38.594,-23.826Z" style="fill:#e59daa;"/><path d="M1077.349,909.73c-15.267,5.184 -15.257,4.938 -29.397,12.747c-5.939,3.28 -16.27,-6.193 -8.738,-10.36c67.801,-37.513 88.823,-13.025 88.015,-27.097c-1.054,-18.346 -10.855,-47.378 -4.389,-45.83c12.558,3.007 14.77,8.408 17.487,31.488c2.172,18.454 5.697,34.867 -0.646,34.822c-24.71,-0.175 -25.033,-4.703 -62.333,4.231Z" style="fill:#f6d092;"/><path d="M295.437,1034.588c0.3,-0.166 3.744,-2.07 3.744,-2.07c0.132,0.15 7.108,25.278 24.307,35.318c3.069,1.791 15.623,6.629 11.744,8.539c-0.556,0.274 -11.314,0.662 -23.048,13.054c-13.258,14.001 -14.562,40.622 -17.897,23.287c-7.967,-41.414 -35.83,-30.488 -32.39,-39.692c0.487,-1.302 24.611,-4.944 33.54,-38.435Z" style="fill:#eeb8be;"/><path d="M1011.774,913.743c-0.145,0.894 -0.652,4.028 -7.07,8.928c-11.582,8.844 -13.076,-23.99 -88.985,-17.518c-12.954,1.104 -9.425,-5.328 -7.439,-17.835c6.089,-38.341 11.714,-50.027 22.309,-48.217c5.774,0.986 -16.348,50.194 -0.318,50.488c38.128,0.701 51.383,7.638 81.501,24.153Z" style="fill:#f5ce8f;"/><path d="M902.135,361.156c-7.936,4.755 -46.073,27.602 -79.348,83.489c-3.75,6.298 -16.214,34.227 -20.5,46.703c-2.385,6.943 -0.939,7.815 -6.812,12.356l-2.159,-0.337c7.98,-51.07 29.155,-107.255 98.974,-150.741c7.497,-4.669 7.586,0.135 9.845,8.53Z" style="fill:#daa085;"/><path d="M1095.426,925.15c1.513,-4.379 -1.223,-11.269 12.847,-11.126c9.047,0.092 -26.525,108.834 -36.264,162.906c-0.268,1.489 -2.89,16.045 -12.012,14.746c-7.6,-1.083 23.39,-100.069 35.429,-166.526Z" style="fill:#f2c388;"/><path d="M1532.422,956.31c-9.948,15.438 -15.101,30.793 -37.93,8.345c-22.424,-22.05 -13.147,-56.846 12.69,-31.304c8.635,8.537 16.297,-22.367 29.55,-7.959c6.865,7.463 -3.233,28.659 -4.31,30.919Z" style="fill:#e6b4c1;"/><path d="M944.658,914.437c12.824,3.241 2.836,10.392 24.46,88.974c11.557,42 20.422,86.588 19.321,87.98c-1.19,1.505 -9.086,6.681 -14.284,-19.243c-9.292,-46.334 -42.583,-154.66 -34.92,-157.487c0,-0 4.99,-0.206 5.423,-0.224Z" style="fill:#f2c58b;"/><path d="M909.42,967.789c-1.373,-12.905 -6.985,-51.153 1.445,-52.537c13.421,-2.205 17.219,-3.241 20.047,9.88c8.439,39.152 7.134,39.254 16.963,78.232c-1.644,-0.043 -12.064,-0.316 -18.889,-7.976c-11.17,-12.536 -11.915,-18.794 -12.2,-20.322l-1.035,-2.37l-0.628,-2.37l-0.83,-2.37l-0.835,-2.37l-2.444,1.417l-1.594,0.787Z" style="fill:#f2acb6;"/><path d="M547.034,351.987c10.82,43.392 37.793,33.043 31.284,41.979c-5.805,7.969 -18.804,-1.45 -29.274,33.287c-2.96,9.82 -4.673,9.443 -5.11,8.759c-1.612,-2.52 0.604,-21.604 -20.642,-36.645c-9.667,-6.843 -24.718,-4.532 -13.64,-9.068c10.571,-4.328 24.367,-3.911 32.671,-36.487c0.832,-3.262 1.666,-3.462 4.71,-1.825Z" style="fill:#efb3b8;"/><path d="M1140.982,1041.371c1.183,-8.368 1.106,-8.16 2.341,-16.554c1.737,-11.813 1.801,-23.733 8.111,-20.859c9.625,4.384 9.547,3.882 19.475,6.833c7.727,2.296 -0.959,20.981 19.247,26.502c24.299,6.64 -8.161,21.262 -28.809,20.546c-26.114,-0.905 -20.431,-15.11 -20.364,-16.469Z" style="fill:#92614d;"/><path d="M927.903,613.713c3.524,0.461 26.124,3.42 20.528,38.807c-3.977,25.151 -35.821,22.78 -38.235,-4.46c-0.707,-7.982 3.747,-10.546 -8.289,-19.71c-9.44,-7.187 -3.812,-15.491 3.677,-10.33c10.078,6.945 9.988,-2.973 22.318,-4.307Z" style="fill:#763d34;"/><path d="M1097.148,638.547c0.459,-2.382 4.282,-22.224 18.385,-24.31c13.966,-2.066 13.958,12.047 25.944,4.406c8.931,-5.694 10.56,3.832 2.787,10.084c-7.75,6.234 -6.967,6.971 -7.953,16.791c-3.328,33.155 -37.848,34.711 -39.163,-6.971Z" style="fill:#7a3f35;"/><path d="M1438.562,566.645c14.818,8.064 17.603,14.271 22.896,5.08c0.981,-1.703 12.683,-22.025 21.24,-12.698c7.195,7.843 -12.831,63.203 -29.335,50.215c-43.236,-34.026 -26.381,-43.539 -22.424,-44.205c3.325,-0.56 3.149,0.215 7.623,1.609Z" style="fill:#e69ba9;"/><path d="M1638.692,466.031c5.998,4.402 8.768,27.562 27.961,35.341c4.777,1.936 9.174,1.036 5.583,4.641c-1.863,1.87 -22.694,8.566 -27.556,25.683c-2.738,9.639 -0.611,16.15 -6.147,11.508c-5.584,-4.682 3.071,-21.988 -29.27,-35.551c-2.219,-1.544 -1.649,-1.817 -2.843,-4.624c25.664,-7.371 30.244,-30.912 32.271,-36.999Z" style="fill:#efb5bb;"/><path d="M851.513,1042.898c10.713,-12.526 25.639,-7.167 28.581,-25.134c0.295,-1.801 -0.666,-9.411 4.349,-10.081c11.126,-1.489 16.178,-8.263 17.869,2.828c3.273,21.464 1.612,21.542 5.622,42.932c-15.497,13.921 -38.838,1.064 -56.421,-10.545Z" style="fill:#90614b;"/><path d="M384.303,1342.207c-24.838,8.38 -28.523,17.272 -34.631,37.792c-7.739,-1.132 -0.492,-7.41 -12.468,-22.606c-10.356,-13.141 -31.218,-13.98 -24.978,-16.332c2.737,-1.032 5.753,-1.144 8.564,-1.958c16.523,-4.781 24.556,-26.412 25.636,-29.319c5.602,-15.085 1.352,9.679 21.49,24.427c7.386,5.41 7.681,4.688 16.387,7.996Z" style="fill:#f6d7a8;"/><path d="M1259.532,1312.424c16.406,14.173 76.719,46.53 125.804,55.492c26.514,4.841 31.485,-1.023 32.573,7.718c0,0 0.805,3.593 0.875,3.906c-10.496,-0.445 -31.833,2.01 -83.741,-16.88c-47.897,-17.431 -102.81,-59.375 -108.532,-65.36c-4.774,-4.994 -0.457,-7.895 1.94,-6.268c2.498,1.696 27.924,18.959 31.081,21.393Z" style="fill:#ac626a;"/><path d="M581.189,975.091c-11.314,-37.56 -0.073,-54.466 9.137,-46.77c24.219,20.239 26.385,61.108 15.27,66.133c-11.849,5.358 -23.285,-17.155 -24.407,-19.364Z" style="fill:#f5d1b8;"/><path d="M1011.888,294.548c1.962,-0.649 18.569,-6.142 25.641,3.41c2.862,3.865 8.492,14.925 5.462,25.189c-14.355,48.624 -60.613,0.501 -31.104,-28.599Z" style="fill:#854938;"/><path d="M989.617,815.699c4.518,-14.152 1.127,-19.36 8.056,-18.875c27.902,1.954 27.711,1.85 55.405,-1c5.511,-0.567 3.101,3.962 7.713,20.074c-3.84,1.895 -24.654,12.167 -53.256,6.699c-17.323,-3.312 -16.139,-6.089 -17.919,-6.897Z" style="fill:#ecb0a2;"/><path d="M1329.654,1433.338c46.83,18.369 104.63,29.476 146.588,19.375c3.889,-0.936 6.072,-3 5.812,1.148c-0.028,0.453 -3.19,8.059 -3.479,8.755c-2.86,2.774 -3.369,2.746 -50.07,3.29c-8.726,0.102 -8.639,-0.214 -16.846,2.238c-2.832,-1.318 -81.121,-16.233 -84.056,-30.863c-0.556,-2.772 1.086,-2.089 2.05,-3.943Z" style="fill:#e0b274;"/><path d="M905.984,1091.576c10.407,5.398 10.358,5.117 20.444,10.863c-9.791,10.261 -24.194,5.721 -81.363,59.388c-2.112,2.058 -27.051,26.362 -20.705,30.359c0.788,0.496 1.735,0.712 2.523,1.208c-3.42,2.61 -15.073,14.329 -19.379,9.224c-2.825,-3.349 21.898,-34.57 24.661,-37.267c23.69,-23.128 21.158,-25.561 47.173,-46.068c4.192,-3.304 1.425,-5.145 5.397,-8.713c3.856,-3.464 3.995,-3.181 7.099,-7.331c7.008,-6.055 7.666,-5.015 14.15,-11.663Z" style="fill:#e4919d;"/><path d="M883.838,695.623c0.388,-28.199 40.592,-22.549 50.532,-13.748c23.339,20.665 -36.814,42.119 -50.532,13.748Z" style="fill:#f3b2a8;"/><path d="M1149.307,676.43c44.555,16.66 -17.153,48.633 -38.32,23.556c-8.059,-9.548 4.584,-30.581 38.32,-23.556Z" style="fill:#f4b0a6;"/><path d="M627.047,975.01c7.073,31.894 24.21,78.003 34.12,113.734c2.372,8.554 -8.164,9.408 -10.305,7.424c-1.413,-1.31 -32.347,-100.588 -31.161,-104.526c0.31,-1.03 3.442,-11.426 3.81,-12.889c1.178,-1.247 2.357,-2.495 3.535,-3.742Z" style="fill:#f0aca3;"/><path d="M1155.183,930.034l3.018,2.367l1.494,2.37c3.1,10.385 1.412,10.652 4.811,21.087c1.534,4.707 3.135,3.674 7.586,1.206c4.373,12.453 -0.708,19.541 27.769,30.746l2.68,2.257c-14.979,5.254 -31.166,14.774 -50.025,0.789c-5.122,-3.798 -1.516,-5.323 2.668,-60.822Z" style="fill:#e3949e;"/><path d="M580.084,863.943c-26.157,-83.248 -27.999,-83.311 -26.321,-90.672c3.613,-15.856 14.964,21.787 15.623,23.971c18.478,61.275 42.493,120.128 28.736,121.083c-4.023,0.279 -2.54,-2.185 -18.038,-54.381Z" style="fill:#efaeab;"/><path d="M1368.34,1631.638c13.003,30.476 29.019,67.656 14.544,65.312c-9.537,-1.544 -42.831,-104.571 -39.347,-108.53c5.407,-6.144 5.703,1.414 24.803,43.218Z" style="fill:#fbd8d4;"/><path d="M490.784,1132.195c0.968,0.134 1.937,0.269 2.905,0.403c7.839,33.456 16.162,28.372 24.539,34.945c0.395,0.31 2.579,2.023 -4.021,4.798c-18.758,7.887 -18.255,38.626 -25.323,23.677c-9.58,-20.263 -12.208,-18.356 -22.674,-24.797c-0.526,-0.323 -3.275,-2.305 4.497,-6.213c10.535,-5.298 19.071,-29.912 20.077,-32.812Z" style="fill:#f6cf92;"/><path d="M862.718,839.287c1.257,1.015 2.514,2.029 3.772,3.044l-1.21,2.729c0.629,0.06 0.483,0.235 7.809,1.165c-5.588,11.359 -10.2,5.11 -26.361,13.649c-1.384,0.731 -1.284,0.78 -11.244,8.073c-2.683,1.997 -2.438,1.919 -4.634,4.229c-13.563,16.372 -16.386,14.706 -22.418,32.358c-2.984,8.732 -4.141,8.072 -7.058,17.04c-1.851,5.691 -1.754,5.58 -5.145,10.581c-6.662,-32.529 12.76,-74.111 66.489,-92.868Z" style="fill:#f7d2d0;"/><path d="M804.878,985.352c-5.847,-1.771 -18.846,-3.387 -14.742,-12.888c5.595,-12.954 10.491,-4.637 45.579,15.596c13.12,7.565 13.427,6.701 26.74,13.862c13.953,7.505 3.914,18.324 0.077,19.372c-4.762,1.3 -13.648,-11.49 -14.528,-12.755c-5.535,-7.967 -13.225,0.768 -18.75,-0.927c-14.78,-4.534 -6.501,-15.641 -24.376,-22.258Z" style="fill:#f2cd96;"/><path d="M1774.092,1170.378c-2.023,3.972 -2.24,3.765 -6.434,5.167c-10.255,3.43 -9.107,5.089 -15.583,13.512c-4.928,6.411 -6.203,13.441 -9.862,6.086c-8.549,-17.185 -10.815,-15.47 -19.542,-21.509c-4.492,-3.109 -0.417,-3.589 3.987,-6.983c14.584,-11.235 13.149,-33.008 22.066,-18.589c9.164,14.818 9.722,14.604 25.367,22.316Z" style="fill:#f3cc91;"/><path d="M982.752,495.273c-7.203,3.25 -66.747,30.119 -95.46,25.989c-3.956,-0.569 -4.878,-4.648 -2.336,-5.386c3.49,-1.014 19.784,-0.419 59.482,-13.144c76.586,-24.549 94.021,-65.243 95.577,-51.497c0.335,2.954 -14.515,15.174 -15.99,16.459c-13.911,12.118 -37.813,25.624 -41.274,27.579Z" style="fill:#804837;"/><path d="M1503.307,725.985c-3.852,-3.824 -7.962,-5.141 -2.862,-7.299c6.606,-2.796 6.945,-2.248 11.19,-7.754c8.876,-11.512 8.225,-15.543 9.2,-17.223c3.739,-6.439 1.168,12.268 23.786,24.528c14.296,7.749 -9.716,5.373 -19.108,27.392c-6.203,14.542 -4.788,-6.359 -22.207,-19.644Z" style="fill:#f1cd94;"/><path d="M1223.251,649.47c4.104,-7.441 -0.872,-8.676 -8.832,-5.933c-2.542,0.876 -10.258,7.469 -9.647,2.05c2.408,-21.358 5.271,-21.075 6.983,-20.642c14.386,3.641 29.174,6.218 27.293,30.193c-1.615,20.582 -20.978,37.002 -26.677,34.35c-0.619,-0.288 -0.554,-0.303 -7.481,-4.094c6.272,-14.03 15.589,-9.511 20.526,-28.483c1.086,-4.174 1.911,-3.866 1.772,-4.203c-0.644,-1.56 -3.292,-1.679 -3.936,-3.239Z" style="fill:#f6cab6;"/><path d="M822.923,649.476c-0.194,0.395 -3.515,0.918 -2.678,5.454c3.264,17.686 10.353,13.315 23.993,29.578c-7.55,5.064 -7.474,5.076 -8.154,5.47c-9.535,5.515 -40.238,-36.149 -21.26,-56.151c5.4,-5.691 20.968,-9.148 21.551,-9.098c4.74,0.406 9.081,31.894 2.401,23.277c-7.275,-9.385 -18.042,-3.145 -17.272,0.071c0.154,0.641 1.265,0.757 1.419,1.399Z" style="fill:#f6cbb4;"/><path d="M1597.861,1030.413c0.812,-0.085 0.758,-1.767 1.57,-1.852c0.811,-0.085 4.072,16.215 17.738,26.056c5.158,3.714 5.066,5.513 -0.05,9.16c-13.958,9.947 -15.58,19.357 -16.059,19.723c-4.781,3.662 -3.933,-0.85 -7.304,-5.949c-11.947,-18.071 -27.073,-15.639 -18.038,-21.213c8.681,-5.355 12.319,-2.687 22.143,-25.925Z" style="fill:#efafba;"/><path d="M769.858,1324.004c-15.292,13.45 -75.06,52.116 -137.888,53.459c-0.071,-0.957 -1.675,-1.352 -1.746,-2.309c-0.568,-7.699 8.91,5.541 92.835,-30.883c42.013,-18.234 39.575,-22.878 43.512,-23.331c1.498,-0.172 1.789,3.235 3.287,3.063Z" style="fill:#ab5f66;"/><path d="M1175.739,838.985c1.94,0.214 56.772,0.636 82.626,62.402c-3.304,-0.054 -6.608,-0.109 -9.912,-0.163c-9.194,-18.467 -35.199,-41.597 -58.292,-49.141c-9.721,-3.176 -8.484,-4.932 -14.422,-13.098Z" style="fill:#fad9d7;"/><path d="M1233.736,934.766c3.307,18.673 -0.583,20.015 -1.684,38.59c-0.327,0.298 0.621,1.824 -29.512,16.712l-2.68,-2.257c0.409,-1.362 2.149,-2.074 2.558,-3.435c0.351,-1.166 -11.915,-6.573 -22.532,-20.472c2.305,-1.261 1.183,-2.21 3.307,-3.372c0.156,-0.085 0.272,-0.149 2.202,0.359c20.843,5.483 30.984,15.219 42.684,-16.895c1.882,-5.165 2.335,-4.797 5.656,-9.23Z" style="fill:#e38f9b;"/><path d="M1124.578,326.865c19.077,-12.926 21.68,-19.321 22.461,-13.117c0.208,1.649 -15.121,48.169 -16.495,52.339c-1.9,5.765 -4.546,5.083 -24.838,-3.812c6.204,-8.114 6.307,-7.842 6.765,-8.585l2.361,-2.356c0.859,-2.329 1.718,-4.657 2.577,-6.986c0.776,-1.599 1.552,-3.197 2.328,-4.796c0.62,-0.457 1.689,0.189 2.309,-0.268c0.544,-0.401 0.109,-1.49 0.642,-1.906c5.299,-4.149 5.397,-4.007 5.382,-4.528c-0.016,-0.552 -0.259,-0.443 -3.493,-5.983Z" style="fill:#ec9ea5;"/><path d="M1252.551,674.062c0.074,0.933 7.968,48.923 9.504,52.376c18.996,42.698 45.302,62.761 42.245,68.487c-0.323,0.605 -0.496,0.403 -6.7,5.434l-0.983,-1.234c-3.278,-9.836 -41.951,-59.788 -41.991,-77.688c-0.056,-24.942 -13.503,-34.663 -2.075,-47.376Z" style="fill:#8e5a43;"/><path d="M926.428,1102.44c4.662,2.427 4.626,2.216 8.63,5.764c-17.026,11.873 -46.2,20.382 -72.234,51.692c-0.42,0.505 -0.64,0.769 -7.172,4.072c-0.525,0.025 -1.733,-0.829 -4.89,0.231c-4.239,1.423 -5.66,-2.356 -5.697,-2.371c57.168,-53.667 71.571,-49.127 81.363,-59.388Z" style="fill:#aa5960;"/><path d="M1213.991,995.857c13.879,-7.209 14.812,-5.356 37.301,-22.029c12.788,-9.48 16.722,8.148 16.69,8.454c-1.2,11.322 -19.37,10.619 -20.181,10.765c-14.232,2.557 -5.314,21.483 -26.61,18.608c5.843,-8.415 5.9,-13.333 -4.482,-13.045l-2.718,-2.754Z" style="fill:#f4d095;"/><path d="M385.871,444.317c2.694,6.104 0.544,8.117 15.449,17.594c10.184,6.475 -1.66,9.415 -4.658,11.67c-10.82,8.139 -9.61,25.519 -14.963,13.039c-4.872,-11.358 -22.096,-17.845 -16.212,-22.443c19.257,-15.048 14.408,-18.759 16.099,-19.932c1.168,-0.81 3.117,0.883 4.285,0.072Z" style="fill:#ecc889;"/><path d="M1756.276,683.922c-25.858,19.406 -41.287,-33.274 -7.612,-28.814c7.763,1.028 11.761,7.764 12.919,11.547c3.113,10.162 -4.643,16.419 -5.308,17.267Z" style="fill:#debd8c;"/><path d="M246.585,860.391c23.845,1.225 16.158,24.03 13.893,26.438c-20.549,21.848 -47.824,-19.082 -13.893,-26.438Z" style="fill:#dec191;"/><path d="M899.101,439.501c-18.561,17.554 -45.006,35.604 -40.807,16.552c3.074,-13.948 46.708,-44.539 43.63,-21.314c-0.392,2.961 -1.036,2.534 -2.823,4.763Z" style="fill:#d79f7e;"/><path d="M1609.151,1483.93c-28.649,-7.943 -11.731,-26.861 -9.897,-27.965c26.137,-15.727 38.289,26.751 9.897,27.965Z" style="fill:#e5c294;"/><path d="M434.382,1460.982c-3.731,-23.684 17.826,-20.771 23.373,-17.793c22.692,12.184 -9.416,48.173 -23.373,17.793Z" style="fill:#e0c393;"/><path d="M1806.172,1001.869c31.486,19.42 -10.991,44.989 -19.818,20.937c-1.15,-3.133 -2.574,-23.775 19.818,-20.937Z" style="fill:#e1c290;"/><path d="M1530.064,398.223c-23.83,-18.501 1.24,-29.225 2.07,-29.305c29.968,-2.88 22.934,36.79 -2.07,29.305Z" style="fill:#dec597;"/><path d="M1019.141,922.515c1.934,-0.264 15.726,-2.144 19.357,14.645c6.264,28.96 -40.351,30.381 -29.371,-2.59c22.286,18.065 16.503,-9.325 12.515,-12.766c-0.653,-0.563 -1.849,1.274 -2.501,0.71Z" style="fill:#ea9caa;"/><path d="M653.06,514.825c-17.866,10.341 -13.343,28.987 -18.306,19.021c-5.415,-10.874 -4.984,-11.458 -15.566,-17.859c-8.023,-4.853 5.437,-5.166 11.739,-17.761c2.711,-5.418 1.535,-9.566 5.566,-6.495c1.128,0.859 3.632,12.68 12.581,18.167c1.075,0.659 2.586,0.745 3.375,1.721c0.688,0.851 -0.077,2.356 0.611,3.207Z" style="fill:#f2cd8a;"/><path d="M426.902,989.091c-7.585,-0.528 -2.338,-6.276 -12.739,-17.753c-3.127,-3.45 -5.703,-1.806 -5.421,-5.807c0.281,-4.001 3.685,-1.386 8.101,-7.574c1.925,-2.697 8.058,-14.341 9.397,-12.666c5.496,6.873 2.593,8.632 8.938,14.791c0.113,0.109 8.327,5.321 6.26,7.762c-3.851,4.547 -4.752,3.335 -8.784,7.807c-3.416,3.789 -2.586,4.163 -5.751,13.441Z" style="fill:#eeca9c;"/><path d="M1004.414,712.733c34.875,16.498 46.47,-16.268 51.343,-5.743c7.614,16.446 -49.211,29.552 -63.255,7.61c-9.079,-14.185 11.083,-2.353 11.912,-1.867Z" style="fill:#7a4437;"/><path d="M918.059,323.484l-0.696,2.127c-0.103,0.275 -3.517,3.149 -0.379,9.198c3.185,6.137 2.876,8.173 5.989,14.545l0.075,2.331c0.349,0.784 3.733,8.379 5.388,9.296c0.689,0.382 2.182,-0.954 2.363,-0.196c0.252,1.054 -2.005,1.698 -1.753,2.751l1.648,3.28c-7.927,3.748 -7.707,4.28 -10.068,4.252c-4.732,-0.054 -3.81,-2.399 -19.708,-54.925c-1.994,-6.588 4.002,-2.214 17.14,7.34Z" style="fill:#f2b3b4;"/><path d="M1213.991,995.857l2.718,2.754c10.382,-0.289 10.325,4.629 4.482,13.045c-10.369,-2.77 -10.718,-0.798 -17.564,7.562c-3.336,4.074 -13.077,9.556 -15.484,3.119c-7.827,-20.929 5.416,-16.948 25.847,-26.48Z" style="fill:#ecb77a;"/><path d="M745.811,792.689c-5.579,17.345 -5.259,17.249 -9.204,35.043c-5.022,-0.041 -4.883,0.013 -6.057,-0.125c-10.412,-1.219 -7.803,-20.872 -4.454,-27.782c6.309,-13.017 10.596,-18.625 19.715,-7.136Z" style="fill:#d9a380;"/><path d="M1062.774,404.253c1.489,-0.42 13.545,-3.819 19.149,-2.818c3.766,0.673 3.012,3.984 -0.117,4.535c-42.254,7.442 -83.533,41.382 -94.113,36.535c-5.886,-2.697 4.814,-5.058 5.403,-5.188c11.309,-2.495 14.685,-11.054 69.677,-33.064Z" style="fill:#8d5944;"/><path d="M950.703,346.132c-2.986,-5.443 -4.628,-8.414 -1.836,-18.385c2.425,-8.659 2.072,-13.432 10.336,-9.332c17.63,8.746 10.464,44.829 -8.5,27.718Z" style="fill:#e9a09d;"/><path d="M346.47,915.365c3.964,29.753 -34.984,16.925 -24.019,-1.402c5.216,-8.717 17.243,-10.663 24.019,1.402Z" style="fill:#fcfbf9;"/><path d="M752.729,1241.098c-3.006,3.301 -16.86,22.446 -23.681,17.345c-6.286,-4.701 4.473,-24.002 18.707,-31.387c3.506,-1.819 17.19,-1.341 4.974,14.042Z" style="fill:#fad1ce;"/><path d="M1101.394,335.083c-1.377,7.952 -2.451,7.408 -5.902,13.348c-22.729,13.703 -19.756,-22.209 -3.795,-29.407c1.799,-0.811 5.209,5.373 5.521,5.939c2.686,4.871 3.026,4.616 4.176,10.12Z" style="fill:#eba4aa;"/><path d="M1249.718,923.407c3.104,5.992 2.709,5.947 4.474,12.302c-0.286,1.223 -0.571,2.447 -0.857,3.67c0.12,1.355 -0.644,1.092 -0.519,2.502c0.051,0.575 0.093,0.527 1.258,7.112l1.866,2.728c-5.855,9.77 -6.313,9.199 -14.808,16.969c-1.158,-3.66 -2.216,-3.626 -0.53,-7.872c1.555,-3.916 2.126,-13.714 0.848,-21.464c-2.387,-14.471 -6.606,-11.39 -7.636,-11.464l0.303,-2.6l1.847,-1.325l2.407,-0.225l11.345,-0.334Z" style="fill:#e89ea9;"/><path d="M1572.989,1219.091c27.397,12.89 -9.344,38.045 -14.704,16.766c-4.673,-18.553 12.912,-16.932 14.704,-16.766Z" style="fill:#fbfbf9;"/><path d="M1027.321,300.968c1.703,1.088 13.887,8.871 5.772,24.335c-12.022,22.907 -22.325,0.989 -21.537,-13.99c10.195,5.433 9.749,-0.531 15.765,-10.345Z" style="fill:#eb9ca8;"/><path d="M1223.251,649.47c0.644,1.56 3.292,1.679 3.936,3.239c0.139,0.337 -0.686,0.029 -1.772,4.203c-4.937,18.972 -14.254,14.453 -20.526,28.483c-2.314,-1.019 -9.832,-0.137 -2.668,-18.482c5.876,-15.046 17.293,-15.944 21.03,-17.443Z" style="fill:#efb19f;"/><path d="M498.122,595.743c6.764,-28.119 24.563,31.816 18.156,35.661c-2.767,1.661 -10.218,4.009 -18.156,-35.661Z" style="fill:#d9a5af;"/><path d="M643.653,703.938c-2.08,0.334 -23.933,3.847 -26.33,0.939c-7.969,-9.667 51.486,-23.787 42.457,-7.688c-2.726,4.861 -4.078,3.073 -16.127,6.749Z" style="fill:#d59ca4;"/><path d="M441.293,767.942c-22.048,5.865 -10.521,-8.558 -9.584,-9.051c2.64,-1.389 44.628,-23.482 36.843,-6.38c-1.36,2.989 -24.999,14.345 -27.26,15.431Z" style="fill:#d5a4ab;"/><path d="M822.923,649.476c6.597,2.341 16.406,4.13 22.464,17.699c6.265,14.032 0.137,16.761 -1.149,17.333c-13.641,-16.264 -20.729,-11.892 -23.993,-29.578c-0.837,-4.537 2.484,-5.059 2.678,-5.454Z" style="fill:#eaa895;"/><path d="M453.663,647.984c2.002,1.328 28.521,18.924 18.958,23.116c-2.311,1.013 -5.236,2.296 -28.013,-14.447c-14.77,-10.856 -4.598,-15.491 -0.325,-13.978c0.814,0.288 0.695,0.393 9.381,5.308Z" style="fill:#dba7ae;"/><path d="M1728.315,915.992c-0.105,-1.731 -1.312,-21.701 15.79,-15.104c21.398,8.254 -6.932,41.303 -15.79,15.104Z" style="fill:#fbfbf8;"/><path d="M578.654,633.655c-8.603,16.301 -12.957,10.469 -13.321,9.237c-2.394,-8.115 17.737,-53.48 23.12,-35.212c1.403,4.761 -7.891,21.986 -9.799,25.975Z" style="fill:#cf9ea4;"/><path d="M1248.454,901.224c3.304,0.054 6.608,0.109 9.912,0.163c2.042,9.514 8.194,24.598 -2.424,50.335l-1.866,-2.728c-1.165,-6.585 -1.207,-6.537 -1.258,-7.112c-0.125,-1.41 0.639,-1.147 0.519,-2.502c0.286,-1.223 0.571,-2.447 0.857,-3.67c-1.766,-6.355 -1.371,-6.31 -4.474,-12.302c0.589,-11.252 -1.999,-10.989 -1.265,-22.183Z" style="fill:#f7c2c3;"/><path d="M507.912,815.906c-0.619,1.972 -11.142,35.507 -17.581,19.124c-3.404,-8.659 16.329,-49.494 20.206,-30.517c0.187,0.916 -0.193,0.838 -2.625,11.394Z" style="fill:#d39ea8;"/><path d="M1478.574,1462.617c0.262,3.918 2.026,5.753 -1.825,5.721c-1.502,-0.012 -2.984,0.355 -4.481,0.479c-5.725,0.472 -4.851,4.426 -5.403,4.87c-0.618,0.496 -1.413,-0.891 -2.211,-0.901c-38.931,-0.49 -40.076,3.283 -52.996,-4.64c8.207,-2.452 8.12,-2.137 16.846,-2.238c46.701,-0.544 47.21,-0.516 50.07,-3.29Z" style="fill:#eabc7c;"/><path d="M1316.658,814.866c-11.866,-15.078 -7.082,-22.326 -5.82,-24.537c8.514,-14.912 35.635,34.531 5.82,24.537Z" style="fill:#d7a183;"/><path d="M521.036,676.406c1.352,1.077 3.855,-1.409 5.207,-0.332c0.289,0.23 -5.162,0.523 -0.103,4.568c3.887,3.108 7.71,27.672 -2.736,31.121c-9.623,3.177 -10.419,1.045 -15.209,-7.92c13.872,-8.719 10.101,-11.587 12.841,-27.437Z" style="fill:#f8e5e0;"/><path d="M512.868,1332.934c-6.793,26.816 -34.767,1.567 -17.8,-11.153c2.38,-1.785 8.3,-1.817 11.286,-0.136c6.537,3.679 6.244,9.676 6.514,11.289Z" style="fill:#ddb383;"/><path d="M634.606,775.132c22.441,12.391 10.892,18.468 9.222,18.44c-1.277,-0.021 -14.134,-4.568 -25.941,-15.729c-21.13,-19.974 15.489,-3.273 16.719,-2.712Z" style="fill:#d29ca1;"/><path d="M785.605,539.107c-0.242,0.671 1.166,1.263 0.924,1.934c-1.92,5.328 -4.11,4.195 -5.408,9.773c-0.459,1.973 -3.656,15.709 10.666,23.019c2.608,1.331 0.471,2.078 0.686,3.027l-2.141,2.95c-4.093,-3.246 -13.511,-8.195 -16.441,-24.301c-3.762,-20.679 4.705,-39.011 6.733,-25.874c0.839,5.435 1.74,4.946 4.981,9.471Z" style="fill:#d0957d;"/><path d="M1224.774,467.617c4.872,27.891 -31.221,2.444 -17.628,-11.582c4.981,-5.139 8.71,-2.572 9.339,-2.139c3.072,2.115 7.765,12.553 8.29,13.721Z" style="fill:#dea381;"/><path d="M1207.822,730.781c0.159,1.8 1.874,21.205 -5.496,21.928c-17.324,1.699 -3.028,-53.124 2.985,-31.486c0.882,3.174 1.628,6.383 2.51,9.557Z" style="fill:#f7d5a4;"/><path d="M899.607,452.141c20.603,-9.911 18.057,2.286 17.737,3.679c-2.652,11.532 -14.253,14.121 -15.946,14.499c-3.079,0.687 -22.431,-0.459 -1.791,-18.178Z" style="fill:#daa484;"/><path d="M1607.564,650.336c0.088,-0.976 0.847,-9.394 4.112,-11.565c3.197,-2.126 10.485,-2.174 14.002,2.255c11.208,14.116 -14.605,33.577 -18.114,9.31Z" style="fill:#d7ae87;"/><path d="M363.865,605.242c1.75,-7.26 1.045,-8.506 8.204,-11.021c2.754,-0.968 8.665,0.177 11.065,2.493c12.858,12.409 -14.699,33.77 -19.269,8.528Z" style="fill:#d4af88;"/><path d="M853.895,745.353c-5.69,12.369 -17.67,5.221 -13.176,-14.535c0.262,-1.15 5.131,-22.555 9.427,-11.436c4.819,12.472 4.479,12.524 3.749,25.971Z" style="fill:#f9d9a1;"/><path d="M943.415,581.72c-4.211,4.216 -4.635,3.614 -10.736,3.764c-17.932,0.442 -26.631,7.599 -28.896,7.905c-17.977,2.424 21.165,-31.966 39.632,-11.669Z" style="fill:#7e4338;"/><path d="M1120.533,585.35c-13.39,0.067 -13.305,0.109 -14.461,0.073c-7.121,-0.223 -5.99,-9.297 4.817,-10.255c29.5,-2.616 38.767,17.201 28.821,15.399c-9.944,-1.801 -9.364,-3.184 -19.177,-5.217Z" style="fill:#733c34;"/><path d="M1293.681,1242.945c-0.501,-0.827 -4.864,-8.034 -3.765,-11.446c5.241,-16.279 34.406,20.723 18.225,22.991c-4.109,0.576 -13.501,-10.423 -14.46,-11.545Z" style="fill:#facbcc;"/><path d="M824.076,949.064c2.335,17.93 0.893,17.928 0.707,18.627c-1.774,-0.447 -3.549,-0.894 -5.323,-1.342c-0.111,-4.192 -11.759,-45.251 0.084,-45.512c5.791,-0.128 4.462,26.017 4.531,28.226Z" style="fill:#b66a6f;"/><path d="M1177.963,484.589c4.741,5.579 4.508,5.478 8.547,11.372c-14.99,25.134 -25.4,-9.107 -21.948,-13.363c5.183,-6.39 6.416,-2.213 13.402,1.991Z" style="fill:#e1a989;"/><path d="M1707.85,1316.309c9.609,23.794 -26.297,19.185 -18.802,2.673c6.855,-15.103 17.757,-3.76 18.802,-2.673Z" style="fill:#dfafb8;"/><path d="M749.008,339.691c-10.568,21.754 -29.361,-1.682 -15.919,-11.372c2.347,-1.692 8.501,-1.679 11.325,0.4c5.353,3.941 4.7,4.58 4.594,10.972Z" style="fill:#ddc197;"/><path d="M862.718,839.287c44.594,-7.474 42.55,7.006 42.073,10.391l-3.405,-1.824c-15.278,-2.465 -15.212,1.934 -16.312,1.236c-2.547,-1.617 -2.351,-1.886 -5.304,-2.246c-2.22,-0.271 -4.461,-0.347 -6.68,-0.618c-7.326,-0.93 -7.18,-1.105 -7.809,-1.165l1.21,-2.729c-1.257,-1.015 -2.514,-2.029 -3.772,-3.044Z" style="fill:#e9a9b1;"/><path d="M1605.298,1188.503c2.305,-6.759 1.623,-8.256 8.612,-9.43c1.229,-0.206 5.61,-0.779 9.028,2.74c10.795,11.115 -11.821,29.136 -17.64,6.69Z" style="fill:#deb682;"/><path d="M1233.816,927.89c1.03,0.074 5.249,-3.007 7.636,11.464c1.278,7.749 0.707,17.548 -0.848,21.464c-1.686,4.246 -0.629,4.212 0.53,7.872c-4.08,3.325 -4.065,3.214 -9.083,4.665c1.102,-18.575 4.991,-19.917 1.684,-38.59c-0.488,-3.523 -0.392,-3.412 0.08,-6.875Z" style="fill:#b55d68;"/><path d="M1099.57,1154.765c16.691,24.607 17.229,24.007 23.783,35.594c-0.898,0.059 -1.539,4.695 -6.137,0.402c-3.694,-3.449 -3.306,-3.446 -6.211,-7.275c-4.696,-6.192 -4.341,-6.143 -8.818,-12.44c-3.385,-4.761 -8.633,-7.89 -8.937,-8.728c-0.301,-0.828 1.479,-1.542 1.178,-2.37l0.968,-2.37l4.175,-2.812Z" style="fill:#e4949f;"/><path d="M1018.866,215.577c12.09,-4.689 17.06,5.583 15.037,12.892c-4.211,15.212 -17.765,5.319 -19.021,4.402c3.613,-4.46 3.687,-4.372 3.902,-4.817c0.348,-0.72 4.251,-8.795 4.099,-9.106c-0.762,-1.562 -3.255,-1.81 -4.017,-3.372Z" style="fill:#ef9fb8;"/><path d="M1149.067,856.682c2.91,-0.323 37.212,-4.126 35.452,8.951c-0.812,6.03 -8.773,-5.406 -33.494,0.199c-1.995,-4.576 -1.95,-4.405 -1.959,-9.151Z" style="fill:#b76971;"/><path d="M380.691,1204.994c-5.542,22.387 -25.075,3.963 -15.16,-6.238c3.629,-3.734 7.955,-3.127 8.684,-3.025c7.11,0.997 6.413,8.84 6.476,9.263Z" style="fill:#fbfbf8;"/><path d="M277.353,1214.636c1.834,23.37 -26.345,6.05 -15.647,-4.32c8.124,-7.875 14.972,3.226 15.647,4.32Z" style="fill:#e8c2ca;"/><path d="M1172.091,957.065c6.065,-1.175 5.074,1.402 7.795,6.839c10.617,13.899 22.882,19.306 22.532,20.472c-0.409,1.362 -2.149,2.074 -2.558,3.435c-28.477,-11.204 -23.396,-18.293 -27.769,-30.746Z" style="fill:#b56a72;"/><path d="M376.556,857.466c-15.951,-5.74 -2.973,-16.045 -1.873,-16.664c11.313,-6.368 24.353,14.49 1.873,16.664Z" style="fill:#dab988;"/><path d="M709.06,1276.508c18.574,-5.612 7.895,14.944 -0.213,18.592c-1.374,0.618 -18.165,-0.267 0.213,-18.592Z" style="fill:#fcdbda;"/><path d="M934.772,457.48c20.398,-4.316 9.541,11.144 4.4,14.024c-7.059,3.954 -23.471,-3.405 -4.4,-14.024Z" style="fill:#d6a083;"/><path d="M900.666,855.645c0.091,5.981 0.391,5.956 -0.285,8.227c-22.175,-4.053 -41.892,7.999 -32.397,-2.324c8.785,-9.55 30.055,-6.304 32.682,-5.903Z" style="fill:#ae626c;"/><path d="M1714.715,969.801c-1.445,0.206 -18.757,2.671 -11.803,-13.707c5.488,-12.926 24.305,3.815 11.803,13.707Z" style="fill:#faf8f6;"/><path d="M1450.261,451.299c18.658,-9.757 20.013,11.905 9.631,14.396c-17.095,4.101 -10.148,-13.114 -9.631,-14.396Z" style="fill:#dfba8e;"/><path d="M487.126,515.027c1.017,-0.769 13.469,-10.181 15.243,4.878c1.408,11.953 -23.18,15.778 -15.243,-4.878Z" style="fill:#faf9f4;"/><path d="M1695.472,742.823c-0.006,-1.251 -0.079,-15.404 12.379,-9.787c11.127,5.017 -1.432,29.408 -12.379,9.787Z" style="fill:#fbf7f2;"/><path d="M1371.18,470.185c0.809,-4.558 0.013,-5.467 4.367,-7.162c0.692,-0.27 5.44,-2.118 9.285,0.58c12.546,8.804 -8.393,25.496 -13.652,6.582Z" style="fill:#e6cda7;"/><path d="M1536.803,477.286c-6.056,8.353 -18.509,13.829 -18.136,-7.054c0.108,-6.056 2.972,-1.703 4.349,-1.421c4.211,0.863 10.533,-4.9 13.787,8.476Z" style="fill:#fdfbf8;"/><path d="M1397.918,1718.925c7.812,20.889 -1.555,19.841 -2.866,19.007c-5.067,-3.225 -13.354,-40.617 2.866,-19.007Z" style="fill:#fcd9d4;"/><path d="M629.493,730.645c0.873,0.459 11.135,5.852 4.261,11.428c-9.188,7.454 -31.89,-16.408 -9.354,-12.807c0.417,0.067 0.377,0.102 5.093,1.378Z" style="fill:#f0e0e0;"/><path d="M439.123,705.208c-4.353,-2.524 -4.426,-2.393 -4.702,-2.726c-10.574,-12.769 31.989,-9.06 19.416,2.552c-1.974,1.823 -13.547,0.325 -14.714,0.174Z" style="fill:#ddb2b7;"/><path d="M1671.608,1093.255c1.169,0.17 12.572,1.828 7.673,12.422c-5.883,12.721 -26.542,-6.127 -7.673,-12.422Z" style="fill:#fbf7f5;"/><path d="M755.416,811.67c0.467,-1.058 6.478,-14.679 12.901,-6.833c6.717,8.205 -11.991,31.263 -12.901,6.833Z" style="fill:#e0a987;"/><path d="M1019.141,922.515c0.653,0.563 1.849,-1.274 2.501,-0.71c3.988,3.44 9.771,30.831 -12.515,12.766c3.977,-6.911 3.488,-7.138 10.014,-12.055Z" style="fill:#f8cbd1;"/><path d="M562.423,1567.647c1.996,-8.961 0.003,-13.292 9.206,-11.9c11.694,1.769 -7.922,36.748 -9.206,11.9Z" style="fill:#fde4e1;"/><path d="M1264.361,536.195c3.528,-4.428 2.354,-4.874 4.626,-9.984c2.354,-5.296 8.524,9.04 6.707,24.446c-0.506,4.284 -1.02,3.955 -2.669,7.752c-0.707,-1.63 -2.078,-0.953 -3.102,-7.752c-0.06,-0.402 -0.168,-3.783 -0.121,-4.649c0.529,-9.807 -3.407,-7.942 -5.442,-9.813Z" style="fill:#b87f69;"/><path d="M1096.306,263.92c1.016,-0.379 11.424,-4.256 12.728,4.661c2.058,14.064 -23.797,8.996 -12.728,-4.661Z" style="fill:#efa8b1;"/><path d="M941.915,263.294c0.534,-0.182 4.78,-1.629 7.051,-0.495c3.939,1.967 4.814,6.404 4.394,8.186c-2.7,11.454 -23.85,6.167 -11.445,-7.691Z" style="fill:#f6bfb9;"/><path d="M446.686,1284.748c-0.94,-0.577 -10.193,-6.25 -2.628,-13.384c8.211,-7.744 22.499,14.093 2.628,13.384Z" style="fill:#fcf8f5;"/><path d="M478.536,771.816c18.622,-16.019 8.256,8.593 6.118,10.847c-0.688,0.725 -13.502,6.959 -6.118,-10.847Z" style="fill:#f2e9e6;"/><path d="M1524.076,1652.744c-10.284,17.14 -18.71,-6.794 -8.859,-9.147c9.438,-2.255 8.91,8.137 8.859,9.147Z" style="fill:#fad7d1;"/><path d="M525.009,1645.55c0.381,-0.91 4.476,-10.706 11.274,-5.314c8.833,7.007 -15.701,23.701 -11.274,5.314Z" style="fill:#fcd6d0;"/><path d="M1503.242,1292.785c-1.058,0.306 -14.826,4.289 -9.745,-9.593c3.383,-9.242 17.855,-1.206 9.745,9.593Z" style="fill:#fcf9f5;"/><path d="M860.119,977.054c9.182,-6.658 8.449,-7.17 17.12,-14.167c16.556,-13.358 -7.019,19.329 -16.7,19.43c-0,0 -0.387,-4.843 -0.42,-5.264Z" style="fill:#b66a6f;"/><path d="M1163.47,285.676c7.962,13.947 -11.982,15.627 -11.106,4.496c0.606,-7.699 10.189,-4.776 11.106,-4.496Z" style="fill:#e898a8;"/><path d="M609.8,642.376c9.721,0.756 7.628,6.255 -0.016,12.204c-7.733,6.018 -12.216,-5.664 0.016,-12.204Z" style="fill:#e4d4d2;"/><path d="M1279.43,1211.876c10.077,9.224 -0.229,15.305 -6.689,8.916c-6.95,-6.874 -2.593,-11.759 6.689,-8.916Z" style="fill:#facdcf;"/><path d="M891.56,285.66c0.574,0.785 8.009,10.953 -2.174,11.901c-8.029,0.747 -14.713,-15.316 2.174,-11.901Z" style="fill:#eb9fa0;"/><path d="M1159.416,882.089c1.097,0.927 21.185,17.908 9.054,15.395c-8.442,-1.749 -6.078,-7.072 -15.065,-7.908c-0.012,-0.391 -0.151,-4.885 -0.151,-4.885c1.708,-1.419 4.453,-1.183 6.162,-2.602Z" style="fill:#ad5b63;"/><path d="M835.484,867.946c19.508,15.738 2.11,17.708 0.985,16.926c-4.149,-2.883 4.02,-6.301 -0.644,-8.211c-4.436,-1.817 -3.242,-2.923 -4.975,-4.485c2.196,-2.31 1.951,-2.233 4.634,-4.229Z" style="fill:#f6c4c8;"/><path d="M1370.994,291.392c-2.355,9.856 1.418,15.629 -10.105,20.077c0.209,-14.973 0.628,-17.567 10.105,-20.077Z" style="fill:#f3b3c0;"/><path d="M1027.321,300.968c-6.016,9.814 -5.57,15.779 -15.765,10.345c1.859,-3.866 4.165,-14.5 15.765,-10.345Z" style="fill:#fcdcd8;"/><path d="M446.012,536.491c1.507,-3.753 1.05,-5.032 5.256,-4.684c0.629,0.052 4.62,0.382 6.066,4.972c1.533,4.868 -9.305,17.695 -11.322,-0.289Z" style="fill:#fdf9f8;"/><path d="M896.71,880.328c0.038,1.551 0.077,3.101 0.115,4.652c-11.791,11.115 -10.832,12.06 -12.2,12.352c-4.647,0.993 -8.173,-8.16 12.084,-17.004Z" style="fill:#b5666e;"/><path d="M549.196,762.306c-0.356,-0.801 -4.257,-9.58 3.06,-10.505c8.314,-1.051 9.422,19.827 -3.06,10.505Z" style="fill:#efb081;"/><path d="M1018.866,215.577c0.762,1.562 3.255,1.81 4.017,3.372c0.152,0.312 -3.751,8.387 -4.099,9.106c-0.215,0.445 -0.289,0.357 -3.902,4.817c-4.137,-10.574 -2.131,-11.939 3.984,-17.295Z" style="fill:#f6c9d4;"/><path d="M1208.059,880.054c7.341,6.396 10.891,4.554 9.879,9.481c-0.2,0.973 -2.043,6.445 -11.992,-3.791c0.704,-1.897 1.408,-3.793 2.112,-5.69Z" style="fill:#f8c0c6;"/><path d="M1101.394,335.083c4.317,5.712 5.08,5.663 4.383,7.12c-0.629,1.314 -2.841,3.6 -3.119,3.887c-0.369,0.381 -4.292,4.435 -4.94,4.427c-1.024,-0.013 -1.201,-2.074 -2.225,-2.086c3.45,-5.94 4.525,-5.396 5.902,-13.348Z" style="fill:#f2bf9e;"/><path d="M845.998,700.598c-10.638,-4.322 -1.284,-8.728 2.408,-7.546c6.266,2.006 3.982,5.484 -2.408,7.546Z" style="fill:#f2cbaf;"/><path d="M1198.468,691.654c0.627,0.004 6.258,0.044 6.999,3.474c1.301,6.025 -11.898,6.56 -6.999,-3.474Z" style="fill:#f5cdac;"/><path d="M627.047,975.01c-1.178,1.247 -2.357,2.495 -3.535,3.742c-1.73,-10.084 -1.835,-10.07 -1.75,-10.994c0.066,-0.711 4.682,-3.794 5.285,7.252Z" style="fill:#9a5b53;"/><path d="M1208.059,880.054c-0.704,1.897 -1.408,3.793 -2.112,5.69c-3.906,-4.72 -6.808,-4.598 -3.983,-8.123c2.633,-3.286 3.205,-0.688 6.095,2.434Z" style="fill:#f8bec5;"/><path d="M860.633,733.253c3.908,5.088 4.54,5.194 2.784,11.956c-0.806,-1.198 1.509,-1.146 0.624,-2.46c-1.302,-1.935 -2.372,-0.425 -3.854,-2.339c-0.353,-0.456 0.115,-0.512 0.446,-7.156Z" style="fill:#894e40;"/><path d="M1460.803,1422.974c1.22,1.299 2.44,2.597 3.66,3.896l0.614,3.269c-6.126,-0.923 -6.105,-0.806 -7.23,-1.253c2.224,-2.734 2.249,-2.512 2.955,-5.913Z" style="fill:#b87369;"/><path d="M1118.071,339.846c-0.22,1.501 -0.441,3.001 -0.661,4.502c-0.859,2.329 -1.718,4.657 -2.577,6.986l0.997,-6.698c0.747,-1.597 1.494,-3.194 2.241,-4.79Z" style="fill:#e9a98b;"/><path d="M1220.958,712.344c-2.708,-3.123 -3.337,-5.004 0.68,-5.281c3.698,-0.255 -0.211,1.636 -0.68,5.281Z" style="fill:#91614e;"/><path d="M1118.071,339.846c1.963,-4.427 1.703,-4.674 2.115,-4.77c0,0 -0.412,4.118 -0.448,4.476c-0.776,1.599 -1.552,3.197 -2.328,4.796c0.22,-1.501 0.441,-3.001 0.661,-4.502Z" style="fill:#e8a386;"/><path d="M896.572,579.826l2.407,-1.928l2.407,0.224l-1.739,3.479l-3.075,-1.775Z" style="fill:#f6c8bb;"/><path d="M1115.829,344.636l-0.997,6.698l-2.361,2.356c0.147,-0.524 0.156,-0.495 3.358,-9.054Z" style="fill:#eaae8c;"/><path d="M851.513,1042.898c-3.34,0.713 -5.561,4.389 -4.636,0.99c0.802,-2.949 2.273,-3.263 2.607,-3.334c1.972,-0.421 0.141,2.747 2.029,2.344Z" style="fill:#7e4738;"/><path d="M1087.071,1325.896c2.303,0.375 0.944,-2.767 3.203,-2.399c0.282,0.046 4.756,0.775 1.554,3.174c-1.279,0.958 -3.477,-1.733 -4.756,-0.775Z" style="fill:#e79ba1;"/><path d="M490.784,1132.195c2.661,-2.221 2.493,-2.44 2.661,-2.221c0.897,1.167 -0.719,1.372 0.244,2.624c-0.968,-0.134 -1.937,-0.269 -2.905,-0.403Z" style="fill:#dcb388;"/><path d="M1430.018,1714.916c1.835,2.795 5.854,3.816 2.483,3.783c-0.366,-0.004 -0.178,-0.271 -2.483,-3.783Z" style="fill:#dc8a93;"/><path d="M1079.219,1252.424c2.545,1.766 6.007,0.972 3.365,2.335c-0.218,0.112 -1.802,0.929 -3.077,0.045c-0.663,-0.46 0.375,-1.92 -0.288,-2.38Z" style="fill:#e5b477;"/><path d="M833.281,582.21c-0.775,-0.988 -2.768,-0.374 -3.543,-1.362c-2.337,-2.979 1.054,-1.676 1.206,-1.618c1.973,0.758 0.389,2.231 2.337,2.979Z" style="fill:#9a6751;"/></g></svg>