<?xml version="1.0" encoding="UTF-8" standalone="no"?><!DOCTYPE svg PUBLIC "-//W3C//DTD SVG 1.1//EN" "http://www.w3.org/Graphics/SVG/1.1/DTD/svg11.dtd"><svg width="100%" height="100%" viewBox="0 0 1000 1024" version="1.1" xmlns="http://www.w3.org/2000/svg" xmlns:xlink="http://www.w3.org/1999/xlink" xml:space="preserve" xmlns:serif="http://www.serif.com/" style="fill-rule:evenodd;clip-rule:evenodd;stroke-linejoin:round;stroke-miterlimit:2;"><g id="Background"><path d="M505.323,78.727c-0.129,0.772 -0.258,1.543 -0.386,2.315c0.948,0.446 0.385,1.646 2.63,1.235c42.654,-7.799 41.88,13.619 46.041,16.514c17.204,11.969 52.963,-9.493 37.222,9.606c-4.001,4.855 -11.02,8.421 -6.366,11.185c3.386,2.011 24.043,8.288 3.096,12.823c-18.253,3.952 -34.964,0.937 -37.955,0.397c-11.997,-4.956 -8.234,-9.267 -13.336,-14.066c-3.869,-3.639 -34.363,-4.705 -34.491,3.257c-0.03,1.886 0.112,3.772 0.081,5.658c0.441,8.478 0.316,8.6 4.974,15.468c6.657,9.815 -3.789,15.145 -1.062,25.791c1.653,6.453 3.825,18.98 9.027,19.419c5.91,0.5 85.363,1.947 163.595,58.075c87.185,62.551 118.808,157.353 106.07,166.447c-25.311,18.068 -37.024,-63.228 -152.977,-110.867c-6.126,-2.517 -5.926,-3.537 -12.49,-3.074c-3.472,7.468 -3.507,8.092 7.392,46.206c22.135,77.406 41.833,76.237 31.733,89.722c-6.771,9.041 -6.26,9.279 -13.818,17.451c-2.258,2.442 -0.895,58.364 -1.254,69.323c-0.034,1.029 -0.616,18.821 2.298,12.649c1.136,-2.406 23.488,-69.041 23.435,-76.395c-0.047,-6.566 -9.514,-8.981 2.606,-20.798c6.608,-6.443 -4.389,-58.562 7.891,-45.394c5.819,6.24 12.336,-8.281 31.193,11.033c14.349,14.697 28.08,4.866 30.597,9.831c2.496,4.923 3.409,4.205 8.748,3.96c18.835,-0.867 15.285,11.532 34.727,14.453c-5.958,6.252 -7.259,4.983 -14.697,0.62c-9.994,-5.862 -8.217,-11.273 -21.956,-10.231c-1.303,0.171 -2.607,0.342 -3.91,0.513c-0.532,1.077 -8.211,16.636 3.948,14.551c14.13,-2.423 13.855,7.527 27.605,3.331c0.144,-0.044 0.109,0.201 1.881,-0.073c3.57,-0.551 2.78,1.249 3.57,1.604c-21.882,11.592 -26.149,-8.638 -36.664,1.52c-4.085,3.946 0.429,11.837 0.932,12.716c-6.8,3.286 -11.043,7.688 -11.859,8.534c5.45,-0.072 10.9,-0.143 16.35,-0.215c29.846,0.548 32.319,2.22 39.086,-9.279c28.079,-47.712 35.095,-67.632 53.294,-55.863c11.814,7.64 21.472,73.985 31.376,76.625c42.487,11.324 81.295,9.7 83.109,33.252c1.713,22.229 -32.738,33.821 -58.599,55.006c-5.425,4.444 8.315,70.01 -1.469,83.003c-12.642,16.788 -34.153,-2.565 -66.414,-25.904c-8.753,16.683 -15.993,11.98 -16.735,21.009c-1.642,19.972 0.944,19.883 -1.816,63.833c-0.046,0.739 -0.657,10.46 2.061,9.013c0.498,-0.265 0.077,-0.512 1.071,-7.13l0.022,-2.017c0.17,-1.315 -2.877,-12.36 18.753,-7.004c9.087,2.25 6.976,11.599 6.33,42.769c-0.321,15.493 -18.751,18.914 -18.172,33.7c1.388,35.411 12.743,145.068 8.144,151.895c-10.655,15.819 -56.414,10.741 -58.432,12.958c-4.471,4.912 -2.381,13.894 -41.479,19.711c-25.324,3.768 -60.252,0.463 -74.191,-10.775c-5.774,-4.656 -5.519,-5.262 -7.831,-5.309c-64.18,-1.298 -279.844,-0.004 -304.178,0.142c-7.964,0.048 -7.413,8.724 -27.156,14.065c-37.634,10.181 -85.08,5.216 -95.685,-13.336c-2.319,-4.057 -33.591,1.98 -56.977,-10.729c-11.577,-6.292 -6.761,-10.331 -5.078,-102.261c0.538,-29.39 3.979,-58.794 0.093,-63.03c-14.267,-15.552 -16.683,-15.091 -18.253,-36.367c-1.17,-15.859 -8.667,-32.779 20.927,-31.916c2.739,0.08 2.449,0.679 5.202,2.446c2.967,14.868 2.646,15.554 3.641,15.383c4.381,-0.755 1.31,-2.92 -0.367,-16.034c-3.75,-17.871 -1.741,-55.663 -6.886,-57.526c-16.343,-5.917 -16.541,-22.351 -12.104,-28.439c6.635,-9.103 19.755,-23.319 22.168,-32.241c-15.968,-62.058 -15.898,-112.937 5.164,-177.997c40.037,-109.48 122.792,-159.854 165.315,-182.149c81.277,-40.481 133.188,-30.994 135.185,-37.216c0.437,-1.363 0.748,-2.767 1.185,-4.13c4.71,-16.358 6.859,-16.973 2.31,-24.507c-7.021,-11.627 5.521,-16.874 5.576,-24.202c0.335,-45.22 1.728,-45.598 -0.679,-48.592c-0.264,-0.328 -8.598,-6.522 -5.257,-15.244c5.069,-13.234 29.473,-10.52 23.32,9.289Z" style="fill:#7e3b46;"/><path d="M400.577,321.513c-1.296,0.92 -12.037,8.545 -16.176,11.547c-0.944,0.807 -101.215,72.05 -77.324,196.092c6.386,33.154 26.057,64.348 29.259,69.426c-5.758,6.892 1.319,6.442 2.713,8.84c0.326,0.562 -0.533,1.38 -0.221,1.95c0.805,1.468 1.109,0.989 13.705,15.649c93.942,109.339 253.981,101.854 355.815,9.654c1.637,-1.482 19.285,-17.461 20.108,-18.936c1.361,-2.441 1.847,-1.746 3.977,-3.76c-0.34,3.583 -0.243,3.379 -0.204,7.186c-2.546,5.66 -3.782,5.748 -1.5,11.617c8.382,21.561 49.801,6.154 53.671,5.053c7.611,-1.557 9.704,-4.974 13.03,2.223c-26.459,51.717 -71.01,116.532 -175.163,157.298c-231.953,90.788 -500.16,-105.984 -446.018,-358.127c10.253,-47.748 33.401,-83.79 37.614,-90.349c12.685,7.041 6.817,-9.081 55.795,-55.242c76.537,-72.136 180.688,-96.442 252.544,-89.481c21.459,2.079 156.205,15.133 230.606,143.498c15.299,26.396 14.173,26.873 23.451,56.205c0.382,1.209 1.454,2.179 1.598,3.442c0.154,1.362 -0.904,2.678 -0.749,4.04c-22.709,-6.693 -57.42,-97.326 -182.3,-125.181c-98.824,-22.043 -180.702,28.934 -194.23,37.356Z" style="fill:#ac58cc;"/><path d="M715.28,475.369c39.671,-2.648 72.949,5.381 78.458,-8.024c1.503,-3.658 1.918,-3.416 24.319,-42.866c10.429,-18.366 13.68,-17.324 15.392,-16.775c10.122,3.245 20.838,75.46 33.071,77.827c26.602,5.148 26.383,5.358 52.779,11.27c-0.75,0.74 -1.172,1.787 -1.922,2.527c-2.623,2.586 -7.608,-1.209 -16.41,-2.026c-5.879,-0.546 -5.246,-3.203 -11.043,-3.164c-3.354,0.023 -16.584,-4.051 -21.498,-3.872c-15.838,0.577 -17.626,31.008 14.232,21.525c30.119,-8.966 32.786,-0.045 47.48,-10.73c1.027,-0.058 9.07,-0.51 12.744,1.741c2.523,1.546 2.666,0.72 4.928,-1.404c8.177,14.66 -0.321,20.043 -7.069,25.397c-18.112,14.97 -46.398,28.958 -50.074,37.922c-0.521,-0.629 0.975,-2.25 -2.697,-3.257c-2.706,-0.742 -2.765,1.125 -4.944,35.213c-2.274,12.876 -1.35,24.732 -12.94,23.24c-0.56,-0.072 -0.451,0.254 -6.186,3.483c-28.558,-23.738 -28.27,-24.019 -30.82,-25.987c-16.444,-12.691 -18.178,-3.544 -52.341,8.43c-24.999,8.763 -30.824,10.954 -32.001,-1.635c1.643,-6.971 1.516,-6.835 1.675,-7.422c1.48,-3.901 1.421,-3.76 2.567,-7.687c0.333,-1.846 0.666,-3.691 0.999,-5.537c0.75,-2.817 0.793,-2.629 0.962,-5.669c0.379,-0.868 4.311,-9.87 3.682,-11.27c-0.377,-0.839 -1.534,-1.115 -1.911,-1.954c5.05,-17.377 5.114,-17.24 5.454,-18.768c1.345,-6.047 0.47,-6.698 -24.738,-35.894c-8.808,-10.202 -8.972,-9.752 -9.709,-10.64c-6.312,-7.61 -5.821,-7.814 -11.848,-15.784c-2.306,-3.049 -1.65,-3.221 -2.476,-6.988l1.884,-1.221Z" style="fill:#cd369d;"/><path d="M445.962,440.938c-1.984,-61.909 -4.041,-62.447 -1.227,-66.952c7.296,-11.679 104.279,-13.605 104.583,3.184c0.277,15.277 -1.143,54.555 -0.418,91.895c0.346,17.839 -4.259,-1.624 -4.344,-2.007c-1.647,-7.451 -13.597,-5.477 -18.593,-4.986c-6.196,3.584 -3.057,5.827 -5.979,10.532c-0.941,1.515 -9.501,3.375 -10.521,-1.657c-0.339,-1.673 2.256,-11.804 -20.007,-8.902c-8.623,1.124 -4.066,11.635 -9.297,12.039c-9.677,0.747 -6.674,-4.324 -9.322,-8.568c-3.448,-5.526 -20.843,-5.849 -21.69,1.611c-0.048,0.42 -2.255,19.866 -3.525,3.845c-0.19,-2.395 0.699,-2.259 0.34,-30.033Z" style="fill:#fce5bb;"/><path d="M689.552,768.884c0.466,0.941 1.771,1.235 2.237,2.177c0.39,0.789 -4.91,31.78 -1.654,35.336c2.176,2.376 33.876,3.63 41.047,-0.088c3.043,8.35 3.196,17.728 3.956,37.762c-9.98,6.897 1.702,16.447 -7.102,17.445c-11.153,1.264 -12.57,2.944 -12.207,14.625c0.325,10.461 20.462,7.795 21.213,7.807c0.303,2.981 2.898,28.51 1.887,37.418c-3.89,0.654 -27.455,4.616 -49.233,1.984c-2.476,-0.299 -21.969,-2.656 -30.063,-8.433c-4.05,-2.891 6.054,-118.564 3.507,-129.785c2.034,-1.427 2.224,-1.025 26.413,-16.248Z" style="fill:#fdeebe;"/><path d="M235.357,712.721l2.687,2.524c2.616,1.439 3.036,0.715 7.031,5.452c5.088,6.033 27.019,27.506 29.413,29.85c-7.493,2.88 -8.885,1.547 -15.103,12.801c-6.592,16.989 -0.454,18.199 -5.258,35.872c-0.658,2.422 -0.251,2.362 -0.024,5.787c2.691,3.517 2.778,3.606 7.599,4.18c24.765,0.036 38.479,2.84 35.79,-9.82c-3.746,-17.641 -0.311,-18.154 -5.417,-35.489l2.429,0.355c0.877,0.873 2.491,0.599 3.368,1.471c0.322,0.32 0.191,0.379 2.574,5.118c-0.6,5.199 1.624,54.91 3.404,62.893c-13.25,0.759 -16.084,2.952 -13.484,16.271c0.068,0.35 0.564,2.889 2.214,3.836c2.081,1.194 2.108,0.717 11.111,1.388c1.036,5.373 0.047,5.429 3.68,68.365c-6.181,0.914 -51.863,7.668 -77.789,-6.699c-3.671,-6.928 -1.621,-7.295 -1.371,-16.311c2.433,2.587 3.009,2.141 3.704,5.646c0.523,2.64 0.659,2.454 2.16,4.501c1.299,1.772 6.223,1.248 6.206,-27.014l-0.195,-2.201c2.542,0.473 22.652,5.32 23.43,-5.306c1.463,-19.99 -8.023,-16.442 -21.826,-17.311c0.953,-3.442 1.641,-5.93 2.896,-44.636c1.202,-37.064 4.559,-85.022 -6.901,-65.624l-1.461,1.595l-2.429,2.129c0.148,-3.169 0.921,-19.687 1.563,-39.625Z" style="fill:#fdeebb;"/><path d="M562.964,613.492c0.385,46.819 0.529,46.637 0.322,50.686c-0.259,5.049 -16.867,3.498 -17.325,3.273c-4.088,-2.004 -1.84,-3.422 -2.228,-16.377c-1.169,-39.087 -36.17,-49.907 -56.106,-46.45c-46.601,8.082 -39.331,62.812 -39.552,63.591c-1.441,5.065 -3.374,2.125 -17.062,1.799c-1.639,-4.265 -0.538,-4.431 -1.009,-52.694l1.798,-1.902l1.301,-1.876c6.242,-9.312 38.5,-53.382 44.527,-58.612c8.058,-6.992 15.739,-27.435 22.016,-19.631c32.254,40.102 42.925,57.245 55.753,70.289c1.767,1.796 1.813,1.663 1.943,1.833c2.571,3.356 2.774,2.995 5.622,6.069Z" style="fill:#fdeebd;"/><path d="M166.439,774.771l2.397,0.922c1.959,0.788 1.643,1.481 3.637,1.464c0.736,-0.006 33.768,3.065 38.145,3.924c10.988,2.154 7.056,13.251 6.481,46.351c-1.356,78.08 -4.879,77.862 -4.516,84.633c-27.918,1.512 -36.828,-2.824 -46.83,-8.34c-4.036,-4.891 -2.968,-5.612 -1.39,-46.328l3.355,1.915l0.429,1.876l0.01,1.876l0.113,1.876l0.157,1.876l0.207,1.876l0.101,1.876l0.305,1.876l0.16,1.876l0.157,1.876c-0.485,14.278 3.415,12.954 4.404,12.618c1.155,-0.392 5.67,-59.119 0.876,-95.257c-0.51,-3.843 -1.851,-3.655 -4.984,-1.786l-3.375,1.848c0.053,-6.283 0.107,-12.566 0.16,-18.849Z" style="fill:#fdeebd;"/><path d="M213.861,346.876c131.364,-202.838 429.168,-206.682 547.334,-0.013c7.284,12.739 16.273,33.709 19.575,47.181c3.175,12.952 1.493,14.129 -3.664,15.293c-0.154,-1.362 0.904,-2.678 0.749,-4.04c-0.143,-1.263 -1.215,-2.233 -1.598,-3.442c-9.278,-29.332 -8.152,-29.809 -23.451,-56.205c-74.401,-128.366 -209.147,-141.419 -230.606,-143.498c-71.857,-6.961 -176.008,17.345 -252.544,89.481c-48.978,46.162 -43.111,62.284 -55.795,55.242Z" style="fill:#ea7db6;"/><path d="M715.28,475.369c-0.628,0.407 -1.256,0.814 -1.884,1.221c0.826,3.767 0.17,3.939 2.476,6.988c6.027,7.97 5.536,8.174 11.848,15.784c0.737,0.888 0.9,0.439 9.709,10.64c25.208,29.196 26.083,29.847 24.738,35.894c-0.34,1.528 -0.404,1.39 -5.454,18.768c-0.887,3.207 -1.775,6.414 -2.662,9.621c-0.3,1.818 -0.6,3.636 -0.9,5.455c-0.527,1.256 -1.054,2.513 -1.582,3.769c-0.679,2.477 -1.359,4.953 -2.038,7.43c-1.043,2.828 -0.402,2.842 -1.644,5.681c-1.67,3.816 -1.193,3.953 0.851,7.582c1.177,12.589 7.003,10.398 32.001,1.635c34.162,-11.975 35.897,-21.121 52.341,-8.43c2.55,1.968 2.262,2.249 30.82,25.987c0.762,0.534 1.523,1.067 2.285,1.601c0.672,-0.064 1.343,-0.128 2.015,-0.192c3.312,2.735 18.89,21.149 16.143,-1.871c-0.276,-2.316 0.116,-8.292 -0.064,-11.267l0.123,-1.876l2.72,-2.024c2.95,26.26 -1.267,30.275 0.982,32.205c0.282,0.242 0.303,0.158 4.088,2.128c-12.7,12.122 -22.445,-2.272 -47.199,-18.189c-12.495,-8.034 -23.011,-21.256 -33.283,-17.994c-35.768,11.357 -74.007,31.864 -73.607,9.513c0.242,-13.508 22.081,-66.509 17.433,-75.22c-5.604,-10.504 -49.743,-54.635 -47.09,-63.512c3.958,-13.239 55.782,-4.512 76.005,-7.451c10.887,-1.583 33.112,-68.658 49.147,-67.668c13.313,0.822 20.169,47.356 30.514,73.326c1.99,4.995 3.055,4.964 40.469,13.192c28.817,6.337 34.923,5.547 43.228,13.301c-2.262,2.124 -2.405,2.95 -4.928,1.404c-3.674,-2.252 -11.717,-1.799 -12.744,-1.741c-1.881,-1.05 -1.467,-1.565 -3.646,-2.036c-0,-0 -6.617,-2.045 -7.193,-2.222c-26.396,-5.912 -26.177,-6.122 -52.779,-11.27c-12.232,-2.367 -22.949,-74.583 -33.071,-77.827c-1.712,-0.549 -4.963,-1.591 -15.392,16.775c-22.4,39.45 -22.816,39.209 -24.319,42.866c-5.509,13.406 -38.788,5.377 -78.458,8.024Z" style="fill:#9945b8;"/><path d="M649.803,802.482c0.104,1.559 -1.383,86.068 -7.438,106.307l0.91,1.176l0.912,1.889c-3.643,0.003 -43.777,0.04 -45.534,0.002c-10.774,-0.229 4.308,-21.955 -7.637,-86.235c7.183,-4.44 8.624,-3.017 20.928,-7.734c-0.016,0.91 -0.196,11.379 -0.196,11.379c0.915,10.879 31.336,8.401 32.999,2.05c4.534,-17.318 -3.04,-17.109 -20.507,-17.479c1.449,-0.684 2.168,-2.538 3.617,-3.222c1.696,-0.8 2.201,1.129 21.946,-8.132Z" style="fill:#fdefbf;"/><path d="M597.957,293.279c-0.873,9.267 4.098,9.035 1.814,18.033c-27.756,109.369 -39.542,105.018 -41.028,114.674c-1.132,7.359 5.421,10.485 6.241,11.876c8.272,14.035 9.937,12.782 10.449,14.099c2.957,7.612 0.143,8.824 -7.765,8.938c-13.55,0.194 -10.096,9.725 -11.101,11.718c-4.621,9.163 -1.393,-24.34 -1.316,-67.32c0.041,-23.085 -3.254,-25.106 11.414,-42.408c9.716,-11.46 9.119,-13.882 -0.002,-27.558c-9.465,-14.191 -23.893,-44.631 -22.929,-48.427c0.787,-3.1 49.805,1.317 54.223,6.375Z" style="fill:#fdf4df;"/><path d="M815.998,776.667c-22.977,3.488 -22.772,5.291 -27.982,12.062c-2.722,0.81 -12.536,3.73 -10.358,34.883c0.577,8.258 4.203,4.829 12.19,5.125l0.17,2.433c2.417,17.565 2.059,35.518 7.136,77.527c-3.231,-0.032 -27.998,2.423 -28.884,-4.403c-0.069,-0.531 -10.307,-129.332 -10.387,-131.268c-0.185,-4.441 2.356,-4.604 53.844,-3.254c4.84,0.127 3.559,2.071 4.272,6.895Z" style="fill:#f7cfac;"/><path d="M252.584,661.557c-0.43,0.44 -1.385,-0.317 -1.815,0.123c-8.475,8.673 3.066,19.103 1.405,21.278c-0.286,0.374 -1.095,-0.238 -1.381,0.136l-2.053,2.129c-18.929,-16.401 -109.972,-146.374 -49.274,-289.532c15.852,-37.387 1.788,8.668 1.554,9.391c-19.725,60.76 -13.894,139.965 21.605,208.949c2.001,3.889 19.826,38.528 28.05,46.824c0.483,0.487 1.426,0.214 1.909,0.701Z" style="fill:#be90f7;"/><path d="M633.277,418.65c-20.51,-2.015 -20.393,-2.025 -45.487,-0.868c0.964,-6.967 -0.443,-6.955 0.223,-25.671c0.027,-1.858 0.054,-3.716 0.081,-5.574l-2.802,-2.084c1.572,-4.718 11.746,-35.259 17.282,-59.752c12.096,-53.514 6.404,27.311 47.898,93.433c-1.159,0.414 -1.334,2.376 -2.493,2.79c0,0 -13.527,-2.092 -14.703,-2.274Z" style="fill:#f595ad;"/><path d="M336.336,598.577c0.244,0.356 14.986,24.913 41.39,45.679c147.791,119.19 319.206,8.996 356.566,-52.611c12.225,-20.159 1.992,6.232 -1.86,20.328c-2.13,2.014 -2.616,1.32 -3.977,3.76c-0.823,1.475 -18.471,17.454 -20.108,18.936c-101.834,92.201 -261.873,99.685 -355.815,-9.654c-12.596,-14.66 -12.9,-14.181 -13.705,-15.649c-0.312,-0.57 0.547,-1.388 0.221,-1.95c-1.393,-2.399 -8.471,-1.948 -2.713,-8.84Z" style="fill:#f38ef3;"/><path d="M526.108,328.795c-22.377,9.507 -20.917,-20.918 -29.611,-24.282c-11.06,-4.279 -13.251,47.912 -41.463,17.93c-2.712,-1.726 -2.773,-1.108 -5.688,0.019c-4.272,3.553 -3.216,4.304 -6.363,8.943c-3.999,5.897 -9.333,9.065 -10.298,9.637c-14.691,8.723 5.582,-16.597 10.195,-31.135c3.485,-10.984 60.785,-23.45 90.194,-23.766c5.52,-0.059 12.573,28.786 28.142,51.322c4.398,6.365 -6.296,5.608 -16.464,-11.508c-7.182,-12.089 -10.196,-4.253 -18.645,2.839Z" style="fill:#ea8198;"/><path d="M729.844,463.607c-6.905,0.993 -16.933,0.099 -21.784,3.785c-13.639,10.361 -0.241,24.002 18.398,46.531c-8.657,5.928 -10.442,32.302 -14.905,32.226c-4.811,-0.082 -25.023,-77.824 -26.813,-84.709c-2.008,-7.722 7.105,-13.897 -0.728,-22.153c-0.819,-0.864 -9.127,-9.622 -2.977,-14.778c10.895,-9.134 30.562,17.249 52.231,-2.59c4.669,-4.275 4.425,1.775 4.123,28.408c-0.051,4.486 -3.364,4.607 -7.545,13.282Z" style="fill:#fdf6e7;"/><path d="M672.886,465.197c0.586,1.296 1.173,2.592 1.759,3.887l0.673,1.876c3.625,6.072 2.196,6.637 12.978,88.1c0.997,7.536 2.67,15.379 -7.81,22.366c-4.138,2.759 -4.188,2.377 -8.979,3.361c-9.696,1.99 -10.621,-0.085 -18.181,6.53c-32.877,4.311 -38.692,12.097 -36.235,5.403c1.969,-5.367 14.05,-10.959 37.496,-71.571l2.849,2.093l-0.208,1.876l-0.723,1.876l-0.471,1.876l-0.468,1.876l-0.956,1.876l-0.322,1.876l-0.328,1.876l-0.913,1.876l-0.524,1.876c-3.624,10.696 3.066,11.187 4.809,7.767c3.254,-6.385 20.02,-59.8 14.351,-62.539c-2.585,-1.249 -2.141,-1.742 -4.415,-3.592c2.885,-10.282 2.729,-10.142 5.62,-20.567Z" style="fill:#fa9cb2;"/><path d="M367.351,543.863c1.672,-13.916 1.527,-71.383 -0.353,-80.298c-0.804,-3.812 -0.024,-3.635 2.177,-6.597l1.821,-0.273l1.821,-0.087l1.821,-0.077l1.821,-0.383l1.821,-0.078l1.821,-0.061l1.821,-0.24l1.821,0.074l1.821,-0.003l1.821,-0.043l1.821,-0.033l1.821,0.144l1.821,0.171l1.821,0.025l1.821,0.19l1.821,0.192c6.155,2.261 5.991,4.675 6.747,33.234c1.247,47.091 -0.846,50.454 -3.118,54.104c-17.377,0.162 -17.213,0.102 -34.593,0.038Z" style="fill:#fdeebd;"/><path d="M622.286,544.667l-1.775,-3.298l-1.821,-0.146c-2.93,-0.723 -13.943,-2.745 -18.158,-4.704c-3.099,-1.441 -8.259,-3.839 -7.862,-43.028c0.353,-34.833 1.728,-39.529 9.628,-40.084l1.821,-0.115l1.821,-0.095l1.821,-0.03l1.821,-0.025l1.821,0l1.821,-0.021l1.821,0.211l1.821,-0.141l1.821,0.05l1.821,0.06l1.821,0.064l1.821,0.121l1.821,0.063l1.821,0.035l1.821,-0.006c0.311,1.107 1.695,0.736 1.076,3.837c-1.093,5.478 0.075,80.157 0.315,81.218c0.114,0.504 0.165,0.447 2.233,6.04c-3.652,-0.001 -7.303,-0.003 -10.955,-0.004Z" style="fill:#fdeebd;"/><path d="M489.22,492.957c-1.002,0.968 -2.005,1.937 -3.007,2.905c-1.002,-0.747 -1.296,-2.254 -2.298,-3.001c-1.423,-1.061 -53.567,-0.082 -58.224,0.005c-3.738,0.07 -4.394,3.15 -4.519,3.239c-0.164,-0.248 -2.046,-3.101 -2.046,-3.101c-2.117,-5.048 -1.487,-23.165 -1.205,-24.104c0.873,-2.907 10.51,-2.187 11.438,-2.118c5.508,0.411 1.462,10.544 8.866,12.298c10.918,2.586 13.229,1.39 15.071,-9.893c0.461,-2.826 9.737,-2.13 10.598,-2.065c5.373,0.404 0.513,11.012 9.094,11.874c17.646,1.774 14.942,-7.245 15.27,-9.674c0.631,-4.673 12.788,-2.42 13.895,-2.215c3.779,0.7 0.422,11.221 9.062,11.732c11.735,0.694 13.054,-0.431 14.219,-7.945c0.884,-5.699 14.39,-6.233 15.147,0.04c1.911,15.846 19.471,7.976 20.337,1.957c1.226,-8.52 3.978,-6.938 12.319,-6.294c5.471,0.422 6.72,15.357 1.614,28.67c-28.09,-4.946 -28.17,-2 -67.26,-2.855l-1.821,-0.085l-1.964,1.463c-6.224,-3.097 -6.524,-4.576 -14.586,-0.833Z" style="fill:#fdf0c5;"/><path d="M369.984,810.75c12.855,2.857 12.458,3.844 25.041,7.364c-9.343,30.445 -6.519,31.021 -5.953,89.972c0.056,5.868 -10.048,4.131 -29.036,4.103c-0.73,-6.69 -6.992,-64.039 -7.059,-83.837c10.416,-0.245 10.581,0.948 14.199,-1.252c2.777,-1.689 2.806,-15.022 2.808,-16.35Z" style="fill:#fdf0c1;"/><path d="M300.446,770.822c16.967,10.593 16.72,11.561 20.792,11.64c0.166,1.435 10.724,128.326 9.844,131.303c-1.15,3.893 -21.73,9.291 -23.711,9.81c-3.633,-62.936 -2.644,-62.993 -3.68,-68.365c7.262,-0.506 18.887,4.515 16.97,-14.778c-0.718,-7.222 -5.268,-6.313 -16.811,-6.718c-1.78,-7.983 -4.004,-57.694 -3.404,-62.893Z" style="fill:#f9d1ae;"/><path d="M327.795,789.896l1.313,0.14l1.821,0.051c10.308,4.51 21.221,13.166 22.605,10.119c1.622,-3.572 1.47,-3.517 3.057,-7.002c3.256,1.424 26.693,11.677 41.407,15.977c-0.001,0.523 1.142,0.802 -2.973,8.933c-12.583,-3.52 -12.186,-4.507 -25.041,-7.364c-4.464,-6.559 -5.925,-3.751 -13.556,-3.956c-8.256,-0.222 -8.152,-0.088 -16.354,0.675c-6.766,0.63 -4.641,9.25 -4.366,12.519c0.942,11.175 7.462,8.211 17.27,8.363c0.067,19.798 6.329,77.147 7.059,83.837c-19.51,-0.089 -19.725,0.681 -21.641,-0.617c-2.148,-1.456 -6.222,-64.914 -10.599,-121.675Z" style="fill:#f5d0ad;"/><path d="M358.139,148.318c8.163,17.108 9.391,17.598 32.91,24.29c4.021,1.144 5.86,5.405 -0.145,7.011c-17.86,4.779 -25.847,4.93 -32.851,24.82c-0.718,0.219 -8.776,2.674 -8.912,2.947c-0.486,0.977 0.486,2.317 0,3.294c-1.214,1.381 -2.428,2.762 -3.643,4.143l-1.659,-2.876c-0.53,-1.702 -0.095,-1.606 -0.594,-3.209c-0.142,-0.456 -0.144,-0.418 -1.942,-5.646c-5.477,-13.023 -10.549,-14.192 -14.32,-16.567c-21.019,-8.697 -28.263,-6.668 -23.347,-11.961c9.901,-10.658 33.487,9.285 41.87,-45.05c0.106,-0.69 4.491,-18.944 8.473,0.135c1.958,9.381 1.418,9.392 4.157,18.669Z" style="fill:#f3c16f;"/><path d="M465.954,684.022c-0.07,-25.401 -4.091,-57.687 26.949,-61.988c11.534,-1.598 31.732,6.53 32.767,30.913c1.318,31.034 -1.016,31.676 -3.499,31.939c-11.847,1.257 -0.648,-18.075 -16.408,-17.969c-12.805,0.086 -26.833,-1.389 -27.844,6.635c-1.268,10.063 -0.844,10.013 0.341,13.604c-6.253,-1.655 -6.148,-1.515 -12.306,-3.135Z" style="fill:#aa7363;"/><path d="M745.959,722.017c2.832,2.155 3.031,2.01 3.052,2.322c4.093,61.077 3.881,60.986 9.212,121.924c-0.456,-0.433 0.239,-1.471 -0.217,-1.903c-2.287,-2.17 -21.046,-0.457 -22.869,-0.29c-0.76,-20.033 -0.913,-29.412 -3.956,-37.762c2.64,-6.29 -0.433,-39.12 -5.28,-46.243c-1.442,-2.119 -2.889,-3.937 -3.153,-4.269l-0.704,-0.851c0.006,-0.01 4.824,-1.25 2.911,-8.2l-2.725,-2.226c12.514,-10.655 12.238,-10.722 23.728,-22.502Z" style="fill:#fad6b4;"/><path d="M815.998,776.667c1.18,18.977 2.558,45.983 5.709,82.579l-2.679,-1.321c-2.416,-0.243 -4.832,-0.485 -7.248,-0.728c-8.635,1.299 -14.074,-0.633 -13.116,15.282c0.186,3.096 2.274,4.503 2.629,4.742c3.116,2.1 3.392,0.949 14.106,0.899c-3.153,11.508 2.743,22.045 3.79,24.633c-10.524,5.259 -14.947,4.936 -22.036,5.944c-5.077,-42.009 -4.719,-59.962 -7.136,-77.527l-0.17,-2.433c7.014,-0.553 10.317,2.105 10.337,-5.099c0.063,-22.3 -0.881,-32.196 -12.169,-34.909c5.21,-6.771 5.005,-8.574 27.982,-12.062Z" style="fill:#fdf1c3;"/><path d="M292.941,713.183c3.987,-4.837 4.758,-8.539 11.965,-3.191c57.393,42.589 77.571,49.076 131.245,69.575c35.111,13.41 -40.52,13.804 -120.326,-39.452c-25.124,-16.766 -27.105,-19.109 -22.884,-26.931Z" style="fill:#a5fcfd;"/><path d="M425.383,314.77c5.35,-2.895 5.316,-2.875 5.778,-3.126c11.85,-6.455 -4.288,17.421 -10.587,28.245c-11.55,19.848 17.792,27.445 18.082,41.015c1.773,83.088 2.728,83.015 2.32,90.223c-0.997,17.603 -4.032,-3.566 -4.098,-4.027c-1.067,-7.445 -12.069,-5.764 -13.048,-5.789c-9.782,-0.249 3.808,-11.966 5.826,-16.407c4.051,-8.914 7.478,-7.627 7.356,-17.359c-0.047,-3.757 -23.604,-32.069 -37.858,-91.826c-1.8,-7.547 12.744,-13.766 26.23,-20.949Z" style="fill:#fcf2db;"/><path d="M672.886,465.197c8.797,-21.901 2.927,10.029 39.488,101.101c3.339,8.317 12.691,24.57 13.889,26.651c-1.64,2.336 -1.511,2.22 -3.52,4.164c-26.739,-6.765 -36.264,-7.2 -69.418,-5.796c7.56,-6.616 8.485,-4.54 18.181,-6.53c4.791,-0.983 4.841,-0.602 8.979,-3.361c10.48,-6.987 8.808,-14.83 7.81,-22.366c-10.782,-81.463 -9.353,-82.028 -12.978,-88.1l-0.673,-1.876c-0.586,-1.296 -1.173,-2.592 -1.759,-3.887Z" style="fill:#ee809b;"/><path d="M622.08,652.77c-8.445,-0.746 1.141,-10.703 -6.982,-13.209c-1.536,-0.474 -14.159,-0.62 -15.528,7.64c-0.395,2.383 0.763,2.318 2.698,30.086c-11.636,4.602 -11.637,4.105 -23.704,7.19c-4.292,-9.001 -0.144,-11.675 -8.2,-17.175c-2.381,-1.625 -2.486,-46.483 -0.676,-47.823c0.362,-0.268 50.596,-1.536 52.076,1.821c0.474,1.075 -0.361,1.017 0.409,14.758c0.471,8.41 0.867,8.248 -0.093,16.712Z" style="fill:#f5c697;"/><path d="M803.631,311.171c-4.463,11.72 -7.989,35.804 -13.272,22.662c-3.708,-9.224 1.023,-30.33 -26.123,-38.748c-0.306,-0.095 -10.655,-1.542 -9.608,-6.317c1.013,-4.618 28.329,-0.232 33.795,-31.612c0.07,-0.4 0.96,-15.193 5.134,-16.331c8.976,-2.446 -2.06,34.049 27.222,42.764c10.884,3.239 12.334,2.013 12.776,5.398c1.465,11.227 -16.015,-4.167 -29.924,22.184Z" style="fill:#e9a65d;"/><path d="M618.704,550.17c-0.012,2.372 -0.001,2.372 1.807,3.847c7.042,5.747 -21.665,5.284 -27.131,6.328c1.009,2.559 15.516,29.968 16.888,32.561c0.437,0.825 1.18,1.45 1.616,2.274c-4.779,8.952 -1.979,9.882 5.756,16.131c3.847,3.108 -7.332,2.438 -22.628,2.271c-12.288,-0.134 -29.003,1.58 -25.792,-5.916c0.534,-1.246 26.827,-0.235 14.01,-15.94c-31.324,-38.381 -34.073,-41.445 -30.048,-41.721c5.23,-0.358 5.166,0.552 65.522,0.164Z" style="fill:#ef86a0;"/><path d="M514.001,410.988c0.392,10.285 -1.517,14.071 4.01,17.725c2.053,1.357 10.062,15.971 -6.777,16.032c-28.894,0.105 -42.279,1.688 -39.461,-11.216c1.277,-5.849 5.913,-4.105 6.146,-9.509c0.248,-5.739 -2.449,-31.157 11.779,-42.682c6.932,-5.615 13.279,0.959 14.047,1.68c9.575,8.989 9.601,23.262 10.255,27.97Z" style="fill:#814232;"/><path d="M367.369,549.939c-7.575,9.319 2.421,7.315 5.419,7.556c20.143,1.619 19.986,0.926 40.119,0.322c8.867,-0.266 13.891,2.575 12.722,-7.789c10.445,0.006 19.664,-2.403 12.836,5.421c-2.556,2.929 -2.333,3.073 -30.462,37.932c-3.659,4.534 -2.698,5.157 0.082,10.266c-7.163,0.603 -10.334,2.897 -24.34,-3.984l-2.294,-1.09c-3.119,-13 -32.674,-48.483 -21.374,-48.757c2.43,-0.059 4.862,0.182 7.292,0.123Z" style="fill:#f99aad;"/><path d="M440.195,831.167l1.831,-1.178c1.728,0.141 16.058,1.313 21.444,3.19c-0.349,9.111 -5.742,6.235 -9.188,14.65c-6.455,15.763 7.409,29.665 9.149,32.362c1.375,2.133 -0.225,43.452 1.739,55.47c-3.125,3.848 -21.343,1.851 -23.495,1.105c-1.133,-37.231 -1.702,-42.451 -1.479,-105.6Z" style="fill:#e0a06b;"/><path d="M544.447,834.808c-0.127,100.691 0.403,102.567 -2.315,102.624c-16.018,0.339 -21.299,0.847 -21.194,-3.252c0.25,-9.718 -0.071,-53.285 0.267,-53.861c8.323,-14.201 21.024,-24.698 0.123,-42.886c1.256,-0.486 1.399,-2.631 2.655,-3.117c1.708,-0.661 3.649,0.014 5.473,-0.028c7.706,-0.179 7.678,-1.593 14.991,0.521Z" style="fill:#e3a56f;"/><path d="M313.139,465.552c3.938,-1.044 4.853,-0.776 5.261,-0.657c2.732,0.8 12.723,44.6 35.096,93.876c11.965,26.353 26.266,40.538 17.486,38.125c-16.079,-4.419 -15.906,-4.733 -32.487,-6.468c-5.376,-5.02 -4.777,-5.321 -8.442,-11.96c0.744,-1.601 4.621,-0.088 3.732,-8.026c-0.103,-0.919 -0.221,-0.706 -1.96,-11.382c-4.775,-29.306 -10.909,-73.052 -10.934,-73.092c-0.664,-1.047 -2.497,-0.819 -3.161,-1.866c0.74,-4.827 1.181,-4.834 -0.516,-9.39l-0.183,-1.876l-0.534,-1.876l-1.115,-1.876l-2.73,-1.899l0.487,-1.634Z" style="fill:#eb7d97;"/><path d="M733.68,239.015c-3.675,1.237 -14.474,9.811 -22.137,-25.071c-6.839,-31.133 16.55,-32.908 22.986,-20.202c1.154,2.278 1.09,8.726 8.006,5.185c17.278,-8.846 21.546,4.236 21.285,9.381c-0.921,18.138 -27.011,29.361 -30.14,30.707Z" style="fill:#ce638c;"/><path d="M135.978,294.651c11.753,19.072 33.315,10.877 26.234,19.156c-4.666,5.456 -21.928,0.3 -29.195,24.166c-3.766,12.37 -2.441,14.101 -6.084,14.49c-7.823,0.836 0.968,-27.092 -25.645,-34.791c-8.709,-2.519 -9.826,-1.451 -10.469,-4.397c-1.904,-8.728 24.807,-0.225 31.126,-31.677c0.199,-0.992 2.321,-11.554 4.993,-11.568c5.1,-0.027 2.915,9.501 9.04,24.62Z" style="fill:#d87497;"/><path d="M346.45,527.562c-1.955,-5.026 -14.369,-36.938 -21.216,-64.06c-0.765,-3.031 5.096,-11.127 -0.079,-16.651c-11.002,-11.744 17.196,-2.666 19.919,0.138c7.603,7.828 8.294,6.869 8.826,7.646c2.697,3.936 2.243,80.516 2.202,87.519c-0.063,10.582 -9.151,-13.277 -9.652,-14.592Z" style="fill:#fdf3da;"/><path d="M385.242,340.949c0.61,2.054 2.351,1.495 4.398,15.499c6.125,41.898 14.997,54.844 16.018,64.307c-37.162,-1.509 -36.966,1.106 -52.891,3.666c-9.238,1.485 0.315,-4.699 13.76,-41.877c0.699,2.152 2.694,-0.032 3.392,2.116c0.141,0.432 -0.798,0.305 -0.876,5.628c-0.009,0.596 1.658,2.724 3.876,2.119c4.074,-1.11 11.225,-41.823 11.366,-45.269l0.041,-1.876l-1.041,-2.72l1.957,-1.594Z" style="fill:#fa9eb4;"/><path d="M176.28,234.424c-1.277,-1.633 -15.588,-19.945 -0.199,-26.211c8.16,-3.323 16.513,3.308 16.594,3.343c4.095,1.753 2.969,-1.277 5.087,-5.258c8.805,-16.552 35.366,-7.426 18.118,31.875c-8.509,19.388 -17.475,16.468 -39.601,-3.749Z" style="fill:#d26991;"/><path d="M148.756,707.125c9.641,-1.179 9.566,-1.922 12.49,-0.884c3.636,1.291 1.851,2.654 2.83,10.378c1.191,9.392 12.369,6.869 13.834,6.815c12.549,-0.464 7.353,-11.859 8.805,-16.26c0.801,-2.428 13.704,-2.416 14.912,-2.415c11.168,0.011 1.669,10.734 11.092,17.101l0.378,2.373c-0.029,4.026 0.013,3.922 0.297,18.761l0.985,2.005c-57.128,0.206 -56.993,0.326 -61.949,0.326c2.666,-2.719 3.832,-2.302 3.428,-6.112c-1.671,-15.747 1.262,-21.865 -4.993,-29.988l-2.107,-2.098Z" style="fill:#fdeebd;"/><path d="M562.964,613.492c-2.848,-3.075 -3.051,-2.713 -5.622,-6.069c-0.131,-0.17 -0.177,-0.037 -1.943,-1.833c-12.828,-13.044 -23.5,-30.187 -55.753,-70.289c-6.277,-7.804 -13.958,12.639 -22.016,19.631c-6.027,5.229 -38.285,49.3 -44.527,58.612l-1.301,1.876l-1.798,1.902c-0.082,-13.287 -1.831,-14.306 6.45,-24.507c56.822,-69.995 57.488,-75.893 61.846,-71.012c13.596,15.227 39.537,49.23 42.87,53.598c17.296,22.672 21.521,21.28 21.795,38.092Z" style="fill:#f5c9a4;"/><path d="M367.351,543.863c-3.115,-0.192 -3.834,1.165 -5.215,-1.744c-1.14,-2.401 -1.764,-77.525 -1.82,-84.268c-0.028,-3.322 -0.076,-9.118 39.772,-6.787c12.638,0.739 19.839,0.367 14.281,12.206c-5.156,10.981 1.238,37.366 0.831,77.165c-0.061,5.977 -3.177,2.909 -13.255,3.391c2.272,-3.65 4.365,-7.013 3.118,-54.104c-0.756,-28.559 -0.592,-30.973 -6.747,-33.234l-1.821,-0.192l-1.821,-0.19l-1.821,-0.025l-1.821,-0.171l-1.821,-0.144l-1.821,0.033l-1.821,0.043l-1.821,0.003l-1.821,-0.074l-1.821,0.24l-1.821,0.061l-1.821,0.078l-1.821,0.383l-1.821,0.077l-1.821,0.087l-1.821,0.273c-2.201,2.962 -2.981,2.785 -2.177,6.597c1.88,8.914 2.025,66.381 0.353,80.298Z" style="fill:#faddc0;"/><path d="M423.798,668.236c-26.562,-13.478 -27.153,-14.507 -28.119,-22.68c-1.024,-8.674 -12.454,-9.27 -13.771,-9.339c-11.566,-0.603 -12.613,-3.921 -9.785,-15.443c0.943,-3.84 2.353,-3.727 48.001,-2.656c3.42,0.08 4.257,1.388 4.293,4.785c0.42,39.787 0.048,41.772 -0.619,45.333Z" style="fill:#f3c493;"/><path d="M166.439,774.771c2.171,-5.626 3.791,-3.642 9.679,-3.796c48.203,-1.263 49.966,-2.04 51.05,2.019c0.859,3.216 -3.233,93.226 -3.601,101.329c-1.465,32.235 -0.51,32.815 -4.072,36.658l-6.911,1.084c-0.362,-6.771 3.161,-6.553 4.516,-84.633c0.575,-33.1 4.507,-44.197 -6.481,-46.351c-4.377,-0.858 -37.409,-3.93 -38.145,-3.924c-1.994,0.017 -1.678,-0.675 -3.637,-1.464l-2.397,-0.922Z" style="fill:#f8cdb0;"/><path d="M722.749,755.797c0.264,0.332 1.711,2.15 3.153,4.269c4.846,7.122 7.92,39.953 5.28,46.243c-7.171,3.718 -38.871,2.464 -41.047,0.088c-3.255,-3.555 2.045,-34.547 1.654,-35.336c-0.466,-0.941 -1.771,-1.235 -2.237,-2.177c1.129,-0.721 2.258,-1.442 3.388,-2.163c2.795,6.454 0.806,6.631 0.901,13.768c0.147,11.08 -1.322,12.162 1.369,13.017c8.691,2.762 -4.521,-19.589 10.687,-32.009c0.521,-0.344 1.336,0.29 1.857,-0.055c0.354,-0.234 0.286,-0.271 3.867,-3.659l1.845,0.041c15.329,10.293 6.348,36 10.493,36.061c2.053,0.03 6.896,-0.261 1.608,-26.392c-1.997,-9.87 -4.471,-8.745 -4.406,-9.591c0.067,-0.887 1.522,-1.219 1.59,-2.106Z" style="fill:#91553b;"/><path d="M449.345,322.462c2.915,-1.127 2.976,-1.744 5.688,-0.019c0.071,1.091 0.503,7.702 6.973,11.63c21.627,13.131 30.832,-23.54 32.873,-23.504c2.217,0.039 9.685,35.131 34.108,22.547c0.741,7.267 0.757,7.276 -1.379,14.214c-68.804,-8.54 -96.34,11.754 -101.563,6.893c-6.434,-5.988 12.317,-3.795 21.482,-22.077c3.91,-7.799 2,-8.163 1.816,-9.685Z" style="fill:#fbcc69;"/><path d="M44.591,534.976c-0.432,-1.115 -3.764,-9.722 2.545,-14.777c3.1,-2.484 14.792,-0.613 16.062,-0.41c2.725,0.436 3.671,-5.043 5.173,-7.738c4.1,-7.356 30.792,-12.091 17.14,35.976c-4.327,15.236 -30.822,2.481 -40.92,-13.051Z" style="fill:#d86b96;"/><path d="M457.062,680.486c-0.973,-7.984 -4.036,-7.023 -4.087,-12.537c-0.032,-3.438 -7.239,-52.31 36.501,-59.298c21.289,-3.401 48.324,11.437 50.179,40.592c1.22,19.177 -0.404,19.039 -2.229,21.192c-1.322,1.56 -3.561,21.547 -6.543,12.721c-2.533,-7.497 11.028,-56.898 -28.718,-66.075c-14.002,-3.233 -39.919,5.978 -40.895,33.952c-0.664,19.046 0.376,28.525 -0.158,28.927c-0.876,0.66 -2.028,0.856 -2.905,1.516l-1.146,-0.989Z" style="fill:#fac25f;"/><path d="M633.25,450.374l-1.812,2.669l-1.821,0.533l-1.821,0.006l-1.821,-0.035l-1.821,-0.063l-1.821,-0.121l-1.821,-0.064l-1.821,-0.06l-1.821,-0.05l-1.821,0.141l-1.821,-0.211l-1.821,0.021l-1.821,0l-1.821,0.025l-1.821,0.03l-1.821,0.095l-1.821,0.115c-7.9,0.555 -9.275,5.251 -9.628,40.084c-0.397,39.189 4.762,41.588 7.862,43.028c4.214,1.959 15.228,3.982 18.158,4.704l1.821,0.146l1.775,3.298c-36.939,-0.821 -40.814,1.196 -40.826,-6.148c-0.063,-38.452 0.614,-44.899 1.021,-48.78c1.951,-18.594 -3.7,-35.969 0.089,-38.98c8.379,-6.658 46.668,-0.98 50.681,-0.385Z" style="fill:#f7caac;"/><path d="M729.893,517.746c8.475,10.989 8.45,10.779 17.201,21.519c1.885,2.314 8.314,10.204 -8.097,36.832c-4.233,6.215 -3.6,6.619 -9.09,11.699c-1.382,-2.452 -15.136,-26.859 -14.141,-32.3c0.146,-0.8 9.414,-27.251 10.755,-33.81c0.742,-3.628 3.13,-3.656 3.372,-3.939Z" style="fill:#fbced8;"/><path d="M233.793,752.346l2.429,-2.129l1.461,-1.595c11.459,-19.398 8.102,28.56 6.901,65.624c-1.255,38.706 -1.944,41.194 -2.896,44.636c-3.877,-0.092 -3.791,-0.276 -11.861,-1.439c3.583,-92.071 3.678,-92.004 3.966,-105.096Z" style="fill:#fdf6d6;"/><path d="M862.934,651.36l1.604,0.186c9.129,10.588 1.731,24.165 20.208,28.784c11.167,2.792 9.387,5.613 8.851,6.308c-3.247,4.211 -17.681,0.773 -24.124,22.403c-0.262,0.879 -3.037,10.196 -4.75,10.4c-9.318,1.107 3.653,-20.241 -24.247,-29.961c-15.604,-5.436 1.118,-7.13 5.508,-9.211c4.539,-2.152 7.86,-0.807 16.95,-28.909Z" style="fill:#e9aa5d;"/><path d="M852.515,326.802c0.665,-1.397 7.89,-16.58 18.582,-3.412c1.761,2.169 1.605,8.116 8.022,4.962c19.388,-9.527 27.988,17.643 -5.669,33.353c-6.08,2.838 -10.54,5.789 -15.524,-3.686c-8.253,-15.689 -5.867,-28.724 -5.41,-31.217Z" style="fill:#de769e;"/><path d="M782.593,701.594c12.391,0.192 12.575,-0.368 14,0.828c1.942,1.628 0.982,2.074 1.404,10.513c0.514,10.293 14.378,7.377 15.546,7.349c6.48,-0.157 5.459,-12.708 5.473,-12.936c0.377,-6.3 3.016,-4.037 9.14,-4.218l-0.684,2.343c0.189,4.721 -2.035,24.743 0.661,37.573c-10.968,-0.014 -10.767,-0.037 -21.851,-0.25c-1.6,-0.031 -1.573,0.023 -20.002,-0.152c-0.15,-3.131 -1.562,-32.588 -3.237,-39.047l-0.45,-2.002Z" style="fill:#fdeebc;"/><path d="M487.547,592.921c-1.362,-1.272 -12.699,-11.858 -13.794,-18.936c-0.16,-1.035 -1.298,-8.397 3.121,-12.696c9.268,-9.015 12.347,4.465 23.735,-1.417c14.516,-7.497 23.407,11.586 11.745,24.94c-15.392,17.626 -19.931,11.781 -24.807,8.109Z" style="fill:#8a463e;"/><path d="M631.22,612.749l2.039,3.312l1.821,0.089l1.821,-0.071l1.821,-0.073l1.821,-0.097l1.821,0.107l1.821,-0.073l1.821,-0.066c4.986,-0.386 38.102,-0.584 45.178,4.019c0.431,0.281 0.052,0.506 4.104,5.029c-7.152,5.883 -6.89,6.008 -14.661,11.177c-1.91,-1.107 -11.163,-6.474 -27.215,-3.212c-10.863,2.208 -4.163,24.746 -12.144,17.371c-4.438,-4.1 1.972,-10.867 -10.055,-13.412c-3.084,-0.653 -2.92,-1.282 -2.963,-4.56c-0.136,-10.457 -1.85,-17.173 2.968,-19.541Z" style="fill:#fdeebd;"/><path d="M469.292,879.997c-2.042,-2.794 -4.429,-5.309 -6.471,-8.103c-18.199,-24.894 12.204,-42.744 26.263,-19.895c1.456,2.367 0.963,41.883 0.556,43.373c-0.488,1.787 -9.085,-3.717 -20.348,-15.375Z" style="fill:#fdabc8;"/><path d="M498.754,848.336c1.036,-0.748 10.018,-7.235 14.283,-6.993c28.752,1.637 7.931,40.352 -16.19,54.325c-2.448,1.418 -2.423,-5.79 -2.421,-6.334c0.116,-32.721 -2.042,-33.989 4.328,-40.998Z" style="fill:#fdaac7;"/><path d="M400.49,820.166c0.726,0.307 8.183,3.125 8.895,3.394c2.898,1.095 -3.991,2.278 -4.236,39.511c-0.243,37.063 1.365,63.831 0.92,73.159l-0.519,1.293c-5.8,-0.229 -8.491,2.852 -9.009,-3.177c-0.883,-10.289 -2.085,-57.141 -2.177,-76.913c-0.112,-24.081 3.942,-30.839 6.125,-37.267Z" style="fill:#fcc868;"/><path d="M563.449,508.61c-0.021,23.231 1.221,35.496 -3.013,35.696c-12.103,0.573 -13.689,2.373 -22.614,-8.903c-1.037,-1.311 -1.132,-1.19 -13.144,-16.231c-3.048,-3.817 -6.168,-7.816 -6.701,-8.499c1.855,-0.674 0.309,-2.275 2.073,-2.916c1.044,-0.379 1.053,0.042 5.743,0.077c28.645,0.212 28.5,-0.508 37.655,0.776Z" style="fill:#fce6b2;"/><path d="M715.228,928.606c3.702,-0.324 33.101,-2.893 45.495,-9.592c3.799,-2.053 3.238,5.565 4.143,15.294c1.833,19.702 -47.55,20.455 -47.862,20.473c8.294,-11.23 -0.615,-24.451 -1.777,-26.175Z" style="fill:#f1aa52;"/><path d="M422.935,824.929c4.104,1.717 3.748,2.101 8.191,3.428c5.051,1.507 1.707,3.369 0.535,8.621c-11.451,51.349 -0.087,91.521 -2.311,100.504c-7.212,-0.168 -10.353,2.375 -10.796,-5.017c-4.606,-76.857 -0.85,-92.185 4.38,-107.537Z" style="fill:#ce8269;"/><path d="M283.584,930.542c2.916,-0.26 2.886,0.056 12.807,-1.14c32.878,-3.965 31.401,-9.519 34.231,-9.782c1.348,-0.125 2.593,15.22 2.701,16.559c1.503,18.526 -41.434,19.909 -47.966,20.448c7.23,-11.426 -1.423,-25.395 -1.773,-26.085Z" style="fill:#f2aa51;"/><path d="M385.242,340.949c2.125,-1.398 3.731,-3.534 5.856,-4.933c7.638,-5.026 0.002,26.647 36.028,84.445c1.558,2.499 -1.088,2.649 -21.468,0.295c-1.021,-9.464 -9.892,-22.409 -16.018,-64.307c-2.047,-14.004 -3.788,-13.445 -4.398,-15.499Z" style="fill:#ed7997;"/><path d="M749.559,222.99c-15.93,12.043 -23.612,17.693 -28.937,2.226c-12.409,-36.044 2.812,-34.2 5.121,-32.983c10.255,5.402 5.026,19.441 15.591,13.081c3.37,-2.029 11.095,-6.486 15.382,-2.256c6.141,6.06 -5.997,18.722 -7.157,19.932Z" style="fill:#fc85b7;"/><path d="M558.548,820.452c8.767,14.376 10.001,49.097 8.053,112.048c-0.014,0.449 -0.142,4.595 -2.664,4.896c-2.407,0.287 -4.862,-0.264 -7.269,0.023l-0.066,-1.189c7.236,-67.386 -4.485,-103.635 -5.383,-103.893c-0.798,-0.23 -1.667,0.56 -2.464,0.33c-0.003,-4.652 -0.12,-4.469 -0.252,-9.002l0.948,-1.987c3.033,-0.409 6.065,-0.817 9.098,-1.226Z" style="fill:#cb8269;"/><path d="M252.584,661.557c12.165,0.414 10.277,4.511 18.802,13.336c8.64,8.944 8.69,8.745 12.538,13.273c14.099,14.471 2.461,27.168 -8.204,19.964c-18.848,-12.733 -14.257,-19.558 -26.981,-22.906l2.053,-2.129c0.286,-0.374 1.095,0.238 1.381,-0.136c1.661,-2.175 -9.88,-12.606 -1.405,-21.278c0.43,-0.44 1.385,0.317 1.815,-0.123Z" style="fill:#bcfafd;"/><path d="M547.646,99.505c-5.369,4.624 -3.725,5.632 -5.809,12.501c-0.37,1.218 -1.558,2.056 -1.927,3.274c-21.94,-11.612 -37.785,3.56 -38.076,-4.468c-0.827,-22.816 0.686,-23.306 2.508,-23.591c39.725,-6.2 41,7.331 43.304,12.284Z" style="fill:#fbcc68;"/><path d="M279.855,320.47c-34.746,4.054 15.158,-54.68 30.517,-38.508c9.308,9.799 -16.412,33.119 -30.517,38.508Z" style="fill:#de4bc3;"/><path d="M450.962,355.831c4.472,-0.86 36.767,-7.066 56.651,-5.129c31.744,3.093 45.778,9.426 47.149,9.989c7.295,2.994 0.214,9.625 -3.361,8.366c-14.676,-5.168 -15.992,-9.465 -58.394,-9.901c-42.414,-0.436 -50.416,15.163 -57.751,6.347c-5.014,-6.027 14.585,-9.324 15.705,-9.673Z" style="fill:#f9c068;"/><path d="M433.065,508.566c40.006,-1.011 43.26,-1.221 41.48,1.667c-3.657,5.937 -23.197,29.47 -25.278,31.977c-3.323,4.002 -16.437,3.43 -16.563,-1.815c-0.624,-26.021 -0.065,-29.321 0.361,-31.83Z" style="fill:#fdebb7;"/><path d="M584.716,825.221c1.308,6.019 5.983,5.754 4.174,99.741c-0.018,0.91 -0.198,10.26 -1.117,11.315c-1.413,1.621 -1.675,0.783 -7.288,1.094l-0.541,-1.14c-0.101,-3.881 -0.287,-3.739 -0.195,-7.526c2.082,-85.851 -3.294,-85.543 -4.433,-101.051c4.908,-0.827 4.718,-1.043 9.4,-2.433Z" style="fill:#fccc6c;"/><path d="M212.335,232.606c-3.828,8.805 -5.364,15.013 -12.611,11.524c-26.522,-12.771 -33.997,-31.518 -14.836,-31.232c6.126,0.092 9.548,13.336 14.934,1.047c0.511,-1.165 5.418,-12.363 12.642,-9.267c7.786,3.338 0.554,25.807 -0.128,27.928Z" style="fill:#fc8cbb;"/><path d="M427.421,816.626c5.44,1.111 5.337,0.973 10.826,2.083c-3.384,6.017 -1.677,6.321 -1.925,18.076c-0.167,7.926 -1.666,78.889 1.769,99.084c-3.577,3.132 -4.026,1.557 -8.74,1.614c2.223,-8.983 -9.14,-49.156 2.311,-100.504c1.171,-5.253 4.515,-7.114 -0.535,-8.621c-4.443,-1.326 -4.087,-1.71 -8.191,-3.428c1.495,-2.768 2.99,-5.536 4.486,-8.304Z" style="fill:#dd9b70;"/><path d="M759.444,861.162c1.377,26.409 2.012,26.164 3.623,46.919c0.74,9.536 -20.57,12.435 -24.139,13.284c1.011,-8.908 -1.584,-34.437 -1.887,-37.418c12.425,-1.079 14.775,-2.311 14.346,-15.252c-0.152,-4.584 1.626,-3.621 5.719,-5.27l2.339,-2.264Z" style="fill:#fad5b3;"/><path d="M563.708,819.494c10.484,-2.698 10.337,-2.774 14.863,-3.681c4.228,-0.847 5.735,8.24 6.144,9.408c-4.682,1.391 -4.492,1.606 -9.4,2.433c1.139,15.508 6.515,15.2 4.433,101.051c-0.092,3.787 0.094,3.645 0.195,7.526l0.541,1.14c-6.204,-0.686 -8.213,1.277 -8.462,-3.073c-1.531,-26.741 7.944,-77.624 -8.315,-114.804Z" style="fill:#eea752;"/><path d="M735.137,844.07c1.823,-0.166 20.582,-1.879 22.869,0.29c0.456,0.433 -0.239,1.471 0.217,1.903l0.06,1.892l-1.177,-0.773c-7.595,1.06 -21.314,-0.287 -21.856,4.423c-0.716,6.226 -2.368,9.006 3.653,8.963c15.389,-0.112 15.342,-0.97 16.675,-0.883c0,0 1.406,3.256 1.528,3.539c-4.093,1.649 -5.871,0.686 -5.719,5.27c0.428,12.941 -1.922,14.174 -14.346,15.252c-0.75,-0.012 -20.888,2.653 -21.213,-7.807c-0.363,-11.68 1.055,-13.361 12.207,-14.625c8.805,-0.998 -2.877,-10.548 7.102,-17.445Z" style="fill:#de9a93;"/><path d="M919.299,496.801c0.575,0.178 7.193,2.222 7.193,2.222c2.179,0.472 1.765,0.986 3.646,2.036c-14.694,10.686 -17.361,1.764 -47.48,10.73c-31.858,9.484 -30.07,-20.947 -14.232,-21.525c4.914,-0.179 18.144,3.895 21.498,3.872c5.797,-0.039 5.164,2.617 11.043,3.164c8.803,0.818 13.788,4.613 16.41,2.026c0.75,-0.74 1.172,-1.787 1.922,-2.527Z" style="fill:#f875b3;"/><path d="M732.228,619.159c7.442,22.915 32.416,9.57 64.901,-1.996c4.336,-1.544 9.981,-4.549 10.711,-1.738c0.381,1.469 -9.507,20.854 -10.412,22.628c-3.326,-7.197 -5.419,-3.78 -13.03,-2.223c-3.87,1.101 -45.288,16.508 -53.671,-5.053c-2.282,-5.869 -1.046,-5.957 1.5,-11.617Z" style="fill:#a93096;"/><path d="M782.593,701.594l0.45,2.002c1.675,6.459 3.087,35.916 3.237,39.047c-13.7,-0.217 -13.511,0.205 -27.284,-0.306c-6.692,-0.248 -2.201,-10.45 -6.819,-25.313c0.487,-0.81 0.507,-0.668 6.764,-9.658c0.785,0.607 2.108,-0.346 2.332,3.574c0.787,13.759 12.37,6.806 13.209,5.359c3.299,-5.684 -5.226,-13.645 8.111,-14.705Z" style="fill:#f9d1ae;"/><path d="M675.565,640.105c-30.229,21.988 -62.039,33.133 -67.787,35.146c-2.44,-7.292 -1.865,-7.28 -2.829,-14.934c-1.378,-10.937 -4.306,-15.769 6.371,-16.064c6.335,-0.175 -1.345,20.635 13.328,13.289c7.031,-9.038 -0.058,-13.842 5.282,-15.258c6.367,-1.688 4.868,2.023 5.897,8.662c1.044,6.735 15.027,7.611 15.622,-3.634c0.445,-8.413 0.91,-10.028 9.136,-10.436c13.346,-0.662 13.217,0.933 14.982,3.228Z" style="fill:#fceec3;"/><path d="M317.73,484.103c0.664,1.047 2.497,0.819 3.161,1.866c0.025,0.04 6.159,43.786 10.934,73.092c1.74,10.676 1.857,10.463 1.96,11.382c0.889,7.938 -2.988,6.425 -3.732,8.026c-14.738,-28.485 -17.865,-52.141 -19.898,-64.214c6.025,-3.263 4.462,-4.666 5.32,-11.563c0.185,-1.486 0.167,-1.377 2.255,-18.588Z" style="fill:#f6a1b1;"/><path d="M482.974,425.197c0.627,-8.443 -1.212,-24.3 5.144,-34.58c14.91,-24.114 23.87,25.619 20.92,35.17c-0.569,1.844 -23.218,3.478 -26.064,-0.59Z" style="fill:#a26a5e;"/><path d="M618.704,550.17c1.164,-0.036 14.555,-0.449 14.555,-0.449c3.33,-0.238 2.71,1.326 4.13,2.021c-12.623,26.955 -14.048,26.023 -25.505,43.439c-0.437,-0.825 -1.18,-1.45 -1.616,-2.274c-1.372,-2.593 -15.879,-30.002 -16.888,-32.561c5.466,-1.045 34.173,-0.581 27.131,-6.328c-1.807,-1.475 -1.819,-1.475 -1.807,-3.847Z" style="fill:#fa95ae;"/><path d="M469.12,936.482c-0.192,-4.035 -2.37,-49.859 -1.514,-50.473c0.698,-0.501 3.093,1.592 3.322,1.792c18.273,15.972 19.186,15.459 19.256,18.4c0.719,30.231 -0.259,31.131 -2.693,31.409c-12.977,1.484 -17.038,-0.483 -18.37,-1.128Z" style="fill:#e1a16d;"/><path d="M495.586,932.463c-0.092,-26.23 -2.271,-28.12 6.153,-34.275c7.34,-5.364 6.342,-6.398 13.415,-12.094c1.992,-1.604 1.934,4.661 1.93,5.099c-0.401,43.752 1.697,46.183 -2.267,46.357c-15.688,0.688 -18.24,1.03 -19.231,-5.087Z" style="fill:#e19f6c;"/><path d="M548.755,832.667c0.798,0.23 1.667,-0.56 2.464,-0.33c0.898,0.259 12.619,36.508 5.383,103.893l0.066,1.189c-5.699,-0.04 -8.571,2.49 -8.328,-3.259c0.318,-7.514 0.075,-97.986 0.414,-101.493Z" style="fill:#e0a174;"/><path d="M166.278,793.62l3.375,-1.848c3.133,-1.869 4.474,-2.058 4.984,1.786c4.794,36.138 0.279,94.865 -0.876,95.257c-0.989,0.336 -4.888,1.659 -4.404,-12.618l-0.157,-1.876l-0.16,-1.876l-0.305,-1.876l-0.101,-1.876l-0.207,-1.876l-0.157,-1.876l-0.113,-1.876l-0.01,-1.876l-0.429,-1.876l-3.355,-1.915c0.887,-31.906 1.237,-31.706 1.915,-63.776Z" style="fill:#fdf5d7;"/><path d="M405.563,811.36c4.767,1.185 9.534,2.371 14.3,3.556c-1.283,4.533 -0.903,4.495 -2.514,8.885c-14.109,38.447 0.108,112.495 -6.414,113.655c-1.769,0.315 -3.616,-0.247 -5.384,0.067l0.519,-1.293c0.445,-9.328 -1.163,-36.096 -0.92,-73.159c0.244,-37.233 7.134,-38.416 4.236,-39.511c-0.712,-0.269 -8.17,-3.087 -8.895,-3.394c2.144,-4.809 1.673,-5.003 5.073,-8.806Z" style="fill:#eba250;"/><path d="M800.333,276.23c5.899,7.229 5.585,7.648 12.983,11.384c8.674,4.381 -9.371,3.403 -16.493,23.73c-4.775,13.627 -2.99,-7.594 -19.808,-18.408c-10.082,-6.482 7.827,-6.304 13.931,-23.096c0.187,-0.515 3.146,-8.653 4.361,-5.211c2.136,6.051 1.805,6.106 5.027,11.601Z" style="fill:#fdd97f;"/><path d="M638.794,916.856l0.838,2.49c0.12,7.783 -5.319,15.029 -6.452,17.948c-17.054,0.114 -36.837,0.722 -38.324,-0.938c-0.715,-0.799 -0.331,-13.949 -0.295,-15.161c0.162,-5.549 3.1,-4.284 44.233,-4.339Z" style="fill:#fdc462;"/><path d="M365.44,358.221c0.455,0.45 1.402,-0.075 1.857,0.375c1.125,1.113 -11.853,42.984 -22.592,61.145c-2.396,4.053 -5.496,-0.722 -10.232,-2.95c-3.492,-1.643 -3.584,-1.374 -6.2,-4.099c9.534,-23.652 34.837,-51.401 37.167,-54.471Z" style="fill:#fdf1d7;"/><path d="M666.162,922.834c17.168,4.34 17.043,4.126 34.468,5.596c-1.585,13.292 -2.983,13.343 0.031,26.389c-19.396,-1.666 -19.417,-1.26 -34.809,-6.805c0.625,-5.517 0.493,-13.478 0.593,-23.04l-0.283,-2.14Z" style="fill:#fcbe5d;"/><path d="M649.803,802.482c4.148,-1.208 4.186,-1.358 8.001,0.584c-0.321,8.399 -2.597,67.95 -5.061,104.938c-0.392,5.89 -2.926,3.449 -8.555,3.85l-0.912,-1.889l-0.91,-1.176c6.055,-20.24 7.542,-104.748 7.438,-106.307Z" style="fill:#f8cdb1;"/><path d="M823.915,423.82c3.751,-7.282 2.863,-7.876 6.49,-10.48c0.32,-0.229 2.583,-1.854 4.421,2.1c4.765,10.251 -7.455,30.147 -7.578,30.318c-8.519,11.839 -1.369,15.454 -10.515,26.677c-11.709,14.368 -20.252,-1.225 -10.365,-14.552c11.448,-15.431 9.064,-16.684 17.547,-34.063Z" style="fill:#f470b1;"/><path d="M69.181,650.903c-0.4,-1.037 -3.723,-9.646 -6.678,-12.13c-5.635,-4.736 -11.25,-4.957 -12.178,-6.395c-1.219,-1.888 5.315,-4.763 5.876,-5.01c10.959,-4.822 14.047,-18.172 14.593,-19.197c2.49,-4.677 7.571,9.049 8.614,11.114c4.914,9.731 22.414,9.684 12.575,14.064c-13.205,5.879 -13.258,8.742 -17.478,21.697c-2.269,6.966 -5.178,-3.615 -5.324,-4.144Z" style="fill:#e8a758;"/><path d="M234.638,924.409c17.003,4.703 16.954,4.045 34.356,5.845c-2.366,15.173 -2.541,15.267 0.06,26.25c-18.06,-1.826 -22.426,-1.888 -36.664,-8.67c0.882,-1.176 3.137,-0.062 3.06,-5.983c-0.087,-6.677 -0.241,-6.508 -0.487,-13.125l-0.468,-1.876l0.143,-2.441Z" style="fill:#fcc05e;"/><path d="M607.762,442.552c-26.454,1.217 -30.276,7.885 -35.863,-3.709c-3.959,-8.216 43.555,-9.538 68.521,-4.725c18.172,3.503 1.899,12.612 -1.627,11.924c-15.52,-3.03 -15.392,-2.653 -31.032,-3.49Z" style="fill:#f6ba5a;"/><path d="M263.595,793.662c0.69,-16.194 -0.544,-27.619 7.38,-33.563c16.282,-12.212 17.286,30.697 17.868,37.006c-8.439,2.357 -8.504,1.028 -23.618,1.031c-0.543,-1.491 -1.086,-2.983 -1.629,-4.474Z" style="fill:#773a2f;"/><path d="M83.944,531.114c-3.085,14.134 -2.036,21.787 -15.116,16.352c-26.436,-10.985 -22.378,-26.56 -12.994,-24.95c4.554,0.781 11.929,7.224 13.624,1.139c0.751,-2.698 0.96,-10.121 8.198,-12.381c6.898,-2.153 6.855,12.809 6.852,14.068c-0.001,0.464 -0.042,0.428 -0.563,5.772Z" style="fill:#fc89b9;"/><path d="M611.403,505.333c-8.474,-0.29 -8.432,-0.175 -9.152,-0.313c-2.057,-0.395 -8.103,-1.557 -4.017,-26.618c3.398,-20.84 19.836,-17.174 21.894,3.865c1.82,18.607 2.09,22.633 -8.724,23.067Z" style="fill:#7b3c31;"/><path d="M198.664,646.832c1.138,2.015 2.276,4.03 3.413,6.045c-8.568,9.589 -10.065,12.33 -8.46,33.885c0.986,13.242 9.566,6.188 15.557,8.945c11.566,5.322 -16.683,1.572 -25.385,4.69c-2.795,-14.115 -1.407,-14.161 -2.98,-28.586c-2.059,-18.875 -3.125,-19.302 -5.635,-22.621l-0.875,-2.224l1.821,0.812c18.592,-1.922 18.478,1.57 20.034,1.163c1.046,-0.274 1.463,-1.834 2.51,-2.108Z" style="fill:#fbebbd;"/><path d="M668.184,795.524c0.363,-0.687 3.869,-7.315 6.981,-6.628c4.091,0.903 -2.632,106.511 -4.042,107.445c-4.304,2.853 -4.131,-17.937 -5.009,-31.402l0.075,-1.876l0.003,-1.876l0,-3.752l0.011,-1.876l0,-1.876l-0.014,-1.876l-0.085,-1.876l0.088,-1.876l0.003,-1.876l0.102,-1.876l0.077,-1.876l0.422,-1.876l0.059,-1.876l0.064,-1.876l-0.18,-1.876l0.323,-1.876l-0.291,-1.876l0.359,-1.876l-0.271,-1.876l0.115,-1.876l0.087,-1.876l0.116,-1.876l0.016,-1.876l-0.043,-1.876l0,-1.876l-0.1,-1.876l-0.006,-1.876l0.063,-1.876l0.053,-1.876l-0.061,-1.876l0.082,-1.876l0.16,-1.876l0.129,-1.876l0.697,-1.876l-0.033,-1.876l0.052,-1.876Z" style="fill:#fdf8d9;"/><path d="M66.869,456.005c14.562,-8.06 11.594,-12.752 15.233,-20.257c5.298,-10.924 -0.545,13.986 21.311,19.817c11.665,3.112 -10.096,1.997 -15.982,23.102c-2.805,10.06 -6.196,-1.052 -6.547,-1.807c-6.91,-14.877 -17.11,-12.877 -18.839,-17.21c-0.908,-2.276 0.747,-1.633 4.823,-3.645Z" style="fill:#ecab5d;"/><path d="M186.082,808.708c0.268,-1.716 2.986,-19.123 11.995,-17.863c12.2,1.706 10.814,31.488 10.853,32.82c0.322,10.894 -13.788,7.381 -18.215,7.192c-6.043,-0.258 -5.017,-8.857 -4.633,-22.149Z" style="fill:#773a2f;"/><path d="M731.639,416.55c-0.823,1.101 -0.522,1.236 -1.576,2.107c-15.663,12.948 -33.262,0.464 -33.291,0.452c-7.288,-3.044 -13.989,0.369 -16.513,-0.307c-1.004,-0.269 -0.993,-14.138 -0.992,-15.37c0.007,-8.746 15.964,-7.721 24.398,-1.043c8.6,6.81 7.159,10.372 27.973,14.161Z" style="fill:#fcd06e;"/><path d="M159.724,386.521c-4.068,3.783 -5.934,15.936 -16.809,21.969c-10.67,5.92 8.991,5.089 14.279,26.858c0.568,2.34 -1.793,6.922 -2.076,7.471c-0.406,0.787 -1.631,0.87 -2.037,1.657c-5.872,-22.272 -8.141,-22.689 -27.761,-28.539c-6.779,-2.021 -5.063,-6.411 1.736,-8.377c34.293,-9.912 22.409,-28.307 29.359,-39.563c5.86,-9.491 3.617,7.671 12.882,27.746c-0.835,0.674 -1.449,1.61 -2.284,2.284c-0.84,0.678 -3.175,1.92 -7.291,-11.507Z" style="fill:#eeb467;"/><path d="M397.62,482.308c0.304,7.209 3.728,23.951 -4.777,24.123c-2.567,0.052 -17.229,2.09 -17.203,-5.436c0.012,-3.641 -1.74,-35.18 11.735,-34.812c1.295,0.035 3.92,1.145 4.761,1.902c5.922,5.331 3.643,6.502 5.484,14.224Z" style="fill:#7d3d32;"/><path d="M266.034,339.888c-18.307,33.314 -32.946,22.428 -31.505,11.016c1.809,-14.324 28.365,-39.591 32.182,-18.65c0.699,3.836 0.186,3.664 -0.677,7.634Z" style="fill:#d149c9;"/><path d="M788.016,788.729c11.289,2.712 12.232,12.608 12.169,34.909c-0.02,7.204 -3.324,4.547 -10.337,5.099c-7.987,-0.295 -11.613,3.134 -12.19,-5.125c-2.178,-31.153 7.637,-34.074 10.358,-34.883Z" style="fill:#793a2d;"/><path d="M699.438,129.08c6.496,7.804 7.117,6.869 14.255,9.428c8.693,3.116 -8.814,1.521 -16.053,17.557c-2.633,5.831 -1.145,11.311 -6.173,7.322c-1.687,-1.338 -2.45,-12.8 -14.698,-18.384c-0.452,-0.206 -7.474,-3.407 -3.122,-5.487c19.18,-9.166 11.957,-16.46 17.751,-21.431c1.828,-1.569 2.508,-0.454 8.041,10.995Z" style="fill:#efb364;"/><path d="M656.893,787.855c2.091,5.476 1.063,5.583 0.911,15.212c-3.814,-1.943 -3.852,-1.793 -8.001,-0.584c-19.745,9.261 -20.249,7.332 -21.946,8.132c-1.449,0.684 -2.168,2.538 -3.617,3.222c-8.339,0.047 -9.091,-0.711 -12.296,4.05c-12.304,4.717 -13.745,3.294 -20.928,7.734c-3.263,-9.609 -3.997,-9.541 -3.194,-11.255c0.043,-0.091 1.756,-1.233 1.942,-1.283c30.452,-8.299 30.422,-8.062 67.128,-25.228Z" style="fill:#ecc8a8;"/><path d="M241.69,709.214c16.788,11.453 15.401,23.505 76.086,62.561c0,0 3.406,3.116 3.702,3.387c-0.08,2.433 -0.16,4.867 -0.24,7.3c-4.072,-0.079 -3.825,-1.047 -20.792,-11.64c-2.384,-4.739 -2.252,-4.797 -2.574,-5.118c-0.877,-0.873 -2.491,-0.599 -3.368,-1.471l-2.429,-0.355c-4.918,-10.02 -12.085,-12.236 -13.99,-13.259c-1.199,-0.024 -2.398,-0.048 -3.597,-0.072c-2.394,-2.344 -24.324,-23.817 -29.413,-29.85c-3.995,-4.737 -4.415,-4.013 -7.031,-5.452l-2.687,-2.524c1.675,-3.76 2.249,-3.331 6.333,-3.506Z" style="fill:#e8c6a4;"/><path d="M125.433,333.851c-3.166,-9.251 -2.84,-9.596 -10.144,-15.875c-3.946,-3.392 -12.118,-4.656 -4.933,-8.664c15.738,-8.778 15.747,-26.895 18.459,-18.487c0.428,1.327 0.747,2.69 1.201,4.007c4.502,13.058 21.699,15.807 14.802,19.87c-17.477,10.296 -13.501,16.401 -16.519,20.782c-0.321,0.465 -1.19,-1.18 -1.51,-0.714l-1.356,-0.921Z" style="fill:#fdb5c5;"/><path d="M363.86,439.38c3.382,-2.58 12.684,-9.675 52.507,-3.231c9.598,1.553 11.982,6.952 3.51,11.697c-7.993,4.477 -9.133,-8.527 -59.795,0.697c-5.335,0.971 -13.753,-2.759 -5.3,-5.17c2.998,-0.855 2.775,-1.017 9.077,-3.993Z" style="fill:#f7bc5a;"/><path d="M498.608,566.81c15.201,-10.659 20.238,6.731 5.208,20.3c-7.259,6.553 -8.136,4.828 -12.119,3.28c-2.464,-0.958 -1.804,-1.696 -3.981,-3.306c-10.615,-7.851 -10.644,-19.036 -8.559,-21.692c6.559,-8.355 9.314,4.582 19.451,1.419Z" style="fill:#fa90ae;"/><path d="M718.907,602.307c-3.466,4.064 -3.475,3.872 -7.595,7.014c-24.631,-12.309 -87.311,-0.608 -87.403,-0.629c-13.387,-3.188 8.326,-8.326 9.298,-8.556c22.086,-5.227 64.502,-6.218 85.7,2.171Z" style="fill:#fbc765;"/><path d="M861.496,352.58c-0.317,-1.041 -3.968,-13.011 -3.968,-13.011c-3.963,-15.64 7.635,-21.129 11.985,-9.093c3.807,10.535 7.774,2.729 15.06,1.403c8.273,-1.506 12.308,10.606 -11.254,24.006c-8.404,4.779 -9.109,1.81 -11.824,-3.306Z" style="fill:#fb91ba;"/><path d="M369.984,810.75c-0.003,1.328 -0.032,14.661 -2.808,16.35c-3.618,2.2 -3.783,1.007 -14.199,1.252c-9.808,-0.152 -16.328,2.812 -17.27,-8.363c-0.276,-3.269 -2.4,-11.89 4.366,-12.519c8.202,-0.763 8.098,-0.897 16.354,-0.675c7.631,0.205 9.092,-2.603 13.556,3.956Z" style="fill:#df9c93;"/><path d="M624.24,813.836c17.466,0.37 25.04,0.161 20.507,17.479c-1.662,6.35 -32.083,8.828 -32.999,-2.05c-0,-0 0.18,-10.468 0.196,-11.379c3.205,-4.762 3.958,-4.003 12.296,-4.05Z" style="fill:#dd9a96;"/><path d="M802.081,643.251l3.074,2.186l-1.07,1.876l-0.159,1.876l-0.412,1.876l-0.357,1.876c-3.032,8.879 -3.237,36.94 -2.772,39.398c0.425,2.246 -0.07,2.163 -0.146,4.498c-5.454,-1.691 -10.337,-1.284 -19.455,-1.132c-18.62,0.309 -5.841,18.145 -12.806,17.493c-1.627,-0.152 -1.807,-12.296 -1.823,-13.377c3.994,-6.941 4.354,-6.425 9.54,-12.656c2.48,-0.771 2.298,-0.882 5.049,-0.906c15.779,-0.138 9.354,-10.136 11.037,-23.912c0.735,-1.575 1.76,-3.771 10.3,-19.096Z" style="fill:#f6d2ae;"/><path d="M503.807,493.789l1.964,-1.463l1.821,0.085c39.09,0.855 39.171,-2.091 67.26,2.855c-6.139,8.973 -7.415,7.309 -11.059,8.769c-4.051,-0.502 -10.568,-1.31 -50.999,-0.538c-5.004,-4.557 -4.646,-4.635 -8.987,-9.708Z" style="fill:#f9d0b0;"/><path d="M172.225,912.359c18.059,4.885 18.059,4.326 36.726,4.792c-0.188,1.65 -1.298,11.389 -7.32,19.344c-20.931,-1.442 -22.543,-3.163 -33.048,-7.139c1.693,-3.104 2.327,-2.864 3.207,-15.638l0.435,-1.359Z" style="fill:#fdc662;"/><path d="M421.172,496.105c0.125,-0.089 0.781,-3.169 4.519,-3.239c4.657,-0.087 56.801,-1.066 58.224,-0.005c1.002,0.747 1.296,2.254 2.298,3.001c-5.057,6.975 -7.203,8.786 -9.684,8.437c-9.461,-1.33 -24.607,-0.692 -43.697,-0.565c-5.915,-0.943 -5.974,-1.106 -11.66,-7.628Z" style="fill:#f8d0af;"/><path d="M633.25,450.374c2.165,0.859 2.46,0.265 3.481,1.936c1.209,1.977 0.827,87.986 0.474,91.958l-3.965,0.403c-2.068,-5.593 -2.119,-5.537 -2.233,-6.04c-0.24,-1.061 -1.408,-75.74 -0.315,-81.218c0.619,-3.1 -0.766,-2.73 -1.076,-3.837l1.821,-0.533l1.812,-2.669Z" style="fill:#fdf8db;"/><path d="M303.85,833.715c11.542,0.405 16.093,-0.504 16.811,6.718c1.917,19.293 -9.708,14.272 -16.97,14.778c-9.003,-0.671 -9.03,-0.194 -11.111,-1.388c-1.65,-0.947 -2.146,-3.486 -2.214,-3.836c-2.6,-13.319 0.234,-15.513 13.484,-16.271Z" style="fill:#dc958d;"/><path d="M798.874,913.288c-0.168,7.149 -2.685,8.881 7.506,18.237c-2.835,0.541 -34.849,6.657 -35.928,-2.892c-0.135,-1.195 -1.592,-14.086 -0.74,-15.019c1.599,-1.75 2.144,0.706 29.161,-0.326Z" style="fill:#e99e4e;"/><path d="M528.988,333.117c7.838,-7.392 6.834,-8.342 7.722,-8.525c8.462,-1.741 0.488,15.548 27.394,22.365c6.23,1.578 2.259,11.269 -1.968,10.034c-14.056,-4.106 -13.612,-5.438 -34.527,-9.661c2.136,-6.938 2.119,-6.947 1.379,-14.214Z" style="fill:#ec9e4f;"/><path d="M667.266,485.764c2.274,1.85 1.83,2.343 4.415,3.592c5.669,2.739 -11.097,56.154 -14.351,62.539c-1.743,3.42 -8.434,2.929 -4.809,-7.767l0.524,-1.876l0.913,-1.876l0.328,-1.876l0.322,-1.876l0.956,-1.876l0.468,-1.876l0.471,-1.876l0.723,-1.876l0.208,-1.876l-2.849,-2.093c7.071,-19.553 6.867,-19.514 12.681,-39.386Z" style="fill:#fbb8c9;"/><path d="M631.22,612.749c5.779,-0.994 49.908,-8.583 73.229,-1.486c0,0 2.317,2.571 2.519,2.795c-2.503,2.237 -10.748,9.994 -11.678,10.868c-4.052,-4.523 -3.673,-4.748 -4.104,-5.029c-7.076,-4.603 -40.192,-4.405 -45.178,-4.019l-1.821,0.066l-1.821,0.073l-1.821,-0.107l-1.821,0.097l-1.821,0.073l-1.821,0.071l-1.821,-0.089l-2.039,-3.312Z" style="fill:#f9cdae;"/><path d="M890.667,564.716c3.949,71.67 4.995,72.245 1.524,77.384c-3.785,-1.97 -3.806,-1.886 -4.088,-2.128c-2.249,-1.93 1.968,-5.945 -0.982,-32.205c-0.25,-1.816 -0.321,-1.643 -1.456,-5.48l-0.08,-1.876l-0.255,-1.876l-2.304,-1.862c2.179,-34.088 2.238,-35.955 4.944,-35.213c3.673,1.007 2.177,2.628 2.697,3.257Z" style="fill:#bd53db;"/><path d="M361.83,917.11c1.448,11.272 3.859,10.35 7.414,20.18c-11.135,0.157 -29.594,2.099 -30.383,-3.046c-0.2,-1.307 -2.272,-14.825 -0.39,-16.529c1.19,-1.077 19.256,-0.615 23.358,-0.605Z" style="fill:#e4984c;"/><path d="M361.83,917.11c16.322,-0.02 27.48,-0.862 27.977,2.018c0.239,1.383 2.591,15.007 -0.176,17.563c-1.592,1.471 -16.944,0.643 -20.387,0.599c-3.555,-9.83 -5.967,-8.908 -7.414,-20.18Z" style="fill:#fcc25e;"/><path d="M700.63,928.429c4.866,0.059 9.732,0.118 14.598,0.177c1.162,1.724 10.071,14.945 1.777,26.175c-8.17,0.363 -8.013,0.193 -16.343,0.037c-3.015,-13.047 -1.616,-13.098 -0.031,-26.389Z" style="fill:#fdd987;"/><path d="M571.988,685.527c-6.273,3.379 -28.545,4.986 -33.606,5.472c2.537,-17.934 4.046,-18.009 5.516,-18.083c26.003,-1.295 26.478,0.534 27.039,2.696c0.2,0.771 0.078,0.734 1.05,9.915Z" style="fill:#fdefc5;"/><path d="M268.994,930.254c4.863,0.096 9.726,0.192 14.589,0.288c0.35,0.69 9.003,14.659 1.773,26.085c-8.318,0.34 -8.117,0.139 -16.301,-0.123c-2.602,-10.983 -2.426,-11.077 -0.06,-26.25Z" style="fill:#fdd883;"/><path d="M743.983,421.855l3.91,-0.513c13.739,-1.041 11.962,4.37 21.956,10.231c7.438,4.363 8.739,5.632 14.697,-0.62c10.415,2.631 -2.002,9.131 -3.56,10.315c-0.79,-0.355 -0.001,-2.155 -3.57,-1.604c-1.772,0.273 -1.736,0.029 -1.881,0.073c-13.75,4.196 -13.475,-5.753 -27.605,-3.331c-12.158,2.084 -4.479,-13.474 -3.948,-14.551Z" style="fill:#fad27b;"/><path d="M367.369,549.939c29.198,0.055 29.03,0.269 58.26,0.089c1.169,10.364 -3.855,7.523 -12.722,7.789c-20.133,0.604 -19.976,1.297 -40.119,-0.322c-2.997,-0.241 -12.994,1.763 -5.419,-7.556Z" style="fill:#fbc3d1;"/><path d="M481.578,687.522c1.358,-10.648 -0.71,-14.658 9.627,-14.912c4.851,-0.119 18.515,-1.975 19.334,4.795c0.852,7.035 0.79,6.92 2.797,13.663c-16.048,-0.685 -15.987,-0.019 -31.759,-3.547Z" style="fill:#fdeebe;"/><path d="M274.488,750.547c1.199,0.024 2.398,0.048 3.597,0.072c1.078,1.863 0.208,2.443 1.984,3.428c6.547,3.63 5.605,4.657 8.939,11.467c3.109,6.35 4.411,27.587 2.295,28.99c-2.012,1.334 -1.574,1.664 -2.46,2.602c-0.582,-6.309 -1.586,-49.219 -17.868,-37.006c-7.924,5.944 -6.69,17.369 -7.38,33.563c-1.852,1.555 -3.943,2.849 -3.982,-1.812c-0.015,-1.815 -0.188,-22.452 -0.128,-22.685c0.204,-0.8 1.273,-1.078 1.65,-1.809c0.6,-1.162 0.334,-1.772 0.273,-1.913c-0.657,-1.505 -1.409,-0.691 -2.023,-2.097c6.218,-11.254 7.611,-9.921 15.103,-12.801Z" style="fill:#f5c15d;"/><path d="M171.489,647.374c0.937,-0.136 1.874,-0.273 2.811,-0.409l0.875,2.224c2.51,3.318 3.576,3.746 5.635,22.621c1.573,14.425 0.185,14.472 2.98,28.586c-6.949,9.093 -0.131,15.234 -3.818,16.685c-5.096,2.006 -3.755,-2.692 -8.483,-69.707Z" style="fill:#fcf5dc;"/><path d="M547.646,99.505c6.677,7.502 16.376,7.824 16.392,7.828c-0.891,1.562 -2.446,4.289 -3.66,22.331c-13.219,-1.702 -13.677,-2.505 -20.467,-14.384c0.37,-1.218 1.558,-2.056 1.927,-3.274c2.084,-6.869 0.439,-7.877 5.809,-12.501Z" style="fill:#f0ac59;"/><path d="M438.247,818.709l1.865,0.593c0.059,10.494 0.047,10.333 0.083,11.865c-0.223,63.149 0.347,68.369 1.479,105.6c-1.194,-0.299 -2.389,-0.599 -3.583,-0.898c-3.436,-20.196 -1.937,-91.158 -1.769,-99.084c0.248,-11.755 -1.459,-12.058 1.925,-18.076Z" style="fill:#864e3d;"/><path d="M649.719,425.691c3.937,0.479 5.717,0.557 4.114,4.302c-3.423,7.996 -16.153,-12.143 -84.407,0.793c-5.075,0.962 -6.55,-4.206 -3.536,-4.817c39.906,-8.09 77.221,-1.453 83.83,-0.278Z" style="fill:#f38faa;"/><path d="M216.294,379.101c0.523,-0.769 4.538,-6.682 9.046,-7.136c17.576,-1.769 6.112,28.708 -5.539,28.487c-12.959,-0.246 -4.212,-19.778 -3.507,-21.351Z" style="fill:#c048d1;"/><path d="M326.649,417.691c8.438,4.876 8.152,5.019 15.895,11.08c9.185,7.19 11.389,2.612 17.737,6.495c-15.507,11.652 -17.383,1.232 -36.673,1.485c-0.38,0.005 -0.333,-0.118 -4.489,-1.591c3.963,-10.656 3.077,-10.992 7.531,-17.468Z" style="fill:#fcd36e;"/><path d="M564.038,107.333c9.29,0.247 9.278,1.19 18.275,-0.906c13.077,-3.047 -10.416,7.775 -5.143,13.305c3.155,3.308 17.77,9.428 8.691,8.889c-2.037,-0.121 -1.788,1.332 -25.483,1.043c1.215,-18.043 2.77,-20.769 3.66,-22.331Z" style="fill:#fbce69;"/><path d="M863.068,670.362l1.532,-0.596c5.251,7.968 4.435,8.756 12.302,13.864c5.233,3.398 -5.774,6.373 -9.644,14.887c-1.874,4.123 -1.503,5.104 -2.882,4.439c-4.941,-2.381 -0.439,-7.186 -14.438,-16.188l1.044,-2.305c10.011,-8.821 9.372,-9.364 12.086,-14.1Z" style="fill:#fdd77d;"/><path d="M229.6,861.234l1.159,0.773c7.495,3.598 7.782,1.86 23.72,2.389c7.436,0.247 5.232,12.886 1.747,13.468c-7.435,1.242 -9.464,-3.904 -20.127,2.795c-2.419,-0.24 -4.839,-0.481 -7.258,-0.721c0.253,-6.235 0.506,-12.47 0.76,-18.705Z" style="fill:#fdc9ca;"/><path d="M381.451,598.574l2.294,1.09c14.006,6.881 17.176,4.587 24.34,3.984c10.324,6.46 16.725,-1.247 16.017,6.178c-0.495,5.193 -25.914,1.617 -45.863,2.674c-0.439,0.023 -8.308,0.44 -3.419,-4.424c4.223,-4.202 4.929,-3.744 6.632,-9.502Z" style="fill:#e87b92;"/><path d="M383.285,342.543l1.041,2.72l-0.041,1.876c-0.141,3.446 -7.292,44.159 -11.366,45.269c-2.218,0.605 -3.884,-1.524 -3.876,-2.119c0.078,-5.324 1.016,-5.196 0.876,-5.628c-0.698,-2.148 -2.693,0.036 -3.392,-2.116c4.817,-15.611 5.585,-15.243 8.491,-31.426c3.958,-4.634 3.739,-4.645 8.266,-8.576Z" style="fill:#fbbbca;"/><path d="M186.441,621.694c1.89,3.578 3.78,7.155 5.67,10.733c-0.696,0.21 -0.304,1.779 -1,1.989c-1.73,0.523 -1.756,-0.564 -22.238,3.741c-2.863,0.602 -8.06,1.564 -12.229,-6.131c-3.78,-6.977 20.532,-7.149 29.797,-10.332Z" style="fill:#fcc35a;"/><path d="M516.064,535.258c-3.576,-4.421 -9.541,-12.499 -14.865,-18.298c-7.893,-8.596 -14.629,3.87 -27.563,20.172c-0.501,-1.207 -2.541,-1.177 -3.042,-2.384c-0.096,-0.232 8.119,-11.622 9.489,-13.133c5.674,-6.254 12.382,-19.203 14.76,-19.266c0.665,-0.018 1.157,0.856 1.821,0.838l1.821,0.541l1.821,0.297l1.821,0.815l1.114,1.766l0.169,1.876l0.763,1.876l0.136,1.876l1.46,0.866l0.027,1.01l1.137,1.876l1.556,1.876l0.922,1.034l1.643,2.718l1.276,1.876l1.538,1.876l1.007,1.258l1.689,2.494l1.463,1.876l1.322,1.876l-3.286,2.386Z" style="fill:#f48ca4;"/><path d="M356.367,431.921c-2.976,-2.012 -3.29,-1.862 -3.203,-2.165c0.6,-2.084 21.043,-6.646 48.695,-4.919c2.318,0.145 26.513,1.656 28.84,3.407c0.629,0.473 3.202,6.623 -8.841,4.203c-20.478,-4.115 -59.544,-2.552 -65.49,-0.526Z" style="fill:#f59fb1;"/><path d="M717.257,772.976c0.019,0.354 2.892,19.077 -1.956,19.285c-8.316,0.356 -12.428,0.757 -12.448,-2.458c-0.197,-31.072 9.179,-27.958 10.718,-26.315c2.456,2.623 1.725,2.866 3.686,9.489Z" style="fill:#9d6457;"/><path d="M108.223,429.071c-18.765,11.492 -22.977,-20.045 -14.055,-18.174c1.467,0.308 28.746,-0.392 14.055,18.174Z" style="fill:#fdfbef;"/><path d="M282.883,793.298c-12.404,0.281 -12.451,0.513 -13.539,0.068c-2.334,-0.955 -0.501,-38.019 9.104,-28.215c6.255,6.384 4.422,26.028 4.435,28.147Z" style="fill:#986056;"/><path d="M117.825,564.341c0.985,0.117 8.717,1.034 10.9,6.077c0.333,0.769 2.444,5.647 -0.805,10.487c-10.347,15.41 -33.743,-10.924 -10.095,-16.564Z" style="fill:#fdfbee;"/><path d="M227.19,721.118l1.794,1.218c0.204,9.375 0.145,9.265 -0.408,18.737c-0.307,5.256 -11.142,3.819 -14.196,3.926l-0.985,-2.005c-0.284,-14.839 -0.326,-14.735 -0.297,-18.761l-0.378,-2.373c7.329,0.288 7.212,0.008 14.471,-0.742Z" style="fill:#f8cdac;"/><path d="M585.292,384.453l2.802,2.084c-0.027,1.858 -0.054,3.716 -0.081,5.574c-0.666,18.716 0.741,18.704 -0.223,25.671c-8.837,1.473 -20.732,4.811 -17.25,-1.493c5.025,-9.098 13.648,-29.253 14.753,-31.836Z" style="fill:#ee7f9d;"/><path d="M136.018,393.239c-22.131,-4.455 -9.045,-29.444 5.446,-17.893c2.028,1.616 10.388,12.441 -5.446,17.893Z" style="fill:#fdf9eb;"/><path d="M607.759,499.671c-3.493,-0.19 -3.484,-0.111 -3.772,-0.205c-3.043,-0.994 -2.12,-24.657 3.217,-29.419c1.573,-1.404 8.148,-2.705 8.479,25.331c0.068,5.735 -2.466,3.859 -7.923,4.294Z" style="fill:#9d675d;"/><path d="M816.801,909.123c0.104,14.472 1.924,16.876 2.47,18.569c-6.291,2.449 -6.126,2.345 -12.891,3.834c-10.191,-9.356 -7.674,-11.087 -7.506,-18.237c9.14,-1.454 8.925,-1.603 17.927,-4.166Z" style="fill:#fbc15e;"/><path d="M500.313,187.823c-4.881,0.024 -9.762,0.048 -14.644,0.073c-0.924,-10.781 0.989,-10.395 4.415,-20.483c0.891,-2.624 8.911,-4.125 9.847,-0.234c3.918,16.295 6.744,19.956 0.382,20.644Z" style="fill:#f180a0;"/><path d="M205.097,656.782c3.267,6.84 3.193,6.691 7.855,12.781l-2.948,2.138c-1.371,12.261 3.669,18.869 -8.394,18.281c-3.215,-0.157 -3.296,-7.716 -3.452,-14.532c-0.309,-13.495 6.027,-17.435 6.939,-18.669Z" style="fill:#a1695c;"/><path d="M278.085,750.619c1.905,1.024 9.072,3.24 13.99,13.259c5.105,17.334 1.671,17.848 5.417,35.489c2.689,12.66 -11.025,9.856 -35.79,9.82c7.988,-5.369 8.649,-3.178 18.232,-4.152l1.821,-0.002c2.717,0.885 2.627,0.629 5.465,-0.057c16.825,-1.348 2.23,-7.712 1.624,-7.87c0.886,-0.937 0.448,-1.267 2.46,-2.602c2.116,-1.403 0.813,-22.64 -2.295,-28.99c-3.334,-6.81 -2.392,-7.837 -8.939,-11.467c-1.776,-0.985 -0.906,-1.565 -1.984,-3.428Z" style="fill:#995f3a;"/><path d="M229.828,857.442c8.071,1.164 7.984,1.347 11.861,1.439c13.803,0.869 23.288,-2.679 21.826,17.311c-0.778,10.626 -20.888,5.78 -23.43,5.306c-0.307,-0.112 -0.268,0.035 -3.986,-0.839c10.663,-6.699 12.693,-1.553 20.127,-2.795c3.485,-0.582 5.689,-13.221 -1.747,-13.468c-15.938,-0.529 -16.225,1.208 -23.72,-2.389l-1.159,-0.773l0.227,-3.792Z" style="fill:#e19c9b;"/><path d="M501.86,127.651c0.03,-1.886 -0.112,-3.772 -0.081,-5.658c0.128,-7.962 30.622,-6.896 34.491,-3.257c5.102,4.799 1.339,9.11 13.336,14.066c-0.461,0.333 -1.176,-0.765 -1.636,-0.432c-1.018,0.737 -1.279,2.223 -2.131,3.158c-4.408,4.833 -12.27,-11.11 -21.893,-13.479c-10.033,-2.47 -18.093,2.834 -19.425,3.711l-2.661,1.891Z" style="fill:#fde8db;"/><path d="M217.28,676.259c6.828,10.251 6.704,10.21 18.963,25.453c-1.229,0.808 -10.301,6.769 -18.143,1.735c-2.294,-1.472 -2.615,-10.162 -2.649,-11.074c-0.438,-11.846 -0.91,-12.125 1.828,-16.114Z" style="fill:#fcedc3;"/><path d="M191.893,804.794c1.09,-3.999 0.135,-4.408 2.752,-7.145c8.603,-8.998 9.123,20.303 9.157,22.234c0.127,7.168 -2.594,5.915 -9.475,5.714c-4.662,-0.136 -4.03,-7.813 -2.434,-20.804Z" style="fill:#935e56;"/><path d="M385.573,501.092c-8.568,-0.41 -4.957,-4.536 -4.604,-13.237c0.809,-19.912 7.618,-16.305 8.416,-15.175c4.277,6.054 5.913,28.013 1.655,28.353c-1.817,0.145 -3.65,-0.086 -5.467,0.059Z" style="fill:#9c695e;"/><path d="M257.974,217.727c-0.591,-6.384 -0.917,-7.019 3.975,-10.992c0.555,-0.451 3.966,-3.221 8.687,-1.629c17.349,5.852 -1.113,32.688 -12.662,12.621Z" style="fill:#fdfbee;"/><path d="M733.308,865.706c13.354,0.227 12.499,2.791 12.523,3.06c0.072,0.815 0.83,9.382 -3.224,9.682c-20.992,1.554 -21.51,-0.486 -21.957,-2.245c-2.65,-10.429 2.203,-9.567 12.658,-10.497Z" style="fill:#fbcac2;"/><path d="M148.756,707.125l2.107,2.098c6.256,8.124 3.322,14.242 4.993,29.988c0.404,3.81 -0.762,3.393 -3.428,6.112c-6.451,-0.807 -4.771,-3.175 -5.258,-7.975c-2.064,-20.328 -4.539,-27.384 1.585,-30.223Z" style="fill:#fdf8e1;"/><path d="M791.676,823.328c-6.133,-0.329 -9.24,2.756 -9.265,-3.425c-0.009,-2.044 -0.146,-34.695 8.646,-23.948c2.25,2.751 3.133,9.802 3.244,10.691c2.063,16.485 -1.203,15.874 -2.625,16.682Z" style="fill:#915b53;"/><path d="M622.08,652.77c0.856,1.591 1.712,3.182 2.567,4.773c-14.673,7.347 -6.993,-13.464 -13.328,-13.289c-10.677,0.295 -7.749,5.127 -6.371,16.064c0.964,7.653 0.389,7.642 2.829,14.934c-0.947,0.382 -0.919,-0.208 -1.829,0.159c-0.306,0.123 -0.273,0.139 -3.681,1.877c-1.935,-27.769 -3.093,-27.704 -2.698,-30.086c1.369,-8.26 13.993,-8.114 15.528,-7.64c8.123,2.506 -1.463,12.463 6.982,13.209Z" style="fill:#95523a;"/><path d="M228.84,879.939c2.419,0.24 4.839,0.481 7.258,0.721c3.718,0.874 3.679,0.728 3.986,0.839l0.195,2.201c0.017,28.263 -4.907,28.787 -6.206,27.014c-1.501,-2.047 -1.637,-1.861 -2.16,-4.501c-0.694,-3.505 -1.27,-3.06 -3.704,-5.646c0.21,-6.876 0.42,-13.752 0.63,-20.628Z" style="fill:#fef6d2;"/><path d="M482.08,432.505c24.813,-0.373 35.42,-1.691 34.634,4.689c-0.728,5.914 -39.108,2.57 -39.846,1.68c-4.551,-5.484 4.568,-6.31 5.212,-6.368Z" style="fill:#f9cc67;"/><path d="M811.254,747.507c-2.554,8.532 -3.346,7.998 -6.786,16.158c-9.471,0.95 -11.15,0.149 -14.612,0.048c-1.061,-7.82 -0.525,-7.754 1.711,-15.196c0.929,-3.093 18.119,-1.185 19.687,-1.011Z" style="fill:#f77ca4;"/><path d="M220.884,916.11c0.041,0.446 0.992,0.414 0.026,16.333c-0.418,6.883 -12.797,4.322 -19.279,4.051c6.022,-7.954 7.132,-17.694 7.32,-19.344c9.09,-1.087 10.975,-1.057 11.933,-1.041Z" style="fill:#e5964c;"/><path d="M883.025,596.672l2.304,1.862l0.255,1.876l0.08,1.876c1.135,3.837 1.206,3.664 1.456,5.48l-2.72,2.024l-0.123,1.876c0.18,2.975 -0.213,8.951 0.064,11.267c2.747,23.02 -12.831,4.606 -16.143,1.871l-2.015,0.192c-0.762,-0.534 -1.523,-1.067 -2.285,-1.601c5.735,-3.228 5.626,-3.555 6.186,-3.483c11.59,1.492 10.666,-10.364 12.94,-23.24Z" style="fill:#b254ce;"/><path d="M312.653,467.186l2.73,1.899l1.115,1.876l0.534,1.876l0.183,1.876c1.697,4.556 1.256,4.563 0.516,9.39c-2.088,17.211 -2.07,17.102 -2.255,18.588c-0.857,6.897 0.705,8.3 -5.32,11.563c-1.874,-23.657 -2.07,-23.712 2.497,-47.069Z" style="fill:#fcdde3;"/><path d="M828.155,703.128c9.361,2.031 7.225,5.681 6.372,28.575c-0.287,7.699 1.335,10.409 -6.394,11.341c-2.696,-12.829 -0.472,-32.852 -0.661,-37.573l0.684,-2.343Z" style="fill:#fdf5db;"/><path d="M618.856,818.545c5.937,-0.099 21.37,-1.768 21.607,3.248c0.669,14.158 -6.267,9.402 -19.947,9.201c-5.083,-0.075 -6.846,-9.502 -1.661,-12.449Z" style="fill:#fdcec8;"/><path d="M638.794,916.856c11.27,-0.043 11.577,-0.745 12.74,0.573c1.116,1.265 -0.075,15.558 -0.187,16.906c-0.385,4.621 -10.835,3.043 -18.166,2.96c1.133,-2.919 6.572,-10.165 6.452,-17.948l-0.838,-2.49Z" style="fill:#e99c52;"/><path d="M758.283,848.156c0.387,4.335 0.774,8.67 1.161,13.005l-2.339,2.264c-0.122,-0.283 -1.528,-3.539 -1.528,-3.539c-1.333,-0.087 -1.285,0.771 -16.675,0.883c-6.021,0.044 -4.37,-2.737 -3.653,-8.963c0.542,-4.71 14.262,-3.363 21.856,-4.423l1.177,0.773Z" style="fill:#fac2b6;"/><path d="M900.696,423.628c-5.254,4.491 -6.429,6.171 -11.216,1.11c-5.366,-5.672 -7.476,-7.292 -1.683,-12.596c4.539,-4.156 3.911,-6.16 7.803,-5.235c0.503,0.12 9.588,9.009 9.71,9.285c1.559,3.538 -1.826,5.505 -4.613,7.436Z" style="fill:#f9cc73;"/><path d="M178.169,764.832c-3.242,-13.085 -8.891,-13.739 -5.097,-15.338c0.428,-0.181 17.152,-0.144 17.398,-0.056c3.552,1.269 3.718,14.487 3.734,15.787c-8.09,0.881 -8.062,1.203 -16.036,-0.393Z" style="fill:#fb81b0;"/><path d="M327.309,777.942c19.91,10.995 22.279,11.101 29.281,15.262c-1.587,3.485 -1.435,3.43 -3.057,7.002c-1.383,3.047 -12.297,-5.61 -22.605,-10.119l-1.821,-0.051l-1.313,-0.14c-0.162,-3.985 -0.324,-7.969 -0.486,-11.954Z" style="fill:#d2b899;"/><path d="M79.9,634.535c-6.382,7.093 -6.654,10.708 -9.361,7.098c-1.582,-2.109 -1.305,-2.065 -3.107,-4.169c-4.439,-5.185 -9.003,-6.077 -4.159,-8.821c7.968,-4.514 7.289,-16.2 11.56,-7.992c3.481,6.689 10.559,8.93 8.255,11.501c-0.891,0.994 -2.298,1.39 -3.189,2.383Z" style="fill:#fdd67c;"/><path d="M356.429,823.34c-1.257,-0.014 -14.9,-0.161 -15.569,-2.146c-3.041,-9.02 0.965,-9.294 10.244,-9.739c10.13,-0.486 14.226,-2.189 14.008,8.396c-0.121,5.868 -2.918,3.161 -8.683,3.489Z" style="fill:#fbd0c3;"/><path d="M165.753,903.724c10.002,5.517 18.912,9.852 46.83,8.34l6.911,-1.084c0.463,1.71 0.927,3.419 1.39,5.129c-0.958,-0.016 -2.843,-0.047 -11.933,1.041c-18.667,-0.466 -18.667,0.093 -36.726,-4.792c-4.799,-2.514 -4.335,-3.548 -9.777,-3.924c1.102,-1.57 2.204,-3.14 3.305,-4.711Z" style="fill:#854a37;"/><path d="M496.457,141.297c1.169,0.597 12.999,6.635 5.212,15.914c-10.589,12.619 -27.281,-14.995 -5.212,-15.914Z" style="fill:#f9c071;"/><path d="M85.04,470.931l-1.32,1.219c-2.692,-4.694 -2.405,-4.827 -6.27,-8.358c-3.48,-3.178 -8.123,-3.464 -3.612,-6.262c7.603,-4.715 8.314,-14.151 11.623,-9.352c3.021,4.383 4.908,6.492 6.863,7.804c5.881,3.947 -1.412,4.207 -7.283,14.948Z" style="fill:#fcc073;"/><path d="M545.839,821.939c-1.781,4.366 -1.045,4.353 -1.391,12.868c-7.313,-2.114 -7.285,-0.7 -14.991,-0.521c-1.824,0.042 -3.765,-0.633 -5.473,0.028c-1.256,0.486 -1.399,2.631 -2.655,3.117c-1.338,-6.665 -0.48,-8.811 -0.807,-13.038c21.705,-2.003 23.297,-2.202 25.317,-2.455Z" style="fill:#c98d66;"/><path d="M199.292,764.257c-1.872,-11.442 -5.546,-14.878 0.525,-14.927c1.172,-0.01 14.508,-0.119 14.608,1.12c0.097,1.195 1.196,14.759 -1.909,14.86c-6.784,0.219 -6.949,1.939 -13.225,-1.052Z" style="fill:#f577a4;"/><path d="M629.57,163.971c18.417,5.458 1.897,28.709 -8.33,13.856c-7.156,-10.393 7.093,-13.58 8.33,-13.856Z" style="fill:#f9c571;"/><path d="M770.223,762.965c-0.339,-14.017 -1.204,-14.419 0.214,-15.492c0.098,-0.074 16.743,-1.788 16.771,1.783c0.009,1.14 -0.336,0.962 -3.018,13.908c-5.901,1.291 -8.002,1.358 -13.967,-0.198Z" style="fill:#ea7098;"/><path d="M684.404,139.128c4.469,-4.043 3.837,-4.428 7.284,-9.473c2.652,-3.882 2.083,2.592 9.477,8.478c1.418,1.129 4.726,1.07 1.304,4.513c-9.975,10.035 -9.65,11.596 -10.448,10.703c-2.195,-2.453 -0.307,-4.342 -9.498,-10.791c0.627,-1.143 1.255,-2.287 1.882,-3.43Z" style="fill:#fcd47e;"/><path d="M104,673.627c0.358,-1.304 4.242,-15.437 15.124,-6.645c11.857,9.58 -11.596,26.775 -15.124,6.645Z" style="fill:#f7bb69;"/><path d="M201.504,291.334c18.911,9.579 -3.062,27.231 -9.425,12.912c-5.455,-12.277 8.171,-12.858 9.425,-12.912Z" style="fill:#f9c67b;"/><path d="M440.112,819.302c11.135,1.77 22.152,3.452 24.079,3.746c-0.24,3.377 -0.48,6.754 -0.72,10.13c-5.386,-1.877 -19.716,-3.048 -21.444,-3.19l-1.831,1.178c-0.037,-1.531 -0.024,-1.371 -0.083,-11.865Z" style="fill:#c98c66;"/><path d="M575.785,538.509c-0.068,0.603 -1.015,9.057 -5.645,4.867c-0.355,-0.321 -4.621,-39.457 4.568,-38.042c1.645,0.253 1.026,1.616 1.077,33.176Z" style="fill:#fcf6e8;"/><path d="M265.225,798.137c15.115,-0.003 15.18,1.326 23.618,-1.031c0.606,0.159 15.201,6.522 -1.624,7.87l-5.465,0.057l-1.821,0.002c-2.785,-0.011 -20.175,0.234 -21.249,-0.742c-1.419,-1.289 -0.589,-1.532 -0.29,-4.635c3.428,-0.974 3.279,-1.089 6.831,-1.521Z" style="fill:#fcce65;"/><path d="M91.299,482.217c0.741,-0.865 7.906,-9.23 13.206,-4.763c9.032,7.611 -6.077,29.93 -14.219,6.639l1.013,-1.876Z" style="fill:#fdfcf0;"/><path d="M181.423,607.972l3.107,7.57c-5.819,4.008 -15.366,2.933 -24.692,6.069c-0.386,0.13 -4.746,1.596 -5.038,-0.589c-0.218,-1.635 0.384,-1.332 8.282,-11.449l2.11,0.661c0.826,1.287 1.635,-0.5 2.464,0.792c0.729,1.137 -1.528,1.152 -0.576,2.149c0.13,0.136 7.343,-4.86 12.682,-4.37l1.66,-0.833Z" style="fill:#f37fa4;"/><path d="M821.707,859.246c0.372,5.643 0.744,11.285 1.115,16.928l-1.973,0.549c-9.711,-8.607 -16.573,1.676 -17.553,-6.245c-1.731,-13.989 13.298,-5.687 15.732,-10.611c0.285,-0.577 -0.285,-1.365 0,-1.942l2.679,1.321Z" style="fill:#fdd4d0;"/><path d="M301.855,850.424c-3.156,-0.215 -8.051,2.181 -7.205,-7.981c0.491,-5.891 20.632,-5.422 21.278,0.017c1.239,10.434 -3.874,7.622 -14.073,7.965Z" style="fill:#f9c7b9;"/><path d="M711.575,797.154c1.353,-0.009 16.15,-0.107 16.819,1.793c2.132,6.056 -4.867,4.85 -27.761,5.117c-12.184,0.142 -7.661,-5.756 -6.968,-5.976c2.673,-0.85 16.475,-0.926 17.91,-0.933Z" style="fill:#fdce5f;"/><path d="M467.355,823.111c2.054,-0.029 2.012,0.494 25.666,0.785c-5.533,6.229 -2.74,8.662 -3.077,10.867c-15.152,-1.162 -15.715,-4.273 -22.351,0.143l-0.238,-11.795Z" style="fill:#c48863;"/><path d="M424.29,104.941c5.647,-20.069 25.522,-1.796 13.571,6.809c-9.521,6.856 -13.218,-5.619 -13.571,-6.809Z" style="fill:#fdfbf4;"/><path d="M152.916,749.456c1.357,-0.01 13.955,-1.039 15.415,1.772c2.091,4.027 5.522,13.102 5.959,14.26c-15.053,0.665 -14.212,-3.063 -23.826,-14.972l2.452,-1.06Z" style="fill:#f87dad;"/><path d="M512.794,503.498c40.43,-0.772 46.948,0.036 50.999,0.538c-0.115,1.525 -0.229,3.05 -0.344,4.575c-9.156,-1.284 -9.011,-0.565 -37.655,-0.776c-4.691,-0.035 -4.7,-0.456 -5.743,-0.077c-1.765,0.641 -0.219,2.242 -2.073,2.916c-2.474,-3.776 -2.47,-3.613 -5.182,-7.176Z" style="fill:#ad765b;"/><path d="M496.341,136.673c-2.925,-0.2 -3.521,-0.213 -3.576,-3.378c-0.814,-46.43 -0.214,-49.398 3.298,-48.065c1.96,0.744 2.119,45.303 0.279,51.442Z" style="fill:#fac160;"/><path d="M811.781,857.197c2.416,0.243 4.832,0.485 7.248,0.728c-0.285,0.577 0.285,1.365 -0,1.942c-2.434,4.924 -17.463,-3.378 -15.732,10.611c0.98,7.921 7.842,-2.363 17.553,6.245c-1.817,0.466 -3.634,0.932 -5.45,1.397c-10.714,0.05 -10.99,1.201 -14.106,-0.899c-0.355,-0.239 -2.442,-1.646 -2.629,-4.742c-0.958,-15.916 4.481,-13.984 13.116,-15.282Z" style="fill:#e4a19c;"/><path d="M427.015,515.982c0.016,10.666 1.917,30.644 -4.603,27.284c-2.032,-1.047 -2.951,-37.05 -0.637,-37.248c2.197,-0.187 3.943,1.868 4.189,2.159c1.068,1.258 0.624,1.341 1.051,7.804Z" style="fill:#fbf7e6;"/><path d="M716.234,749.783c1.937,1.721 3.874,3.441 5.811,5.162l0.704,0.851c-0.067,0.887 -1.522,1.219 -1.59,2.106c-0.064,0.846 2.409,-0.279 4.406,9.591c5.288,26.13 0.445,26.422 -1.608,26.392c-4.145,-0.061 4.836,-25.767 -10.493,-36.061c-1.667,-2.705 -1.681,-2.594 -2.48,-4.193c1.75,-1.283 3.5,-2.566 5.25,-3.848Z" style="fill:#f7c760;"/><path d="M815.954,747.683c7.882,-1.01 7.975,-1.93 15.523,0.829c-10.435,12.659 -9.679,16.496 -21.819,15.533c2.825,-8.366 3.107,-8.099 6.295,-16.361Z" style="fill:#fa88af;"/><path d="M496.74,824.433c1.585,-0.008 16.335,-0.086 19.818,-0.03c0.106,0.966 1.084,9.897 -0.026,12.148c-0.251,0.509 -1.378,-0.167 -1.629,0.342c-3.031,-3.394 -2.983,-4.478 -7.393,-3.297c-6.135,1.643 -6.262,-0.359 -12.266,1.418c-0.172,-8.506 -0.491,-8.516 -0.185,-9.18c0.529,-1.147 1.184,-0.321 1.681,-1.4Z" style="fill:#c88d6b;"/><path d="M666.162,922.834l0.283,2.14c-0.1,9.562 0.032,17.523 -0.593,23.04c-11.714,-6.398 -8.577,-9.37 -8.02,-22.984c0.019,-0.455 0.221,-5.397 1.013,-5.601c0.623,-0.16 0.533,0.248 7.316,3.405Z" style="fill:#fccf6f;"/><path d="M710.984,753.632c0.799,1.599 0.813,1.488 2.48,4.193l-1.845,-0.041c-1.908,1.238 -3.816,2.476 -5.724,3.714c-15.208,12.42 -1.996,34.772 -10.687,32.009c-2.691,-0.855 -1.222,-1.937 -1.369,-13.017c-0.095,-7.137 1.894,-7.314 -0.901,-13.768c9.137,-6.601 8.365,-7.453 18.045,-13.09Z" style="fill:#f1c265;"/><path d="M820.825,255.126c0.721,0.516 8.013,5.741 6.819,8.858c-1.42,3.706 -2.448,4.736 -2.772,5.06c-8.289,8.302 -24.299,-9.739 -4.047,-13.918Z" style="fill:#fdfdf8;"/><path d="M822.823,876.174c1.059,18.273 3.246,21.772 -3.633,26.579c-1.048,-2.588 -6.944,-13.125 -3.79,-24.633c1.817,-0.466 3.634,-0.932 5.45,-1.397l1.973,-0.549Z" style="fill:#fef8d9;"/><path d="M227.804,921.615c3.468,1.313 3.375,1.159 6.834,2.793l-0.143,2.441l0.468,1.876c0.245,6.618 0.399,6.449 0.487,13.125c0.078,5.92 -2.178,4.806 -3.06,5.983c-8.461,-6.008 -5.664,-9.901 -4.587,-26.219Z" style="fill:#fdce6e;"/><path d="M398.32,150.041c-1.027,-0.373 -12.684,-4.6 -5.333,-12.903c8.472,-9.568 22.316,9.778 5.333,12.903Z" style="fill:#fdf1df;"/><path d="M176.072,592.961c5.09,14.246 5.083,14.206 5.351,15.011l-1.66,0.833c-5.34,-0.489 -12.553,4.506 -12.682,4.37c-0.952,-0.998 1.306,-1.013 0.576,-2.149c-0.829,-1.292 -1.638,0.495 -2.464,-0.792l-2.11,-0.661c10.432,-14.645 11.662,-15.592 12.989,-16.613Z" style="fill:#f89fbf;"/><path d="M194.233,639.923c2.433,3.433 2.347,3.288 4.432,6.908c-1.046,0.274 -1.463,1.834 -2.51,2.108c-1.556,0.407 -1.442,-3.085 -20.034,-1.163l-1.821,-0.812c-0.937,0.136 -1.874,0.273 -2.811,0.409c1.872,-6.677 6.153,-6.332 22.744,-7.451Z" style="fill:#f6cdab;"/><path d="M683.916,276.214c9.266,11.877 -6.631,17.331 -11.845,5.11c-0.778,-1.825 -0.871,-5.833 3.131,-7.136c4.548,-1.48 4.484,-0.516 8.713,2.026Z" style="fill:#f85d98;"/><path d="M486.673,73.161c0.334,-0.979 3.956,-11.609 11.534,-5.195c9.845,8.334 -8.311,22.01 -11.534,5.195Z" style="fill:#fbc560;"/><path d="M350.476,609.999c1.041,-0.114 1.239,-2.111 2.28,-2.225c4.078,-0.446 12.664,3.469 13.705,3.943c-0.014,1.024 -0.1,7.432 0.131,12.8c-0.361,0.761 -0.722,1.521 -1.084,2.282c-8.168,-7.873 -7.846,-7.958 -15.032,-16.8Z" style="fill:#fad7b0;"/><path d="M259.385,763.348c0.614,1.406 1.366,0.592 2.023,2.097c0.062,0.141 0.328,0.751 -0.273,1.913c-0.377,0.73 -1.446,1.009 -1.65,1.809c-0.059,0.233 0.113,20.87 0.128,22.685c0.039,4.66 2.13,3.366 3.982,1.812c0.543,1.491 1.086,2.983 1.629,4.474c-3.552,0.433 -3.403,0.548 -6.831,1.521c-3.739,5.19 -4.011,4.875 -4.292,5.349c-0.226,-3.425 -0.634,-3.365 0.024,-5.787c4.804,-17.673 -1.334,-18.883 5.258,-35.872Z" style="fill:#a36338;"/><path d="M162.448,908.435c5.441,0.375 4.978,1.41 9.777,3.924l-0.435,1.359c-0.88,12.774 -1.514,12.534 -3.207,15.638c-9.792,-6.587 -6.396,-8.976 -6.135,-20.921Z" style="fill:#fbd988;"/><path d="M816.801,909.123c6.283,-2.348 7.855,-4.668 8.153,-1.173c0.972,11.393 3.672,13.501 -5.683,19.742c-0.546,-1.693 -2.366,-4.096 -2.47,-18.569Z" style="fill:#fcd885;"/><path d="M791.782,662.347c-1.682,13.776 4.743,23.774 -11.037,23.912c-2.751,0.024 -2.569,0.135 -5.049,0.906c0.693,-1.061 -0.538,-1.2 0.201,-2.331c0.696,-1.065 1.156,-0.115 2.09,-1.174c0,0 2.435,-4.156 2.647,-4.517c4.664,1.981 5.79,1.29 6.587,-3.741c0.059,-0.375 -0.121,-0.329 -1.64,-4.436c2.583,-2.947 2.569,-2.895 3.638,-6.769l2.564,-1.851Z" style="fill:#884132;"/><path d="M765.831,762.865c-14.563,3.178 -10.5,-15.473 -6.807,-15.653c10.419,-0.509 6.654,4.908 6.807,15.653Z" style="fill:#e67394;"/><path d="M341.903,598.515c1.254,-0.819 0.143,-1.545 1.475,-2.415c0.143,-0.094 0.35,-0.229 2.123,0.065c11.646,1.933 16.909,3.221 20.302,5.932c-0.365,0.577 0.98,1.39 0.615,1.967c-1.765,2.793 -9.567,-0.857 -19.237,0.294c-2.886,-2.771 -2.779,-2.705 -5.278,-5.843Z" style="fill:#fcc660;"/><path d="M219.286,761.911c-0.46,-9.713 -1.931,-14.698 7.352,-12.618c2.527,0.566 4.644,21.112 -7.202,14.754l-0.15,-2.135Z" style="fill:#eb6f98;"/><path d="M676.972,440.868c0.873,0.513 12.433,7.302 1.654,12.829c-5.458,2.799 -15.457,-8.895 -1.654,-12.829Z" style="fill:#fac35a;"/><path d="M467.593,834.906c6.636,-4.417 7.199,-1.305 22.351,-0.143c-0.388,6.861 1.486,12.327 -2.661,8.417c-9.526,-8.983 -18.21,-4.438 -19.522,-6.685c-0.266,-0.456 0.098,-1.132 -0.168,-1.588Z" style="fill:#dea16d;"/><path d="M183.59,294.733c-10.437,9.651 -15.186,-9.651 -5.644,-10.052c8.72,-0.366 5.907,9.163 5.644,10.052Z" style="fill:#fefaef;"/><path d="M126.512,620.879c0.49,-0.704 5.548,-7.976 10.457,-1.035c5.486,7.756 -10.817,16.379 -10.457,1.035Z" style="fill:#fde1ab;"/><path d="M495.244,835.013c6.004,-1.777 6.131,0.226 12.266,-1.418c4.41,-1.181 4.362,-0.097 7.393,3.297c-1.555,0.114 -7.235,-0.438 -14.315,4.13c-2.771,1.788 -2.395,2.363 -5.511,3.066c0.056,-3.025 0.112,-6.05 0.167,-9.075Z" style="fill:#e5a971;"/><path d="M714.376,310.317c-0.298,0.812 -3.979,10.847 -9.536,4.594c-5.221,-5.876 4.61,-17.448 9.536,-4.594Z" style="fill:#fb69a1;"/><path d="M128.878,534.883c4.203,0.581 5.393,-0.44 6.348,3.777c1.452,6.411 -10.711,14.515 -10.341,-0.507l0.489,-0.835c1.168,-0.812 2.336,-1.624 3.503,-2.435Z" style="fill:#fce3c1;"/><path d="M365.802,602.097c0.743,4.805 0.723,4.683 0.659,9.62c-1.041,-0.475 -9.628,-4.389 -13.705,-3.943c-1.041,0.114 -1.239,2.111 -2.28,2.225c-1.776,-2.771 -1.692,-2.695 -3.296,-5.641c9.669,-1.151 17.472,2.499 19.237,-0.294c0.365,-0.577 -0.98,-1.39 -0.615,-1.967Z" style="fill:#c4856b;"/><path d="M315.569,447.76c3.502,0.743 4.211,-0.507 5.97,2.721c4.341,7.968 -7.328,8.938 -8.289,9.017c-0.384,-4.158 -0.934,-4.866 2.319,-11.739Z" style="fill:#fcd568;"/><path d="M745.255,455.506c3.156,3.588 2.822,3.672 4.492,8.319c-5.45,0.072 -10.9,0.143 -16.35,0.215c0.815,-0.846 5.059,-5.248 11.859,-8.534Z" style="fill:#f6cb70;"/><path d="M539.938,414.501c-4.295,-0.506 -3.164,-2.42 -3.463,-16.676c-0.084,-4.007 4.023,-4.923 4.123,-0.011c0.17,8.408 0.089,8.305 -0.659,16.687Z" style="fill:#dbab9b;"/><path d="M811.254,747.507l4.7,0.176c-3.188,8.263 -3.47,7.995 -6.295,16.361c-1.73,-0.126 -3.46,-0.253 -5.19,-0.379c3.44,-8.16 4.232,-7.626 6.786,-16.158Z" style="fill:#a75658;"/><path d="M128.878,534.883c-1.168,0.812 -2.336,1.624 -3.503,2.435c-1.093,-0.495 -2.186,-0.99 -3.278,-1.485c-5.439,-9.857 6.5,-11.234 7.857,-3.367c0.036,0.209 0,-0 -1.076,2.416Z" style="fill:#fef7ea;"/><path d="M604.109,293.533c3.518,1.134 7.037,2.268 10.555,3.402c-5.94,10.398 -13.286,2.063 -12.146,-1.978c0.196,-0.695 1.394,-0.729 1.59,-1.424Z" style="fill:#f7c65d;"/><path d="M811.024,624.396l2.541,-0.555c2.188,-0.152 2.26,-0.921 3.974,0.307c1.423,1.02 0.862,1.359 1.772,2.792c-5.035,4.476 -5.31,6.853 -11.115,3.522l2.828,-6.066Z" style="fill:#fcd887;"/><path d="M258.394,799.658c-0.299,3.104 -1.129,3.346 0.29,4.635c1.075,0.976 18.464,0.731 21.249,0.742c-9.583,0.974 -10.243,-1.217 -18.232,4.152c-4.821,-0.574 -4.908,-0.663 -7.599,-4.18c0.28,-0.474 0.552,-0.159 4.292,-5.349Z" style="fill:#c3884c;"/><path d="M643.306,570.382c0.184,-0.6 2.349,-7.653 5.876,-5.013c4.027,3.014 -2.948,18.922 -5.876,5.013Z" style="fill:#fcbac9;"/><path d="M722.231,744.519l2.725,2.226c1.913,6.95 -2.906,8.19 -2.911,8.2c-1.937,-1.721 -3.874,-3.441 -5.811,-5.162c1.999,-1.755 3.998,-3.509 5.997,-5.264Z" style="fill:#f6e7d0;"/><path d="M894.278,412.362c9.792,10.883 -1.072,9.745 -1.604,9.232c-0.321,-0.309 -3.051,-2.937 -3.058,-4.694c0,0 4.289,-4.175 4.662,-4.538Z" style="fill:#fdd987;"/><path d="M166.751,702.332c1.092,-0.217 2.183,-0.434 3.275,-0.651c1.677,13.114 4.748,15.279 0.367,16.034c-0.995,0.171 -0.675,-0.515 -3.641,-15.383Z" style="fill:#b47c69;"/><path d="M220.078,710.495c7.523,8.003 -6.015,7.334 -6.247,2.5c-0.214,-4.444 1.945,-2.778 6.247,-2.5Z" style="fill:#f9d2b6;"/><path d="M463.946,305.687c-0.075,0.712 -1.321,12.478 -8.126,3.163c3.56,-2.924 3.437,-3.279 8.126,-3.163Z" style="fill:#f7a3b4;"/><path d="M319.772,119.352c-0.673,0.808 -7.164,8.602 -11.314,6.408c-7.529,-3.981 10.289,-6.276 11.314,-6.408Z" style="fill:#fdf4f1;"/><path d="M226.742,710.673c6.764,-2.312 2.533,10.76 2.241,11.662l-1.794,-1.218c-0.173,-2.716 -0.346,-5.431 -0.519,-8.147l0.072,-2.298Z" style="fill:#c27a68;"/><path d="M785.58,670.967c1.519,4.107 1.699,4.061 1.64,4.436c-0.797,5.03 -1.923,5.721 -6.587,3.741c3.832,-6.637 3.801,-6.598 4.139,-7.168c0.357,-0.602 0.44,-0.386 0.809,-1.009Z" style="fill:#b37b6b;"/><path d="M244.534,896.627c2.89,-2.874 4.354,-3.519 5.64,0.364c0.159,0.48 -2.553,11.245 -5.64,-0.364Z" style="fill:#fdf6db;"/><path d="M749.53,590.94c0.116,0.458 -0.062,0.365 0.883,5.842c-0.159,0.587 -0.032,0.451 -1.675,7.422c-2.044,-3.629 -2.521,-3.766 -0.851,-7.582c1.242,-2.839 0.601,-2.853 1.644,-5.681Z" style="fill:#5d23a9;"/><path d="M756.712,564.664c0.377,0.839 1.534,1.115 1.911,1.954c0.629,1.4 -3.303,10.403 -3.682,11.27l-0.891,-3.603c0.887,-3.207 1.775,-6.414 2.662,-9.621Z" style="fill:#7f24a2;"/><path d="M358.053,204.439c-0.351,0.535 -1.509,4.822 -3.448,4.96c-0,0 -5.027,1.179 -5.464,1.281c0.486,-0.977 -0.486,-2.317 0,-3.294c0.136,-0.272 8.194,-2.728 8.912,-2.947Z" style="fill:#fdf6d4;"/><path d="M443.872,677.285c0.595,-0.32 7.981,-4.288 8.38,0.32c0.068,0.78 -1.127,1.301 -1.059,2.082c-3.763,-1.036 -3.686,-0.767 -7.321,-2.401Z" style="fill:#ce9f92;"/><path d="M751.568,583.51c1.152,4.815 1.085,4.755 1.411,5.585c-1.146,3.927 -1.087,3.785 -2.567,7.687c-0.945,-5.476 -0.767,-5.384 -0.883,-5.842c0.679,-2.477 1.359,-4.953 2.038,-7.43Z" style="fill:#6424a9;"/><path d="M384.013,643.324c3.494,-1.189 4.114,-2.183 6.153,0.843c7.134,10.585 -5.772,-0.515 -6.153,-0.843Z" style="fill:#b38281;"/><path d="M753.15,579.74c0.276,1.272 0.553,2.545 0.829,3.817c-0.333,1.846 -0.666,3.691 -0.999,5.537c-0.326,-0.83 -0.259,-0.77 -1.411,-5.585c0.527,-1.256 1.054,-2.513 1.582,-3.769Z" style="fill:#6b24a8;"/><path d="M754.05,574.286l0.891,3.603c-0.17,3.039 -0.212,2.852 -0.962,5.669c-0.276,-1.272 -0.553,-2.545 -0.829,-3.817c0.3,-1.818 0.6,-3.636 0.9,-5.455Z" style="fill:#7525a8;"/><path d="M565.528,555.792c-2.347,-0.366 -3.838,-0.248 -2.408,-2.284c0.226,-0.322 0.704,-0.388 0.931,-0.71l1.477,2.994Z" style="fill:#f080a2;"/><path d="M711.619,757.783c-3.581,3.388 -3.513,3.425 -3.867,3.659c-0.521,0.344 -1.336,-0.29 -1.857,0.055c1.908,-1.238 3.816,-2.476 5.724,-3.714Z" style="fill:#aa6945;"/><path d="M281.754,805.033l5.465,-0.057c-2.838,0.685 -2.748,0.942 -5.465,0.057Z" style="fill:#dba45a;"/><path d="M152.916,749.456l-2.452,1.06c0.106,-1.31 -1.161,-0.803 -1.057,-2.096c0.024,-0.3 0.247,0.073 3.509,1.036Z" style="fill:#be6172;"/><path d="M684.404,139.128c-0.627,1.143 -1.255,2.287 -1.882,3.43c-0.027,-0.869 -1.793,-0.943 -1.82,-1.812c0,-0 3.407,-1.488 3.703,-1.618Z" style="fill:#f7ca7a;"/><path d="M122.096,535.834c1.093,0.495 2.186,0.99 3.278,1.485l-0.489,0.835c-0.93,-0.773 -1.859,-1.546 -2.789,-2.319Z" style="fill:#fdeadf;"/><path d="M343.84,211.947l1.659,2.876c-0.553,-0.959 -1.106,-1.917 -1.659,-2.876Z" style="fill:#fefae5;"/><path d="M607.99,324.495c-0.212,-2.25 -2.583,-3.111 -0.329,-3.491c2.312,-0.389 0.11,1.171 0.329,3.491Z" style="fill:#ef749a;"/><path d="M850.982,684.462l-1.044,2.305c0.159,-0.442 -1.365,-0.232 -1.206,-0.674c0.076,-0.213 0.167,-0.121 2.25,-1.631Z" style="fill:#f5c473;"/><path d="M743.983,421.855c1.303,-0.171 2.607,-0.342 3.91,-0.513l-3.91,0.513Z" style="fill:#daa163;"/><path d="M494.384,174.916c-0.94,-1.002 -2.268,-0.44 -1.363,-1.453c0.885,-0.99 0.376,0.401 1.363,1.453Z" style="fill:#f4769f;"/></g></svg>