<?xml version="1.0" encoding="UTF-8" standalone="no"?><!DOCTYPE svg PUBLIC "-//W3C//DTD SVG 1.1//EN" "http://www.w3.org/Graphics/SVG/1.1/DTD/svg11.dtd"><svg width="100%" height="100%" viewBox="0 0 1024 1024" version="1.1" xmlns="http://www.w3.org/2000/svg" xmlns:xlink="http://www.w3.org/1999/xlink" xml:space="preserve" xmlns:serif="http://www.serif.com/" style="fill-rule:evenodd;clip-rule:evenodd;stroke-linejoin:round;stroke-miterlimit:2;"><g id="Background"><path d="M61.899,707.483c-5.708,-74.65 -9.306,-116.799 -9.719,-127.976c-0.272,-7.357 10.876,-6.125 5.404,-11.096c-4.053,-3.681 -2.885,-4.578 -9.717,-13.207c-10.533,-13.304 11.595,-10.116 13.561,-10.894c7.393,-2.926 7.925,-0.402 11.077,-1.802c0.723,-0.321 1.218,-6.418 1.264,-6.984c0.776,-9.563 2.052,-10.641 -0.246,-11.103c-22.867,-4.594 -20.966,-13.84 -27.573,-23.235c-7.646,-10.873 -2.244,-14.617 -3.941,-17.393c-7.252,-11.86 -2.977,-12.692 -0.889,-22.37c0.463,-2.145 3.61,-16.734 15.56,-22.588c15.592,-7.638 16.08,-7.503 25.767,-6.017c3.919,0.601 3.881,0.05 7.286,-1.904c9.567,-5.489 22.953,1.958 26.674,6.668c2.08,2.633 2.803,1.036 4.542,-1.8c10.35,-16.88 24.59,-29.487 27.088,-31.698c2.087,-1.847 -3.949,-13.782 7.958,-29.179c7.474,-9.665 31.887,-18.642 50.522,-20.265c23.067,-2.009 43.252,-5.06 55.651,10.142c1.112,1.364 13.8,16.919 13.897,17.055c21.953,30.813 4.232,39.399 33.013,80.956c13.791,19.912 14.342,24.607 15.608,20.835c2.28,-6.793 2.89,-6.451 3.043,-7.045c0.932,-3.609 -21.596,-13.608 -18.843,-48.045c1.396,-17.457 8.121,-13.276 13.616,-12.029c5.622,1.276 13.298,-4.58 15.577,-8.283c5.159,-8.381 1.267,-8.634 0.75,-9.107c-25.639,-23.383 -13.383,-53.304 -0.021,-63.238c3.085,-2.293 3.196,-2.541 2.893,-6.394c-4.64,-58.911 35.147,-119.318 98.972,-142.515c15.746,-5.723 18.204,-4.398 17.673,-8.45c-2.797,-21.365 -3.185,-21.221 -3.396,-23.075c-2.853,-25.07 -9.224,-41.974 2.639,-40.324c0.947,0.132 15.161,9.724 40.118,29.093c2.384,1.851 5.57,-4.603 13.42,-16.965c18.112,-28.524 19.307,-30.306 24.5,-28.061c4.601,1.989 21.781,39.289 27.153,47.086c1.359,1.972 1.881,0.317 11.512,-5.132c27.429,-15.52 35.299,-24.151 39.722,-16.388c2.369,4.158 -9.451,43.603 -11.387,56.748c-0.255,1.729 6.625,3.429 11.777,5.272c26.406,9.444 55.367,30.966 66.66,44.126c28.39,33.086 46.601,68.689 37.082,122.533c-0.695,3.933 11.534,8.78 13.459,26.052c1.908,17.119 -5.44,27.043 -7.662,31.246c-1.338,2.531 9.588,26.038 33.484,20.468c16.545,-3.857 13.359,8.304 14.703,21.384c0.136,1.318 2.712,1.798 3.279,2.106c3.757,2.036 3.391,-0.731 5.716,-8.308c2.147,-6.999 -14.103,-19.056 -6.558,-24.795c4.475,-3.404 3.024,-4.433 5.088,-7.997c5.333,-9.21 14.833,-7.991 14.89,-8.052c0.609,-0.644 15.38,-57.258 18.343,-70.951c3.313,-15.315 16.534,-17.585 21.655,-16.238c48.005,12.627 47.906,12.584 96.073,24.68c32.369,8.129 36.662,5.293 43.539,23.593c2.173,5.781 -13.678,58.619 -17.648,77.878c-1.372,6.657 8.008,2.347 13.518,9.422c13.118,16.847 -1.645,27.567 0.913,31.272c10.546,15.274 -2.032,25.955 -2.115,29.302c-0.197,7.992 3.99,9.774 -7.064,22.242c-2.448,2.761 1.739,25.021 -32.22,31.057c-3.15,0.56 -2.835,4.265 -11.037,36.703c-3.032,11.99 -4.006,30.36 -25.03,25.136c-7.852,-1.951 -71.138,-17.678 -97.907,-25.327c-2.959,-0.846 -8.865,4.778 -16.046,7.232c-60.799,20.78 -92.605,-16.876 -98.787,-13.635c-19.048,9.988 -39.476,1.763 -40.116,1.936c-1.375,0.37 -6.11,29.486 -6.216,40.66c-0.046,4.805 1.549,4.565 9.031,11.083c56.974,49.638 96.973,137.017 111.402,182.814c8.747,27.763 11.808,30.526 5.277,35.628c-48.999,38.282 -135.187,51.596 -147.599,53.514c-124.035,19.161 -229.984,-8.459 -287.244,-39.577c-38.448,-20.894 -36.958,-26.87 -36.043,-30.537c5.911,-23.705 7.359,-27.608 8.223,-29.936c2.022,-5.447 -4.398,2.058 -8.906,2.352c-6.608,0.431 -152.515,-22.052 -183.1,-26.868c-31.217,-4.916 -32.125,-4.355 -35.783,-9.576c-2.677,-3.821 -4.004,-44.593 -7.755,-81.914Z" style="fill:#4c2a21;"/><path d="M418.798,654.119c1.013,0.656 2.026,1.311 3.038,1.967c-0.7,0.67 -1.898,0.632 -2.598,1.302c-4.055,3.881 -19.022,34.171 -20.528,37.22c-5.315,10.756 -13.904,35.902 -13.625,38.059c0.701,5.42 1.838,-0.847 4.842,-7.964c13.605,-32.241 36.614,-58.644 40.56,-63.172c10.282,5.435 10.152,5.462 20.844,10.28c-12.1,10.762 -33.372,128.153 -26.828,128.022c3.48,-0.07 6.613,-46.676 33.527,-107.537c6.039,-13.656 6.148,-13.556 6.504,-15.166c19.604,6.275 19.609,6.141 39.91,9.761c-2.38,1.491 -2.441,1.405 -2.571,1.61c-0.27,0.425 -0.458,9.197 -0.475,9.997c-1.074,50.031 -2.809,62.57 -1.981,65.063c1.921,5.778 2.605,-10.41 2.789,-12.111c6.129,-56.448 9.191,-55.969 9.574,-60.885c0.13,-1.676 -1.141,-1.975 -1.192,-2.064l-1.079,-1.114c11.86,-0.01 16.714,0.218 43.985,-4.967l0.908,1.082c3.847,6.902 14.482,34.157 15.654,37.162c3.575,9.163 19.717,59.699 22.158,74.892c0.221,1.375 0.512,10.126 3.335,9.032c5.272,-2.043 -13.118,-107.539 -25.116,-126.25c10.899,-3.056 10.764,-3.309 25.015,-8.079c2.945,6.135 5.773,7.497 13.633,18.534c20.441,28.701 22.042,37.85 26.588,46.533c0.075,0.158 0.937,1.978 0.937,1.978c1.889,0.52 0.301,-1.018 0.831,-2.813c-1.836,-6.512 -10.944,-29.87 -13.527,-34.225c-10.582,-17.845 -7.122,-19.99 -19.515,-33.957c18.738,-8.738 22.005,-12.249 24.159,-12.591c4.023,-0.64 60.672,47.722 102.532,146.959c8.259,19.581 20.404,57.173 21.123,59.909c1.312,4.992 -22.851,17.621 -43.569,26.223c-88.04,37.654 -258.504,56.633 -390.198,-18.187c0.012,-0.017 1.442,-0.372 1.394,-2.025c-0.425,-14.892 8.584,-51.898 8.728,-53.115c0.319,-1.02 3.449,-11.036 3.178,-12.979c-0.093,-0.666 -1.374,-0.719 -1.466,-1.385c26.89,-17.157 27.566,-18.275 29.044,-20.717c0.458,-0.758 1.243,-0.765 0.762,-49.874c0.23,-0.236 -0.247,-0.753 -0.017,-0.989c0.887,-0.908 1.606,-0.232 2.711,-2.708c0.268,-0.601 0.317,-0.508 4.17,-7.092c18.009,-30.771 43.265,-60.122 51.852,-63.616Z" style="fill:#fa86a0;"/><path d="M378.781,323.018c26.784,4.12 97.409,-13.333 138.29,-49.007c14.069,-12.277 13.584,-13.213 14.711,-13.028c3.413,0.562 3.239,12.04 33.032,40.18c26.1,24.652 56.161,35.656 61.583,37.641c24.563,8.991 24.485,9.056 50.061,14.862c0.282,0.064 1.064,0.242 3.431,-1.139c-2.365,26.536 -4.994,34.821 -13.896,57.207l-1.493,-1.388l-0.704,0.154l-0.19,1l-0.106,1.31l-1,-0.043l-0.607,0.733l-0.765,1l-0.628,1.185l-0.763,0.815l-0.237,1.182l-0.627,0.818c-15.426,20.229 -46.553,50.681 -113.367,58.061c-18.66,2.061 -68.249,-1.021 -102.809,-18.438c-4.111,-2.072 -31.422,-15.836 -45.23,-35.572c-1.24,-1.772 -1.52,-1.354 -3.689,-1.131c-1.103,-2.082 -1.409,-1.842 -2.162,-4.003c-0.888,-2.55 -7.038,-12.32 -7.18,-13.89c-0.284,-3.138 -5.397,-20.279 -5.918,-22.027c-2.698,-9.045 -3.427,-41.099 -3.185,-43c0.054,-0.422 0.649,-0.629 0.728,-1.046c1.215,-6.463 0.038,-6.408 0.145,-6.954c0.021,-0.106 1.074,-0.944 1.416,-3.006c0.231,-1.398 0.554,-1.184 1.158,-2.475Z" style="fill:#fdd9a6;"/><path d="M70.538,585.337c1.052,0.128 12.173,1.476 13.102,1.93c0.913,0.446 1.257,4.779 1.291,5.206c0.409,5.146 -0.548,4.972 -1.522,10.026c-0.808,0.75 -7.273,6.75 1.325,13.722c9.6,7.785 21.109,3.314 20.648,-7.721l0.441,-1l-0.023,-1l-0.569,-1l-0.73,0.245l-1.37,-1.265c-0.266,-3.089 -0.431,-3.025 -1.944,-5.772l1.314,-0.544c1.088,0.208 0.981,0.695 2.029,0.388c3.57,-1.046 35.384,4.635 41.747,0.856c0.857,1.013 0.962,0.841 1.619,1.914c1.032,1.684 21.927,0.738 25.327,1.609c7.807,2 7.951,0.65 13.242,1.76c27.692,5.809 71.516,6.914 76.088,7.12c2.205,0.099 2.014,-0.427 3.255,-2.312l0.693,-0.632l1.041,-1.545c2.385,1.694 1.144,2.235 0.761,5.146c-0.596,4.533 -1.329,4.195 -3.471,8.171l-1.463,0.86l-1.132,1c-0.255,1.176 -5.342,8.513 5.476,15.628c7.875,5.179 20.664,-3.457 19.152,-12.628c-0.278,-1.685 -0.906,-1.021 -2.652,-1.067c0.022,-0.155 0.278,-1.931 0.278,-1.931c-0.23,-2.798 -1.36,-2.847 0.574,-11.156l1.181,1.154l0.441,1c1.46,2.292 2.628,2.512 9.642,2.565c1.896,4.905 -0.559,11.022 -4.641,58.448c-0.648,7.534 -0.879,7.436 -9.882,94.006c-0.368,3.54 -3.941,33.107 -4.289,35.986c-0.425,3.52 -3.528,1.937 -19.012,-0.065c-21.537,-2.785 -21.412,-3.295 -42.976,-5.343c-24.716,-2.347 -69.46,-11.978 -91.947,-14.003c-1.706,-0.154 -1.512,-1.211 -21.058,-3.861c-6.075,-0.823 -5.97,-1.022 -12.037,-2.148c-0.349,-0.065 -0.732,-0.136 -4.412,0.429c-5.508,-71.581 -5.49,-71.518 -11.541,-143.016c-3.99,-47.139 -2.306,-47.42 -3.997,-51.16Z" style="fill:#8ed5f7;"/><path d="M452.601,496.512c-2.727,45.901 48.876,51.909 52.882,52.206c12.031,0.892 55.827,3.433 73.666,-37.352c0.464,1.144 0.635,0.984 0.865,2.134c0.178,0.889 0.463,0.348 1.51,0.078c11.747,-3.03 12.042,-1.239 12.975,-1.714c0.472,-0.24 0.342,-1.124 0.814,-1.364l1.611,0.064c-0.215,1.342 -1.417,8.844 -0.901,16.959c2.493,39.169 19.871,55.377 32.072,65.433c2.914,2.402 0.91,3.224 -2.604,28.543c-2.644,19.054 0.063,21.11 -4.15,23.732c-33.204,20.672 -94.859,34.511 -115.931,30.707c-48.973,-8.839 -71.69,-25.721 -82.029,-32.115c0.74,-2.138 0.852,-2.121 0.8,-2.309c-8.649,-31.083 -7.203,-58.984 -7.034,-67.116c0.237,-3.532 -1.249,-20.787 19.89,-72.138c0.664,-1.612 1.135,-1.274 1.835,-2.829c0.137,-0.303 -0.466,-0.638 -0.33,-0.941c0.781,0.805 9.456,9.752 11.957,7.323c0.327,-0.317 0.053,-0.995 0.38,-1.312l-0.035,-1l-0.084,-1l0.123,-1l-0.071,-1l0.181,-1l-0.098,-1l0.157,-1l1.548,-0.988Z" style="fill:#f37e98;"/><path d="M463.795,203.463c0.924,4.572 0.836,4.568 0.998,4.937c1.833,4.176 49.53,22.123 109.794,10.578c17.222,-3.299 19.363,-2.72 21.546,-11.451c0.176,-1.063 0.505,-3.047 3.248,-13.072c0.489,-1.787 1.992,-1.386 9.079,1.151c59.33,21.237 82.958,65.71 87.247,73.782c20.77,39.092 13.316,79.612 12.995,80.266c-0.606,1.234 -1.025,0.134 -17.179,-0.544c-4.142,-0.174 1.875,-8.26 -5.01,-9.683c-85.935,-17.754 -133.593,-77.649 -145.624,-109.079c-1.713,-4.476 -6.731,-4.695 -9.29,-0.788c-22.98,35.102 -85.582,73.088 -161.129,78.682c-8.134,0.602 -4.737,16.568 -6.753,20.411c-0.55,1.049 -10.712,1.336 -11.365,1.05c-0.785,-0.345 -0.873,-5.701 -0.881,-6.202c-0.779,-47.559 27.391,-80.125 28.511,-81.644c21.753,-29.503 68.773,-49.708 79.54,-50.963c1.92,-0.224 3.097,7.696 4.272,12.568Z" style="fill:#cb7344;"/><path d="M783.34,495.377c-1.494,6.328 -1.22,6.583 2.278,12.025c7.912,7.905 7.793,8.876 18.874,10.177c4.851,0.569 39.841,4.007 53.005,5.949c41.124,6.067 48.55,4.56 49.959,4.558c0.718,-1.183 0.885,-1.028 1.428,-2.355c0.984,-2.403 1.177,-2.173 2.724,-4.247c3.162,6.404 5.404,5.777 4.48,7.851c-5.068,11.379 -3.202,12.266 4.252,22.287c2.126,2.859 2.387,3.517 -8.174,43.778c-4.519,17.228 -4.164,17.937 -5.67,17.951c-1.237,0.012 -2.026,-1.498 -4.034,-1.142c-9.732,1.723 -9.575,-0.604 -27.986,-4.61c-9.423,-2.05 -9.189,-2.945 -116.878,-29.492c-2.67,-0.658 -2.784,-0.886 -3.408,-3.58c9.125,-5.025 8.053,-6.21 9.035,-9.096c2.482,-10.051 2.398,-9.958 4.963,-19.983c9.57,-37.394 10.521,-38.735 6.925,-40.947l-0.15,-1l-1.7,-1.075c1.506,-4.725 1.798,-5.246 10.074,-7.048Z" style="fill:#d74329;"/><path d="M236.611,495.346c9.264,5.943 8.317,7.93 11.877,7.899c1.187,-0.01 10.658,7.509 6.536,12.048c-4.347,4.786 -4.221,4.766 -4.614,5.156c-0.15,0.149 -1.715,1.7 -0.533,2.59c1.695,1.276 7.277,-4.193 8.266,-7.88c1.213,-4.52 2.503,-0.902 2.522,-0.694c0.234,2.599 -0.062,2.587 0.818,5.045l-1.446,0.99l-0.26,1c2.471,10.129 4.677,11.019 3.517,16.963c-1.138,5.83 7.334,15.5 -8.783,13.928c-0.494,-0.048 -1.244,-0.859 -7.031,1.69c-6.948,0.118 -7.427,-1.768 -13.173,2.043c-0.799,0.53 -2.027,-0.353 -3.806,1.757c-0.36,0.427 -0.479,0.018 -1,0.33c-0.472,0.282 -0.542,1.02 -1.015,1.301c-1.735,-1.456 -1.56,-2.618 -13.167,-8.657c-13.16,-6.846 -15.945,-5.246 -17.177,-4.538c-1,0.575 -0.865,0.653 -1.764,1.332c-7.082,-3.93 -16.335,-3.432 -19.786,1.882c-1.44,-0.215 -8.138,-1.215 -17.887,3.388c-8.037,3.794 -12.084,11.41 -12.76,12.681c-1.103,3.927 -1.135,3.877 -0.857,7.988c1.142,6.46 1.615,6.286 4.958,11.912c0.096,0.161 0.028,0.172 0.376,2.316c-18.451,-1.825 -50.786,-5.913 -53.594,-7.813c-8.596,-5.816 -13.008,-19.489 -13.632,-21.422c0.668,0.31 0.638,-0.411 1.349,-0.081c0.774,0.359 0.227,0.816 0.956,1.15c0.305,0.14 0.635,-0.29 0.969,-0.268c0.179,0.012 1.43,0.096 1.949,1.115c0.256,0.504 2.467,4.847 2.515,6.603c0.005,0.184 -1.465,3.413 1.206,1.021c3.223,-2.887 -2.595,-5.306 0.261,-9.617c2.349,-3.545 -0.393,-10.271 -2.138,-12.972c-1.485,-2.299 0.808,-5.266 0.679,-8.072c-0.103,-2.23 0.746,-1.791 2.653,-2.869c1.586,-0.897 0.049,-2.423 -0.721,-2.444c-4.235,-0.115 -1.658,-6.174 -1.444,-6.677c4.816,-11.325 3.284,-12.668 8.072,-15.199l1,-0.321l1,0.477l1,-0.391c0.199,-0.199 0.606,0.448 0.805,0.249c0.455,-0.455 0.424,-1.221 0.732,-1.786c0.529,-0.97 2.064,-1.725 2.028,-2c-0.066,-0.508 -0.751,-0.793 -0.817,-1.3c1.522,-1.201 1.311,-1.968 4.238,-1.615c2.994,0.361 1.891,-1.716 4.631,-3.535c0.431,-0.286 0.345,-0.33 5.331,-3.65l1.052,0.765c10.515,13.228 37.337,5.449 48.757,-4.954c3.462,-3.154 3.693,-3.508 8.202,-2.472c6.102,1.403 13.94,-0.541 15.115,-0.833c7.152,-1.774 6.068,4.217 15.841,4.959c3.124,0.237 6.721,3.256 14.145,3.23l0.94,1.224l1,0.056c0.529,-0.052 0.412,-1.234 0.941,-1.286c0.473,-0.047 0.484,0.877 0.901,1.105c0.158,0.086 0.071,-0.393 0.221,-0.493c0.748,-0.499 3.616,-0.975 3.938,-1.028l1,0.02l1,-0.013l1,-0.125l1,-0.137l1,-0.253l1.111,-0.818Z" style="fill:#fcd7a7;"/><path d="M611.183,496.371c20.133,-34.922 85.071,-31.508 104.253,17.153c3.412,8.656 -9.383,-3.093 -27.861,12.064c-19.412,15.924 -23.712,47.328 -14.53,61.123c3.522,5.292 -9.204,-3.023 -12.21,-8.418c-5.721,-10.265 -0.22,-31.946 4.909,-40.659c22.819,-38.763 40.778,-21.54 44.419,-27.333c4.121,-6.556 -29.033,-6.184 -44.101,17.951c-5.099,8.168 -6.844,8.175 -7.85,8.882c0.028,0.06 1.734,0.402 1.054,2.272c-0.522,1.435 -2.523,8.371 -2.734,9.101c-4.221,14.63 0.169,21.95 -2.04,26.985c-2.326,0.662 -2.402,0.347 -4.343,1.699c-3.488,2.429 5.745,5.094 6.382,5.278c10.256,7.854 10.628,7.665 10.727,8.769c0.214,2.392 -44.801,7.401 -58.388,-46.838c-6.964,-27.802 1.853,-46.53 2.315,-48.03Z" style="fill:#f5859c;"/><path d="M301.057,754.524c1.124,-11.594 13.904,-143.394 14.736,-144.863c2.047,-3.618 24.08,-18.271 31.558,-23.379c2.649,-1.809 4.344,-3.05 4.385,0.194c0.181,14.479 -0.976,14.382 0.557,181.004c0.052,5.614 -0.195,5.616 -1.811,8.005c-1.466,-2.128 -1.407,-2.162 -1.584,-2.298c-0.741,-0.572 -20.191,-17.049 -24.692,-20.276c-11.574,-8.298 -11.642,7.686 -23.359,32.661c-0.191,-0.248 -1.505,0.529 -1.74,-3.071c-0.315,-4.832 1.732,-25.746 1.95,-27.979Z" style="fill:#5597c1;"/><path d="M144.877,722.537c0.658,-5.588 0.716,-5.467 1.625,-11.036c0.619,-3.792 -5.001,-5.475 -17.468,-23.674c-0.582,-0.849 -7.012,-10.235 2.392,-12.637c11.956,-3.054 25.797,-4.523 28.061,-4.764c2.626,-0.279 1.204,-2.02 14.408,-20.646c15.724,-22.182 26.48,21.705 31.545,22.889c11.735,2.744 11.599,2.858 23.197,6.349c28.624,8.614 -12.22,29.698 -11.447,35.502c0.984,7.387 1.674,7.229 2.658,26.971c0.215,4.321 -3.575,10.713 -9.238,8.685c-16.852,-6.035 -25.826,-12.486 -27.275,-13.266c-1.404,-0.756 -23.661,9.921 -30.832,9.957c-12.36,0.061 -7.881,-22.076 -7.627,-24.329Z" style="fill:#4d2e22;"/><path d="M253.598,367.407c24.662,28.584 24.862,35.643 27.968,52.081c8.335,44.111 23.186,44.653 47.464,91.402c6.252,12.04 0.395,-6.742 0.221,-7.299c-0.943,-2.742 -3.104,-6.773 0.258,-7.022c19.842,-1.468 22.969,13.437 29.034,14.78c1.913,0.424 2.288,4.248 -3.047,3.506c-23.398,-3.255 -39.484,4.896 -44.686,7.108c-0.224,0.341 -1.081,1.645 -2.369,4.519c-8.09,9.752 1.172,21.042 -4.363,28.02l-0.288,1l-1.778,-0.036c0.491,-6.499 1.5,-6.506 0.116,-12.874c-1.318,-6.065 -1.608,-6.149 0.373,-12.089c2.82,-8.455 -7.57,-21.524 -7.789,-23.044c-1.958,-13.64 -3.034,-13.377 -5.483,-26.912c-6.5,-35.924 -20.85,-55.212 -20.376,-59.016c1.191,-9.552 -1.976,-8.712 -7.905,-16.373c-7.444,-9.617 -0.563,-20.77 -5.834,-30.468c-5.974,-10.992 -4.584,9.102 -5.052,18.795c-0.749,15.515 0.186,40.154 -13.43,29.842c-6.698,-5.073 -7.424,-16.126 -7.561,-16.773c-1.075,-15.212 2.391,-25.358 0.997,-27.788c-0.904,-1.575 -5.05,-1.174 -6.542,21.738l-1.025,0.188c-15.274,1.307 -16.898,2.172 -18.199,2.865c-1.945,-16.475 3.024,-20.854 0.512,-23.44c-1.242,-1.278 -5.567,-1.344 -6.228,21.385l-1.084,-0.349c-5.346,1.347 -13.827,1.57 -15.036,1.602c-1.951,0.051 -2.562,1.622 -2.592,1.641c-1.719,-12.052 0.649,-12.024 0.489,-19.875c-0.02,-0.986 -1.52,-4.156 -3.367,0.209c-5.027,11.879 -4.642,14.211 -3.353,22.744l-1.141,-0.679l-0.585,-0.292c-0.188,-0.191 -0.647,-2.06 -2.379,-0.942c-3.825,2.47 -10.183,1.436 -11.036,1.446c-0.385,0.852 -0.77,1.704 -1.156,2.556c-0.697,-2.301 -5.346,-17.65 4.567,-29.7c11.564,-14.058 46.014,-17.694 48.609,-17.908c35.932,-2.955 36.959,0.162 43.078,5.454Z" style="fill:#fcd5a0;"/><path d="M791.908,477.531c5.203,-8.488 7.509,-6.486 36.61,-3.182c55.048,6.25 54.653,8.491 80.946,11.433c0.398,0.044 2.588,0.29 4.867,1.143c2.325,0.871 1.999,1.256 2.356,1.58c-3.104,9.912 -1.613,10.199 1.556,15.178c1.055,1.657 -0.101,2.58 -3.755,5.809c-2.611,4.602 -3.379,5.348 -2.881,11.991c-1.547,2.074 -1.74,1.844 -2.724,4.247c-0.544,1.327 -0.711,1.172 -1.428,2.355c-1.409,0.002 -8.835,1.509 -49.959,-4.558c-13.164,-1.942 -48.154,-5.38 -53.005,-5.949c-11.081,-1.3 -10.962,-2.271 -18.874,-10.177c-3.498,-5.442 -3.772,-5.697 -2.278,-12.025c6.347,-7.885 6.528,-7.947 8.569,-17.846Z" style="fill:#fcd949;"/><path d="M464.065,402.515c0.002,-1.616 0.016,-15.178 3.639,-19.865c8.302,-10.743 14.511,4.181 49.824,6.406c25.896,1.631 45.202,-13.492 46.958,6.445c3.231,36.678 -33.252,66.104 -65.97,53.955c-32.119,-11.927 -33.602,-38.578 -34.451,-46.94Z" style="fill:#4d241d;"/><path d="M181.488,650.484c4.333,-1.24 6.282,4.056 11.475,13.778c6.045,11.317 5.679,13.148 10.551,14.181c13.322,2.825 13.02,3.704 26.008,6.977c5.939,1.497 0.157,6.511 -7.487,14.609c-7.393,7.831 -11.619,6.288 -10.328,15.443c3.365,23.874 2.674,30.148 -1.129,28.752c-12.328,-4.527 -26.121,-15.483 -30.928,-13.347c-10.057,4.47 -27.139,13.361 -29.343,7.707c-2.592,-6.649 4.922,-28.877 1.736,-32.703c-1.01,-1.213 -1.211,-1.014 -13.137,-14.714c-8.08,-9.281 -4.736,-10.414 -4.363,-10.591c0.139,-0.066 0.136,-0.042 1.836,-0.57c28.252,-4.138 28.544,-4.605 29.839,-6.68c7.964,-12.754 9.006,-15.053 15.272,-22.841Z" style="fill:#fcd34b;"/><path d="M696.68,426.766c1.099,6.177 1.611,24.602 25.788,31.867c7.391,2.221 26.545,3.471 36.239,-13.028c0.808,-1.374 1.055,-1.042 2.132,-2.106c0.166,0.934 1.84,10.37 0.453,11.845c-10.444,11.115 -8.483,12.37 -13.215,30.053c-3.171,11.85 -24.637,19.323 -26.223,16.832c-4.93,-7.742 -8.385,-17.614 -29.654,-30.236c-16.412,-9.74 -42.227,-11.357 -55.665,-6.266c-12.021,4.554 1.843,-3.226 10.86,-12.33c20.347,-20.541 21.433,-32.602 25.022,-30.749c13.335,6.882 14.199,2.935 24.262,4.118Z" style="fill:#783e1f;"/><path d="M375.178,318.137l0.972,1.363c0.918,0.911 0.741,2.213 2.631,3.518c-0.604,1.291 -0.926,1.078 -1.158,2.475c-0.342,2.062 -1.395,2.901 -1.416,3.006c-0.107,0.546 1.07,0.49 -0.145,6.954c-0.079,0.418 -0.674,0.625 -0.728,1.046c-0.242,1.901 0.487,33.955 3.185,43c0.522,1.749 5.634,18.889 5.918,22.027c0.142,1.569 6.292,11.34 7.18,13.89c0.753,2.161 1.059,1.921 2.162,4.003c2.169,-0.223 2.449,-0.641 3.689,1.131c13.808,19.736 41.119,33.5 45.23,35.572c34.56,17.417 84.149,20.499 102.809,18.438c66.814,-7.38 97.941,-37.832 113.367,-58.061l0.627,-0.818l0.237,-1.182l0.763,-0.815l0.628,-1.185l0.765,-1l0.607,-0.733l1,0.043l0.106,-1.31l0.19,-1l0.704,-0.154l1.493,1.388c-10.164,21.339 -32.139,56.06 -86.526,72.659c-77.677,23.707 -174.868,-8.377 -201.505,-91.034c-10.231,-31.747 -3.358,-72.105 -2.784,-73.222Z" style="fill:#fac492;"/><path d="M307.991,612.02c0.605,1.714 0.486,1.653 0.309,3.454c-0.891,9.047 -8.338,84.71 -11.664,113.039c-3.413,29.061 -8.734,78.122 -9.471,84.918c-1.321,4.757 -2.765,3.738 -7.663,3.055c-5.524,-0.771 -57.11,-7.968 -69.014,-9.901c-55.247,-8.972 -100.848,-14.819 -124.005,-18.931c-0.293,-7.502 -0.391,-7.488 -0.407,-8.139c3.68,-0.565 4.064,-0.494 4.412,-0.429c6.067,1.127 5.962,1.325 12.037,2.148c19.546,2.649 19.352,3.707 21.058,3.861c22.487,2.025 67.231,11.656 91.947,14.003c21.564,2.048 21.439,2.559 42.976,5.343c15.484,2.002 18.586,3.585 19.012,0.065c0.348,-2.878 3.921,-32.445 4.289,-35.986c9.004,-86.57 9.234,-86.472 9.882,-94.006c4.082,-47.426 6.536,-53.543 4.641,-58.448c4.593,-1.913 5.179,1.846 9.626,-0.565l-0.691,-1l-0.489,-1l0.725,-0.245l1,0.016l1.491,-1.251Z" style="fill:#7cc0e4;"/><path d="M375.178,318.137c2.998,-1.365 3.075,-0.852 6.363,-1.19c54.978,-5.663 111.227,-31.506 143.743,-64.655c7.424,-7.568 9.206,-12.724 10.376,-9.906c8.23,19.82 51.641,80.071 132.968,102.653c7.969,2.213 11.804,0.774 11.26,7.489c-2.367,1.381 -3.149,1.203 -3.431,1.139c-25.576,-5.806 -25.498,-5.871 -50.061,-14.862c-5.422,-1.985 -35.483,-12.989 -61.583,-37.641c-29.793,-28.14 -29.619,-39.618 -33.032,-40.18c-1.127,-0.186 -0.641,0.75 -14.711,13.028c-40.881,35.674 -111.506,53.127 -138.29,49.007c-1.89,-1.305 -1.712,-2.608 -2.631,-3.518l-0.972,-1.363Z" style="fill:#fbc28e;"/><path d="M914.619,448.298l-0.77,1.202c-1.632,2.816 -5.307,6.041 3.772,11.792c0.209,0.133 1.587,1.005 2.926,1.011c2.752,0.011 2.777,-0.21 5.188,1.313c-2.573,7.237 -1.596,7.575 -2.067,8.043c-4.933,4.888 -22.49,-8.889 -24.104,-9.391c-7.366,-2.291 -11.777,11.763 -31.749,-6.136c-10.044,-9.002 -11.472,-7.876 -24.421,-3.978c-13.628,4.103 -14.473,-8.608 -22.897,-7.698c-19.155,2.069 -24.893,6.307 -38.49,-15.631c-1.657,-2.673 -2.051,-3.553 6.65,-14.183c4.367,-5.335 5.891,1.924 13.903,0.089c12.831,-2.938 12.901,8.974 21.981,6.984c8.155,-1.787 8.604,-1.609 15.271,3.389c11.341,8.503 13.526,2.845 22.759,7.235c7.69,3.657 13.471,-5.247 26.605,3.651c9.659,6.544 9.864,7.88 21.408,6.007c15.579,-2.528 14.737,3.628 27.184,8.008c4.481,1.577 0.083,2.556 -4.171,4.661c-0.615,-0.215 -0.481,-1.402 -1.096,-1.617c-0.652,-0.228 -1.321,0.412 -2,0.536c-4.037,0.735 -4.844,-0.392 -15.881,-5.288Z" style="fill:#eddad9;"/><path d="M537.636,121.43c20.656,36.935 20.769,39.446 24.718,37.708c4.299,-1.892 20.332,-11.7 22.072,-12.765c0.227,0.468 0.852,0.659 1.078,1.127c0.365,0.754 -0.849,0.561 -3.366,9.914c-5.669,21.068 -7.146,22.42 -8.639,23.787c-2.039,0.453 -7.512,1.669 -25.962,2.741c-9.8,0.028 -9.795,0.022 -10.038,0.038c-3.26,0.214 -2.943,0.978 -4.108,1.939c-3.751,-1.668 -3.815,-1.124 -7.883,-1.283c-5.568,-1.133 -5.475,-2.05 -23.029,-1.969c-1.108,-0.463 -0.918,-0.71 -2.017,-0.842c-0.054,-0.006 -7.62,-2.457 -15.095,-1.899l-5.819,-1.848c-2,-0.994 -1.893,-1.008 -3.993,-1.818l-3.043,-0.89c3.285,-6.743 -5.655,-36.735 1.665,-30.417c12.324,10.636 29.533,21.84 34.212,18.394c3.75,-2.762 19.327,-33.622 29.245,-41.917Z" style="fill:#fdd553;"/><path d="M361.367,577.806c12.009,8.422 29.337,5.851 33.166,4.825c3.547,-0.95 5.372,-2.768 5.378,0.843c0.071,39.133 8.319,52.556 3.173,57.613c-19.95,19.601 -21.071,18.504 -38.174,40.731c-2.212,2.875 -3.514,6.393 -4.767,5.176c-0.669,-0.65 0.363,-97.461 -0.357,-108.452c0.1,-0.098 0.232,0.239 1.58,-0.736Z" style="fill:#fcfcfc;"/><path d="M679.641,559.518c0.785,-2.785 2.649,-16.192 15.453,-26.512c15.721,-12.67 24.947,-4.885 36.643,1.042c4.584,2.323 -0.125,3.46 -4.074,13.499c-1.686,4.286 1.318,2.804 1.446,2.602c2.943,-4.654 2.619,-4.981 7.285,-7.821c4.734,-2.881 12.245,-15.034 14.238,-14.091c0.632,0.299 0.062,0.652 4.452,7.518c2.526,3.95 -10.233,31.49 -8.26,42.664l-1.323,0.483c-0.376,0.013 -0.624,-0.537 -1,-0.525c-0.571,0.019 -6.014,2.194 -14.042,2.878c-5.863,0.499 -33.915,-7.252 -50.817,-21.738Z" style="fill:#fdd8a4;"/><path d="M62.469,485.57c-1.302,0.14 -2.605,0.281 -3.907,0.421c-9.058,0.96 -16.745,-8.529 -13.828,-15.404c6.715,-15.827 3.835,-18.621 18.543,-27.467c2.73,-1.642 6.761,-7.727 25.133,-4.229c6.017,1.146 10.464,7.555 10.38,3.624c-0.016,-0.726 -7.948,-9.181 2.749,-7.211c5.063,0.932 14.893,6.511 13.636,10.069c-0.5,1.414 -5.426,15.355 -7.706,17.085c-0.896,0.68 -23.266,-6.984 -30.947,13.049c-2.429,6.335 0.19,21.166 8.65,29.367c2.301,2.23 -0.519,5.036 -3.264,9.864c-2.067,3.635 -1.495,4.492 -3.424,4.59c-0.675,0.034 -0.349,-0.979 -8.033,-2.625c-15.181,-3.251 -14.495,-15.514 -15.126,-15.992c-5.562,-4.204 -6.189,-4.312 -6.632,-11.224c-0.4,-6.242 3.367,-0.159 6.818,-0.306c5.37,-0.229 4.85,2.211 10.161,2.52c0.747,-1.72 -0.747,-1.318 -1.517,-3.091c-0.731,-1.683 -0.459,-1.743 -1.685,-3.039Z" style="fill:#f7ce9c;"/><path d="M417.675,474.113l-1.383,1.387c0.226,1.194 0.246,1.166 1.155,2.029c1.423,1.35 1.818,2.551 1.874,3.98c1.315,33.919 -28.57,42.868 -33.413,38.763c-0.205,-0.174 -7.384,-15.174 -10.716,-18.418c-4.045,-3.938 -4.638,-1.92 -5.28,-1.458c-0.221,-0.097 -0.108,-0.181 -2.648,-1.448c0.339,-0.641 1.283,-0.807 1.622,-1.448c1.507,-2.849 -16.711,-13.367 -18.336,-15.046c0.048,-2.475 0.315,-2.903 -1.979,-3.835c6.158,-4.405 16.573,-11.271 28.92,-13.169c22.096,-3.396 37.447,6.839 40.184,8.663Z" style="fill:#fc8aa2;"/><path d="M196.377,547.65c0.899,-0.679 0.764,-0.757 1.764,-1.332c1.232,-0.708 4.018,-2.308 17.177,4.538c11.607,6.038 11.432,7.2 13.167,8.657c0.971,1.315 7.305,9.9 1.485,20.381c-0.48,-0.088 -0.932,-1.676 -6.472,0.602c-2.424,0.997 -13.354,8.799 -32.779,6.678c-2.157,-0.236 -2.056,-0.717 -4.121,-0.381c-6.374,1.037 -29.15,-0.078 -35.159,-14.26c-0.901,-2.126 -3.6,-1.433 -3.822,-1.524c-0.227,-0.092 -1.249,-0.508 -2.612,1.592c-0.18,0.277 0.263,0.711 0.083,0.988c-0.278,-4.112 -0.246,-4.061 0.857,-7.988c0.675,-1.271 4.723,-8.887 12.76,-12.681c9.75,-4.603 16.447,-3.603 17.887,-3.388c-0.232,0.598 -4.375,5.682 2.2,11.63c1.008,0.912 8.989,5.71 10.75,4.405c2.077,-1.538 17.636,-7.303 6.835,-17.917Z" style="fill:#fdfbf9;"/><path d="M826.828,454.075c9.674,9.21 15.254,5.255 20.786,2.818c12.002,-5.288 11.526,1.082 27.697,11.913c12.096,8.102 15.457,-4.815 27.455,3.295c16.957,11.462 19.25,3.476 23.615,5.625c4.603,2.266 -2.618,1.428 -9.693,10.781c-0.358,-0.324 -0.031,-0.709 -2.356,-1.58c-2.279,-0.854 -4.47,-1.099 -4.867,-1.143c-26.293,-2.942 -25.898,-5.183 -80.946,-11.433c-29.101,-3.304 -31.407,-5.306 -36.61,3.182c-3.071,-3.738 -2.371,-4.077 -4.752,-9.738c4.479,-3.421 5.08,-8.944 6.101,-12.342c1.796,-1.679 1.865,-2.136 4.243,-1.401c1.594,0.493 1.529,0.109 3.099,-0.04c1.824,-0.174 2.082,4.089 21.835,2.134c2.842,-0.281 2.857,-0.123 3.066,-0.253c0.637,-0.396 0.691,-1.421 1.328,-1.817Z" style="fill:#d44227;"/><path d="M70.538,585.337c1.691,3.741 0.007,4.021 3.997,51.16c6.052,71.498 6.034,71.436 11.541,143.016c0.015,0.652 0.114,0.637 0.407,8.139c-7.355,-1.299 -9.723,-0.781 -10.004,-5.15c-2.429,-37.788 -13.972,-168.451 -15.842,-196.987c-0.117,-1.778 2.503,-1.326 9.9,-0.179Z" style="fill:#ebf6f9;"/><path d="M679.641,559.518c16.902,14.485 44.954,22.237 50.817,21.738c8.028,-0.684 13.471,-2.859 14.042,-2.878c0.376,-0.013 0.624,0.537 1,0.525l1.323,-0.483c5.376,13.529 4.366,16.507 18.708,18.907c5.065,0.848 5.008,0.688 10.015,2.016c-0.682,0.212 -1.364,0.424 -2.046,0.637l-1,0.149l-1,0.165l-1,-0.201l-0.725,0.408l-0.275,0.562l-1,-0.117l-1.076,0.555c-1.033,0.489 -0.794,0.954 -1.948,0.922c-0.068,-0.002 -2.942,1.005 -4.978,1.141c-11.075,0.74 -10.914,2.307 -21.977,2.044c-0.723,-0.017 -0.912,0.022 -0.99,0.038c-3.085,0.636 -2.399,1.685 -3.093,2.172c-3.51,-0.704 -26.143,-5.246 -42.225,-14.831c-15.207,-9.063 -14.304,-15.142 -12.572,-33.467Z" style="fill:#fcbe89;"/><path d="M463.221,500.469c0.88,-7.846 -1.124,-12.662 6.389,-10.307c58.238,18.257 87.089,5.344 99.907,4.626c2.929,-0.164 1.841,9.15 -3.746,18.862c-0.505,-0.27 -0.766,-0.884 -1.271,-1.154c-1.5,-0.802 -23.812,6.768 -48.997,4.958c-32.417,-2.33 -41.384,-9.143 -52.283,-16.986Z" style="fill:#fbbe8b;"/><path d="M366.581,408.363c0.453,-0.161 0.219,0.603 0.725,0.423c0.809,-0.287 0.339,-0.78 1.171,-1.095c4.911,-1.863 5.097,-0.114 7.415,4.61c11.462,23.367 26.426,35.993 25.651,37.267c-0.599,0.984 -34.559,-11.332 -64.248,16.714c-3.017,2.85 -12.386,-6.977 -15.994,-16.694c-5.09,-13.71 -1.564,-18.024 -0.591,-19.215c0.527,0.411 17.078,22.1 36.676,5.002c9.707,-8.469 9.257,-24.732 9.194,-27.014Z" style="fill:#773c1d;"/><path d="M463.221,500.469c10.899,7.843 19.866,14.655 52.283,16.986c25.185,1.81 47.497,-5.76 48.997,-4.958c0.505,0.27 0.766,0.884 1.271,1.154c-0.595,0.83 -1.077,1.738 -1.672,2.568c-25.704,35.881 -100.544,26.044 -100.878,-15.749Z" style="fill:#fcd8a6;"/><path d="M545.446,434.443c-36.32,31.05 -72.623,-4.852 -68.841,-9.868c8.802,-11.675 50.353,-18.263 71.516,3.27c2.401,2.443 -2.584,6.497 -2.675,6.598Z" style="fill:#fc837c;"/><path d="M261.483,519.51c12.712,12.627 17.604,56.554 -7.767,69.308c-17.906,9.937 -32.48,6.837 -35.196,6.599l-0.172,-0.917c-0.005,-1.455 -0.243,-1.87 1.163,-1.992c0.239,-0.021 1.707,-1.044 1.85,-1.144l1.101,-0.901c0.061,-0.102 0.764,-1.275 0.764,-1.275c0.223,-0.211 0.664,0.172 0.921,0.004c0,0 -0.644,-1.648 -0.7,-1.791c3.844,-3.255 3.831,-3.242 6.524,-7.508c5.819,-10.481 -0.515,-19.065 -1.485,-20.381c0.472,-0.282 0.542,-1.02 1.015,-1.301c0.521,-0.311 0.64,0.097 1,-0.33c1.78,-2.109 3.007,-1.227 3.806,-1.757c5.746,-3.811 6.225,-1.925 13.173,-2.043c5.787,-2.548 6.537,-1.738 7.031,-1.69c16.117,1.572 7.645,-8.098 8.783,-13.928c1.16,-5.944 -1.046,-6.834 -3.517,-16.963l0.26,-1l1.446,-0.99Z" style="fill:#f6b78d;"/><path d="M139.47,442.173c0.677,0.547 1.354,1.094 2.03,1.641c0.564,0.163 0.416,0.264 1,0.433c0.248,0.072 0.231,0.061 3.124,0.824c15.835,5.483 18.254,8.814 22.167,11.803c-5.971,6.387 -7.314,2.566 -17.277,1.114c-2.144,-0.312 -2.739,1.971 -1.001,2.49c11.982,3.576 11.93,3.916 12.976,3.652c3.818,-0.964 4.065,1.073 2.33,4.621c-7.969,-0.324 -8.062,0.867 -11.32,-0.245c-0.607,-0.207 -6.459,-2.204 -7.959,1.017c-2.583,5.548 11.303,3.092 19.838,2.149c1.938,1.619 4.642,6.73 4.012,7.76c-3.275,5.347 -42.017,29.82 -45.843,-5.938c-1.303,-12.18 1.946,-22.259 2.541,-24.105c2.694,-0.252 2.929,0.162 3.501,-0.803c3.191,-5.388 3.761,-5.019 9.88,-6.414Z" style="fill:#f06787;"/><path d="M254.776,409.656c1.22,-0.037 3.168,-0.095 9.337,12.059c5.126,10.098 40.052,69.166 20.993,168.707c-6.382,33.329 -5.837,34.609 -9.513,35.502c-6.637,1.611 -6.584,-2.021 -4.11,-8.43c0.132,-0.343 6.243,-29.341 6.796,-33.031c2.969,-19.832 9.25,-63.055 0.723,-100.876c-10.201,-45.247 -20.881,-56.786 -24.079,-62.31c-1.723,-2.975 -0.459,-5.043 -0.146,-11.622Z" style="fill:#9e6977;"/><path d="M200.508,458.493c-2.268,-3.592 -4.944,-3.838 -1.973,-6.962c16.081,-16.904 41.562,-25.199 42.164,13.964c0.663,43.141 -40.064,14.585 -40.291,12.014c-0.034,-0.388 1.898,-6.444 3.422,-6.583c0.156,-0.014 10.42,1.807 13.7,0.643c2.466,-0.875 2.916,-3.398 -0.981,-3.429c-7.885,-0.064 -13.826,1.086 -13.956,-2.642c-0.15,-4.315 14.329,-4.667 13.475,-7.681c-0.906,-3.196 -11.545,4.396 -15.56,0.677Z" style="fill:#ed6687;"/><path d="M350.482,775.486c-4.688,3.472 -40.521,26.426 -55.259,37.556c-0.122,0.092 -0.125,0.067 -1.69,0.905c-0.141,-0.358 -0.985,0.107 -1.126,-0.251c-0.551,-1.395 7.691,-25.897 8.44,-28.124c11.717,-24.975 11.785,-40.959 23.359,-32.661c4.501,3.227 23.951,19.704 24.692,20.276c0.177,0.136 0.117,0.17 1.584,2.298Z" style="fill:#599ec9;"/><path d="M417.675,474.113c0.915,0.573 1.831,1.146 2.746,1.72c2.512,5.869 5.613,5.643 6.08,6.189c0.321,0.376 -0.192,1.102 0.129,1.478l-0.559,1l1.676,1.117c-1.367,2.891 -1.255,2.865 -2.603,5.715c-1.069,2.261 -1.1,2.132 -2.174,4.386c-22.977,48.226 -21.196,72.183 -22.845,73.362c-9.867,7.052 -25.741,2.437 -27.888,1.813c8.449,-4.512 9.57,-5.72 10.227,-6.428c0.84,-0.906 1.573,-1.696 3.717,-14.985c1.195,-7.41 -0.701,-7.027 -1.604,-7.929c-1.699,-3.702 -0.759,-9.72 -4.284,-20.966c-2.423,-7.731 -4.195,-10.107 -10.38,-20.187c0.643,-0.462 1.235,-2.48 5.28,1.458c3.332,3.243 10.51,18.244 10.716,18.418c4.843,4.105 34.727,-4.844 33.413,-38.763c-0.055,-1.429 -0.451,-2.629 -1.874,-3.98c-0.909,-0.863 -0.929,-0.835 -1.155,-2.029l1.383,-1.387Z" style="fill:#e6728c;"/><path d="M603.485,381.469c32.519,-13.029 54.368,9.223 43.944,20.97c-19.25,21.692 -78.169,-2.595 -43.944,-20.97Z" style="fill:#fdb59a;"/><path d="M570.433,678.336c11.998,18.71 30.388,124.206 25.116,126.25c-2.824,1.094 -3.114,-7.657 -3.335,-9.032c-2.441,-15.193 -18.583,-65.729 -22.158,-74.892c-1.173,-3.005 -11.807,-30.261 -15.654,-37.162l-0.908,-1.082c1.363,-0.292 6.84,-1.463 16.94,-4.082Z" style="fill:#e16580;"/><path d="M388.649,372.57c11.599,-17.971 42.204,-11.607 50.486,0.22c17.026,24.313 -59.923,29.893 -50.486,-0.22Z" style="fill:#fdb29a;"/><path d="M696.68,426.766c3.532,-1.474 8.222,-1.711 14.521,-5.746c0.3,-0.192 3.579,-2.293 4.207,-1.441c0.514,0.698 8.797,21.124 33.114,22.493c8.397,0.473 11.374,-4.506 12.318,1.428c-1.077,1.064 -1.325,0.732 -2.132,2.106c-9.694,16.499 -28.848,15.249 -36.239,13.028c-24.176,-7.265 -24.688,-25.689 -25.788,-31.867Z" style="fill:#be6738;"/><path d="M360.489,519.616c2.843,1.083 2.818,1.179 4.609,4.12c2.884,4.735 5.505,32.145 -7.74,37.414c-19.938,7.932 -21.702,4.902 -23.26,2.623c-5.933,-8.676 -26.054,5.03 -30.531,-3.296c3.042,-1.823 4.483,-4.58 4.74,-5.072c5.235,-10.017 3.427,-15.721 3.329,-17.953c9.707,9.904 19.194,2.855 28.997,6.752c5.235,2.081 14.605,-0.723 15.82,-1.086c1.939,-0.58 1.857,-0.664 3.848,-0.945c2.361,-1.921 4.924,-1.13 3.235,-3.699c-0.936,-1.423 -4.662,-2.464 -5.103,-2.587c-2.092,0.49 -2.014,0.502 -3.916,1.607c3.127,-13.833 3.13,-13.794 3.015,-15.014c-0.127,-1.351 0.885,-1.108 0.968,-1.211l1,-0.317l0.989,-1.336Z" style="fill:#fbc142;"/><path d="M417.675,474.113c-2.736,-1.824 -18.087,-12.059 -40.184,-8.663c-12.347,1.898 -22.762,8.764 -28.92,13.169l-1.098,1.798c-1.524,0.757 -2.274,0.284 -2.202,1.988c0.387,9.247 8.206,3.818 12.396,7.872c8.58,8.303 8.858,7.947 9.597,8.67c2.54,1.268 2.427,1.351 2.648,1.448c6.185,10.079 7.958,12.456 10.38,20.187c3.525,11.247 2.585,17.264 4.284,20.966c-4.168,22.233 -7.292,21.039 -15.032,27.808c-2.631,-0.943 -2.619,-0.929 -2.769,-1.115c-1.576,-1.954 0.357,-1.648 2.354,-3.164c11.889,-9.024 16.303,-69.103 -33.75,-77.127c-6.979,-1.119 18.6,-34.754 57.169,-29.813c22.642,2.901 31.169,15.539 32.422,16.928l-1.468,0.991c-2.888,-0.135 -2.834,-0.249 -3.08,-0.225c-0.915,-0.573 -1.831,-1.146 -2.746,-1.72Z" style="fill:#f89baf;"/><path d="M451.331,671.81c6.606,2.885 6.541,2.787 13.203,5.318c-0.357,1.611 -0.465,1.51 -6.504,15.166c-26.914,60.862 -30.047,107.468 -33.527,107.537c-6.544,0.131 14.728,-117.26 26.828,-128.022Z" style="fill:#e06580;"/><path d="M438.543,498.49c-0.137,0.303 0.466,0.638 0.33,0.941c-0.7,1.555 -1.171,1.217 -1.835,2.829c-21.139,51.35 -19.653,68.605 -19.89,72.138c-0.168,8.132 -1.614,36.033 7.034,67.116c0.052,0.188 -0.059,0.171 -0.8,2.309c-3.508,-2.357 -7.105,-4.028 -7.508,-6.381c-9.129,-53.267 -3.849,-78.303 -2.446,-84.956c6.443,-30.548 25.951,-67.312 26.322,-67.583c5.602,-4.099 11.775,-1.727 12.731,-1.359c2.974,1.143 1.76,2.233 0.12,12.968l-1.548,0.988l-0.157,1l0.098,1l-0.181,1l0.071,1l-0.123,1l0.084,1l0.035,1c-0.327,0.317 -0.053,0.995 -0.38,1.312c-2.501,2.429 -11.176,-6.517 -11.957,-7.323Z" style="fill:#f6a6b6;"/><path d="M322.472,567.139c3.692,-0.797 3.668,-0.792 3.987,-0.86c8.028,-1.711 1.181,9.368 0.757,10.054c-3.473,5.619 -1.338,5.983 0.816,12.289c0.078,0.23 0.338,2.2 -1.778,3.513c-14.781,9.172 -14.334,9.81 -15.641,10.567c-1.554,0.901 -21.962,-0.488 -22.713,-1.513c-1.015,-1.386 2.651,-20.808 2.989,-22.601c0.426,-2.256 3.91,-3.137 5.465,-4.275c4.075,-2.983 4.411,-2.2 9.148,-1.52c4.887,0.701 6.956,-6.129 16.97,-5.653Z" style="fill:#f2b53a;"/><path d="M687.259,371.455c1.817,-12.455 2.064,-12.665 3.246,-12.937c27.049,-6.216 42.468,30.921 20.68,50.625c-15.695,14.193 -37.193,7.75 -36.204,3.451c0.175,-0.759 0.434,-0.655 3.669,-9.019c2.838,2.139 6.265,2.811 6.85,2.926c14.931,2.929 32.365,-16.501 22.763,-29.849c-8.278,-11.508 -19.546,-1.911 -21.211,-4.198c-0.2,-0.275 0.407,-0.723 0.207,-0.997Z" style="fill:#fcdba9;"/><path d="M863.556,389.806c6.309,0.306 18.062,4.601 32.9,7.624c-0.271,2.286 -7.641,30.557 -8.04,30.849c-0.52,0.38 -23.6,-7.259 -32.005,-7.142c-1.169,0.016 -0.999,-0.376 -2.035,-0.766c8.271,-28.374 8.072,-28.433 9.18,-30.565Z" style="fill:#794830;"/><path d="M874.232,347.66c2.522,0.012 30.12,6.85 32.373,7.802l0.613,0.986c-0.499,3.161 -0.346,3.108 -1.26,6.176c-6.64,22.299 -5.293,25.374 -8.436,23.812c-7.382,-3.669 -16.822,-4.264 -31.054,-8.404c0.686,-6.349 7.642,-29.466 7.764,-30.372Z" style="fill:#7c4b33;"/><path d="M820.747,378.338c27.213,7.175 28.714,7.038 31.263,6.807c0.201,0.811 0.665,0.483 0.881,1.355c0.014,0.057 0.021,0.084 -0.392,0.619c-1.039,1.346 -1.141,1.478 -6.04,20.372c-2.248,8.669 -1.972,12.174 -7.199,9.407c-5.837,-3.089 -12.904,-3.801 -17.745,-5.453c-7.465,-2.547 -11.354,-0.432 -9.77,-5.922c7.105,-24.635 7.215,-24.658 9,-27.185Z" style="fill:#7a4931;"/><path d="M917.492,357.477c0.777,0.008 1.553,0.016 2.33,0.023l0.371,1l0.308,0.577c1.544,-0.049 19.537,3.744 29.605,7.749c0.375,0.52 0.75,1.039 1.125,1.559c-5.788,16.804 -6.676,26.621 -8.756,29.016l-1.051,0.444c-14.361,-4.626 -14.515,-3.883 -28.957,-8.107c-1.342,-2.075 -1.466,-2.025 -1.448,-2.238c0.052,-0.597 0.558,-0.193 0.759,-0.782c1.912,-5.602 4.232,-15.853 4.547,-17.245c2.012,-8.889 3.192,-10.551 1.167,-11.997Z" style="fill:#7e4c33;"/><path d="M862.884,346.596c-6.206,20.727 -6.415,29.824 -9.45,28.388c-11.968,-5.66 -31.812,-6.639 -30.994,-10.44c0.438,-2.036 3.592,-16.7 7.016,-25.063c1.786,-4.362 5.035,-1.984 18.065,0.935c8.003,1.793 13.993,2.792 14.158,4.083c0.044,0.345 -0.339,0.655 -0.294,1l1.499,1.096Z" style="fill:#7c4b32;"/><path d="M939.622,408.69c-1.237,1.525 -1.298,1.482 -1.336,1.647c-0.099,0.425 0.513,0.798 0.448,1.229c-0.391,2.608 -3.08,8.012 -7.454,25.82c-0.845,3.438 -5.689,0.084 -8.834,-0.655c-13.514,-3.178 -19.496,4.449 -23.985,-4.098c3.89,-8.022 8.947,-30.333 9.187,-30.813c1.081,-2.157 23.286,6.452 31.974,6.87Z" style="fill:#7d4b32;"/><path d="M360.489,519.616l-0.989,1.336l-1,0.317c-0.083,0.103 -1.095,-0.14 -0.968,1.211c0.115,1.22 0.111,1.181 -3.015,15.014c0.494,-0.127 0.556,1.238 1.049,1.112c0.306,-0.079 -0.482,-0.889 2.867,-2.719c0.441,0.123 4.167,1.164 5.103,2.587c1.689,2.569 -0.874,1.778 -3.235,3.699c-1.991,0.281 -1.909,0.365 -3.848,0.945c-1.215,0.364 -10.585,3.168 -15.82,1.086c-9.803,-3.897 -19.29,3.152 -28.997,-6.752l-0.746,-1.058c0.16,-2.976 0.151,-2.869 -0.147,-5.783c0.167,-0.502 0.335,-1.003 0.502,-1.505l0.294,-0.484c3.211,-1.755 2.877,-2.156 6.102,-3.856c6.699,-3.53 27.563,-6.769 28.863,-6.779c3.716,-0.029 3.5,2.152 13.986,1.63Z" style="fill:#fde06a;"/><path d="M836.34,548.296c-14.486,9.686 -16.11,2.239 -51.835,1.712c-1.653,-0.024 -6.729,1.154 -9.528,-4.717c-1.985,-4.164 1.292,-10.589 7.5,-11.893c9.173,-1.927 9.189,-0.394 42.989,2.552c1.981,0.173 20.02,2.744 10.875,12.346Z" style="fill:#fddc48;"/><path d="M366.581,408.363c0.063,2.282 0.513,18.545 -9.194,27.014c-19.598,17.098 -36.15,-4.591 -36.676,-5.002c-1.208,-1.643 -1.65,-1.419 -1.555,-2.92c0.181,-2.859 1.5,-1.497 4.346,-1.544c24.611,-0.403 23.092,-21.539 29.112,-19.832c6.874,1.949 7.042,0.744 13.968,2.285Z" style="fill:#b96134;"/><path d="M537.636,121.43c-9.918,8.295 -25.495,39.156 -29.245,41.917c-4.679,3.445 -21.888,-7.758 -34.212,-18.394c-7.32,-6.317 1.62,23.675 -1.665,30.417c-1.42,-0.222 -2.841,-0.444 -4.261,-0.666c-1.373,-2.482 -0.882,-2.661 -6.216,-40.156c-0.454,-3.192 -2.163,-4.529 0.417,-4.531c0.15,-0 14.817,11.855 26.107,19.392c9.953,6.645 11.994,11.106 17.438,3.445c10.319,-14.522 22.232,-33.647 24.086,-36.623c2.39,-3.836 3.175,-2.976 3.376,-2.695c0.415,0.581 0.309,0.585 4.175,7.895Z" style="fill:#fcea9e;"/><path d="M890.547,623.296c-2.335,-0.582 -21.777,-5.424 -29.105,-7.596c-15.915,-4.715 -47.45,-11.419 -56.941,-14.203c-39.271,-11.521 -39.68,-9.721 -43.068,-10.785c-3.639,-1.143 -4.9,-5.169 -4.479,-6.061c1.824,-3.854 43.411,10.558 92.582,21.705c29.985,6.797 29.427,8.937 52.965,13.139c2.124,0.379 3.946,1.978 1.939,3.931c-3.586,3.489 -12.104,0.235 -13.893,-0.13Z" style="fill:#7a3f25;"/><path d="M418.798,654.119c-8.586,3.494 -33.843,32.845 -51.852,63.616c-3.853,6.584 -3.902,6.491 -4.17,7.092c-1.105,2.475 -1.823,1.8 -2.711,2.708c-0.23,0.236 0.247,0.753 0.017,0.989c0.113,-17.612 -0.885,-21.929 1.816,-25.712c24.223,-33.926 45.599,-52.626 46.966,-53.884c1.982,-1.823 2.145,-0.142 9.933,5.191Z" style="fill:#fcbfca;"/><path d="M363.408,350.495l-0.908,-0.697c-20.457,-5.813 -25.499,32.165 -2.015,34.858c3.781,0.434 5.283,-0.864 5.662,-1.061c2.647,12.23 4.774,14.019 1.416,14.26c-1.79,0.129 -20.591,2.755 -30.758,-17.501c-10.849,-21.614 10.254,-46.535 25.633,-41.685c1.616,0.51 1.134,5.05 0.969,11.827Z" style="fill:#fcdcab;"/><path d="M255.512,469.475c11.14,6.784 19.126,3.831 22.168,27.001c1.118,8.517 1.111,8.461 1.98,17.023l-1.508,-0.998c-1.936,-1.55 -2.413,-1.194 -3.831,0.871c-3.144,4.576 -7.659,-8.268 -8.9,-3.871c-0.059,0.208 -0.137,0.145 -1.855,1.963c-1.069,-1.601 -3.007,-4.506 -16.522,-17.493c0.37,-1.286 0.728,-1.122 0.711,-2.47c-0.009,-0.745 2.668,-5.431 2.929,-5.888c1.815,-3.176 0.752,-3.475 1.77,-6.151c1.65,-4.341 -0.984,-4.778 0.967,-8.961c0.697,-0.342 1.394,-0.683 2.091,-1.025Z" style="fill:#fcdaa6;"/><path d="M934.567,483.881c18.389,-1.886 27.602,-2.276 31.666,7.715c2.75,6.76 -1.83,17.86 -5.787,16.028c-12.317,-5.702 -12.721,-4.667 -27.914,-3.731c-9.533,0.587 -13.94,-8.529 -9.878,-14.292c3.866,-5.486 11.031,-5.538 11.913,-5.719Z" style="fill:#facb97;"/><path d="M621.49,360.289c4.281,-0.59 4.1,-0.906 7.97,-2.872c5.201,-2.642 5.33,9.297 -11.034,11.617c-12.456,1.766 -7.02,-12.931 -22.046,-18.208c-21.451,-7.533 -23.601,16.487 -31.937,10.741c-8.022,-5.53 19.081,-39.04 48.331,-11.35c5.57,5.273 13.395,-11.572 14.125,-3.778c0.864,9.226 -15.813,12.862 -5.409,13.85Z" style="fill:#4a2920;"/><path d="M328.565,813.479c-0.144,1.217 -9.153,38.224 -8.728,53.115c0.047,1.652 -1.383,2.008 -1.394,2.025c-1.475,-0.987 -14.591,-9.766 -17.766,-13.288c-1.094,-1.214 -1.473,-1.677 7.591,-32.905l1.233,-0.467c13.658,-0.589 13.461,-8.271 19.065,-8.48Z" style="fill:#fcbeca;"/><path d="M413.638,341.246c6.831,2.97 7.03,0.795 6.982,0.238c-0.046,-0.528 -8.407,-7.035 -6.005,-12.928c2.294,-5.629 7.762,9.266 12.661,5.632c30.9,-22.924 58.612,18.634 43.209,19.964c-5.929,0.512 -6.152,-16.445 -23.985,-16.714c-17.795,-0.268 -15.585,18.929 -29.85,13.662c-12.845,-4.743 -9.954,-15.381 -6.295,-12.418c1.657,1.342 1.599,1.249 3.282,2.564Z" style="fill:#492920;"/><path d="M782.778,482.578l-1.278,-1.021c-0.448,0.001 -0.414,-0.462 -2.946,0.122c-5.067,1.168 -5.049,1.128 -10.109,0.196c-1.218,-0.224 -1.162,-0.103 -4.961,0.106c-1.812,0.099 -1.551,0.521 -2.624,1.879c-1.78,7.866 7.562,12.697 7.596,13.644c0.004,0.112 -8.134,23.002 -8.93,27.005c-1.75,8.8 -7.044,-8.211 -7.052,-17.009c-0.001,-1.176 4.509,-31.609 6.335,-36.899c7.126,-20.636 26.57,-1.434 23.969,11.977Z" style="fill:#fbcf9b;"/><path d="M687.259,371.455c0.2,0.275 -0.407,0.723 -0.207,0.997c1.665,2.287 12.933,-7.31 21.211,4.198c9.602,13.349 -7.832,32.779 -22.763,29.849c-0.585,-0.115 -4.012,-0.787 -6.85,-2.926c1.827,-4.985 4.923,-11.127 8.609,-32.119Z" style="fill:#fab987;"/><path d="M963.62,458.38c9.203,9.791 1.248,22.94 -3.202,21.34c-9.094,-3.27 -9.254,-1.972 -18.916,-1.968c-13.95,0.005 -17.265,-18.956 10.039,-21.886c7.814,-0.838 8.633,-0.069 12.079,2.515Z" style="fill:#faca93;"/><path d="M124.59,491.281c6.181,5.345 10.044,7.861 22.931,5.332c11.157,-2.19 21.616,-11.454 23.205,-12.862c4.059,-3.596 9.668,3.61 22.856,-0.997c6.782,-2.369 6.131,1.408 15.148,6.31c5.479,2.979 15.281,5.436 20.8,4.684c3.915,-0.533 4.414,-1.341 7.081,1.598l-1.111,0.818l-1,0.253l-1,0.137l-1,0.125l-1,0.013l-1,-0.02c-0.321,0.053 -3.19,0.529 -3.938,1.028c-0.15,0.1 -0.063,0.579 -0.221,0.493c-0.417,-0.228 -0.428,-1.152 -0.901,-1.105c-0.529,0.052 -0.412,1.234 -0.941,1.286c-0.647,-0.427 -1.293,-0.853 -1.94,-1.28c-7.424,0.026 -11.021,-2.993 -14.145,-3.23c-9.773,-0.742 -8.689,-6.732 -15.841,-4.959c-1.175,0.292 -9.013,2.235 -15.115,0.833c-4.509,-1.037 -4.74,-0.682 -8.202,2.472c-11.42,10.403 -38.242,18.182 -48.757,4.954l-1.052,-0.765c3.001,-2.208 2.932,-2.186 5.142,-5.119Z" style="fill:#eab07d;"/><path d="M227.668,430.289c-0.02,0.038 0.67,0.98 -1.21,1.884c-5.824,-0.385 -5.865,-0.547 -11.919,1.439c-1.847,0.606 -10.836,3.554 -19.787,14.098c-2.411,2.839 -2.854,2.533 -6.231,1.7c-7.658,-1.889 -9.83,0.535 -14.115,1.719c-2.041,0.564 -10.653,-7.432 -8.782,-9.519c5.358,-5.975 4.995,-8.358 12.835,-6.861c10.211,1.949 13.468,-6.915 17.196,-5.658c9.195,3.101 9.799,-5.353 21.856,-0.618c4.87,1.912 5.146,0.279 10.156,1.817Z" style="fill:#fcfaf9;"/><path d="M930.483,530.926c4.56,0.276 15.724,-0.39 21.817,5.756c3.013,3.038 0.178,19.27 -20.754,23.109c-3.73,0.684 -4.389,-0.687 -3.076,-4.303c0.812,-2.237 19.348,-5.663 5.009,-6.79c-18.178,-1.429 -18.21,-17.384 -6.967,-17.808c1.323,-0.05 2.648,0.085 3.971,0.035Z" style="fill:#fbc996;"/><path d="M142.55,595.062c19.703,2.811 81.397,9.076 124.991,12.261l-1.041,1.545l-0.693,0.632c-1.24,1.885 -1.05,2.412 -3.255,2.312c-4.573,-0.206 -48.396,-1.311 -76.088,-7.12c-5.291,-1.11 -5.435,0.24 -13.242,-1.76c-3.4,-0.871 -24.295,0.074 -25.327,-1.609c-0.657,-1.072 -0.762,-0.901 -1.619,-1.914c-0.474,-2.268 -1.063,-1.869 -2.775,-2.086c-0.586,-0.074 -2.001,-0.664 -2,-0.716c0.016,-0.623 1.035,-0.923 1.05,-1.546Z" style="fill:#b7e5f7;"/><path d="M584.427,146.373c17.107,-9.931 17.479,-10.943 18.1,-9.888c0.211,0.359 -5.46,23.618 -9.406,40.877c-5.347,3.028 -10.749,2.211 -11.621,2.893c-0.464,0.364 -0.532,1.098 -0.996,1.462c-3.069,0.138 -2.994,0.149 -5.899,1.046l-1.105,-1.562c1.493,-1.367 2.97,-2.719 8.639,-23.787c2.517,-9.354 3.732,-9.161 3.366,-9.914c-0.227,-0.468 -0.852,-0.659 -1.078,-1.127Z" style="fill:#f1ab42;"/><path d="M490.383,198.39c0.447,0.913 1.072,0.19 1.523,1.11c0.041,0.084 -0.707,-0.304 -0.448,1.084c0.893,4.773 12.791,12.534 21.901,4.65c3.537,-3.061 3.333,0.63 7.309,2.99c12.109,7.186 19.4,-3.073 20.905,-4.568c4.592,5.349 4.957,5.134 11.927,6.541l1,-0.033l1,0.043l1,-0.513l0.912,-1.516c0.955,-0.335 1.91,-0.671 2.865,-1.006c0.534,0.297 0.689,1.069 1.223,1.365c1.869,1.039 4.717,-3.848 7.104,-6.493c3.099,1.519 2.712,2.126 5.913,3.402c3.624,0.163 3.559,0.279 7.127,-0.553c1.837,-0.629 1.757,-0.727 3.063,-2.094c0.886,-1.204 1.783,-2.052 1.954,-2.215c2.368,7.272 -2.405,8.122 -15.256,10.418c-44.547,7.959 -80.053,-1.24 -86.778,-2.982c-10.403,-2.695 -13.694,-2.499 -13.049,-7.475c4.536,2.251 11.996,8.006 18.804,-2.155Z" style="fill:#f1bb37;"/><path d="M178.549,454.659c1.888,-0.362 21.813,-4.183 19.657,13.811c-2.797,23.344 -39.778,7.244 -25.965,-10.227c0.28,0.598 1.252,0.658 1.531,1.256c0.156,0.334 -0.414,0.636 -0.476,1c-0.121,0.714 0.394,1.621 0.466,1.747c3.035,5.347 4.507,-1.884 1.758,-3.747l-0.147,-1l-0.979,-1.173c2.068,-0.907 1.992,-0.94 4.156,-1.668Z" style="fill:#ed5e82;"/><path d="M145.087,573.588c0.18,-0.277 -0.263,-0.711 -0.083,-0.988c1.364,-2.1 2.386,-1.684 2.612,-1.592c0.222,0.09 2.921,-0.603 3.822,1.524c6.009,14.182 28.785,15.297 35.159,14.26c2.065,-0.336 1.964,0.145 4.121,0.381c19.425,2.121 30.355,-5.681 32.779,-6.678c5.54,-2.279 5.992,-0.69 6.472,-0.602c-2.693,4.266 -2.68,4.253 -6.524,7.508c-5.118,3.433 -5.364,2.954 -9.945,7.111c-3.057,0.042 -6.944,0.095 -38.04,-3.694c-12.58,-1.523 -12.526,-1.304 -25.041,-3.002c-0.348,-2.145 -0.28,-2.155 -0.376,-2.316c-3.343,-5.626 -3.816,-5.451 -4.958,-11.912Z" style="fill:#d9cfc9;"/><path d="M363.408,350.495c0,10.511 -0.159,17.628 2.74,33.1c-0.379,0.197 -1.881,1.495 -5.662,1.061c-23.484,-2.693 -18.442,-40.671 2.015,-34.858l0.908,0.697Z" style="fill:#fbb889;"/><path d="M421.837,656.086c0.513,0.337 0.488,0.315 8.651,5.444c-3.946,4.528 -26.955,30.931 -40.56,63.172c-3.003,7.118 -4.141,13.384 -4.842,7.964c-0.279,-2.157 8.31,-27.303 13.625,-38.059c1.506,-3.049 16.473,-33.339 20.528,-37.22c0.7,-0.67 1.898,-0.632 2.598,-1.302Z" style="fill:#df6680;"/><path d="M827.546,331.67c-0.267,-0.296 -0.721,-0.378 -0.988,-0.674c-7.285,-8.052 -0.05,2.336 0.07,2.496c0.23,1.728 0.551,1.649 0.125,3.072c-8.186,27.322 -6.733,27.958 -8.484,29.702c-2.387,2.378 -2.454,2.574 -5.831,2.255c0.632,-3.498 0.505,-3.428 1.385,-6.923c8.011,-31.81 7.478,-32.319 9.876,-33.798c6.322,-3.897 7.849,-3.124 8.583,-2.837c6.249,2.441 22.619,5.704 35.104,9.84c6.199,2.053 -1.578,5.16 -2.001,5.329c-11.56,-1.268 -27.151,-6.725 -37.839,-8.462Z" style="fill:#af7b5c;"/><path d="M604.395,666.307c12.393,13.967 8.933,16.112 19.515,33.957c2.583,4.356 11.691,27.714 13.527,34.225c-0.589,0.278 -1.179,0.557 -1.768,0.835c-4.545,-8.683 -6.146,-17.832 -26.588,-46.533c-7.861,-11.037 -10.688,-12.399 -13.633,-18.534c8.31,-3.664 8.227,-3.644 8.947,-3.95Z" style="fill:#dc627b;"/><path d="M773.266,502.425l1.7,1.075l0.15,1c3.596,2.212 2.645,3.553 -6.925,40.947c-2.566,10.025 -2.481,9.932 -4.963,19.983c-0.982,2.886 0.089,4.071 -9.035,9.096c9.484,-36.18 8.752,-36.264 19.074,-72.102Z" style="fill:#e95e51;"/><path d="M918.118,519.575c0.006,-0.728 0.053,-6.092 2.806,-8.658c4.308,-4.015 26.259,-2.951 30.536,-2.183c13.108,2.352 11.858,13.117 7.447,20.054c-1.097,-2.653 -2.186,-2.621 -1.078,-5.331c2.382,-5.827 -2.417,-4.932 -20.323,-4.639c-12.599,0.206 -15.593,-1.274 -17.006,-1.267c-0.424,0.002 -0.421,0.947 -0.845,0.949l-1.538,1.075Z" style="fill:#fcd8a5;"/><path d="M105.248,505.2c0.066,0.508 0.751,0.793 0.817,1.3c0.036,0.275 -1.499,1.03 -2.028,2c-0.308,0.565 -0.277,1.331 -0.732,1.786c-0.199,0.199 -0.606,-0.448 -0.805,-0.249l-1,0.391l-1,-0.477l-1,0.321c-4.787,2.531 -3.255,3.875 -8.072,15.199c-0.214,0.503 -2.791,6.562 1.444,6.677c0.769,0.021 2.307,1.547 0.721,2.444c-1.907,1.078 -2.755,0.639 -2.653,2.869c0.129,2.806 -2.164,5.773 -0.679,8.072c1.745,2.701 4.487,9.427 2.138,12.972c-2.856,4.311 2.962,6.729 -0.261,9.617c-2.67,2.392 -1.201,-0.837 -1.206,-1.021c-0.048,-1.756 -2.259,-6.099 -2.515,-6.603c-0.519,-1.02 -1.77,-1.103 -1.949,-1.115c-0.334,-0.022 -0.665,0.407 -0.969,0.268c-0.728,-0.334 -0.182,-0.791 -0.956,-1.15c-0.711,-0.33 -0.681,0.391 -1.349,0.081c-3.227,-15.043 -0.734,-24.898 -0.205,-26.991c4.104,-0.218 4.233,-2.674 4.255,-3.094c0.398,-7.562 3.876,-6.515 5.109,-13.996c0.07,-0.129 0.078,-0.119 1.784,-2.139c0.131,-0.155 0.608,-1.781 0.564,-1.861c-0.323,-0.592 -1.178,-0.766 -1.501,-1.358c1.863,-1.225 9.843,-3.202 12.046,-3.942Z" style="fill:#f5c892;"/><path d="M504.443,686.89c1.688,0.165 3.376,0.33 5.065,0.495l1.079,1.114c0.051,0.089 1.323,0.388 1.192,2.064c-0.383,4.916 -3.444,4.437 -9.574,60.885c-0.185,1.701 -0.869,17.889 -2.789,12.111c-0.829,-2.493 0.907,-15.032 1.981,-65.063c0.017,-0.801 0.205,-9.572 0.475,-9.997c0.13,-0.205 0.19,-0.119 2.571,-1.61Z" style="fill:#e9718b;"/><path d="M596.925,510.564l-1.611,-0.064c-0.472,0.24 -0.342,1.124 -0.814,1.364c-0.933,0.475 -1.229,-1.315 -12.975,1.714c-1.047,0.27 -1.332,0.811 -1.51,-0.078c-0.23,-1.149 -0.401,-0.99 -0.865,-2.134c3.426,-11.482 2.203,-11.669 2.873,-17.894c0.396,-3.682 7.909,-3.762 9.56,-3.429c6.345,1.278 11.15,1.255 9.956,4.469c-2.928,7.883 -2.745,7.885 -4.614,16.051Z" style="fill:#e36e86;"/><path d="M196.377,547.65c10.801,10.614 -4.758,16.379 -6.835,17.917c-1.762,1.305 -9.742,-3.493 -10.75,-4.405c-6.575,-5.947 -2.432,-11.032 -2.2,-11.63c3.45,-5.315 12.703,-5.813 19.786,-1.882Z" style="fill:#64271d;"/><path d="M131.516,532.52c13.497,-8.415 18.37,8.897 14.557,15.748c-8.976,16.128 -27.685,-2.812 -14.557,-15.748Z" style="fill:#46261e;"/><path d="M566.106,197.522c-1.001,6.285 -1.769,6.779 -5.829,9.649c-0.955,0.335 -1.91,0.671 -2.865,1.006c-7.62,0.358 -8.239,0.111 -13.424,-5.782c-5.367,-15.693 19.415,-21.327 22.118,-4.873Z" style="fill:#fced52;"/><path d="M265.539,468.43c-5.738,-2.698 -7.632,-1.61 -8.414,-7.885c-1.654,-13.27 -10.038,-16.339 -6.395,-18.751c8.103,-5.364 7.103,-6.679 7.929,-6.808c2.743,-0.427 14.009,33.968 13.444,35.39c-0.379,0.953 -6.067,-1.713 -6.563,-1.946Z" style="fill:#fabf89;"/><path d="M223.407,532.454c7.523,-12.047 18.016,-1.115 18.443,6.021c1.022,17.091 -25.274,16.785 -18.443,-6.021Z" style="fill:#42241c;"/><path d="M918.118,519.575l1.538,-1.075c0.424,-0.002 0.421,-0.947 0.845,-0.949c1.413,-0.007 4.406,1.473 17.006,1.267c17.906,-0.293 22.705,-1.188 20.323,4.639c-1.108,2.71 -0.019,2.678 1.078,5.331c-0.545,0.701 -1.948,3.882 -5.15,2.226c-15.254,-7.889 -31.668,1.237 -35.639,-11.439Z" style="fill:#fac18d;"/><path d="M539.582,197.494c-2.387,20.572 -31.06,6.751 -19.756,-5.769c4.226,-4.68 16.368,-6.706 19.756,5.769Z" style="fill:#f9677b;"/><path d="M129.215,431.299c5.874,-8.114 5.728,-8.184 12.72,-15.388c4.924,-5.073 8.145,-8.528 9.68,-4.453c1.892,5.024 -0.902,4.651 -11.673,17.403c-7.003,8.291 -10.19,5.172 -15.57,14.558c-6.162,10.751 -6.693,25.083 -12.338,20.362c-0.605,-0.506 1.727,-5.57 1.939,-6.031c6.412,-13.921 6.332,-13.932 15.241,-26.451Z" style="fill:#9b626c;"/><path d="M113.488,468.049c2.655,-0.244 3.782,-1.186 3.967,1.458c0.32,4.57 0.13,4.554 1.482,8.881l-1.657,1.112l-0.283,1l-0.157,1c-0.683,3.244 -0.646,3.218 -0.835,3.754c-0.525,-0.953 -0.294,-0.984 -1.036,-1.88c-3.064,-3.701 -1.553,-6.413 -4.115,-6.124c-4.218,0.476 -3.172,2.097 -2.586,6.279c0.521,3.717 -7.209,8.609 -7.688,8.991c-2.748,-1.933 -2.676,-1.843 -5.282,-3.961c-1.165,-0.985 -1.025,-1.06 -1.854,-1.317c-0.307,-0.099 -0.57,0.508 -0.877,0.409c-2.051,-0.662 -1.602,-1.712 0.281,-2.659c6.907,-2.825 6.148,-5.304 6.517,-6.677c-5.761,0.826 -6.724,2.734 -7.511,3.254c-2.031,-2.174 -2.908,-2.576 -0.909,-4.871c8.36,-9.596 15.72,-3.373 17.737,-2.539c6.606,2.729 5.014,-3.44 5.067,-3.658c0.08,-0.328 0.671,-0.35 0.752,-0.677l-1.012,-1.774Z" style="fill:#f9cc8c;"/><path d="M142.55,595.062c-0.016,0.623 -1.035,0.923 -1.05,1.546c-0.001,0.052 1.414,0.641 2,0.716c1.712,0.216 2.301,-0.182 2.775,2.086c-6.363,3.778 -38.177,-1.902 -41.747,-0.856c-1.048,0.307 -0.94,-0.18 -2.029,-0.388l-1.314,0.544c-1.532,-2.4 -1.133,-4.593 -1.107,-7.237c0.046,-4.754 3.051,-1.696 42.472,3.592Z" style="fill:#78b8dc;"/><path d="M263.565,511.463c1.718,-1.818 1.797,-1.755 1.855,-1.963c1.241,-4.396 5.756,8.448 8.9,3.871c1.419,-2.065 1.895,-2.422 3.831,-0.871l1.508,0.998c0.118,3.562 1.674,50.613 -3.482,44.409c-2.352,-2.83 3.709,-17.021 -8.016,-38.213c-2.318,-4.188 -2.373,-4.042 -4.596,-8.231Z" style="fill:#f2b67a;"/><path d="M493.594,192.542c0.494,-0.614 4.353,-5.41 7.94,-5.837c13.149,-1.563 18.529,18.982 2.952,19.571c-8.443,0.319 -10.603,-7.466 -11.607,-9.732c-0.042,-2.126 -0.007,-2.052 0.716,-4.002Z" style="fill:#fced55;"/><path d="M198.584,401.499c1.167,6.724 0.535,6.962 4.259,12.783c2.85,4.456 1.771,6.044 -3.416,6.761c-12.487,1.726 -18.818,-14.732 -19.555,-16.65c0.03,-0.019 0.641,-1.59 2.592,-1.641c1.209,-0.032 9.69,-0.255 15.036,-1.602l1.084,0.349Z" style="fill:#fbbd88;"/><path d="M113.488,468.049l1.012,1.774c-0.08,0.328 -0.671,0.35 -0.752,0.677c-0.053,0.218 1.539,6.387 -5.067,3.658c-2.017,-0.833 -9.377,-7.057 -17.737,2.539c-1.999,2.295 -1.123,2.697 0.909,4.871c-2.161,2.482 0.51,2.871 0.995,3.422c-1.883,0.947 -2.332,1.997 -0.281,2.659c0.307,0.099 0.57,-0.508 0.877,-0.409c-2.93,1.722 -3.072,1.441 -6.336,0.652c-0.123,-0.118 -0.092,-0.031 -1.596,-1.41c-1.331,-1.329 -2.663,-2.658 -3.994,-3.987c-0.94,-8.886 5.937,-13.142 9.073,-14.813c8.598,-4.579 18.85,0.011 22.897,0.365Z" style="fill:#fae7c7;"/><path d="M727.056,515.601c-0.312,-2.662 -0.616,-3.34 2.385,-4.295c10.249,-3.26 15.3,-8.562 15.471,-4.881c0.309,6.652 0.043,6.586 1.179,13.134c0.429,2.475 -6.478,9.457 -8.702,8.165c-3.927,-2.281 -3.744,-2.38 -7.719,-4.553c-1.171,-0.64 -1.576,-0.663 -2.614,-7.57Z" style="fill:#fcfcfc;"/><path d="M963.167,360.466c-6.09,4.505 -6.992,3.249 -35.612,-4.159c-6.039,-1.563 -14.428,-2.013 -9.961,-6.721c2.56,-2.698 8.882,-0.242 17.904,1.924c26.252,6.303 26.657,6.545 27.669,8.955Z" style="fill:#ad795a;"/><path d="M70.522,548.972c3.022,-0.021 4.303,-1.421 4.753,1.572c0.146,0.974 0.202,1.961 0.35,2.935c2.339,15.374 7.548,18.32 7.582,23.011c0.031,4.292 -15.222,1.012 -15.728,-0.983c-1.55,-6.115 -2.336,-5.679 -6.409,-10.58l1.43,-1.571l1,0.52c1.26,0.385 8.425,3.532 9.301,0.697c0.386,-1.248 -2.063,-3.098 -2.088,-6.127c-0.04,-4.847 -1.98,-4.92 -0.192,-9.474Z" style="fill:#f1b236;"/><path d="M223.525,400.501c0.774,14.439 2.092,15.352 -0.015,16.023c-12.73,4.048 -16.855,-5.643 -19.209,-12.97c1.301,-0.693 2.924,-1.558 18.199,-2.865l1.025,-0.188Z" style="fill:#fabf87;"/><path d="M910.495,345.517c8.494,3.449 -1.615,6.043 -1.996,5.997c-2.696,-0.328 -3.17,-0.386 -32.886,-8.436c-7.689,-2.083 -1.344,-6.23 1.926,-5.9c2.706,0.274 2.668,0.34 32.956,8.339Z" style="fill:#ac7759;"/><path d="M173.641,407.471c0.577,2.092 3.885,10.592 -0.562,16.698c-6.113,8.392 -15.072,-13.024 -15.735,-14.609c0.385,-0.852 0.77,-1.704 1.156,-2.556c0.853,-0.009 7.211,1.024 11.036,-1.446c1.732,-1.118 2.19,0.751 2.379,0.942l0.585,0.292l1.141,0.679Z" style="fill:#f9be88;"/><path d="M828.412,506.407c-16.426,12.302 -10.868,-29.067 1.937,-18.703c3.5,2.833 2.446,12.873 -1.937,18.703Z" style="fill:#9b301d;"/><path d="M330.276,799.115c0.093,0.666 1.374,0.719 1.466,1.385c0.271,1.943 -2.859,11.959 -3.178,12.979c-5.603,0.209 -5.406,7.891 -19.065,8.48l-1.233,0.467c0.185,-0.711 2.29,-8.794 2.325,-8.889c0.673,-1.833 0.912,-1.764 19.684,-14.421Z" style="fill:#ea93a4;"/><path d="M859.424,495.514c1.177,13.987 -7.777,20.194 -12.909,13.975c-3.782,-4.583 2.397,-25.036 10.817,-17.784c1.76,1.516 2.024,3.609 2.092,3.809Z" style="fill:#9b2f1d;"/><path d="M70.522,548.972c-1.788,4.554 0.152,4.627 0.192,9.474c0.025,3.029 2.474,4.879 2.088,6.127c-0.877,2.835 -8.042,-0.312 -9.301,-0.697l-1,-0.52l-1.43,1.571c-4.781,-5.347 -3.985,-5.849 -8.22,-11.66c-3.307,-4.539 1.685,-3.334 17.672,-4.295Z" style="fill:#fac937;"/><path d="M939.622,408.69c-8.688,-0.418 -30.893,-9.027 -31.974,-6.87c-0.24,0.48 -5.297,22.79 -9.187,30.813c-2.083,-1.582 -3.712,-2.82 6.061,-32.129c1.405,-4.214 3.189,-2.99 25.992,2.942c0.636,0.165 5.235,1.362 7.873,2.323c2.861,1.043 1.9,2.267 2.043,2.645l-0.808,0.276Z" style="fill:#99684b;"/><path d="M512.632,351.635c-0.473,0.632 -4.19,5.602 2.002,9.662c0.771,0.505 15.863,2.904 3.796,6.935c-9.94,3.321 -27.141,-17.294 -3.955,-22.863c3.653,-0.877 3.906,1.806 0.979,4.07c-0.929,0.719 -0.894,0.605 -1.77,1.286c-0.596,0.464 -0.503,0.482 -1.052,0.909Z" style="fill:#f9b880;"/><path d="M264.832,620.64c-0.918,9.433 10.799,19.253 19.381,3.793c1.747,0.046 2.375,-0.617 2.652,1.067c1.512,9.17 -11.277,17.807 -19.152,12.628c-10.818,-7.115 -5.73,-14.452 -5.476,-15.628l1.132,-1l1.463,-0.86Z" style="fill:#6daccd;"/><path d="M812.719,371.958c3.88,1.111 6.31,0.763 4.372,4.332c-7.029,12.942 -6.804,31.621 -11.513,32.558c-6.018,1.197 -2.97,-4.405 -2.758,-5.259c7.211,-29.175 7.942,-29.843 9.9,-31.631Z" style="fill:#ab7759;"/><path d="M83.408,602.499c1.449,9.76 14.901,15.7 19.722,1.981l1.37,1.265l0.73,-0.245l0.569,1l0.023,1l-0.441,1c0.461,11.034 -11.048,15.506 -20.648,7.721c-8.598,-6.972 -2.133,-12.972 -1.325,-13.722Z" style="fill:#74b4d6;"/><path d="M139.47,442.173c-6.119,1.395 -6.689,1.026 -9.88,6.414c-0.571,0.965 -0.807,0.551 -3.501,0.803c0.415,-1.02 4.371,-18.571 28.177,-7.419c4.629,2.169 11.649,9.313 12.557,10.238c2.585,2.631 2.148,3.147 0.968,4.665c-3.912,-2.99 -6.331,-6.32 -22.167,-11.803c-0.016,-0.267 -0.187,-3.054 -1.115,-3.156c-0.363,-0.04 -0.646,0.468 -1.009,0.428c-1.914,-0.771 -1.918,-0.336 -4.03,-0.17Z" style="fill:#fc91ae;"/><path d="M87.634,578.564c1.884,-0.832 1.699,0.22 3.021,1.798c1.293,1.544 5.158,2.815 5.58,8.181c0.552,7.006 0.702,6.933 1.468,13.941c0.669,6.126 -7.989,6.637 -8.807,-2.022c-1.659,-17.553 -1.422,-20.15 -1.262,-21.898Z" style="fill:#a66b79;"/><path d="M116.005,485.254c-3.326,8.348 -5.237,7.271 -5.505,8.79c-0.106,0.604 0.38,1.215 0.274,1.819c-2.023,1.359 -4.046,2.719 -6.069,4.078l-1.205,-1.902c-8.807,-0.533 -8.991,0.683 -9.533,0.147c-2.668,-2.642 2.786,-1.841 6.613,-5.667c0.479,-0.382 8.209,-5.274 7.688,-8.991c-0.586,-4.182 -1.633,-5.802 2.586,-6.279c2.562,-0.289 1.051,2.423 4.115,6.124c0.742,0.897 0.511,0.927 1.036,1.88Z" style="fill:#facd90;"/><path d="M87.108,487.893c3.264,0.788 3.406,1.07 6.336,-0.652c0.829,0.257 0.689,0.332 1.854,1.317c2.607,2.118 2.534,2.029 5.282,3.961c-3.827,3.826 -9.281,3.025 -6.613,5.667c0.542,0.537 0.725,-0.68 9.533,-0.147l1.205,1.902c-1.052,0.5 -9.859,4.685 -14.155,3.423c-9.804,-2.88 -3.587,-14.974 -3.442,-15.471Z" style="fill:#ecb577;"/><path d="M255.512,469.475c-0.697,0.342 -1.394,0.683 -2.091,1.025c-1.952,4.183 0.683,4.62 -0.967,8.961c-1.018,2.676 0.045,2.975 -1.77,6.151c-0.261,0.457 -2.938,5.143 -2.929,5.888c0.017,1.348 -0.341,1.184 -0.711,2.47c-5.814,-3.981 -7.889,-4.329 -5.385,-8.369c6.62,-10.679 0.814,-16.337 8.882,-16.717c3.169,-0.15 3.089,0.018 4.971,0.591Z" style="fill:#e7ae7c;"/><path d="M811.105,503.463c0.191,-1.315 0.448,-2.619 0.639,-3.934c0.501,-3.451 -2.94,-3.746 -3.772,0.087c-1.605,7.402 -4.023,5.162 -4.405,4.808c-1.162,-1.076 2.658,-19.835 4.146,-20.495c5.374,-2.382 -0.6,9.562 3.784,9.468c2.317,-0.05 2.352,-5.484 2.41,-5.829c0.654,-3.875 4.892,-3.19 4.273,-0.112c-0.289,1.437 -3.503,17.413 -3.888,17.899c-1.824,2.312 -2.982,1.084 -3.188,-1.892Z" style="fill:#992b1a;"/><path d="M484.772,184.109c10.211,8.394 2.133,22.831 -10.61,14.819c-0.103,-0.065 -0.105,-0.041 -1.419,-0.556c-1.079,-2.072 -3.851,-4.146 -1.815,-9.723l0.778,-1.048c0.192,0.239 -0.714,0.518 -0.522,0.757c0.742,0.926 1.927,1.389 2.845,2.142c0.489,0.401 0.539,0.191 2.502,-0.116c1.733,-0.271 5.192,9.487 6.714,1.125c0.177,-0.974 1.792,-1.001 -0.24,-6.009l1.766,-1.391Z" style="fill:#f96f73;"/><path d="M914.619,448.298c11.037,4.896 11.844,6.023 15.881,5.288c0.679,-0.124 1.348,-0.764 2,-0.536c0.615,0.215 0.481,1.402 1.096,1.617c-4.686,3.811 -4.78,3.735 -7.862,8.949c-2.411,-1.522 -2.436,-1.302 -5.188,-1.313c-1.339,-0.005 -2.716,-0.878 -2.926,-1.011c-9.078,-5.751 -5.404,-8.976 -3.772,-11.792l0.77,-1.202Z" style="fill:#efd9d8;"/><path d="M308.44,526.48c0.637,0.659 0.893,0.065 1.489,0.682c0.589,0.609 -0.068,0.871 0.58,1.46c0.254,0.23 0.774,-0.23 1.028,0l-0.294,0.484c-0.72,0.457 -0.739,0.323 -1.38,0.876c-1.878,1.622 0.399,2.21 0.602,2.52c0.141,1.297 0.282,2.595 0.423,3.892l0.746,1.058c0.098,2.232 1.907,7.936 -3.329,17.953c-0.257,0.492 -1.698,3.249 -4.74,5.072c-2.259,-1.803 -1.751,-2.167 -1.555,-5.014l1.778,0.036l0.288,-1c5.535,-6.978 -3.728,-18.269 4.363,-28.02Z" style="fill:#c6772a;"/><path d="M585.151,186.924c4.921,5.789 4.198,6.582 1.511,13.66c-0.172,0.162 -1.069,1.011 -1.954,2.215c-4.183,0.176 -8.273,4.092 -14.16,-4.326c0.318,-0.753 0.635,-1.506 0.953,-2.258c4.851,-3.102 6.199,0.448 10.704,-3.07c2.819,-2.202 1.442,-3.526 1.462,-3.643l-0.645,-1c0.71,-0.525 1.42,-1.051 2.13,-1.576Z" style="fill:#86dc71;"/><path d="M479.549,178.079l5.819,1.848c3.41,4.69 4.048,4.208 6.903,9.852c1.317,2.762 1.286,2.704 1.323,2.763c-0.723,1.95 -0.757,1.876 -0.716,4.002c-0.791,0.436 -1.16,-0.131 -2.495,1.846c-6.808,10.161 -14.269,4.406 -18.804,2.155c0.388,-0.724 0.777,-1.448 1.165,-2.172c1.314,0.514 1.316,0.491 1.419,0.556c12.743,8.012 20.821,-6.425 10.61,-14.819c-2.22,-1.162 -7.174,-4.769 -13.065,3.492l-0.778,1.048c-1.709,-2.798 -1.671,-2.727 -1.707,-2.807c3.892,-2.93 3.096,-3.991 7.554,-5.851c1.602,-0.669 1.337,-0.922 2.772,-1.912Z" style="fill:#783829;"/><path d="M871.187,513.901c5.01,-19.471 7.596,-19.36 9.308,-19.287c0.006,0 2.697,-0.146 2.854,1.916c0.301,3.97 2.036,23.791 -2.649,17.813c-0.377,-0.481 -0.416,-5.824 -4.413,-4.287c-2.512,0.966 -0.521,5.359 -5.099,3.845Z" style="fill:#9e351b;"/><path d="M258.769,598.234c0.269,-1.074 2.168,-8.649 7.912,-11.362c6.284,-2.968 7.718,-5.213 7.87,-2.38c0.005,0.092 -2.927,14.027 -2.937,14.054c-0.568,1.65 -8.758,2.147 -12.845,-0.313Z" style="fill:#e99e1c;"/><path d="M947.095,408.326c0.571,2.407 1.094,4.611 -6.262,30.276c-0.807,2.815 -0.185,3.094 -2.367,5.149c-4.979,-2.027 -4.27,-4.409 3.41,-26.089c1.697,-4.792 4.196,-4.283 2.949,-8.507c1.453,-0.735 1.437,-0.745 1.569,-0.794c0.369,-0.136 0.355,0.092 0.701,-0.035Z" style="fill:#71432c;"/><path d="M782.778,482.578c-8.256,20.946 -20.721,2.051 -21.918,1.281c1.074,-1.357 0.813,-1.779 2.624,-1.879c3.799,-0.208 3.743,-0.33 4.961,-0.106c5.06,0.932 5.043,0.972 10.109,-0.196c2.531,-0.583 2.498,-0.121 2.946,-0.122l1.278,1.021Z" style="fill:#fbc28f;"/><path d="M775.546,599.343c0.309,0.052 6.587,1.114 2.751,2.782c-19.371,8.423 -40.343,6.084 -43.86,5.692c0.694,-0.487 0.008,-1.536 3.093,-2.172c0.078,-0.016 0.266,-0.055 0.99,-0.038c11.063,0.263 10.902,-1.304 21.977,-2.044c2.036,-0.136 4.91,-1.143 4.978,-1.141c1.155,0.032 0.915,-0.433 1.948,-0.922l1.076,-0.555l1,0.117l0.275,-0.562l0.725,-0.408l1,0.201l1,-0.165l1,-0.149c0.682,-0.212 1.364,-0.424 2.046,-0.637Z" style="fill:#f9d19f;"/><path d="M329.066,583.5c0.428,-4.328 -0.937,-5.164 2.714,-7.509c2.979,-1.914 13.779,1.423 14.437,1.891c2.281,1.625 -3.305,3.979 -5.078,5.136c-7.568,4.94 -7.919,5.077 -8.681,5.374c-2.65,1.032 -2.264,-0.693 -2.527,-0.891l-0.428,-1l-0.068,-1l-0.16,-1l-0.775,-0.558l0.566,-0.442Z" style="fill:#295e88;"/><path d="M156.8,432.667c-3.413,5.618 -5.026,0.464 -12.346,0.102c-0.198,-0.01 -3.222,-0.159 -1.501,-1.965c10.881,-11.416 11.559,-12.208 12.169,-11.043c0.412,0.787 0.523,1.699 0.864,2.519c0.608,1.465 3.195,3.837 3.409,5.243c0.096,0.632 0.481,0.782 -2.593,5.144Z" style="fill:#faf9f9;"/><path d="M794.302,450.679c3.189,-0.235 3.135,0.052 9.201,0.781c12.11,1.455 18.124,-3.966 23.325,2.615c-0.637,0.396 -0.691,1.421 -1.328,1.817c-0.209,0.13 -0.225,-0.028 -3.066,0.253c-19.753,1.954 -20.01,-2.308 -21.835,-2.134c-1.57,0.149 -1.505,0.533 -3.099,0.04c-2.378,-0.735 -2.447,-0.278 -4.243,1.401c0.978,-4.431 0.945,-4.395 1.045,-4.773Z" style="fill:#bc3923;"/><path d="M903.53,513.331c0.299,0.118 4.66,1.842 1.637,3.676c-0.278,0.169 -8.181,0.577 -8.547,-1.532c-0.133,-0.767 2.274,-17.634 3.237,-18.479c2.227,-1.954 13.024,1.811 7.825,3.858c-0.628,0.247 -10.06,-0.229 -2.371,4.007c2.33,1.284 1.762,3.591 -0.775,3.855c-0.41,0.043 -5.529,0.576 -3.686,3.6c0,0 2.465,0.933 2.68,1.014Z" style="fill:#a1331f;"/><path d="M859.559,388.505c3.71,1.253 3.694,1.155 3.997,1.301c-1.108,2.133 -0.909,2.192 -9.18,30.565c-0.151,0.233 -1.562,3.266 -2.759,2.901c-0.079,-0.024 -0.747,-0.789 -0.799,-0.935c-0.635,-1.756 7.958,-31.149 8.742,-33.833Z" style="fill:#915e41;"/><path d="M859.559,388.505c1.994,-4.346 3.511,-2.698 19.825,1.406c13.968,3.513 20.381,4.507 17.071,7.519c-14.838,-3.022 -26.59,-7.318 -32.9,-7.624c-0.303,-0.146 -0.287,-0.048 -3.997,-1.301Z" style="fill:#a17256;"/><path d="M384.576,541.55c0.903,0.902 2.799,0.519 1.604,7.929c-2.144,13.29 -2.877,14.08 -3.717,14.985c-0.657,0.708 -1.778,1.917 -10.227,6.428c-0.897,-0.511 -1.795,-1.023 -2.692,-1.534c7.741,-6.769 10.865,-5.575 15.032,-27.808Z" style="fill:#9e3f4f;"/><path d="M803.17,484.575c0.032,4.045 -1.736,2.801 -3.647,2.493c-3.499,-0.565 -6.412,11.808 -1.989,12.103c6.485,0.432 1.517,4.852 -1.971,3.997c-10.949,-2.684 1.848,-30.141 7.607,-18.592Z" style="fill:#952c17;"/><path d="M838.434,496.476c-0.977,3.771 -3.345,9.846 2.06,9.512c5.926,-0.365 -2.431,7.642 -6.503,2.16c-2.836,-3.818 2.538,-25.028 10.197,-18.291c1.578,1.388 2.961,6.56 -1.732,3.73c-2.081,-1.255 -3.854,2.53 -4.022,2.888Z" style="fill:#9c331e;"/><path d="M585.151,186.924c-0.71,0.525 -1.42,1.051 -2.13,1.576l0.645,1c-0.019,0.117 1.357,1.442 -1.462,3.643c-4.505,3.519 -5.853,-0.032 -10.704,3.07c-0.318,0.753 -0.635,1.506 -0.953,2.258c-3.527,-7.989 5.188,-17.322 14.603,-11.548Z" style="fill:#acef82;"/><path d="M871.557,346.543c0.625,0.027 1.25,0.055 1.875,0.082c0.267,0.345 0.534,0.69 0.801,1.034c-0.121,0.906 -7.077,24.023 -7.764,30.372c-2.488,0.004 -2.497,0.105 -2.687,0.004c-1.652,-0.873 3.028,-19.205 7.775,-31.492Z" style="fill:#915f42;"/><path d="M193.171,552.323l1.779,1.177l-0.527,1c-1.563,2.607 -1.023,9.108 -7.923,8.015l-0.542,-0.015c-0.086,-0.086 -0.481,-0.873 -1.659,-1.655c-0.982,-0.652 -1.142,0.563 -2.103,-0.034c-0.688,-0.428 -0.021,-0.799 -0.622,-1.344c-0.187,-0.169 -1.528,-1.386 -1.382,-2.834c0.172,-1.72 0.251,-1.696 -0.424,-3.295c11.936,-0.361 12.422,-0.577 13.404,-1.014Z" style="fill:#a4311f;"/><path d="M856.511,545.384c-5.082,-0.968 -6.112,-1.751 -4.741,-6.802c1.316,-4.848 12.968,-5.217 12.065,0.924c-0.95,6.461 -3.543,5.839 -7.324,5.878Z" style="fill:#fdc779;"/><path d="M917.492,357.477c2.025,1.446 0.845,3.108 -1.167,11.997c-0.315,1.392 -2.635,11.642 -4.547,17.245c-0.201,0.589 -0.708,0.185 -0.759,0.782c-0.018,0.212 0.105,0.163 1.448,2.238c-0.119,-0.033 -0.687,-0.555 -1.96,-0.546c-3.246,0.024 -2.385,-1.45 -1.644,-4.62c5.816,-24.853 6.851,-25.677 8.63,-27.095Z" style="fill:#915e41;"/><path d="M285.065,611.346c0.065,-0.065 0.344,-1.634 2.437,-1.525c17.529,0.91 18.977,1.541 20.489,2.199l-1.491,1.251l-1,-0.016l-0.725,0.245l0.489,1l0.691,1c-4.447,2.41 -5.033,-1.348 -9.626,0.565c-7.013,-0.052 -8.182,-0.272 -9.642,-2.565l-0.441,-1l-1.181,-1.154Z" style="fill:#a5daf3;"/><path d="M794.302,450.679c-0.1,0.378 -0.067,0.342 -1.045,4.773c-1.021,3.398 -1.622,8.921 -6.101,12.342c-2.005,-4.593 -2.495,-4.708 -0.974,-9.407c1.665,-5.144 1.121,-15.147 8.12,-7.708Z" style="fill:#f88885;"/><path d="M820.747,378.338c-0.224,-2.498 0.232,-3.095 2.708,-2.62c13.222,2.537 13.058,2.996 26.113,6.413c2.741,0.717 2.827,1.191 2.442,3.014c-2.549,0.232 -4.05,0.368 -31.263,-6.807Z" style="fill:#a47254;"/><path d="M347.473,480.417c1.524,1.055 1.446,1.033 3.076,2.037c1.625,1.679 19.843,12.197 18.336,15.046c-0.339,0.641 -1.283,0.807 -1.622,1.448c-0.739,-0.724 -1.017,-0.368 -9.597,-8.67c-4.19,-4.055 -12.009,1.375 -12.396,-7.872c-0.071,-1.703 0.678,-1.231 2.202,-1.988Z" style="fill:#e86e88;"/><path d="M244.162,454.57c-1.265,-5.841 -1.866,-5.833 -1.129,-7.336c2.303,-4.697 12.115,10.248 6.282,17.11c-4.078,4.797 -4.452,-4.446 -5.153,-9.774Z" style="fill:#f4c26e;"/><path d="M484.772,184.109l-1.766,1.391c2.032,5.008 0.417,5.035 0.24,6.009c-1.522,8.362 -4.981,-1.395 -6.714,-1.125c-1.964,0.307 -2.013,0.517 -2.502,0.116c-0.918,-0.753 -2.103,-1.215 -2.845,-2.142c-0.192,-0.239 0.714,-0.518 0.522,-0.757c5.891,-8.261 10.845,-4.654 13.065,-3.492Z" style="fill:#fe8f8d;"/><path d="M868.495,513.241c-6.638,-0.479 -8.949,-0.11 -8.249,-3.775c3.313,-17.334 4.859,-17.351 6.262,-16.991c4.085,1.048 -5.213,15.336 -0.097,16.447c5.733,1.246 2.435,3.368 2.084,4.319Z" style="fill:#a6321c;"/><path d="M260.429,653.52c-0.215,-3.343 -0.273,-4.407 3.112,-4.28c8.892,0.333 9.445,10.219 3.942,11.178c-5.93,1.033 -5.684,-1.071 -7.054,-6.898Z" style="fill:#80b2d0;"/><path d="M574.605,182.763c-6.07,5.182 -5.908,9.553 -10.148,5.79c-3.404,-3.021 -6.341,-3.353 -6.957,-3.422l-1,-0.015l-1,-0.037l-1,0.056l-1,-0.059l-1,0.204l-1,0.109l-1,0.16l-1,0.075c-0.654,-0.561 -1.308,-1.122 -1.962,-1.683c18.45,-1.072 23.923,-2.288 25.962,-2.741l1.105,1.562Z" style="fill:#d49239;"/><path d="M889.486,495.857c5.765,0.565 6.543,-0.439 7.104,1.587c0.88,3.174 -3.318,2.521 -3.682,4.187c-0.546,2.498 -0.916,16.725 -4.369,13.816c-1.868,-1.573 2.675,-13.972 -0.865,-16.239c-2.66,-1.703 -1.319,-3.153 1.812,-3.352Z" style="fill:#9b341a;"/><path d="M238.482,432.365c1.876,-0.037 1.865,-0.056 2.026,-0.04c10.33,0.994 9.896,-1.504 12.34,-5.609c3.302,-5.545 3.315,13.003 -7.363,10.876c-8.243,-1.642 -8.781,-1.955 -8.711,-4.01c0.839,-0.778 0.765,-0.724 0.839,-0.778c0.437,-0.322 0.445,-0.127 0.868,-0.438Z" style="fill:#f4ab6e;"/><path d="M640.355,722.555c2.883,9.565 3.028,9.402 5.866,19.022c0.988,3.349 -1.495,3.448 -1.986,2.135c-0.808,-2.158 -9.47,-25.288 -9.561,-27.167c-0.383,-7.919 5.418,5.403 5.682,6.01Z" style="fill:#f17592;"/><path d="M502.481,182.667c17.554,-0.081 17.46,0.836 23.029,1.969c-1.975,2.453 -4.563,2.836 -6.969,4.91c-4.597,3.964 -6.533,-5.602 -14.041,-5.453l-1,-0.234l-1.019,-1.193Z" style="fill:#d2922f;"/><path d="M164.819,468.752c0.031,0.276 -0.698,0.221 -0.667,0.497c0.024,0.216 0.091,0.18 1.227,2.424c-8.535,0.943 -22.421,3.399 -19.838,-2.149c1.5,-3.222 7.351,-1.225 7.959,-1.017c3.258,1.112 3.35,-0.079 11.32,0.245Z" style="fill:#ad3d55;"/><path d="M118.937,478.388c1.572,5.211 1.549,5.128 3.95,10.003c-9.643,6.433 -11.065,7.031 -12.114,7.472c0.106,-0.604 -0.38,-1.215 -0.274,-1.819c0.268,-1.519 2.179,-0.442 5.505,-8.79c0.189,-0.536 0.153,-0.51 0.835,-3.754l0.157,-1l0.283,-1l1.657,-1.112Z" style="fill:#d79a69;"/><path d="M485.368,179.926c7.475,-0.559 15.042,1.892 15.095,1.899c1.099,0.132 0.909,0.38 2.017,0.842c-5.609,2.928 -5.582,2.888 -10.21,7.111c-2.855,-5.644 -3.492,-5.162 -6.903,-9.852Z" style="fill:#d38e35;"/><path d="M547.538,183.942c0.654,0.561 1.308,1.122 1.962,1.683c-0.608,0.411 -1.446,0.379 -2.054,0.79c-2.915,1.971 -5.35,7.515 -7.775,4.908c-2.882,-3.097 -2.882,-2.955 -6.278,-5.404c1.164,-0.962 0.847,-1.725 4.108,-1.939c0.243,-0.016 0.238,-0.01 10.038,-0.038Z" style="fill:#d29a33;"/><path d="M146.46,683.657c0.963,-2.21 0.874,-2.261 1.04,-2.387c0.442,-0.335 20.289,-1.661 20.789,-1.351c1.507,0.932 0.762,5.809 -21.828,3.738Z" style="fill:#fdf5af;"/><path d="M93.202,509.142c0.323,0.592 1.178,0.766 1.501,1.358c0.044,0.08 -0.433,1.706 -0.564,1.861c-1.706,2.02 -1.714,2.009 -1.784,2.139c-1.233,7.48 -4.712,6.434 -5.109,13.996c-0.022,0.42 -0.151,2.876 -4.255,3.094c0.442,-1.923 3.511,-15.279 10.211,-22.448Z" style="fill:#f8d8ab;"/><path d="M181.553,660.53c0.168,-0.082 0.161,0.091 2.312,-0.327c0.953,7.778 -1.659,7.04 -7.206,12.464c-2.082,2.035 -1.91,2.107 -4.16,3.832c-1.816,-0.378 -2.83,-0.377 -1.879,-1.968c2.399,-4.01 4.126,-5.018 4.611,-5.301c4.24,-2.474 4.48,-2.524 6.321,-8.7Z" style="fill:#fdea83;"/><path d="M823.491,493.497c1.007,-2.105 0.89,-2.127 1.4,-2.639c4.932,-4.951 3.625,11.027 0.727,12.778c-5.682,3.433 -2.337,-9.337 -2.127,-10.139Z" style="fill:#f7d04b;"/><path d="M593.121,177.362c-1.733,5.471 -0.459,5.777 -2.848,10.922l-1.675,-0.929c-1.789,-1.864 -1.434,-2.347 -3.969,-3.015c-0.339,-0.374 0.055,-0.94 -4.125,-2.624c0.464,-0.364 0.532,-1.098 0.996,-1.462c0.871,-0.683 6.273,0.135 11.621,-2.893Z" style="fill:#cd813b;"/><path d="M61.345,469.569c-1.024,-5.95 1.814,-4.917 6.226,-9.024c0.676,-0.63 8.617,-8.021 10.477,-4.863c1.676,2.847 -8.568,2.338 -13.746,12.675c-0.993,1.982 -1.273,1.666 -1.753,2.296c-0.401,-0.361 -0.803,-0.722 -1.204,-1.083Z" style="fill:#926346;"/><path d="M849.479,504.499c0.13,-0.76 1.443,-8.444 2.899,-9.194c5.336,-2.751 2.055,8.399 1.845,9.112c-0.933,3.17 -4.102,5.466 -4.744,0.082Z" style="fill:#f9d844;"/><path d="M293.942,558.341c1.648,-17.459 -0.166,-24.137 2.317,-20.611c2.103,2.986 1.802,21.092 -1.746,20.746c-0.195,-0.019 -0.377,-0.116 -0.572,-0.135Z" style="fill:#d5967c;"/><path d="M193.171,552.323c-0.982,0.437 -1.468,0.654 -13.404,1.014c-0.092,-0.85 -0.631,-5.857 9.796,-4.26c4.975,0.762 3.623,3.026 3.608,3.246Z" style="fill:#f78655;"/><path d="M475.556,176.261c2.101,0.81 1.994,0.824 3.993,1.818c-1.436,0.99 -1.17,1.243 -2.772,1.912c-4.458,1.861 -3.662,2.921 -7.554,5.851c-0.058,-0.284 -0.364,-0.218 -1.094,-6.333c2.329,-1.446 2.355,-1.179 3.402,-1.167c2.404,0.028 2.262,-0.362 4.025,-2.082Z" style="fill:#e08734;"/><path d="M420.42,475.833c0.246,-0.024 0.191,0.09 3.08,0.225l1.468,-0.991c5.327,5.745 4.84,6.779 2.778,10.55l-1.676,-1.117l0.559,-1c-0.321,-0.376 0.192,-1.102 -0.129,-1.478c-0.467,-0.546 -3.567,-0.319 -6.08,-6.189Z" style="fill:#f389a3;"/><path d="M183.451,421.548c5.104,6.564 -6.102,8.774 -4.704,4.029c1.117,-3.79 1.119,-8.107 4.704,-4.029Z" style="fill:#f7c190;"/><path d="M543.988,202.395c5.186,5.894 5.805,6.141 13.424,5.782l-0.912,1.516l-1,0.513l-1,-0.043l-1,0.033c-6.97,-1.406 -7.335,-1.192 -11.927,-6.541c0.805,-0.421 1.61,-0.841 2.415,-1.262Z" style="fill:#c4a42c;"/><path d="M532.023,198.217c-3.075,3.522 -3.138,-1.049 -4.825,-1.401c-2.388,-0.498 -3.876,2.221 -3.909,-0.282c-0.006,-0.459 1.789,-5.719 6.051,-2.644c2.276,1.642 2.954,1.493 2.683,4.327Z" style="fill:#fe8a94;"/><path d="M134.222,537.531c0.331,-4.058 1.866,-4.327 5.399,-2.211c4.465,2.674 -3.306,9.539 -5.399,2.211Z" style="fill:#fefdfd;"/><path d="M102.531,446.933c-0.344,0.635 -0.687,1.271 -1.031,1.906c-1.543,0.355 -1.69,-0.007 -2.797,1.12c-1.254,1.277 -1.504,0.714 -5.309,1.307c-0.965,-0.265 -1.931,-0.529 -2.896,-0.794l1.002,-1.143c1.891,-0.853 1.469,-1.324 3.183,-2.526c1.236,-0.867 7.227,0.036 7.848,0.13Z" style="fill:#fbd09c;"/><path d="M654.491,575.493c0.128,0.277 -0.474,0.57 -0.346,0.847c0.054,0.117 2.682,1.552 2.384,6.129c-0.637,-0.184 -9.87,-2.848 -6.382,-5.278c1.941,-1.352 2.017,-1.037 4.343,-1.699Z" style="fill:#c85a71;"/><path d="M99.364,478.314c-0.369,1.373 0.39,3.852 -6.517,6.677c-0.484,-0.552 -3.156,-0.94 -0.995,-3.422c0.787,-0.52 1.75,-2.428 7.511,-3.254Z" style="fill:#fcdba2;"/><path d="M233.538,531.462c4.84,5.349 -4.496,7.087 -4.779,2.022c-0.076,-1.368 1.019,-2.748 1.741,-2.986c1.712,-0.565 1.652,-0.113 3.038,0.963Z" style="fill:#fdfdfd;"/><path d="M256.155,598.074c-4.836,2.435 -11.027,0.014 -6.421,-2.226c4.109,-1.999 5.822,-2.303 6.421,2.226Z" style="fill:#dd9333;"/><path d="M64.424,452.259c1.041,-0.05 2.082,-0.101 3.123,-0.151c2.297,0.678 2.486,0.42 3.753,2.421l-0.748,1.005c-2.366,1.138 -2.385,1.196 -4.968,0.67c-0.121,-0.108 -0.175,-0.277 -0.296,-0.385c-0.129,-0.115 -0.124,-0.102 -1.671,-1.379c-0.049,-0.535 -0.29,-0.401 -0.338,-0.917c-0.144,-1.562 0.808,-0.893 1.145,-1.264Z" style="fill:#371a16;"/><path d="M81.518,482.496c1.331,1.329 2.663,2.658 3.994,3.987c-1.078,0.96 -1.655,0.48 -2.343,2.826c-2.646,9.016 -3.071,-5.517 -3.157,-5.809l1.506,-1.004Z" style="fill:#685056;"/><path d="M566.106,197.522c0.7,1.808 0.082,2.152 2.498,4.521c-2.387,2.645 -5.235,7.532 -7.104,6.493c-0.534,-0.297 -0.689,-1.069 -1.223,-1.365c4.06,-2.87 4.829,-3.364 5.829,-9.649Z" style="fill:#b98828;"/><path d="M223.446,587.401c0.056,0.143 0.7,1.791 0.7,1.791c-0.257,0.168 -0.698,-0.215 -0.921,-0.004c-0,0 -0.703,1.173 -0.764,1.275c-0.367,0.3 -0.734,0.601 -1.101,0.901c-0.143,0.1 -1.611,1.123 -1.85,1.144c-1.406,0.122 -1.168,0.537 -1.163,1.992l0.172,0.917c-0.397,-0.095 -0.352,-0.046 -5.017,-0.905c4.581,-4.157 4.827,-3.678 9.945,-7.111Z" style="fill:#c28c6c;"/><path d="M294.503,520.533l0.883,0.049c0.141,0.701 1.466,7.267 1.033,8.88c-1.654,6.152 -3.669,-9.709 -2.594,-9.74c0.352,-0.01 0.326,0.82 0.678,0.81Z" style="fill:#bb8a6e;"/><path d="M468.253,174.704c1.42,0.222 2.841,0.444 4.261,0.666l3.043,0.89c-1.763,1.72 -1.621,2.11 -4.025,2.082c-1.047,-0.012 -1.074,-0.279 -3.402,1.167c-0.024,-0.384 -0.196,-3.066 0.124,-4.805Z" style="fill:#c88839;"/><path d="M174.393,456.327l0.979,1.173l0.147,1c2.749,1.863 1.277,9.094 -1.758,3.747c-0.071,-0.126 -0.587,-1.034 -0.466,-1.747c0.062,-0.364 0.632,-0.666 0.476,-1c-0.28,-0.598 -1.252,-0.658 -1.531,-1.256c0.717,-0.639 1.435,-1.278 2.152,-1.917Z" style="fill:#fb7da4;"/><path d="M63.617,454.44c1.547,1.277 1.542,1.264 1.671,1.379c0.121,0.108 0.175,0.277 0.296,0.385c-0.983,1.543 -0.705,1.865 -3.258,2.895c-0.294,0.118 -3.304,1.333 -3.782,1.165c-4.144,-1.453 2.528,-1.924 5.073,-5.824Z" style="fill:#b37b4f;"/><path d="M66.425,473.71c-0.457,3.413 -1.107,3.101 -3.176,6.379c-0.612,-0.194 -1.224,-0.388 -1.836,-0.582c2.677,-6.209 3.541,-5.647 5.012,-5.796Z" style="fill:#e2ad7a;"/><path d="M185.508,462.485c0.199,1.388 0.31,1.342 -0.09,2.756c-3.527,-0.013 -3.517,0.073 -3.809,-0.014c-0.366,-0.109 -2.796,-3.937 3.9,-2.742Z" style="fill:#fca1b7;"/><path d="M942.905,404.893c3.045,-1.172 3.789,-0.029 4.19,3.433c-0.346,0.127 -0.332,-0.1 -0.701,0.035c-0.132,0.048 -0.116,0.059 -1.569,0.794c-1.051,-1.057 -1.002,-1.011 -2.086,-2.029c-0.009,-1.17 0.225,-1.081 0.166,-2.233Z" style="fill:#966042;"/><path d="M880.195,500.79c1.694,7.237 -2.807,5.859 -2.953,4.771c-0.06,-0.445 -0.573,-4.256 2.953,-4.771Z" style="fill:#f5ba60;"/><path d="M273.933,578.865c-4.303,2.864 -2.56,-1.18 -2.44,-1.369c1.848,-2.917 4.085,-3.133 3.447,-1.084c-0.41,1.317 -0.306,1.287 -1.007,2.453Z" style="fill:#8f5935;"/><path d="M78.547,514.858c-6.556,-1.544 -5.856,-3.141 -5.397,-3.358c0.897,-0.423 3.011,0.354 3.258,0.445c1.929,0.709 1.983,0.865 2.138,2.913Z" style="fill:#ebb27c;"/><path d="M185.508,462.485c0.363,0.006 4.243,0.072 4.529,0.215c0.377,0.189 1.766,2.821 -4.619,2.541c0.4,-1.413 0.289,-1.368 0.09,-2.756Z" style="fill:#f97c9a;"/><path d="M105.399,448.675c1.266,1.812 1.563,1.631 1.943,3.817c-2.499,-0.103 -3.191,0.505 -3.896,-1.987c-0.451,-1.595 0.353,-1.272 1.954,-1.829Z" style="fill:#d49d71;"/><path d="M65.671,491.7c0.721,1.654 0.746,1.634 0.778,1.786c0.414,1.993 -0.84,6.477 -2.481,1.905c-0.785,-2.188 0.025,-2.123 1.702,-3.691Z" style="fill:#d7a06c;"/><path d="M233.119,430.319c2.814,-1.838 2.881,-0.298 5.363,2.046c-0.423,0.311 -0.431,0.116 -0.868,0.438c-0.074,0.054 0,0 -0.839,0.778c-0.726,-0.451 -1.453,-0.901 -2.179,-1.352c-0.492,-0.637 -0.985,-1.274 -1.477,-1.91Z" style="fill:#9e623c;"/><path d="M292.55,570.79c-2.788,-3.526 0.215,-5.469 0.817,-5.055c2.676,1.838 -0.516,4.778 -0.817,5.055Z" style="fill:#623e2c;"/><path d="M139.47,442.173c2.112,-0.166 2.116,-0.601 4.03,0.17c0.363,0.04 0.646,-0.468 1.009,-0.428c0.928,0.102 1.099,2.889 1.115,3.156c-2.893,-0.763 -2.876,-0.752 -3.124,-0.824c-0.584,-0.169 -0.436,-0.27 -1,-0.433c-0.677,-0.547 -1.354,-1.094 -2.03,-1.641Z" style="fill:#fb7a9b;"/><path d="M187.384,569.398c0.362,0.065 3.022,0.539 2.096,4.094c-0.093,0.356 -2.94,1.72 -2.096,-4.094Z" style="fill:#756b68;"/><path d="M227.668,430.289c2.594,0.37 2.506,0.484 5.052,0.355c-2.029,2.38 -1.963,2.352 -2.142,2.55c-2.089,-0.6 -1.97,-0.635 -4.121,-1.021c1.881,-0.904 1.191,-1.846 1.21,-1.884Z" style="fill:#6a3e2e;"/><path d="M64.424,452.259c-0.337,0.372 -1.288,-0.298 -1.145,1.264c0.047,0.516 0.288,0.382 0.338,0.917c-2.885,-1.473 -2.961,-1.302 -3.25,-1.851c-2.263,-4.291 3.782,-0.504 4.057,-0.331Z" style="fill:#997960;"/><path d="M503.516,198.468c-1.171,-1.428 -1.617,-2.016 0.09,-2.762c1.341,-0.586 4.775,2.618 -0.09,2.762Z" style="fill:#fdf488;"/><path d="M226.617,425.109c-1.091,-1.312 -2.112,-1.382 -0.993,-2.455c1.648,-1.579 5.266,2.86 0.993,2.455Z" style="fill:#aa6444;"/><path d="M357.529,573.485c0.335,0.318 2.044,1.943 3.838,4.321c-1.348,0.974 -1.481,0.638 -1.58,0.736c-2.829,-2.922 -2.776,-2.884 -3.229,-3.312c0.324,-0.582 0.648,-1.163 0.972,-1.745Z" style="fill:#866963;"/><path d="M85.93,454.841c2.552,2.665 2.66,2.677 2.57,2.979c-0.744,2.523 -1.587,0.649 -4.021,-0.452c0.672,-1.355 0.8,-1.186 1.451,-2.527Z" style="fill:#f6c38e;"/><path d="M348.571,478.619c2.294,0.932 2.027,1.36 1.979,3.835c-1.63,-1.004 -1.553,-0.982 -3.076,-2.037l1.098,-1.798Z" style="fill:#f17892;"/><path d="M232.72,430.644l0.399,-0.325c0.492,0.637 0.985,1.274 1.477,1.91c-1.838,1.066 -1.84,1.004 -4.018,0.964c0.179,-0.197 0.113,-0.17 2.142,-2.55Z" style="fill:#70412a;"/><path d="M61.131,501.791c-0.297,-1.342 -0.783,-1.545 0.369,-2.291c1.418,-0.919 3.192,3.913 -0.369,2.291Z" style="fill:#e3ac78;"/><path d="M61.413,479.506c0.612,0.194 1.224,0.388 1.836,0.582c-0.218,0.751 -0.711,0.311 -0.916,1.018c-0.238,0.821 0.493,0.744 0.168,1.563c-0.172,0.432 -0.656,0.864 -1.119,0.831c-1.703,-0.124 -0.099,-3.702 0.032,-3.994Z" style="fill:#f8c994;"/><path d="M357.529,573.485c-0.324,0.582 -0.648,1.163 -0.972,1.745c-1.488,-0.948 -2.121,-0.679 -1.744,-1.693c0.644,-1.735 1.287,-1.223 2.716,-0.051Z" style="fill:#d3c4c0;"/><path d="M61.345,469.569c0.401,0.361 0.803,0.722 1.204,1.083c-0.052,0.087 -0.174,0.901 -1.073,1.796c-1.237,1.232 -2.056,0.014 -2.146,0.015c1.82,-2.697 1.862,-2.657 2.015,-2.893Z" style="fill:#ecc190;"/><path d="M262.432,384.541c-1.656,-1.037 -1.232,-1.358 -1.058,-3.041l1.126,0.565l1,1.33l-1.068,1.145Z" style="fill:#fedba9;"/><path d="M584.628,184.34c2.536,0.668 2.18,1.151 3.969,3.015l-0.938,-0.022c-1.845,-1.209 -1.71,-1.295 -3.032,-2.993Z" style="fill:#8c6134;"/><path d="M581.644,204.892c-3.568,0.832 -3.503,0.715 -7.127,0.553c0.38,-0.136 0.318,-0.713 7.127,-0.553Z" style="fill:#858024;"/><path d="M827.546,331.67c-0.306,0.607 -0.612,1.214 -0.918,1.821c-0.121,-0.159 -7.356,-10.547 -0.07,-2.496c0.267,0.296 0.721,0.378 0.988,0.674Z" style="fill:#9c6c52;"/><path d="M311.244,529.105c-0.167,0.502 -0.335,1.003 -0.502,1.505c-0.092,0.631 -0.184,1.261 -0.276,1.892c-0.204,-0.31 -2.48,-0.898 -0.602,-2.52c0.641,-0.554 0.66,-0.419 1.38,-0.876Z" style="fill:#f1a927;"/><path d="M637.437,734.489c-0.531,1.796 1.058,3.333 -0.831,2.813c-0,0 -0.862,-1.82 -0.937,-1.978c0.589,-0.278 1.179,-0.557 1.768,-0.835Z" style="fill:#f07b95;"/><path d="M310.742,530.61c0.298,2.914 0.307,2.807 0.147,5.783c-0.141,-1.297 -0.282,-2.595 -0.423,-3.892c0.092,-0.631 0.184,-1.261 0.276,-1.892Z" style="fill:#f4ba37;"/><path d="M815.439,437.519c-0.111,-0.458 -0.909,-0.521 -1.021,-0.979c-0.267,-1.097 2.156,-1.158 2.124,-0.043c-0.014,0.501 -1.088,0.521 -1.103,1.022Z" style="fill:#d9baba;"/><path d="M587.66,187.334l0.938,0.022l1.675,0.929c-0.065,0.051 0.357,1.044 -0.773,0.609c-1.221,-0.47 -0.895,-0.759 -1.84,-1.56Z" style="fill:#94643d;"/><path d="M358.433,535.886c-3.349,1.83 -2.56,2.64 -2.867,2.719c-0.494,0.127 -0.556,-1.238 -1.049,-1.112c1.902,-1.105 1.824,-1.118 3.916,-1.607Z" style="fill:#fed34f;"/><path d="M354.833,325.397c-0.272,1.58 -0.244,2.74 -1.333,1.635c-0.937,-0.951 0.475,-0.583 1.333,-1.635Z" style="fill:#d1733f;"/><path d="M950.105,366.826c0.663,-0.136 1.327,-0.272 1.99,-0.408c-0.288,0.656 -0.577,1.311 -0.865,1.967c-0.375,-0.52 -0.75,-1.039 -1.125,-1.559Z" style="fill:#724531;"/><path d="M871.557,346.543c0.247,-1.704 0.149,-1.749 0.267,-1.841c0,0 1.479,1.769 1.608,1.923c-0.625,-0.027 -1.25,-0.055 -1.875,-0.082Z" style="fill:#80523c;"/><path d="M222.56,497.096c0.647,0.427 1.293,0.853 1.94,1.28l-1,-0.056l-0.94,-1.224Z" style="fill:#f5c48e;"/><path d="M842.5,433.008c1.258,-0.265 1.607,-1.683 1.936,-0.409c0.33,1.277 -0.631,0.133 -1.936,0.409Z" style="fill:#fbefed;"/><path d="M285.866,454.5l-1.784,-1l0.418,-0.757l0.546,0.757l0.82,1Z" style="fill:#fdd4a2;"/></g></svg>