<svg xmlns="http://www.w3.org/2000/svg" width="256" height="256" viewBox="0 0 256 256"><?xml version="1.0" encoding="UTF-8" standalone="no"?><!DOCTYPE svg PUBLIC "-//W3C//DTD SVG 1.1//EN" "http://www.w3.org/Graphics/SVG/1.1/DTD/svg11.dtd"><svg width="100%" height="100%" viewBox="0 0 1024 1024" version="1.1" xmlns="http://www.w3.org/2000/svg" xmlns:xlink="http://www.w3.org/1999/xlink" xml:space="preserve" xmlns:serif="http://www.serif.com/" style="fill-rule:evenodd;clip-rule:evenodd;stroke-linejoin:round;stroke-miterlimit:2;"><g id="Background"><path d="M0,0l1023.999,0c1.157,2.148 0,2.338 0,30.5l0,993.499c-2.148,1.157 -2.338,0 -30.499,0l-993.5,-0c-1.027,-1.907 0,-4.333 0,-6.499l0,-1017.5Z" style="fill:#fefefe;"/><path d="M661.554,360.654c-23.309,7.708 -57.696,17.591 -58.84,18.25c-2.819,1.625 -5.852,62.127 -8.921,65.813c-4.383,5.263 -9.856,-5.124 -11.732,-7.946c-1.496,-2.25 -18.585,-27.963 -18.722,-28.108c-0.608,-0.648 -2.105,-1.158 -6.432,9.05c-30.652,72.311 -108.801,248.64 -108.578,248.877c0.865,0.917 32.539,-20.027 68.181,-20.599c73.343,-1.177 55.957,81.61 14.837,98.132c-44.404,17.842 -80.54,-26.291 -81.504,-26.918c-0.303,-0.324 -0.605,-0.648 -0.908,-0.972c-0.071,-0.166 -0.626,-0.124 -0.772,-3.557c3.962,2.427 3.56,2.781 8.468,7.678c48.305,48.194 91.897,13.512 91.218,7.242c-0.182,-1.676 2.655,-9.755 0.116,-19.238c-0.991,-3.701 -5.635,-15.523 -6.373,-9.831c-0.199,1.536 -5.342,8.893 -11.21,12.697c-37.763,24.481 -84.978,-20.579 -88.944,-23.755c0.884,-1.648 0.787,-1.621 1.879,-3.042c0.712,0.053 0.65,0.906 2.192,0.162c4.993,-2.411 84.803,-26.255 103.157,17.849c4.077,9.797 3.137,16.43 1.801,23.075c0.511,-0.446 3.958,-1.569 10.371,-18.871c15.562,-41.986 -18.204,-79.978 -99.218,-43.718c-4.789,2.144 -9.349,5.361 -13.122,6.574c-2.823,0.907 -2.877,1.212 -3.228,4.082l-0.845,-1.044c-0.395,-0.613 -0.79,-1.227 -1.184,-1.84l-0.13,-0.773c0.424,-0.557 1.618,0.068 2.043,-0.489c0.589,-0.773 0.256,-1.934 0.518,-2.87c1.125,-4.024 2.22,-5.771 2.505,-6.226c2.905,-4.634 2.269,-4.826 4.383,-9.802c1.295,-3.61 1.32,-3.507 2.992,-7.014c1.926,-4.051 2.066,-5.354 10.85,-25.053c1.367,-3.343 1.125,-3.353 2.387,-6.815c0.121,-0.24 1.107,-1.763 3.321,-7.28c4.985,-12.423 -0.287,-46.756 -0.408,-48.97c-1.119,-20.388 9.218,-28.798 11.823,-29.631c2.036,-0.651 2.021,-0.724 2.869,-2.664c2.523,-0.458 2.47,-0.318 4.956,0.08c2.927,0.206 7.207,0.547 9.44,7.262c-2.243,3.541 -1.435,3.777 -0.703,7.906c2.199,-0.691 2.233,-0.908 2.88,-3.851c1.194,-1.269 1.164,-1.263 1.654,-2.922c1.75,-4.683 4.674,-11.009 5.11,-11.953c1.227,-2.629 11.507,-24.659 14.823,-33.1c5.513,-13.642 17.444,-40.845 17.944,-42.031c1.911,-4.597 1.921,-4.513 4.042,-8.974c4.902,-12.301 7.606,-16.952 5.964,-16.817c-0.474,0.039 -13.731,5.71 -19.725,-6.464c-1.96,-2.776 -1.501,-7.107 -2.629,-3.832c-0.371,1.078 -1.423,4.13 -5.763,13.036c-1.063,2.724 -1.55,2.729 -1.813,2.732c-0.422,0.004 -0.654,-0.673 -1.076,-0.669l-0.624,-0.842c0.881,-1.921 7.039,-15.345 10.836,-24.101c1.293,-2.982 -2.438,-1.597 -13.233,0.846c-13.206,2.989 -40.416,11.468 -33.529,0.315c2.829,-4.582 33.249,-42.849 36.184,-46.541c5.277,-6.638 1.77,-7.382 -2.209,-14.915c-24.027,-45.478 -27.67,-47.56 -22.339,-50.595c5.224,-2.974 56.318,22.04 60.896,21.695c1.823,-0.137 39.761,-39.272 43.144,-42.761c1.76,-1.816 5.192,-2.474 6.506,-0.809c1.072,1.358 -0.506,37.084 0.038,60.692c0.048,2.067 0.723,2.224 28.463,13.666c24.344,10.041 40.604,14.12 25.922,20.49Z" style="fill:#d5a075;"/><path d="M409.391,690.676c0.708,-0.069 1.415,-0.139 2.123,-0.208c17.754,10.599 19.843,7.423 25.831,0.937c0.165,0.72 0.329,1.44 0.494,2.159c0.297,0.928 0.595,1.857 0.892,2.785c-0.058,0.704 -0.115,1.407 -0.173,2.111c1.122,1.723 1.002,1.723 2.093,2.972c0.327,0.425 0.466,0.606 2.805,6.09c1.212,1.346 0.788,1.517 1.767,3.05c0.274,1.619 0.283,1.541 0.923,3.059c0.43,3.051 0.271,2.997 1.048,5.958c5.661,21.599 4.399,33.703 2.969,58.891c-4.599,80.996 55.067,89.883 59.254,94.956c-15.479,5.073 -15.686,4.305 -17.026,4.757c-7.25,2.445 4.023,19.745 3.221,21.347c-1.312,2.618 -61.968,-20.244 -65.641,-86.066c-1.787,-32.017 14.043,-91.033 -0.406,-109c-0.215,-0.384 -0.429,-0.768 -0.644,-1.152c-1.931,-4.962 -3.827,-3.394 -9.312,-6.04c-6.385,-3.08 -8.302,-4.763 -8.9,-5.04c-0.126,-0.104 0.015,-0.192 -1.317,-1.567Z" style="fill:#c8e8d8;"/><path d="M600.284,271.36c5.035,-7.748 4.303,0.796 4.272,1.149c-2.692,3.782 -1.987,4.057 -6.153,12.938c-1.612,3.798 -1.628,3.763 -1.741,4.101c-3.622,10.852 -24.676,55.921 -23.086,57.887c1.328,1.642 4.675,-1.51 5.008,-1.708c12.777,-7.633 12.887,-7.427 13.939,-8.179c6.092,-4.352 6.634,-3.386 12.741,-7.771c6.417,4.47 8.93,3.839 52.306,22.421c0.164,0.07 0.154,0.06 2.082,0.81c-3.272,1.758 -3.428,0.515 -7.153,0.501c-0.328,-0.001 -66.596,-4.184 -67.843,-4.462c-3.199,-0.714 -2.916,-1.344 -3.191,-1.384c-2.207,-0.32 0.034,2.304 0.041,4.674c-0.614,-0.075 -12.967,-1.586 -7.359,2.384c9.47,6.703 16.808,16.231 25.766,22.882c-2.471,6.845 -4.918,48.199 -7.495,58.894c-0.448,2.85 0.635,2.919 -0.383,5.684c-0.108,0.293 -0.866,1.915 -3.513,-1.692c0.35,-5.064 -11.745,-48.657 -13.387,-58.94c-1.026,-6.428 -4.425,-18.384 -4.875,-19.966c-1.473,-5.18 -1.455,-10.083 -6.947,-5.35c-0.588,0.507 -5.519,2.438 -14.916,9.067c-0.146,0.103 -0.146,0.077 -1.974,1.043c-51.497,32.566 -51.453,32.626 -53.206,33.788c-3.292,4.402 -7.737,2.85 -5.277,-0.181c0.323,-0.398 0.37,-0.34 4.197,-4.843c0.598,0.093 0.766,1.104 1.364,1.198c1.028,0.161 54.433,-34.625 59.134,-37.686c5.611,-3.655 7.569,-3.83 5.44,-7.119l-0.595,-1.443c0.501,0.039 9.087,0.716 5.814,-2.394c-9.052,-8.601 -15.42,-12.437 -62.068,-52.867c-0.283,-0.245 -2.597,-1.13 -2.827,-1.217c-0.79,-1.778 -1.444,-1.753 -0.66,-2.916c0.6,-0.89 4.264,0.171 4.619,0.274c15.017,5.089 48.61,19.732 55.17,21.46c5.08,13.815 8.827,40.276 12.473,31.73c25.815,-60.507 27.374,-63.524 30.136,-68.866c0.956,-1.849 0.518,-1.897 0.147,-3.901Z" style="fill:#f8edcc;"/><path d="M403.96,686.229c0.654,1.192 1.413,2.088 1.554,2.256c1.391,1.23 1.58,0.862 2.976,2.027c-0.16,0.964 0.297,1.017 -0.304,1.828c-0.262,0.353 -1.742,1.793 -1.898,1.944c-1.066,0.975 -1.021,0.933 -2.009,1.921c-1.298,1.275 -1.432,1.018 -2.791,2.282c-0.363,0.29 -0.726,0.58 -1.089,0.87c-1.137,0.913 -1.078,0.865 -2.159,1.762c-0.519,0.273 -0.476,0.288 -6.166,3.961c-10.276,3.623 -12.169,10.537 -53.69,16.931c-12.86,1.98 -56.539,5.42 -63.614,52.558c-2.668,17.775 3.692,31.435 4.848,33.92c-0.859,-0.041 -1.196,0.68 -6.812,-3.345c-7.415,-5.315 -9.809,-10.574 -14.033,-2.494c-4.954,9.479 -5.703,12.991 -6.908,9.701c-6.787,-18.529 -18.304,-85.681 72.717,-103.425c31.032,-6.05 49.852,-5.414 72.169,-20.052c3.651,-2.395 6.593,-2.601 7.205,-2.644Z" style="fill:#eebec5;"/><path d="M414.422,657.52c0.385,0.603 0.344,0.541 0.756,1.185c1.038,1.623 1.514,0.501 2.316,0.766c1.326,0.034 2.652,0.068 3.978,0.102c0.591,0.126 1.183,0.252 1.774,0.378c0.658,0.326 1.316,0.652 1.974,0.978c0.737,0.485 1.678,2.034 3.361,2.439c0.739,0.178 8.184,3.001 8.893,3.27c-0.569,-0.045 -1.048,-0.663 -5.244,0.285c-2.484,-0.386 -2.364,-0.54 -4.649,-1.574c-4.713,-3.434 -4.285,-4.541 -10.1,-4.936c-5.642,0.093 -5.997,2.054 -9.796,9.202c-4.324,-3.073 -3.638,-4.832 -17.325,-20.994c-44.98,-53.118 -81.561,-28.593 -89.167,-14.337c-0.088,0.164 -3.562,6.675 -2.308,0.293c7.567,-38.522 34.754,-49.892 42.592,-51.171c47.592,-7.768 72.352,72.873 72.946,74.115Z" style="fill:#f0c1c8;"/><path d="M445.27,673.58c0.352,-2.87 0.406,-3.175 3.228,-4.082c3.773,-1.213 8.332,-4.431 13.122,-6.574c81.014,-36.26 114.78,1.732 99.218,43.718c-6.413,17.302 -9.859,18.425 -10.371,18.871c1.335,-6.644 2.276,-13.277 -1.801,-23.075c-18.354,-44.104 -98.164,-20.261 -103.157,-17.849c-1.542,0.745 -1.48,-0.109 -2.192,-0.162c0.814,-2.479 1.259,-2.288 1.571,-4.835c1.103,-2.875 0.869,-2.882 0.382,-6.013Z" style="fill:#f1c9cd;"/><path d="M441.437,687.469c3.966,3.177 51.181,48.236 88.944,23.755c5.868,-3.804 11.011,-11.161 11.21,-12.697c0.738,-5.692 5.383,6.129 6.373,9.831c2.539,9.483 -0.298,17.562 -0.116,19.238c0.679,6.269 -42.913,40.952 -91.218,-7.242c-4.908,-4.897 -4.506,-5.251 -8.468,-7.678l-0.596,-0.201c-0.215,-1.165 -0.248,-1.108 -0.956,-2.025c-0.391,-0.975 -0.783,-1.949 -1.174,-2.924c-0.829,-1.17 -0.774,-1.096 -1.73,-2.123c-0.696,-4.082 -2.649,-4.906 -2.815,-5.117c-0.546,-2.216 -0.643,-2.143 -2.161,-3.938c-0.297,-0.928 -0.595,-1.857 -0.892,-2.785c0.183,-0.536 0.824,-2.42 3.599,-6.095Z" style="fill:#de9bab;"/><path d="M321.371,621.013c-0.176,8.016 5.973,39.708 56.049,48.904c2.071,0.38 20.638,3.79 26.058,3.67c3.417,-0.075 1.011,1.737 0.208,4.973c0,0 -1.104,4.476 -1.2,4.865c-3.361,1.936 -3.225,2.06 -6.775,3.523c-1.598,-0.835 -1.523,-0.877 -3.355,-0.9c-2.46,-0.03 -2.392,0.058 -4.861,0.433c-10.002,1.519 -78.947,8.15 -88.155,-43.053c4.61,-13.47 12.284,-18.528 22.032,-22.416Z" style="fill:#a8d5c1;"/><path d="M401.49,698.486c1.018,0.019 2.035,0.037 3.053,0.056c-6.818,6.223 -7.174,5.737 -7.763,6.276c-0.049,0.045 -16.09,35.482 -17.487,38.569c-10.874,23.401 -10.738,23.354 -21.265,46.936c-3.741,7.396 -3.75,7.333 -6.856,14.954c-0.851,2.245 -1.465,1.959 -12.371,27.348c-8.619,20.063 -9.19,19.776 -9.844,21.031c-2.574,4.942 2.235,-1.425 11.38,-1.835c3.156,0.661 3.041,0.786 6.021,2.051c3.49,3.01 3.488,2.949 5.87,6.813l1.12,2.873c0.835,1.73 0.826,3.512 1.886,1.837c0.584,-0.923 9.862,-22.5 10.706,-24.463c10.335,-21.491 14.851,-32.845 23.509,-51.453c2.006,-4.309 1.86,-4.29 3.49,-8.698c6.346,-12.431 5.664,-12.671 11.974,-25.206c0.159,-0.324 1.964,-4 1.919,-4.076c-0.352,-0.608 -1.354,-0.632 -1.706,-1.24c6.439,-11.776 -1.307,-22.007 -3.855,-27.582c-0.842,-1.843 -0.788,-1.806 -0.928,-1.9c-0.68,-0.458 -0.636,0.847 -1.287,0.409c-0.273,-0.572 -0.547,-1.143 -0.82,-1.715c0.42,-0.653 0.841,-1.305 1.261,-1.958c-0.131,-0.72 -1.048,-5.762 2.352,-8.842c10.089,-9.141 19.249,7.707 7.516,11.261c-0.538,-0.126 -5.688,-1.331 -4.183,-5.497c1.236,-3.421 2.149,-2.385 3.078,-2.67c0.045,1.03 0.089,0.952 -0.346,1.834c-2.492,5.055 2.055,4.056 3.35,2.738c4.514,-4.596 -4.481,-11.646 -8.28,-5.379c-4.19,6.913 2.736,14.819 3.383,15.906c5.167,11.146 2.397,11.809 3.298,13.539c0.285,0.548 0.889,0.886 1.174,1.434c-0.029,0.212 -0.358,2.654 -0.358,2.654c-0.088,0.162 -1.157,-0.014 -1.472,1.672c-0.347,1.862 -1.938,1.806 -0.766,3.336c0.397,0.518 1.198,0.62 1.595,1.138c-1.092,2.608 -61.704,137.123 -66.58,145.708c-3.936,6.93 -14.288,12.58 -23.604,6.91c-15.117,-9.201 -1.9,-32.211 1.85,-39.755c11.602,-23.342 48.09,-106.499 70.76,-154.998c0.045,-0.16 0.561,-1.997 0.561,-1.997c-0.027,-0.536 -0.72,-0.891 -0.748,-1.427c5.69,-3.673 5.647,-3.688 6.166,-3.961c0.522,-0.27 0.499,0.365 1.058,0.076c0,-0 1.013,-1.691 1.101,-1.838c0.363,-0.29 0.726,-0.58 1.089,-0.87Z" style="fill:#c08346;"/><path d="M451.246,691.816c-4.8,-3.938 -4.83,-4.353 -4.29,-5.027c0.583,-0.727 16.104,-4.432 24.62,-5.91c54.771,-9.506 68.947,12.164 68.199,14.701c-5.038,17.082 -41.593,36.691 -88.529,-3.763Z" style="fill:#fdfdfd;"/><path d="M323.999,620.827c1.795,-0.792 1.59,-1.108 3.462,-1.528c36.748,-8.228 72.228,45.169 76.05,50.197c-0.444,0.237 -0.526,0.92 -0.97,1.157c-0.04,0.021 -19.64,-2.476 -20.021,-2.531c-51.717,-7.428 -58.853,-39.164 -58.52,-47.295Z" style="fill:#fdfdfd;"/><path d="M546.423,366.343c1.828,-0.966 1.828,-0.94 1.974,-1.043c9.397,-6.629 14.328,-8.56 14.916,-9.067c5.492,-4.733 5.474,0.17 6.947,5.35c0.45,1.582 3.848,13.538 4.875,19.966c1.642,10.284 13.737,53.877 13.387,58.94c-11.267,-13.157 -13.278,-20.462 -33.527,-48.45c-0.07,-0.097 -0.06,-0.093 -0.815,-1.25c0.088,-0.781 0.48,-4.267 3.575,-9.153c0.192,-0.303 0.584,-0.922 1.704,-4.154c0.417,-1.204 0.141,-1.274 -0.985,-1.768c-2.04,-0.894 -1.435,4.585 -4.856,4.084c-5.852,-0.856 -4.502,-5.799 -4.339,-6.396c0.437,-1.599 -0.576,-3.171 -0.636,-4.905c-0.08,-2.299 -1.015,-1.656 -2.221,-2.157Z" style="fill:#f0d6a5;"/><path d="M402.486,683.426c1.43,1.053 1.765,1.018 1.474,2.803c-0.613,0.043 -3.554,0.25 -7.205,2.644c-22.317,14.639 -41.137,14.002 -72.169,20.052c-91.022,17.744 -79.504,84.896 -72.717,103.425c1.205,3.291 1.954,-0.222 6.908,-9.701c4.223,-8.08 6.618,-2.822 14.033,2.494c5.616,4.026 5.954,3.304 6.812,3.345c-1.157,-2.485 -7.516,-16.145 -4.848,-33.92c7.075,-47.139 50.754,-50.578 63.614,-52.558c41.521,-6.394 43.414,-13.308 53.69,-16.931c0.027,0.536 0.72,0.891 0.748,1.427c0,0 -0.516,1.837 -0.561,1.997c-2.702,-0.25 -2.532,0.379 -4.901,1.733c-38.773,22.154 -86.57,5.648 -105.465,48.446c-11.043,25.012 -0.424,47.814 0.325,49.922c3.35,9.427 -7.334,1.165 -17.444,-6.488c-3.935,-2.979 -7.43,11.004 -10.371,15.329c-4.236,6.23 -12.88,-25.265 -8.693,-45.898c12.196,-60.112 82.352,-66.001 97.708,-68.458c4.045,-0.647 41.598,-6.656 49.134,-14.428c1.687,-0.795 1.629,-0.686 3.157,-1.711c3.55,-1.463 3.414,-1.587 6.775,-3.523Z" style="fill:#ca7687;"/><path d="M498.398,293.579c0.23,0.088 2.544,0.972 2.827,1.217c46.648,40.429 53.016,44.265 62.068,52.867c3.273,3.11 -5.313,2.434 -5.814,2.394c-23.508,-0.533 -25.998,-0.017 -30.259,-0.842c-3.407,-10.135 -26.541,-48.113 -28.822,-55.636Z" style="fill:#efd29b;"/><path d="M600.284,271.36c0.37,2.004 0.809,2.052 -0.147,3.901c-2.761,5.342 -4.321,8.359 -30.136,68.866c-3.646,8.545 -7.393,-17.916 -12.473,-31.73c1.925,-0.808 2.087,-0.734 29.795,-28.107l1.671,1.025c-1.782,2.494 -2.521,2.362 -2.02,3.948c0.575,1.822 1.363,2.026 1.565,2.078c3.624,0.938 0.919,-4.513 0.826,-4.812c0.643,-1.001 0.21,-1.675 2.113,-1.781c2.524,-0.14 2.059,-1.029 1.879,-3.543c0.165,-0.065 3.984,-1.557 1.229,-1.847c-0.52,-0.055 -0.47,1.272 -0.99,1.218c0.004,-0.24 0.046,-3.002 0.046,-3.002c0.34,-0.514 0.345,-0.396 2.757,-2.135c0.247,-0.348 0.493,-0.695 0.74,-1.043c1.318,-1.829 1.385,-1.65 3.144,-3.037Z" style="fill:#f6e4b7;"/><path d="M527.22,349.215c4.261,0.826 6.751,0.309 30.259,0.842l0.595,1.443c2.129,3.289 0.171,3.464 -5.44,7.119c-4.701,3.062 -58.106,37.847 -59.134,37.686c-0.598,-0.093 -0.766,-1.104 -1.364,-1.198c10.939,-15.432 21.478,-26.913 35.083,-45.893Z" style="fill:#f5e3b6;"/><path d="M322.588,887.423c-8.12,-9.836 -4.573,-11.333 1.231,-22.753c5.269,-10.369 23.305,-18.37 28.198,3.871c0.839,3.812 -8.485,22.381 -9.487,23.005c-8.618,5.366 -18.694,-3.077 -19.942,-4.123Z" style="fill:#f3e8cd;"/><path d="M598.403,285.447c0.607,0.025 0.486,0.266 1.097,0.291c0.145,0.006 0.134,-0.005 1.813,-0.067c2.132,2.084 -1.54,1.903 -1.954,4c-0.085,0.431 0.34,1.568 5.386,-1.099c-0.091,1.992 -0.458,10.025 -0.342,24.928c0.102,13.064 -0.06,13.086 0.861,16.278c-6.107,4.384 -6.649,3.419 -12.741,7.771c-1.052,0.751 -1.162,0.545 -13.939,8.179c-0.333,0.199 -3.68,3.35 -5.008,1.708c-1.59,-1.966 19.464,-47.035 23.086,-57.887c0.113,-0.338 0.129,-0.304 1.741,-4.101Z" style="fill:#f2ddac;"/><path d="M392.188,728.875l0.921,0.108c0.814,0.132 1.628,0.264 2.442,0.396c14.166,3.136 11.956,23.689 -5.054,29.705c-0.799,0.283 -20.438,4.224 -20.797,20.472c-0.07,3.155 1.815,5.084 1.147,8.2c-1.588,1.326 -1.426,1.475 -2.446,1.684c-0.344,0.07 -0.929,0.19 -1.092,4.247c-0.908,-0.144 -1.815,-0.287 -2.723,-0.431c-1.061,-0.384 -1.015,-0.154 -2.076,0.17c-0.315,-0.17 -0.734,0.398 -1.049,0.228c-0.358,-0.193 -0.527,-0.683 -0.551,-1.089c-0.069,-1.196 0.446,-1.687 -0.776,-1.806c-0.541,-0.053 -0.155,0.662 -0.634,0.563c-0.988,-0.204 -0.561,-0.81 -1.473,-0.998c10.527,-23.582 10.392,-23.535 21.265,-46.936c1.6,1.513 2.38,2.297 3.032,1.946c1.177,-0.634 0.869,-0.908 1.997,-1.657c-3.587,-7.406 4.297,-13.089 5.254,-13.779c1.368,-0.481 1.257,-0.529 2.613,-1.022Z" style="fill:#e4c38d;"/><path d="M530.069,419.933c4.915,0.484 16.48,0.846 15.627,13.488c-0.084,1.25 0.42,1.046 0.845,2.105c-2.121,4.461 -2.131,4.377 -4.042,8.974c-0.46,-0.083 -0.798,-0.536 -1.258,-0.619c-1.491,-0.268 -1.838,2.77 -7.512,2.375c-6.101,-2.424 -5.645,-3.051 -7.149,-4.855c-0.191,-0.775 -1.697,-6.887 3.15,-9.472c5.154,-2.748 4.664,3.04 4.625,3.503c-0.374,0.636 -0.651,0.442 -0.706,1.201c-0.063,0.882 -0.214,0.873 -0.168,0.933c0.192,0.249 0.749,-0.18 0.942,0.07c9.366,-0.628 2.118,-16.183 -7.816,-7.01c-5.876,5.426 -4.57,14.53 -4.384,15.83c0.837,7.833 0.962,7.727 2.823,15.418c0.407,2.437 1.058,7.976 1.14,8.671c-0.184,7.129 -0.079,7.102 -2.491,13.908c-0.564,1.593 0.84,2.031 0.859,2.078c-3.316,8.441 -13.596,30.471 -14.823,33.1l-1.233,-1.338l-1,0.326l-1,-0.077l-1,0.272c-0.207,0.617 -1.714,5.113 -4.168,6.99c-0.643,-0.666 -1.286,-1.332 -1.929,-1.998c0.99,-3.182 -0.18,-3.313 0.789,-6.478c0.078,-0.256 0.314,-1.026 3.184,-1.019c1.854,-1.398 0.325,-2.242 1.777,-3.973c1.9,-2.266 0.219,-3.157 0.192,-3.322c7.402,-5.665 10.55,-7.656 15.898,-18.676c0.839,-1.729 0.596,-1.946 -0.994,-2.974c9.098,-25.109 -2.093,-25.734 -0.603,-46.81c1.012,-14.307 18.435,-21.16 21.497,-8.803c1.83,7.388 -10.485,12.265 -9.088,4.891c1.003,-5.291 -6.143,0.676 -2.441,4.758c9.897,10.911 24.417,-19.222 1.906,-18.802c-8.055,0.15 -12.419,10.628 -12.96,11.929c-0.197,0.473 -0.135,0.477 -2.358,5.96c-0.585,0.996 -1.17,1.991 -1.754,2.987c-5.528,12.707 -10.071,22.11 -10.99,24.013c-0.079,0.241 -0.984,3.01 -0.984,3.01c0.306,0.562 1.124,0.718 1.429,1.279c-1.996,3.207 -1.34,3.384 -1.677,5.709l1.622,-0.982c4.959,-10.677 14.044,2.549 5.722,7.098c-1.527,0.835 -1.585,0.61 -2.103,0.81c-1.015,-0.135 -2.03,-0.27 -3.044,-0.405c-3.308,-2.131 -2.536,-2.928 -5.712,-5.323c0.541,-1.419 2.86,-5.752 2.171,-6.552c-0.448,-0.52 -1.413,-0.361 -1.861,-0.882c1.739,-3.89 14.589,-32.632 21.856,-48.576l0.624,0.842c0.422,-0.004 0.654,0.673 1.076,0.669c0.262,-0.003 0.75,-0.008 1.813,-2.732c0.817,0.302 0.35,0.782 1.118,1.066c0.06,0.022 0.098,0.036 0.699,-0.395c1.867,-1.34 1.857,-1.222 3.864,-2.186Z" style="fill:#d5a666;"/><path d="M323.999,620.827c-0.876,0.062 -1.752,0.124 -2.628,0.187c-9.748,3.888 -17.422,8.946 -22.032,22.416c-1.233,0.886 -1.144,0.878 -2.175,2.077c-0.104,-1.274 -5.01,-21.143 14.817,-45.597c30.092,-37.116 78.249,-22.193 103.301,53.743c0.043,0.131 0.077,0.102 1.038,1.37l-0.859,1.449l-1.039,1.048c-0.594,-1.242 -25.354,-81.883 -72.946,-74.115c-7.838,1.279 -35.024,12.649 -42.592,51.171c-1.254,6.383 2.22,-0.128 2.308,-0.293c7.607,-14.256 44.187,-38.78 89.167,14.337c13.687,16.163 13.001,17.921 17.325,20.994l-0.332,0.789l-0.937,0.895c-0.89,-0.108 -1.224,0.425 -2.904,-1.803c-3.822,-5.028 -39.301,-58.425 -76.05,-50.197c-1.872,0.419 -1.666,0.735 -3.462,1.528Z" style="fill:#c86f81;"/><path d="M546.423,366.343c1.205,0.501 2.141,-0.142 2.221,2.157c0.06,1.734 1.073,3.306 0.636,4.905c-0.163,0.596 -1.513,5.54 4.339,6.396c3.421,0.5 2.816,-4.978 4.856,-4.084c1.126,0.494 1.402,0.564 0.985,1.768c-1.12,3.231 -1.512,3.85 -1.704,4.154c-3.095,4.886 -3.487,8.372 -3.575,9.153c-2.48,-1.232 -2.823,-1.638 -46.699,8.343c-7.639,1.738 -12.231,3.01 -12.921,2.543c-0.565,-0.383 -0.779,-1.162 -1.344,-1.544c1.753,-1.162 1.709,-1.222 53.206,-33.788Z" style="fill:#ebca8d;"/><path d="M429.564,704.475c14.449,17.967 -1.38,76.982 0.406,109c3.673,65.821 64.329,88.684 65.641,86.066c0.802,-1.601 -10.47,-18.902 -3.221,-21.347c1.34,-0.452 1.546,0.316 17.026,-4.757c0.734,-0.774 1.469,-1.547 2.203,-2.321c0.379,0.175 6.168,1.728 -0.141,4.337c-5.296,2.19 -15.645,4.57 -17.026,4.888c-1.811,0.416 -2.503,0.364 -2.016,2.172c2.874,10.646 8.616,20.124 4.054,20.166c-3.818,0.035 -23.78,-7.435 -38.907,-22.267c-53.835,-52.786 -17.246,-115.756 -25.95,-162.932c-0.116,-0.628 -1.391,-7.538 -1.502,-7.846c-0.058,-0.16 -0.129,-0.091 -1.741,-1.23c1.143,-1.783 0.853,-1.851 1.172,-3.927Z" style="fill:#7aae99;"/><path d="M410.708,692.243c0.598,0.277 2.515,1.959 8.9,5.04c5.485,2.646 7.381,1.079 9.312,6.04c-2.014,3.224 -2.192,3 -4.084,6.275c-1.264,-1.711 -1.202,-1.933 -1.36,-1.84c-0.591,0.348 -0.84,1.214 -1.497,1.409c-0.296,0.088 -0.124,-0.626 -0.307,-0.875c-0.928,-1.264 -0.789,-1.33 -0.384,-2.861c0.461,-1.741 -3.59,-5.772 -4.808,-5.836c-0.239,-0.013 -1.942,-0.103 -2.979,-0.238c-3.192,-0.23 -2.776,1.083 -2.988,1.205c4.074,2.474 6.491,1.271 5.773,5.962c0.392,1.655 0.783,3.31 1.175,4.964c-1.441,10.277 -7.309,13.15 -5.104,16.044c0.171,0.224 0.53,0.282 0.809,0.242c0.503,-0.07 0.969,-0.79 1.419,-0.555c0.857,0.448 0.974,1.803 1.831,2.251c-0.451,0.987 -3.715,8.133 -5.576,12.367c-0.285,-0.548 -0.889,-0.886 -1.174,-1.434c-0.901,-1.729 1.869,-2.393 -3.298,-13.539c1.634,-0.476 1.693,-0.386 1.764,-0.515c0.436,-0.791 -0.653,-1.142 1.415,-3.824c0.264,-0.342 0.133,-0.339 -0.182,-2.593c11.733,-3.554 2.572,-20.402 -7.516,-11.261c-3.4,3.081 -2.483,8.122 -2.352,8.842c-1.099,0.712 -0.94,0.773 -1.261,1.958c0.273,0.572 0.547,1.143 0.82,1.715c0.943,3.828 0.615,4.011 0.304,3.95c-1.093,-0.213 -3.941,-5.092 -3.454,0.376c-2.319,1.827 -2.377,1.753 -2.505,1.974c-0.427,0.733 0.107,0.815 -0.29,1.496l-0.921,-0.108c-0.871,0.341 -1.742,0.681 -2.613,1.022c-0.957,0.69 -8.841,6.373 -5.254,13.779c-1.127,0.749 -0.82,1.023 -1.997,1.657c-0.652,0.351 -1.432,-0.432 -3.032,-1.946c1.397,-3.086 17.438,-38.524 17.487,-38.569c0.59,-0.539 0.945,-0.053 7.763,-6.276c4.014,-3.656 4.349,-3.325 6.165,-6.299Z" style="fill:#ddb378;"/><path d="M499.02,471.245c0.448,0.52 1.413,0.361 1.861,0.882c0.689,0.801 -1.63,5.134 -2.171,6.552c-0.802,1.297 -16.476,36.629 -17.553,38.723c-2.164,4.197 -0.626,4.333 -0.324,5.376c-4.152,4.503 -6.52,7.801 -11.087,21.792c-0.941,1.198 -1.459,0.805 -1.829,2.329c-0.061,0.25 -1.525,2.994 -1.662,3.251c-6.636,14.611 -6.521,14.571 -12.915,29.276c-0.975,2.088 -1.011,1.947 -1.895,4.058c-0.147,0.35 -0.361,0.669 -0.517,1.015c-0.706,1.566 0.675,2.031 0.698,2.101c-0.85,1.267 -1.7,2.534 -2.549,3.8c-1.184,1.445 -1.033,1.506 -2.833,4.856c-1.163,2.917 -10.05,25.214 -16.261,35.729c-4.943,12.389 -5.534,12.055 -10.388,24.565c-0.039,0.101 -0.357,0.921 -0.684,1.176c-2.53,1.977 -3.065,-0.085 -3.449,-0.256l0.859,-1.449c1.661,-1.337 1.185,-1.615 1.937,-3.622c2.029,-5.416 76.488,-170.623 80.763,-180.155Z" style="fill:#bb7e41;"/><path d="M482.4,521.408c1.171,1.654 1.254,1.745 3.233,1.676l0.761,0.027c-0.848,1.94 -0.834,2.013 -2.869,2.664c-2.605,0.833 -12.942,9.243 -11.823,29.631c0.121,2.214 5.393,36.547 0.408,48.97c-2.214,5.517 -3.2,7.04 -3.321,7.28c-3.289,1.601 -2.961,1.926 -5.502,4.661c-10.962,11.802 -36.21,13.037 -33.844,36.214c-1.948,0.906 -1.962,0.847 -2.107,0.962c-2.502,-10.051 3.179,-22.626 22.256,-30.726c22.658,-9.621 27.948,-34.536 12.632,-41.911c2.396,-4.582 2.291,-4.52 4.258,-9.355l-1.025,-1.01c0.707,-3.862 0.769,-3.832 0.764,-4.171c-0.033,-2.18 1.563,-1.896 1.697,-2.059c3.033,18.201 1.389,21.661 3.473,21.479c4.108,-0.359 -3.575,-14.743 -1.645,-41.168c4.567,-13.991 6.934,-17.289 11.087,-21.792c0.523,-0.457 1.045,-0.914 1.568,-1.371Z" style="fill:#ebd0a2;"/><path d="M446.611,710.451c0.707,0.917 0.74,0.86 0.956,2.025c0.456,1.253 0.912,2.505 1.368,3.758c0.303,0.324 0.605,0.648 0.908,0.972c0.067,0.46 -0.576,0.837 -0.509,1.297c1.014,6.938 6.551,9.868 3.816,53.969c-2.465,39.752 1.981,69.618 45.203,93.308c3.491,1.913 10.616,4.198 13.267,5.336c-0.734,0.774 -1.469,1.547 -2.203,2.321c-4.187,-5.072 -63.853,-13.959 -59.254,-94.956c1.43,-25.188 2.692,-37.292 -2.969,-58.891c-0.776,-2.962 -0.617,-2.907 -1.048,-5.958c0.051,-0.252 -0.018,-0.184 0.465,-3.18Z" style="fill:#7caf9b;"/><path d="M441.836,671.169c0.48,0.167 0.96,0.333 1.441,0.5c0.033,0.387 -0.003,0.379 0.319,4.84c-0.939,4.106 -0.789,4.048 -2.242,7.897c-1.276,2.63 -3.038,4.481 -4.009,6.998c-5.988,6.485 -8.077,9.661 -25.831,-0.937l-1.115,-0.777c3.269,-2.584 3.837,-1.672 6.947,-4.456c1.483,-0.801 12.583,-9.255 13.154,-9.604c0.958,-1.015 0.949,-1.011 1.034,-1.096c3.828,-3.812 4.153,-0.745 4.834,-0.342c4.979,-3.169 5.131,-2.879 5.467,-3.023Z" style="fill:#bee2d0;"/><path d="M496.125,537.254c-1.568,2.824 -1.284,2.926 -3.02,4.904c-3.713,4.231 1.013,-6.309 -3.452,-8.886c-10.085,-5.821 -18.708,17.87 -0.167,19.277c-0.08,0.173 -0.934,4.472 -2.468,6.691c-2.398,3.47 -2.291,3.457 -4.012,7.326c-0.503,1.13 -0.749,0.883 -1.242,2.044c-0.194,0.457 -1.963,4.627 -1.941,5.89c0.021,1.186 0.554,0.891 0.521,0.973c-0.063,0.158 -0.151,-0.007 -2.129,-0.099l0.034,-1.001c-0.497,0.746 -0.608,0.587 -2.037,1.302c-0.946,-9.669 -4.977,-30.566 1.733,-40.92c6.326,-9.762 12.396,-7.705 13.563,-7.309c6.537,2.215 4.829,8.968 4.616,9.809Z" style="fill:#f2deb3;"/><path d="M516.201,440.484c2.223,-5.482 2.161,-5.486 2.358,-5.96c0.542,-1.301 4.905,-11.779 12.96,-11.929c22.511,-0.42 7.991,29.713 -1.906,18.802c-3.702,-4.081 3.444,-10.048 2.441,-4.758c-1.397,7.374 10.918,2.497 9.088,-4.891c-3.061,-12.357 -20.485,-5.504 -21.497,8.803c-1.49,21.077 9.701,21.702 0.603,46.81c-8.729,21.468 -35.393,27.806 -34.616,35.72c-1.979,0.07 -2.061,-0.021 -3.233,-1.676c14.469,-15.991 35.986,-22.142 36.426,-41.964c0.817,-0.97 1.861,-0.722 1.238,-3.986c0.389,-0.278 1.023,0.021 1.412,-0.257c1.692,-1.208 -4.066,-22.669 -4.056,-29.716c0.006,-4.159 -0.795,-3.896 -1.219,-5Z" style="fill:#eed3a2;"/><path d="M327.247,882.683c-6.02,-11.864 5.019,-20.926 10.244,-20.892c16.774,0.112 2.3,35.476 -10.244,20.892Z" style="fill:#cc9e63;"/><path d="M323.999,620.827c-0.333,8.132 6.804,39.868 58.52,47.295c0.381,0.055 19.981,2.552 20.021,2.531c0.444,-0.237 0.526,-0.92 0.97,-1.157c1.681,2.227 2.015,1.694 2.904,1.803c0.312,-0.298 0.625,-0.596 0.937,-0.895l0.332,-0.789c3.799,-7.148 4.154,-9.11 9.796,-9.202c-0.245,0.152 -1.913,1.186 -2.872,2.182c-1.913,0.878 -1.984,0.783 -2.063,0.946c-0.267,0.56 0.426,0.501 0.138,1.103c-0.842,1.023 -0.787,0.933 -0.842,1.023c-6.018,9.8 -6.034,17.21 -6.037,18.789c-0.249,2.054 -0.193,1.97 -0.29,4.028c-0.142,-0.167 -0.901,-1.063 -1.554,-2.256c0.29,-1.785 -0.044,-1.749 -1.474,-2.803c0.096,-0.389 1.2,-4.865 1.2,-4.865c0.804,-3.237 3.209,-5.049 -0.208,-4.973c-5.42,0.12 -23.987,-3.29 -26.058,-3.67c-50.076,-9.196 -56.225,-40.889 -56.049,-48.904c0.876,-0.062 1.752,-0.124 2.628,-0.187Z" style="fill:#71aa92;"/><path d="M647.358,204.821c-2.919,-2.074 -3.101,-1.931 -3.147,-2.236c-0.213,-1.421 5.793,-2.794 6.337,-2.918c4.331,-0.99 3.092,-7.337 4.403,-8.772c1.081,-1.183 4.56,3.962 4.853,4.396c2.286,3.382 10.661,-1.031 10.697,2.21c0.047,4.248 -7.183,3.925 -2.497,11.323c5.469,8.635 -4.914,3.272 -6.626,2.979c-4.586,-0.784 -7.872,7.925 -9.675,4.578c-2.146,-3.985 3.76,-7.245 -4.345,-11.56Z" style="fill:#edd4a0;"/><path d="M498.71,478.679c3.177,2.395 2.405,3.192 5.712,5.323c1.015,0.135 2.03,0.27 3.044,0.405c-1.054,5.337 -7.889,16.588 -8.196,16.971c-1.327,1.658 -1.975,1.85 -0.667,3.537c-9.275,6.412 -11.957,8.629 -14.928,12.048c-0.42,0.483 -0.569,1.391 -1.2,1.501c-0.556,0.097 -0.763,-1.159 -1.319,-1.062c1.077,-2.094 16.751,-37.426 17.553,-38.723Z" style="fill:#e6bf86;"/><path d="M417.48,660.412c5.815,0.395 5.388,1.502 10.1,4.936c-0.218,0.35 -2.357,3.786 -2.677,4.396c-1.466,2.799 -7.547,9.024 -8.261,9.755c-2.657,2.72 -2.45,3.713 0.703,5.735c-3.11,2.783 -3.678,1.872 -6.947,4.456c-2.761,-2.339 -2.976,-2.091 -4.594,-5.234c0.003,-1.579 0.019,-8.989 6.037,-18.789c0.055,-0.09 -0,-0 0.842,-1.023c1.022,-1.085 0.958,-1.017 1.924,-2.05c0.96,-0.996 2.627,-2.03 2.872,-2.182Z" style="fill:#c3e4d4;"/><path d="M453.339,579.427c0.64,0.436 0.511,1.581 1.151,2.018c0.144,0.098 0.144,-0.061 2.003,-0.845c2.862,-0.462 2.813,-0.355 5.731,0.255c15.316,7.374 10.026,32.29 -12.632,41.911c-19.077,8.1 -24.758,20.675 -22.256,30.726c0.26,2.015 0.33,1.947 0.594,3.988c-2.421,-2.099 -3.78,-3.067 -4.418,0.022c-0.252,1.222 -0.127,1.166 -0.267,2.45c-0.591,-0.126 -1.183,-0.252 -1.774,-0.378c-1.984,-0.687 -1.992,-0.709 -3.978,-0.102c-0.802,-0.265 -1.278,0.857 -2.316,-0.766c-0.412,-0.644 -0.371,-0.581 -0.756,-1.185l1.039,-1.048c0.384,0.171 0.919,2.234 3.449,0.256c0.327,-0.255 0.645,-1.075 0.684,-1.176c4.854,-12.51 5.445,-12.176 10.388,-24.565c0.082,0.081 -0.031,0.261 0.051,0.342c2.479,2.433 2.082,-1.073 8.435,-5.106c1.986,-1.267 1.939,-1.198 3.963,-2.275c8.512,-4.439 10.142,-3.811 14.266,-8.329c1.083,-0.285 1.076,-0.116 1.981,-0.791c18.657,-20.239 6.597,-33.545 -2.29,-31.564c-2.567,1.438 -2.507,1.349 -4.763,3.337c-0.023,-0.07 -1.404,-0.535 -0.698,-2.101c0.156,-0.346 0.37,-0.665 0.517,-1.015c0.883,-2.11 0.92,-1.97 1.895,-4.058Z" style="fill:#d5a362;"/><path d="M399.053,721.187c0.651,0.438 0.606,-0.867 1.287,-0.409c0.14,0.094 0.086,0.058 0.928,1.9c2.548,5.574 10.295,15.806 3.855,27.582c-6.846,8.76 -9.547,9.26 -19.672,13.142c-13.174,5.052 -19.864,18.659 -6.73,26.907c-0.404,0.401 -5.265,3.532 -3.352,6.184c1.532,2.123 0.99,2.317 0.068,4.174c-2.559,-3.549 -1.944,-4.383 -8.129,-6.981c0.163,-4.057 0.748,-4.177 1.092,-4.247c1.02,-0.209 0.858,-0.358 2.446,-1.684c0.668,-3.117 -1.217,-5.045 -1.147,-8.2c0.359,-16.248 19.997,-20.189 20.797,-20.472c17.01,-6.015 19.221,-26.568 5.054,-29.705c0.334,-1.063 1.746,-1.032 0.353,-3.866c-0.487,-5.468 2.361,-0.589 3.454,-0.376c0.311,0.061 0.639,-0.122 -0.304,-3.95Z" style="fill:#f2dfb8;"/><path d="M299.34,643.429c9.209,51.203 78.153,44.572 88.155,43.053c2.469,-0.375 2.4,-0.464 4.861,-0.433c1.832,0.023 1.757,0.065 3.355,0.9c-1.528,1.025 -1.47,0.916 -3.157,1.711c-1.373,-0.071 -83.302,14.403 -95.39,-43.154c1.031,-1.199 0.942,-1.191 2.175,-2.077Z" style="fill:#75ac97;"/><path d="M405.123,750.26c0.352,0.608 1.354,0.632 1.706,1.24c0.045,0.077 -1.76,3.753 -1.919,4.076c-0.382,0.265 -1.012,-0.243 -1.395,0.021c-3.228,2.233 -2.267,3.586 -10.014,6.976c-0.245,0.107 -0.218,0.116 -2.948,1.563c-0.028,0.01 -14.271,2.603 -16.342,14.296c-1.222,6.898 7.165,14.335 13.893,6.629c-0.789,-0.527 -0.804,-1.831 -1.593,-2.357c-0.223,-0.149 -0.172,0.224 -3.103,1.255c-5.123,1.802 -9.045,-14.403 4.091,-11.451c3.202,2.25 3.732,2.103 4.202,5.945c0.026,0.209 0.092,0.173 1.235,2.33c-1.63,4.407 -1.483,4.388 -3.49,8.698c-0.663,-0.242 -0.651,-1.437 -2.022,-0.285c-1.995,1.677 -2.182,1.223 -4.73,1.94c-2.053,-0.326 -1.974,-0.354 -3.974,-0.826c-13.134,-8.249 -6.444,-21.855 6.73,-26.907c10.124,-3.882 12.825,-4.382 19.672,-13.142Z" style="fill:#d8a868;"/><path d="M897.71,129.427c1.939,4.909 3.279,3.45 6.714,4.355c3.445,0.907 -2.202,4.861 -2.578,5.124c-2.557,1.79 1.312,13.114 -4.393,8.654c-1.099,-0.86 -2.109,-1.83 -3.216,-2.68c-2.087,-1.604 -5.378,2.756 -8.856,1.734c-3.205,-0.941 6.412,-5.023 -2.078,-12.892c-1.387,-1.577 -1.496,-1.413 -2.537,-3.31c-0.574,-0.244 0.262,-0.703 -0.247,-0.919c-0.093,-0.04 -0.041,0.255 -1.229,0.292c-2.496,0.079 -2.584,-4.432 1.222,-2.945c1.999,0.781 1.93,-0.162 3.989,-0.395c4.856,-0.551 -1.739,3.525 -0.011,5.07c4.315,3.857 7.819,-2.344 8.16,-2.948c3.752,-6.64 4.636,-0.197 5.061,0.862Z" style="fill:#ecd29a;"/><path d="M351.171,805.277c1.787,2.1 1.635,2.132 2.553,4.763c-2.107,2.398 -0.963,2.953 -2.779,5.46c-1.136,1.575 -0.729,1.818 -2.202,3.055c-1.319,1.107 -0.898,1.281 -0.857,3.083c0.055,2.427 -0.583,2.485 0.597,4.599c-1.426,0.898 -6.773,2.231 -9.713,11.287c-0.127,0.39 -1.016,3.13 -0.53,5.101c0.362,1.466 0.748,1.457 2.15,0.881c0.245,-0.13 1.235,0.88 1.879,-0.995c1.914,-5.571 0.259,-9.726 13.116,-14.345c4.983,-1.79 4.812,-2.018 9.52,-4.425l0.538,-0.284c0.357,0.657 0.713,1.314 1.07,1.97c-2.609,1.344 -2.545,1.25 -5.109,2.545c-13.523,5.072 -15.11,5.368 -17.857,19.555c-2.275,-0.718 -2.657,-1.028 -3.999,0.987c0.188,0.737 0.376,1.474 0.564,2.212l0.225,1.096c-9.145,0.411 -13.953,6.777 -11.38,1.835c0.653,-1.255 1.225,-0.968 9.844,-21.031c10.906,-25.389 11.52,-25.103 12.371,-27.348Z" style="fill:#deaf74;"/><path d="M699.59,272.425c-6.774,-10.525 -3.689,-16.632 -2.806,-17.71c4.823,-5.881 8.802,3.058 10.665,2.512c12.589,-3.684 7.748,7.306 5.997,9.225c-8.381,9.184 -12.814,6.583 -13.855,5.972Z" style="fill:#df979e;"/><path d="M358.027,790.323c0.912,0.189 0.485,0.794 1.473,0.998c0.478,0.099 0.092,-0.615 0.634,-0.563c1.222,0.119 0.707,0.61 0.776,1.806c0.023,0.406 0.192,0.896 0.551,1.089c0.315,0.17 0.734,-0.398 1.049,-0.228c0.692,-0.057 1.384,-0.113 2.076,-0.17c0.908,0.144 1.815,0.287 2.723,0.431c6.185,2.598 5.571,3.431 8.129,6.981l0.233,0.475l0.79,1.457l0.191,0.555l0.558,1.649c0.18,0.555 0.36,1.11 0.541,1.665c-0.025,2.056 0.166,2.013 -0.449,4.036c-3.021,9.94 -9.227,14.344 -9.722,14.826l-1.067,0.096c-0.357,-0.657 -0.713,-1.314 -1.07,-1.97c7.084,-4.305 10.298,-12.193 9.427,-16.894c-1.144,-4.146 -0.519,-5.37 -4.016,-8.445c-17.386,-10.467 -20.107,16.384 -8.332,13.817c9.857,-2.149 1.838,-15.751 -1.681,-8.291c-1.544,3.275 3.316,5.82 -0.356,5.84c-6.537,0.035 -0.163,-15.685 6.906,-8.858c0,0 1.647,2.723 1.791,2.96c1.628,11.187 -6.683,11.522 -10.642,10.426c-2.635,-1.706 -2.663,-1.592 -4.816,-3.972c-0.917,-2.632 -0.766,-2.663 -2.553,-4.763c3.105,-7.622 3.114,-7.559 6.856,-14.954Z" style="fill:#d8a666;"/><path d="M453.495,626.376c-0.011,0.435 0.672,0.69 0.661,1.124c-0.049,1.934 -0.712,1.702 -0.902,3.642c-2.453,1.262 -3.091,0.095 -4.805,2.329c-2.556,3.618 -1.6,3.91 -1.905,8.359c-12.356,-1.931 -13.484,11.125 -5.128,12.897c0.364,-0.055 0.728,-0.11 1.092,-0.164c4.715,-3.562 1.001,-4.862 0.69,-5.39c4.508,-2.179 4.547,-2.33 4.655,-2.748c0.084,-0.323 -0.568,-0.553 -0.485,-0.876c2.048,4.104 1.602,4.35 -0.151,8.678c-0.506,0.511 -1.305,1.87 -3.879,3.005c-0.609,0.269 -2.389,0.107 -2.823,0.302c-7.868,3.525 -8.898,-6.945 -8.906,-8.024c-0.114,-15.366 21.684,-23.036 21.885,-23.135Z" style="fill:#f0e0ba;"/><path d="M581.506,352.338c-0.008,-2.371 -2.249,-4.994 -0.041,-4.674c0.275,0.04 -0.008,0.67 3.191,1.384c1.247,0.278 67.514,4.461 67.843,4.462c3.725,0.014 3.881,1.257 7.153,-0.501c0.343,0.153 8.447,3.782 1.815,4.327c-3.353,0.276 -3.197,-1.397 -41.966,-2.72c-1.214,-0.041 -34.956,-2.093 -37.995,-2.278Z" style="fill:#f9f2de;"/><path d="M456.389,583.264c8.887,-1.981 20.947,11.325 2.29,31.564c-3.577,-9.745 -5.904,-7.544 -8.065,-7.693c-0.177,-2.717 0.306,-2.608 1.91,-4.958c0.991,0.177 9.728,1.735 10.646,-6.699c0.616,-5.664 -6.046,-4.939 -6.705,-4.867c-0.608,0.35 -1.216,0.7 -1.824,1.051l-1.095,-0.148c-0.065,-7.265 5.15,-5.106 4.972,-7.021c-0.077,-0.826 -1.08,-1.405 -1.213,-1.481c-0.5,-0.288 -0.409,0.545 -0.916,0.253Z" style="fill:#f1e1bc;"/><path d="M832.23,255.738c-10.047,-12.048 -0.77,-23.198 4.349,-15.304c1.832,2.824 2.592,0.377 5.926,0.315c11.117,-0.209 -2.911,20.627 -10.275,14.99Z" style="fill:#dd969f;"/><path d="M538.522,395.154c-0.097,0.554 1.092,0.808 0.996,1.362c-0.045,0.259 -3.44,0.546 -3.183,8.032c0.384,11.169 18.539,13.853 20.103,-0.047c0.292,-2.597 -5.328,-3.787 -5.88,-3.904c-0.035,-0.202 0.819,-0.78 -0.313,-1.818c-0.047,-0.043 -0.179,-0.164 -0.713,-0.34c-3.365,-1.11 -3.345,0.29 -6.857,0.33c-0.023,-1.937 -0.055,-1.859 -0.564,-3.726c1.222,-0.687 9.048,-4.123 11.051,-1.353c7.356,10.175 7.49,10.818 5.82,14.023c-1.436,2.755 -2.666,8.669 -12.492,9.719c-8.905,0.951 -15.568,-9.693 -13.142,-15.96c1.616,-4.174 0.858,-5.269 5.174,-6.317Z" style="fill:#e9cd99;"/><path d="M542.5,444.5c-0.5,1.187 -12.432,28.39 -17.944,42.031c-0.019,-0.047 -1.424,-0.485 -0.859,-2.078c2.412,-6.806 2.308,-6.779 2.491,-13.908c0.318,-0.436 -0.4,-0.48 -0.081,-0.917c0.547,-0.749 0.801,-0.277 1.494,-1.019c0.499,-0.535 -0.286,-3.445 2.661,-8.11l-0.037,-1l-0.125,-1l0.207,-1l-0.945,-1.054l0.923,-0.95c-4.498,-2.226 -6.454,-3.503 -2.675,-6.87c2.01,-1.791 3.221,-0.602 3.943,-0.274c3.036,1.381 2.177,-2.074 2.179,-2.096c5.674,0.395 6.02,-2.643 7.512,-2.375c0.46,0.083 0.798,0.536 1.258,0.619Z" style="fill:#e3ba7b;"/><path d="M446.243,595.257c0.123,0.063 1.537,0.794 1.537,0.794c0.723,2.153 0.929,1.998 1.898,4.081c-2.992,0.789 -1.468,1.862 -1.492,2.356c-0.168,3.477 -0.212,3.373 -0.122,4.012c0.85,0.212 1.699,0.423 2.549,0.635c2.161,0.149 4.488,-2.052 8.065,7.693c-0.905,0.674 -0.897,0.506 -1.981,0.791c-3.875,-9.346 -6.676,-5.651 -6.85,-4.995c-0.563,2.125 2.17,4.325 -2.328,5.984c-0.37,-0.68 -0.74,-1.359 -1.11,-2.039c-0.017,-0.249 -0.216,-3.109 -0.216,-3.109c0.188,-1.738 -0.08,-2.621 -1.557,-1.701c-0.915,0.571 -0.335,0.794 0.736,3.98l-0.918,0.687c-1.403,1.238 -1.213,1.378 -2.707,2.404c-2.277,1.563 -1.393,4.785 -3.186,6.738c-2.22,2.418 -0.222,2.416 -0.093,2.656c-6.353,4.033 -5.956,7.539 -8.435,5.106c-0.082,-0.081 0.031,-0.261 -0.051,-0.342c6.211,-10.515 15.098,-32.812 16.261,-35.729Z" style="fill:#dcb074;"/><path d="M694.251,166.244c-6.435,5.054 -10.341,8.309 -13.376,1.077c-5.761,-13.728 3.497,-16.338 6.313,-12.541c1.329,1.791 1.32,2.748 4.3,1.68c1.877,-0.673 10.674,0.951 2.762,9.784Z" style="fill:#dd949d;"/><path d="M495.8,551.507c-0.996,2.159 -13.115,29.916 -13.174,30.052c-1.314,2.977 -7.158,18.228 -6.306,10.996c0.96,-8.159 0.871,-8.096 -0.105,-16.879c1.429,-0.716 1.539,-0.557 2.037,-1.302l-0.034,1.001c1.978,0.092 2.066,0.258 2.129,0.099c0.033,-0.082 -0.5,0.213 -0.521,-0.973c-0.023,-1.263 1.747,-5.434 1.941,-5.89c0.493,-1.162 0.739,-0.915 1.242,-2.044c1.721,-3.869 1.614,-3.856 4.012,-7.326c1.533,-2.219 2.388,-6.518 2.468,-6.691c4.668,-1.201 4.552,-1.579 4.968,-1.607c0.485,-0.033 0.86,0.598 1.346,0.565Z" style="fill:#e1b678;"/><path d="M389.447,789.48c-8.658,18.608 -13.175,29.961 -23.509,51.453c-4.152,-5.522 -4.842,-5.951 -5.406,-6.302c0.249,-0.114 3.526,-0.802 4.128,-2.035c0.854,-1.745 0.514,-3.323 0.523,-3.347c0.675,-1.905 1.924,-0.933 2.64,-2.843c0.129,-0.344 -0.373,-0.732 -0.244,-1.076c0.495,-0.481 6.701,-4.886 9.722,-14.826c0.615,-2.023 0.425,-1.98 0.449,-4.036c0.665,-0.264 -0.143,-0.844 0.478,-1.091c0.734,-0.292 0.577,0.721 1.284,0.391c0.445,-0.208 0.476,-0.861 0.679,-1.309c0.988,-2.18 -0.777,-2.115 -0.535,-3.711c0.189,-1.243 0.238,-1.126 0.63,-2.34c0.541,-1.677 -0.046,-1.613 -0.083,-2.909c1.214,-2.281 1.777,-1.915 2.492,-4.365c2.548,-0.717 2.735,-0.263 4.73,-1.94c1.37,-1.152 1.359,0.043 2.022,0.285Z" style="fill:#dfaf74;"/><path d="M331.642,867.616c10.688,-9.465 13.468,4.225 8.464,11.595c-6.371,9.383 -18.121,1.015 -8.464,-11.595Z" style="fill:#f8f5d7;"/><path d="M503.901,471.773c0.627,-0.433 5.879,-4.064 9.52,-0.171c4.815,5.148 5.32,19.398 -14.818,33.313c-1.307,-1.687 -0.66,-1.879 0.667,-3.537c0.306,-0.383 7.141,-11.633 8.196,-16.971c0.518,-0.199 0.575,0.025 2.103,-0.81c8.322,-4.549 -0.763,-17.775 -5.722,-7.098l-1.622,0.982c0.336,-2.325 -0.319,-2.502 1.677,-5.709Z" style="fill:#f7edcf;"/><path d="M468.789,611.655c-1.262,3.462 -1.02,3.472 -2.387,6.815c-0.132,-0.291 0.545,-0.575 0.412,-0.866c-1.497,-3.289 -1.754,0.391 -4.305,2.905c-3.106,3.06 -3.353,2.596 -7.048,4.796l-1.966,1.072c-0.201,0.099 -21.999,7.769 -21.885,23.135c0.008,1.079 1.038,11.548 8.906,8.024c0.434,-0.194 2.214,-0.033 2.823,-0.302c2.574,-1.135 3.372,-2.494 3.879,-3.005c0.282,0.547 1.075,0.706 1.358,1.253c0.034,0.065 -1.619,5.384 -8.044,5.888c-7.494,-0.812 -8.94,-2.612 -11.087,-8.839c-2.366,-23.177 22.882,-24.411 33.844,-36.214c2.541,-2.735 2.213,-3.06 5.502,-4.661Z" style="fill:#d3a05c;"/><path d="M503.456,467.484c0.82,0.154 0.234,0.891 1.042,1.043c0.177,0.033 0.148,-0.077 2,-1.04c2.513,-0.371 2.456,-0.173 5.028,-0.018c0.396,0.194 0.367,0.063 0.75,0.25c0.153,0.075 0.141,0.072 1.901,0.968c3.765,4.409 3.324,4.658 4.65,10.756c-0.44,19.823 -21.957,25.973 -36.426,41.964c-0.523,0.457 -1.045,0.914 -1.568,1.371c-0.303,-1.043 -1.84,-1.179 0.324,-5.376c0.556,-0.097 0.763,1.159 1.319,1.062c0.631,-0.11 0.78,-1.017 1.2,-1.501c2.971,-3.419 5.653,-5.636 14.928,-12.048c20.137,-13.915 19.632,-28.166 14.818,-33.313c-3.641,-3.893 -8.893,-0.262 -9.52,0.171c-0.306,-0.562 -1.124,-0.718 -1.429,-1.279c0,0 0.905,-2.769 0.984,-3.01Z" style="fill:#d6a968;"/><path d="M361.404,827.972c1.318,0.964 2.953,0.172 2.003,1.464c-0.179,0.244 -1.086,-0.847 -1.912,1.062c-0.917,2.118 -0.715,2.113 -2.003,3.927c-4.092,-0.069 -5.408,0.693 -6.134,5.082c0.225,0.495 -0.015,0.495 0.208,0.987c0.077,0.17 0.086,0.15 1.157,2.021l0.078,0.988c3.132,10.406 -2.639,-0.527 -2.712,-0.74c-0.053,-0.153 -1.265,-3.659 -1.968,-0.451c-0.273,1.245 1,4.85 1.143,5.256c-2.039,3.537 -1.574,3.919 -4.908,6.305c-2.979,-1.265 -2.865,-1.39 -6.021,-2.051l-0.225,-1.096c0.782,-0.318 2.942,0.361 3.435,-3.199c2.747,-14.187 4.334,-14.483 17.857,-19.555Z" style="fill:#f7edc8;"/><path d="M427.581,665.348c2.285,1.034 2.164,1.188 4.649,1.574c1.088,0.591 1.004,0.577 2.242,0.766c6.142,1.881 6.641,2.338 7.089,2.749l0.275,0.731c-0.336,0.144 -0.488,-0.145 -5.467,3.023c-0.681,-0.402 -1.006,-3.47 -4.834,0.342c-0.085,0.085 -0.077,0.081 -1.034,1.096c-0.571,0.349 -11.671,8.802 -13.154,9.604c-3.153,-2.021 -3.36,-3.015 -0.703,-5.735c0.715,-0.732 6.796,-6.956 8.261,-9.755c0.32,-0.61 2.459,-4.047 2.677,-4.396Z" style="fill:#d3eede;"/><path d="M635.518,244.3c2.479,1.111 2.732,0.707 4.276,2.913c0.75,1.071 0.882,0.165 1.521,-0.913c1.849,1.385 1.797,2.449 3.274,1.393c1.363,-0.975 1.461,-0.705 3.057,-0.154c0.526,5.833 5.652,4.242 4.245,7.179c-0.408,0.852 -0.68,0.501 -4.391,1.005c-2.902,0.394 -2.03,6.389 -3.995,6.796c-2.06,0.427 -3.793,-4.694 -3.973,-5.039c-0.959,-1.837 -8.9,0.334 -6.658,-2.752c1.864,-2.565 3.954,-2.505 1.51,-9.22c0.377,-0.403 0.754,-0.805 1.132,-1.208Z" style="fill:#efd9aa;"/><path d="M838.527,125.537c-8.168,5.408 -11.551,-12.878 -6.081,-14.282c3.172,-0.815 4.443,2.901 6.088,2.549c1.577,-0.338 1.347,-0.897 2.98,-1.089c1.046,-0.123 10.48,2.349 -2.986,12.822Z" style="fill:#df9da5;"/><path d="M520.249,487.363c1.59,1.029 1.833,1.245 0.994,2.974c-5.348,11.02 -8.496,13.011 -15.898,18.676c-15.233,9.443 -15.412,11.429 -13.979,11.696c4.331,0.809 4.399,0.618 8.038,3.097c0.643,0.666 1.286,1.332 1.929,1.998c1.474,2.207 1.316,2.209 1.839,4.743c0.289,1.403 1.38,0.986 1.452,1.037c-0.49,1.66 -0.46,1.653 -1.654,2.922c-0.308,-0.413 -0.84,-0.068 -2.177,-4.055c-2.234,-6.716 -6.514,-7.056 -9.44,-7.262c-2.486,-0.398 -2.433,-0.538 -4.956,-0.08l-0.761,-0.027c-0.778,-7.914 25.886,-14.253 34.616,-35.72Z" style="fill:#cc9a5a;"/><path d="M860.876,171.951c-0.09,0.493 -1.613,1.777 0.889,5.259c-1.103,2.244 -1.121,2.257 -0.47,4.69c-1.901,0.433 -1.839,0.259 -3.835,0.199c-3.63,-0.11 -5.349,4.889 -6.113,5.043c-1.341,0.271 -2.271,-5.264 -2.354,-5.754c-0.596,-3.549 -9.622,-3.245 -6.58,-5.958c0.905,-0.808 2.182,-1.12 3.088,-1.928l0.214,0.999c0.516,1.027 0.169,3.085 2.197,1.296c0.208,-0.184 1.891,-1.668 2.614,-2.281c0.285,-0.109 0.086,-0.727 0.371,-0.836c1.232,-0.47 1.336,0.414 2.554,-0.264c0.438,-0.244 4.112,-2.289 6.027,-1.738c0.606,0.174 0.792,1.099 1.398,1.273Z" style="fill:#efd8a7;"/><path d="M466.254,550.15c1.937,5.013 0.752,5.148 1.074,10.448l0.59,3.661c-0.134,0.163 -1.73,-0.121 -1.697,2.059c0.005,0.339 -0.057,0.309 -0.764,4.171c-4.935,5.392 -7.307,7.073 -8.964,10.11c-1.859,0.784 -1.859,0.943 -2.003,0.845c-0.64,-0.436 -0.511,-1.581 -1.151,-2.018c6.394,-14.705 6.279,-14.665 12.915,-29.276Z" style="fill:#e2b87b;"/><path d="M410.512,700.562c0.212,-0.123 -0.204,-1.435 2.988,-1.205c1.037,0.135 2.74,0.225 2.979,0.238c1.218,0.065 5.269,4.095 4.808,5.836c-0.405,1.531 -0.544,1.598 0.384,2.861c0.183,0.249 0.011,0.962 0.307,0.875c0.657,-0.195 0.907,-1.061 1.497,-1.409c0.158,-0.093 0.096,0.13 1.36,1.84c-1.03,2.339 -2.061,4.677 -3.091,7.016l-0.328,0.844c-1.519,3.67 -1.422,3.67 -5.002,12.013c-0.857,-0.448 -0.974,-1.803 -1.831,-2.251c-0.45,-0.235 -0.916,0.484 -1.419,0.555c-0.279,0.039 -0.638,-0.019 -0.809,-0.242c-2.205,-2.893 3.663,-5.767 5.104,-16.044c1.138,-1.606 1.965,-1.356 1.484,-3.19c0,0 -2.446,-1.633 -2.659,-1.775c0.718,-4.691 -1.7,-3.488 -5.773,-5.962Z" style="fill:#dcae6e;"/><path d="M374.869,806.562c0.872,4.701 -2.342,12.589 -9.427,16.894l-0.538,0.284c-2.443,-2.384 -2.862,-0.495 -10.617,2.416c-11.168,4.191 -13.833,8.467 -13.898,17.35c-1.402,0.576 -1.788,0.585 -2.15,-0.881c-0.487,-1.971 0.403,-4.71 0.53,-5.101c2.94,-9.055 8.287,-10.389 9.713,-11.287l2.033,-1.047c8.969,-3.483 13.757,-4.425 17.587,-9.933c5.124,-7.37 2.803,-10.38 3.28,-10.848c0.234,-0.23 0.571,-0.561 3.488,2.154Z" style="fill:#dcaf72;"/><path d="M446.543,641.831l1.973,1.14c0.091,0.145 1.779,2.164 2.249,4.451c0.385,1.869 0.156,2.033 1.794,3.114c-2.114,4.976 -1.479,5.168 -4.383,9.802c-0.285,0.455 -1.38,2.201 -2.505,6.226c-0.262,0.936 0.071,2.097 -0.518,2.87c-0.424,0.557 -1.618,-0.068 -2.043,0.489c-0.532,-0.146 -1.065,-0.292 -1.597,-0.438c-1.361,-1.458 -1.05,-1.596 -1.174,-1.705l-0.926,-0.862c0.244,-0.27 2.936,-3.248 2.743,-3.62c-0.387,-0.747 -1.239,-1.182 -1.626,-1.929c6.425,-0.504 8.078,-5.822 8.044,-5.888c-0.282,-0.547 -1.075,-0.706 -1.358,-1.253c1.752,-4.327 2.198,-4.573 0.151,-8.678c-9.675,-6.912 -10.077,8.367 -6.035,6.647c0.184,-0.078 1.724,-2.776 1.865,-3.023c0.311,0.528 4.025,1.828 -0.69,5.39l-1.092,0.164c-8.356,-1.772 -7.229,-14.828 5.128,-12.897Z" style="fill:#d6a86b;"/><path d="M390.554,764.137l1.036,1.372c-3.588,2.202 -2.232,3.197 -4.09,7c-13.136,-2.952 -9.214,13.254 -4.091,11.451c2.932,-1.031 2.881,-1.404 3.103,-1.255c0.789,0.527 0.804,1.831 1.593,2.357c-6.728,7.706 -15.115,0.269 -13.893,-6.629c2.071,-11.692 16.314,-14.285 16.342,-14.296Z" style="fill:#f3e4bf;"/><path d="M538.522,395.154c1.809,-0.326 1.754,-0.267 3.589,-0.112c0.508,1.868 0.54,1.789 0.564,3.726c-0.292,0.046 -0.584,0.092 -0.875,0.138c-0.417,0.208 -0.835,0.416 -1.252,0.624c-1.589,3.868 -2.074,3.956 -0.69,7.915c3.237,5.55 5.955,4.157 9.554,2.945c-0.903,-2.518 -0.58,-2.573 -2.075,-4.755c-0.112,-3.352 0.098,-3.639 3.222,-5.038c0.552,0.117 6.172,1.307 5.88,3.904c-1.563,13.9 -19.719,11.216 -20.103,0.047c-0.257,-7.486 3.138,-7.772 3.183,-8.032c0.097,-0.554 -1.092,-0.808 -0.996,-1.362Z" style="fill:#dcb77d;"/><path d="M610.284,212.346c-1.42,1.573 -5.191,8.702 -11.356,-3.047c-1.66,-3.164 -0.677,-11.073 5.786,-6.111c1.88,1.443 4.281,-2.285 6.757,-0.634c3.504,2.336 -0.766,9.124 -1.187,9.792Z" style="fill:#e29ea8;"/><path d="M621.578,258.459c-2.287,0.84 -2.584,0.663 -3.434,2.917c-0.294,2.394 -0.187,2.353 0.4,4.646c2.806,-0.837 3.634,-0.354 4.856,-4.891l1.09,-0.26c3.9,0.187 3.891,0.098 4.212,0.202c4.722,1.525 -2.684,1.836 -4.365,7.452c-5.96,2.537 -6.031,-1.193 -7.75,-0.481c-0.468,0.194 -0.534,1.114 -1.04,1.108c-0.75,-0.009 -1.304,-0.743 -1.938,-1.144c-1.017,-0.644 -1.062,-0.327 -2.288,-0.55c-0.552,-1.921 -0.529,-1.916 -0.596,-2.075c-0.83,-1.958 -8.06,-5.362 -0.229,-5.952c3.984,-0.3 4.826,0.085 6.796,-5.046c1.813,-4.724 2.923,2.075 4.285,4.074Z" style="fill:#eacc8c;"/><path d="M404.91,755.576c-6.309,12.535 -5.627,12.775 -11.974,25.206c-1.144,-2.157 -1.21,-2.12 -1.235,-2.33c-0.47,-3.842 -1,-3.695 -4.202,-5.945c1.858,-3.802 0.503,-4.798 4.09,-7l-1.036,-1.372c2.729,-1.447 2.703,-1.456 2.948,-1.563c7.747,-3.39 6.786,-4.743 10.014,-6.976c0.382,-0.265 1.012,0.243 1.395,-0.021Z" style="fill:#e3bb80;"/><path d="M496.125,537.254c0.227,0.53 0.972,0.716 1.199,1.246c0.465,1.086 -2.443,7.658 -7.741,6.796c-4.942,-0.805 -0.172,-4.733 0.026,-5.78c2.123,-11.216 -14.336,0.797 -6.695,7.651c5.994,5.377 11.701,0.59 12.481,0.247c0.845,2.16 0.478,3.772 0.405,4.092c-0.485,0.033 -0.86,-0.598 -1.346,-0.565c-0.417,0.028 -0.3,0.406 -4.968,1.607c-18.541,-1.407 -9.918,-25.098 0.167,-19.277c4.465,2.577 -0.261,13.117 3.452,8.886c1.736,-1.978 1.452,-2.08 3.02,-4.904Z" style="fill:#d4a96f;"/><path d="M712.054,258.754c0.462,0.677 3.856,3.23 -2.53,7.8c-3.81,2.727 -8.09,6.925 -9.716,0.747c-1.858,-7.061 -4.025,-7.487 -0.94,-11.396c2.676,-3.391 5.685,5.156 7.61,4.551c2.818,-0.886 2.591,-1.544 5.575,-1.702Z" style="fill:#efbbc1;"/><path d="M466.402,618.469c-8.784,19.699 -8.924,21.001 -10.85,25.053c-0.158,-0.282 0.519,-0.618 0.36,-0.9c-0.262,-0.466 -0.738,0.09 -5.256,-4.128c-0.214,-2.887 -0.201,-2.956 -2.209,-5.021c1.714,-2.234 2.352,-1.067 4.805,-2.329c0.491,-0.001 0.694,0.877 1.185,0.875c0.154,-0 -0.045,-0.237 1.729,-0.859c0.38,-0.133 0.169,-0.319 0.56,-0.509c1.509,-0.734 0.883,-2.138 0.888,-2.15c-1.456,-1.941 -1.537,-1.796 -2.154,-3.196c3.695,-2.2 3.942,-1.736 7.048,-4.796c2.551,-2.514 2.809,-6.193 4.305,-2.905c0.132,0.291 -0.545,0.575 -0.412,0.866Z" style="fill:#ddac6c;"/><path d="M370.853,798.118c3.497,3.074 2.872,4.299 4.016,8.445c-2.917,-2.714 -3.254,-2.384 -3.488,-2.154c-0.477,0.468 1.844,3.479 -3.28,10.848c-3.83,5.508 -8.617,6.449 -17.587,9.933c0.006,-0.398 -0.876,-0.42 -0.87,-0.818c0.008,-0.49 1.101,0.232 3.587,-4.973c0.668,-1.399 1.945,-1.246 3.108,-3.015c0.142,-0.216 0.754,-1.146 2.2,-2.372c3.959,1.095 12.27,0.76 10.642,-10.426c0.103,-0.594 1.324,-0.516 1.427,-1.11c0.072,-0.415 -0.93,-0.18 -1.139,-0.546c-0.161,-0.282 -0.624,-1.09 1.383,-3.812Z" style="fill:#f4e9c5;"/><path d="M370.853,798.118c-2.007,2.722 -1.544,3.531 -1.383,3.812c0.209,0.365 1.211,0.131 1.139,0.546c-0.103,0.594 -1.324,0.516 -1.427,1.11c-0.143,-0.237 -1.791,-2.96 -1.791,-2.96c-7.069,-6.828 -13.443,8.893 -6.906,8.858c3.672,-0.02 -1.188,-2.565 0.356,-5.84c3.519,-7.461 11.538,6.141 1.681,8.291c-11.775,2.567 -9.054,-24.284 8.332,-13.817Z" style="fill:#f0ddb3;"/><path d="M532.781,412.245c5.994,12.174 19.251,6.503 19.725,6.464c1.642,-0.135 -1.062,4.515 -5.964,16.817c-0.425,-1.058 -0.929,-0.855 -0.845,-2.105c0.852,-12.642 -10.712,-13.004 -15.627,-13.488c1.464,-2.857 1.615,-2.746 1.902,-4.207c0.447,-2.277 -0.732,-1.948 -0.672,-2.115c0.227,-0.632 1.254,-0.734 1.481,-1.366Z" style="fill:#e3bf83;"/><path d="M428.92,703.323c0.215,0.384 0.429,0.768 0.644,1.152c-0.32,2.076 -0.03,2.144 -1.172,3.927c-9.088,21.243 -9.377,21.039 -18.554,42.236c-0.397,-0.518 -1.198,-0.62 -1.595,-1.138c-1.172,-1.53 0.419,-1.474 0.766,-3.336c0.314,-1.686 1.384,-1.51 1.472,-1.672c0,0 0.33,-2.442 0.358,-2.654c1.861,-4.234 5.125,-11.38 5.576,-12.367c3.58,-8.343 3.483,-8.342 5.002,-12.013c0.109,-0.281 0.219,-0.563 0.328,-0.844c1.03,-2.339 2.061,-4.677 3.091,-7.016c1.892,-3.276 2.071,-3.052 4.084,-6.275Z" style="fill:#b9763c;"/><path d="M829.985,172.938c-3.71,6.41 5.988,10.219 0.523,10.617c-3.329,0.243 -4.813,-4.135 -9.386,0.629c-0.256,0.267 -2.989,3.113 -3.59,2.923c-2.091,-0.661 -1.08,-1.419 -1.357,-3.589c0.674,-0.572 1.806,-0.369 2.481,-0.941c0.272,-0.23 -0.109,-0.706 -0.12,-1.062c-0.062,-1.925 2.012,-3.58 0.607,-7.438c2.243,-0.033 5.85,-1.493 6.337,-1.689c3.179,-1.287 3.076,0.105 4.506,0.55Z" style="fill:#f0daa9;"/><path d="M683.844,212.474c0.039,-2.27 0.705,-3.254 2.429,-1.704c2.179,1.96 3.009,1.133 5.204,0.628c5.22,-1.201 -1.095,4.02 1.402,6.727c4.729,5.128 -2.527,2.228 -4.082,3.597c-0.698,0.615 -2.676,8.577 -4.131,0.748c-0.709,-3.817 -7.226,-1.949 -4.941,-4.786c1.664,-2.066 3.916,-0.647 4.118,-5.211Z" style="fill:#e8cd99;"/><path d="M353.358,839.507c2.739,-1.219 2.069,-2.655 5,-2.713c4.482,-0.089 2.83,5.922 2.682,6.462c-0.431,0.618 -1.109,2.705 -3.841,3.866c-0.524,0.223 -1.249,0.05 -1.647,0.459c-0.233,0.24 0.49,0.731 0.257,0.971l-0.312,0.95c-0.351,0.59 -1.374,0.536 -1.725,1.126c-0.169,0.284 0.107,0.295 -1.105,3.979c-0.837,2.546 1.614,2.399 0.855,4.894c-0.17,0.56 -1.124,0.626 -1.295,1.186c-2.382,-3.865 -2.379,-3.803 -5.87,-6.813c3.334,-2.386 2.869,-2.768 4.908,-6.305c-0.143,-0.406 -1.416,-4.011 -1.143,-5.256c0.703,-3.208 1.915,0.298 1.968,0.451c0.073,0.213 5.844,11.146 2.712,0.74c0.333,0.209 0.182,0.853 0.515,1.063c1.533,0.963 5.032,-3.101 4.058,-4.796c-1.231,-2.141 -1.382,0.741 -4.652,2.746c-1.071,-1.871 -1.08,-1.851 -1.157,-2.021c-0.223,-0.492 0.016,-0.492 -0.208,-0.987Z" style="fill:#e8bf87;"/><path d="M834.527,254.116c-7.983,-6.674 -2.901,-20.038 1.127,-10.652c2.192,5.108 8.981,-3.605 8.535,1.972c-0.431,5.391 -8.683,8.331 -9.661,8.68Z" style="fill:#f2bbc1;"/><path d="M408.259,711.766c-0.929,0.285 -1.842,-0.752 -3.078,2.67c-1.505,4.167 3.645,5.371 4.183,5.497c0.315,2.254 0.446,2.251 0.182,2.593c-2.069,2.682 -0.979,3.033 -1.415,3.824c-0.071,0.129 -0.131,0.038 -1.764,0.515c-0.647,-1.086 -7.572,-8.992 -3.383,-15.906c3.798,-6.268 12.793,0.783 8.28,5.379c-1.295,1.319 -5.842,2.317 -3.35,-2.738c0.435,-0.882 0.39,-0.804 0.346,-1.834Z" style="fill:#f3e0b4;"/><path d="M359.492,834.425l1.04,0.206c0.564,0.351 1.254,0.78 5.406,6.302c-0.844,1.963 -10.122,23.54 -10.706,24.463c-1.06,1.674 -1.05,-0.108 -1.886,-1.837c0.266,-0.534 -0.581,-0.386 -0.318,-0.912c0.066,-0.133 0.142,-0.03 1.39,-1.237c1.11,-1.072 0.726,-1.23 1.093,-2.905c0.051,-0.235 2.253,-3.537 2.047,-3.997c-0.256,-0.57 -1.089,-0.73 -1.357,-1.295c-0.106,-0.224 0.289,-0.407 0.47,-0.577c0.195,-0.183 0.672,-0.631 -1.175,-3.136l0.312,-0.95c0.181,0.114 2.958,3.963 6.5,-3.195c0.361,-0.729 0.34,-0.764 0.304,-0.824c-0.541,-0.895 -0.985,-0.303 -1.573,-1.277c0.148,-0.54 1.8,-6.551 -2.682,-6.462c-2.931,0.058 -2.261,1.494 -5,2.713c0.727,-4.389 2.043,-5.152 6.134,-5.082Z" style="fill:#d6a467;"/><path d="M689.322,160.195c1.831,-0.866 1.82,-0.86 1.978,-0.936c6.096,-2.921 4.316,4.533 -4.132,8.801c-5.39,2.723 -6.986,-10.386 -4.398,-12.097c3.575,-2.365 1.912,3.809 6.552,4.232Z" style="fill:#eeb4bb;"/><path d="M534.356,435.432c0.039,-0.463 0.528,-6.251 -4.625,-3.503c-4.846,2.584 -3.341,8.696 -3.15,9.472c-0.479,0.264 -0.472,1.072 -0.951,1.336c-0.321,0.177 -0.862,-0.514 -1.079,-0.218c-0.094,0.129 0.458,0.108 -0.214,1.981c-0.24,0.668 -0.613,0.325 -0.838,0.95l-1.276,1.006c-0.187,-1.301 -1.493,-10.405 4.384,-15.83c9.935,-9.173 17.182,6.382 7.816,7.01c-0.023,-0.734 -0.046,-1.469 -0.069,-2.203Z" style="fill:#efd8a7;"/><path d="M829.985,172.938c-1.43,-0.445 -1.327,-1.836 -4.506,-0.55c-0.486,0.197 -4.093,1.657 -6.337,1.689c-0.752,0.099 -2.423,0.569 -2.631,0.627c-0.889,0.25 -2.816,-0.429 -2.937,0.829c-0.04,0.417 0.844,0.549 0.806,0.966c-0.087,0.933 -0.905,1.385 -1.03,1.453c-0.562,0.31 -0.367,-0.683 -0.867,-0.407c-2.549,-1.472 -4.374,-2.319 -1.736,-3.618c3.875,-1.909 5.486,-1.102 6.242,-7.362c0.795,-6.581 4.447,3.076 8.461,2.651c2.528,-0.268 8.925,-2.984 4.537,3.72Z" style="fill:#e6c482;"/><path d="M429.443,652.529c2.147,6.227 3.594,8.027 11.087,8.839c0.387,0.747 1.239,1.182 1.626,1.929c0.193,0.372 -2.5,3.351 -2.743,3.62l-1.939,-0.28c-0.709,-0.269 -8.154,-3.092 -8.893,-3.27c-1.683,-0.405 -2.624,-1.954 -3.361,-2.439c1.45,-1.67 1.472,-1.567 2.71,-3.45c-0.264,-2.04 -0.334,-1.972 -0.594,-3.988c0.145,-0.115 0.158,-0.056 2.107,-0.962Z" style="fill:#edd39e;"/><path d="M526.581,441.401c1.504,1.803 1.048,2.43 7.149,4.855c-0.002,0.022 0.857,3.477 -2.179,2.096c-0.722,-0.328 -1.932,-1.518 -3.943,0.274c-3.779,3.367 -1.823,4.644 2.675,6.87l-0.923,0.95c-2.208,2.875 -1.167,3.783 -4.314,5.428c-1.861,-7.691 -1.986,-7.586 -2.823,-15.418l1.276,-1.006c0.224,-0.626 0.598,-0.282 0.838,-0.95c0.672,-1.873 0.119,-1.852 0.214,-1.981c0.217,-0.296 0.757,0.395 1.079,0.218c0.479,-0.264 0.472,-1.072 0.951,-1.336Z" style="fill:#f9ebc2;"/><path d="M514.446,443.471c1.92,3.629 0.548,3.856 1.202,7.856c-0.22,0.324 -0.924,-0.054 -1.144,0.271c-0.128,0.189 -0.326,2.425 -0.215,2.813c0.927,3.258 -0.708,2.867 -2.149,5.818c-0.197,0.403 -0.73,-0.048 -3.581,4.309c-0.994,1.519 -0.928,1.476 -2.061,2.949c-1.852,0.963 -1.822,1.073 -2,1.04c-0.808,-0.152 -0.222,-0.889 -1.042,-1.043c0.919,-1.902 5.462,-11.306 10.99,-24.013Z" style="fill:#dfb271;"/><path d="M449.076,590.401c0.812,4.261 0.394,7.403 5.232,9.522c0.517,0.037 4.456,0.322 5.97,-2.513c1.189,-2.225 -0.917,-8.208 -4.558,-1.647c-0.999,-0.75 -1.92,-0.311 -2.175,-4.25l1.095,0.148c0.608,-0.35 1.216,-0.7 1.824,-1.051c0.659,-0.072 7.321,-0.797 6.705,4.867c-0.918,8.434 -9.656,6.876 -10.646,6.699c-2.362,-1.627 -2.374,-1.572 -2.845,-2.045c-0.969,-2.083 -1.176,-1.928 -1.898,-4.081c-0,-0 -1.414,-0.73 -1.537,-0.794c1.799,-3.35 1.649,-3.411 2.833,-4.856Z" style="fill:#d3a562;"/><path d="M863.674,208.441c-1.313,-3.658 -5.888,-2.047 -3.934,-4.786c1.247,-1.749 2.851,-1.279 2.004,-4.2c-1.392,-4.8 2.699,0.717 5.91,-0.507c0.619,-0.236 1.171,-0.652 1.814,-0.808c4.029,-0.977 -1.636,3.561 1.323,6.022c4.3,3.577 -1.326,2.135 -3.4,3.217c-1.468,0.766 -1.685,4.509 -3.717,1.062Z" style="fill:#e2c386;"/><path d="M866.46,81.889c2.443,-0.277 2.201,-0.698 4.104,-2.294c2.266,-1.901 1.236,3.287 3.771,4.337c5.478,2.268 -0.958,3.104 -1.629,4.65c-0.266,0.615 0.056,3.814 -2.197,2.901c-0.15,-0.061 -1.64,-2.133 -2.992,-1.901c-1.006,0.173 -5.169,2.122 -2.335,-2.243c1.125,-1.733 0.312,-1.857 -1.27,-3.197c-2.757,-2.334 2.276,-2.258 2.548,-2.253Z" style="fill:#e6c88c;"/><path d="M469.746,544.57c-1.93,26.425 5.753,40.809 1.645,41.168c-2.084,0.182 -0.44,-3.278 -3.473,-21.479l-0.59,-3.661c-0.322,-5.3 0.863,-5.436 -1.074,-10.448c0.138,-0.258 1.602,-3.002 1.662,-3.251c0.371,-1.524 0.888,-1.131 1.829,-2.329Z" style="fill:#d4a66c;"/><path d="M320.701,889.23c5.362,4.993 5.57,4.765 12.766,6.366c-0.965,1.717 -1.011,1.784 -2.985,1.881c-1.116,0.055 -0.933,0.328 -5.958,4.898c-2.811,-1.121 -2.76,-1.058 -5.164,-2.744c0.366,-0.984 2.145,-0.431 1.513,-4.073c-0.357,-2.057 -0.351,-2.039 -0.361,-2.057c-0.264,-0.475 -2.072,-0.637 0.19,-4.271Z" style="fill:#eed9b0;"/><path d="M782.6,227.406c-1.222,2.576 -1.197,2.468 -2.306,5.083c3.203,1.309 3.255,1.017 6.666,0.712c0.165,0.312 2.794,5.273 -0.478,4.391c-2.76,-0.744 -3.14,-1.644 -6.006,0.879c-3.917,3.448 -1.032,-3.539 -3.875,-5.158c-4.712,-2.682 0.601,-2.901 1.756,-4.868c0.139,-0.237 -0.045,-5.393 2.099,-3.871c0.08,0.056 1.976,2.604 2.145,2.832Z" style="fill:#e8d09b;"/><path d="M860.876,171.951c-0.606,-0.174 -0.792,-1.099 -1.398,-1.273c-1.915,-0.551 -5.589,1.494 -6.027,1.738c-1.218,0.678 -1.322,-0.206 -2.554,0.264c-0.285,0.109 -0.086,0.727 -0.371,0.836c-0.723,0.612 -2.406,2.097 -2.614,2.281c-2.027,1.788 -1.681,-0.27 -2.197,-1.296l-0.214,-0.999c3.669,-2.742 2.198,-3.579 2.759,-8.102c0.347,-2.798 5.257,2.436 5.615,2.68c1.865,1.272 13.446,-4.564 7.001,3.872Z" style="fill:#e6c687;"/><path d="M505.344,509.013c0.027,0.164 1.708,1.055 -0.192,3.322c-1.452,1.732 0.077,2.575 -1.777,3.973c-2.87,-0.006 -3.106,0.764 -3.184,1.019c-0.968,3.166 0.201,3.297 -0.789,6.478c-3.639,-2.478 -3.707,-2.288 -8.038,-3.097c-1.433,-0.268 -1.254,-2.253 13.979,-11.696Z" style="fill:#f5e8c5;"/><path d="M763.117,202.42c0.306,0.547 -0.552,1.032 1.256,2.245c1.447,0.971 2.26,-0.019 2.381,-0.167c0.255,-0.31 -0.118,-0.887 0.136,-1.197c4.089,0.736 9.979,-1.604 6.048,1.51c-5.452,4.319 2.487,7.97 -1.201,9.136c-0.482,0.152 -0.524,-1.108 -6.306,0.463c0.903,-2.652 0.984,-2.655 0.877,-2.897c-0.101,-0.226 -0.234,-0.054 -2.39,-1.969c-0.911,-1.982 -0.938,-1.941 -2.567,-3.361c1.15,-1.781 1.108,-1.733 1.765,-3.764Z" style="fill:#ebd6a9;"/><path d="M456.698,615.618c-4.124,4.517 -5.754,3.89 -14.266,8.329c-0.196,-0.294 -0.804,-0.061 -0.999,-0.356c-1.321,-1.985 2.919,-0.819 6.088,-6.984c4.498,-1.658 1.765,-3.858 2.328,-5.984c0.174,-0.656 2.974,-4.351 6.85,4.995Z" style="fill:#f4e8c6;"/><path d="M364.905,823.741c-4.708,2.408 -4.537,2.635 -9.52,4.425c-12.858,4.619 -11.203,8.774 -13.116,14.345c-0.644,1.875 -1.634,0.866 -1.879,0.995c0.065,-8.882 2.73,-13.158 13.898,-17.35c7.756,-2.911 8.174,-4.799 10.617,-2.416Z" style="fill:#efd7af;"/><path d="M516.201,440.484c0.424,1.104 1.225,0.84 1.219,5c-0.01,7.047 5.748,28.508 4.056,29.716c-0.389,0.278 -1.023,-0.021 -1.412,0.257c-1.004,-6.671 -0.809,-6.597 -2.106,-13.207l-0.517,-2.7c-0.144,-0.658 -1.671,-7.636 -1.793,-8.222c-0.653,-4.001 0.719,-4.228 -1.202,-7.856c0.585,-0.996 1.17,-1.991 1.754,-2.987Z" style="fill:#d6a966;"/><path d="M611.322,267.459c1.227,0.223 1.271,-0.094 2.288,0.55c0.634,0.401 1.188,1.135 1.938,1.144c0.506,0.006 0.572,-0.914 1.04,-1.108c1.718,-0.712 1.79,3.018 7.75,0.481c0.944,5.119 1.114,5.028 0.862,5.881c-1.257,4.248 -4.568,-5.503 -11.717,-0.932c-5.871,3.753 -2.699,-2.13 -2.16,-6.016Z" style="fill:#ddba72;"/><path d="M834.387,113.532c0.13,0.164 1.63,2.046 1.63,2.046c2.75,3.464 6.845,-3.254 6.995,0.068c0.162,3.585 -6.824,10.103 -8.343,7.63c-3.686,-6.001 -2.279,-9.56 -1.972,-9.696c0.516,-0.227 1.174,0.178 1.69,-0.049Z" style="fill:#f1bac0;"/><path d="M836.522,205.432c-1.027,-0.007 -2.041,0.294 -3.068,0.287c-3.403,-0.024 1.122,-4.075 1.134,-4.203c0.241,-2.472 -0.271,-3.123 0.916,-2.978c4.893,0.598 5.046,0.48 5.166,0.882c0.701,2.357 -0.433,2.885 1.563,4.409c3.417,2.608 -3.189,1.895 -3.814,3.685c-0.488,1.398 0.413,1.504 -0.227,2.821c-0.231,0.476 -4.329,2.569 -2.109,-2.205c2.032,-2.389 0.435,-2.567 0.438,-2.698Z" style="fill:#e7cd99;"/><path d="M456.389,583.264c0.507,0.292 0.416,-0.541 0.916,-0.253c0.133,0.077 1.136,0.656 1.213,1.481c0.178,1.915 -5.037,-0.244 -4.972,7.021c0.254,3.939 1.176,3.5 2.175,4.25c-0.011,0.144 -0.133,1.802 -0.133,1.802c0.322,1.861 -1.258,2.318 -1.28,2.358c-4.838,-2.119 -4.42,-5.261 -5.232,-9.522c0.85,-1.267 1.7,-2.534 2.549,-3.8c2.256,-1.988 2.197,-1.899 4.763,-3.337Z" style="fill:#e9c68f;"/><path d="M378.722,790.309c2,0.472 1.921,0.5 3.974,0.826c-0.715,2.45 -1.278,2.084 -2.492,4.365c0.037,1.296 0.624,1.232 0.083,2.909c-0.392,1.214 -0.442,1.097 -0.63,2.34c-0.242,1.596 1.523,1.53 0.535,3.711c-0.203,0.448 -0.234,1.101 -0.679,1.309c-0.706,0.331 -0.55,-0.682 -1.284,-0.391c-0.621,0.247 0.187,0.827 -0.478,1.091c-0.18,-0.555 -0.36,-1.11 -0.541,-1.665c-0.186,-0.55 -0.372,-1.099 -0.558,-1.649l-0.191,-0.555c-0.263,-0.486 -0.526,-0.972 -0.79,-1.457l-0.233,-0.475c0.922,-1.857 1.464,-2.051 -0.068,-4.174c-1.914,-2.652 2.948,-5.783 3.352,-6.184Z" style="fill:#e8c38b;"/><path d="M353.724,810.04c2.153,2.38 2.181,2.266 4.816,3.972c-1.447,1.226 -2.058,2.156 -2.2,2.372c-1.163,1.768 -2.439,1.615 -3.108,3.015c-2.486,5.205 -3.579,4.482 -3.587,4.973c-0.006,0.398 0.876,0.42 0.87,0.818l-2.033,1.047c-1.18,-2.114 -0.541,-2.172 -0.597,-4.599c-0.041,-1.802 -0.461,-1.976 0.857,-3.083c1.473,-1.237 1.066,-1.479 2.202,-3.055c1.816,-2.507 0.672,-3.062 2.779,-5.46Z" style="fill:#e7c28b;"/><path d="M541.8,398.906c0.292,-0.046 0.584,-0.092 0.875,-0.138c3.511,-0.04 3.491,-1.44 6.857,-0.33c0.534,0.176 0.667,0.298 0.713,0.34c1.132,1.039 0.278,1.616 0.313,1.818c-3.124,1.399 -3.335,1.686 -3.222,5.038c-0.7,-0.132 -0.609,-0.708 -1.805,-0.342c-1.546,0.473 -1.515,0.266 -3.056,0.071c-0.265,-0.034 -0.505,-0.064 -2.618,2.081c-1.383,-3.959 -0.899,-4.047 0.69,-7.915l1.252,-0.624Z" style="fill:#ebd5a6;"/><path d="M320.701,889.23c-2.262,3.634 -0.454,3.796 -0.19,4.271c0.01,0.018 0.004,0 0.361,2.057c0.632,3.642 -1.147,3.089 -1.513,4.073c-7.126,-7.678 -4.006,-16.857 -2.849,-16.148c0.485,0.297 0.078,0.53 4.19,5.747Z" style="fill:#e3be88;"/><path d="M847.659,80.418c-1.164,-1.4 -1.346,-0.99 -3.06,-1.241c-2.919,-0.427 1.422,-1.816 0.628,-4.608c-1.235,-4.347 1.751,-1.873 2.47,-1.495c1.133,0.595 1.056,0.022 2.985,-1.166c2.784,-1.715 0.992,3.316 1.959,4.456c1.428,1.684 0.992,2.357 -1.21,2.919c-1.621,0.414 -1.753,4.296 -3.772,1.134Z" style="fill:#e7ca93;"/><path d="M333.468,895.595c4.62,0.471 8.779,-1.031 5.781,1.75c-6.982,6.476 -10.633,5.455 -14.725,5.029c5.026,-4.569 4.843,-4.843 5.958,-4.898c1.974,-0.097 2.02,-0.164 2.985,-1.881Z" style="fill:#e1b881;"/><path d="M671.485,216.519c0.421,2.048 0.645,1.975 2.523,2.982c0.458,1.399 0.357,1.341 0.835,2.804c-0.465,-0.111 -0.878,-0.39 -1.343,-0.501c-2.918,-0.7 -2.349,0.809 -2.852,3.823c-0.407,0.427 -4.82,5.317 -3.005,-1.104c0.393,-1.392 -0.219,-2.654 -0.354,-2.778c-0.533,-0.489 -1.267,-0.737 -1.765,-1.261c-1.628,-1.714 -0.012,-1.736 2.06,-2.858c0.961,-0.52 1.799,-2.816 3.902,-1.106Z" style="fill:#ebd49e;"/><path d="M814.501,227.501c-1.733,2.36 -2.17,0.62 -4.855,-0.482c-2.397,-0.984 0.266,-1.969 -0.349,-4.47c-0.893,-3.63 2.563,-1.04 4.191,-2.075c3.28,-2.087 1.947,0.969 2.186,1.959c0.181,0.746 2.54,1.426 2.076,3.211c-0.075,0.29 -0.457,-0.377 -3.249,1.858Z" style="fill:#e1bd7a;"/><path d="M509.733,519.631c-0.436,0.944 -3.361,7.27 -5.11,11.953c-0.072,-0.051 -1.162,0.365 -1.452,-1.037c-0.523,-2.534 -0.364,-2.536 -1.839,-4.743c2.454,-1.877 3.961,-6.373 4.168,-6.99l1,-0.272l1,0.077l1,-0.326l1.233,1.338Z" style="fill:#deb276;"/><path d="M737.513,217.492c-0.086,0.288 0.439,0.541 0.353,0.829c-0.015,0.051 -4.075,5.5 1.634,6.964c0.507,0.082 1.014,0.164 1.521,0.246c-0.234,0.353 0.288,0.917 0.054,1.27c-0.14,0.212 -0.241,-2.453 -3.18,-0.012c-0.351,0.291 -2.71,4.902 -3.426,2.733c-0.583,-1.768 1.588,-4.832 -2.035,-5.769c-0.27,-0.07 -4.502,-1.665 1.029,-3.333c1.353,0.104 2.165,1.464 1.916,0.147c-0.098,-0.521 -1.04,-0.59 -1.138,-1.111c0.145,-3.115 0.429,-3.335 0.655,-3.511c1.539,-1.196 1.488,0.013 2.618,1.548Z" style="fill:#efd9a8;"/><path d="M532.781,412.245c-0.227,0.632 -1.254,0.734 -1.481,1.366c-0.06,0.167 1.118,-0.162 0.672,2.115c-0.287,1.461 -0.438,1.351 -1.902,4.207c-2.008,0.964 -1.998,0.846 -3.864,2.186c-0.601,0.431 -0.638,0.417 -0.699,0.395c-0.768,-0.283 -0.301,-0.764 -1.118,-1.066c4.34,-8.906 5.391,-11.958 5.763,-13.036c1.129,-3.275 0.669,1.057 2.629,3.832Z" style="fill:#ddaf6c;"/><path d="M515.648,451.328c0.121,0.586 1.649,7.565 1.793,8.222c-0.315,0.005 -0.488,-0.505 -0.803,-0.5c-1.628,0.025 -0.992,0.773 -1.325,2.316c-0.024,0.111 -0.219,1.016 -0.542,1.318c-2.186,2.047 -2.53,1.832 -3.245,4.786c-2.572,-0.155 -2.515,-0.353 -5.028,0.018c1.133,-1.473 1.067,-1.43 2.061,-2.949c2.851,-4.357 3.384,-3.906 3.581,-4.309c1.442,-2.951 3.076,-2.56 2.149,-5.818c-0.111,-0.388 0.087,-2.624 0.215,-2.813c0.22,-0.324 0.924,0.054 1.144,-0.271Z" style="fill:#e6c185;"/><path d="M601.416,204.201l1.587,0.406c2.42,2.601 2.914,1.573 5.79,0.138c4.854,-2.422 -1.153,7.729 -3.451,8.424c-0.739,0.224 -4.497,-5.522 -4.602,-5.823c-0.577,-1.654 -0.287,-1.677 0.675,-3.145Z" style="fill:#f0b9c1;"/><path d="M450.656,638.493c4.518,4.218 4.994,3.662 5.256,4.128c0.158,0.282 -0.519,0.618 -0.36,0.9c-1.672,3.507 -1.697,3.403 -2.992,7.014c-1.638,-1.082 -1.409,-1.245 -1.794,-3.114c-0.471,-2.287 -2.158,-4.305 -2.249,-4.451c0.138,-0.372 0.92,-2.476 2.141,-4.477Z" style="fill:#dfb178;"/><path d="M755.868,177.319c1.524,4.836 5.095,2.234 5.416,5.224c0.21,1.963 -3.787,1.681 -3.468,5.929c0.183,2.433 -0.549,3.721 -2.296,2.007c-0.123,-0.121 -0.112,-0.114 -1.509,-1.535c1.295,-1.851 1.278,-2.49 1.272,-2.731c-0.05,-1.926 1.058,-1.962 0.096,-3.635c-0.296,-0.514 -0.292,-1.33 -0.833,-1.572c-0.374,-0.168 -0.585,0.937 -0.959,0.77c1.128,-1.558 1.109,-1.493 1.912,-3.209l0.368,-1.248Z" style="fill:#e8ca91;"/><path d="M447.368,645.55c-0.084,0.323 0.568,0.553 0.485,0.876c-0.109,0.419 -0.148,0.569 -4.655,2.748c-0.141,0.247 -1.681,2.945 -1.865,3.023c-4.042,1.72 -3.64,-13.559 6.035,-6.647Z" style="fill:#f0dbb1;"/><path d="M517.958,462.25c1.298,6.61 1.103,6.537 2.106,13.207c0.623,3.263 -0.421,3.016 -1.238,3.986c-1.325,-6.098 -0.884,-6.347 -4.65,-10.756c0.169,-0.28 1.928,-3.207 1.938,-3.601c0.013,-0.513 0.168,-0.365 0.385,-0.835l0.124,-0.752l1.334,-1.25Z" style="fill:#faefd3;"/><path d="M703.92,196.621c1.3,-0.895 1.163,-1.383 2.58,-1.071c3.828,0.842 3.863,0.607 4.183,0.719c2.056,0.722 -2.229,2.227 -1.018,4.166c2.296,3.677 -1.312,2.077 -2.148,2.129c-2.141,0.132 -3.171,1.848 -4.039,-1.064c0.879,-2.4 0.962,-2.381 0.442,-4.879Z" style="fill:#e5c380;"/><path d="M444.455,614.425c1.331,1.453 1.235,1.476 3.065,2.182c-3.169,6.165 -7.409,4.999 -6.088,6.984c0.196,0.294 0.804,0.061 0.999,0.356c-2.024,1.077 -1.977,1.008 -3.963,2.275c-0.129,-0.24 -2.127,-0.238 0.093,-2.656c1.793,-1.953 0.909,-5.175 3.186,-6.738c1.494,-1.026 1.305,-1.165 2.707,-2.404Z" style="fill:#e3c088;"/><path d="M547.336,405.635c1.495,2.182 1.172,2.237 2.075,4.755c-3.598,1.212 -6.316,2.605 -9.554,-2.945c2.112,-2.145 2.352,-2.114 2.618,-2.081c1.541,0.195 1.51,0.402 3.056,-0.071c1.197,-0.366 1.105,0.209 1.805,0.342Z" style="fill:#f4e5bd;"/><path d="M753.588,181.776c0.374,0.168 0.585,-0.937 0.959,-0.77c0.541,0.242 0.537,1.058 0.833,1.572c0.962,1.673 -0.146,1.708 -0.096,3.635c0.006,0.241 0.023,0.88 -1.272,2.731c-0.741,0.195 -1.556,-0.278 -2.297,-0.083c-0.845,0.223 -1.473,0.96 -2.282,1.289c-2.203,0.896 -0.403,-3.614 -0.431,-6.183c2.684,0.382 2.379,-0.569 4.585,-2.191Z" style="fill:#ecd4a5;"/><path d="M604.556,272.509l0.848,0.991c-0.504,3.139 -0.296,8.029 -0.949,10.018c-0.158,0.005 -1.977,0.064 -1.977,0.064c-0.315,-0.021 -0.628,-0.662 -0.844,-0.431c-0.139,0.149 -0.023,0.184 -0.321,2.519c-1.679,0.062 -1.668,0.073 -1.813,0.067c-0.611,-0.025 -0.49,-0.267 -1.097,-0.291c4.167,-8.881 3.462,-9.156 6.153,-12.938Z" style="fill:#e9ca84;"/><path d="M893.576,132.536c0.619,1.985 0.093,1.953 -0.055,3.96c-0.151,2.044 0.943,1.288 4.064,2.089c-0.33,4.245 2.789,6.141 -0.057,5.82c-0.279,-0.031 -4.494,-3.873 -4.568,-4.077c-1.202,-3.342 -2.335,-1.023 -3.552,-1.016c-0.271,0.001 0.26,-0.814 -0.011,-0.813c-0.017,-0.702 -0.034,-1.404 -0.05,-2.106c2.133,-1.988 2.08,-1.939 4.229,-3.857Z" style="fill:#f4e0b5;"/><path d="M465.457,570.49l1.025,1.01c-1.967,4.835 -1.862,4.773 -4.258,9.355c-2.918,-0.61 -2.869,-0.717 -5.731,-0.255c1.657,-3.037 4.029,-4.718 8.964,-10.11Z" style="fill:#ebcf9b;"/><path d="M355.496,849.501c1.847,2.505 1.37,2.953 1.175,3.136c-0.181,0.17 -0.576,0.353 -0.47,0.577c0.268,0.565 1.101,0.725 1.357,1.295c0.207,0.46 -1.995,3.762 -2.047,3.997c-0.368,1.675 0.016,1.832 -1.093,2.905c-1.249,1.207 -1.324,1.104 -1.39,1.237c-0.263,0.526 0.584,0.378 0.318,0.912l-1.12,-2.873c0.17,-0.56 1.124,-0.626 1.295,-1.186c0.759,-2.496 -1.692,-2.349 -0.855,-4.894c1.212,-3.684 0.936,-3.695 1.105,-3.979c0.351,-0.59 1.374,-0.536 1.725,-1.126Z" style="fill:#dbac6e;"/><path d="M782.6,227.406c2.406,0.452 2.416,-0.14 4.861,0.355c1.953,0.395 0.004,3.4 -0.501,5.439c-3.411,0.306 -3.463,0.597 -6.666,-0.712c1.109,-2.615 1.084,-2.507 2.306,-5.083Z" style="fill:#f0deb5;"/><path d="M819.142,174.078c1.406,3.858 -0.669,5.512 -0.607,7.438c0.012,0.356 0.392,0.831 0.12,1.062c-0.674,0.572 -1.806,0.369 -2.481,0.941c-0.528,-3.732 -0.439,-3.999 -3.693,-5.972c0.5,-0.276 0.305,0.717 0.867,0.407c0.125,-0.069 0.943,-0.52 1.03,-1.453c0.039,-0.418 -0.846,-0.549 -0.806,-0.966c0.121,-1.257 2.048,-0.579 2.937,-0.829c0.208,-0.059 1.879,-0.528 2.631,-0.627Z" style="fill:#ebd19e;"/><path d="M737.513,217.492c3.009,1.795 6.132,-1.271 5.238,2.101c-0.281,1.06 -1.401,0.618 -1.474,3.93c-0.023,1.042 -0.122,0.954 -0.257,2.007c-0.507,-0.082 -1.014,-0.164 -1.521,-0.246c-5.709,-1.464 -1.649,-6.913 -1.634,-6.964c0.086,-0.288 -0.439,-0.541 -0.353,-0.829Z" style="fill:#f5e6c1;"/><path d="M582.741,267.65c0.216,-2.685 0.91,-4.039 2.75,-2.136c1.221,1.263 2.219,-0.613 3.045,0.959c1.139,2.168 -1.03,2.505 -1.325,3.965c-0.601,2.978 -1.757,1.422 -2.913,0.442c-0.986,-0.836 -4.492,-0.288 -1.556,-3.23Z" style="fill:#e9d297;"/><path d="M529.362,456.446l0.945,1.054l-0.207,1l0.125,1l0.037,1c-2.947,4.665 -2.162,7.575 -2.661,8.11c-0.693,0.742 -0.947,0.27 -1.494,1.019c-0.319,0.437 0.399,0.481 0.081,0.917c-0.082,-0.695 -0.733,-6.234 -1.14,-8.671c3.148,-1.646 2.106,-2.553 4.314,-5.428Z" style="fill:#ebc78c;"/><path d="M755.868,177.319l-0.368,1.248c-0.804,1.717 -0.784,1.652 -1.912,3.209c-2.206,1.622 -1.901,2.573 -4.585,2.191c-0.225,-0.241 -4.182,-4.48 -0.512,-4.09c3.767,0.401 3.389,-0.777 5.189,-3.199c0.861,-1.158 1.046,-0.26 2.188,0.641Z" style="fill:#e8c98f;"/><path d="M366.513,825.427l1.067,-0.096c-0.129,0.344 0.373,0.732 0.244,1.076c-0.717,1.911 -1.965,0.938 -2.64,2.843c-0.008,0.024 0.331,1.601 -0.523,3.347c-0.603,1.232 -3.88,1.921 -4.128,2.035l-1.04,-0.206c1.289,-1.814 1.087,-1.809 2.003,-3.927c0.826,-1.909 1.733,-0.817 1.912,-1.062c0.95,-1.293 -0.685,-0.501 -2.003,-1.464c2.564,-1.295 2.5,-1.2 5.109,-2.545Z" style="fill:#e5c18a;"/><path d="M389.191,778.464c-2.426,0.004 -1.992,-0.915 -3.786,-2.081c-1.527,-0.992 -0.569,5.768 -2.907,4.908c-5.657,-2.08 4.631,-13.118 6.693,-2.827Z" style="fill:#f0d8ac;"/><path d="M455.72,595.764c3.641,-6.561 5.747,-0.578 4.558,1.647c-1.515,2.834 -5.454,2.55 -5.97,2.513c0.022,-0.04 1.602,-0.497 1.28,-2.358c0,-0 0.122,-1.658 0.133,-1.802Z" style="fill:#f4e4c2;"/><path d="M868.566,160.279c0.885,0.437 1.77,0.874 2.655,1.31c-0.287,10.349 -5.806,2.276 -5.823,1.9c-0.123,-2.817 0.341,-3.164 3.168,-3.211Z" style="fill:#e3c17b;"/><path d="M448.448,633.472c2.007,2.065 1.995,2.135 2.209,5.021c-1.221,2.001 -2.002,4.105 -2.141,4.477l-1.973,-1.14c0.306,-4.449 -0.65,-4.742 1.905,-8.359Z" style="fill:#e9c790;"/><path d="M517.441,459.55l0.517,2.7l-1.334,1.25l-0.124,0.752c-0.216,0.469 -0.372,0.321 -0.385,0.835c-0.01,0.394 -1.77,3.32 -1.938,3.601c-1.76,-0.896 -1.748,-0.893 -1.901,-0.968c-0.383,-0.187 -0.354,-0.056 -0.75,-0.25c0.715,-2.954 1.059,-2.739 3.245,-4.786c0.323,-0.303 0.518,-1.207 0.542,-1.318c0.333,-1.543 -0.303,-2.291 1.325,-2.316c0.315,-0.005 0.488,0.505 0.803,0.5Z" style="fill:#eed8a8;"/><path d="M388.037,743.901l1.463,-0.798c0.244,-0.556 1.473,-0.051 1.717,-0.607c0.364,-0.83 -0.383,-1.808 -0.264,-2.707c0.034,-0.26 1.099,-1.368 1.471,-1.465c4.764,-1.232 3.639,9.399 -4.388,5.576Z" style="fill:#f4e8c3;"/><path d="M597.027,300.369c0.227,2.003 0.698,1.939 2.236,1.745c1.337,1.865 2.405,2.333 0.484,3.625c-0.313,0.21 -0.813,1.72 -3.263,-0.227c-0.643,-0.511 -7.081,-0.188 -2.253,-2.393c0.285,-0.13 0.892,-0.407 2.796,-2.75Z" style="fill:#edd18d;"/><path d="M748.677,208.378l-0.376,1.915c-0.19,0.115 -2.316,1.405 -2.362,1.461c-1.927,2.354 -2.2,0.499 -3.17,-0.356c0.01,-0.578 0.019,-1.155 0.029,-1.733l0.554,-0.387c0.694,-0.189 1.454,0.404 2.148,0.215c1.516,-0.412 -0.198,-3.248 0.141,-3.914c1.685,-3.308 2.964,2.477 3.035,2.799Z" style="fill:#efd5a8;"/><path d="M604.455,283.518c0.338,2.538 0.249,2.49 0.29,5.054c-5.046,2.667 -5.471,1.53 -5.386,1.099c0.414,-2.097 4.086,-1.915 1.954,-4c0.297,-2.336 0.182,-2.371 0.321,-2.519c0.215,-0.231 0.529,0.409 0.844,0.431c0,0 1.819,-0.059 1.977,-0.064Z" style="fill:#eed08c;"/><path d="M383.791,754.743c-0.95,1.572 -0.746,1.655 -2.016,2.938l-1.291,0.814c-2.117,0.798 -2.102,0.799 -2.287,0.862c-0.661,0.225 -0.637,0.076 -1.336,0.314c-0.968,-3.383 0.701,-3.03 0.769,-3.171c0.542,-0.363 -0.711,-0.651 -0.145,-1.031c0.635,-0.425 0.581,0.539 1.26,0.284c0.428,-0.16 0.482,-0.804 0.85,-1.075c0.245,-0.181 0.586,-0.228 0.89,-0.209c1.045,0.066 0.943,-0.219 2.015,-0.25c0.464,-0.014 0.827,0.538 1.291,0.524Z" style="fill:#e6c38e;"/><path d="M641.316,246.3c0.025,-0.018 6.722,-6.042 6.71,-1.775c-0.003,1.012 -0.376,2.001 -0.379,3.014c-1.596,-0.551 -1.694,-0.821 -3.057,0.154c-1.477,1.056 -1.425,-0.008 -3.274,-1.393Z" style="fill:#edd8a6;"/><path d="M505.543,481.439c2.58,-3.851 0.043,-8.402 4.013,-6.055c0.973,0.575 3.177,6.727 -4.013,6.055Z" style="fill:#efd1a2;"/><path d="M449.678,600.132c0.472,0.473 0.483,0.418 2.845,2.045c-1.604,2.35 -2.088,2.241 -1.91,4.958c-0.85,-0.212 -1.699,-0.423 -2.549,-0.635c-0.09,-0.639 -0.045,-0.536 0.122,-4.012c0.024,-0.493 -1.5,-1.567 1.492,-2.356Z" style="fill:#e6c792;"/><path d="M361.039,843.255c0.589,0.974 1.032,0.382 1.573,1.277c0.036,0.06 0.057,0.095 -0.304,0.824c-3.543,7.157 -6.319,3.309 -6.5,3.195c0.233,-0.24 -0.49,-0.731 -0.257,-0.971c0.397,-0.409 1.122,-0.236 1.647,-0.459c2.733,-1.16 3.41,-3.248 3.841,-3.866Z" style="fill:#cd9251;"/><path d="M408.491,690.511l0.9,0.165c1.332,1.375 1.191,1.463 1.317,1.567c-1.816,2.975 -2.151,2.643 -6.165,6.299c-1.018,-0.019 -2.035,-0.037 -3.053,-0.056c1.359,-1.264 1.492,-1.007 2.791,-2.282c0.525,-0.305 0.519,0.334 1.005,0.051c0.153,-0.089 0.074,-0.146 1.003,-1.972c0.156,-0.152 1.636,-1.591 1.898,-1.944c0.6,-0.811 0.144,-0.864 0.304,-1.828Z" style="fill:#c47874;"/><path d="M763.919,209.545c2.155,1.914 2.289,1.742 2.39,1.969c0.107,0.242 0.026,0.244 -0.877,2.897c-4.489,3.866 -3.27,-2.683 -3.304,-2.877c-0.067,-0.388 -0.592,-0.593 -0.659,-0.981c0.39,0.006 0.627,-0.586 1.017,-0.58c1.373,0.022 1.051,0.644 1.151,0.614c0.668,-0.199 -0.352,-0.852 0.282,-1.042Z" style="fill:#e3c892;"/><path d="M761.352,206.184c1.629,1.42 1.656,1.379 2.567,3.361c-0.634,0.189 0.386,0.842 -0.282,1.042c-0.1,0.03 0.222,-0.592 -1.151,-0.614c-0.39,-0.006 -0.627,0.586 -1.017,0.58c-0.261,-0.064 -6.573,-1.298 -3.819,-2.853c0.279,-0.157 0.274,-0.112 3.702,-1.515Z" style="fill:#e8c386;"/><path d="M455.461,625.304c0.617,1.4 0.698,1.255 2.154,3.196c-0.005,0.011 0.621,1.416 -0.888,2.15c-0.391,0.19 -0.18,0.376 -0.56,0.509c-1.774,0.622 -1.574,0.859 -1.729,0.859c-0.491,0.001 -0.694,-0.877 -1.185,-0.875c0.19,-1.94 0.854,-1.708 0.902,-3.642c0.011,-0.435 -0.672,-0.69 -0.661,-1.124l1.966,-1.072Z" style="fill:#e4b879;"/><path d="M593.357,281.206c0.18,2.514 0.645,3.402 -1.879,3.543c-1.903,0.106 -1.47,0.779 -2.113,1.781l-0.371,-1.214l-1.671,-1.025c0.714,-0.849 3.287,-4.105 4.173,-3.677c0.751,0.362 0.272,0.797 0.973,1.02c0.568,0.181 0.33,-0.605 0.888,-0.427Z" style="fill:#f1d595;"/><path d="M500.791,530.452c1.338,3.987 1.87,3.641 2.177,4.055c-0.647,2.943 -0.681,3.16 -2.88,3.851c-0.732,-4.129 -1.54,-4.365 0.703,-7.906Z" style="fill:#daa767;"/><path d="M703.618,183.404c0.838,3.436 0.322,5.13 -2.928,3.706c-2.196,-0.962 -1.378,-6.635 2.928,-3.706Z" style="fill:#e3ca91;"/><path d="M618.144,261.377c2.694,0.561 2.737,0.771 5.256,-0.245c-1.222,4.538 -2.05,4.055 -4.856,4.891c-0.587,-2.294 -0.694,-2.252 -0.4,-4.646Z" style="fill:#f7e6bd;"/><path d="M651.583,230.836c1.59,3.43 4.755,4.194 2.708,5.493c-0.414,0.263 -7.506,3.151 -2.708,-5.493Z" style="fill:#e7cf9f;"/><path d="M427.931,657.479c-1.239,1.883 -1.261,1.78 -2.71,3.45c-0.658,-0.326 -1.316,-0.652 -1.974,-0.978c0.14,-1.284 0.015,-1.228 0.267,-2.45c0.638,-3.089 1.997,-2.121 4.418,-0.022Z" style="fill:#e2ba7a;"/><path d="M885.505,150.496c0.095,1.421 0.181,1.387 -0.375,2.733c-1.628,0.558 -1.618,0.553 -1.758,0.602c-0.153,0.054 -0.283,0.163 -0.437,0.218c-0.249,-0.247 -6.614,-7.628 2.57,-3.552Z" style="fill:#e7c88c;"/><path d="M913.429,137.27c-0.352,-0.023 -5.428,-0.353 -2.64,-3.527c1.678,-1.911 3.259,-0.202 3.446,0c1.471,1.591 0.598,1.849 -0.806,3.527Z" style="fill:#e5ca82;"/><path d="M633.245,222.212c4.671,-2.356 4.252,3.96 1.238,4.022c-3.759,0.078 -1.414,-3.735 -1.238,-4.022Z" style="fill:#edd5a5;"/><path d="M599.664,295.891c0.38,2.685 0.243,3.96 -0.4,6.222c-1.538,0.194 -2.009,0.259 -2.236,-1.745c0.258,-2.243 0.373,-2.252 0.279,-2.422c-0.633,-1.148 -0.916,-0.143 -0.902,-0.216c0.056,-0.294 0.147,-0.768 3.259,-1.839Z" style="fill:#e8c576;"/><path d="M380.484,758.495c0.005,0.67 0.01,1.341 0.015,2.011c-3.075,1.765 -2.998,1.719 -5.953,3.649c-0.081,-0.298 -0.846,0.29 -0.927,-0.008c-0.231,-0.852 2.936,-4.157 3.242,-4.477c0.699,-0.238 0.675,-0.089 1.336,-0.314c0.185,-0.063 0.169,-0.064 2.287,-0.862Z" style="fill:#e7c28d;"/><path d="M354.723,842.515c3.27,-2.005 3.421,-4.886 4.652,-2.746c0.974,1.695 -2.525,5.759 -4.058,4.796c-0.333,-0.209 -0.182,-0.853 -0.515,-1.063l-0.078,-0.988Z" style="fill:#d3a968;"/><path d="M788.588,199.541c3.822,-4.02 5.208,2.408 2.97,3.088c-3.043,0.925 -2.976,-2.745 -2.97,-3.088Z" style="fill:#d9b067;"/><path d="M443.595,676.509c0.431,1.028 0.862,2.056 1.293,3.083c-0.312,2.546 -0.757,2.356 -1.571,4.835c-1.092,1.421 -0.996,1.394 -1.879,3.042c-0.02,-0.244 0.015,-0.201 -0.084,-3.063c1.453,-3.849 1.303,-3.791 2.242,-7.897Z" style="fill:#80ac98;"/><path d="M890.812,154.825c0.382,-0.113 4.615,-1.361 4.962,-0.469c0.802,2.061 -6.351,6.031 -4.962,0.469Z" style="fill:#e3c382;"/><path d="M674.843,222.305c2.455,5.104 -2.84,2.603 -3.095,2.616c-0.435,0.022 -0.665,0.683 -1.1,0.706c0.504,-3.014 -0.065,-4.523 2.852,-3.823c0.465,0.111 0.878,0.39 1.343,0.501Z" style="fill:#f3e2b8;"/><path d="M588.994,285.315l0.371,1.214c0.093,0.298 2.798,5.75 -0.826,4.812c-0.201,-0.052 -0.99,-0.256 -1.565,-2.078c-0.501,-1.586 0.238,-1.454 2.02,-3.948Z" style="fill:#f4e1b2;"/><path d="M709.322,210.557c-0.329,5.688 -4.232,1.392 -3.353,-0.79c1.024,-2.542 2.412,-1.831 3.353,0.79Z" style="fill:#e5c589;"/><path d="M621.578,258.459c1.162,1.611 1.112,1.603 2.912,2.412l-1.09,0.26c-2.518,1.017 -2.562,0.806 -5.256,0.245c0.849,-2.255 1.146,-2.077 3.434,-2.917Z" style="fill:#f6e3b6;"/><path d="M905.415,101.191c-0.313,-0.093 -4.461,-1.323 -1.862,-3.628c0.409,-0.363 1.88,-0.481 2.654,0.247c1.565,1.473 0.619,1.765 -0.792,3.381Z" style="fill:#e7cf89;"/><path d="M610.456,252.476c-0.233,0.199 -3.352,2.857 -3.689,-1.013c-0.088,-1.014 3.463,-5.386 3.689,1.013Z" style="fill:#e2c384;"/><path d="M405.805,684.457c1.619,3.143 1.834,2.895 4.594,5.234l1.115,0.777c-0.708,0.069 -1.415,0.139 -2.123,0.208l-0.9,-0.165c-1.396,-1.165 -1.585,-0.797 -2.976,-2.027c0.097,-2.058 0.041,-1.973 0.29,-4.028Z" style="fill:#7bb09a;"/><path d="M633.929,237.895c0.284,-0.108 3.747,-1.421 3.453,1.592c-0.124,1.271 -5.816,3.963 -3.453,-1.592Z" style="fill:#dcb777;"/><path d="M703.92,196.621c0.52,2.499 0.437,2.479 -0.442,4.879c-0.364,-0.281 -0.117,-1.013 -0.481,-1.294c-1.114,-0.86 -1.597,0.423 -2.566,-0.63c-1.104,-1.199 0.003,-1.873 0.136,-1.955c0.239,-0.146 0.249,0.099 3.352,-1Z" style="fill:#edddba;"/><path d="M343.547,847.527c-0.493,3.559 -2.653,2.88 -3.435,3.199c-0.188,-0.737 -0.376,-1.474 -0.564,-2.212c1.342,-2.015 1.724,-1.705 3.999,-0.987Z" style="fill:#f1d5a5;"/><path d="M441.353,684.406c0.099,2.862 0.064,2.819 0.084,3.063c-2.775,3.675 -3.416,5.559 -3.599,6.095c-0.165,-0.72 -0.329,-1.44 -0.494,-2.159c0.97,-2.517 2.733,-4.368 4.009,-6.998Z" style="fill:#81b19c;"/><path d="M763.117,202.42c1.408,-3.238 2.377,-1.016 3.774,0.881c-0.255,0.31 0.118,0.887 -0.136,1.197c-0.121,0.148 -0.934,1.138 -2.381,0.167c-1.808,-1.213 -0.95,-1.698 -1.256,-2.245Z" style="fill:#ddba7d;"/><path d="M531.47,451.496c1.947,-1.078 2.88,-1.141 2.87,1.049c-0.021,4.266 -2.153,2.094 -3.324,2.052l0.402,-1.107l0.052,-1.994Z" style="fill:#d7a969;"/><path d="M619.534,235.889c2.075,0.649 3.172,0.806 1.879,2.553c-1.717,2.321 -5.886,-0.635 -1.879,-2.553Z" style="fill:#f8edd1;"/><path d="M668.53,234.06c2.289,1.079 3.045,1.945 0.911,3.358c-1.194,0.79 -6.512,-0.964 -0.911,-3.358Z" style="fill:#d5b275;"/><path d="M724.383,235.627c0.893,2.574 0.657,3.883 -1.983,3.129c-0.206,-0.059 -1.639,-0.468 -1.261,-2.364c0.414,-2.077 1.213,-1.185 3.243,-0.765Z" style="fill:#e6cf91;"/><path d="M742.987,208.945l-0.189,0.721c-0.01,0.578 -0.019,1.155 -0.029,1.733c-2.142,-0.146 -2.071,0.058 -4.223,0.3c-1.677,0.188 -2.372,-2.859 0.955,-2.202c0.277,0.055 0.999,0.197 3.485,-0.551Z" style="fill:#f8eed8;"/><path d="M861.764,177.21c0.686,1.014 5.414,5.513 -0.47,4.69c-0.651,-2.433 -0.633,-2.445 0.47,-4.69Z" style="fill:#e5cd97;"/><path d="M607.578,244.478c0.836,-4.432 4.95,-1.548 4.962,-0.986c0.034,1.665 -0.797,0.963 -2.914,1.279c-0.683,-0.098 -1.365,-0.195 -2.048,-0.293Z" style="fill:#faefd4;"/><path d="M888.226,189.37c-0.181,0.199 -2.565,2.827 -3.365,-0.003c-0.467,-1.65 3.702,-5.636 3.365,0.003Z" style="fill:#dec177;"/><path d="M754.909,229.467c0.778,-1.986 0.798,-3.224 2.58,-1.948c1.831,1.312 0.057,6.545 -2.58,1.948Z" style="fill:#e0c791;"/><path d="M880.503,169.301c-1.824,-0.756 -2.501,-0.883 -1.652,-2.615c1.156,-2.358 6.07,1.051 1.652,2.615Z" style="fill:#e2c683;"/><path d="M873.556,70.253c-1.858,-2.371 -2.021,-4.158 0.907,-3.636c0.295,0.053 4.751,1.403 -0.907,3.636Z" style="fill:#e2c377;"/><path d="M608.524,230.449c2.604,-0.683 3.745,-1.614 3.953,1.051c0.194,2.485 -1.102,1.67 -3.362,0.732c-0.197,-0.594 -0.394,-1.189 -0.591,-1.783Z" style="fill:#f9edcb;"/><path d="M880.765,130.411c1.041,1.897 1.15,1.734 2.537,3.31c-3.303,1.314 -3.611,1.041 -3.846,0.833c-0.956,-0.846 1.113,-3.857 1.309,-4.143Z" style="fill:#f4dbad;"/><path d="M712.496,212.569c1.43,1.019 1.959,0.744 1.747,1.99c-0.452,2.662 -1.465,2.025 -3.945,0.951c0.733,-0.98 1.465,-1.961 2.198,-2.941Z" style="fill:#f5e5c1;"/><path d="M395.904,725.513c1.393,2.834 -0.019,2.803 -0.353,3.866c-0.814,-0.132 -1.628,-0.264 -2.442,-0.396c0.397,-0.681 -0.137,-0.764 0.29,-1.496c0.128,-0.22 0.186,-0.146 2.505,-1.974Z" style="fill:#eed3a0;"/><path d="M883.402,120.28c-0.293,0.019 -4.501,0.299 -2.604,-2.584c0.082,-0.125 0.624,-0.949 1.727,-0.701c1.465,0.33 0.79,0.857 0.877,3.284Z" style="fill:#e3bd73;"/><path d="M785.971,210.477c0.809,-1.628 0.713,-2.378 2.448,-1.732c0.149,0.055 1.084,0.403 0.959,1.733c-0.247,2.626 -1.595,1.893 -3.407,-0.001Z" style="fill:#ead093;"/><path d="M724.84,226.372c-1.019,5.648 -2.956,1.306 -3.037,1.062c-0.862,-2.602 0.943,-2.914 3.037,-1.062Z" style="fill:#e1c68b;"/><path d="M434.471,667.689c2.984,-0.343 2.936,-0.655 5.868,0.091c0.124,0.11 -0.187,0.247 1.174,1.705l0.047,0.953c-0.448,-0.411 -0.947,-0.868 -7.089,-2.749Z" style="fill:#81baa6;"/><path d="M444.424,672.535l0.845,1.044c0.487,3.131 0.722,3.138 -0.382,6.013c-0.431,-1.028 -0.862,-2.056 -1.293,-3.083c0.633,-1.987 0.572,-1.94 0.829,-3.974Z" style="fill:#8b9f8e;"/><path d="M855.53,154.188c-1.285,-1.35 -2.511,-1.428 -1.166,-2.807c1.424,-1.462 5.517,1.492 1.166,2.807Z" style="fill:#e3c47d;"/><path d="M416.286,706.524c0.213,0.142 2.659,1.775 2.659,1.775c0.481,1.834 -0.347,1.584 -1.484,3.19c-0.392,-1.655 -0.783,-3.31 -1.175,-4.964Z" style="fill:#e2b97e;"/><path d="M440.891,700.287c0.166,0.211 2.119,1.035 2.815,5.117c-0.083,0.706 -0.167,1.412 -0.25,2.118c-2.339,-5.484 -2.479,-5.665 -2.805,-6.09l0.241,-1.145Z" style="fill:#80ab97;"/><path d="M625.456,218.507c0.52,-1.62 0.366,-2.216 2.025,-1.942c1.956,0.323 0.709,5.641 -2.025,1.942Z" style="fill:#e7cb88;"/><path d="M786.141,189.384c1.136,-1.054 1.123,-1.942 2.401,-0.945c0.131,0.102 1.144,0.893 0.639,1.97c-1.804,3.849 -2.977,-0.776 -3.04,-1.024Z" style="fill:#debb72;"/><path d="M595.031,263.823c-1.102,-4.515 2.594,-2.049 2.742,-1.417c0.555,2.372 -0.662,2.573 -2.742,1.417Z" style="fill:#e9d398;"/><path d="M729.061,204.456c1.221,-1.299 1.33,-2.351 2.562,-1.084c0.804,0.827 -0.472,6.357 -2.562,1.084Z" style="fill:#e4cc94;"/><path d="M640.38,228.421c0.954,-0.542 0.877,-0.991 1.881,-0.557c3.03,1.311 -2.249,5.017 -2.293,1.702c-0.005,-0.406 0.417,-0.739 0.412,-1.145Z" style="fill:#e9d19e;"/><path d="M600.465,248.9c3.845,4.244 -0.93,2.926 -1.144,2.812c-0.379,-0.203 -0.8,-1.302 -0.471,-2.015c0.379,-0.822 0.574,-0.51 1.615,-0.796Z" style="fill:#dab676;"/><path d="M887.686,113.473c-0.429,-5.181 2.816,-2.842 2.711,-1.982c-0.033,0.267 -0.19,1.553 -2.711,1.982Z" style="fill:#f5eac4;"/><path d="M745.385,226.638c1.938,5.32 -2.803,1.829 -2.563,0.828c0.39,-1.623 0.92,-1.043 2.563,-0.828Z" style="fill:#d4ba7d;"/><path d="M709.804,219.514c2.059,-0.519 2.988,-1.211 3.118,0.972c0.016,0.261 -1.585,4.28 -3.118,-0.972Z" style="fill:#ebd19b;"/><path d="M445.373,613.738c-1.071,-3.186 -1.652,-3.409 -0.736,-3.98c1.477,-0.921 1.745,-0.037 1.557,1.701c0,0 0.199,2.86 0.216,3.109c-0.346,-0.277 -0.691,-0.553 -1.037,-0.83Z" style="fill:#ddb477;"/><path d="M618.331,245.2c1.545,0.3 2.312,-0.292 2.225,1.302c-0.088,1.6 -4.775,2.453 -2.225,-1.302Z" style="fill:#ead29c;"/><path d="M798.917,205.023c-2.055,-4.132 2.22,-2.859 2.202,-1.548c-0.022,1.594 -1.987,1.553 -2.202,1.548Z" style="fill:#e9d39d;"/><path d="M890.444,89.306c-4.367,-1.144 -0.351,-3.704 0.758,-2.522c0.906,0.966 0.16,1.043 -0.758,2.522Z" style="fill:#e0c37b;"/><path d="M867.769,105.799c-2.922,0.945 -2.653,-3.171 -0.224,-2.382c1.504,0.489 0.799,0.957 0.224,2.382Z" style="fill:#dfc179;"/><path d="M432.229,666.922c4.196,-0.948 4.675,-0.33 5.244,-0.285l1.939,0.28l0.926,0.862c-2.932,-0.746 -2.884,-0.434 -5.868,-0.091c-1.238,-0.19 -1.154,-0.175 -2.242,-0.766Z" style="fill:#8fb093;"/><path d="M631.62,233.679c-4.067,1.432 -4.749,-1.283 -3.031,-1.855c1.101,-0.367 0.981,0.129 3.031,1.855Z" style="fill:#f8f0da;"/><path d="M886.583,94.349c2.11,3.182 -2.216,3.042 -2.156,1.149c0.049,-1.531 0.716,-0.903 2.156,-1.149Z" style="fill:#ead5a5;"/><path d="M672.914,217.001c2.603,-1.198 5.787,-1.705 3.644,0.529c-0.141,0.147 -0.175,0.07 -2.362,0.942c-0.427,-0.49 -0.854,-0.981 -1.281,-1.471Z" style="fill:#f7efdb;"/><path d="M811.568,207.401c-0.549,-1.545 -0.905,-1.616 -0.348,-2.129c1.273,-1.173 2.253,0.011 2.374,0.158c1.384,1.674 0.125,1.981 -2.026,1.971Z" style="fill:#deb76d;"/><path d="M874.48,185.701c-0.105,-0.089 -1.311,-1.116 -1.311,-1.116c-0.414,-2.943 4.633,-0.914 2.311,0.884c-0.27,0.209 -0.729,0.022 -1,0.232Z" style="fill:#dec992;"/><path d="M443.706,705.404c0.956,1.027 0.901,0.952 1.73,2.123c-0.071,1.015 -0.142,2.03 -0.213,3.045c-0.979,-1.533 -0.555,-1.704 -1.767,-3.05c0.083,-0.706 0.167,-1.412 0.25,-2.118Z" style="fill:#84ab97;"/><path d="M824.63,220.549c1.053,-1.078 1.295,-1.562 2.334,-0.469c1.131,1.19 -1.639,4.287 -2.334,0.469Z" style="fill:#dbc382;"/><path d="M848.532,191.548c-4.695,-0.581 -1.952,-2.503 -1.733,-2.627c0.94,-0.529 2.368,0.867 2.333,1.542c-0.022,0.412 -0.579,0.672 -0.6,1.084Z" style="fill:#e1ca90;"/><path d="M795.292,226.483c-2.054,3.43 -3.598,-0.772 -1.986,-1.405c1.414,-0.555 1.382,0.013 1.986,1.405Z" style="fill:#e0c48b;"/><path d="M751.64,209.013c1.021,1.273 1.515,1.153 1.098,2.652c-0.291,1.047 -0.666,0.375 -2.235,-0.168c-0.031,-0.524 -0.121,-0.421 -0.152,-0.963c-0.111,-1.895 0.965,-1.138 1.289,-1.521Z" style="fill:#f3dbad;"/><path d="M902.168,119.674c0.352,-1.488 -0.25,-2.243 1.329,-2.138c1.231,0.082 2.699,4.691 -1.329,2.138Z" style="fill:#dec586;"/><path d="M628.517,241.301c-1.177,-0.647 -1.595,-0.58 -1.242,-1.91c0.44,-1.659 4.732,0.55 1.242,1.91Z" style="fill:#dcbf79;"/><path d="M805.514,217.47c2.013,2.759 -2.222,3.098 -2.076,1.022c0.098,-1.391 0.699,-0.807 2.076,-1.022Z" style="fill:#e3ca8e;"/><path d="M626.692,225.355c-0.157,1.663 0.414,2.512 -1.225,2.293c-1.074,-0.144 -2.787,-4.406 1.225,-2.293Z" style="fill:#ecd69c;"/><path d="M885.409,106.683c2.586,2.954 -1.595,2.975 -1.96,1.841c-0.555,-1.725 0.219,-1.668 1.96,-1.841Z" style="fill:#f0e0af;"/><path d="M872.348,114.702c-0.92,-1.911 -0.835,-2.848 1.242,-2.532c0.223,0.034 3.422,1.881 -1.242,2.532Z" style="fill:#ddc488;"/><path d="M893.135,166.801c0.622,4.929 -2.484,1.489 -2.422,0.724c0.133,-1.646 0.812,-1.089 2.422,-0.724Z" style="fill:#ddc588;"/><path d="M608.524,230.449c0.197,0.594 0.394,1.189 0.591,1.783c-1.351,0.905 -1.629,1.563 -2.567,0.241c-1.194,-1.683 -0.046,-1.781 1.976,-2.023Z" style="fill:#e3c181;"/><path d="M854.454,206.078c-4.438,-2.317 0.312,-2.95 0.853,-2.384c1.023,1.071 0.117,1.12 -0.853,2.384Z" style="fill:#cbab66;"/><path d="M688.526,201.52c0.393,-0.034 0.637,-0.547 1.03,-0.581c1.124,-0.097 1.954,1.763 0.962,2.585c-1.637,1.356 -1.91,0.12 -1.992,-2.004Z" style="fill:#ecd3a7;"/><path d="M847.697,199.193c-0.429,-1.55 -1.091,-1.799 -0.026,-2.425c1.179,-0.694 4.358,2.374 0.026,2.425Z" style="fill:#d9be7d;"/><path d="M751.539,222.473c0.107,-1.448 -0.593,-2.091 0.901,-2.251c0.773,-0.083 3.895,3.724 -0.901,2.251Z" style="fill:#e5cd9a;"/><path d="M800.599,195.565c-3.696,2.129 -2.613,-2.171 -1.1,-2.18c1.518,-0.009 0.916,0.701 1.1,2.18Z" style="fill:#e9d395;"/><path d="M825.472,209.182c-3.396,-1.442 1.088,-3.597 1.376,-1.824c0.139,0.853 -0.122,1.2 -0.185,1.283c-0.43,0.57 -0.734,-0.065 -1.192,0.542Z" style="fill:#ddc58d;"/><path d="M531.47,451.496l-0.052,1.994c-2.267,-1.519 -3.671,-1.365 -2.488,-2.784c0.904,-1.085 1.035,-0.188 2.54,0.79Z" style="fill:#f2d6a8;"/><path d="M891.733,100.286c0.602,1.75 0.618,2.579 -1.256,2.311c-0.773,-0.11 -2.667,-3.814 1.256,-2.311Z" style="fill:#edd7a6;"/><path d="M895.769,182.536c-3.904,4.055 -2.522,-0.994 -2.381,-1.152c1.16,-1.297 1.299,-0.189 2.381,1.152Z" style="fill:#eee7ce;"/><path d="M876.361,93.735c1.505,3.595 -2.392,2.127 -2.154,0.669c0.213,-1.304 0.725,-0.642 2.154,-0.669Z" style="fill:#eedeb3;"/><path d="M628.68,244.633c1.714,-0.291 1.94,-0.771 2.325,0.133c0.35,0.823 -2.377,4.536 -2.325,-0.133Z" style="fill:#e6c98c;"/><path d="M706.552,227.485c0.427,-1.546 0.352,-2.24 1.801,-1.669c1.048,0.413 1.312,4.789 -1.801,1.669Z" style="fill:#e4d1a0;"/><path d="M438.731,696.349c1.517,1.795 1.615,1.722 2.161,3.938l-0.241,1.145c-1.091,-1.249 -0.971,-1.249 -2.093,-2.972c0.058,-0.704 0.115,-1.407 0.173,-2.111Z" style="fill:#7fa897;"/><path d="M894.471,115.863c0.261,0.328 0.865,0.233 1.125,0.561c1.595,2.009 -3.245,2.616 -2.29,-0.104c0,-0 1.071,-0.42 1.164,-0.457Z" style="fill:#e7cc85;"/><path d="M810.193,188.32c-4.781,1.134 -2.014,-1.939 -1.808,-2.004c1.751,-0.549 1.789,0.198 1.808,2.004Z" style="fill:#e9d18b;"/><path d="M820.445,207.62c1.86,2.5 -2.139,2.921 -1.962,0.876c0.111,-1.277 0.665,-0.718 1.962,-0.876Z" style="fill:#eeddaf;"/><path d="M445.436,707.527c0.391,0.975 0.783,1.949 1.174,2.924c-0.483,2.996 -0.414,2.928 -0.465,3.18c-0.64,-1.518 -0.648,-1.44 -0.923,-3.059c0.071,-1.015 0.142,-2.03 0.213,-3.045Z" style="fill:#8ba397;"/><path d="M664.525,242.533c-4.863,-0.54 -1.366,-2.468 -1.148,-2.485c1.829,-0.146 1.218,0.726 1.148,2.485Z" style="fill:#edd69f;"/><path d="M690.038,186.299c-2.593,2.632 -3.109,-1.716 -1.571,-1.93c1.557,-0.217 1.12,0.498 1.571,1.93Z" style="fill:#e1cb83;"/><path d="M663.384,235.006c-1.354,-0.476 -2.08,-0.094 -1.822,-1.498c0.084,-0.459 4.41,-2.911 1.822,1.498Z" style="fill:#edd29c;"/><path d="M748.677,208.378c0.988,0.211 1.975,0.423 2.963,0.634c-0.324,0.383 -1.4,-0.375 -1.289,1.521c0.032,0.543 0.122,0.439 0.152,0.963c-0.734,-0.401 -1.468,-0.802 -2.202,-1.204l0.376,-1.915Z" style="fill:#f9f2dc;"/><path d="M734.872,194.538c-3.781,3.286 -2.496,-0.873 -2.36,-1.028c1.103,-1.256 1.212,-0.171 2.36,1.028Z" style="fill:#efcf89;"/><path d="M869.758,142.202c-0.228,-1.495 -0.664,-1.925 0.79,-2.342c0.102,-0.029 4.439,2.654 -0.79,2.342Z" style="fill:#e6d18d;"/><path d="M862.724,188.52c0.683,-1.017 0.546,-1.424 1.817,-1.107c1.438,0.359 -0.269,4.301 -1.817,1.107Z" style="fill:#e4d0a4;"/><path d="M867.205,172.436c1.21,-1.036 1.169,-1.124 1.307,-1.119c2.24,0.085 0.417,4.267 -1.103,2.245c-0.229,-0.305 0.025,-0.821 -0.204,-1.126Z" style="fill:#f4e4b2;"/><path d="M796.419,213.408c1.84,0.153 1.889,0.037 1.984,0.165c1.286,1.726 -2.345,2.967 -2.443,0.918c-0.019,-0.391 0.478,-0.691 0.459,-1.082Z" style="fill:#e3c478;"/><path d="M815.365,199.324c1.478,0.231 2.232,-0.366 2.132,1.176c-0.062,0.965 -3.665,2.628 -2.132,-1.176Z" style="fill:#e7ca85;"/><path d="M694.559,228.443c-0.113,2.018 -0.409,3.264 -1.864,1.86c-0.101,-0.098 -0.864,-0.834 -0.135,-1.755c0.099,-0.126 0.144,-0.008 1.999,-0.105Z" style="fill:#e6d4a4;"/><path d="M718.269,206.248c-2.001,0.067 -3.095,-0.218 -1.88,-1.828c0.126,-0.167 2.444,-2.4 1.88,1.828Z" style="fill:#efd393;"/><path d="M650.755,238.82c0.181,0.127 2.259,1.587 0.735,2.663c-0.468,0.33 -3.654,-0.296 -0.735,-2.663Z" style="fill:#e7cd95;"/><path d="M682.683,203.392c0.114,-1.234 -0.474,-1.78 0.811,-1.925c0.894,-0.101 3.014,3.365 -0.811,1.925Z" style="fill:#efdcb6;"/><path d="M780.658,214.639c1.834,-0.268 1.863,-0.401 1.976,-0.289c0.691,0.686 -1.987,4.351 -1.976,0.289Z" style="fill:#f7dd9f;"/><path d="M878.531,159.585c1.272,0.279 1.698,-0.165 1.788,0.941c0.129,1.577 -3.909,1.652 -1.788,-0.941Z" style="fill:#eedda3;"/><path d="M644.452,225.281c-2.947,-1.329 0.165,-2.828 0.896,-1.704c0.659,1.014 0.024,0.952 -0.896,1.704Z" style="fill:#eedeb6;"/><path d="M671.485,216.519l1.429,0.482c0.427,0.49 0.854,0.981 1.281,1.471l-0.187,1.029c-1.878,-1.007 -2.102,-0.934 -2.523,-2.982Z" style="fill:#f7e7c1;"/><path d="M443.24,670.695c0.395,0.613 0.79,1.227 1.184,1.84c-0.257,2.033 -0.197,1.987 -0.829,3.974c-0.322,-4.462 -0.286,-4.454 -0.319,-4.84l-0.036,-0.973Z" style="fill:#95b9a1;"/><path d="M646.475,218.382c1.325,1.044 1.431,0.982 1.431,1.128c-0.002,0.954 -3.785,1.531 -1.431,-1.128Z" style="fill:#f1e5b8;"/><path d="M445.373,613.738c0.346,0.277 0.691,0.553 1.037,0.83c0.37,0.68 0.74,1.359 1.11,2.039c-1.83,-0.706 -1.734,-0.73 -3.065,-2.182l0.918,-0.687Z" style="fill:#e1bf87;"/><path d="M770.172,217.476c-1.379,2.404 -2.778,-0.269 -1.592,-0.802c0,-0 1.465,0.738 1.592,0.802Z" style="fill:#f3e7d2;"/><path d="M885.13,153.229c-0.196,0.828 -0.392,1.655 -0.588,2.483l-1.607,-1.663c0.153,-0.054 0.283,-0.163 0.437,-0.218c0.14,-0.05 0.13,-0.045 1.758,-0.602Z" style="fill:#ecd9af;"/><path d="M441.513,669.485c0.532,0.146 1.065,0.292 1.597,0.438l0.13,0.773l0.036,0.973c-0.48,-0.167 -0.96,-0.333 -1.441,-0.5l-0.275,-0.731l-0.047,-0.953Z" style="fill:#85b397;"/><path d="M868.566,160.279c2.46,-0.7 2.751,0.047 2.834,0.259c0.129,0.331 -0.308,0.72 -0.179,1.051c-0.885,-0.437 -1.77,-0.874 -2.655,-1.31Z" style="fill:#eedbad;"/><path d="M447.566,712.476l0.596,0.201c0.146,3.433 0.701,3.39 0.772,3.557c-0.456,-1.253 -0.912,-2.505 -1.368,-3.758Z" style="fill:#9d8988;"/><path d="M635.518,244.3c-0.377,0.403 -0.754,0.805 -1.132,1.208c-0.984,-1.845 -1.17,-1.844 -1.059,-1.986c0.243,-0.312 0.777,0.17 1.173,0.187c0.663,0.028 0.479,0.278 1.018,0.591Z" style="fill:#f7ebcd;"/><path d="M335.703,849.964c-2.387,1.154 -1.964,-0.315 -1.911,-0.464c0.288,-0.807 0.47,-0.763 0.542,-0.745c0.965,0.234 0.412,0.977 1.369,1.209Z" style="fill:#d9a66a;"/><path d="M889.347,136.394c0.017,0.702 0.034,1.404 0.05,2.106c-0.3,-0.678 -0.683,-0.275 -1.004,-1c-0.031,-0.07 -0.226,-0.511 0.144,-0.941c0.18,-0.208 0.629,0.044 0.809,-0.165Z" style="fill:#eed8a8;"/><path d="M836.522,205.432c-0.003,0.131 1.594,0.309 -0.438,2.698c-0.022,-1.396 0.077,-1.286 0.438,-2.698Z" style="fill:#ece4c9;"/><path d="M414.608,662.594c-0.966,1.033 -0.902,0.965 -1.924,2.05c0.288,-0.603 -0.406,-0.544 -0.138,-1.103c0.078,-0.164 0.15,-0.069 2.063,-0.946Z" style="fill:#96c6b3;"/><path d="M417.494,659.471c1.986,-0.607 1.994,-0.585 3.978,0.102c-1.326,-0.034 -2.652,-0.068 -3.978,-0.102Z" style="fill:#9aa78b;"/><path d="M734.241,219.455c0.098,0.521 1.04,0.59 1.138,1.111c0.249,1.318 -0.563,-0.043 -1.916,-0.147c0.259,-0.321 0.519,-0.643 0.778,-0.964Z" style="fill:#f6e9c9;"/><path d="M406.289,694.284c-0.929,1.826 -0.85,1.883 -1.003,1.972c-0.486,0.283 -0.481,-0.356 -1.005,-0.051c0.988,-0.987 0.943,-0.946 2.009,-1.921Z" style="fill:#cd7c8a;"/><path d="M534.356,435.432c0.023,0.734 0.046,1.469 0.069,2.203c-0.192,-0.249 -0.749,0.18 -0.942,-0.07c-0.046,-0.06 0.104,-0.051 0.168,-0.933c0.054,-0.759 0.332,-0.565 0.706,-1.201Z" style="fill:#eed7a1;"/><path d="M400.401,699.356c-0.088,0.147 -1.101,1.838 -1.101,1.838c-0.559,0.29 -0.536,-0.346 -1.058,-0.076c1.081,-0.897 1.021,-0.849 2.159,-1.762Z" style="fill:#c76d7d;"/><path d="M399.495,717.515c-0.42,0.653 -0.841,1.305 -1.261,1.958c0.322,-1.185 0.162,-1.245 1.261,-1.958Z" style="fill:#e8cb9a;"/><path d="M483.714,555.662c0.276,-0.387 0.553,-0.775 0.829,-1.162c-0.02,0.523 1.116,0.602 1.096,1.125c-0.006,0.154 -0.135,0.003 -1.926,0.037Z" style="fill:#f3ddaf;"/><path d="M593.596,280.577c0.52,0.055 0.47,-1.272 0.99,-1.218c2.754,0.29 -1.064,1.782 -1.229,1.847l0.239,-0.629Z" style="fill:#e9c980;"/><path d="M392.188,728.875c-1.356,0.493 -1.245,0.54 -2.613,1.022c0.871,-0.341 1.742,-0.681 2.613,-1.022Z" style="fill:#dbae6f;"/><path d="M882.935,154.049l1.607,1.663l-0.829,0.359c-0.259,-0.674 -0.519,-1.348 -0.778,-2.022Z" style="fill:#edddc1;"/><path d="M385.488,750.499c-0.443,-1.262 -1.963,-1.676 -0.628,-1.786c0,0 0.578,1.643 0.628,1.786Z" style="fill:#f1d7a6;"/><path d="M601.416,204.201c0.529,0.135 1.058,0.271 1.587,0.406l-1.587,-0.406Z" style="fill:#f0bcc1;"/><path d="M362.51,793.425c1.061,-0.324 1.015,-0.554 2.076,-0.17c-0.692,0.057 -1.384,0.113 -2.076,0.17Z" style="fill:#e3b77c;"/><path d="M607.578,244.478c0.683,0.098 1.365,0.195 2.048,0.293c-0.683,-0.098 -1.365,-0.195 -2.048,-0.293Z" style="fill:#faf5e4;"/><path d="M742.987,208.945l0.365,0.333l-0.554,0.387l0.189,-0.721Z" style="fill:#f4e2c0;"/></g></svg>
  <rect width="256" height="256" rx="32" fill="#FFD76A"/>
  <text x="50%" y="50%" dominant-baseline="middle" text-anchor="middle" font-size="28" fill="#5A3A0A">Rewards</text>
</svg>