<?xml version="1.0" encoding="UTF-8" standalone="no"?><!DOCTYPE svg PUBLIC "-//W3C//DTD SVG 1.1//EN" "http://www.w3.org/Graphics/SVG/1.1/DTD/svg11.dtd"><svg width="100%" height="100%" viewBox="0 0 2048 2048" version="1.1" xmlns="http://www.w3.org/2000/svg" xmlns:xlink="http://www.w3.org/1999/xlink" xml:space="preserve" xmlns:serif="http://www.serif.com/" style="fill-rule:evenodd;clip-rule:evenodd;stroke-linejoin:round;stroke-miterlimit:2;"><g id="Background"><path d="M1289.934,914.605c12.788,-26.638 25.299,-65.479 27.169,-71.284c21.815,-67.727 23.417,-68.252 20.199,-73.458c-11.525,-18.645 3.643,-22.859 6.672,-28.407c3.202,-5.864 -4.921,-95.356 10.377,-67.721c4.172,7.537 28.929,-2.788 46.251,11.342c27.154,22.151 30.393,15.294 54.15,15.48c1.521,0.012 9.367,1.927 -2.726,13.119c-31.303,28.973 -65,4.964 -77.011,4.43c-31.74,-1.41 -17,24.594 -16.532,24.987c20.291,17.017 1.075,22.299 4.469,34.351c30.383,107.872 59.356,158.245 66.695,171.004c14.126,24.56 -4.919,23.178 -7.799,36.151c-3.067,13.814 -3.636,13.711 -13.602,24.19c-2.225,2.339 -2.964,2.704 -2.409,64.717c0.662,74.014 -1.843,76.607 1.699,76.457c2.302,-0.098 35.317,-113.14 38.206,-123.031c0.844,-2.891 -3.862,-7.983 -4.901,-12.332c-3.048,-12.751 7.849,-18.647 9.116,-19.82c2.872,-2.659 2.841,-7.566 2.903,-69.159c0.008,-8.153 6.386,-8.576 8.415,-4.235c5.524,11.82 21.018,-4.074 42.478,15.464c18.957,17.259 20.214,18.263 45.984,15.64c3.49,-0.355 7.083,7.21 -6.64,17.328c-26.02,19.185 -43.161,6.945 -49.299,4.049c-15.746,-7.429 -30.32,-2.422 -30.932,2.354c-1.586,12.382 -3.394,13.972 6.343,22.006c15.315,12.636 -2.55,23.441 0.33,33.129c27.763,93.38 40.81,126.732 45.03,137.521c0.189,0.482 3.9,9.969 6.392,1.562c29.966,-101.082 31.208,-100.642 33.638,-109.473c1.856,-6.745 -11.53,-16.113 -0.456,-29.607c11.747,-14.314 5.852,-16.521 7.011,-80.331c0.139,-7.67 6.301,-7.499 8.555,-2.437c3.401,7.637 5.91,3.677 14.489,3.427c35.636,-1.04 39.755,31.732 75.534,26.773c25.681,-3.559 1.296,14.782 -2.081,16.738c-40.515,23.469 -48.062,-3.747 -73.453,-2.392c-19.042,1.016 -13.814,8.885 -13.371,27.56c0.314,13.201 19.231,13.307 9.351,29.743c-7.139,11.876 -1.109,12.609 9.163,52.463c44.998,174.596 74.608,173.172 61.289,185.69c-14.982,14.081 -21.213,11.863 -21.004,32.116c0.091,8.775 0.833,80.331 -1.517,109.689c0.02,0.637 0.248,7.963 0.248,7.963c3.245,9.687 3.763,-4.91 3.781,-5.436c0.256,-3.498 0.157,-3.34 1.315,-6.742c0.835,-2.451 4.372,-12.843 32.49,-5.509c5.888,1.536 8.47,3.733 5.291,45.892c-3.848,51.035 -26.704,42.282 -30.967,61.198c-1.973,8.757 11.86,235.204 13.109,255.645c1.511,24.733 -28.16,34.394 -95.057,31.172c-6.959,-0.335 -4.542,6.574 -5.965,11.272c-6.959,22.991 -69.59,28.541 -73.868,28.691c-103.681,3.638 -112.314,-17.482 -123.537,-25.962c-1.606,-1.214 -1.747,-1.644 -154.649,-1.774c-244.407,-0.208 -245.554,-2.16 -249.359,1.725c-39.384,40.219 -145.538,24.029 -158.347,20.652c-45.232,-11.927 -39.566,-26.126 -40.257,-32.139c-0.711,-6.189 -3.8,-2.417 -15.739,-1.854c-27.729,1.308 -68.572,-3.514 -79.531,-15.106c-9.752,-10.316 -4.277,-12.641 8.522,-270.204c0.535,-10.759 -26.634,-23.897 -29.454,-46.587c-7.095,-57.088 -4.817,-61.288 7.606,-63.786c37.172,-7.475 26.825,13.19 30.096,19.738c5.559,11.128 1.952,-20.111 1.893,-40.358c-0.238,-81.783 0.114,-81.633 0.083,-88.731c-0.026,-5.885 -13.724,-14.976 -21.026,-21.299c-6.504,-5.632 -0.209,-16.385 5.124,-26.792c29.658,-57.871 35.277,-85.094 68.342,-201.158c2.243,-7.875 -12.38,-16.228 -0.095,-29.483c11.17,-12.052 5.684,-14.341 6.688,-76.205c0.149,-9.193 6.966,-9.345 8.677,-4.432c3.613,10.376 17.471,-5.925 40.261,13.154c22.836,19.118 26.564,13.837 39.173,13.891c4.982,0.021 3.375,8.376 -4.512,15.28c-26.81,23.467 -41.209,-1.113 -69.162,5.619c-8.892,2.142 -4.028,27.158 -1.25,29.745c18.362,17.102 3.31,20.372 2.782,30.204c-0.122,2.268 28.04,93.66 33.915,111.776c3.707,11.431 10.228,-1.806 51.251,-141.266c3.34,-11.355 -18.47,-18.217 5.667,-34.825c5.736,-3.947 -3.804,-95.163 9.359,-73.059c3.849,6.464 5.252,4.95 12.821,4.108c18.244,-2.029 27.63,8.687 30.128,9.082c9.607,1.519 42.725,-91.969 61.686,-157.023c2.607,-8.943 -12.021,-19.448 1.137,-31.233c10.421,-9.333 5.246,-11.795 6.388,-61.489c0.406,-17.671 6.683,-14.834 7.46,-13.84c7.869,10.073 24.733,-2.832 45.676,12.621c23.768,17.538 25.02,17.234 52.444,15.767c2.735,-0.146 7.49,3.606 -0.265,10.526c-35.022,31.251 -59.783,6.134 -77.404,6.109c-17.265,-0.025 -17.45,4.683 -17.371,21.64c0.025,5.359 5.315,7.237 8.124,10.998c7.539,10.094 2.639,11.061 -1.51,22.811c-1.961,5.554 38.778,135.578 65.635,176.86c12.333,18.957 4.286,20.371 -4.357,30.875c-6.664,8.099 -0.564,15.854 -11.776,26.696c-8.724,8.436 -7.548,9.45 -7.109,21.331c0.269,7.264 3.967,3.22 11.504,2.955c21.287,-0.748 18.431,10.899 19.258,15.976c2.312,14.191 6.01,0.412 6.008,-0.059c-0.05,-12.515 -0.615,-154.263 -0.789,-156.439c-0.367,-4.588 -7.553,-8.189 -11.049,-16.966c-4.686,-11.764 -7.66,-9.616 -15.288,-19.046c-15.618,-19.307 3.024,-37.318 5.289,-40.559c38.908,-55.67 73.985,-156.371 80.182,-177.002c24.204,-80.576 28.39,-81.337 23.232,-90.061c-14.05,-23.766 7.109,-24.083 6.977,-36.531c-0.777,-73.416 2.627,-74.401 -1.919,-80.092c-18.412,-23.05 8.346,-37.605 21.451,-27.202c17.11,13.582 -4.339,29.102 6.842,26.926c5.08,-0.989 50.025,-9.734 64.389,6.633c6.43,7.327 -0.884,24.51 49.893,22.401c18.378,-0.763 48.039,-15.116 31.237,3.64c-9.94,11.096 -17.401,13.205 -19.421,14.751c-1.424,1.09 -0.978,3.476 20.785,8.676c28.189,6.735 -21.793,22.478 -49.819,22.678c-49.552,0.354 -46.035,-21.248 -46.469,-23.953c-0.549,-3.418 -1.541,-9.591 -44.011,-3.371c-15.057,2.205 -12.789,7.143 -12.809,28.899c-0.006,6.745 19.444,16.819 9.6,35.406c-5.92,11.177 -2.87,11.722 0.615,23.833c48.651,169.077 92.835,231.868 105.357,249.663c19.438,27.625 -0.326,32.905 -9.599,48.462c-11.846,19.874 -13.422,18.686 -14.175,20.526c-2.32,5.671 -1.132,5.926 -1.357,76.355c-0.27,84.969 -2.196,91.991 3.957,88.296c6.543,-3.929 -6.532,-22.736 26.137,-21.769c9.885,0.293 7.215,-4.122 7.179,-13.726c-0.033,-8.711 -10.613,-11.634 -14.08,-23.07c-2.498,-8.238 -1.428,-8.753 -11.137,-20.645c0.847,-1.261 2.828,-1.486 3.674,-2.747c0.897,-1.336 -0.899,-5.859 -1.089,-6.338c-3.079,-7.755 1.181,-7.169 4.608,-14.79l1.335,-2.113l1.179,-2.113l1.047,-2.113l1.387,-2.113l0.814,-2.113l1.415,-2.113l1.512,-2.104l0.321,-2.122c3.038,-5.259 3.085,-5.054 6.149,-10.291l0.919,-2.386l-0.15,-2.113l-3.876,-2.558Z" style="fill:#844f45;"/><path d="M261.252,557.811c15.902,-247.852 240.578,-236.074 297.167,-218.476c125.467,39.018 151.416,124.416 162.961,109.422c156.381,-203.099 393.032,-117.135 439.744,36.326c86.015,282.584 -373.785,532.194 -380.881,536.717c-47.468,30.256 -52.872,44.87 -101.826,16.124c-403.076,-236.686 -412.775,-412.899 -417.164,-480.113Z" style="fill:#925657;"/><path d="M998.216,360.954l0.643,3.97l-2.626,3.276c31.671,33.574 97.928,108.478 61.679,228.667c-47.561,157.694 -187.743,249.073 -311.912,325.268c-45.673,28.027 -53.226,19.312 -134.326,-19.004c-22.762,-10.754 -172.769,-81.627 -253.242,-177.289c-1.01,-1.201 -1.684,-2.603 -2.63,-3.845c-3.646,-4.787 -3.403,-4.8 -3.934,-4.773c-5.467,0.278 -2.462,5.098 -7.66,5.363c-27.249,-42.59 -61.025,-98.769 -55.059,-186.271c3.942,-57.817 36.028,-114.065 73.408,-140.321c123.736,-86.913 224.808,-20.099 240.975,-12.072l-5.954,5.822l5.039,4.309c47.043,38.638 62.814,110.376 106.141,105.282c8.25,-0.97 6.042,-3.534 9.872,-9.837c22.055,-15.26 35.138,-71.99 124.627,-114.297c83.855,-39.643 138.238,-17.876 154.96,-14.249Z" style="fill:#eda4b1;"/><path d="M978.018,1771.768c-6.186,-0.05 -25.404,0.673 -26.987,-1.663c-1.432,-2.113 -7.697,-121.172 -8.31,-134.539c-3.453,-75.25 -4.491,-74.995 -8.253,-150.036c-0.69,-13.765 -4.882,-20.156 9.232,-20.146c140.908,0.098 281.816,0.196 422.724,0.294c9.072,0.008 4.514,4.605 3.947,13.479c-2.415,37.833 -8.847,178.881 -9.556,194.439c-0.347,7.604 -3.505,76.871 -5.359,95.003c-0.516,5.049 -15.081,3.374 -25.751,3.29c-2.169,-0.001 -26.195,0.212 -28.394,-0.43c-2.388,-0.698 -2.272,-6.489 -2.26,-7.082c0.445,-22.19 0.506,-22.059 0.167,-44.342c-0.654,-43.013 14.784,-169.459 -112.215,-221.004c-7.047,-2.86 -37.072,-21.833 -94.129,12.465c-106.684,64.129 -83.889,172.8 -86.595,257.138c-0.164,5.106 -19.766,3.224 -28.261,3.132Z" style="fill:#f3dbc3;"/><path d="M778.274,1458.063c0.037,-0.706 0.466,-8.826 0.466,-8.826c0.83,-2.691 1.908,-3.219 72.164,-3.614c68.71,-0.387 71.569,0.434 71.811,6.078c12.691,295.572 16.712,295.412 16.062,321.125c-0.451,17.838 -122.485,34.608 -170.447,4.99c2.912,-4.597 2.863,-4.588 3.145,-4.964c1.853,-2.47 3.257,-0.095 5.168,-2.365c12.36,-14.678 3.171,-39.146 9.579,-56.873c20.638,1.181 33.776,5.241 35.615,-10.525c3.042,-26.077 -13.989,-23.707 -16.175,-23.814c-30.837,-1.507 -31.602,-1.865 -36.541,2.738c0.394,-6.103 0.694,-5.883 1.457,-31.727l3.18,2.134l2.052,2.113l0.509,2.113c0.146,3.236 0.092,3.095 0.691,6.429c1.087,6.055 -1.515,8.768 4.879,9.238c4.217,0.31 4.33,0.989 5.241,-0.222c1.188,-1.578 1.846,-49.209 1.905,-53.491c0.766,-55.453 9.76,-119.495 0.711,-128.052c-8.437,-7.978 4.221,-24.546 -5.701,-33.042l-2.929,-1.578l-1.384,1.3l-1.459,0.834Z" style="fill:#f3ddc4;"/><path d="M1496.081,1661.306c-11.236,12.086 5.436,24.725 -11.169,26.464c-19.826,2.075 -24.529,4.887 -20.122,24.002c2.86,12.405 21.569,9.654 33.27,9.761l1.095,2.724c-0.377,13.713 -0.59,13.506 -0.289,27.402c0.717,33.083 0.972,33.548 5.558,38.181c-9.052,1.369 -66.437,10.051 -114.42,-4.02c-19.772,-5.798 -23.365,-9.146 -23.193,-15.081c1.941,-67.069 7.104,-145.808 7.935,-158.476c4.163,-63.479 6.273,-162.785 8.892,-164.77c1.733,-1.313 62.07,-2.501 97.024,-1.588c43.182,1.128 46.01,0.266 46.134,5.77c0.384,17.092 2.936,130.819 8.982,213.515c-2.345,-0.928 -2.269,-0.757 -4.783,-1.328c-1.258,-7.338 -3.963,-5.001 -11.492,-4.893c-11.815,0.169 -11.641,0.619 -23.422,2.337Z" style="fill:#f5e0c6;"/><path d="M1037.852,1284.72c33.652,-33.529 29.572,-38.358 93.267,-114.175c20.937,-24.922 23.077,-35.794 30.619,-25.362c18.215,25.197 89.012,111.98 106.918,137.496l3.562,2.066c0.011,8.971 0.128,106.256 -0.181,112.135c-0.173,3.286 -3.349,3.099 -28.632,2.593c-8.434,-0.169 -2.617,-18.994 -5.029,-55.459c-4.85,-73.309 -70.151,-85.278 -98.583,-78.823c-75.832,17.215 -66.293,89.401 -65.996,129.483c0.051,6.898 -9.471,5.074 -30.918,5.114c-3.45,0.006 -4.358,0.541 -5.059,-2.861c-0.701,-3.399 -0.028,-103.23 0.033,-112.206Z" style="fill:#f9ebcf;"/><path d="M1070.092,885.164c9.691,8.935 11.333,4.205 24.224,1.511c8.128,-1.699 61.852,-12.931 103.875,-1.332c13.146,3.628 11.098,16.965 12.959,59.284c3.229,73.421 -0.745,81.094 -3.975,87.331c-6.649,6.354 -4.736,7.326 -6.356,16.36c-0.519,2.892 -10.403,2.639 -11.334,2.615c-10.869,-0.278 -4.768,-8.89 -9.146,-15.099c-5.04,-7.148 -44.913,-14.298 -45.871,8.129c-0.322,7.528 -2.072,7.74 -9.634,7.521c-9.061,-0.263 -7.982,-3.036 -9.303,-11.647c-1.969,-12.84 -24.231,-9.428 -27.432,-9.37c-23.339,0.42 -12.575,15.705 -15.718,19.259c-2.511,2.838 -4.461,-2.499 -3.563,-12.141c3.323,-35.685 -0.06,-139.653 1.272,-152.42Z" style="fill:#f9ebd2;"/><path d="M1154.536,547.98c5.14,0.245 5.396,1.233 9.214,-0.437c0.022,7.062 -0.722,7.171 8.575,37.894c68.639,226.831 114.722,239.51 94.92,234.062c-23.273,-6.403 -26.372,-46.619 -47.052,-24.445c-4.637,4.972 -4.316,5.023 -9.888,9.086c-40.006,10.225 -40.951,-43.42 -60.937,-23.395c-10.935,10.957 -8.061,24.261 -39.777,23.327c-13.879,-0.409 -8.076,-15.177 -27.53,-14.992c-0.298,-1.694 -1.32,-1.089 -1.641,-2.912c-0.031,-0.177 -0.098,-0.557 0.756,-2.113c13.662,-24.884 7.666,-35.639 22.071,-33.089l2.175,-2.898c-5.481,-7.442 -3.483,-9.812 4.832,-31.366c12.811,-33.208 20.247,-67.486 18.844,-69.98c-0.594,-1.055 -2.249,-1.249 -2.842,-2.305c24.423,-74.055 26.916,-88.523 28.279,-96.439Z" style="fill:#e997a5;"/><path d="M998.216,360.954c17.669,6.166 82.004,23.21 120.033,89.806c37.382,65.463 28.406,135.727 20.972,163.08c-51.801,190.587 -274.163,324.406 -293.416,338.083c-120.087,85.304 -129.484,80.052 -140.542,73.871c-255.089,-142.588 -340.94,-272.716 -361.055,-303.206c5.198,-0.265 2.192,-5.085 7.66,-5.363c0.531,-0.027 0.288,-0.015 3.934,4.773c0.946,1.242 1.619,2.644 2.63,3.845c80.473,95.662 230.48,166.535 253.242,177.289c81.1,38.317 88.652,47.031 134.326,19.004c124.169,-76.194 264.352,-167.574 311.912,-325.268c36.249,-120.19 -30.007,-195.093 -61.679,-228.667l2.626,-3.276l-0.643,-3.97Z" style="fill:#de899a;"/><path d="M830.762,1085.988c1.183,-4.417 12.914,-48.221 15.334,-55.071c4.594,-13.006 2.131,5.826 33.412,97.369c37.977,111.141 60.538,121.758 59.742,131.124c-0.468,5.508 -79.333,-20.488 -176.782,1.384c-5.322,1.195 0.824,-9.527 1.236,-10.246c26.364,-45.314 31.355,-61.927 41.014,-86.456l3.367,2.383l0.538,2.113l-0.666,2.113l-1.12,2.113c-0.324,1.211 -10.848,31.056 1.024,29.79c8.492,-0.906 37.774,-111.378 33.796,-116.081c-3.523,-4.166 -6.336,-0.742 -6.671,-0.334c-0.858,1.045 -1.199,1.028 -1.334,1.022c-1.639,-0.078 -1.135,-1.139 -2.89,-1.222Z" style="fill:#e692a1;"/><path d="M675.607,1540.369c3.545,-0.871 3.409,-1.054 7.198,-0.887c26.632,5.603 26.928,2.832 53.671,7.933c11.034,2.105 10.82,6.973 3.996,119.771c-0.439,7.259 -4.904,81.063 -6.661,90.656c-0.567,3.095 -0.445,2.958 0.607,5.83c-5.611,-0.058 -58.803,-0.61 -68.607,-14.312c-1.784,-2.494 8.485,-165.275 9.796,-208.991Z" style="fill:#f9ebd3;"/><path d="M1392.002,1011.02c4.621,4.767 2.988,5.551 3.631,56.158c1.213,95.415 2.478,95.364 1.716,103.621c-0.448,4.857 -2.946,3.223 -37.452,3.78c-51.689,0.835 -53.961,0.392 -54.07,-3.855c-0.476,-18.499 2.881,-107.659 0.113,-135.241c-2.357,-23.486 0.433,-24.174 2.395,-24.658c26.902,-6.633 77.024,-0.604 83.667,0.195Z" style="fill:#f4dec6;"/><path d="M1599.975,1181.066c32.559,92.13 38.791,89.478 41.447,97.518c0.133,0.403 0.538,2.415 -5.304,1.042c-6.569,-0.403 -60.009,-3.682 -82.235,-2.388c-0.437,0.025 -10.822,0.63 -3.404,-4.193c1.788,-1.163 3.777,-2.014 5.539,-3.215c10.099,-6.882 -15.246,-35.582 -29.364,-74.018c-2.612,-7.111 26.846,-85.741 36.023,-126.517c5.33,-23.684 6.073,7.943 37.298,111.771Z" style="fill:#e899a6;"/><path d="M923.25,1014.045c1.303,0.825 1.84,2.538 3.143,3.363c3.247,2.057 55.901,-9.722 63.924,3.665c4.044,6.749 5.042,59.176 4.782,77.787c-0.94,67.288 -1.441,68.478 -3.748,73.953l-0.272,1.755c-65.501,0.111 -65.854,0.526 -67.512,-1.009c-2.349,-2.176 -0.631,-152.006 -0.317,-159.513Z" style="fill:#f9ecd3;"/><path d="M1104.115,1335.694c0.316,-0.903 9.755,-46.807 57.46,-43.302c36.166,2.657 44.442,40.204 45.537,45.168c2.227,10.103 1.223,82.381 0.079,84.795c-1.144,2.415 -14.282,2.078 -15.535,2.046c-8.176,-0.21 -4.522,-8.731 -7.608,-17.46c-1.282,-3.627 -3.785,-10.706 -48.523,-6.511c-17.102,1.604 -3.222,25.104 -15.049,23.931c-13.488,-1.338 -13.382,-0.444 -14.464,-0.851c-4.357,-1.641 -4.955,-65.3 -1.897,-87.815Z" style="fill:#b28182;"/><path d="M978.175,1410.113c18.889,1.163 3.538,18.486 16.93,23.418c1.398,0.515 36.268,5.549 40.492,-3.24c3.096,-6.444 -4.896,-20.089 11.577,-20.781c31.026,-1.303 32.069,1.459 32.991,3.902c3.489,9.238 -5.31,20.473 14.471,21.093c32.903,1.031 37.501,-2.17 37.96,-8.255c0.965,-12.793 -1.188,-14.419 3.358,-15.961c0.182,-0.062 35.888,-4.232 38.767,1.087c5.898,10.899 -4.401,21.868 16.955,23.403c24.904,1.79 34.454,0.28 35.041,-8.372c0.018,-0.258 -1.925,-16.366 5.951,-16.832c36.327,-2.149 37.349,1.338 38.198,4.234c2.412,8.233 -4.661,19.684 11.38,21.168c36.395,3.367 35.7,-4.338 36.753,-10.728c0.178,-1.078 2.017,-12.243 4.034,-13.067c0.813,-0.332 0.809,-0.07 10.967,-0.943l0.466,1.32c-0.879,2.928 -6.132,20.441 -3.118,38.03c0.12,0.7 0.78,1.952 0.865,2.114c1.3,2.468 1.906,1.565 3.957,3.248c-135.69,-2.275 -335.363,-0.471 -364.524,-0.207c5.249,-8.898 7.162,-21.552 6.742,-43.185l-0.213,-1.448Z" style="fill:#f9eace;"/><path d="M1459.658,1035.327c-0.929,1.46 -1.858,2.919 -2.787,4.379l0.13,2.113l0.194,2.113l-0.188,2.113c4.998,110.268 33.483,164.485 21.142,179.298c-15.968,19.166 -25.316,12.372 -41.061,20.492c-4.265,2.199 -4.497,1.443 -6.014,2.119c-2.945,1.313 -1.745,2.216 -0.014,4.883c-57.617,2.417 -67.226,12.764 -64.612,4.514c3.35,-10.574 14.891,-11.524 48.611,-97.576c1.071,1.907 5.253,2.494 2.689,8.812c-3.26,8.035 -3.545,23.527 4.839,21.482c8.577,-2.093 31.353,-109.088 29.951,-110.223c-1.1,-0.89 -3.111,0.138 -4.21,-0.753l-2.157,0.52l-2.157,1.777l-3.232,0.259c1.13,-4.172 14.018,-51.75 14.41,-52.074c3.907,-3.222 2.483,1.153 4.465,5.751Z" style="fill:#ef9dac;"/><path d="M1032.139,1184.738c1.861,-0.056 21.713,-0.652 23.273,-0.391c2.74,0.459 0.975,2.335 -19.993,27.845c-36.882,44.873 -41.152,46.151 -35.723,53.605c7.201,9.885 23.571,7.092 23.67,7.093c6.599,0.127 3.653,24.543 3.063,25.164c-2.35,2.471 -97.246,1.38 -98.16,-0.389c-6.25,-12.085 21.313,-25.144 25.313,-31.816c-4.56,-16.722 -15.752,-26.852 -34.024,-65.317c20.027,-7.773 55.97,-1.607 65.051,-2.048c44.679,-2.17 50.469,-3.345 47.531,-13.746Z" style="fill:#e895a3;"/><path d="M1526.724,1350.189l-3.876,2.213c2.221,28.873 -4.04,33.406 -6.382,35.102c-12.351,8.942 -22.759,2.86 -29.308,10.82c-106.576,-1.916 -120.552,4.425 -129.49,3.08c-4.004,-0.603 -5.113,-1.852 -7.516,-49.053c-0.638,-12.532 -0.863,-16.272 11.886,-16.553c6.627,-0.146 0.693,7.975 5.316,20.281c2.604,2.005 2.207,2.619 5.388,3.164c20.179,3.457 10.514,-24.008 17.133,-26.424c14.042,-5.125 12.607,2.807 13.915,17.344c1.086,12.082 28.583,8.09 31.57,6.425c2.903,-1.618 3.519,-17.482 3.579,-19.029c0.293,-7.539 12.82,-6.436 28.705,-5.526c8.258,0.473 6.107,13.459 6.233,16.166c0.609,13.031 19.531,9.905 26.146,9.719c14.501,-0.407 6.352,-24.134 13.24,-25.851c14.484,-3.61 13.035,3.506 13.461,18.122Z" style="fill:#f9ead1;"/><path d="M1629.427,1538.337l-2.087,0.859c-4.406,1.651 -4.293,1.425 -8.862,2.514c-41.677,5.189 -37.55,17.223 -37.861,19.973c-0.294,2.602 1.487,1.963 1.431,2.325c-0.208,1.344 -1.745,0.265 -1.688,1.788c0.064,1.737 1.784,0.785 1.847,2.497c-4.157,3.459 -12.16,6.541 -12.294,35.548c-0.095,20.538 -1.193,24.742 12.112,26.083l-0.456,1.369c-0.245,0.95 -1.843,1.162 -2.088,2.113c-0.682,2.641 4.341,94.824 7.955,120.182c0.697,4.889 0.529,4.783 1.063,9.612c-17.89,0.476 -37.266,2.082 -37.906,-7.292c-2.014,-29.496 -10.475,-222.7 -10.08,-224.08c1.094,-3.829 3.034,-2.009 76.055,-2.827c7.006,-0.078 7.036,-1.18 10.927,0.672c1.697,0.808 1,1.272 1.933,8.665Z" style="fill:#ebc7b4;"/><path d="M915.672,678.448c-16.741,19.936 -12.595,-48.036 -37.342,-64.493c-24.829,-16.511 -62.338,-14.235 -50.031,-25.172c3.015,-2.679 51.68,-3.514 63.379,-35.107c16.715,-45.14 6.814,-53.376 17.469,-53.12c14.287,0.343 -2.872,60.256 47.5,78.394c18.857,6.79 19.301,4.741 30.334,7.951c4.429,1.289 10.46,9.21 -4.69,12.619c-43.294,9.742 -51.824,10.299 -64.203,70.514c-1.078,5.244 -1.437,5.003 -2.415,8.412Z" style="fill:#cfa47b;"/><path d="M1032.117,1816.317c-12.662,-0.791 -13.159,0.031 -14.322,-1.829c-2.181,-3.489 -2.018,-77.135 -1.811,-88.123c1.225,-65.143 -9.322,-151.209 80.176,-205.958c50.03,-30.606 71.482,-20.067 97.238,-8.565c103.832,46.369 95.835,163.182 95.859,163.802c0.415,10.985 2.987,79.079 -0.213,137.409c-0.179,3.269 -10.153,3.463 -11.084,3.481l1.113,-1.425c0.332,-6.643 3.394,-139.215 -5.111,-181.759c-10.236,-51.197 -31.771,-71.55 -36.725,-76.232c-69.286,-65.481 -102.592,-42.121 -112.486,-37.957c-24.059,10.125 -66.73,39.802 -83.034,78.85c-22.522,53.941 -13.348,165.35 -13.484,208.668c-0.002,0.77 -0.023,7.513 1.75,9.474c0.473,0.523 1.661,-0.359 2.134,0.164Z" style="fill:#f8d29a;"/><path d="M1094.67,1040.825c2.168,0.127 4.344,0.065 6.512,0.192c11.584,0.676 0.292,18.69 15.058,19.22c25.365,0.912 26.738,-3.028 26.808,-12.098c0.052,-6.745 0.971,-10.128 20.595,-8.564c15.89,1.266 3.555,19.373 19.497,20.445c18.623,1.253 25.261,4.115 26.991,-14.089c0.697,-7.331 14.55,-5.614 22.778,-5.026c6.56,0.469 -1.025,19.751 12.669,20.514c32.278,1.8 26.865,-10.62 27.196,-15.486c0.113,-1.654 0.594,-8.736 20.525,-4.986c4.473,0.842 4.762,30.105 -0.523,42.96c-1.349,-0.334 -2.699,-0.668 -4.048,-1.002c-0.841,0.005 -1.315,1.279 -2.157,1.285c-8.024,0.049 -7.77,-3.803 -75.529,-3.358c-1.905,0.013 -29.358,-0.642 -32.309,-0.048c-1.183,0.238 -1.784,1.798 -2.966,2.036c-4.663,-4.896 -13.277,-15.767 -20.917,-14.446c-4.727,0.818 -17.254,14.856 -18.568,16.328c-1.259,-0.837 -1.581,-2.665 -2.84,-3.502c-1.121,-0.745 -91.157,-0.164 -99.307,-0.549c-8.793,-0.415 -9.232,2.036 -9.232,2.036c-2.655,-3.542 -3.716,-3.534 -4.18,-36.673c-0.109,-7.756 20.513,-7.067 23.295,-1.62c2.26,4.426 -6.207,21.715 31.018,15.89c3.212,2.724 2.434,4.767 6.643,3.908c2.307,-0.47 2.193,-0.718 4.283,0.086c6.406,2.462 2.12,-3.731 2.58,-5.456c1.644,-6.168 -0.289,-6.215 0.509,-12.559c0.217,-1.724 0.582,-1.479 1.255,-3.187l2.157,-1.154l2.207,-1.097Z" style="fill:#f9e8ce;"/><path d="M825.024,1601.54c-6.615,-0.175 -20.885,2.941 -21.372,-14.618c-0.267,-9.611 7.08,-11.994 7.139,-16.831c0.072,-5.889 -7.838,-69.79 31.531,-84.472c5.287,-1.972 35.151,2.028 39.263,50.556c2.343,27.645 -2.898,29.087 5.096,42.792c2.357,4.04 7.445,23.435 -14.198,23.204c-23.814,-0.253 -23.669,-0.759 -47.459,-0.631Z" style="fill:#7f4e3c;"/><path d="M1491.374,1600.81c-59.819,1.084 -77.805,5.311 -75.01,-15.959c1.325,-10.083 6.529,-9.319 6.596,-14.808c0.075,-6.155 -7.749,-70.704 31.814,-84.606c13.125,-4.612 33.762,17.235 37.407,37.944c6.24,35.451 -3.014,40.146 6.983,53.479c3.64,4.855 2.419,13.017 2.249,14.15c-1.155,7.715 -2.506,7.532 -10.04,9.799Z" style="fill:#804d3c;"/><path d="M1070.092,885.164c16.281,-19.777 145.463,-23.727 176.957,-0.991c3.129,2.259 0.494,93.752 1.614,142.871c0.024,1.06 1.383,69.927 -4.49,12.499c-1.466,-14.329 -31.377,-9.181 -36.998,-7.584c3.23,-6.237 7.203,-13.911 3.975,-87.331c-1.861,-42.319 0.186,-55.656 -12.959,-59.284c-42.023,-11.599 -95.748,-0.367 -103.875,1.332c-12.891,2.695 -14.533,7.425 -24.224,-1.511Z" style="fill:#ebc8b4;"/><path d="M919.94,1354.505l-3.222,2.123c-0.167,2.695 -1.811,29.217 -9.338,32.483c-4.282,1.858 -66.67,2.202 -69.415,5.004c-1.038,1.059 -1.156,2.785 -2.194,3.844c-38.927,0.647 -38.774,1.285 -77.572,3.442c4.198,-7.787 2.215,-8.754 0.249,-40.547l-0.115,-2.113l2.192,-2.242c0.933,0.649 7.792,5.421 14.255,1.218c6.625,-4.309 3.209,-6.07 3.638,-20.026c0.148,-4.792 16.431,-14.112 17.492,4.222c1.026,17.731 6.627,16.71 24.775,15.922c16.186,-0.703 8.465,-18.762 11.803,-23.808c2.624,-3.967 29.387,-2.432 30.779,-1.777c4.219,1.987 1.794,3.388 2.11,13.854c0.478,15.831 23.38,11.863 26.49,11.742c19.081,-0.743 0.229,-26.065 19.399,-25.7c11.983,0.228 2.794,7.958 8.674,22.36Z" style="fill:#f9e8cf;"/><path d="M794.839,1796.061c82.529,15.278 122.857,-2.983 140.433,-9.72c5.636,-2.161 5.187,6.901 6.612,24.51c1.499,18.516 -7.409,24.227 -52.39,30.792c-1.435,0.226 -22.848,5.752 -66.714,1.667c-61.194,-5.699 -60.135,-22.982 -59.817,-28.174c1.438,-23.481 -0.061,-31.716 5.489,-28.597c12.302,6.915 12.569,6.082 26.386,9.521Z" style="fill:#f0c68d;"/><path d="M964.332,1362.93c1.291,-21.77 5.428,-31.38 -12.006,-36.055c-20.504,-5.497 -20.818,1.602 -21.276,8.722c-2.726,42.343 -6.85,-23.76 -2.062,-26.658c1.294,-0.783 94.889,-0.104 96.915,0.733c3.302,1.364 1.842,113.091 -0.024,114.858c-1.602,1.517 -24.039,0.483 -24.26,0.433c-2.49,-0.566 -5.09,-12.48 -5.339,-13.622c-3.411,-15.629 -23.563,-11.282 -28.91,-11.32c-7.052,-0.051 -5.522,-3.735 -3.038,-37.09Z" style="fill:#eac5b2;"/><path d="M1195.005,1572.018c12.236,6.954 30.615,27.543 31.177,29.492c0.215,0.744 -0.73,1.816 -0.128,2.317c0.247,0.205 0.3,0.001 4.051,0.015c0.524,16.961 0.468,21.367 0.444,23.226c-1.392,108.345 0.639,170.789 -0.211,185.897c-0.224,3.979 -5.374,3.243 -30.06,3.075c-4.528,-0.031 -5.084,-0.636 -5.14,-5.132c-0.094,-7.446 -0.729,-57.635 0.317,-93.086c0.159,-5.405 10.409,-13.419 14.765,-23.529c14.079,-32.678 -14.949,-40.147 -15.005,-48.174c-0.262,-37.115 0.43,-36.911 -0.209,-74.1Z" style="fill:#d7a083;"/><path d="M1110.537,1574.106c-0.567,74.104 0.251,75.155 -3.438,77.639c-38.095,25.65 2.742,60.027 3.009,66.116c0.088,2.014 0.101,52.536 0.102,57.105c0.009,34.65 2.08,40.771 -4.8,40.793c-20.531,0.065 -31.01,1.619 -31.055,-4.886c-0.734,-105.417 0.196,-180.801 0.39,-196.521c0.758,-0.937 2.231,-1.135 2.99,-2.073c4.547,-5.622 15.281,-29.337 32.802,-38.172Z" style="fill:#d8a284;"/><path d="M876.101,1082.132c-8.344,-25.914 -15.104,-48.788 -16.363,-53.046c-1.357,-4.591 11.017,-17.773 3.822,-27.204c-4.18,-5.479 -10.449,-3.58 -9.218,-25.663c0.411,-7.366 16.418,-7.797 18.046,-7.606c27.011,3.171 21.851,23.741 33.366,36.524c7.416,8.232 6.705,8.829 6.769,19.802c0.069,11.814 0.826,140.816 0.204,147.681c-0.057,0.624 -2.965,4.015 -4.978,-0.233c-13.566,-28.635 -29.496,-82.918 -31.65,-90.255Z" style="fill:#fdfbf8;"/><path d="M667.755,981.296c-54.227,15.637 -30.877,75.631 -49.887,71.581c-12.429,-2.648 2.129,-63.248 -49.639,-71.609c-1.671,-0.27 -19.273,-3.113 -19.955,-6.928c-2.53,-14.141 46.144,1.727 59.265,-48.619c2.572,-9.87 5.978,-39.785 14.505,-31.547c6.995,6.758 1.243,59.243 45.698,68.742c4.276,0.914 8.605,1.577 12.887,2.466c0.999,0.207 12.829,2.663 8.816,9.034c-1.479,2.349 -19.912,6.482 -21.69,6.881Z" style="fill:#c29974;"/><path d="M1378.461,1331.079c-0.35,0.863 -0.699,1.726 -1.049,2.589c-0.458,-0.588 -1.755,0.114 -2.214,-0.474c-1.434,-1.84 1.445,-12.986 -21.828,-6.362c-16.123,4.589 -14.238,9.555 -11.972,50.844c0.805,14.676 4.635,22.413 -5.239,22.135c-30.362,-0.854 -22.627,13.98 -25.404,22.436c-1.728,5.259 -25.604,2.662 -26.325,1.977c-2.942,-2.8 -2.528,-112.602 -1.619,-113.801c2.494,-3.29 50.442,-0.252 85.699,-1.164c15.207,-0.393 9.909,6.934 9.95,21.821Z" style="fill:#ecc7b4;"/><path d="M1459.658,1035.327c52.874,188.622 83.614,208.893 86.17,221.945c1.731,8.84 -6.167,-5.999 -114.767,-4.435c-1.73,-2.667 -2.931,-3.57 0.014,-4.883c1.518,-0.676 1.749,0.08 6.014,-2.119c15.746,-8.12 25.094,-1.326 41.061,-20.492c12.341,-14.813 -16.144,-69.03 -21.142,-179.298l0.188,-2.113l-0.194,-2.113l-0.13,-2.113c0.929,-1.46 1.858,-2.919 2.787,-4.379Z" style="fill:#dd8494;"/><path d="M1127.832,936.28c0.528,-2.658 4.43,-22.293 12.258,-31.643c24.684,-29.484 45.601,7.213 48.566,27.458c4.455,30.424 -2.854,42.003 7.145,45.033c6.992,2.119 9.527,14.732 4.432,22.383c-2.881,4.327 -17.754,4.451 -19.344,4.465c-48.363,0.403 -68.067,3.889 -65.364,-17.192c1.442,-11.246 12.332,-8.057 12.084,-14.705c-0.669,-17.952 -0.89,-17.81 0.223,-35.798Z" style="fill:#825243;"/><path d="M1654.608,737.74c16.817,61.555 45.519,37.993 60.134,51.524c12.89,11.934 -35.919,4.276 -52.547,37.228c-12.148,24.073 -9.562,57.161 -20.125,46.75c-9.339,-9.205 8.124,-58.207 -51.296,-72.675c-2.282,-0.556 -17.292,-2.063 -15.981,-8.235c2.816,-13.251 52.416,6.865 63.7,-63.13c0.237,-1.471 2.733,-16.953 5.888,-17.699c6.541,-1.546 7.506,11.35 10.227,26.236Z" style="fill:#cea078;"/><path d="M1388.121,1793.391c82.378,19.634 124.848,2.315 148.509,-6.096c6.204,-2.206 4.733,9.873 5.529,25.795c0.534,10.694 0.796,22.332 -57.056,30.123c-28.505,2.826 -60.076,3.802 -99.539,-8.039c-1.696,-5.675 -1.507,-5.587 -1.648,-11.629c0.023,-6.865 -1.435,-20.789 4.205,-30.154Z" style="fill:#efc38a;"/><path d="M1267.166,1184.344c1.436,1.245 2.872,2.489 4.308,3.734c1.771,0.823 1.902,3.836 10.877,5.051c20.591,2.788 20.325,3.317 40.982,6.748c9.92,14.883 16.279,27.492 18.983,32.24c2.851,3.825 2.744,3.711 5.93,7.142c2.764,4.906 5.528,9.813 8.292,14.719c-0.71,1.339 -5.476,8.701 -5.022,11.745c0.367,2.461 37.191,24.544 25.195,33.297c-2.674,1.951 -82.606,0.201 -87.95,0.03c-9.923,-0.317 -7.21,-17.989 -7.196,-22.741c0.019,-6.628 6.525,-2.883 9.348,-3.026c43.646,-2.211 8.002,-33.798 7.685,-34.197c-41.816,-52.6 -42.29,-52.677 -41.988,-53.51c0.656,-1.811 1.28,-0.965 10.556,-1.232Z" style="fill:#de8393;"/><path d="M1032.117,1816.317c-0.473,-0.523 -1.661,0.359 -2.134,-0.164c-1.773,-1.961 -1.752,-8.704 -1.75,-9.474c0.135,-43.319 -9.039,-154.728 13.484,-208.668c16.304,-39.048 58.974,-68.725 83.034,-78.85c9.893,-4.164 43.2,-27.524 112.486,37.957c4.954,4.682 26.49,25.035 36.725,76.232c8.506,42.543 5.443,175.115 5.111,181.759l-1.113,1.425c-6.423,-0.525 -6.427,-0.348 -6.937,-0.567c-3.341,-1.436 1.305,-81.001 -3.193,-157.261c-5.451,-92.406 -73.576,-129.986 -110.602,-139.636c-11.918,-3.106 -66.542,15.693 -98.172,65.057c-8.711,13.595 -29.425,45.922 -23.645,199.297c0.987,26.187 6.525,30.383 -3.294,32.893Z" style="fill:#e5af7a;"/><path d="M1618.478,1541.71c-0.726,7.851 -1.408,7.657 -1.451,15.679c-0.226,41.925 -4.092,42.107 -2.126,46.438c1.202,2.647 2.469,2.379 3.429,19.098c2.672,46.549 3.092,46.512 2.964,50.562c-0.158,5.002 2.24,3.329 3.889,4.201l2.194,3.192c-17.611,1.919 -23.189,0.713 -23.264,18.046c-0.075,17.187 7.843,12.775 25.305,11.928l-2.232,2.839c-6.017,11.992 0.917,16.606 0.67,31.676c-0.014,0.845 -0.069,4.189 1.592,10.448c-20.128,5.583 -20.085,5.077 -40.948,7.384c-0.534,-4.829 -0.366,-4.723 -1.063,-9.612c-3.614,-25.358 -8.637,-117.542 -7.955,-120.182c0.245,-0.95 1.843,-1.162 2.088,-2.113l0.456,-1.369c0.417,-0.002 17.921,0.54 21.455,-0.995c5.869,-2.549 9.62,-69.989 -21.274,-60.636c-0.063,-1.712 -1.783,-0.76 -1.847,-2.497c-0.056,-1.523 1.48,-0.444 1.688,-1.788c0.056,-0.362 -1.725,0.277 -1.431,-2.325c0.311,-2.75 -3.817,-14.783 37.861,-19.973Z" style="fill:#f9e8ce;"/><path d="M1392.409,1287.576c68.054,-9.815 119.688,-0.909 126.972,0.152c8.309,1.211 3.801,4.956 3.597,20.302c-0.137,10.306 2.811,15.033 -7.788,14.768c-24.657,-0.616 -7.42,25.354 -19.354,26.066c-15.736,0.939 -12.264,-5.652 -12.801,-13.388c-0.865,-12.448 -5.98,-14.734 -39.068,-13.597c-23.499,0.807 -6.94,26.815 -19.294,27.09c-20.373,0.454 -7.344,-13.022 -13.581,-21.566c-5.312,-7.276 -17.897,-4.987 -18.793,-5.02c-5.089,-0.183 -3.734,-32.509 -2.506,-33.706c0.673,-0.656 1.944,-0.447 2.617,-1.103Z" style="fill:#f3dbc2;"/><path d="M1345.915,785.826l3.275,2.455l-0.632,2.113l1.076,2.113l0.055,2.113c14.614,105.213 19.618,111.037 33.093,140.062c0.454,0.977 5.233,11.272 3.03,13.09c-0.59,0.487 -1.713,-0.714 -2.302,-0.228c-17.385,-1.919 -24.318,-3.719 -64.592,-0.184c-1.115,-2.863 -7.739,-19.876 -2.929,-38.191c-2.362,-7.254 -2.98,-7.687 6.652,-32.15l0.831,-2.113l0.678,-2.113l0.187,-2.113l1.344,-2.113l0.413,-2.113l0.683,-2.113l0.815,-2.113l0.526,-2.113l0.065,-2.113l-3.506,-2.325c19.296,-64.399 19.6,-64.247 21.238,-69.853Z" style="fill:#efa1ae;"/><path d="M1037.852,1284.72c-0.501,-15.606 -0.555,-15.506 -0.541,-16.855c0.153,-14.974 34.72,-43.526 114.132,-149.47c4.465,-5.956 6.303,-2.929 10.887,3.081c7.939,10.407 58.233,76.328 101.709,128.242c12.168,14.53 8.185,16.214 8.179,35.026l-3.562,-2.066c-17.906,-25.517 -88.703,-112.3 -106.918,-137.496c-7.542,-10.432 -9.682,0.44 -30.619,25.362c-63.694,75.818 -59.614,80.646 -93.267,114.175Z" style="fill:#e8c4b4;"/><path d="M748.846,1090.604l-2.311,1.922l-1.234,2.113l0.311,2.113l0.244,2.113c4.064,53.527 16.109,60.715 -7.809,126.523c-19.175,52.757 -43.745,31.685 -56.214,46.728c-1.76,2.123 -9.574,2.748 -9.937,3.181c-0.852,1.016 0.975,2.927 0.123,3.943c-3.363,0.319 -9.38,2.368 -5.24,-5.304c8.574,-15.89 23.823,-52.479 25.75,-57.103c5.539,2.438 7.017,5.558 9.726,0.29c0.128,-0.249 -1.097,-0.267 0.465,-3.455c1.118,-2.281 1.759,-1.323 3.64,-2.738c7.27,-0.045 13.428,-0.422 28.566,-84.511c2.117,-11.759 -1.22,-11.325 -2.296,-15.289c-0.362,-1.334 4.996,-6.959 -5.729,-6.237c9.555,-36.523 9.391,-36.462 10.237,-39.625c3.597,-13.449 11.368,24.04 11.709,25.336Z" style="fill:#f09fad;"/><path d="M675.607,1540.369c0.416,-8.412 -0.233,-11.364 9.244,-11.246c62.573,0.779 77.253,-1.111 79.103,1.215c2.056,2.585 -8.359,214.927 -8.839,225.572c-0.419,9.29 -12.993,7.307 -20.697,7.762c-1.052,-2.871 -1.174,-2.734 -0.607,-5.83c1.757,-9.593 6.222,-83.398 6.661,-90.656c6.824,-112.798 7.038,-117.666 -3.996,-119.771c-26.743,-5.101 -27.039,-2.33 -53.671,-7.933c-3.789,-0.167 -3.653,0.016 -7.198,0.887Z" style="fill:#eac8b6;"/><path d="M966.586,813.613c0.84,1.416 1.681,2.831 2.521,4.247l-0.163,2.113c-0.146,6.279 7.212,48.498 7.944,52.699c6.866,39.401 15.801,52.509 20.716,74.842c-58.217,-5.819 -67.983,3.922 -79.843,2.639c-18.139,-1.962 -9.538,-13 -8.94,-14.136c16.611,-31.602 14.98,-32.234 36.199,-88.798l4.004,2.334l-0.236,2.113c-15.005,43.019 -12.927,44.851 -9.377,46.327c12.966,5.39 14.845,-31.273 27.176,-84.379Z" style="fill:#ec9ba9;"/><path d="M1779.245,1077.398c10.063,43.583 13.301,47.353 44.121,54.059c11.588,2.522 13.723,10.337 2.218,13.306c-42.723,11.026 -35.498,21.872 -44.608,53.542c-2.734,9.504 -12.397,7.441 -14.119,-2.117c-11.374,-63.09 -41.484,-40.255 -52.282,-55.665c-9.736,-13.895 37.973,0.706 49.108,-43.654c1.089,-4.337 4.137,-33.613 14.029,-22.905c0.205,0.222 0.114,0.254 1.533,3.433Z" style="fill:#ae7d87;"/><path d="M1259.551,1810.755c-1.083,7.512 -3.851,5.345 -11.596,5.336c-9.382,-0.011 -9.628,0.767 -11.184,-0.77c-1.505,-1.486 -0.315,-39.428 -0.773,-65.712c-0.477,-27.4 0.447,-120.229 -0.62,-158.323c-0.321,-11.456 13.333,15.209 17.333,31.407c9.308,37.689 7.994,132.362 6.84,188.062Z" style="fill:#cc917e;"/><path d="M1067.02,1587.194c4.678,6.126 1.969,6.945 2.199,39.864c0.104,14.88 1.23,175.81 -0.272,185.998c-0.441,2.991 -16.068,2.819 -17.485,2.804c-5.971,-0.066 -4.93,-3.28 -5.485,-4.888c-0.136,-9.471 -1.406,-98.045 -0.745,-118.394c2.03,-62.465 5.291,-62.14 21.787,-105.384Z" style="fill:#c88d7c;"/><path d="M1216.713,1396.759c0.068,-51.858 4.532,-86.759 -35.652,-108.079c-15.239,-8.085 -46.281,-9.208 -70.911,15.523c-27.403,27.517 -9.566,116.352 -15.328,120.264c-7.056,4.79 -0.828,-14.921 -10.576,-22.004c-4.115,-2.99 -3.904,-3.969 -2.006,-62.705c2.027,-62.718 79.84,-89.551 123.884,-50.001c24.6,22.09 23.69,44.291 24.11,60.536c1.223,47.342 1.599,48.472 -2.11,50.188c-15.722,7.272 -4.222,18.788 -8.837,23.347c-4.966,4.905 -3.746,-11.436 -2.574,-27.069Z" style="fill:#f6cb99;"/><path d="M748.846,1090.604c15.079,49.752 14.448,49.715 31.395,98.972c2.929,8.513 -26.412,56.005 -33.134,69.734c-5.685,11.612 9.542,11.075 8.95,17.058c-0.292,2.948 -38.069,-1.888 -84.039,2.872c0.852,-1.016 -0.975,-2.927 -0.123,-3.943c0.363,-0.433 8.177,-1.058 9.937,-3.181c12.469,-15.043 37.039,6.029 56.214,-46.728c23.918,-65.808 11.874,-72.996 7.809,-126.523l-0.244,-2.113l-0.311,-2.113l1.234,-2.113l2.311,-1.922Z" style="fill:#dc8393;"/><path d="M470.414,1092.528c0.127,-1.302 1.068,-10.972 7.507,-14.597c13.043,-7.341 25.721,1.406 27.811,2.186c6.27,2.339 9.845,-21.829 25.936,-20.572c35.662,2.786 8.618,69.541 1.796,76.992c-9.789,10.691 -58.708,-11.066 -63.05,-44.009Z" style="fill:#b57686;"/><path d="M1618.994,1312.189l-2.725,2.182l-1.929,3.39l-0.439,2.949c-7.528,11.487 -5.542,40.591 -5.276,82.383c0.085,13.33 1.334,13.839 -1.122,15.862c-0.484,0.398 -1.386,-0.703 -1.87,-0.305c-12.243,0.104 -30.548,-3.758 -32.304,11.914c-0.994,8.873 0.334,12.927 -8.658,11.322c-1.239,-0.221 -11.388,-14.808 -2.98,-26.753c9.854,-14 1.018,-22.534 13.865,-23.607l2.141,0.027c20.339,-1.039 16.519,-8.743 15.479,-28.596c-0.005,-0.095 1.726,-32.564 -17.744,-35.101c-2.649,-0.345 -6.631,2.311 -10.433,0.869c-22.676,-8.601 -25.898,-2.159 -25.385,9.062c0.153,3.352 0.585,6.052 0.588,6.097c0.218,3.202 -1.521,2.855 -1.81,3.399c-6.236,-7.652 -4.826,-37.921 -3.584,-39.034c2.349,-2.105 54.398,-0.14 70.934,0.393c7.427,0.239 8.705,-2.226 13.251,3.547Z" style="fill:#f3dac4;"/><path d="M1747.688,1430.47c-0.279,0.832 -3.751,11.188 -9.586,5.634c-10.95,-10.421 8.666,-42.745 -39.535,-52.314c-18.979,-3.767 -8.41,-12.606 -2.098,-13.873c23.849,-4.786 32.564,-8.097 37.583,-42.716c0.164,-1.131 8.055,-26.268 14.455,1.876c8.632,37.956 16.41,34.741 40.813,41.638c6.401,1.809 9.028,8.238 -2.299,11.513c-28.523,8.247 -30.221,10.926 -39.334,48.242Z" style="fill:#be9d7c;"/><path d="M685.841,1314.397c1.104,0.714 -0.091,2.88 7.651,3.898c32.224,4.237 38.016,4.002 41.335,3.867c2.173,-0.088 2.15,0.072 2.125,0.238c-0.084,0.569 -0.343,0.404 -4.692,5.517c-15.344,1.88 -21.492,10.388 -19.798,49.85c1.027,23.919 21.509,7.579 24.62,16.706c2.42,7.099 -0.765,9.063 7.178,21.909c5.217,8.437 0.511,9.034 0.739,18.416c0.199,8.195 -2.633,8.782 -10.552,6.323c-7.754,-2.408 5.476,-20.576 -17.347,-22.308c-21.901,-1.662 -26.496,1.809 -26.923,9.868c-4.545,85.816 -3.828,-21.576 -3.815,-23.477c0.411,-61.458 -0.291,-83.546 -0.521,-90.807Z" style="fill:#f8e9ce;"/><path d="M1600.743,623.709c5.429,34.967 -52.537,55.803 -57.241,53.965c-17.637,-6.894 -34.478,-93.141 5.767,-74.412c11.775,5.48 7.703,19.728 19.743,13.676c21.501,-10.809 28.403,-0.203 31.731,6.772Z" style="fill:#b67787;"/><path d="M1117.634,1217.352c-0.426,-2.262 -4.035,-21.437 6.999,-27.919c17.827,-10.473 25.884,8.329 34.907,2.721c1.865,-1.159 16.14,-10.03 27.535,-1.988c28.08,19.818 -19.548,67.804 -34,62.311c-26.342,-10.012 -34.091,-31.401 -35.441,-35.124Z" style="fill:#97675c;"/><path d="M1530.994,1663.862c2.513,0.571 2.438,0.4 4.783,1.328c0.673,36.096 0.527,35.984 4.25,103.483c0.718,13.022 -12.473,15.703 -35.603,21.167c-4.586,-4.633 -4.84,-5.098 -5.558,-38.181c-0.301,-13.897 -0.088,-13.689 0.289,-27.402l-1.095,-2.724c29.092,-2.089 21.322,-13.049 22.446,-24.802c0.68,-7.104 16.004,-7.225 11.785,-10.173c-6.565,-4.588 -34.201,6.886 -34.795,-4.57c-0.645,-12.422 0.428,-15.076 4.654,-15.585c20.308,-2.449 22.008,-0.52 28.845,-2.541Z" style="fill:#eac3b4;"/><path d="M962.203,790.136c3.722,-13.611 2.903,-14.435 5.02,-14.879c2.922,-0.612 3.007,-0.034 3.802,2.682c20.657,70.506 19.908,70.67 28.227,92.909c29.299,78.323 44.788,87.316 32.953,83.595c-16.856,-5.299 -16.843,-4.505 -34.601,-6.929c-4.915,-22.333 -13.849,-35.441 -20.716,-74.842c-0.732,-4.201 -8.09,-46.419 -7.944,-52.699l0.163,-2.113c-0.84,-1.416 -1.681,-2.831 -2.521,-4.247c0.043,-1.01 0.507,-11.793 0.642,-12.621c1.584,-9.67 -2.584,-8.197 -5.026,-10.856Z" style="fill:#df8595;"/><path d="M652.481,1428.407c2.604,-0.22 9.826,-2.767 10.897,4.262c2.528,16.596 4.25,19.05 21.458,19.245c15.717,0.179 12.169,-6.268 14.602,-21.538c0.482,-3.027 12.351,-2.681 13.448,-2.649c12.254,0.357 9.073,5.674 9.588,11.253c1.199,12.989 5.043,12.05 18.437,12.23l-0.84,2.605c0.035,19.559 0.092,19.366 0.059,21.05c-0.116,5.987 0.262,5.867 2.951,11.141c-44.243,-0.565 -44.143,0.96 -88.414,-0.864c2.326,-2.606 3.028,-2.293 2.816,-5.868c-0.843,-14.189 2.156,-39.14 -3.531,-48.701l-1.47,-2.169Z" style="fill:#f8e9cb;"/><path d="M1201.569,1116.306c-8.879,-10.047 -9.14,-10.646 -8.176,-11.216c0.611,-0.361 12.307,-0.076 13.377,-0.05c64.454,1.572 65.932,1.745 66.014,4.432c0.039,1.285 0.177,60.439 0.121,61.143c-0.351,4.378 -13.622,3.343 -23.058,3.07c-5.1,-0.147 -13.89,-13.324 -48.277,-57.38Z" style="fill:#f2d7bd;"/><path d="M628.656,643.152c9.822,2.888 11.158,8.943 14.278,3.155c0.934,-1.733 4.749,-19.576 20.263,-18.071c28.305,2.745 14.478,80.001 -6.538,73.847c-48.887,-14.315 -65.081,-59.2 -28.003,-58.931Z" style="fill:#ac7381;"/><path d="M923.25,1014.045c6.989,-12.039 72.445,-5.193 78.718,-4.537c20.221,2.115 8.114,13.866 8.634,42.874c0.595,33.214 2.52,33.042 2.526,35.923c0.149,75.936 0.39,75.885 0.23,82.481c-0.149,6.138 -16.38,3.852 -22.279,3.781l0.272,-1.755c2.307,-5.475 2.808,-6.665 3.748,-73.953c0.26,-18.611 -0.738,-71.039 -4.782,-77.787c-8.022,-13.387 -60.676,-1.609 -63.924,-3.665c-1.303,-0.825 -1.84,-2.538 -3.143,-3.363Z" style="fill:#eac8b5;"/><path d="M781.145,1290.987l2.902,0.15l2.157,-0.039l2.157,-0.149l2.157,0.469l2.157,0.081l2.157,0.276l2.157,0.16l2.157,0.076c37.082,-0.173 36.727,2.017 73.486,7.067c12.016,1.651 11.519,19.907 12.476,38.591c0.304,5.93 0.463,5.856 -1.81,11.317c-5.868,-0.933 -5.955,-0.664 -6.33,-1.006c-2.121,-1.933 -1.148,-2.267 -2.055,-12.494c-1.498,-16.896 -16.915,-14.287 -32.604,-13.881c-31.542,0.817 -13.17,24.02 -23.692,26.77c-12.759,3.336 -12.503,-2.017 -13.796,-14.909c-1.474,-14.692 -18.511,-10.485 -20.562,-11.173c-3.962,-1.33 -2.052,-2.822 -2.908,-12.128c-0.068,-6.393 -0.136,-12.785 -0.205,-19.178Z" style="fill:#f8e9cd;"/><path d="M969.39,1516.127c9.746,-2.082 5.129,-5.929 5.163,-15.765c0.042,-12.126 16.981,-11.071 40.248,-10.329c5.119,0.163 20.388,-1.86 17.139,20.816c-2.778,19.383 -25.316,6.379 -26.589,14.548c-1.949,12.504 7.494,23.983 -16.481,25.049c-1.55,0.069 -1.437,-0.008 -19.396,-0.107c-16.209,-1.58 -22.906,1.774 -22.803,-14.14c0.01,-1.602 0.116,-18.046 5.501,-19.291c0.921,-0.213 15.842,-0.733 17.22,-0.782Z" style="fill:#c2978c;"/><path d="M908.397,534.707c7.753,10.857 1.316,25.918 26.828,46.328c10.835,8.668 23.444,10.629 25.656,10.973c-2.376,2.965 -2.27,3.053 -2.566,3.202c-9.969,5.019 -33.163,0.969 -45.734,48.867c-1.998,1.464 -2.68,2.711 -3.399,0.506c-1.005,-3.085 -7.096,-21.78 -20.114,-35.36c-10.158,-10.597 -10.528,-10.701 -25.146,-13.412c-11.328,-8.901 21.441,0.599 39.978,-42.624c3.812,-8.888 4.072,-16.289 4.497,-18.481Z" style="fill:#f1c588;"/><path d="M778.274,1458.063l1.459,-0.834l1.384,-1.3l2.929,1.578c9.922,8.495 -2.736,25.064 5.701,33.042c9.049,8.557 0.055,72.598 -0.711,128.052c-0.059,4.281 -0.718,51.913 -1.905,53.491c-0.912,1.211 -1.025,0.532 -5.241,0.222c-6.394,-0.47 -3.792,-3.184 -4.879,-9.238c-0.599,-3.334 -0.545,-3.193 -0.691,-6.429l-0.509,-2.113l-2.052,-2.113l-3.18,-2.134c3.654,-66.242 7.202,-176.842 7.695,-192.224Z" style="fill:#fbf5e4;"/><path d="M1267.166,1184.344c120.984,2.049 122.338,-2.126 124.638,1.417c2.626,4.045 -32.139,62.922 -35.266,68.217c-2.764,-4.906 -5.528,-9.813 -8.292,-14.719c5.786,-1.376 6.27,-0.98 6.225,-1.48c-0.046,-0.523 -0.074,-0.83 -3.66,-5.503c-3.49,-4.548 -5.332,-4.908 -8.496,-0.159c-2.704,-4.748 -9.063,-17.356 -18.983,-32.24c-20.657,-3.431 -20.391,-3.96 -40.982,-6.748c-8.974,-1.215 -9.105,-4.228 -10.877,-5.051c-1.436,-1.245 -2.872,-2.489 -4.308,-3.734Z" style="fill:#efa4b0;"/><path d="M1345.915,785.826c3.098,-10.784 2.683,-11.218 3.806,-11.523c3.621,-0.984 4.78,9.751 5.368,11.995c17.477,66.637 34.493,105.599 38.362,114.46c21.409,49.023 33.213,57.677 22.638,53.853c-10.219,-3.695 -12.915,-4.035 -32.579,-7.067c0.59,-0.487 1.713,0.714 2.302,0.228c2.203,-1.819 -2.576,-12.113 -3.03,-13.09c-13.475,-29.025 -18.479,-34.849 -33.093,-140.062l-0.055,-2.113l-1.076,-2.113l0.632,-2.113l-3.275,-2.455Z" style="fill:#dd8495;"/><path d="M1159.784,1079.214c6.587,6.393 6.159,6.463 11.71,13.8c114.586,151.472 117.262,149.446 127.175,162.651c3.191,4.25 -0.935,7.67 -9.849,7.588c-3.673,-0.034 -3.846,-0.751 -28.871,-34.969l2.898,-3.44l-1.134,-1.325l-1.724,-2.113l-1.455,-2.125l-2.157,-2.69c-20.486,-25.696 -20.509,-25.635 -21.323,-26.877c-1.519,-1.783 -3.039,-3.565 -4.558,-5.348l-2.157,-2.434l-1.712,-2.782l-1.835,-2.113c-12.31,-13.211 -41.33,-58.489 -56.842,-72.012l-3.011,3.338c-8.666,-6.248 -10.908,-8.399 -17.662,-0.138c-22.865,27.968 -21.325,28.885 -56.521,71.252c-0.686,-1.214 -2.755,-1.227 -3.442,-2.44c-0.076,-0.134 1.459,-3.498 2.076,-4.226c0.524,-0.619 1.377,-0.936 1.851,-1.594c35.697,-49.545 37.781,-48.066 40.044,-52.842l1.072,-2.611l1.085,-1.565c2.09,-3.306 6.85,-3.422 3.171,-5.017c-1.045,-0.453 -2.108,1.688 -3.171,1.277c-1.368,-0.529 -1.219,-2.974 -2.587,-3.502c0.534,-0.66 3.729,-4.607 6.611,-8.292c4.053,2.468 3.989,2.529 4.378,2.665c1.741,0.611 2.236,0.175 14.864,-17.349c1.026,-1.59 2.051,-3.18 3.077,-4.771Z" style="fill:#eba2aa;"/><path d="M1157.53,1551.029c16.768,7.747 20.168,4.708 32.378,14.739c0.084,6.434 0.94,72.271 0.005,80.43c-0.499,4.357 -15.211,0.89 -28.168,12.958c-6.404,5.965 -3.583,-3.969 -4.215,-108.127Z" style="fill:#d7a183;"/><path d="M1653.208,1428.649l-2.144,2.52l-1.523,1.52c-0.387,3.72 -3.51,33.74 -1.038,46.725c0.359,1.884 0.623,1.784 2.561,1.953c6.577,0.574 6.015,2.001 6.981,2.421c-3.733,2.142 -3.998,2.135 -73.876,2.405c-0.355,-1.559 -0.978,-1.377 -1.655,-32.376c-0.086,-3.929 -3.36,-4.82 -3.422,-4.91c4.655,-7.306 2.975,-7.721 3.831,-16.142c0.777,-7.651 22.602,-7.45 23.12,-0.105c0.877,12.426 -1.302,18.781 19.138,19.079c15.468,0.225 14.941,-4.142 16.762,-19.125c0.865,-7.123 3.934,-4.202 11.264,-3.965Z" style="fill:#f8e9cc;"/><path d="M1147.91,1551.018c-0.284,106.542 1.235,107.65 -1.094,108.631c-2.487,1.046 -11.427,-8.616 -21.869,-10.141c-6.462,-0.944 -9.206,0.893 -9.351,-5.492c-0.36,-15.76 0.099,-70.061 0.151,-76.153c23.564,-15.548 29.177,-15.385 30.636,-15.987l1.528,-0.858Z" style="fill:#d8a184;"/><path d="M1633.952,1796.531c-5.995,1.687 -47.075,13.247 -77.618,7.241c-4.685,-0.921 -3.845,-11.494 -4.968,-28.785c-0.758,-11.669 13.965,-0.301 54.296,-5.166c24.709,-2.98 35.318,-14.133 35.909,-3.28c1.066,19.553 4.134,24.194 -7.62,29.989Z" style="fill:#eec390;"/><path d="M1060.147,1173.815c-11.639,0.132 -12.605,1.946 -14.668,-1.301c-0.764,-1.202 -1.116,-61.791 -0.089,-62.788c1.488,-1.445 25.515,-0.265 62.182,-0.827c0.79,-0.012 11.511,-2.096 6.288,4.653c-46.145,59.63 -47.203,59.718 -53.712,60.264Z" style="fill:#f9e8ce;"/><path d="M1386.706,1521.427c1.29,-16.089 1.396,-35.841 2.7,-36.492c11.259,-5.618 8.493,13.432 8.29,47.04c-0.339,56.212 -5.328,117.965 -5.57,126.783c-1.172,42.709 -4.1,88.116 -6.91,90.382c-6.887,5.553 -4.981,-3.218 -5.408,-6.137c-0.78,-5.333 -2.834,-19.381 0.822,-67.343c0.125,-1.64 5.594,-141.895 6.075,-154.234Z" style="fill:#fcfaeb;"/><path d="M786.579,823.373c-1.268,-0.522 -14.083,-5.8 -15.277,-7.722c-2.44,-3.929 13.674,-9.605 15.046,-10.088c20.12,-7.087 18.952,-36.398 23.368,-38.664c7.073,-3.631 10.257,13.27 11.541,16.985c10.516,30.443 32.352,18.23 32.403,29.756c0.015,3.419 -12.493,7.572 -13.7,7.972c-23.646,7.85 -17.469,38.413 -26.138,41.698c-12.182,4.616 3.015,-23.686 -27.242,-39.936Z" style="fill:#bf9587;"/><path d="M1149.233,907.2c0.556,-0.494 5.426,-4.82 7.905,-4.959c23.847,-1.338 24.937,56.963 25.856,69.857c0.369,5.176 -14.994,3.265 -30.146,3.395c-12.147,0.105 -18.078,4.212 -17.84,-7.684c0.935,-46.766 5.351,-49.625 14.225,-60.61Z" style="fill:#b18082;"/><path d="M1157.717,1787.635c0.174,-40.036 0.188,-39.998 0.202,-40.083c0.86,-4.919 7.892,-8.201 9.421,-9.275c20.258,-14.23 23.671,-20.147 23.442,-13.949c-2.082,56.188 1.978,89.885 -3.269,91.283c-1.149,0.306 -26.062,0.236 -26.13,0.226c-5.596,-0.758 -3.626,-19.765 -3.666,-28.203Z" style="fill:#daa384;"/><path d="M1147.696,1760.152c0.305,50.856 1.074,55.575 -3.387,55.7c-27.351,0.77 -27.758,-0.589 -28.4,-2.735c-1.05,-3.508 -1.145,-81.667 -1.154,-88.769c-0.007,-5.566 4.618,1.116 25.913,15.795c9.603,6.62 6.721,8.571 7.028,20.008Z" style="fill:#daa385;"/><path d="M1610.379,1085.235c-22.155,-10.179 4.14,-10.978 12.276,-16.493c14.113,-9.567 14.484,-27.914 15.127,-31.258c0.295,-1.534 5.126,-11.191 9.482,2.038c7.931,24.086 8.271,25.904 31.57,34.626c4.082,1.528 10.213,8.174 -4.174,11.288c-35.06,7.589 -17.318,35.918 -30.133,37.944c-6.261,0.99 -8.6,-15.67 -9.495,-17.76c-7.454,-17.394 -23.421,-19.918 -24.652,-20.385Z" style="fill:#c69f88;"/><path d="M1066.556,874.845c-10.722,0.924 -14.517,-9.787 -0.035,-14.868c83.765,-29.389 198.594,-4.311 195.265,8.319c-4.226,16.036 -10.622,4.985 -26.869,-0.061c-42.228,-13.114 -84.868,-9.624 -92.784,-9.324c-38.851,1.472 -69.839,13.674 -75.577,15.934Z" style="fill:#f5cc9d;"/><path d="M1660.246,775.084c8.867,8.52 7.807,9.983 19.225,14.632c18.317,7.459 -18.056,3.257 -30.102,40.994c-7.544,23.633 -2.473,-17.72 -36.993,-34.214c-7.672,-3.666 -6.478,-5.044 -5.924,-5.369c13.911,-8.162 23.53,-2.29 36.465,-40.701c5.152,-15.3 3.065,5.636 17.329,24.658Z" style="fill:#f3cd96;"/><path d="M919.94,1354.505c0.888,0.991 8.721,9.74 16.739,1.7c3.391,-3.401 1.738,-4.052 2.764,-16.467c0.5,-6.045 7.347,-3.986 10.924,-3.161c7.695,1.774 4.581,18.031 2.955,34.941c-1.844,19.184 -0.543,30.489 -7.529,30.256c-32.159,-1.071 -31.982,-3.568 -110.023,-3.815c1.038,-1.059 1.156,-2.785 2.194,-3.844c2.745,-2.802 65.133,-3.146 69.415,-5.004c7.527,-3.266 9.171,-29.788 9.338,-32.483l3.222,-2.123Z" style="fill:#edc8b4;"/><path d="M1046.999,853.946c-2.443,-3.708 -5.003,-4.44 -1.796,-6.254c0.587,-0.332 13.321,-6.796 23.884,-9.781c103.356,-29.208 198.756,3.833 205.774,9.754c1.856,1.566 -4.743,12.679 -11.834,7.954c-21.679,-14.445 -93.995,-24.664 -155.585,-15.168c-46.34,7.145 -52.404,20.75 -60.443,13.495Z" style="fill:#e6959e;"/><path d="M1143.826,1669.668c2.949,3.929 5.25,6.996 4.036,60.829c-0.26,11.534 -46.797,-28.744 -47.529,-50.54c-0.398,-11.865 12.207,-38.96 43.493,-10.289Z" style="fill:#ee9eae;"/><path d="M1169.858,1662.605c1.669,-0.943 14.368,-8.12 23.816,-3.488c36.67,17.98 -26.566,74.712 -34.485,74.249c-2.059,-0.12 -1.907,-10.314 -1.893,-11.224c0.623,-41.793 -5.708,-45.889 12.561,-59.538Z" style="fill:#f0a2b3;"/><path d="M781.145,1290.987c3.26,-3.619 6.779,-7.527 61.126,-7.339c5.696,0.02 51.75,0.179 71.103,3.589c2.7,0.476 3.438,1.365 3.728,33.392c0.039,4.318 -6.732,1.798 -7.923,1.744c-16.877,-0.758 -15.589,5.139 -16.058,21.576c-0.191,6.709 -7.951,4.988 -9.824,5.036c2.272,-5.461 2.114,-5.387 1.81,-11.317c-0.957,-18.684 -0.46,-36.94 -12.476,-38.591c-36.759,-5.051 -36.403,-7.24 -73.486,-7.067l-2.157,-0.076l-2.157,-0.16l-2.157,-0.276l-2.157,-0.081l-2.157,-0.469l-2.157,0.149l-2.157,0.039l-2.902,-0.15Z" style="fill:#ecc8b5;"/><path d="M617.545,931.614c6.387,1.571 3.354,4.702 14.231,20.855c11.509,17.091 32.125,17.529 26.294,20.987c-20.353,12.069 -23.661,10.399 -36.263,40.549l-1.665,0.41c-0.718,-0.448 -1.097,2.207 -1.815,1.759c-0.891,-0.556 -3.401,-24.152 -33.55,-40.919c-13.851,-7.704 19.833,-2.244 32.768,-43.641Z" style="fill:#f2cc8f;"/><path d="M1215.162,810.601c0.456,1.197 1.932,1.839 2.388,3.036c1.143,3 -0.383,2.675 -4.316,7.571c-11.726,-0.368 -82.928,-13.769 -157.204,12.186c-4.88,1.705 -23.304,12.036 -18.653,-0.291c2.456,-6.51 28.337,-4.019 41.422,-28.293c3.685,-6.836 3.207,-12.969 8.825,-7.506c6.639,6.456 13.884,20.642 41.304,13.247c24.755,-6.677 21.749,-38.569 35.798,-19.473c2.182,2.965 7.904,12.808 18.638,17.616c15.809,7.081 29.379,2.689 31.799,1.905Z" style="fill:#f8d6a3;"/><path d="M1797.488,878.577c-8.362,2.846 -18.452,10.592 -24.764,-2.028c-15.049,-30.09 -8.575,-60.76 12.068,-52.367c8.191,3.33 10.269,15.742 15.088,14.805c0.83,-0.161 19.441,-8.943 23.942,8.413c3.981,15.349 -23.418,29.655 -26.335,31.178Z" style="fill:#cc9aa2;"/><path d="M1369.711,1056.774c0.361,3.614 4.233,42.381 -1.705,45.364c-0.418,0.21 -37.074,7.937 -36.972,-7.506c0.114,-17.226 -3.092,-53.337 17.942,-59.692c4.77,-1.441 9.886,2.545 10.577,3.083c7.95,6.194 9.991,18.284 10.158,18.75Z" style="fill:#804e45;"/><path d="M988.03,1086.215c-0.619,10.731 2.482,12.407 -3.8,16.105c-2.267,1.335 -36.596,4.132 -37.193,-5.39c-4.184,-66.718 23.885,-70.248 34.399,-52.393c7.272,12.349 6.575,41.005 6.594,41.679Z" style="fill:#7e4f46;"/><path d="M1234.395,446.136l-2.71,1.983l-0.139,2.113c-0.572,16.836 1.829,17.433 -3.347,25.603c-24.296,-12.872 -58.748,3.042 -60.066,-2.413c-0.595,-2.465 0.463,-2.495 0.138,-31.658c-0.017,-1.482 -0.722,-5.356 4.027,-6.118c59.98,-9.626 61.46,8.991 62.096,10.491Z" style="fill:#f4c989;"/><path d="M1124.102,1206.585c0.141,-1.246 1.326,-11.717 9.334,-12.723c3.035,-0.381 10.35,0.935 16.842,6.871c10.372,9.484 13.495,-8.193 26.218,-6.195c29.172,4.582 -7.007,47.667 -19.111,50.828c-1.393,0.364 -30.819,-8.757 -33.282,-38.78Z" style="fill:#eaa0ac;"/><path d="M457.201,488.713c-8.967,7.47 -56.811,59.084 -84.545,24.579c-34.288,-42.659 76.794,-143.241 121.038,-100.333c30.126,29.216 -25.66,67.271 -36.492,75.754Z" style="fill:#fbccd6;"/><path d="M1526.724,1350.189c0.412,0.989 3.393,8.147 9.927,9.142c13.698,2.086 10.324,-19.08 10.339,-19.616c0.247,-8.847 14.754,-4.464 14.719,2.154c-0.018,3.398 -3.212,54.812 -3.607,56.964c-0.851,4.633 -3.29,3.02 -70.944,-0.509c6.548,-7.961 16.957,-1.878 29.308,-10.82c2.342,-1.695 8.603,-6.229 6.382,-35.102l3.876,-2.213Z" style="fill:#eec9b5;"/><path d="M1496.081,1661.306c11.781,-1.718 11.607,-2.168 23.422,-2.337c7.529,-0.108 10.234,-2.445 11.492,4.893c-6.836,2.021 -8.537,0.092 -28.845,2.541c-4.226,0.51 -5.299,3.164 -4.654,15.585c0.594,11.455 28.23,-0.018 34.795,4.57c4.219,2.948 -11.105,3.069 -11.785,10.173c-1.125,11.753 6.645,22.712 -22.446,24.802c-11.701,-0.107 -30.41,2.644 -33.27,-9.761c-4.407,-19.115 0.296,-21.927 20.122,-24.002c16.605,-1.738 -0.067,-14.378 11.169,-26.464Z" style="fill:#bb8e85;"/><path d="M1629.427,1538.337c2.385,52.971 5.997,100.637 7.299,141.686c-3.116,0.285 -6.233,0.571 -9.349,0.856l-2.194,-3.192c-1.648,-0.871 -4.047,0.801 -3.889,-4.201c0.128,-4.05 -0.292,-4.013 -2.964,-50.562c-0.96,-16.719 -2.227,-16.452 -3.429,-19.098c-1.967,-4.331 1.9,-4.512 2.126,-46.438c0.043,-8.022 0.724,-7.828 1.451,-15.679c4.568,-1.089 4.456,-0.863 8.862,-2.514l2.087,-0.859Z" style="fill:#fcf6e9;"/><path d="M540.954,754.338c8.225,35.436 11.536,36.946 42.785,45.908c1.046,0.3 11.799,7.38 -2.294,11.7c-27.91,8.555 -30.643,9.572 -38.616,39.803c-9.562,36.257 -15.447,-8.561 -22.388,-20.941c-13.099,-23.363 -54.241,-17.294 -34.161,-30.145c7.943,8.489 9.788,4.244 21.88,4.619c3.229,4.325 4.002,3.319 8.01,6.771c23.371,20.128 15.605,25.722 18.035,26.661c4.466,1.726 2.84,-1.48 4.75,-7.844c6.898,-22.984 32.757,-22.292 24.661,-26.993c-11.331,-6.579 -18.456,-1.869 -27.524,-32.556l-0.285,-4.063c0.148,-4.744 -1.964,-5.448 1.764,-8.556c1.127,-0.94 2.861,-1.166 3.756,-2.32c0.427,-0.551 -0.8,-1.493 -0.373,-2.044Z" style="fill:#b07f87;"/><path d="M1130.855,1106.961c1.368,0.529 1.219,2.974 2.587,3.502c1.063,0.411 2.126,-1.73 3.171,-1.277c3.679,1.594 -1.081,1.711 -3.171,5.017l-1.085,1.565l-1.072,2.611c-2.263,4.775 -4.347,3.296 -40.044,52.842c-0.474,0.657 -1.326,0.974 -1.851,1.594c-0.616,0.728 -2.151,4.092 -2.076,4.226c0.686,1.214 2.755,1.227 3.442,2.44c-13.355,16.382 -13.101,16.538 -14.264,17.958c-53.983,65.906 -55.26,69.568 -61.444,65.801c-9.229,-5.622 1.853,-14.494 7.568,-21.36c55.443,-66.611 54.808,-66.802 108.24,-134.917Z" style="fill:#eeabb2;"/><path d="M1582.207,1568.293c30.894,-9.353 27.143,58.087 21.274,60.636c-3.534,1.535 -21.038,0.993 -21.455,0.995c-13.306,-1.341 -12.207,-5.545 -12.112,-26.083c0.134,-29.007 8.137,-32.089 12.294,-35.548Z" style="fill:#815045;"/><path d="M735.646,1610.155c-0.529,13.61 2.188,19.705 -14.138,19.625c-1.696,-0.008 -18.284,-0.09 -20.952,-3.149c-4.231,-4.851 -3.739,-67.297 21.122,-59.237c5.605,1.817 9.604,10.188 10.124,11.276c2.876,6.02 3.747,28.95 3.844,31.485Z" style="fill:#805244;"/><path d="M1024.903,1082.687c0,-0 0.438,-2.452 9.232,-2.036c8.149,0.385 98.185,-0.196 99.307,0.549c1.259,0.837 1.581,2.665 2.84,3.502c-1.947,2.621 -1.741,2.607 -3.611,5.124c-1.358,1.827 -1.398,1.631 -2.686,3.351c-9.636,12.868 -13.308,6.376 -63.399,7.903c-17.032,0.519 -23.008,6.754 -41.683,-18.392Z" style="fill:#e7c2ae;"/><path d="M516.239,1090.277c2.705,-11.065 3.59,-12.183 5.272,-14.118c15.804,-18.175 26.761,14.648 7.017,47.491c-7.936,13.201 -11.477,3.956 -24.462,-4.465c-28.971,-18.788 -27.394,-35.359 -13.348,-36.039c14.758,-0.714 14.058,16.341 25.522,7.131Z" style="fill:#e691a3;"/><path d="M1547.816,612.784c7.884,17.166 9.042,20.166 16.669,16.482c35.08,-16.942 24.288,8.918 23.356,10.721c-4.953,9.586 -38.065,34.978 -44.021,25.336c-15.258,-24.702 -13.261,-73.979 3.996,-52.539Z" style="fill:#e793a3;"/><path d="M1171.484,204.751c15.044,51.036 19.071,54.562 69.102,64.387c5.661,1.112 9.627,10.676 -4.224,14.155c-66.872,16.796 -47.253,36.407 -65.83,71.029c-13.773,25.668 -20.69,-31.243 -32.186,-46.008c-24.363,-31.291 -78.099,-25.034 -51.563,-37.727c8.831,-4.224 48.709,-1.229 62.508,-48.745c7.197,-24.784 3.446,-31.028 13.744,-28.611c8.361,1.962 5.778,4.253 8.45,11.519Z" style="fill:#ceaf91;"/><path d="M1175.768,1082.819c1.183,-0.238 1.784,-1.798 2.966,-2.036c2.95,-0.593 30.404,0.061 32.309,0.048c67.759,-0.445 67.505,3.407 75.529,3.358c0.841,-0.005 1.315,-1.279 2.157,-1.285c1.349,0.334 2.699,0.668 4.048,1.002c-1.276,1.595 -13.726,17.16 -19.167,16.995c-6.213,-0.188 -51.213,-1.546 -77.684,-1.282c-9.604,0.096 -9.082,-2.136 -20.159,-16.802Z" style="fill:#e8c3af;"/><path d="M1314.353,977.428c39.705,-3.181 51.477,-6.209 93.167,4.747c-2.719,3.135 -2.852,3.013 -3.701,7.03c-0.996,4.709 -0.732,4.703 1.958,8.832c-9.882,9.51 -17.489,-2.312 -65.287,-0.632c-10.864,0.382 -10.758,0.263 -21.584,2.004c1.615,-7.308 0.394,-7.146 -1.137,-14.624c-0.851,-4.158 -1.284,-3.796 -3.415,-7.358Z" style="fill:#f3cd94;"/><path d="M997.638,976.032c-4.794,10.607 -2.089,11.277 -6.519,22.233c-38.542,-2.659 -38.512,-1.305 -69.069,3.167c-0.464,0.068 -5.686,1.254 -10.004,-4.573c-11.868,-16.016 2.357,-15.844 3.579,-16.213c36.667,-8.865 51.769,-6.553 82.013,-4.614Z" style="fill:#f6d4a0;"/><path d="M1126.257,644.418c0.594,1.055 2.249,1.249 2.842,2.305c1.402,2.493 -6.033,36.772 -18.844,69.98c-8.316,21.554 -10.313,23.924 -4.832,31.366l-2.175,2.898c-14.404,-2.55 -8.408,8.205 -22.071,33.089c-0.854,1.556 -0.787,1.936 -0.756,2.113c0.321,1.823 1.343,1.217 1.641,2.912c-17.15,9.923 -8.605,19.772 -30.485,29.451c-10.962,4.849 0.107,-5.121 26.71,-55.111c20.115,-37.798 44.642,-109.299 47.97,-119.001Z" style="fill:#f1a9b5;"/><path d="M932.183,1268.862c0.001,4.468 -1.656,3.577 -5.943,7.318c-10.054,8.775 -54.39,-11.562 -144.298,2.669c-8.741,1.384 -16.609,-8.381 -11.355,-9.776c57.598,-15.291 148.807,-2.066 161.596,-0.212Z" style="fill:#edb288;"/><path d="M1394.222,1277.573c-9.842,2.049 -10.432,2.026 -18.208,-4.331c-3.505,-2.866 -1.104,-4.034 3.411,-4.778c11.548,-1.903 76.564,-12.615 146.372,-1.651c1.027,0.161 12.962,2.036 12.051,4.787c-0.144,0.435 -7.233,6.549 -9.607,7.219c-11.621,3.281 -34.183,-13.257 -134.019,-1.246Z" style="fill:#f0b98f;"/><path d="M769.122,1682.014c4.939,-4.603 5.704,-4.245 36.541,-2.738c2.186,0.107 19.218,-2.263 16.175,23.814c-1.839,15.765 -14.977,11.706 -35.615,10.525c-7.649,-1.677 -7.696,-0.848 -15.117,-3.311l-3.05,-0.958c0.624,-13.724 0.454,-13.576 1.066,-27.331Z" style="fill:#ddb6ae;"/><path d="M830.762,1085.988c1.755,0.083 1.251,1.144 2.89,1.222c0.135,0.006 0.476,0.023 1.334,-1.022c0.335,-0.408 3.148,-3.832 6.671,0.334c3.978,4.703 -25.304,115.175 -33.796,116.081c-11.872,1.266 -1.348,-28.578 -1.024,-29.79l1.12,-2.113l0.666,-2.113l-0.538,-2.113l-3.367,-2.383c6.982,-20.263 14.803,-41.4 26.044,-78.103Z" style="fill:#f9c3ca;"/><path d="M1579.093,1448.908c0.062,0.089 3.336,0.981 3.422,4.91c0.677,30.999 1.3,30.817 1.655,32.376c-32.577,0.258 -43.604,0.529 -44.983,-0.949c-1.628,-1.745 -0.984,-20.156 -1.339,-29.272c-0.491,-12.575 1.63,-12.1 9.06,-22.166c4.362,-5.909 3.664,4.648 3.631,5.147c-1.302,19.705 25.397,11.374 28.555,9.954Z" style="fill:#edc9b4;"/><path d="M1775.378,1099.303c4.973,32.17 29.279,37.491 30.186,38.287c0.409,0.359 1.494,1.751 -5.225,4.352c-24.915,9.646 -21.607,41.836 -29.244,25.03c-12.098,-26.623 -34.22,-26.413 -24.721,-31.558c20.429,-11.066 27.041,-32.958 26.081,-38.457c-0.787,-4.506 2.136,1.323 2.924,2.346Z" style="fill:#eeb2ba;"/><path d="M1443.747,711.979c-24.581,8.621 -25.591,13.263 -49.525,2.821c-24.315,-10.609 -38.752,2.471 -38.792,-6.79c-0.058,-13.452 -2.772,-23.654 8.75,-24.045c39.648,-1.345 42.259,28.649 71.216,25.521c4.962,-0.536 5.917,-1.669 8.352,2.492Z" style="fill:#eec68e;"/><path d="M1440.783,1081.649l3.232,-0.259l2.157,-1.777l2.157,-0.52c1.1,0.89 3.111,-0.138 4.21,0.753c1.401,1.135 -21.374,108.13 -29.951,110.223c-8.384,2.045 -8.099,-13.446 -4.839,-21.482c2.563,-6.318 -1.618,-6.906 -2.689,-8.812c14.54,-38.617 14.709,-38.366 25.724,-78.126Z" style="fill:#f8c3cb;"/><path d="M1342.648,1524.019c-3.433,0.156 -37.276,1.696 -42.947,-0.885c-6.985,-3.179 -6.056,-11.71 -5.97,-18.593c0.101,-8.094 2.051,-13.219 42.461,-11.258c16.586,0.805 17.969,22.215 6.456,30.736Z" style="fill:#bf968d;"/><path d="M682.865,1766.005c14.5,3.309 23.644,5.952 47.213,5.753c0.257,20.493 -7.019,22.672 -10.717,33.203c-23.167,-1.942 -23.027,-1.779 -45.606,-7.864c0.9,-1.23 2.47,-1.887 3.369,-3.118c4.199,-5.743 -6.008,-15.6 5.742,-27.974Z" style="fill:#f3cd8d;"/><path d="M487.939,1297.789c-0.75,-2.167 -3.028,-13.64 -10.744,-20.86c-4.93,-4.614 -15.512,-8.153 -15.65,-11.238c-0.101,-2.247 11.081,-5.523 12.116,-5.826c13.566,-3.973 14.188,-48.178 22.499,-21.254c5.825,18.87 8.105,18.43 24.176,23.909c8.56,2.919 -7.268,8.815 -8.198,9.161c-21.863,8.144 -9.707,43.524 -24.198,26.108Z" style="fill:#e0c39b;"/><path d="M1570.094,974.185c0.44,-9.053 -3.579,-13.013 5.617,-13.963c31.759,-3.281 37.425,13.735 51.436,20.72c16.499,8.225 35.469,5.959 24.041,10.336c-25.36,9.714 -26.965,7.912 -45.719,-1.755c-17.27,-8.902 -30.629,-2.182 -32.122,-1.95c-4.045,0.629 -2.214,-1.86 -3.253,-13.387Z" style="fill:#f3cc94;"/><path d="M1478.864,518.538c13.942,-9.852 6.982,-15.93 13.028,-21.254c7.845,-6.907 13.049,13.063 13.393,13.701c5.425,10.047 32.013,10.858 11.579,20.721c-13.316,6.427 -12.117,8.219 -16.313,22.186c-1.602,5.334 -11.651,4.791 -13.071,-2.295c-2.998,-14.961 -5.901,-13.658 -19.043,-21.969c-8.289,-5.242 7.084,-9.679 10.426,-11.089Z" style="fill:#e2c899;"/><path d="M626.615,652.487c14.228,2.138 22.666,16.324 24.667,-1.402c2.501,-22.156 16.903,-15.07 17.821,-4.293c1.173,13.775 -4.707,47.303 -12.328,44.365c-28.14,-10.851 -46.048,-31.043 -36.3,-37.483c2.207,-1.458 2.271,-0.798 6.142,-1.187Z" style="fill:#e594a4;"/><path d="M978.175,1410.113l0.213,1.448c0.42,21.632 -1.494,34.286 -6.742,43.185c-34.463,0.65 -39.57,2.324 -38.886,-7.272c0.178,-2.505 0.783,-2.361 24.523,-35.395c1.702,-2.368 19.214,-2.001 20.893,-1.966Z" style="fill:#e8c1ac;"/><path d="M1462.848,953.067c0.298,-13.445 -2.04,-14.588 2.286,-17.491c1.403,-0.941 8.772,-1.632 15.406,-0.775c19.078,2.465 29.98,28.464 51.902,26.745c16.285,-1.276 -1.998,7.236 -2.582,7.508c-25.036,11.656 -31.993,-12.784 -61.982,-4.655c-8.048,2.181 -4.812,-3.119 -5.03,-11.333Z" style="fill:#efc793;"/><path d="M1032.139,1184.738c2.939,10.401 -2.851,11.575 -47.531,13.746c-9.081,0.441 -45.024,-5.725 -65.051,2.048c-0.519,-1.063 -6.967,-12.331 -5.668,-14.773c1.739,-3.269 52.23,0.045 118.25,-1.021Z" style="fill:#f9c8cb;"/><path d="M1452.651,1573.448c-1.759,-0.2 -7.165,0.94 -7.43,-5.478c-1.555,-37.585 3.813,-46.884 5.852,-50.417c8.701,-15.075 22.683,-3.799 21.593,48.279c-0.272,12.978 -6.75,7.517 -20.015,7.617Z" style="fill:#b48383;"/><path d="M896.339,1636.261c3.65,0.088 22.315,-2.101 25.028,5.842c0.541,1.583 5.049,14.78 -1.506,20.82c-3.906,3.599 -19.793,4.349 -21.553,4.432c-19.528,-0.819 -20.194,-1.28 -21.448,-2.351c-4.136,-3.535 -3.537,-15.418 -3.468,-16.787c0.693,-13.769 13.089,-11.268 22.947,-11.956Z" style="fill:#bc8f88;"/><path d="M1370.603,956.154c49.865,6.651 52.569,7.662 51.069,11.496c-5.173,13.216 -19.795,-3.892 -79.015,-1.69c-51.691,1.922 -51.231,9.564 -57.967,7.275c-2.245,-0.763 -11.044,-8.539 -2.568,-10.005c51.533,-8.91 59.664,-8.164 88.481,-7.077Z" style="fill:#e6a29c;"/><path d="M536.091,771.321c9.067,30.687 16.193,25.977 27.524,32.556c8.096,4.701 -17.763,4.009 -24.661,26.993c-1.91,6.364 -0.284,9.57 -4.75,7.844c-2.43,-0.939 5.337,-6.533 -18.035,-26.661c-4.008,-3.452 -4.781,-2.446 -8.01,-6.771c22.415,-12.681 22.865,-23.528 24.311,-31.476c1.207,-0.828 2.414,-1.656 3.62,-2.484Z" style="fill:#eeaab5;"/><path d="M832.739,1563.68c0.027,-3.361 0.254,-32.05 4.067,-41.829c2.199,-5.64 6.868,-9.925 9.804,-9.889c14.639,0.183 12.261,52.396 12.276,55.943c0.031,7.541 -12.424,5.712 -16.59,5.736c-12.463,0.072 -9.002,-5.07 -9.557,-9.962Z" style="fill:#b38082;"/><path d="M685.841,1314.397c0.284,-1.343 -1.156,-5.459 5.53,-5.877c22.933,-1.434 78.686,-1.838 80.03,1.493c1.019,2.525 0.429,2.532 -0.269,33.938c-0.007,0.33 -3.474,10.96 -4.211,-0.011c-0.033,-0.493 -0.029,-0.456 -0.387,-6.161c0.208,-2.817 1.891,-2.906 -0.628,-9.703c-14.524,-9.845 -16.436,3.46 -33.647,-0.159c4.349,-5.114 4.609,-4.949 4.692,-5.517c0.024,-0.166 0.048,-0.326 -2.125,-0.238c-3.319,0.135 -9.111,0.371 -41.335,-3.867c-7.742,-1.018 -6.548,-3.184 -7.651,-3.898Z" style="fill:#e9c7b7;"/><path d="M726.9,1104.893c10.725,-0.722 5.367,4.902 5.729,6.237c1.077,3.964 4.413,3.53 2.296,15.289c-15.138,84.089 -21.296,84.466 -28.566,84.511c0.834,-13.038 1.691,-12.724 3.625,-25.44l0.008,-2.113l1.196,-2.113l-2.629,-1.77l-1.962,-2.39c11.824,-35.78 10.52,-35.921 20.302,-72.211Z" style="fill:#f8bec6;"/><path d="M1333.999,1410.241c9.593,0.091 11.199,-1.656 18.426,8.378c13.753,19.094 32.715,36.623 9.653,36.243c-2.072,-0.034 -2.052,0.181 -25.908,0.091c-2.051,-1.684 -2.657,-0.781 -3.957,-3.248c-0.085,-0.162 -0.745,-1.414 -0.865,-2.114c-3.014,-17.589 2.24,-35.101 3.118,-38.03l-0.466,-1.32Z" style="fill:#e9c7b1;"/><path d="M875.64,1567.899c-0.121,0.663 -1.862,10.243 -7.443,4.21c-1.911,-2.066 4.401,-67.638 -21.571,-68.858c-25.748,-1.209 -20.873,68.354 -21.419,69c-0.903,1.068 -6.929,3.296 -7.574,-2.024c-5.586,-46.038 21.048,-106.416 48.734,-61.69c9.328,15.068 8.852,41.426 9.274,59.362Z" style="fill:#f4c597;"/><path d="M1477.622,1525.85c-0.79,-2.164 -8.234,-22.546 -18.535,-22.268c-29.292,0.792 -18.292,67.524 -23.393,69.218c-7.842,2.605 -5.897,-13.351 -5.437,-30.304c1.008,-37.173 23.934,-55.747 34.914,-47.947c24.703,17.549 22.725,48.729 22.807,73.381c0.03,9.143 -8.189,5.168 -8.393,1.976c-1.412,-22.083 0.493,-22.022 -1.964,-44.056Z" style="fill:#f6c69b;"/><path d="M405.241,1047.613c-13.503,-7.275 -14.16,-4.991 -26.068,-10.532c-14.231,-6.622 14.001,-16.361 15.851,-16.999c29.616,-10.216 28.433,-37.805 33.61,-48.484c8.958,-18.48 24.868,29.282 25.021,29.531c16.779,27.313 73.524,26.625 37.154,38.124c-60.625,19.167 -33.406,41.592 -48.77,56.518c-17.964,17.452 -5.199,-21.626 -36.799,-48.157Z" style="fill:#bb8d96;"/><path d="M744.546,984.777c-0.049,-4.167 -1.627,-20.288 2.517,-21.732c15.151,-5.279 29.348,6.46 31.329,8.098c22.912,18.945 41.767,12.691 30.756,19.121c-25.685,14.998 -29.505,-5.972 -57.606,0.439c-6.447,1.471 -6.341,-0.77 -6.996,-5.926Z" style="fill:#f3cc95;"/><path d="M1714.315,1377.164c2.313,-4.477 3.26,-3.406 7.586,-6.158c19.073,-12.137 15.4,-23.84 19.65,-23.591c2.186,0.128 1.637,0.95 5.473,8.506c7.817,15.4 19.653,17.317 22.027,18.545c3.134,1.622 -4.813,5.753 -5.392,6.054c-19.796,10.291 -18.495,31.064 -21.437,27.973c-5.583,-5.866 -2.269,-18.738 -27.906,-31.33Z" style="fill:#f6d8b3;"/><path d="M863.854,934.086c29.806,-3.385 26.025,23.786 60.407,24.973c0.704,0.024 12.604,0.435 7.859,3.884c-1.129,0.821 -24.015,10.794 -35.623,6.25c-14.388,-5.632 -13.755,-8.285 -30.509,-8.425c-0.96,-1.923 -3.645,-7.304 -2.134,-26.681Z" style="fill:#f2c891;"/><path d="M1234.395,446.136c6.95,14.852 10.834,13.306 24.306,18.284l1.99,3.199c1.082,2.581 3.327,1.851 3.143,10.181c-0.25,11.321 2.151,11.856 -3.253,21.962c-21.633,-1.172 -22.564,-3.576 -28.867,-19.422c-0.168,-0.423 -0.26,-0.334 -3.515,-4.507c5.176,-8.17 2.775,-8.767 3.347,-25.603l0.139,-2.113l2.71,-1.983Z" style="fill:#e1ac76;"/><path d="M1307.96,463.179l-0.316,1.665c-0.484,0.465 0.098,1.026 -4.612,3.478c-2.985,1.554 -16.153,6.748 -14.722,11.728c1.39,4.834 4.858,0.29 28.455,12.842c-18.525,4.124 -23.445,6.027 -56.186,6.871c5.404,-10.106 3.002,-10.642 3.253,-21.962c0.184,-8.331 -2.061,-7.6 -3.143,-10.181l-1.99,-3.199c30.346,6.574 36.46,-1.015 49.26,-1.241Z" style="fill:#f1c489;"/><path d="M1324.678,855.679l3.506,2.325l-0.065,2.113l-0.526,2.113l-0.815,2.113l-0.683,2.113l-0.413,2.113l-1.344,2.113l-0.187,2.113l-0.678,2.113l-0.831,2.113c-9.632,24.464 -9.014,24.897 -6.652,32.15c-4.81,18.316 1.814,35.329 2.929,38.191c-20.033,3.009 -19.92,2.907 -21.636,3.25c-10.607,2.12 -20.821,7.364 -14.08,-1.168c13.83,-17.505 38.682,-86.061 41.475,-93.764Z" style="fill:#de8798;"/><path d="M962.203,790.136c2.441,2.659 6.609,1.186 5.026,10.856c-0.136,0.828 -0.599,11.611 -0.642,12.621c-12.33,53.106 -14.21,89.769 -27.176,84.379c-3.55,-1.476 -5.628,-3.308 9.377,-46.327l0.236,-2.113l-4.004,-2.334c9.533,-28.406 9.357,-28.305 17.184,-57.082Z" style="fill:#f7c2c7;"/><path d="M757.231,1431.522c8.188,11.248 8.3,11.144 9.008,12.123c1.778,2.456 3.063,4.231 0.515,37.635c-0.548,7.191 -16.209,4.799 -23.675,4.728c-2.689,-5.275 -3.067,-5.154 -2.951,-11.141c0.033,-1.684 -0.025,-1.491 -0.059,-21.05l0.84,-2.605c8.152,-1.111 13.326,0.428 13.551,-18.229c0.923,-0.487 1.847,-0.974 2.77,-1.461Z" style="fill:#f0ccb8;"/><path d="M1089.577,1009.939c-18.8,37.927 -16.681,-25.3 -43.564,-36.643c-0.794,-0.335 -35.19,-6.732 -21.276,-17.295c6.107,-4.636 29.651,-1.155 41.502,-32.037c1.907,-4.968 15.28,-40.741 25.253,-0.091c7.887,32.144 68.06,30.727 41.733,41.76c-32.058,13.436 -35.127,13.485 -43.649,44.305Z" style="fill:#e7cb9d;"/><path d="M1618.994,1312.189c1.003,60.362 -2.13,60.195 1.241,120.492c0.039,0.698 0.638,11.406 -3.348,8.096c-3.438,-2.855 4.468,-16.462 -11.255,-22.128c0.484,-0.398 1.386,0.703 1.87,0.305c2.456,-2.023 1.207,-2.532 1.122,-15.862c-0.266,-41.792 -2.251,-70.896 5.276,-82.383l0.439,-2.949l1.929,-3.39l2.725,-2.182Z" style="fill:#fcf1e3;"/><path d="M1017.263,694.961c-1.727,5.147 -3.012,5.084 -1.593,8.663c0.316,0.795 1.075,1.433 1.19,2.279c0.085,0.622 -1.137,1.381 -0.639,1.774c0.792,0.624 2.043,-0.028 3.048,0.125c1.021,0.156 2.045,1.199 2.993,0.796c0.988,-0.42 0.613,-2.33 1.601,-2.751c5.913,5.26 9.642,10.632 10.352,11.654c-14.646,-0.422 -13.873,-3.264 -27.866,-7.857c-13.454,-4.416 -29.98,0.032 -30.358,0.056c-3.131,0.191 -2.542,-19.082 -2.491,-20.753c0.135,-4.403 2.996,-5.216 4.804,-5.54c19.75,-3.542 36.418,9.557 38.958,11.553Z" style="fill:#eec78e;"/><path d="M980.473,1780.167c-0.474,19.76 6.96,32.935 8.399,35.485c-26.516,0.305 -32.94,0.57 -34.29,-0.716c-3.569,-3.399 -3.806,-28.966 -3.83,-31.504c-0.05,-5.36 18.449,-3.378 29.721,-3.265Z" style="fill:#e5aa78;"/><path d="M1110.537,1574.106c-17.521,8.835 -28.255,32.55 -32.802,38.172c-0.758,0.937 -2.231,1.135 -2.99,2.073c0.139,-31.373 -3.794,-33.917 12.19,-49.632c19.713,-19.381 22.299,-18.165 23.139,-16.099c0.55,1.352 0.443,21.494 0.462,25.486Z" style="fill:#c78879;"/><path d="M1564.765,1286.346c5.02,-0.072 36.528,-0.523 62.717,2.238c4.953,0.522 -0.746,12.54 -13.147,11.616c-74.298,-5.536 -78.127,1.191 -79.345,-4.925c-2.147,-10.773 13.973,-8.302 29.776,-8.929Z" style="fill:#eab086;"/><path d="M955.405,1060.977c3.833,-17.365 12.686,-19.084 15.67,-16.316c10.095,9.364 8.091,45.936 8.088,45.952c-0.738,4.937 -19.26,3.461 -20.391,3.451c-7.091,-0.065 -3.925,-19.421 -3.367,-33.087Z" style="fill:#b18383;"/><path d="M1331.956,1780.421l-0.47,2.995c-0.701,2.582 -0.326,2.644 -8.148,32.432c-1.877,0.092 -21.939,1.081 -23.485,0.543c-2.548,-0.888 -2.544,-1.752 -1.177,-33.093c0.233,-5.336 14.98,-3.284 33.28,-2.876Z" style="fill:#f5cf98;"/><path d="M1339.21,1077.762c1.483,-37.937 11.484,-34.939 14.01,-33.442c13.724,8.134 10.346,43.641 10.277,46.097c-0.16,5.656 -13.747,3.701 -21.098,2.902c-2.917,-0.317 -3.069,-4.616 -3.085,-5.089c-0.123,-3.487 0.019,-6.981 -0.103,-10.468Z" style="fill:#b38584;"/><path d="M686.863,1288.04c6.029,-0.48 36.478,-2.902 75.608,-1.041c15.027,0.715 9.039,10.418 4.332,10.579c-39.97,1.365 -39.873,0.112 -79.82,2.343c-3.01,0.168 -12.468,-7.524 -12.64,-8.843c-0.384,-2.95 1.423,-1.712 12.52,-3.038Z" style="fill:#f1c092;"/><path d="M840.128,1437.091c-11.342,-1.147 -6.302,-11.458 -11.21,-27.638c-1.552,-5.118 13.407,-3.761 28.448,-3.702c5.717,0.022 10.768,-2.172 8.914,7.976c-0.309,1.691 -3.547,19.42 -4.737,20.964c-2.57,3.334 -16.302,2.321 -21.416,2.4Z" style="fill:#e89ba6;"/><path d="M1450.482,1437.02c-7.097,-0.91 -7.452,-1.679 -9.008,-8.483c-0.376,-1.642 -4.155,-18.164 -3.272,-20.788c0.848,-2.52 1.732,-2.629 33.817,-1.7c6.783,0.196 3.872,3.368 2.355,9.774c-0.986,4.163 -2.047,8.309 -2.993,12.481c-2.895,12.765 -7.573,8.466 -20.898,8.716Z" style="fill:#eba1a7;"/><path d="M768.056,1709.345l3.05,0.958c7.421,2.462 7.468,1.633 15.117,3.311c-6.408,17.727 2.78,42.195 -9.579,56.873c-1.911,2.27 -3.315,-0.105 -5.168,2.365c-0.283,0.377 -0.233,0.368 -3.145,4.964c-5.58,-6.878 -1.98,-7.874 -0.274,-68.471Z" style="fill:#fbf3e1;"/><path d="M950.054,956.433c33.72,-1.796 47.248,0.108 69.233,4.071c10.264,1.85 27.743,3.126 16.917,11.368c-7.994,6.086 -35.841,-11.568 -85.955,-5.405c-4.304,0.529 -22.767,7.438 -9.509,-3.339c4.658,-3.786 3.454,-5.436 9.314,-6.695Z" style="fill:#e59f9b;"/><path d="M1215.162,810.601c13.586,-9.604 15.453,-18.427 20.874,-9.089c20.402,35.146 41.799,16.398 45.071,35.35c1.23,7.125 -12.723,-0.551 -14.339,-1.203c-22.594,-9.117 -49.159,-13.696 -53.534,-14.45c3.933,-4.897 5.459,-4.571 4.316,-7.571c-0.456,-1.197 -1.932,-1.839 -2.388,-3.036Z" style="fill:#e2a878;"/><path d="M1195.005,1572.018c0.142,-21.122 -0.743,-21.169 -0.241,-22.937c1.188,-4.186 2.775,-1.584 6.258,1.042c36.345,27.415 29.568,38.547 29.083,53.718c-3.751,-0.014 -3.804,0.19 -4.051,-0.015c-0.602,-0.501 0.343,-1.573 0.128,-2.317c-0.563,-1.949 -18.941,-22.538 -31.177,-29.492Z" style="fill:#c58677;"/><path d="M1444.034,1594.145c-14.578,-0.163 -15.286,1.46 -18.59,-1.724c-2.79,-2.689 -3.481,-13.165 7.795,-12.356c31.923,2.289 68.966,-5.105 60.057,10.899c-2.166,3.891 -8.067,2.704 -49.262,3.182Z" style="fill:#f6c793;"/><path d="M1331.956,1780.421c7.257,-0.009 23.182,-2.706 22.679,5.051c-0.144,2.223 -1.639,25.269 -2.314,27.754c-1.28,4.705 -17.125,2.841 -28.983,2.621c7.823,-29.788 7.447,-29.85 8.148,-32.432l0.47,-2.995Z" style="fill:#e5aa79;"/><path d="M730.078,1771.759c19.859,-1.649 19.762,-2.696 21.479,-2.486c2.343,0.286 2.742,1.23 1.498,28.877c-0.379,8.422 -14.963,6.77 -33.694,6.812c3.699,-10.531 10.975,-12.71 10.717,-33.203Z" style="fill:#e4ad7e;"/><path d="M760.526,1356.499l-2.192,2.242l0.115,2.113c1.966,31.793 3.949,32.76 -0.249,40.547c-0.556,0.012 -8.499,1.537 -10.068,-2.763c-0.787,-2.156 -1.962,-19.237 -2.077,-20.915c-2.481,-36.061 -4.838,-39.656 3.632,-41.563c12.948,-2.915 7.382,10.688 10.838,20.34Z" style="fill:#fcf8e9;"/><path d="M840.111,1593.896c-10.286,-0.009 -27.347,1.848 -28.782,-4.693c-1.823,-8.312 6.346,-8.303 7.237,-8.302c58.969,0.068 61.148,-1.073 62.634,3.879c3.589,11.957 -17.908,9.137 -41.09,9.116Z" style="fill:#f6ca98;"/><path d="M995.422,1495.527c13.07,0.371 30.192,-2.088 30.082,6.886c-0.207,16.842 -7.028,13.759 -23.584,13.84c-2.564,0.013 -20.362,2.494 -20.688,-5.427c-0.046,-1.124 -0.51,-12.4 1.929,-13.936c1.368,-0.862 11.274,-1.318 12.26,-1.363Z" style="fill:#f6d3c9;"/><path d="M980.473,1780.167c2.126,-0.042 22.49,-0.728 24.107,0.18c1.18,0.663 2.173,0.79 2.744,28.437c0.252,12.205 -5.987,7.503 -18.452,6.869c-1.439,-2.55 -8.873,-15.725 -8.399,-35.485Z" style="fill:#f7d29d;"/><path d="M1399.123,1407.724c2.083,-0.761 9.876,-3.607 27.751,-1.411c5.913,0.726 3.622,3.318 7.795,22.336c2.488,11.342 -3.621,8.673 -10.044,8.848c-17.373,0.473 -14.059,-6.23 -21.429,-21.789c-3.506,-7.402 -3.596,-7.109 -4.073,-7.984Z" style="fill:#eca0a8;"/><path d="M1283.219,1130.564c-0.053,-12.676 -2.394,-17.311 5.082,-25.774c0.416,-0.471 7.922,-8.967 7.719,-1.856c-0.573,20.056 -0.934,19.946 -0.693,52.975c0.096,13.124 4.596,20.149 -8.676,18.639c-3.554,-0.404 -3.211,-2.038 -3.432,-43.985Z" style="fill:#faf6f0;"/><path d="M1594.88,1621.976c-14.397,-0.053 -14.827,1.327 -17.286,-1.126c-5.76,-5.746 9.105,-83.961 19.82,-25.514c0.51,2.785 1.364,23.735 0.974,24.702c-0.118,0.294 -0.26,0.144 -3.508,1.938Z" style="fill:#b4817e;"/><path d="M1482.842,1437.331c-6.168,-0.769 -4.991,-2.861 -3.788,-8.764c4.188,-20.54 3.348,-21.612 5.734,-22.045c1.61,-0.292 28.473,-0.941 28.683,2.738c0.105,1.847 -10.228,23.551 -11.188,25.568c-1.137,2.388 -17.872,2.493 -19.441,2.503Z" style="fill:#eaa4ac;"/><path d="M894.054,1406.168c10.281,0.653 10.275,0.376 11.099,0.705c1.617,0.646 -0.142,1.073 -8.495,19.695c-1.139,2.54 -2.001,5.196 -3.186,7.716c-1.932,4.11 -23.084,3.673 -23.859,0.973c-0.557,-1.94 4.797,-27.611 5.05,-27.885c1.315,-1.421 17.837,-1.222 19.391,-1.203Z" style="fill:#e69ba3;"/><path d="M792.722,1407.428c28.631,-3.81 29.303,-0.158 29.727,2.141c4.643,25.213 4.344,25.903 2.417,26.964c-1.106,0.609 -18.597,1.658 -21.009,-0.345c-1.806,-1.5 -5.844,-12.048 -10.715,-22.745c-1.54,-3.381 -0.706,-3.3 -0.42,-6.015Z" style="fill:#eeabb3;"/><path d="M1129.083,984.03c57.682,-0.23 57.623,-0.314 60.601,-0.132c7.362,0.449 5.264,10.684 2.101,11.718c-1.38,0.451 -56.15,0.333 -62.663,-0.224c-4.496,-0.385 -11.033,-9.171 -0.039,-11.361Z" style="fill:#f4cf9f;"/><path d="M1164.939,1108.365l3.011,-3.338c15.512,13.522 44.532,58.8 56.842,72.012l1.835,2.113l1.712,2.782l2.157,2.434c1.519,1.783 3.039,3.565 4.558,5.348c0.814,1.243 0.837,1.181 21.323,26.877l2.157,2.69l1.455,2.125l1.724,2.113l1.134,1.325l-2.898,3.44c-31.161,-35.848 -87.611,-110.176 -95.011,-119.92Z" style="fill:#ce8186;"/><path d="M709.684,1586.709c12.983,-35.131 18.104,17.243 17.542,31.97c-0.151,3.968 -15.002,3.355 -16.336,3.3c-8.685,-0.358 -1.377,-34.336 -1.207,-35.271Z" style="fill:#b17f7d;"/><path d="M1034.998,1130.556c-0.181,35.954 2.075,44.517 -7.191,43.813c-0.442,-0.034 -3.974,-0.302 -4.047,-3.701c-0.571,-26.43 0.593,-26.255 0.084,-52.79c-0.287,-14.946 -2.85,-18.192 1.84,-17.25c0.415,0.083 7.073,5.85 8.304,8.912c1.477,3.676 1.003,19.815 1.01,21.017Z" style="fill:#faf5ee;"/><path d="M1147.91,1551.018l-1.528,0.858c-1.459,0.602 -7.072,0.439 -30.636,15.987c-0.264,-16.851 -3.398,-23.617 7.222,-28.95c7.649,-3.842 20.707,-9.567 21.075,-9.7c6.487,-2.342 4.042,15.097 3.867,21.806Z" style="fill:#c68677;"/><path d="M603.531,383.924c87.359,41.949 84.903,96.869 115.098,105.576c-3.83,6.303 -1.622,8.867 -9.872,9.837c-43.327,5.094 -59.098,-66.644 -106.141,-105.282l-5.039,-4.309l5.954,-5.822Z" style="fill:#de899c;"/><path d="M540.954,754.338c-0.427,0.551 0.8,1.493 0.373,2.044c-0.895,1.155 -2.629,1.381 -3.756,2.32c-3.728,3.108 -1.616,3.812 -1.764,8.556l-1.945,-0.351c-0.328,0.804 -2.323,-0.871 -2.651,-0.067c-0.214,0.526 1.667,0.29 1.26,6.966c-1.447,7.948 -1.896,18.796 -24.311,31.476c-12.092,-0.375 -13.937,3.87 -21.88,-4.619c11.261,-2.877 20.88,-4.954 27.609,-10.905c16.781,-14.843 15.477,-68.316 27.066,-35.42Z" style="fill:#ad7e88;"/><path d="M1310.299,1517.231c-6.416,-0.338 -11.473,1.695 -10.318,-10.538c0.775,-8.213 8.218,-7.523 34.155,-6.995c13.787,0.281 10.188,17.881 1.99,18.326c-2.128,0.116 -23.761,-0.714 -25.826,-0.794Z" style="fill:#f0c8c1;"/><path d="M1157.53,1551.029c-0.254,-19.668 -0.869,-19.541 -0.457,-21.187c0.356,-1.422 1.3,-1.821 17.877,5.325c19.595,8.447 14.893,13.368 14.957,30.601c-12.21,-10.03 -15.61,-6.991 -32.378,-14.739Z" style="fill:#c88b7d;"/><path d="M214.718,860.218c-10.166,-12.123 -3.623,-14.082 11.093,-21.508c9.421,-4.754 24.572,-44.311 35.725,-17.352c6.937,16.769 9.985,14.814 26.805,24.895c5.847,3.504 3.989,9.313 -0.915,12.322c-16.283,9.99 -16.258,9.892 -25.842,25.506c-13.569,22.106 -15.627,-6.139 -46.866,-23.862Z" style="fill:#e2cca6;"/><path d="M652.481,1428.407l1.47,2.169c5.687,9.561 2.688,34.512 3.531,48.701c0.212,3.574 -0.489,3.261 -2.816,5.868c-5.312,-1.112 -6.898,0.83 -8.477,-3.92c-0.749,-2.253 -0.556,-2.243 -2.742,-29.496c-1.211,-15.106 -6.059,-20.768 9.034,-23.321Z" style="fill:#fbf7ec;"/><path d="M1599.297,1493.635c23.689,0.191 23.793,-1.546 25.671,-0.731c0.903,0.392 -10.135,22.022 -11.094,23.901c-2.525,4.948 -20.013,3.301 -21.139,3.289c-4.984,-0.054 -3.853,-2.259 -3.086,-5.211c4.003,-15.395 -0.392,-19.999 9.647,-21.247Z" style="fill:#e99da7;"/><path d="M997.638,976.032c22.833,4.412 39.551,2.799 25.569,21.251c-4.284,5.654 -5.672,4.627 -32.089,0.982c4.431,-10.956 1.725,-11.626 6.519,-22.233Z" style="fill:#e5b27d;"/><path d="M1569.858,1383.603c-2.162,-7.356 0.426,-13.69 1.492,-33.311c0.587,-10.793 -2.013,-17.407 2.01,-16.089c14.59,4.779 12.68,29.597 12.964,43.553c0.15,7.361 -10.268,5.637 -16.467,5.847Z" style="fill:#b98682;"/><path d="M680.429,1493.514c2.386,0.111 29.787,1.391 29.826,1.444c0.983,1.344 -0.043,1.485 4.759,20.134c1.823,7.081 -22.889,4.953 -25.105,1.325c-0.736,-1.205 0.769,-1.872 -7.425,-15.981c-0.383,-0.659 -3.605,-2.257 -2.055,-6.922Z" style="fill:#e796a3;"/><path d="M1399.454,579.134c-4.344,29.594 -38.976,9.076 -26.37,-8.328c4.63,-6.392 23.266,-13.246 26.37,8.328Z" style="fill:#dcb17e;"/><path d="M1641.021,1054.976c1.131,-0.108 2.262,-0.217 3.394,-0.325c0.325,1.955 2.869,17.268 12.917,21.287c12.688,5.076 -9.26,4.968 -13.408,24.51c-1.776,8.364 -2.765,-5.111 -6.239,-9.663c-4.96,-6.5 -11.496,-9.217 -11.669,-9.381c-6.191,-5.868 12.437,-1.892 15.005,-26.429Z" style="fill:#efc293;"/><path d="M730.161,1383.631c-6.796,-0.423 -9.952,2.793 -10.43,-3.812c-3.351,-46.224 16.094,-52.242 14.925,-44.333c-4.247,28.747 5.549,29.278 -0.17,48.649l-4.324,-0.505Z" style="fill:#bc7f7e;"/><path d="M1653.208,1428.649c6.06,1.725 8.896,-0.12 8.857,6.147c-0.247,39.813 -2.52,45.344 -4.019,48.991c-0.966,-0.42 -0.404,-1.847 -6.981,-2.421c-1.938,-0.169 -2.202,-0.069 -2.561,-1.953c-2.472,-12.984 0.651,-43.005 1.038,-46.725l1.523,-1.52l2.144,-2.52Z" style="fill:#fcf7ea;"/><path d="M1163.255,238.218l3.819,1.517c1.681,2.849 15.809,26.798 29.513,30.443c20.294,5.397 -3.111,12.722 -8.543,16.898c-25.53,19.629 -21.451,31.865 -21.74,32.541c-6.229,14.55 0.118,-12.142 -35.423,-34.897c-16.68,-10.68 -1.903,-12.58 7.635,-20.471c26.833,-22.199 18.97,-26.756 21.419,-28.409c1.132,-0.764 2.188,3.144 3.32,2.38Z" style="fill:#f1cc96;"/><path d="M967.334,1523.322c24.061,-0.496 23.907,-0.572 25.986,-0.536c4.149,0.072 4.055,2.99 3.693,15.451c-0.237,8.161 -13.527,5.627 -29.786,5.16c-0.581,-1.502 -4.579,-11.825 0.108,-20.075Z" style="fill:#f5cec4;"/><path d="M723.671,1494.373c17.687,-0.127 17.568,-0.405 19.192,0.183c3.057,1.106 3.238,21.168 2.902,22.92c-0.55,2.873 -23.274,6.428 -24.996,-4.347c-2.349,-14.697 -4.68,-18.154 2.902,-18.756Z" style="fill:#e896a0;"/><path d="M548.598,1349.595c18.177,-6.46 21.818,10.401 20.225,15.629c-7.826,25.68 -43.668,0.907 -20.225,-15.629Z" style="fill:#ddba88;"/><path d="M1560.505,1494.027c11.862,-0.343 11.691,-0.596 23.708,-0.125c4.684,0.184 0.793,12.891 -1.456,21.384c-0.449,1.697 -2.269,8.567 -22.056,3.632c-0.183,-14.396 -0.193,-22.9 -0.196,-24.892Z" style="fill:#e592a0;"/><path d="M1835.05,1010.642c-22.701,21.584 -35.515,-19.537 -11.449,-21.685c4.096,-0.366 21.657,6.199 11.449,21.685Z" style="fill:#dabc8d;"/><path d="M679.926,805.272c0.369,31.456 -33.251,16.786 -24.388,-3.95c1.803,-4.22 18.155,-15.314 24.388,3.95Z" style="fill:#dab084;"/><path d="M1498.201,1693.879c1.094,10.93 0.931,10.793 -0.089,20.587c-18.803,0.267 -26.273,4.248 -27.316,-9.32c-0.062,-0.806 -0.633,-8.229 1.674,-9.964c3.94,-2.963 23.676,-1.459 25.731,-1.303Z" style="fill:#f6cfc6;"/><path d="M1314.353,977.428c2.131,3.562 2.564,3.2 3.415,7.358c1.531,7.478 2.752,7.316 1.137,14.624c-2.717,0.398 -22.132,8.564 -28.696,-12.344c-2.406,-7.664 16.183,-8.326 24.143,-9.638Z" style="fill:#e5ae7d;"/><path d="M1629.417,1710.853c5.577,-0.818 5.546,-0.978 6.023,-0.883c1.582,0.315 0.9,1.301 2.59,1.637c0.16,2.366 1.476,21.866 2.027,29.57c0.725,10.145 -1.111,10.317 -10.61,14.639c-1.66,-6.259 -1.606,-9.603 -1.592,-10.448c0.247,-15.069 -6.687,-19.684 -0.67,-31.676l2.232,-2.839Z" style="fill:#fbf5e6;"/><path d="M1816.892,1259.488c2.379,28.614 -38.671,13.093 -23.279,-4.1c4.382,-4.894 11.099,-5.47 14.924,-4.505c7.305,1.843 8.225,8.286 8.355,8.605Z" style="fill:#dab3b3;"/><path d="M1627.377,1680.88c3.116,-0.285 6.233,-0.571 9.349,-0.856l0.252,2.208c-5.38,8.324 -7.633,4.643 -18.28,6.026c-1.369,0.178 -11.694,1.518 -8.399,14.775c1.42,5.714 17.801,-0.783 27.842,2.211c-0.045,1.182 0.292,0.963 0.248,2.105c-0.013,0.342 -0.027,0.315 -0.36,4.257c-1.69,-0.336 -1.008,-1.323 -2.59,-1.637c-0.478,-0.095 -0.446,0.065 -6.023,0.883c-17.462,0.847 -25.379,5.259 -25.305,-11.928c0.075,-17.332 5.653,-16.127 23.264,-18.046Z" style="fill:#bb9188;"/><path d="M682.865,1766.005c-11.75,12.374 -1.543,22.231 -5.742,27.974c-0.9,1.23 -2.47,1.887 -3.369,3.118c-16.337,-8.311 -10.9,-12.613 -9.585,-30.525c0.89,-12.128 6.858,-4.081 18.696,-0.567Z" style="fill:#fbe7bf;"/><path d="M1636.978,1682.232c0.066,1.842 0.387,1.787 1.164,23.013c-10.041,-2.995 -26.422,3.502 -27.842,-2.211c-3.295,-13.257 7.03,-14.598 8.399,-14.775c10.647,-1.382 12.9,2.298 18.28,-6.026Z" style="fill:#f7cdc3;"/><path d="M1620.171,1517.476c7.9,-23.298 13.499,-23.442 15.797,-23.501c1.314,-0.034 16.288,-0.42 16.305,1.957c0.003,0.347 -16.533,21.076 -18.9,22.605c-1.584,1.023 -11.516,0.832 -12.52,0.813l-0.682,-1.874Z" style="fill:#f1b3b5;"/><path d="M1710.863,946.216c10.575,-8.051 17.457,8.632 15.61,15.292c-4.542,16.38 -39.679,4.122 -15.61,-15.292Z" style="fill:#fbf7f3;"/><path d="M1280.166,441.795c-15.122,22.135 -20.112,3.888 -35.69,-7.836c-19.506,-14.68 -6.221,-18.302 12.546,-33.607c13.606,-11.095 20.125,1.331 34.56,12.879c0.503,0.402 4.225,3.38 4.513,6.358c0.203,2.101 0.317,3.269 -15.93,22.205Z" style="fill:#e3bec0;"/><path d="M385.356,556.357c47.221,34.246 -27.165,71.415 -36.662,32.13c-8.464,-35.014 32.559,-32.392 36.662,-32.13Z" style="fill:#fbd0d8;"/><path d="M1716.634,1229.872c-4.739,24.28 -37.02,4.321 -20.207,-8.376c4.84,-3.655 17.252,-7.901 20.207,8.376Z" style="fill:#e2bc99;"/><path d="M1375.337,1788.948l-2.495,3.163l-1.471,1.869l0.026,2.113c3.245,22.922 -2.26,31.34 10.073,28.485l2.447,-1.032c0.141,6.041 -0.048,5.953 1.648,11.629c-1.547,-0.509 -15.312,-5.039 -18.684,-8.018c-2.412,-2.131 -4.736,-4.183 -1.167,-39.76c0.076,-0.761 0.66,-3.177 9.624,1.553Z" style="fill:#f9dbaa;"/><path d="M1381.082,1408.607c18.981,-1.49 14.666,6.997 22.947,23.831c4.013,8.158 -12.367,5.87 -13.795,4.158c-1.163,-1.394 -0.592,-1.548 -8.478,-20.91c-1.935,-4.75 -0.733,-4.754 -0.674,-7.08Z" style="fill:#f0b3b5;"/><path d="M1157.758,429.932c4.206,5.158 3.147,5.729 3.088,35.061c-0.045,22.229 0.064,22.058 0.082,44.45c0.004,5.495 -5.285,5.346 -5.285,-0.01c0.009,-73.582 -0.769,-73.8 2.115,-79.5Z" style="fill:#e7b18c;"/><path d="M773.343,1408.267c5.47,0.059 5.462,-0.436 10.506,1.474c5.312,12.839 4.669,12.975 11.539,25.142c2.346,4.155 -4.39,2.805 -7.037,2.833c-4.325,0.046 -4.207,0.174 -8.209,-1.395c-4.893,-19.52 -11.39,-19.225 -6.798,-28.054Z" style="fill:#e9969e;"/><path d="M1375.337,1788.948c6.506,2.415 6.273,2.553 12.784,4.442c-5.64,9.365 -4.182,23.289 -4.205,30.154l-2.447,1.032c-12.332,2.855 -6.828,-5.563 -10.073,-28.485l-0.026,-2.113l1.471,-1.869l2.495,-3.163Z" style="fill:#fae9ba;"/><path d="M673.561,1496.472c1.482,3.086 13.12,22.427 6.927,22.134c-0.499,-0.024 -5.459,4.629 -24.983,-18.901c-7.164,-8.634 13.54,-8.355 18.055,-3.234Z" style="fill:#f2acb1;"/><path d="M926.7,1408.908c-5.905,14.18 -6.38,13.762 -13.468,27.27c-0.961,0.238 -14.998,3.713 -11.922,-3.312c10.47,-23.914 12.126,-24.27 14.399,-24.757c1.308,-0.281 1.302,-0.104 10.991,0.799Z" style="fill:#ecb3b4;"/><path d="M417.608,1041.166c-7.543,-5.217 -7.555,-5.121 -8.146,-5.634c-10.478,-9.092 4.747,-7.373 18.852,-25.308c0.748,-0.951 1.065,-2.137 1.814,-3.088c8.557,-10.868 13.142,3.757 14.789,5.983c11.484,15.518 33.405,15.775 18.037,23.904c-1.85,0.978 -13.221,6.993 -18.993,16.961c-9.549,16.492 -12.98,1.147 -26.353,-12.818Z" style="fill:#eaaeb7;"/><path d="M1535.278,1410.513c-1.12,1.974 -10.024,17.668 -11.759,25.772c-1.031,0.353 -17.849,6.107 -13.1,-3.781c8.935,-18.606 8.939,-26.371 24.859,-21.992Z" style="fill:#e99da1;"/><path d="M752.152,1518.823c-0.222,-4.475 -3.015,-23.978 1.775,-24.377c9.189,-0.766 12.244,-1.027 11.958,7.941c-0.333,10.444 3.194,23.757 -13.733,16.437Z" style="fill:#e69ba0;"/><path d="M1553.757,1494.577c-0.783,12.455 -1.777,12.38 0.155,24.595c-2.202,0.643 -4.164,1.774 -10.912,1.1c-4.401,-0.439 -3.676,-14.711 -3.74,-22.071c-0.059,-6.831 13.545,-3.761 14.497,-3.625Z" style="fill:#e597a2;"/><path d="M1289.934,914.605l3.876,2.558l0.15,2.113l-0.919,2.386c-3.064,5.237 -3.111,5.031 -6.149,10.291l-0.321,2.122l-1.512,2.104l-1.415,2.113l-0.814,2.113l-1.387,2.113l-1.047,2.113l-1.179,2.113l-1.335,2.113c-3.427,7.621 -7.688,7.034 -4.608,14.79c0.19,0.479 1.986,5.002 1.089,6.338c-0.847,1.261 -2.828,1.486 -3.674,2.747c-11.817,-15.65 -1.162,-16.744 19.245,-58.125Z" style="fill:#794648;"/><path d="M592.07,1162.464c-1.45,-0.406 -14.784,-4.137 -6.665,-17.277c9.673,-15.654 31.25,13.114 6.665,17.277Z" style="fill:#fcfbf5;"/><path d="M1164.037,523.573c12.097,9.023 6.947,15.379 -0.287,23.97c-3.818,1.67 -4.074,0.682 -9.214,0.437c-7.063,-6.58 -11.876,-10.354 -6.74,-19.975c4.653,4.212 5.385,3.724 5.689,6.34c0.682,5.875 3.065,8.282 6.674,3.482c3.426,-4.557 0.793,-11.52 0.798,-11.535c0.411,-1.293 2.669,-1.427 3.08,-2.72Z" style="fill:#ebc28f;"/><path d="M706.598,1177.105l1.962,2.39l2.629,1.77l-1.196,2.113l-0.008,2.113c-1.934,12.715 -2.792,12.402 -3.625,25.44c-1.881,1.415 -2.522,0.457 -3.64,2.738c-1.562,3.188 -0.337,3.206 -0.465,3.455c-2.709,5.269 -4.187,2.148 -9.726,-0.29c7.224,-19.864 7.074,-19.666 14.069,-39.728Z" style="fill:#efa4b1;"/><path d="M1498.201,1693.879c6.645,-0.635 15.58,-3.253 16.208,2.925c2.032,19.967 -6.136,17.141 -16.297,17.662c1.019,-9.794 1.183,-9.657 0.089,-20.587Z" style="fill:#e9bfb6;"/><path d="M601.914,1258.178c2.203,2.565 3.242,2.772 1.189,5.526c-5.815,7.8 -10.655,7.061 -15.371,6.57c-12.456,-1.296 -5.546,-29.905 14.182,-12.097Z" style="fill:#f3c8b3;"/><path d="M898.387,1643.791c12.603,0.001 18.241,-3.829 18.558,8.597c0.244,9.563 -14.947,8.048 -20.788,8.313c3.787,-7.902 1.283,-8.251 2.23,-16.91Z" style="fill:#e1b8b0;"/><path d="M863.854,934.086c-1.511,19.377 1.174,24.758 2.134,26.681c-2.303,0.43 -12.385,3.564 -12.558,-1.397c-0.059,-1.682 -0.629,-18.055 -0.093,-21.032c0.902,-5.008 3.04,-2.832 10.518,-4.252Z" style="fill:#e5b382;"/><path d="M898.387,1643.791c-0.947,8.66 1.557,9.009 -2.23,16.91c-14.847,-0.111 -21.614,-1.577 -15.281,-14.793c1.373,-2.866 17.478,-2.116 17.511,-2.117Z" style="fill:#efcbbe;"/><path d="M932.58,1408.727c12.958,-0.449 13.072,1.736 12.546,2.598c-1.455,2.381 -14.75,24.146 -22.926,26.438c-2.661,0.746 -4.652,-0.422 -4.705,-0.427c4.176,-5.54 11.826,-13.817 15.085,-28.61Z" style="fill:#eaabab;"/><path d="M1026.055,700.656c27.147,13.326 30.385,5.667 30.997,8.109c1.64,6.54 -20.883,8.562 -22.836,8.737c-0.709,-1.022 -4.438,-6.394 -10.352,-11.654l2.191,-5.192Z" style="fill:#f6cca1;"/><path d="M1539.053,1409.782c0.982,-0.198 17.566,-3.532 12.045,3.406c-18.509,23.257 -17.955,25.993 -23.571,24.61c10.151,-21.573 11.021,-25.651 11.526,-28.017Z" style="fill:#e79d9f;"/><path d="M1373.05,1408.907c0.785,4.812 -0.121,4.771 1.501,9.195c0.237,0.647 1.309,3.57 3.682,7.8c0.562,1.001 1.434,0.142 8.169,11.825c0.597,1.036 -2.974,4.44 -12.464,-8.485c-9.314,-12.685 -17.899,-20.856 -12.406,-20.722c5.825,0.142 5.676,0.191 11.519,0.387Z" style="fill:#f1afac;"/><path d="M1094.67,1040.825l-2.207,1.097l-2.157,1.154c-0.673,1.708 -1.038,1.463 -1.255,3.187c-0.798,6.344 1.135,6.391 -0.509,12.559c-0.46,1.725 3.827,7.919 -2.58,5.456c-2.091,-0.804 -1.976,-0.556 -4.283,-0.086c-4.209,0.858 -3.431,-1.184 -6.643,-3.908c6.954,-4.559 4.58,-6.051 5.252,-14.223c0.653,-7.941 11.062,-5.27 14.381,-5.236Z" style="fill:#f5dfc1;"/><path d="M1466.06,1012.36c-6.713,17.555 -24.091,2.419 -12.846,-7.922c3.387,-3.115 7.584,-1.178 8.18,-0.903c5.034,2.324 4.076,3.27 4.666,8.825Z" style="fill:#f1ca98;"/><path d="M1678.986,1200.481c-0.943,-0.901 -8.564,-8.187 -1.23,-16.082c8.749,-9.419 23.611,24.193 1.23,16.082Z" style="fill:#fcf8f4;"/><path d="M967.334,1523.322c-4.686,8.25 -0.689,18.574 -0.108,20.075c-10.363,-0.938 -10.489,-0.455 -12.081,-1.657c-0.239,-0.18 -1.237,-0.934 -1.62,-3.329c-1.995,-12.479 0.823,-14.045 13.809,-15.09Z" style="fill:#e9bbb5;"/><path d="M842.259,1005.887c0.351,-0.358 3.155,-5.074 8.926,-2.627c1.327,0.563 4.808,3.4 5.464,6.964c2.293,12.467 -23.758,13.845 -14.39,-4.337Z" style="fill:#f4d0a5;"/><path d="M1045.001,468.077c-4.13,-0.417 -4.11,-0.375 -4.46,-0.45c-5.064,-1.085 -3.63,-10.184 -1.667,-13.018c8.605,-12.422 22.462,9.128 6.127,13.468Z" style="fill:#fcf8f5;"/><path d="M1416.792,1213.094c-4.507,19.593 -12.278,10.061 -12.588,8.621c-1.021,-4.754 0.204,-16.412 5.389,-16.87c6.959,-0.615 6.954,1.501 7.199,8.25Z" style="fill:#fbc9d4;"/><path d="M1149.34,418.312c-0.065,-1.133 -0.785,-13.695 9.965,-10.296c14.408,4.555 -0.151,25.978 -9.965,10.296Z" style="fill:#f3c68e;"/><path d="M527.895,1003.986c-11.176,16.762 -21.975,-3.973 -11.568,-9.109c13.054,-6.443 11.679,7.951 11.568,9.109Z" style="fill:#fbfaf6;"/><path d="M764.484,1409.903c3.086,8.497 2.595,8.537 6.895,16.373c1.194,2.176 3.386,4.006 3.717,6.455c0.167,1.238 -2.623,1.633 -2.456,2.871c-8.094,-9.143 -12.641,-17.962 -19.421,-23.655c-5.696,-4.783 10.361,-2.189 11.265,-2.043Z" style="fill:#f2b0ad;"/><path d="M1344.819,765.025c-0.549,-1.044 -6.129,-11.653 4.489,-14.006c9.505,-2.106 13.896,21.875 -4.489,14.006Z" style="fill:#fcddbb;"/><path d="M1553.757,1494.577c5.794,-0.563 5.737,-0.632 6.748,-0.55c0.002,1.991 0.013,10.495 0.196,24.892c-2.263,0.085 -4.526,0.169 -6.789,0.254c-1.931,-12.215 -0.937,-12.14 -0.155,-24.595Z" style="fill:#b26065;"/><path d="M926.7,1408.908c0.951,-0.028 0.714,-0.516 1.716,-0.545c0.334,-0.01 0.308,0.027 4.164,0.364c-3.259,14.793 -10.908,23.07 -15.085,28.61c-1.421,-0.386 -2.842,-0.772 -4.263,-1.158c7.088,-13.508 7.563,-13.09 13.468,-27.27Z" style="fill:#ba7c7d;"/><path d="M963.271,764.816c-0.533,-0.914 -5.983,-10.249 1.638,-13.056c13.277,-4.89 14.376,20.066 -1.638,13.056Z" style="fill:#fad7b1;"/><path d="M773.343,1408.267c-4.592,8.829 1.906,8.534 6.798,28.054c-3.943,0.949 -4.087,1.649 -7.502,-0.719c-0.167,-1.238 2.623,-1.633 2.456,-2.871c-0.331,-2.449 -2.523,-4.279 -3.717,-6.455c-4.299,-7.835 -3.809,-7.876 -6.895,-16.373c4.374,-1.627 4.215,-1.418 8.859,-1.637Z" style="fill:#bc7073;"/><path d="M1536.153,734.888c0.848,-0.661 8.115,-6.326 13.253,2.776c6.024,10.67 -20.969,13.92 -13.253,-2.776Z" style="fill:#fbf4f3;"/><path d="M1164.037,523.573c-0.411,1.293 -2.669,1.427 -3.08,2.72c-0.005,0.015 2.628,6.978 -0.798,11.535c-3.609,4.8 -5.992,2.393 -6.674,-3.482c-0.304,-2.616 -1.036,-2.128 -5.689,-6.34c7.167,-7.933 8.792,-7.388 16.241,-4.432Z" style="fill:#f6d6aa;"/><path d="M1159.784,1079.214c-1.026,1.59 -2.051,3.18 -3.077,4.771c-12.628,17.524 -13.123,17.96 -14.864,17.349c-0.388,-0.136 -0.324,-0.197 -4.378,-2.665c15.788,-20.934 17.338,-21.329 22.318,-19.454Z" style="fill:#f4b4bd;"/><path d="M1606.01,1225.332c11.46,17.76 -0.585,16.801 -1.741,16.162c-8.055,-4.454 -8.216,-22.831 1.741,-16.162Z" style="fill:#fabec6;"/><path d="M993.317,532.722c-17.905,8.892 -14.654,-9.94 -6.589,-10.988c0.754,-0.098 15.602,0.959 6.589,10.988Z" style="fill:#fceeed;"/><path d="M738.344,1036.592c1.001,-0.026 11.592,-0.306 8.282,9.19c-4.695,13.471 -21.273,-2.215 -8.282,-9.19Z" style="fill:#f3c69c;"/><path d="M1101.017,773.387c-15.326,4.202 -3.639,-23.668 3.439,-12.077c3.778,6.188 1.284,6.59 -3.439,12.077Z" style="fill:#fcbac7;"/><path d="M1539.053,1409.782c-0.505,2.365 -1.375,6.443 -11.526,28.017c-1.336,-0.505 -2.673,-1.009 -4.009,-1.514c1.735,-8.104 10.639,-23.798 11.759,-25.772c1.259,-0.243 2.517,-0.487 3.776,-0.73Z" style="fill:#b16466;"/><path d="M621.612,791.493c-1.911,-0.767 -9.037,-2.031 -6.838,-11.918c2.164,-9.729 18.126,-1.432 6.838,11.918Z" style="fill:#fcefef;"/><path d="M1566.894,1036.478c14.883,6.924 -2.225,19.836 -6.867,9.819c-3.194,-6.892 5.936,-9.548 6.867,-9.819Z" style="fill:#f3c8a0;"/><path d="M756.139,668.061c-15.612,3.941 -11.083,-14.953 -2.116,-11.453c9.632,3.76 2.773,10.78 2.116,11.453Z" style="fill:#fbebea;"/><path d="M710.722,1229.86c-12.489,22.862 -9.232,-3.676 -8.918,-4.396c0.167,-0.382 9.733,-11.153 8.918,4.396Z" style="fill:#fcccd3;"/><path d="M1233.462,930.183c0.525,16.698 1.336,16.781 -0.214,21.12c-0.59,1.653 -5.236,4.675 -5.407,-4.543c-0.186,-10.028 -3.856,-12.908 5.621,-16.577Z" style="fill:#cfada5;"/><path d="M799.692,1223.726c-2.334,3.14 -11.382,12.869 -11.188,-0.179c0.091,-6.137 11.739,-15.488 11.188,0.179Z" style="fill:#fbc3ca;"/><path d="M791.808,1743.196c3.535,-9.545 11.693,-3.178 10.483,4.539c-0.139,0.888 -8.136,14.945 -10.483,-4.539Z" style="fill:#fbf4e2;"/><path d="M1726.529,1060.565c-15.854,-1.895 -3.143,-18.363 2.897,-10.829c5.995,7.478 -2.043,10.507 -2.897,10.829Z" style="fill:#fcf6f3;"/><path d="M784.3,1308.033c3.067,-7.649 5.545,-4.033 6.222,-4.264c0.935,-0.32 1.147,-1.856 2.119,-2.04c1.748,-0.331 6.354,18.976 -4.281,12.725c-0.529,-0.311 -2.063,-1.212 -4.06,-6.421Z" style="fill:#faf5e2;"/><path d="M812.101,638.314c-15.06,-1.258 -5.222,-14.834 1.679,-9.993c5.698,3.997 -1.043,9.476 -1.679,9.993Z" style="fill:#fcedec;"/><path d="M927.318,917.097c2.572,-7.464 5.007,-8.562 11.176,-3.617c4.123,3.305 -5.617,14.842 -11.176,3.617Z" style="fill:#f8bbc3;"/><path d="M1017.263,694.961l8.792,5.695l-2.191,5.192c-0.988,0.42 -0.613,2.33 -1.601,2.751c-0.948,0.403 -1.971,-0.64 -2.993,-0.796c-1.005,-0.153 -2.256,0.5 -3.048,-0.125c-0.499,-0.393 0.723,-1.153 0.639,-1.774c-0.115,-0.846 -0.874,-1.484 -1.19,-2.279c-1.42,-3.579 -0.134,-3.516 1.593,-8.663Z" style="fill:#e4af81;"/><path d="M259.421,855.273c-5.561,8.31 -7.714,11.346 -15.294,4.538c-8.878,-7.974 -14.31,-10.883 -3.321,-16.649c14.021,-7.357 18.093,-2.624 18.614,12.111Z" style="fill:#f6e0b0;"/><path d="M1407.52,982.175c2.82,2.077 7.301,4.663 -1.743,15.863c-2.69,-4.129 -2.953,-4.123 -1.958,-8.832c0.849,-4.017 0.982,-3.896 3.701,-7.03Z" style="fill:#f8dcac;"/><path d="M917.684,1821.611c-8.552,0.191 -12.474,1.042 -10.702,-7.103c0.759,-3.489 8.855,-4.277 10.702,7.103Z" style="fill:#e1a970;"/><path d="M1342.317,1232.116c3.164,-4.749 5.005,-4.389 8.496,0.159c3.586,4.673 3.613,4.979 3.66,5.503c0.044,0.5 -0.439,0.104 -6.225,1.48c-3.187,-3.431 -3.079,-3.317 -5.93,-7.142Z" style="fill:#f8afbb;"/><path d="M1378.461,1331.079c0.068,1.319 0.843,16.423 -1.262,16.46c-2.919,0.052 -3.053,-5.229 -3.066,-5.748c-0.188,-7.414 1.938,-6.585 3.279,-8.122c0.35,-0.863 0.699,-1.726 1.049,-2.589Z" style="fill:#aa716d;"/><path d="M965.191,1214.356c12.366,3.543 0.371,6.598 -2.053,6.474c-0.553,-0.028 -9.727,-3.651 2.053,-6.474Z" style="fill:#fcb2b8;"/><path d="M1233.142,928.121c-0.723,-0.127 -4.969,1.747 -4.541,-4.6c0.197,-2.918 2.184,-5.462 2.398,-5.631c4.467,-3.522 2.282,9.406 2.142,10.231Z" style="fill:#c8a199;"/><path d="M988.931,1221.385c-13.607,0.891 0.766,-10.632 2.606,-6.559c1.317,2.917 -2.189,6.172 -2.606,6.559Z" style="fill:#f9b0b9;"/><path d="M1401.578,1313.211l-2.855,0.268c-1.07,-0.407 -2.14,-0.814 -3.21,-1.221c0.099,-2.371 -2.727,-5.414 3.249,-5.028c6.726,0.435 2.971,4.699 2.815,5.98Z" style="fill:#fbf6e4;"/><path d="M1409.599,710.905c4.664,0.806 5.483,-0.168 7.568,3.903c0.642,1.253 -7.398,8.39 -7.568,-3.903Z" style="fill:#e0b479;"/><path d="M765.907,1328.077c2.519,6.798 0.835,6.886 0.628,9.703c-1.374,-1.19 -2.429,-0.028 -3.07,-2.659c-0.962,-3.954 -0.402,-4.022 2.442,-7.044Z" style="fill:#a06e64;"/><path d="M1628.11,1430.397c0.779,2.805 0.609,2.923 0.841,3.029c1.629,0.742 1.535,-1.255 3.188,-0.502c-0.019,0.526 -0.536,15.123 -3.781,5.436c-0,-0 -0.228,-7.326 -0.248,-7.963Z" style="fill:#aa7569;"/><path d="M1081.529,900.442c-3.464,-2.35 -4.826,-1.846 -3.926,-4.238c0.273,-0.726 4.304,-2.992 4.599,-2.755c0,0 -0.619,6.433 -0.673,6.992Z" style="fill:#f8edd2;"/><path d="M1366.12,1165.356c0.738,0.004 25.781,0.146 8.879,2.466c-6.45,0.885 -7.995,-2.22 -8.879,-2.466Z" style="fill:#f4dec9;"/><path d="M535.807,767.258l0.285,4.063c-1.207,0.828 -2.414,1.656 -3.62,2.484c0.407,-6.676 -1.474,-6.44 -1.26,-6.966c0.328,-0.804 2.323,0.871 2.651,0.067l1.945,0.351Z" style="fill:#c68b95;"/><path d="M1641.021,1054.976c2.073,-2.858 1.072,-7.157 2.926,-4.033c1.091,1.838 -0.539,2.011 0.468,3.708c-1.131,0.108 -2.262,0.217 -3.394,0.325Z" style="fill:#d3a38a;"/><path d="M674.12,1724.024c-0.686,-1.551 -1.667,-0.42 -2.312,-1.88c-0.102,-0.231 -0.861,-1.947 0.087,-3.149c2.384,-3.023 2.234,4.59 2.225,5.029Z" style="fill:#faeedb;"/><path d="M900.556,1781.306c-1.532,3.619 0.819,7.789 -2.201,5.2c-1.482,-1.27 -0.811,-2.857 -0.712,-3.091c0.769,-1.816 2.154,-0.317 2.913,-2.109Z" style="fill:#f6e7d6;"/><path d="M1068.119,1585.887c0.163,-0.465 0.093,-0.989 0.256,-1.454c1.315,-3.751 4,-0.35 3.531,0.378c-0.702,1.089 -3.085,-0.013 -3.787,1.076Z" style="fill:#a2604f;"/><path d="M1407.042,711.524c-0.336,0.07 -7.017,1.468 -4.045,-1.427c0.53,-0.517 1.667,0.96 2.197,0.444l1.848,0.984Z" style="fill:#e5b887;"/><path d="M1368.529,1191.028c-2.552,0.45 -3.465,3.298 -3.831,0.675c-0.354,-2.528 1.324,-0.233 3.831,-0.675Z" style="fill:#f0a6b1;"/><path d="M730.161,1383.631l4.324,0.505c-0.939,0.492 0.06,1.06 -0.804,1.513c0,0 -3.239,-1.857 -3.52,-2.018Z" style="fill:#9d6358;"/><path d="M1569.628,1418.135c0.008,2.391 2.491,3.87 0.012,3.49c0,0 -0.011,-3.211 -0.012,-3.49Z" style="fill:#f3d6bf;"/><path d="M919.795,993.181c0.035,0.94 1.629,1.365 1.664,2.305c0.032,0.862 -3.075,1.012 -2.902,0.418c0.166,-0.571 1.48,-0.019 1.727,-0.562c0.307,-0.674 -0.795,-1.487 -0.489,-2.161Z" style="fill:#f5e6be;"/><path d="M1053.794,1724.107c0.014,0.842 1.133,1.421 1.147,2.263c0.009,0.535 -0.977,1.179 -1.089,1.253c-0.239,0.156 -0.004,-0.26 -0.058,-3.516Z" style="fill:#c18976;"/></g></svg>