<?xml version="1.0" encoding="UTF-8" standalone="no"?><!DOCTYPE svg PUBLIC "-//W3C//DTD SVG 1.1//EN" "http://www.w3.org/Graphics/SVG/1.1/DTD/svg11.dtd"><svg width="100%" height="100%" viewBox="0 0 1024 1024" version="1.1" xmlns="http://www.w3.org/2000/svg" xmlns:xlink="http://www.w3.org/1999/xlink" xml:space="preserve" xmlns:serif="http://www.serif.com/" style="fill-rule:evenodd;clip-rule:evenodd;stroke-linejoin:round;stroke-miterlimit:2;"><g id="Background"><path d="M581.915,286.296c-1.037,-0.922 -2.628,-2.335 -15.557,-7.762c-12.703,-5.332 -33.929,1.727 -27.244,7.867c2.613,2.4 15.533,14.268 25.27,36.334c46.802,106.062 18.888,206.36 28.455,211.735c17.771,9.983 17.573,12.368 28.351,64.904c5.202,25.358 0.854,46.746 3.18,51.65l-1.282,-0.085c-0.891,0.757 -1.782,1.514 -2.673,2.271c-0.231,0.08 -2.888,0.999 -2.888,0.999c-0.69,-0.084 -1.303,-0.996 -1.948,-0.738c-1.069,0.427 0.139,1.216 -0.864,1.861c-0.865,0.557 -0.912,-0.718 -1.766,-0.169c2.859,-13.196 0.251,-54.406 -3.76,-54.314c-6.1,0.14 -13.92,20.855 -62.247,22.19c-1.865,-0.01 -3.73,-0.021 -5.596,-0.031c-11.952,-2.155 -12.214,-1.148 -23.185,-6.411c-4.055,-1.946 -6.321,-4.02 -6.348,0.418c-0.026,4.263 2.157,69.445 2.289,71.301c1.711,24.051 4.356,25.86 6.204,27.124c-0.647,1.904 -1.781,5.386 -1.934,5.855l-1.842,-1.045c-5.414,0.664 -2.736,9.21 -6.651,15.063c-10.087,32.933 -14.103,38.804 -29.346,44.754c-3.085,1.204 -4.069,-1.773 -9.765,2.635c-6.121,4.737 -14.887,8.707 -10.881,9.663c0.942,0.225 43.38,-6.307 57.45,-18.017c1.344,1.89 2.517,1.267 4.343,9.918l0.152,1.693c-6.471,0.369 -19.95,14.782 -80.023,19.726c-1.67,0.137 -57.238,12.117 -156.211,5.812c-74.359,-4.737 -169.592,-13.193 -211.447,-41.115c-22.645,-16.099 -22.731,-32.079 -30.68,-38.035c-8.704,-6.522 -43.322,-22.114 -43.471,-96.061c-0.074,-36.812 8.661,-85.597 32.04,-106.084c2.943,-2.579 0.819,-3.55 3.867,-15.745c10.886,-43.557 22.291,-36.059 28.206,-41.521c4.431,-4.091 5.9,-58.992 48.09,-123.388c40.554,-61.898 59.57,-50.535 62.802,-64.04c6.827,-28.532 31.78,-38.217 52.446,-44.09c5.7,-1.62 12.118,0.119 13.43,-4.003c2.479,-7.788 14.917,-71.68 101.416,-68.577c66.146,2.373 85.383,59.064 88.223,67.436c1.026,3.024 1.05,6.604 4.929,3.281c28.461,-24.386 142.954,-57.039 200.087,122.65c13.133,41.304 25.984,129.298 18.085,206.952c-1.498,14.727 -4.966,36.587 -5.469,39.758c-4.51,28.431 -9.931,34.104 -7.091,36.586l-1.454,0.679c-9.793,3.911 -12.631,3.338 -12.874,3.371c34.798,-107.671 16.291,-312.224 -44.818,-363.251Z" style="fill:#78323f;"/><path d="M57.083,726.825c-9.811,-34.017 -8.339,-45.666 -5.643,-91.957c0.398,-6.828 2.055,-35.284 10.586,-84.846c16.935,-98.39 23.887,-126.572 45.492,-169.825c1.89,-3.429 14.792,-26.836 29.262,-39.295c2.102,-1.81 16.294,-14.028 28.456,-19.865c5.969,-2.864 38.418,-18.437 80.245,-20.623c102.734,-5.369 163.973,18.576 199.971,89.497c6.604,13.01 26.322,51.858 32.056,179.24c6.468,143.696 13.263,202.816 -42.819,224.045c-37.619,14.24 -143.597,11.491 -240.297,-1.191c-113.933,-14.942 -126.718,-36.952 -137.31,-65.179Z" style="fill:#f695b6;"/><path d="M435.957,557.02c3.343,6.693 9.158,10.837 9.863,62.818c1.295,95.458 -2.393,115.996 -19.502,133.988c-33.585,35.319 -190.443,25.959 -269.415,10.297c-95.336,-18.908 -90.72,-45.57 -87.258,-166.227c1.546,-22.122 0.054,-66.957 45.784,-77.019c13.831,-3.043 45.135,-9.931 177.095,-1.413c101.223,6.534 125.957,12.167 143.432,37.557Z" style="fill:#833646;"/><path d="M909.951,623.897c4.489,3.56 5.398,0.483 62.986,6.418c14.163,1.46 47.486,0.827 46.28,22.376c-0.655,11.704 -12.394,10.823 -16.025,26.035c-5.879,24.628 0.315,47.186 5.513,48.45c5.23,1.272 19.865,5.409 10.569,26.613c-13.579,15.07 -105.679,63.999 -126.388,76.067c-34.121,19.883 -36.574,16.527 -153.68,8.552c-29.699,-2.023 -64.831,-6.418 -78.841,-6.682c-1.779,-0.034 -1.65,-1.114 -22.139,-2.168c-2.742,-0.141 -5.616,3.743 -8.112,2.341c-4.9,-2.753 -4.595,-3.223 -9.92,-4.961c2.796,-3.096 3.617,-3.536 1.357,-6.983c-0.42,-0.64 -1.338,-2.04 -9.601,0.669l-0.18,2.006l0.275,1.37l-0.099,1.388c-8.956,-1.245 -8.97,-0.161 -17.934,-1.643c-44.532,-7.363 -52.628,-3.789 -72.18,-37.789l-0.152,-1.693c-1.826,-8.651 -2.999,-8.028 -4.343,-9.918c1.699,-5.309 -1.067,-5.277 -2.043,-21.606c-0.423,-7.082 -0.175,-7.095 -2.685,-13.756c2.698,-1.835 3.195,-3.797 3.3,-4.211c0.269,-1.063 0.148,-0.972 2.463,-13.479c0.153,-0.469 1.287,-3.952 1.934,-5.855c14.209,-35.27 37.5,-36.229 92.643,-60.276c0.854,-0.549 0.9,0.726 1.766,0.169c1.003,-0.645 -0.205,-1.434 0.864,-1.861c0.645,-0.257 1.258,0.655 1.948,0.738c0,0 2.657,-0.919 2.888,-0.999c0.891,-0.757 1.782,-1.514 2.673,-2.271l1.282,0.085c0.788,-0.492 1.575,-0.985 2.363,-1.477c0.243,-0.032 3.08,0.54 12.874,-3.371l1.454,-0.679c19.93,-6.119 43.298,-14.536 47.034,-15.881c1.416,-0.51 1.368,-1.4 1.496,-1.531c3.466,3.956 3.298,3.925 6.29,8.192l0.038,1.862c-4.305,-0.488 -20.309,6.902 -71.474,24.311c-33.84,11.514 -33.491,12.152 -66.333,26.037c-3.184,2.14 -2.913,2.304 -5.684,5.079c-24.751,6.858 -35.966,50.312 -22.11,86.606c14.426,27.299 17.712,26.936 58.189,33.757c4.603,0.776 4.426,0.981 9.193,1.215c5.292,-6.474 2.716,-13.679 0.336,-14.101c-26.8,-4.756 -35.69,-2.785 -38.718,-2.114c-10.611,2.352 -29.602,-30.722 -25.573,-57.088c0.112,-0.73 0.244,-33.197 22.874,-35.814c12.87,-1.488 81.678,7.741 246.15,18.229c49.157,3.135 50.822,7.231 59.374,-0.38c0.938,-0.017 1.875,-0.035 2.813,-0.052c2.072,-0.66 62.22,-32.393 112.076,-53.285c29.611,-12.408 34.612,-13.991 30.123,-21.787c-2.085,-3.621 -7.302,-4.116 -8.024,-4.185c-24.301,-4.76 -90.343,-9.628 -96.525,-7.99l-0.252,-2.09c0.588,-0.861 4.332,-6.343 7.598,-10.591Z" style="fill:#3f5059;"/><path d="M909.951,623.897c-3.266,4.248 -7.01,9.73 -7.598,10.591l0.252,2.09c-3.235,3.866 -3.152,3.769 -6.295,7.63c-46.615,54.287 -84.369,29.159 -101.766,31.091c-21.703,2.41 -51.239,15.144 -92.427,-29.603c-3.017,-3.865 -2.793,-3.898 -6.198,-7.558l-0.038,-1.862c-2.992,-4.267 -2.824,-4.236 -6.29,-8.192c-12.204,-25.346 -19.127,-43.05 -13.71,-80.825c4.895,-34.131 34.394,-70.038 72.972,-69.979c38.449,0.059 42.098,8.54 42.152,2.895c0.23,-24.107 -26.368,-34.333 -14.295,-50.672c6.446,-8.723 22.853,-9.386 28.707,20.446c2.292,11.679 4.759,-2.005 14.473,-8.938c32.385,-23.112 53.055,-8.273 70.068,-2.199c11.726,4.187 1.826,14.504 -0.945,19.599c-13.004,23.907 -23.663,24.044 -17.229,26.042c34.522,10.723 71.904,65.246 38.167,139.441Z" style="fill:#6b4033;"/><path d="M328.463,278.616c24.191,2.647 24.173,3.149 26.16,2.469c8.918,-3.051 -12.567,-6.059 -13.765,-6.226c-91.096,-12.751 -132.987,13.032 -136.92,10.804c-0.715,-0.405 -0.844,-1.493 -1.559,-1.898c11.906,-6.124 42.569,-24.646 130.228,-24.426c21.052,0.053 68.208,4.137 102.108,15.861c86.617,29.954 119.148,95.15 141.274,229.534c4.503,27.349 3.708,28.733 1.384,28.758c-4.489,0.048 -26.8,-4.34 -56.358,11.609c-33.784,18.229 -17.727,47.484 -16.884,74.732c2.079,67.133 12.85,116.939 -22.422,150.37c-8.214,7.785 -1.558,-3.578 -1.392,-3.862c18.65,-31.841 10.59,-119.655 8.279,-195.825c-0.35,-11.538 -4.863,-79.541 -11.812,-115.168c-14.608,-74.889 -50.65,-166.691 -210.554,-165.645c-10.776,0.07 -81.097,3.294 -118.713,33.417c-16.597,13.291 0.78,-4.56 1.086,-4.812c19.427,-16.013 45.44,-29.756 49.617,-31.963c0.726,0.598 0.906,1.694 1.632,2.292c1.86,1.532 15.589,-3.448 36.031,-6.685c49.47,-7.834 90.398,-3.444 92.579,-3.335Z" style="fill:#f078a1;"/><path d="M141.851,621.972c129.176,17.281 221.401,7.858 240.55,5.901c1.412,2.255 2.24,3.578 2.526,33.073c0.264,27.268 -0.367,50.572 -0.394,53.298c-2.953,0.151 -2.748,0.686 -4.277,3.275c-16.86,28.543 -31.316,30.88 -43.377,34.222c-6.729,2.671 -19.49,5.437 -49.903,4.917c-5.321,-0.091 -34.551,-0.591 -66.429,-3.431c-107.141,-9.547 -110.935,-18.772 -120.262,-19.735l-0.2,1.443l-0.124,1.91c-25.198,-19.635 -24.949,-48.345 -22.797,-112.863l0.995,0.221c1.645,0.51 3.29,1.019 4.935,1.529c3.444,7.416 -0.748,9.79 0.473,29.737c0.029,0.48 -0.029,1.253 -0.038,1.362c-0.192,2.525 1.66,2.771 1.771,2.955c-7.724,9.666 -2.496,12.65 3.555,19.279c7.511,8.229 -2.351,16.497 10.299,25.116c1.735,3.515 3.986,12.728 19.101,6.073c2.622,-1.155 13.291,6.365 21.859,-1.641c7.146,-6.677 5.457,-7.735 6.299,-17.478c0.499,-5.77 13.506,-4.873 7.035,-26.082l-0.159,-1.37l0.101,-1.37l-1.934,-1.37l-1.165,-1.37l-1.605,-1.128l-0.886,-1.612l-1.839,-1.37l-0.741,-1.37c-0.699,-0.596 -1.138,0.005 -2.674,-2.283c-1.022,-1.522 -7.438,-9.842 -7.026,-11.467c2.143,-8.45 3.802,-8.316 2.539,-15.026l0.947,-0.651l1.383,-0.46l1.462,-2.232Z" style="fill:#ef6d99;"/><path d="M837.657,501.159c30.191,-4.046 32.938,11.665 39.414,29.734c4.706,29.616 -1.069,43.724 -0.038,45.093c0.559,0.742 1.849,0.681 2.408,1.424c-0.382,0.869 -0.763,1.739 -1.145,2.608c-0.413,0.783 -1.073,0.804 -2.21,4.193c-1.006,2.998 -7.247,-0.771 -8.663,1.038c-2.435,3.111 9.533,2.737 4.302,7.094c-1.956,1.629 -5.926,13.047 -10.431,19.269l-1.322,1.37l-1.083,1.37l-0.788,0.811l1.709,2.238c-2.832,2.54 -28.653,25.697 -40.472,25.111c-3.938,-0.196 -10.733,2.477 -13.766,2.176c-12.248,-1.213 -30.566,4.901 -59.406,-0.635c-11.582,-2.224 -35.104,-14.27 -37.715,-16.761c-0.075,-0.08 -4.314,-4.104 -5.231,-5.685c-1.211,-2.09 -1.558,-0.298 -3.354,1.332c-13.533,-23.881 -14.422,-51.876 -14.571,-56.542l1.799,-1.372l0.416,-1.37l0.284,-1.37l0.48,-1.37l0.167,-1.37l0.331,-1.37l0.673,-1.37c1.897,-5.815 7.905,-33.786 25.92,-51.063c10.003,-9.593 26.056,-15.617 38.124,-7.102c0.796,0.561 26.03,14.985 27.285,15.41c3.33,1.129 21.742,8.409 42.755,-2.957c2.624,-1.419 2.634,-1.437 2.766,-1.657c0.742,-1.246 -0.976,-1.347 -0.277,-2.522c10.786,-5.178 10.696,-5.317 11.639,-5.752Z" style="fill:#f35a60;"/><path d="M349.541,545.316c7.939,-1.453 23.143,7.14 28.579,15.699c0.226,0.356 0.259,0.292 3.503,3.944c0.648,2.478 5.666,21.678 2.242,31.924c-15.207,1.391 -75.859,6.938 -190.898,-0.914c-64.028,-4.37 -63.653,-6.897 -69.208,-7.268c-12.717,-0.849 -12.802,-0.455 -33.355,-6.657l1.667,-1.948c0.765,-1.334 0.72,-1.278 0.692,-2.831c-0.336,-18.41 14.969,-28.706 20.111,-31.105c29.261,-13.649 225.886,4.658 235.691,1.814c0.325,-0.886 0.65,-1.772 0.975,-2.658Z" style="fill:#ed6c97;"/><path d="M562.234,748.227c-0.011,-0.301 -0.59,-3.309 -0.295,-7.85c0.426,-6.543 20.667,-3.325 23.29,-5.9c5.281,-5.184 -19.691,-0.234 -22.762,-3.478c-1.31,-1.383 0.675,-0.691 2.03,-1.942c7.355,-6.791 65.737,3.523 109.714,6.587c67.572,4.708 67.378,6.351 73.257,6.197c19.239,-0.503 94.575,6 102.785,6.708c-0.801,6.508 -1.731,9.425 -0.764,15.297c1.211,11.985 -3.308,31.535 4.47,47.89c-18.685,-0.404 -40.376,1.091 -178.264,-10.344c-1.535,-3.126 -0.825,-3.257 -1.434,-14.375c-0.428,-15.493 -1.97,-22.738 -2.383,-24.678l-1.941,-1.367c-2.41,-18.42 -48.051,-15.757 -55.07,-10.752c-10.995,7.84 -11.165,21.527 -12.39,29.964l-2.272,-1.402l-0.15,-1.37c-0.578,-0.07 0.026,-1.573 -0.552,-1.643c-0.357,-0.043 -3.813,3.163 -13.709,1.227c-8.29,-1.622 -8.233,-1.331 -16.699,-0.856c-0.214,0.012 -0.191,-0.054 -2.576,-0.735c-3.815,-5.202 -0.755,-6.376 -3.921,-12.055c-0.389,-0.699 -0.844,-1.514 -1.943,-9.789l1.529,-0.127c7.78,0.943 16.494,2.104 17.927,2.294c2.924,0.389 16.811,3.784 15.262,-1.616c-1.527,-5.321 -30.446,-5.837 -33.139,-5.886Z" style="fill:#fcf6e0;"/><path d="M581.915,286.296c61.109,51.027 79.615,255.581 44.818,363.251c-0.788,0.492 -1.575,0.985 -2.363,1.477c-2.326,-4.904 2.022,-26.292 -3.18,-51.65c-10.778,-52.536 -10.581,-54.921 -28.351,-64.904c-9.567,-5.375 18.347,-105.673 -28.455,-211.735c-9.737,-22.066 -22.657,-33.934 -25.27,-36.334c-6.685,-6.14 14.542,-13.199 27.244,-7.867c12.928,5.426 14.519,6.84 15.557,7.762Z" style="fill:#dc5986;"/><path d="M1019.274,753.789c14.339,11.428 -5.591,16.676 -37.741,36.548c-55.714,34.436 -57.025,32.122 -85.758,49.241c-37.729,22.478 -53.764,15.144 -123.422,12.035c-26.625,-1.188 -53.528,-4.411 -67.78,-5.274c-58.743,-3.559 -58.458,-8.258 -63.373,-6.905c-10.153,2.794 -26.973,-2.806 -33.385,-3.322c-20.889,-1.681 -26.989,-4.395 -38.816,-6.084c-56.388,-8.052 -53.11,-18.831 -57.981,-18.621c-17.906,0.774 -17.801,0.303 -19.295,0.69c-33.888,8.792 -77.34,10.465 -90.005,11.319c-125.971,8.493 -265.208,-16.517 -279.433,-20.914c-11.907,-3.68 -65.968,-15.334 -53.42,-28.884c1.816,-1.961 2.256,-0.842 3.763,-1.405l1.523,-1.833c41.854,27.922 137.088,36.378 211.447,41.115c98.973,6.305 154.541,-5.675 156.211,-5.812c60.072,-4.944 73.551,-19.357 80.023,-19.726c19.552,34 27.647,30.425 72.18,37.789c8.964,1.482 8.978,0.398 17.934,1.643l8.248,1.549c5.325,1.738 5.021,2.208 9.92,4.961c2.496,1.402 5.37,-2.482 8.112,-2.341c20.49,1.054 20.36,2.135 22.139,2.168c14.01,0.265 49.141,4.66 78.841,6.682c117.106,7.976 119.559,11.331 153.68,-8.552c20.71,-12.068 112.809,-60.998 126.388,-76.067Z" style="fill:#eaeae9;"/><path d="M333.562,406.185c0.787,9.787 3.635,20.659 -10.748,42.296c-6.343,9.541 -18.675,20.122 -26.074,24.863c-27.954,17.915 -32.253,20.185 -59.07,0.647c-58.9,-49.216 -31.32,-91.179 -6.042,-95.469c20.506,-3.48 30.362,7.523 34.776,10.863c4.303,3.256 4.243,-0.098 8.54,-3.256c10.557,-7.759 24.417,-9.704 34.171,-6.129c20.825,7.634 23.558,23.757 24.446,26.184Z" style="fill:#7b3a40;"/><path d="M902.605,636.578c6.182,-1.639 72.224,3.23 96.525,7.99c-4.087,7.154 -12.282,9.573 -62.474,32.219c-56.045,25.287 -56.076,25.068 -60.904,27.349c-15.736,7.434 -16.437,4.26 -45.281,2.78c-157.462,-8.077 -182.418,-13.398 -261.4,-16.845c-5.818,-0.254 -6.432,2.171 -10.96,-1.585c32.842,-13.884 32.493,-14.523 66.333,-26.037c51.165,-17.409 67.169,-24.799 71.474,-24.311c3.405,3.66 3.181,3.693 6.198,7.558c-8.536,2.696 -12.796,4.284 -16.775,8.499c-32.569,34.49 166.691,43.872 221.218,20.565c36.528,-15.614 -4.144,-26.864 -10.25,-30.551c3.142,-3.862 3.06,-3.764 6.295,-7.63Z" style="fill:#45c2e6;"/><path d="M382.401,627.873c37.513,-4.653 49.924,-10.489 51.141,-10.85c4.735,-1.408 3.559,12.504 3.586,15.142c0.876,85.904 -1.588,105.783 -23.281,121.443c-38.739,27.966 -261.86,16.843 -313.885,-16.763l0.124,-1.91l0.2,-1.443c9.327,0.963 13.121,10.188 120.262,19.735c31.878,2.841 61.108,3.34 66.429,3.431c30.413,0.52 43.174,-2.246 49.903,-4.917c0.432,0.793 2.731,5.015 10.88,3.25c31.497,-6.822 34.978,-34.776 36.773,-40.747c0.027,-2.726 0.658,-26.029 0.394,-53.298c-0.286,-29.495 -1.114,-30.818 -2.526,-33.073Z" style="fill:#d9547f;"/><path d="M849.491,763.846c-0.967,-5.873 -0.037,-8.789 0.764,-15.297c0.973,-2.638 1.946,-5.275 2.919,-7.913c1.612,1.556 0.509,2.187 2.152,3.773c0.081,0.078 0.151,0.146 1.36,-0.382c16.415,-7.178 15.766,-8.24 32.043,-15.569c90.588,-40.786 89.789,-42.491 96.385,-44.565c3.408,-1.072 3.203,0.012 3.859,0.342l1.794,1.372c-0.724,8.968 -0.764,8.846 -0.906,17.802c1.442,13.401 2.089,13.19 6.923,25.895c2.002,5.263 0.574,7.436 -58.595,39.659c-2.55,1.389 -2.496,1.339 -78.735,41.271c-2.693,1.089 -2.552,1.106 -5.494,1.501c-7.778,-16.355 -3.259,-35.905 -4.47,-47.89Z" style="fill:#ead9b9;"/><path d="M867.769,495.213c1.752,0.659 3.569,1.142 5.322,1.801c41.251,15.52 48.97,88.754 23.042,129.257c-38.43,60.033 -84.882,40.812 -92.091,39.427c-24.373,-4.682 -59.368,28.062 -104.176,-42.76c1.796,-1.63 2.142,-3.422 3.354,-1.332c0.917,1.582 5.157,5.606 5.231,5.685c2.612,2.491 26.133,14.538 37.715,16.761c28.84,5.537 47.158,-0.578 59.406,0.635c3.033,0.3 9.828,-2.372 13.766,-2.176c11.819,0.587 37.64,-22.57 40.472,-25.111c13.946,-13.119 10.029,-17.662 17.67,-27.703c2.015,-2.648 1.323,-3.057 1.669,-4.12c0.946,-2.901 0.172,-2.816 -0.854,-5.56c0.382,-0.869 0.763,-1.739 1.145,-2.608c1.345,-3.136 9.428,-21.977 2.445,-42.531c-0.202,-0.596 -0.272,-0.499 -1.659,-1.924c-1.332,-1.368 -1.515,-0.99 -3.156,-2.062c-6.476,-18.068 -9.223,-33.779 -39.414,-29.734c3.038,-3.57 3.851,-2.235 8.039,-4.568c9.917,-5.525 15.496,-2.72 22.073,-1.378Z" style="fill:#de3f49;"/><path d="M237.19,385.697c8.234,0.935 8.532,-0.476 15.036,2.939c9.374,4.922 11.558,13.276 13.173,15.573c4.284,6.093 2.875,-10.651 23.043,-16.977c6.296,-0.973 6.174,-1.094 12.451,-0.799l0.457,1.829c8.349,16.949 28.651,25.21 -6.95,63.525c-24.678,26.559 -37.607,19.2 -40.682,17.45c-7.578,-4.313 -7.701,-7.364 -13.976,-3.967c-11.689,-10.656 -11.51,-10.807 -19.191,-22.168c1.541,-1.872 2.241,-1.753 1.551,-4.141c-0.296,-1.025 -0.044,-0.932 0.576,-1.71c1.029,-1.291 -1.559,-3.578 -4.622,-12.063c-0.611,-1.023 -1.222,-2.046 -1.833,-3.068c2.076,-1.053 1.889,-1.233 4.357,-1.479c7.325,-0.73 -3.426,-14.495 9.97,-22.369c5.869,-3.45 21.447,-2.646 8.027,-10.875l-1.384,-1.7Z" style="fill:#fbe873;"/><path d="M552.428,693.566c18.041,-0.736 134.095,10.391 200.577,13.914c98.364,5.213 98.697,4.362 107.947,8.181c1.815,3.893 1.505,3.891 1.191,8.216c-8.552,7.611 -10.217,3.514 -59.374,0.38c-164.472,-10.488 -233.281,-19.717 -246.15,-18.229c-22.629,2.617 -22.762,35.084 -22.874,35.814c-4.03,26.366 14.962,59.44 25.573,57.088c3.027,-0.671 11.918,-2.642 38.718,2.114c2.38,0.422 4.957,7.627 -0.336,14.101c-4.767,-0.234 -4.59,-0.44 -9.193,-1.215c-40.477,-6.822 -43.763,-6.458 -58.189,-33.757c-13.856,-36.294 -2.64,-79.748 22.11,-86.606Z" style="fill:#57cbea;"/><path d="M544.974,672.781c0.338,-0.053 0.498,0.887 5.777,-1.296c2.116,-0.875 13.579,-5.614 14.925,-24.244c1.287,-17.811 -1.797,-17.955 -9.041,-20.763l-1.383,-0.188l-1.383,0.228l-1.383,-0.175l-1.383,-0.473l-1.383,-0.05l-1.383,-1.711l-1.395,-1.074c48.327,-1.335 56.147,-22.05 62.247,-22.19c4.011,-0.092 6.619,41.118 3.76,54.314c-55.143,24.047 -78.434,25.006 -92.643,60.276c-1.848,-1.264 -4.493,-3.072 -6.204,-27.124c-0.132,-1.856 -2.315,-67.038 -2.289,-71.301c0.027,-4.438 2.293,-2.364 6.348,-0.418c10.972,5.264 11.234,4.256 23.185,6.411l0.487,0.938c2.084,3.042 1.409,3.23 1.754,6.904c2.586,27.53 1.664,38.588 1.386,41.933Z" style="fill:#ee7fa6;"/><path d="M855.329,735.879c-0.438,0.935 -0.263,0.91 -0.678,1.796c-0.112,0.24 -0.109,0.219 -1.478,2.962c-0.973,2.638 -1.946,5.275 -2.919,7.913c-8.21,-0.709 -83.546,-7.211 -102.785,-6.708c-5.88,0.154 -5.685,-1.49 -73.257,-6.197c-43.977,-3.064 -102.359,-13.378 -109.714,-6.587c-1.355,1.251 -3.339,0.559 -2.03,1.942c3.071,3.244 28.043,-1.706 22.762,3.478c-2.623,2.575 -22.865,-0.642 -23.29,5.9c-0.295,4.542 0.283,7.55 0.295,7.85c-0.34,-0.033 -19.116,0.742 -2.842,3.159c0.275,0.041 0.871,0.129 2.792,2.047l-1.529,0.127c1.099,8.275 1.553,9.09 1.943,9.789c3.166,5.68 0.106,6.853 3.921,12.055c-0.044,0.74 -0.922,1.267 -0.966,2.007c-0.192,3.198 0.551,3.802 3.79,3.127c0.461,4.944 0.193,4.904 -0.629,7.835l-1.027,1.984c-3.726,-0.598 -3.667,-1.12 -7.437,-8.574c-13.272,-26.236 -6.173,-68.008 3.301,-67.475c64.06,3.605 251.752,21.113 291.777,21.571Z" style="fill:#e8d3b0;"/><path d="M140.451,598.769c36.432,4.827 110.6,7.528 120.233,7.879c55.423,2.018 110.696,-1.868 120.298,-2.543l1.41,1.212c0.716,1.251 1.321,0.882 1.266,2.212c-0.292,7.072 0.041,7.066 -0.103,8.104c-0.477,3.452 1.418,2.829 1.74,3.472c-75.233,9.278 -182.663,2.437 -247.818,-5.635c0.262,-0.885 2.722,-9.189 1.6,-11.418c-0.12,-0.238 -2.422,-1.465 -0.013,-3.448c0.358,-0.295 1.028,0.461 1.386,0.166Z" style="fill:#fbe6cc;"/><path d="M378.585,188.998l-1.724,2.019l1.601,1.301l1.46,1.37c1.346,1.666 28.09,23.934 31.508,52.07c0.676,5.561 -0.88,10.975 1.378,15.142c-8.996,-2.135 -8.914,-2.02 -17.809,-4.377c0.314,-0.293 4.646,-1.423 3.101,-12.155c-1.054,-7.316 -4.175,-15.76 -6.85,-19.537c-23.136,-32.666 -82.506,-32.682 -102.575,-14.368c-19.538,17.829 -20.552,38.406 -22.441,41.713l1.528,2.215c-15.459,3.26 -15.393,3.438 -16.739,3.704c-4.059,0.803 -2.542,-1.571 -2.068,-5.566c2.978,1.173 2.968,1.399 3.209,1.264c0.096,-0.054 0.135,-0.075 0.021,-1.37c-0.145,-1.663 0.371,-1.427 1.148,-3.033c0.339,-0.701 -0.166,-1.776 0.418,-2.295c1.043,-0.928 1.623,0.767 2.471,-0.358c6.1,-8.097 -0.985,-9.193 -1.051,-9.649c-0.07,-0.483 1.217,-0.441 1.147,-0.924l-0.273,-1.508c-0.915,-0.466 -1.83,-0.931 -2.744,-1.397c5.273,-13.11 13.045,-34.907 47.706,-48.682c23.317,-9.266 55.938,-6.071 77.581,4.419Z" style="fill:#fcec7f;"/><path d="M896.31,644.209c6.105,3.688 46.778,14.937 10.25,30.551c-54.527,23.307 -253.787,13.925 -221.218,-20.565c3.98,-4.214 8.239,-5.803 16.775,-8.499c41.188,44.747 70.724,32.013 92.427,29.603c17.396,-1.932 55.15,23.196 101.766,-31.091Z" style="fill:#3ea2c1;"/><path d="M999.13,644.568c0.722,0.069 5.939,0.563 8.024,4.185c4.489,7.795 -0.512,9.378 -30.123,21.787c-49.855,20.892 -110.004,52.625 -112.076,53.285c-0.938,0.017 -1.875,0.035 -2.813,0.052c0.314,-4.325 0.624,-4.323 -1.191,-8.216c-9.25,-3.819 -9.583,-2.968 -107.947,-8.181c-66.482,-3.523 -182.536,-14.651 -200.577,-13.914c2.771,-2.775 2.5,-2.94 5.684,-5.079c4.528,3.757 5.142,1.331 10.96,1.585c78.982,3.447 103.939,8.768 261.4,16.845c28.844,1.48 29.545,4.654 45.281,-2.78c4.829,-2.281 4.859,-2.062 60.904,-27.349c50.192,-22.646 58.387,-25.065 62.474,-32.219Z" style="fill:#32819d;"/><path d="M132.076,526.169c0.927,0.579 1.855,1.158 2.782,1.737l1.383,-0.018l1.383,0.013l1.383,0.184l1.383,0.007l1.383,0.068l1.383,0.065l1.383,0.044l1.383,-0.032l1.383,-0.034l1.383,-0.035l1.383,0.048l1.383,-0.004l1.383,0.02l1.383,0.055l1.383,0.062c11.309,-1.066 134.833,10.323 156.255,10.844c15.77,0.384 33.021,4.916 35.826,5.653c0.148,0.039 1.752,0.46 1.859,0.47c-0.325,0.886 -0.65,1.772 -0.975,2.658c-9.805,2.845 -206.43,-15.463 -235.691,-1.814c-5.142,2.399 -20.447,12.695 -20.111,31.105c0.028,1.553 0.073,1.497 -0.692,2.831l-1.667,1.948c-0.416,-0.179 -5.196,-2.239 -5.196,-2.239c-1.927,-0.986 -9.303,-4.758 0.455,-26.862c11.79,-26.708 43.216,-26.365 46.414,-26.775Z" style="fill:#f9a6be;"/><path d="M582.762,474.534c-0.434,0.235 -0.802,0.578 -1.236,0.813c-2.595,1.405 -5.447,-85.957 -58.361,-152.641c-4.243,-5.347 -3.751,-6.935 -0.494,-19.235c2.649,-10.004 4.82,-16.034 11.699,-8.267c44.975,50.777 47.997,164.485 48.392,179.33Z" style="fill:#fcfbfc;"/><path d="M26.757,555.305l1.054,1.497l0.567,1.37c4.666,-3.908 5.078,-3.98 10.946,-2.352c1.595,0.285 1.436,0.57 3.019,0.919c1.319,8.503 -5.383,47.417 -7.752,69.999c-1.485,14.156 -1.083,78.049 -15.737,45.165l-0.572,-1.37l-0.546,-1.37l-0.23,-1.37l-0.575,-1.37l-0.555,-1.37l-0.423,-1.37l-0.591,-1.37l-0.287,-1.37c-0.879,-0.483 -1.759,-0.966 -2.638,-1.449c-7.13,-62.602 13.465,-102.279 14.321,-104.186Z" style="fill:#faaec5;"/><path d="M132.076,526.169c7.886,-0.607 28.884,-2.712 89.907,-1.024c158.024,4.372 177.189,13.707 190.979,20.424l-1.529,1.421l-1.383,-0.324c-17.745,3.994 -24.376,8.002 -28.427,18.293c-3.243,-3.652 -3.277,-3.588 -3.503,-3.944c-5.437,-8.559 -20.64,-17.153 -28.579,-15.699c-0.107,-0.009 -1.711,-0.431 -1.859,-0.47c-2.805,-0.737 -20.056,-5.269 -35.826,-5.653c-21.422,-0.522 -144.946,-11.911 -156.255,-10.844l-1.383,-0.062l-1.383,-0.055l-1.383,-0.02l-1.383,0.004l-1.383,-0.048l-1.383,0.035l-1.383,0.034l-1.383,0.032l-1.383,-0.044l-1.383,-0.065l-1.383,-0.068l-1.383,-0.007l-1.383,-0.184l-1.383,-0.013l-1.383,0.018c-0.927,-0.579 -1.855,-1.158 -2.782,-1.737Z" style="fill:#e4658d;"/><path d="M381.561,245.586c0.572,2.285 3.329,7.12 -3.361,6.064c-50.216,-7.926 -86.988,-0.16 -87.991,-3.313c-0.259,-0.815 2.639,-24.785 24.491,-31.133c51.11,-14.848 64.885,22.96 66.861,28.383Z" style="fill:#fcfbfb;"/><path d="M618.693,756.539c2.079,-2.291 4.791,-5.279 38.862,-0.811c12.15,1.593 0.853,7.457 -0.834,25.815c-0.718,7.814 -0.124,23.908 -0.048,25.985c-3.29,1.438 -4.142,1.802 -5.632,-1.45l-1.754,-0.538c-2.548,1.13 -3.2,-1.43 -7.002,-2.963c-11.606,-4.679 -12.661,-2.511 -19.262,-2.518c-6.066,-0.006 -7.041,1.545 -10.718,-3.352c2.951,-30.564 3.384,-30.866 5.552,-32.378c3.196,-2.228 5.841,-3.404 0.835,-7.791Z" style="fill:#faa55f;"/><path d="M548.314,258.667c-15.557,0.776 -23.757,1.997 -39.21,22.279c-6.204,8.143 -9.952,4.419 -13.283,6.103c-3.018,1.525 -2.776,1.872 -3.048,1.977c-0.784,0.3 -1.732,-0.15 -2.516,0.15l-1.663,2.179c-3.946,-2.619 -7.86,-6.069 -27.691,-16.249c8.103,-7.329 5.052,-11.276 15.534,-14.219c13.895,-3.902 16.943,-19.202 55.301,-16.585c6.13,0.418 15.526,12.964 16.576,14.365Z" style="fill:#fba9c3;"/><path d="M412.962,545.569c1.869,1.255 14.111,9.479 18.604,21.033c0.575,1.478 6.549,16.84 1.603,19.741c-12.101,7.097 -45.287,10.169 -49.304,10.541c3.424,-10.246 -1.594,-29.446 -2.242,-31.924c4.05,-10.291 10.682,-14.299 28.427,-18.293l1.383,0.324l1.529,-1.421Z" style="fill:#d3517c;"/><path d="M548.314,258.667c-1.05,-1.402 -10.446,-13.947 -16.576,-14.365c-38.358,-2.617 -41.406,12.682 -55.301,16.585c-10.482,2.944 -7.431,6.891 -15.534,14.219c-1.926,-1.201 -6.409,-5.15 16.058,-23.265c39.56,-31.897 69.778,-7.215 87.486,6.823c2.693,2.135 22.73,21.194 17.039,21.515c-0.432,0.024 -23.161,-26.751 -53.897,-1.542c-14.242,11.681 -17.071,29.219 -18.214,29.499c-2.082,0.51 -1.707,-0.627 -20.78,-16.781l1.663,-2.179c0.784,-0.3 1.732,0.15 2.516,-0.15c0.272,-0.104 0.03,-0.451 3.048,-1.977c3.331,-1.684 7.079,2.04 13.283,-6.103c15.453,-20.282 23.653,-21.504 39.21,-22.279Z" style="fill:#f6a5be;"/><path d="M583.913,551.625c-8.115,-7.694 -9.521,-3.348 -20.456,-0.747c-3.134,0.745 -9.247,-1.925 -27.472,6.126c-1.146,0.506 -11.319,4.999 -12.483,9.401c-1.373,5.19 11.035,6.453 12.406,6.718l1.366,1.642c0.261,0.542 1.075,0.68 1.336,1.221c3.127,6.482 -14.234,-0.23 -14.612,-0.345c-4.505,9.758 -0.092,24.307 -0.186,27.606c-0.013,0.471 -0.352,0.975 -0.157,1.405c0.486,1.07 1.602,1.778 2.088,2.849l-0.672,1.37l-0.18,1.243c-8.736,-3.761 -8.845,-3.516 -11.248,-5.19c-3.52,-2.453 -4.657,-24.142 -4.332,-28.971c0.298,-4.436 1.707,-25.407 44.665,-33.605c23.703,-4.523 41.919,-8.761 49.244,20.041c6.611,25.994 5.008,27.062 -0.785,32.934c-7.612,-7.197 -2.487,-14.374 -9.123,-30.133c-3.996,-9.489 2.47,-12.923 -4.873,-16.459l-1.383,0.251l-1.383,0.449l-1.762,2.194Z" style="fill:#f0c660;"/><path d="M26.757,555.305c5.057,-9.312 9.355,-21.241 23.807,-19.403c1.568,0.199 3.836,0.719 0.144,19.574c-10.402,53.134 -12.18,99.882 -12.236,115.062c-0.156,41.831 6.942,51.007 0.779,45.687c-23.618,-20.388 -25.585,-50.391 -26.816,-56.733c0.879,0.483 1.759,0.966 2.638,1.449l0.287,1.37l0.591,1.37l0.423,1.37l0.555,1.37l0.575,1.37l0.23,1.37l0.546,1.37l0.572,1.37c14.654,32.884 14.252,-31.009 15.737,-45.165c2.369,-22.582 9.071,-61.495 7.752,-69.999c-0.122,-0.149 -1.521,-1.862 -1.521,-1.862c-0.591,0.022 -0.907,0.921 -1.498,0.943c-5.869,-1.627 -6.28,-1.556 -10.946,2.352l-0.567,-1.37l-1.054,-1.497Z" style="fill:#ed7fa6;"/><path d="M676.926,813c-0.029,0.483 -0.313,5.145 0.741,5.999c0.568,0.46 1.476,-1.269 2.044,-0.809l1.383,-0.277c26.995,-2.321 71.371,10.175 157.638,7.327c18.752,-0.619 23.024,3.87 24.395,5.31l-0.433,2.268c-2.969,1.33 -2.798,1.594 -5.998,1.974c-19.231,2.285 -68.761,-2.684 -74.714,-3.281c-15.215,-1.527 -116.474,-7.565 -117.907,-11.573c-0.162,-0.453 0.1,-0.988 -0.062,-1.441c0.273,-7.623 0.249,-7.575 0.295,-8.232c0.333,-4.802 3.236,-2.084 63.874,3.624c-0.644,0.566 -0.786,-0.663 -1.372,-0.148c-1.223,1.074 -0.308,1.518 -1.465,2.641c-0.229,0.222 -37.011,-2.957 -48.419,-3.382Z" style="fill:#3bb8de;"/><path d="M583.913,551.625l1.762,-2.194l1.383,-0.449l1.383,-0.251c7.343,3.535 0.877,6.97 4.873,16.459c6.636,15.759 1.511,22.936 9.123,30.133c-5.63,4.774 -11.289,11.134 -34.661,16.728c-0.671,-0.462 -0.676,0.673 -1.359,0.203c-1.187,-0.818 -0.298,-1.498 -1.485,-2.162c-0.642,-0.359 -2.739,2.635 -2.796,-1.222c-0.057,-3.849 -1.148,-31.921 -1.654,-34.267c-0.056,-0.26 -0.732,0.097 -0.789,-0.163c-0.092,-0.42 0.583,-0.775 0.491,-1.196l-0.784,-0.471l-1.531,-1.503c17.785,-5.013 32.756,-9.556 26.044,-19.646Z" style="fill:#f7d05f;"/><path d="M397.825,295.959c-11.224,-5.399 -25.449,-9.844 -25.872,-12.063c-0.093,-0.485 -0.409,-3.016 6.181,-0.752c110.083,37.816 126.953,123.623 134.269,153.073c11.923,47.998 13.27,82.113 11.059,82.259c-2.763,0.183 -2.29,-6.1 -2.689,-8.308c-20.987,-115.99 -36.584,-177.445 -122.948,-214.209Z" style="fill:#a03a57;"/><path d="M557.869,571.271l1.531,1.503l0.784,0.471c0.092,0.42 -0.583,0.775 -0.491,1.196c0.057,0.26 0.733,-0.098 0.789,0.163c0.505,2.346 1.597,30.418 1.654,34.267c0.057,3.856 2.154,0.863 2.796,1.222c1.187,0.663 0.298,1.344 1.485,2.162c0.683,0.47 0.688,-0.665 1.359,-0.203c-14.939,2.21 -22.603,5.425 -42.884,-1.936l0.18,-1.243l0.672,-1.37c-0.486,-1.07 -1.602,-1.778 -2.088,-2.849c-0.195,-0.43 0.143,-0.934 0.157,-1.405c0.094,-3.299 -4.319,-17.849 0.186,-27.606c0.377,0.115 17.739,6.827 14.612,0.345c-0.261,-0.542 -1.075,-0.68 -1.336,-1.221l-1.366,-1.642c0.352,-0.017 10.702,0.178 21.961,-1.852Z" style="fill:#fceb73;"/><path d="M267.759,254.392l-1.528,-2.215c1.89,-3.306 2.903,-23.883 22.441,-41.713c20.069,-18.314 79.439,-18.298 102.575,14.368c2.675,3.777 5.796,12.221 6.85,19.537c1.546,10.732 -2.787,11.862 -3.101,12.155c-6.401,-22.284 -6.213,-23.59 -13.246,-32.16c-20.908,-25.478 -88.721,-38.359 -101.647,25.516c-0.771,3.808 -10.956,4.272 -12.345,4.512Z" style="fill:#f2c55d;"/><path d="M111.595,645.106l2.619,0.119l1.522,2.014l0.859,1.37c3.292,8.111 2.38,8.821 8.49,13.702l1.475,0.429l1.383,-0.106l1.588,-2.356c2.225,0.701 4.45,1.402 6.675,2.103c9.533,5.358 4.242,8.472 -1.049,13.91c-4.548,4.673 -1.491,16.582 -3.713,19.933c-5.387,8.125 -11.232,-7.332 -21.82,-1.604c-11.632,6.292 -9.819,-2.988 -11.194,-11.708c-1.42,-9.005 -11.514,-11.707 -8.03,-18.027c5.414,6.01 7.337,5.045 12.939,-0.909c4.397,-4.673 7.733,-2.307 7.955,-5.783c0.363,-5.693 2.371,-5.834 -0.01,-10.954c0.104,-0.711 0.207,-1.422 0.311,-2.133Z" style="fill:#f8dd64;"/><path d="M333.562,406.185l2.196,-1.48c30.623,43.36 -50.784,99.823 -74.914,90.068c-1.829,-0.739 -8.524,-3.446 -20.696,-13.335c-2.525,-2.052 -1.989,-2.465 -4.341,-4.654c-0.75,-0.698 -0.71,-0.757 -0.663,-0.827c0.919,-1.378 1.596,-0.571 2.526,-1.967c26.817,19.537 31.115,17.268 59.07,-0.647c7.399,-4.742 19.731,-15.322 26.074,-24.863c14.383,-21.637 11.535,-32.508 10.748,-42.296Z" style="fill:#ee7fa6;"/><path d="M1010.631,740.293c-0.017,4.496 0.623,4.599 -1.559,8.495c-4.935,8.815 -135.013,80.366 -140.189,82.855c-3.462,1.665 -4.846,0.806 -6.19,1.175l0.433,-2.268c0.114,-7.233 -0.198,-7.71 -6.406,-11.468c2.165,-0.947 1.862,-1.246 4.067,-2.124c2.535,2.479 2.425,2.668 2.733,2.672c0.885,0.012 0.763,-0.551 1.708,-0.227c2.604,0.894 17.879,-6.454 19.367,-7.17c25.655,-12.342 25.368,-13.351 35.633,-18.62c28.661,-14.71 45.349,-25.491 55.766,-30.718c7.842,-3.935 7.387,-4.439 14.922,-8.65c15.699,-8.776 15.102,-9.729 16.535,-10.352l0.665,-0.737l0.23,-1.37l2.285,-1.493Z" style="fill:#2c93b8;"/><path d="M300.892,386.434c43.3,10.758 29.381,65.001 -26.512,90.581c-10.661,4.879 -13.813,4.048 -34.64,-11.745c6.274,-3.397 6.398,-0.346 13.976,3.967c3.075,1.75 16.004,9.109 40.682,-17.45c35.602,-38.315 15.3,-46.576 6.95,-63.525l-0.457,-1.829Z" style="fill:#f2c25b;"/><path d="M826.018,506.911c-0.699,1.174 1.019,1.276 0.277,2.522c-0.131,0.221 -0.142,0.238 -2.766,1.657c-21.013,11.366 -39.425,4.086 -42.755,2.957c-1.256,-0.426 -26.49,-14.849 -27.285,-15.41c-12.068,-8.514 -28.121,-2.491 -38.124,7.102c-18.015,17.277 -24.023,45.248 -25.92,51.063l-0.673,1.37l-0.331,1.37l-0.167,1.37l-0.48,1.37l-0.284,1.37l-0.416,1.37l-1.799,1.372c0.455,-7.521 0.394,-7.479 0.491,-8.123c0.201,-1.331 3.294,-48.56 42.566,-65.335c16.496,-7.046 48.893,-4.61 60.689,-2.16c3.657,0.76 3.029,7.104 3.074,8.475c0.267,8.086 -8.952,0.229 -19.642,-3.1c-0.833,-0.259 -24.037,-7.485 -10.84,1.274c34.155,22.668 44.1,16.276 64.385,9.484Z" style="fill:#ec595c;"/><path d="M990.767,685.607l-1.794,-1.372c-0.657,-0.331 -0.451,-1.414 -3.859,-0.342c-6.597,2.074 -5.798,3.779 -96.385,44.565c-16.277,7.329 -15.628,8.391 -32.043,15.569c-1.208,0.528 -1.279,0.46 -1.36,0.382c-1.643,-1.586 -0.54,-2.217 -2.152,-3.773c1.368,-2.742 1.365,-2.722 1.478,-2.962c0.415,-0.885 0.24,-0.86 0.678,-1.796c11.318,-1.83 9.689,-5.808 129.722,-60.447c8.141,-3.706 8.585,-4.727 9.348,-3.362c0.548,0.98 -0.626,0.807 -3.632,13.537Z" style="fill:#e6d1ac;"/><path d="M882.86,449.809c-44.523,1.411 -55.23,16.86 -74.511,29.008c-0.322,-0.583 -1,-0.922 -1.322,-1.505c-2.28,-4.128 10.51,-24.11 18.276,-29.641c24.162,-17.207 45.714,-7.873 52.09,-5.775c6.269,2.063 9.609,2.851 5.467,7.914Z" style="fill:#8dc23c;"/><path d="M676.926,813c11.408,0.425 48.19,3.604 48.419,3.382c1.157,-1.122 0.242,-1.567 1.465,-2.641c0.586,-0.515 0.729,0.714 1.372,0.148c52.532,3.732 66.94,6.416 128.538,5.192c6.208,3.758 6.52,4.235 6.406,11.468c-1.371,-1.44 -5.644,-5.929 -24.395,-5.31c-86.267,2.848 -130.644,-9.648 -157.638,-7.327l-1.383,0.277c-0.568,-0.46 -1.476,1.269 -2.044,0.809c-1.054,-0.854 -0.77,-5.516 -0.741,-5.999Z" style="fill:#71cee7;"/><path d="M141.851,621.972l-1.462,2.232l-1.383,0.46l-0.947,0.651c1.263,6.709 -0.396,6.576 -2.539,15.026c-0.412,1.625 6.003,9.944 7.026,11.467c1.537,2.288 1.976,1.686 2.674,2.283l0.741,1.37l1.839,1.37l0.886,1.612l1.605,1.128l1.165,1.37l1.934,1.37l-0.101,1.37l0.159,1.37c6.471,21.21 -6.536,20.312 -7.035,26.082c-0.842,9.744 0.847,10.801 -6.299,17.478c-8.568,8.006 -19.237,0.486 -21.859,1.641c-15.115,6.655 -17.366,-2.557 -19.101,-6.073c4.841,0.358 6.919,-0.68 13.78,-2.973c5.741,-1.919 11.248,4.403 17.713,3.212c13.69,-2.522 2.026,-12.152 13.306,-26.157c11.572,-14.367 3.437,-17.075 -7.952,-22.303c-2.399,-1.101 -9.06,-11.519 -9.004,-15.583c0.124,-9.064 -1.258,-8.838 -1.478,-17.79c-0.111,-4.533 8.765,-1.747 16.331,-0.612Z" style="fill:#de5f89;"/><path d="M152.589,262.05c-3.257,6.807 -2.25,7.059 -5.14,13.921c-1.249,2.967 -4.129,3.057 -5.284,-0.221c-0.238,-0.677 -2.544,-12.236 -8.836,-17.487c-6.698,-5.59 -19.897,-5.222 -14.973,-9.657c3.767,-3.394 15.795,2.436 21.732,-18.003c2.771,-9.541 4.916,-8.197 5.519,-7.731c4.959,3.835 0.479,17.742 16.885,22.959c6.582,2.093 8.157,0.663 8.532,4.004c0.625,5.576 -9.936,0.359 -18.435,12.215Z" style="fill:#d9b254;"/><path d="M583.913,551.625c6.712,10.091 -8.259,14.633 -26.044,19.646c-11.259,2.03 -21.608,1.835 -21.961,1.852c-1.372,-0.265 -13.779,-1.528 -12.406,-6.718c1.164,-4.402 11.337,-8.895 12.483,-9.401c18.225,-8.05 24.338,-5.38 27.472,-6.126c10.935,-2.601 12.341,-6.947 20.456,0.747Z" style="fill:#7c3d34;"/><path d="M944.895,533.573c-0.415,-1.756 -1.872,-12.008 -9.689,-17.397c-5.521,-3.806 -13.972,-3.542 -13.033,-7.167c1.636,-6.319 14.796,3.901 21.181,-19.465c4.972,-18.193 8.989,4.884 11.898,9.48c5.338,8.434 27.76,8.381 17.457,13.531c-9.167,4.582 -16.391,-0.873 -21.915,22.335c-1.196,5.023 -4.489,3.635 -5.898,-1.317Z" style="fill:#e1b850;"/><path d="M509.88,735.31c0.805,0.796 1.611,1.592 2.416,2.387l0.314,1.285c2.51,6.661 2.262,6.675 2.685,13.756c0.976,16.329 3.742,16.297 2.043,21.606c-14.07,11.71 -56.508,18.242 -57.45,18.017c-4.006,-0.956 4.761,-4.926 10.881,-9.663c5.696,-4.408 6.679,-1.43 9.765,-2.635c15.244,-5.95 19.26,-11.821 29.346,-44.754Z" style="fill:#ce4e7b;"/><path d="M1010.631,740.293l-2.285,1.493l-0.23,1.37l-0.665,0.737c-1.433,0.624 -0.836,1.577 -16.535,10.352c-7.534,4.212 -7.08,4.715 -14.922,8.65c-10.417,5.227 -27.105,16.008 -55.766,30.718c-10.265,5.268 -9.978,6.278 -35.633,18.62c-1.488,0.716 -16.763,8.064 -19.367,7.17c-0.945,-0.324 -0.823,0.238 -1.708,0.227c-0.307,-0.004 -0.198,-0.194 -2.733,-2.672c55.92,-24.482 95.885,-50.061 115.978,-60.576c21.217,-11.103 27.088,-24.431 33.866,-16.089Z" style="fill:#3caace;"/><path d="M541.347,623.006c1.865,0.01 3.73,0.021 5.596,0.031l1.395,1.074l1.383,1.711l1.383,0.05l1.383,0.473l1.383,0.175l1.383,-0.228l1.383,0.188c7.244,2.808 10.328,2.952 9.041,20.763c-1.346,18.629 -12.809,23.369 -14.925,24.244c-5.279,2.183 -5.439,1.243 -5.777,1.296c0.279,-3.345 1.201,-14.402 -1.386,-41.933c-0.345,-3.674 0.33,-3.862 -1.754,-6.904l-0.487,-0.938Z" style="fill:#f689af;"/><path d="M83.903,611.049c10.241,2.687 10.104,2.6 20.408,4.988c4.945,1.146 0.483,13.197 0.711,18.87c0.308,7.651 -2.841,6.69 -5.451,13.93c-3.194,8.86 -6.14,6.079 -14.27,10.949c-0.11,-0.184 -1.963,-0.43 -1.771,-2.955c0.008,-0.109 0.067,-0.882 0.038,-1.362c-1.221,-19.948 2.971,-22.321 -0.473,-29.737c0.509,-0.776 4.569,-6.968 2.093,-11.378l-0.611,-1.37l-0.675,-1.934Z" style="fill:#ea6c95;"/><path d="M618.693,756.539c5.006,4.388 2.361,5.563 -0.835,7.791c-2.169,1.512 -2.601,1.813 -5.552,32.378c3.677,4.897 4.652,3.345 10.718,3.352c6.601,0.007 7.656,-2.161 19.262,2.518c3.802,1.533 4.453,4.093 7.002,2.963l1.754,0.538c1.49,3.252 2.342,2.888 5.632,1.45c0.891,8.605 1.618,10.681 -3.15,10.702c-11.215,-5.893 -15.787,-11.829 -19.624,0.2c-0.129,0.404 -1.61,5.048 -1.658,5.042c-5.816,-0.753 1.849,-20.178 -15.914,-11.332c-4.26,2.122 -4.163,2.03 -8.452,3.891c-5.804,-0.865 -1.386,-3.697 0.108,-16.683c2.791,-24.253 1.36,-34.047 10.709,-42.809Z" style="fill:#fbe16d;"/><path d="M380.982,604.104c26.05,-3.021 26.148,-2.265 51.331,-9.836c5.552,-1.669 4.644,12.9 2.33,14.033c-14.859,7.276 -45.326,10.39 -49.347,10.801c-0.322,-0.643 -2.217,-0.02 -1.74,-3.472c0.143,-1.038 -0.189,-1.032 0.103,-8.104c0.055,-1.329 -0.55,-0.96 -1.266,-2.212l-1.41,-1.212Z" style="fill:#deb5a0;"/><path d="M711.403,534.877c3.617,-23.464 26.384,-27.347 30.853,-23.717c17.238,13.999 -28.079,48.214 -30.853,23.717Z" style="fill:#fdede9;"/><path d="M328.463,278.616c-2.181,-0.109 -43.109,-4.499 -92.579,3.335c-20.442,3.237 -34.171,8.217 -36.031,6.685c-0.726,-0.598 -0.906,-1.694 -1.632,-2.292c1.984,-1.449 1.923,-1.274 4.159,-2.58c0.715,0.405 0.844,1.493 1.559,1.898c3.933,2.228 45.823,-23.555 136.92,-10.804c1.199,0.168 22.683,3.175 13.765,6.226c-1.987,0.68 -1.969,0.178 -26.16,-2.469Z" style="fill:#8b364c;"/><path d="M675.562,785.572c1.446,-0.747 1.012,-1.498 2.735,-1.413c60.227,2.967 60.059,4.411 120.34,7.002c35.519,1.526 37.838,3.245 36.033,5.516c-0.005,0.007 -57.545,1.486 -99.607,-4.438c-5.436,-0.766 -55.41,-5.229 -56.717,-5.275c-1.626,-0.058 -1.291,-0.645 -2.784,-1.392Z" style="fill:#e6cbb0;"/><path d="M378.585,188.998c8.435,4.867 16.164,7.93 28.523,24.005c15.306,19.908 16.747,42.518 16.998,46.464c0.287,4.499 -8.077,1.943 -11.301,1.434c-2.257,-4.168 -0.702,-9.581 -1.378,-15.142c-3.418,-28.136 -30.162,-50.404 -31.508,-52.07l-1.46,-1.37l-1.601,-1.301l1.724,-2.019Z" style="fill:#edc45e;"/><path d="M708.741,758.425c20.269,0.986 21.111,2.233 92.703,6.11c29.981,1.624 31.887,2.667 30.596,4.761c-1.398,2.267 -30.619,-1.127 -67.975,-1.416c-23.742,-0.184 -70.247,-4.609 -70.289,-8.223c-0.028,-2.478 13.852,-1.266 14.965,-1.232Z" style="fill:#ead0b0;"/><path d="M163.958,359.429c17.286,24.796 -31.699,40.102 -27.532,23.392c0.087,-0.35 17.011,-31.477 27.532,-23.392Z" style="fill:#fbe1e6;"/><path d="M540.403,751.371c0.088,-1.553 -0.675,-22.184 6.323,-33.035c3.833,-5.943 8.844,-6.908 8.977,-4.014c0.342,7.441 -18.021,20.961 -0.705,64.583c1.954,4.922 1.569,4.92 1.802,5.304c3.375,5.549 0.647,9.879 -2.565,7.673c-11.103,-7.623 -13.549,-37.101 -13.832,-40.511Z" style="fill:#3a8eb0;"/><path d="M803.921,482.734l-0.122,8.27c-0.178,1.399 -0.356,2.798 -0.534,4.197c-0.318,3.907 -0.34,3.771 -1.085,7.619c-12.284,5.828 6.618,-20.757 -18.206,-56.01c-7.717,-10.959 3.925,-17.129 10.066,-7.561c10.752,16.752 9.127,34.964 8.849,38.078c-0.039,0.439 -0.131,1.468 1.033,5.407Z" style="fill:#90b835;"/><path d="M988.091,704.113c-2.633,2.797 -13.549,5.425 -16.293,7.833c-4.84,4.247 -32.187,21.434 -59.564,31.661c-1.952,0.729 -1.678,1.229 -23.547,11.108c-6.106,2.758 -16.444,9.87 -16.841,6.24c-0.272,-2.492 23.965,-13.275 26.142,-14.243c3.52,-1.566 3.038,-2.446 42.84,-21.963c1.904,-0.934 1.804,-1.057 23.438,-12.373c1.813,-0.949 22.262,-11.645 23.825,-9.369c0.209,0.305 -0.209,0.801 0,1.106Z" style="fill:#dabf9a;"/><path d="M824.913,474.589c26.391,-20.78 43.68,-19.746 44.275,-19.806c16.648,-1.668 -32.606,37.626 -44.275,19.806Z" style="fill:#80bf36;"/><path d="M990.875,723.892c-0.972,4.907 -6.038,5.123 -15.416,10.706c-48.793,29.049 -98.524,49.693 -100.741,49.447c-6.711,-0.742 13.552,-9.409 14.871,-9.973c29.562,-12.645 92.034,-48.788 101.287,-50.18Z" style="fill:#d9bf97;"/><path d="M237.19,385.697l1.384,1.7c13.421,8.23 -2.157,7.425 -8.027,10.875c-13.395,7.873 -2.644,21.638 -9.97,22.369c-2.468,0.246 -2.281,0.427 -4.357,1.479c0.611,1.023 1.222,2.046 1.833,3.068c3.063,8.486 5.651,10.773 4.622,12.063c-0.62,0.778 -0.872,0.685 -0.576,1.71c0.691,2.388 -0.01,2.269 -1.551,4.141c-7.85,-14.873 -13.021,-25.058 -4.52,-44.104l1.801,1.19l1.383,-1.399c7.188,-5.999 6.892,-6.302 11.063,-8.608l1.383,-0.31l1.383,-0.497l1.383,-0.718c-0.964,-0.737 -1.927,-1.474 -2.891,-2.211c2.842,-0.48 2.747,-0.527 5.655,-0.748Z" style="fill:#fdf9d6;"/><path d="M220.499,253.529c6.969,-2.607 13.325,-5.344 16.629,-4.768c2.39,0.417 1.762,8.608 1.704,9.367c-0.142,1.849 -8.002,4.61 -8.759,4.876c-41.561,14.601 -40.959,20.695 -43.604,18.02c-0.867,-0.877 2.867,-7.52 3.209,-8.13c2.886,1.112 4.159,3.366 4.725,0.267c0.2,-1.094 0.434,-0.864 4.221,-3.912c13.156,-10.586 21.9,-3.449 21.876,-15.721Z" style="fill:#f7a4b5;"/><path d="M438.861,249.576c2.509,1.091 10.321,8.431 16.597,2.777c7.275,-6.553 8.261,-4.3 12.672,-4.272l1.802,2.364c-7.443,6.919 -7.633,6.657 -13.69,14.892c-5.821,7.915 -7.767,4.055 -17.041,0.693c-4.886,-1.771 -4.093,-2.863 -4.272,-7.94c-0.181,-5.094 -0.108,-5.418 3.932,-8.514Z" style="fill:#f48dad;"/><path d="M483.237,232.883c13.623,-2.221 13.56,-2.423 16.768,-2.476c3.094,-0.051 3.544,2.27 1.207,2.784c-10.401,2.291 -15.876,5.29 -31.28,17.254l-1.802,-2.364c-4.411,-0.028 -5.398,-2.281 -12.672,4.272c-6.276,5.653 -14.088,-1.686 -16.597,-2.777c6.824,-4.507 6.86,-4.281 13.936,-8.211l1.505,2.042c3.747,-0.595 3.718,-0.667 4.443,-0.6c2.79,0.258 2.428,2.084 5.237,1.442c0.076,-0.017 15.057,-7.435 15.212,-7.537l1.383,-0.335l1.383,-0.559l1.383,-0.407l-0.105,-2.527Z" style="fill:#f8b8c9;"/><path d="M79.097,591.009c0.686,-3.623 -0.107,-5.849 3.338,-4.485c11.381,4.507 11.834,2.977 23.276,7.503c4.094,1.619 -1.482,4.56 -2.052,9.432c-0.874,7.479 -4.223,4.301 -11.582,2.364c-15.645,-4.118 -13.367,-7.994 -12.981,-14.814Z" style="fill:#fcead3;"/><path d="M384.533,714.244c-1.795,5.971 -5.276,33.925 -36.773,40.747c-8.15,1.765 -10.449,-2.457 -10.88,-3.25c12.06,-3.341 26.516,-5.679 43.377,-34.222c1.529,-2.589 1.324,-3.124 4.277,-3.275Z" style="fill:#e55f8b;"/><path d="M770.977,617.843c7.877,-0.727 8.572,-1.569 11.066,-2.122c2.845,-0.63 4.043,1.85 2.109,3.591c-8.18,7.36 -24.795,2.109 -26.844,1.462c-21.451,-6.779 -25.977,-29.063 -22.205,-30.82c5.859,-2.729 5.116,24.625 35.874,27.89Z" style="fill:#a73e3c;"/><path d="M159.763,251.252c-8.971,4.658 -9.465,4.554 -13.766,13.757c-2.74,5.862 -1.314,-8.807 -16.172,-14.245c-6.239,-2.283 2.597,-0.999 7.504,-5.347c7.737,-6.854 4.93,-21.685 8.348,-11.869c2.765,7.942 1.246,9.273 8.457,13.695c2.612,1.602 5.088,1.191 5.628,4.009Z" style="fill:#faea75;"/><path d="M669.939,760.972l1.941,1.367c0.413,1.941 1.955,9.185 2.383,24.678c0.609,11.118 -0.101,11.248 1.434,14.375c-8.881,-0.994 -12.898,-0.699 -12.982,-4.776c-0.481,-23.172 3.111,-24.616 7.224,-35.644Z" style="fill:#dfc5a6;"/><path d="M948.186,494.966c5.961,18.44 18.774,10.518 16.387,15.241c-1.648,3.262 -9.444,-3.308 -15.458,13.548c-0.739,0.408 -1.478,0.816 -2.217,1.223c-3.157,-7.974 -4.185,-10.732 -11.153,-13.845c-7.533,-3.365 6.529,-2.131 9.716,-14.53c0.267,-0.455 0.39,-0.244 0.665,-0.713c0.797,-1.359 1.203,-0.541 2.059,-0.925Z" style="fill:#fdf791;"/><path d="M569.343,780.539c3.789,-1.664 8.302,-1.295 17.741,0.17c7.89,1.225 4.857,5.801 5.043,8.741c0.122,1.94 1.807,1.998 1.845,2.04l1.383,0.629l1.34,2.029c-14.582,-2.096 -14.363,-3.13 -29.007,-3.79l1.027,-1.984c0.821,-2.931 1.09,-2.891 0.629,-7.835Z" style="fill:#f8eed0;"/><path d="M566.519,775.405c2.385,0.681 2.362,0.747 2.576,0.735c8.466,-0.475 8.409,-0.766 16.699,0.856c9.897,1.936 13.352,-1.271 13.709,-1.227c0.578,0.07 -0.026,1.573 0.552,1.643l0.15,1.37l2.272,1.402c-1.16,12.68 -0.892,12.809 -1.65,13.607c-1.579,1.663 -1.858,0.58 -4.133,0.357l-1.34,-2.029l-1.383,-0.629c-0.039,-0.043 -1.723,-0.101 -1.845,-2.04c-0.185,-2.94 2.847,-7.516 -5.043,-8.741c-9.44,-1.465 -13.952,-1.835 -17.741,-0.17c-3.239,0.675 -3.982,0.071 -3.79,-3.127c0.044,-0.74 0.922,-1.267 0.966,-2.007Z" style="fill:#e9d2b3;"/><path d="M57.125,487.91c0.424,-0.322 8.343,-6.335 6.672,0.277c-3.063,12.121 -3.959,22.413 -6.126,33.033c-1.594,7.808 -12.833,4.338 -12.96,4.273c0.302,-0.418 -0.72,-1.068 -0.418,-1.486c0.571,-0.79 1.818,-0.809 2.546,-1.461c0.462,-0.413 0.361,-1.31 0.898,-1.62c1.187,-0.685 1.478,0.879 2.489,-0.085c2.484,-2.371 2.992,-5.939 3.073,-6.508c2.57,-18.058 8.302,-18.169 3.826,-26.423Z" style="fill:#f7db5c;"/><path d="M877.071,530.893c1.64,1.072 1.824,0.694 3.156,2.062c1.387,1.425 1.457,1.328 1.659,1.924c6.983,20.554 -1.099,39.394 -2.445,42.531c-0.559,-0.742 -1.849,-0.681 -2.408,-1.424c-1.031,-1.369 4.744,-15.477 0.038,-45.093Z" style="fill:#ec4850;"/><path d="M562.234,748.227c2.693,0.048 31.612,0.565 33.139,5.886c1.549,5.4 -12.338,2.005 -15.262,1.616c-1.433,-0.191 -10.147,-1.351 -17.927,-2.294c-1.921,-1.918 -2.517,-2.007 -2.792,-2.047c-16.275,-2.418 2.502,-3.193 2.842,-3.159Z" style="fill:#e7cdb0;"/><path d="M220.499,253.529c0.024,12.272 -8.72,5.135 -21.876,15.721c-3.787,3.048 -4.022,2.818 -4.221,3.912c-0.566,3.099 -1.839,0.845 -4.725,-0.267c9.048,-14.108 18.654,-16.911 30.822,-19.366Z" style="fill:#fdd8c5;"/><path d="M57.125,487.91c4.476,8.254 -1.256,8.365 -3.826,26.423c-0.081,0.569 -0.589,4.138 -3.073,6.508c-1.011,0.965 -1.302,-0.599 -2.489,0.085c-0.537,0.31 -0.436,1.208 -0.898,1.62c-0.728,0.651 -1.976,0.67 -2.546,1.461c-0.302,0.418 0.72,1.068 0.418,1.486c0.138,-8.724 7.987,-33.001 12.414,-37.583Z" style="fill:#fcf7a6;"/><path d="M111.595,645.106c-0.104,0.711 -0.207,1.422 -0.311,2.133c2.381,5.12 0.373,5.261 0.01,10.954c-0.222,3.476 -3.558,1.11 -7.955,5.783c-5.602,5.954 -7.524,6.919 -12.939,0.909c4.526,-2.897 4.705,-2.391 9.55,-4.545c5.699,-2.535 2.85,-10.871 11.645,-15.233Z" style="fill:#fcf6a9;"/><path d="M991.949,558.817c-3.197,-1.429 -4.911,-0.458 -4.438,-3.532c0.176,-1.146 1.639,-1.521 1.826,-1.569c5.16,-1.322 5.675,-1.425 7.11,-6.469c1.251,-4.399 3.586,2.528 3.706,2.882c1.268,3.76 15.667,6.221 4.594,8.385c-7.097,1.387 -5.765,13.349 -8.617,6.718c-1.536,-3.57 -1.22,-3.731 -4.18,-6.415Z" style="fill:#edc548;"/><path d="M106.361,287.866c3.462,2.178 10.896,4.338 2.283,7.413c-4.116,1.47 -4.75,11.907 -7.201,5.412c-1.67,-4.425 -2.138,-4.12 -6.342,-6.277c-6.241,-3.203 4.25,-4.007 6.051,-9.152c0.889,-2.54 0.994,-4.186 3.125,-2.348c0.327,0.282 -0.084,0.431 2.084,4.952Z" style="fill:#ebc655;"/><path d="M878.296,580.018c1.025,2.744 1.799,2.659 0.854,5.56c-0.347,1.064 0.346,1.473 -1.669,4.12c-7.641,10.041 -3.724,14.584 -17.67,27.703l-1.709,-2.238l0.788,-0.811l1.083,-1.37l1.322,-1.37c4.505,-6.222 8.475,-17.64 10.431,-19.269c5.231,-4.357 -6.737,-3.982 -4.302,-7.094c1.416,-1.809 7.657,1.96 8.663,-1.038c1.137,-3.389 1.797,-3.41 2.21,-4.193Z" style="fill:#e74851;"/><path d="M827.32,497.509c-7.652,2.532 -7.375,2.931 -14.978,5.484c-7.367,2.474 -5.626,-1.826 -5.828,-3.785c0.303,-1.427 -2.274,-11.255 8.501,-6.352c1.622,0.738 3.297,1.259 7.241,1.822c3.628,0.518 5.49,-0.72 5.065,2.832Z" style="fill:#b93342;"/><path d="M111.982,608.83c0.473,0 5.399,0.005 5.907,-0.292c2.626,-1.534 2.847,-1.072 3.018,-1.269c0.25,-0.288 -0.349,-0.849 -0.099,-1.137l1.604,-0.564l1.383,-0.021l1.04,1.955l0.507,1.501c-4.629,4.48 -4.762,4.508 -6.121,10.728c-1.407,6.439 0.935,8.562 -2.21,8.74c-6.128,0.347 -2.301,-3.511 -5.029,-19.642Z" style="fill:#f4de5e;"/><path d="M483.237,232.883l0.105,2.527l-1.383,0.407l-1.383,0.559l-1.383,0.335c-0.154,0.103 -15.136,7.52 -15.212,7.537c-2.809,0.642 -2.447,-1.184 -5.237,-1.442c-0.725,-0.067 -0.696,0.005 -4.443,0.6l-1.505,-2.042c9.347,-3.979 8.953,-5.355 30.44,-8.481Z" style="fill:#fbcad6;"/><path d="M953.42,574.797c-0.092,-0.035 -1.425,-1.309 -4.043,-0.969c-5.912,0.767 -3.029,-2.938 -1.507,-3.556c4.398,-1.785 4.42,-6.089 6.94,-6.853c8.147,-2.468 13.263,18.047 -1.389,11.377Z" style="fill:#ebc94e;"/><path d="M703.71,558.183c0.217,-0.912 2.254,-9.487 9.314,-7.208c10.54,3.403 -6.123,23.85 -9.314,7.208Z" style="fill:#fefcfc;"/><path d="M787.893,622.698c3.783,-3.285 4.311,-1.778 9.356,-2.072c9.598,-0.559 17.611,-6.558 19.312,-5.954c6.136,2.178 -18.883,16.439 -28.668,8.026Z" style="fill:#c84346;"/><path d="M111.982,608.83c0.127,-1.146 1.295,-11.677 9.065,-11.269c7.985,0.419 4.605,10.515 4.295,11.442l-0.507,-1.501l-1.04,-1.955l-1.383,0.021l-1.604,0.564c-0.25,0.288 0.349,0.849 0.099,1.137c-0.171,0.197 -0.392,-0.265 -3.018,1.269c-0.508,0.297 -5.434,0.292 -5.907,0.292Z" style="fill:#faf175;"/><path d="M558.906,556.912c-1.21,1.852 -1.104,1.791 -2.769,3.384c-8.448,4.509 -8.445,4.29 -17.532,7.095c-2.142,0.661 -5.963,-0.331 -1.901,-2.795c18.764,-11.379 19.904,-9.039 22.202,-7.684Z" style="fill:#de9841;"/><path d="M83.903,611.049l0.675,1.934l0.611,1.37c2.475,4.41 -1.584,10.602 -2.093,11.378c-1.645,-0.51 -3.29,-1.019 -4.935,-1.529l-0.995,-0.221c0.336,-5.119 0.338,-5.086 0.363,-5.528c0.158,-2.834 0.047,-2.749 0.192,-5.518c0.284,-5.449 6.096,-1.91 6.183,-1.887Z" style="fill:#f888ad;"/><path d="M253.297,233.26c0.915,0.466 1.83,0.931 2.744,1.397l0.273,1.508c0.07,0.483 -1.217,0.441 -1.147,0.924c0.066,0.456 7.151,1.552 1.051,9.649c-0.847,1.124 -1.427,-0.57 -2.471,0.358c-0.584,0.519 -0.078,1.594 -0.418,2.295c-0.777,1.606 -1.294,1.37 -1.148,3.033c0.113,1.295 0.075,1.316 -0.021,1.37c-0.241,0.134 -0.231,-0.091 -3.209,-1.264c1.801,-11.055 1.812,-10.967 4.345,-19.27Z" style="fill:#fcf296;"/><path d="M558.906,556.912c5.648,3.821 6.093,2.026 12.877,0.818l1.445,1.039c7.521,2.258 -5.277,5.15 -8.325,5.414c-6.025,0.521 -8.672,2.19 -8.767,-3.887c1.665,-1.594 1.559,-1.533 2.769,-3.384Z" style="fill:#a44e41;"/><path d="M732.287,453.05c-13.768,-3.335 -3.695,-13.678 0.044,-10.048c6.279,6.095 5.377,7.28 4.927,7.872c-1.734,2.279 -2.183,1.486 -4.971,2.176Z" style="fill:#edc849;"/><path d="M114.214,645.225c1.149,0.212 2.355,-0.311 3.504,-0.099c5.069,0.937 4.047,11.197 11.813,15.152l-1.588,2.356l-1.383,0.106l-1.475,-0.429c-6.11,-4.881 -5.198,-5.592 -8.49,-13.702l-0.859,-1.37l-1.522,-2.014Z" style="fill:#efcc54;"/><path d="M140.451,598.769c-0.358,0.295 -1.028,-0.461 -1.386,-0.166c-2.409,1.984 -0.107,3.21 0.013,3.448c1.122,2.229 -1.338,10.533 -1.6,11.418c-4.78,-0.937 -6.215,-1.145 -5.088,-5.894c0.619,-2.609 0.714,-7.698 1.159,-8.256c1.474,-1.845 6.557,-0.591 6.901,-0.549Z" style="fill:#eac4b0;"/><path d="M110.185,634.937c0.714,-2.093 0.191,-2.655 2.396,-3.151c7.722,-1.737 11.529,8.291 7.018,8.501c-6.803,0.316 -9.573,1.45 -9.413,-5.35Z" style="fill:#f7d53e;"/><path d="M228.766,645.008c0.566,0.115 8.033,1.635 3.939,5.996c-1.606,1.71 -6.663,2.643 -7.926,1.65c-2.556,-2.009 -5.38,-9.639 -0.08,-8.681c0.33,0.06 0.301,0.077 4.066,1.034Z" style="fill:#ed87aa;"/><path d="M188.287,212.252c6.134,-3.545 6.66,-0.506 8.91,6.062c1.001,2.922 -5.769,9.987 -11.764,1.826c1.074,-1.075 2.148,-2.151 3.222,-3.226c0.882,2.651 0.993,3.72 3.639,2.598c1.42,-0.603 -0.676,-3.453 -0.856,-3.698c-1.05,-1.187 -2.1,-2.375 -3.149,-3.562Z" style="fill:#eccc56;"/><path d="M828.886,579.793c-12.661,4.071 -9.578,-7.993 -3.975,-7.852c2.234,0.056 5.003,2.001 5.577,2.635c2.233,2.462 0.77,2.783 -1.602,5.217Z" style="fill:#8c3637;"/><path d="M518.373,721.293c-2.316,12.507 -2.194,12.416 -2.463,13.479c-0.105,0.414 -0.602,2.376 -3.3,4.211l-0.314,-1.285c-0.821,-1.58 -0.848,-1.517 -2.416,-2.387c3.915,-5.852 1.237,-14.399 6.651,-15.063l1.842,1.045Z" style="fill:#9b3154;"/><path d="M284.183,398.116c-0.269,-0.72 -1.285,-0.993 -1.554,-1.713c-0.442,-1.182 7.955,-5.762 8.493,-6.032l1.383,-0.336l1.383,-0.221l1.383,-0.311l1.383,0.574l1.735,0.925c0.454,2.452 0.186,2.531 -1.908,3.809c-0.116,0.071 -11.313,3.043 -12.297,3.304Z" style="fill:#fcf38f;"/><path d="M231.534,386.445c0.964,0.737 1.927,1.474 2.891,2.211l-1.383,0.718l-1.383,0.497l-1.383,0.31c-4.171,2.306 -3.875,2.609 -11.063,8.608l-1.383,1.399l-1.801,-1.19c5.318,-8.868 7.463,-9.355 15.505,-12.554Z" style="fill:#fdf08d;"/><path d="M611.946,825.388l0.099,-1.388l-0.275,-1.37l0.18,-2.006c8.263,-2.71 9.182,-1.309 9.601,-0.669c2.26,3.447 1.439,3.887 -1.357,6.983l-8.248,-1.549Z" style="fill:#315968;"/><path d="M733.645,577.926c-6.362,-0.752 -9.132,-3.457 -3.849,-6.922c3.409,-2.235 14.952,5.721 3.849,6.922Z" style="fill:#843332;"/><path d="M686.885,474.418c-0.128,-0.542 -1.514,-6.401 3.957,-5.752c6.174,0.733 3.674,11.84 -3.957,5.752Z" style="fill:#f7d969;"/><path d="M128.924,309.711c-9.167,3.869 -7.252,-6.938 -2.356,-6.475c5.69,0.538 2.626,5.994 2.356,6.475Z" style="fill:#efc542;"/><path d="M918.998,478.723c-3.268,4.043 -5.908,3.723 -6.476,-1.402c-0.328,-2.961 7.637,-8.063 6.476,1.402Z" style="fill:#fcf1b3;"/><path d="M413.281,383.744c4.595,7.225 -6.474,6.496 -6.064,1.771c0.459,-5.283 5.636,-2.039 6.064,-1.771Z" style="fill:#dd7090;"/><path d="M732.049,453.441c-0.066,2.343 2.625,9.696 -1.149,9.504c-1.38,-0.07 -3.244,-2.328 -2.227,-4.494c1.312,-2.794 0.864,-3.031 3.377,-5.011Z" style="fill:#ebc06b;"/><path d="M650.49,788.252c2.083,2.965 2.562,2.816 2.162,3.938c-0.376,1.055 -0.947,0.593 -1.274,1.665c-0.228,0.748 0.593,0.57 0.35,1.37l0.324,1.37l0,1.37l0.023,1.37c-0.63,0.95 -1.26,1.901 -1.89,2.851c-0.946,-8.735 -0.807,-9.455 0.304,-13.935Z" style="fill:#fdee7a;"/><path d="M188.287,212.252c1.05,1.187 2.1,2.375 3.149,3.562c-1.559,0.275 -1.573,0.117 -2.782,1.1c-1.074,1.075 -2.148,2.151 -3.222,3.226c-1.96,-4.744 -0.388,-5.313 2.854,-7.888Z" style="fill:#edcf63;"/><path d="M325.068,588.709c3.063,7.932 -7.508,1.154 -4.706,-1.533c2.186,-2.096 2.395,-0.442 4.706,1.533Z" style="fill:#d35980;"/><path d="M179.135,205.391c-0.365,-0.1 -5.126,-1.399 -3.02,-3.617c2.26,-2.38 11.196,1.048 3.02,3.617Z" style="fill:#fbf1ca;"/><path d="M700.876,465.122c2.181,-2.064 2.857,-3.665 4.442,-1.062c2.08,3.416 -4.069,7.539 -4.442,1.062Z" style="fill:#fae093;"/><path d="M107.076,689.618c-0.65,0.118 -0.559,1.438 -1.209,1.556c-0.397,0.072 -3.019,-2.048 -2.323,-4.022c0.114,-0.323 5.044,-5.673 3.532,2.466Z" style="fill:#fdf695;"/><path d="M955.165,571.578c-0.175,-1.067 -1.25,-0.927 -0.415,-2.528c0.438,-0.839 0.264,-0.84 0.319,-0.893c1.469,-1.415 6.134,3.559 0.096,3.421Z" style="fill:#f6e4a2;"/><path d="M191.437,215.814c0.18,0.245 2.277,3.095 0.856,3.698c-2.645,1.123 -2.757,0.053 -3.639,-2.598c1.209,-0.983 1.223,-0.825 2.782,-1.1Z" style="fill:#fae894;"/><path d="M999.212,556.961c-3.162,0.815 -4.641,1.977 -4.664,-1.183c-0.003,-0.382 1.242,-4.961 4.664,1.183Z" style="fill:#f8d45c;"/><path d="M803.265,495.201c0.741,7.478 1.09,7.711 0.395,8.057c-0.46,0.229 -1.02,-0.666 -1.48,-0.437c0.745,-3.849 0.767,-3.712 1.085,-7.619Z" style="fill:#66622b;"/><path d="M947.643,492.728l0.543,2.238c-0.856,0.385 -1.262,-0.433 -2.059,0.925c-0.275,0.469 -0.399,0.258 -0.665,0.713c-0.048,-0.824 0.005,-0.684 0.594,-4.203l1.588,0.326Z" style="fill:#f4d459;"/><path d="M611.771,799.257c-0.051,4.676 -0.368,4.634 -1.055,5.681c0.01,-0.431 0.131,-5.385 0.131,-5.385c0.286,-0.492 0.595,0.269 0.924,-0.296Z" style="fill:#faee6e;"/><path d="M949.116,523.756c-0.03,0.181 -0.375,2.263 -0.375,2.263c-0.698,1.226 -0.62,-0.35 -1.843,-1.04c0.739,-0.408 1.478,-0.816 2.217,-1.223Z" style="fill:#f3d465;"/><path d="M509.88,735.31c1.568,0.87 1.595,0.807 2.416,2.387c-0.805,-0.796 -1.611,-1.592 -2.416,-2.387Z" style="fill:#a6395b;"/><path d="M39.324,555.82c0.591,-0.022 0.907,-0.921 1.498,-0.943c0,0 1.399,1.713 1.521,1.862c-1.583,-0.349 -1.424,-0.635 -3.019,-0.919Z" style="fill:#f9a2be;"/><path d="M656.185,819.62c1.012,0.249 2.024,0.497 3.036,0.746c-1.616,0.362 -1.447,-0.028 -3.036,-0.746Z" style="fill:#884834;"/><path d="M610.673,806.29c-0.611,0.595 0.417,1.944 -0.193,2.539c-1.49,1.451 -1.306,-0.954 -1.296,-1.089c0.092,-1.212 1.403,-0.316 1.49,-1.451Z" style="fill:#fdea5b;"/><path d="M575.003,331.762c-1.582,-1.775 -1.827,-1.748 -1.702,-1.909c1.073,-1.38 0.524,0.587 1.702,1.909Z" style="fill:#ce4d7a;"/><path d="M110.193,732.061c0.501,0.463 1.456,0.16 1.957,0.623c1.501,1.387 -0.258,0.903 -0.33,0.88c-1.218,-0.388 -0.502,-1.145 -1.627,-1.503Z" style="fill:#f3749f;"/></g></svg>