<?xml version="1.0" encoding="UTF-8" standalone="no"?><!DOCTYPE svg PUBLIC "-//W3C//DTD SVG 1.1//EN" "http://www.w3.org/Graphics/SVG/1.1/DTD/svg11.dtd"><svg width="100%" height="100%" viewBox="0 0 1024 1024" version="1.1" xmlns="http://www.w3.org/2000/svg" xmlns:xlink="http://www.w3.org/1999/xlink" xml:space="preserve" xmlns:serif="http://www.serif.com/" style="fill-rule:evenodd;clip-rule:evenodd;stroke-linejoin:round;stroke-miterlimit:2;"><g id="Background"><path d="M299.127,251.548c5.835,32.945 8.994,32.806 5.85,59.844c-8.337,71.714 -8.779,72.415 -7.385,73.565c0.694,0.573 5.657,2.859 9.84,8.127c18.276,23.012 28.955,35.881 23.676,75.88c-0.75,5.682 5.099,12.11 20.66,33.495c7.329,10.072 8.816,7.295 9.419,6.097c0.825,-1.639 -0.938,-2.211 5.037,-23.333c2.328,-8.228 -26.206,-10.012 -31.765,-58.208c-0.438,-3.796 -2.699,-43.227 11.145,-36.172c0.368,0.188 10.131,8.791 21.784,-1.047c5.838,-4.929 10.774,-21.632 8.893,-23.852c-1.738,-2.051 -23.774,-18.436 -13.682,-57.031c1.908,-7.296 7.367,-15.464 8.17,-16.665c5.182,-7.752 -13.068,-58.368 35.285,-131.496c25.805,-39.027 68.558,-56.368 68.816,-57.158c1.035,-3.176 -11.537,-68.447 -8.407,-74.48c5.914,-11.399 23.661,11.529 45.355,28.834c2.975,2.373 1.667,-2.24 23.573,-46.448c4.046,-8.164 8.015,-19.371 15.392,-3.405c7.263,15.719 23.69,50.364 23.732,50.408c3.584,3.762 37.272,-34.896 43.631,-32.601c6.88,2.484 4.366,9.015 -0.06,47.773c-2.595,22.727 -4.641,25.413 0.95,27.755c85.349,35.759 119.318,116.546 112.776,193.718c-0.459,5.414 14.194,12.701 14.356,39.404c0.115,19.001 -9.926,32.016 -9.483,35.226c4.73,34.283 25.909,32.34 29.006,32.056c9.278,-0.851 20.105,-9.941 22.616,22.447c3.7,47.72 -30.206,69.078 -30.231,69.248c-0.608,4.164 17.373,4.913 34.064,56.978c8.649,26.981 12.67,81.38 8.318,88.149c-1.457,2.266 -3.444,3.056 -3.433,7.05c0.179,60.483 2.057,67.426 -18.097,91.135c-3.031,3.565 -4.889,24.1 -34.959,38.326c-1.985,0.939 -10.187,2.352 -9.47,4.906c4.267,15.188 23.571,50.005 50.031,153.599c3.049,11.937 0.376,14.49 -27.399,33.048c-125.742,84.018 -320.54,71.443 -420.806,-10.538c-18.053,-14.761 -16.56,-17.844 -15.18,-25.001c39.565,-205.139 118.096,-264.478 118.796,-267.778c0.217,-1.024 -1.063,-15.758 -2.611,-17.08c-0.702,-0.599 -12.453,-1.642 -19.445,-25.038c-1.376,-4.603 -4.108,-23.018 -8.83,-17.98c-1.867,1.992 -23.725,30.36 -71.829,9.188c-20.365,-8.963 -42.922,-34.822 -54.313,-67.63c-0.733,-2.11 -3.056,-12.883 -6.07,-9.306c-5.64,6.693 -34.443,7.045 -32.641,-14.842c1.274,-15.472 4.183,-17.629 -1.032,-20.835c-25.265,-15.529 -14.472,-35.853 -17.013,-42.792c-10.642,-29.061 1.564,-33.345 0.695,-39.678c-1.264,-9.207 -7.468,-33.338 25.966,-39.578c6.558,-1.224 5.154,-3.926 6.151,-12.125c9.096,-74.858 7.344,-75.735 12.983,-86.447c15.642,-29.715 20.536,-45.58 25.284,-35.453c0.262,0.559 0.14,0.574 1.894,7.744Z" style="fill:#4e2f20;"/><path d="M440.98,700.029c2.419,1.744 8.031,6.26 8.723,6.817c-3.925,9.28 -17.177,28.137 -28.18,69.408c-2.172,8.148 -1.402,13.078 0.812,10.747c1.419,-1.494 10.453,-38.695 39.632,-72.737c3.658,2.501 18.444,10.495 24.903,11.602c-2.624,8.805 -7.526,24.4 -11.598,44.956c-2.386,12.043 -15.152,95.869 -8.201,88.058c0.535,-0.601 19.26,-102.867 32.8,-129.136c8.33,5.267 36.706,6.959 40.145,8.769c-0.382,5.821 -1.799,59.81 -1.449,60.532c2.042,4.204 1.83,-1.423 4.85,-28.406c1.122,-10.03 2.549,-29.524 2.737,-32.095c0.862,-0.201 1.949,-0.455 10.939,-0.811c3.434,9.936 -3.723,15.182 8.25,23.994c11.866,8.734 20.777,15.238 34.159,12.136c0.896,-0.208 1.686,-1.001 2.595,-1.067c0.275,-0.02 0.194,0.865 0.469,0.845c14.937,46.037 22.906,101.772 24.501,85.445c0.13,-1.332 -4.207,-50.368 -12.659,-87.076c31.681,-8.248 41.103,-5.64 46.333,-9.359c0.536,-0.381 0.702,-1.331 1.238,-1.712c0.305,0.496 0.312,0.359 0.568,0.775c0.112,0.183 0.102,0.171 1.377,2.308c7.984,13.789 11.232,19.696 19.162,37.652l-1.359,1.641l0.308,1.359l0.407,1.359l0.531,1.359l0.354,1.359l0.455,1.359c19.921,70.258 21.17,69.837 33.56,142.719c3.187,18.748 3.27,19.064 3.693,20.675c-15.046,7.159 -93.828,44.644 -199.203,36.833c-91.435,-6.778 -151.784,-43.02 -171.812,-58.532c3.288,-10.552 1.742,-10.946 3.591,-22.088c22.926,-138.189 71.12,-203.796 84.666,-224.729c1.54,-2.38 1.369,-2.417 2.702,-4.957Z" style="fill:#f693ab;"/><path d="M407.262,280.298c0.378,0.452 0.823,0.811 1.201,1.263c4.735,5.665 71.724,-3.108 114.169,-42.636c20.039,-18.662 30.802,-36.877 31.11,-37.19c1.719,-1.75 1.405,0.468 3.501,4.763c24.656,50.546 72.027,71.227 79.403,75.174c9.971,5.335 43.685,15.414 56.903,15.288l0.908,-0.436c-0.093,20.727 -0.407,49.841 -15.754,88.629c-1.405,0.359 -0.651,-2.039 -2.03,-1.687c-0.233,0.059 -0.35,0.089 -2.005,2.717c-1.888,2.998 -1.888,2.85 -3.937,5.586c-64.081,85.557 -166.955,64.216 -211.519,27.59c-22.646,-18.613 -30.464,-33.473 -35.549,-41.328l-0.855,-1.359l-2,1.606c-0.821,-2.333 -18.478,-43.739 -13.548,-97.98Z" style="fill:#fcddad;"/><path d="M610.559,130.738c5.573,4.18 16.466,1.713 50.281,29.734c23.066,19.114 60.124,69.913 58.708,121.106c-0.132,4.763 0.053,4.859 2.657,8.284c-2.657,2.501 -3.724,-0.442 -12.247,-0.553c-4.112,-0.054 -4.757,1.64 -6.172,-1.201c-0.608,-1.221 0.579,-5.762 -3.665,-6.618c-66.23,-13.363 -103.283,-59.186 -107.807,-64.394c-19.218,-22.128 -27.851,-45.426 -29.519,-49.928c-2.57,-6.936 -2.136,-9.953 -8.162,-8.052c-5.283,1.666 -10.899,35.859 -64.277,73.968c-47.446,33.873 -88.835,32.667 -90.568,35.352c-1.741,2.698 -0.112,11.214 -3.711,11.378c-6.623,0.302 -6.584,0.307 -13.06,2.316c0.703,-4.516 1.202,-4.179 1.258,-4.558c0.158,-1.079 -0.861,-1.11 0.963,-13.651c13.485,-92.76 91.002,-127.208 95.469,-130.382c0.45,10.353 2.665,10.325 18.087,14.174c4.036,1.007 48.482,16.001 101.654,-3.978c10.418,-3.914 9.187,-6.572 10.111,-12.994Z" style="fill:#ae6a43;"/><path d="M709.266,751.331c36.941,74.469 65.544,182.86 65.173,186.492c-0.356,3.484 -31.586,25.459 -53.402,35.679c-0.423,-1.611 -0.506,-1.926 -3.693,-20.675c-12.39,-72.882 -13.639,-72.46 -33.56,-142.719l-0.455,-1.359l-0.354,-1.359l-0.531,-1.359l-0.407,-1.359l-0.308,-1.359l1.359,-1.641c2.833,4.744 12.052,31.445 10.803,17.937c-1.355,-14.651 -16.655,-53.954 -18.416,-58.476c0.348,-0.243 -0.103,-1.214 0.245,-1.457c1.101,-0.768 1.344,0.944 15.668,-2.389c8.555,-1.991 8.634,-1.2 17.026,-4.247l0.852,-1.711Z" style="fill:#e17089;"/><path d="M485.746,481.299c2.958,46.778 40.261,61.603 76.5,52.641l0.67,1.704l0.836,1.359l-0.066,1.359l-0.061,1.359l0.144,1.359l0.006,1.359l-0.019,1.359l0.076,1.359l-0.251,1.359l0.097,1.359l0.035,1.359l0.164,1.359l-0.123,1.359l0.094,1.359l-0.068,1.359l0.099,1.359l-0.088,1.359l-0.09,1.359c-4.812,14.499 0.403,28.228 -6.575,42.345c-6.808,13.773 -3.156,15.645 -5.516,21.772c-3.931,-0.501 -61.819,3.58 -96.322,-39.825c-3.84,-4.831 -3.758,-4.858 -6.425,-10.705l-1.369,-1.028l-0.677,-0.333c2.338,-29.109 3.512,-28.804 8.836,-55.546c0.648,-0.054 1.297,-0.107 1.945,-0.161l0.584,-1.359l0.752,-1.359l0.374,-1.359l0.514,-1.359l0.557,-1.359c0.077,-0.204 8.616,-19.988 14.608,-24.099c4.94,-3.389 9.875,-3.12 10.757,-3.072Z" style="fill:#f792ac;"/><path d="M737.717,591.121c6.823,26.902 6.309,27.349 7.763,39.565c-3.674,4.011 -3.688,4.952 -3.697,5.526c-0.072,4.62 -0.592,37.907 -25.409,48.375c-30.375,12.811 -71.489,-1.692 -77.455,-3.796c-3.577,-1.262 -3.666,3.786 -16.536,7.953c-20.27,6.563 -50.455,-11.937 -53.051,-16.307c-2.694,-4.534 -4.33,-4.633 -2.324,-9.656c1.327,1.058 19.64,15.654 18.433,8.686c-0.279,-1.608 -1.292,-0.365 -13.606,-11.694c3.627,-3.094 1.863,-4.265 -0.472,-8.847c-0.533,-1.046 -5.297,-10.398 -3.816,-14.734l1.406,-1.468c16.584,16.293 24.023,14.049 20.549,9.819c-3.157,-3.845 -4.511,-1.407 -15.437,-13.429l1.537,-1.716l-0.283,-1.359l-0.343,-1.359c-0.289,-3.441 -0.12,-3.357 -0.929,-6.673c-0.13,-0.533 -1.621,-6.653 -2.27,-6.357c-0.44,0.201 -0.382,1.186 -0.807,1.431c-0.315,0.182 -0.678,-0.574 -0.993,-0.392l-1.094,-0.645c-0.449,-0.8 -0.897,-1.599 -1.346,-2.399c7.41,-18.042 10.901,6.424 41.887,14.555c1.97,0.517 6.541,-1.095 1.367,-5.559c-20.038,-17.287 -9.999,-48.425 1.33,-32.75c26.808,37.093 28.705,43.705 30.025,48.303c4.491,15.648 5.142,28.315 7.611,17.638c0.571,-2.469 -1.399,-10.115 2.256,-10.342c10.415,-0.647 10.347,-0.196 20.738,-0.895c27.6,-1.857 37.52,-8.941 50.356,-3.985c0.219,0.085 4.708,0.958 0.687,-3.459c3.469,-9.754 1.787,-10.149 2.401,-20.714c0.118,-2.027 0.389,-6.687 10.598,-21.725l0.925,-1.59Z" style="fill:#fcddac;"/><path d="M702.262,524.322c12.372,-2.741 14.821,-3.612 14.922,0.477c0.054,2.18 0.128,103.076 -8.356,104.34c-31.401,4.677 -58.703,8.444 -60.223,4.419c-6.019,-15.94 -6.625,-15.512 -30.544,-50.32c-13.45,-19.573 -25.017,1.522 -25.677,-0.261c-0.603,-1.629 0.452,-26.048 0.55,-28.31c0.345,-7.976 0.155,-9.798 6.57,-10.856c72.122,-11.896 71.84,-13.565 102.758,-19.488Z" style="fill:#69accc;"/><path d="M446.819,570.97l0.677,0.333l1.369,1.028c2.667,5.847 2.585,5.874 6.425,10.705c34.503,43.405 92.391,39.324 96.322,39.825c-1.408,12.763 -2.723,12.43 -3.129,26.919c-0.673,24.007 -5.787,29.861 8.365,50.198c-8.686,0.055 -63.643,0.403 -104.708,-35.699c-2.051,-1.803 -3.79,-16.827 -5.893,-44.37c-1.531,-20.048 0.101,-41.957 0.573,-48.939Z" style="fill:#e2728f;"/><path d="M327.789,485.991c3.595,5.143 3.501,5.06 7.274,10.006c29.991,39.322 28.149,41.527 31.41,43.91c7.487,5.471 -2.807,-13.955 -3.358,-14.995c-3.14,-5.925 11.084,-9.385 12.196,-9.761l1.103,1.805l1.094,1.07c18.555,9.214 31.843,63.914 -13.163,68.668c-16.277,1.719 -50.027,-11.768 -68.855,-45.379c-0.837,-1.494 -0.823,-1.472 -0.9,-1.594c-1.439,-2.271 -2.668,-0.973 -2.906,-1.06c-0.338,-0.925 -0.675,-1.849 -1.013,-2.774c0.459,-0.798 1.527,-0.803 1.986,-1.601c0.135,-0.235 -6.5,-16.594 -0.29,-22.85c0.948,-0.955 28.294,-7.394 32.804,-20.516c0.952,-2.769 1.288,-2.424 2.619,-4.929Z" style="fill:#fcddad;"/><path d="M583.638,404.331c-2.134,3.516 -7.818,15.434 -21.501,22.038c-13.26,6.4 -26.963,2.153 -29.234,1.449c-38.587,-11.958 -42.797,-83.444 -23.082,-80.895c18.158,2.348 22.606,17.88 67.821,1.259c18.295,-6.725 18.323,31.266 5.997,56.149Z" style="fill:#4e2b23;"/><path d="M712.178,383.738c0.649,0.285 1.297,0.569 1.946,0.854c-0.252,10.003 -2.101,28.931 13.499,44.794c15.304,15.562 40.609,5.584 46.642,-13.31l1.523,-1.533c11.631,52.777 -27.516,69.763 -29.785,70.632c-3.294,1.261 -10.453,-13.039 -27.161,-23.256c-24.133,-14.757 -27.302,-9.361 -31.959,-11.518c-9.476,-4.391 -8.53,-9.071 -28.292,-10.039c-2.342,-0.115 0.791,-3.762 0.987,-3.991c27.781,-32.351 28.388,-54.722 33.894,-53.658c9.33,1.801 9.287,1.72 18.707,1.026Z" style="fill:#74482d;"/><path d="M432.103,689.021c3.529,6.569 3.76,6.291 8.877,11.009c-1.333,2.54 -1.163,2.577 -2.702,4.957c-13.545,20.933 -61.74,86.54 -84.666,224.729c-1.848,11.141 -0.303,11.536 -3.591,22.088c-8.293,-6.097 -8.303,-5.87 -16.098,-12.88c-4.561,-4.101 -2.974,-5.358 -1.547,-12.066c33.248,-156.327 76.596,-209.663 99.727,-237.837Z" style="fill:#f8c8d2;"/><path d="M420.81,378.278l2,-1.606l0.855,1.359c5.085,7.854 12.902,22.715 35.549,41.328c44.564,36.626 147.438,57.968 211.519,-27.59c2.049,-2.736 2.049,-2.588 3.937,-5.586c1.655,-2.628 1.772,-2.658 2.005,-2.717c1.379,-0.352 0.625,2.046 2.03,1.687c-0.532,1.177 -4.614,12.351 -12.864,25.119c-61.422,95.056 -201.058,82.362 -245.03,-31.994Z" style="fill:#f6c093;"/><path d="M549.097,28.902c13.196,26.893 20.047,43.987 22,46.092c1.889,2.036 3.092,2.563 27.054,-19.449l0.097,1.825c-0.184,0.409 0.345,0.982 0.161,1.391c-0.338,0.749 -0.988,0.266 -1.646,4.103c-2.832,16.528 -6.757,32.245 -7.448,35.012c-0.943,3.774 -11.66,5.311 -22.619,6.506c-7.911,3.315 -8.292,-0.485 -16.404,1.929c-2.161,0.643 -2.028,-0.226 -2.187,-0.134c-0.598,0.345 -0.526,1.677 -1.124,2.022c-1.64,-0.132 -1.549,-0.151 -3.2,-0.003l-1.144,-1.518l-1.094,-0.217c-2.023,0.225 -2.009,0.248 -2.185,0.243c-23.797,-0.746 -44.334,-6.644 -48.116,-7.731c1.087,-4.106 0.189,-4.063 -0.651,-9.087c-2.034,-12.174 -1.887,-12.112 -3.466,-24.398c-0.363,-2.827 -0.342,-2.693 -0.709,-5.588c2.762,1.562 2.518,1.88 4.9,4.146c10.714,10.192 25.13,17.441 27.449,18.607c8.037,4.041 8.809,-14.533 30.331,-53.749Z" style="fill:#f8cd33;"/><path d="M282.654,392.363c-2.924,4.297 -3.4,3.481 -3.567,3.343c-0.546,-0.449 -0.843,-1.424 -1.482,-1.603c-0.649,-0.182 1.64,2.75 -5.295,7.97c-3.406,2.564 -3.717,1.477 -7.223,3.681c-0.994,0.624 -1.099,1.782 -1.278,6.498c-0.597,0.074 -6.808,0.841 -7.398,1.5c-4.803,5.356 8.71,1.881 26.105,7.149l-1.243,1.008l-1.094,0.354c-0.281,0.466 -1.037,0.141 -1.318,0.606c-0,0 0.838,2.572 0.911,2.795c0.313,0.915 0.626,1.829 0.939,2.744c-0.352,1.107 -1.528,4.807 -9.279,9.414c-0.242,0.144 -0.292,-0.61 -3.283,0.821c-2.452,1.173 -3.033,2.74 -3.295,2.977c-7.091,0.804 -7.426,-0.189 -8.591,1.744c-4.25,7.049 37.617,-0.66 36.008,14.839c-1.383,13.323 -15.487,12.094 -23.027,11.75c-7.864,-0.327 -9.022,-0.355 -9.6,0.651c-3.56,6.196 25.568,4.07 28.546,6.022l-1.45,1.231c-1.114,1.93 -7.204,6.615 -7.866,7.124c-1.585,1.219 -1.652,0.964 -17.144,6.46c-0.396,0.14 -0.827,-0.067 -1.235,-0.002c-3.297,0.527 -2.526,2.003 -3.357,2.661c-25.258,-8.031 -23.878,-18.775 -21.359,-35.835c0.659,-4.467 -8.454,-17.791 -3.252,-29.641c3.182,-7.247 3.643,-7.403 2.177,-15.401c-5.515,-30.1 35.585,-28.231 47.95,-20.861Z" style="fill:#fbdaaa;"/><path d="M407.262,280.298c2.277,-2.268 2.352,-1.901 5.298,-2.345c49.661,-7.489 97.783,-41.264 123.188,-71.544c20.259,-24.145 16.937,-28.126 19.276,-28.872c1.203,-0.384 4.148,8.047 8.799,16.725c4.552,8.494 28.086,52.406 80.517,79.142c43.685,22.276 49.474,13.676 50.118,23.121l-0.908,0.436c-13.218,0.126 -46.933,-9.953 -56.903,-15.288c-7.376,-3.947 -54.748,-24.628 -79.403,-75.174c-2.095,-4.295 -1.781,-6.513 -3.501,-4.763c-0.307,0.313 -11.07,18.528 -31.11,37.19c-42.445,39.528 -109.435,48.301 -114.169,42.636c-0.378,-0.452 -0.823,-0.811 -1.201,-1.263Z" style="fill:#f6bf92;"/><path d="M397.355,374.961c1.846,-0.467 1.831,-0.493 1.994,-0.504c7.919,-0.536 8.882,-0.729 10.321,3.318c13.784,38.766 36.075,59.104 35.283,61.234c-0.449,1.208 -11.509,2.498 -11.649,2.487c-40.148,-3.308 -54.601,25.513 -59.428,29.649c-1.814,1.554 -34.647,-14.349 -28.863,-63.16l0.781,1.311c8.317,21.726 31.787,26.623 45.598,11.742c15.824,-17.051 5.997,-45.935 5.964,-46.077Z" style="fill:#74472d;"/><path d="M745.48,630.685c3.689,38.008 5.022,91.397 -85.77,74.3c-19.302,-3.635 -18.87,-8.902 -27.45,-6.577c-2.771,0.751 -25.644,12.321 -57.689,-11.012c-17.496,-12.739 -13.599,-32.64 -9.754,-27.231c0,0 2.015,2.406 2.19,2.615c-2.005,5.023 -0.37,5.122 2.324,9.656c2.596,4.37 32.781,22.87 53.051,16.307c12.871,-4.168 12.959,-9.215 16.536,-7.953c5.965,2.104 47.08,16.608 77.455,3.796c24.818,-10.467 25.337,-43.754 25.409,-48.375c0.009,-0.575 0.024,-1.516 3.697,-5.526Z" style="fill:#f6bc8e;"/><path d="M767.844,532.966c-0.766,-2.076 -7.719,-20.913 -16.321,-20.094c-5.3,0.505 7.885,15.829 14.247,73.038c2.005,18.027 3.252,44.921 1.864,47.368c-1.448,2.553 -11.133,5.369 -11.74,0.193c-4.586,-39.109 -14.204,-60.83 -13.777,-63.825c1.82,-12.75 5.93,-20.888 -4.587,-50.434c-7.499,-21.067 -27.149,-46.823 -40.871,-53.956c-0.18,-0.093 -4.408,-5.201 1.203,-2.631c30.775,14.097 37.839,32.052 51.548,40.166c32.352,19.148 39.63,81.725 40.579,89.885c-2.748,-2.956 -2.958,-2.636 -3.066,-3c-0.706,-2.366 -0.521,-2.318 -1.847,-10.43c-1.355,-8.286 -10.99,-40.914 -17.233,-46.281Z" style="fill:#eb8582;"/><path d="M375.311,515.152c1.254,-0.054 12.028,-1.888 23.544,14.258c7.666,10.749 2.113,13.208 6.972,44.306c1.026,6.564 6.142,11.993 -6.765,23.889c-16.892,15.57 -76.267,24.597 -107.379,-58.944c0.239,0.087 1.467,-1.211 2.906,1.06c0.078,0.122 0.064,0.101 0.9,1.594c18.828,33.611 52.578,47.099 68.855,45.379c45.006,-4.754 31.718,-59.454 13.163,-68.668l-1.094,-1.07l-1.103,-1.805Z" style="fill:#f6be90;"/><path d="M591.85,102.223c3.153,-0.15 4.203,-0.972 7.886,2.172c2.274,1.94 1.854,2.683 4.486,3.639c-0.697,2.171 -0.734,2.011 -1.894,3.844c-4.847,-6.314 -4.941,-8.717 -11.659,-5.933c-7.336,3.04 -12.55,18.262 2.283,24.531c-0.273,0.269 -0.757,-0.487 -1.031,-0.218c-0.586,0.576 -0.534,1.885 -1.167,2.378c-0.727,0.566 -6.972,-6.182 -7.66,-5.884c-2.044,0.887 -0.704,2.172 -1.366,3.769c-2.16,5.21 -3.042,4.558 -3.004,5.058c0.075,0.977 1.08,1.592 1.156,2.569c-5.142,1.381 -33.01,8.868 -65.73,2.514c-23.513,-4.566 -24.599,-7.238 -25.561,-9.608c2.501,-1.116 2.481,-0.435 4.984,0.428c14.618,5.041 17.428,-27.884 -1.382,-22.955c-2.32,2.025 -2.205,2.03 -3.9,4.79c-0.655,-1.57 -2.352,-1.925 0.036,-5.202c4.996,-6.856 15.955,-3.257 18.469,4.785c1.389,4.443 3.631,-1.393 6.22,-2.735c15.369,-7.969 16.592,10.569 20.532,5.187c3.75,-5.123 5.746,-5.488 10.232,-7.157c1.651,-0.148 1.56,-0.129 3.2,0.003c0.78,0.449 0.836,0.113 5.543,3.449c2.778,1.969 3.789,5.977 5.06,4.956c2.381,-1.912 0.32,-5.307 10.274,-9.789c11.8,-1.621 12.261,9.229 14.71,4.458c2.093,-4.077 1.148,-5.942 9.282,-9.048Z" style="fill:#be7227;"/><path d="M610.559,130.738c0.849,-5.626 1.373,-18.675 5.248,-17.178c39.423,15.222 106.636,63.591 106.903,169.342c0.004,1.67 -0.054,1.607 -0.506,6.96c-2.604,-3.425 -2.789,-3.521 -2.657,-8.284c1.416,-51.193 -35.642,-101.992 -58.708,-121.106c-33.815,-28.02 -44.708,-25.554 -50.281,-29.734Z" style="fill:#dd9561;"/><path d="M480.707,133.536c-4.468,3.174 -81.984,37.622 -95.469,130.382c-1.823,12.542 -0.805,12.573 -0.963,13.651c-0.056,0.379 -0.555,0.042 -1.258,4.558c-0.138,-0.141 -1.792,0.245 -1.785,-3.318c0.055,-29.016 2.694,-64.726 31.751,-108.156c23.441,-35.037 62.801,-56.01 64.81,-53.166c0.051,0.073 2.337,9.544 2.914,16.049Z" style="fill:#d9905e;"/><path d="M762.834,746.739c-22.797,26.233 -35.185,18.209 -33.889,13.251c1.194,-4.565 3.888,-8.954 10.678,-39.505c3.834,-17.251 -0.638,-24.975 10.777,-24.198c15.531,1.057 25.075,-9.686 25.137,-5.736c0.059,3.729 -2.551,37.358 -8.065,48.572c-1.535,3.121 -4.238,7.037 -4.639,7.617Z" style="fill:#e77f7c;"/><path d="M434.335,458.13l1.131,1.505l1.094,-0.439l1.094,-0.077c4.968,0.063 14.996,-1.941 10.668,16.643c-1.959,8.41 -15.232,59.174 -18.748,66.4c-0.6,1.233 -3.71,7.623 -9.732,13.357c-1.856,1.767 -5.424,2.848 -6.206,3.214c-0.528,-8.281 -4.693,-73.614 20.7,-100.604Z" style="fill:#f897af;"/><path d="M592.429,713.658c-0.224,-9.891 4.076,-4.298 10.425,-3.283c23.77,3.803 28.906,-3.889 32.795,-2.395c47.054,18.082 76.445,8.576 77.586,9.733c0.643,0.652 2.2,6.766 -1.154,7.93c-11.045,3.833 -53.28,12.617 -57.931,13.585c-1.307,-3.259 -1.05,-3.442 -1.277,-3.581c-0.687,-0.422 -5.879,-1.636 -6.313,-1.766c-28.647,-8.573 -30.451,-1.735 -47.107,-10.606c-5.869,-3.126 -1.879,-10.37 -4.133,-10.996c-0.461,-0.128 -0.825,0.868 -1.286,0.74l-1.605,0.638Z" style="fill:#4893af;"/><path d="M511.259,401.108c6.617,-14.707 39.298,-22.799 59.52,-10.202c11.45,7.132 9.587,10.55 7.461,13.831c-19.69,30.385 -59.183,18.066 -66.981,-3.63Z" style="fill:#f4867f;"/><path d="M498.342,495.963c-5.275,-19.816 -0.739,-20.204 0.492,-19.792c40.29,13.512 56.329,12.199 90.801,4.761c3.489,-0.753 1.701,10.483 -7.238,23.836c-0.806,-0.556 -0.544,-2.499 -3.614,-1.318c-6.738,2.591 -18.155,3.442 -19.748,3.561c-37.957,2.83 -56.075,-11.211 -60.693,-11.048Z" style="fill:#f5ba8d;"/><path d="M434.335,458.13c1.751,-1.273 14.505,-10.543 25.328,-1.49c5.112,4.276 -27.55,55.517 -24.947,148.289c0.451,16.062 -17.831,-1.152 -21.082,-46.195c0.782,-0.366 4.35,-1.447 6.206,-3.214c6.022,-5.734 9.131,-12.123 9.732,-13.357c3.517,-7.227 16.79,-57.99 18.748,-66.4c4.328,-18.584 -5.7,-16.58 -10.668,-16.643l-1.094,0.077l-1.094,0.439l-1.131,-1.505Z" style="fill:#db6b83;"/><path d="M714.471,383.776c12.973,-6.516 13.641,-5.704 13.975,-4.333c0.487,2.001 3.756,15.445 9.964,23.016c16.276,19.848 33.545,9.731 37.378,12.084l-1.523,1.533c-6.033,18.893 -31.338,28.872 -46.642,13.31c-15.6,-15.862 -13.751,-34.79 -13.499,-44.794l0.347,-0.816Z" style="fill:#a6653e;"/><path d="M670.643,456.591c2.649,1.197 4.388,0.249 3.344,3.065c-0.247,0.666 -5.588,1.449 -15.035,13.929c-11.301,14.932 -14.613,37.5 -15.882,38.579c-0.311,0.264 -28.318,7.544 -29.163,4.387c-1.492,-5.578 2.934,-19.855 3.441,-21.491c1.848,-5.962 5.221,-14.279 5.714,-15.497c1.22,-0.499 0.331,2.166 1.592,1.65c0.257,-0.105 0.301,-0.123 2.187,-3.195c7.661,-12.475 26.202,-21.385 38.275,-20.241l1.094,-0.014l1.094,0.306l1.094,0.32c0.748,-0.599 1.497,-1.199 2.245,-1.798Z" style="fill:#f791a9;"/><path d="M397.355,374.961c0.034,0.142 9.861,29.026 -5.964,46.077c-13.811,14.881 -37.281,9.984 -45.598,-11.742l-0.781,-1.311c1.573,-3.4 4.812,-0.675 7.372,-0.442c28.676,2.61 33.385,-33.287 34.267,-34.469c1.046,-1.402 9.234,1.153 10.704,1.887Z" style="fill:#a2623c;"/><path d="M494.543,702.693c7.111,2.314 6.976,2.356 14.161,4.492c-3.353,4.732 -8.411,18.31 -8.832,22.559c-13.54,26.269 -32.265,128.535 -32.8,129.136c-6.951,7.811 5.815,-76.015 8.201,-88.058c4.072,-20.556 8.974,-36.15 11.598,-44.956c7.034,-18.617 8.366,-18.305 7.672,-23.173Z" style="fill:#d4506d;"/><path d="M654.269,335.559c39.31,17.473 -4.852,48.398 -30.503,28.475c-13.326,-10.351 -0.607,-37.315 30.503,-28.475Z" style="fill:#f8b6a0;"/><path d="M442.078,365.359c-1.42,-0.429 -12.671,-3.83 -16.095,-10.727c-0.486,-0.978 -3.823,-7.702 1.016,-14.314c19.227,-26.278 66.227,3.319 42.085,20.82c-11.452,8.302 -25.124,4.421 -27.006,4.222Z" style="fill:#f7b5a0;"/><path d="M687.021,473.009c31.352,18.494 62.552,73.346 38.171,104.645c-3.982,5.111 -1.892,-2.323 -1.677,-20.242c0.471,-39.356 1.089,-42.125 -3.733,-44.748c-11.805,-6.422 -13.107,-14.128 -25.081,-11.809c-2.765,0.536 -15.199,4.068 -28.439,6.916c1.718,-11.981 12.677,-23.257 20.76,-34.762Z" style="fill:#f08aa1;"/><path d="M304.403,436.608c-0.124,-1.293 0.85,-1.941 -1.477,-3.815c-8.039,-6.473 -16.348,-26.216 -11.506,-34.123c5.223,-8.527 13.041,6.432 14.023,7.763c3.395,4.604 26.299,25.359 15.32,66.777c-4.986,0.762 -7.704,2.744 -10.072,1.674c-9.852,-4.45 -6.283,-28.06 -5.313,-35.71l-0.34,-1.359l-0.635,-1.208Z" style="fill:#fbd6a5;"/><path d="M508.704,707.185c3.695,1.014 23.454,6.433 47.073,5.829l0.765,1.983c0.688,4.558 0.421,4.531 0.769,17.607c0.063,2.37 -0.587,2.148 -0.744,4.512c-0.02,0.298 0.547,0.317 0.527,0.615c-8.991,0.356 -10.078,0.61 -10.939,0.811c-0.487,-0.081 -3.219,-0.534 -6.138,-0.031c-3.438,-1.809 -31.815,-3.502 -40.145,-8.769c0.421,-4.248 5.48,-17.827 8.832,-22.559Z" style="fill:#e2728c;"/><path d="M304.403,436.608l0.635,1.208l0.34,1.359c-0.97,7.651 -4.54,31.26 5.313,35.71c2.368,1.07 5.086,-0.912 10.072,-1.674c-2.797,10.054 -2.718,10.459 -9.657,16.649c-4.006,3.574 4.262,5.761 11.107,-6.822c2.279,-4.19 2.922,-0.849 5.575,2.954c-1.331,2.504 -1.668,2.16 -2.619,4.929c-4.51,13.121 -31.855,19.56 -32.804,20.516c-6.211,6.257 0.425,22.615 0.29,22.85c-0.459,0.798 -1.527,0.803 -1.986,1.601c-4.487,-13.154 -11.186,-31.635 -7.012,-33.585c1.864,-0.871 18.959,-8.859 12.917,-26.436c-1.469,-4.274 -0.99,-4.411 0.62,-8.461c4.874,-12.258 -1.08,-18.172 0.637,-22.692c2.132,-5.613 1.697,-6.714 6.571,-8.104Z" style="fill:#f6bc8c;"/><path d="M703.702,314.156c0.005,-0.957 0.054,-11.03 0.944,-11.905c0.701,-0.688 5.733,-0.854 7.513,-0.445c38.734,8.9 25.471,79.371 -13.205,69.855c-6.569,-1.616 -3.604,-4.96 -1.398,-12.84c25.162,10.878 42.409,-40.963 6.929,-45.275l-0.783,0.609Z" style="fill:#fbe0b6;"/><path d="M289.392,297.473l-1.341,1.751c-8.936,63.232 -6.482,64.889 -10.065,81.721c-3.275,-0.642 -6.551,-1.285 -9.826,-1.927c-2.026,-0.265 -2.645,0.196 -2.856,-2.325c-0.123,-1.473 8.003,-71.184 8.724,-77.37c0.352,-3.019 0.761,-4.29 2.726,-2.539c5.653,5.037 7.915,-5.721 12.637,0.688Z" style="fill:#f9d434;"/><path d="M498.342,495.963c4.618,-0.162 22.736,13.878 60.693,11.048c1.594,-0.119 13.01,-0.97 19.748,-3.561c3.071,-1.181 2.808,0.762 3.614,1.318c-20.413,26.39 -66.505,27.376 -84.056,-8.805Z" style="fill:#fbdcad;"/><path d="M463.045,687.447c1.196,0.708 4.777,2.83 15.07,8.529c-5.498,7.871 -9.735,8.665 -16.147,18.288c-29.179,34.042 -38.213,71.243 -39.632,72.737c-2.214,2.331 -2.985,-2.598 -0.812,-10.747c11.003,-41.271 24.254,-60.128 28.18,-69.408c4.539,-4.132 12.384,-17.74 13.341,-19.399Z" style="fill:#d3516e;"/><path d="M555.777,713.015c4.143,-0.157 10.475,-1.681 10.847,1.997c1.313,12.962 -4.039,25.344 5.758,32.115c14.752,10.196 14.979,10.131 24.92,10.169c0.563,1.223 2.55,5.542 5.265,16.346c-0.275,0.02 -0.194,-0.865 -0.469,-0.845c-0.91,0.066 -1.7,0.859 -2.595,1.067c-13.382,3.102 -22.293,-3.402 -34.159,-12.136c-11.972,-8.812 -4.816,-14.058 -8.25,-23.994c0.02,-0.298 -0.547,-0.317 -0.527,-0.615c0.157,-2.365 0.807,-2.143 0.744,-4.512c-0.348,-13.076 -0.081,-13.049 -0.769,-17.607l-0.765,-1.983Z" style="fill:#de7087;"/><path d="M562.246,533.94c2.949,-0.762 4.325,-2.038 4.439,1.706c0.908,29.825 0.323,53.77 0.209,58.444c-0.104,4.271 -10.026,8.084 -7.841,24.436c1,7.481 -2.601,6.326 -4.056,13.703c-2.243,11.372 1.416,11.767 -1.038,23.098c-3.68,16.993 3.947,26.565 5.259,28.211c5.479,6.876 8.441,5.657 7.277,13.735c-0.475,3.293 -7.07,2.564 -9.647,2.704c-14.152,-20.338 -9.037,-26.192 -8.365,-50.198c0.406,-14.489 1.721,-14.156 3.129,-26.919c2.36,-6.127 -1.292,-7.999 5.516,-21.772c6.978,-14.117 1.763,-27.847 6.575,-42.345l0.09,-1.359l0.088,-1.359l-0.099,-1.359l0.068,-1.359l-0.094,-1.359l0.123,-1.359l-0.164,-1.359l-0.035,-1.359l-0.097,-1.359l0.251,-1.359l-0.076,-1.359l0.019,-1.359l-0.006,-1.359l-0.144,-1.359l0.061,-1.359l0.066,-1.359l-0.836,-1.359l-0.67,-1.704Z" style="fill:#dc6e87;"/><path d="M767.844,532.966c6.243,5.367 15.878,37.994 17.233,46.281c1.326,8.111 1.141,8.064 1.847,10.43c0.109,0.364 0.318,0.044 3.066,3c0.695,6.598 4.459,37.092 1.109,38.711c-0.511,0.247 -12.264,4.347 -13.252,-0.661c-1.855,-9.406 3.648,-25.523 -8.641,-86.983c-1.074,-5.37 -1.118,-5.248 -1.362,-10.778Z" style="fill:#e67778;"/><path d="M397.608,303.358c-5.101,4.305 -11.363,-0.754 -15.594,16.29c-4.297,17.307 8.667,31.331 19.945,29.672c1.458,6.51 3.246,11.968 0.684,12.316c-35.35,4.799 -45.789,-58.714 -10.961,-69.451c6.901,-2.127 6,2.363 5.925,11.173Z" style="fill:#fbe1b8;"/><path d="M592.429,713.658l1.605,-0.638c0.461,0.128 0.825,-0.868 1.286,-0.74c2.253,0.625 -1.736,7.87 4.133,10.996c16.656,8.871 18.46,2.032 47.107,10.606c0.433,0.13 5.626,1.343 6.313,1.766c0.226,0.139 -0.031,0.322 1.277,3.581c-30.102,5.292 -60.349,11.731 -61.402,8.514c-0.724,-2.21 0.197,-2.34 -0.318,-34.084Z" style="fill:#5ea8c8;"/><path d="M289.392,297.473c2.183,2.818 1.919,3.733 5.035,3.8c3.499,0.074 5.301,-1.854 4.987,1.984c-0.519,6.344 -0.867,6.23 -9.465,78.833c-0.659,5.565 -2.732,1.876 -10.9,-0.874c-0.349,-0.117 -0.714,-0.153 -1.062,-0.27c3.584,-16.833 1.129,-18.49 10.065,-81.721l1.341,-1.751Z" style="fill:#eb9816;"/><path d="M442.108,311.384c-1.183,-3.19 -1.546,-3.139 -0.96,-6.639c0.556,-3.316 2.994,-0.468 3.179,-0.251c5.184,6.056 12.72,4.52 8.314,0.697c-6.987,-6.063 -4.898,-14.803 -4.088,-15.542c4.312,-3.935 3.616,14.06 14.459,5.924c14.603,-10.958 32.121,-5.156 39.859,9.39c6.173,11.606 -1.514,19.04 -5.859,10.342c-13.772,-27.572 -31.555,-8.994 -35.936,-0.738c-6.31,11.889 -17.75,-1.381 -18.969,-3.183Z" style="fill:#341f14;"/><path d="M585.182,538.64c-0.531,-0.319 -6.64,-3.985 -6.64,-3.985c-5.52,-2.668 -0.123,-3.468 0.101,-3.481c27.957,-1.583 96.376,-16 119.323,-22.461c2.845,-0.801 11.203,4.578 10.258,6.861c-0.029,0.069 -75.646,14.58 -115.279,21.462c-4.09,0.71 -3.939,3.371 -7.764,1.604Z" style="fill:#f9f7f2;"/><path d="M641.868,308.359c-7.545,6.408 1.11,4.889 1.429,4.79c4.025,-1.251 10.262,-8.222 8.653,-0.35c-0.862,4.218 -13.446,19.381 -21.26,4.512c-9.161,-17.432 -27.275,-17.048 -34.791,0.73c-2.721,6.436 -11.583,3.748 -5.874,-9.051c7.076,-15.863 27.309,-20.749 40.014,-9.604c5.104,4.477 7.143,6.041 12.486,-3.875c1.62,-3.006 7.253,1.66 -0.657,12.85Z" style="fill:#321e14;"/><path d="M610.371,755.497c1.144,4.471 3.505,14.706 4.038,16.513c8.452,36.708 12.789,85.744 12.659,87.076c-1.596,16.328 -9.564,-39.407 -24.501,-85.445c-2.715,-10.804 -4.703,-15.123 -5.265,-16.346c4.5,-0.807 12.022,-1.677 13.069,-1.798Z" style="fill:#d14c69;"/><path d="M703.702,314.156l0.783,-0.609c35.48,4.312 18.233,56.153 -6.929,45.275c5.078,-23.585 5.133,-29.909 6.146,-44.666Z" style="fill:#f7bf98;"/><path d="M418.364,462.751c-9.478,22.455 -10.492,28.401 -13.698,51.106l-0.914,-1.363l-1.094,-1.9l-1.094,-0.411l-1.094,-0.68l-1.467,-1.034l-0.72,-0.741l-1.094,-1.111l-1.094,-1.203l-1.094,-0.642c-9.377,-6.991 -10.292,-5.578 -14.226,-12.584c4.705,-3.716 9.643,-21.6 36.098,-30.721l1.489,1.284Z" style="fill:#f68ea8;"/><path d="M549.097,28.902c-21.522,39.216 -22.294,57.789 -30.331,53.749c-2.319,-1.166 -16.736,-8.414 -27.449,-18.607c-2.381,-2.265 -2.137,-2.584 -4.9,-4.146c0.716,-3.587 0.618,-3.474 1.72,-6.903c24.754,22.198 25.575,21.999 28.166,21.37c2.797,-0.679 23.261,-48.656 26.605,-54.649c1.181,-2.116 4.275,5.555 6.189,9.186Z" style="fill:#f9e578;"/><path d="M598.151,55.545c12.185,-10.038 12.242,-10.778 13.014,-9.943c1.005,1.086 0.385,1.286 -0.278,6.408c-3.075,23.76 -3.096,23.609 -5.508,47.536c-0.173,-0.395 0.256,-0.95 0.083,-1.345c-1.1,-2.501 -1.52,-1.983 -3.789,-1.606c-6.978,1.16 -9.804,2.448 -9.825,2.505c-0.198,0.534 0.378,1.215 0.18,1.749l-0.178,1.374c-8.134,3.105 -7.189,4.97 -9.282,9.048c-2.45,4.772 -2.91,-6.078 -14.71,-4.458l-1.162,-2.432c10.96,-1.195 21.677,-2.732 22.619,-6.506c0.691,-2.767 4.617,-18.484 7.448,-35.012c0.657,-3.837 1.308,-3.354 1.646,-4.103c0.184,-0.409 -0.345,-0.982 -0.161,-1.391l-0.097,-1.825Z" style="fill:#f49e2c;"/><path d="M654.189,747.988c3.191,7.08 4.337,5.913 7.791,12.951c-0.536,0.381 -0.702,1.331 -1.238,1.712c-5.231,3.719 -14.653,1.111 -46.333,9.359c-0.533,-1.807 -2.894,-12.042 -4.038,-16.513c14.106,-2.093 14.025,-2.065 43.818,-7.51Z" style="fill:#dd6e85;"/><path d="M775.764,645.573c-0.906,0.887 -1.95,1.54 -2.856,2.427c-0.256,0.25 -0.475,22.745 -0.925,26.326c-0.283,2.254 -0.084,2.178 0.51,4.295c-1.339,1.24 -7.645,7.077 -19.892,7.863c-4.859,0.312 2.783,-6.46 3.91,-31.307c0.012,-0.261 -0.967,-8.105 2.586,-8.662c14.062,-2.205 14.393,-3.363 16.666,-0.942Z" style="fill:#f2928d;"/><path d="M397.608,303.358c-0.073,13.718 -0.334,19.491 4.351,45.962c-11.279,1.659 -24.243,-12.365 -19.945,-29.672c4.232,-17.043 10.494,-11.985 15.594,-16.29Z" style="fill:#f7c199;"/><path d="M668.354,744.753c8.948,-1.753 29.606,-6.517 32.835,-6.969c2.751,-0.385 5.971,8.92 8.077,13.548l-0.852,1.711c-8.392,3.047 -8.471,2.256 -17.026,4.247c-14.323,3.333 -14.567,1.621 -15.668,2.389c-0.348,0.243 0.103,1.214 -0.245,1.457l-0.442,-1.3c-5.715,-11.962 -6.06,-11.775 -6.679,-15.082Z" style="fill:#d36178;"/><path d="M478.115,695.976c1.313,0.541 8.864,3.651 16.428,6.717c0.695,4.868 -0.638,4.556 -7.672,23.173c-6.459,-1.107 -21.245,-9.102 -24.903,-11.602c6.412,-9.623 10.649,-10.417 16.147,-18.288Z" style="fill:#e0708a;"/><path d="M675.033,759.835l0.442,1.3c1.761,4.522 17.061,43.825 18.416,58.476c1.249,13.508 -7.97,-13.193 -10.803,-17.937c-7.93,-17.957 -11.178,-23.864 -19.162,-37.652c0.523,-0.452 0.668,-1.404 1.191,-1.856c0.697,-0.602 8.045,-1.37 8.749,-1.443l1.168,-0.888Z" style="fill:#cb4865;"/><path d="M540.464,137.495c-2.676,-3.407 -12.755,-11.686 -3.492,-22.033c10.137,-11.324 26.817,6.372 15.356,19.178c-1.833,2.047 -1.997,1.561 -4.198,2.987c-3.846,0.622 -3.797,0.632 -7.666,-0.132Z" style="fill:#f75871;"/><path d="M559.229,126.64c-0.839,-27.931 30.688,-16.282 19.732,4.276c-3.785,7.103 -14.982,10.07 -19.732,-4.276Z" style="fill:#fbee54;"/><path d="M485.746,481.299c-0.882,-0.048 -5.817,-0.317 -10.757,3.072c-5.992,4.111 -14.531,23.895 -14.608,24.099l-0.557,1.359l-0.514,1.359l-0.374,1.359l-0.752,1.359l-0.584,1.359c-0.648,0.054 -1.297,0.107 -1.945,0.161c0.818,-3.676 9.442,-42.436 13.899,-44.429c9.163,-4.097 10.585,-4.064 15,-1.548c2.178,1.241 1.814,1.939 1.192,11.852Z" style="fill:#dd6f87;"/><path d="M687.021,473.009c-8.083,11.505 -19.042,22.782 -20.76,34.762c-1.447,0.271 -11.65,3.579 -10.591,-0.54c2.573,-10.009 8.631,-22.265 12.916,-27.046c12.813,-14.297 15.659,-8.805 18.435,-7.176Z" style="fill:#db6c81;"/><path d="M530.163,127.973c-13.49,24.712 -30.957,-7.138 -14.995,-15.32c7.759,-3.977 15.945,4.314 15.338,12.643c-0.066,0.9 -0.278,1.777 -0.343,2.677Z" style="fill:#f3e442;"/><path d="M603.445,512.495c-0.701,6.063 0.244,7.149 -1.878,7.732c-2.87,0.789 -14.95,2.545 -16.253,2.734c-6.891,1.002 11.161,-9.005 17.096,-37.711c0.545,-2.638 0.362,-8.29 2.638,-8.932c7.024,-1.983 6.994,0.276 6.812,0.919c-3.984,14.064 -5.795,13.404 -8.415,35.258Z" style="fill:#e87991;"/><path d="M579.454,725.883c-0.021,-11.489 -0.383,-23.489 0.503,-24.166c4.483,-3.424 1.257,28.825 2.504,32.041c3.453,8.908 1.906,-26.01 2.657,-28.523c3.346,-11.196 2.422,24.837 2.375,38.296c-0.016,4.603 -1.933,2.741 -5.227,0.691c-6.073,-3.779 -8.755,-1.782 -8.962,-10.204c-0.851,-34.701 0.373,-37.153 2.224,-35.477c1.962,1.776 0.618,58.349 3.926,27.341Z" style="fill:#8ac0dc;"/><path d="M299.219,285.48c0.416,2.246 2.965,9.645 -3.685,8.034c-4.436,-1.075 -3.748,-2.604 -6.713,-4.944c-0.877,-0.692 -9.805,5.045 -12.745,-0.557c-0.82,-1.563 8.58,-22.339 11.827,-20.198c3.066,2.021 3.105,1.864 6.492,1.521c2.703,-0.273 1.575,1.788 4.824,16.143Z" style="fill:#f2ad83;"/><path d="M488.137,52.996c-1.102,3.429 -1.003,3.315 -1.72,6.903c0.367,2.895 0.346,2.761 0.709,5.588c1.578,12.285 1.431,12.223 3.466,24.398c0.839,5.024 1.738,4.981 0.651,9.087c-5.302,-0.703 -5.201,-0.818 -6.735,-0.721c-0.596,-2.454 -0.544,-2.432 -4.908,-31.455c-3.18,-21.151 -3.628,-21.653 -2.382,-22.621c0.884,-0.686 1.118,-0.379 10.919,8.822Z" style="fill:#faea8a;"/><path d="M602.328,111.878c1.27,5.196 0.659,5.222 0.279,10.671l-1.097,1.399c-2.291,5.993 -4.922,6.506 -8.56,6.528c-14.833,-6.268 -9.619,-21.491 -2.283,-24.531c6.718,-2.784 6.812,-0.381 11.659,5.933Z" style="fill:#dce657;"/><path d="M418.364,462.751l-1.489,-1.284c-26.455,9.121 -31.393,27.005 -36.098,30.721c-2.021,-5.866 -3.022,-5.263 -3.08,-5.332c2.378,-4.309 9.237,-20.59 30.595,-29.432c1.021,-0.423 19.271,-7.978 13.452,-0.26c-0.308,0.408 -0.728,0.965 -3.38,5.586Z" style="fill:#f8cdd3;"/><path d="M737.717,591.121l-0.925,1.59c-10.209,15.038 -10.48,19.698 -10.598,21.725c-0.615,10.565 1.068,10.96 -2.401,20.714c-5.811,-5.127 -5.776,-5.523 -5.483,-7.214c2.457,-14.183 1.889,-14.182 3.474,-28.462c0.782,-7.045 3.961,-4.246 11.542,-14.4c3.086,-4.134 2.55,0.897 4.391,6.046Z" style="fill:#f7b98d;"/><path d="M484.507,98.25c1.534,-0.098 1.433,0.018 6.735,0.721c3.782,1.086 24.319,6.985 48.116,7.731c0.175,0.005 0.162,-0.018 2.185,-0.243l1.094,0.217l1.144,1.518c-4.487,1.669 -6.483,2.034 -10.232,7.157c-3.939,5.382 -5.162,-13.155 -20.532,-5.187c-2.589,1.342 -4.831,7.178 -6.22,2.735c-2.514,-8.042 -13.472,-11.642 -18.469,-4.785c-2.389,3.278 -0.692,3.632 -0.036,5.202l-1.135,2.559c-1.89,-2.646 -2.018,-2.55 -2.038,-2.854c-0.186,-2.787 -0.003,-2.689 -0.155,-5.426c-0.265,-4.778 -0.227,-4.656 -0.455,-9.345Z" style="fill:#e58531;"/><path d="M721.654,749.664c-2.163,-1.397 -8.855,-14.291 -6.245,-15.671c7.995,-4.229 5.711,-6.922 6.279,-17.689c0.183,-3.476 10.998,-7.962 11.13,-7.858c1.597,1.259 0.468,1.82 -0.501,6.681c-0.349,1.753 -2.682,18.057 -10.663,34.537Z" style="fill:#ca5962;"/><path d="M282.515,420.9c1.061,0.465 9.971,4.368 10.579,11.51c1.034,12.13 -13.165,9.443 -28.241,9.21c0.262,-0.237 0.844,-1.804 3.295,-2.977c2.99,-1.431 3.041,-0.677 3.283,-0.821c7.751,-4.608 8.927,-8.307 9.279,-9.414c-0.313,-0.915 -0.626,-1.829 -0.939,-2.744c-0.073,-0.224 -0.911,-2.795 -0.911,-2.795c0.281,-0.466 1.037,-0.141 1.318,-0.606l1.094,-0.354l1.243,-1.008Z" style="fill:#f6b688;"/><path d="M455.914,683.062c-5.095,3.734 -11.705,14.423 -13.02,15.477c-0.644,0.516 -0.711,-0.412 -1.395,0.121c-0.576,0.448 0.101,0.886 -0.519,1.369c-5.117,-4.717 -5.348,-4.439 -8.877,-11.009c6.102,-6.362 12.648,-14.826 15.148,-12.907c4.429,3.402 4.131,3.725 8.663,6.948Z" style="fill:#d19cac;"/><path d="M540.017,738.513c2.919,-0.503 5.651,-0.05 6.138,0.031c-0.188,2.571 -1.614,22.065 -2.737,32.095c-3.02,26.983 -2.808,32.61 -4.85,28.406c-0.35,-0.721 1.066,-54.711 1.449,-60.532Z" style="fill:#ee7f98;"/><path d="M288.19,476.626c0.247,0.326 2.296,3.036 2.381,4.751c0.91,18.356 -30.659,13.179 -33.433,12.724c0.831,-0.659 0.06,-2.134 3.357,-2.661c0.408,-0.065 0.839,0.143 1.235,0.002c15.493,-5.496 15.56,-5.241 17.144,-6.46c0.662,-0.509 6.752,-5.195 7.866,-7.124l1.45,-1.231Z" style="fill:#f5b785;"/><path d="M670.643,456.591c-0.748,0.599 -1.497,1.199 -2.245,1.798l-1.094,-0.32l-1.094,-0.306l-1.094,0.014c-12.073,-1.144 -30.615,7.766 -38.275,20.241c-1.887,3.072 -1.931,3.09 -2.187,3.195c-1.261,0.515 -0.372,-2.149 -1.592,-1.65c0.869,-1.748 12.605,-35.612 47.58,-22.972Z" style="fill:#d8667e;"/><path d="M781.906,704.104c1.255,-18.162 2.226,-26.391 2.355,-36.663c0.153,-12.245 -0.98,-27.784 2.374,-23.264c0.786,1.06 2.691,51.376 -3.45,70.79c-1.155,3.651 -3.592,4.633 -3.034,1.395c1.057,-6.128 1.006,-5.986 1.755,-12.258Z" style="fill:#d76b68;"/><path d="M252.304,512.164c0.52,-5.927 0.448,-5.905 0.561,-6.401c0.455,-1.986 1.065,-1.633 20.745,-1.299c3.136,0.053 0.802,12.575 0.719,13.487c-3.345,-3.35 -3.829,-1.707 -12.743,-2.714c-4.801,-1.04 -4.9,-0.416 -9.283,-3.073Z" style="fill:#eb826e;"/><path d="M282.654,392.363c1.911,2.431 1.426,2.772 0.495,5.907c-2.037,6.858 1.05,15.101 -1.887,14.93c-8.814,-0.513 -8.686,-0.761 -17.453,-0.948c0.179,-4.716 0.284,-5.874 1.278,-6.498c3.506,-2.203 3.817,-1.117 7.223,-3.681c6.936,-5.221 4.646,-8.152 5.295,-7.97c0.639,0.179 0.936,1.154 1.482,1.603c0.167,0.138 0.643,0.953 3.567,-3.343Z" style="fill:#f3b384;"/><path d="M455.914,683.062c0.562,0.37 2.631,1.731 7.13,4.384c-0.957,1.659 -8.803,15.267 -13.341,19.399c-0.692,-0.557 -6.305,-5.073 -8.723,-6.817c0.62,-0.483 -0.057,-0.921 0.519,-1.369c0.684,-0.533 0.751,0.395 1.395,-0.121c1.315,-1.053 7.925,-11.743 13.02,-15.477Z" style="fill:#d96f87;"/><path d="M668.354,744.753c0.62,3.307 0.964,3.12 6.679,15.082l-1.168,0.888c-0.704,0.073 -8.052,0.841 -8.749,1.443c-0.523,0.452 -0.668,1.404 -1.191,1.856c-1.275,-2.137 -1.265,-2.125 -1.377,-2.308c-0.256,-0.417 -0.263,-0.28 -0.568,-0.775c-3.454,-7.038 -4.6,-5.871 -7.791,-12.951c1.115,-0.362 4.677,-1.518 14.164,-3.235Z" style="fill:#c2425b;"/><path d="M377.698,486.856c0.057,0.069 1.059,-0.534 3.08,5.332c3.934,7.005 4.85,5.593 14.226,12.584l1.094,0.642l1.094,1.203l1.094,1.111l0.72,0.741l1.467,1.034l1.094,0.68l1.094,0.411l1.094,1.9l0.914,1.363c-0.409,1.432 -0.343,5.236 -3.111,1.42c-3.8,-5.238 -14.528,-13.575 -24.048,-13.012c-3.131,0.185 -5.028,1.892 -4.45,-1.951c0.803,-5.343 4.163,-12.448 4.641,-13.458Z" style="fill:#e77791;"/><path d="M261.587,515.237c8.913,1.006 9.398,-0.636 12.743,2.714c-0.786,6.807 -1.059,8.249 -1.898,9.44c-3.258,4.627 -14.448,1.267 -15.171,1.158c2.327,-6.602 2.269,-6.516 4.326,-13.312Z" style="fill:#f9c1bc;"/><path d="M577.952,542.078c-1.152,2.771 -1.521,2.555 -1.563,5.761c-0.046,3.481 0.21,3.466 0.185,43.513c-0,0.441 -0.005,7.978 -2.559,4.5c-1.415,-1.927 -0.175,-2.278 -0.616,-57.452c-0.002,-0.252 -0.054,-6.792 1.644,-2.393c1.397,3.619 0.959,3.936 2.909,6.071Z" style="fill:#b4cfe1;"/><path d="M492.191,108.527c18.811,-4.93 16,27.995 1.382,22.955c-2.503,-0.863 -2.483,-1.544 -4.984,-0.428c-1.133,-4.915 -1.558,-4.682 -2.194,-9.78c5.623,3.626 5.434,3.771 5.938,4.016c0.652,0.317 6.214,3.024 8.429,-2.929c1.708,-4.593 0.161,-4.585 -1.189,-9.282l-0.678,-0.86l-1.094,-0.673l-1.094,-0.254l-1.094,-0.158l-1.094,-0.051l-1.094,-0.074l-1.235,-2.481Z" style="fill:#f8c773;"/><path d="M492.191,108.527l1.235,2.481l1.094,0.074l1.094,0.051l1.094,0.158l1.094,0.254l1.094,0.673l0.678,0.86c1.35,4.698 2.898,4.69 1.189,9.282c-2.215,5.953 -7.777,3.247 -8.429,2.929c-0.504,-0.245 -0.315,-0.39 -5.938,-4.016c0.11,-2.787 0.089,-2.717 0.762,-5.397l1.135,-2.559c1.694,-2.76 1.58,-2.765 3.9,-4.79Z" style="fill:#fcdf81;"/><path d="M541.405,323.845c2.877,2.862 3.247,1.997 6.099,4.738c6.298,6.054 -14.888,5.927 -14.037,-10.399c0.632,-12.118 17.839,-12.374 9.196,-6.687c-6.314,4.154 -1.745,11.558 -1.257,12.348Z" style="fill:#f6bc89;"/><path d="M579.782,542.738c1.694,1.144 1.559,1.188 2.85,2.857c-0.133,0.761 -0.267,1.521 -0.4,2.282c-0.24,26.353 0.499,26.267 -0.37,51.459l-0.856,1.14c-0.29,-0.34 -1.982,-1.139 -1.991,-3.771c-0.16,-48.594 -0.611,-48.586 -0.225,-52.781c0.052,-0.567 0.941,-0.619 0.993,-1.186Z" style="fill:#d0dbe2;"/><path d="M587.668,553.318c-0.8,35.919 1.215,58.236 -3.08,49.848c-0.319,-0.623 0.077,-33.544 0.039,-47.148c-0.027,-9.815 1.155,-9.745 1.752,-9.506c2.365,0.946 1.112,2.067 1.288,6.807Z" style="fill:#bbd3df;"/><path d="M568.952,634.723l-1.406,1.468c-1.481,4.336 3.283,13.688 3.816,14.734c2.335,4.583 4.099,5.754 0.472,8.847c-1.356,-1.444 -13.279,-14.145 -7.92,-25.926c1.638,-3.601 2.522,-1.837 5.039,0.876Z" style="fill:#f6b98a;"/><path d="M602.607,122.549c-0.112,2.173 -0.146,2.051 0.086,4.101c0.78,6.888 -3.329,7.076 -22.813,11.498c-0.075,-0.977 -1.08,-1.592 -1.156,-2.569c-0.039,-0.501 0.844,0.152 3.004,-5.058c0.662,-1.596 -0.679,-2.882 1.366,-3.769c0.688,-0.299 6.933,6.45 7.66,5.884c0.633,-0.493 0.581,-1.802 1.167,-2.378c0.273,-0.269 0.757,0.487 1.031,0.218c3.638,-0.022 6.269,-0.535 8.56,-6.528l1.097,-1.399Z" style="fill:#d97c26;"/><path d="M775.764,645.573c3.683,23.882 -1.8,31.11 -3.27,33.048c-0.594,-2.117 -0.793,-2.041 -0.51,-4.295c0.45,-3.581 0.669,-26.076 0.925,-26.326c0.906,-0.887 1.95,-1.54 2.856,-2.427Z" style="fill:#f5c6bd;"/><path d="M252.304,512.164c4.383,2.657 4.482,2.034 9.283,3.073c-2.058,6.796 -1.999,6.71 -4.326,13.312c-2.823,-1.077 -8.51,-1.23 -4.957,-16.385Z" style="fill:#fbc2b8;"/><path d="M567.857,106.813c-9.954,4.483 -7.893,7.878 -10.274,9.789c-1.271,1.02 -2.283,-2.988 -5.06,-4.956c-4.707,-3.336 -4.763,-3 -5.543,-3.449c0.598,-0.345 0.526,-1.677 1.124,-2.022c0.159,-0.092 0.026,0.777 2.187,0.134c8.112,-2.414 8.493,1.386 16.404,-1.929l1.162,2.432Z" style="fill:#e29131;"/><path d="M542.636,116.117l1.094,-0.459l1.094,-0.334l1.094,0.386c3.249,2.957 3.108,3.459 2.569,8.328c-0.893,8.075 -13.767,7.763 -8.67,-5.049c0.129,-0.325 0.285,-0.716 2.82,-2.873Z" style="fill:#f77c8c;"/><path d="M605.379,99.545c-0.463,4.341 -0.478,4.226 -1.157,8.488c-2.633,-0.956 -2.213,-1.698 -4.486,-3.639c-3.684,-3.144 -4.733,-2.322 -7.886,-2.172l0.178,-1.374c0.198,-0.534 -0.378,-1.215 -0.18,-1.749c0.021,-0.057 2.847,-1.345 9.825,-2.505c2.268,-0.377 2.689,-0.896 3.789,1.606c0.173,0.395 -0.256,0.95 -0.083,1.345Z" style="fill:#eb8a2d;"/><path d="M567.536,611.644c0.449,0.8 0.897,1.599 1.346,2.399l1.094,0.645c0.315,-0.182 0.678,0.574 0.993,0.392c0.425,-0.245 0.367,-1.23 0.807,-1.431c0.649,-0.296 2.141,5.825 2.27,6.357c0.808,3.317 0.639,3.232 0.929,6.673l0.343,1.359l0.283,1.359l-1.537,1.716c-3.956,-5.244 -7.791,-10.165 -6.529,-19.469Z" style="fill:#fac897;"/><path d="M291.077,262.805c-1.44,-0.496 -2.11,0.36 -2.241,-1.603c-0.095,-1.415 2.488,-7.069 2.754,-7.653c0.164,-0.358 1.671,-0.728 1.861,0.734c0.753,5.795 2.345,8.658 -2.374,8.521Z" style="fill:#da6664;"/><path d="M436.464,626.694c0.434,5.405 -0.621,5.178 -0.932,5.032c-0.401,-0.188 -7.909,-8.345 -1.161,-7.718c1.742,0.162 1.463,0.694 2.093,2.686Z" style="fill:#c15f5d;"/><path d="M592.94,610.375c0.008,-0.268 0.152,-5.253 1.889,-2.397c0.236,0.388 2.579,4.241 2.682,5.083c0.061,0.497 -1.337,3.88 -4.571,-2.686Z" style="fill:#618097;"/><path d="M540.464,137.495c3.869,0.764 3.82,0.753 7.666,0.132c1.038,0.305 2.076,0.611 3.114,0.916c-0.444,0.137 -4.64,1.754 -12.772,-0.324c0.664,-0.241 1.328,-0.483 1.992,-0.724Z" style="fill:#d55840;"/><path d="M712.178,383.738c0.764,0.013 1.528,0.026 2.293,0.038l-0.347,0.816c-0.649,-0.285 -1.297,-0.569 -1.946,-0.854Z" style="fill:#683e26;"/></g></svg>