<?xml version="1.0" encoding="UTF-8" standalone="no"?><!DOCTYPE svg PUBLIC "-//W3C//DTD SVG 1.1//EN" "http://www.w3.org/Graphics/SVG/1.1/DTD/svg11.dtd"><svg width="100%" height="100%" viewBox="0 0 2048 2048" version="1.1" xmlns="http://www.w3.org/2000/svg" xmlns:xlink="http://www.w3.org/1999/xlink" xml:space="preserve" xmlns:serif="http://www.serif.com/" style="fill-rule:evenodd;clip-rule:evenodd;stroke-linejoin:round;stroke-miterlimit:2;"><g id="Background"><path d="M502.049,350.428c-1.224,-2.094 -8.707,-14.894 4.838,-29.789c15.832,-17.411 43.337,-20.984 46.611,-21.943c4.997,-1.464 1.726,-3.351 -0.926,-14.241c-4.194,-17.218 -21.931,-95.094 33.921,-83.323c55.3,11.655 60.07,33.096 68.144,20.81c59.222,-90.111 80.559,42.639 89.556,50.492c12.578,10.978 18.143,-2.275 75.85,-21.761c35.777,-12.081 195.309,-90.669 357.453,-19.029c26.841,11.859 23.757,20.461 52.993,21.941c36.889,1.868 82.694,30.894 86.353,75.037c4.226,50.985 -44.217,163.293 -58.228,185.63l-11.497,-2.312c-2.162,-15.887 8.218,-13.557 39.826,-108.757c19.25,-57.978 15.234,-59.232 8.059,-93.209c-2.971,-6.889 -26.682,-43.663 -81.249,-40.468c-1.138,0.067 -1.049,0.116 -14.16,1.562l-2.499,-3.86l-2.384,-1.355l-2.384,-0.253l-2.384,0.692c-14.011,-1.294 -27.388,3.868 -47.688,8.853c-0.706,-0.04 -9.54,-0.538 -7.587,4.452c0.527,1.347 2.493,1.813 3.02,3.16c-70.365,16.554 -71.685,17.333 -72.765,22.33c-0.679,3.144 -1.25,6.31 -1.93,9.455c-4.716,16.908 -4.729,16.764 -12.014,32.634c-3.234,6.439 -3.37,6.188 -5.296,12.967c-16.701,14.518 -19.695,6.785 -41.699,10.68c-32.153,15.861 -195.337,55.738 -248.716,94.616c-73.725,53.697 -205.199,325.851 -221.716,393.271c-3.211,23.393 -2.066,31.781 26.928,30.682c26.458,-4.322 26.065,-5.134 52.303,-10.172c17.214,-3.305 27.224,0.626 22.516,-15.953c-1.758,-6.193 -24.791,1.157 -43.892,0.967c-32.324,-0.322 -34.294,-19.418 11.566,-112.934c5.738,2.203 7.148,2.547 9.677,-3.015c11.037,-24.272 10.605,-24.301 22.689,-48.16c46.674,-92.152 51.54,-89.593 54.106,-98.156c0.208,-0.695 -1.044,-1.313 23.315,-40.029c2.387,-3.794 0.809,-4.715 4.396,-7.259c1.203,-0.853 9.4,-14.56 10.173,-15.852c3.055,-5.108 20.38,-34.078 50.529,-55.006c5.749,-3.991 6.124,-3.304 6.61,-3.661c19.729,-14.509 55.827,-24.081 62.368,-26.796c7.517,-3.12 7.683,-2.58 14.06,-7.434l2.648,-3.544c3.053,5.136 3.186,4.833 5.454,10.371l-1.422,1.779c-3.562,1.015 -3.434,0.676 -6.924,1.973c-78.773,29.263 -97.477,36.599 -142.02,113.182c-87.739,150.852 -86.625,158.15 -106.495,197.353l-2.513,4.88c-1.997,4.636 -1.977,4.61 -2.157,5.007c-2.818,6.218 -3.009,5.966 -5.787,12.097c-3.091,5.794 -2.737,5.672 -5.786,11.417c-3.632,10.423 -1.442,10.594 -1.417,12.333c0.007,0.505 -1.131,0.535 -1.124,1.04c-6.394,6.049 -21.915,36.164 -1.901,37.029c17.145,0.741 70.167,-10.413 76.2,-11.682c25.17,-5.324 25.094,-5.354 33.27,-6.973l2.606,4.428c14.401,1.93 14.309,2.459 19.134,1.898c4.521,-0.525 3.89,1.263 5.73,1.86c4.468,17.048 10.081,13.86 27.566,10.331c74.471,-15.029 74.564,-14.755 77.507,-16.041c2.903,3.277 5.807,6.553 8.71,9.83c-11.363,9.89 -19.455,5.4 -79.35,20.349c-11.468,2.092 -85.091,15.522 -142.903,28.398c-58.358,12.997 -75.098,17.28 -76.193,40.363c-1.842,38.843 6.524,39.89 14.055,47.182c1.087,0.727 2.331,2.013 8.091,5.41c23.462,13.838 161.76,74.801 161.923,74.869c146.314,60.943 163.228,55.77 216.461,51.402c1.066,0.976 1.385,-1.047 2.361,-0.152c2.11,1.932 0.338,2.962 2.5,4.605c0.301,0.229 0.319,-2.661 4.769,-0.044c10.393,6.112 11.724,-0.446 14.247,-1.425c2.172,-0.843 4.665,-0.297 6.986,-0.56c23.289,-2.633 58.558,-8.677 59.613,-9.078c0.234,-0.089 -3.503,-4.561 -4.675,-5.185c-0.692,-0.369 -1.654,0.647 -2.347,0.278c96.329,-14.636 105.786,-12.146 145.885,-0.181c-2.963,7.927 1.289,7.157 9.27,10.028c3.397,1.222 15.987,2.683 31.714,13.744c0.363,0.255 0.375,0.064 4.999,2.447c14.18,7.827 33.199,27.812 34.742,27.262c1.402,-0.5 1.212,-3.06 2.614,-3.56c2.064,1.486 4.169,6.372 8.959,-0.023c41.197,-54.996 69.164,-96.35 207.581,-126.757c72.717,-22.086 108.38,-25.554 110.324,-62.199c1.993,-37.558 -8.452,-45.641 -29.463,-57.608c-12.82,-6.441 -12.622,-6.263 -25.929,-12.218c1.108,-0.583 0.827,1.417 2.056,0.771c2.165,-1.138 0.923,-2.046 2.831,-3.34c5.135,-3.484 12.584,9.896 22.329,2.294c-7.27,-3.426 -23.185,-7.709 -24.874,-7.479c-5.165,0.701 -4.324,-5.328 -6.429,-5.284c-1.29,0.027 -1.703,2.129 -2.949,2.455c-2.609,0.681 -2.247,-0.844 -4.832,-1.264c-10.917,-1.773 -9.256,2.68 -9.845,3.033c-6.306,-2.839 -6.162,-2.591 -80.783,-30.969c-14.642,-5.344 -14.366,-5.337 -29.089,-10.775c0.165,-1.164 0.624,-2.276 0.789,-3.439c1.454,-10.223 12.895,13.414 28.686,-3.192c55.289,20.567 80.557,31.026 92.662,35.959c54.33,22.911 80.084,33.242 81.746,69.966c2.537,56.06 -20.789,59.552 -24.225,65.599c-3.357,5.908 -0.507,6.542 -8.866,84.071c-4.019,33.815 -3.866,33.581 -6.62,67.517c-4.088,50.382 20.983,79.744 -13.398,196.283c-14.473,49.059 -21.681,47.314 -26.745,98.045c-6.913,69.253 -11.785,87.753 -8.612,93.262c6.12,10.628 7.708,11.437 -4.007,105.44c-9.495,76.195 -12.831,93.536 -191.747,142.93c-72.267,21.858 -146.83,35.205 -159.758,37.519c-1.646,-1.35 -3.291,-2.699 -4.937,-4.049l-2.384,0.255l-2.384,0.855c-8.25,-0.309 -15.359,2.355 -23.916,0.884c-3.698,-0.636 -3.516,-0.544 -7.081,-0.126c-3.486,0.408 -4.682,-2.259 -4.769,-2.301l-2.384,0.56l-2.384,1.486c-4.416,0.261 -4.402,0.176 -4.769,0.281c-3.942,1.135 -1.959,2.687 -2.566,3.228c-0.155,0.138 -10.303,1.279 -11.2,1.38c-3.139,0.353 -2.588,1.252 -5.308,2.568l-2.384,1.523l-2.384,0.349l-2.384,-0.312l-2.384,0.272c-13.155,1.773 -13.041,1.255 -26.179,1.103c-18.038,1.46 -17.772,2.736 -35.815,3.531l-2.384,0.524l-2.384,0.106l-2.384,-0.006l-2.384,0.154l-2.384,2.569l-2.39,3.356c-17.246,2.015 -64.756,3.172 -66.757,2.474c-1.248,-0.435 -1.727,-2.279 -7.246,-2.026c-0.551,0.025 -0.353,0.347 -4.864,4.786c-48.109,-11.862 -51.429,-15.66 -112.446,-44.045c0.614,-0.255 0.896,-5.92 9.773,-2.437c2.595,1.018 17.847,11.033 20.869,7.749c1.303,-1.416 1.58,-3.909 -20.621,-12.64c-6.856,-2.697 -7.218,-2.49 -13.412,1.551l-3.286,2.524c-54.541,-26.158 -98.385,-54.233 -106.6,-59.493c-77.457,-49.598 -84.557,-67.904 -87.898,-76.518c-8.802,-22.695 -14.77,-109.763 -15.057,-116.443c-0.818,-19.031 8.948,-17.587 7.366,-30.419c-10.923,-88.602 -9.231,-88.78 -14.405,-107.465c-31.377,-113.325 -51.181,-191.832 -26.341,-287.173c1.985,-7.618 3.435,-13.183 -4.818,-98.162c-3.192,-32.87 -0.654,-34.559 -11.63,-44.787c-16.101,-15.003 -17.89,-62.992 -4.499,-78.725c5.541,-6.51 -12.57,-0.369 -36.454,-23.635c-29.019,-28.267 -22.541,-57.312 -22.511,-58.429c0.526,-19.461 -1.784,-19.066 -7.4,-37.638c-39.39,-130.253 21.7,-245.089 31.73,-263.944c34.027,-56.944 33.624,-57.082 73.453,-110.193c10.291,-13.723 0.691,-15.257 -32.803,-33.589c-23.396,-14.867 -28.5,-15.694 -38.894,-30.334Z" style="fill:#83493f;"/><path d="M955.227,1436.164c-0.206,-0.745 -37.685,-98.803 2.147,-205.519c13.548,-36.298 63.383,-110.61 146.735,-117.114c45.58,-3.557 72.351,6.768 86.101,10.953c63.4,25.605 55.147,42.884 73.593,43.295c12.841,0.286 32.882,-60.739 119.51,-86.179c45.838,-13.461 118.339,-10.355 152.313,69.258c41.129,96.379 -14.849,231.097 -17.225,238.005c-43.593,104.019 -89.935,159.128 -103.083,176.828c-16.726,22.515 -89.735,106.456 -142.571,149.535c-14.149,10.968 -16.651,6.974 -52.299,-9.863c-39.389,-18.604 -150.657,-81.913 -215.678,-174.341c-30.501,-43.357 -38.554,-63.555 -49.543,-94.859Z" style="fill:#eec687;"/><path d="M1094.313,1152.172l2.637,4.238c18.472,2.442 31.317,-6.409 62.017,0.85c4.394,1.039 4.739,-0.121 8.038,2.922c1.552,1.432 3.628,0.123 3.889,-0.042c0.956,-0.603 1.252,-2.299 2.385,-2.387c1.743,-0.135 3.16,1.958 4.903,1.824c2.381,-4.714 2.17,-4.863 2.571,-5.091c1.21,-0.688 0.944,1.34 2.168,0.644c22.091,8.237 22.055,7.898 42.144,20.047c34.034,24.416 36.749,35.564 49.966,21.66c1.378,-1.449 69.345,-100.297 162.673,-82.213c62.244,12.061 77.487,82.712 79.525,92.157c14.751,68.365 -9.154,137.258 -29.663,189.156c-46.155,109.081 -116.09,191.309 -191.304,265.432c-0.582,0.573 -0.553,0.26 -7.766,6.653c-20.066,17.53 -20.359,18.486 -34.085,18.982c-16.911,-4.379 -137.371,-66.588 -198.984,-145.312c-25.222,-32.227 -64.387,-78.948 -78.202,-164.203c-5.243,-32.355 -8.605,-128.616 50.796,-186.738c1.642,-1.606 1.534,-1.454 14.781,-13.351c21.67,-15.454 28.433,-18.158 51.51,-25.226Z" style="fill:#7d483a;"/><path d="M1211.409,510.908c3.987,-0.188 7.973,-0.377 11.96,-0.565c7.916,0.532 15.832,1.065 23.747,1.597l11.497,2.312c38.766,12.768 70.629,25.003 98.957,75.646c31.488,68.656 21.277,132.26 -28.291,208.777c-0.86,1.25 -4.141,6.021 -11.089,15.4c-0.799,1.104 -0.878,0.991 -10.138,13.699c-2.886,3.289 -5.771,6.577 -8.657,9.866c-14.013,14.836 -88.578,93.785 -202.848,156.041c-16.107,8.775 -26.054,6.837 -115.89,-44.608c-55.294,-31.664 -99.746,-69.441 -107.781,-76.269c-12.512,-11.445 -28.255,-26.035 -30.706,-28.306c-2.903,-3.277 -5.807,-6.553 -8.71,-9.83c-7.593,-9.137 -7.642,-8.923 -14.738,-18.433c-2.257,-3.134 -4.515,-6.269 -6.772,-9.403c-16.762,-23.174 -15.827,-23.47 -29.266,-48.603c-84.219,-203.552 138.666,-316.971 275.286,-174.225c2.975,3.108 9.898,13.612 12.542,10.674c10.75,-11.943 42.86,-69.82 140.895,-83.77Z" style="fill:#8d5349;"/><path d="M1385.599,1130.322c137.802,-30.461 172.441,150.678 34.705,360.963c-63.984,97.686 -154.975,184.15 -163.675,183.206c-8.764,-0.951 -132.087,-71.368 -182.533,-132.058c-6.235,-7.501 -107.18,-111.425 -80.973,-251.253c26.373,-140.712 160.752,-158.527 236.527,-95.021c30.721,25.747 40.189,28.439 66.204,-2.487c40.643,-48.316 68.187,-56.36 89.745,-63.351Z" style="fill:#f7e7cb;"/><path d="M1261.138,530.664c48.99,17.367 88.912,43.947 97.777,122.688c6.922,61.482 -37.462,128.781 -43.889,138.527c-13.048,18.903 -68.938,99.875 -220.053,186.786c-13.481,7.753 -14.605,5.087 -28.67,-1.323c-110.638,-50.422 -175.64,-108.648 -188.953,-120.574c-25.076,-24.409 -113.932,-102.282 -94.066,-214.982c16.225,-92.044 142.258,-158.18 255.925,-55.652c11.077,9.992 30.244,31.636 37.478,21.769c10.235,-13.96 12.108,-19.331 45.797,-46.507c66.667,-46.407 107.668,-37.493 138.655,-30.731Z" style="fill:#eec58c;"/><path d="M1126.364,588.972c62.662,-45.186 126.323,-36.419 166.08,3.643c9.078,9.358 60.176,62.027 13.606,160.818c-26.59,56.408 -81.585,113.565 -203.487,190.631c-14.595,9.227 -19.954,13.485 -26.958,10.335c-3.133,-1.409 -141.932,-66.383 -204.95,-140.077c-146.468,-171.281 28.884,-328.88 165.966,-199.942c27.955,26.294 30.685,35.843 41.028,24.731c17.482,-18.782 17.069,-23.502 48.715,-50.139Z" style="fill:#975647;"/><path d="M1310.636,692.92c-5.608,34.406 -8.748,114.092 -225.041,248.607c-5.313,3.304 -7.312,4.055 -71.362,-32.435c-195.251,-111.237 -193.341,-210.563 -182.246,-258.184c12.811,-54.983 107.124,-118.19 203.559,-21.507c29.689,29.766 32.659,34.103 41.994,25.877c7.845,-6.913 95.037,-128.238 187.989,-68.58c56.345,36.163 45.979,94.857 45.106,106.222Z" style="fill:#f2a2ae;"/><path d="M575.387,1125.424c2.533,-4.496 24.449,-43.407 56.461,-32.583c25.913,8.762 36.144,26.504 41.852,33.9c15.687,23.589 14.992,23.782 16.431,25.762c11.494,15.816 24.921,-48.002 94.735,-18.518c2.972,1.871 5.944,3.741 8.916,5.612c8.233,7.115 8.211,6.952 8.88,7.604c80.54,78.458 99.607,301.432 -59.145,493.698c-1.8,2.137 -12.852,15.254 -24.304,25.149c-5.388,4.655 -10.741,2.716 -48.447,-74.068c-51.612,-105.105 -69.956,-171.944 -80.586,-205.506c-47.475,-172.031 -25.822,-233.114 -14.793,-261.051Z" style="fill:#e0a872;"/><path d="M635.451,1465.742c-6.232,-16.57 -46.588,-123.864 -53.236,-214.492c-10.347,-141.055 56.372,-131.391 79.848,-101.983c25.094,31.435 23.195,53.089 33.199,40.409c83.414,-105.724 192.18,89.308 107.018,300.278l-3.38,-2.251c-5.373,3.87 -4.416,4.588 -15.938,27.735c-1.874,3.764 0.69,3.815 0.431,4.451c-0.505,1.24 -2.722,1.173 -3.279,2.391c-0.244,0.533 0.384,0.356 5.417,5.023c-6.011,11.768 -5.79,11.601 -12.379,23.213c-3.851,6.658 -44.715,77.314 -57.71,77.167c-5.928,-0.067 -18.739,-9.808 -79.991,-161.941Z" style="fill:#804338;"/><path d="M1299.396,837.64c6.269,4.285 6.424,3.71 88.831,34.472c118.76,44.332 140.498,51.695 120.835,58.178c-122.53,40.4 -183.818,26.891 -266.692,135.779c-12.61,-6.394 -10.07,-9.528 -22.021,-17.032c-8.45,-5.305 -22.014,-11.252 -27.871,-17.444c1.009,-5.822 1.895,-5.565 2.003,-11.558c0.718,-39.827 -0.438,-39.616 0.6,-79.409c-6.727,2.825 -6.936,2.082 -7.507,2.344c-2.954,1.361 -5.932,2.733 -5.204,39.648c0.765,38.794 2.785,38.932 0.364,47.088c-100.12,-35.084 -167.484,1.832 -274.145,0.265c-56.891,-0.835 -123.696,-35.156 -202.42,-66.617c-3.874,-1.624 -81.792,-34.841 -83.129,-37.107c-2.298,-3.896 1.93,-4.042 104.252,-23.392c17.828,-3.372 17.997,-0.969 19.414,-1.605c0.411,-0.185 -0.129,-0.369 -1.826,-5.237c16.195,4.511 14.486,7.868 17.426,23.908c0.819,4.469 6.05,4.192 6.661,-0.018c1.335,-9.199 0.18,-23.613 17.981,-22.446c6.808,0.446 7.014,-0.623 9.533,-6.852c47.379,-11.243 47.951,-8.442 76.396,-17.801c8.035,6.828 52.487,44.605 107.781,76.269c89.835,51.445 99.782,53.383 115.89,44.608c114.27,-62.255 188.835,-141.204 202.848,-156.041Z" style="fill:#ebaeb9;"/><path d="M604.293,1162.845c1.36,-2.808 11.365,-33.172 41.029,-10.997c25.492,19.056 30.013,77.205 55.358,49.995c8.204,-8.807 45.938,-61.982 90.223,5.571c12.296,18.756 25.025,61.537 28.463,118.655c3.701,61.488 -20.189,132.746 -20.965,135.285c-4.212,12.08 -28.055,80.469 -74.43,141.927c-5.446,7.217 -8.702,10.822 -12.442,2.67c-24.257,-52.868 -101.021,-201.598 -115.683,-359.322c-3.861,-41.529 6.56,-77.307 8.447,-83.784Z" style="fill:#e9bfac;"/><path d="M1213.981,355.002c19.852,-3.304 26.136,-3.488 28.428,-3.556c39.787,-1.168 -2.942,67.278 -2.251,84.457c-1.976,-0.055 -25.585,-0.717 -17.704,16.884c1.182,2.639 1.48,2.184 8.104,7.872c-0.658,0.588 -2.004,-0.358 -2.661,0.23c-1.475,1.32 -14.941,35.279 -16.169,38.375c-1.358,3.426 -0.737,3.415 -1.489,6.902l1.137,2.336l0.033,2.406c-98.036,13.95 -130.146,71.828 -140.895,83.77c-2.644,2.938 -9.567,-7.566 -12.542,-10.674c-136.62,-142.746 -359.505,-29.327 -275.286,174.225c-8.279,6.432 -9.096,4.521 -60.344,16.055c0.837,-14.328 -3.061,-13.233 -4.066,-12.807c-6.776,2.875 -5.318,14.209 -5.151,15.503c-29.065,4.437 -28.254,7.546 -57.091,12.323c-9.824,1.628 -17.223,2.1 -24.037,6.545c-4.802,0.261 -9.604,0.522 -14.406,0.783c-4.316,-14.31 -6.604,-13.809 -5.847,-14.843c0.836,-1.142 3.233,-0.86 3.671,-2.198c0.519,-1.585 -1.895,-3.224 -1.375,-4.809l-4.418,-2.855l2.513,-4.88c19.87,-39.204 18.756,-46.501 106.495,-197.353c44.542,-76.583 63.246,-83.919 142.02,-113.182c3.491,-1.297 3.362,-0.958 6.924,-1.973c11.57,13.532 9.808,28.69 17.714,32.118c14.47,6.276 1.591,-31.005 0.712,-33.547c-0.214,-1.268 -0.428,-2.536 -0.642,-3.804l-0.855,-1.15c33.727,-10.229 33.195,-11.1 66.874,-21.783c50.366,-15.976 50.486,-15.095 83.248,-26.263c0.114,1.27 1.888,2.015 2.002,3.285c0.279,3.11 -4.651,0.422 -15.59,21.162c-6.824,12.939 -7.206,12.697 -7.407,13.939c-0.059,0.367 0.167,0.303 2.25,4.093l-2.999,1.584c-9.457,-5.167 -32.896,-21.84 -39.444,-7.925c-3.673,7.806 15.453,69.957 18.235,77.085c11.785,30.193 122.149,21.893 143.14,6.459c10.753,-7.907 18.394,-85.72 17.504,-88.494c-7.148,-22.275 -38.004,8.763 -43.765,13.764c-10.539,9.15 -14.17,-27.664 -37.902,-50.946c0.374,-0.703 -0.848,-1.629 -0.474,-2.332c0.141,-0.266 0.217,-0.178 2.931,-2.401c49.063,-11.791 87.562,-24.345 135.902,-33.252c0.675,0.471 1.781,-0.85 2.456,-0.38c3.214,2.24 3.133,3.74 -0.536,5.3c-1.969,0.837 -10.568,37.807 -31.013,81.902c-26.062,56.207 -26.784,57.357 -24.35,59.28c1.26,0.996 4.846,13.071 9.857,3.356c39.392,-76.362 58.537,-138.172 52.975,-146.579c-1.091,-1.649 -3.326,-2.357 -4.417,-4.006Z" style="fill:#ebb0bb;"/><path d="M1241.397,1255.256c1.348,0.687 2.036,2.306 3.385,2.993c1.82,0.927 14.08,-14.825 30.895,-6.818c14.631,6.967 15.799,23.336 14.986,27.749c-0.755,4.099 0.013,4.305 -2.636,7.346c-3.014,3.46 -1.213,3.876 0.851,7.901c-4.075,8.954 -0.214,9.026 9.734,25.144c0.746,1.209 0.615,1.227 9.159,15.206c19.967,32.67 19.635,34.061 22.904,33.617c0.676,-0.092 41.821,-35.456 44.637,-38.148c2.379,-8.996 -12.202,-31.429 12.717,-45.941c24.818,-14.452 61.111,18.659 34.45,47.592c-3.05,3.309 -13.266,5.078 -14.812,12.969c-1.922,9.807 -21.409,118.191 -21.167,121.112c2.7,32.583 -3.493,49.395 -115.397,70.79c-19.451,3.719 -108.46,10.402 -119.773,-7.25c-11.708,-18.268 -2.819,-21.484 -9.461,-42.2c-1.706,-5.322 -1.443,-5.367 -17.43,-67.602c-1.496,-6.263 -2.992,-12.525 -4.488,-18.788l3.852,-2.498l-0.723,-2.336l-0.423,-2.336c1.9,-17.001 -0.088,-18.201 -1.412,-19.001c-7.839,-4.733 -25.925,-3.405 -24.844,-27.686c0.165,-3.698 6.679,-28.235 31.62,-21.299c0.926,0.257 0.41,0.798 9.919,6.67c2.449,1.512 0.985,2.159 1.781,4.903c0.123,0.426 1.462,5.045 2.583,4.923c2.115,-0.231 3.74,-2.26 5.855,-2.49c1.166,9.642 1.275,9.527 -0.685,19.039c-1.337,6.486 10.685,10.637 22.918,17.041c2.693,1.41 2.523,1.444 24.369,15.492c10.333,4.463 8.443,-2.209 13.629,-11.919c2.847,-5.331 2.436,-5.458 32.924,-67.947c4.472,-9.166 5.552,-10.261 -1.351,-18.122c-14.383,-16.377 -0.373,-35.621 1.435,-38.105Z" style="fill:#945653;"/><path d="M1378.086,854.922l2.607,-3.713c21.667,-5.55 28.439,8.646 50.314,13.796c14.075,3.314 14.032,3.176 27.072,9.227c0.287,0.133 0.411,-0.835 3.923,0.635c5.382,2.252 3.81,4.428 9.298,6.638l2.384,2.272c0.475,0.185 45.475,9.94 47.688,10.17c5.295,0.552 4.155,-2.446 5.01,-2.95l2.024,0.847c13.306,5.955 13.109,5.777 25.929,12.218c21.011,11.966 31.456,20.05 29.463,57.608c-1.944,36.646 -37.607,40.113 -110.324,62.199c-138.417,30.407 -166.384,71.76 -207.581,126.757c-4.791,6.395 -6.895,1.509 -8.959,0.023c-22.26,-23.387 -35.674,-34.898 -83.339,-49.921c-40.099,-11.965 -49.556,-14.455 -145.885,0.181c-41.67,6.709 -41.369,7.011 -83.454,11.562c-53.233,4.368 -70.148,9.541 -216.461,-51.402c-0.163,-0.068 -138.461,-61.031 -161.923,-74.869c-5.76,-3.398 -7.004,-4.683 -8.091,-5.41c8.512,-16.494 -2.974,-17.787 0.959,-35.987c0.211,0.047 79.721,42.784 150.061,71.815c4.5,1.857 4.88,0.697 56.762,21.975c30.618,12.557 30.688,13.4 33.338,12.368c1.436,-0.559 1.308,-3.1 2.744,-3.66c66.562,26.108 73.567,20.55 77.781,38.264c0.458,1.927 5.095,21.415 12.161,21.675c1.27,0.047 0.742,-3.218 2.011,-3.171c-0.51,-9.369 -0.949,-17.136 2.469,-23.726c2.4,-0.263 2.194,-0.482 4.57,-0.502c6.441,-0.053 2.68,-3.418 2.724,-3.748c0.244,-1.184 0.487,-2.368 0.731,-3.553c4.159,3.494 4.128,3.476 4.491,3.773c4.392,3.587 134.667,-12.767 150.356,-15.994c7.451,-1.533 37.459,-7.704 95.174,0.179c15.675,2.141 15.392,3.276 16.754,3.406l2.662,-2.526c39.387,10.649 47.026,25.214 57.001,30.983c3.774,2.182 4.005,1.181 7.946,-0.896c5.74,3.399 5.668,3.167 6.138,3.477c1.251,0.749 21.343,14.421 32.492,1.355c46.89,-54.956 51.182,-74.979 194.295,-110.985c45.435,-11.431 44.759,-12.826 89.66,-26.892c14.031,-9.173 12.472,-10.428 12.575,-10.84c3.207,-12.88 -5.97,-3.817 -18.582,0.815c-9.894,3.634 -61.369,22.537 -126.55,37.058c-97.883,21.806 -129.828,69.148 -158.489,101.293c-6.298,7.063 -7.976,2.901 -14.754,-3.795c-0.089,-8.41 27.071,-52.581 83.138,-85.31c6.567,-3.834 6.608,-3.554 18.793,-9.473c2.677,-0.895 18.494,-6.182 33.358,-11.47c79.879,-22.552 84.601,-19.331 124.149,-35.072c45.478,-23.954 -23.557,-44.706 -74.545,-63.689c-31.138,-11.593 -31.164,-10.967 -62.064,-23.017Z" style="fill:#ecc183;"/><path d="M979.791,666.37c36.976,-7.665 54.017,5.655 88.751,40.476c12.949,12.981 5.02,-17.842 66.451,-44.444c22.721,-9.839 46.426,8.07 46.778,8.398c75.186,70.007 -83.892,195.11 -101.464,197.844c-4.304,0.67 -5.515,0.858 -46.973,-27.016c-93.776,-63.05 -122.317,-147.381 -53.544,-175.258Z" style="fill:#fad7c8;"/><path d="M1483.309,1587.664c13.771,-25.348 14.158,-26.684 16.203,-25.372c0.683,0.438 -6.577,114.952 -19.307,139.492c-29.19,56.268 -303.528,109.542 -357.184,118.673l-11.928,2.126c-129.323,21.071 -158.349,17.962 -169.193,17.881c3.292,-3.776 4.342,-4.664 0.559,-8.116c-27.176,-16.921 -19.658,-58.835 -26.072,-141.922c-0.753,-9.748 4.589,-8.868 5.008,-9.459c-1.291,-2.801 -2.244,-1.926 -3.45,-4.544c-0.08,-0.174 -0.475,-1.03 0.262,-2.374c0.618,-1.127 1.991,-1.737 2.609,-2.864c27.117,23.466 28.165,65.545 28.844,75.203c0.65,9.234 6.964,-0.857 12.812,-7.701c16.199,7.735 17.673,-5.877 34.76,-0.249c17.298,18.798 -9.603,35.754 -6.8,40.721c0.586,1.039 1.552,1.841 2.139,2.88c-3.303,4.451 -3.826,7.029 1.792,7.167c5.719,0.14 21.219,0.714 33.43,-0.761c134.868,-16.292 206.546,-35.015 224.153,-39.614c14.551,-3.541 14.261,-3.605 28.563,-7.185c12.268,-3.07 12.007,-3.018 24.125,-6.064c78.563,-21.989 99.156,-32.284 131.146,-44.466c10.52,-8.522 -0.321,-9.71 -6.788,-24.275c-4.975,-11.204 -0.215,-22.921 0.533,-24.762c3.207,-3.709 8.338,-11.729 22.674,-11.632c4.544,0.031 11.729,2.535 13.946,4.541c9.117,8.252 -0.678,-7.233 17.164,-47.325Z" style="fill:#efc887;"/><path d="M937.382,1428.722c21.529,65.541 47.108,112.218 115.629,178.524c77.14,74.507 176.545,120.651 198.674,125.635c-0.119,1.175 -0.239,2.35 -0.358,3.526c-12.288,2.05 -93.702,20.678 -201.982,36.211c-22.033,3.161 -21.951,2.549 -23.853,2.825c-4.657,0.676 -6.227,1.488 -6.676,-3.078c22.97,-34.933 -0.371,-85.426 -53.338,-54.501c-5.904,3.447 -8.025,-13.255 -12.983,-30.012c1.722,-18.551 -3.79,-88.602 -8.337,-210.015c-1.33,-15.701 -1.165,-15.637 -7.283,-30.25c-2.867,-6.848 -2.086,-6.897 -3.098,-14.123c1.201,-1.581 2.403,-3.162 3.604,-4.743Z" style="fill:#f1bbbe;"/><path d="M1240.025,300.836c35.585,-3.07 35.217,1.359 54.977,9.138c7.174,33.977 11.19,35.231 -8.059,93.209c-31.608,95.2 -41.988,92.87 -39.826,108.757c-7.916,-0.532 -15.832,-1.065 -23.747,-1.597l-0.062,-1.84l0.25,-2.336c6.453,-12.767 9.809,-22.018 10.523,-23.986c4.607,-12.697 7.968,-15.305 3.615,-22.458c6.484,-6.908 8.14,-6.349 8.617,-15.848c3.83,-4.508 4.191,-4.076 6.292,-9.752c11.839,-31.976 31.011,-75.702 8.644,-91.12c-32.792,-22.604 -299.261,64.533 -380.652,91.584c-9.844,2.104 -16.382,5.866 -19.603,7.108c-102.316,34.757 -112.539,42.091 -189.345,178.428c-36.377,64.574 -35.381,64.906 -68.679,131.176c-45.859,93.517 -43.889,112.613 -11.566,112.934c19.101,0.19 42.133,-7.16 43.892,-0.967c4.707,16.579 -5.303,12.648 -22.516,15.953c-26.238,5.038 -25.845,5.85 -52.303,10.172c-28.993,1.099 -30.139,-7.289 -26.928,-30.682c16.517,-67.42 147.991,-339.574 221.716,-393.271c53.379,-38.878 216.563,-78.755 248.716,-94.616c22.004,-3.894 24.998,3.838 41.699,-10.68c1.927,-6.779 2.062,-6.527 5.296,-12.967c14.47,-8.217 141.74,-39.653 189.047,-46.34Z" style="fill:#e0a87c;"/><path d="M1240.794,1347.453c21.43,-47.096 26.517,-47.179 29.245,-43.944c13.424,15.914 48.9,87.316 58.051,84.65c7.782,-2.267 29.46,-22.113 36.969,-28.379l3.118,3.613c-0.435,1.153 -2.479,1.183 -2.914,2.336c-0.752,1.995 3.149,2.392 3.489,2.426c1.515,0.154 3.14,-0.487 4.568,0.03c0.883,0.32 0.787,1.91 1.67,2.23c-2.44,30.458 -19.362,70.327 -20.474,86.429c-0.172,2.485 -1.136,2.184 -1.283,4.651c-0.061,1.024 1.438,1.742 1.377,2.766c-51.856,17.32 -75.87,26.796 -162.222,26.819c-0.071,-3.695 -4.48,-7.731 -10.986,-20.675c-1.741,-3.465 -27.063,-67.265 -25.724,-69.379c0.943,-1.488 3.076,-1.99 4.019,-3.478c-2.283,-1.099 -12.723,-6.125 -27.803,-15.121c-1.184,-7.232 -0.709,-11.588 5.883,-7.855c56.625,32.062 65.48,42.924 72.783,32.589c3.098,-4.384 5.079,-7.187 30.233,-59.708Z" style="fill:#f4adb5;"/><path d="M906.259,347.515c7.214,-1.836 7.787,-2.659 17.267,3.542c8.726,3.854 18.08,10.124 57.408,16.184c-1.519,0.509 -2.425,2.199 -3.944,2.708c-2.727,0.913 -5.688,0.915 -8.515,1.466c-0.378,0.074 -76.242,20.262 -160.433,54.466c-64.035,26.016 -63.118,32.018 -69.672,37.108c-56.227,43.667 -184.054,280.597 -219.638,395.969l-3.775,-2.425c-1.362,-2.406 -2.08,-1.912 -2.583,-4.562c-0.479,-2.523 -3.644,-13.123 -3.983,-14.259c-7.111,-23.81 -8.548,-26.177 32.019,-110.21c31.657,-65.575 32.574,-64.867 66.833,-128.934c3.123,-5.546 66.208,-125.361 97.591,-140.411c-2.216,-7.407 -2.738,-6.935 -6.784,-13.348c50.623,-47.142 126.091,-68.852 208.208,-97.293Z" style="fill:#eabf86;"/><path d="M615.604,392.146c0.682,0.336 1.359,-1.351 2.04,-1.016c1.13,0.556 0.844,3.299 1.247,14.681c0.557,3.74 0.891,34.738 28.643,74.671c-2.969,21.676 -45.494,59.235 -137.385,261.361c-0.729,-0.178 -1.416,0.856 -2.144,0.679c-2.089,-0.509 -27.23,-87.982 0.77,-180.041c35.775,-101.56 78.207,-136.556 106.83,-170.335Z" style="fill:#e89aa6;"/><path d="M762.821,864.847c-3.949,10.681 -1.422,11.128 -4.793,21.92c-3.989,-1.728 -4.212,-1.512 -45.087,6.211c-49.199,9.295 -150.926,20.631 -83.052,51.711c3.663,1.677 93.151,41.412 163.784,69.481c17.944,7.13 17.822,7.066 35.919,13.75c103.046,32.448 117.347,10.365 253.131,2.425c6.564,-0.384 6.424,-0.234 26.104,-0.38c61.479,4.22 82.556,17.02 120.635,44.749c4.256,3.099 16.03,15.485 16.529,18.723c0.103,0.667 -1.483,0.839 -1.38,1.506c-0.471,-0.31 -0.398,-0.078 -6.138,-3.477c-3.941,2.077 -4.172,3.079 -7.946,0.896c-9.975,-5.768 -17.614,-20.334 -57.001,-30.983c-72.856,-26.15 -208.176,3.311 -269.437,11.162c-5.119,1.764 -6.909,0.748 -8.025,7.803c-3.418,6.591 -2.979,14.358 -2.469,23.726c-1.27,-0.047 -0.742,3.218 -2.011,3.171c-7.066,-0.26 -11.703,-19.748 -12.161,-21.675c-4.214,-17.715 -11.219,-12.157 -77.781,-38.264c-32.143,-12.627 -143.214,-65.329 -155.577,-71.195c-35.608,-16.895 -45.343,-19.507 -83.816,-41.668c-8.913,-5.134 -10.496,3.121 -3.511,10.364c-3.933,18.201 7.553,19.493 -0.959,35.987c-7.531,-7.292 -15.897,-8.34 -14.055,-47.182c1.095,-23.083 17.835,-27.366 76.193,-40.363c57.813,-12.876 131.435,-26.306 142.903,-28.398Z" style="fill:#f0ce9c;"/><path d="M1067.693,392.199c0.985,0.638 1.971,1.277 2.956,1.915c23.732,23.281 27.363,60.095 37.902,50.946c5.761,-5.001 36.617,-36.039 43.765,-13.764c0.89,2.774 -6.751,80.587 -17.504,88.494c-20.991,15.434 -131.355,23.733 -143.14,-6.459c-2.782,-7.128 -21.908,-69.279 -18.235,-77.085c6.548,-13.915 29.987,2.758 39.444,7.925c2.346,1.555 12.622,9.193 14.492,5.634c2.195,-4.179 0.563,-4.873 25.146,-53.337l2.439,-1.992c0.999,-0.268 5.757,-1.547 12.736,-2.276Z" style="fill:#8f534c;"/><path d="M1308.053,827.774c6.433,6.735 7.69,4.408 70.033,27.147c30.9,12.05 30.925,11.425 62.064,23.017c50.988,18.983 120.023,39.735 74.545,63.689c-2.031,-1.609 -0.657,-2.409 -2.861,-4.156c-0.169,-0.134 -1.151,-0.912 -2.701,-0.251c-0.953,0.406 -1.115,1.879 -2.067,2.285c-4.636,0.707 -4.621,0.644 -5.007,0.764c-25.851,8.048 -26.385,8.403 -28.374,9.727c-3.068,2.042 -3.507,-1.125 -7.024,0.322c-1.649,0.679 -56.899,14.541 -57.674,14.958c-11.657,6.28 -24.061,3.758 -22.014,8.043c0.702,1.469 2.872,1.911 3.574,3.38c-14.863,5.289 -30.681,10.576 -33.358,11.47c-12.184,5.919 -12.225,5.64 -18.793,9.473c-56.067,32.728 -83.226,76.9 -83.138,85.31c6.778,6.695 8.456,10.858 14.754,3.795c28.662,-32.145 60.607,-79.487 158.489,-101.293c65.181,-14.521 116.656,-33.425 126.55,-37.058c12.612,-4.632 21.79,-13.695 18.582,-0.815c-0.103,0.412 1.456,1.667 -12.575,10.84c-44.9,14.066 -44.224,15.461 -89.66,26.892c-143.113,36.006 -147.405,56.029 -194.295,110.985c-11.148,13.066 -31.24,-0.606 -32.492,-1.355c-0.103,-0.667 1.483,-0.839 1.38,-1.506c-0.499,-3.238 -12.273,-15.624 -16.529,-18.723c-38.079,-27.729 -59.156,-40.529 -120.635,-44.749c-1.357,-1.235 -0.958,-7.169 -16.643,-6.967c-2.114,0.027 -21.344,0.275 -26.333,2.135c-2.146,0.8 -1.545,2.308 -4.659,1.647c-10.467,-2.222 -46.325,4.577 -102.424,8.99c-55.44,4.361 -56.015,6.642 -109.638,-7.269c-8.668,-2.249 -7.93,-3.604 -8.664,-3.794c-1.126,-0.291 -2.29,1.011 -3.416,0.719l-2.384,-2.293l-2.384,1.208l-2.689,3.578c-18.096,-6.684 -17.975,-6.62 -35.919,-13.75l2.841,-4.617c-9.377,-4.548 -9.477,-3.956 -19.105,-8.129c-4.364,-1.891 -4.481,-1.778 -7.123,-5.641l-2.384,-1.874l-2.384,0.167c-8.527,0.632 -55.479,-20.199 -61.419,-25.428l0.372,-2.336l1.697,-2.957c78.724,31.46 145.529,65.781 202.42,66.617c106.66,1.566 174.025,-35.349 274.145,-0.265c8.417,3.213 8.541,1.881 9.744,1.887c5.858,6.192 19.421,12.139 27.871,17.444c11.951,7.503 9.412,10.638 22.021,17.032c82.874,-108.888 144.162,-95.379 266.692,-135.779c19.664,-6.483 -2.075,-13.846 -120.835,-58.178c-82.407,-30.762 -82.562,-30.187 -88.831,-34.472c2.886,-3.289 5.771,-6.577 8.657,-9.866Z" style="fill:#aa7163;"/><path d="M869.035,1405.735c1.261,-0.324 2.521,-0.648 3.782,-0.973c6.318,8.343 -4.534,9.667 -1.141,49.852c2.148,25.444 6.718,208.856 10.376,238.107c0.021,0.697 0.258,8.428 -2.002,8.49c-0.916,0.025 -15.183,-15.062 -31.124,-10.98c-6.866,1.758 -29.063,18.391 -14.567,53.877c-13.088,0.579 -104.943,-53.722 -113.758,-58.933c-7.244,-4.282 1.662,-6.135 2.058,-6.327c5.965,4.015 6.385,8.339 11.198,3.541c3.503,-3.492 3.024,-5.102 7.918,-4.216c10.212,1.848 11.453,-3.213 19.158,-10.882c2.654,-2.641 26.021,-25.899 32.264,-33.869c15.505,-19.791 13.855,-20.673 20.36,-29.126c2.787,-3.622 19.493,-25.329 28.97,-49.078c2.467,-6.183 24.044,-60.251 24.052,-79.562c0.003,-6.599 1.168,-9.625 -5.685,-8.701l-2.384,0.729l-3.097,0.619c8.774,-30.973 8.826,-30.833 13.622,-62.568Z" style="fill:#eb9da8;"/><path d="M992.422,250.062c-11.089,7.391 -10.757,7.582 -20.068,17.241c-5.574,5.782 -33.457,-10.403 -61.246,14.773c-8.914,8.076 -18.505,27.703 -10.67,44.65c4.22,9.129 -1.172,8.443 -10.777,11.713c-98.658,33.586 -111.305,42.61 -138.647,52.329c-2.431,-0.987 -8.959,-3.637 -24.937,-21.023c-18.007,-19.595 -14.892,-45.668 -14.401,-49.779c1.442,-1.513 2.885,-3.026 4.327,-4.539c10.139,-5.69 9.943,-5.595 20.374,-11.107c3.873,8.939 2.073,9.738 2.896,9.914c1.196,0.256 10.884,-2.054 11.82,-2.277c2.906,-0.693 7.167,-5.777 12.424,-7.908c13.059,-5.292 13.268,-4.171 26.156,-9.673c6.125,-2.615 54.019,-23.062 78.484,-27.974c78.688,-15.798 79.003,-13.853 85.663,-15.879c14.695,-4.471 20.157,1.549 30.442,-3.625l3.005,-1.528l2.384,0.756l2.771,3.938Z" style="fill:#f4c8c7;"/><path d="M619.835,1576.039l-3.119,2.244l-1.086,2.336l0.83,2.336c1.656,12.969 1.563,12.834 3.493,25.704c6.4,52.607 4.989,59.915 33.375,84.5c2.754,2.385 3.578,0.964 37.668,25.785c0.924,0.672 1.29,2.469 2.438,2.394c0.67,-0.044 -0.38,-2.245 7.622,-3.452c2.869,2.16 3.137,2.029 3.098,2.333c-0.465,3.601 -1.999,4.625 1.421,5.738c4.261,1.387 3.555,2.092 7.077,4.836c1.582,1.232 6.593,-0.113 8.146,4.084c0.016,0.043 -4.113,3.554 11.269,9.482c6.579,2.535 5.395,4.272 11.798,7.191c7.309,3.333 5.929,5.126 6.602,5.116c1.143,-0.016 1.271,-2.175 2.389,-2.409c0.623,-0.13 0.068,1.373 0.535,1.798c0.546,0.497 1.487,0.282 2.139,0.634c11.358,6.138 10.405,7.267 22.012,13.055c15.975,7.967 15.038,9.61 16.562,9.449c1.164,-0.123 1.378,-1.967 2.416,-2.495c1.134,-0.578 5.967,0.843 5.449,2.169c-0.552,1.413 -2.877,1.897 -3.07,3.398c-0.416,3.232 1.571,1.175 4.769,1.227c1.038,0.017 11.529,0.188 11.918,5.013c0.387,4.796 3.078,1.806 4.684,2.263c5.937,1.69 6.155,-1.823 12.006,0.086c2.925,0.954 10.036,13.312 18.648,-0.207c2.95,-4.631 -2.955,-8.765 -2.927,-10.754c0.026,-1.819 1.228,-3.622 0.825,-5.398c-0.866,-3.818 -7.508,-1.432 -11.707,-6.592c-10.341,-12.708 -21.592,1.461 -23.572,-7.579c-1.572,-7.181 -3.077,-6.295 -7.39,-7.494c-1.58,-0.439 -8.123,-5.663 -16.854,-6.077c-7.064,-0.335 -35.354,-18.958 -35.571,-19.145c-6.786,-5.83 -7.588,-4.196 -13.781,-7.982c-6.105,-3.732 -7.538,-0.972 -12.439,-5.997c-5.329,-5.463 -4.703,-6.143 -12.148,-8.739c-3.007,-1.048 -25.911,-15.264 -30.524,-17.493c-0.25,-0.121 -11.87,-9.171 -10.81,-11.012c0.793,-1.378 2.885,-1.71 3.678,-3.088c40.92,27.309 135.581,82.176 178.413,91.766c6.308,1.412 -5.715,-15.152 -8.809,-21.291c-6.273,-12.446 -4.702,-43.705 8.681,-41.178c16.066,3.034 26.54,31.427 26.821,31.937c10.349,18.87 7.446,-17.724 15.859,-39.589c11.318,-29.413 19.828,-24.968 22.146,-23.757c-0.618,1.127 -1.991,1.737 -2.609,2.864c-0.737,1.344 -0.343,2.2 -0.262,2.374c1.206,2.618 2.159,1.742 3.45,4.544c-0.419,0.591 -5.76,-0.289 -5.008,9.459c6.415,83.087 -1.104,125 26.072,141.922c3.784,3.452 2.733,4.34 -0.559,8.116c-24.028,-3.272 -23.75,-3.552 -47.272,-8.677c-126.72,-49.162 -239.3,-128.995 -250.811,-138.954c-23.01,-21.141 -27.111,-22.217 -33.093,-81.865c-4.777,-47.636 -6.168,-56.821 -2.569,-56.635c3.701,0.192 2.553,1.809 11.681,21.706Z" style="fill:#dca06f;"/><path d="M922.898,1127.791l-2.394,2.439c-8.489,3.44 -3.742,6.29 -3.794,15.945c-0.003,0.541 -0.012,2.244 -0.566,6.739c-13.896,-0.405 -20.852,-6.422 -20.976,7.232c-0.109,12.039 5.403,176.084 9.612,245.225c1.277,20.977 10.195,217.104 11.054,235.983c0.22,4.834 -0.976,4.607 -1.109,9.337c-0.111,3.966 3.038,2.977 3.248,3.182c-1.612,0.429 -10.732,0.166 -23.386,20.518c-2.473,-4.563 -2.634,-4.52 -2.053,-9.643c1.603,-14.131 -0.146,-14.104 -7.995,-177.548c-2.559,-53.734 -2.33,-53.513 -5.845,-107.427c-1.098,-46.577 -5.563,-167.7 -9.468,-217.44l-0.392,-6.882c-2.199,-28.863 -0.843,-29.899 1.586,-29.757c25.228,1.475 25.013,2.459 52.479,2.096Z" style="fill:#dda468;"/><path d="M779.662,1097.492c36.846,13.462 37.174,12.079 74.08,25.315l0.721,1.983c0.219,7.218 0.438,14.437 0.657,21.655c-7.567,-2.605 -7.695,-1.282 -15.351,-3.733c-22.928,-7.339 -21.979,-9.302 -24.168,-10.118c0,0 -3.35,5.022 -3.641,5.459c-68.195,-60.765 -111.873,2.555 -116.917,-2.283c-8.611,-8.261 -1.29,-13.934 -29.426,-38.938c-18.075,-13.421 -39.842,-31.136 -78.011,-8.025c-9.15,7.833 -14.367,15.095 -14.727,8.216c-4.638,-88.615 -10.349,-94.953 -2.928,-93.189c6.048,1.438 4.526,4.549 69.569,34.116c72.258,32.846 115.521,49.823 140.142,59.542Z" style="fill:#e1989f;"/><path d="M916.144,1152.914c5.149,41.693 0.389,64.425 8.476,135.751c1.852,34.59 -5.143,34.762 1.756,90.953c1.872,15.25 1.966,14.995 3.101,30.554c-0.784,56.974 9.515,199.819 10.567,247.502c0.149,6.761 1.503,6.44 1.426,7.007c-0.185,1.358 -2.183,2.035 -2.368,3.393c-11.598,-12.704 -18.433,-13.205 -21.129,-14.199c-0.21,-0.206 -3.359,0.783 -3.248,-3.182c0.133,-4.73 1.329,-4.503 1.109,-9.337c-0.859,-18.88 -9.777,-215.006 -11.054,-235.983c-4.209,-69.14 -9.721,-233.186 -9.612,-245.225c0.123,-13.654 7.079,-7.637 20.976,-7.232Z" style="fill:#f5ce85;"/><path d="M265.08,984.128c-7.531,-2.024 -7.278,-1.951 -14.666,-3.496c-13.131,-2.747 -11.21,-14.556 -4.673,-16.598c41.631,-13.005 60.416,-5.004 72.212,-81.705c1.779,-11.571 13.306,-9.282 15.074,-2.168c13.722,55.213 8.699,68.422 72.674,82.961c1.529,0.348 21.243,9.074 -7.151,17.902c-55.136,17.142 -49.42,27.904 -65.272,80.81c-2.717,9.067 -12.83,7.294 -15.196,-2.27c-11.936,-48.242 -5.431,-58.212 -53.001,-75.436Z" style="fill:#c08c93;"/><path d="M1758.323,856.766c1.602,-8.23 1.954,-8.051 4.128,-21.208c4.815,-29.138 16.677,-11.019 16.989,-9.516c13.085,63.117 16.903,70.014 68.474,80.132c15.415,3.024 11.972,14.36 -0.069,17.351c-47.252,11.739 -52.366,16.833 -69.026,80.136c-1.398,5.312 -11.689,8.13 -14.383,-2.271c-13.339,-51.51 -8.981,-63.218 -68.781,-77.868c-11.283,-2.764 -9.881,-13.624 -2.605,-15.597c41.437,-11.24 51.405,-8.235 65.272,-51.16Z" style="fill:#be8b92;"/><path d="M566.663,217.737c1.051,1.961 2.102,3.922 3.153,5.882c15.836,5.622 16.825,2.798 31.483,11.047c2.19,1.233 3.031,-0.489 28.31,13.696c7.389,4.146 32.907,7.523 35.818,7.909c4.23,-9.483 8.866,-19.314 9.654,-20.986c4.203,-1.067 3.856,-1.39 7.345,-3.977c2.473,-2.812 4.946,-5.624 7.418,-8.437c16.256,26.309 10.428,41.005 20.726,51.646c-12.455,4.741 -62.153,20.474 -108.851,73.558c-0.849,-2.453 -2.261,-1.939 -2.04,-5.891c0.322,-5.751 -1.948,-4.581 -7.161,-7.616c-5.252,-3.057 -20.182,-17.334 -29.477,-16.239c-1.767,0.208 -17.971,2.117 -21.607,5.21c-1.915,1.63 1.38,2.728 -0.56,4.461c-6.506,5.812 -7.823,2.723 -13.607,-3.704c30.497,-16.905 51.269,-4.387 44.137,-30.456c-1.612,-5.892 -17.148,-62.684 -4.742,-76.104Z" style="fill:#efc284;"/><path d="M1056.118,417.322c1.26,-2.633 5.381,-17.318 13.487,-3.955c18.586,30.637 22.027,61.306 43.396,45.275c7.489,-5.619 29.973,-32.07 25.768,-11.061c-5.642,28.193 -5.025,28.11 -10.068,56.406c-0.891,5.001 -2.466,13.835 -62.772,15.684c-57.891,1.775 -60.963,-8.581 -62.389,-13.387c-16.934,-57.078 -18.913,-61.259 -13.952,-60.327c6.42,1.207 34.265,27.316 42.618,20.136c2.977,-2.558 3.343,-2.407 23.911,-48.771Z" style="fill:#f5d2a4;"/><path d="M1465.792,1521.577c6.288,9.646 2.502,10.354 1.904,21.793c-0.157,2.995 -1.623,31.059 -2.379,37.412c-0.299,2.518 0.765,2.11 1.684,4.642c-8.697,28.637 -5.461,33.075 -12.365,32.351c-43.989,-4.618 -49.936,41.519 -34.684,60.304c1.156,1.424 0.722,1.459 1.463,2.956c-3.805,4.987 -4.784,6.269 -74.108,28.04c-18.956,5.953 -57.752,16.122 -64.387,19.011c-4.518,1.967 -4.127,-0.702 -5.946,-1.012c95.212,-72.254 173.493,-182.195 188.818,-205.496Z" style="fill:#f3c0c1;"/><path d="M913.24,300.577c20.742,-36.17 57.413,-14.646 63.59,-21.823c12.261,-14.246 10.52,-17.927 29.365,-20.932c29.42,-4.691 57.955,25.274 37.388,75.138c-7.357,17.836 -9.206,20.453 -10.334,22.049c-14.432,-9.646 -16.744,-4.767 -60.3,-9.953c-15.398,-1.833 -51.917,-16.099 -56.535,-39.765c-1.058,-1.571 -2.117,-3.142 -3.175,-4.714Z" style="fill:#f5cf9c;"/><path d="M696.54,326.837c0.192,0.329 2.406,4.118 2.406,4.118c2.85,34.361 10.266,39.612 39.773,67.448c-41.72,26.061 -49.049,31.614 -82.679,73.172c-0.79,-1.081 -2.319,-1.283 -6.263,-10.231c-23.276,-52.821 -18.526,-65.585 -16.79,-83.197c7.602,-14.514 58.084,-47.712 63.554,-51.309Z" style="fill:#ebbd7e;"/><path d="M619.835,1576.039c7.55,16.793 7.33,16.772 8.154,18.136c4.834,8.008 14.699,-0.855 18.694,12.015c5.892,18.981 -1.282,32.958 -2.457,37.561c-0.25,0.98 -5.637,6.081 33.479,29.545c-0.793,1.378 -2.885,1.71 -3.678,3.088c-1.059,1.841 10.56,10.891 10.81,11.012c4.614,2.229 27.517,16.444 30.524,17.493c7.445,2.595 6.819,3.276 12.148,8.739c4.901,5.024 6.334,2.265 12.439,5.997c6.193,3.786 6.994,2.151 13.781,7.982c0.218,0.187 28.507,18.81 35.571,19.145c8.732,0.414 15.275,5.638 16.854,6.077c4.313,1.199 5.818,0.313 7.39,7.494c1.979,9.04 13.23,-5.13 23.572,7.579c4.199,5.16 10.841,2.774 11.707,6.592c0.403,1.776 -0.8,3.579 -0.825,5.398c-0.028,1.989 5.877,6.124 2.927,10.754c-8.612,13.519 -15.723,1.161 -18.648,0.207c-5.851,-1.909 -6.069,1.604 -12.006,-0.086c-1.606,-0.457 -4.296,2.533 -4.684,-2.263c-0.39,-4.825 -10.881,-4.996 -11.918,-5.013c-3.198,-0.052 -5.185,2.005 -4.769,-1.227c0.193,-1.501 2.518,-1.985 3.07,-3.398c0.518,-1.326 -4.314,-2.746 -5.449,-2.169c-1.038,0.529 -1.253,2.372 -2.416,2.495c-1.524,0.162 -0.587,-1.482 -16.562,-9.449c-11.608,-5.789 -10.654,-6.917 -22.012,-13.055c-0.652,-0.353 -1.593,-0.138 -2.139,-0.634c-0.467,-0.425 0.088,-1.928 -0.535,-1.798c-1.118,0.234 -1.246,2.393 -2.389,2.409c-0.673,0.01 0.707,-1.784 -6.602,-5.116c-6.403,-2.92 -5.219,-4.656 -11.798,-7.191c-15.383,-5.928 -11.254,-9.439 -11.269,-9.482c-1.553,-4.197 -6.564,-2.852 -8.146,-4.084c-3.522,-2.744 -2.817,-3.449 -7.077,-4.836c-3.419,-1.113 -1.886,-2.136 -1.421,-5.738c0.039,-0.304 -0.229,-0.173 -3.098,-2.333c-8.003,1.207 -6.952,3.408 -7.622,3.452c-1.148,0.075 -1.514,-1.722 -2.438,-2.394c-34.091,-24.821 -34.914,-23.4 -37.668,-25.785c-28.386,-24.585 -26.975,-31.894 -33.375,-84.5c-1.929,-12.87 -1.836,-12.735 -3.493,-25.704l-0.83,-2.336l1.086,-2.336l3.119,-2.244Z" style="fill:#db9e68;"/><path d="M1362.496,253.785c-0.256,-3.465 -2.502,-33.855 18.195,-39.593c29.274,-8.115 30.425,30.631 39.813,22.486c39.028,-33.863 75.23,22.88 18.134,60.424c-38.576,25.366 -43.34,23.706 -49.918,14.584c-19.44,-26.96 -25.138,-52.946 -26.224,-57.901Z" style="fill:#c1858a;"/><path d="M782.686,758.229c13.439,25.133 12.504,25.429 29.266,48.603c-9.966,3.231 -9.842,3.231 -20.224,5.029c-18.494,3.203 -83.566,18.615 -90.809,20.331c-8.176,1.619 -8.1,1.649 -33.27,6.973c0.063,-1.218 0.126,-2.436 0.189,-3.655l2.305,-2.345c-15.495,-6.769 -10.336,-11.531 -19.389,-25.588c-1.202,-1.866 -0.553,-1.862 -1.161,-3.909c6.59,-2.798 6.463,-2.592 13.326,-4.508l-2.314,-2.056l-2.384,-0.737l-2.384,-0.993l-2.384,0.649c-8.949,1.183 -9.096,0.508 -9.667,1.025c-3.202,2.901 -5.082,7.523 -11.788,-1.201c6.814,-4.445 14.213,-4.917 24.037,-6.545c28.837,-4.778 28.026,-7.887 57.091,-12.323c4.893,-0.179 4.806,-0.255 9.217,-2.696c51.248,-11.534 52.065,-9.623 60.344,-16.055Z" style="fill:#eab3bb;"/><path d="M1601.129,648.436c-4.437,-20.525 -6.833,-37.162 -20.781,-45.537c-17.599,-10.567 -42.407,-9.462 -42.278,-17.315c0.061,-3.693 19.666,-8.766 21.48,-9.235c54.55,-14.116 35.08,-53.884 47.514,-72.636c8.988,-13.556 10.485,18.681 17.434,39.612c15.562,46.87 68.336,26.091 62.275,42.549c-2.492,6.767 -4.913,3.982 -24.726,9.038c-50.734,12.946 -36.08,76.418 -50.208,78.304c-6.975,0.931 -10.396,-23.442 -10.71,-24.779Z" style="fill:#c79b7d;"/><path d="M992.422,250.062l-2.771,-3.938l-2.384,-0.756l-3.005,1.528c-10.285,5.174 -15.748,-0.845 -30.442,3.625c-6.661,2.027 -6.975,0.081 -85.663,15.879c-24.465,4.912 -72.359,25.359 -78.484,27.974c-12.888,5.502 -13.097,4.381 -26.156,9.673c-5.257,2.13 -9.518,7.215 -12.424,7.908c-0.936,0.223 -10.624,2.533 -11.82,2.277c-0.823,-0.176 0.977,-0.974 -2.896,-9.914c2.752,-1.339 25.345,-12.329 34.486,-16.577c132.21,-64.279 261.401,-68.586 347.015,-28.077c13.215,6.253 13.218,5.808 14.268,6.487c1.032,0.668 0.819,2.483 1.852,3.151c-9.102,3.476 -14.99,2.57 -63.568,16.315c-11.684,3.306 -6.221,-9.211 -16.613,-19.839c-14.714,-15.048 -29.21,-26.435 -61.393,-15.718Z" style="fill:#fadad8;"/><path d="M1213.981,355.002c-1.657,0.376 -3.315,0.752 -4.972,1.128c-48.34,8.908 -86.84,21.462 -135.902,33.252l-2.312,0.148c-7.332,-3.701 -6.496,-5.093 -7.206,-5.073c-2.587,0.07 -4.752,2.018 -7.184,2.886c-1.595,0.57 -4.392,-0.17 -4.882,1.422c-0.446,1.448 2.761,1.617 3.545,2.92c0.482,0.802 -0.592,1.988 -0.11,2.79l-2.439,1.992c-0.89,-0.068 -0.87,-1.908 -1.76,-1.976c-2.132,-0.163 -6.099,3.466 -6.546,3.875c-4.681,-0.149 -8.863,1.462 -9.589,1.742c-32.762,11.168 -32.882,10.287 -83.248,26.263c-33.679,10.683 -33.147,11.554 -66.874,21.783l-0.746,-1.764c-1.727,-6.04 -3.33,-5.603 -3.159,-11.805c81.391,-27.051 347.86,-114.188 380.652,-91.584c22.367,15.418 3.195,59.144 -8.644,91.12c-2.102,5.676 -2.463,5.243 -6.292,9.752c-2.161,-4.686 -2.162,-4.611 -6.155,-7.972c-0.691,-17.179 42.038,-85.624 2.251,-84.457c-2.292,0.067 -8.575,0.252 -28.428,3.556Z" style="fill:#9e5f58;"/><path d="M1039.68,291.281c1.653,27.556 -8.271,51.987 -19.031,51.369c-108.309,-6.215 -94.031,-37.19 -90.33,-44.225c12.662,-24.07 51.422,-7.536 54.356,-9.78c2.854,-2.183 4.664,-12.818 11.951,-16.309c3.013,-1.444 13.999,-13.964 31.399,-2.347c8.025,5.358 11.226,19.404 11.656,21.291Z" style="fill:#ac6756;"/><path d="M423.532,1169.686c1.197,49.801 -4.275,69.016 -44.264,53.51c-4.417,-1.713 -51.363,-19.917 -35.607,-46.553c10.929,-18.474 35.377,-0.316 37.607,-7.31c0.015,-0.046 2.926,-21.216 19.287,-23.927c5.925,-0.982 11.349,2.394 12.197,2.922c5.904,3.675 10.273,19.517 10.78,21.358Z" style="fill:#cc8892;"/><path d="M1588.305,819.093c-1.551,-6.026 -17.924,-69.639 16.686,-75.939c21.679,-3.946 21.163,27.387 28.369,26.4c45.714,-6.259 37.879,34.063 9.08,46.105c-44.391,18.561 -51.819,7.03 -54.135,3.434Z" style="fill:#c2868d;"/><path d="M855.413,1468.303l3.097,-0.619l2.384,-0.729c6.853,-0.924 5.688,2.102 5.685,8.701c-0.008,19.312 -21.585,73.38 -24.052,79.562c-9.477,23.749 -26.183,45.456 -28.97,49.078c-6.505,8.453 -4.856,9.335 -20.36,29.126c-6.244,7.97 -29.611,31.228 -32.264,33.869c-7.705,7.669 -8.946,12.73 -19.158,10.882c-4.895,-0.886 -4.415,0.725 -7.918,4.216c-4.813,4.798 -5.232,0.473 -11.198,-3.541c6.327,-4.108 24.21,-15.72 63.09,-69.431c45.236,-62.492 66.277,-131.049 69.664,-141.114Z" style="fill:#e18c9a;"/><path d="M1240.025,300.836c-47.307,6.687 -174.577,38.123 -189.047,46.34c7.284,-15.87 7.297,-15.726 12.014,-32.634c12.239,-3.372 116.22,-32.022 155.605,-31.655c20.229,0.188 25.652,8.638 26.886,10.56c0.396,0.618 0.878,1.368 -5.457,7.389Z" style="fill:#f1cd88;"/><path d="M1241.098,1432.846c-3.627,-7.507 -6.7,-8.819 2.451,-29.238c1.347,-3.004 15.892,-33.153 22.987,-37.336c11.86,-6.992 37.383,42.663 38.3,46.078c2.582,9.616 -20.753,52.179 -22.964,55.41c-7.711,11.269 -17.067,2.509 -40.774,-34.915Z" style="fill:#ad6a6d;"/><path d="M1359.272,1494.537c-34.57,27.205 -196.122,44.096 -198.7,20.814c-1.471,-13.288 -0.724,-16.148 3.057,-15.543c3.459,0.553 36.029,11.473 114.303,-1.928c78.191,-13.386 99.013,-37.835 92.474,-15.537c-1.957,6.674 -3.907,8.261 -4.445,9.098c-3.174,1.92 -2.981,2.078 -6.688,3.095Z" style="fill:#eda3ab;"/><path d="M698.05,444.808c4.046,6.414 4.569,5.941 6.784,13.348c-31.383,15.05 -94.468,134.865 -97.591,140.411c-34.258,64.067 -35.176,63.359 -66.833,128.934c-40.567,84.032 -39.129,86.4 -32.019,110.21c0.339,1.135 3.505,11.736 3.983,14.259c0.503,2.65 1.22,2.155 2.583,4.562l3.775,2.425c-0.652,16.335 4.713,25.647 -2.79,19.812c-40.156,-31.227 -19.401,-69.353 -10.376,-89.996c61.158,-139.886 75.388,-160.409 120.272,-242.392c36.961,-65.01 65.27,-94.374 72.211,-101.573Z" style="fill:#f4c994;"/><path d="M320.045,1012.887c-1.461,-3.265 -11.634,-25.993 -29.477,-33.948c-12.921,-5.76 -35.665,-7.707 -18.587,-10.207c44.775,-6.555 48.013,-40.645 51.814,-56.599c7.459,-31.306 -8.609,43.01 55.384,56.628c19.512,4.152 -7.986,2.219 -27.969,19.347c-21.506,18.434 -22.112,39.966 -22.793,40.619c-1.992,1.909 -3.421,0.668 -8.371,-15.839Z" style="fill:#f5afba;"/><path d="M361.847,786.275c-0.227,0.939 -2.475,22.913 -11.278,21.553c-13.02,-2.011 -0.332,-33.197 -33.545,-44.009c-1.288,-0.419 -14.385,-4.683 -15.173,-7.441c-3.461,-12.101 26.399,-2.938 36.786,-30.678c2.936,-7.841 5.515,-33.711 16.246,-22.896c13.172,13.275 -6.106,32.643 38.403,44.894c23.54,6.479 -15.31,16.975 -20.544,20.802c-4.871,3.562 -10.245,16.243 -10.894,17.775Z" style="fill:#c39c8c;"/><path d="M1769.985,861.476c0.168,-0.323 1.99,-3.828 2.249,-3.964c1.5,-0.788 11.931,48.143 45.114,54.325c24.577,4.579 -10.107,4.395 -27.547,25.437c-12.694,15.316 -10.634,16.478 -14.408,35.781c-2.849,14.57 -5.774,-3.881 -5.865,-4.455c-7.458,-47.044 -49.653,-50.313 -49.638,-53.773c0.027,-6.448 36.457,2.047 50.095,-53.351Z" style="fill:#f6b4bf;"/><path d="M1537.738,375.65c-16.808,-13.925 -22.755,-5.909 -27.136,-12.816c-4.61,-7.267 7.524,-9.519 8.553,-9.709c40.007,-7.425 24.87,-51.956 40.332,-47.732c3.703,1.012 8.785,21.408 9.27,23.356c5.705,22.9 33.299,21.837 36.546,27.587c5.168,9.15 -13.529,11.956 -14.691,12.325c-26.72,8.501 -21.385,38.739 -29.289,43.179c-11.979,6.729 -3.848,-8.576 -23.584,-36.19Z" style="fill:#c39893;"/><path d="M1694.565,1179.689c-9.965,-14.222 -2.524,-31.606 -27.645,-40.795c-1.289,-0.471 -14.524,-5.312 -14.485,-9.079c0.119,-11.515 26.976,0.44 36.443,-34.882c1.028,-3.837 1.675,-7.763 2.609,-11.623c2.098,-8.674 9.618,-12.481 13.106,-0.099c10.549,37.441 17.983,33.579 37.97,40.66c3.065,1.086 6.85,7.824 -1.708,10.871c-43.657,15.541 -25.089,33.725 -39.014,45.659c-3.306,2.834 -3.702,1.493 -7.276,-0.713Z" style="fill:#c1998c;"/><path d="M758.029,886.767c-4.868,4.076 -4.828,3.829 -10.78,5.79c-2.286,0.753 -1.748,1.194 -2.369,3.457c1.697,4.868 2.236,5.053 1.826,5.237c-1.417,0.636 -1.586,-1.767 -19.414,1.605c-102.322,19.351 -106.55,19.497 -104.252,23.392c1.337,2.267 79.255,35.483 83.129,37.107l-1.697,2.957l-0.372,2.336c5.941,5.229 52.893,26.06 61.419,25.428l2.384,-0.167l2.384,1.874c2.642,3.863 2.759,3.75 7.123,5.641c9.628,4.173 9.728,3.58 19.105,8.129l-2.841,4.617c-70.634,-28.069 -160.121,-67.804 -163.784,-69.481c-67.874,-31.08 33.853,-42.416 83.052,-51.711c40.874,-7.722 41.098,-7.938 45.087,-6.211Z" style="fill:#874a40;"/><path d="M1213.56,594.104c3.125,-0.477 20.954,-3.196 37.994,10.679c51.642,42.049 18.24,110.663 3.492,76.244c-10.51,-24.529 -2.067,-31.886 -37.112,-52.255c-2.453,-1.426 -37.393,-21.734 -4.374,-34.667Z" style="fill:#fbdcdf;"/><path d="M1393.327,227.232c16.454,16.756 10.884,42.56 25.98,24.684c14.471,-17.136 50.564,-19.82 29.466,17.659c-5.33,9.468 -44.817,40.761 -51.238,33.228c-13.447,-15.775 -37.886,-72.155 -12.113,-77.208c4.166,-0.817 4.081,-0.22 7.904,1.637Z" style="fill:#ed959f;"/><path d="M878.694,1379.775c3.515,53.913 3.286,53.693 5.845,107.427c7.85,163.444 9.598,163.417 7.995,177.548c-0.581,5.123 -0.421,5.08 2.053,9.643c-0.829,1.237 -6.196,9.242 -9.471,16.008l-3.065,2.321c-3.657,-29.251 -8.227,-212.662 -10.376,-238.107c-3.393,-40.185 7.459,-41.509 1.141,-49.852c-1.261,0.324 -2.521,0.648 -3.782,0.973c1.756,-13.161 1.807,-12.993 3.83,-25.992l2.335,1.776l3.493,-1.744Z" style="fill:#a35f57;"/><path d="M1199.594,271.069c13.111,-1.447 13.022,-1.496 14.16,-1.562c54.567,-3.195 78.278,33.579 81.249,40.468c-19.761,-7.779 -19.392,-12.208 -54.977,-9.138c6.335,-6.022 5.854,-6.772 5.457,-7.389c-1.234,-1.922 -6.657,-10.371 -26.886,-10.56c-39.384,-0.367 -143.365,28.283 -155.605,31.655c0.679,-3.144 1.25,-6.31 1.93,-9.455c1.079,-4.997 2.4,-5.776 72.765,-22.33c44.252,-9.476 47.858,-9.37 61.907,-11.689Z" style="fill:#faeec0;"/><path d="M1445.116,457.158c3.779,-3.81 43.348,-43.706 49.926,-44.917c39.893,-7.341 -88.782,120.067 -99.948,126.814c-27.912,16.867 14.493,-45.811 50.022,-81.897Z" style="fill:#e9a4b9;"/><path d="M929.478,1410.171l3.919,2.272l0.403,2.336c0.697,7.23 1.208,6.969 3.582,13.943c-1.201,1.581 -2.403,3.162 -3.604,4.743c1.011,7.226 0.231,7.276 3.098,14.123c6.118,14.613 5.953,14.548 7.283,30.25c4.548,121.413 10.059,191.464 8.337,210.015l-3.487,-2.125c-4.784,-9.072 -4.486,-9.036 -9.907,-17.655c0.185,-1.358 2.183,-2.035 2.368,-3.393c0.077,-0.567 -1.277,-0.246 -1.426,-7.007c-1.051,-47.684 -11.35,-190.528 -10.567,-247.502Z" style="fill:#b27462;"/><path d="M1004.509,1142.114c-19.268,17.825 -51.424,45.459 -71.062,116.782c-2.713,-4.208 -4.295,-3.956 -3.053,-7.703c3.994,-12.055 2.269,-22.783 -0.315,-100.352c19.091,5.742 55.575,-6.747 60.163,-8.318c4.8,-1.643 4.209,-2.551 8.947,-4.608c0.758,-0.329 1.626,1.028 2.384,0.698l2.936,3.499Z" style="fill:#f8ccce;"/><path d="M842.172,844.498c2.45,2.271 18.194,16.86 30.706,28.306c-28.445,9.359 -29.017,6.558 -76.396,17.801c-14.87,1.064 -19.999,1.811 -25.469,-8.418c-3.173,-9.226 -2.397,-9.495 -8.191,-17.339c59.895,-14.949 67.987,-10.459 79.35,-20.349Z" style="fill:#edc7bb;"/><path d="M649.593,803.669c0.608,2.047 -0.041,2.043 1.161,3.909c9.053,14.056 3.894,18.818 19.389,25.588l-2.305,2.345c-0.063,1.218 -0.126,2.436 -0.189,3.655c-6.033,1.269 -59.055,12.423 -76.2,11.682c-20.014,-0.865 -4.492,-30.98 1.901,-37.029c17.346,-2.577 51.755,-9.276 56.243,-10.15Z" style="fill:#df97a1;"/><path d="M1318.191,814.075c6.012,2.834 7.011,3.305 78.632,27.21c14.723,5.438 14.447,5.43 29.089,10.775c74.62,28.378 74.477,28.13 80.783,30.969c10.026,4.003 9.813,4.054 19.688,7.969c-0.855,0.503 0.285,3.501 -5.01,2.95c-2.213,-0.23 -47.213,-9.985 -47.688,-10.17l-2.384,-2.272c-5.488,-2.21 -3.916,-4.387 -9.298,-6.638c-3.512,-1.469 -3.635,-0.501 -3.923,-0.635c-13.04,-6.052 -12.997,-5.914 -27.072,-9.227c-21.875,-5.15 -28.647,-19.346 -50.314,-13.796l-2.607,3.713c-62.343,-22.739 -63.6,-20.413 -70.033,-27.147c9.26,-12.708 9.339,-12.595 10.138,-13.699Z" style="fill:#f9e6c7;"/><path d="M1518.402,1388.863l4.012,2.558c-1.782,10.74 -2.481,10.519 -2.536,21.542c-0.019,3.812 -2.668,2.842 -3.102,6.507c-0.136,1.146 1.392,16.768 -0.73,21.002c-0.175,0.349 -0.077,0.352 -1.04,4.758c-4.208,3.201 -6.117,4.696 -7.628,-0.282c-0.23,-0.756 -0.253,-1.675 0.141,-2.363c0.663,-1.155 2.767,-1.515 2.842,-2.838c0.008,-0.14 -2.641,-3.833 -2.877,-4.162c-2.519,-3.511 -3.401,-1.201 -5.181,2.553c-4.108,8.663 -26.81,56.542 -61.322,103.194c-4.157,5.618 -5.755,4.404 -8.487,10.826c-3.004,7.062 -54.622,66.595 -59.531,72.257c-20.618,23.779 -43.002,45.926 -46.894,49.776c-2.907,2.876 -13.659,10.445 -19.52,18.324c-5.005,6.727 -24.483,21.543 -26.162,23.4c-4.921,5.441 -5.304,0.684 -7.637,-0.689c52.835,-43.08 125.845,-127.02 142.571,-149.535c13.149,-17.7 59.491,-72.809 103.083,-176.828Z" style="fill:#7b3f2e;"/><path d="M1606.297,620.88c-5.402,-12.638 -3.39,-13.958 -13.767,-23.214c-6.299,-5.618 -20.312,-8.778 -20.242,-12.116c0.141,-6.723 26.751,-0.613 36.63,-42.46c3.169,-13.424 3.758,13.7 18.144,27.664c13.154,12.768 26.333,11.746 27.49,12.863c8.85,8.543 -29.861,-6.398 -40.783,50.723c-3.005,15.714 -6.795,-9.786 -7.472,-13.459Z" style="fill:#f3cb90;"/><path d="M860.995,441.695l2.547,0.692l-2.648,3.544c-6.376,4.854 -6.543,4.314 -14.06,7.434c-6.541,2.715 -42.639,12.287 -62.368,26.796c-0.486,0.357 -0.861,-0.33 -6.61,3.661c-30.15,20.928 -47.475,49.898 -50.529,55.006c-0.773,1.292 -8.97,14.999 -10.173,15.852c-3.587,2.544 -2.009,3.465 -4.396,7.259c-24.359,38.716 -23.107,39.334 -23.315,40.029c-2.566,8.563 -7.431,6.004 -54.106,98.156c-12.084,23.859 -11.652,23.887 -22.689,48.16c-2.529,5.562 -3.938,5.218 -9.677,3.015c33.297,-66.27 32.301,-66.603 68.679,-131.176c76.805,-136.337 87.029,-143.671 189.345,-178.428Z" style="fill:#a4675e;"/><path d="M558.739,944.803c-6.985,-7.243 -5.402,-15.498 3.511,-10.364c38.474,22.161 48.209,24.773 83.816,41.668c12.363,5.866 123.434,58.568 155.577,71.195c-1.436,0.559 -1.308,3.1 -2.744,3.66c-2.65,1.032 -2.72,0.189 -33.338,-12.368c-51.882,-21.278 -52.262,-20.117 -56.762,-21.975c-70.339,-29.031 -149.849,-71.769 -150.061,-71.815Z" style="fill:#b77f51;"/><path d="M1131.896,1382.427c15.08,8.996 25.52,14.021 27.803,15.121c-0.943,1.488 -3.076,1.99 -4.019,3.478c-1.339,2.113 23.983,65.914 25.724,69.379c6.506,12.944 10.915,16.98 10.986,20.675c-28.222,-1.527 -33.361,1.324 -38.016,-15.624c-16.19,-58.941 -21.09,-85.503 -22.478,-93.029Z" style="fill:#eb8497;"/><path d="M494.768,571.973c0.732,0.678 1.559,1.253 2.291,1.931c4.076,3.774 -3.854,18.428 -4.759,20.859c-8.146,21.874 -19.792,96.089 8.122,163.715c-0.116,2.339 -0.418,8.401 -9.678,27.69c-3.74,7.79 -6.125,-1.629 -6.253,-2.132c-12.791,-50.511 -16.701,-76.56 -10.084,-130.744c4.605,-27.212 6.174,-44.595 20.361,-81.319Z" style="fill:#f0ba86;"/><path d="M1437.743,1047.425c0.683,0.365 1.594,-0.868 2.277,-0.503c4.052,2.166 2.142,3.196 1.236,7.688c-0.092,0.458 0.542,0.877 1.003,0.998c29.262,7.679 32.363,4.741 60.043,-2.857c11.411,-3.132 11.339,-6.007 22.48,-2.489c-1.764,33.409 -3.067,43.552 -1.034,46.852c1.999,3.243 2.882,2.223 2.962,2.521c0.114,0.427 -0.223,0.334 -3.085,4.623c-7.06,-6.401 -28.409,-30.33 -71.542,-39.228c-48.138,-9.931 -71.917,11.335 -85.532,6.518c26.397,-10.608 26.177,-10.539 71.191,-24.122Z" style="fill:#f4bec1;"/><path d="M527.267,324.297c5.783,6.427 7.1,9.515 13.607,3.704c1.94,-1.733 -1.355,-2.831 0.56,-4.461c3.636,-3.094 19.839,-5.002 21.607,-5.21c9.296,-1.095 24.226,13.182 29.477,16.239c5.213,3.035 7.483,1.865 7.161,7.616c-0.221,3.952 1.19,3.438 2.04,5.891c-3.818,4.991 -3.784,4.966 -4.123,5.39c-6.851,8.572 -6.811,8.411 -13.253,17.247c-13.302,-6.517 -13.668,-5.628 -14.729,-6.342c-25.205,-16.962 -27.435,-13.028 -53.01,-29.487c4.415,-6.264 4.549,-6.054 10.663,-10.587Z" style="fill:#d99963;"/><path d="M607.325,379.252c-15.406,15.646 -15.243,15.946 -16.153,16.063c-4.144,0.532 -2.019,-5.427 -1.853,-5.892c19.516,-54.708 132.488,-117.012 145.027,-104.973c5.337,5.124 -16.819,12.156 -20.876,14.451c-54.539,30.862 -98.476,72.997 -106.145,80.351Z" style="fill:#f0c494;"/><path d="M1060.916,1109.333c-0.232,1.091 -0.464,2.182 -0.696,3.273c-35.435,10.296 -45.13,21.466 -55.711,29.508l-2.936,-3.499c-0.758,0.329 -1.626,-1.028 -2.384,-0.698c-4.738,2.057 -4.147,2.965 -8.947,4.608c-4.589,1.571 -41.072,14.06 -60.163,8.318c-0.149,-11.61 -0.862,-11.49 0.134,-23.046c9.617,-1.974 10.278,2.617 121.451,-17.929c4.584,-0.847 4.443,-0.608 9.252,-0.534Z" style="fill:#edaeb8;"/><path d="M1410.923,1167.462c-0.211,-2.088 -0.694,-1.975 -0.735,-7.269c-0.156,-20.203 42.2,-20.886 61.752,25.395c4.537,10.74 4.963,47.345 -22.845,14.822c-22.914,-26.8 -31.569,-19.711 -38.171,-32.948Z" style="fill:#f9faed;"/><path d="M629.509,254.085c6.315,4.722 10.977,4.547 14.881,25.438c7.064,37.797 -44.62,23.816 -49.68,-0.096c-10.445,-49.358 25.606,-29.335 34.799,-25.342Z" style="fill:#cd8776;"/><path d="M508.775,562.482c-28,92.06 -2.859,179.532 -0.77,180.041c0.729,0.178 1.416,-0.856 2.144,-0.679c-4.424,6.738 -3.953,6.834 -6.68,14.25l-3.047,2.385c-27.914,-67.626 -16.268,-141.841 -8.122,-163.715c0.905,-2.431 8.835,-17.085 4.759,-20.859c-0.732,-0.678 -1.559,-1.253 -2.291,-1.931c2.384,-5.259 2.393,-5.216 2.574,-5.68c2.738,-7 4.598,-7.339 11.432,-3.811Z" style="fill:#a1604c;"/><path d="M1028.989,283.865c1.336,3.408 8.157,20.804 -8.241,44.914c-43.549,-30.006 -74.518,-5.855 -66.13,-27.663c1.221,-3.174 2.276,-1.786 6.421,-2.359l2.384,0.2l2.384,0.112l2.384,1.33l2.384,-0.388l2.384,0.587l2.384,-0.62l2.384,-0.835l2.342,-2.992c5.849,0.322 7.487,2.941 9.986,-2.378c1.319,-2.807 18.189,-38.703 36.911,-13.599c0.202,0.271 0.15,0.273 2.021,3.691Z" style="fill:#f5a5b2;"/><path d="M1213.981,355.002c1.091,1.649 3.326,2.357 4.417,4.006c5.562,8.406 -13.583,70.216 -52.975,146.579c-5.012,9.715 -8.597,-2.36 -9.857,-3.356c-2.433,-1.923 -1.712,-3.073 24.35,-59.28c20.446,-44.094 29.045,-81.065 31.013,-81.902c3.669,-1.56 3.75,-3.06 0.536,-5.3c-0.675,-0.471 -1.781,0.85 -2.456,0.38c1.657,-0.376 3.315,-0.752 4.972,-1.128Z" style="fill:#ca8e94;"/><path d="M866.369,658.055c1.671,-4.352 1.564,-4.374 1.804,-4.7c8.318,-11.292 4.124,-13.397 12.558,-25.285c4.134,-5.828 38.749,-28.336 45.227,-12.38c5.257,12.948 -11.057,22.261 -16.668,26.82c-27.351,22.223 -22.353,43.485 -37.912,33.566c0.187,-13.399 -1.528,-13 -1.631,-13.413l-1.55,-2.336l-1.828,-2.273Z" style="fill:#f3b2b8;"/><path d="M1173.528,1061.379l-2.662,2.526c-1.362,-0.131 -1.079,-1.265 -16.754,-3.406c-57.714,-7.883 -87.722,-1.711 -95.174,-0.179c-15.689,3.227 -145.964,19.581 -150.356,15.994c-0.364,-0.297 -0.333,-0.279 -4.491,-3.773c61.26,-7.85 196.581,-37.311 269.437,-11.162Z" style="fill:#cfad84;"/><path d="M974.567,222.457c8.226,-7.357 120.44,-12.309 196.744,23.56c9.867,4.638 9.678,4.594 19.05,10.076c-2.411,2.422 -2.381,2.696 -9.825,3.371c-2.024,-1.534 -0.547,-2.514 -2.516,-4.007c-1.018,-0.771 -0.728,1.317 -1.739,0.782c-0.692,-0.366 -0.199,-1.726 -0.853,-2.154c-0.645,-0.423 -1.608,0.357 -2.328,0.071c-4.67,-1.851 -4.615,-1.24 -9.403,-2.454c-16.612,-4.212 -16.403,-4.783 -33.366,-6.251l-2.384,-1.489l-2.384,-0.004l-2.55,3.272c-10.251,-4.473 -70.428,-30.734 -138.244,-23.287c-5.011,0.55 -5.637,3.703 -6.961,2.827c-1.511,-0.999 -1.729,-3.316 -3.24,-4.314Z" style="fill:#f5ddb0;"/><path d="M1504.332,640.673c-5.623,1.843 -86.621,28.395 -73.342,10.451c8.673,-11.721 92.465,-40.605 104.287,-36.471c4.976,1.74 7.196,6.174 4.148,9.838c-5.311,6.384 -24.528,12.343 -35.093,16.183Z" style="fill:#e9a6bb;"/><path d="M922.898,1127.791c0.584,0.04 0.45,-0.084 7.314,0.004c-0.996,11.556 -0.283,11.436 -0.134,23.046c2.584,77.569 4.309,88.297 0.315,100.352c-1.241,3.747 0.34,3.495 3.053,7.703c-2.003,11.929 -3.855,20.777 -4.232,22.576c-0.941,4.493 -0.166,4.55 -0.429,4.84c-1.065,1.174 -3.102,1.179 -4.166,2.353c-8.087,-71.326 -3.327,-94.058 -8.476,-135.751c0.554,-4.495 0.563,-6.198 0.566,-6.739c0.052,-9.655 -4.695,-12.504 3.794,-15.945l2.394,-2.439Z" style="fill:#b17267;"/><path d="M818.724,816.235c7.096,9.51 7.145,9.296 14.738,18.433c-2.943,1.286 -3.036,1.012 -77.507,16.041c-17.486,3.529 -23.099,6.717 -27.566,-10.331c0.328,-0.201 -0.416,-2.941 82.251,-20.035c7.994,-1.653 7.012,-3.43 8.084,-4.108Z" style="fill:#f5d5c0;"/><path d="M1372.756,1353.294c0.267,-0.234 23.24,-22.067 21.288,-13.307c-11.91,53.458 -10.642,53.502 -20.016,107.557c-2.392,13.792 -5.883,12.049 -19.416,16.717c0.061,-1.024 -1.438,-1.742 -1.377,-2.766c0.147,-2.468 1.111,-2.166 1.283,-4.651c1.113,-16.102 18.034,-55.97 20.474,-86.429c4.493,-12.26 0.797,-12.253 -0.045,-14.03l-2.191,-3.092Z" style="fill:#f9c9ca;"/><path d="M1523.657,1024.241c0.594,0.562 1.807,-1.161 2.401,-0.599c1.565,1.482 0.909,1.831 -1.275,26.619c-11.141,-3.518 -11.069,-0.643 -22.48,2.489c-27.68,7.598 -30.782,10.536 -60.043,2.857c-0.46,-0.121 -1.095,-0.54 -1.003,-0.998c0.907,-4.493 2.816,-5.523 -1.236,-7.688c-0.683,-0.365 -1.594,0.868 -2.277,0.503c43.267,-10.814 43.225,-10.477 85.913,-23.183Z" style="fill:#eeacb4;"/><path d="M1156.727,1831.245c-21.541,4.346 -21.314,4.505 -43.156,8.247c-139.911,23.968 -180.138,17.625 -195.639,15.181c4.511,-4.439 4.313,-4.761 4.864,-4.786c5.519,-0.253 5.998,1.591 7.246,2.026c2.001,0.698 49.512,-0.459 66.757,-2.474c21.078,-1.703 20.996,-1.887 28.619,-2.058l2.384,-0.348c15.407,-4.23 15.707,-2.812 16.691,-3.745c1.156,-1.096 1.277,-2.988 2.434,-4.084c13.138,0.151 13.024,0.67 26.179,-1.103l2.384,-0.272l2.384,0.312l2.384,-0.349l2.384,-1.523c2.72,-1.316 2.169,-2.215 5.308,-2.568c0.897,-0.101 11.045,-1.242 11.2,-1.38c0.608,-0.541 -1.376,-2.093 2.566,-3.228c0.367,-0.106 0.353,-0.021 4.769,-0.281l2.384,-1.486l2.384,-0.56c0.087,0.042 1.282,2.709 4.769,2.301c3.566,-0.418 3.383,-0.51 7.081,0.126c8.557,1.471 15.666,-1.193 23.916,-0.884l2.384,-0.855l2.384,-0.255c1.646,1.35 3.291,2.699 4.937,4.049Z" style="fill:#714440;"/><path d="M829.593,1027.92l2.689,-3.578l2.384,-1.208l2.384,2.293c1.126,0.291 2.29,-1.011 3.416,-0.719c0.734,0.19 -0.004,1.546 8.664,3.794c53.623,13.911 54.198,11.63 109.638,7.269c56.099,-4.413 91.957,-11.213 102.424,-8.99c3.115,0.661 2.513,-0.846 4.659,-1.647c4.99,-1.861 24.22,-2.108 26.333,-2.135c15.686,-0.202 15.286,5.731 16.643,6.967c-19.68,0.146 -19.541,-0.004 -26.104,0.38c-135.785,7.94 -150.085,30.023 -253.131,-2.425Z" style="fill:#ac7869;"/><path d="M1557.873,1022.405c-10.355,99.358 -10.462,99.338 -10.31,109.743c0.093,6.337 -2.685,3.948 -4.071,3.94c-5.693,-12.866 -5.94,-12.604 -13.11,-24.722c6.656,-18.134 4.727,-58.846 9.784,-77.471l3.25,-1.632c5.458,-2.745 8.454,-6.711 11.088,-7.557l3.37,-2.302Z" style="fill:#fbefd9;"/><path d="M686.657,209.298c5.181,5.467 4.441,6.019 3.187,13.574c-2.473,2.812 -4.946,5.624 -7.418,8.437c-1.257,-0.712 -1.579,-2.528 -2.837,-3.24c-2.834,-1.606 -1.941,0.796 -4.508,7.217c-0.788,1.672 -5.424,11.503 -9.654,20.986c-2.911,-0.385 -28.429,-3.763 -35.818,-7.909c-25.279,-14.185 -26.119,-12.463 -28.31,-13.696c-14.658,-8.249 -15.646,-5.425 -31.483,-11.047c-1.051,-1.961 -2.102,-3.922 -3.153,-5.882c17.453,-7.392 42.626,5.643 60.273,13.401c8.514,4.724 8.468,4.44 16.523,9.46c8.761,4.984 10.401,11.316 16.071,3.155c12.572,-18.096 11.089,-19.052 27.127,-34.455Z" style="fill:#f9ecc2;"/><path d="M1288.879,928.369c2.314,-2.972 2.126,-3.109 5.864,-4.314c27.864,-8.979 19.13,-17.736 25.055,-31.94c7.181,-17.216 3.371,22.181 25.364,29.267c0.15,0.048 33.485,5.462 2.241,10.288c-19.458,3.005 -18.45,22.091 -20.028,29.617c-0.158,0.753 -5.214,6.356 -7.342,-6.366c-3.921,-23.443 -22.818,-20.573 -31.153,-26.551Z" style="fill:#fbdaf0;"/><path d="M1616.965,810.643c-12.084,2.482 -18.363,6.475 -19.232,-7.838c-2.686,-44.221 12.268,-55.183 14.61,-42.207c2.968,16.444 -0.334,18.271 7.042,23.18c1.795,1.195 44.334,-8.099 27.443,13.682c-4.364,5.628 -27.355,12.44 -29.863,13.183Z" style="fill:#eb98a4;"/><path d="M1329.28,798.675c4.363,3.697 3.649,4.822 13.502,7.743c32.555,9.654 32.442,9.593 83.516,28.235c-15.792,16.606 -27.233,-7.031 -28.686,3.192c-0.165,1.164 -0.624,2.276 -0.789,3.439c-71.621,-23.905 -72.62,-24.376 -78.632,-27.21c6.948,-9.379 10.229,-14.15 11.089,-15.4Z" style="fill:#d3a2a6;"/><path d="M811.951,806.832c2.257,3.134 4.515,6.269 6.772,9.403c-1.072,0.678 -0.09,2.455 -8.084,4.108c-82.667,17.094 -81.923,19.834 -82.251,20.035c-1.84,-0.597 -1.209,-2.386 -5.73,-1.86c-4.825,0.561 -4.733,0.031 -19.134,-1.898l-2.606,-4.428c7.243,-1.716 72.315,-17.128 90.809,-20.331c10.382,-1.798 10.257,-1.798 20.224,-5.029Z" style="fill:#cd9b9b;"/><path d="M1421.415,1681.034c3.379,0.493 3.128,0.363 6.582,0.347c0.661,0.315 1.04,-0.126 3.305,1.574c3.937,2.955 1.292,4.661 1.299,5.109c-11.277,-2.134 -9.675,5.799 -21.112,6.339c-1.841,0.087 -13.012,4.793 -14.122,5.261c-5.993,2.525 -69.449,24.32 -80.914,26.285c-4.966,0.851 -4.727,0.695 -9.677,1.866l-2.384,0.054l-2.384,0.702l0.538,1.537l-0.538,2.447c-11.269,0.625 -10.966,2.29 -23.852,2.172c-10.842,-0.099 -11.271,10.35 -26.828,1.681c0.119,-1.175 0.239,-2.35 0.358,-3.526c13.285,0.079 13.31,-0.016 25.289,-5.809c1.819,0.31 1.428,2.979 5.946,1.012c6.636,-2.89 45.431,-13.058 64.387,-19.011c69.325,-21.771 70.303,-23.053 74.108,-28.04Z" style="fill:#9f655e;"/><path d="M980.072,296.151l-2.342,2.992l-2.384,0.835l-2.384,0.62l-2.384,-0.587l-2.384,0.388l-2.384,-1.33l-2.384,-0.112l-2.384,-0.2c-4.145,0.573 -5.2,-0.815 -6.421,2.359c-8.388,21.808 22.581,-2.343 66.13,27.663c-4.616,7.669 -6.811,3.415 -19.166,2.148c-5.846,-0.599 -42.296,0.235 -59.058,-16.848c-2.97,-3.027 -11.767,-31.11 37.548,-17.928Z" style="fill:#ea8592;"/><path d="M1473.868,759.834c-2.715,-0.732 -23.305,-6.281 -33.251,-11.319c-43.535,-22.05 62.715,-20.801 59.11,7.547c-1.48,11.639 -25.505,3.846 -25.859,3.772Z" style="fill:#eaa1ba;"/><path d="M1080.558,468.625c13.855,27.13 -14.047,55.381 -30.68,23.232c-7.712,-14.906 9.568,-49.417 30.68,-23.232Z" style="fill:#be7a6f;"/><path d="M632.986,378.146c-1.736,17.612 -6.485,30.376 16.79,83.197c3.943,8.948 5.473,9.15 6.263,10.231c-3.103,5.554 -2.858,5.677 -8.505,8.908c-27.752,-39.934 -28.086,-70.932 -28.643,-74.671c-0.402,-11.382 -0.117,-14.125 -1.247,-14.681c-0.682,-0.336 -1.359,1.351 -2.04,1.016c1.344,-0.883 3.293,-2.163 14.004,-14.292l3.378,0.291Z" style="fill:#9f6354;"/><path d="M1265.838,1388.919l2.497,2.502c-0.086,2.155 -0.42,10.49 7.063,26.053c1.281,0.05 1.079,0.732 15.812,2.548c-1.077,3.08 -14.234,40.721 -19.457,35.958c-1.212,-1.105 -1.63,-2.886 -2.842,-3.991c-19.87,-27.182 -18.828,-29.971 -17.786,-32.758c5.911,-15.812 6.509,-15.331 14.713,-30.312Z" style="fill:#ee9faa;"/><path d="M1557.873,1022.405l-3.37,2.302c-2.634,0.846 -5.63,4.812 -11.088,7.557c-1.083,0.544 -2.167,1.088 -3.25,1.632c-5.056,18.625 -3.128,59.337 -9.784,77.471c-2.252,-2.37 -4.504,-4.74 -6.756,-7.11c2.862,-4.289 3.199,-4.195 3.085,-4.623c-0.079,-0.297 -0.963,0.722 -2.962,-2.521c-2.034,-3.3 -0.731,-13.443 1.034,-46.852c2.183,-24.788 2.839,-25.137 1.275,-26.619c-0.594,-0.562 -1.807,1.161 -2.401,0.599c27.609,-7.049 36.745,-17.381 34.459,-4.118c-0.13,0.754 -0.113,1.528 -0.243,2.282Z" style="fill:#d8a1a5;"/><path d="M811.96,1138.054c0.291,-0.437 3.641,-5.459 3.641,-5.459c2.189,0.816 1.24,2.778 24.168,10.118c7.656,2.451 7.784,1.128 15.351,3.733c4.36,40.121 -0.024,40.578 7.123,62.789c0.594,1.846 0.537,1.985 0.47,2.148c-0.879,2.152 -1.875,1.29 -2.828,3.623c-8.944,-18.058 -16.957,-49.915 -47.926,-76.951Z" style="fill:#ecadb4;"/><path d="M1713.493,688.457c0.869,-23.448 22.053,-27.337 31.799,-18.564c25.407,22.87 -23.003,56.792 -31.799,18.564Z" style="fill:#dbabae;"/><path d="M839.819,917.32l-0.231,2.375c-13.885,18.887 -48.271,47.99 -54.991,48.987c-14.038,2.082 -9.906,-17.276 34.964,-47.744c11.228,-7.624 15.761,-16.321 20.257,-3.618Z" style="fill:#facbdd;"/><path d="M913.24,300.577c1.058,1.571 2.117,3.142 3.175,4.714c4.618,23.666 41.137,37.932 56.535,39.765c43.556,5.185 45.869,0.307 60.3,9.953c-5.55,2.914 -137.8,3.758 -121.136,-51.782c0.275,-0.918 0.851,-1.732 1.126,-2.65Z" style="fill:#e5ad7b;"/><path d="M1502.37,1468.505c-9.514,60.315 -0.661,63.015 -15.771,84.762c-2.863,4.121 -6.715,10.941 -7.264,11.913c-0.234,-1.494 -2.986,-1.763 -3.22,-3.257c-0.387,-2.471 12.786,-51.695 8.438,-67.936c4.551,-12.162 15.779,-35.141 17.656,-34.531c1.929,0.627 0.31,8.34 0.161,9.05Z" style="fill:#f9ead8;"/><path d="M686.657,209.298c3.225,-1.39 13.456,-10.926 28.054,28.523c11.919,32.207 8.058,33.496 5.368,34.394c-0.946,0.316 -8.746,2.126 -9.509,2.303c-10.298,-10.641 -4.47,-25.336 -20.726,-51.646c1.254,-7.555 1.994,-8.107 -3.187,-13.574Z" style="fill:#f8f0cd;"/><path d="M1538.284,357.104c1.945,-1.07 14.778,-8.126 17.469,-21.294c3.258,-15.947 8.959,12.441 21.132,20.065c5.408,3.387 2.719,5.2 -2.686,8.4c-16.239,9.615 -8.861,31.098 -14.103,28.618c-6.949,-3.288 6.625,-15.325 -24.469,-31.488l0.215,-2.3l2.442,-2Z" style="fill:#eaba8b;"/><path d="M1524.422,248.164c-5.391,-4.274 -8.441,-6.298 -2.334,-9.474c11.168,-5.809 11.6,-5.963 15.919,-17.514c2.177,-5.821 8.12,-5.344 10.328,2.068c2.975,9.986 4.005,9.648 13.339,14.672c14.627,7.872 -10.366,7.877 -13.719,20.751c-3.589,13.779 -8.082,8.891 -8.729,8.187c-7.005,-7.62 -2.092,-11.765 -14.805,-18.69Z" style="fill:#e7c89c;"/><path d="M655.556,855.634c51.237,-10.297 55.78,-16.797 64.342,-3.599c4.672,7.202 -2.822,6.088 -59.482,17.675c-14.741,3.015 -14.66,-9.826 -4.86,-14.076Z" style="fill:#ebba90;"/><path d="M711.676,319.966c-0.491,4.111 -3.606,30.184 14.401,49.779c15.978,17.386 22.505,20.036 24.937,21.023c-7.141,2.179 -6.481,3.113 -12.295,7.634c-29.507,-27.836 -36.923,-33.087 -39.773,-67.448c0,-0 -2.213,-3.789 -2.406,-4.118c3.52,-1.159 3.283,-1.154 6.328,-3.585c5.455,-2.39 4.235,-3.789 4.704,-3.946c1.312,-0.44 2.793,1.1 4.105,0.66Z" style="fill:#986455;"/><path d="M352.314,728.689c7.766,18.833 11.685,15.804 19.808,22.707c5.438,4.622 -12.029,9.568 -16.798,21c-0.063,0.151 -3.62,14.121 -6.987,2.337c-5.263,-18.416 -34.805,-15.783 -17.231,-24.087c17.214,-8.135 16.978,-26.275 19.529,-24.666c0.907,0.572 0.774,2.136 1.681,2.708Z" style="fill:#e8bc8f;"/><path d="M1195.08,940.626c-1.038,39.794 0.118,39.582 -0.6,79.409c-0.108,5.993 -0.994,5.736 -2.003,11.558c-1.203,-0.007 -1.327,1.326 -9.744,-1.887c2.421,-8.156 0.401,-8.294 -0.364,-47.088c-0.728,-36.914 2.25,-38.287 5.204,-39.648c0.57,-0.263 0.78,0.481 7.507,-2.344Z" style="fill:#e1a8b3;"/><path d="M1484.553,1493.986c4.348,16.241 -8.825,65.465 -8.438,67.936c0.234,1.494 2.986,1.763 3.22,3.257c-7.499,13.114 -6.95,13.34 -12.334,20.244c-0.919,-2.532 -1.983,-2.124 -1.684,-4.642c0.755,-6.352 2.222,-34.417 2.379,-37.412c0.598,-11.438 4.384,-12.146 -1.904,-21.793c6.872,-10.586 10.212,-19.83 18.761,-27.591Z" style="fill:#cc8d90;"/><path d="M1700.111,1155.437c-3.017,-0.061 -3.958,0.489 -4.209,-2.461c-1.098,-12.868 -23.783,-19.127 -13.504,-26.451c11.762,-8.381 9.099,-10.396 14.141,-23.706c1.629,-4.3 5.505,4.4 8.23,10.775c5.686,13.3 19.711,13.891 14.337,18.442c-11.703,9.909 -12.081,9.731 -18.994,23.402Z" style="fill:#e5b98f;"/><path d="M439.669,1071.189c-0.168,-1.244 -1.435,-10.599 2.429,-15.501c1.942,-2.464 9.402,-8.898 20.801,-5.937c30.188,7.842 -5.517,56.943 -23.229,21.439Z" style="fill:#dfa8a8;"/><path d="M962.472,1738.687c2.422,-2.444 25.114,-25.333 40.827,-14.603c27.388,18.702 -7.413,54.541 -10.728,57.956c-0.586,-1.039 -1.552,-1.841 -2.139,-2.88c-2.804,-4.967 24.097,-21.922 6.8,-40.721c-17.087,-5.628 -18.561,7.984 -34.76,0.249Z" style="fill:#f8e1aa;"/><path d="M1258.481,1259.719c27.845,-12.715 36.625,37.182 0.57,31.355c-4.752,-2.682 -22.879,-16.598 -0.57,-31.355Z" style="fill:#f3b7b5;"/><path d="M608.112,1489.506c1.316,0.137 2.631,0.275 3.947,0.412c1.053,4.802 0.792,4.677 2.409,9.34c29.579,85.3 44.201,87.653 36.45,88.189c-9.34,0.646 -16.054,-14.382 -16.807,-16.068c-9.57,-21.422 -15.666,-19.017 -19.279,-42.065c-2.951,-18.832 -4.666,-18.363 -6.64,-37.441l-0.08,-2.367Z" style="fill:#f2bfba;"/><path d="M722.55,692.505c-31.663,1.769 -54.25,-5.605 -55.379,-8.572c-5.709,-14.996 11.035,-12.753 12.451,-12.563c30.684,4.112 51.171,6.627 42.928,21.135Z" style="fill:#facddd;"/><path d="M516.604,334.884c25.575,16.459 27.805,12.525 53.01,29.487c1.061,0.714 1.426,-0.175 14.729,6.342c-5.497,9.929 -6.941,12.909 -16.924,7.355c-56.09,-31.21 -52.948,-38.343 -50.815,-43.184Z" style="fill:#f0bb93;"/><path d="M762.821,864.847c5.794,7.845 5.018,8.113 8.191,17.339c5.469,10.229 10.598,9.482 25.469,8.418c-2.519,6.229 -2.725,7.298 -9.533,6.852c-17.801,-1.167 -16.646,13.248 -17.981,22.446c-0.611,4.21 -5.842,4.487 -6.661,0.018c-2.94,-16.04 -1.231,-19.397 -17.426,-23.908c0.621,-2.263 0.083,-2.703 2.369,-3.457c5.952,-1.961 5.912,-1.714 10.78,-5.79c3.371,-10.792 0.844,-11.239 4.793,-21.92Z" style="fill:#fbd4e6;"/><path d="M1148.16,1339.777c-2.115,0.231 -3.74,2.26 -5.855,2.49c-1.12,0.122 -2.459,-4.497 -2.583,-4.923c-0.795,-2.744 0.668,-3.391 -1.781,-4.903c-9.509,-5.871 -8.993,-6.412 -9.919,-6.67c-24.941,-6.936 -31.455,17.6 -31.62,21.299c-1.081,24.281 17.005,22.953 24.844,27.686c1.324,0.8 3.313,2 1.412,19.001l0.423,2.336l0.723,2.336l-3.852,2.498c-3.021,-14.023 -0.718,-20.11 -13.081,-24.616c-33.894,-12.354 -10.766,-74.333 27.842,-54.273c10.881,5.653 13.285,17.295 13.447,17.738Z" style="fill:#7f4e45;"/><path d="M1435.78,1691.116c-31.991,12.182 -52.583,22.477 -131.146,44.466l-2.626,-3.028l0.538,-2.447l-0.538,-1.537l2.384,-0.702l2.384,-0.054c4.95,-1.171 4.711,-1.014 9.677,-1.866c11.464,-1.965 74.921,-23.76 80.914,-26.285c1.11,-0.468 12.281,-5.174 14.122,-5.261c11.437,-0.54 9.835,-8.473 21.112,-6.339l3.179,3.052Z" style="fill:#8d5d44;"/><path d="M661.377,1606.799c0.726,0.815 2.587,-0.856 3.314,-0.04c1.358,1.524 1.138,3.892 1.819,5.802c0.058,0.164 16.973,36.138 25.461,47.221c0.428,0.559 18.745,24.478 0.226,8.732c-22.564,-19.185 -26.362,-17.073 -33.038,-23.369c-4.66,-4.395 3.184,-5.453 2.219,-38.346Z" style="fill:#ee9fa4;"/><path d="M1514.695,941.628c-39.548,15.741 -44.27,12.52 -124.149,35.072c-0.702,-1.469 -2.872,-1.911 -3.574,-3.38c-2.047,-4.285 10.357,-1.763 22.014,-8.043c0.775,-0.417 56.025,-14.279 57.674,-14.958c3.517,-1.448 3.956,1.72 7.024,-0.322c1.989,-1.324 2.523,-1.68 28.374,-9.727c0.386,-0.12 0.371,-0.057 5.007,-0.764c0.953,-0.406 1.115,-1.879 2.067,-2.285c1.55,-0.661 2.533,0.118 2.701,0.251c2.204,1.746 0.829,2.546 2.861,4.156Z" style="fill:#683a27;"/><path d="M1132.829,1339.964c12.291,30.401 -31.69,31.473 -27.54,4.983c0.459,-2.93 11.992,-23.865 27.54,-4.983Z" style="fill:#f3a5ac;"/><path d="M1221.621,876.079c-1.132,-1.337 -3.068,-1.861 -4.2,-3.197c-6.031,-7.119 35.492,-26.686 46.918,-46.126c1.557,-2.649 3.275,-1.023 27.82,-26.779c4.333,-4.547 6.838,1.139 2.58,5.082c-23.452,21.715 -43.304,49.022 -73.118,71.021Z" style="fill:#dba66a;"/><path d="M1237.696,459.723c4.352,7.152 0.992,9.761 -3.615,22.458c-0.714,1.968 -4.071,11.219 -10.523,23.986l-0.25,2.336l0.062,1.84c-3.987,0.188 -7.973,0.377 -11.96,0.565l-0.033,-2.406l-1.137,-2.336c0.752,-3.487 0.131,-3.476 1.489,-6.902c1.228,-3.096 14.694,-37.055 16.169,-38.375c0.658,-0.588 2.004,0.358 2.661,-0.23c3.672,0.127 3.542,-0.03 7.138,-0.936Z" style="fill:#e4b4b6;"/><path d="M1362.009,408.409c1.045,-0.817 9.661,-7.558 16.063,-4.528c1.208,0.572 9.122,4.316 9.501,13.537c1.048,25.509 -43.119,18.182 -25.564,-9.009Z" style="fill:#e4c292;"/><path d="M1094.313,1152.172c26.055,-6.554 46.643,-10.23 88.608,2.957c-1.224,0.696 -0.958,-1.332 -2.168,-0.644c-0.401,0.228 -0.19,0.377 -2.571,5.091c-1.743,0.135 -3.16,-1.958 -4.903,-1.824c-1.133,0.088 -1.429,1.784 -2.385,2.387c-0.262,0.165 -2.337,1.474 -3.889,0.042c-3.299,-3.042 -3.644,-1.883 -8.038,-2.922c-30.701,-7.259 -43.545,1.593 -62.017,-0.85l-2.637,-4.238Z" style="fill:#88513f;"/><path d="M617.591,796.631c4.802,-0.261 9.604,-0.522 14.406,-0.783c6.706,8.724 8.586,4.102 11.788,1.201c0.571,-0.517 0.719,0.158 9.667,-1.025l2.384,-0.649l2.384,0.993l2.384,0.737l2.314,2.056c-6.863,1.916 -6.736,1.71 -13.326,4.508c-4.487,0.874 -38.897,7.573 -56.243,10.15c-0.007,-0.505 1.131,-0.535 1.124,-1.04c-0.025,-1.739 -2.215,-1.91 1.417,-12.333c10.957,-1.469 10.817,-1.437 21.7,-3.815Z" style="fill:#b9767e;"/><path d="M1173.595,1100.729c47.665,15.023 61.079,26.534 83.339,49.921c-1.402,0.5 -1.212,3.06 -2.614,3.56c-1.543,0.55 -20.562,-19.435 -34.742,-27.262c-4.624,-2.383 -4.636,-2.191 -4.999,-2.447c-15.727,-11.061 -28.317,-12.522 -31.714,-13.744c-7.981,-2.871 -12.233,-2.101 -9.27,-10.028Z" style="fill:#854831;"/><path d="M603.743,258.675l2.597,2.236c11.327,9.858 11.143,11.632 26.286,11.669c0.603,1.694 9.721,27.323 -0.5,22.416c-30.524,-14.655 -28.917,-26.338 -28.382,-36.321Z" style="fill:#f29aa4;"/><path d="M1123.012,247.231l2.55,-3.272l2.384,0.004l2.384,1.489c16.963,1.468 16.754,2.038 33.366,6.251c4.788,1.214 4.733,0.603 9.403,2.454c0.72,0.285 1.683,-0.494 2.328,-0.071c0.654,0.428 0.161,1.788 0.853,2.154c1.01,0.535 0.721,-1.554 1.739,-0.782c1.97,1.493 0.492,2.472 2.516,4.007c-6.779,1.421 -23.163,6.007 -28.848,4.068c-2.536,-0.865 -26.403,-14.96 -28.675,-16.301Z" style="fill:#f0bd80;"/><path d="M1241.397,1255.256c30.707,-33.932 73.261,9.003 47.481,39.17c-2.064,-4.026 -3.866,-4.441 -0.851,-7.901c2.649,-3.041 1.881,-3.247 2.636,-7.346c0.813,-4.413 -0.355,-20.782 -14.986,-27.749c-16.815,-8.007 -29.076,7.746 -30.895,6.818c-1.348,-0.687 -2.036,-2.306 -3.385,-2.993Z" style="fill:#7a4842;"/><path d="M883.756,446.391l0.746,1.764l0.855,1.15c0.214,1.268 0.428,2.536 0.642,3.804c0.878,2.543 13.758,39.823 -0.712,33.547c-7.906,-3.429 -6.144,-18.587 -17.714,-32.118l1.422,-1.779c11.882,-3.337 11.64,-3.746 14.76,-6.367Z" style="fill:#fccbdb;"/><path d="M1027.71,1100.91c0.692,0.369 1.654,-0.647 2.347,-0.278c1.172,0.624 4.909,5.096 4.675,5.185c-1.054,0.402 -36.323,6.446 -59.613,9.078c-2.321,0.262 -4.814,-0.283 -6.986,0.56c-2.523,0.979 -3.854,7.538 -14.247,1.425c-4.45,-2.617 -4.467,0.273 -4.769,0.044c-2.162,-1.643 -0.39,-2.673 -2.5,-4.605c-0.976,-0.894 -1.296,1.129 -2.361,0.152c42.085,-4.551 41.785,-4.853 83.454,-11.562Z" style="fill:#874d38;"/><path d="M667.526,359.058c5.188,30.532 6.372,35.592 21.882,62.905c1.364,2.402 0.662,10.304 -3.564,3.613c-6.89,-10.91 -13.776,-14.008 -22.962,-38.475c-2.895,-7.955 1.43,-8.024 0.474,-16.341c-0.743,-6.462 0.112,-6.293 4.17,-11.702Z" style="fill:#d3a065;"/><path d="M1265.838,1388.919c3.137,-6.311 5.143,-9.79 9.097,-3.955c18.68,27.57 17.219,32.12 16.275,35.059c-14.733,-1.817 -14.531,-2.498 -15.812,-2.548c-7.483,-15.563 -7.149,-23.898 -7.063,-26.053l-2.497,-2.502Z" style="fill:#fbe4e1;"/><path d="M938.038,1720.565c5.77,32.467 5.243,32.695 7.097,34.886c1.005,1.187 10.21,1.287 3.812,7.222c-3.736,3.465 -9.59,3.298 -11.081,0.063c-2.249,-4.877 -5.284,-2.39 -6.997,-7.246c-3.373,-9.559 -0.265,-9.235 -0.27,-9.289c-0.033,-0.38 -1.626,0.696 -2.286,-4.209c-0.456,-3.39 0.66,-2.966 2.68,-4.965c1.72,-1.702 -2.846,-9.75 1.005,-11.937c0,-0 5.557,-4.164 6.04,-4.526Z" style="fill:#f1c380;"/><path d="M1240.158,435.903c3.994,3.361 3.995,3.286 6.155,7.972c-0.477,9.499 -2.133,8.94 -8.617,15.848c-3.596,0.906 -3.465,1.064 -7.138,0.936c-6.625,-5.688 -6.923,-5.234 -8.104,-7.872c-7.882,-17.601 15.728,-16.94 17.704,-16.884Z" style="fill:#fae7ea;"/><path d="M1486.534,1244.139c-0.9,31.82 -27.767,9.973 -21.483,-1.78c4.085,-7.64 15.486,-15.954 21.483,1.78Z" style="fill:#fbf9eb;"/><path d="M1199.594,271.069c-14.049,2.319 -17.655,2.213 -61.907,11.689c-0.527,-1.347 -2.493,-1.813 -3.02,-3.16c-1.953,-4.99 6.881,-4.491 7.587,-4.452c20.299,-4.984 33.677,-10.146 47.688,-8.853l2.384,-0.692l2.384,0.253l2.384,1.355l2.499,3.86Z" style="fill:#7e4e3f;"/><path d="M536.184,578.47c13.849,-22.263 30.501,9.781 12.626,17.176c-13.944,5.769 -13.71,-2.427 -12.626,-17.176Z" style="fill:#fac7cd;"/><path d="M1052.518,396.467c-24.583,48.464 -22.95,49.158 -25.146,53.337c-1.87,3.559 -12.146,-4.078 -14.492,-5.634l2.999,-1.584c1.11,-0.221 0.667,-3.464 5.07,-1.012c3.477,1.936 4.724,-3.719 9.884,-14.38c2.145,-4.433 2.077,-4.373 13.379,-28.829c0.447,-0.409 4.414,-4.039 6.546,-3.875c0.89,0.068 0.87,1.908 1.76,1.976Z" style="fill:#e1a1a6;"/><path d="M1273.517,728.132c-16.503,24.604 -28.674,-6.897 -14.395,-14.026c3.415,-1.705 20.295,-4.732 14.395,14.026Z" style="fill:#fce3e5;"/><path d="M1044.212,398.366c-11.301,24.455 -11.233,24.396 -13.379,28.829c-5.16,10.662 -6.407,16.316 -9.884,14.38c-4.403,-2.452 -3.961,0.79 -5.07,1.012c-2.084,-3.79 -2.31,-3.725 -2.25,-4.093c0.201,-1.242 0.582,-1 7.407,-13.939c10.939,-20.74 15.869,-18.052 15.59,-21.162c-0.114,-1.27 -1.888,-2.015 -2.002,-3.285c0.726,-0.28 4.908,-1.891 9.589,-1.742Z" style="fill:#c8858b;"/><path d="M1394.465,1297.369c0.366,0.433 4.579,5.407 4.579,5.407c0.957,6.855 -0.915,9.003 5.966,10.558c5.816,1.315 5.365,1.87 9.628,6.131c-20.026,20.22 -35.352,-6.006 -20.173,-22.096Z" style="fill:#f5a2a7;"/><path d="M1437.812,578.657c-2.677,-6.686 -3.005,-7.236 1.235,-13.196c0.992,-1.394 4.625,-4.822 8.447,-4.937c19.408,-0.585 10.375,37.062 -9.682,18.132Z" style="fill:#e8b0c6;"/><path d="M915.743,999.131c-24.682,-2.581 -6.235,-30.653 5.824,-17.201c2.799,3.122 2.106,9.421 1.923,10.252c-1.219,5.534 -2.088,5.158 -7.747,6.948Z" style="fill:#fdf6d8;"/><path d="M1463.993,1668.726c-1.189,-0.014 -16.611,2.69 -18.401,-8.705c-3.474,-22.11 34.697,-0.762 18.401,8.705Z" style="fill:#f7dc8d;"/><path d="M1429.525,1642.079c-0.748,1.841 -5.508,13.558 -0.533,24.762c6.467,14.565 17.308,15.752 6.788,24.275l-3.179,-3.052c-0.008,-0.449 2.638,-2.154 -1.299,-5.109c-2.265,-1.7 -2.643,-1.259 -3.305,-1.574c-8.499,-26.044 -9.176,-26.465 -5.831,-37.697l1.446,-0.135l1.228,-2.201l4.685,0.731Z" style="fill:#935840;"/><path d="M1394.465,1297.369c13.219,-7.406 24.95,3.268 21.902,19.266c-0.576,0.943 -1.153,1.887 -1.729,2.83c-4.263,-4.261 -3.812,-4.816 -9.628,-6.131c-6.881,-1.555 -5.009,-3.703 -5.966,-10.558c0,0 -4.213,-4.975 -4.579,-5.407Z" style="fill:#f7bfbf;"/><path d="M609.622,771.925l4.418,2.855c-0.519,1.585 1.895,3.224 1.375,4.809c-0.438,1.338 -2.836,1.056 -3.671,2.198c-0.757,1.034 1.531,0.533 5.847,14.843c-10.883,2.378 -10.743,2.346 -21.7,3.815c3.049,-5.744 2.696,-5.623 5.786,-11.417c2.779,-6.131 2.969,-5.879 5.787,-12.097c0.18,-0.397 0.16,-0.371 2.157,-5.007Z" style="fill:#e19ea7;"/><path d="M1251.811,964.282c19.919,9.762 14.999,33.07 7.221,25.489c-3.718,-3.624 -10.471,-13.567 -10.98,-14.602c-4.584,-9.323 0.133,-8.891 3.759,-10.888Z" style="fill:#f9c6d4;"/><path d="M872.066,622.632c8.934,-21.63 13.906,-21.533 16.907,-25.639c4.417,-6.045 8.263,6.565 7.654,7.251c-0.369,0.415 -1.098,0.52 -1.32,1.025c-1.608,3.642 2.396,8.143 -8.183,8.907c-5.753,0.416 -10.77,10.893 -11.555,11.115c-1.419,0.401 -2.083,-3.06 -3.502,-2.659Z" style="fill:#ef93a2;"/><path d="M802.28,1489.954c-7.661,19.057 -7.633,18.871 -16.75,37.35c-5.033,-4.667 -5.661,-4.49 -5.417,-5.023c0.557,-1.218 2.774,-1.152 3.279,-2.391c0.259,-0.636 -2.305,-0.687 -0.431,-4.451c11.522,-23.146 10.566,-23.865 15.938,-27.735l3.38,2.251Z" style="fill:#874636;"/><path d="M1506.694,883.028c0.589,-0.353 -1.072,-4.806 9.845,-3.033c2.586,0.42 2.224,1.945 4.832,1.264c1.246,-0.326 1.659,-2.428 2.949,-2.455c2.105,-0.044 1.264,5.986 6.429,5.284c1.688,-0.229 17.603,4.053 24.874,7.479c-9.746,7.602 -17.194,-5.778 -22.329,-2.294c-1.908,1.295 -0.666,2.202 -2.831,3.34c-1.229,0.646 -0.948,-1.354 -2.056,-0.771l-2.024,-0.847c-9.875,-3.915 -9.662,-3.966 -19.688,-7.969Z" style="fill:#78463b;"/><path d="M763.755,517.867c5.178,-19.472 25.131,2.472 15.29,10.509c-11.616,9.487 -15.026,-9.069 -15.29,-10.509Z" style="fill:#fbcfdb;"/><path d="M919.13,1295.79l-3.395,-1.132c-9.936,-5.361 -4.965,-19.953 -4.763,-27.028c0.32,-11.194 6.774,0.048 7.579,2.332l0.263,2.336l0.309,2.336c0.001,10.769 0.003,10.53 0.007,21.156Z" style="fill:#eac26f;"/><path d="M1046.926,1839.203c-1.156,1.096 -1.277,2.988 -2.434,4.084c-0.984,0.933 -1.284,-0.485 -16.691,3.745l-2.384,0.348c-7.623,0.171 -7.54,0.355 -28.619,2.058l2.39,-3.356l2.384,-2.569l2.384,-0.154l2.384,0.006l2.384,-0.106l2.384,-0.524c18.043,-0.795 17.777,-2.071 35.815,-3.531Z" style="fill:#8e4e44;"/><path d="M603.743,258.675c5.5,-6.664 24.481,0.044 28.883,13.905c-15.143,-0.037 -14.959,-1.811 -26.286,-11.669l-2.597,-2.236Z" style="fill:#f5b9b6;"/><path d="M880.598,434.586c-0.172,6.202 1.431,5.765 3.159,11.805c-3.12,2.621 -2.878,3.03 -14.76,6.367c-2.268,-5.538 -2.401,-5.235 -5.454,-10.371l-2.547,-0.692c3.221,-1.242 9.759,-5.004 19.603,-7.108Z" style="fill:#e0a0ae;"/><path d="M1058.15,477.974c8.786,-9.456 15.891,-12.586 17.179,0.186c0.072,0.713 -0.072,0.66 -0.968,8.905c-6.188,2.315 -6.359,3.166 -7.838,1.995c-0.631,-0.499 -1.442,-1.141 -5.34,-8.441l-3.033,-2.645Z" style="fill:#fbc6cc;"/><path d="M1024.805,286.605c0.108,15.613 -23.357,13.366 -15.172,-4.077c2.875,-6.127 5.176,-3.056 15.172,4.077Z" style="fill:#f9dfdf;"/><path d="M591.263,291.451c15.219,12.344 19.834,13.197 21.869,13.573c0.423,0.078 16.09,5.072 0.387,5.255c-3.592,0.042 -2.926,1.252 -5.991,2.853c-0.037,0.019 -7.393,-2.362 -13.769,-12.454c-1.738,-2.752 -2.283,-1.865 -4.686,-3.828l1.866,-3.238l0.324,-2.161Z" style="fill:#eeba7a;"/><path d="M1165.653,610.796c12.042,-8.134 15.666,4.019 9.73,9.561c-8.944,8.35 -19.476,1.328 -9.73,-9.561Z" style="fill:#fdd6d7;"/><path d="M1507.961,1553.42l1.859,-0.831l1.576,2.336l0.876,2.336c-0.364,7.064 -1.005,6.845 -1.823,14.018c-1.888,16.549 1.52,18.177 -6.829,25.711c0.331,-3.359 3.267,-33.125 3.468,-42.044l0.872,-1.526Z" style="fill:#8b524b;"/><path d="M798.809,1807.376l3.286,-2.524c6.194,-4.042 6.556,-4.248 13.412,-1.551c22.202,8.732 21.925,11.225 20.621,12.64c-3.022,3.283 -18.275,-6.731 -20.869,-7.749c-8.877,-3.483 -9.159,2.182 -9.773,2.437c-2.226,-1.084 -4.451,-2.168 -6.677,-3.252Z" style="fill:#864e4b;"/><path d="M1456.872,1109.816l2.505,-2.456l2.384,0.168l2.384,-0.666l2.384,-0.667c13.513,-0.174 14.376,-3.604 22.083,1.92c-2.757,2.416 -2.157,5.728 -22.144,3.684c-0,-0 -8.83,-1.825 -9.598,-1.983Z" style="fill:#f7de9d;"/><path d="M1058.15,477.974l3.033,2.645c3.898,7.299 4.709,7.941 5.34,8.441c1.479,1.171 1.65,0.32 7.838,-1.995c-0.359,1.166 -4.852,15.776 -12.539,8.988c-7.051,-6.227 -4.078,-16.658 -3.673,-18.078Z" style="fill:#f1a6af;"/><path d="M1396.537,1372.514c-3.163,15.419 -1.623,15.524 -5.669,30.748c-0.752,2.829 -0.921,6.171 -0.949,6.712c-0.166,3.283 -1.133,2.737 -2.304,5.566c-2.17,-3.974 -4.492,-3.86 -2.152,-7.768c4.549,-7.599 4.34,-23.614 6.61,-30.646c1.49,-4.616 3.05,-3.152 4.464,-4.612Z" style="fill:#a26660;"/><path d="M1108.816,585.306c1.143,0.794 1.231,-0.86 2.478,0.006c0.145,0.101 0.466,0.324 0.568,2.109c0.665,11.643 -12.238,2.655 -16.008,12.177c-1.203,3.037 -9.009,1.976 -4.328,-2.727c7.573,-7.608 6.955,-8.709 17.289,-11.565Z" style="fill:#e9c17a;"/><path d="M722.342,774.284c-4.411,2.441 -4.324,2.517 -9.217,2.696c-0.166,-1.294 -1.625,-12.628 5.151,-15.503c1.005,-0.426 4.903,-1.521 4.066,12.807Z" style="fill:#fbdddf;"/><path d="M1372.756,1353.294l2.191,3.092c0.842,1.777 4.537,1.769 0.045,14.03c-0.883,-0.32 -0.787,-1.91 -1.67,-2.23c-1.428,-0.517 -3.054,0.124 -4.568,-0.03c-0.34,-0.035 -4.242,-0.431 -3.489,-2.426c0.435,-1.153 2.479,-1.183 2.914,-2.336l-3.118,-3.613c2.565,-2.162 5.13,-4.324 7.695,-6.486Z" style="fill:#f8c6c8;"/><path d="M1535.476,1360.957l2.635,2.435l-0.794,2.337c-1.355,6.556 -4.754,12.172 -5.521,18.929c-1.299,11.437 -4.213,-0.107 -4.203,-0.438c0.299,-9.827 1.337,-9.467 5.989,-18.374c0.195,-0.372 0.14,-0.362 1.894,-4.89Z" style="fill:#834c44;"/><path d="M1094.255,217.208c1.452,-0.557 1.346,-3.116 2.798,-3.673c1.616,-0.62 1.366,0.788 21.355,3.746l2.384,0.786l2.19,3.978c-14.499,-1.641 -14.322,-1.786 -28.728,-4.838Z" style="fill:#94564b;"/><path d="M1159.57,1663.82c1.347,-0.496 13.279,-4.886 17.949,1.181c2.508,3.258 -0.406,2.845 -4.173,4.524c-1.027,0.458 -1.401,2.5 -2.497,2.238c-0.537,-0.128 0.085,-0.942 -5.473,-4.14c-3.137,-1.805 -2.864,-1.876 -5.806,-3.802Z" style="fill:#dfa56e;"/><path d="M1070.794,389.529c-1.034,0.89 -2.067,1.78 -3.101,2.67c-6.979,0.73 -11.737,2.008 -12.736,2.276c-0.482,-0.802 0.592,-1.988 0.11,-2.79c-0.784,-1.303 -3.991,-1.472 -3.545,-2.92c0.49,-1.592 3.287,-0.853 4.882,-1.422c2.432,-0.868 4.596,-2.816 7.184,-2.886c0.71,-0.019 -0.126,1.373 7.206,5.073Z" style="fill:#b17373;"/><path d="M1437.704,849.936c1.338,-0.758 1.568,-2.782 2.906,-3.54c0.733,-0.415 3.774,2.472 6.798,3.327c3.099,0.875 6.31,1.403 9.33,2.513c4.677,1.72 2.505,4.286 2.851,4.879c-1.842,-0.123 -14.556,-0.969 -21.885,-7.179Z" style="fill:#9f695f;"/><path d="M477.938,604.273c-6.669,25.46 -4.609,26.142 -6.166,27.834c-0.812,0.883 -2.124,-2.994 -2.936,-2.11c0.328,-2.641 0.373,-2.432 3.246,-16.446c2.215,-10.808 5.478,-8.862 5.857,-9.278Z" style="fill:#834a41;"/><path d="M950.095,618.977c5.856,-3.806 8.795,-4.969 9.88,1.788c0.812,5.054 -13.392,13.732 -9.88,-1.788Z" style="fill:#fbbfc9;"/><path d="M894.192,1842.557c1.08,-0.653 1.399,-2.178 2.479,-2.831c0.983,-0.595 9.119,0.82 9.903,0.957c6.411,1.115 9.563,-1.287 9.399,5.026c-0.045,1.725 -1.121,1.495 -21.781,-3.151Z" style="fill:#925049;"/><path d="M866.369,658.055l1.828,2.273l1.55,2.336c0.102,0.413 1.817,0.014 1.631,13.413c-10.658,-3.661 -6.427,-7.067 -5.009,-18.021Z" style="fill:#ee9da7;"/><path d="M600.995,891.571c0.018,-1.127 -2.562,-1.158 -2.545,-2.285c0.038,-2.453 22.479,-7.106 20.292,-2.234c-1.963,4.373 -16.281,4.505 -17.748,4.519Z" style="fill:#86463b;"/><path d="M1428.264,1747.872l2.994,3.257l-2.878,0.087c-13.924,5.474 -13.858,5.464 -13.94,5.457c-1.595,-0.142 -1.457,-3.494 -3.053,-3.636c8.693,-3.81 8.734,-3.009 16.876,-5.164Z" style="fill:#87504a;"/><path d="M1587.595,929.161c-2.737,-6.896 -2.789,-6.884 -2.805,-7.273c-0.209,-5.176 -6.888,-7.136 -1.639,-7.692c6.346,-0.672 4.974,2.047 7.067,7.885c2.151,5.999 -1.838,4.96 -2.623,7.08Z" style="fill:#844949;"/><path d="M1488.059,865.373c1.195,0.38 1.114,0.34 14.237,4.049l2.477,4.502c-1.552,-0.316 -18.946,-3.855 -18.92,-5.76c0.016,-1.177 2.19,-1.615 2.206,-2.792Z" style="fill:#8a5551;"/><path d="M565.196,1323.689c4.381,4.341 4.637,4.163 4.726,4.683c0.105,0.614 3.26,41.006 -2.869,7.262c-1.091,-6.009 -0.914,-5.88 -1.856,-11.944Z" style="fill:#844744;"/><path d="M1442.895,1124.746c1.613,-0.642 0.993,-2.441 4.503,-1.792c6.389,1.181 5.886,2.042 11.688,4.909c-0.973,0.354 -1.215,1.817 -2.188,2.171c-0.659,0.24 -5.008,-2.363 -9.97,-4.09c-1.324,-0.461 -2.71,-0.738 -4.034,-1.199Z" style="fill:#8f544d;"/><path d="M1536.052,902.463c-10.559,2.005 -14.045,-0.803 -14.976,-1.552l2.68,-2.101c4.038,-0.416 3.9,-0.073 7.243,1.89c2.203,1.294 2.457,-1.174 4.792,0.042c0.523,0.272 -0.262,1.449 0.26,1.721Z" style="fill:#f7dd9c;"/><path d="M904.091,1072.541c-0.244,1.184 -0.487,2.368 -0.731,3.553c-0.044,0.33 3.717,3.695 -2.724,3.748c-2.376,0.02 -2.17,0.238 -4.57,0.502c1.116,-7.055 2.906,-6.039 8.025,-7.803Z" style="fill:#eccf99;"/><path d="M1008.771,1797.271c-5.807,3.092 -5.863,4.746 -11.81,2.263c-34.585,-14.441 10.88,-2.507 11.81,-2.263Z" style="fill:#edc27e;"/><path d="M488.646,755.994c0.811,0.12 1.42,-1.135 2.231,-1.015c2.128,0.314 4.121,6.494 3.076,8.244c-3.56,5.96 -5.213,-6.523 -5.307,-7.229Z" style="fill:#e6ac6e;"/><path d="M1366.524,636.896c0.81,11.297 1.87,11.887 0.894,11.933c-5.167,0.243 -3.49,-2.054 -4.098,-6.91c-0.546,-4.363 3.079,-4.829 3.203,-5.023Z" style="fill:#94594e;"/><path d="M1299.378,578.989c2.541,-1.13 2.057,-1.915 4.889,-2.174c3.445,-0.315 4.854,-4.65 5.005,-1.169c0.318,7.31 -3.184,6.275 -9.894,3.344Z" style="fill:#f9f0c3;"/><path d="M1088.231,1626.219c6.067,7.635 18.272,8.238 8.666,10.906c-0.536,0.149 -0.405,-0.011 -5.694,-4.702c-1.158,-1.027 -3.184,-1.234 -3.848,-2.62c-0.533,-1.112 1.408,-2.472 0.876,-3.585Z" style="fill:#8d4c44;"/><path d="M608.112,1489.506c-1.496,-4.262 -2.237,-4.186 -1.223,-6.087c3.422,-6.416 4.35,0.751 4.395,1.104c0.056,0.432 0.611,4.717 0.774,5.396c-1.316,-0.137 -2.631,-0.275 -3.947,-0.412Z" style="fill:#93564c;"/><path d="M596.734,487.972c-6.793,5.577 -6.576,-4.471 -2.946,-5.252c3.98,-0.856 2.83,1.313 2.946,5.252Z" style="fill:#e59ca1;"/><path d="M1483.696,863.063c-1.189,0.593 -1.675,2.148 -2.864,2.741c-0.4,0.2 -0.364,-0.181 -5.253,-1.939c-0.688,-0.247 -2.365,0.68 -2.198,-0.019c1.559,-6.527 4.14,-3.361 10.316,-0.783Z" style="fill:#8b504a;"/><path d="M598.012,1540.473c0.507,1.333 2.688,1.57 3.195,2.903c0.676,1.777 -3.428,10.606 -5.003,2.206c-0.544,-2.899 0.854,-2.413 1.809,-5.109Z" style="fill:#8d4f44;"/><path d="M1066.371,292.134c-2.421,3.403 -2.5,4.395 -6.543,3.018c-1.677,-2.49 -4.354,-3.416 -1.359,-4.067c0.623,-0.135 1.925,-0.418 7.901,1.049Z" style="fill:#935250;"/><path d="M682.426,231.308c-3.489,2.587 -3.142,2.91 -7.345,3.977c2.568,-6.421 1.674,-8.823 4.508,-7.217c1.257,0.712 1.579,2.528 2.837,3.24Z" style="fill:#f5d188;"/><path d="M693.714,201.188c1.355,-0.871 1.542,-2.953 2.897,-3.824c0.371,-0.239 0.349,0.184 4.883,2.579c-0.837,0.412 1.057,2.333 0.219,2.745c-0.582,0.287 -0.583,-0.109 -8,-1.5Z" style="fill:#8c534c;"/><path d="M989.855,1097.645c-2.395,-0.661 -5.06,1.044 -7.455,0.382c-0.378,-0.104 -6.401,-4.872 2.817,-3.938c0.469,0.047 0.344,0.263 4.637,3.556Z" style="fill:#f4ce80;"/><path d="M591.624,935.162c-5.007,2.15 -7.098,5.63 -7.708,0.89c-0.078,-0.603 -0.647,-5.034 7.708,-0.89Z" style="fill:#e2a46a;"/><path d="M1574.218,905.249c0.53,0.268 9.861,4.977 3.932,6.205c-3.134,0.649 -4.877,-3.178 -5.081,-3.628c-0.39,-0.856 1.54,-1.721 1.15,-2.578Z" style="fill:#84504a;"/><path d="M986.182,1395.868c1.071,0.137 1.688,-1.803 2.76,-1.666c0.756,0.096 -0.073,0.609 2.177,9.091c-7.22,-4.285 -4.157,-6.217 -4.937,-7.425Z" style="fill:#925850;"/><path d="M1142.453,224.858c4.458,0.405 4.782,0.059 4.796,0.436c0.115,2.991 -6.325,4.704 -7.369,2.897c-0.7,-1.212 3.273,-2.121 2.573,-3.333Z" style="fill:#8c4743;"/><path d="M1342.315,1605.468c-0.436,-7.114 5.227,-8.744 5.279,-6.22c0,0 -4.856,5.723 -5.279,6.22Z" style="fill:#825145;"/><path d="M1507.961,1553.42l-0.872,1.526c-3.958,-1.682 -7.022,-0.869 -4.619,-4.536c2.147,-3.276 1.908,1.046 5.491,3.01Z" style="fill:#713f37;"/><path d="M546.053,307.244c-3.19,3.008 -2.77,3.29 -7.077,4.964c2.22,-4.301 2.003,-4.477 2.394,-4.638c1.443,-0.594 3.24,0.268 4.682,-0.325Z" style="fill:#88443f;"/><path d="M1060.916,1109.333c0.533,0.358 6.916,4.641 4.661,6.468c-0.536,0.434 -1.473,-0.989 -2.009,-0.554l-3.348,-2.641c0.232,-1.091 0.464,-2.182 0.696,-3.273Z" style="fill:#a06159;"/><path d="M1208.89,1395.458c-0.631,1.597 0.873,1.474 0.28,2.977c-0.113,0.287 -0.817,2.067 -2.595,2.885c-0.465,0.214 -3.678,-1.111 2.315,-5.862Z" style="fill:#9a5858;"/><path d="M1070.794,389.529l2.312,-0.148c-2.714,2.223 -2.79,2.135 -2.931,2.401c-0.374,0.703 0.848,1.629 0.474,2.332c-0.985,-0.638 -1.971,-1.277 -2.956,-1.915c1.034,-0.89 2.067,-1.78 3.101,-2.67Z" style="fill:#c28284;"/><path d="M572.383,836.937c1.593,4.091 6.791,5.841 2.274,5.841c-0.295,0 -1.559,0 -2.57,-2.597c-0.395,-1.014 0.691,-2.23 0.296,-3.244Z" style="fill:#814036;"/><path d="M1535.476,1360.957c0.636,-0.444 -0.519,-1.847 0.116,-2.291c2.184,-1.526 2.929,-0.127 3.042,0.085c1.232,2.312 -1.698,2.438 -0.523,4.641l-2.635,-2.435Z" style="fill:#78423d;"/><path d="M917.946,1372.728c0.556,1.309 3.045,1.066 3.601,2.375c0.156,0.367 -0.129,0.338 -1.777,4.659c-0.608,-2.345 -1.216,-4.689 -1.824,-7.034Z" style="fill:#f6d48f;"/><path d="M1584.821,984.603c-0.545,1.862 1.703,1.384 1.15,3.274c-0.069,0.236 -0.514,1.755 -2.604,1.696c-3.954,-0.113 -0.642,-1.831 1.454,-4.969Z" style="fill:#8c4f4e;"/><path d="M789.388,1652.919l-2.5,2.444c-0.01,-1.18 -2.285,-1.554 -2.294,-2.733c-0.025,-3.066 1.554,0.094 4.795,0.289Z" style="fill:#eba3ae;"/><path d="M1139.974,263.188c0.826,0.433 7.145,0.51 1.063,3.448l-1.063,-3.448Z" style="fill:#935649;"/><path d="M1428.264,1747.872c4.61,0.451 4.903,0.099 4.961,0.486c0.167,1.113 -2.134,1.658 -1.967,2.771l-2.994,-3.257Z" style="fill:#7e4f48;"/><path d="M1329.446,860.679c0.103,-1.245 -0.097,-1.024 0.167,-2.028c0.068,-0.257 4.527,-10.104 3.391,0.023c-0.149,1.332 -3.409,0.672 -3.558,2.005Z" style="fill:#f7c2d0;"/><path d="M1012.892,1468.884c0.85,0.453 2.027,-0.827 2.876,-0.374c0.741,0.395 0.752,4.25 -2.538,2.496c-0.642,-0.342 0.304,-1.779 -0.338,-2.122Z" style="fill:#8e5651;"/><path d="M867.486,1255.947l3.028,2.336l-0.083,2.968l-1.94,-0.632l0.032,-2.336l-1.038,-2.336Z" style="fill:#975745;"/><path d="M556.153,225.8c0.053,-1.532 0.106,-3.064 0.158,-4.597l1.764,1.016l0.53,1.32l-2.453,2.261Z" style="fill:#7e3930;"/><path d="M702.868,323.252c-3.045,2.431 -2.808,2.426 -6.328,3.585c2.109,-1.195 4.219,-2.39 6.328,-3.585Z" style="fill:#905c4b;"/><path d="M1068.37,292.062c4.445,-0.967 4.716,-1.418 4.781,-1.04c0.202,1.183 -0.945,2.664 -2.14,2.924c-1.063,0.231 -1.578,-2.115 -2.641,-1.884Z" style="fill:#945653;"/><path d="M573.385,431.109c-0.369,-1.3 -3.124,-0.864 -3.493,-2.164c-0.06,-0.211 -0.323,-1.137 2.748,-0.46c0.217,0.048 -0,0 0.745,2.625Z" style="fill:#7e3e3d;"/><path d="M1501.928,1384.383c0.719,-0.403 -1.402,-1.937 -0.683,-2.34c0.999,-0.56 3.056,0.736 3.286,0.88c1.968,1.24 -0.693,0.389 -2.603,1.46Z" style="fill:#f4cb84;"/><path d="M1430.765,1700.036c3.04,-0.646 4.585,-3.93 4.216,-0.896c-0.041,0.336 -0.299,0.064 -4.216,0.896Z" style="fill:#f1cc8e;"/><path d="M1275.758,1795.73l2.356,0.028c-1.46,0.923 -2.92,1.847 -4.379,2.77l2.023,-2.798Z" style="fill:#804541;"/><path d="M717.271,1617.386c-0.963,2.173 0.098,4.571 -1.217,2.746c0,0 1.12,-2.527 1.217,-2.746Z" style="fill:#874942;"/><path d="M1068.355,617.377c3.19,0.024 5.998,-2.836 4.415,0.033c-0.168,0.304 -0.315,-0.002 -4.415,-0.033Z" style="fill:#f6cf8b;"/><path d="M1336.406,1111.534c0.456,-0.736 -1.473,-1.648 -1.017,-2.384c1.123,-1.814 2.523,-0.445 2.676,-0.296c0.181,0.177 0,0 -1.659,2.68Z" style="fill:#ebbe7c;"/><path d="M1555.307,1148.717c1.248,-2.121 -0.792,-2.449 0.457,-4.572l1.373,1.462c-0.119,1.191 -1.711,1.919 -1.83,3.11Z" style="fill:#72373a;"/><path d="M1116.386,506.278c-1.93,0.506 -3.859,1.012 -5.789,1.518c3.08,-0.715 2.868,-0.839 5.789,-1.518Z" style="fill:#f7dfa1;"/><path d="M1349.924,1103.061c-0.809,-0.433 -1.776,1.393 -2.585,0.96c-2.379,-1.274 0.034,-2.17 0.205,-2.234c1.609,-0.597 0.921,1.815 2.379,1.274Z" style="fill:#f3ce95;"/><path d="M579.484,388.761c1.674,-1.529 2.993,-3.682 1.935,-1.767c-0.693,1.255 -1.304,0.624 -1.935,1.767Z" style="fill:#763830;"/></g></svg>