<?xml version="1.0" encoding="UTF-8" standalone="no"?><!DOCTYPE svg PUBLIC "-//W3C//DTD SVG 1.1//EN" "http://www.w3.org/Graphics/SVG/1.1/DTD/svg11.dtd"><svg width="100%" height="100%" viewBox="0 0 2048 2048" version="1.1" xmlns="http://www.w3.org/2000/svg" xmlns:xlink="http://www.w3.org/1999/xlink" xml:space="preserve" xmlns:serif="http://www.serif.com/" style="fill-rule:evenodd;clip-rule:evenodd;stroke-linejoin:round;stroke-miterlimit:2;"><g id="Background"><path d="M754.972,1176.9c66.941,-12.479 185.331,-36.775 400.151,3.41c63.834,11.941 76.067,20.991 110.019,32.283c11.995,4.299 11.776,4.285 23.72,8.76c1.733,0.704 8.246,3.351 21.769,8.541c2.691,1.33 2.832,0.967 34.056,15.766c36.352,14.026 78.112,42.714 84.49,47.096c0.595,0.38 5.057,3.223 7.329,4.917c16.228,11.308 36.812,29.242 39.894,31.928c17.194,16.963 17.086,16.77 33.656,34.113c1.114,1.484 0.955,1.536 13.706,18.714c-1.182,0.671 -2.854,-0.097 -4.036,0.574c-0.506,0.287 0.03,14.552 0.077,15.817c0.266,7.079 1.909,6.393 3.587,8.743c-22.985,16.068 -41.941,20.387 -48.53,22.782c-1.917,0.454 -3.834,0.908 -5.751,1.361c-30.572,10.421 -69.742,15.824 -97.933,22.041c-24.112,4.868 -23.796,5.779 -48.032,10.255l-2.225,0.575c-32.136,8.926 -32.467,7.315 -64.122,17.913c-33.864,13.063 -33.887,12.446 -67.103,27.486c-1.674,-12.963 -7.082,-5.842 -7.279,-5.156c-1.209,4.213 2.315,7.498 2.443,7.696c-11.236,4.887 -10.873,5.234 -21.727,10.726c-34.068,18.103 -33.98,17.925 -67.919,36.141c-16.079,8.211 -15.834,8.212 -32.03,15.981c-2.542,-11.916 -7.884,-9.916 -8.509,-6.444c-0.927,5.151 0.757,4.727 4.529,8.511c-11.906,6.401 -11.864,6.119 -24.045,11.923c-46.609,18.76 -46.433,21.686 -86.12,20.986c-30.265,-0.534 -31.094,7.464 -61.962,-3.544c-2.67,-0.952 -2.992,0.224 -33.766,-10.75c-12.054,-4.298 -19.385,-6.912 -144.465,-68.709c1.143,-0.457 0.563,-2.091 4.155,-1.663c15.104,1.798 14.707,-1.562 14.569,-2.74c-0.471,-3.998 -16.903,-3.269 -18.395,-3.203c-3.31,0.147 -3.427,0.978 -3.468,1.271c-0.235,1.665 0.974,3.326 0.739,4.991c-11.922,-5.259 -11.96,-4.883 -23.248,-11.443c5.709,-6.261 5.698,-6.815 5.682,-7.573c-0.003,-0.135 -7.461,-9.067 -20.265,0.831c-20.267,-7.553 -27.348,-10.908 -29.662,-12.005c-6.099,-1.22 -5.991,-1.153 -11.79,-3.264c-29.189,-11.624 -73.267,-24.113 -100.121,-29.749c-8.073,-1.605 -14.867,-3.108 -16.157,-3.394c-55.251,-10.862 -55.171,-10.98 -59.983,-11.862c-5.826,-0.932 -35.407,-5.666 -72.022,-15.906c-4.031,-1.339 -14.422,-4.67 -15.677,-5.072c-12.184,-5.681 -12.206,-5.182 -24.178,-11.596c-11.262,-7.484 -16.604,-10.071 -16.635,-22.004c-0.007,-2.678 0.639,-2.397 11.351,-19.499c18.429,-22.432 38.38,-40.415 41.989,-43.731c29.57,-27.371 57.515,-44.037 62.922,-47.262c28.783,-17.575 60.933,-32.847 66.369,-35.43c9.798,-3.807 33.876,-14.129 64.06,-23.776c12.308,-3.201 23.019,-6.665 28.029,-7.935c14.077,-3.989 13.895,-3.9 28.056,-7.672c4.854,-1.495 4.661,-1.366 13.998,-3.897c18.75,-4.299 52.452,-13.958 107.782,-25.006c4.155,-0.83 3.98,-0.917 8.028,-1.85Z" style="fill:#f8e8ca;"/><path d="M1320.92,1464.575c0.904,0.674 0.948,-1.137 1.944,-0.395c1.748,1.302 0.153,2.461 2.136,3.436c7.158,3.518 12.627,-5.659 23.808,2.946c-151.831,31.645 -191.687,76.038 -301.901,126.273c-44.012,19.748 -44.548,17.93 -69.852,24.446c-8.938,2.302 -2.465,19.681 18.019,16.1c64.578,-11.29 123.583,-64.006 229.738,-108.863c0.382,0.359 4.775,4.483 4.775,4.483c0.755,-0.116 0.664,-1.656 1.413,-1.804c1.89,-0.373 7.389,1.283 13.959,-1.622c1.139,-0.503 1.842,0.723 1.863,-0.533c0.033,-1.877 -1.838,-0.949 -1.805,-2.798c8.526,-1.594 9.329,-3.45 15.785,2.138c-18.607,8.503 -29.739,10.21 -69.916,30.346c-2.683,1.339 -5.366,2.678 -8.049,4.017c-24.613,12.736 -47.556,25.939 -50.292,27.287c-5.226,2.958 -5.06,2.88 -10.162,6.211c-4.804,2.344 -75.862,43.257 -127.541,55.974c-7.009,1.725 -9.802,-0.476 -10.638,6.633c-0.878,7.468 0.242,7.75 -5.258,18.117c-6.179,12.44 -5.71,13.38 0.908,25.555c-1.295,0.13 -1.721,2.349 -3.016,2.479c-0.899,0.091 -1.052,-1.548 -1.84,-1.99c-2.849,-1.597 -3.11,-0.716 -5.734,-2.491c-5.338,-3.61 -8.231,-0.956 -9.218,-0.851l-1.616,-1.7c-3.715,-0.706 -5.495,-0.391 -4.155,3.193c17.338,46.385 18.384,94.735 19.645,123.936c-0.082,1.004 -1.051,12.878 3.085,12.202c7.99,-1.306 13.049,-9.213 13.793,-10.376c1.361,-4.277 5.528,-17.367 -3.484,-56.003c-5.248,-22.502 -13.857,-44.676 -15.329,-48.467c3.263,-5.001 1.87,-5.836 5.312,-9.107c1.922,-1.827 5.407,-5.976 5.858,-6.512c9.774,5.198 20.648,0.796 65.802,-6.199c4.603,-0.713 33.429,-7.232 51.833,-12.552c28.262,-7.609 43.078,-11.038 85.964,-27.684l4.158,-1.633c2.805,2.347 2.68,3.046 6.084,2.185c0.948,-0.24 0.646,2.532 12.115,1.671c2.078,-0.156 1.731,-0.915 3.994,-1.036c0,0 3.994,4.022 4.341,4.372c-31.044,12.405 -30.423,13.915 -72.194,25.944c-18.885,6.826 -18.801,6.561 -38.123,11.933c-34.991,8.516 -72.881,17.129 -106.095,20.115c-7.826,1.158 -10.996,1.736 -7.796,8.917c2.447,5.49 7.674,27.604 8.247,30.028l2.321,9.979c0.971,4.786 15.472,59.68 -9.057,73.625c-1.737,0.987 -2.305,-0.534 -23.105,9.47c-31.792,15.29 -60.444,2.117 -65.182,-0.061c-31.959,-13.575 -42.01,-15.997 -34.117,-73.011c6.219,-49.429 21.58,-57.622 6.682,-58.441c-14.12,-0.776 -13.909,-1.024 -28.053,-3.149c-49.481,-6.504 -49.431,-6.235 -98.139,-17.628c-13.661,-3.168 -54.557,-12.653 -166.001,-56.334c-27.791,-10.893 -28.087,-9.435 -55.918,-20.142c-21.869,-8.413 -21.338,-9.121 -42.404,-19.272c2.299,-4.622 2.134,-4.713 2.483,-4.991c0.598,-0.478 0.829,1.552 9.536,-0.749c0,0 0.685,-5.373 0.745,-5.84c15.662,7.012 29.369,12.987 31.928,14.103c2.523,1.013 5.046,2.027 7.568,3.04c1.919,0.659 16.2,5.568 24.012,8.157c61.479,22.264 61.209,22.742 66.566,24.624c48.289,17.72 47.56,20.569 133.482,43.438c0.806,0.183 15.614,3.991 44.216,8.918c82.383,14.191 84.63,11.967 87.626,6.199c10.248,-19.73 4.834,-22.292 1.585,-27.287c0.987,-2.482 5.823,-14.648 -2.819,-33.273c7.866,1.785 7.215,-1.445 9.768,-9.166c2.18,-6.593 4.517,-2.504 9.891,1.956l-2.598,3.734c-14.302,29.893 13.153,56.201 46.165,37.67c15.898,-8.924 11.889,-50.526 -17.708,-52.765c-1.971,-0.149 -3.959,0.093 -5.93,-0.056c-3.193,-3.086 -2.787,-5.439 -24.145,-6.199c-2.651,-0.094 -3.16,-2.444 -3.171,-2.446c-0.991,-0.195 -1.729,1.134 -2.717,1.345c-1.304,0.278 -2.843,-0.575 -4,0.089c-1.199,0.687 -1.041,2.801 -2.24,3.488c-2.218,-0.502 -4.666,1.301 -56.01,-18.143l-5.373,-1.575c-90.45,-35.531 -97.054,-55.199 -222.157,-101.658c0.408,-0.331 2.056,-3.824 5.971,-2.926c4.048,0.928 2.781,-1.324 3.4,-2.62c0.511,-1.07 2.059,-1.39 2.57,-2.461c5.799,2.11 5.691,2.044 11.79,3.264c2.313,1.096 9.394,4.452 29.662,12.005c7.39,3.27 7.126,3.419 14.583,6.741c11.288,6.56 11.326,6.183 23.248,11.443l2.401,1.344c125.08,61.797 132.41,64.411 144.465,68.709c30.774,10.974 31.096,9.798 33.766,10.75c30.868,11.008 31.697,3.01 61.962,3.544c39.687,0.7 39.511,-2.227 86.12,-20.986c12.181,-5.804 12.139,-5.522 24.045,-11.923l3.98,-2.067c16.197,-7.769 15.952,-7.77 32.03,-15.981c33.938,-18.216 33.851,-18.038 67.919,-36.141c10.855,-5.492 10.492,-5.84 21.727,-10.726c1.612,-0.847 3.224,-1.693 4.836,-2.54c33.216,-15.041 33.239,-14.423 67.103,-27.486c31.654,-10.598 31.986,-8.986 64.122,-17.913Z" style="fill:#714533;"/><path d="M411.159,1484.253c9.674,1.838 9.571,2.191 63.991,11.958c-0.636,0.399 0.47,2.746 -8.149,2.989c-10.39,0.293 -2.487,4.967 -1.914,5.011c2.069,0.159 2.059,-0.366 25.928,0.839c6.695,0.338 6.835,0.229 11.953,-3.923l1.896,0.395c25.255,6.16 25.109,6.012 50.299,12.81c103.109,28.741 155.945,65.816 225.476,99.398c4.872,2.419 31.339,15.561 62.57,26.594c20.924,7.025 20.634,7.284 41.904,12.355c11.53,2.749 4.003,9.204 13.151,24.864c3.249,4.995 8.663,7.557 -1.585,27.287c-2.996,5.768 -5.242,7.991 -87.626,-6.199c-28.602,-4.927 -43.41,-8.735 -44.216,-8.918c-85.922,-22.869 -85.193,-25.719 -133.482,-43.438c-5.357,-1.882 -5.087,-2.36 -66.566,-24.624c-7.812,-2.588 -22.093,-7.497 -24.012,-8.157c-2.523,-1.013 -5.046,-2.027 -7.568,-3.04c-2.56,-1.116 -16.266,-7.091 -31.928,-14.103l-4.004,-2.07c-1.267,-0.751 -2.534,-1.502 -3.8,-2.253c2.155,-1.328 1.224,-2.091 3.523,-3.507c0.136,-0.084 0.434,-0.267 2,0.105c6.859,1.629 6.774,0.722 13.368,-1.364c3.212,3.138 3.899,3.069 3.271,4.147c-1.463,2.511 5.494,6.434 5.573,-2.424c0.04,-4.49 0.496,-5.727 -3.952,-6.393c-8.623,-1.292 -7.272,-22.778 -17.387,-12.816c-9.295,9.154 -5.725,-14.542 -8.839,-16.138c-2.789,-1.43 -3.954,0.376 -7.895,0.053c-3.293,-0.269 -2.886,1.202 -6.166,1.28c-0.485,0.012 -1.192,-0.186 -1.438,0.233c-1.118,1.91 0.067,2.658 -2.929,4.608c-0.039,0.025 -2.214,-0.489 -5.178,1.898c-2.253,1.815 -2.095,1.76 -4.599,3.09c-0.341,-5.327 -1.494,-4.85 -5.867,-7.736c-6.637,-4.381 -10.528,-1.123 -11.962,-1.427c-0.785,-0.167 -1.218,-1.162 -2,-1.342c-0,0 -3.741,2.582 -4.067,2.806c-10.689,-7.284 -10.171,-7.61 -29.965,-24.075c-2.428,-2.331 -4.855,-4.662 -7.283,-6.994c-6.514,-6.43 -6.483,-6.187 -12.832,-12.887l-1.108,-1.062c-6.811,-7.201 -6.828,-6.982 -14.099,-13.831l-4.634,-5.265c0.184,-0.436 -1.1,-0.65 -0.916,-1.086c2.154,-5.101 3.569,-3.74 9.005,-2.632c29.781,-0.794 30.209,-0.071 31.898,-1.991c0.818,-0.93 1.341,-2.095 2.159,-3.026Z" style="fill:#dab79c;"/><path d="M1361.152,1499.676c6.472,7.843 8.191,4.639 23.915,4.671c35.148,0.071 36.344,-2.692 39.797,0.416c3.974,3.576 4.012,-0.465 4.805,-0.725c9.023,-2.962 -2.607,11.537 4.771,15.394c2.915,1.524 2.618,1.892 2.823,5.178c-6.182,11.796 -14.414,14.294 -16.087,14.802c-4.492,1.363 1.452,7.345 2.221,8.223c-11.075,9.114 -10.755,9.243 -22.678,17.035c-27.651,20.599 -31.409,21.564 -53.989,33.881c-25.233,10.858 -24.8,11.42 -49.685,20.556c-6.537,-5.922 -7.44,-4.123 -16.253,-3.054c-3.138,0.381 -2.931,2.913 -5.792,1.21c-0.953,-0.567 -1.255,-1.921 -2.208,-2.488c6.48,-6.401 12.828,-9.789 11.873,-13.646c-2.284,-9.223 -25.015,15.474 -26.495,16.896c-11.064,10.631 -15.282,6.9 -21.225,20.664c-7.83,0.583 -8.426,3.684 -46.029,20.077l-4.158,1.633c-42.887,16.646 -57.703,20.074 -85.964,27.684c-18.404,5.32 -47.23,11.839 -51.833,12.552c-45.154,6.995 -56.028,11.397 -65.802,6.199c-1.101,-1.438 -2.201,-2.876 -3.302,-4.313c-6.618,-12.175 -7.087,-13.115 -0.908,-25.555c5.499,-10.367 4.38,-10.65 5.258,-18.117c0.836,-7.109 3.629,-4.908 10.638,-6.633c51.679,-12.718 122.737,-53.631 127.541,-55.974c5.091,2.539 4.926,3.34 10.53,2.437c0.684,-0.11 2.553,-0.412 -0.368,-8.648c2.736,-1.348 25.679,-14.551 50.292,-27.287c1.524,2.107 1.504,1.973 2.95,4.078c1.421,2.069 19.233,-1.036 11.701,-4.582c-0.763,-0.359 -1.851,0.091 -2.488,-0.462c-1.116,-0.968 -1.18,-2.868 -2.366,-3.748c-0.504,-0.374 -1.244,1.071 -1.747,0.697c40.177,-20.136 51.309,-21.842 69.916,-30.346c25.086,-8.653 24.931,-8.517 50.385,-16.398c23.735,-6.354 47.953,-11.813 49.964,-12.307Z" style="fill:#dbb69b;"/><path d="M1485.142,1327.449c4.375,0.189 4.393,-0.349 8.223,1.551c1.411,-0.867 2.823,-1.735 4.234,-2.602c28.294,27.765 26.258,29.412 44.21,51.759c7.617,9.482 14.706,-4.362 37.884,14.025c30.709,24.361 19.268,33.449 15.893,58.865c-0.738,5.56 5.466,10.57 8.843,16.324c8.259,14.069 17.56,36.256 18.914,39.486c11.771,29.609 12.077,50.293 12.654,60.07c1.278,21.657 -4.641,27.802 -10.374,34.631c-1.053,-0.453 -1.572,-1.769 -2.625,-2.222c-0.005,-0.002 -5.271,0.837 -5.73,0.91c-2.052,1.423 -0.993,2.303 -3.005,3.699c-0.101,0.07 0.062,-0.342 -1.389,-0.65c-2.277,-0.484 -2.011,0.209 -3.859,1.732c-8.048,6.63 -5.374,9.315 -5.672,10.533c-5.464,2.382 -35.194,15.345 -74.416,3.633c-23.235,-6.938 -18.767,-49.779 -18.776,-52.205c0.429,-33.829 2.713,-60.569 22.228,-96.421c6.12,-20.381 -15.588,7.872 -16.506,9.067c-29.884,38.895 -47.529,52.844 -77.752,78.378c-0.875,-0.794 -10.85,-9.841 -13.898,-5.009c-0.483,0.766 6.677,5.94 9.195,8.579c-9.878,8.299 -9.569,8.498 -19.842,16.28c-1.74,-3.685 -0.717,-4.772 -4.695,-5.99c-3.572,-1.094 -3.364,-2.151 -4.012,-2.806c-1.384,-1.464 -2.768,-2.928 -4.152,-4.392c11.922,-7.793 11.603,-7.921 22.678,-17.035c1.22,-0.869 4.922,-3.506 14.775,-11.511c19.268,-15.287 43.655,-40.983 47.239,-44.759c17.647,-20.29 27.809,-27.073 17.504,-24.934c-14.55,7.053 -14.756,6.12 -64.144,18.004c-38.217,10.325 -38.732,7.241 -77.618,15.241c-2.012,0.493 -26.229,5.952 -49.964,12.307c-25.454,7.881 -25.299,7.745 -50.385,16.398c-6.456,-5.588 -7.259,-3.732 -15.785,-2.138c-0.032,1.85 1.838,0.921 1.805,2.798c-0.022,1.256 -0.725,0.03 -1.863,0.533c-6.571,2.905 -12.069,1.249 -13.959,1.622c-0.75,0.148 -0.658,1.688 -1.413,1.804c0,0 -4.393,-4.125 -4.775,-4.483c31.813,-13.222 31.469,-14.108 87.993,-30.413c106.233,-27.298 178.352,-29.251 219.668,-59.8c17.447,-12.9 12.995,-32.562 5.028,-26.566c-22.037,16.584 -22.961,14.913 -48.019,26.116c-3.832,-2.584 -3.808,-2.279 -8.481,-2.854c-5.097,-0.627 -5.906,-4.48 -6.139,-4.657c6.588,-2.396 25.545,-6.715 48.53,-22.782c6.852,-5.862 7.673,-9.025 4.413,-18.921c-1.347,-2.071 -2.694,-4.142 -4.041,-6.213c-12.75,-17.179 -12.591,-17.23 -13.706,-18.714c-16.57,-17.343 -16.462,-17.15 -33.656,-34.113c4.156,-2.971 4.066,-3.359 4.477,-3.2c0.604,0.233 0.697,4.457 4.265,1.05Z" style="fill:#6f4435;"/><path d="M979.967,378.239c8.786,11.324 11.341,-27.14 51.021,-29.486c42.97,-2.541 68.963,64.293 -36.31,153.857c-11.082,9.428 -13.697,4.866 -38.911,-16.485c-46.141,-39.071 -54.269,-68.019 -56.302,-75.258c-5.148,-18.335 -4.571,-47.465 21.317,-56.415c34.838,-12.044 52.973,15.93 59.185,23.788Z" style="fill:#aa7473;"/><path d="M754.972,1176.9c-4.048,0.933 -3.873,1.02 -8.028,1.85c-55.33,11.048 -89.032,20.707 -107.782,25.006c-0.319,-0.403 -3.988,-5.041 -3.988,-5.041c-0.804,-0.232 -7.092,-2.047 -10.174,-2.402c-4.686,-0.539 -10.243,5.032 -5.943,6.602c3.79,1.384 3.288,1.856 6.107,4.737c-14.161,3.772 -13.978,3.683 -28.056,7.672c-5.01,1.27 -15.721,4.735 -28.029,7.935c-0.503,-0.388 -1.324,0.927 -1.827,0.54c-1.57,-1.211 -0.393,-2.542 -4.252,-4.041c-4.863,-1.889 -5.458,-3.314 -9.285,0.208c-5.372,4.946 -5.328,-0.207 -10.768,-5.103c11.078,-4.07 47.501,-17.453 142.135,-39.504c232.801,-56.687 363.785,-27.27 465.955,-12.658c69.397,9.924 169.73,54.198 183.898,60.45c-0.94,0.745 -10.815,8.57 -13.993,5.384c-0.977,-0.98 -0.917,-2.76 -1.975,-3.652c-1.417,-1.194 -7.757,4.489 -8.336,5.008c-13.523,-5.189 -20.036,-7.836 -21.769,-8.541c-11.944,-4.474 -11.725,-4.461 -23.72,-8.76c-33.953,-11.292 -46.185,-20.342 -110.019,-32.283c-214.82,-40.185 -333.21,-15.889 -400.151,-3.41Z" style="fill:#8a604e;"/><path d="M1054.444,402.854c-6.872,22.342 -17.126,40.214 -49.633,73.973c-17.177,17.839 -19.71,16.604 -21.631,15.668c-3.972,-1.935 -60.096,-48.343 -70.567,-81.387c-15.302,-48.289 32.278,-66.443 62.598,-20.257c4.635,7.06 3.461,8.948 7.836,8.935c6.764,-0.019 26.231,-49.32 58.158,-37.398c18.294,6.831 13.745,37.097 13.239,40.465Z" style="fill:#f3a2aa;"/><path d="M612.269,1555.988c34.975,13.481 35.847,11.34 68.326,29.931c79.679,45.607 77.939,48.387 84.87,52.335c0.156,0.089 43.674,23.273 1.433,15.566c-40.141,-7.323 -83.905,-8.366 -120.369,-32.014c-40.896,-26.522 -45.504,-28.456 -49.803,-30.259c-14.904,-6.254 -15.308,-4.413 -27.725,-2.531c-35.243,5.342 -48.728,-14.721 -82.376,-47.543c-6.105,-5.955 -13.209,-9.673 -7.774,-14.725c6.816,-6.336 84.937,14.147 92.177,16.046c9.916,2.6 9.923,1.876 19.675,4.915c11.094,3.458 10.49,4.623 21.565,8.279Z" style="fill:#e7cea4;"/><path d="M294.91,1382.151c0.066,1.101 1.615,1.748 1.681,2.849c0.048,0.811 -1.243,1.202 -1.392,2c-0.126,0.678 0.779,1.285 0.652,1.963c4.881,0.016 4.748,0.107 5.161,0.093c0.273,0.615 -1.153,5.033 3.956,3.841c9.025,-2.105 19.479,1.321 10.643,10.464c-1.768,1.829 -1.086,3.364 -0.963,3.639c1.167,2.623 1.903,1.779 1.904,2c0.001,1.821 -1.902,0.737 -1.901,2.55c-0.279,-0.144 -5.731,-4.873 -7.699,1.435c-10.36,33.199 87.832,54.508 87.95,54.538c69.953,15.413 70.559,11.863 140.27,28.532c-2.025,1.021 -1.458,2.234 -4.172,2.104c-1.763,-0.084 -17.504,-0.836 -22,1.65c-1.348,0.745 -0.694,1.373 -2.241,2.014c-1.053,0.436 -0.913,-0.708 -1.896,-0.301l-1.896,-0.395c-14.072,-1.955 -13.872,-2.245 -27.817,-4.916c-54.42,-9.767 -54.316,-10.12 -63.991,-11.958c-26.792,-5.562 -41.229,-9.162 -60.172,-17.197c-13.718,-6.081 -0.425,6.221 8.281,15.737c-5.888,2.916 -6.079,3.401 -6.463,9.968c-0.144,2.457 0.72,2.07 0.641,2.239c-0.832,1.789 -1.973,0.623 -2.804,2.41c-11.378,-12.003 -32.999,-40.509 -29.342,-24.482c0.788,3.452 3.027,2.573 14.369,41.868c-0.811,0.908 -1.858,1.585 -2.669,2.494c-1.869,2.094 2.875,55.146 1.319,57.479c-0.94,1.41 -2.838,2.225 -3.319,3.85c-0.1,0.338 1.292,0.193 0.487,4.381c-0.075,0.392 -0.036,0.367 -0.487,4.96c-1.368,-0.323 -2.736,-0.646 -4.104,-0.969c-0.03,-5.995 -0.061,-11.991 -0.091,-17.986c-1.752,-34.613 -5.035,-47.062 -7.212,-56.228c-6.517,-19.171 -10.376,-36.307 -22.471,-38.363c-21.546,-3.663 -31.944,-19.386 -34.215,2.312c-2.178,0.766 -6.23,2.191 -15.092,24.593c-21.922,55.414 -14.329,78.827 -12.2,85.391c-0.761,1.128 -2.618,1.162 -3.379,2.29c-2.568,3.806 0.706,5.804 0.694,5.996c-0.027,0.447 -6.34,4.455 2.078,5.863c2.101,0.352 5.753,-2.828 5.992,-2.689c1.344,0.785 1.428,2.972 2.772,3.757c-0.553,0.515 -0.215,0.638 -5.132,7.927c-8.662,-5.394 -32.119,-11.571 -18.75,-74.682c3.864,-18.243 10.576,-31.007 17.733,-49.957c3.364,-8.907 19.831,-28.35 18.498,-34.009c-0.017,-0.074 -18.528,-40.536 22.712,-64.484c7.37,-4.28 7.52,-3.492 16.077,-4.571Z" style="fill:#714535;"/><path d="M496.836,429.895c4.784,1.576 15.052,3.148 24.853,12.237c6.761,6.27 1.442,-6.349 16.151,-26.452c18.043,-24.66 71.166,-10.167 48.202,69.037c-1.248,4.305 -19.102,52.969 -27.09,53.944c-20.287,2.474 -120.293,-47.944 -95.287,-95.272c1.337,-2.531 5.677,-7.28 9.819,-9.532c11.307,-6.146 22.545,-3.97 23.352,-3.963Z" style="fill:#a67773;"/><path d="M1489.481,1437.854c25.058,-11.203 25.983,-9.533 48.019,-26.116c7.967,-5.996 12.419,13.667 -5.028,26.566c-41.316,30.548 -113.435,32.501 -219.668,59.8c-56.524,16.305 -56.18,17.191 -87.993,30.413c-106.155,44.857 -165.159,97.573 -229.738,108.863c-20.485,3.581 -26.957,-13.798 -18.019,-16.1c25.304,-6.516 25.84,-4.699 69.852,-24.446c110.215,-50.235 150.07,-94.628 301.901,-126.273c48.796,-10.961 49.252,-8.129 80.008,-16.126c54.502,-14.171 55.98,-14.749 60.665,-16.581Z" style="fill:#dfb380;"/><path d="M1583.101,697.697c41.29,-1.743 29.971,42.634 42.402,34.227c3.43,-2.32 36.156,-24.451 51.75,-1.119c31.763,47.525 -77.13,98.14 -88.153,95.794c-10.549,-2.246 -61.138,-116.41 -5.999,-128.901Z" style="fill:#a57572;"/><path d="M1412.818,516.694c24.841,-15.9 26.022,-32.361 33.868,-69.762c3.873,-18.462 11.801,-9.19 12.567,-6.023c4.625,19.103 4.066,19.064 8.877,38.293c13.427,53.67 67.819,42.29 71.457,53.578c2.849,8.839 -3.703,6.138 -36.79,17.67c-41.288,14.39 -34.77,71.5 -43.863,80.482c-12.549,12.396 -12.488,-22.243 -24.328,-51.776c-14.748,-36.789 -59.522,-33.561 -65.658,-40.11c-9.983,-10.655 19.465,-10.733 43.87,-22.352Z" style="fill:#be9e77;"/><path d="M1195.357,502.337c0.4,0.273 5.005,3.415 5.005,3.415c13.893,10.997 7.458,29.18 21.032,19.84c35.718,-24.577 91.435,24.983 8.12,76.172c-37.635,23.123 -49.006,27.188 -55.967,12.991c-46.848,-95.541 -5.266,-126.497 21.81,-112.418Z" style="fill:#ac8360;"/><path d="M267.22,1044.439c-9.065,-3.958 -8.899,-3.84 -17.891,-8.07c-60.855,-28.625 -53.291,-77.163 -22.377,-79.879c19.184,-1.685 28.073,7.901 29.874,8.866c8.183,4.386 1.403,-26.913 30.02,-35.012c37.332,-10.566 45.108,57.97 16.361,120.788c-2.737,5.981 -29.576,-4.631 -35.988,-6.694Z" style="fill:#a57572;"/><path d="M394.901,1467.523c0.992,-0.647 0.941,1.026 1.949,0.368c0.403,-0.263 0.057,-0.587 4.149,-4.346c2.927,-2.689 16.617,-2.256 18.073,-2.21c0.578,0.018 6.594,0.209 7.061,1.55c0.217,0.624 -1.054,1.15 -0.864,1.783c1.016,3.397 15.457,1.559 25.202,7.062c4.843,2.735 4.255,-0.732 6.241,-2.326c8.328,2.575 19.02,1.08 26.743,4.931c1.135,0.566 1.329,-1.328 15.621,2.722c1.297,0.367 2.717,-5.956 4.106,-6.843c0.552,-0.353 1.382,0.704 1.934,0.351c42.733,9.078 59.88,13.243 110.103,29.982c125.103,46.458 131.707,66.127 222.157,101.658c-0.648,2.115 -2.282,0.684 -2.929,2.796c-0.058,0.189 1.455,-0.843 1.46,2c0.001,0.824 -1.318,1.187 -1.454,2c-0.53,3.184 1.449,1.887 6.805,2.985c2.802,-1.795 3.729,-1.74 2.727,-4.985c-0.527,-1.709 -0.573,-1.491 -1.238,-3.221c51.344,19.444 53.792,17.64 56.01,18.143c6.012,2.255 4.825,4.91 -2.637,14.244c-7.744,9.686 -58.145,-9.518 -86.93,-23.589c-108.729,-49.971 -136.03,-81.48 -274.021,-116.521c-69.712,-16.669 -70.318,-13.119 -140.27,-28.532Z" style="fill:#e2b988;"/><path d="M373.81,738.604c8.825,25.147 -0.904,62.789 61.032,73.364c1.22,0.208 26.329,6.705 -1.762,15.368c-25.488,7.86 -44.786,8.596 -56.234,61.628c-0.786,3.64 -0.63,22.271 -11.634,17.446c-12.459,-5.463 4.372,-57.051 -48.641,-76.502c-3.59,-1.317 -32.362,-3.125 -23.091,-12.407c2.441,-2.444 41.783,-7.749 52.568,-27.019c22.323,-39.886 11.232,-57.188 22.998,-56.19c2.947,0.25 2.267,1.18 4.764,4.312Z" style="fill:#bd9f7a;"/><path d="M1584.699,1465.506c2.362,2.577 2.355,2.338 4.458,5.364c-12.133,9.454 -8.788,12.378 -2.367,26.258c-12.201,7.001 0.354,10.921 6.231,73.87c1.547,16.569 -1.877,30.462 -2.511,33.035c-5.447,2.58 -5.402,2.095 -11.406,3.711c-11.987,1.191 -11.835,1.215 -24.035,0.665c-14.693,-1.171 -34.169,4.108 -28.597,-57.447c2.551,-28.183 8.162,-43.495 13.165,-59.737c0.892,-2.156 1.783,-4.311 2.675,-6.467c7.876,-17.874 18.787,-7.197 28.09,-12.628c4.774,-2.787 6.039,-6.924 14.297,-6.624Z" style="fill:#d5a56e;"/><path d="M564.835,417.844c34.901,13.72 -3.726,107.556 -11.829,106.901c-24.476,-1.978 -102.944,-52.528 -75.225,-78.92c16.882,-16.074 50.584,19.286 55.153,15.098c5.195,-4.763 2.524,-44.043 31.901,-43.078Z" style="fill:#f5c3c0;"/><path d="M818.129,540.947c-1.882,17.172 -12.942,68.201 -29.199,64.304c-39.588,-9.49 -90.453,-53.58 -59.561,-77.76c17.185,-13.452 36.309,9.185 39.899,1.655c2.561,-5.372 8.178,-25.256 29.652,-23.533c7.375,0.591 14.51,12.412 15.365,13.828c3.955,6.552 3.858,19.759 3.845,21.507Z" style="fill:#b9936c;"/><path d="M1635.033,929.757c8.86,2.496 3.71,16.991 18.293,45.082c8.07,15.545 42.175,20.219 44.796,22.953c7.542,7.868 -17.841,13.464 -23.093,15.292c-34.571,12.033 -26.668,47.53 -36.003,57.94c-9.589,10.693 -9.675,-13.531 -24.739,-43.665c-7.915,-15.833 -34.96,-16.344 -40.917,-20.895c-11.255,-8.599 18.183,-14.764 19.691,-15.306c41.608,-14.935 24.816,-54.718 41.971,-61.401Z" style="fill:#bc8f8f;"/><path d="M1666.704,737.234c19.637,42.258 -72.658,77.026 -75.43,75.126c-4.282,-2.935 -40.467,-94.928 -6.182,-102.872c20.873,-4.837 25.709,41.08 29.72,42.092c7.901,1.992 30.434,-30.573 51.893,-14.345Z" style="fill:#f7a8a8;"/><path d="M785.177,371.543c-27.699,11.117 -27.424,18.976 -35.858,53.585c-0.386,1.585 -8.817,11.372 -12.663,-4.037c-10.794,-43.251 -15.874,-44.283 -47.735,-51.729c-1.144,-0.267 -21.695,-8.766 4.137,-14.092c54.571,-11.25 34.862,-70.828 51.603,-61.561c10.233,5.665 -0.918,52.204 52.265,61.726c1.018,0.182 13.963,2.5 9.243,9.041c-1.037,1.437 -1.284,1.78 -20.992,7.068Z" style="fill:#bf9f7a;"/><path d="M1173.476,513.957c38.188,-12.7 23.482,47.478 40.876,32.14c37.928,-33.444 53.366,-4.67 40.014,16.332c-16.386,25.775 -65.208,49.414 -69.061,46.126c-0.901,-0.768 -12.208,-23.309 -16.736,-41.416c-9.099,-36.385 -2.807,-45.513 4.908,-53.182Z" style="fill:#e0b87c;"/><path d="M245.499,1020.26c-3.207,-2.268 -32.728,-23.147 -29.304,-39.405c5.478,-26.007 40.495,-2.655 43.383,-0.729c13.883,9.258 12.223,-1.906 12.775,-9.164c1.223,-16.078 8.5,-27.521 18.592,-28.47c32.713,-3.076 10.197,89.247 3.445,95.838c-5.155,5.032 -45.204,-16.123 -48.892,-18.07Z" style="fill:#ee95a1;"/><path d="M1607.127,1317.037c-0.455,1.078 -6.954,16.489 -13.492,5.64c-5.492,-9.112 0.433,-42.926 -34.506,-52.337c-5.473,-1.474 -22.41,-3.985 -16.133,-11.343c4.955,-5.807 38.04,0.242 48.068,-41.98c2.992,-12.599 2.609,-12.646 2.933,-13.721c1.248,-4.152 8.889,-13.351 12.283,3.834c6.932,35.094 10.775,41.95 44.732,47.818c9.063,1.566 7.121,10.927 -0.021,11.996c-21.513,3.219 -35.889,8.313 -43.863,50.093Z" style="fill:#bca17a;"/><path d="M287.859,602.566c-0.861,1.209 -5.885,2.039 1.277,14.394c1.608,2.774 7.32,6.172 7.864,5.901c1.303,-0.65 1.891,-2.331 3.194,-2.981c14.966,12.26 29.901,10.489 32.662,13.285c7.632,7.729 -8.504,12.083 -9.722,12.411c-47.946,12.935 -30.952,38.867 -42.289,53.302c-8.869,11.292 -15.188,-19.672 -16.447,-23.662c-12.687,-40.214 -48.296,-22.639 -45.285,-38.19c0.801,-4.136 2.471,-2.621 15.775,-6.445c34.224,-9.838 30.32,-36.176 35.899,-51.679c7.432,-20.654 16.228,20.946 17.071,23.663Z" style="fill:#b78d90;"/><path d="M958.945,1761.004c3.506,20.305 3.691,22.082 3.893,24.018c6.412,61.528 -2.842,61.952 -7.839,61.97c-33.588,0.12 -33.687,-1.064 -40.354,-5.69c-6.997,-14.716 5.826,-101.322 6.996,-106.082c1.16,-4.72 7.257,6.791 25.182,12.403c9.575,2.998 10.492,3.382 12.122,13.381Z" style="fill:#e8c48e;"/><path d="M422.724,1029.485c-7.141,-4.988 -6.933,-4.987 -13.506,-10.709c-19.054,-16.589 -15.073,-38.401 -4.324,-43.968c11.785,-6.104 25.437,1.991 26.099,2.22c5.599,1.939 4.328,-1.607 8.247,-7.879c17.395,-27.841 56.86,-5.678 25.058,65.551c-7.119,15.944 -16.47,9.085 -41.575,-5.215Z" style="fill:#c5a279;"/><path d="M1542.23,1172.979c-0.607,5.259 -2.654,30.529 -55.387,45.447c-5.284,1.495 -14.323,7.375 -22.359,-27.316c-5.985,-25.838 -0.267,-57.874 22.483,-55.776c17.484,1.613 14.354,25.444 21.738,22.82c6.263,-2.226 31.075,-13.329 33.525,14.825Z" style="fill:#b88476;"/><path d="M1454.327,463.419c2.327,18.49 0.385,18.832 5.339,29.271c15.849,33.395 40.915,37.227 49.867,39.578c0.161,1.157 1.679,1.057 0.437,3.147c-0.691,1.162 -2.646,1.761 -2.909,1.841c-37.972,11.621 -40.856,28.282 -51.656,64.111c-1.07,-0.534 -2.139,-1.069 -3.209,-1.603c-6.1,-38.788 -24.39,-49.022 -39.682,-59.834c-11.577,-5.667 -12.582,-2.308 -13.314,-3.121c-3.949,-4.387 5.133,-3.552 12.202,-7.033c55.246,-27.2 31.629,-68.806 41.858,-67.268c0.462,0.07 0.604,0.842 1.066,0.912Z" style="fill:#f6d497;"/><path d="M332.812,1143.715c-1.094,-0.443 -17.009,-8.771 6.044,-13.46c37.156,-7.558 27.293,-46.922 38.3,-50.45c14.974,-4.8 -3.249,39.31 39.939,48.849c6.739,1.489 22.22,9.063 1.718,15.748c-38.602,12.586 -26.331,35.147 -36.648,47.864c-10.42,12.844 -15.38,-22.747 -20.143,-30.682c-9.28,-15.463 -27.576,-17.428 -29.209,-17.869Z" style="fill:#bd9688;"/><path d="M262.907,1476.726c2.271,-21.697 12.669,-5.974 34.215,-2.312c12.094,2.056 15.954,19.192 22.471,38.363c-2.662,3.389 -5.045,4.359 -5.037,6.132c0.047,9.475 4.692,18.768 4.005,42.12c-0.08,2.723 1.769,1.544 3.209,3.97c1.44,2.426 1.813,1.95 5.035,4.006c0.03,5.995 0.061,11.991 0.091,17.986c-2.506,15.443 -2.625,18.139 -17.969,20.511c-1.378,-16.36 5.043,-34.524 -1.877,-70.511c-3.985,-20.722 -5.841,-40.772 -11.599,-33.581c-1.87,2.336 6.469,88.878 1.41,104.76c-10.012,0.738 -10.03,2.493 -23.82,-0.438c5.313,-8.57 7.262,-12.172 9.924,-36.736c2.762,-25.493 2.799,-36.779 2.81,-39.986c0.096,-29.546 7.57,-32.587 -1.089,-37.429c-7.523,-4.207 -7.63,-3.964 -12.753,-10.859c-3.813,-4.077 -3.946,-3.69 -9.024,-5.996Z" style="fill:#d2a16e;"/><path d="M535.172,1496.055c137.991,35.041 165.292,66.55 274.021,116.521c-3.891,3.959 -3.718,4.323 -4.193,4.266c-2.16,-0.257 -1.708,-1.267 -4,-1.531c-1.443,-0.166 -5.533,-0.831 -6.013,-0.909c-5.247,-0.853 -4.15,-2.56 -6.013,-3.767c-0.557,-0.361 -1.328,0.113 -1.974,0.266c-0.685,0.162 -1.298,0.624 -2,0.677c-2.623,0.195 -2.104,1.038 -4.362,2.152c-69.532,-33.582 -122.368,-70.657 -225.476,-99.398c-25.19,-6.798 -25.045,-6.649 -50.299,-12.81c0.983,-0.407 0.843,0.737 1.896,0.301c1.548,-0.641 0.894,-1.268 2.241,-2.014c4.496,-2.486 20.237,-1.734 22,-1.65c2.713,0.13 2.147,-1.083 4.172,-2.104Z" style="fill:#754532;"/><path d="M484.816,1238.533c4.846,8.163 11.589,1.561 20.203,8.503c-5.437,2.583 -37.587,17.855 -66.369,35.43c-5.407,3.225 -33.351,19.891 -62.922,47.262c-3.609,3.316 -23.559,21.299 -41.989,43.731c-0.327,0.017 -1.933,-1.597 -4.739,0.247c-2.236,1.469 -2.058,1.697 -2.285,1.727c-3.188,0.428 -3.024,-2.306 -5.224,-4.974c-0,-0 -3.05,-3.916 -3.315,-4.256c14.321,-17.631 14.411,-17.328 30.006,-34.011c9.9,-9.628 46.883,-51.887 136.634,-93.66Z" style="fill:#764c3e;"/><path d="M1354.705,388.323c-32.989,18.173 -14.025,44.686 -29.631,42.353c-10.181,-1.522 1.026,-30.538 -29.986,-41.924c-13.4,-4.92 -16.624,-2.348 -17.384,-9.721c-1.462,-14.175 28.811,6.374 41.418,-42.001c5.132,-19.691 12.064,-7.245 12.335,-6.176c7.154,28.276 7.587,31.381 37.218,41.083c11.141,3.648 4.007,9.967 0.414,11.259c-1.149,0.413 -1.065,0.38 -14.383,5.126Z" style="fill:#c08f93;"/><path d="M573.197,609.054c3.564,-12.304 3.179,-12.344 4.342,-13.528c5.584,-5.688 10.931,16.366 11.351,17.519c11.24,30.848 34.701,23.944 36.446,31.869c1.387,6.298 -16.631,12.047 -18.084,12.674c-14.439,6.229 -14.741,17.107 -19.578,31.631c-8.33,25.016 -15.82,-12.458 -21.452,-21.742c-8.565,-14.118 -43.362,-21.255 -27.286,-26.611c27.408,-9.131 27.196,-13.133 34.261,-31.811Z" style="fill:#bb9787;"/><path d="M791.539,591.477c-14.101,8.238 -76.56,-38.951 -55.883,-55.715c7.093,-5.75 29.543,9.072 31.778,10.548c7.738,5.109 8.569,-0.044 8.889,-9.431c0.159,-4.673 19.321,-39.544 28.913,-7.895c4.766,15.724 -6.998,50.78 -13.697,62.492Z" style="fill:#dfb275;"/><path d="M418.964,818.655c-3.842,4.004 -4.031,3.711 -8.024,4.088c-26.916,2.541 -36.602,42.465 -42.393,46.697l-0.42,-1.655c-12.671,-33.478 -22.912,-37.047 -38.837,-45.321c-3.276,-6.275 3.465,-3.458 12.876,-12.31c31.108,-29.258 21.231,-36.102 25.06,-38.899c4.541,-3.316 -0.407,16.348 26.928,36.599c15.201,11.262 15.982,9.602 24.81,10.802Z" style="fill:#e3c38a;"/><path d="M1500.474,909.204c12.8,29.467 33.638,17.435 34.037,27.824c0.367,9.574 -24.071,4.42 -32.767,26.353c-1.634,4.12 -7.02,29.345 -14.449,19.425c-5.156,-6.883 -0.359,-26.351 -20.73,-34.855c-3.869,-1.615 -7.796,-3.086 -11.692,-4.637c-23.804,-9.477 18.272,-11.604 24.596,-28.107c0.65,-1.697 9.161,-39.214 15.923,-24.428c0.636,1.391 -0.606,1.742 5.082,18.425Z" style="fill:#c1a27c;"/><path d="M318.177,1366.203c0.265,0.34 3.315,4.256 3.315,4.256c2.2,2.669 2.035,5.403 5.224,4.974c0.227,-0.03 0.049,-0.258 2.285,-1.727c2.807,-1.844 4.413,-0.23 4.739,-0.247c-10.712,17.102 -11.358,16.82 -11.351,19.499c0.031,11.933 5.373,14.52 16.635,22.004c11.972,6.414 11.995,5.915 24.178,11.596c-0.45,1.177 -2.434,1.266 -2.884,2.443c-0.277,0.724 1.11,1.229 1.186,2c0.065,0.657 -1.042,1.191 -0.808,1.808c1.566,4.132 12.095,1.441 14.304,1.723c2.795,0.357 2.613,-0.33 3.878,-2.903c36.615,10.24 66.196,14.973 72.022,15.906c4.811,0.882 4.732,1 59.983,11.862c1.29,0.285 8.084,1.789 16.157,3.394c-0.538,1.17 0.498,2.694 -0.04,3.865c-0.537,1.168 -7.375,0.623 -8.015,0.572c-1.342,-0.107 -2.664,-0.418 -4.008,-0.5c-6.556,-0.4 -6.383,0.386 -12.215,3.272c-3.974,-0.759 -3.926,-0.694 -49.731,-9.218c-10.288,-1.607 -22.084,-2.854 -38.186,-7.212c-63.735,-17.249 -64.225,-17.219 -100.195,-42.019c-0.001,-1.813 1.902,-0.729 1.901,-2.55c-0,-0.221 -0.737,0.623 -1.904,-2c-0.122,-0.275 -0.805,-1.809 0.963,-3.639c8.836,-9.143 -1.618,-12.57 -10.643,-10.464c-5.109,1.192 -3.683,-3.226 -3.956,-3.841c-0.413,0.014 -0.28,-0.076 -5.161,-0.093c0.126,-0.678 -0.779,-1.285 -0.652,-1.963c0.149,-0.798 1.44,-1.189 1.392,-2c-0.066,-1.101 -1.615,-1.748 -1.681,-2.849c14.666,-2.46 14.005,-4.464 23.266,-15.948Z" style="fill:#714834;"/><path d="M1346.73,1598.551c3.054,2.229 2.741,2.555 6.365,3.821c0.188,-0.338 -1.162,-0.291 -0.975,-0.629c2.04,-3.678 2.784,-2.521 6.88,-2.652c5.181,-0.166 4.487,1.458 10.203,6.261c-1.704,0.909 -1.777,0.674 -21.704,10.581c-8.976,4.297 -8.815,4.314 -18.218,7.959c-29.777,11.586 -29.504,11.866 -59.913,21.915c-25.756,10.667 -26.355,8.84 -51.918,20.151c-0.347,-0.35 -4.341,-4.372 -4.341,-4.372c-2.263,0.121 -1.916,0.88 -3.994,1.036c-11.469,0.861 -11.167,-1.911 -12.115,-1.671c-3.405,0.862 -3.279,0.162 -6.084,-2.185c37.603,-16.393 38.199,-19.494 46.029,-20.077c5.112,1.375 5.172,2.17 9.981,0.049c24.696,-10.89 24.694,-10.483 50.119,-19.631c24.885,-9.136 24.453,-9.697 49.685,-20.556Z" style="fill:#6e4434;"/><path d="M271.931,1482.722c5.123,6.894 5.23,6.652 12.753,10.859c8.66,4.843 1.186,7.883 1.089,37.429c-0.01,3.207 -0.047,14.493 -2.81,39.986c-2.662,24.565 -4.611,28.167 -9.924,36.736c-3.975,-0.989 -7.95,-1.977 -11.925,-2.966c-9.458,-33.946 9.345,-100.52 5.665,-103.541c-1.208,-0.991 -2.777,-1.478 -3.985,-2.47c2.562,-9.049 2.537,-9.146 9.137,-16.034Z" style="fill:#e9c187;"/><path d="M373.647,1498.252c7.271,6.849 7.287,6.63 14.099,13.831l1.108,1.062c6.349,6.701 6.318,6.457 12.832,12.887c2.428,2.331 4.855,4.662 7.283,6.994c19.794,16.465 19.276,16.791 29.965,24.075l6.561,5.068c0.884,0.598 6.082,4.117 11.165,7.298c12.884,8.285 12.593,8.483 25.842,16.317c4.019,2.11 10.107,5.729 10.976,6.245c1.267,0.751 2.534,1.502 3.8,2.253c-1.15,0.782 -1.127,2.715 -2.277,3.497c-0.413,0.281 -0.641,-1.197 -6.192,0.805c-3.056,1.102 -2.712,-1.133 -5.739,-1.15c-7.421,-0.043 -6.553,2.041 -8.202,3.766c-2.068,-1.302 -2.255,-0.894 -26.087,-15.882c-6.475,-5.027 -6.358,-4.911 -13.285,-9.1c-6.144,-4.878 -5.978,-4.753 -12.079,-9.656c-34.659,-26.605 -48.776,-42.853 -59.076,-52.847c5.765,-8.595 6.82,-7.729 7.205,-8.536c1.463,-3.071 -0.407,-2.814 -0.544,-3.758l2.647,-3.168Z" style="fill:#6f4134;"/><path d="M314.651,1411.55c35.969,24.801 36.46,24.771 100.195,42.019c16.102,4.358 27.898,5.605 38.186,7.212c0.816,3.454 1.184,3.288 1.063,6.218c-0.055,1.338 -0.271,1.14 -0.199,1.206c1.169,1.073 1.562,0.045 2.818,1.197c-1.986,1.594 -1.398,5.061 -6.241,2.326c-9.746,-5.503 -24.187,-3.664 -25.202,-7.062c-0.189,-0.633 1.081,-1.159 0.864,-1.783c-0.467,-1.341 -6.483,-1.531 -7.061,-1.55c-1.456,-0.046 -15.145,-0.479 -18.073,2.21c-4.093,3.759 -3.747,4.084 -4.149,4.346c-1.009,0.658 -0.957,-1.015 -1.949,-0.368c-0.118,-0.03 -98.31,-21.339 -87.95,-54.538c1.968,-6.308 7.42,-1.579 7.699,-1.435Z" style="fill:#dfb688;"/><path d="M1438.77,1484.435c3.166,1.139 7.875,3.766 8.537,4.136c0.939,0.524 22.446,-2.698 38.103,2.793c-3.584,3.776 -27.971,29.473 -47.239,44.759c-9.853,8.005 -13.554,10.642 -14.775,11.511c-0.769,-0.877 -6.713,-6.859 -2.221,-8.223c1.674,-0.508 9.905,-3.006 16.087,-14.802c-0.206,-3.286 0.091,-3.654 -2.823,-5.178c-7.378,-3.857 4.252,-18.357 -4.771,-15.394c-0.792,0.26 -0.831,4.301 -4.805,0.725c-3.454,-3.108 -4.649,-0.345 -39.797,-0.416c-15.724,-0.032 -17.443,3.173 -23.915,-4.671c38.886,-8 39.401,-4.915 77.618,-15.241Z" style="fill:#dbb59b;"/><path d="M414.996,1009.004c-0.977,-1.392 -9.196,-13.097 -7.569,-19.862c4.457,-18.536 30.059,13.635 34.681,1.542c4.478,-11.716 1.925,-13.688 12.462,-20.56c12.258,-7.994 14.815,26.031 0.891,55.148c-6.126,12.811 -38.58,-14.566 -40.465,-16.267Z" style="fill:#e0b980;"/><path d="M1478.946,1209.067c-0.888,-0.684 -4.061,-3.129 -7.383,-11.913c-2.027,-5.36 3.949,-5.196 3.588,-10.138c-0.001,-0.011 -6.685,-30.596 6.174,-39.497c13.113,-9.076 8.66,28.322 17.817,26.315c1.756,-0.385 17.034,-11.019 27.796,-6.726c15.027,5.995 -20.78,40.077 -43.939,39.679c-4.04,-0.069 -3.281,1.844 -4.054,2.278Z" style="fill:#e89197;"/><path d="M780.638,1613.73c2.258,-1.114 1.739,-1.957 4.362,-2.152c0.702,-0.052 1.315,-0.514 2,-0.677c0.646,-0.153 1.417,-0.627 1.974,-0.266c1.863,1.208 0.766,2.915 6.013,3.767c0.48,0.078 4.57,0.743 6.013,0.909c2.292,0.264 1.84,1.274 4,1.531c0.475,0.057 0.302,-0.307 4.193,-4.266c28.785,14.072 79.186,33.275 86.93,23.589c7.462,-9.333 8.649,-11.989 2.637,-14.244c1.199,-0.687 1.041,-2.801 2.24,-3.488c1.157,-0.663 2.696,0.19 4,-0.089c0.988,-0.211 1.725,-1.54 2.717,-1.345c0.011,0.002 0.52,2.351 3.171,2.446c21.358,0.76 20.953,3.113 24.145,6.199c-1.385,0.193 -2.769,0.385 -4.154,0.578c-11.813,3.65 -11.127,5.22 -15.775,10.839c-5.374,-4.46 -7.711,-8.549 -9.891,-1.956c-2.553,7.721 -1.902,10.951 -9.768,9.166c8.642,18.624 3.806,30.79 2.819,33.273c-9.148,-15.66 -1.622,-22.115 -13.151,-24.864c-21.27,-5.071 -20.981,-5.33 -41.904,-12.355c-31.231,-11.034 -57.699,-24.176 -62.57,-26.594Z" style="fill:#714532;"/><path d="M935.033,1625.645c1.971,0.149 3.959,-0.093 5.93,0.056c29.596,2.238 33.605,43.84 17.708,52.765c-33.012,18.532 -60.467,-7.777 -46.165,-37.67c0.624,1.203 2.793,1.001 3.417,2.205c0.147,0.284 -3.007,8.318 7.589,15.07c8.625,5.495 19.382,-4.442 20.639,-5.603l-0.231,-1.374c5.713,-7.09 9.906,-7.121 6.058,-10.416c-4.284,-3.668 -1.456,-14.528 -17.639,-7.394c-3.77,-2.915 0.625,-3.892 0.661,-4.246c0.118,-1.169 -2.239,-1.645 -2.121,-2.814c1.385,-0.193 2.769,-0.385 4.154,-0.578Z" style="fill:#d9a774;"/><path d="M1632.789,960.812c0.264,0.235 3.297,2.932 3.297,2.932c1.082,3.386 9.499,29.721 26.799,35.445c3.655,1.209 4.114,0.528 6.031,3.796l-0.146,1.631c-0.566,0.128 -14.97,-1.741 -29.187,26.662c-0.289,0.578 -2.848,5.689 -2.899,7.535c-0.024,0.843 1.54,1.965 0.815,2.395c-1.295,0.768 -3.216,-0.971 -4.511,-0.203c-0.36,-5.554 -0.431,-5.519 -0.389,-5.998c0.172,-1.953 0.577,-6.564 -12.566,-21.035c-8.05,-8.863 -15.766,-4.044 -19.023,-10.967c20.465,-15.721 29.655,-25.55 31.778,-42.193Z" style="fill:#e7adaa;"/><path d="M913.267,1705.566l1.452,-0.145c7.318,11.433 -0.711,12.044 -2.782,31.704c-4.533,43.043 -8.405,42.663 -7.848,85.873c0.014,1.117 2.12,12.29 -2.982,16.306c-7.171,-1.706 -4.88,-4.827 -10.759,-9.409c-2.835,-2.209 -5.954,-4.64 -2.422,-44.858c0.663,-7.555 6.393,-41.919 23.513,-77.767l1.828,-1.705Z" style="fill:#f7dda4;"/><path d="M958.432,1697.969l1.616,1.7c6.891,10.922 7.016,10.75 11.94,22.785c1.472,3.791 10.08,25.965 15.329,48.467c9.011,38.636 4.845,51.726 3.484,56.003c-2.648,-1.498 -2.8,-0.872 -4.984,-2.819c-6.712,-5.983 -8.021,-1.627 -11.894,0.993c-1.261,-29.201 -2.308,-77.551 -19.645,-123.936c-1.34,-3.584 0.44,-3.899 4.155,-3.193Z" style="fill:#dcaa7c;"/><path d="M740.419,320.601c1.727,0.291 3.25,-1.977 4.977,-1.686c2.328,0.392 -7.775,5.245 9.962,27.775c6.391,8.118 15.674,12.168 17.252,12.856c12.697,5.539 -9.126,2.631 -20.873,23.974c-3.419,6.211 -7.89,19.23 -9.952,14.816c-8.454,-18.101 -5.952,-20.583 -22.875,-31.162c-2.049,-1.281 -11.083,-3.826 -3.653,-7.621c12.53,-6.401 21.247,-9.797 25.161,-38.952Z" style="fill:#e7c48e;"/><path d="M222.22,1116.731c4.715,-13.643 7.417,-11.905 8.237,-11.158c0.31,0.282 4.226,10.242 7.055,15.076c9.17,15.671 36.289,15.361 19.097,23.427c-2.44,1.145 -4.939,2.163 -7.367,3.335c-16.772,8.097 -13.991,29.896 -20.224,30.026c-4.021,0.084 -2.666,-1.993 -6.577,-14.178c-4.947,-15.411 -26.126,-17.66 -25.589,-22.283c1.071,-9.217 14.501,1.395 25.368,-24.246Z" style="fill:#e0c78e;"/><path d="M1469.11,1431.704c1.917,-0.454 3.834,-0.908 5.751,-1.361c0.234,0.177 1.042,4.031 6.139,4.657c4.673,0.575 4.649,0.27 8.481,2.854c-4.686,1.833 -6.163,2.411 -60.665,16.581c-30.755,7.996 -31.211,5.165 -80.008,16.126c-11.181,-8.605 -16.65,0.573 -23.808,-2.946c-1.983,-0.975 -0.388,-2.133 -2.136,-3.436c-0.996,-0.742 -1.04,1.069 -1.944,0.395l2.225,-0.575c24.236,-4.477 23.92,-5.387 48.032,-10.255c28.19,-6.216 67.361,-11.619 97.933,-22.041Z" style="fill:#69422f;"/><path d="M1589.158,1470.87c8.958,14.106 50.391,104.019 17.802,126.01c-0.55,-0.385 -1.421,0.797 -1.97,0.412c-3.688,-2.582 6.502,-4.75 -4.512,-56.093c-5.715,-22.489 -5.347,-22.517 -13.686,-44.071c-6.421,-13.88 -9.766,-16.804 2.367,-26.258Z" style="fill:#f6dca8;"/><path d="M1365.067,1236.841c38.213,17.447 46.658,24.111 60.452,33.211c13.692,8.411 13.502,8.402 26.197,18.001c-5.377,4.318 -6.308,2.409 -9.24,4.393c-3.299,2.233 -2.505,3.024 -5.969,5.225c-2.272,-1.694 -6.734,-4.537 -7.329,-4.917c-6.378,-4.382 -48.139,-33.07 -84.49,-47.096c0.345,-0.219 4.313,-2.733 4.313,-2.733c8.897,-1.066 9.275,-0.428 16.067,-6.084Z" style="fill:#7e5344;"/><path d="M262.907,1476.726c5.078,2.306 5.211,1.919 9.024,5.996c-6.6,6.888 -6.574,6.985 -9.137,16.034c-18.503,40.497 -14.473,95.03 -15.784,96.343c-0.474,0.474 -1.532,-0.619 -2.005,-0.145c-5.696,-3.085 -5.48,-3.155 -9.39,-8.244c-2.129,-6.564 -9.722,-29.977 12.2,-85.391c8.862,-22.402 12.914,-23.827 15.092,-24.593Z" style="fill:#f8e2a5;"/><path d="M273.882,601.054c1.45,-10.751 1.188,-10.75 1.565,-11.608c0.527,-1.2 5.384,-1.997 5.072,15.58c-0.462,26.064 31.909,29.028 23.274,34.633c-2.201,1.428 -19.955,12.951 -23.222,23.161c-3.045,9.515 -1.675,10.999 -2.054,12.045c0,0 -3.555,0.298 -3.865,0.324c-0.075,-0.237 -1.024,-23.032 -25.481,-36.443c0.002,-0.092 -1.835,-1.592 0.081,-3.541c0.881,-0.896 1.238,-0.226 2.203,-1.207c3.362,-1.233 3.173,-1.511 12.985,-7.782c10.021,-6.404 9.508,-23.012 9.442,-25.161Z" style="fill:#e79fa8;"/><path d="M1621.108,626.176c-30.546,-8.116 -18.645,-40.127 -4.318,-43.921c32.834,-8.695 47.045,43.39 4.318,43.921Z" style="fill:#c39d8a;"/><path d="M1208.202,405.19c5.463,44.866 -56.098,31.938 -41.562,-2.353c5.573,-13.147 32.405,-23.063 41.562,2.353Z" style="fill:#d9b07d;"/><path d="M244.335,837.136c2.757,45.21 -57.851,24.334 -39.441,-8.205c3.902,-6.897 30.04,-20.756 39.441,8.205Z" style="fill:#bd9392;"/><path d="M1598.81,1230.685c6.097,4.485 5.024,5.229 8.75,11.901c8.507,15.231 23.901,16.641 16.791,21.787c-10.918,7.901 -12.921,7.025 -21.341,32.354l-2.191,0.486c-1.368,-3.789 -1.359,-3.57 -2.703,-7.485c-6.853,-19.964 -28.201,-25.069 -22.68,-30.379c13.455,-12.94 13.821,-12.593 23.374,-28.664Z" style="fill:#f0d0a0;"/><path d="M298.707,1395.469c-1.862,9.138 -4.483,8.195 -6.366,17.391c-4.613,22.535 17.11,35.291 18.399,36.421c7.067,6.193 -6.803,15.545 -23.317,6.969c-39.924,-20.734 -9.099,-61.448 11.284,-60.781Z" style="fill:#e9c08c;"/><path d="M1555.248,1397.279c2.524,-0.36 9.983,-3.294 24.776,18.306c8.632,21.971 -1.962,32.518 -13.559,40.629c-1.643,0.562 -14.147,4.835 -21.504,2.926c-12.873,-3.34 -3.016,-10.703 5.383,-18.81c16.814,-21.057 7.158,-23.717 4.905,-43.051Z" style="fill:#ebc18a;"/><path d="M326.896,1586.991c1.368,0.323 2.736,0.646 4.104,0.969c5.785,15.196 -1.995,19.717 0.102,23.04c0.562,0.89 1.633,1.379 2.195,2.269c-6.907,7.266 -8.054,5.398 -28.436,9.071c-35.339,6.369 -57.464,-7.212 -66.222,-12.485c4.918,-7.289 4.579,-7.411 5.132,-7.927c2.427,-2.417 2.458,-2.086 5.013,-4.57c5.305,5.548 4.663,7.238 12.33,7.409c3.975,0.989 7.95,1.977 11.925,2.966c13.79,2.931 13.808,1.176 23.82,0.438c7.776,0.534 9.213,-0.398 12.067,-0.668c15.344,-2.372 15.463,-5.068 17.969,-20.511Z" style="fill:#673d2b;"/><path d="M380.503,1107.343c11.343,22.748 15.5,23.875 20.077,28.076c4.967,4.559 0.68,5.149 -5.129,8.487c-17.01,9.778 -13.486,25.102 -16.217,25.401c-2.87,0.315 -2.281,-3.166 -2.604,-3.579c-5.948,-7.605 -3.1,-10.019 -18.513,-21.907c-7.01,-5.407 -4.497,-7.715 2.557,-13.151c17.322,-13.35 13.329,-30.973 19.829,-23.327Z" style="fill:#e5ba96;"/><path d="M527.04,1462.79c26.854,5.636 70.932,18.125 100.121,29.749c-0.511,1.07 -2.059,1.39 -2.57,2.461c-0.619,1.295 0.648,3.547 -3.4,2.62c-3.916,-0.897 -5.564,2.596 -5.971,2.926c-50.223,-16.739 -67.37,-20.904 -110.103,-29.982l-2.355,-0.564c5.832,-2.887 5.659,-3.673 12.215,-3.272c1.344,0.082 2.666,0.393 4.008,0.5c0.641,0.051 7.478,0.596 8.015,-0.572c0.538,-1.17 -0.498,-2.694 0.04,-3.865Z" style="fill:#764d35;"/><path d="M1586.79,1497.128c8.339,21.554 7.971,21.583 13.686,44.071c11.015,51.343 0.824,53.512 4.512,56.093c0.55,0.385 1.421,-0.797 1.97,-0.412c-3.417,2.566 -3.066,2.77 -6.342,5.612c-6.728,5.836 -9.515,1.732 -10.108,1.541c0.634,-2.573 4.058,-16.466 2.511,-33.035c-5.877,-62.95 -18.432,-66.869 -6.231,-73.87Z" style="fill:#96744a;"/><path d="M462.829,1564.8c2.504,-1.33 2.346,-1.275 4.599,-3.09c2.964,-2.387 5.14,-1.873 5.178,-1.898c2.996,-1.949 1.811,-2.698 2.929,-4.608c0.245,-0.419 0.952,-0.221 1.438,-0.233c3.28,-0.079 2.873,-1.55 6.166,-1.28c3.941,0.322 5.106,-1.484 7.895,-0.053c3.113,1.597 -0.456,25.293 8.839,16.138c10.115,-9.962 8.764,11.525 17.387,12.816c4.448,0.666 3.992,1.903 3.952,6.393c-0.079,8.858 -7.036,4.935 -5.573,2.424c0.628,-1.078 -0.059,-1.009 -3.271,-4.147c-12.828,-4.425 -13.472,-1.131 -23.37,-4.693c-3.979,-1.432 -4.247,-0.488 -6.498,3.214c-13.249,-7.834 -12.958,-8.032 -25.842,-16.317c1.081,-1.06 1.08,-0.946 6.17,-4.667Z" style="fill:#d8b599;"/><path d="M308.926,1607.503c-2.854,0.269 -4.291,1.202 -12.067,0.668c5.06,-15.881 -3.28,-102.424 -1.41,-104.76c5.758,-7.191 7.615,12.859 11.599,33.581c6.92,35.987 0.499,54.15 1.877,70.511Z" style="fill:#9f6b42;"/><path d="M1325.806,346.734c0.59,2.888 4.817,23.574 22.869,28.896c0.575,0.576 1.151,1.153 1.726,1.729c-0.253,0.521 0.845,1.112 0.592,1.633c-1.141,2.343 -7.633,-3.856 -22.551,23.504c-19.526,-20.524 -21.111,-20.808 -23.613,-21.255c-3.36,-0.601 -3.156,-0.763 -6.362,-1.538l-0.471,-2.347c0.79,-0.796 -0.458,-3.451 4.939,-2.472c1.348,0.244 6.498,3.812 17.205,-14.674c1.608,-2.776 -1.182,-4.04 5.667,-13.477Z" style="fill:#e59da8;"/><path d="M542.947,1214.864c5.441,4.896 5.396,10.049 10.768,5.103c3.826,-3.523 4.422,-2.097 9.285,-0.208c3.859,1.499 2.683,2.829 4.252,4.041c0.503,0.388 1.324,-0.927 1.827,-0.54c-30.184,9.647 -54.262,19.969 -64.06,23.776c-8.613,-6.943 -15.356,-0.341 -20.203,-8.503c28.588,-13.261 28.432,-13.322 58.131,-23.668Z" style="fill:#795445;"/><path d="M262.794,1498.756c1.208,0.991 2.777,1.478 3.985,2.47c3.681,3.021 -15.122,69.595 -5.665,103.541c-7.667,-0.171 -7.025,-1.861 -12.33,-7.409c-1.26,-0.801 -2.52,-1.602 -3.78,-2.404c0.474,-0.474 1.532,0.619 2.005,0.145c1.311,-1.312 -2.719,-55.846 15.784,-96.343Z" style="fill:#966f40;"/><path d="M1400.719,1564.67c1.384,1.464 2.768,2.928 4.152,4.392c0.648,0.655 0.44,1.712 4.012,2.806c3.978,1.218 2.955,2.305 4.695,5.99c-0.917,0.69 -3.12,2.35 -11.91,7.998c-5.962,4.37 -29.833,17.993 -32.464,19.495c-5.716,-4.802 -5.022,-6.427 -10.203,-6.261c-4.096,0.131 -4.84,-1.026 -6.88,2.652c-0.188,0.338 1.162,0.291 0.975,0.629c-3.623,-1.266 -3.311,-1.592 -6.365,-3.821c22.581,-12.317 26.338,-13.282 53.989,-33.881Z" style="fill:#714737;"/><path d="M870.303,1521.103c7.169,33.958 36.409,70.414 26.792,72.182c-0.495,0.091 -17.91,-7.325 -30.304,-48.234c-10.243,-33.81 -4.982,-35.844 -2.262,-35.12c2.812,0.749 5.499,10.204 5.774,11.172Z" style="fill:#b0927d;"/><path d="M578.742,618.838c2.609,0.337 3.367,-0.158 3.749,2.477c2.14,14.787 5.887,12.945 15.984,24.022c4.031,4.422 -0.595,3.983 -5.255,7.916c-8.263,6.976 -10.21,23.476 -13.311,17.15c-5.491,-11.205 -4.349,-12.297 -18.256,-22.093c-9.387,-6.613 13.686,-2.993 17.089,-29.471Z" style="fill:#eac4a2;"/><path d="M991.144,1563.079c14.811,-31.019 14.879,-31.127 16.488,-33.657c4.003,-6.298 9.33,-3.58 7.924,1.677c-14.463,54.099 -36.706,62.1 -42.501,64.185c-2.161,0.777 -7.553,-0.229 -1.867,-6.11c11.485,-11.88 11.287,-11.922 19.956,-26.095Z" style="fill:#b1977d;"/><path d="M1272.792,1614.775c0.953,0.567 1.255,1.921 2.208,2.488c2.861,1.702 2.654,-0.83 5.792,-1.21c8.812,-1.069 9.716,-2.868 16.253,3.054c-25.425,9.149 -25.424,8.741 -50.119,19.631c-4.809,2.12 -4.868,1.326 -9.981,-0.049c5.943,-13.764 10.162,-10.033 21.225,-20.664c1.48,-1.422 24.21,-26.119 26.495,-16.896c0.955,3.856 -5.394,7.245 -11.873,13.646Z" style="fill:#c19a83;"/><path d="M1507.771,936.643l1.335,2.405c-13.207,11.125 -12.084,12.201 -14.705,19.743c-2.303,6.627 -4.358,1.736 -6.033,-1.392c-9.764,-18.238 -20.356,-18.188 -12.677,-23.474c14.505,-9.984 11.418,-22.641 16.875,-20.308c5.331,2.279 -2.346,8.532 15.205,23.026Z" style="fill:#f0c793;"/><path d="M1337.97,642.939c2.714,-22.598 23.371,-13.888 24.561,-13.106c23.807,15.651 -15.395,47.85 -24.561,13.106Z" style="fill:#d79e9c;"/><path d="M335.669,1514.797c2.695,12.78 17.519,73.681 -2.371,98.472c-0.562,-0.89 -1.633,-1.379 -2.195,-2.269c-2.097,-3.323 5.683,-7.844 -0.102,-23.04c0.451,-4.593 0.412,-4.569 0.487,-4.96c0.805,-4.188 -0.587,-4.043 -0.487,-4.381c0.481,-1.625 2.379,-2.44 3.319,-3.85c1.556,-2.333 -3.187,-55.385 -1.319,-57.479c0.811,-0.908 1.858,-1.585 2.669,-2.494Z" style="fill:#54372f;"/><path d="M1706.31,875.017c-5.613,34.611 -46.644,6.671 -25.072,-9.696c7.443,-5.647 21.867,-6.814 25.072,9.696Z" style="fill:#d6b681;"/><path d="M1142.328,293.204c4.022,32.72 -38.648,16.997 -26.845,-1.967c4.071,-6.54 18.501,-15.239 26.845,1.967Z" style="fill:#dc9aa7;"/><path d="M1502.915,1466.43c10.305,-2.139 0.143,4.644 -17.504,24.934c-15.657,-5.491 -37.164,-2.269 -38.103,-2.793c-0.663,-0.37 -5.371,-2.997 -8.537,-4.136c49.388,-11.885 49.595,-10.951 64.144,-18.004Z" style="fill:#e1c1a8;"/><path d="M930.879,1626.223c-0.118,1.169 2.239,1.645 2.121,2.814c-0.036,0.354 -4.431,1.331 -0.661,4.246c10.091,13.017 9.795,13.033 11.581,17.81l0.231,1.374c-1.257,1.161 -12.014,11.098 -20.639,5.603c-10.596,-6.752 -7.442,-14.786 -7.589,-15.07c-0.624,-1.203 -2.793,-1.001 -3.417,-2.205l2.598,-3.734c4.648,-5.618 3.962,-7.189 15.775,-10.839Z" style="fill:#f8eba8;"/><path d="M304.968,1233.059c23.918,18.338 -16.816,40.428 -21.224,15.816c-0.388,-2.167 0.551,-10.702 5.725,-15.287c4.356,-3.86 14.31,-0.884 15.499,-0.529Z" style="fill:#d1b589;"/><path d="M407.533,639.054c0.3,-1.083 2.365,-8.544 7.595,-11.821c3.834,-2.402 11.558,-1.37 15.428,2.277c18.688,17.611 -20.071,41.05 -23.023,9.543Z" style="fill:#d1b77d;"/><path d="M922.041,388.856c6.361,-18.231 24.037,-13.006 24.771,2.14c0.924,19.061 -25.626,29.486 -24.771,-2.14Z" style="fill:#f7cccb;"/><path d="M350.987,1467.055c18.943,8.035 33.38,11.635 60.172,17.197c-0.818,0.93 -1.341,2.095 -2.159,3.026c-1.689,1.92 -2.117,1.197 -31.898,1.991c1.814,-4.852 2.316,-4.734 2.147,-5.147c-0.278,-0.679 -1.414,0.423 -2.144,0.506c-4.648,0.529 -6.184,-1.572 -11.139,5.441c-2.233,-2.425 -4.466,-4.851 -6.699,-7.276c-8.706,-9.516 -21.999,-21.819 -8.281,-15.737Z" style="fill:#debca6;"/><path d="M399.819,485.003c-1.016,0.933 -2.608,1.065 -3.624,1.997c-0.27,0.248 -1.881,6.701 -2.218,6.936c-0.334,0.233 -0.324,-0.496 -5.031,0.737c-4.265,1.117 -4.628,1.935 -7.945,-0.859c-3.525,-2.969 -3.325,0.27 -6.462,3.701c-19.466,-21.864 20.666,-42.438 25.281,-12.512Z" style="fill:#d6909d;"/><path d="M1451.716,1288.053c0.935,0.679 5.822,4.227 11.687,8.478c-9.485,6.26 2.297,6.276 8.282,15.927c4.914,7.923 6.459,6.531 6.776,7.259c2.172,4.979 1.975,5.163 6.681,7.731c-3.568,3.407 -3.661,-0.817 -4.265,-1.05c-0.411,-0.158 -0.321,0.229 -4.477,3.2c-3.082,-2.685 -23.666,-20.62 -39.894,-31.928c3.464,-2.201 2.67,-2.993 5.969,-5.225c2.932,-1.984 3.863,-0.075 9.24,-4.393Z" style="fill:#734939;"/><path d="M1334.935,1223.152c19.981,10.026 27.641,12.791 30.132,13.689c-6.792,5.656 -7.17,5.018 -16.067,6.084c-0,0 -3.968,2.514 -4.313,2.733c-31.224,-14.799 -31.364,-14.435 -34.056,-15.766c0.579,-0.519 6.92,-6.203 8.336,-5.008c1.058,0.892 0.997,2.672 1.975,3.652c3.178,3.186 13.053,-4.639 13.993,-5.384Z" style="fill:#8b6350;"/><path d="M616.114,1448.873c-0.224,1.648 -2.6,19.146 -5.099,20.156c-15.285,6.172 3.216,-72.485 15.207,-55.553c4.307,6.082 -2.87,5.912 -10.107,35.398Z" style="fill:#ab8e78;"/><path d="M1654.178,1136.971c4.186,-16.687 21.454,-13.259 24.921,-6.025c8.678,18.106 -22.243,30.352 -24.921,6.025Z" style="fill:#c49796;"/><path d="M1552.968,1113.159c-17.225,-7.192 -6.739,-19.097 -3.35,-21.236c17.829,-11.252 31.956,23.762 3.35,21.236Z" style="fill:#c9ab80;"/><path d="M675.299,493.289c-18.502,15.186 -30.728,-25.218 -6.347,-21.914c6.828,0.925 9.187,6.887 9.55,7.804c2.19,5.533 -2.587,13.131 -3.204,14.11Z" style="fill:#cc8e9a;"/><path d="M1188.14,540.437c-21.07,23.168 -23.736,-22.714 -5.046,-20.255c6.555,0.863 8.058,5.849 8.304,6.665c2.115,7.017 -0.278,6.815 -3.258,13.59Z" style="fill:#f7efbd;"/><path d="M1481.265,675.204c1.294,-1.069 14.405,-11.903 20.87,2.155c8.914,19.385 -31.516,22.794 -20.87,-2.155Z" style="fill:#c8929d;"/><path d="M488.347,1177.123c-0.62,25.872 -34.507,9.22 -20.646,-5.515c4.043,-4.299 9.697,-4.012 11.262,-3.88c6.012,0.506 9.008,8.402 9.384,9.396Z" style="fill:#d48c8b;"/><path d="M404.811,1375.087c3.93,16.182 0.936,16.927 7.899,32.056c2.609,5.67 -7.307,9.345 -13.008,-4.486c-3.164,-7.676 -8.08,-28.71 -2.599,-29.469c4.177,-0.579 3.993,0.167 7.708,1.899Z" style="fill:#ac9379;"/><path d="M1070.743,537.793c20.8,11.168 -6.429,33.691 -13.851,15.262c-1.259,-3.125 -1.47,-9.318 2.823,-13.12c3.374,-2.989 10.135,-2.241 11.029,-2.142Z" style="fill:#d4a49f;"/><path d="M1274.091,1451.01c-0.952,15.709 -7.211,11.357 -7.732,10.457c-1.476,-2.548 2.552,-3.234 -6.103,-36.299c-0.473,-1.807 5.59,-12.651 10.913,3.773c3.472,10.713 2.504,10.813 2.922,22.069Z" style="fill:#c1a78f;"/><path d="M1634.19,608.551c-5.66,8.078 -7.505,10.474 -15.055,4.21c-14.94,-12.394 6.853,-31.567 16.004,-11.782c0.889,1.921 -0.761,6.991 -0.95,7.572Z" style="fill:#ecc69e;"/><path d="M1555.248,1397.279c-2.304,-1.499 -1.682,-2.353 -4.259,-2.77c-16.706,-2.703 -16.924,-1.576 -17.989,-2.566c-0.983,-0.913 -1.017,-2.581 -2,-3.494c17.217,-3.231 16.937,1.356 24.126,1.977c3.811,0.329 3.864,-2.504 7.934,-0.324c1.416,0.759 12.275,2.661 13.678,8.979c0.75,3.379 3.4,2.565 2.469,5.941c-1.237,4.489 4.117,7.005 3.793,7.926c-0.44,1.25 -2.536,1.387 -2.976,2.637c-14.792,-21.6 -22.252,-18.666 -24.776,-18.306Z" style="fill:#71402c;"/><path d="M319.592,1512.777c2.177,9.166 5.46,21.615 7.212,56.228c-3.223,-2.055 -3.595,-1.58 -5.035,-4.006c-1.441,-2.427 -3.289,-1.248 -3.209,-3.97c0.687,-23.352 -3.958,-32.645 -4.005,-42.12c-0.009,-1.773 2.375,-2.743 5.037,-6.132Z" style="fill:#e3ac81;"/><path d="M453.031,1460.782c45.805,8.524 45.756,8.459 49.731,9.218l2.355,0.564c-0.552,0.353 -1.382,-0.704 -1.934,-0.351c-1.389,0.887 -2.809,7.211 -4.106,6.843c-14.292,-4.05 -14.486,-2.156 -15.621,-2.722c-7.723,-3.851 -18.415,-2.356 -26.743,-4.931c-1.256,-1.152 -1.649,-0.124 -2.818,-1.197c-0.072,-0.066 0.144,0.132 0.199,-1.206c0.121,-2.93 -0.247,-2.765 -1.063,-6.218Z" style="fill:#dfb586;"/><path d="M1463.402,1296.532c21.009,15.543 29.521,25.366 34.197,29.866c-1.411,0.867 -2.823,1.735 -4.234,2.602c-3.83,-1.901 -3.848,-1.363 -8.223,-1.551c-4.706,-2.568 -4.51,-2.752 -6.681,-7.731c-0.318,-0.728 -1.863,0.664 -6.776,-7.259c-5.985,-9.651 -17.767,-9.667 -8.282,-15.927Z" style="fill:#825947;"/><path d="M276.079,1505.567c1.496,3.322 4.645,10.314 3.423,45.414c-0.196,5.639 -4.283,4.461 -5.112,0.117c-0.058,-0.302 -4.577,-36.425 -1.223,-41.687c0.207,-0.325 0.216,-0.285 2.912,-3.844Z" style="fill:#d6b073;"/><path d="M216.892,832.824c1.357,-0.417 16.604,-5.105 14.509,10.218c-2.14,15.659 -30.634,4.972 -14.509,-10.218Z" style="fill:#f7c6cc;"/><path d="M359.268,1482.793c2.233,2.425 4.466,4.851 6.699,7.276c2.871,2.886 2.814,2.674 3.047,2.918l4.634,5.265l-2.647,3.168c-6.966,1.442 -6.798,1.728 -12.457,5.889c-4.011,-4.939 -3.54,-5.179 -7.902,-9.899c0.831,-1.787 1.972,-0.622 2.804,-2.41c0.079,-0.169 -0.785,0.218 -0.641,-2.239c0.385,-6.567 0.576,-7.052 6.463,-9.968Z" style="fill:#825446;"/><path d="M866.39,281.079c-0.987,21.409 -24.899,6.291 -14.952,-5.741c9.49,-11.48 14.565,4.519 14.952,5.741Z" style="fill:#d4b98b;"/><path d="M960.048,1699.669c0.987,-0.105 3.88,-2.759 9.218,0.851c2.624,1.774 2.884,0.893 5.734,2.491c0.788,0.442 0.941,2.081 1.84,1.99c1.295,-0.13 1.721,-2.349 3.016,-2.479c1.101,1.438 2.201,2.876 3.302,4.313c-0.451,0.537 -3.936,4.685 -5.858,6.512c-3.442,3.271 -2.048,4.106 -5.312,9.107c-4.924,-12.035 -5.049,-11.864 -11.94,-22.785Z" style="fill:#6b412f;"/><path d="M475.149,1496.211c13.945,2.671 13.745,2.961 27.817,4.916c-5.118,4.152 -5.257,4.26 -11.953,3.923c-23.869,-1.204 -23.859,-0.68 -25.928,-0.839c-0.573,-0.044 -8.475,-4.718 1.914,-5.011c8.619,-0.243 7.513,-2.59 8.149,-2.989Z" style="fill:#efcfbb;"/><path d="M1438.57,1414.166c-19.382,4.334 7.074,-29.297 10.531,-19.206c2.937,8.575 -9.155,18.12 -10.531,19.206Z" style="fill:#b19278;"/><path d="M273.882,601.054c0.066,2.149 0.579,18.757 -9.442,25.161c-9.812,6.271 -9.623,6.549 -12.985,7.782c-0.108,-1.171 -5.52,-5.055 5.544,-7.662c7.954,-1.874 7.508,-15.831 16.882,-25.282Z" style="fill:#c7878f;"/><path d="M438.933,1557.101c0.325,-0.224 4.067,-2.806 4.067,-2.806c0.782,0.18 1.215,1.175 2,1.342c1.434,0.305 5.325,-2.954 11.962,1.427c4.372,2.886 5.526,2.409 5.867,7.736c-5.09,3.721 -5.089,3.607 -6.17,4.667c-5.083,-3.181 -10.281,-6.7 -11.165,-7.298l-6.561,-5.068Z" style="fill:#d5a58d;"/><path d="M1523.762,1382.426c1.347,2.071 2.694,4.142 4.041,6.213c3.259,9.896 2.439,13.059 -4.413,18.921c-1.679,-2.35 -3.321,-1.664 -3.587,-8.743c-0.047,-1.264 -0.583,-15.53 -0.077,-15.817c1.182,-0.671 2.854,0.097 4.036,-0.574Z" style="fill:#fbf2db;"/><path d="M932.339,1633.282c16.183,-7.133 13.355,3.726 17.639,7.394c3.848,3.295 -0.345,3.326 -6.058,10.416c-1.786,-4.777 -1.49,-4.793 -11.581,-17.81Z" style="fill:#d1b474;"/><path d="M973.923,1825.098c3.873,-2.62 5.182,-6.977 11.894,-0.993c2.184,1.947 2.335,1.321 4.984,2.819c-0.744,1.163 -5.802,9.07 -13.793,10.376c-4.136,0.676 -3.166,-11.198 -3.085,-12.202Z" style="fill:#ecb88a;"/><path d="M497.277,1594.282l4.004,2.07c-0.06,0.467 -0.745,5.84 -0.745,5.84c-8.707,2.301 -8.938,0.271 -9.536,0.749c-0.348,0.278 -0.184,0.37 -2.483,4.991c-3.972,-2.103 -12.552,-6.207 -13.651,-6.732c1.649,-1.725 0.781,-3.809 8.202,-3.766c3.027,0.017 2.683,2.252 5.739,1.15c5.552,-2.002 5.779,-0.524 6.192,-0.805c1.15,-0.782 1.127,-2.715 2.277,-3.497Z" style="fill:#5e392e;"/><path d="M490.013,684.92c-6.467,16.675 -18.971,2.796 -12.653,-3.598c6.703,-6.783 10.595,-5.846 12.653,3.598Z" style="fill:#d3bd94;"/><path d="M1032.858,1648.706c4.921,-7.955 13.533,-3.052 17.848,-3.113c0.804,-0.011 4.044,-2.997 8.685,2.775c4.696,5.84 7.679,6.222 4.125,9.382c-2.665,2.37 -3.095,-1.028 -6.8,-4.272c-9.685,-8.478 -11.017,-4.821 -23.859,-4.773Z" style="fill:#e1c0a4;"/><path d="M399.819,485.003c-1.722,20.637 -17.242,18.534 -25.281,12.512c3.137,-3.43 2.937,-6.669 6.462,-3.701c3.317,2.794 3.68,1.976 7.945,0.859c4.708,-1.233 4.698,-0.504 5.031,-0.737c0.337,-0.235 1.948,-6.688 2.218,-6.936c1.016,-0.933 2.608,-1.065 3.624,-1.997Z" style="fill:#c79d9d;"/><path d="M751.011,1679.069c3.95,0.31 30.367,0.612 37.865,2.254c0.744,0.163 1.07,1.228 1.814,1.391c-5.74,3.233 -10.3,3.982 -35.691,-0.66c-4.059,-0.742 -3.257,-2.437 -3.989,-2.985Z" style="fill:#eccab3;"/><path d="M639.162,1203.756c-9.337,2.531 -9.144,2.402 -13.998,3.897c-2.819,-2.881 -2.317,-3.353 -6.107,-4.737c-4.3,-1.571 1.257,-7.141 5.943,-6.602c3.083,0.355 9.371,2.17 10.174,2.402c0,0 3.669,4.637 3.988,5.041Z" style="fill:#795443;"/><path d="M482.501,1585.784c2.251,-3.702 2.518,-4.646 6.498,-3.214c9.897,3.562 10.542,0.268 23.37,4.693c-6.594,2.086 -6.509,2.993 -13.368,1.364c-1.566,-0.372 -1.864,-0.189 -2,-0.105c-2.299,1.416 -1.368,2.179 -3.523,3.507c-0.868,-0.516 -6.957,-4.135 -10.976,-6.245Z" style="fill:#e6c7af;"/><path d="M235.615,1586.71c3.911,5.09 3.694,5.159 9.39,8.244c1.26,0.801 2.52,1.602 3.78,2.404c-2.555,2.484 -2.586,2.153 -5.013,4.57c-1.344,-0.785 -1.428,-2.972 -2.772,-3.757c-0.238,-0.139 -3.891,3.04 -5.992,2.689c-8.419,-1.409 -2.106,-5.417 -2.078,-5.863c0.012,-0.192 -3.262,-2.19 -0.694,-5.996c0.761,-1.128 2.618,-1.162 3.379,-2.29Z" style="fill:#693c2f;"/><path d="M1617.27,1600.245c0.458,-0.073 5.725,-0.913 5.73,-0.91c1.053,0.453 1.572,1.769 2.625,2.222c-8.586,8.186 -19.212,12.341 -22.28,14.001c0.298,-1.218 -2.376,-3.902 5.672,-10.533c1.849,-1.523 1.582,-2.215 3.859,-1.732c1.451,0.308 1.288,0.72 1.389,0.65c2.012,-1.396 0.953,-2.275 3.005,-3.699Z" style="fill:#745144;"/><path d="M668.613,1507.807c12.804,-9.899 20.262,-0.966 20.265,-0.831c0.015,0.757 0.026,1.312 -5.682,7.573c-7.457,-3.322 -7.193,-3.472 -14.583,-6.741Z" style="fill:#fbf5e0;"/><path d="M706.444,1525.991c0.235,-1.665 -0.974,-3.326 -0.739,-4.991c0.041,-0.293 0.159,-1.124 3.468,-1.271c1.492,-0.066 17.924,-0.795 18.395,3.203c0.139,1.178 0.535,4.538 -14.569,2.74c-3.592,-0.428 -3.013,1.206 -4.155,1.663l-2.401,-1.344Z" style="fill:#fdfae3;"/><path d="M703.056,1585.176c3.321,0.555 4.124,-1.818 11.893,3.869c0.76,0.556 15.067,5.471 8.117,6.059c-4.069,0.345 -3.606,-1.177 -3.878,-1.008c-1.247,0.773 -1.356,2.771 -2.597,3.554c-0.702,0.443 -1.839,0.186 -2.466,-0.358c-1.342,-1.164 -1.612,-3.304 -3.014,-4.395c-3.463,-2.694 -7.686,0.609 -8.054,-7.722Z" style="fill:#deb99e;"/><path d="M1093,1556.111c-1.412,0.044 -2.588,1.359 -4,1.403c-0.81,0.025 -0.66,-0.995 -10.093,-0.85c-1.305,0.02 -8.492,2.736 -7.08,-1.572c1.086,-3.313 1.538,-3.29 5.115,-3.39c1.409,-0.039 16.857,-0.47 17.621,-0.124c3.025,1.37 0.981,2.219 -1.563,4.533Z" style="fill:#fdf8e3;"/><path d="M287.859,602.566c4.943,9.727 4.686,9.768 12.335,17.314c-1.303,0.65 -1.891,2.331 -3.194,2.981c-0.544,0.271 -6.256,-3.127 -7.864,-5.901c-7.163,-12.355 -2.138,-13.185 -1.277,-14.394Z" style="fill:#aa8484;"/><path d="M943.16,1839.182c-12.975,8.64 -7.713,-19.404 -0.417,-13.416c1.356,1.113 0.499,12.345 0.417,13.416Z" style="fill:#c09356;"/><path d="M1206.557,1200.232c-9.346,1.222 -24.324,0.619 -25.034,-0.009c-5.834,-5.16 13.213,-3.756 21.477,-4.24c3.208,-0.188 2.404,1.151 3.557,4.248Z" style="fill:#fbf3d7;"/><path d="M423.416,1566.561c6.1,4.903 5.935,4.778 12.079,9.656c-0.613,0.333 0.029,3.402 -4.495,2.441c-0.719,-0.153 -10.397,0.516 -10.341,-3.635c0.076,-5.596 -0.249,-5.585 -0.049,-6.024c0.513,-1.128 2.292,-1.311 2.806,-2.439Z" style="fill:#f6eede;"/><path d="M363.201,1426.557c1.255,0.402 11.646,3.733 15.677,5.072c-1.266,2.573 -1.083,3.26 -3.878,2.903c-2.209,-0.282 -12.738,2.409 -14.304,-1.723c-0.234,-0.617 0.873,-1.151 0.808,-1.808c-0.077,-0.771 -1.463,-1.276 -1.186,-2c0.45,-1.177 2.434,-1.266 2.884,-2.443Z" style="fill:#7e5c45;"/><path d="M1221.132,1448.647c-4.493,-2.615 -6.211,-4.26 -1.73,-7.16c6.281,-4.065 11.06,4.629 11.554,5.527c3.466,6.305 -2.686,1.916 -9.824,1.634Z" style="fill:#ebd8b9;"/><path d="M1190.887,1558.726c0.504,0.374 1.244,-1.071 1.747,-0.697c1.187,0.88 1.25,2.78 2.366,3.748c0.637,0.553 1.725,0.102 2.488,0.462c7.532,3.546 -10.28,6.651 -11.701,4.582c-1.445,-2.105 -1.426,-1.971 -2.95,-4.078c2.683,-1.339 5.366,-2.678 8.049,-4.017Z" style="fill:#e3c1af;"/><path d="M358.543,1507.31c5.658,-4.161 5.49,-4.447 12.457,-5.889c0.137,0.944 2.007,0.687 0.544,3.758c-0.384,0.807 -1.44,-0.059 -7.205,8.536c-1.932,-2.135 -3.864,-4.27 -5.796,-6.405Z" style="fill:#5c3328;"/><path d="M1023.442,1524.351c-4.725,-5.232 -5.305,-9.294 1.58,-8.621c7.848,0.768 9.081,12.869 -1.58,8.621Z" style="fill:#e3d3bb;"/><path d="M837.377,1602.204l5.373,1.575c0.665,1.73 0.71,1.513 1.238,3.221c1.001,3.245 0.075,3.19 -2.727,4.985c-5.356,-1.098 -7.335,0.199 -6.805,-2.985c0.135,-0.813 1.455,-1.176 1.454,-2c-0.005,-2.843 -1.518,-1.811 -1.46,-2c0.647,-2.112 2.281,-0.681 2.929,-2.796Z" style="fill:#d8ab7a;"/><path d="M1063.183,1575.362l-3.98,2.067c-3.771,-3.784 -5.456,-3.36 -4.529,-8.511c0.625,-3.471 5.967,-5.471 8.509,6.444Z" style="fill:#f9f8e7;"/><path d="M1438.123,1558.009l-4.704,3.57c-2.518,-2.639 -9.678,-7.813 -9.195,-8.579c3.048,-4.831 13.023,4.215 13.898,5.009Z" style="fill:#654039;"/><path d="M368.126,867.784l0.42,1.655c0.884,8.716 4.077,14.78 -1.58,11.668c-3.761,-2.069 -1.879,-3.249 -3.338,-6.107c-2.277,-4.46 0.628,-3.832 4.498,-7.216Z" style="fill:#bc976c;"/><path d="M1547.413,1490.744c1.082,-0.062 2.163,-0.124 3.245,-0.186c3.293,7.821 5.498,10.586 -2.554,13.109c-0.988,0.31 -1.891,-0.198 -0.691,-12.924Z" style="fill:#d6a66d;"/><path d="M1132.546,1590.03c2.921,8.236 1.051,8.538 0.368,8.648c-5.604,0.903 -5.439,0.102 -10.53,-2.437c5.102,-3.331 4.936,-3.253 10.162,-6.211Z" style="fill:#debba5;"/><path d="M1189.695,1509.974c-1.612,0.847 -3.224,1.693 -4.836,2.54c-0.128,-0.198 -3.652,-3.483 -2.443,-7.696c0.197,-0.686 5.605,-7.806 7.279,5.156Z" style="fill:#faf6dd;"/><path d="M433.888,1278.331c-10.751,10.431 -9.817,-0.629 -9.506,-1.331c1.873,-4.213 8.884,0.88 9.506,1.331Z" style="fill:#5f423c;"/><path d="M937.058,1731.006c3.485,-1.666 3.463,-1.955 3.755,-1.794c1.908,1.047 1.178,1.532 1.967,5.73c0.913,4.857 2.435,4.101 2.311,4.485c-0.219,0.68 -1.384,-0.377 -2.095,-0.451c-5.994,-0.617 -6.08,-1.933 -5.938,-7.97Z" style="fill:#703d2c;"/><path d="M1381.219,1341.187c3.94,1.535 4.176,1.636 4.984,5.729c0.071,0.359 0.772,3.91 -2.87,3.566c-6.497,-0.615 -2.457,-8.614 -2.114,-9.294Z" style="fill:#f7e7c7;"/><path d="M377.102,1489.269c-5.436,-1.109 -6.851,-2.469 -9.005,2.632c-0.184,0.436 1.1,0.65 0.916,1.086c-0.233,-0.244 -0.176,-0.032 -3.047,-2.918c4.955,-7.013 6.49,-4.912 11.139,-5.441c0.729,-0.083 1.866,-1.185 2.144,-0.506c0.169,0.413 -0.333,0.296 -2.147,5.147Z" style="fill:#e2c4b2;"/><path d="M561.208,1522.527c0.793,0.092 20.096,2.322 7.691,6.35c-5.9,1.916 -5.565,-0.587 -7.691,-6.35Z" style="fill:#dbbba0;"/><path d="M552.991,1456.208c5.537,0.784 5.602,0.537 5.974,0.846c5.254,4.361 -6.987,8.764 -6.998,2.156c-0.002,-1.057 1.026,-1.944 1.024,-3.002Z" style="fill:#fdf8e5;"/><path d="M991.21,1716.108c-0.56,0.978 -1.922,1.317 -2.482,2.295c-0.612,1.07 0.305,3.27 -0.886,3.589c-0.423,0.113 0.386,-1.448 -4.851,-2.527c-2.722,-0.561 -2.166,-3.974 0.261,-4.95c0.602,-0.242 0.57,0.158 7.958,1.592Z" style="fill:#8b5c46;"/><path d="M665.099,1648.446c0.504,0.085 8.389,1.417 5.064,3.896c-1.671,1.246 -13,-0.429 -6.969,-4.237c0.546,-0.344 1.36,0.686 1.905,0.341Z" style="fill:#e8c8af;"/><path d="M275.04,676.983c0.312,0.619 7.166,5.605 1.829,8.163c-0.313,0.15 -2.76,-1.423 -3.251,-2.39c-1.999,-3.94 1.396,-5.726 1.421,-5.773Z" style="fill:#c5959b;"/><path d="M1136.795,1520.441c0.282,0.579 7.456,15.273 -1.526,7.902c-3.478,-2.854 1.073,-7.445 1.526,-7.902Z" style="fill:#fdf9e3;"/><path d="M1547.413,1490.744l-2.147,-3.744c5.917,-3.479 8.461,-0.008 5.392,3.558c-1.082,0.062 -2.163,0.124 -3.245,0.186Z" style="fill:#e3ba8c;"/><path d="M1471.328,1050.925c-1.953,8.676 -6.848,-0.039 -4.407,-2.035c2.389,-1.953 2.462,-0.269 4.407,2.035Z" style="fill:#ded0ab;"/><path d="M1444.154,1519.069c1.627,-5.077 3.371,-7.986 5.973,-3.346c1.038,1.851 0.374,1.885 -1.099,3.361c-2.998,3.006 -4.529,-0.014 -4.875,-0.015Z" style="fill:#d2a988;"/><path d="M1341.015,1452.978c0.401,-0.368 10.038,-9.21 6.518,-1.922c-1.842,3.813 -2.674,3.699 -6.518,1.922Z" style="fill:#fbefd0;"/><path d="M863.046,1621.191c0.695,0.998 2.329,1.045 3.025,2.043c1.683,2.417 0.968,7.524 -3.071,4.001c-0.364,-0.318 -1.538,-1.341 0.046,-6.044Z" style="fill:#e5bd89;"/><path d="M1117.829,1692.181c-3.739,-0.796 -8.1,1.118 -4.856,-1.034c2.762,-1.831 7.555,-0.608 8.191,-0.445c4.204,1.073 -0.755,5.206 -2.164,4.121c-0.763,-0.588 -0.408,-2.054 -1.171,-2.642Z" style="fill:#693929;"/><path d="M1600.819,1297.213l2.191,-0.486c0.305,1.087 2.205,1.186 2.511,2.273c5.478,19.515 -4.579,-1.403 -4.701,-1.787Z" style="fill:#c4a177;"/><path d="M1161.095,1656.505c-0.622,-0.841 -2.141,-0.646 -2.763,-1.487c-2.396,-3.242 4.253,-6.278 4.188,-1.61c-0.004,0.273 -0.106,0.229 -1.426,3.097Z" style="fill:#d6b393;"/><path d="M790.691,1682.714c2.253,-0.17 2.663,-1.101 3.867,0.785c0.222,0.347 2.697,4.223 0.179,5.144c-2.611,0.956 -0.544,-1.371 -1.652,-3.815c-0.44,-0.97 -1.955,-1.144 -2.395,-2.114Z" style="fill:#dfbaa1;"/><path d="M289.38,1465.599c-5.766,5.238 -5.282,-0.25 -5.07,-0.599c1.564,-2.589 2.577,-2.469 2.877,-2.434c2.119,0.25 -0.012,2.772 2.194,3.033Z" style="fill:#895642;"/><path d="M882.088,1837.984c1.019,-0.224 1.892,-0.925 2.91,-1.15c3.614,-0.796 0.882,4.333 0.109,4.165c-1.39,-0.301 -1.629,-2.714 -3.019,-3.016Z" style="fill:#805043;"/><path d="M1452.196,599.764c1.07,0.534 2.139,1.069 3.209,1.603c-1.525,2.716 0.247,6.081 -2.324,4.14c-2.604,-1.966 -1.272,-2.506 -0.885,-5.743Z" style="fill:#d2a77a;"/><path d="M1281.118,1210.778c-1.788,-3.48 -2.011,-3.43 -1.931,-3.758c0.492,-2.023 4.638,-1.349 4.592,0.076c-0.037,1.158 -2.229,0.964 -2.907,1.903c-0.351,0.485 0.597,1.294 0.247,1.779Z" style="fill:#896150;"/><path d="M318.78,1383.191c-1.589,-4.085 -6.693,-4.882 -2.408,-6.191c0.508,-0.155 2.709,-0.828 2.408,6.191Z" style="fill:#6e473a;"/><path d="M461.165,1583.398c0.256,-0.193 3.042,-2.292 3.835,-1.136c0.241,0.351 0.256,4.935 0.086,4.822c-0.93,-0.617 -0.573,-2.283 -1.386,-3.048c-0.635,-0.597 -1.9,-0.042 -2.535,-0.639Z" style="fill:#633629;"/><path d="M470.434,1526.606c-0.524,0.788 1.88,1.707 1.356,2.495c-0.318,0.477 -9.707,-1.214 -1.356,-2.495Z" style="fill:#d7b399;"/><path d="M1624.96,1580.868c-0.216,3.022 0.394,5.533 -1.96,3.567c-1.041,-0.869 -0.793,-1.322 -0.731,-1.435c0.867,-1.578 1.751,-0.423 2.691,-2.132Z" style="fill:#653b35;"/><path d="M1195.004,1666.722c0.32,0.102 3.996,1.279 3.996,1.279c0.004,2.542 -1.79,1.968 -2,1.901c-2.105,-0.673 -0.048,-2.556 -1.996,-3.179Z" style="fill:#673e36;"/><path d="M317.025,637.086c2.25,-1.375 2.027,-4.429 3.413,-2.086c1.148,1.94 -0.601,1.217 -3.413,2.086Z" style="fill:#c49399;"/><path d="M1634.225,947.687c-1.162,-1.507 -2.06,0.431 -3.225,-1.079c-0.097,-0.125 -2.073,-2.687 1.152,-1.609c1.073,0.359 1,2.328 2.073,2.687Z" style="fill:#b9868b;"/><path d="M892.123,1741.859c0.031,0.428 0.894,0.466 0.925,0.894c0.057,0.782 -0.044,1.814 -0.698,2.247c-1.963,1.302 -0.054,-0.754 -0.227,-3.141Z" style="fill:#7f4734;"/><path d="M566.79,1510.196c2.576,-0.016 4.985,-2.264 3.483,-0.022c-0,0 -3.205,0.02 -3.483,0.022Z" style="fill:#7c4e37;"/><path d="M1220.736,1651.557c-1.952,0.335 -2.621,2.476 -2.935,0.504c-0.329,-2.067 1.028,-0.177 2.935,-0.504Z" style="fill:#7a4b38;"/><path d="M1507.771,936.643c2.073,1.709 2.136,1.638 2.239,1.846c0.158,0.317 -1.061,0.242 -0.904,0.559l-1.335,-2.405Z" style="fill:#dbaf7b;"/></g></svg>