<?xml version="1.0" encoding="UTF-8" standalone="no"?><!DOCTYPE svg PUBLIC "-//W3C//DTD SVG 1.1//EN" "http://www.w3.org/Graphics/SVG/1.1/DTD/svg11.dtd"><svg width="100%" height="100%" viewBox="0 0 1024 1024" version="1.1" xmlns="http://www.w3.org/2000/svg" xmlns:xlink="http://www.w3.org/1999/xlink" xml:space="preserve" xmlns:serif="http://www.serif.com/" style="fill-rule:evenodd;clip-rule:evenodd;stroke-linejoin:round;stroke-miterlimit:2;"><g id="Background"><path d="M288.845,294.045c25.94,-0.094 33.344,-1.556 50.314,31.581c4.317,8.43 6.554,5.295 15.695,6.2c3.725,0.369 4.209,1.856 6.843,-0.918c11.437,-12.043 13.543,-9.152 16.109,-12.431c1.696,-2.167 -14.2,-12.154 -10.538,-42.759c2.629,-21.969 15.119,-25.71 14.756,-29.353c-0.863,-8.668 -5.219,-35.588 15.201,-71.844c9.966,-17.695 36.963,-50.267 75.619,-65.004c20.947,-7.985 32.442,-7.445 32.602,-10.505c0.252,-4.842 -0.552,-4.815 1.169,-60.608c0.043,-1.408 0.821,-26.628 9.834,-14.296c12.018,16.444 23.397,39.259 25.365,39.159c2.482,-0.126 29.562,-35.469 36.028,-35.929c5.345,-0.381 5.94,5.951 16.522,32.187c4.964,12.309 4.039,15.367 7.576,13.647c15.22,-7.4 42.534,-27.539 45.427,-21.931c4.873,9.444 -19.382,58.36 -15.339,59.847c10.531,3.873 41.284,7.204 83.441,48.958c16.213,16.058 46.564,57.77 52.96,112.52c8.038,68.807 -20.928,121.071 10.644,145.917c13.122,10.327 36.337,4.3 37.529,5.004c4.39,2.59 19.799,46.584 -20.405,79.428c-8.326,6.802 -6.362,25.425 22.595,19.196c5.095,-1.096 4.979,2.091 3.541,9.485c-4.604,23.662 -23.794,37.752 -46.497,38.857c-8.577,0.417 -2.779,8.48 -18.228,20.502c-7.96,6.193 -16.723,5.358 -15.283,9.543c6.038,17.544 33.842,76.092 -2.701,100.173c-15.413,10.156 -37.087,6.075 -43.698,2.968c-6.882,-3.234 -0.059,3.033 9.424,18.585c9.478,15.545 54.561,89.483 84.116,212.983c2.089,8.728 -1.067,9.281 -19.587,19.847c-41.587,23.725 -220.139,82.802 -418.01,20.692c-52.01,-16.325 -97.06,-49.761 -96.821,-56.314c0.005,-0.13 9.476,-48.72 16.044,-75.172c40.25,-162.102 120.021,-221.956 120.183,-222.552c0.77,-2.84 -4.573,-23.223 -5.151,-54.479c-0.104,-5.598 -6.377,-1.729 -24.179,-8.68c-7.092,-2.769 -16.428,-8.912 -18.054,-8.563c-7.553,1.623 -98.908,39.315 -119.685,-73.749c-6.962,-37.888 0.865,-60.932 -6.533,-88.716c-2.023,-7.599 1.427,-10.463 -5.68,-13.047c-10.225,-3.717 -18.491,-23.113 -1.057,-32.783c2.709,-1.502 3.074,-19.632 22.032,-32.367c14.15,-9.506 43.066,-15.055 43.837,-15.143c5.998,-0.685 5.952,-0.347 12.041,-0.138Z" style="fill:#521d11;"/><path d="M410.853,644.526c0.911,0.636 7.348,5.135 11.327,8.04c-34.632,64.99 -40.114,152.813 -39.677,164.541c0.111,2.972 2.058,2.6 2.135,0.921c1.148,-25.067 9.982,-55.998 12.982,-67.958c12.108,-48.263 34.287,-91.355 34.3,-91.365c0.281,-0.203 0.663,0.616 0.944,0.413c1.991,1.11 18.29,10.198 25.107,13.448c-9.722,31.376 -16.956,104.829 -10.82,77.711c4.582,-20.248 21.585,-66.533 23.68,-72.235c14.776,-2.365 14.638,-2.552 35.007,-6.475c38.796,126.102 30.22,138.124 34.822,135.721c0.482,-0.252 1.737,-28.226 0.568,-46.742c-1.774,-28.095 -1.429,-43.093 -12.597,-94.378c7.794,-2.471 14.093,-5.1 14.431,-1.773c0.271,2.673 0.339,2.594 0.69,5.276l-0.922,0.277l-0.751,0.752l0.132,1.045l0.056,1.045l0.057,1.045c3.544,15.066 8.717,25.277 28.62,38.481c0.265,0.176 1.122,0.744 3.67,1.432c2.255,3.052 3.946,5.34 16.867,44.862c8.709,26.637 7.987,36.191 10.389,34.42c1.589,-1.172 -8.379,-50.443 -14.598,-70.183c-0.048,-0.153 -0.028,-0.146 -0.378,-1.969c4.667,1.984 18.334,6.735 19.938,7.292c14.337,4.983 15.029,8.002 21.54,9.84c1.873,2.288 1.688,2.294 3.053,5.051c8.015,19.853 13.053,30.971 17.532,48.801c7.73,30.771 0.568,-8.537 0.435,-9.266c-3.866,-21.216 -7.478,-32.784 -8.348,-35.57c1.607,0.295 3.458,0.635 15.624,13.705c9.759,10.484 44.614,88.198 62.105,175.436c1.257,6.27 1.308,6.186 2.536,12.442c0.198,1.011 2.38,12.126 2.541,12.628c0.181,0.566 0.943,0.785 1.125,1.351c-128.39,44.226 -324.301,42.974 -436.888,-27.87c1.194,-1.836 1.232,-1.801 1.29,-1.983c1.538,-4.827 -2.359,-5.526 8.423,-70.789c10.517,-63.664 43.094,-136.492 65.119,-170.281c19.517,-29.942 21.012,-28.796 23.716,-33.508l1.41,1.2c-10.059,16.806 -23.892,40.023 -27.813,78.192c-0.119,1.162 1.567,2.157 2.364,-1.09c12.714,-51.821 47.219,-90.36 48.255,-91.934Z" style="fill:#f68e9e;"/><path d="M622.512,133.474c0.702,0.434 0.288,1.148 2.229,1.378c8.012,0.951 62.183,17.537 96.664,72.121c18.733,29.656 29.949,67.83 31.234,91.689c0.908,16.857 4.534,-9.555 4.659,-10.469l0.094,-1.045l1.665,-1.048c5.624,51.721 -25.994,126.85 22.877,144.967c11.116,4.121 20.664,3.085 21.875,3.059c6.062,-0.129 7.083,-1.623 8.174,1.406c-3.741,3.49 -3.601,3.549 -7.294,7.179c-7.262,7.135 -27.468,14.644 -43.926,9.771c-40.555,-12.008 -42.391,-56.534 -43.65,-65.874c0.449,-0.822 21.794,-19.225 16.807,-47.221c-5.117,-28.727 -32.591,-26.523 -36.099,-26.241c-8.027,0.644 2.328,-8.873 -2.103,-11.132c-1.61,-0.821 -30.451,-4.394 -74.249,-39.468c-61.859,-49.537 -69.487,-92.973 -71.242,-102.971c-0.297,-1.688 -0.478,-3.397 -0.761,-5.088c-1.142,-6.808 -7.557,5.114 -28.878,20.473c-49.162,35.415 -102.234,43.257 -111.708,44.657c-7.499,1.108 -4.681,4.414 -5.907,12.168c-1.718,10.862 -0.54,12.128 -3.134,12.557c-9.182,1.519 -9.676,1.063 -9.763,-0.091c-5.909,-79.044 72.065,-128.237 112.729,-132.997c7.591,-0.889 -2.378,9.282 7.309,15.529c32.339,20.855 105.284,23.892 109.524,13.959c0.245,-0.574 0.213,-0.538 2.874,-7.264Z" style="fill:#cc6e3a;"/><path d="M414.961,236.836c60.883,-5.989 106.155,-35.516 116.796,-43.852c5.094,-3.991 5.611,-3.341 5.817,-2.849c0.761,1.815 6.288,26.727 39.151,60.543c4.275,4.399 26.822,27.599 60.217,46.702c9.302,5.321 39.756,18.838 44.584,18.455c1.489,-0.118 1.332,-0.538 2.869,-0.578c-1.9,6.32 -6.579,23.749 -14.768,42.859l-0.795,-0.103l-1,-1.23c-0.521,0.282 -1.382,0.748 -5.571,4.992c-0.483,0.49 0.082,8.131 -15.417,18.424c-1.149,-2.332 -1.718,-2.416 -1.96,-2.452c-3.675,-0.542 -3.61,0.399 -3.904,0.286c-2.075,-0.8 13.021,-17.247 4.559,-36.393c-11.562,-26.162 -38.655,-14.379 -38.708,-14.371l-1.344,0.952c-1.958,-2.148 -15.25,-16.728 -35.122,-5.267c-4.654,-8.532 -21.331,11.219 -78.526,-4.571c-11.89,-15.121 -17.379,-5.657 -19.674,-9.57c-0.185,-0.315 -6.749,-22.486 -28.303,-17.333c-4.816,1.151 -4.666,1.471 -8.836,4.334c-9.573,-11.074 -16.219,-13.091 -28.867,-7.258c-1.341,-1.736 -2.125,-1.517 -1.706,-3.515c4.206,-20.052 7.835,-19.235 10.507,-48.205Z" style="fill:#fcd4a3;"/><path d="M618.74,689.203c22.815,-4.608 21.682,-8.489 27.051,-9.386c1.66,-0.277 4.593,0.921 12.051,0.736c7.533,-0.187 47.802,56.913 71.128,110.264c6.006,13.738 22.797,47.169 45.062,127.513c4.616,16.659 4.88,18.539 3.489,19.505c-17.89,12.423 -48.176,23.201 -52.541,24.754c-0.181,-0.566 -0.943,-0.785 -1.125,-1.351c-0.161,-0.503 -2.343,-11.617 -2.541,-12.628c-1.228,-6.256 -1.279,-6.172 -2.536,-12.442c-17.492,-87.238 -52.346,-164.952 -62.105,-175.436c-12.166,-13.07 -14.017,-13.41 -15.624,-13.705c-8.761,-29.472 -13.681,-37.084 -22.307,-57.824Z" style="fill:#d76980;"/><path d="M717.115,386.606c1.258,9.339 3.094,53.866 43.65,65.874c16.458,4.873 36.664,-2.636 43.926,-9.771c3.694,-3.629 3.553,-3.689 7.294,-7.179c4.319,9.24 6.107,42.222 -23.852,63.207c-11.315,7.926 -9.016,34.981 24.687,32.369c0.137,-0.011 1.282,-0.099 1.585,0.683c0.361,0.935 -3.1,5.835 -3.43,6.302c-6.386,1.366 -4.552,6.533 -27.165,11.296c-0.418,0.088 -16.562,1.567 -30.72,-6.708c-2.734,-1.598 -15.682,-9.167 -27.865,-28.744l-1.818,0.26c-7.851,-17.714 -22.429,-47.215 -59.483,-55.111c-25.406,-5.414 -38.091,5.635 -41.903,3.299c-26.904,-16.486 -33.922,-11.809 -30.781,-15.95c2.567,-3.384 38.387,-7.468 72.278,-58.162c1.673,-2.503 1.974,-5.782 5.877,-2.398c18.064,15.657 40.182,3.92 43.273,2.279c2.123,-1.126 2.017,-1.358 4.447,-1.545Z" style="fill:#8c4126;"/><path d="M230.803,375.549c3.201,5.173 2.984,5.427 8.129,8.577c12.552,7.686 20.119,3.215 21.979,2.661c2.895,-0.863 3.389,1.431 5.721,-0.618c2.929,-2.573 2.822,-2.832 17.128,-7.325l1.071,0.799c0.695,0.338 0.985,-0.217 3.906,2.737c4.054,4.1 5.358,-1.532 9.102,-2.188c5.831,-1.02 5.816,0.023 8.122,2.785c0.15,0.179 2.607,1.51 2.837,1.634c1.406,0.761 1.462,-0.728 3.032,-0.201c0.562,0.189 0.628,1.18 1.19,1.369c-8.643,5.06 -8.735,4.768 -16.92,10.48c-5.883,4.106 -7.162,5.143 -14.109,7.336c-17.499,5.525 11.935,0.986 12.162,1.169c0.891,0.719 0.306,35.538 16.978,66.137c13.597,24.956 11.333,27.339 13.691,27.284c1.432,-0.033 0.589,-4.883 0.573,-5.135c2.081,1.313 7.71,4.867 30.295,-2.465c3.181,-1.032 2.332,-2.84 2.333,-2.843c0.555,2.696 6.412,22.497 -4.574,41.623c-3.669,6.387 -7.165,14.156 -46.599,18.392c-3.331,-4.839 -4.15,-3.643 -7.073,-4.347c-1.79,-0.431 -15.556,-3.744 -21.634,-8.032c-43.509,-30.691 -38.301,-118.021 -38.443,-129.09c-0.033,-2.552 -0.936,-2.073 -6.628,-8.534c-2.588,-3.823 -1.769,-4.548 -5.461,-7.128c-3.607,-12.09 -3.442,-12.677 -3.138,-13.763c0.353,-1.259 0.85,-0.716 6.328,-1.314Z" style="fill:#f9b57c;"/><path d="M443.766,465.835c4.844,5.244 3.51,6.844 9.287,9.477c-0.903,3.337 -6.486,18.21 5.985,30.027c23.497,22.266 67.257,15.133 67.555,15.285c1.503,0.769 3.887,29.97 9.27,73.78c-1.457,-1.192 -1.269,-1.655 -3.137,-1.537c-9.843,0.625 -23.22,-0.819 -27.899,-1.568c-38.937,-6.234 -88.707,-10.236 -99.699,-34.516l-0.949,-0.998c0.592,-6.819 0.588,-6.775 0.64,-7.364c2.81,-31.73 35.216,-78.848 38.947,-82.586Z" style="fill:#fa94a6;"/><path d="M404.179,555.786l0.949,0.998c10.992,24.28 60.762,28.282 99.699,34.516c4.679,0.749 18.057,2.193 27.899,1.568c1.868,-0.119 1.68,0.345 3.137,1.537c0.253,2.34 1.796,16.583 3.123,29.249c2.454,23.423 2.28,23.502 1.975,24.151c-1.153,2.454 -57.327,14.757 -67.167,16.374c-6.059,0.996 -55.423,-27.712 -67.216,-37.933c0.084,-0.689 1.298,-0.812 1.382,-1.501c0.515,-4.202 -6.739,-16.568 -3.782,-68.959Z" style="fill:#e97e8e;"/><path d="M653.846,531.806c-1.968,0.785 -1.925,0.731 -2.089,0.802c0.169,0.731 -0.505,1.499 -0.336,2.23c0.116,0.501 0.802,0.627 1.094,1.043c0.803,1.146 -0.073,1.039 -1.357,1.438c-15.726,8.43 -27.87,6.193 -40.316,8.333c-2.339,-0.032 -4.679,-0.063 -7.018,-0.095l-3.992,-0.32c-2.991,-0.066 -5.983,-0.133 -8.974,-0.199c-6.122,-0.574 -14.439,-0.223 -26.941,-2.345c-4.565,-0.775 -3.217,1.896 -2.796,6.653c0.081,1.685 0.882,18.328 1.729,21.016c0.717,2.276 17.024,5.305 34.981,5.2c16.33,-0.095 16.389,-0.331 19.427,-1.95c-0.597,3.655 -0.473,3.567 -0.333,7.216c-0.478,0.009 -17.539,2.386 -41.118,-0.883c-10.672,-1.48 -12.35,-3.081 -12.251,-0.185c0.676,19.841 2.94,42.322 3.309,45.992c0.19,1.727 0.379,3.454 0.569,5.181c0.138,2.804 0.275,5.607 0.413,8.411c0.952,9.483 0.943,9.377 1.404,18.837c0.036,0.278 0.906,7.036 -2.026,2.787c-0.93,-1.348 -2.543,-16.856 -3.02,-20.574c-0.3,-2.143 -0.601,-4.285 -0.901,-6.428c-0.146,-2.387 -0.292,-4.774 -0.438,-7.161c-1.153,-12.49 -5.245,-49.129 -5.729,-50.326c-0.461,-1.141 -8.463,-4.864 -8.356,-1.936c0.139,3.783 1.101,3.671 4.732,47.067c0.069,0.821 1.072,8.662 1.168,9.415c0.353,2.636 0.427,2.517 0.789,5.147c0.099,0.76 0.677,5.224 1.095,9.517c1.686,18.365 1.37,18.503 2.325,19.743c6.307,8.195 32.998,9.874 35.972,10.061c21.854,1.375 26.379,-2.705 28.098,-4.256c10.336,5.762 15.249,5.244 11.694,6.458c-23.547,8.037 -72.584,4.888 -81.754,-7.053c-1.851,-2.41 -8.247,-70.68 -13.2,-108.618c-0.458,-3.512 -5.183,-39.699 -5.414,-43.939c-1.178,-21.645 120.822,-21.915 128.786,0.993c1.46,4.199 -3.08,34.194 -3.54,36.596c-0.803,4.193 -2.451,2.338 -7.671,2.898c0.3,-1.543 0.893,-4.588 2.258,-19.538c0.718,-4.105 2.708,-4.768 -0.272,-7.228Z" style="fill:#eff3f8;"/><path d="M403.59,638.495c-10.848,12.386 -14.529,19.033 -15.543,20.864l-1.41,-1.2c-2.704,4.712 -4.199,3.566 -23.716,33.508c-22.025,33.789 -54.601,106.617 -65.119,170.281c-10.782,65.263 -6.884,65.963 -8.423,70.789c-0.058,0.182 -0.096,0.147 -1.29,1.983c-23.269,-17.505 -22.117,-19.168 -21.921,-20.468c12.172,-80.548 46.88,-185.645 97.034,-247.409c2.408,-2.965 28.624,-35.249 32.601,-34.679c0.99,0.142 0.864,0.39 7.785,6.331Z" style="fill:#fbd0cf;"/><path d="M624.404,573.309c2.141,1.092 2.155,0.999 4.464,0.716c17.317,-2.127 22.05,-1.764 23.966,-1.616c14.638,1.125 33.053,0.825 31.673,57.511c-0.317,13.002 -7.843,29.6 -6.751,31.366c0.359,0.58 1.096,0.828 1.454,1.408c-17.367,21.553 -55.776,5.689 -56.598,-5.561c-0.641,-8.774 9.626,-3.822 17.186,-2.879c1.01,0.126 2.032,0.131 3.042,0.257c1.933,0.023 21.994,0.26 23.732,-4.771c1.449,-4.194 -8.066,0.971 -29.779,-2.842c-29.793,-5.231 -21.589,-23.641 -11.95,-22.289c3.461,0.485 38.416,5.386 43.633,-1.263c5.639,-7.187 -19.868,-0.501 -40.588,-6.159c-1.436,-0.392 -17.362,-4.741 -9.354,-16.748c5.056,-5.012 9.752,-3.479 16.304,-3.059c1.63,0.105 26.192,1.443 32.996,-0.877c5.386,-1.836 3.248,-5.058 -2.094,-6.987c0.114,-0.205 2.201,-1.35 0.091,-2.66c-2.818,-1.751 -3.555,-2.024 -3.887,-2.146c-8.337,-3.087 -15.772,-1.43 -17.113,-1.131l-1,-0.471l-1,0.049l-1,0.054l-0.881,0.745l-1.119,0.42l-0.76,0.625l-1.24,0.377l-1,-0.22l-1,-0.151l-1.063,1.477c-3.47,-0.713 -13.608,-2.462 -10.365,-13.175Z" style="fill:#fbc28b;"/><path d="M612.662,77.737c-1.409,17.491 -6.278,18.738 -7.746,29.916c-6.111,0.943 -21.493,-0.264 -29.085,-1.308c-40.112,-5.517 -46.457,-10.891 -61.349,-16.641c0.001,-3.955 0.016,-49.333 1.271,-49.42c2.497,-0.173 18.923,33.81 22.966,35.072c5.285,1.649 4.747,-1.489 34.263,-32.606c0.269,-0.284 3.603,-3.798 4.404,-1.955c8.898,20.479 7.092,21.22 16.33,41.576c2.65,5.84 9.266,0.655 18.945,-4.635Z" style="fill:#fdc951;"/><path d="M501.893,354.366c20.131,-8.315 31.297,5.763 33.027,7.945c0.257,1.294 0.406,1.189 0.676,2.446c1.06,3.45 2.52,10.26 2.713,11.158l-1.681,1.11c-1.619,11.323 -11.971,17.93 -23.718,15.255c-2.658,-0.605 -2.595,-0.619 -5.32,-0.465c-0.073,-0.201 -4.259,-8.947 -2.561,-0.187c1.546,7.976 18.829,19.403 33.723,-2.149c1.734,2.417 1.875,2.187 4.205,3.849c-2.492,1.336 -2.329,1.79 -5.125,1.95l-1,0.716c-7.463,13.303 -16.432,7.079 -19.286,10.01c-0.406,0.417 -0.7,0.941 -1.106,1.358c-0.249,-0.261 -0.498,-0.523 -0.746,-0.784c-0.283,-0.088 -0.566,-0.177 -0.849,-0.265c-1.142,2.071 -1.151,2.002 -1.65,4.395c-0.511,-0.047 -0.553,-1.41 -3.134,0.156c-1.714,1.04 -15.972,9.688 -23.709,-7.513c-0.565,-1.256 0.261,-1.73 -0.926,-2.287c-0.543,-0.255 -1.243,0.243 -1.786,-0.013c0.083,-0.67 0.989,-7.986 1.085,-8.373c1.604,-6.506 5.459,-7.728 5.444,-7.9c-0.158,-1.898 -0.953,-1.871 -2.349,-0.664c-3.739,3.234 -5.159,3.263 -6.758,13.879l-1.229,0.291l-0.58,0.689c-7.48,10.867 -25.726,15.445 -33.119,-3.292c-0.219,-0.554 -0.931,-2.36 -4.159,-6.102c1.622,-9.063 3.198,-8.693 5.989,-12.412c1.806,-2.758 1.802,-2.642 1.947,-2.88c15.579,-4.942 18.382,2.727 23.857,-2.562c0.967,-0.935 8.256,-7.976 15.192,-6.646c2.831,0.543 -4.493,9.99 1.985,17.075c4.49,4.91 10.708,-5.61 5.962,-2.79c-5.008,2.976 -6.154,0.541 -6.201,-5.469c-0.046,-5.818 3.689,-11.579 4.256,-12.455c1.82,-2.743 1.944,-2.567 4.279,-4.841c1.456,-0.972 1.414,-0.875 2.653,-2.232Z" style="fill:#fcfcfd;"/><path d="M412.866,227.674c1.946,-0.389 45.383,-5.538 83.715,-25.701c36.944,-19.434 45.083,-34.828 46.27,-31.891c0.412,1.019 4.448,37.69 53.947,84.706c46.186,43.868 86.587,53.506 86.934,53.622c3.825,1.28 1.545,2.717 0.663,6.848c-1.537,0.039 -1.38,0.46 -2.869,0.578c-4.828,0.383 -35.282,-13.134 -44.584,-18.455c-33.395,-19.103 -55.942,-42.303 -60.217,-46.702c-32.863,-33.815 -38.389,-58.727 -39.151,-60.543c-0.206,-0.492 -0.723,-1.142 -5.817,2.849c-10.641,8.336 -55.914,37.863 -116.796,43.852c-1.275,-4.044 -0.115,-4.256 -1.558,-8.214l-0.537,-0.947Z" style="fill:#fab87f;"/><path d="M616.399,482.377c0.578,0.242 0.879,0.98 1.457,1.222c0.539,0.226 0.532,0.008 8.205,-3.638c21.242,-10.092 48.839,-5.64 59.86,3.457c3.46,2.856 3.297,4.829 7.314,2.938c10.145,10.499 16.528,24.203 17.61,26.526c-1.254,1.559 -1.887,2.166 -1.502,3.142c1.568,3.983 0.635,4.088 0.863,8.314c1.223,22.764 -26.581,26.168 -40.739,18.866c2.185,-20.52 9.122,-36.892 -28.602,-45.098c-19.718,-4.289 -30.519,-2.896 -29.226,-6.176c1.727,-4.381 4.33,-8.817 4.761,-9.552Z" style="fill:#f994a4;"/><path d="M695.708,634.096l1.125,-1.02l0.998,-1.546c24.965,4.226 37.18,14.071 48.384,29.364c0.537,0.733 0.639,0.587 0.725,1.288c0.236,1.924 1.292,0.587 2.297,0.181c-1.624,36.683 -37.279,48.418 -75.096,17.337c-6.096,-5.01 3.275,-3.972 12.209,-18.722c6.688,-11.042 8.694,-24.068 9.358,-26.88Z" style="fill:#f8b981;"/><path d="M434.15,300.074c8.718,-7.843 17.448,-8.1 23.835,-4.917c14.006,6.98 9.871,17.831 13.864,17.234c10.497,-1.569 10.865,-0.258 18.668,8.242c0.446,1.374 0.893,2.748 1.339,4.122c0.021,0.23 0.118,0.126 0.611,2.821c0.417,2.283 -2.657,10.389 -3.153,10.986c-0.154,0.185 -0.179,0.127 -2.423,1.721c-22.707,-7.815 -23.256,-4.038 -56.062,-2.112c-1.215,-1.8 -1.084,-1.808 -2.646,-3.396l-0.415,-0.494c-4.808,-3.881 -4.905,-4.016 -6.13,-9.429c-1.71,-4.898 -2.746,0.725 -2.791,0.967c0.129,1.385 0.258,2.77 0.387,4.155c-1.024,0.72 -9.6,6.752 -14.487,5.559c-6.495,-1.585 -8.634,-5.769 -9.05,-6.582l-0.505,-1.045l-0.678,-1.045l-0.283,-1.045l-0.377,-1.045l-0.448,-1.045l-0.574,-0.552c-0.395,0.554 -0.791,1.107 -1.186,1.661c-1.478,-7.044 -1.959,-8.638 1.713,-17.072l1.634,0.286c3.723,-6.988 13.768,-11.974 22.854,-9.459c13.123,3.632 8.464,8.35 9.333,11.424c1.233,4.363 2.18,-3.378 5.008,-7.938c0.152,-0.166 0.946,-1.034 1.963,-2.002Z" style="fill:#f3f7fc;"/><path d="M622.512,133.474c2.326,-6.824 3.837,-13.324 6.363,-12.892c18.452,3.157 111.224,39.095 128.063,148.783c0.205,1.333 1.181,7.691 2.121,16.735l-1.665,1.048l-0.094,1.045c-0.126,0.914 -3.751,27.326 -4.659,10.469c-1.286,-23.859 -12.501,-62.033 -31.234,-91.689c-34.481,-54.585 -88.652,-71.17 -96.664,-72.121c-1.941,-0.23 -1.527,-0.944 -2.229,-1.378Z" style="fill:#f2a064;"/><path d="M407.796,421.744c0.385,0.697 -0.317,1.422 3.216,3.035c2.832,1.293 3.573,0.89 8.725,6.679c0.798,0.896 5.753,6.464 4.462,14.576c-5.226,32.839 -38.406,37.464 -41.864,39.032c-5.342,-17.993 -9.122,-27.737 -27.585,-43.999c22.571,-18.95 48.552,-19.268 53.046,-19.322Z" style="fill:#f994a5;"/><path d="M605.487,328.222l1.344,-0.952c0.053,-0.008 27.146,-11.791 38.708,14.371c8.462,19.147 -6.634,35.593 -4.559,36.393c0.294,0.113 0.229,-0.827 3.904,-0.286c0.242,0.036 0.811,0.12 1.96,2.452c15.5,-10.294 14.934,-17.935 15.417,-18.424c4.189,-4.244 5.05,-4.71 5.571,-4.992l1,1.23l0.795,0.103c-27.588,64.275 -75.916,78.324 -83.897,81.308l-0.339,-0.737l-0.524,-1.045c-3.924,-3.502 -17.346,3.213 -32.035,4.14c-1.302,0.082 -2.377,1.249 -2.963,1.176c-0.379,-0.047 -0.685,-0.663 -1.037,-0.508c-0.515,0.227 -0.592,1.007 -1,1.406c-0.724,0.71 -0.92,0.599 -1,0.554c-1.1,-0.622 -0.345,-1.314 -1.43,-1.927c2.356,-4.265 2.083,-4.305 3.45,-9.01c1.293,-4.451 9.73,-6.248 13.833,-3.91c12.862,7.327 25.973,0.853 30.083,-2.464c8.81,-7.11 13.638,0.187 20.941,-9.41c5.061,-6.651 5.307,-21.973 5.338,-23.939c0.04,-2.514 5.957,-3.334 12.489,-8.753c9.57,-7.94 4.406,-23.55 4.295,-23.562c-0.357,-0.04 -0.204,1.001 -0.561,0.961l-1.164,1.07c-0.026,-3.165 0.078,-3.097 -0.193,-6.312c-1.505,-5.325 -3.857,-15.603 -18.082,-17.741c-3.461,-3.954 -2.508,-5.822 -7.384,-6.129c-0.724,-1.583 -2.706,-4.667 -2.959,-5.061Z" style="fill:#fbc391;"/><path d="M470.95,460.715c9.989,12.331 39.098,26.292 75.894,21.965c20.115,-2.365 21.833,-6.845 26.167,-5.207c-17.368,22.149 -20.125,19.111 -34.075,24.215c-2.245,0.821 -13.409,8.793 -40.064,5.592c-47.372,-5.69 -34.91,-32.67 -33.239,-36.289c2.448,-5.299 2.526,-5.191 5.316,-10.277Z" style="fill:#fcd3a2;"/><path d="M569.259,325.214c0.141,0.015 0.767,1.874 2.346,0.245c0.033,-0.034 0.174,-0.18 0.481,-0.33c2.047,-1.005 12.416,-7.536 24.576,-1.036c9.339,4.992 11.594,14.627 12.226,16.321c1.615,4.328 17.573,-4.865 22.39,17.784l-1.113,1.063c-0.111,0.328 -1.533,11.196 -10.387,14.454c-6.754,2.485 -9.987,-3.089 -10.447,-3.881c0.273,-1.037 2.786,-10.563 -1.663,-13.329c-2.959,-1.84 -0.054,4.253 0.027,5.876c0.227,4.587 -2.916,9.147 -3.383,9.824l-1.479,-0.721l-1,-0.42l-1,0.409c-9.039,3.259 -9.25,2.258 -10,2.615c-0.558,0.266 -0.854,0.966 -1.412,1.232c-3.573,-4.888 -7.385,-8.148 -15.583,-7.79c0.003,-0.38 0.812,-2.805 -2.434,-6.789c-4.677,-5.742 -5.709,-5.004 -9.128,-14.021l-1.606,-1.049c1.533,-6.315 2.886,-6.39 1.234,-10.365c0.44,-0.972 -0.171,-2.768 7.356,-10.091Z" style="fill:#fcfdfd;"/><path d="M535.583,454.165c-0.013,0.549 1.046,0.695 1.033,1.243c-0.005,0.216 -0.78,-0.293 -1.444,2.241c-0.472,-0.061 -0.944,-0.121 -1.416,-0.182c-0.921,1.436 -0.759,1.451 -0.885,3.176c-0.662,3.625 -0.911,3.651 0.205,7.169c1.71,1.891 1.575,1.923 3.753,3.274c2.059,1.041 2.085,1.974 8.796,0.538c3.706,-2.269 4.496,-5.056 4.658,-5.627c0.659,-2.617 0.535,-2.58 0.328,-5.314c-0.412,-1.369 -0.824,-2.737 -1.236,-4.106c-0.641,0.045 -1.282,0.09 -1.924,0.134c-0.285,-2.395 -0.384,-2.342 -0.376,-2.548c13.816,0.87 32.923,-6.696 33.558,-2.885c2.131,12.787 -6.679,24.628 -7.623,26.194c-4.335,-1.638 -6.053,2.842 -26.167,5.207c-36.797,4.326 -65.905,-9.634 -75.894,-21.965c6.851,-11.35 5.986,-13.817 9.93,-12.842c4.284,1.059 38.876,9.612 54.704,6.293Z" style="fill:#f9b479;"/><path d="M356.771,392.062c-7.835,-1.874 -8.585,-5.61 -10.91,-5.862c-3.095,-0.335 -8.067,17.486 2.434,34.463c1.759,2.844 -2.224,2.762 -16.071,17.386c-7.819,8.259 -8.436,7.749 -19.438,9.553c-4.517,0.74 -12.032,-32.886 -9.227,-45.571c1.312,-5.934 28.532,-10.86 24.379,-29.208c-0.838,-3.7 0.521,-3.555 2.934,-3.874c3.559,-0.47 16.008,-3.115 16.869,-0.249c0.316,1.052 0.529,2.136 0.858,3.183c4.864,15.466 20.296,21.242 8.171,20.179Z" style="fill:#fcfcf9;"/><path d="M616.924,580.829c1.274,3.769 1.157,3.75 3.337,7.004c2.516,3.754 -0.797,3.043 -4.208,5.831c-13.044,10.663 -1.327,26.103 -1.67,26.649c-3.471,5.505 -3.909,5.282 -5.439,11.726l-1.113,1.08c-0.399,0.069 -0.601,0.648 -1,0.717c-10.12,1.752 -13.989,-3.506 -38.985,5.508c-0.138,-2.804 -0.275,-5.607 -0.413,-8.411c10.867,-0.989 10.529,-3.212 30.394,-4.269c3.596,-0.191 3.506,-0.136 7.063,-0.777c0.169,0.021 2.116,0.26 2.116,0.26c0.118,-0.598 -1.208,-0.835 -1.09,-1.432l-0.701,-1.076c-0.548,-1.428 -1.462,-3.812 -18.335,-1.567c-10.996,1.463 -10.806,2.123 -20.014,3.68c-0.369,-3.669 -2.633,-26.151 -3.309,-45.992c-0.099,-2.896 1.579,-1.294 12.251,0.185c23.579,3.269 40.64,0.892 41.118,0.883Z" style="fill:#46abcd;"/><path d="M534.919,362.311c7.558,1.146 10.058,-9.267 25.013,0.924c7.085,8.702 6.832,13.475 9.058,9.799c2.371,-3.916 15.039,-5.015 20.188,6.965c1.067,2.483 1.905,0.607 6.667,0.417c0.237,-0.009 0.217,-0.039 2.924,-0.521l1.061,0.615l1,0.184c1.392,1.136 13.741,11.213 6.509,22.047c-2.842,4.257 -6.688,1.792 -7.188,1.472c-0.091,-13.235 -3.737,-12.313 -4.226,-11.472c-0.296,0.508 0.834,0.447 1.204,7.33c-7.728,5.903 -16.074,18.926 -35.083,9.937c-4.28,-2.024 -3.903,-4.896 -9.42,-5.696c-4.349,-11.005 1.859,-10.594 1.989,-14.701c0.104,-3.28 -5.32,2.861 -5.671,3.259c-2.706,-1.49 -3.971,-1.741 -4.338,-1.813c0.048,-0.805 0.86,-0.211 0.908,-1.026c0.008,-0.131 0.006,-0.109 -0.763,-1.437c-3.364,-5.807 2.191,-8.679 -4.012,-20.925c-2.495,-2.88 -2.537,-3.231 -5.145,-2.908c-0.27,-1.257 -0.42,-1.152 -0.676,-2.446Z" style="fill:#fcfdfd;"/><path d="M407.796,421.744c9.095,0.265 19.82,3.575 20.037,3.657c1.119,0.417 1.05,-0.152 2.204,-0.319c0.097,0.189 0.824,-0.147 1.211,2.966l0.533,0.214c0.514,0.896 -0.105,1.006 0.372,1.838c0.261,0.455 0.471,-0.202 0.767,0.148c0.194,0.229 -0.084,0.694 0.126,0.907c0.21,0.214 0.663,-0.105 0.873,0.109c0.307,0.379 0.614,0.758 0.921,1.138c2.9,1.705 3.055,1.026 6.379,1.528l0.628,-0.451c-0.001,5.629 6.428,9.077 4.497,11.067c-2.678,2.759 -29.22,22.798 -49.803,70.299c-9.198,21.227 -7.534,37.874 -10.754,38.43c-6.412,1.107 -19.14,-4.37 -20.714,-5.047c6.21,-7.91 23.258,-19.832 17.262,-63.161c3.459,-1.568 36.638,-6.193 41.864,-39.032c1.291,-8.112 -3.664,-13.68 -4.462,-14.576c-5.152,-5.789 -5.893,-5.386 -8.725,-6.679c-3.532,-1.613 -2.83,-2.338 -3.216,-3.035Z" style="fill:#dd7286;"/><path d="M723.407,514.195l1.818,-0.26c12.183,19.578 25.132,27.147 27.865,28.744c14.158,8.276 30.302,6.796 30.72,6.708c22.613,-4.763 20.779,-9.93 27.165,-11.296c-0.439,5.381 -13.159,25.074 -39.133,24.604c-4.363,-0.079 -4.781,0.182 -6.392,4.349c-2.693,6.964 -8.788,21.308 -24.642,24.11c-1.579,0.279 -3.071,0.543 -9.011,-18.68c-2.744,-8.88 3.375,-24.125 -8.39,-58.28Z" style="fill:#6e311f;"/><path d="M528.632,666.167c11.167,51.286 10.823,66.283 12.597,94.378c1.169,18.517 -0.086,46.491 -0.568,46.742c-4.602,2.403 3.974,-9.619 -34.822,-135.721c11.392,-2.756 11.287,-2.884 22.793,-5.399Z" style="fill:#d4596d;"/><path d="M590.857,545.038c2.991,0.066 5.983,0.133 8.974,0.199c2.003,0.463 1.907,0.513 3.992,0.32c2.339,0.032 4.679,0.063 7.018,0.095c10.774,2.986 11.005,1.417 21.922,4.102c16.885,4.152 16.116,6.784 17.032,8.864c-32.193,1.537 -31.807,13.177 -32.539,14.994c-3.038,1.619 -3.097,1.855 -19.427,1.95c-17.957,0.105 -34.264,-2.924 -34.981,-5.2c-0.847,-2.688 -1.648,-19.331 -1.729,-21.016c0.42,0.076 0.477,0.877 0.898,0.953c1.014,0.184 1.628,-2.444 17.793,-3.404c0.406,0.027 3.594,0.242 5.086,-0.213c0.377,0.098 4.095,1.066 4.855,0.221c0.213,-0.237 -0.149,-0.735 0.063,-0.971l1.042,-0.893Z" style="fill:#8bf5f9;"/><path d="M710.845,512.882c1.619,3.748 12.832,29.702 10.784,50.156c-0.619,6.18 -29.826,19.707 -33.407,14.382c-4.53,-6.736 -5.219,-11.594 -19.444,-17.363c-2.836,-1.15 -0.832,-7.727 0.688,-16.853c14.158,7.302 41.962,3.898 40.739,-18.866c-0.227,-4.226 0.705,-4.331 -0.863,-8.314c-0.384,-0.977 0.248,-1.583 1.502,-3.142Z" style="fill:#df7689;"/><path d="M261.835,313.314c0.186,-5.911 2.632,-3.684 4.06,-3.43c0.153,0.027 0.143,-0.007 1.936,-0.092c12.447,-2.671 24.908,-0.864 26.58,1.865c4.131,6.743 2.294,12.019 7.161,15.205c0.564,0.369 1.276,0.538 1.726,1.051c0.227,0.258 -0.113,0.787 0.114,1.045l0.159,3.134c-0.099,3.068 -1.192,37.049 -18.65,33.055c-4.832,-1.105 2.266,-13.797 0.456,-29.857c-1.236,-10.969 -7.812,-17.264 -8.977,-18.379c-6.345,-6.074 -7.798,-3.449 -8.141,-2.828c-0.959,1.916 -1.442,1.785 -1.077,3.347c0.979,4.189 0.862,4.145 1.871,8.347c-1.538,2.472 -1.757,2.961 0.512,5.52c3.726,2.613 3.816,2.589 8.266,2.383l1,0.295l1.21,0.176l0.135,1.057c-0.795,0.536 -6.753,4.556 -11.392,3.329c-3.874,-1.025 -4.708,-23.032 -17.994,-14.702c-7.579,-2.939 -0.041,3.727 0.189,3.93c-1.528,1.534 -2.586,1.168 -2.019,3.281c1.135,4.226 1.208,4.147 1.804,8.448c3.37,1.01 3.488,1.549 6.515,-0.181c0.205,1.073 0.411,2.147 0.616,3.22c-4.843,0.567 -11.218,5.143 -12.37,0.111c-1.355,-5.923 -3.655,-6.465 -16.932,-19.063c4.566,-5.274 6.297,-5.853 8.087,-7.394c0.788,0.412 0.408,1.334 2.149,1.124c0.575,-0.07 3.269,2.347 4.048,1.923c2.511,-1.367 2.145,-2.211 5.019,-2.372c7.273,-0.409 6.686,-3.548 13.937,-3.547Z" style="fill:#fac792;"/><path d="M514.244,94.885c4.574,-1.724 6.879,4.599 15.52,5.373c1.869,0.168 1.854,0.219 3.067,1.767c-0.992,0.056 -9.583,0.541 -8.337,9.616c2.005,14.605 24.093,3.691 13.306,-7.358c1.97,-0.769 1.965,-0.486 3.978,0.242c3.852,1.393 18.386,3.853 19.995,4.126c0,0 1.864,1.608 2.026,1.748c-1.678,0.185 -1.619,0.056 -3.162,0.846c-0.407,0.336 -3.479,2.87 -3.709,5.56c-1.005,11.727 18.267,14.604 16.142,-1.143c-1.662,-3.034 -1.461,-3.222 -4.398,-4.823c3.385,-1.579 3.45,-0.103 7.191,0.25c0.959,0.09 8.798,0.828 11.995,1.03c1.702,0.107 3.463,-0.217 5.109,0.248c0.587,0.165 0.528,1.342 1.114,1.508c-1.404,1.246 -1.307,1.264 -2.492,2.768c-4.312,7.776 3.333,12.192 4.235,12.713c-1.061,3.881 -2.003,3.821 -0.957,7.627c-1.207,-0.023 -33.992,1.504 -68.887,-12.252c-0.979,-0.386 -10.737,-4.233 -11.726,-6.045c-0.102,-0.187 -0.226,-0.099 -0.009,-23.8Z" style="fill:#fbc84f;"/><path d="M345.893,345.663c10.199,-5.381 48.341,7.181 108.933,0.982c25.485,-2.608 29.159,4.247 40.006,4.951c1.284,0.083 1.052,-0.492 2.198,-1.028c3.564,2.302 3.429,2.413 4.864,3.799c-1.24,1.358 -1.197,1.26 -2.653,2.232c-0.184,-0.088 -2.3,-1.105 -2.3,-1.105c-9.07,3.65 -10.281,1.455 -19.142,3.618c-35.525,8.673 -35.728,-3.334 -94.966,-4.723c-35.138,-0.824 -35.274,0.744 -37,-0.096c-0.649,-0.316 -0.841,-1.299 -1.49,-1.615c1.496,-3.32 1.322,-3.321 1.552,-7.015Z" style="fill:#3d95ef;"/><path d="M634.106,363.465l1.164,-1.07c0.357,0.04 0.204,-1.001 0.561,-0.961c0.111,0.013 5.275,15.622 -4.295,23.562c-6.532,5.419 -12.449,6.239 -12.489,8.753c-0.032,1.966 -0.278,17.289 -5.338,23.939c-7.303,9.597 -12.131,2.3 -20.941,9.41c-4.111,3.317 -17.221,9.791 -30.083,2.464c-4.103,-2.337 -12.54,-0.54 -13.833,3.91c-1.367,4.705 -1.094,4.746 -3.45,9.01c-0.19,0.155 -2.375,1.941 -2.375,1.941c-0.555,0.499 -0.508,0.434 -1.195,0.545c-1.608,0.26 -1.127,0.851 -1.53,2.511l-0.88,1.395c-0.228,-0.129 0.048,-0.661 -0.18,-0.79c-0.946,-0.537 -5.311,-0.07 -20.395,-1.252c-3.086,-2.398 -2.742,-2.717 -3.02,-2.898c-0.709,-0.462 -0.965,0.456 -3.133,-0.849c-7.092,-4.268 -13.069,-4.308 -24.734,-8.027c-18.17,-5.793 -18.535,-4.29 -19.976,-5.121c-2.413,-1.393 -1.944,-1.873 -3.154,-3.038c14.829,-4.312 14.936,-4.715 16.066,-4c7.733,4.895 6.524,11.415 28.412,8.367c2.052,4.311 1.954,4.373 5.293,7.678c1.09,1.024 1.035,0.974 2.15,1.953c2.376,1.402 2.107,2.161 7.023,2.456c4.588,0.457 4.526,0.331 9.085,-0.365c1.593,-0.32 1.537,-0.33 3.057,-0.995c2.19,-0.779 1.63,-1.836 3.828,-2.375c0.337,-0.083 1.869,-1.583 1.991,-2.075c0.706,-2.845 2.398,-1.993 3.127,-6.164c0.309,-1.748 0.619,-3.496 0.928,-5.245c1.336,-3.115 1.388,-3.084 4.062,-5.122c1.294,-0.172 2.588,-0.344 3.883,-0.515c4.536,-2.133 4.993,-3.368 8.945,-0.316c3.716,2.87 3.604,3.242 8.157,3.849c14.827,1.977 18.73,-6.994 26.899,-8.9c3.958,0.78 5.361,1.879 9.402,-2.167c3.506,-3.803 3.927,-3.36 6.348,-7.899c0.539,-2.288 0.832,-2.055 0.852,-2.094c0.427,-2.012 0.446,-1.903 0.707,-3.976c0.703,-3.71 0.729,-3.731 -0.343,-7.296c-0.398,-0.67 -0.797,-1.339 -1.195,-2.009c-0.195,-1.197 -0.875,-1.937 -0.998,-2.07c-0.959,-1.042 -0.842,-1.027 -1.563,-2.303c4.054,-3.531 4.748,-1.485 9.913,-2.987c0.379,-0.244 0.758,-0.489 1.138,-0.733c1.649,-0.225 1.599,-0.279 2.903,-1.34c0.336,-0.35 0.671,-0.701 1.007,-1.051c3.025,-3.289 2.52,-3.619 5.062,-7.332c0.303,-0.367 0.605,-0.734 0.908,-1.101c0.345,-0.695 0.69,-1.391 1.036,-2.086c0.777,-2.571 0.791,-2.506 1.199,-5.224Z" style="fill:#ed9d60;"/><path d="M233.074,397.754c5.691,6.461 6.595,5.982 6.628,8.534c0.142,11.07 -5.065,98.399 38.443,129.09c6.078,4.287 19.845,7.601 21.634,8.032c2.923,0.704 3.742,-0.492 7.073,4.347c-26.531,1.113 -48.474,-5.815 -66.415,-45.133c2.539,-2.52 2.169,-2.782 2.358,-6.456c0.172,-3.34 -1.915,-2.654 -2.435,-5.054c-2.857,-13.189 -1.116,-13.573 -5.556,-26.288c-0.306,-1.688 -0.382,-1.608 -1.029,-3.172c1.503,-5.276 -2.541,-21 -1.834,-26.118c1.309,-9.472 -3.926,-32.145 -0.11,-36.894l1.243,-0.889Z" style="fill:#fcd6a8;"/><path d="M608.944,632.039c0.4,8.378 1.307,9.502 7.642,14.926c3.73,3.194 -4.101,5.022 0.619,17.311c-2.265,-0.075 -5.052,0.672 -5.481,0.787c-6.188,1.658 -27.772,1.062 -35.995,-2.46c-0.529,-0.227 -5.11,-2.188 -6.354,-3.416c-0.235,-0.232 0.109,-0.774 -0.126,-1.006c-0.461,-9.46 -0.452,-9.354 -1.404,-18.837c24.996,-9.015 28.865,-3.756 38.985,-5.508c0.399,-0.069 0.601,-0.648 1,-0.717l1.113,-1.08Z" style="fill:#4bc3dc;"/><path d="M422.18,652.565c4.866,3.136 9.821,6.045 10.685,6.552c-0.281,0.203 -0.663,-0.616 -0.944,-0.413c-0.014,0.01 -22.193,43.102 -34.3,91.365c-3,11.96 -11.834,42.891 -12.982,67.958c-0.077,1.679 -2.025,2.052 -2.135,-0.921c-0.437,-11.728 5.045,-99.551 39.677,-164.541Z" style="fill:#ce576c;"/><path d="M692.589,321.337c23.979,-10.179 48.089,23.434 21.756,53.097c-3.361,3.786 -17.895,16.252 -35.737,7.178c4.575,-10.776 0.391,-13.959 0.386,-13.995c-0.072,-0.517 1.018,-0.699 0.946,-1.215c16.835,16.245 42.223,-6.564 32.999,-23.911c-9.969,-12.929 -18.02,-5.209 -26.455,-4.196c5.299,-16.753 5.805,-16.538 6.105,-16.958Z" style="fill:#fcd6a6;"/><path d="M575.824,688.561c13.906,1.644 13.817,1.718 30.02,1.882c7.206,15.885 20.554,37.231 22.53,47.568c-6.512,-1.838 -7.203,-4.857 -21.54,-9.84c-1.604,-0.557 -15.271,-5.308 -19.938,-7.292c-9.706,-30.608 -10.243,-30.4 -10.645,-31.367l-0.427,-0.95Z" style="fill:#db6f85;"/><path d="M721.563,599.116c0.642,-0.361 7.997,-5.144 8.875,-3.422c8.446,16.581 14.122,37.267 15.041,40.616c4.244,15.469 3.755,25.915 3.759,26.052c-1.005,0.406 -2.062,1.743 -2.297,-0.181c-0.086,-0.7 -0.188,-0.555 -0.725,-1.288c-11.204,-15.292 -23.419,-25.138 -48.384,-29.364l-0.998,1.546l-1.125,1.02c2.506,-17.403 -0.999,-20.39 3.109,-20.311c18.97,0.363 32.245,12.54 34.482,14.592c0.271,0.259 7.105,6.793 4.316,1.634c-0,-0 -4.728,-7.514 -5.139,-8.167c1.737,-2.658 2.8,-2.703 1.44,-5.525c-0.288,-0.598 -3.382,-3.246 -3.581,-6.11c-0.166,-2.39 -0.991,-2.484 -7.505,-10.085l-1.268,-1.007Z" style="fill:#fcd9ac;"/><path d="M451.629,451.945c1.654,4.861 -2.555,3.548 -7.863,13.891c-3.731,3.738 -36.137,50.857 -38.947,82.586c-0.052,0.589 -0.047,0.545 -0.64,7.364c-2.957,52.391 4.297,64.758 3.782,68.959c-0.084,0.689 -1.298,0.812 -1.382,1.501c-1.02,-0.939 -1.011,-0.936 -1.102,-1.014c-1.171,-1.011 -1.185,-0.892 -2.36,-1.929c-3.156,-2.786 -8.352,-41.64 -6.879,-69.632c1.996,-37.945 34.768,-83.248 55.391,-101.726Z" style="fill:#fad2d1;"/><path d="M358.025,487.743c-0.001,0.002 0.848,1.81 -2.333,2.843c-22.585,7.331 -28.215,3.778 -30.295,2.465c-1.711,-19.729 -6.136,-22.484 -10.346,-34.581c-1.284,-3.691 13.689,-6.497 16.685,-4.949c19.28,9.961 24.134,28.592 26.289,34.223Z" style="fill:#fcd6a6;"/><path d="M298.812,301.63l1.019,1.635l1,0.105l1,0.076l1.45,0.422c0.687,0.75 1.138,2.24 1.201,2.45c0.429,1.419 1.777,-0.035 13.918,11.591c1.735,1.661 8.62,13.703 10.749,16.024c2.04,2.224 -0.441,3.245 -0.602,3.517c5.136,5.496 4.937,5.741 11.497,9.315c-0.597,1.865 -10.665,17.73 -26.747,-11.816c-4.95,-9.094 -9.02,-30.101 -15.476,-29.56c-2.327,0.195 0.815,3.611 2.727,9.043c2.852,8.104 2.86,14.475 2.865,14.524c-0.227,-0.258 0.113,-0.787 -0.114,-1.045c-0.45,-0.513 -1.162,-0.681 -1.726,-1.051c-4.867,-3.186 -3.03,-8.461 -7.161,-15.205c-1.672,-2.729 -14.133,-4.536 -26.58,-1.865c-1.793,0.085 -1.783,0.119 -1.936,0.092c-1.428,-0.254 -3.874,-2.481 -4.06,3.43c-7.251,-0.002 -6.664,3.137 -13.937,3.547c-2.874,0.162 -2.508,1.006 -5.019,2.372c-0.779,0.424 -3.473,-1.993 -4.048,-1.923c-1.741,0.21 -1.361,-0.712 -2.149,-1.124c2.378,-1.626 13.475,-9.213 33.151,-13.353c19.813,-4.168 20.063,0.12 28.979,-1.202Z" style="fill:#fac998;"/><path d="M397.845,364.356l0.369,1.175c0.642,2.188 0.012,2.491 1.697,4.074c1.079,1.013 34.796,4.12 41.673,11.53c-2.989,9.256 -4.714,12.201 -0.613,24.085c-4.963,1.817 -17.022,8.782 -21.496,-10.426l-0.737,-1.078c1.442,-3.932 3.703,-6.892 1.32,-9.876c-1.44,-1.804 -1.972,0.093 -1.912,0.521c0.402,2.861 0.072,2.774 -0.952,5.451c-1.266,0.328 -1.272,0.039 -2.477,0.642c-7.01,3.506 -20.864,-1.348 -22.065,-12.355c-0.589,-5.398 -0.749,-5.473 1.289,-10.477c0.867,-2.129 -0.391,-2.078 -0.478,-2.54c2.082,-1.15 2.115,-0.733 4.382,-0.725Z" style="fill:#fdfdfd;"/><path d="M344.341,352.678c0.649,0.316 0.841,1.299 1.49,1.615c1.727,0.84 1.862,-0.728 37,0.096c59.238,1.389 59.441,13.396 94.966,4.723c8.86,-2.163 10.071,0.032 19.142,-3.618c0,0 2.116,1.017 2.3,1.105c-2.335,2.274 -2.459,2.099 -4.279,4.841c-1.882,-0.786 -1.867,-0.916 -2.029,-0.848c-5.691,2.399 -7.585,0.502 -14.996,3.148c-20.496,7.319 -22.029,6.592 -50.05,0.531c-58.371,-12.627 -101.638,0.002 -124.081,0.319c-2.376,0.034 0.356,-4.898 1.631,-7.552c5.272,1.116 8.81,1.738 13.438,-3.054c11.967,7.693 18.183,5.109 25.468,-1.307Z" style="fill:#2770cd;"/><path d="M551.801,522.483c1.296,-1.584 3.148,-8.455 47.031,-8.476c19.124,-0.009 40.446,3.386 47.964,10.185c-29.619,7.688 -71.726,4.605 -94.996,-1.709Z" style="fill:#60a3ca;"/><path d="M542.956,393.329c2.5,1.022 2.412,1.16 5.039,1.394c0.766,8.174 1.362,7.966 4.192,15.707l-1.114,1.242c-7.833,3.524 -14.315,-2.03 -11.402,4.087c1.209,2.538 1.257,2.445 2.559,4.979c0.726,17.692 -22.63,16.614 -26.947,5.184c-1.398,-3.7 -1.091,-3.728 -2.952,-7.319c2.777,-5.394 2.765,-5.317 4.107,-11.241c0.406,-0.417 0.7,-0.941 1.106,-1.358c2.854,-2.931 11.823,3.292 19.286,-10.01l1,-0.716c2.796,-0.16 2.634,-0.614 5.125,-1.95Z" style="fill:#fdfdfd;"/><path d="M712.939,342.491c9.224,17.347 -16.165,40.156 -32.999,23.911c0.072,0.517 -1.018,0.699 -0.946,1.215c0.005,0.036 4.188,3.219 -0.386,13.995c-6.266,-4.086 -8.905,-4.291 -6.061,-9.966c2.164,-4.318 2.034,-4.292 8.765,-19.492c0.506,-0.136 1.013,-0.272 1.519,-0.408c7.036,-3.215 7.688,-4.409 8.188,-4.748c14.263,-9.668 18.98,-2.145 20.931,-3.301c0.441,-0.261 0.548,-0.945 0.989,-1.206Z" style="fill:#fab177;"/><path d="M608.831,301.764c4.643,-0.719 4.606,-0.54 8.981,-2.138c1.584,-0.578 2.268,-0.672 2.179,1.103c-0.348,6.981 -12.915,9.679 -14.26,9.967c-11.802,2.533 -5.618,-12.469 -19.178,-20.992c-19.265,-12.11 -29.011,10.561 -33.683,9.63c-11.562,-2.306 9.85,-32.296 35.798,-20.19c9.314,4.346 13.2,11.916 13.311,12.064c3.583,4.78 11.265,-4.46 11.616,-0.899c0.569,5.76 -12.627,10.407 -4.766,11.453Z" style="fill:#4a1a0d;"/><path d="M618.74,689.203c8.626,20.74 13.546,28.352 22.307,57.824c0.87,2.785 4.482,14.354 8.348,35.57c0.133,0.729 7.295,40.037 -0.435,9.266c-4.479,-17.83 -9.517,-28.948 -17.532,-48.801c-1.365,-2.757 -1.181,-2.763 -3.053,-5.051c-1.976,-10.337 -15.325,-31.683 -22.53,-47.568c0.443,-0.042 0.945,0.04 12.895,-1.24Z" style="fill:#ca5268;"/><path d="M345.893,345.663c-0.677,-3.616 -2.097,-6.343 -0.933,-7.063c2.275,-1.41 36.678,2.689 39.855,3.067c65.326,7.782 76.734,-13.83 112.215,8.901c-1.146,0.536 -0.914,1.112 -2.198,1.028c-10.846,-0.704 -14.521,-7.558 -40.006,-4.951c-60.592,6.199 -98.733,-6.363 -108.933,-0.982Z" style="fill:#6ebaf2;"/><path d="M624.404,573.309c1.774,-2.553 3.224,-5.93 16.409,-7.293c24.167,-2.498 40.638,0.676 47.16,32.54c7.897,38.585 -5.97,59.854 -8.763,64.137c-0.359,-0.58 -1.096,-0.828 -1.454,-1.408c-1.092,-1.766 6.435,-18.364 6.751,-31.366c1.38,-56.687 -17.035,-56.386 -31.673,-57.511c-1.916,-0.147 -6.649,-0.511 -23.966,1.616c-2.31,0.284 -2.324,0.376 -4.464,-0.716Z" style="fill:#fbe0ba;"/><path d="M403.59,638.495c0.577,0.439 6.684,5.546 7.263,6.031c-1.036,1.575 -35.541,40.114 -48.255,91.934c-0.797,3.247 -2.483,2.252 -2.364,1.09c3.92,-38.169 17.754,-61.385 27.813,-78.192c1.014,-1.831 4.695,-8.477 15.543,-20.864Z" style="fill:#ca566e;"/><path d="M228.595,323.58c13.277,12.598 15.577,13.14 16.932,19.063c1.151,5.032 7.527,0.457 12.37,-0.111c3.56,36.799 -9.825,31.444 -11.97,30.11c-9.665,-6.01 -0.504,-30.756 -21.097,-33.222c-2.532,-0.303 -3.865,0.425 -3.356,-2.168c1.043,-5.312 6.4,-12.682 7.121,-13.673Z" style="fill:#f9b379;"/><path d="M423.835,262.06c0.436,0.261 5.225,3.126 5.956,2.063c0.262,-0.381 -7.113,-13.806 -1.959,-12.512c1.341,0.337 3.09,8.457 8.335,4.671c28.853,-20.826 48.509,19.026 37.626,24.52c-9.734,4.914 -0.592,-18.631 -21.959,-20.359c-10.864,-0.879 -17.683,14.126 -22.062,13.477c-9.499,-1.408 -14.98,-16.717 -9.969,-15.898c0.441,0.072 0.043,0.507 4.032,4.038Z" style="fill:#4a190c;"/><path d="M564.203,640.395c0.478,3.718 2.09,19.226 3.02,20.574c2.932,4.249 2.062,-2.51 2.026,-2.787c0.235,0.232 -0.109,0.774 0.126,1.006c1.244,1.228 5.825,3.19 6.354,3.416c8.222,3.522 29.807,4.118 35.995,2.46c0.429,-0.115 3.215,-0.862 5.481,-0.787c2.565,3.828 2.657,3.68 5.753,6.962c-1.72,1.551 -6.244,5.631 -28.098,4.256c-2.974,-0.187 -29.665,-1.866 -35.972,-10.061c-0.954,-1.24 -0.639,-1.378 -2.325,-19.743c3.445,-3.175 3.857,-2.466 7.64,-5.295Z" style="fill:#40a6c9;"/><path d="M567.767,686.658c0.642,0.163 0.636,0.112 8.057,1.903l0.427,0.95c0.402,0.967 0.939,0.76 10.645,31.367c0.35,1.823 0.33,1.816 0.378,1.969c6.219,19.74 16.187,69.011 14.598,70.183c-2.402,1.772 -1.68,-7.782 -10.389,-34.42c-12.921,-39.522 -14.612,-41.81 -16.867,-44.862c-0.427,-3.384 -0.528,-3.304 -1.81,-6.46c-5.813,-14.315 -6.382,-16.925 -6.716,-17.879c-0.668,-1.91 0.602,-1.495 0.74,-1.84l0.936,-0.912Z" style="fill:#ce556b;"/><path d="M612.662,77.737c14.09,-7.627 25.837,-16.156 25.062,-13.18c-0.926,3.556 -1.487,3.308 -15.461,43.14c-0.85,-0.149 -0.789,-0.681 -6.428,-0.223c-5.503,0.447 -5.41,0.805 -10.918,0.179c1.468,-11.178 6.337,-12.425 7.746,-29.916Z" style="fill:#f79f1b;"/><path d="M407.796,421.744c-4.494,0.055 -30.475,0.372 -53.046,19.322c-6.774,-4.299 -8.49,-4.253 -7.017,-5.593c33.888,-30.855 65.656,-20.125 66.15,-20.005c8.912,2.174 7.663,5.661 16.675,7.251c-0.173,0.787 -0.347,1.575 -0.52,2.362c-1.154,0.167 -1.085,0.736 -2.204,0.319c-0.218,-0.081 -10.942,-3.392 -20.037,-3.657Z" style="fill:#fad1d0;"/><path d="M457.972,672.566c6.977,3.074 11.826,5.053 12.86,5.475c-2.095,5.703 -19.098,51.987 -23.68,72.235c-6.137,27.119 1.098,-46.335 10.82,-77.711Z" style="fill:#d65d71;"/><path d="M584.664,481.439c0.151,-0.338 3.622,-6.662 5.756,-16.714c0.744,-3.503 0.233,-5.381 3.463,-4.267c20.322,7.013 19.643,9.966 18.575,11.378c-12.776,16.885 -9.375,21.578 -15.627,21.593c-17.403,0.042 -22.746,1.838 -19.109,-1.513c3.581,-3.3 6.471,-9.613 6.943,-10.476Z" style="fill:#e67e90;"/><path d="M532.485,333.708c1.182,-0.814 1.09,-0.745 1.182,-0.814c2.265,-1.69 2.137,-1.774 4.452,-3.479c3.841,-2.828 17.026,-6.901 21.988,6.668c-0.336,2.484 -3.192,14.916 -4.924,17.23l-1.352,-1.799l-1,0.713l-1,0.417l-1,0.092l-1,0.159l-1,0.305l-1,0.181l-1,0.064l-1,-0.005c-17.395,-0.654 -15.163,-13.866 -15.175,-15.343c1.223,-2.117 1.141,-2.092 1.829,-4.389Z" style="fill:#fcfcfd;"/><path d="M569.203,510.292c23.685,-6.414 61.349,0.316 66.602,1.255c-0.485,1.411 -1.316,1.967 0.071,2.309c1.545,0.38 17.303,4.26 18.557,7.33c0.256,0.627 0.044,1.042 -7.636,3.008c-7.519,-6.798 -28.84,-10.194 -47.964,-10.185c-43.883,0.02 -45.735,6.892 -47.031,8.476c-5.799,-1.771 -7.534,-0.509 -7.221,-3.741c0.09,-0.929 24.378,-6.472 24.892,-7.124c0.982,-1.245 -0.221,-1.084 -0.27,-1.327Z" style="fill:#bfd1e9;"/><path d="M250.79,323.834c13.286,-8.33 14.12,13.677 17.994,14.702c4.639,1.227 10.597,-2.793 11.392,-3.329c2.119,43.202 -17.272,34.481 -17.79,32.556c-1.473,-5.469 9.754,-29.545 -11.596,-43.929Z" style="fill:#f9b47a;"/><path d="M569.203,510.292c0.049,0.242 1.252,0.082 0.27,1.327c-0.514,0.652 -24.802,6.195 -24.892,7.124c-0.313,3.232 1.422,1.97 7.221,3.741c23.27,6.314 65.377,9.397 94.996,1.709c7.68,-1.966 7.892,-2.38 7.636,-3.008c-1.254,-3.069 -17.013,-6.949 -18.557,-7.33c-1.387,-0.342 -0.556,-0.898 -0.071,-2.309c1.784,0.38 19.929,4.249 21.228,8.569c5.01,16.666 -112.02,15.03 -115.833,-1.026c-0.81,-3.41 20.989,-9.242 28.003,-8.798Z" style="fill:#462920;"/><path d="M501.81,330.979c13.678,-9.05 18.92,-4.507 25.826,3.468c0.529,1.528 0.53,1.403 1.311,2.777c-1.213,4.345 -2.031,4.082 -2.011,8.537c0.001,0.204 -0.057,0.179 -0.773,2.415c-0.414,0.589 -0.828,1.179 -1.243,1.768l-1.296,0.557c-6.464,-0.988 -6.397,-1.024 -12.881,-1.212c-4.321,-4.174 -5.809,-2.539 -8.583,-7.977c-1.157,-2.269 -1.353,-2.069 -2.718,-4.156c1.836,-2.903 2.342,-2.754 2.367,-6.177Z" style="fill:#fafcfc;"/><path d="M514.483,89.704c14.892,5.75 21.236,11.123 61.349,16.641c7.593,1.044 22.974,2.252 29.085,1.308c5.509,0.626 5.416,0.268 10.918,-0.179c5.639,-0.458 5.578,0.075 6.428,0.223c-0.364,1.309 -0.728,2.619 -1.092,3.928c-1.395,0.001 -14.721,0.015 -17.419,0.833c-0.607,0.184 -0.594,1.348 -1.201,1.532c-0.561,-0.139 -1.123,-0.277 -1.684,-0.416c-2.008,-0.456 -1.907,-0.561 -3.98,-0.655c-1.056,0.456 -1.068,0.193 -2.139,0.64l-0.668,0.315c-0.587,-0.165 -0.528,-1.342 -1.114,-1.508c-1.646,-0.464 -3.408,-0.14 -5.109,-0.248c-3.197,-0.201 -11.036,-0.939 -11.995,-1.03c-3.741,-0.352 -3.805,-1.829 -7.191,-0.25c-1.418,-0.52 -4.482,-0.45 -4.873,-0.441c-0.162,-0.14 -2.026,-1.748 -2.026,-1.748c-1.61,-0.272 -16.143,-2.733 -19.995,-4.126c-2.013,-0.728 -2.007,-1.011 -3.978,-0.242c-2.165,-1.74 -4.542,-2.179 -4.969,-2.257c-1.213,-1.548 -1.197,-1.6 -3.067,-1.767c-8.64,-0.774 -10.946,-7.097 -15.52,-5.373c0.078,-1.611 -0.095,-1.543 -0.016,-3.169c0.008,-0.162 0.019,-0.149 0.255,-2.013Z" style="fill:#c17d23;"/><path d="M491.839,318.383c57.195,15.79 73.872,-3.961 78.526,4.571c-0.245,0.859 -0.285,0.758 -1.107,2.259c-7.527,7.322 -6.916,9.118 -7.356,10.091c-0.767,0.722 -0.759,0.596 -1.796,0.779c-4.962,-13.569 -18.147,-9.496 -21.988,-6.668c-2.315,1.705 -2.186,1.789 -4.452,3.479c-0.092,0.069 0,0 -1.182,0.814c-2.526,-0.774 -2.555,-0.507 -4.848,0.74c-6.906,-7.976 -12.149,-12.518 -25.826,-3.468c-0.527,-0.106 -1.053,-0.211 -1.58,-0.317c-0.61,-0.554 -2.845,-2.585 -8.374,-5.907c-0.446,-1.374 -0.893,-2.748 -1.339,-4.122c0.2,-0.558 -0.432,-0.916 1.322,-2.25Z" style="fill:#85241d;"/><path d="M543.753,669.671c0.921,2.225 5.07,12.248 24.015,16.987l-0.936,0.912c-0.139,0.345 -1.409,-0.069 -0.74,1.84c0.334,0.954 0.902,3.564 6.716,17.879c1.282,3.156 1.382,3.076 1.81,6.46c-2.548,-0.688 -3.405,-1.257 -3.67,-1.432c-19.903,-13.205 -25.076,-23.416 -28.62,-38.481l-0.057,-1.045l-0.056,-1.045l-0.132,-1.045l0.751,-0.752l0.922,-0.277Z" style="fill:#dc7186;"/><path d="M227.613,390.626c3.692,2.58 2.873,3.305 5.461,7.128l-1.243,0.889c-3.816,4.749 1.418,27.422 0.11,36.894c-0.707,5.119 3.337,20.842 1.834,26.118c-0.094,0.169 -1.175,2.115 -1.175,2.115c0,0 2.027,0.973 2.204,1.057c4.44,12.715 2.699,13.099 5.556,26.288c0.52,2.4 2.607,1.714 2.435,5.054c-0.189,3.674 0.18,3.935 -2.358,6.456c-11.546,-30.533 -13.816,-48.045 -12.824,-111.998Z" style="fill:#fbe2bd;"/><path d="M462.834,419.038c0.991,-0.114 1.983,-0.228 2.974,-0.342c9.626,-2.198 11.22,-4.141 11.617,-4.529c2.818,-2.756 3.297,-1.019 6.046,1.857c2.969,3.106 3.146,2.76 4.373,3.834l0.779,0.338c8.938,7.746 18.89,0.316 19.97,2.899c0.258,0.617 0.029,1.38 0.287,1.996l0.306,4.166l0.122,2.012c-21.888,3.048 -20.68,-3.472 -28.412,-8.367c-1.13,-0.715 -1.237,-0.313 -16.066,4c-8.396,-1.498 -8.766,-3.299 -12.008,-3.171c-2.03,0.08 -1.415,1.046 -1.856,1.373c-0.403,-2.112 -0.262,-2.056 -0.245,-4.198l0.101,-1.032c1.204,-1.486 1.1,-1.936 2.953,-1.71c4.532,0.553 4.425,0.511 9.061,0.876Z" style="fill:#ec9551;"/><path d="M562.864,626.806c-0.661,0.323 -4.77,2.332 -8.185,4.22c-0.096,-0.753 -1.099,-8.594 -1.168,-9.415c-3.632,-43.395 -4.593,-43.283 -4.732,-47.067c-0.107,-2.928 7.895,0.795 8.356,1.936c0.484,1.197 4.575,37.836 5.729,50.326Z" style="fill:#4bb1d3;"/><path d="M375.86,485.716c0.596,2.845 4.242,20.253 -1.506,36.365c-5.239,14.685 -13.785,24.01 -16.386,22.863c-8.89,-3.923 16.349,-9.128 9.904,-56.102c0.011,-0.008 -0.171,-1.616 7.987,-3.125Z" style="fill:#e17488;"/><path d="M291.832,373.901l-1.406,1.035c-0.648,0.384 -1.186,1.068 -6.667,3.908c-14.306,4.492 -14.199,4.752 -17.128,7.325c-2.332,2.049 -2.826,-0.245 -5.721,0.618c-1.86,0.555 -9.427,5.025 -21.979,-2.661c-5.145,-3.15 -4.928,-3.404 -8.129,-8.577c0.548,-0.097 6.145,-1.091 6.931,-0.471c4.121,3.245 3.966,3.334 4.353,3.558c10.28,5.947 18.268,-1.618 18.634,-1.836c2.581,-1.532 6.768,2.165 16.897,-3.318c1.01,-0.547 5.603,-3.033 14.215,0.419Z" style="fill:#e98546;"/><path d="M616.399,482.377c2.77,-4.008 5.907,-11.392 25.483,-14.088c20.596,-2.837 40.371,6.978 51.353,18.068c-4.017,1.891 -3.855,-0.082 -7.314,-2.938c-11.021,-9.097 -38.618,-13.549 -59.86,-3.457c-7.673,3.646 -7.666,3.863 -8.205,3.638c-0.578,-0.242 -0.879,-0.98 -1.457,-1.222Z" style="fill:#fad3d2;"/><path d="M399.027,261.06l-1.218,-1.085c-0.459,-0.271 -0.519,-1.028 -0.978,-1.299c-0.731,-0.432 -7.035,2.185 -10.814,6.671c-2.505,2.974 -4.886,14.091 -4.667,14.401c0.357,0.506 1.445,-0.422 1.802,0.083l-0.848,1.045c-0.039,2.971 -2.023,18.588 3.854,22.004c-0.727,4.734 -0.696,9.029 -2.982,5.87c-15.207,-21.015 -7.407,-55.212 13.673,-56.919c6.022,-0.488 3.222,3.054 2.177,9.228Z" style="fill:#fce3bc;"/><path d="M349.027,443.78c9.454,8.479 20.328,17.268 26.833,41.936c-8.159,1.509 -7.976,3.117 -7.987,3.125c-0.928,-3.663 -6.757,-26.66 -25.153,-39.396l1.112,-1.693c3.834,-1.45 4.343,-2.87 5.196,-3.973Z" style="fill:#f996a1;"/><path d="M694.65,595.503c-1.584,-6.768 -3.005,-7.751 -0.779,-8.313c27.275,-6.888 25.551,-11.413 27.943,-11.716c0.723,-0.092 1.551,-0.196 4.313,8.385c1.006,3.125 -9.431,9.629 -27.372,14.39c-3.619,0.96 -3.373,-0.463 -4.104,-2.746Z" style="fill:#e0788d;"/><path d="M450.964,425.102c0.441,-0.326 -0.174,-1.293 1.856,-1.373c3.242,-0.128 3.612,1.673 12.008,3.171c1.21,1.165 0.741,1.645 3.154,3.038c1.44,0.831 1.806,-0.672 19.976,5.121c11.665,3.719 17.643,3.759 24.734,8.027c2.168,1.305 2.424,0.387 3.133,0.849c0.278,0.181 -0.066,0.5 3.02,2.898c-24.163,-2.374 -40.421,-5.381 -68.075,-19.527c0.064,-0.735 0.129,-1.47 0.193,-2.205Z" style="fill:#fcdaad;"/><path d="M597.131,400.069c0.696,11.54 -5.328,13.108 -8.208,17.86c-0.79,1.304 -4.492,2.093 -4.958,2.342c-1.796,0.963 -8.051,5.274 -22.298,-2.181c-1.849,-0.968 -1.544,-1.287 -3.663,-3.666c-3.139,-4.793 -3.064,-4.785 -5.376,-10.115c5.517,0.801 5.14,3.672 9.42,5.696c19.01,8.989 27.355,-4.034 35.083,-9.937Z" style="fill:#c9e0f8;"/><path d="M441.973,389.578c3.228,3.743 3.94,5.548 4.159,6.102c7.393,18.738 25.639,14.16 33.119,3.292l0.58,-0.689l1.229,-0.291c-0.129,1.458 -0.044,9.015 -2.535,12.191c-2.168,2.765 -3.359,2.675 -3.47,2.759c-2.085,1.589 -2.129,1.408 -2.282,1.571c-1.165,1.241 -1.485,0.405 -2.967,1.094c-1,0.34 -2,0.681 -3,1.021c-22.484,1.005 -24.932,-12.969 -24.833,-27.052Z" style="fill:#d7e8fb;"/><path d="M298.812,301.63c12.471,-0.007 18.844,-1.204 35.544,29.682c5.377,9.945 5.613,14.131 5.688,15.454c-6.56,-3.575 -6.362,-3.819 -11.497,-9.315c0.162,-0.271 2.642,-1.293 0.602,-3.517c-2.129,-2.321 -9.014,-14.363 -10.749,-16.024c-12.141,-11.626 -13.489,-10.172 -13.918,-11.591c-0.064,-0.21 -0.514,-1.7 -1.201,-2.45l-1.45,-0.422l-1,-0.076l-1,-0.105l-1.019,-1.635Z" style="fill:#fce5c3;"/><path d="M291.832,373.901c10.858,-5.048 21.973,-4.437 26.02,-2.138c10.371,5.892 -3.816,13.474 -4.832,14.017c-0.562,-0.189 -0.628,-1.18 -1.19,-1.369c-1.57,-0.527 -1.626,0.962 -3.032,0.201c-0.23,-0.125 -2.687,-1.455 -2.837,-1.634c-2.307,-2.762 -2.291,-3.805 -8.122,-2.785c-3.745,0.655 -5.048,6.288 -9.102,2.188c-2.921,-2.954 -3.21,-2.398 -3.906,-2.737l-1.071,-0.799c5.481,-2.841 6.019,-3.525 6.667,-3.908l1.406,-1.035Z" style="fill:#f7a769;"/><path d="M621.171,111.625c-2.925,7.377 -7.131,21.282 -8.445,22.85c-1.539,1.838 -11.897,2.208 -17.861,2.508c-1.046,-3.806 -0.104,-3.746 0.957,-7.627c2.038,0.198 1.977,0.272 4.051,0.194c1.867,-0.596 1.799,-0.616 3.293,-1.861c1.325,-0.873 1.271,-0.845 2.036,-2.294c2.749,-4.623 0.306,-8.237 -0.083,-8.813c-1.245,-1.418 -1.058,-1.505 -2.569,-2.593c0.607,-0.184 0.594,-1.348 1.201,-1.532c2.698,-0.818 16.024,-0.831 17.419,-0.833Z" style="fill:#f29818;"/><path d="M393.463,365.08c0.087,0.462 1.345,0.411 0.478,2.54c-2.038,5.005 -1.878,5.08 -1.289,10.477c1.201,11.006 15.056,15.861 22.065,12.355c1.205,-0.603 1.211,-0.314 2.477,-0.642c-5.248,21.996 -42.614,6.112 -25.936,-22.73c0.396,-0.468 0.388,-0.41 2.205,-2Z" style="fill:#cbdef5;"/><path d="M651.158,537.32c1.476,0.957 1.5,0.797 2.96,1.714c-1.365,14.95 -1.958,17.995 -2.258,19.538l-2.064,0.046c-0.917,-2.079 -0.147,-4.712 -17.032,-8.864c-10.918,-2.685 -11.149,-1.116 -21.922,-4.102c12.446,-2.14 24.59,0.097 40.316,-8.333Z" style="fill:#518ab4;"/><path d="M412.866,227.674l0.537,0.947c1.442,3.959 0.283,4.17 1.558,8.214c-2.673,28.969 -6.301,28.153 -10.507,48.205c-0.419,1.998 0.365,1.78 1.706,3.515c-2.187,1.836 -2.401,1.557 -3.961,4.063c-2.534,4.073 -0.739,4.275 -0.149,5.442c-4.274,1.945 -4.636,3.892 -5.219,3.708c-0.559,-0.176 -0.843,-0.921 -1.401,-1.098c1.589,-5.323 1.426,-5.277 3.131,-10.485c16.316,-49.854 8.318,-57.299 14.306,-62.512Z" style="fill:#fbe4c1;"/><path d="M398.041,265.309c-2.469,14.317 -5.387,14.381 -11.883,37.572c-5.878,-3.416 -3.893,-19.033 -3.854,-22.004l0.848,-1.045c2.643,-15.212 9.268,-15.792 14.889,-14.523Z" style="fill:#f7aa6f;"/><path d="M418.738,393.715l0.737,1.078c4.474,19.208 16.533,12.244 21.496,10.426c3.633,8.252 6.503,6.269 9.849,14.653l-0.101,1.032c-1.566,2.438 -1.11,4.645 -1.533,4.435c-2.122,-1.056 -1.211,-1.914 -1.49,-2.354c-0.445,-7.486 -6.282,-7.86 -7.934,-8.466c-0.291,-7.339 -4.024,1.834 -12.949,1.291c-0.5,-0.03 -5.843,1.461 -10.22,-7.315c-0.197,-0.395 -1.08,-2.165 -1.31,-5.397c-0.372,-5.23 0.811,-4.926 3.455,-9.385Z" style="fill:#c6dcf4;"/><path d="M406.16,288.556c12.648,-5.833 19.294,-3.816 28.867,7.258c-4.32,3.739 -4.08,7.935 -8.434,4.244c-3.421,-2.9 -9.864,-4.253 -10.772,-4.444c-3.512,-0.113 -3.456,-0.035 -6.928,0.229c-0.556,0.146 -2.688,0.705 -6.842,2.219c-0.589,-1.167 -2.385,-1.369 0.149,-5.442c1.559,-2.506 1.774,-2.227 3.961,-4.063Z" style="fill:#fbba90;"/><path d="M408.892,295.842c3.565,0.806 3.641,1.412 6.928,-0.229c0.908,0.191 7.352,1.545 10.772,4.444c4.355,3.691 4.115,-0.505 8.434,-4.244c4.169,-2.863 4.019,-3.183 8.836,-4.334c21.555,-5.152 28.119,17.018 28.303,17.333c2.295,3.914 7.784,-5.551 19.674,9.57c-1.753,1.334 -1.121,1.693 -1.322,2.25c-7.803,-8.501 -8.172,-9.811 -18.668,-8.242c-3.994,0.597 0.142,-10.255 -13.864,-17.234c-6.387,-3.183 -15.118,-2.926 -23.835,4.917c-1.843,0.875 -1.902,0.787 -1.99,0.945c-0.303,0.544 0.31,0.55 0.027,1.058c-2.827,4.56 -3.774,12.3 -5.008,7.938c-0.869,-3.074 3.79,-7.792 -9.333,-11.424c-9.086,-2.515 -19.131,2.471 -22.854,9.459l-1.634,-0.286c1.789,-3.281 1.5,-3.32 2.071,-7.091c0.559,0.176 0.843,0.921 1.401,1.098c0.583,0.184 0.944,-1.763 5.219,-3.708c4.155,-1.514 6.286,-2.073 6.842,-2.219Z" style="fill:#95a4b4;"/><path d="M512.332,418.604c1.862,3.591 1.555,3.618 2.952,7.319c4.317,11.429 27.673,12.508 26.947,-5.184c0.599,0.045 1.197,0.089 1.796,0.134c0.985,2.027 1.006,1.966 1.23,4.272c-0.12,1.385 -0.24,2.77 -0.36,4.155c-1.957,4.573 -1.633,4.788 -5.12,8.283c-2.944,2.95 -3.142,2.6 -7.002,4.014c-6.49,0.707 -6.434,0.237 -12.802,-1.211c-3.373,-2.105 -3.499,-1.864 -5.889,-5.024c-0.788,-1.068 -6.706,-9.085 -1.751,-16.757Z" style="fill:#d4e8fb;"/><path d="M447.962,377.167c-2.791,3.718 -4.367,3.349 -5.989,12.412c-0.1,14.083 2.349,28.057 24.833,27.052c3.073,0.033 2.961,-1.003 3,-1.021c1.482,-0.689 1.802,0.147 2.967,-1.094c0.153,-0.163 0.197,0.017 2.282,-1.571c0.111,-0.084 1.302,0.006 3.47,-2.759c2.49,-3.177 2.406,-10.733 2.535,-12.191c1.599,-10.616 3.019,-10.645 6.758,-13.879c1.396,-1.207 2.191,-1.234 2.349,0.664c0.014,0.172 -3.84,1.394 -5.444,7.9c-0.095,0.387 -1.002,7.703 -1.085,8.373c-0.949,7.621 -1.028,7.607 -0.948,8.397c0.054,0.524 0.394,3.866 2.226,6.169c2.19,2.754 2.517,2.204 2.699,2.433c0.21,0.265 -0.185,0.768 0.025,1.033l0.202,0.774c-1.226,-1.074 -1.404,-0.728 -4.373,-3.834c-2.749,-2.876 -3.227,-4.613 -6.046,-1.857c-0.397,0.388 -1.991,2.33 -11.617,4.529c-1.581,-0.371 -1.501,-0.179 -2.974,0.342c-4.636,-0.365 -4.529,-0.323 -9.061,-0.876c-1.853,-0.226 -1.75,0.224 -2.953,1.71c-3.346,-8.384 -6.216,-6.402 -9.849,-14.653c-4.101,-11.884 -2.376,-14.829 0.613,-24.085c0.385,-0.486 4.718,-5.952 5.248,-5.66c0.582,0.321 0.549,1.371 1.131,1.693Z" style="fill:#8398b6;"/><path d="M451.629,451.945c1.128,-0.887 1.032,-0.888 2.28,-1.612c3.354,-1.945 11.841,-0.842 12.185,-0.518c2.769,2.611 -3.588,1.777 -13.041,25.497c-5.777,-2.632 -4.443,-4.233 -9.287,-9.477c5.308,-10.342 9.517,-9.03 7.863,-13.891Z" style="fill:#e27382;"/><path d="M397.845,364.356c32.881,3.575 33.728,7.251 50.023,9.305c0,0 1.879,0.576 2.042,0.626c-0.145,0.238 -0.141,0.123 -1.947,2.88c-0.582,-0.321 -0.549,-1.371 -1.131,-1.693c-0.53,-0.292 -4.863,5.174 -5.248,5.66c-6.877,-7.41 -40.594,-10.517 -41.673,-11.53c-1.686,-1.583 -1.056,-1.885 -1.697,-4.074l-0.369,-1.175Z" style="fill:#cfe0f5;"/><path d="M483.639,401.051c0.543,0.255 1.243,-0.243 1.786,0.013c1.186,0.557 0.361,1.031 0.926,2.287c7.737,17.201 21.995,8.553 23.709,7.513c2.581,-1.566 2.623,-0.203 3.134,-0.156c-0.042,0.1 -0.527,3.094 -4.317,7.128c-7.1,7.558 -16.079,3.49 -16.199,3.487c-1.536,-0.03 -1.227,-0.67 -2.028,-1.108c-1.452,-0.793 -1.334,-0.967 -3.009,-1.13c-0.21,-0.265 0.185,-0.768 -0.025,-1.033c-0.182,-0.229 -0.509,0.321 -2.699,-2.433c-1.831,-2.303 -2.172,-5.645 -2.226,-6.169c-0.081,-0.79 -0.001,-0.777 0.948,-8.397Z" style="fill:#cce3fa;"/><path d="M602.796,377.898c4.143,3.788 4.975,2.782 8.145,7.421c0.721,1.276 0.605,1.261 1.563,2.303c0.123,0.134 0.803,0.873 0.998,2.07c0.184,2.056 0.069,2.003 0.265,4.062c0.261,2.735 0.627,2.582 1.274,5.243c-0.329,1.063 -0.658,2.125 -0.986,3.188c-0.602,1.418 -0.766,1.374 -0.573,2.883c-2.421,4.539 -2.842,4.096 -6.348,7.899c-0.662,0.208 -1.413,-0.195 -2.075,0.013c-0.459,0.144 -0.615,0.898 -1.088,0.982c-2.628,0.468 -2.592,-0.351 -5.141,0.128c-0.803,0.151 -0.283,0.891 -1.098,1.044c-0.097,-0.537 -1.081,-0.544 -1.178,-1.08c-0.15,-0.828 0.762,-0.576 3.598,-9.841c0.499,0.32 4.346,2.785 7.188,-1.472c7.232,-10.834 -5.117,-20.911 -6.509,-22.047l-1,-0.184l-1.061,-0.615c0.575,-0.295 0.559,-0.18 1.167,-0.491c0.23,-0.118 0.212,-0.111 2.86,-1.505Z" style="fill:#c5e0f7;"/><path d="M721.563,599.116l1.268,1.007c6.514,7.601 7.339,7.695 7.505,10.085c0.199,2.864 3.293,5.511 3.581,6.11c1.36,2.823 0.297,2.867 -1.44,5.525c-5.924,-6.585 -10.601,-12.189 -26.842,-14.569c-4.664,-0.684 1.216,-1.473 15.929,-8.158Z" style="fill:#faba7e;"/><path d="M631.277,358.197c1.473,5.097 0.841,5.098 0.685,10.504c-0.333,1.059 -0.666,2.117 -0.999,3.176c-2.542,3.714 -2.037,4.043 -5.062,7.332c-0.974,0.414 -1.948,0.827 -2.922,1.241c-0.675,0.379 -1.349,0.758 -2.024,1.137c-1.712,0.142 -3.423,0.284 -5.135,0.426c-2.641,-0.633 -2.809,0.001 -7.923,-3.078c-2.237,-1.347 -1.514,-1.949 -2.482,-3.196c1.869,-2.507 2.153,-2.199 3.913,-5.906c0.46,0.793 3.693,6.367 10.447,3.881c8.854,-3.258 10.277,-14.126 10.387,-14.454l1.113,-1.063Z" style="fill:#c2ddf8;"/><path d="M686.484,338.295c8.435,-1.013 16.486,-8.733 26.455,4.196c-0.441,0.261 -0.548,0.945 -0.989,1.206c-1.951,1.155 -6.668,-6.367 -20.931,3.301c-0.5,0.339 -1.152,1.533 -8.188,4.748c-0.506,0.136 -1.013,0.272 -1.519,0.408c2.63,-6.964 2.534,-6.939 5.172,-13.859Z" style="fill:#f18d52;"/><path d="M497.923,286.103c-0.11,1.441 -1.021,12.162 10.908,11.104l1.292,1.785c-12.819,8.69 -28.585,-14.149 -14.084,-20.777c11.493,-5.253 11.994,-5.504 12.349,-4.476c1.415,4.098 -7.639,4.954 -10.465,12.364Z" style="fill:#f59d5f;"/><path d="M562.891,361.347c2.184,3.627 2.162,3.609 2.359,3.917c3.073,4.793 4.105,3.375 8.586,2.264c8.199,-0.358 12.01,2.903 15.583,7.79c4.326,4.747 11.729,0.134 14.891,-3.115c0.467,-0.678 3.61,-5.237 3.383,-9.824c-0.08,-1.623 -2.986,-7.716 -0.027,-5.876c4.449,2.766 1.936,12.292 1.663,13.329c-1.761,3.707 -2.044,3.398 -3.913,5.906c-1.534,0.83 -1.494,0.756 -2.62,2.16c-2.648,1.394 -2.63,1.387 -2.86,1.505c-0.608,0.312 -0.592,0.196 -1.167,0.491c-2.708,0.482 -2.687,0.511 -2.924,0.521c-4.762,0.19 -5.6,2.066 -6.667,-0.417c-5.149,-11.98 -17.816,-10.881 -20.188,-6.965c-2.226,3.677 -1.973,-1.097 -9.058,-9.799c0.215,-0.183 0.291,-0.037 2.958,-1.888Z" style="fill:#88a1c3;"/><path d="M532.83,102.025c0.427,0.079 2.804,0.517 4.969,2.257c10.786,11.049 -11.302,21.963 -13.306,7.358c-1.245,-9.074 7.345,-9.56 8.337,-9.616Z" style="fill:#981721;"/><path d="M570.366,322.955c19.872,-11.461 33.164,3.119 35.122,5.267c0.253,0.394 2.235,3.478 2.959,5.061c0.637,2.944 -0.151,2.913 -0.064,3.149c0.188,0.513 1.028,0.48 1.281,0.961c0.208,0.396 -0.664,1.849 3.169,1.981c0.999,0.034 1.999,0.004 2.998,0.038c14.226,2.137 16.578,12.416 18.082,17.741c-3.427,4.958 -1.359,5.488 -1.006,11.537c-0.345,0.695 -0.69,1.391 -1.036,2.086l0.091,-2.075c0.156,-5.406 0.787,-5.407 -0.685,-10.504c-4.817,-22.649 -20.775,-13.456 -22.39,-17.784c-0.632,-1.694 -2.887,-11.329 -12.226,-16.321c-12.16,-6.5 -22.529,0.031 -24.576,1.036c-0.306,0.151 -0.448,0.297 -0.481,0.33c-1.58,1.629 -2.205,-0.231 -2.346,-0.245c0.822,-1.501 0.862,-1.4 1.107,-2.259Z" style="fill:#97a7b8;"/><path d="M605.213,623.639l-0.324,2.248c-3.558,0.641 -3.467,0.586 -7.063,0.777c-19.865,1.057 -19.526,3.28 -30.394,4.269c-0.19,-1.727 -0.379,-3.454 -0.569,-5.181c9.209,-1.557 9.019,-2.216 20.014,-3.68c16.873,-2.246 17.788,0.139 18.335,1.567Z" style="fill:#62ecf6;"/><path d="M585.729,439.424c-4.903,1.46 -6.535,2.569 -22.885,5.611c-16.118,2.999 -17.889,0.305 -19.522,3.794c-1.401,-1.041 -1.269,-1.263 -3.022,-1.348c0.403,-1.66 -0.078,-2.252 1.53,-2.511c0.687,-0.111 0.64,-0.046 1.195,-0.545c0,0 2.185,-1.786 2.375,-1.941c1.085,0.613 0.33,1.305 1.43,1.927c0.08,0.045 0.276,0.156 1,-0.554c0.408,-0.399 0.485,-1.179 1,-1.406c0.352,-0.155 0.658,0.461 1.037,0.508c0.585,0.072 1.66,-1.094 2.963,-1.176c14.69,-0.927 28.112,-7.642 32.035,-4.14l0.524,1.045l0.339,0.737Z" style="fill:#f9cb97;"/><path d="M535.596,364.758c2.608,-0.323 2.649,0.028 5.145,2.908c-0.31,0.708 -0.683,0.294 -1.015,1.052c-0.032,0.072 -0.051,0.116 0.123,0.985c1.777,8.884 1.698,8.942 -0.164,17.751c-0.311,0.676 -0.622,1.351 -0.934,2.027c-14.894,21.552 -32.177,10.125 -33.723,2.149c-1.698,-8.76 2.489,-0.014 2.561,0.187c8.228,15.446 33.081,3.018 30.719,-15.9c-0.193,-0.899 -1.653,-7.709 -2.713,-11.158Z" style="fill:#7d93b2;"/><path d="M209.869,351.962c0.487,0.382 0.492,0.168 0.962,0.537c0.108,0.085 0.098,0.082 1.326,1.1c2.57,7.985 7.954,8.882 20.674,8.313l1.318,0.478c0.431,3.149 0.736,3.164 0.321,4.056c-1.365,2.931 -32.725,5.378 -24.601,-14.484Z" style="fill:#2268c9;"/><path d="M391.645,324.835c0.395,-0.554 0.791,-1.107 1.186,-1.661l0.574,0.552l0.448,1.045l0.377,1.045l0.283,1.045l0.678,1.045l0.505,1.045c0.416,0.813 2.554,4.998 9.05,6.582c4.887,1.192 13.462,-4.839 14.487,-5.559c0.453,0.659 5.074,7.384 7.457,6.492c0.691,-0.258 0.801,-1.432 1.492,-1.69c1.562,1.588 1.431,1.596 2.646,3.396c-6.681,1.146 -23.096,1.283 -34.004,-0.78c-2.606,-0.493 -0.92,-2.007 -5.179,-12.557Z" style="fill:#b7cae4;"/><path d="M540.301,447.481c1.753,0.085 1.621,0.306 3.022,1.348c2.009,2.658 1.928,2.591 3.754,5.336c-0.008,0.206 0.091,0.153 0.376,2.548c0.283,1.646 0.567,3.292 0.85,4.937c-0.785,0.814 -1.055,0.202 -1.897,1.075c-0.506,0.525 0.08,0.69 -0.31,1.213c-0.328,0.44 -2.433,3.262 -6.205,2.557c-5.832,-1.09 -5.57,-2.714 -4.717,-8.845c0.664,-2.534 1.439,-2.025 1.444,-2.241c0.013,-0.549 -1.046,-0.695 -1.033,-1.243c1.703,-2.858 1.662,-2.763 3.837,-5.29l0.88,-1.395Z" style="fill:#f9fbfc;"/><path d="M439.761,414.52c1.652,0.606 7.489,0.979 7.934,8.466c-0.587,1.922 -0.743,1.744 -2.271,4.206l-0.594,0.541l-1,0.712l-1,0.752l-1,-0.28c-2.473,0.082 -2.411,0.188 -3.93,-0.004c-6.024,-0.76 -4.908,-4.753 -6.327,-4.92c-0.31,-0.036 0.674,0.363 -0.325,4.056c-0.388,-3.113 -1.114,-2.777 -1.211,-2.966c0.173,-0.787 0.347,-1.575 0.52,-2.362c3.471,-5.397 3.536,-5.412 9.204,-8.2Z" style="fill:#fafcfc;"/><path d="M538.308,375.916c2.362,18.919 -22.492,31.346 -30.719,15.9c2.726,-0.154 2.663,-0.14 5.32,0.465c11.747,2.674 22.099,-3.933 23.718,-15.255l1.681,-1.11Z" style="fill:#d6eafb;"/><path d="M230.237,350.593c2.586,2.951 2.685,3.063 3.912,11.798l-1.318,-0.478c-12.72,0.57 -18.104,-0.328 -20.674,-8.313c6.149,-0.807 15.784,-0.454 17.018,-1.438c0.488,-0.389 0.575,-1.181 1.062,-1.57Z" style="fill:#378ae7;"/><path d="M597.131,400.069c-0.37,-6.883 -1.5,-6.822 -1.204,-7.33c0.489,-0.84 4.135,-1.762 4.226,11.472c-2.836,9.265 -3.748,9.013 -3.598,9.841c0.097,0.537 1.081,0.544 1.178,1.08c-8.169,1.906 -12.072,10.877 -26.899,8.9c-4.552,-0.607 -4.441,-0.98 -8.157,-3.849c-3.952,-3.053 -4.409,-1.817 -8.945,0.316c-1.42,-0.371 -1.34,-0.354 -2.858,-0.424c3.147,-1.278 3.293,-1.221 4.958,-4.38c0.724,-0.423 1.448,-0.847 2.172,-1.27c2.119,2.378 1.814,2.698 3.663,3.666c14.247,7.454 20.502,3.143 22.298,2.181c0.465,-0.249 4.168,-1.039 4.958,-2.342c2.88,-4.751 8.903,-6.32 8.208,-17.86Z" style="fill:#92a8c5;"/><path d="M528.948,337.224c0.569,0.291 1.139,0.582 1.708,0.873c0.012,1.476 -2.22,14.689 15.175,15.343l1,0.005l1,-0.064l1,-0.181l1,-0.305l1,-0.159l1,-0.092l1,-0.417l1,-0.713l1.352,1.799c-2.402,2.578 -2.793,2.005 -14.356,3.775c-9.16,1.402 -11.9,-5.987 -12.306,-7.082c-0.816,-2.201 -1.215,-1.789 -2.357,-1.829c0.716,-2.236 0.774,-2.212 0.773,-2.415c-0.02,-4.455 0.798,-4.192 2.011,-8.537Z" style="fill:#c5e1f7;"/><path d="M560.669,345.669l1.606,1.049c3.419,9.017 4.451,8.279 9.128,14.021c3.245,3.984 2.437,6.409 2.434,6.789c-4.48,1.111 -5.513,2.529 -8.586,-2.264c-0.197,-0.308 -0.175,-0.29 -2.359,-3.917c-2.138,-6.932 -4.172,-9.946 -2.223,-15.678Z" style="fill:#c3e0f9;"/><path d="M554.441,553.486c-2.989,0.826 -3.19,0.289 -5.578,2.33c-0.484,0.414 -0.748,1.127 -1.318,1.398c-0.231,0.109 -0.369,-0.597 -0.6,-0.488c-1.707,-15.316 -1.79,-15.21 -1.866,-17.687c-0.076,-2.477 5.898,0.683 6.746,1.036c2.151,0.894 3.052,10.913 2.615,13.411Z" style="fill:#5991b9;"/><path d="M268.258,314.083c10.244,8.061 10.877,16.353 11.783,20.068l-1.21,-0.176l-1,-0.295c-4.45,0.206 -4.54,0.23 -8.266,-2.383c2.768,-1.175 2.786,-1.103 2.99,-1.269c0.339,-0.275 1.551,-1.441 -3.502,-4.251c-1.009,-4.202 -0.892,-4.158 -1.871,-8.347c-0.365,-1.562 0.117,-1.431 1.077,-3.347Z" style="fill:#fcead1;"/><path d="M602.197,116.398c1.711,1.474 1.673,1.458 2.706,3.522l0.036,2.123c-1.526,3.16 -1.136,3.604 -4.122,5.17c-0.211,0.018 -4.913,2.408 -8.694,-5.232c0.792,-2.868 0.817,-2.765 1.031,-3.988c5.06,-6.126 8.147,-2.211 9.043,-1.595Z" style="fill:#34cebb;"/><path d="M763.74,525.558c-9.768,-8.709 -6.888,-18.811 -6.835,-18.884c2.645,-3.676 2.308,0.7 4.304,6.029c4.866,12.994 12.29,14.81 12.269,15.863c-0.017,0.849 -0.845,2.213 -9.738,-3.009Z" style="fill:#763320;"/><path d="M379.735,326.702c3.937,-2.341 3.888,-2.378 4.252,-2.528c3.149,-1.301 2.591,10.537 2.428,10.866c-1.153,2.318 -13.69,-0.465 -13.829,-0.619c-1.487,-1.649 4.541,-5.714 7.15,-7.719Z" style="fill:#cb6b38;"/><path d="M552.188,410.43c2.087,2.444 2.17,2.278 3.644,5.265c-1.665,3.16 -1.811,3.103 -4.958,4.38c-4.633,0.022 -4.595,0.047 -4.994,0.03l-1.852,0.766c-0.599,-0.045 -1.197,-0.089 -1.796,-0.134c-1.303,-2.534 -1.351,-2.441 -2.559,-4.979c-2.914,-6.117 3.569,-0.563 11.402,-4.087c0.371,-0.414 0.743,-0.828 1.114,-1.242Z" style="fill:#d2e6f9;"/><path d="M554.441,553.486c0.475,1.088 1.812,4.151 2.231,14.759c0.048,1.221 -1.643,0.822 -1.795,0.786c-8.027,-1.894 -7.063,-4.048 -7.933,-12.306c0.231,-0.109 0.369,0.597 0.6,0.488c0.57,-0.27 0.833,-0.983 1.318,-1.398c2.388,-2.041 2.589,-1.504 5.578,-2.33Z" style="fill:#91f7fa;"/><path d="M514.844,406.312l0.849,0.265c0.249,0.261 0.498,0.523 0.746,0.784c-1.342,5.925 -1.33,5.847 -4.107,11.241c-4.955,7.672 0.963,15.689 1.751,16.757c0.775,3.348 0.436,3.309 0.516,3.587c-3.338,-3.305 -3.241,-3.367 -5.293,-7.678l-0.122,-2.012c0.376,-2.144 0.33,-2.096 -0.306,-4.166c-0.258,-0.617 -0.029,-1.38 -0.287,-1.996c-1.08,-2.583 -11.032,4.847 -19.97,-2.899c0.676,0.006 1.352,0.013 2.028,0.019c0.802,0.438 0.492,1.078 2.028,1.108c0.119,0.002 9.099,4.071 16.199,-3.487c3.789,-4.034 4.275,-7.028 4.317,-7.128c0.499,-2.393 0.508,-2.324 1.65,-4.395Z" style="fill:#98a9bf;"/><path d="M634.768,586.483l1.063,-1.477l1,0.151l1,0.22l1.24,-0.377l0.76,-0.625l1.119,-0.42l0.881,-0.745l1,-0.054l1,-0.049l1,0.471c1.342,-0.299 8.776,-1.955 17.113,1.131c0.331,0.123 1.069,0.396 3.887,2.146c2.109,1.31 0.022,2.455 -0.091,2.66c-16.453,-4.075 -17.966,-1.685 -30.971,-3.033Z" style="fill:#fab578;"/><path d="M491.856,324.756c5.529,3.321 7.764,5.352 8.374,5.907c-3.376,4.178 -3.607,4.167 -4.704,11.586l-0.699,1.542c-0.641,-0.266 -3.852,-1.598 -7.937,-3.506c2.244,-1.593 2.269,-1.536 2.423,-1.721c0.497,-0.597 3.57,-8.703 3.153,-10.986c-0.492,-2.695 -0.589,-2.591 -0.611,-2.821Z" style="fill:#e3edf9;"/><path d="M590.857,545.038l-1.042,0.893c-1.639,0.25 -3.279,0.5 -4.918,0.75c-1.493,0.455 -4.68,0.24 -5.086,0.213c-16.165,0.96 -16.779,3.588 -17.793,3.404c-0.42,-0.076 -0.477,-0.877 -0.898,-0.953c-0.422,-4.756 -1.769,-7.428 2.796,-6.653c12.502,2.122 20.819,1.77 26.941,2.345Z" style="fill:#598bac;"/><path d="M711.652,404.23c1.759,9.654 1.615,9.609 4.885,18.892c3.497,9.928 -13.372,-7.744 -8.311,-19.75c1.934,-4.589 3.349,0.575 3.427,0.858Z" style="fill:#af5830;"/><path d="M318.873,353.985c-4.628,4.792 -8.166,4.17 -13.438,3.054c1.309,-3.882 2.409,-5.082 3.097,-12.538c0.51,-5.538 1.804,1.297 10.342,9.484Z" style="fill:#2b84e0;"/><path d="M230.237,350.593c-0.488,0.389 -0.575,1.181 -1.062,1.57c-1.234,0.983 -10.869,0.631 -17.018,1.438c-1.227,-1.019 -1.217,-1.015 -1.326,-1.1c-0.471,-0.369 -0.475,-0.155 -0.962,-0.537c2.105,-3.039 2.577,-3.665 6.951,-4.284c8.822,-1.248 9.304,-1.306 13.417,2.914Z" style="fill:#69b6f0;"/><path d="M399.027,261.06c-0.329,1.416 -0.657,2.833 -0.986,4.249c-5.621,-1.27 -12.246,-0.689 -14.889,14.523c-0.357,-0.506 -1.445,0.422 -1.802,-0.083c-0.219,-0.31 2.162,-11.428 4.667,-14.401c3.779,-4.486 10.082,-7.103 10.814,-6.671c0.459,0.271 0.519,1.028 0.978,1.299l1.218,1.085Z" style="fill:#fbcd9b;"/><path d="M497.923,286.103c11.176,7.633 17.55,7.183 12.2,12.889l-1.292,-1.785c-11.928,1.058 -11.018,-9.663 -10.908,-11.104Z" style="fill:#faae70;"/><path d="M533.757,457.468c0.472,0.061 0.944,0.121 1.416,0.182c-0.853,6.131 -1.115,7.755 4.717,8.845c3.772,0.705 5.877,-2.118 6.205,-2.557c0.39,-0.523 -0.197,-0.688 0.31,-1.213c0.842,-0.873 1.112,-0.261 1.897,-1.075c0.513,2.929 1.934,7.035 -6.471,9.437l-2.003,0.025c-1.74,-0.623 -5.427,-2.613 -5.777,-3.303c-1.488,-2.936 0.19,-3.152 -0.293,-10.341Z" style="fill:#cbe5f9;"/><path d="M548.946,392.868c0.351,-0.398 5.775,-6.539 5.671,-3.259c-0.13,4.107 -6.338,3.695 -1.989,14.701c2.313,5.33 2.238,5.322 5.376,10.115c-0.724,0.423 -1.448,0.847 -2.172,1.27c-1.474,-2.987 -1.557,-2.821 -3.644,-5.265c-2.83,-7.741 -3.426,-7.534 -4.192,-15.707c0.317,-0.618 0.633,-1.237 0.95,-1.855Z" style="fill:#91accd;"/><path d="M560.636,111.245c0.733,0.112 1.466,0.224 2.199,0.336c-3.963,5.048 -3.42,5.332 -3.587,6.219c0.031,3.02 0.772,2.757 0.864,2.991c0.043,0.098 -0.521,1.283 0.907,2.066c0.261,0.143 0.617,-0.031 0.878,0.113c4.103,3.556 8.328,-0.952 8.631,-3.165c0.28,-0.492 1.12,-0.408 1.4,-0.9c0.043,-0.076 -0.425,0.138 -0.281,-1.068c0.025,-0.209 0.105,-0.161 1.421,-2.175c2.125,15.746 -17.147,12.87 -16.142,1.143c0.231,-2.69 3.302,-5.224 3.709,-5.56Z" style="fill:#347417;"/><path d="M583.355,550.667l1.476,-1.561c1.253,0.166 3.565,0.473 10.979,11.866c1.128,1.733 0.167,1.728 -1.069,3.352c-4.804,-3.364 -5.028,-3.275 -11.387,-13.657Z" style="fill:#c8fbfb;"/><path d="M579.682,550.549c1.572,-1.777 2.098,-1.698 3.673,0.118c6.358,10.382 6.583,10.293 11.387,13.657c0.544,0.314 5.106,2.647 1.944,3.608c-1.827,0.556 -5.145,1.565 -17.004,-17.384Z" style="fill:#5fdde7;"/><path d="M450.719,420.905c-0.017,2.141 -0.158,2.086 0.245,4.198c-0.064,0.735 -0.129,1.47 -0.193,2.205c-1.306,0.445 -1.684,-0.384 -3.345,1.631c-2.158,2.618 -3.041,2.168 -5.58,4.541l-0.628,0.451c-0.797,-0.562 -1.594,-1.124 -2.391,-1.686c-3.99,-0.882 -4.739,-1.549 -5.065,-1.84c-1.06,-1.023 -1.832,-1.961 -1.981,-2.142l-0.533,-0.214c0.999,-3.692 0.015,-4.092 0.325,-4.056c1.419,0.166 0.304,4.159 6.327,4.92c1.52,0.192 1.457,0.086 3.93,0.004l1,0.28l1,-0.752l1,-0.712l0.594,-0.541c1.527,-2.461 1.683,-2.284 2.271,-4.206c0.279,0.44 -0.633,1.298 1.49,2.354c0.423,0.21 -0.033,-1.997 1.533,-4.435Z" style="fill:#acc5df;"/><path d="M499.443,337.156c1.365,2.087 1.561,1.887 2.718,4.156c2.774,5.438 4.261,3.803 8.583,7.977c-4.534,0.382 -5.871,1.569 -11.573,-2.989c-2.126,-1.699 -1.888,-6.058 0.272,-9.144Z" style="fill:#c3ddf6;"/><path d="M540.741,367.665c6.204,12.246 0.648,15.118 4.012,20.925c0.769,1.328 0.771,1.306 0.763,1.437c-0.048,0.816 -0.861,0.221 -0.908,1.026c-2.808,-1.388 -3.01,-1.024 -4.923,-3.601c1.862,-8.809 1.941,-8.867 0.164,-17.751c-0.174,-0.869 -0.155,-0.913 -0.123,-0.985c0.332,-0.758 0.705,-0.343 1.015,-1.052Z" style="fill:#cae0f6;"/><path d="M563.302,633.967c0.3,2.143 0.601,4.285 0.901,6.428c-3.783,2.83 -4.195,2.12 -7.64,5.295c-0.417,-4.293 -0.996,-8.757 -1.095,-9.517c4.072,-0.333 3.672,-1.599 6.448,-2.407c0.449,-0.131 0.936,0.331 1.385,0.2Z" style="fill:#369ec0;"/><path d="M349.027,443.78c-0.853,1.103 -1.361,2.523 -5.196,3.973l-1.112,1.693c-1.041,-0.549 -0.997,-0.502 -2.019,-1.065c-1.755,-0.966 -2.651,-1.297 -2.832,-1.39c-0.61,-0.311 -1.735,-1.556 5.052,-7.123c1.381,-1.133 1.429,0.045 6.106,3.912Z" style="fill:#fcd7d8;"/><path d="M250.98,327.765c3.96,5.291 4.137,5.164 6.301,11.548c-3.027,1.73 -3.145,1.191 -6.515,0.181c-0.596,-4.301 -0.669,-4.222 -1.804,-8.448c-0.567,-2.113 0.491,-1.747 2.019,-3.281Z" style="fill:#fce6c4;"/><path d="M596.887,112.919c1.327,0.218 2.653,0.437 3.98,0.655c0.561,0.139 1.123,0.277 1.684,0.416c1.511,1.089 1.324,1.175 2.569,2.593c-0.35,3.17 -0.18,3.073 -0.216,3.338c-1.033,-2.064 -0.995,-2.048 -2.706,-3.522c-0.895,-0.616 -3.983,-4.531 -9.043,1.595c-0.253,0.528 -1.234,0.319 -1.487,0.847c-0.02,0.041 0.607,0.729 0.552,2.139c-0.013,0.335 -0.084,0.666 -0.096,1.001c3.78,7.64 8.483,5.25 8.694,5.232l2.35,0.476c-1.494,1.245 -1.426,1.265 -3.293,1.861c-1.933,-1.029 -2.001,-1.124 -4.051,-0.194c-0.902,-0.521 -8.546,-4.937 -4.235,-12.713c2.14,-0.857 2.217,-0.847 3.16,-3.083c1.071,-0.447 1.083,-0.184 2.139,-0.64Z" style="fill:#2d6627;"/><path d="M537.044,107.278c0.219,0.397 0.438,0.794 0.657,1.191c0.166,1.571 0.176,1.491 0.037,3.062l-0.249,0.904c-0.13,0.183 -0.798,1.122 -1.743,2.186c-2.045,2.012 -2.273,2.187 -4.931,1.164c-3.485,-1.341 -3.833,-5.705 -3.88,-6.302l0.896,-0.139c1.723,0.047 3.652,-0.32 3.965,-0.38c1.698,-0.324 3.753,1.173 4.035,0.97c0.446,-0.321 0.32,-1.176 0.766,-1.497l0.447,-1.157Z" style="fill:#ed1a5e;"/><path d="M562.836,111.581c2.257,-0.343 2.274,-0.557 4.228,0.545c1.779,1.003 1.824,0.809 2.512,1.675c-0.248,0.713 -0.497,1.426 -0.745,2.14l-0.505,0.856c-1.202,1.561 -1.149,1.638 -4.495,3.118l-1,-0.182l-1,-0.726l-1,-0.753c-0.528,-0.151 -1.055,-0.303 -1.583,-0.454c0.168,-0.887 -0.376,-1.171 3.587,-6.219Z" style="fill:#59f3a7;"/><path d="M569.576,113.801c0.549,1.149 1.639,0.979 0.952,6.004c-0.303,2.212 -4.527,6.721 -8.631,3.165c-0.98,-1.031 -1.655,-1.994 -1.785,-2.179c-0.092,-0.234 -0.833,0.029 -0.864,-2.991c0.528,0.151 1.055,0.303 1.583,0.454l1,0.753l1,0.726l1,0.182c3.346,-1.481 3.293,-1.557 4.495,-3.118l0.505,-0.856c0.248,-0.713 0.497,-1.426 0.745,-2.14Z" style="fill:#41dc76;"/><path d="M562.864,626.806c0.146,2.387 0.292,4.774 0.438,7.161c-0.449,0.131 -0.936,-0.331 -1.385,-0.2c-2.776,0.808 -2.376,2.074 -6.448,2.407c-0.362,-2.631 -0.436,-2.511 -0.789,-5.147c3.415,-1.888 7.523,-3.896 8.185,-4.22Z" style="fill:#56eef8;"/><path d="M604.31,372.204c-3.162,3.249 -10.565,7.863 -14.891,3.115c0.558,-0.266 0.854,-0.966 1.412,-1.232c0.75,-0.357 0.961,0.644 10,-2.615l1,-0.409l1,0.42l1.479,0.721Z" style="fill:#e3f1fb;"/><path d="M421.637,324.853c1.225,5.414 1.322,5.548 6.13,9.429l0.415,0.494c-0.691,0.258 -0.801,1.432 -1.492,1.69c-2.383,0.892 -7.004,-5.833 -7.457,-6.492c-0.129,-1.385 -0.258,-2.77 -0.387,-4.155c0.044,-0.241 1.081,-5.865 2.791,-0.967Z" style="fill:#93afd2;"/><path d="M605.416,375.738c0.968,1.247 0.246,1.85 2.482,3.196c5.114,3.08 5.281,2.445 7.923,3.078c1.678,0.107 3.356,0.213 5.033,0.32c-5.165,1.502 -5.859,-0.544 -9.913,2.987c-3.17,-4.639 -4.002,-3.633 -8.145,-7.421c1.126,-1.404 1.085,-1.33 2.62,-2.16Z" style="fill:#879bbc;"/><path d="M534.607,104.67c0.996,0.87 0.919,0.798 0.996,0.87c0.541,0.505 0.432,0.528 0.944,1.006l0.496,0.732l-0.447,1.157c-0.446,0.321 -0.32,1.176 -0.766,1.497c-0.282,0.203 -2.337,-1.293 -4.035,-0.97c-0.313,0.06 -2.243,0.428 -3.965,0.38l-0.896,0.139c0.678,-2.227 1.694,-6.427 7.671,-4.812Z" style="fill:#fa3a86;"/><path d="M549.376,456.578c0.412,1.369 0.824,2.737 1.236,4.106c-0.499,2.677 -0.37,2.616 -0.328,5.314c-0.162,0.571 -0.952,3.358 -4.658,5.627c-1.875,-0.635 -1.835,-0.47 -3.795,-0.539c8.405,-2.402 6.984,-6.508 6.471,-9.437c0.228,-2.61 0.129,-2.584 1.074,-5.072Z" style="fill:#98aabd;"/><path d="M539.685,387.454c1.913,2.577 2.114,2.212 4.923,3.601c0.367,0.073 1.632,0.323 4.338,1.813c-0.317,0.618 -0.633,1.237 -0.95,1.855c-2.627,-0.234 -2.539,-0.372 -5.039,-1.394c-2.331,-1.662 -2.471,-1.432 -4.205,-3.849c0.311,-0.676 0.622,-1.351 0.934,-2.027Z" style="fill:#acc8e8;"/><path d="M608.446,333.282c4.876,0.307 3.923,2.176 7.384,6.129c-0.999,-0.034 -1.999,-0.004 -2.998,-0.038c-3.833,-0.132 -2.961,-1.584 -3.169,-1.981c-0.253,-0.482 -1.093,-0.448 -1.281,-0.961c-0.086,-0.235 0.701,-0.204 0.064,-3.149Z" style="fill:#eeab86;"/><path d="M516.749,440.9c1.074,-0.172 2.149,-0.344 3.223,-0.516c6.369,1.449 6.313,1.918 12.802,1.211c1.046,0.134 2.093,0.267 3.139,0.401c-1.52,0.665 -1.464,0.675 -3.057,0.995c-4.541,-0.16 -4.462,-0.507 -9.085,0.365c-4.916,-0.295 -4.647,-1.054 -7.023,-2.456Z" style="fill:#a2acbc;"/><path d="M563.798,110.399c0.391,-0.009 3.455,-0.079 4.873,0.441c2.936,1.601 2.736,1.789 4.398,4.823c-1.316,2.014 -1.396,1.966 -1.421,2.175c-0.144,1.205 0.325,0.991 0.281,1.068c-0.28,0.492 -1.12,0.408 -1.4,0.9c0.687,-5.025 -0.403,-4.855 -0.952,-6.004c-0.688,-0.866 -0.733,-0.671 -2.512,-1.675c-1.954,-1.102 -1.971,-0.888 -4.228,-0.545c-0.733,-0.112 -1.466,-0.224 -2.199,-0.336c1.542,-0.79 1.483,-0.66 3.162,-0.846Z" style="fill:#419f3d;"/><path d="M544.897,429.299l-0.037,2.083c-0.729,4.171 -2.42,3.32 -3.127,6.164c-0.122,0.492 -1.654,1.992 -1.991,2.075c-2.198,0.539 -1.638,1.596 -3.828,2.375c-1.046,-0.134 -2.093,-0.267 -3.139,-0.401c3.86,-1.413 4.058,-1.063 7.002,-4.014c3.487,-3.495 3.163,-3.71 5.12,-8.283Z" style="fill:#9ba6b4;"/><path d="M653.846,531.806c2.98,2.46 0.99,3.123 0.272,7.228c-1.461,-0.917 -1.484,-0.758 -2.96,-1.714c1.284,-0.4 2.16,-0.293 1.357,-1.438c-0.292,-0.416 -0.977,-0.542 -1.094,-1.043c-0.169,-0.731 0.505,-1.499 0.336,-2.23c0.164,-0.072 0.121,-0.017 2.089,-0.802Z" style="fill:#7da4cc;"/><path d="M269.052,325.776c5.052,2.81 3.841,3.976 3.502,4.251c-0.204,0.165 -0.221,0.094 -2.99,1.269c-2.269,-2.559 -2.05,-3.048 -0.512,-5.52Z" style="fill:#fbe0bd;"/><path d="M527.637,334.447c2.293,-1.247 2.322,-1.513 4.848,-0.74c-0.688,2.297 -0.606,2.272 -1.829,4.389c-0.569,-0.291 -1.139,-0.582 -1.708,-0.873c-0.781,-1.374 -0.782,-1.248 -1.311,-2.777Z" style="fill:#b3878e;"/><path d="M533.757,457.468c0.483,7.189 -1.195,7.405 0.293,10.341c0.35,0.69 4.037,2.679 5.777,3.303l-2.997,-0.025c-2.178,-1.351 -2.043,-1.384 -3.753,-3.274c-0.03,-0.573 -0.014,-0.527 -0.205,-7.169c0.126,-1.725 -0.036,-1.74 0.885,-3.176Z" style="fill:#acafbb;"/><path d="M379.513,375.957c-0.541,-0.638 -4.87,-2.872 -3.936,-5.393c1.098,-2.963 3.652,0.901 3.756,2.313c0.018,0.246 0.013,0.228 0.179,3.079Z" style="fill:#b05228;"/><path d="M633.913,357.152c0.271,3.216 0.168,3.147 0.193,6.312c-0.408,2.718 -0.422,2.654 -1.199,5.224c-0.354,-6.048 -2.421,-6.579 1.006,-11.537Z" style="fill:#a8a4ae;"/><path d="M607.135,412.967c-4.04,4.046 -5.444,2.947 -9.402,2.167c0.815,-0.153 0.295,-0.893 1.098,-1.044c2.549,-0.479 2.512,0.341 5.141,-0.128c0.472,-0.084 0.629,-0.838 1.088,-0.982c0.662,-0.208 1.413,0.195 2.075,-0.013Z" style="fill:#9da7ba;"/><path d="M514.083,435.36c2.39,3.159 2.516,2.919 5.889,5.024c-1.074,0.172 -2.149,0.344 -3.223,0.516c-1.115,-0.979 -1.06,-0.928 -2.15,-1.953c-0.08,-0.278 0.258,-0.239 -0.516,-3.587Z" style="fill:#a1b3cd;"/><path d="M605.12,116.583c0.389,0.576 2.832,4.189 0.083,8.813c-0.307,-3.157 -0.223,-3.086 -0.263,-3.352l-0.036,-2.123c0.036,-0.265 -0.134,-0.168 0.216,-3.338Z" style="fill:#4b6922;"/><path d="M545.879,420.106c1.693,0.571 1.541,0.983 3.97,0.909c-2.674,2.038 -2.726,2.007 -4.062,5.122c-0.024,-0.697 -0.048,-1.394 -0.073,-2.09c-0.31,-2.324 -1.126,-2.512 0.165,-3.941Z" style="fill:#a7a6b2;"/><path d="M604.94,122.043c0.041,0.266 -0.043,0.195 0.263,3.352c-0.766,1.449 -0.712,1.421 -2.036,2.294l-2.35,-0.476c2.986,-1.566 2.597,-2.01 4.122,-5.17Z" style="fill:#2a6b2b;"/><path d="M536.83,471.087l2.997,0.025l2.003,-0.025c1.96,0.069 1.92,-0.097 3.795,0.539c-6.711,1.436 -6.737,0.503 -8.796,-0.538Z" style="fill:#a2a4a9;"/><path d="M613.503,389.692c0.398,0.67 0.797,1.339 1.195,2.009c0.093,1.589 -0.045,1.524 0.047,3.099c0.02,0.336 0.022,0.311 0.296,4.197c-0.646,-2.661 -1.013,-2.508 -1.274,-5.243c-0.196,-2.059 -0.081,-2.006 -0.265,-4.062Z" style="fill:#a3a7bc;"/><path d="M373.681,382.814c7.727,-2.747 0.409,3.594 0.376,3.624c0.569,-1.883 0.643,-1.866 0.614,-2.034c-0.167,-0.981 -0.82,-0.59 -0.99,-1.59Z" style="fill:#83371d;"/><path d="M434.84,432.401c0.53,-0.03 0.431,0.151 0.945,0.121c0.244,-0.014 0.225,-0.021 3.043,-0.28c0.797,0.562 1.594,1.124 2.391,1.686c-3.324,-0.502 -3.479,0.177 -6.379,-1.528Z" style="fill:#939eba;"/><path d="M523.772,443.356c4.622,-0.872 4.544,-0.526 9.085,-0.365c-4.559,0.696 -4.496,0.822 -9.085,0.365Z" style="fill:#aba8a9;"/><path d="M408.892,295.842c3.471,-0.264 3.415,-0.342 6.928,-0.229c-3.286,1.64 -3.363,1.034 -6.928,0.229Z" style="fill:#aea9a8;"/><path d="M545.879,420.106c0.399,0.017 0.361,-0.008 4.994,-0.03c1.518,0.07 1.439,0.052 2.858,0.424c-1.294,0.172 -2.588,0.344 -3.883,0.515c-2.429,0.074 -2.277,-0.338 -3.97,-0.909Z" style="fill:#adb0bb;"/><path d="M547.452,456.712c0.641,-0.045 1.282,-0.09 1.924,-0.134c-0.945,2.487 -0.845,2.462 -1.074,5.072c-0.283,-1.646 -0.567,-3.292 -0.85,-4.937Z" style="fill:#a3bacf;"/><path d="M532.872,460.644c0.192,6.642 0.176,6.596 0.205,7.169c-1.116,-3.518 -0.867,-3.544 -0.205,-7.169Z" style="fill:#b8a8a8;"/><path d="M233.775,461.655c0.647,1.564 0.724,1.484 1.029,3.172c-0.176,-0.085 -2.204,-1.057 -2.204,-1.057c0,0 1.081,-1.946 1.175,-2.115Z" style="fill:#fbddb6;"/><path d="M614.698,391.701c1.073,3.565 1.047,3.586 0.343,7.296c-0.274,-3.886 -0.276,-3.861 -0.296,-4.197c-0.092,-1.575 0.046,-1.51 -0.047,-3.099Z" style="fill:#ab9aa3;"/><path d="M433.762,430.403c0.327,0.291 1.076,0.957 5.065,1.84c-2.817,0.259 -2.799,0.266 -3.043,0.28c-0.513,0.029 -0.414,-0.152 -0.945,-0.121c-0.307,-0.379 -0.614,-0.758 -0.921,-1.138l-0.157,-0.86Z" style="fill:#92adce;"/><path d="M620.956,381.586l1.036,0.013c-0.379,0.244 -0.758,0.489 -1.138,0.733c-1.678,-0.107 -3.356,-0.213 -5.033,-0.32c1.712,-0.142 3.423,-0.284 5.135,-0.426Z" style="fill:#9aa6ba;"/><path d="M594.08,113.874l0.668,-0.315c-0.943,2.236 -1.021,2.226 -3.16,3.083c1.185,-1.504 1.088,-1.522 2.492,-2.768Z" style="fill:#5a7f31;"/><path d="M545.715,424.046c0.024,0.697 0.048,1.394 0.073,2.09c-0.309,1.748 -0.619,3.496 -0.928,5.245l0.037,-2.083c0.12,-1.385 0.24,-2.77 0.36,-4.155l0.458,-1.097Z" style="fill:#bab4ba;"/><path d="M584.897,546.682c1.639,-0.25 3.279,-0.5 4.918,-0.75c-0.213,0.237 0.149,0.735 -0.063,0.971c-0.76,0.845 -4.478,-0.123 -4.855,-0.221Z" style="fill:#83dfe7;"/><path d="M595.823,129.355c2.049,-0.93 2.117,-0.834 4.051,0.194c-2.073,0.078 -2.013,0.003 -4.051,-0.194Z" style="fill:#575f1d;"/><path d="M363.666,547.5c-0.186,-0.04 -5.035,-1.074 -1.073,-2.213c0.695,-0.199 1.182,0.807 1.237,0.92c0.322,0.663 -0.476,0.651 -0.165,1.293Z" style="fill:#7c271f;"/><path d="M263.84,313.414l1.274,-1.184l1.215,1.045l-0.498,0.564l-1,0.161c-0.33,-0.195 -0.661,-0.391 -0.991,-0.586Z" style="fill:#fcd8a9;"/><path d="M545.879,420.106c-1.291,1.429 -0.475,1.617 -0.165,3.941l-0.458,1.097c-0.224,-2.305 -0.245,-2.245 -1.23,-4.272l1.852,-0.766Z" style="fill:#acc2da;"/><path d="M622.979,380.449c0.638,-0.063 1.277,-0.126 1.915,-0.19c-1.303,1.06 -1.254,1.115 -2.903,1.34l-1.036,-0.013c0.675,-0.379 1.349,-0.758 2.024,-1.137Z" style="fill:#9e9dac;"/><path d="M431.781,428.262c0.149,0.181 0.921,1.118 1.981,2.142l0.157,0.86c-0.21,-0.214 -0.663,0.105 -0.873,-0.109c-0.21,-0.213 0.068,-0.678 -0.126,-0.907c-0.295,-0.349 -0.506,0.307 -0.767,-0.148c-0.477,-0.833 0.142,-0.942 -0.372,-1.838Z" style="fill:#95a6c7;"/><path d="M487.641,419.084c1.674,0.163 1.557,0.338 3.009,1.13c-0.676,-0.006 -1.352,-0.013 -2.028,-0.019l-0.779,-0.338l-0.202,-0.774Z" style="fill:#9dadc2;"/><path d="M550.612,460.684c0.207,2.734 0.332,2.697 -0.328,5.314c-0.042,-2.698 -0.171,-2.637 0.328,-5.314Z" style="fill:#aba2a2;"/><path d="M593.154,117.994c-0.214,1.222 -0.238,1.12 -1.031,3.988c0.013,-0.335 0.084,-0.666 0.096,-1.001c0.054,-1.411 -0.572,-2.098 -0.552,-2.139c0.253,-0.528 1.234,-0.319 1.487,-0.847Z" style="fill:#379363;"/><path d="M625.902,379.209c-0.336,0.35 -0.671,0.701 -1.007,1.051c-0.638,0.063 -1.277,0.126 -1.915,0.19c0.974,-0.414 1.948,-0.827 2.922,-1.241Z" style="fill:#9e9fb1;"/><path d="M605.213,623.639l0.701,1.076c-0.118,0.598 1.208,0.835 1.09,1.432c0,0 -1.946,-0.24 -2.116,-0.26l0.324,-2.248Z" style="fill:#50c5db;"/><path d="M537.489,112.436c-0.353,0.747 0.614,1.343 -0.956,2.024c-0.401,0.174 -0.374,-0.018 -0.787,0.161c0.945,-1.064 1.613,-2.003 1.743,-2.186Z" style="fill:#b90b35;"/><path d="M408.837,404.222c0.818,-0.454 0.171,-1.015 0.994,-1.472c0.064,-0.035 0.317,-0.176 0.772,0.491c0.778,1.138 -0.56,0.311 -1.767,0.98Z" style="fill:#65200c;"/><path d="M615.041,398.997c-0.262,2.073 -0.28,1.964 -0.707,3.976l-0.279,-0.788c0.329,-1.063 0.658,-2.125 0.986,-3.188Z" style="fill:#aca5ab;"/><path d="M631.963,368.7l-0.091,2.075c-0.303,0.367 -0.605,0.734 -0.908,1.101c0.333,-1.059 0.666,-2.117 0.999,-3.176Z" style="fill:#a7aabf;"/><path d="M596.887,112.919c2.073,0.094 1.972,0.199 3.98,0.655c-1.327,-0.218 -2.653,-0.437 -3.98,-0.655Z" style="fill:#4b823e;"/><path d="M434.15,300.074c-1.016,0.968 -1.811,1.837 -1.963,2.002c0.282,-0.508 -0.33,-0.513 -0.027,-1.058c0.088,-0.158 0.147,-0.07 1.99,-0.945Z" style="fill:#b2c5d7;"/><path d="M599.831,545.238l3.992,0.32c-2.085,0.193 -1.989,0.143 -3.992,-0.32Z" style="fill:#aedbeb;"/><path d="M560.113,120.791c0.13,0.185 0.806,1.147 1.785,2.179c-0.261,-0.143 -0.617,0.031 -0.878,-0.113c-1.428,-0.783 -0.864,-1.968 -0.907,-2.066Z" style="fill:#38a145;"/><path d="M614.055,402.185l0.279,0.788c-0.019,0.039 -0.312,-0.193 -0.852,2.094c-0.193,-1.509 -0.029,-1.465 0.573,-2.883Z" style="fill:#a8aab2;"/><path d="M508.879,425.091c0.635,2.07 0.682,2.022 0.306,4.166l-0.306,-4.166Z" style="fill:#bda395;"/><path d="M462.834,419.038c1.473,-0.521 1.393,-0.713 2.974,-0.342c-0.991,0.114 -1.983,0.228 -2.974,0.342Z" style="fill:#b2a59f;"/><path d="M469.806,415.609c-0.039,0.018 0.073,1.055 -3,1.021c1,-0.34 2,-0.681 3,-1.021Z" style="fill:#a6bdd5;"/><path d="M534.607,104.67c1.19,0.702 1.225,0.565 1.94,1.876c-0.512,-0.478 -0.403,-0.501 -0.944,-1.006c-0.077,-0.072 0,-0 -0.996,-0.87Z" style="fill:#cf2350;"/><path d="M537.7,108.47c0.554,1.583 0.505,1.552 0.037,3.062c0.139,-1.571 0.129,-1.49 -0.037,-3.062Z" style="fill:#cd1b43;"/></g></svg>