<?xml version="1.0" encoding="UTF-8" standalone="no"?><!DOCTYPE svg PUBLIC "-//W3C//DTD SVG 1.1//EN" "http://www.w3.org/Graphics/SVG/1.1/DTD/svg11.dtd"><svg width="100%" height="100%" viewBox="0 0 2048 2048" version="1.1" xmlns="http://www.w3.org/2000/svg" xmlns:xlink="http://www.w3.org/1999/xlink" xml:space="preserve" xmlns:serif="http://www.serif.com/" style="fill-rule:evenodd;clip-rule:evenodd;stroke-linejoin:round;stroke-miterlimit:2;"><g id="Background"><path d="M1082.365,741.239c9.527,-15 9.438,-14.939 10.289,-16.2c11.006,-16.317 50.724,-16.779 54.738,-24.701c8.268,-16.316 -33.53,7.626 -44.922,3.635c-5.691,-1.994 -127.128,-186.405 -128.136,-188.936c-7.235,-18.166 7.081,-11.363 198.38,-52.848c21.009,-4.556 24.764,0.585 35.132,-25.325c3.119,-7.794 -8.759,-13.491 -5.33,-22.277c4.465,-11.443 7.03,-6.251 14.286,1.815c5.003,5.561 29.203,-41.043 65.022,-44.944c44.55,-4.851 48.22,50.989 48.5,52.697c0.184,1.122 -0.472,9.277 23.905,1.958c7.895,-2.37 0.201,-82.507 5.728,-88.772c11.581,-13.129 1.934,82.273 7.062,89.704c9.565,13.863 1.647,-34.939 9.549,-46.44c8.056,-11.725 4.161,-14.372 6.59,-145.678c1.562,-84.441 -1.04,-86.414 3.203,-90.624c9.781,-9.706 6.179,36.527 5.968,73.726c-0.82,144.522 -7.601,148.462 3.109,162.646c4.591,6.08 5.84,6.881 3.783,77.311c-0.232,7.943 -0.278,9.509 48.606,72.71c19.698,25.467 18.819,36.77 30.076,28.041c11.883,-9.214 87.197,-24.905 94.851,-26.499c8.898,-1.854 14.607,-3.043 111.43,21.211c38.992,9.767 43.65,4.574 55.586,36.594c3.077,8.254 5.681,4.18 121.72,-29.709c26.503,-7.74 104.375,-33.582 108.369,-30.154c5.342,4.585 2.464,10.995 -62.947,65.176c-41.661,34.508 -43.805,32.877 -43.479,38.607c0.113,1.988 0.866,0.765 17.248,-4.292c59.903,-18.495 104.26,63.922 101.689,129.06c-4.34,109.957 -54.61,115.145 -74.68,123.124c-18.123,5.321 -40.681,2.844 -22.623,9.623c21.763,8.171 59.919,4.543 74.597,47.143c4.613,13.389 2.766,14.215 -2.495,130.927c-2.126,47.17 -15.426,44.802 -35.656,66.822c-18.848,20.515 -54.04,9.801 -82.545,40.376c-8.638,9.265 -23.957,9.878 -26.123,9.965c-15.905,0.637 -12.966,31.78 -55.319,63.157c-3.663,2.714 -3.883,5.287 2.871,18.203c2.855,5.46 11.956,1.487 16.081,1.558c19.804,0.343 19.134,-4.582 69.96,-29.088c95.255,-45.928 101.639,-50.801 101.13,-39.122c-0.344,7.901 -33.42,23.752 -69.555,49.879c-55.667,40.249 -55.037,43.005 -431.319,234.144c-13.286,6.749 -36.612,21.338 -34.442,6.498c1.342,-9.179 72.515,-55.952 80.658,-67.319c4.218,-5.888 23.388,-15.09 14.368,-16.982c-5.339,-1.12 -4.514,3.823 -63.284,32.686c-31.787,15.611 -32.379,14.569 -41.211,27.798c-3.343,5.007 -89.91,57.264 -116.333,48.405c-25.421,-8.524 -101.69,-54.401 -108.707,-44.359c-12.668,18.129 -10.451,20.399 -23.001,38.957c-9.747,14.414 -11.784,15.551 -95.968,55.819c-86.845,41.541 -89.674,47.281 -121.457,56.591c-9.939,2.911 -18.493,25.475 -55.714,27.306c-6.203,0.305 -16.864,23.824 -53.32,27.472c-17.451,1.746 -17.502,18.388 -50.951,2.986c0.504,-0.571 6.087,-6.9 6.236,-7.248c1.128,-2.635 1.445,-1.707 3.06,-3.614c4.843,10.631 6.56,9.225 15.06,4.362c1.861,-1.065 57.518,-103.186 62.449,-112.234c7.49,-13.742 8.026,-15.432 4.287,-215.618c-3.269,-175.01 -5.446,-174.987 -10.436,-189.789c-1.149,-3.409 -8.644,-25.64 -16.623,-40.99c-23.817,-63.034 -25.142,-61.968 -27.153,-67.486c-15.677,-43.004 -24.998,-72.43 -36.572,-81.737c-18.611,-9.851 -67.094,-28.301 -72.974,-30.538c-8.405,-2.843 -52.752,-17.842 -104.431,-38.986c-19.326,-7.907 -19.932,-10.655 -38.745,-0.365l-2.425,0.972l-2.994,-4.645c3.987,-6.518 3.681,-6.513 8.516,-11.811c10.752,-11.78 155.428,-46.675 188.679,-57.638c12.335,-4.067 3.586,-45.876 6.955,-68.597c6.415,-43.272 1.873,-43.485 1.622,-87.821c-0.401,-70.596 -3.422,-97.869 5.969,-91.636c5.607,3.722 1.481,159.91 5.718,172.034c7.597,21.743 0.844,63.272 6.398,67.523c14.857,11.374 0.149,-118.305 8.185,-143.831c5.196,-16.506 0.807,-25.118 0.594,-44.622c-2.204,-201.317 -3.311,-202.707 -0.92,-204.655c7.864,-6.41 4.475,6.25 8.552,150.566c2.474,87.603 0.981,88.543 6.751,102.021c3.844,8.979 1.885,125.219 4.113,130.496c3.484,8.251 86.376,-28.26 113.273,-23.798c31.318,5.195 70.539,-1.645 84.466,14.859c2.055,2.435 10.416,12.344 31.912,15.161c5.416,0.71 4.812,-2.613 45.515,-70.393Z" style="fill:#38536f;"/><path d="M556.069,893.379l2.994,4.645l2.425,-0.972c18.813,-10.29 19.419,-7.542 38.745,0.365c51.68,21.144 96.026,36.143 104.431,38.986c-3.52,10.586 -4.779,9.671 -5.384,9.231c-1.072,-0.78 -8.072,-5.868 -14.295,-6.862c-0.979,-0.157 -7.126,-1.139 -12.073,-3.44c-0.972,-0.452 -1.305,-2.481 -2.294,-2.85c-6.669,-2.492 -26.763,-6.76 -29.101,-7.257c-11.879,-7.36 -11.644,-7.723 -24.251,-12.398c-10.921,-1.82 -24.422,-10.633 -29.101,-6.898c-1.227,0.98 -1.192,3.879 -2.419,4.859c-10.797,-4.175 -11.008,-4.216 -11.99,-4.406c-7.044,-1.363 -65.299,20.816 -72.917,24.329c-9.407,2.512 -30.208,5.352 -48.151,18.176c-23.013,16.446 -174.893,156.607 -189.965,170.516c-17.126,15.253 -36.845,33.363 -40.035,36.293c-24.418,22.425 -25.308,21.908 -25.426,25.391c-0.199,5.864 34.592,21.083 39.174,22.259c6.782,5.688 19.774,12.217 21.543,13.106c21.245,10.676 20.483,13.511 42.622,19.768l2.115,2.155c0.469,0.567 -0.664,2.014 -0.195,2.582c2.027,2.452 3.265,-1.499 30.841,18.394c14.6,10.532 44.201,96.791 46.146,117.84c2.741,29.655 -1.603,37.432 5.09,49.707c-5.751,18.66 0.955,42.63 1.046,112.283c0.001,0.719 1.211,0.035 2.246,8.419c0.097,0.785 -1.136,1.114 -1.04,1.899c-0.187,5.136 1.563,4.996 1.354,64.253c-8.104,55.749 -34.886,64.823 -18.127,66.382c9.582,0.891 62.308,4.119 67.727,4.451c16.722,2.621 196.314,16.441 213.39,17.755c33.018,2.541 45.863,1.9 63.259,-10.506c2.517,-0.688 69.79,-29.298 74.849,-34.474c5.673,-5.804 48.27,-79.258 60.519,-108.142c13.067,-28.591 6.309,-31.186 7.312,-90.877c0.799,-15.461 1.082,-15.133 1.078,-30.912c-0.621,1.596 -3.255,-2.298 -3.876,-0.702c-0.99,2.543 1.334,9.94 -1.052,21.824c-0.127,0.634 -0.08,0.599 -1.074,8.088c-35.687,18.03 -52.338,23.365 -74.925,32.744c-18.394,-4.834 -9.915,-17.435 -13.028,-47.235c0.067,-2.34 -1.195,-1.653 -1.123,-4.145c0.059,-2.055 1.177,-1.19 1.336,-3.262c0.262,-3.404 -0.246,-6.84 -0.297,-10.263c-0.714,-47.934 2.189,-47.936 -2.435,-95.635c3.652,-11.437 2.734,-11.841 3.075,-12.812c1.128,-3.208 1.582,-2.214 9.882,-6.902c67.768,-27.696 69.198,-27.42 75.353,-26.237l0.5,1.662c0.939,4.441 0.834,4.139 1.776,8.398c0.355,1.606 -0.934,2.577 0.418,2.734c2.049,0.238 1.297,-2.535 3.32,-2.3l-0.383,-3.649c-0.477,-3.552 -0.955,-7.103 -1.432,-10.655c-1.488,-46.7 -1.541,-46.555 -1.664,-50.604c-0.107,-3.5 -0.034,-3.35 -1.218,-43.763l3.985,3.213c0.421,2.033 3.072,2.041 3.493,4.074c0.249,1.201 8.34,329.833 3.519,347.439c-2.014,7.354 -3.575,6.038 -5.158,13.348c-0.681,3.146 -1.021,2.785 -9.771,16.808c-0.916,1.467 -0.476,1.859 -9.686,20.213c-2.019,4.023 -2.609,3.018 -4.9,6.671c-3.575,5.701 -2.063,6.841 -5.444,12.744c-3.72,6.496 -5.796,4.323 -6.641,11.028c-0.383,3.037 -1.679,1.549 -16.814,30.604c-9.936,19.075 -14.083,17.079 -17.319,19.58c-1.615,1.908 -1.932,0.979 -3.06,3.614c-0.149,0.348 -5.732,6.677 -6.236,7.248c-20.055,-10.868 -56.013,33.611 -104.263,32.449c-49.862,-1.201 -144.195,-15.772 -149.856,-8.137c-2.666,3.596 -15.84,37.028 -22.221,40.333c-71.697,37.139 -73.733,35.974 -79.89,32.448c-8.513,-4.875 -7.832,-8.008 -17.07,-8.019l-2.6,-5.926l-2.425,0.553c-20.641,-5.918 -42.499,3.583 -47.567,4.834c-0.157,-0.175 0.176,-4.306 -3.377,-3.76c-14.575,2.24 -13.334,15.294 -33.841,9.111c-7.498,-2.261 -83.436,42.331 -126.53,60.07c-33.127,13.636 -54.614,25.23 -48.679,4.527c1.634,-5.7 16.636,-10.401 85.544,-46.311c4.14,-2.157 5.077,2.716 53.112,-21.181c21.963,-10.927 24.951,-5.399 32.777,-22.202c6.011,-12.907 61.095,-27.392 64.58,-38.205c3.252,-10.09 14.544,-11.448 23.781,-14.277c0.267,-0.221 3.338,-2.767 3.338,-2.767c-0.002,-0.982 -1.146,-1.492 -1.147,-2.474c-20.026,-2.259 -19.041,4.929 -38.548,11.555c-8.72,2.962 -23.544,17.034 -41.136,4.678c-14.553,-10.221 -17.039,1.21 -24.196,0.361c-15.15,-1.798 -25.041,9.963 -38.682,13.51c-44.799,11.648 -81.53,43.25 -81.225,26.386c0.168,-9.31 106.316,-48.726 109.769,-54.692c12.205,-21.087 -31.884,17.938 -57.674,13.221c-11.67,-2.134 -166.67,82.348 -174.215,71.256c-8.193,-12.044 9.43,-17.188 38.684,-31.805c58.575,-29.268 59.679,-23.785 118.597,-51.602c13.608,-6.425 11.138,-12.68 24.475,-19.423c25.795,-13.041 27.951,-10.941 32.184,-13.498c9.436,-5.7 -2.416,-4.734 -10.283,-9.213c-55.005,-31.317 -56.195,-36.139 -57.902,-43.058c-5.065,-20.529 -16.378,-16.889 -41.357,-38.032c-8.663,-7.333 -31.92,-71.192 -33.355,-93.583c-3.672,-57.307 -0.373,-57.328 1.532,-60.355c7.46,-11.852 1.24,-48.6 -0.371,-50.891c-10.814,-15.38 -7.979,-17.69 -9.352,-47.472c-1.826,-39.603 0.957,-39.475 15.193,-73.617c6.787,-16.276 42.337,-59.451 52.265,-68.684c19.336,-17.981 131.847,-122.607 243.393,-221.198c62.516,-55.254 113.06,-34.543 127.277,-62.825Z" style="fill:#304e6c;"/><path d="M842.898,815.24c28.605,5.587 28.616,5.211 31.081,5.862c4.104,1.084 2.52,3.354 3.747,11.643c3.639,24.576 89.555,39.361 137.563,11.486c16.656,-9.671 2.923,-26.991 9.497,-26.417c4.341,0.379 4.197,1.371 53.114,16.189c59.061,17.891 59.334,20.173 70.142,36.699c5.77,8.822 65.462,144.66 67.085,149.068c13.107,35.593 8.558,147.143 8.223,147.66c-1.313,2.026 -27.829,-6.422 -45.679,-20.308c0.471,-10.093 0.47,-16.083 -5.984,-33.43c-0.497,-10.368 -0.119,-24.67 -6.95,-68.178c9.103,-8.973 37.68,-7.559 32.917,-30.293c-2.591,-12.368 -50.711,-117.118 -55.312,-127.135c-14.29,-31.108 -20.956,-5.871 -47.396,-7.438c-20.912,-38.604 -31.8,-22.811 -77.426,-10.063c-14.427,4.031 10.044,2.21 18.563,29.319c-21.974,12.873 -10.466,24.615 14.109,82.89c37.162,88.121 40.119,86.444 44.823,86.566c7.078,0.183 7.553,-3.696 13.357,1.677c3.069,12.246 7.778,11.437 4.861,62.886c-9.203,11.05 -20.695,10.389 -71.481,30.723c-130.685,52.326 -148.974,49.849 -153.398,87.38c-1.548,13.134 2.083,161.795 2.426,175.859c1.684,68.951 -3.354,101.617 27.316,84.991c19.788,-12.292 20.484,-12.622 36.547,-4.952c15.404,7.356 17.046,4.922 21.339,15.757c-10.35,-3.648 -12.067,-2.7 -35.746,10.306l-2.854,-6.356c-0.18,0.131 -16.912,9.234 -24.251,10.657l-2.425,1.851l-2.425,0.987l-2.425,1.314l-2.425,0.911l-2.425,0.953l-2.425,0.599l-2.425,0.66l-2.425,1.394l-2.425,1.017l-2.425,0.702l-2.425,0.941l-2.425,1.006c-3.983,1.002 -3.855,0.813 -7.873,-1.049c2.733,-54.88 -3.046,-360.16 -5.232,-374.807c-2.894,-19.393 -77.789,-203.239 -81.437,-209.923c-9.233,-16.921 -194.311,-77.723 -196.01,-81.393c-2.287,-4.939 1.513,-3.236 21.485,-9.047c66.905,-19.465 66.736,-19.909 72.565,-21.461c64.925,-17.294 64.693,-21.141 70.29,-19.417c11.167,3.439 -14.024,8.158 -18.614,13.949c-8.596,10.843 -15.522,27.759 -16.61,30.415c-7.165,17.498 42.229,29.37 47.308,28.132c36.144,-8.81 71.34,-21.668 77.481,-23.912c13.471,-4.921 6.292,-12.845 -3.146,-27.371c-23.299,-35.862 -44.56,-22.101 -34.572,-33.916c7.224,-8.545 30.566,-5.886 33.235,-5.582Z" style="fill:#cdd5db;"/><path d="M600.312,974.704c18.297,4.568 18.195,4.163 36.089,11.697c45.958,19.351 51.247,13.181 68.667,55.809c26.366,64.52 25.888,64.635 52.265,129.271c25.305,62.01 13.059,71.78 17.359,137.645c-8.3,4.688 -8.754,3.694 -9.882,6.902c-0.341,0.971 0.577,1.375 -3.075,12.812c-5.311,2.611 -10.622,5.222 -15.933,7.833c-6.226,-1.228 -3.357,-5.48 -4.751,-40.613c-0.084,-2.118 -0.92,-23.184 -5.223,-25.502c-1.963,-1.058 -86.401,27.779 -91.599,39.247c-1.888,4.165 -1.09,37.125 -1.012,40.353c0.222,9.154 2.059,11.204 -3.787,14.927c-2.749,0.646 -2.723,0.399 -34.415,7.601c-35.975,8.176 -116.29,31.403 -137.523,32.834c0.763,-5.145 3.491,-23.544 -2.929,-65.541c-0.713,-4.665 -38.619,-129.73 -60.702,-141.941c-18.674,-10.327 -18.432,-10.22 -36.719,-21.738c3.039,-3.46 2.978,-3.529 3.283,-3.737c16.665,-11.365 16.956,-10.445 36.362,-30.42c5.531,-3.328 5.506,-2.269 11.58,-2.252c8.266,0.023 77.512,-69.099 81.066,-80.166c1.575,-8 1.498,-8.331 6.672,-12.788c69.169,-59.58 86.119,-68.147 94.205,-72.234Z" style="fill:#cdd5da;"/><path d="M1120.507,721.127c14.94,-11.413 24.591,-2.513 26.35,-0.891c0.019,0.017 173.745,53.671 190.768,49.38c2.984,-0.752 176.426,-55.073 176.838,-54.615c4.238,4.717 -3.566,1.406 -56.4,52.428c-1.524,1.471 -17.417,16.82 -17.018,21.916c1.424,18.209 102.451,-33.594 75.397,-11.382c-8.418,6.911 -27.731,7.773 -20.308,27.38c13.041,34.446 16.629,32.623 25.427,29.53c17.819,-6.265 29.134,-3.458 20.764,-26.255c-7.94,-21.627 0.702,-20.996 15.248,-34.497c16.728,-15.526 15.698,-19.551 56.244,-33.246c51.083,-17.255 51.287,-15.567 80.006,-27.301c1.271,-0.519 22.231,-9.082 16.554,0.393c-2.716,4.533 -25.655,4.431 -17.049,18.487c7.941,12.97 11.099,38.173 22.641,33.636c18.217,-7.162 30.596,-4.344 21.021,-27.052c-5.801,-13.758 -5.027,-17.606 5.645,-23.943c4.433,-2.632 6.237,-1.233 35.475,67.835c1.6,3.78 0.468,5.352 0.528,6.037c-12.764,6.664 -12.839,8.234 -12.363,13.748c2.285,26.482 0.406,34.429 10.321,30.997c4.824,-1.67 9.588,-3.67 14.412,-5.339c10.152,5.294 8.232,34.62 5.255,36.202c-18.271,9.705 -112.343,39.014 -120.633,51.057c-9.848,14.307 -6.578,53.818 -14.654,31.719c-12.128,-33.187 -20.32,-20.771 -80.751,1.659c-108.287,40.192 -112.486,41.068 -117.325,66.28c-5.92,30.845 -2.065,124.081 -6.651,145.468c-3.017,1.18 -2.935,1.398 -25.606,8.794c-5.073,-11.95 0.47,-71.37 1.777,-160.719c0.524,-35.801 -6.399,-35.149 -44.864,-134.498c-31.865,-82.303 -41.274,-86.804 -47.319,-89.696c-17.243,-8.249 -117.507,-34.187 -160.268,-46.782c-12.274,-3.265 -12.024,-3.103 -24.281,-6.51c-15.736,-4.373 -15.419,-6.1 -31.511,-6.709c-3.017,-0.114 -3.551,-3.396 -3.669,-3.509Z" style="fill:#cdd6db;"/><path d="M1359.293,1043.622c-30.36,1.517 -39.009,2.845 -39.472,-4.247c-2.65,-40.619 -7.802,-38.25 -21.887,-73.837c-36.43,-92.043 -35.123,-99.519 -66.983,-109.511c-136.266,-42.736 -136.169,-46.589 -148.13,-43.899c-6.307,1.419 -8.631,10.194 -21.405,6.219c-4.548,-1.415 -1.234,-5.362 34.051,-65.85c12.017,-20.601 16.803,-11.98 86.712,7.069c153.367,41.788 153.69,44.087 160.111,53.37c7.664,11.078 7.004,11.883 69.963,165.799c5.372,13.133 4.773,42.421 2.676,104.423c-0.787,23.282 -0.462,32.75 -2.782,108.142c-0.873,116.464 -2.48,117.785 -10.773,130.03c-36.065,-13.856 -73.549,-25.511 -83.206,-32.008c1.626,-10.27 -1.058,-10.916 2.199,-20.44c2.49,-7.281 22.861,2.986 36.135,-4.202c5.929,2.195 39.982,10.572 45.185,1.843c2.654,-4.452 7.798,-230.269 4.108,-237.867c-1.805,-3.717 -35.168,2.722 -46.503,14.968Z" style="fill:#cdd6d9;"/><path d="M922.591,1251.868c4.017,-4.689 2.325,-10.215 46.268,-27.006c19.927,-7.614 19.896,0.366 70.606,22.82c23.196,10.272 25.95,8.018 34.896,34.043c8.386,24.395 9.44,24.245 9.439,51.52c-0.005,144.144 1.069,145.247 -4.701,156.543c-13.719,26.855 -17.013,21.169 -39.495,30.977c-30.116,13.138 -30.959,4.565 -97.674,-31.082c-29.037,-15.515 -26.861,-32.301 -27.645,-88.842c0.454,-120.779 -5.211,-129.608 8.306,-148.975Z" style="fill:#b1bfc7;"/><path d="M585.745,910.788c58.705,22.906 181.927,65.782 188.892,74.763c0.592,0.764 0.482,0.796 6.508,10.74c1.372,3.534 1.429,3.123 2.692,6.376c0.411,1.059 0.372,0.987 5.018,13.327c6.781,17.317 13.376,34.229 14.538,37.207c3.553,8.876 40.986,102.392 44.23,111.088c2.316,10.335 2.391,9.965 3.739,20.425c1.184,40.412 1.111,40.262 1.218,43.763c0.123,4.049 0.176,3.904 1.664,50.604c-1.4,1.27 -2.799,2.54 -4.199,3.81c-6.155,-1.184 -7.585,-1.459 -75.353,26.237c-4.301,-65.865 7.945,-75.636 -17.359,-137.645c-26.376,-64.636 -25.899,-64.75 -52.265,-129.271c-17.42,-42.628 -22.709,-36.458 -68.667,-55.809c-17.895,-7.535 -17.793,-7.129 -36.089,-11.697c-2.381,-1.192 -4.762,-2.385 -7.144,-3.577c-42.792,-17.13 -42.573,-18.039 -53.519,-20.227c-10.429,-7.517 -30.848,-13.033 -33.566,-14.594c-2.036,-1.169 -3.209,-4.426 -5.245,-5.595c7.617,-3.513 65.873,-25.692 72.917,-24.329c0.983,0.19 1.193,0.231 11.99,4.406Z" style="fill:#ee9534;"/><path d="M761.735,1328.84c4.624,47.699 1.721,47.701 2.435,95.635c0.051,3.423 0.559,6.859 0.297,10.263c-0.159,2.072 -1.277,1.207 -1.336,3.262c-0.072,2.492 1.191,1.805 1.123,4.145c-16.546,6.504 -16.66,5.76 -18.089,6.363c-4.748,-24.059 -6.454,-25.145 -7.933,-26.087c-5.737,-3.653 -87.084,20.326 -89.335,22.625c-1.671,1.708 -3.397,3.471 -6.036,35.107c-6.017,0.919 -158.144,41.104 -169.039,44.706c-27.584,8.665 -76.156,16.272 -86.974,24.637c-0.097,-0.785 1.136,-1.114 1.04,-1.899c-1.036,-8.385 -2.245,-7.701 -2.246,-8.419c-0.091,-69.653 -6.796,-93.622 -1.046,-112.283c11.401,-0.792 27.005,-6.683 40.976,-9.949c21.158,-4.947 21.058,-4.268 41.92,-11.427c21.233,-1.431 101.549,-24.658 137.523,-32.834c31.692,-7.202 31.666,-6.955 34.415,-7.601c1.543,2.957 4.394,1.316 4.752,15.45c0.061,2.421 0.675,26.643 2.566,30.07c3.914,7.09 5.614,4.835 79.725,-12.666c29.487,-6.963 8.336,-37.793 19.328,-61.265c5.311,-2.611 10.622,-5.222 15.933,-7.833Z" style="fill:#3773ad;"/><path d="M566.059,1126.375c91.251,-66.608 97.376,-82.949 106.172,-59.478c26.731,71.323 54.686,124.902 49.315,134.548c-3.261,5.858 -234.463,95.382 -237.624,94.431c-4.581,-1.379 -5.287,-2.075 -29.673,-70.382c-5.539,-15.515 2.741,-15.045 111.809,-99.119Z" style="fill:#35516d;"/><path d="M1017.485,1208.31c6.92,-3.012 81.546,-35.493 87.252,-34.138c2.565,0.609 74.293,32.006 79.756,37.883c5.586,6.009 16.938,38.098 17.607,46.787c0.161,2.098 -0.158,165.093 -3.194,172.083c-3.972,9.144 -4.39,8.373 -11.962,20.11c-5.766,3.57 -5.943,2.776 -74.543,35.916c-3.817,1.844 -3.807,0.862 -7.685,1.74c-3.311,-23.139 2.015,-175.9 -1.72,-189.555c-17.218,-62.948 -24.33,-58.28 -44.257,-67.631c-19.313,-9.063 -18.799,-10.193 -38.7,-17.291c-0.689,-0.924 -1.378,-1.848 -2.067,-2.772l-0.486,-3.132Z" style="fill:#cdd6db;"/><path d="M539.649,950.9c10.946,2.188 10.727,3.097 53.519,20.227c3.389,2.568 3.092,3.149 7.144,3.577c-8.087,4.087 -25.036,12.654 -94.205,72.234c-5.174,4.457 -5.097,4.788 -6.672,12.788c-3.554,11.067 -72.8,80.189 -81.066,80.166c-6.073,-0.017 -6.048,-1.076 -11.58,2.252c-19.407,19.975 -19.698,19.055 -36.362,30.42c-0.305,0.208 -0.243,0.277 -3.283,3.737c-29.5,22.35 -60.114,53.828 -65.113,58.968l-1.431,0.952c-22.138,-6.257 -21.377,-9.092 -42.622,-19.768c-1.769,-0.889 -14.761,-7.418 -21.543,-13.106c29.315,-22.332 58.751,-53.006 63.624,-58.084c44.366,-39.798 43.355,-41.721 43.362,-41.833c2.035,-29.122 20.206,-48.98 23.952,-51.022c51.705,-28.195 62.497,-24.683 67.943,-22.911c9.547,3.107 71.059,-58.373 104.333,-78.596Z" style="fill:#366ca4;"/><path d="M773.36,1581.147c-19.085,40.929 -56.926,95.66 -58.908,110.685c-17.396,12.406 -30.242,13.047 -63.259,10.506c-17.076,-1.314 -196.668,-15.134 -213.39,-17.755c20.76,-24.512 33.518,-70.796 35.412,-77.668c7.192,5.053 7.282,3.945 15.518,3.383c8.424,-0.576 29.679,-1.966 36.406,-2.894c66.405,-9.153 231.648,-22.109 242.919,-26.154c2.626,-0.942 2.521,-0.049 5.301,-0.102Z" style="fill:#99abb4;"/><path d="M571.431,1253.504c-83.096,31.22 -85.431,36.759 -89.157,28.179c-0.227,-0.522 -21.707,-58.588 -21.909,-60.059c-1.182,-8.628 51.235,-40.998 94.435,-76.302c8.217,-6.716 91.197,-69.066 99.141,-75.036c14.781,-11.106 13.241,2.765 21.326,23.179c38.035,96.042 45.398,101.769 36.705,105.106c-11.258,4.322 -10.91,4.824 -140.541,54.934Z" style="fill:#97a9b3;"/><path d="M367.143,1176.3c18.287,11.518 18.045,11.411 36.719,21.738c22.083,12.212 59.989,137.277 60.702,141.941c6.42,41.996 3.691,60.396 2.929,65.541c-20.862,7.159 -20.762,6.48 -41.92,11.427c-13.971,3.266 -29.575,9.157 -40.976,9.949c-6.693,-12.275 -2.349,-20.052 -5.09,-49.707c-1.946,-21.048 -31.546,-107.307 -46.146,-117.84c-27.576,-19.893 -28.814,-15.942 -30.841,-18.394c-0.469,-0.567 0.664,-2.014 0.195,-2.582l-0.684,-3.107c4.999,-5.14 35.613,-36.618 65.113,-58.968Z" style="fill:#ef9633;"/><path d="M1094.946,880.648c26.44,1.566 33.106,-23.67 47.396,7.438c4.602,10.017 52.721,114.767 55.312,127.135c4.763,22.734 -23.814,21.321 -32.917,30.293c-7.108,2.295 -7.115,0.286 -14.085,3.075c-37.637,15.061 -38.011,14.883 -42.281,22.449c-5.804,-5.373 -6.279,-1.494 -13.357,-1.677c-4.704,-0.122 -7.661,1.555 -44.823,-86.566c-24.575,-58.274 -36.083,-70.017 -14.109,-82.89c17.454,-2.853 49.52,-13.817 58.863,-19.256Z" style="fill:#334f6c;"/><path d="M764.255,1442.145c3.114,29.801 -5.366,42.402 13.028,47.235c1.138,7.305 1.32,66.217 -0.877,86.355c-1.015,1.804 -2.03,3.608 -3.045,5.412c-2.78,0.054 -2.675,-0.84 -5.301,0.102c-11.271,4.045 -176.514,17.001 -242.919,26.154c-6.727,0.927 -27.982,2.318 -36.406,2.894c-8.235,0.563 -8.326,1.671 -15.518,-3.383c1.432,-29.463 1.388,-29.189 0.607,-82.054c10.895,-3.602 163.021,-43.787 169.039,-44.706c12.154,29.077 -12.82,18.246 -15.947,32.169c-0.793,3.53 -1.107,56.859 4.861,64.295c3.623,4.515 4.429,2.898 97.033,-1.688c23.133,-1.146 19.336,-13.334 18.693,-42.276c-1.54,-69.291 -4.086,-69.799 -1.336,-84.146c1.428,-0.603 1.543,0.141 18.089,-6.363Z" style="fill:#cdd5db;"/><path d="M1491.815,1052.469c5.607,0.453 88.929,20.251 95.485,37.467c13.595,35.702 2.233,38.474 3.828,135.253c0.072,4.363 0.45,27.314 -3.874,54.282c-5.2,-1.845 -86.436,-31.781 -91.526,-38.337c-12.931,-16.654 -9.181,-47.878 -9.121,-53.117c2.734,-64.401 1.342,-64.254 4.209,-128.447c0.334,-2.367 0.667,-4.734 1.001,-7.102Z" style="fill:#c97225;"/><path d="M1573.292,998.825c2.134,-2.157 1.526,-3.133 4.083,-4.127c53.713,-20.87 53.697,-21.207 58.53,-21.007c5.421,0.225 5.09,2.341 65.494,24.371c4.752,1.733 23.476,3.292 34.503,40.786c4.712,16.023 -1.4,62.221 -4.257,145.629c-0.473,13.792 0.213,13.999 -4.65,25.903c-22.782,28.645 -25.398,22.197 -54.729,35.302c-12.197,5.45 -7.551,-8.184 -6.291,-64.468c2.273,-101.501 5.955,-103.347 -4.998,-129.202c-13.916,-32.849 -17.861,-27.808 -44.324,-37.721c-37.622,-14.093 -38.046,-11.249 -41.29,-12.578c-0.937,-0.384 -1.134,-2.506 -2.071,-2.89Z" style="fill:#ed9635;"/><path d="M1491.815,1052.469c2.413,-7.86 1.175,-28.726 44.419,-41.119c6.988,-2.003 7.167,-1.443 87.235,25.844c14.501,4.942 12.983,8.801 20.961,26.584c10.58,23.584 5.666,25.501 4.243,110.657c-1.16,69.427 -3.219,72.242 -6.378,76.561c-18.336,25.072 -51.387,28.951 -55.041,28.475c4.324,-26.968 3.946,-49.919 3.874,-54.282c-1.595,-96.779 9.767,-99.552 -3.828,-135.253c-6.556,-17.216 -89.877,-37.014 -95.485,-37.467Z" style="fill:#ed9534;"/><path d="M503.32,1625.132c216.931,-19.684 234.441,-31.641 226.92,-8.607c-3.301,10.109 -40.475,73.314 -40.89,73.837c-8.31,10.483 -95.922,-5.37 -176.318,-10.422c-21.027,-1.321 -48.457,0.865 -37.608,-19.972c16.142,-31.002 16.238,-32.9 27.895,-34.836Z" style="fill:#3a566d;"/><path d="M746.166,1448.508c-2.75,14.347 -0.204,14.855 1.336,84.146c0.643,28.941 4.44,41.13 -18.693,42.276c-92.604,4.586 -93.41,6.203 -97.033,1.688c-5.969,-7.437 -5.654,-60.766 -4.861,-64.295c3.127,-13.923 28.101,-3.091 15.947,-32.169c2.638,-31.635 4.364,-33.399 6.036,-35.107c2.251,-2.3 83.598,-26.279 89.335,-22.625c1.479,0.942 3.185,2.028 7.933,26.087Z" style="fill:#304f6c;"/><path d="M1763.085,921.561c3.079,-2.048 2.556,-2.943 6.091,-4.053c30.257,-9.504 30.659,-18.934 53.168,-12.119c37.749,11.428 38.168,7.804 75.465,21.887c2.515,0.95 12.696,4.794 21.155,34.519c2.474,8.695 -4.938,146.648 -7.127,151.467c-8.645,19.028 -16.794,23.41 -52.812,38.02c-10.298,4.177 -6.065,-6.931 -3.887,-68.024c3.049,-85.52 9.899,-90.866 -9.135,-127.687c-9.735,-18.832 -73.673,-23.542 -82.919,-34.009Z" style="fill:#ed9534;"/><path d="M1191.788,632.772c0.655,0.548 1.608,-1.048 2.263,-0.5c1.283,1.075 1.76,3.419 2.879,4.805c3.551,4.401 5.45,-5.033 58.108,17.172c21.78,9.184 60.751,-5.934 66.876,47.41c0.537,4.675 -0.053,4.414 5.725,58.637c-19.082,-3.647 -18.869,-3.366 -24.065,-4.926c-6.781,-2.036 -139.327,-37.968 -145.605,-40.139c-7.767,-2.686 -4.474,-6.687 -1.997,-17.12c11.887,-50.064 10.42,-57.045 35.816,-65.339Z" style="fill:#97a9b2;"/><path d="M1386.084,629.301c8.757,4.842 8.864,4.153 9.606,4.614c15.948,5.31 23.509,1.785 27.935,27.135c10.952,62.726 10.062,62.984 11.148,68.386c-63.431,18.621 -62.873,21.595 -107.133,30.858c-5.778,-54.223 -5.189,-53.962 -5.725,-58.637c-6.125,-53.343 -45.096,-38.226 -66.876,-47.41c-52.658,-22.204 -54.557,-12.771 -58.108,-17.172c-1.119,-1.387 -1.595,-3.73 -2.879,-4.805c-0.655,-0.548 -1.608,1.048 -2.263,0.5c28.474,-6.025 45.237,-11.326 48.761,-11.886c6.082,-0.966 2.573,4.128 3.141,12.698c1.433,21.627 87.4,23.839 82.226,-3.385c-5.385,-28.339 11.557,2.315 60.167,-0.897Z" style="fill:#cdd5da;"/><path d="M1670.006,871.496c-7.926,3.024 -217.143,79.78 -223.53,81.953c-9.271,3.155 -24.554,-33.211 -16.966,-36.385c9.963,-4.168 154.66,-55.654 288.547,-105.373c16.798,-6.238 23.67,-9.071 24.558,-2.303c1.659,12.65 5.535,32.538 -0.399,36.256c-1.688,1.057 -66.428,23.819 -72.211,25.852Z" style="fill:#3771ac;"/><path d="M1775.72,992.967c-15.906,-20.644 -36.542,-18.223 -72.118,-31.076c-5.622,-2.031 -4.843,-12.54 2.501,-17.392c22.925,-15.148 33.634,-11.664 73.079,1.813c39.324,13.436 45.069,4.772 59.366,39.671c4.404,10.75 6.366,15.538 -0.744,154.72c-0.166,3.254 -1.337,26.166 -18.008,32.139c-25.539,9.15 -31.119,9.437 -33.883,9.579c4.925,-16.826 4.031,-17.064 4.556,-18.443c2.321,-6.097 6.338,-113.895 6.403,-145.001c0.037,-17.688 -11.895,-22.802 -17.973,-28.374l-3.177,2.365Z" style="fill:#ed9534;"/><path d="M848.955,1312.987c1.509,133.009 1.781,135.509 -4.072,140.499c-0.596,0.508 -1.226,-1.413 -1.909,-1.208c-2.214,0.664 -11.105,5.414 -19.699,8.665c-34.726,13.133 -50.219,26.083 -50.99,10.874c-0.03,-0.593 -2.691,-140.583 -2.627,-141.996c0.784,-17.351 37.734,-22.244 49.151,-29.126c1.018,-0.614 1.449,-2.611 2.515,-3.039c2.453,-0.985 2.419,0.806 4.804,-0.119c16.7,-6.481 17.766,-5.91 19.228,-5.127c2.303,1.233 1.403,2.197 3.601,20.578Z" style="fill:#8598a2;"/><path d="M500.838,930.711c2.036,1.169 3.209,4.426 5.245,5.595c2.718,1.562 23.137,7.077 33.566,14.594c-33.274,20.222 -94.786,81.702 -104.333,78.596c-5.446,-1.772 -16.238,-5.284 -67.943,22.911c-3.746,2.043 -21.917,21.9 -23.952,51.022c-0.008,0.112 1.004,2.035 -43.362,41.833c-2.981,-3.339 -2.239,-4.49 -5.792,-6.489c-16.153,-9.087 -16.256,-8.008 -31.545,-19.37c15.072,-13.909 166.952,-154.07 189.965,-170.516c17.944,-12.823 38.744,-15.664 48.151,-18.176Z" style="fill:#cdd5da;"/><path d="M1321.074,997.782c-20.012,-39.699 -45.002,-108.839 -45.134,-110.64c-0.559,-7.614 0.049,-10.056 56.964,-53.409c11.192,-8.525 16.142,13.043 20.114,22.127c3.816,8.728 30.792,70.434 46.354,110.219c5.436,13.896 -2.373,10.881 -13.492,14.496c-55.907,18.175 -56.171,21.748 -64.807,17.206Z" style="fill:#9aacb4;"/><path d="M473.823,1524.86c0.781,52.865 0.825,52.591 -0.607,82.054c-1.894,6.872 -14.653,53.157 -35.412,77.668c-5.419,-0.332 -58.145,-3.559 -67.727,-4.451c-16.759,-1.559 10.023,-10.633 18.127,-66.382c0.209,-59.256 -1.541,-59.117 -1.354,-64.253c10.818,-8.365 59.39,-15.972 86.974,-24.637Z" style="fill:#de842c;"/><path d="M1297.386,1056.081c-2.893,190.399 -5.169,190.823 -0.885,206.072c2.521,8.976 -31.084,67.445 -30.804,47.32c1.202,-86.266 0.127,-86.828 -4.531,-96.857c-13.539,-29.149 -14.739,-27.92 -27.714,-38.627c-7.083,-5.845 -0.265,-9.447 -3.185,-90.777c-0.983,-27.381 8.175,-19.986 27.21,-27.182c33.565,-12.689 33.372,-13.573 36.354,-14.248c7.093,-1.607 3.949,4.32 3.555,14.298Z" style="fill:#99abb3;"/><path d="M733.686,1564.474c-88.332,4.621 -97.538,9.359 -98.389,-1.564c-3.619,-46.458 -1.813,-47.716 0.885,-48.758c10.66,-4.118 17.311,-1.327 15.63,-28.888c-1.428,-23.408 -5.242,-31.69 11.329,-35.405c64.419,-14.441 73.5,-27.518 74.424,-4.983c0.376,9.181 4.51,109.978 3.503,114.842c-1.309,6.32 -2.8,3.86 -7.382,4.757Z" style="fill:#96a8b1;"/><path d="M1570.258,1285.225c14.727,-1.75 14.456,7.845 29.054,3.366c16.929,-5.194 16.943,-2.706 33.96,-6.93c15.717,-3.902 25.461,-19.241 29.624,-21.5c34.186,-18.552 35.93,-14.262 37.435,-10.557c4.254,10.469 8.935,14.523 0.73,18.313c-154.92,71.561 -165.805,87.125 -163.094,68.515c0.278,-1.908 5.366,-15.029 -6.627,-10.965c-1.57,0.532 -38.475,15.534 -40.501,18.521c-4.831,7.122 7.165,20.708 2.303,23.645c-6.493,3.923 -138.333,68.832 -138.75,67.079c-0.241,-1.013 51.391,-79.891 64.694,-108.53c8.292,-1.216 8.428,-3.192 16.011,1.237c-3.7,11.729 -23.711,33.873 -10.376,27.895c11.727,-5.257 107.577,-48.228 145.537,-70.088Z" style="fill:#98acb4;"/><path d="M745.802,1336.673c-10.991,23.472 10.159,54.302 -19.328,61.265c-74.112,17.501 -75.811,19.756 -79.725,12.666c-1.892,-3.426 -2.505,-27.649 -2.566,-30.07c-0.358,-14.134 -3.209,-12.493 -4.752,-15.45c5.846,-3.723 4.008,-5.773 3.787,-14.927c-0.078,-3.228 -0.876,-36.188 1.012,-40.353c5.198,-11.468 89.636,-40.305 91.599,-39.247c4.303,2.318 5.139,23.384 5.223,25.502c1.394,35.133 -1.475,39.384 4.751,40.613Z" style="fill:#2d4e6e;"/><path d="M622.055,1622.639c2.717,-0.267 28.292,-2.785 33.966,-3.219c60.26,-4.608 70.502,-12.621 65.371,0.952c-0.46,1.218 -33.35,59.608 -34.024,60.683c-5.533,8.826 -7.294,4.65 -91.959,-2.241c-9.145,-0.744 -113.576,-9.244 -114.27,-10.33c-1.168,-1.826 -1.799,-3.352 11.129,-26.355c5.176,-9.209 6.92,-7.022 129.788,-19.49Z" style="fill:#95a8b1;"/><path d="M287.508,1245.744c8.068,-0.261 44.937,18.623 51.237,33.12c31.437,72.35 33.05,92.768 33.753,101.676c3.577,45.285 1.577,47.169 -0.772,49.382c-4.006,0.503 -39.284,4.938 -50.174,4.458c-5.955,-20.109 -1.286,-35.894 -5.815,-50.002c-24.11,-75.104 -27.325,-73.346 -38.448,-80.173c-2.514,-1.543 -25.657,-14.9 -27.89,-16.189c1.912,-5.504 1.984,-5.742 38.109,-42.272Z" style="fill:#cdd5d9;"/><path d="M206.326,1417.496c0.932,-20.377 1.054,-20.048 2.331,-40.506c1.268,-20.311 -28.812,-74.296 -22.888,-80.566c8.043,-8.512 23.965,40.036 25.313,44.148c7.19,21.923 10.51,17.526 25.89,28.195c25.255,17.519 23.635,-43.796 35.557,-27.834c8.745,11.708 -2.891,27.736 -8.186,40.494c-8.498,20.475 14.413,97.02 7.13,108.573c-13.289,21.079 44.065,102.972 25.58,111.789c-3.152,1.503 -23.092,-54.064 -37.502,-87.07c-1.935,-4.432 -6.838,-15.663 -39.896,-33.37c-12.886,-6.902 -28.883,59.433 -38.864,47.805c-8.61,-10.03 5.138,-26.27 11.237,-37.941c16.614,-31.793 11.415,-34.735 14.298,-73.718Z" style="fill:#60737f;"/><path d="M1359.293,1043.622c11.335,-12.246 44.698,-18.685 46.503,-14.968c3.689,7.598 -1.455,233.415 -4.108,237.867c-5.203,8.729 -39.256,0.352 -45.185,-1.843c0.51,-4.459 8.03,-203.913 2.791,-221.057Z" style="fill:#98aab4;"/><path d="M1858.111,866.889c-1.398,14.489 -2.394,21.054 -11.602,14.02c-6.073,-4.639 -0.778,-32.131 -31.069,-23.134c-17.691,5.254 -5.428,-15.644 -19.397,-51.844c-18.108,-46.926 -45.701,-91.853 -41.585,-101.481c5.418,-12.673 44.168,-27.891 47.626,-22.087c2.967,4.98 52.282,103.376 56.007,130.712c0.608,4.463 2.213,4.246 0.02,53.814Z" style="fill:#cdd7da;"/><path d="M1308.206,1055.129c44.645,-1.448 46.423,-3.638 46.79,0.801c0.157,1.895 -0.237,198.472 -5.968,201.672c-0.748,0.417 -43.209,0.958 -47.078,-3.72c-3.244,-3.923 -1.268,-5.371 1.219,-184.267c0.207,-14.924 3.776,-13.051 5.037,-14.486Z" style="fill:#7e919d;"/><path d="M1318.169,1289.321c9.657,6.496 47.141,18.151 83.206,32.008c-0.614,1.251 -52.893,91.701 -66.536,102.425c-7.706,6.058 -52.365,-20.729 -69.356,-30.866c-3.744,-11.492 -2.169,-13.271 16.778,-42.074c29.052,-44.164 27.604,-45.654 35.907,-61.493Z" style="fill:#98abb4;"/><path d="M1138.9,1161.343c36.484,-11.483 36.477,-1.515 72.321,13.917c28.638,12.329 31.597,10.193 45.77,46.86c3.67,9.494 3.57,10.111 1.036,134.792c-0.813,39.988 -6.04,65.564 -32.079,74.043c-3.043,0.991 -3.064,-1.13 -3.684,-1.359c-3.157,-28.662 4.66,-170.342 -2.773,-191.603c-15.904,-45.491 -18.718,-45.298 -51.375,-58.504c-1.859,-0.752 -13.379,-6.203 -14.54,-6.753c-12.624,-5.974 -14.349,-4.481 -14.677,-11.393Z" style="fill:#cdd6da;"/><path d="M1101.076,891.85c4.239,-3.431 4.243,-3.34 22.953,-8.748c11.73,-3.39 9.778,4.39 16.139,18.432c51.48,113.627 56.664,119.262 49.03,122.927c-24.151,11.594 -28.198,8.472 -30.349,6.812c-18.026,-45.524 -19.028,-44.383 -37.597,-89.619c-4.794,-11.679 -5.939,5.707 -5.995,6.553c-1.588,24.111 -11.385,52.507 -12.067,104.727c-0.345,1.177 -3.07,10.476 -10.488,6.231c-7.022,-4.018 -52.37,-117.07 -56.57,-127.541c-4.983,-12.421 -7.174,-21.111 5.417,-20.387c7.691,14.625 39.915,95.756 43.835,95.895c0.956,0.034 2.091,0.964 2.762,-4.875c7.085,-61.673 12.539,-60.378 12.93,-110.407Z" style="fill:#cdd5da;"/><path d="M1298.709,1507.344c-19.709,-1.527 -40.456,-17.831 -92.13,-38.958c-7.098,-2.902 1.389,-15.614 12.126,-10.154c63.728,32.404 66.895,32.463 69.061,24.377c10.329,-38.568 -4.62,-35.071 -32.444,-48.928c-10.065,-5.012 -3.148,-21.77 9.031,-14.292c70.897,43.534 74.517,35.242 133.948,5.636c12.323,-6.139 93.877,-45.988 99.295,-47.565c4.988,-1.452 13.956,18.12 7.727,21.213c-93.781,46.571 -95.91,42.629 -108.296,61.51c-4.844,7.385 -74.649,43.412 -98.319,47.16Z" style="fill:#81949c;"/><path d="M1058.768,496.639c15.12,-3.09 17.85,-3.359 19.412,-3.513c1.292,-0.127 4.239,-4.36 54.781,74.135c4.587,7.123 -1.629,7.57 -45.324,18.185c-43.463,10.558 -45.517,15.012 -54.437,2.348c-3.844,-5.457 -46.282,-65.711 -47.578,-68.848c-2.99,-7.233 1.861,-8.041 73.146,-22.307Z" style="fill:#3973ac;"/><path d="M1099.754,1156.748c1.043,1.183 1.105,-2.01 2.282,-0.675c0.326,0.37 -0.41,0.892 2.679,6.302c0.465,0.814 1.148,1.506 1.883,1.687c0.799,0.197 1.591,-0.832 2.39,-0.635c15.336,-6.829 21.094,3.598 29.912,-2.084c0.328,6.911 2.053,5.419 14.677,11.393c1.161,0.549 12.681,6.001 14.54,6.753c32.657,13.206 35.471,13.013 51.375,58.504c7.433,21.261 -0.384,162.941 2.773,191.603c-2.495,2.753 -9.651,12.99 -22.571,25.743c-6.526,6.441 -7.66,4.317 -12.751,-4.304c7.573,-11.737 7.99,-10.966 11.962,-20.11c3.036,-6.99 3.356,-169.985 3.194,-172.083c-0.668,-8.689 -12.021,-40.778 -17.607,-46.787c-5.463,-5.877 -77.191,-37.274 -79.756,-37.883c-5.706,-1.355 -80.332,31.126 -87.252,34.138c-6.453,5.392 -6.502,1.139 -7.353,0.716c-1.662,-0.827 -15.555,-7.74 -22.026,-1.569c-1.054,1.005 -1.213,3.301 -2.267,4.306c-1.024,-1.103 -1.251,0.671 -2.339,-0.501c-0.232,-0.25 -0.183,-0.281 -2.466,-3.789l-2.425,2.144l-2.657,-5.806c19.605,-9.037 30.16,-8.418 97.141,-36.942c2.114,-0.9 2.089,-0.044 26.661,-10.122Z" style="fill:#415a73;"/><path d="M782.239,1468.35c-2.569,-26.666 -0.286,-26.764 -2.272,-128.375c-0.295,-15.108 5.387,-11.584 48.553,-29.151c9.78,-3.98 14.58,-8.86 14.891,5.471c0.215,9.902 2.516,116.043 1.025,123.82c-1.044,5.448 -56.216,26.81 -62.197,28.236Z" style="fill:#486278;"/><path d="M1138.738,685.712c-32.314,9.719 -35.533,11.842 -45.937,-8.362c-4.818,-9.355 -46.386,-64.265 -43.319,-70.178c1.334,-2.572 54.204,-13.743 86.918,-23.251c10.135,-2.946 9.63,2.355 35.319,37.592c7.841,10.755 -7.398,7.405 -14.459,35.417c-1.699,6.741 -3.102,13.622 -4.798,20.365c-2.816,11.199 -5.539,6.339 -13.723,8.416Z" style="fill:#3973ae;"/><path d="M1261.975,479.073c-35.295,-43.595 -38.441,-43.723 -35.993,-48.113c1.212,-2.174 4.076,0.087 63.069,2.425c28.745,1.139 34.741,1.5 33.82,11.061c-8.569,88.906 -80.657,139.583 -84.749,125.031c-1.937,-6.89 -6.755,-52.469 -18.24,-121.708c-2.272,-13.699 6.138,-1.103 6.492,-0.572c2.35,3.519 2.686,2.953 31.789,40.602c-22.271,34.593 14.275,35.956 21.137,17.475c0.812,-2.186 9.027,-24.313 2.548,-30.558c-0.143,-0.138 -4.122,-4.828 -9.849,-3.764c-6.115,1.136 -5.484,2.662 -10.025,8.122Z" style="fill:#cbd3d8;"/><path d="M1505.507,559.609c2.266,-1.264 70.132,-18.138 76.962,-17.424c9.549,0.999 127.842,25.69 137.866,31.846c2.275,1.397 21.449,21.995 5.363,26.884c-83.545,25.394 -84.085,23.525 -84.891,22.435c-4.192,-5.671 2.41,-31.605 -21.859,-37.646c-25.472,-6.341 -25.373,-5.78 -50.861,-11.008c-58.042,-11.907 -58.224,-11.443 -62.581,-15.087Z" style="fill:#cbd4d9;"/><path d="M1596.687,707.078c-52.881,46.325 -53.366,45.235 -55.207,45.982c-34.995,14.214 -35.423,10.532 -70.7,24.494c-0.43,0.17 -17.815,5.304 -3.237,-6.355c10.586,-8.466 42.896,-40.141 47.268,-42.384c3.038,-1.559 0.596,-6.664 33.306,-32.048c5.605,-4.349 30.444,-28.498 33.06,-31.04c2.22,-2.158 1.802,-2.99 4.416,-3.388c4.006,-0.61 2.163,-8.509 47.734,-22.412c23.453,-7.155 23.22,-6.941 46.182,-15.83c18.696,-7.238 -14.522,20.36 -18.847,24.559c-26.291,25.521 -58.788,53.895 -63.973,58.423Z" style="fill:#3770aa;"/><path d="M1339.952,1248.588c-2.563,-0.048 -30.174,-0.567 -32.015,-1.675c-2.284,-1.375 -2.019,-13.838 -1.993,-15.062c0.276,-13.004 3.295,-154.987 4.051,-162.522c0.577,-5.743 8.458,-6.289 34.819,-7.189c5.867,-0.2 6.366,4.565 2.739,102.156c-2.821,75.895 1.792,82.767 -7.601,84.293Z" style="fill:#466076;"/><path d="M1171.687,1113.692c6.454,17.347 6.455,23.337 5.984,33.43c-12.517,-15.977 -24.794,-11.139 -26.945,-10.291c-46.905,18.485 -46.941,18.109 -50.972,19.918c-24.571,10.078 -24.547,9.222 -26.661,10.122c-66.981,28.524 -77.536,27.905 -97.141,36.942c-25.537,10.157 -25.164,10.68 -50.451,22.161c-23.6,10.715 -26.78,18.796 -25.475,168.118c0.907,103.736 -2.109,123.233 15.53,113.333l2.54,5.452c-30.67,16.626 -25.632,-16.04 -27.316,-84.991c-0.343,-14.063 -3.974,-162.725 -2.426,-175.859c4.424,-37.53 22.713,-35.054 153.398,-87.38c50.786,-20.334 62.278,-19.673 71.481,-30.723c0.793,0.363 -0.818,3.126 -0.025,3.489c0.72,0.329 46.486,-17.472 47.17,-17.725c6.109,-2.265 6.054,-1.725 11.31,-5.994Z" style="fill:#80939e;"/><path d="M131.59,1350.237c8.394,10.924 14.882,-0.913 16.796,10.421c0.02,0.116 6.127,54.841 2.176,59.005c-8.069,8.504 -14.444,3.63 -13.381,21.71c1.959,33.337 -2.617,35.131 9.079,64.562c10.954,27.564 6.433,33.95 26.78,48.228c26.04,18.274 27.289,19.738 32.824,13.715c2.675,-2.911 3.684,-3.402 39.814,20.41c12.734,8.392 5.274,21.039 20.329,31.112c23.411,15.663 23.899,15.182 25.69,13.415c2.06,-2.032 14.93,-27.184 15.951,-39.035c2.13,-24.724 -6.28,-59.854 4.082,-60.066c7.332,-0.15 5.885,5.46 7.766,52.949c0.109,2.755 3.459,29.691 -17.745,63.943c-9.96,16.088 -12.109,-5.957 -33.682,-5.118c-2.478,0.096 -59.178,-33.857 -60.97,-41.737c-6.815,-29.967 -28.119,-22.002 -44.923,-42.189c-6.177,-7.421 -9.917,-20.701 -26.392,-66.757c-1.442,-4.03 -7.844,-62.622 -1.388,-71.017c7.64,-9.935 5.005,-12.123 4.171,-49.948c-0.301,-13.628 -4.544,-10.354 -11.152,-20.353c0.928,-0.758 0.884,-0.276 1.844,-1.061c0.194,-0.159 -0,0 2.332,-2.188Z" style="fill:#6f818b;"/><path d="M852.208,1456.637c1.641,0.567 3.283,1.135 4.924,1.702c-1.003,59.691 5.755,62.286 -7.312,90.877l-2.169,-0.133c-0.86,0.225 -1.566,-1.621 -2.425,-1.396c-0.576,0.151 -0.253,0.935 -6.948,3.24c-20.54,7.073 -45.907,22.003 -61.873,24.809c2.197,-20.138 2.015,-79.05 0.877,-86.355c22.588,-9.378 39.239,-14.714 74.925,-32.744Z" style="fill:#ed9231;"/><path d="M1903.661,768.758c0.605,11.279 7.609,51.055 -13.361,87.808c-23.22,40.698 -1.384,-37.179 -18.518,-74.77c-46.123,-101.189 -48.245,-100.353 -48.499,-110.724c-0.401,-16.386 50.826,-12.465 73.393,61.34c5.345,17.482 4.407,17.691 6.985,36.346Z" style="fill:#8a9ca4;"/><path d="M849.821,1549.216c-12.249,28.884 -54.846,102.338 -60.519,108.142c-5.059,5.176 -72.331,33.786 -74.849,34.474c1.982,-15.024 39.822,-69.756 58.908,-110.685c1.015,-1.804 2.03,-3.608 3.045,-5.412c15.967,-2.806 41.333,-17.736 61.873,-24.809c6.695,-2.305 6.372,-3.09 6.948,-3.24c0.86,-0.225 1.566,1.621 2.425,1.396l2.169,0.133Z" style="fill:#ca7224;"/><path d="M371.726,1429.923c3.445,7.375 5.085,10.886 7.745,109.471c0.059,2.191 -0.333,9.809 -0.377,10.661c-7.76,0.005 -29.938,6.56 -51.989,10.923c-0.371,-1.885 -2.146,-2.814 -2.517,-4.699c-0.644,-3.27 -0.195,-6.779 -0.408,-10.157c-5.468,-86.916 -3.639,-102.908 -2.629,-111.741c10.89,0.48 46.168,-3.954 50.174,-4.458Z" style="fill:#3773af;"/><path d="M1752.14,1299.12c3.315,-1.782 15.914,-8.186 17.3,-8.891c9.281,-4.718 114.813,-58.363 116.164,-58.383c11.571,-0.168 -3.876,7.303 -4.404,7.558c-29.67,14.349 -28.946,24.818 -121.65,73.712c-15.849,8.359 -166.824,87.987 -198.666,102.441c-102.93,46.723 -107.275,65.39 -107.707,52.679c-0.142,-4.185 3.496,-3.025 4.886,-4.195c11.108,-9.352 36.768,-24.799 41.475,-30.115c14.154,-15.988 48.142,-27.378 104.668,-57.017c49.311,-25.93 98.623,-51.86 147.934,-77.79Z" style="fill:#3a72ac;"/><path d="M1226.132,899.026c32.073,9.796 36.636,3.736 47.587,32.671c4.004,10.581 10.051,20.781 0.94,23.997c-66.693,23.548 -68.676,25.035 -71.839,18.192c-19.699,-42.626 -18.437,-43.273 -38.258,-85.976c-0.294,-0.634 -0.313,-0.494 -4.117,-7.485c-5.803,-10.663 14.727,0.146 26.43,4.547c15.077,5.669 37.888,13.548 39.257,14.054Z" style="fill:#93a4ac;"/><path d="M1782.911,594.742c-1.253,2.387 -0.662,2.824 -2.316,4.413c-11.523,11.067 -12.135,9.197 -23.935,20.031c-7.284,6.688 -90.915,85.175 -91.496,85.82c-12.795,14.187 -13.679,11.914 -56.139,26.127c-0.969,0.324 -34.831,17.608 -19.418,0.424c6.561,-7.315 4.871,-9.969 18.179,-22.073c84.5,-76.855 84.577,-76.673 88.071,-80.43c18.999,-20.429 20.865,-14.705 44.41,-21.255c22.249,-6.19 32.192,-14.557 42.644,-13.058Z" style="fill:#3870a9;"/><path d="M1155.725,476.021c23.195,-3.71 37.471,-15.556 32.56,16.171c-8.956,57.857 5.53,59.599 1.222,67.085c-1.976,3.434 -40.047,11.608 -41.248,11.452c-5.16,-0.67 -47.291,-68.992 -51.17,-75.283c-7.025,-11.392 3.945,-7.112 58.636,-19.425Z" style="fill:#3974ad;"/><path d="M1777.321,1127.159c-1.535,28.724 1.864,63.798 -22.655,77.737c-11.24,6.39 -5.227,-8.515 -1.676,-118.296c1.425,-44.043 6.48,-47.017 -11.347,-83.682c-11.169,-22.972 -88.355,-30.913 -76.263,-40.363c5.214,-4.074 93.231,22.731 102.908,37.295c17.633,26.538 12.992,30.984 9.032,127.308Z" style="fill:#e89538;"/><path d="M1415.247,620.941c10.613,-3.824 11.219,0.486 21.27,-5.671c7.873,-4.823 8.045,-5.803 32.102,0.742c25.473,6.931 28.694,9.609 45.186,82.186c2.268,9.978 -14.179,11.141 -52.703,22.743c-1.63,-23.469 -9.323,-61.421 -10.387,-66.674c-6.262,-30.893 -14.379,-20.139 -35.468,-33.326Z" style="fill:#cfd5d9;"/><path d="M1789.094,601.324c21.919,-20.726 23.747,-14.353 74.659,-32.287c18.211,-6.415 -4.458,8.693 -82.67,80.97c-51.846,47.912 -54.036,42.018 -84.559,52.547c-13.654,4.71 -28.902,13.683 -17.723,1.659c8.406,-9.04 9.341,-6.738 110.292,-102.889Z" style="fill:#3871aa;"/><path d="M1269.434,682.696c1.789,0.502 20.291,5.69 21.984,8.489c0.169,0.279 7.061,36.831 0.372,41.263c-6.527,4.325 -96.317,-21.961 -104.622,-24.392c-11.92,-3.49 -8.909,-9.882 -5.297,-37.294c1.581,-11.999 6.193,-7.64 87.563,11.934Z" style="fill:#486077;"/><path d="M733.511,1343.18c-6.592,1.601 -56.552,13.738 -82.338,20.511c-1.616,-14.072 -1.741,-47.769 0.311,-50.402c0.774,-0.993 79.02,-36.038 82.196,-30.748c1.993,3.319 0.589,3.763 1.474,54.053c0.074,4.204 -1.598,6.403 -1.643,6.587Z" style="fill:#96a9b2;"/><path d="M1543.328,983.525c-3.439,1.488 -3.399,1.441 -26.536,10.952c-34.298,14.099 -37.753,19.672 -39.647,78.482c-5.545,172.197 -4.532,176.421 8.723,188.957c7.498,7.092 -22.039,9.886 -23.584,-23.311c-0.836,-17.959 5.315,-204.784 5.561,-209.57c1.361,-26.518 6.074,-30.852 92.974,-63.081c45.505,-16.877 98.076,-40.425 84.145,-22.025c-1.535,2.027 -93.484,36.537 -101.637,39.597Z" style="fill:#7b8d98;"/><path d="M1812.707,807.78c-11.676,-2.023 -9.776,-6.909 -20.341,-31.291c-26.084,-60.199 -36.96,-71.587 -20.57,-77.329c21.341,-7.476 25.344,-12.521 37.669,13.142c35.637,74.202 33.866,78.363 29.881,83.332c-2.805,3.497 -24.469,11.359 -26.639,12.146Z" style="fill:#485f75;"/><path d="M131.59,1350.237c-2.332,2.188 -2.138,2.03 -2.332,2.188c-0.96,0.785 -0.916,0.303 -1.844,1.061c-2.234,-21.979 -8.43,-52.071 1.365,-75.164c4.161,-9.81 12.533,-38.969 22.897,-33.052c56.8,32.431 128.237,65.23 135.54,81.416c22.097,48.978 24.285,80.104 24.812,87.602c3.92,55.769 2.819,58.977 -0.439,58.013c-15.521,-4.59 -6.611,-68.274 -16.42,-92.091c-19.597,-47.58 -18.933,-49.237 -25.155,-52.536c-3.568,-1.892 -73.141,-42.09 -111.029,-62.244c-14.087,-7.493 -14.884,-1.659 -22.872,16.283c-10.015,22.494 -6.607,24.14 -4.522,68.524Z" style="fill:#73838b;"/><path d="M1454.378,1241.224c3.267,11.904 5.876,28.217 26.186,34.884c17.76,5.829 21.166,-19.19 48.774,-8.251c5.879,2.329 5.698,1.977 11.592,2.547l0.937,1.088c-1.26,2.131 0.156,4.31 -5.749,6.642c-42.738,16.878 -86.875,37.84 -94.366,41.398c-2.822,1.34 -2.411,1.954 -6.655,7.886c-7.583,-4.429 -7.72,-2.452 -16.011,-1.237c13.907,-48.207 1.682,-56.08 9.205,-76.198c13.045,-5.215 12.72,-5.679 26.088,-8.76Z" style="fill:#ccd6da;"/><path d="M1935.212,968.308c-0.118,-4.173 3.526,-6.205 -11.856,-39.662c-9.236,-20.088 -75.192,-28.087 -78.436,-32.195c-14.312,-18.118 89.467,17.67 96.074,25.133c20.582,23.249 13.33,61.132 11.827,87.156c-4.403,76.213 -0.886,88.979 -21.631,106.537c-7.217,6.108 -2.714,-6.134 4.023,-146.969Z" style="fill:#e79539;"/><path d="M1282.039,1005.26c0.759,2.091 9.072,24.988 7.203,27.514c-1.26,1.702 -44.969,17.631 -48.899,19.064c-7.725,2.815 -10.147,5.06 -12.216,-5.723c-6.584,-34.33 -9.233,-32.603 -16.887,-54.123c-1.724,-4.847 0.384,-7.476 46.197,-20.68c14.093,-4.062 12.831,4.164 24.601,33.949Z" style="fill:#9fafb6;"/><path d="M841.363,1116.164c7.979,15.35 15.474,37.581 16.623,40.99c4.99,14.802 7.167,14.779 10.436,189.789c3.74,200.186 3.203,201.876 -4.287,215.618c-4.931,9.048 -60.588,111.169 -62.449,112.234c-8.5,4.863 -10.217,6.269 -15.06,-4.362c3.236,-2.501 7.382,-0.505 17.319,-19.58c15.135,-29.055 16.432,-27.567 16.814,-30.604c0.845,-6.705 2.92,-4.533 6.641,-11.028c3.381,-5.903 1.869,-7.043 5.444,-12.744c2.291,-3.653 2.881,-2.647 4.9,-6.671c9.211,-18.353 8.771,-18.745 9.686,-20.213c8.75,-14.022 9.09,-13.662 9.771,-16.808c1.583,-7.31 3.144,-5.994 5.158,-13.348c4.821,-17.606 -3.27,-346.237 -3.519,-347.439c-0.421,-2.033 -3.072,-2.041 -3.493,-4.074l-3.985,-3.213c-1.347,-10.46 -1.423,-10.09 -3.739,-20.425c4.104,-6.041 4.651,-5.864 4.418,-6.503c-0.575,-1.574 -2.618,-1.349 -3.161,-2.945c-0.418,-1.229 1.113,-2.614 0.826,-3.914c-0.336,-1.524 -1.87,-1.987 -2.432,-3.375c-0.427,-1.055 -0.311,-0.983 -4.752,-13.62c-4.293,-12.217 -5.585,-11.384 -5.309,-12.479c0.621,-2.464 3.528,-2.824 4.149,-5.288Z" style="fill:#475c71;"/><path d="M433.164,1767.474c-16.306,2.587 8.622,-22.992 -10.796,-65.216c-7.57,-16.461 4.847,-7.499 22.67,-6.4c29.444,1.815 68.03,2.319 67.864,9.082c-0.005,0.222 -12.479,28.915 -16.436,31.439c-3.368,2.148 -38.971,20.503 -63.302,31.095Z" style="fill:#788b93;"/><path d="M1770.319,675.399c2.288,-1.647 28.144,-30.242 80.829,-76.657c31.532,-27.779 29.525,-34.763 61.167,-42.531c25.069,-6.155 54.735,-22.631 31.983,-6.548c-1.52,1.075 -1.456,1.125 -32.751,28.591c-92.365,81.066 -92.888,79.555 -100.682,87.074c-1.307,1.261 -1.419,0.953 -37.006,13.063c-1.18,-0.997 -2.36,-1.995 -3.539,-2.992Z" style="fill:#396fa8;"/><path d="M1164.738,1045.513c6.831,43.508 6.452,57.811 6.95,68.178c-5.255,4.269 -5.201,3.729 -11.31,5.994c-0.684,0.253 -46.45,18.055 -47.17,17.725c-0.793,-0.363 0.818,-3.126 0.025,-3.489c2.917,-51.449 -1.793,-50.64 -4.861,-62.886c4.271,-7.566 4.645,-7.388 42.281,-22.449c6.97,-2.789 6.977,-0.78 14.085,-3.075Z" style="fill:#3772aa;"/><path d="M787.269,836.475c3.167,7.968 7.204,11.897 19.331,3.833c11.757,-7.817 45.854,30.222 33.984,34.124c-20.895,6.869 -20.815,5.607 -41.512,12.24c-30.162,9.666 -30.71,12.068 -60.359,-0.313c-11.297,-4.718 -5.546,-12.309 5.78,-31.655c9.419,-16.089 30.287,11.68 34.418,-14.486c5.72,-0.008 5.722,0.257 6.178,-0.009c1.062,-0.621 1.118,-3.113 2.18,-3.734Z" style="fill:#99aab2;"/><path d="M262.722,1119.402c15.288,11.362 15.392,10.284 31.545,19.37c3.554,1.999 2.812,3.15 5.792,6.489c-4.873,5.078 -34.309,35.752 -63.624,58.084c-4.582,-1.176 -39.374,-16.395 -39.174,-22.259c0.118,-3.483 1.008,-2.966 25.426,-25.391c3.19,-2.93 22.909,-21.04 40.035,-36.293Z" style="fill:#ef9636;"/><path d="M227.543,1211.116c4.623,0.886 6.223,1.193 54.538,28.825c0.506,0.29 0.382,0.451 5.427,5.802c-36.126,36.531 -36.197,36.769 -38.109,42.272c-5.552,-1.84 -22.882,-11.658 -24.844,-12.769c-18.526,-10.496 -19.064,-8.478 -36.472,-22.615c22.59,-25.428 31.705,-29.569 39.46,-41.515Z" style="fill:#3671ad;"/><path d="M366.637,1065.108c7.915,5.982 50.685,25.09 58.921,23.777c3.408,-0.543 2.407,-5.704 41.285,-16.105c4.007,-1.072 3.252,-4.128 7.34,-3.902c1.341,0.074 1.194,4.286 2.535,4.36c-30.355,35.763 -56.729,57.333 -60.7,56.807c-1.133,-0.15 -64.343,-23.403 -63.396,-33.423c0.095,-1.008 3.638,-12.298 7.809,-20.123c2.823,-6.253 2.725,-6.111 6.206,-11.39Z" style="fill:#96a8b1;"/><path d="M1053.824,1526.183c-10.715,15.444 -13.214,20.316 -22.484,35.977c-2.518,5.713 -2.483,5.694 -2.719,6.17c-3.763,7.575 -77.182,40.407 -84.008,43.46c-16.752,7.491 33.147,-53.385 36.502,-82.546c0.359,-1.031 -0.76,-2.362 -0.401,-3.393c4.786,-13.754 21.607,24.006 56.233,7.469c8.386,-4.005 8.154,-4.47 16.877,-7.137Z" style="fill:#9aacb6;"/><path d="M1597.331,641.508l-2.742,-5.733l-2.425,1.245c-6.25,2.728 -6.557,0.114 -80.072,23.772c-11.457,-40.241 -10.924,-50.755 -60.556,-57.711c-28.672,-4.018 4.131,-8.039 4.729,-8.06c7.996,-0.281 138.896,25.223 143.081,32.054c4.369,7.132 3.561,9.06 -2.015,14.433Z" style="fill:#cad4d9;"/><path d="M1101.076,891.85c-0.391,50.029 -5.845,48.734 -12.93,110.407c-0.671,5.839 -1.806,4.909 -2.762,4.875c-3.919,-0.139 -36.144,-81.27 -43.835,-95.895c29.748,-15.549 54.657,-18.76 59.527,-19.387Z" style="fill:#3871ad;"/><path d="M439.867,1040.808c23.019,9.011 22.852,8.572 46.02,16.977c5.729,2.079 -2.269,8.088 -9.169,15.452c-1.341,-0.074 -1.194,-4.286 -2.535,-4.36c-4.088,-0.226 -3.333,2.83 -7.34,3.902c-38.878,10.401 -37.878,15.562 -41.285,16.105c-8.236,1.313 -51.006,-17.794 -58.921,-23.777c4.957,-3.682 4.706,-4.506 37.116,-19.568c22.469,-10.442 22.829,-9.318 36.114,-4.732Z" style="fill:#ced7db;"/><path d="M733.511,1343.18c1.735,6.397 1.849,6.319 1.874,6.909c1.02,24.457 6,33.417 -11.371,37.798c-5.429,1.369 -62.562,15.779 -67.905,16.747c-9.183,1.664 -4.935,-40.939 -4.935,-40.943c25.785,-6.772 75.746,-18.909 82.338,-20.511Z" style="fill:#3771a9;"/><path d="M1158.849,1031.273c-13.119,15.771 -15.441,8.512 -49.425,24.106c-3.882,1.781 -3.299,-1.37 -4.71,-1.956l-1.524,-0.49c0.683,-52.219 10.479,-80.615 12.067,-104.727c0.056,-0.846 1.201,-18.231 5.995,-6.553c18.568,45.236 19.571,44.096 37.597,89.619Z" style="fill:#3872ab;"/><path d="M1221.225,584.807c14.691,-0.069 14.508,0.47 29.09,-3.719c10.48,-3.011 21.364,21.996 -2.615,28.169c-62.535,16.1 -63.654,15.867 -67.414,10.415c-16.302,-23.643 -30.284,-38.417 -19.982,-40.946c33.79,-8.298 34.613,-9.647 43.591,-1.761c7.876,6.918 8.247,5.024 17.33,7.843Z" style="fill:#3b74ad;"/><path d="M904.893,804.777c2.034,4.019 9.084,17.955 42.192,17.953c38.241,-0.001 49.915,-12.882 53.344,-16.665c1.428,1.586 16.08,17.854 15.087,23.869c-4.133,25.052 -147.633,25.744 -126.211,-6.462c6.852,-10.301 7.169,-9.321 15.588,-18.696Z" style="fill:#9aadb5;"/><path d="M1541.867,1271.491c2.243,0.223 4.487,0.446 6.73,0.669c7.355,3.389 7.214,3.322 14.465,7.376c0.962,-0.31 1.759,-1.319 2.721,-1.629c4.142,-1.336 2.999,1.899 4.475,7.319c-37.96,21.86 -133.81,64.83 -145.537,70.088c-13.335,5.978 6.677,-16.166 10.376,-27.895c4.244,-5.932 3.833,-6.546 6.655,-7.886c7.491,-3.558 51.628,-24.52 94.366,-41.398c5.904,-2.332 4.488,-4.511 5.749,-6.642Z" style="fill:#3772ab;"/><path d="M1300.322,593.747c10.534,30.623 22.151,37.18 17.853,40.181c-6.788,4.74 -79.951,12.278 -64.673,-12.796c2.781,-4.564 14.755,-10.474 19.143,-31.04c1.464,-6.863 2.275,-13.967 3.588,-20.889c2.593,-13.679 13.906,-16.699 29.241,-47.245c9.3,-18.525 8.417,-27.21 13.688,-20.652c2.072,2.577 -14.738,29.328 -15.496,41.171c-0.833,13 -1.975,12.441 -8.378,22.267c-2.608,4.003 4.363,26.806 5.034,29.002Z" style="fill:#4f6577;"/><path d="M1464.704,572.668c-0.541,3.274 -2.838,17.18 -27.706,16.516c-2.023,-0.054 -0.654,-6.077 -24.008,-11.097c-1.347,-0.29 -15.069,-3.239 -16.034,-8.025c-0.088,-0.435 -0.33,-47.507 1.726,-50.243c0.063,-0.084 20.875,-8.468 25.876,-3.755c0.769,0.725 34.429,39.057 40.147,56.604Z" style="fill:#3a74ae;"/><path d="M325.434,1610.391l3.243,0.755c12.304,3.002 29.589,-0.216 52.074,6.589c-0.285,1.891 -1.636,10.842 -6.876,22.179c-15.436,33.394 -15.375,45.737 -42.874,35.12c-19.349,-7.471 -27.913,-8.106 -23.473,-16.723c14.487,-28.115 12.968,-29.052 17.906,-47.92Z" style="fill:#98acb5;"/><path d="M379.095,1550.055c2.091,11.053 3.266,52.117 1.656,67.681c-22.486,-6.805 -39.771,-3.587 -52.074,-6.589l-3.243,-0.755c0.522,-13.063 0.903,-12.859 0.557,-23.679c-0.474,-14.842 -2.515,-15.195 1.115,-25.734c22.051,-4.362 44.229,-10.917 51.989,-10.923Z" style="fill:#cbd5da;"/><path d="M1415.247,620.941c21.088,13.187 29.206,2.433 35.468,33.326c1.065,5.253 8.758,43.205 10.387,66.674c-13.191,4.431 -13.003,4.711 -26.33,8.496c-1.086,-5.402 -0.196,-5.66 -11.148,-68.386c-4.426,-25.35 -11.987,-21.825 -27.935,-27.135c-4.782,-4.113 -4.541,-4.266 -7.109,-5.632c2.112,-0.72 9.759,-3.327 26.667,-7.343Z" style="fill:#f29838;"/><path d="M218.45,1444.66c0.217,-4.6 2.608,-55.278 2.871,-57.483c1.975,-16.511 24.574,-1.568 28.07,9.85c2.437,7.96 9.951,77.229 9.988,78.234c0.53,14.686 -20.884,-2.912 -30.627,-8.877c-9.475,-5.801 -9.68,-7.112 -10.301,-21.724Z" style="fill:#2e4e6f;"/><path d="M1193.011,528.877c0.615,-16.951 -1.765,-34.459 16.542,-77.159c5.988,-13.967 6.438,21.132 20.301,107.946c1.662,10.41 3.859,15.58 -3.86,15.027c-32.237,-2.31 -32.476,-40.25 -32.984,-45.814Z" style="fill:#ccd4d9;"/><path d="M1562.705,1345.106c2.151,-1.084 4.528,-2.8 15.172,-7.644c87.251,-39.707 94.996,-47.616 91.366,-38.26c-9.775,25.19 -17.682,27.477 -65.146,50.287c-44.122,21.205 -50.695,30.687 -57.253,16.865c-7.986,-16.834 2.047,-14.576 15.86,-21.248Z" style="fill:#83969c;"/><path d="M1281.822,381.608c0.849,-0.001 22.918,-5.403 35.341,19.856c0.406,0.825 10.075,25.367 0.881,24.831c-6.792,-0.396 -83.915,-4.891 -84.89,-5.273c-6.178,-2.423 20.364,-33.503 48.668,-39.413Z" style="fill:#cbd4da;"/><path d="M227.543,1211.116c-7.756,11.946 -16.87,16.088 -39.46,41.515c-15.272,-2.305 -31.725,-15.025 -34.27,-16.992c-2.681,-2.073 -3.005,-6.375 26.121,-39.088c9.543,-10.718 12.312,-7.31 47.609,14.565Z" style="fill:#ccd3da;"/><path d="M847.869,1662.061c-3.385,0.597 -6.385,3.661 -9.77,4.257c-10.607,1.869 39.148,-77.416 43.037,-83.613c7.911,-12.606 7.13,-15.417 32.079,-25.716c12.347,-5.097 -6.243,24.212 -37.54,79.247c-13.567,23.858 -19.375,21.572 -27.805,25.824Z" style="fill:#95a8af;"/><path d="M1286.844,801.192c9.765,3.603 19.691,3.06 11.043,10.276c-21.067,17.58 -20.425,18.624 -41.099,36.892c-3.662,3.236 -40.24,-7.233 -40.548,-11.883c-0.332,-5.002 0.555,-5.526 37.029,-35.771c12.036,-9.98 20.682,-3.574 33.575,0.486Z" style="fill:#f09933;"/><path d="M585.745,910.788c1.227,-0.98 1.192,-3.879 2.419,-4.859c4.68,-3.736 18.18,5.078 29.101,6.898c12.607,4.675 12.372,5.038 24.251,12.398c2.338,0.497 22.433,4.765 29.101,7.257c0.99,0.37 1.323,2.398 2.294,2.85c4.947,2.301 11.093,3.283 12.073,3.44c6.223,0.995 13.222,6.083 14.295,6.862c0.605,0.44 1.864,1.355 5.384,-9.231c5.88,2.238 54.363,20.687 72.974,30.538c-0.264,0.742 -3.298,9.272 -3.298,9.272c-0.008,0.561 2.166,-4.106 4.427,3.342c1.084,3.571 0.394,3.909 2.437,6.584c4.648,6.086 0.641,8.126 -0.059,10.151c-6.026,-9.945 -5.916,-9.976 -6.508,-10.74c-6.965,-8.981 -130.187,-51.856 -188.892,-74.763Z" style="fill:#3c4f66;"/><path d="M1129.801,835.793c1.088,0.389 9.746,3.486 13.666,4.463c2.084,0.52 70.533,22.975 92.142,27.423c12.318,2.536 30.375,23.695 21.027,28.852c-3.917,2.161 -102.46,-32.225 -104.468,-35.772c-7.897,-13.947 -8.947,-12.148 -20.777,-18.451c-4.711,-2.51 -1.205,-4.941 -1.59,-6.516Z" style="fill:#455d74;"/><path d="M1696.745,1280.312c10.129,-5.19 13.119,-7.27 16.875,-5.054c5.245,3.095 9.2,16.451 9.233,17.446c0.081,2.452 -0.713,1.95 -17.418,18.778c-4.74,4.775 -132.25,73.779 -137.654,73.044c-26.735,-3.636 88.396,-39.877 101.153,-65.644c11.607,-23.446 8.776,-28.585 27.812,-38.57Z" style="fill:#ecf1f0;"/><path d="M903.632,1634.992c-0.924,0.476 -17.912,9.221 -12.29,-0.957c0.191,-0.345 31.141,-50.814 44.473,-76.862c9.085,-17.75 10.816,-15.124 25.705,-21.734c0.751,-0.333 15.242,-6.767 9.486,3.688c-2.688,4.883 -20.609,37.436 -34.263,60.326c-15.254,25.573 -15.618,25.586 -33.111,35.539Z" style="fill:#93a6af;"/><path d="M1597.331,641.508c-27.841,20.367 -71.758,71.298 -75.554,59.858c-1.03,-3.105 -0.717,-3.005 -9.685,-40.573c73.515,-23.658 73.822,-21.045 80.072,-23.772l2.425,-1.245l2.742,5.733Z" style="fill:#91a5ac;"/><path d="M1555.65,604.662c-3.035,-0.633 -54.168,-11.713 -77.378,-15.908c-13.371,-2.417 0.115,-15.617 19.407,-9.957c20.203,5.927 101.759,21.745 116.189,25.562c13.526,3.578 15.328,26.401 11.815,28.022c-19.581,9.029 -18.857,-5.864 -19.619,-8.486c-3.607,-12.41 -11.245,-9.936 -50.413,-19.233Z" style="fill:#c8d3d8;"/><path d="M1456.248,1160.754c-0.954,73.835 -0.317,73.972 -1.87,80.47c-13.369,3.081 -13.043,3.545 -26.088,8.76c-0.526,-4.165 -1.248,-3.835 -1.008,-7.984c1.307,-22.618 -1.778,-51.775 3.361,-72.453c22.671,-7.396 22.589,-7.614 25.606,-8.794Z" style="fill:#3a70a8;"/><path d="M323.401,1766.537c-9.123,-16.289 10.099,-19.486 19.829,-24.357c47.401,-23.728 46.78,-25.192 50.948,-26.975c10.305,-4.407 13.113,-15.587 19.014,-9.089c12.77,14.062 9.518,53.128 4.73,33.316c-3.433,-14.204 -7.859,-3.488 -89.281,25.928c-1.747,0.392 -3.493,0.785 -5.24,1.177Z" style="fill:#495f74;"/><path d="M1094.946,880.648c-9.343,5.44 -41.409,16.403 -58.863,19.256c-8.519,-27.109 -32.989,-25.288 -18.563,-29.319c45.626,-12.748 56.514,-28.541 77.426,10.063Z" style="fill:#3971aa;"/><path d="M1122.133,1496.088c-4.984,8.322 -4.723,8.144 -9.847,16.61c-9.271,15.318 -10.132,15.186 -9.966,22.589c-21.05,9.05 -67.435,31.843 -67.934,31.496c-1.343,-0.934 -1.703,-3.689 -3.046,-4.623c9.27,-15.661 11.768,-20.533 22.484,-35.977c7.795,-2.492 26.018,0.23 38.447,-14.399c1.393,-1.64 9.68,-11.393 20.007,-15.231c0.779,-0.289 1.762,0.798 2.416,0.143c1.08,-1.083 0.951,-3.851 2.133,-4.702c0.431,-0.31 0.38,0.294 5.305,4.094Z" style="fill:#356ea8;"/><path d="M1141.721,776.13c-9.249,23.198 -11.625,36.551 -20.131,34.198c-22.607,-6.253 -33.243,-5.972 -26.782,-21.345c14.99,-35.667 16.538,-37.936 29.162,-35.338c2.024,0.416 23.56,1.769 21.596,11.703c-0.184,0.929 -0.285,0.799 -3.846,10.783Z" style="fill:#f19a35;"/><path d="M1331.198,471.807c3.417,-29.639 4.865,-29.062 4.915,-29.123c3.11,-3.799 16.902,-5.052 18.4,-5.188c4.078,-0.37 2.847,3.443 1.405,71.165c-0.396,18.612 -19.441,12.769 -22.332,8.691c-12.593,-17.762 -5.544,-21.156 -2.387,-45.545Z" style="fill:#3d77b1;"/><path d="M904.893,804.777c15.737,-13.14 72.793,-15.046 95.535,1.289c-3.429,3.783 -15.103,16.664 -53.344,16.665c-33.107,0.001 -40.158,-13.934 -42.192,-17.953Z" style="fill:#ced6da;"/><path d="M1325.587,581.102c-6.742,3.243 -6.327,3.715 -12.158,8.968c-3.409,3.071 -17.808,-7.982 -6.156,-25.129c3.758,-5.53 2.531,-25.474 8.024,-27.167c16.809,-5.181 18.404,-6.805 30.986,9.394c6.486,8.35 8.513,6.844 9.95,19.119c1.115,9.529 -8.875,10.264 -30.646,14.816Z" style="fill:#3c75af;"/><path d="M777.638,966.941c11.573,9.307 20.895,38.733 36.572,81.737c2.012,5.518 3.336,4.452 27.153,67.486c-0.621,2.464 -3.528,2.824 -4.149,5.288c-0.276,1.095 1.016,0.262 5.309,12.479c4.441,12.637 4.325,12.565 4.752,13.62c0.562,1.389 2.096,1.851 2.432,3.375c0.286,1.3 -1.245,2.685 -0.826,3.914c0.543,1.596 2.586,1.371 3.161,2.945c0.233,0.638 -0.313,0.461 -4.418,6.503c-3.245,-8.696 -40.678,-102.212 -44.23,-111.088l3.632,-3.829l-1.382,-3.379c-2.652,-6.393 -2.647,-8.469 -2.646,-9.267c0.015,-6.734 -4.981,-9.348 -5.05,-9.539c-0.423,-1.165 0.96,-2.601 0.622,-3.819c-0.15,-0.54 -0.434,-0.256 -2.678,-6.203c-2.055,-5.444 -3.066,-3.593 -7.035,-1.171c-4.647,-12.34 -4.607,-12.268 -5.018,-13.327c-1.263,-3.253 -1.32,-2.842 -2.692,-6.376c0.701,-2.025 4.708,-4.065 0.059,-10.151c-2.043,-2.675 -1.353,-3.012 -2.437,-6.584c-2.262,-7.449 -4.435,-2.781 -4.427,-3.342c0,0 3.034,-8.53 3.298,-9.272Z" style="fill:#40576d;"/><path d="M1332.084,588.48c11.36,-3.371 11.374,-3.013 22.645,0.535c6.564,2.067 10.337,-4.599 13.874,-1.819c1.58,1.242 11.719,9.208 22.542,3.467c11.426,-6.061 11.622,-4.989 23.809,-2.589c21.011,4.137 17.559,19.467 14.221,20.36c-51.671,13.815 -52.517,13.226 -56.602,10.38c-0.289,-7.589 -0.38,-7.373 -1.346,-15.054c-10.872,-7.908 -11.775,-2.979 -28.605,-8.362c-6.036,-1.93 -7.076,0.314 -10.538,-6.917Z" style="fill:#9eaeb5;"/><path d="M351.438,1769.829c5.068,-1.25 26.926,-10.751 47.567,-4.834l2.425,-0.553l2.6,5.926c-14.061,6.755 -14.299,4.429 -19.598,4.676c-6.665,0.311 -28.873,15.702 -46.078,16.471c-9.21,0.412 -77.905,43.71 -74.319,25.031c1.627,-8.472 59.551,-26.485 87.403,-46.717Z" style="fill:#314e6c;"/><path d="M1803.404,871.505c18.347,-5.546 18.293,-6.191 21.735,-5.785c17.373,2.046 -1.887,8.571 -2.409,8.748c-31.765,10.761 -109.555,42.461 -119.045,46.329c-24.053,9.802 -14.772,25.5 -20.185,32.339c-6.819,8.616 -13.219,-11.229 -3.68,-28.408c6.333,-11.405 8.214,-8.306 123.585,-53.222Z" style="fill:#758996;"/><path d="M940.235,1533.987c-6.592,7.707 -5.742,8.402 -10.763,18.107c-2.966,5.734 -6.249,-3.899 -7.118,-4.756c-7.992,-7.887 -8.428,-1.093 -23.78,5.539c-16.185,6.992 -15.024,10.051 -25.713,28.163c-42.02,71.203 -47.936,94.557 -58.571,91.924c-6.852,-1.696 55.958,-89.799 61.865,-123.391c4.018,1.862 3.89,2.051 7.873,1.049l2.425,-1.006l2.425,-0.941l2.425,-0.702l2.425,-1.017l2.425,-1.394l2.425,-0.66l2.425,-0.599l2.425,-0.953l2.425,-0.911l2.425,-1.314l2.425,-0.987l2.425,-1.851c7.34,-1.424 24.071,-10.526 24.251,-10.657l2.854,6.356Z" style="fill:#98aab3;"/><path d="M1775.72,992.967l3.177,-2.365c6.078,5.572 18.01,10.686 17.973,28.374c-0.065,31.106 -4.082,138.904 -6.403,145.001c-0.525,1.378 0.369,1.617 -4.556,18.443c-4.958,-3.475 -3.629,-5.198 -3.069,-21.59c0.93,-27.222 1.237,-26.949 2.615,-54.101c4.039,-79.609 5.815,-81.957 -9.738,-113.762Z" style="fill:#c47327;"/><path d="M1862.089,798.939c-16.711,-48.069 -39.122,-85.496 -51.81,-117.849c-2.45,-6.247 2.483,-11.405 6.469,-2.396c46.749,105.655 47.563,104.826 51.227,114.322c6.149,15.934 1.989,89.752 1.921,89.94c-9.635,26.678 -0.442,-48.226 -7.807,-84.018Z" style="fill:#d5944f;"/><path d="M1122.133,1496.088c7.351,-8.037 7.854,-6.198 16.64,-10.29c21.814,-10.158 34.924,-21.197 26.398,-7.385c-24.923,40.373 -27.071,37.257 -62.851,56.874c-0.166,-7.403 0.695,-7.271 9.966,-22.589c5.124,-8.466 4.863,-8.288 9.847,-16.61Z" style="fill:#c1ccd2;"/><path d="M1306.238,1046.109c-1.062,-9.202 -2.338,-8.232 -7.061,-14.572c-0.916,-1.229 -0.15,-1.612 -7.045,-19.85c-16.359,-43.275 -17.957,-45.76 -15.089,-46.647c5.658,-1.75 9.379,-5.27 12.788,2.364c5.254,11.765 24.524,49.462 23.621,75.027c-0.103,2.925 -1.092,1.688 -7.215,3.678Z" style="fill:#455b70;"/><path d="M1261.975,479.073c4.541,-5.46 3.91,-6.986 10.025,-8.122c5.727,-1.064 9.706,3.626 9.849,3.764c6.478,6.246 -1.737,28.372 -2.548,30.558c-6.862,18.482 -43.408,17.118 -21.137,-17.475c0.513,0.261 6.411,3.261 6.411,3.261c5.428,-3.06 0.286,-4.746 -2.6,-11.986Z" style="fill:#94a5ad;"/><path d="M1332.084,588.48c3.462,7.232 4.502,4.987 10.538,6.917c16.83,5.383 17.733,0.454 28.605,8.362c0.966,7.681 1.057,7.465 1.346,15.054c-2.5,0.582 -1.022,3.56 -3.52,4.142c-0.247,0.058 0.352,-0.842 -2.429,-2.756c-13.144,-9.046 -77.488,-7.125 -34.54,-31.719Z" style="fill:#5c7280;"/><path d="M1747.857,1219.726c30.734,-16.78 33.238,-33.669 43.127,-28.254c5.887,3.224 -35.188,57.575 -42.976,49.562c-9.148,-9.412 -1.038,-20.134 -0.151,-21.308Z" style="fill:#9aabb3;"/><path d="M1778.637,788.965c8.716,8.903 10.561,19.986 14.126,31.132c1.449,4.53 0.342,4.439 -1.756,8.274c-4.824,1.67 -9.588,3.67 -14.412,5.339c-9.916,3.432 -8.037,-4.515 -10.321,-30.997c-0.476,-5.514 -0.401,-7.084 12.363,-13.748Z" style="fill:#3a73ad;"/><path d="M299.495,1677.528c-14.355,-4.572 -51.227,21.441 -60.086,20.078c-1.843,-0.284 -3.727,-8.836 -3.384,-9.545c1.7,-3.516 22.885,-12.113 24.929,-12.942c17.449,-7.081 17.109,-12.352 29.185,-8.232c7.76,2.647 12.992,0.702 9.356,10.641Z" style="fill:#496178;"/><path d="M362.83,1081.496c5.673,1.046 62.109,20.238 48.197,35.332c-2.175,2.36 -52.34,-19.851 -51.304,-26.391c0.123,-0.776 0.23,-0.662 3.106,-8.941Z" style="fill:#4a647b;"/><path d="M980.899,1101.973c-30.405,-0.354 -17.437,-49.622 -0.292,-34.396c5.06,4.494 7.967,14.997 8.423,18.889c1.561,13.311 -7.374,15.083 -8.132,15.507Z" style="fill:#40566c;"/><path d="M1490.815,1059.57c-2.867,64.193 -1.475,64.045 -4.209,128.447c-0.713,-2.258 -3.978,-1.213 -4.691,-3.471c-0.482,-1.527 -0.74,-20.928 -0.545,-23.656l-0.056,-3.379l0.54,-3.379l0.002,-3.379l-0.086,-3.379l-0.078,-3.379l0.003,-3.379l0.715,-3.379l0.178,-3.379l-0.124,-3.379l-0.111,-3.379l0.161,-3.379l0.232,-3.379l0.506,-3.379l0.332,-3.379c0.632,-12.765 -0.631,-14.001 1.616,-27.035l0.425,-3.379l0.04,-3.379l-0.108,-3.379l-0.04,-3.379l0.794,-3.379l0.168,-3.379l0.404,-3.379l3.93,-3.318Z" style="fill:#313f54;"/><path d="M1369.217,516.081c-10.515,-2.073 -4.906,-9.455 -4.473,-64.856c0.152,-19.436 8.023,-5.962 8.42,0c0.288,4.309 -0.085,3.969 -0.647,54.09c-0.07,6.271 -0.373,6.142 -3.3,10.766Z" style="fill:#3d72aa;"/><path d="M1046.417,1040.506c11.389,6.849 3.954,15.525 11.087,23.894c12.762,14.973 -3.564,6.219 -3.947,5.861c-7.584,-7.084 -7.727,-1.634 -7.75,-0.768c-0.681,25.797 -16.407,-22.466 -13.002,-25.353c4.478,-3.797 12.504,-3.654 13.613,-3.634Z" style="fill:#445a6f;"/><path d="M1014.466,1088.774c-8.116,-1.159 -11.223,-9.256 -13.321,1.667c-2.388,12.43 -18.183,-27.855 -10.641,-31.879c19.465,-10.384 17.988,18.326 22.465,24.143c2.685,3.489 1.271,5.155 1.496,6.069Z" style="fill:#435a6f;"/><path d="M854.004,1070.02c-0.154,-2.203 -3.473,-16.932 10.556,-21.261c7.102,-2.191 12.195,6.831 5.114,8.731c-20.963,5.626 -2.754,20.512 -0.089,20.783c4.943,0.503 4.642,-2.477 2.701,-8.766c-1.591,-5.155 6.454,-7.175 8.164,-1.91c6.791,20.917 -16.51,32.098 -26.447,2.422Z" style="fill:#42596f;"/><path d="M1269.06,1411.793c1.511,-0.17 1.364,-4.741 2.875,-4.912c6.873,-0.775 52.891,39.834 72.872,21.08c2.503,-2.349 3.72,-3.725 4.189,0.424c1.005,8.9 -4.519,28.893 -79.936,-16.593Z" style="fill:#4e647c;"/><path d="M900.958,1069.07c-4.523,2.224 -4.859,1.375 -7.84,6.747c-7.015,12.641 -8.518,-29.194 -6.265,-32.701c6.039,-9.399 39.569,41.95 18.808,27.209c-2.465,-1.75 -4.612,-1.23 -4.703,-1.254Z" style="fill:#445a70;"/><path d="M930.333,1118.31c-12.563,-15.91 -10.682,-32.99 -9.397,-33.847c18.623,-12.421 24.713,14.275 18.02,20.689c-5.383,5.159 -4.665,5.838 -8.623,13.158Z" style="fill:#445b70;"/><path d="M959.164,1052.715c-6.962,6.359 -11.759,-8.392 -17.785,6.016c-1.221,2.92 -1.406,2.277 -3.927,4.688c-0.968,-2.48 -1.937,-4.96 -2.905,-7.44c-0.141,-3.473 -5.868,-51.794 14.852,-19.947c5.277,8.11 5.317,7.695 9.765,16.683Z" style="fill:#40596e;"/><path d="M886.39,1097.159c1.839,2.695 1.493,2.677 2.198,6.017c-10.969,5.008 -9.393,8.24 -8.751,9.064c0.591,0.759 24.197,-1.625 6.558,7.976c-3.778,2.056 -2.565,8.626 2.498,6.997c3.976,-1.279 3.784,-0.789 7.924,-1.652c0.616,1.664 1.231,3.327 1.847,4.991c-15.566,12.299 -17.825,4.469 -25.571,-17.87c-4.329,-12.485 1.676,-13.776 13.297,-15.523Z" style="fill:#41586d;"/><path d="M894.09,1094.1c3.772,0.007 3.67,-0.245 7.091,1.992c4.406,2.88 3.849,-0.882 7.142,-6.09c6.284,-9.936 4.312,15.238 5.023,16.656c4.303,8.573 6.824,5.473 10.22,14.992c-9.118,2.223 -10.898,-9.251 -13.343,-1.772c-1.624,4.966 -1.705,4.593 -4.3,8.386c-0.947,-1.502 -1.895,-3.004 -2.842,-4.506c1.548,-12.937 1.861,-14.503 -6.271,-21.679c-3.016,-2.662 -2.679,-3.031 -2.72,-7.979Z" style="fill:#455c72;"/><path d="M1265.005,1356.533c0.324,-22.078 -5.224,-29.637 10.131,-35.258c5.171,-1.893 15.152,3.309 10.285,10.769c-1.397,2.142 -1.528,1.873 -17.973,26.114l-2.443,-1.625Z" style="fill:#4a5e70;"/><path d="M971.231,1013.732c2.365,3.902 2.31,3.786 2.553,8.637c-22.599,3.726 -7.464,19.476 -2.453,19.027c0.329,-0.029 15.998,-8.465 10.067,4.943c-4.171,9.43 -15.871,3.189 -17.16,2.502c-13.497,-19.742 -12.514,-33.025 6.993,-35.108Z" style="fill:#445c71;"/><path d="M1024.695,993.301c0.676,0.154 7.496,1.711 7.653,5.369c0.314,7.296 -2.505,3.489 -7.659,3.44c-8.6,-0.082 -5.835,23.348 7.501,17.782c0.574,-0.239 13.237,-5.525 6.453,5.293c-13.188,21.029 -42.298,-24.9 -13.947,-31.884Z" style="fill:#445b72;"/><path d="M894.09,1094.1c0.041,4.948 -0.296,5.317 2.72,7.979c8.132,7.176 7.819,8.742 6.271,21.679c-2.088,0.601 -4.176,1.202 -6.264,1.803c-4.141,0.863 -3.949,0.373 -7.924,1.652c-5.062,1.628 -6.276,-4.941 -2.498,-6.997c17.639,-9.601 -5.967,-7.217 -6.558,-7.976c-0.641,-0.824 -2.218,-4.056 8.751,-9.064l2.688,-3.141c0.938,-1.978 1.876,-3.956 2.814,-5.935Z" style="fill:#c7d1d5;"/><path d="M1000.692,1002.578l0.267,3.261c-3.425,2.199 -3.489,2.092 -5.116,6.745c-1.165,3.335 -3.36,3.241 -0.857,10.166c0.465,1.288 6.824,18.88 0.456,18.01c-1.815,-0.248 -1.42,-1.299 -8.295,-20.341c-0.329,-0.911 -0.454,-1.258 -8.392,-5.07l-0.729,-3.517c6.636,-7.142 11.894,-5.082 22.667,-9.254Z" style="fill:#4f667e;"/><path d="M934.546,1055.979c0.968,2.48 1.937,4.96 2.905,7.44c-6.625,2.753 -6.293,3.06 -12.381,4.769c-14.238,3.996 -19.034,-31.59 -18.847,-31.997c4.712,-10.251 4.777,1.564 12.428,19.277c1.868,4.324 4.377,4.339 15.895,0.512Z" style="fill:#475d70;"/><path d="M331.095,1694.824c7.182,-9.243 10.834,-8.153 26.591,-6.495c19.999,2.103 -42.112,27.625 -26.591,6.495Z" style="fill:#657a88;"/><path d="M1011.894,1059.887l3.278,-0.142c4.604,2.508 4.564,2.395 9.541,1.403c0.509,-0.101 4.688,-0.934 6.183,2.432c1.845,4.154 -0.951,2.933 -6.389,5.752c-1.987,1.03 -2.535,7.615 2.605,6.628c0.638,-0.122 19.678,-3.779 6.778,6.039c-6.647,5.059 -6.956,4.636 -13.896,0.959c-7.535,-21.262 -7.444,-21.232 -8.101,-23.071Z" style="fill:#516579;"/><path d="M1758.275,809.233c1.743,23.606 4.01,24.776 0.536,29.349c-4.423,5.822 -5.526,-1.988 -5.617,-2.637c-1.894,-13.409 -7.235,-38.325 1.508,-37.183c3.518,0.459 2.16,2.487 3.574,10.471Z" style="fill:#3970ad;"/><path d="M1369.185,565.653c-2.387,-3.699 -7.413,-4.732 -5.831,-33.709c0.343,-6.286 7.719,-7.815 8.366,0.295c0.131,1.645 0.614,20.409 0.573,27.374c-0.03,5.002 -3.061,5.948 -3.108,6.039Z" style="fill:#3e79b7;"/><path d="M959.063,1109.162c-11.179,0.319 -9.429,-5.187 -14.013,-19.488c-0.287,-0.894 -7.205,-22.476 1.295,-12.102c5.765,7.035 1.856,24.278 15.318,22.765c0.458,-0.051 5.011,-0.563 5.284,3.142c0.436,5.933 -1.965,3.522 -7.883,5.683Z" style="fill:#42576b;"/><path d="M1405.638,506.812c-10.97,1.254 -7.047,-6.747 -8.979,-21.646c-1.699,-13.11 8.772,2.918 12.443,8.155c7.102,10.132 1.728,11.886 -3.464,13.49Z" style="fill:#3b74b1;"/><path d="M870.917,801.149c1.228,-0.564 1.016,-1.097 3.485,-1.603c24.687,-5.056 26.978,-8.35 26.575,-3.633c-0.949,11.109 -23.93,12.571 -28.852,9.626c-1.034,-0.618 -0.174,-3.772 -1.208,-4.391Z" style="fill:#c9d7e2;"/><path d="M788.856,1015.993c3.969,-2.422 4.98,-4.273 7.035,1.171c2.244,5.946 2.528,5.662 2.678,6.203c0.338,1.217 -1.044,2.654 -0.622,3.819c0.069,0.191 5.065,2.805 5.05,9.539c-0.002,0.798 -0.006,2.875 2.646,9.267l1.382,3.379l-3.632,3.829c-1.161,-2.978 -7.757,-19.889 -14.538,-37.207Z" style="fill:#384b60;"/><path d="M1000.692,1002.578c4.81,0.086 5.189,1.245 13.754,26.615c2.37,7.019 -2.598,9.672 -5.564,2.197c-0.641,-1.614 -0.505,-1.451 -7.57,-20.504c-0.118,-1.682 -0.235,-3.365 -0.353,-5.047l-0.267,-3.261Z" style="fill:#485e72;"/><path d="M978.645,1076.332c10.429,15.032 -1.187,21.313 -6.893,13.043c-6.82,-9.886 -2.572,-16.001 6.893,-13.043Z" style="fill:#c8d1d8;"/><path d="M858.211,1427.426c0.004,15.779 -0.279,15.452 -1.078,30.912c-1.641,-0.567 -3.283,-1.135 -4.924,-1.702c0.995,-7.489 0.947,-7.455 1.074,-8.088c2.386,-11.884 0.062,-19.281 1.052,-21.824c0.621,-1.596 3.255,2.298 3.876,0.702Z" style="fill:#777169;"/><path d="M1011.894,1059.887c-0.645,-5.534 -2.362,-6.927 1.187,-8.974c0.867,-0.5 8.133,-4.691 11.436,-3.662c7.917,2.466 -2.594,6.688 -9.344,12.494l-3.278,0.142Z" style="fill:#516477;"/><path d="M1934.75,853.802c-0.205,2.498 -0.411,4.995 -0.616,7.493c-1.287,0.581 -34.545,15.598 -16.768,2.993c8.506,-6.031 8.907,-4.045 17.384,-10.485Z" style="fill:#516c7f;"/><path d="M1323.119,526.264c-7.998,0.783 -6.694,-3.275 -6.463,-3.994c0.288,-0.897 3.619,-11.268 7.891,-5.489c3.237,4.379 2.046,5.65 -1.428,9.483Z" style="fill:#3d76ae;"/><path d="M787.269,836.475c-1.062,0.621 -1.118,3.113 -2.18,3.734c-0.456,0.266 -0.458,0.001 -6.178,0.009c-0.084,-6.793 -1.327,-7.348 0.994,-10.255c4.657,-5.834 5.697,-1.666 7.365,6.512Z" style="fill:#c1cfd6;"/><path d="M1351.994,530.191c3.974,5.795 7.207,7.393 2.3,11.715c-0.231,0.203 -15.924,-5.139 -2.3,-11.715Z" style="fill:#4379b5;"/><path d="M927.558,1096.764c0.62,-6.059 0.692,-8.291 4.845,-6.491c3.81,1.651 3.289,17.497 -4.845,6.491Z" style="fill:#c1ccd5;"/><path d="M997.532,1074.057c-2.536,-5.324 -4.428,-8.093 0.123,-9.011c5.71,-1.151 8.854,11.994 -0.123,9.011Z" style="fill:#c3cfd9;"/><path d="M1044.182,1048.175c7.637,9.544 0.439,9.459 -0.102,9.429c-6.206,-0.341 -5.611,-6.506 0.102,-9.429Z" style="fill:#c0cdd7;"/><path d="M897.474,1055.753c-3.441,13.507 -5.426,1.378 -5.315,0.802c0.11,-0.576 0.63,-3.285 5.315,-0.802Z" style="fill:#c1d3db;"/><path d="M903.081,1123.757c0.947,1.502 1.895,3.004 2.842,4.506c-4.639,1.895 -4.605,1.904 -5.01,2.047c-1.22,0.433 -1.069,-0.177 -2.249,0.241c-0.616,-1.664 -1.231,-3.327 -1.847,-4.991c2.088,-0.601 4.176,-1.202 6.264,-1.803Z" style="fill:#9da9b2;"/><path d="M854.244,1279.079c0.477,3.552 0.955,7.103 1.432,10.655c-1.71,-1.728 -3.421,-3.456 -5.131,-5.183l-0.5,-1.662c1.4,-1.27 2.799,-2.54 4.199,-3.81Z" style="fill:#957c5e;"/><path d="M971.231,1013.732c1.248,-0.429 1.142,0.378 2.404,-0.056c0.356,-0.123 0.325,-0.137 4.39,-1.844l0.729,3.517c-1.657,2.34 -3.314,4.68 -4.97,7.02c-0.243,-4.85 -0.188,-4.735 -2.553,-8.637Z" style="fill:#99a8b3;"/><path d="M945.482,1042.883c-8.538,7.078 -4.384,-5.015 -3.25,-4.958c0.385,0.019 0.241,0.367 3.25,4.958Z" style="fill:#b5cad7;"/><path d="M850.545,1284.551c1.71,1.728 3.421,3.456 5.131,5.183l0.383,3.649c-2.022,-0.235 -1.27,2.538 -3.32,2.3c-1.352,-0.157 -0.063,-1.128 -0.418,-2.734c-0.942,-4.259 -0.837,-3.957 -1.776,-8.398Z" style="fill:#616567;"/><path d="M1000.959,1005.838c0.118,1.682 0.235,3.365 0.353,5.047c-1.823,0.566 -3.646,1.132 -5.469,1.699c1.627,-4.654 1.691,-4.546 5.116,-6.745Z" style="fill:#9babb6;"/><path d="M858.207,1424.036c-2.17,-4.04 -6.242,-3.243 -3.251,-6.052c3.095,-2.906 2.439,0.821 3.251,6.052Z" style="fill:#516274;"/><path d="M1770.319,675.399c1.18,0.997 2.36,1.995 3.539,2.992c-4.316,3.242 -4.238,3.468 -4.661,3.501c-3.299,0.259 0.316,-1.827 1.121,-6.493Z" style="fill:#2f547a;"/><path d="M1388.58,628.284c2.568,1.366 2.328,1.519 7.109,5.632c-0.742,-0.462 -0.849,0.227 -9.606,-4.614l2.496,-1.018Z" style="fill:#ccad86;"/><path d="M1540.93,1270.404c4.764,-1.23 4.736,-1.452 5.146,-1.328c1.093,0.331 1.428,2.753 2.521,3.084c-2.243,-0.223 -4.487,-0.446 -6.73,-0.669l-0.937,-1.088Z" style="fill:#4d6a88;"/><path d="M313.668,1687.174c-2.528,3.115 -2.223,8.968 -3.684,4.539c-0.084,-0.256 -0.736,-2.232 0.291,-3.497c0.868,-1.069 2.526,0.027 3.393,-1.042Z" style="fill:#2c4b6c;"/><path d="M400.996,1692.359c0.002,0.982 1.146,1.492 1.147,2.474c0,0 -3.071,2.546 -3.338,2.767c0.73,-1.747 1.461,-3.494 2.191,-5.241Z" style="fill:#8297ac;"/><path d="M975.981,1523.68c2.358,-0.881 2.955,-4.589 3.525,-1.317c0.272,1.564 -0.075,1.353 0.207,2.971l-3.732,-1.654Z" style="fill:#456077;"/><path d="M593.168,971.127c2.381,1.192 4.762,2.385 7.144,3.577c-4.052,-0.428 -3.755,-1.009 -7.144,-3.577Z" style="fill:#a6917a;"/><path d="M886.39,1097.159c1.629,0.958 3.258,1.917 4.887,2.875l-2.688,3.141c-0.705,-3.34 -0.359,-3.322 -2.198,-6.017Z" style="fill:#7f8f9b;"/><path d="M323.401,1766.537c1.747,-0.392 3.493,-0.785 5.24,-1.177c-1.736,1.239 -1.606,4.98 -5.24,1.177Z" style="fill:#3f5b78;"/><path d="M1080.502,1511.134c-0.742,-0.427 -1.627,1.029 -2.368,0.601c-1.341,-0.773 -1.384,-2.498 -1.391,-2.768c-0.105,-4.153 0.969,0.559 3.759,2.167Z" style="fill:#425b73;"/><path d="M300.6,1236.22l1.431,-0.952l0.684,3.107l-2.115,-2.155Z" style="fill:#8d857d;"/></g></svg>