<?xml version="1.0" encoding="UTF-8" standalone="no"?><!DOCTYPE svg PUBLIC "-//W3C//DTD SVG 1.1//EN" "http://www.w3.org/Graphics/SVG/1.1/DTD/svg11.dtd"><svg width="100%" height="100%" viewBox="0 0 1024 1536" version="1.1" xmlns="http://www.w3.org/2000/svg" xmlns:xlink="http://www.w3.org/1999/xlink" xml:space="preserve" xmlns:serif="http://www.serif.com/" style="fill-rule:evenodd;clip-rule:evenodd;stroke-linejoin:round;stroke-miterlimit:2;"><g id="Background"><path d="M1021.552,23.984c-2.08,13.411 -44.936,171.089 -49.476,190.13c-2.141,8.981 -3.255,8.65 -29.276,111.567c-1.5,5.932 -1.859,5.725 -19.574,73.912c-5.148,19.816 -6.348,34.767 -22.968,39.827c-21.852,6.653 -32.253,-22.567 -49.968,-49.147c-5.974,-8.964 -6.67,-11.958 -8.92,-12.089c-1.936,-0.112 -2.51,-0.145 -15.233,19.84c-19.767,31.049 -382.997,576.317 -457.64,690.674c-1.948,2.984 -18.375,26.582 -65.732,98.888c-6.037,9.218 -49.313,75.294 -75.948,114.871c-27.659,41.1 -69.687,110.248 -92.677,135.044c-1.84,1.985 -26.233,31.791 -66.018,63.796c-39.565,31.827 -57.93,43.718 -69.128,27.425c-16.579,-24.123 29.923,-160.207 49.388,-189.125c29.753,-44.203 29.184,-44.544 58.867,-88.861c15.832,-23.637 159.69,-242.187 171.646,-261.932c1.231,-2.032 1.344,-1.925 16.37,-24.714c85.514,-129.693 136.04,-209.826 149.854,-230.252c4.427,-6.546 263.669,-411.644 270.405,-420.231c1.33,-1.696 1.678,-2.045 0.202,-3.679c-1.523,-1.685 -1.957,-0.896 -52.753,-4.096c-20.742,-1.307 -40.38,0.862 -47.089,-14.784c-4.003,-9.337 -2.387,-24.553 10.065,-33.83c23.856,-17.773 171.471,-121.088 185.66,-130.784c3.989,-2.726 109.946,-76.432 128.168,-88.209c36.578,-23.638 58.021,-49 75.145,-33.439c7.62,6.924 6.625,18.702 6.63,19.198Z" style="fill:#265107;"/><path d="M982.134,36.192l1.825,2.693c-4.903,29.279 -12.691,46.197 -16.869,64.514c-4.129,18.101 -62.295,234.76 -73.313,284.26c-1.756,7.888 -5.787,0.799 -6.036,0.362c-5.649,-9.934 -26.883,-38.189 -42.418,-66.824c-3.559,-6.561 -5.991,-3.698 -9.933,2.58c-18.45,29.384 -63.828,95.45 -72.59,108.976c-23.219,35.844 -49.222,73.395 -54.226,81.37c-2.011,3.206 -12.411,19.778 -26.224,39.294c-6.692,9.454 -521.648,786.056 -540.061,815.785c-10.596,17.107 -10.473,17.118 -23.232,32.619c-4.085,4.962 -24.618,29.908 -55.809,57.318c-29.506,25.928 -40.26,30.866 -44.223,32.685c-0.285,-1.159 1.621,0.033 1.351,-1.064c-0.553,-2.248 -2.081,-1.257 -2.474,-3.501c-0.167,-0.951 1.095,-1.581 1.425,-2.484c0.492,-1.345 0.525,-2.844 1.017,-4.188c1.379,-3.48 2.261,-4.156 4.436,-12.669c1.105,-4.327 1.627,-4.029 2.956,-8.233c11.907,-37.657 11.944,-37.597 28.188,-74.244c5.241,4.773 5.033,5.284 5.598,5.098c0.536,-0.177 4.171,-6.292 4.929,-6.99c5.917,-5.455 0.392,-6.339 0.109,-7.512c-0.224,-0.929 1.621,-1.543 1.397,-2.472l3.077,-2.022c-0,-1.611 0.859,-1.347 0.859,-2.921c-0,-2.574 -0.992,-2.292 -0.859,-2.447c0.391,-0.454 1.349,1.738 6.697,-3.003c11.849,-10.505 26.833,-33.181 27.73,-34.669c11.359,-18.841 12.558,-17.807 25.005,-36.012c3.465,-5.068 4.984,-3.5 11.539,-12.377c7.429,-10.061 7.55,-9.942 8.15,-10.852c7.819,-11.869 8.424,-11.367 9.039,-12.439c1.058,-1.843 5.594,-9.744 14.075,-22.468c11.385,-17.081 10.503,-17.657 11.155,-18.6c0.456,-0.66 4.7,-6.797 5.547,-8.371c6.339,-11.78 9.238,-9.485 15.702,-21.149c5.932,-10.705 7.036,-9.759 14.275,-19.472c8.627,-11.573 8.27,-11.712 9.019,-12.707c10.531,-13.994 10.386,-18.854 15.425,-25.6c3.9,-5.223 8.317,-14.268 15.853,-25.002c3.657,-5.208 -1.47,-7.911 3.537,-11.595c0.462,-0.34 1.243,-0.129 1.594,-0.593c0.425,-0.563 0.218,-1.427 0.444,-2.105c0.613,-1.837 0.499,-2.121 2.387,-2.474c2.803,-0.524 3.175,0.248 5.074,-2.11c5.329,-6.616 3.678,-7.48 4.141,-8.024c0.437,-0.512 1.364,-0.07 1.918,-0.434c0.464,-0.305 0.426,-1.18 0.919,-1.43c1.074,-0.546 2.538,-0.063 3.494,-0.813c0.337,-0.264 0.788,-4.069 0.831,-4.427c0.394,-3.317 -1.694,-4.516 -1.726,-4.685c-0.894,-4.716 9.859,-7.599 10.969,-12.595c0.85,-3.825 -1.64,-4.438 -1.876,-4.857c-0.408,-0.722 -0.084,-1.737 -0.471,-2.472c-0.548,-1.041 -1.694,-1.639 -2.242,-2.679c8.892,-13.13 30.296,-40.368 73.967,-100.44c20.485,-28.179 20.267,-28.331 22.079,-30.754c12.278,-16.418 16.422,-23.607 21.06,-29.694c16.96,-22.258 73.181,-102.549 105.566,-153.312c5.771,-9.046 13.609,-19.869 13.718,-20.041c13.214,-20.861 14.091,-20.086 27.393,-40.879c11.261,-17.603 11.671,-17.189 12.609,-18.738c8.207,-13.544 8.565,-13.274 9.273,-14.454c9.095,-15.175 9.749,-14.58 19.105,-29.681c14.934,-24.105 15.5,-23.594 29.8,-48.086c4.614,-7.589 21.306,-30.212 21.826,-30.982c18.347,-27.167 20.333,-27.753 33.373,-46.554c2.77,-3.994 33.806,-48.738 34.596,-49.95c57.196,-87.675 93.841,-158.695 97.732,-164.562c8.772,-13.228 8.192,-13.503 15.092,-27.918c5.462,-11.41 3.097,-12.378 13.652,-36.068c8.569,-19.234 55.972,-74.056 80.482,-100.027c6.751,-6.814 18.584,-21.92 25.35,-29.003l-4.135,-3.469c3.473,-2.678 3.411,-2.654 7.173,-4.946c11.729,-7.147 18.704,-16.241 33.188,-26.409Z" style="fill:#72bd25;"/><path d="M941.773,67.546l4.135,3.469c-6.766,7.083 -18.599,22.189 -25.35,29.003c-24.511,25.971 -71.913,80.793 -80.482,100.027c-10.555,23.69 -8.19,24.658 -13.652,36.068c-6.9,14.414 -6.32,14.69 -15.092,27.918c-3.891,5.867 -40.535,76.887 -97.732,164.562c-0.79,1.211 -31.825,45.956 -34.596,49.95c-13.04,18.801 -15.026,19.387 -33.373,46.554c-0.52,0.77 -17.213,23.394 -21.826,30.982l-3.114,-0.578l-2.349,0.538c-32.54,28.783 -33.751,34.059 -42.522,41.099c-4.633,3.718 -4.728,3.504 -8.948,7.75c-1.309,1.317 -0.423,2.705 -2.184,2.472c-2.604,-0.345 -1.143,-2.912 -3.753,-3.258c88.339,-139.432 207.28,-322.965 211.112,-327.285c4.926,-6.348 5.124,-10.258 2.414,-16.256c-4.144,-2.562 -4.882,-3.019 -59.829,-5.762c-32.731,-0.889 -33.393,1.042 -34.888,-1.086c-0.525,-0.747 -0.379,-1.872 -0.903,-2.619c4.886,-3.733 5.278,-2.973 10.251,-6.638c0.474,-0.35 217.447,-151.567 252.681,-176.91Z" style="fill:#c2f133;"/><path d="M982.134,36.192c8.677,-8.32 8.029,-8.929 16.581,-17.346c4.067,-4.002 7.341,-5.345 7.235,0.524c-0.013,0.693 -3.57,-0.969 -6.248,9.83c-6.062,24.443 -14.688,53.258 -16.825,61.736c-5.543,21.999 -42.695,161.664 -48.188,182.539c-2.347,8.92 -26.324,100.038 -28.786,111.659c-5.078,23.973 -8.461,28.321 0.269,35.679c-1.985,3.048 -2.304,2.662 -4.292,5.724c-0.351,-0.616 0.469,-1.535 0.118,-2.151c-1.226,-2.152 -3.003,-0.498 -19.154,-24.031c-3.235,-4.713 -13.146,-19.155 -38.892,-60.051c-4.11,-6.528 -14.032,14.848 -31.15,39.303c-0.336,0.479 -68.619,103.127 -70.704,106.152c-5.845,8.48 -5.634,8.543 -71.376,107.265c-25.247,37.912 -375.005,565.333 -375.533,566.202c-7.349,12.093 -107.646,162.617 -141.218,214.842c-5.403,8.404 -16.043,29.26 -61.12,74.389c-7.373,7.381 -28.4,27.008 -49.124,42.488c-2.381,1.779 -25.037,18.701 -31.464,19.469c-3.114,0.372 -2.895,0.877 -5.897,1.776c-0.666,-7.517 1.019,-7.147 1.112,-7.56c0.786,-0.186 1.438,-0.808 2.224,-0.995c0.554,-0.131 1.275,0.456 1.703,0.063c1.846,-1.695 0.404,-3.258 7.617,-11.873c3.963,-1.819 14.717,-6.757 44.223,-32.685c31.192,-27.41 51.725,-52.355 55.809,-57.318c12.759,-15.501 12.637,-15.512 23.232,-32.619c18.413,-29.729 533.369,-806.331 540.061,-815.785c13.813,-19.516 24.213,-36.089 26.224,-39.294c5.004,-7.975 31.007,-45.526 54.226,-81.37c8.762,-13.526 54.14,-79.593 72.59,-108.976c3.942,-6.278 6.374,-9.141 9.933,-2.58c15.535,28.634 36.769,56.889 42.418,66.824c0.248,0.437 4.28,7.526 6.036,-0.362c11.018,-49.5 69.184,-266.159 73.313,-284.26c4.178,-18.317 11.966,-35.235 16.869,-64.514l-1.825,-2.693Z" style="fill:#2d640b;"/><path d="M901.881,426.538c-14.964,13.49 -32.402,-25.436 -39.765,-36.296c-6.607,-9.745 -17.525,-30.615 -20.554,-30.815c-2.938,-0.194 -2.463,1.248 -22.877,30.96c-2.655,3.864 -37.364,58.009 -54.007,81.554c-1.634,2.311 -51.716,78.981 -66.786,100.572c-1.329,1.904 -41.954,64.106 -53.024,79.865c-2.521,3.59 -29.253,44.653 -38.785,58.43c-21.51,31.091 -20.675,31.68 -261.495,394.168c-47.057,70.832 -46.384,71.191 -93.454,141.912c-100.204,150.556 -98.108,152.25 -118.801,176.321c-6.709,7.804 -46.446,54.025 -93.75,87.028c-20.41,14.24 -31.588,20.624 -32.244,4.242c-0.031,-0.762 0.059,-1.526 0.029,-2.288c3.002,-0.899 2.783,-1.404 5.897,-1.776c6.426,-0.767 29.082,-17.69 31.464,-19.469c20.724,-15.48 41.751,-35.107 49.124,-42.488c45.077,-45.129 55.718,-65.984 61.12,-74.389c33.572,-52.225 133.869,-202.749 141.218,-214.842c0.528,-0.868 350.285,-528.289 375.533,-566.202c65.743,-98.722 65.531,-98.786 71.376,-107.265c2.085,-3.025 70.368,-105.673 70.704,-106.152c17.118,-24.455 27.04,-45.831 31.15,-39.303c25.746,40.896 35.657,55.338 38.892,60.051c16.151,23.533 17.928,21.879 19.154,24.031c0.351,0.616 -0.469,1.535 -0.118,2.151Z" style="fill:#5ca924;"/><path d="M759.733,273.766c3.646,-0.273 6.134,-0.907 6.657,-1.041c3.766,-0.959 3.168,0.916 5.656,4.09c-3.832,4.32 -122.773,187.853 -211.112,327.285c-1.965,2.902 -1.449,3.202 -23.508,37.041c-122.593,188.061 -120.992,189.108 -142.795,220.371c-8.705,12.482 -25.029,40.178 -50.773,77.296c-0.449,0.647 -0.321,0.695 -26.764,41.354c-2.443,3.756 -27.024,41.551 -30.629,46.875c-1.125,1.662 -27.965,42.862 -28.69,44.118c-12.631,19.156 -146.403,222.041 -157.261,239.908c-9.143,15.045 -25.424,31.325 -44.592,74.378c-16.245,36.647 -16.282,36.587 -28.188,74.244c-1.329,4.204 -1.851,3.906 -2.956,8.233c-2.175,8.513 -3.057,9.189 -4.436,12.669c-0.08,-0.076 -2.962,0.307 -3.364,-3.208c-0.398,-3.481 1.25,-4.468 1.435,-4.948c0.146,-0.379 4.396,-16.089 4.775,-17.49c7.779,-28.758 16.895,-52.673 17.336,-54.181c7.795,-26.665 12.033,-32.848 15.246,-40.132c4.473,-10.139 4.939,-9.769 10.094,-19.508c0.533,-1.007 3.715,-7.019 7.498,-12.06c0.303,-0.404 0.976,-0.399 1.232,-0.838c0.684,-1.175 0.767,-2.675 1.483,-3.829c0.144,-0.233 0.292,-0.073 2.269,-2.524c3.203,-3.972 3.08,-3.991 6.132,-8.099c0.417,-0.562 3.445,-4.638 4.827,-7.323c4.361,-8.473 5.18,-7.867 6.611,-10.139c0.381,-0.605 0.166,-1.496 0.55,-2.098c1.579,-2.476 12.454,-16.408 13.556,-17.819c5.118,-6.556 3.701,-7.521 8.885,-14.052c2.31,-2.91 2.61,-5.687 2.679,-5.796c0.489,-0.773 1.731,-0.805 2.155,-1.619c0.494,-0.949 -0.114,-2.267 0.366,-3.224c0.518,-1.033 1.725,-1.49 2.442,-2.381c1.073,-1.333 1.067,-1.245 2.176,-2.578c0.204,-0.246 -0.269,-0.507 1.913,-3.55c5.529,-7.71 4.905,-8.084 10.323,-15.849c2.538,-3.637 1.703,-4.151 4.46,-7.559c1.42,-1.755 3.122,-3.271 4.366,-5.168c0.4,-0.611 0.063,-1.554 0.449,-2.175c1.201,-1.932 3.079,-3.346 4.211,-5.323c0.384,-0.671 -0.2,-1.667 0.177,-2.342c0.566,-1.012 1.681,-1.548 2.466,-2.382c3.903,-4.141 4.041,-3.893 4.294,-4.317c0.5,-0.838 0.249,-2 0.677,-2.881c0.556,-1.145 5.428,-6.081 5.279,-6.516c-0.534,-1.557 -2.708,-2.051 -3.242,-3.607c1.085,-1.822 7.443,-11.079 7.887,-11.756c2.218,0.019 1.034,2.496 3.24,2.515c0.24,0.002 0.714,0.006 1.867,-2.472c0.48,-1.031 0.244,-2.363 0.832,-3.33c0.478,-0.786 1.773,-0.782 2.175,-1.614c0.474,-0.981 -0.249,-2.299 0.198,-3.294c1.456,-3.24 2.936,-1.854 4.666,-5.041c0.352,-0.649 -0.044,-1.577 0.325,-2.216c1.737,-3.011 2.763,-2 4.628,-5.003c0.363,-0.584 0.139,-1.475 0.57,-2.005c0.355,-0.437 1.198,-0.141 1.54,-0.589c0.429,-0.562 0.171,-1.47 0.511,-2.097c0.54,-0.995 2.152,-1.515 2.072,-2.658c-0.084,-1.193 -2.351,-1.32 -2.434,-2.512c1.138,-2.123 1.151,-1.992 2.833,-4.609c1.512,0.101 2.149,2.735 3.661,2.836c0.982,0.066 1.335,-1.552 1.786,-2.472c0.501,-1.022 0.43,-2.315 1.033,-3.274c0.48,-0.764 1.61,-0.894 2.073,-1.669c0.377,-0.632 -0.285,-2.331 2.825,-5.59c0.645,-0.676 1.725,-0.957 2.109,-1.825c0.586,-1.328 -1.235,-2.272 2.412,-5.735c0.665,-0.631 1.674,-0.889 2.16,-1.68c0.513,-0.835 0.199,-2.03 0.653,-2.901c0.452,-0.867 1.208,-0.177 7.19,-9.781c1.802,-2.894 2.064,-2.611 4.027,-5.431c1.2,-1.724 0.212,-2.146 1.39,-3.94c0.271,-0.412 0.985,-0.341 1.223,-0.774c0.772,-1.401 -0.127,-1.799 2.32,-5.02c2.555,-3.364 4.432,-4.059 4.565,-4.283c0.295,-0.498 -0.544,-2.528 2.53,-5.616c0.69,-0.694 1.898,-0.886 2.298,-1.798c0.423,-0.965 -0.498,-2.202 -0.115,-3.185c0.265,-0.68 4.17,-4.641 4.55,-5.027c0.603,-0.611 1.494,-0.931 1.941,-1.675c0.528,-0.88 0.377,-2.08 0.86,-2.988c0.531,-0.998 1.553,-1.633 2.117,-2.61c0.853,-1.477 0.155,-1.789 2.572,-4.832c1.413,-1.779 3.118,-3.312 4.358,-5.228c0.283,-0.438 -0.192,-2.067 2.436,-4.731c0.709,-0.719 1.732,-1.065 2.369,-1.855c0.561,-0.696 0.559,-1.776 1.12,-2.472l2.176,-2.653l1.415,-2.29c0.395,-0.935 1.334,-1.537 1.729,-2.472c0.614,-1.452 -0.556,-2.107 2.791,-5.695c3.043,-3.261 2.244,-3.81 5.055,-7.23c1.844,-2.244 1.832,-2.157 3.717,-4.377c0.516,-0.996 -0.392,-2.233 2.971,-5.742c1.667,-1.739 1.798,-1.492 1.894,-1.673c0.499,-0.94 0.16,-2.217 0.666,-3.153c0.548,-1.012 1.609,-1.603 2.366,-2.453c1.886,-2.119 1.398,-2.347 2.638,-4.684c1.45,-2.732 2.469,-1.809 3.939,-4.54c0.476,-0.883 0.203,-2.075 0.675,-2.961c0.539,-1.011 1.621,-1.595 2.257,-2.542c5.846,-8.702 5.522,-8.871 11.672,-17.36c4.19,-5.783 3.141,-6.403 7.157,-12.251c3.206,-4.667 3.873,-4.002 4.105,-4.433c0.48,-0.893 0.057,-2.114 0.486,-3.036c1.308,-2.809 2.573,-1.632 4.064,-4.379c0.49,-0.903 0.157,-2.157 0.687,-3.035c1.18,-1.953 3.034,-3.371 4.318,-5.25c0.389,-0.569 0.266,-1.41 0.634,-1.994c0.607,-0.963 1.511,-1.678 2.23,-2.553c4.286,-5.217 4.94,-7.685 10.048,-13.944l1.401,-2.883l1.737,-2.472l1.77,-2.472l1.299,-2.472l1.566,-2.472c7.993,-13.707 7.875,-13.72 8.712,-14.799c1.686,-2.172 1.305,-2.357 2.669,-4.722c0.248,-0.431 0.915,-0.419 1.209,-0.817c0.618,-0.838 2.547,-4.272 2.759,-4.65c1.685,-2.999 2.32,-2.453 4.021,-5.486c0.336,-0.6 0.212,-1.418 0.579,-1.998c0.515,-0.813 0.544,-0.666 7.245,-9.548c0.692,-0.98 0.81,-2.324 1.502,-3.304c0.502,-0.711 1.518,-0.904 1.986,-1.639c0.537,-0.843 0.354,-2.057 0.9,-2.893c2.592,-3.969 4.386,-3.157 11.842,-17.197c0.505,-0.952 5.816,-7.896 9.426,-14.853c2.328,-4.486 2.24,-4.466 2.467,-4.834c1.189,-1.925 2.863,-3.486 4.041,-5.419c0.372,-0.612 0.171,-1.49 0.54,-2.104c1.779,-2.951 2.618,-2.184 4.336,-5.204c0.346,-0.609 0.174,-1.481 0.595,-2.036c0.33,-0.435 1.13,-0.226 1.456,-0.665c0.412,-0.556 0.176,-1.447 0.546,-2.034c1.212,-1.924 2.987,-3.421 4.131,-5.391c0.374,-0.644 -0.067,-1.596 0.305,-2.241c2.396,-4.163 3.945,-2.627 6.349,-6.806c0.652,-1.133 -0.282,-1.587 2.953,-5.594c2.819,-3.492 1.684,-4.235 4.637,-7.485c2.809,-3.091 7.333,-12.186 9.455,-14.708c0.579,-0.689 1.487,-1.078 1.926,-1.873c0.479,-0.866 0.253,-2.034 0.717,-2.909c0.923,-1.74 2.798,-4.099 3.065,-4.435c2.124,-2.672 2.264,-2.455 3.91,-5.522c0.327,-0.609 0.311,-1.395 0.696,-1.965c0.274,-0.404 0.924,-0.401 1.184,-0.815c0.375,-0.595 0.279,-1.421 0.616,-2.041c0.543,-0.997 1.465,-1.731 1.988,-2.739c1.278,-2.462 0.974,-2.576 2.641,-4.75c0.687,-0.896 1.514,-1.703 2.009,-2.729c0.32,-0.662 -0.024,-1.579 0.37,-2.195c2.798,-4.372 3.937,-3.291 6.461,-7.751c1.373,-2.426 0.872,-2.633 2.608,-4.776c0.718,-0.887 1.615,-1.629 2.205,-2.615c0.362,-0.605 0.216,-1.458 0.591,-2.054c2.342,-3.724 2.875,-3.239 5.047,-7.161c4.156,-7.501 5.152,-6.683 5.501,-7.334c0.374,-0.697 0.094,-2.351 2.997,-5.709c2.869,-3.319 1.879,-4.023 4.758,-7.303c3.253,-3.705 4.726,-8.229 5.57,-9.289c0.325,-0.408 1.03,-0.3 1.363,-0.701c0.391,-0.47 2.548,-4.271 2.762,-4.647c4.009,-7.064 4.209,-6.92 4.509,-7.56c0.313,-0.668 -0.065,-1.618 0.38,-2.197c0.372,-0.483 1.287,-0.07 1.704,-0.511c0.467,-0.494 0.279,-1.399 0.648,-1.978c1.215,-1.907 2.859,-3.486 4.055,-5.406c0.37,-0.594 0.201,-1.455 0.582,-2.041c2.39,-3.668 2.739,-3.341 4.796,-7.309c2.627,-5.068 3.567,-4.22 3.753,-4.669c0.41,-0.989 -0.237,-2.275 0.246,-3.226c0.445,-0.878 1.869,0.359 7.562,-9.557c0.352,-0.613 0.18,-1.486 0.593,-2.056c0.3,-0.415 1.056,-0.225 1.357,-0.639c0.416,-0.573 0.236,-1.461 0.608,-2.066c1.199,-1.947 2.891,-3.529 4.053,-5.501c0.362,-0.614 0.051,-1.52 0.435,-2.119c1.225,-1.906 3.025,-3.346 4.284,-5.227c0.389,-0.582 0.221,-1.443 0.581,-2.046c2.444,-4.095 3.543,-3.063 5.935,-7.109c0.51,-0.862 0.545,-1.971 1.041,-2.842c0.561,-0.986 1.558,-1.652 2.09,-2.656c0.339,-0.639 0.025,-1.565 0.451,-2.143c0.328,-0.445 1.171,-0.111 1.523,-0.535c0.096,-0.116 2.392,-4.432 2.597,-4.819c0.331,-0.623 0.205,-1.461 0.589,-2.05c1.249,-1.918 2.929,-3.491 4.238,-5.364c1.797,-2.572 1.902,-2.435 2.04,-2.667c0.695,-1.162 0.819,-2.637 1.517,-3.797c0.196,-0.326 0.656,0.177 3.234,-3.419c2.254,-3.144 1.35,-3.591 3.459,-6.727c0.263,-0.392 0.914,-0.36 1.16,-0.764c0.231,-0.379 0.17,-2.077 2.513,-4.849c0.88,-1.04 1.029,-0.75 1.961,-1.857c0.784,-0.931 0.493,-1.059 1.325,-2.048c4.355,-7.332 3.802,-7.577 4.192,-8.199c1.202,-1.92 2.907,-3.454 4.108,-5.375c0.377,-0.603 0.172,-1.487 0.554,-2.087c1.206,-1.891 2.896,-3.401 4.136,-5.268c0.39,-0.588 0.324,-1.423 0.701,-2.02c4.184,-6.605 5.11,-5.801 9.178,-12.512c4.199,-6.925 4.045,-7.019 4.461,-7.582c1.621,-2.192 1.239,-2.373 2.628,-4.778c2.047,-3.544 2.557,-3.105 4.96,-7.213c4.451,-7.608 5.127,-7.005 9.544,-14.711c2.555,-4.457 2.144,-4.559 2.393,-4.915c0.31,-0.444 1.131,-0.205 1.445,-0.646c0.414,-0.58 0.142,-1.498 0.519,-2.105c1.203,-1.939 3.003,-3.428 4.144,-5.408c0.368,-0.639 -0.079,-1.565 0.254,-2.225c0,0 3.912,-4.01 4.252,-4.359c4.565,-9.54 16.628,-25.711 17.327,-27.463c0.657,-1.646 0.922,-1.348 1.906,-2.773c0.391,-0.566 0.373,-1.364 0.736,-1.95c2.327,-3.757 2.317,-3.646 4.553,-7.528c0.568,-0.986 1.566,-1.67 2.053,-2.703c0.32,-0.68 -0.169,-1.665 0.282,-2.257c0.377,-0.495 1.318,0.002 1.762,-0.428c0.485,-0.47 0.327,-1.372 0.694,-1.949c1.202,-1.889 2.775,-3.496 3.974,-5.387c3.744,-5.904 2.922,-6.345 3.284,-6.824c0.332,-0.439 1.124,-0.191 1.498,-0.59c0.324,-0.346 2.5,-4.318 2.709,-4.699c2.14,-3.906 2.359,-3.636 4.64,-7.492c6.961,-11.765 7.992,-10.92 8.497,-11.992c0.45,-0.956 -0.064,-2.218 0.385,-3.174c1.364,-2.909 2.716,-1.529 4.28,-4.241c0.502,-0.87 0.229,-2.077 0.708,-2.961c0.552,-1.018 1.692,-1.573 2.287,-2.564c0.364,-0.605 0.058,-1.542 0.505,-2.081c0.379,-0.458 1.232,-0.119 1.657,-0.53c0.476,-0.459 0.454,-1.283 0.809,-1.85c3.276,-5.213 3.695,-4.787 6.789,-10.062c2.627,-4.478 4.363,-5.413 9.422,-14.807c2.423,-4.499 2.186,-4.538 2.45,-4.881c0.346,-0.451 1.173,-0.164 1.559,-0.578c0.46,-0.492 0.414,-1.326 0.766,-1.909c4.189,-6.942 4.559,-6.68 4.816,-7.34c1.354,-3.477 3.293,-4.609 3.902,-5.507c2.497,-3.681 0.585,-4.084 0.786,-4.37c0.381,-0.543 1.428,0.147 1.902,-0.308c0.506,-0.485 0.164,-1.501 0.581,-2.072c0.313,-0.429 1.088,-0.234 1.409,-0.655c0.424,-0.555 0.263,-1.437 0.64,-2.028c0.51,-0.799 1.588,-2.486 7.388,-9.183c-0.317,-2.044 -0.634,-4.088 -0.951,-6.131c5.608,-8.696 5.187,-8.942 11.098,-16.317c7.616,-1.689 6.459,-4.757 6.748,-5.126Z" style="fill:#eafa9e;"/><path d="M623.805,556.08c-14.3,24.491 -14.866,23.981 -29.8,48.086c-9.355,15.101 -10.01,14.506 -19.105,29.681c-0.707,1.18 -1.066,0.91 -9.273,14.454c-0.938,1.549 -1.348,1.134 -12.609,18.738c-13.302,20.793 -14.178,20.018 -27.393,40.879c-0.109,0.172 -7.947,10.995 -13.718,20.041c-32.385,50.763 -88.607,131.054 -105.566,153.312c-4.638,6.087 -8.782,13.276 -21.06,29.694c-1.812,2.423 -1.594,2.575 -22.079,30.754c-43.671,60.072 -65.075,87.31 -73.967,100.44c-8.382,12.609 -14.62,18.659 -16.089,20.083c-0.551,0.535 0.132,1.066 -6.285,7.313c-3.994,3.888 -3.419,4.671 -4.967,4.943c-2.966,0.523 -1.2,-3.857 -4.121,-3.342c0.725,-1.256 27.565,-42.456 28.69,-44.118c3.605,-5.324 28.186,-43.12 30.629,-46.875c26.444,-40.659 26.315,-40.707 26.764,-41.354c25.744,-37.118 42.068,-64.814 50.773,-77.296c21.803,-31.264 20.202,-32.31 142.795,-220.371c22.059,-33.839 21.543,-34.138 23.508,-37.041c2.609,0.346 1.149,2.913 3.753,3.258c1.761,0.233 0.875,-1.155 2.184,-2.472c4.22,-4.246 4.316,-4.031 8.948,-7.75c8.772,-7.04 9.983,-12.316 42.522,-41.099l2.349,-0.538l3.114,0.578Z" style="fill:#8bcb23;"/><path d="M982.134,36.192c-14.484,10.168 -21.46,19.262 -33.188,26.409c-3.762,2.293 -3.7,2.268 -7.173,4.946c-35.234,25.342 -252.207,176.56 -252.681,176.91c-4.974,3.665 -5.365,2.904 -10.251,6.638c0.525,0.747 0.379,1.872 0.903,2.619c1.495,2.128 2.157,0.197 34.888,1.086c54.947,2.743 55.685,3.199 59.829,5.762c-0.326,0.393 -4.08,4.914 -4.08,4.914c-0.468,0.243 -0.595,-0.923 -6.507,0.562c-2.491,0.626 -1.99,1.298 -2.873,2.71c-0.683,1.093 -1.738,1.892 -2.421,2.984c-0.111,-0.071 -1.104,-2.277 -4.051,-2.599c-3.091,-0.338 -33.583,-2.141 -89.22,-7.513c-8.745,-0.844 -11.721,1.474 -11.748,1.474c-0.362,-0 0.074,-0.948 -0.254,-1.11c-0.999,-0.494 -1.073,0.453 -2.079,-0.044l0.693,-3.079l-3.615,-3.323c2.848,-1.934 2.679,-2.092 35.079,-25.014c1.809,0.666 3.618,1.332 5.427,1.998c3.822,-3.852 3.731,-3.922 4.128,-4.16c1.357,-0.814 1.503,-0.255 2.919,-1.002c2.673,-1.41 1.581,-2.693 4.12,-4.192c0.857,-0.506 2.07,0.148 2.926,-0.358l2.349,-1.71c0.86,-0.63 0.736,-2.22 1.596,-2.851c0.862,-0.632 2.123,-0.191 3.102,-0.594c2.767,-1.137 1.463,-2.671 4.046,-4.322c0.86,-0.55 2.105,0.152 3.001,-0.328c0.775,-0.415 0.979,-1.534 1.623,-2.149c7.257,-6.95 9.064,-4.308 14.022,-9.917c2.947,-3.335 3.562,-2.241 5.496,-3.458l2.349,-1.727l-2.698,-4.213c3.771,-2.544 15.08,-10.173 46.703,-32.508c1.485,0.654 1.489,3.35 2.975,4.004c0.68,0.3 5.982,-6.05 6.503,-6.348c0.653,-0.374 1.565,0.124 2.217,-0.251c1.905,-1.096 3.416,-2.836 5.256,-4.048c0.576,-0.379 1.383,-0.261 1.931,-0.682c0.888,-0.681 1.313,-1.934 2.255,-2.529c0.877,-0.554 2.052,-0.32 2.978,-0.776c0.886,-0.437 1.463,-1.413 2.349,-1.85l2.349,-1.272l2.349,-1.712l-2.838,-4.168c9.122,-6.411 172.917,-119.666 181.466,-125.035c14.381,-9.031 17.907,2.621 16.747,9.742c-1.864,11.441 -89.321,339.93 -91.942,350.937c-2.548,10.701 -3.047,10.46 -5.93,21.888c-5.241,20.772 -5.434,20.634 -6.987,23.881c-8.73,-7.358 -5.347,-11.707 -0.269,-35.679c2.462,-11.621 26.439,-102.739 28.786,-111.659c5.493,-20.876 42.646,-160.541 48.188,-182.539c2.136,-8.479 10.763,-37.293 16.825,-61.736c2.678,-10.799 6.236,-9.137 6.248,-9.83c0.106,-5.87 -3.169,-4.527 -7.235,-0.524c-8.552,8.417 -7.904,9.026 -16.581,17.346Z" style="fill:#afd965;"/><path d="M289.236,1042.159c0.548,1.041 1.694,1.639 2.242,2.679c0.387,0.735 0.063,1.749 0.471,2.472c0.236,0.419 2.726,1.031 1.876,4.857c-1.11,4.996 -11.863,7.878 -10.969,12.595c0.032,0.168 2.119,1.368 1.726,4.685c-0.043,0.358 -0.494,4.163 -0.831,4.427c-0.956,0.75 -2.42,0.267 -3.494,0.813c-0.492,0.25 -0.455,1.126 -0.919,1.43c-0.555,0.365 -1.482,-0.078 -1.918,0.434c-0.464,0.544 1.187,1.408 -4.141,8.024c-1.899,2.358 -2.271,1.586 -5.074,2.11c-1.889,0.353 -1.774,0.637 -2.387,2.474c-0.226,0.678 -0.019,1.542 -0.444,2.105c-0.351,0.464 -1.132,0.254 -1.594,0.593c-5.007,3.684 0.12,6.387 -3.537,11.595c-7.536,10.733 -11.953,19.779 -15.853,25.002c-5.038,6.747 -4.894,11.606 -15.425,25.6c-0.749,0.995 -0.392,1.134 -9.019,12.707c-7.239,9.712 -8.343,8.767 -14.275,19.472c-6.464,11.664 -9.363,9.369 -15.702,21.149c-0.847,1.574 -5.091,7.711 -5.547,8.371c-0.652,0.943 0.23,1.519 -11.155,18.6c-8.481,12.724 -13.017,20.625 -14.075,22.468c-0.616,1.072 -1.22,0.571 -9.039,12.439c-0.599,0.909 -0.72,0.791 -8.15,10.852c-6.555,8.877 -8.074,7.309 -11.539,12.377c-12.447,18.205 -13.646,17.171 -25.005,36.012c-0.897,1.488 -15.881,24.164 -27.73,34.669c-5.348,4.741 -6.306,2.549 -6.697,3.003c-0.133,0.155 0.859,-0.127 0.859,2.447c-0,1.574 -0.859,1.31 -0.859,2.921l-3.077,2.022c0.224,0.929 -1.621,1.543 -1.397,2.472c0.283,1.174 5.808,2.057 -0.109,7.512c-0.758,0.699 -4.393,6.814 -4.929,6.99c-0.565,0.186 -0.357,-0.325 -5.598,-5.098c19.168,-43.053 35.449,-59.333 44.592,-74.378c10.858,-17.867 144.63,-220.752 157.261,-239.908c2.921,-0.515 1.155,3.864 4.121,3.342c1.548,-0.273 0.972,-1.055 4.967,-4.943c6.417,-6.246 5.733,-6.778 6.285,-7.313c1.468,-1.424 7.707,-7.474 16.089,-20.083Z" style="fill:#6eb722;"/><path d="M741.887,295.21c0.317,2.044 0.634,4.088 0.951,6.131c-5.8,6.697 -6.878,8.384 -7.388,9.183c-0.378,0.591 -0.216,1.473 -0.64,2.028c-0.322,0.421 -1.097,0.226 -1.409,0.655c-0.417,0.571 -0.075,1.587 -0.581,2.072c-0.474,0.455 -1.521,-0.235 -1.902,0.308c-0.201,0.286 1.711,0.689 -0.786,4.37c-0.609,0.898 -2.548,2.031 -3.902,5.507c-0.257,0.66 -0.627,0.399 -4.816,7.34c-0.352,0.583 -0.306,1.416 -0.766,1.909c-0.387,0.413 -1.214,0.126 -1.559,0.578c-0.263,0.344 -0.026,0.382 -2.45,4.881c-5.059,9.394 -6.795,10.329 -9.422,14.807c-3.094,5.275 -3.513,4.849 -6.789,10.062c-0.356,0.566 -0.334,1.391 -0.809,1.85c-0.426,0.41 -1.278,0.072 -1.657,0.53c-0.447,0.54 -0.141,1.476 -0.505,2.081c-0.595,0.991 -1.735,1.546 -2.287,2.564c-0.479,0.884 -0.206,2.091 -0.708,2.961c-1.565,2.712 -2.916,1.332 -4.28,4.241c-0.448,0.956 0.066,2.219 -0.385,3.174c-0.505,1.072 -1.537,0.228 -8.497,11.992c-2.281,3.856 -2.501,3.586 -4.64,7.492c-0.209,0.381 -2.384,4.353 -2.709,4.699c-0.374,0.399 -1.166,0.151 -1.498,0.59c-0.362,0.479 0.46,0.92 -3.284,6.824c-1.199,1.891 -2.772,3.498 -3.974,5.387c-0.367,0.576 -0.208,1.479 -0.694,1.949c-0.444,0.429 -1.385,-0.067 -1.762,0.428c-0.451,0.592 0.038,1.577 -0.282,2.257c-0.487,1.033 -1.484,1.717 -2.053,2.703c-2.237,3.882 -2.227,3.771 -4.553,7.528c-0.363,0.586 -0.345,1.384 -0.736,1.95c-0.984,1.425 -1.249,1.127 -1.906,2.773c-0.699,1.752 -12.762,17.923 -17.327,27.463c-0.34,0.349 -4.252,4.359 -4.252,4.359c-0.333,0.66 0.114,1.586 -0.254,2.225c-1.141,1.98 -2.941,3.469 -4.144,5.408c-0.377,0.607 -0.105,1.525 -0.519,2.105c-0.314,0.44 -1.135,0.202 -1.445,0.646c-0.249,0.356 0.162,0.458 -2.393,4.915c-4.417,7.706 -5.093,7.103 -9.544,14.711c-2.404,4.108 -2.914,3.669 -4.96,7.213c-1.389,2.405 -1.007,2.586 -2.628,4.778c-0.416,0.563 -0.262,0.657 -4.461,7.582c-4.069,6.711 -4.995,5.907 -9.178,12.512c-0.378,0.596 -0.311,1.432 -0.701,2.02c-1.239,1.867 -2.93,3.377 -4.136,5.268c-0.382,0.6 -0.177,1.483 -0.554,2.087c-1.2,1.921 -2.906,3.455 -4.108,5.375c-0.389,0.622 0.163,0.866 -4.192,8.199c-0.832,0.988 -0.541,1.116 -1.325,2.048c-0.932,1.108 -1.082,0.817 -1.961,1.857c-2.344,2.772 -2.283,4.47 -2.513,4.849c-0.246,0.404 -0.896,0.372 -1.16,0.764c-2.108,3.136 -1.204,3.582 -3.459,6.727c-2.578,3.596 -3.038,3.093 -3.234,3.419c-0.698,1.16 -0.823,2.634 -1.517,3.797c-0.139,0.232 -0.243,0.095 -2.04,2.667c-1.309,1.873 -2.989,3.446 -4.238,5.364c-0.383,0.589 -0.257,1.427 -0.589,2.05c-0.206,0.387 -2.502,4.703 -2.597,4.819c-0.352,0.425 -1.195,0.09 -1.523,0.535c-0.426,0.578 -0.113,1.504 -0.451,2.143c-0.532,1.004 -1.529,1.67 -2.09,2.656c-0.496,0.871 -0.531,1.98 -1.041,2.842c-2.392,4.047 -3.49,3.014 -5.935,7.109c-0.36,0.603 -0.192,1.464 -0.581,2.046c-1.259,1.882 -3.059,3.321 -4.284,5.227c-0.385,0.599 -0.074,1.505 -0.435,2.119c-1.162,1.972 -2.854,3.554 -4.053,5.501c-0.373,0.605 -0.192,1.493 -0.608,2.066c-0.301,0.414 -1.057,0.224 -1.357,0.639c-0.412,0.57 -0.241,1.443 -0.593,2.056c-5.693,9.916 -7.116,8.679 -7.562,9.557c-0.483,0.952 0.164,2.237 -0.246,3.226c-0.186,0.448 -1.126,-0.399 -3.753,4.669c-2.057,3.967 -2.406,3.64 -4.796,7.309c-0.382,0.586 -0.212,1.447 -0.582,2.041c-1.196,1.92 -2.841,3.499 -4.055,5.406c-0.369,0.579 -0.181,1.483 -0.648,1.978c-0.416,0.441 -1.332,0.028 -1.704,0.511c-0.445,0.578 -0.067,1.529 -0.38,2.197c-0.3,0.64 -0.5,0.497 -4.509,7.56c-0.214,0.376 -2.371,4.177 -2.762,4.647c-0.333,0.4 -1.038,0.293 -1.363,0.701c-0.844,1.06 -2.318,5.585 -5.57,9.289c-2.88,3.28 -1.889,3.984 -4.758,7.303c-2.903,3.359 -2.624,5.012 -2.997,5.709c-0.349,0.651 -1.345,-0.167 -5.501,7.334c-2.173,3.921 -2.705,3.436 -5.047,7.161c-0.375,0.597 -0.229,1.449 -0.591,2.054c-0.59,0.986 -1.487,1.728 -2.205,2.615c-1.735,2.143 -1.235,2.35 -2.608,4.776c-2.524,4.46 -3.663,3.379 -6.461,7.751c-0.395,0.616 -0.05,1.533 -0.37,2.195c-0.496,1.026 -1.323,1.833 -2.009,2.729c-1.667,2.174 -1.363,2.288 -2.641,4.75c-0.523,1.008 -1.445,1.743 -1.988,2.739c-0.337,0.619 -0.241,1.446 -0.616,2.041c-0.261,0.414 -0.911,0.411 -1.184,0.815c-0.385,0.569 -0.369,1.356 -0.696,1.965c-1.646,3.067 -1.787,2.849 -3.91,5.522c-0.267,0.337 -2.142,2.695 -3.065,4.435c-0.464,0.875 -0.239,2.043 -0.717,2.909c-0.44,0.795 -1.347,1.184 -1.926,1.873c-2.122,2.523 -6.645,11.617 -9.455,14.708c-2.953,3.249 -1.818,3.992 -4.637,7.485c-3.235,4.007 -2.301,4.461 -2.953,5.594c-2.405,4.18 -3.953,2.644 -6.349,6.806c-0.372,0.646 0.069,1.597 -0.305,2.241c-1.145,1.969 -2.919,3.467 -4.131,5.391c-0.37,0.587 -0.134,1.479 -0.546,2.034c-0.325,0.439 -1.125,0.23 -1.456,0.665c-0.421,0.555 -0.249,1.427 -0.595,2.036c-1.717,3.021 -2.557,2.253 -4.336,5.204c-0.37,0.613 -0.168,1.492 -0.54,2.104c-1.177,1.933 -2.852,3.494 -4.041,5.419c-0.227,0.368 -0.139,0.347 -2.467,4.834c-3.61,6.958 -8.921,13.902 -9.426,14.853c-7.455,14.04 -9.25,13.228 -11.842,17.197c-0.546,0.836 -0.364,2.05 -0.9,2.893c-0.468,0.735 -1.485,0.928 -1.986,1.639c-0.692,0.98 -0.81,2.324 -1.502,3.304c-6.701,8.882 -6.73,8.734 -7.245,9.548c-0.367,0.579 -0.243,1.398 -0.579,1.998c-1.701,3.033 -2.337,2.486 -4.021,5.486c-0.212,0.378 -2.141,3.812 -2.759,4.65c-0.294,0.398 -0.96,0.386 -1.209,0.817c-1.364,2.365 -0.984,2.55 -2.669,4.722c-0.837,1.079 -0.719,1.092 -8.712,14.799l-1.566,2.472l-1.299,2.472l-1.77,2.472l-3.76,-2.901c6.862,-11.197 64.486,-100.008 71.718,-110.332c2.474,-3.532 1.956,-3.889 29.262,-45.386c19.833,-30.14 275.872,-432.563 300.365,-464.957Z" style="fill:#ade02f;"/><path d="M164.097,1185.076c0.534,1.557 2.708,2.051 3.242,3.607c0.149,0.434 -4.723,5.371 -5.279,6.516c-0.427,0.881 -0.177,2.043 -0.677,2.881c-0.253,0.423 -0.391,0.175 -4.294,4.317c-0.786,0.834 -1.9,1.37 -2.466,2.382c-0.378,0.675 0.207,1.671 -0.177,2.342c-1.132,1.977 -3.01,3.391 -4.211,5.323c-0.386,0.621 -0.049,1.564 -0.449,2.175c-1.244,1.897 -2.946,3.413 -4.366,5.168c-2.758,3.408 -1.923,3.921 -4.46,7.559c-5.418,7.766 -4.794,8.139 -10.323,15.849c-2.182,3.043 -1.709,3.304 -1.913,3.55c-1.108,1.333 -1.102,1.245 -2.176,2.578c-0.717,0.891 -1.925,1.348 -2.442,2.381c-0.48,0.957 0.128,2.275 -0.366,3.224c-0.424,0.815 -1.666,0.846 -2.155,1.619c-0.069,0.109 -0.37,2.885 -2.679,5.796c-5.183,6.532 -3.767,7.496 -8.885,14.052c-1.101,1.411 -11.977,15.343 -13.556,17.819c-0.384,0.603 -0.169,1.494 -0.55,2.098c-1.431,2.272 -2.251,1.666 -6.611,10.139c-1.382,2.684 -4.41,6.761 -4.827,7.323c-3.052,4.108 -2.929,4.127 -6.132,8.099c-1.977,2.451 -2.124,2.291 -2.269,2.524c-0.716,1.154 -0.799,2.653 -1.483,3.829c-0.255,0.439 -0.929,0.434 -1.232,0.838c-3.783,5.041 -6.965,11.053 -7.498,12.06c-5.155,9.739 -5.621,9.369 -10.094,19.508c-3.213,7.284 -7.451,13.467 -15.246,40.132c-0.441,1.508 -9.557,25.423 -17.336,54.181c-0.379,1.4 -4.629,17.111 -4.775,17.49c-0.185,0.479 -1.833,1.466 -1.435,4.948c0.402,3.515 3.284,3.132 3.364,3.208c-0.492,1.345 -0.525,2.844 -1.017,4.188c-0.33,0.902 -1.592,1.533 -1.425,2.484c0.393,2.244 1.921,1.254 2.474,3.501c0.27,1.097 -1.636,-0.095 -1.351,1.064c-7.213,8.615 -5.771,10.178 -7.617,11.873c-0.428,0.393 -1.149,-0.194 -1.703,-0.063c-0.786,0.186 -1.438,0.808 -2.224,0.995c2.295,-30.357 4.267,-29.934 11.197,-59.582c2.441,-10.444 23.739,-75.802 38.664,-98.38c3.96,-5.991 5.866,-7.569 6.916,-9.994c2.995,-6.915 61.952,-93.325 63.444,-96.366c2.44,-4.974 13.625,-19.046 16.412,-24.753c0.038,-0.078 14.944,-23.531 19.984,-30.479Z" style="fill:#8dce24;"/><path d="M1095.009,163.159c0.796,-0.016 1.593,-0.032 2.389,-0.048c4.028,0.959 7.014,0.52 4.588,4.097c-2.088,3.079 -33.901,-4.252 -37.801,29.716c-1.288,11.218 -1.315,11.739 -1.368,12.765c-0.359,6.938 -4.379,4.718 -4.718,2.042c-1.419,-11.197 6.009,-38.788 -26.683,-43.541c-1.502,-0.218 -3.024,-0.26 -4.526,-0.478c-3.775,-0.547 -4.407,-4.455 0.317,-4.842c20.64,-1.689 29.597,-3.981 32.687,-35.031c0.411,-4.126 0.309,-4.169 0.568,-4.55c0.393,-0.58 3.872,-2.397 4.279,2.057c1.564,17.125 -0.515,35.878 30.268,37.813Z" style="fill:#d0e135;"/><path d="M655.981,294.901c-11.247,-0.801 -27.977,0.28 -31.985,-11.597c-3.032,-8.982 10.298,-3.77 13.292,-3.28c20.542,3.361 20.59,2.225 91.467,5.908c10.682,0.555 -1.131,10.744 -2.69,11.49c-4.572,2.187 -61.65,-2.171 -70.083,-2.521Z" style="fill:#5baa1a;"/><path d="M619.776,183.567c-1.662,-0.849 -3.229,0.199 -3.399,-3.923c-0.381,-9.262 -0.307,-9.211 -0.594,-12.175c-2.05,-21.212 -25.865,-18.879 -27.13,-20.699c-0.011,-0.016 0.008,-3.117 0.019,-3.132c0.512,-0.686 7.733,-1.263 8.411,-1.317c21.208,-1.695 19.503,-23.624 20.083,-28.869c0.112,-1.011 4.022,-7.53 4.49,1.307c1.754,33.114 22.311,26.789 26.944,28.56c0.151,0.058 5.122,4.139 -1.809,4.859c-1.53,0.159 -3.077,0.117 -4.605,0.3c-23.252,2.783 -19.701,25.615 -22.411,35.089Z" style="fill:#d5df2f;"/><path d="M648.305,255.537l3.615,3.323l-0.693,3.079c1.006,0.498 1.08,-0.45 2.079,0.044c0.327,0.162 -0.108,1.11 0.254,1.11c0.027,0 3.002,-2.318 11.748,-1.474c55.637,5.372 86.129,7.175 89.22,7.513c2.947,0.322 3.94,2.528 4.051,2.599l1.153,2.036c-0.289,0.37 0.868,3.438 -6.748,5.126c-0.57,-0.723 -0.695,-1.761 -1.265,-2.484c-1.635,-2.075 -2.199,-1.022 -30.04,-2.377c-30.67,-1.492 -86.826,-4.752 -88.229,-6.362c-1.919,-2.202 1.001,-3.769 1.281,-3.919c1.116,-0.599 3.24,-1.738 13.572,-8.214Z" style="fill:#afe427;"/><path d="M864.75,243.892l2.958,2.609l-0.798,2.472l-2.666,2.472l-0.135,2.472c-2.164,2.339 -2.131,2.268 -4.268,4.612c-3.762,4.128 -1.193,5.874 -5.229,9.673c-2.501,2.354 -3.53,1.906 -6.266,12.781c-1.6,-0.213 -3.2,-0.425 -4.8,-0.638c-0.61,0.022 -0.929,-1.067 -1.539,-1.044c-0.25,0.009 -4.387,4.331 -4.758,4.719c-1.832,1.914 -1.679,2.064 -3.958,3.356c-0.547,0.31 -1.431,0.069 -1.771,0.617c-0.236,0.38 0.735,0.779 -1.986,5.28c-2.849,4.713 -4.501,10.865 -7.383,14.459c-5.162,6.438 -3.106,7.652 -7.456,14.737c-0.282,0.46 -2.537,4.133 -3.452,5.803l-3.707,-2.677c0.144,-1.309 -0.57,-1.185 -0.428,-2.472c0.151,-1.37 0.73,-1.054 0.973,-2.472c0.139,-0.812 -0.212,-1.651 -0.127,-2.472c0.094,-0.91 0.111,-1.944 0.656,-2.657c0.336,-0.44 1.171,0.079 1.586,-0.278c1.406,-1.212 1.078,-6.817 5.461,-10.57c0.665,-0.569 1.684,-0.529 2.349,-1.099l-0.169,-2.698c0.865,-7.193 -0.957,-8.194 4.12,-12.98c3.02,-2.847 1.321,-4.293 4.991,-7.148c3.929,-3.056 2.268,-6.167 6.835,-7.684c0.617,-0.205 5.31,-1.763 6.619,-4.887c1.328,-3.166 -1.957,-8.279 3.739,-14.015c7.279,-0.896 6.281,-3.523 7.354,-4.819c0.317,-0.383 1.095,-0.303 1.239,-0.788c0.198,-0.667 -0.593,-1.388 -0.395,-2.055l3.761,0c1.209,-0.064 1.184,2.939 2.393,2.875c0.188,-0.01 -1.068,-1.807 6.259,-5.484Z" style="fill:#99d823;"/><path d="M59.066,1218.506c5.154,1.202 5.077,1.394 5.528,1.466c-0.561,0.806 0.088,2.151 -0.473,2.957c-0.526,0.755 -10.115,0.899 -13.796,3.111c-10.296,6.187 -10.178,18.805 -10.483,21.22c-0.561,1.88 -0.797,1.722 -1.08,3.616c-0.145,0.97 -0.302,0.831 -0.458,1.875c-0.135,-0.107 -2.647,0.958 -2.997,-2.383c-2.082,-19.876 -2.245,-23.589 -20.928,-26.982c-2.778,-0.505 -3.875,0.032 -3.779,-2.981c0.174,-5.502 22.366,3.275 25.344,-22.265c0.185,-1.585 0.273,-3.18 0.451,-4.766c0.548,-4.883 4.298,-3.797 4.636,-0.589c1.166,11.069 -0.506,23.135 18.036,25.719Z" style="fill:#bfdb31;"/><path d="M513.46,241.365c0.305,-0.495 -0.607,-1.246 -0.303,-1.741c1.184,-1.927 18.729,2.141 20.454,-17.917c0.06,-0.699 1.581,-18.391 4.71,-7.234c1.791,6.385 -3.695,21.919 14.326,24.444c3.531,0.495 5.328,-1.142 5.317,2.653c-0.018,6.048 -14.837,-3.396 -19.676,17.206c-0.18,0.768 -0.179,1.575 -0.359,2.343c-0.386,1.946 -0.772,3.891 -1.157,5.837c-0.723,3.088 -0.065,5.304 -2.719,3.772c-0.065,-0.038 -0.037,-0.016 -0.986,-3.853c-0.908,-3.673 0.917,-13.345 -6.815,-19.719c-1.966,-1.621 -2.146,-1.178 -11.019,-3.58c-0.591,-0.737 -1.182,-1.473 -1.773,-2.21Z" style="fill:#a2d639;"/><path d="M340.542,915.884l3.76,2.901l-1.737,2.472l-1.401,2.883c-5.108,6.259 -5.763,8.727 -10.048,13.944c-0.718,0.874 -1.623,1.589 -2.23,2.553c-0.368,0.584 -0.245,1.425 -0.634,1.994c-1.284,1.879 -3.138,3.297 -4.318,5.25c-0.53,0.878 -0.197,2.132 -0.687,3.035c-1.491,2.747 -2.756,1.57 -4.064,4.379c-0.429,0.922 -0.006,2.143 -0.486,3.036c-0.232,0.431 -0.899,-0.235 -4.105,4.433c-4.017,5.848 -2.968,6.467 -7.157,12.251c-6.15,8.489 -5.826,8.658 -11.672,17.36c-0.636,0.947 -1.718,1.53 -2.257,2.542c-0.472,0.885 -0.2,2.078 -0.675,2.961c-1.471,2.731 -2.49,1.808 -3.939,4.54c-1.24,2.337 -0.752,2.565 -2.638,4.684c-0.757,0.85 -1.818,1.441 -2.366,2.453c-0.506,0.936 -0.168,2.213 -0.666,3.153c-0.096,0.182 -0.227,-0.066 -1.894,1.673c-3.363,3.508 -2.455,4.745 -2.971,5.742c-1.885,2.219 -1.873,2.133 -3.717,4.377c-2.812,3.421 -2.013,3.969 -5.055,7.23c-3.348,3.588 -2.177,4.242 -2.791,5.695c-0.395,0.935 -1.334,1.537 -1.729,2.472l-1.415,2.29l-2.176,2.653l-3.26,-2.958c23.764,-37.801 29.539,-44.134 32.534,-49.645c1.866,-3.433 6.381,-10.958 49.797,-76.351Z" style="fill:#a0d92d;"/><path d="M792.336,204.167l-2.519,2.616c-5.385,0.753 -5.302,1.076 -9.65,4.49c-9.55,7.5 -6.78,9.899 -6.637,12.87c-4.525,-1.975 -4.464,-2.284 -4.854,-2.118c-1.238,0.527 -1.409,2.416 -2.349,3.415c-0.619,0.658 -1.554,0.889 -2.244,1.465c-1.979,1.653 -1.783,1.802 -3.695,3.477c-6.366,5.58 -6.053,9.292 -10.4,10.142c-0.921,0.18 -10.104,1.976 -11.693,0.628c-0.494,-0.419 0.064,-1.425 -0.292,-1.978c-0.769,-1.195 -2.165,-1.84 -2.934,-3.035c9.498,-9.269 12.761,-7.975 17.257,-11.769c0.946,-0.798 1.74,-1.468 12.474,-9.07c3.541,-2.508 3.242,-2.765 6.536,-5.552c13.423,-11.353 15.066,-9.213 20.998,-5.583Z" style="fill:#d6f847;"/><path d="M1013.921,361.293c-17.651,7.804 -6.453,21.456 -12.649,21.579c-5.189,0.103 1.816,-18.047 -12.477,-21.652c-1.38,-0.348 -2.809,-0.452 -4.192,-0.79c-2.357,-0.576 -2.67,-1.597 -0.858,-3.255c3.297,-3.015 13.398,-0.302 15.412,-11.685c0.138,-0.779 1.616,-9.131 2.329,-9.592c0.004,-0.002 3.71,0.346 3.301,4.908c-1.07,11.944 6.691,14.507 7.93,14.917c0.549,0.181 6.627,2.188 6.84,2.354c0.745,0.575 -0.053,1.638 -0.136,1.748c-0.571,0.761 -0.995,-0.242 -1.568,0.521c-1.311,0.315 -2.622,0.63 -3.934,0.946Z" style="fill:#94cc41;"/><path d="M258.212,1041.88l3.26,2.958c-0.561,0.696 -0.559,1.776 -1.12,2.472c-0.637,0.79 -1.66,1.136 -2.369,1.855c-2.628,2.663 -2.153,4.293 -2.436,4.731c-1.24,1.916 -2.945,3.45 -4.358,5.228c-2.417,3.044 -1.72,3.355 -2.572,4.832c-0.564,0.978 -1.586,1.612 -2.117,2.61c-0.483,0.908 -0.332,2.108 -0.86,2.988c-0.447,0.744 -1.339,1.064 -1.941,1.675c-0.38,0.385 -4.285,4.346 -4.55,5.027c-0.383,0.983 0.538,2.22 0.115,3.185c-0.4,0.912 -1.607,1.105 -2.298,1.798c-3.074,3.088 -2.235,5.118 -2.53,5.616c-0.133,0.224 -2.01,0.92 -4.565,4.283c-2.447,3.222 -1.548,3.619 -2.32,5.02c-0.239,0.433 -0.953,0.362 -1.223,0.774c-1.178,1.793 -0.189,2.215 -1.39,3.94c-1.963,2.82 -2.225,2.537 -4.027,5.431c-5.982,9.604 -6.738,8.914 -7.19,9.781c-0.454,0.872 -0.141,2.067 -0.653,2.901c-0.486,0.791 -1.495,1.049 -2.16,1.68c-3.647,3.462 -1.826,4.407 -2.412,5.735c-0.383,0.869 -1.464,1.15 -2.109,1.825c-3.11,3.259 -2.448,4.958 -2.825,5.59c-0.463,0.775 -1.593,0.905 -2.073,1.669c-0.603,0.959 -0.532,2.252 -1.033,3.274c-0.451,0.92 -0.804,2.537 -1.786,2.472c-1.512,-0.101 -2.149,-2.735 -3.661,-2.836c33.03,-52.529 34.576,-51.391 45.862,-70.812c3.28,-5.645 9.409,-13.184 17.343,-25.704Z" style="fill:#98d128;"/><path d="M792.336,204.167c3.073,2.832 2.975,2.842 5.74,6c0.101,0.545 1.312,3.21 0.265,6.264c-3.278,9.559 -14.04,10.567 -15.519,10.705c-8.617,0.807 -9.118,-2.813 -9.292,-2.993c-0.143,-2.971 -2.913,-5.371 6.637,-12.87c4.348,-3.415 4.265,-3.737 9.65,-4.49l2.519,-2.616Z" style="fill:#ecf875;"/><path d="M737.791,191.541l2.698,4.213l-2.349,1.727c-1.934,1.217 -2.549,0.124 -5.496,3.458c-4.957,5.609 -6.764,2.967 -14.022,9.917c-0.643,0.616 -0.848,1.734 -1.623,2.149c-0.896,0.48 -2.142,-0.222 -3.001,0.328c-2.583,1.651 -1.278,3.185 -4.046,4.322c-0.979,0.402 -2.24,-0.039 -3.102,0.594c-0.86,0.63 -0.736,2.22 -1.596,2.851l-2.349,1.71c-0.857,0.506 -2.07,-0.148 -2.926,0.358c-2.539,1.499 -1.448,2.782 -4.12,4.192c-1.415,0.747 -1.561,0.188 -2.919,1.002c-0.397,0.238 -0.306,0.308 -4.128,4.16c-1.809,-0.666 -3.618,-1.332 -5.427,-1.998c16.086,-12.557 39.704,-28.167 54.407,-38.982Z" style="fill:#bfeb3a;"/><path d="M614.67,605.85c1.169,1.327 2.337,2.654 3.506,3.981l-0.806,2.472l0.308,2.472l-1.684,3.571l-2.349,1.551l-2.57,2.293c-0.885,0.647 -1.335,1.825 -2.22,2.472c-0.343,0.251 -3.017,0.486 -5.34,4.198c-0.221,0.353 -0.395,0.202 -3.041,4.206c-1.683,-2.117 -2.226,-1.362 -3.895,-3.46c-0.197,-0.248 -1.875,-2.358 -1.727,-3.61c0.026,-0.219 5.513,-0.216 19.818,-20.144Z" style="fill:#70be21;"/><path d="M864.541,228.963c3.439,8.482 2.332,11.19 1.964,12.092c-0.424,1.037 -1.331,1.801 -1.755,2.838c-7.327,3.677 -6.071,5.474 -6.259,5.484c-1.209,0.064 -1.184,-2.939 -2.393,-2.875l-3.761,0l-2.503,-3.236c3.583,-5.949 3.507,-5.952 3.87,-6.425c0.274,-0.357 0.888,-0.26 1.176,-0.605c3.315,-3.978 2.372,-4.58 2.717,-4.848c0.471,-0.366 0.528,-0.042 6.946,-2.425Z" style="fill:#9cda23;"/><path d="M812.817,139.401l2.838,4.168l-2.349,1.712l-2.349,1.272c-0.886,0.437 -1.463,1.413 -2.349,1.85c-0.926,0.457 -2.101,0.222 -2.978,0.776c-0.942,0.595 -1.367,1.848 -2.255,2.529c-0.549,0.421 -1.356,0.303 -1.931,0.682c-1.841,1.211 -3.351,2.952 -5.256,4.048c-0.652,0.375 -1.565,-0.123 -2.217,0.251c-0.521,0.299 -5.823,6.648 -6.503,6.348c-1.485,-0.654 -1.489,-3.35 -2.975,-4.004c20.337,-14.619 20.455,-14.269 28.324,-19.632Z" style="fill:#c3ef3f;"/><path d="M774.46,260.56c2.71,5.998 2.511,9.908 -2.414,16.256c-2.488,-3.175 -1.891,-5.05 -5.656,-4.09c-0.523,0.133 -3.011,0.767 -6.657,1.041l-1.153,-2.036c0.683,-1.093 1.738,-1.892 2.421,-2.984c0.883,-1.412 0.382,-2.085 2.873,-2.71c5.911,-1.484 6.038,-0.319 6.507,-0.562c0,0 3.753,-4.521 4.08,-4.914Z" style="fill:#ecfa83;"/><path d="M804.178,303.554c-0.048,0.698 -0.883,1.159 -0.931,1.857c0,0 0.269,4.925 0.293,5.353l-1.001,2.472l-0.976,2.661l-1.417,2.282l-1.618,2.472l-1.618,2.472c-0.739,0.86 -1.479,1.719 -2.218,2.579c-0.643,-1.292 -2.715,-1.287 -3.358,-2.579c-0.385,-0.775 0.655,-1.616 0.848,-2.467c0.137,-0.605 1.359,-5.983 2.505,-7.31c0.329,-0.381 0.992,-0.323 1.293,-0.728c0,0 4.283,-8.527 4.655,-9.268l3.544,0.205Z" style="fill:#a5e026;"/><path d="M111.238,1144.085c1.526,-0.356 2.283,-4.054 7.618,1.182c2.761,2.71 3.805,4.386 0.97,7.789c-7.838,9.406 -13.575,-3.159 -10.989,-6.705c0.655,-0.898 1.747,-1.368 2.402,-2.266Z" style="fill:#b5dc26;"/><path d="M192.173,1143.005c0.084,1.193 2.351,1.32 2.434,2.512c0.08,1.143 -1.531,1.663 -2.072,2.658c-0.34,0.626 -0.082,1.534 -0.511,2.097c-0.342,0.448 -1.185,0.153 -1.54,0.589c-0.431,0.53 -0.207,1.421 -0.57,2.005c-1.865,3.003 -2.89,1.992 -4.628,5.003c-0.369,0.639 0.027,1.567 -0.325,2.216c-1.73,3.186 -3.21,1.8 -4.666,5.041c-0.447,0.995 0.276,2.313 -0.198,3.294c-0.402,0.832 -1.697,0.827 -2.175,1.614c-0.588,0.967 -0.353,2.299 -0.832,3.33c-1.153,2.478 -1.627,2.474 -1.867,2.472c-2.206,-0.019 -1.021,-2.496 -3.24,-2.515c1.748,-2.321 1.609,-2.408 20.189,-30.314Z" style="fill:#93ce23;"/><path d="M852.024,227.225c-0.208,0.467 0.612,1.022 0.404,1.489c-0.107,0.241 -2.712,1.509 -6.858,4.986c-3.2,2.684 -2.929,2.912 -6.15,5.48c-0.651,-1.255 -2.505,-1.459 -3.156,-2.713c-0.639,-1.232 5.279,-9.337 7.121,-10.13c0.406,-0.175 5.014,-2.157 5.097,-2.119c1.39,0.64 2.152,2.367 3.541,3.007Z" style="fill:#a8e125;"/><path d="M533.998,343.189c0.982,-0.286 1.557,-1.504 2.539,-1.79c1.317,-0.384 6.666,2.017 6.622,6.44c-0.096,9.653 -18.259,5.788 -9.161,-4.65Z" style="fill:#d3e02a;"/><path d="M1034.865,256.364c-0.276,0.842 -0.17,1.789 -0.446,2.632c-2.69,8.206 -14.017,-0.277 -8.917,-6.807c0.336,-0.43 2.411,-3.086 6.519,-1.2c2.275,1.044 1.547,1.68 2.844,5.375Z" style="fill:#c6dc2a;"/><path d="M541.377,160.705c0.963,-0.246 0.68,-0.708 1.713,-0.972c0.196,-0.05 1.303,-0.333 2.52,-0.111c7.208,1.32 2.266,14.797 -4.224,9.535c-3.741,-3.033 -2.07,-3.97 -0.009,-8.452Z" style="fill:#cadd31;"/><path d="M849.833,243.266l2.503,3.236c-0.198,0.667 0.593,1.388 0.395,2.055c-0.144,0.485 -0.922,0.405 -1.239,0.788c-1.073,1.297 -0.075,3.924 -7.354,4.819c1.029,-6.441 1.128,-6.555 5.694,-10.898Z" style="fill:#9fdc24;"/><path d="M685.625,106.641c0.15,0.551 0.811,0.839 0.962,1.39c1.783,6.544 -7.745,6.295 -6.461,0.297c0.775,-3.621 2.036,-2.177 5.5,-1.687Z" style="fill:#c6e744;"/><path d="M486.316,304.065c-0.223,-0.493 -0.853,-0.692 -1.075,-1.185c-2.214,-4.909 5.861,-6.792 6.236,-2c0.331,4.226 -1.259,4.158 -5.161,3.185Z" style="fill:#d1ec63;"/><path d="M777.504,359.846c-0.062,-1.231 0.447,-1.076 0.389,-2.23c-0.078,-1.545 -0.723,-1.378 -0.65,-2.937c0.05,-1.075 1.958,-2.73 2.298,-2.586c1.63,0.69 2.701,2.471 4.331,3.16c-0.924,1.17 -0.676,1.245 -1.644,2.472c-2.317,2.937 -4.326,1.942 -4.724,2.121Z" style="fill:#9edb26;"/><path d="M158.283,1077.062c-0.465,0.443 -0.457,1.283 -0.922,1.726c-4.198,4.002 -6.728,-6.559 -1.773,-6.635c2.861,-0.044 1.78,1.401 2.695,4.909Z" style="fill:#fbfdf5;"/><path d="M66.113,1162.221c0.528,0.733 1.645,0.811 2.172,1.543c2.523,3.501 -4.18,7.986 -5.896,2.094c-0.893,-3.067 0.958,-2.206 3.723,-3.637Z" style="fill:#bfe15c;"/><path d="M971.37,400.232c0.577,-0.13 0.805,-1.032 1.382,-1.163c3.021,-0.682 3.812,0.978 3.96,1.29c2.301,4.83 -5.991,7.166 -5.923,1.857c0.009,-0.692 0.572,-1.292 0.581,-1.984Z" style="fill:#bde271;"/><path d="M12.735,1314.336c1.823,-2.275 1.727,-2.4 1.966,-2.454c6.489,-1.464 3.59,9.668 -0.684,5.769c-1.549,-1.413 -1.277,-3.303 -1.282,-3.315Z" style="fill:#c9e358;"/><path d="M622.248,355.121c-0.807,0.54 -0.806,1.956 -1.613,2.496c-4.145,2.777 -5.864,-8.06 -0.316,-6.324c1.655,0.518 1.105,1.083 1.929,3.827Z" style="fill:#d0e65a;"/><path d="M589.108,207.06c-0.645,0.7 -0.241,2.072 -0.887,2.772c-2.404,2.607 -6.944,-1.558 -4.362,-4.661c0.206,-0.248 1.807,-2.172 3.878,-0.587c0.734,0.562 0.637,1.914 1.371,2.476Z" style="fill:#d0e37f;"/><path d="M569.929,303.375c0.761,-0.605 0.549,-2.071 1.309,-2.676c2.429,-1.932 4.05,0.362 4.255,0.652c2.126,3.009 -2.118,6.512 -4.341,4.754c-0.765,-0.604 -0.459,-2.126 -1.224,-2.731Z" style="fill:#c5e061;"/><path d="M232.983,1396.485c-0.437,-0.553 -1.335,-0.531 -1.772,-1.084c-0.197,-0.249 -1.698,-2.147 0.053,-4.048c2.53,-2.748 6.581,2.243 4.254,4.531c-0.633,0.622 -1.902,-0.021 -2.535,0.601Z" style="fill:#fcfdf2;"/><path d="M984.914,315.722c-0.443,0.475 -0.348,1.34 -0.791,1.815c-2.485,2.665 -6.297,-1.989 -4.041,-4.303c2.321,-2.381 4.068,0.047 4.275,0.335c0.427,0.593 0.13,1.56 0.557,2.153Z" style="fill:#d1e48d;"/><path d="M658.218,180.09c0.401,0.386 1.061,0.371 1.462,0.757c2.966,2.857 -2.255,6.372 -4.17,4.254c-2.593,-2.869 0.416,-4.528 0.737,-4.705c0.588,-0.324 1.383,0.019 1.971,-0.306Z" style="fill:#dbec98;"/><path d="M73.44,1252.179c0.387,0.486 1.187,0.452 1.574,0.939c3.14,3.946 -5.22,6.336 -5.189,1.822c0.01,-1.364 1.126,-2.216 1.292,-2.344c1.046,-0.799 1.314,0.353 2.323,-0.417Z" style="fill:#dfecb3;"/><path d="M564.234,384.908c0.427,-0.499 0.268,-1.379 0.696,-1.879c0.204,-0.238 1.768,-2.066 3.804,-0.236c2.663,2.393 -1.663,7.217 -3.922,4.188c-0.422,-0.567 -0.156,-1.506 -0.578,-2.073Z" style="fill:#dbec96;"/><path d="M759.287,95.6c-0.504,-0.419 -1.313,-0.259 -1.817,-0.678c-0.239,-0.198 -2.137,-1.775 -0.372,-3.982c2.131,-2.665 7.205,1.776 4.099,4.12c-0.536,0.404 -1.374,0.135 -1.91,0.54Z" style="fill:#fafcef;"/><path d="M33.372,1279.306c1.041,0.858 1.35,-0.365 2.346,0.456c0.157,0.129 1.085,0.894 1.077,2.366c-0.022,4.659 -8.057,2.093 -4.985,-1.848c0.384,-0.492 1.177,-0.482 1.561,-0.974Z" style="fill:#c2de7f;"/><path d="M985.335,286.195c1.74,-1.902 1.639,-3.38 3.835,-1.951c4.232,2.754 -2.108,8.109 -3.695,3.98c-0.242,-0.629 0.101,-1.4 -0.141,-2.029Z" style="fill:#eaf4d0;"/><path d="M584.58,383.961c-0.556,0.06 -0.943,0.73 -1.499,0.79c-3.962,0.426 -3.756,-6.059 0.247,-5.7c2.425,0.218 2.083,3.054 2.045,3.372c-0.07,0.579 -0.724,0.959 -0.794,1.538Z" style="fill:#f5f6e3;"/><path d="M86.911,1193.67c0.005,0.69 0.696,1.245 0.701,1.935c0.025,3.593 -5.572,3.335 -5.549,-0.012c0.02,-2.979 2.776,-2.808 3.102,-2.788c0.642,0.04 1.104,0.826 1.747,0.865Z" style="fill:#d8eaab;"/><path d="M1011.03,209.445c1.774,-2.456 1.746,-4.135 4.217,-2.367c3.304,2.363 -1.644,7.453 -3.726,4.195c-0.336,-0.525 -0.155,-1.303 -0.491,-1.828Z" style="fill:#dce9b2;"/><path d="M868.846,45.88c-0.377,0.086 -1.283,1.887 -4.335,0.993c-2.198,-0.644 0.307,-7.945 3.882,-3.9c0.261,0.296 0.623,0.576 0.685,0.975c0.152,0.978 -0.398,0.868 -0.232,1.932Z" style="fill:#e8f0d9;"/><path d="M5.467,1259.913c0.403,-0.417 0.389,-1.16 0.792,-1.577c1.248,-1.29 4.12,-0.14 4.331,1.319c0.498,3.446 -3.699,4.555 -4.835,2.417c-0.337,-0.634 0.049,-1.525 -0.288,-2.159Z" style="fill:#f7fae3;"/><path d="M710.247,44.522c0.009,0.002 1.65,-0.668 3.018,0.807c0.076,0.082 0.764,0.824 0.833,1.126c0.954,4.192 -5.936,4.892 -5.012,-0.681c0.095,-0.574 1.066,-0.677 1.161,-1.251Z" style="fill:#fafbef;"/><path d="M139.557,1079.387c0.352,-0.565 0.036,-1.42 0.389,-1.984c0.407,-0.653 3.258,-1.054 3.927,-0.46c2.327,2.068 -1.24,7.013 -3.619,4.058c-0.363,-0.451 -0.333,-1.163 -0.696,-1.614Z" style="fill:#f8f9f0;"/><path d="M130.027,1104.516c1.155,0.133 0.993,-0.544 2.087,-0.418c0.131,0.015 0.854,0.098 1.448,0.825c2.974,3.637 -4.764,6.714 -4.55,1.59c0.032,-0.754 0.983,-1.243 1.014,-1.997Z" style="fill:#fafcf3;"/><path d="M766.654,372.893c-0.483,-1.76 -0.965,-3.521 -1.448,-5.281c0.963,1.419 3.419,1.052 4.382,2.472c1.457,2.148 -1.082,1.036 -2.934,2.809Z" style="fill:#a1dc28;"/><path d="M834.295,261.21c-0.412,-1.547 -1.556,-0.654 -1.964,-2.186c-0.317,-1.191 0.909,-0.787 0.863,-1.948c-0.054,-1.345 -1.041,-2.525 -1.095,-3.87c0.452,1.423 2.273,2.047 2.725,3.47c0.197,0.621 -1.047,0.92 -1.123,1.57c-0.117,1.002 0.711,1.962 0.594,2.964Z" style="fill:#a6df26;"/><path d="M843.545,280.345c1.6,0.213 3.2,0.425 4.8,0.638c-0.567,0.391 0.076,1.687 -0.492,2.078c-0.845,0.583 -2.013,-0.153 -2.162,-0.247c-1.404,-0.885 -0.713,-1.565 -2.146,-2.469Z" style="fill:#94d622;"/><path d="M855.79,219.382l2.246,-2.54c-0.398,0.767 1.97,1.268 1.572,2.035c-0.147,0.284 -0.274,0.036 -3.818,0.505Z" style="fill:#a3df26;"/><path d="M39.842,1247.261c-0.038,0.364 -0.476,4.553 -0.476,4.553c-0.193,0.442 -0.868,0.497 -1.062,0.938c0.156,-1.044 0.313,-0.905 0.458,-1.875c0.282,-1.894 0.518,-1.737 1.08,-3.616Z" style="fill:#ecf4ce;"/><path d="M59.066,1218.506c1.266,0.093 1.17,0.005 2.335,0.091c1.812,0.133 1.574,0.678 3.193,1.376c-0.451,-0.073 -0.374,-0.264 -5.528,-1.466Z" style="fill:#ebf3c6;"/><path d="M537.929,261.118c-0.386,1.946 -0.772,3.891 -1.157,5.837c0.386,-1.946 0.772,-3.891 1.157,-5.837Z" style="fill:#dbf0bd;"/><path d="M1013.921,361.293c1.311,-0.315 2.622,-0.63 3.934,-0.946c-0.932,0.431 -0.479,1.507 -2.918,1.348c-0.361,-0.024 -0.655,-0.379 -1.016,-0.402Z" style="fill:#dfefc6;"/></g></svg>