<?xml version="1.0" encoding="UTF-8" standalone="no"?><!DOCTYPE svg PUBLIC "-//W3C//DTD SVG 1.1//EN" "http://www.w3.org/Graphics/SVG/1.1/DTD/svg11.dtd"><svg width="100%" height="100%" viewBox="0 0 500 500" version="1.1" xmlns="http://www.w3.org/2000/svg" xmlns:xlink="http://www.w3.org/1999/xlink" xml:space="preserve" xmlns:serif="http://www.serif.com/" style="fill-rule:evenodd;clip-rule:evenodd;stroke-linejoin:round;stroke-miterlimit:2;"><g id="Background"><path d="M450.542,289.584c-1.522,16.787 -6.066,81.906 -76.907,132.636c-74.739,53.522 -171.887,49.322 -234.109,18.22c-34.203,-17.097 -52.675,-36.643 -56.501,-40.692c-17.643,-18.669 -19.172,-21.005 -32.757,-45.424c-6.413,-11.527 -13.742,-35.024 -15.058,-43.633c-3.643,-23.845 -3.728,-32.18 -0.309,-58.485c2.458,-18.916 12.213,-39.144 13.76,-42.353c6.646,-13.781 22.123,-54.251 78.273,-88.668c17.974,-11.017 40.007,-18.182 43.639,-19.364c102.538,-33.346 217.536,9.328 260.55,101.036c7.927,16.9 20.156,38.92 19.48,83.738c-0.015,0.996 -0.046,1.992 -0.061,2.988Z" style="fill:#792c04;"/><path d="M426.101,235.701c0.679,3.717 0.627,3.678 0.628,7.412c0,2.754 0.326,2.74 0.194,2.934c-0.686,1.008 -1.432,-0.87 -2.029,0.168c-0.775,1.349 2.863,36.495 -13.64,70.686c-11.606,24.047 -20.289,30.999 -33.59,46.202c-2.678,-1.077 -2.645,-1.208 -2.89,-1.162c-0.375,0.07 -9.26,6.569 -10.372,7.484c-4.786,3.938 -6.987,3.999 -10.986,6.816c-1.8,1.268 -13.698,9.648 -23.641,14.076c-17.58,7.829 -55.746,27.14 -112.478,20.41c-49.954,-6.59 -72.203,-22.161 -86.072,-30.413c-49.45,-29.424 -101.921,-102.75 -54.261,-187.103c12.2,-21.594 35.008,-41.475 44.006,-47.918c62.395,-44.682 133.534,-46.323 180.067,-30.725c32.943,11.043 50.696,21.633 76.567,44.622c16.74,14.875 29.878,34.71 34.086,43.677c13.797,29.397 9.936,31.279 11.641,33.79c0.219,0.322 2.526,0.807 2.789,0.611c0.418,-0.312 -0.437,-1.254 -0.019,-1.566Z" style="fill:#fac835;"/><path d="M125.542,346.756c-11.744,-11.55 -33.779,-33.889 -40.026,-73.697c-0.766,-4.881 -5.286,-33.682 7.484,-61.301c15.381,-33.266 38.624,-49.445 41.32,-51.603c52.364,-41.928 125.052,-48.908 182.163,-19.661c28.707,14.701 61.546,36.139 77.105,80.346c6.422,18.245 5.423,44.656 3.733,53.794c-11.684,63.17 -66.675,98.403 -109.62,109.572c-44.021,11.449 -108.587,10.738 -162.158,-37.45Z" style="fill:#7c2d02;"/><path d="M360.107,205.395l-1.931,1.884c-0.025,0.597 -0.925,0.924 -0.95,1.521c-0.021,0.496 0.668,0.766 0.835,1.233c1.118,3.137 1.85,11.114 1.939,12.089c1.381,15.059 -9.537,42.372 -16.067,53.471c-14.503,24.651 -57.565,60.518 -113.291,61.455c-49.263,0.828 -74.498,-20.819 -83.583,-23.837c-1.461,-1.535 -14.516,-15.254 -18.038,-19.395c-1.659,-2.151 -1.816,-2.396 -1.956,-2.616c-6.011,-9.407 -11.099,-11.298 -17.659,-37.616c-0.229,-8.277 0.158,-8.232 -0.217,-16.471c-0.11,-2.419 -1.771,-2.86 -1.872,-3.024c3.632,-23.168 14.197,-64.358 70.873,-89.947c24.254,-10.95 55.291,-14.794 74.921,-12.842c97.642,9.709 117.227,80.44 117.688,81.606l-1.652,1.707c-0.015,0.967 0.279,1.923 0.264,2.891c-0.008,0.519 -0.312,1.003 -0.334,1.522c-0.062,1.458 1.97,1.208 2.212,18.103c0.143,9.935 -1.6,16.693 -1.964,18.104l-2.759,-1.62c0.161,-3.59 2.143,-26.872 -6.458,-48.218Z" style="fill:#facb41;"/><path d="M233.623,137.372c0.076,0.777 0.602,1.464 0.678,2.241c0.05,0.508 -0.474,1.016 -0.312,1.5c0.215,0.644 1.39,0.869 1.329,1.545c-0.064,0.71 -1.42,0.733 -1.595,1.424c-0.098,0.388 0.904,-0.098 1.188,0.185c0.381,0.379 -0.635,0.927 3.031,5.995c2.523,3.487 3.282,6.96 5.949,9.078c1.638,1.301 1.561,1.321 2.654,3.156c0.767,3.486 0.638,3.459 0.888,7.026l-2.047,1.59l-0.622,1.5l0.559,1.5l0.088,1.5l-0.062,1.5l0,3c-0.815,7.211 2.287,7.946 2.598,9.454c0.057,0.274 -0.246,0.535 -0.211,0.812c0.03,0.233 0.498,0.38 0.389,0.588c-0.1,0.19 -1.54,0.623 -1.485,2.856c0.111,4.51 0.451,4.525 -0.794,8.816c-1.26,4.342 -1.661,16.049 -16.514,27.296c-0.367,0.278 -0.168,0.512 -4.855,3.904c-7.538,5.456 -7.679,6.358 -8.659,6.647c-0.355,0.105 -0.385,-0.625 -4.628,0.131c-3.024,0.538 -3.35,-4.186 -7.43,-1.397c-1.191,0.814 -1.327,0.371 -1.602,0.571c-0.29,0.211 -0.22,0.248 -2.979,3.351c-7.648,0.854 -7.627,0.154 -10.735,-0.997c-0.625,-0.754 -0.64,-1.897 -1.265,-2.651c-0.292,-0.353 -0.349,-0.231 -3,-0.686c-2.779,-0.476 -2.784,-0.402 -3,-0.514c-0.608,-0.317 -0.8,-1.172 -1.397,-1.511c-2.063,-1.171 -6.882,1.08 -7.429,1.335c-5.643,-1.459 -15.047,-2.5 -16.355,-3.024c-3.632,-1.455 -3.741,-0.875 -7.623,-1.389c-3.21,-0.425 -4.331,0.573 -6.197,-0.574c-0.543,-0.334 -0.957,-0.852 -1.5,-1.186c-2.718,-2.044 -2.577,-2.708 -5.95,-2.523c-1.567,0.086 -2.596,-0.253 -2.811,-0.324c-3.055,-1.008 -3.095,-0.492 -6.234,0.124c-3.21,0.63 -2.394,1.758 -3.057,2.228c-0.463,0.328 -1.22,-0.075 -1.682,0.253c-0.922,-0.107 -1.843,-0.214 -2.765,-0.321l-1.522,-0.274c0.084,-0.847 0.927,-9.295 1.238,-10.569c5.043,-20.618 16.494,-32.874 16.643,-33.048c12.156,-14.199 39.006,-45.527 99.087,-50.12Z" style="fill:#fdf17d;"/><path d="M360.107,205.395c8.601,21.346 6.618,44.628 6.458,48.218l2.759,1.62c0.364,-1.411 2.106,-8.169 1.964,-18.104c-0.242,-16.895 -2.274,-16.645 -2.212,-18.103c0.022,-0.519 0.326,-1.003 0.334,-1.522c0.015,-0.967 -0.279,-1.923 -0.264,-2.891l1.652,-1.707c21.571,68.845 -27.349,114.252 -69.938,131.479c-14.315,5.79 -36.681,11.683 -52.116,10.686c-9.066,-0.585 -9.104,0.221 -18.031,-1.263c-1.305,-0.217 -1.374,0.449 -16.422,-1.896c-3.59,-0.559 -35.859,-6.91 -53.92,-17.65c-21.648,-12.873 -32.112,-25.146 -43.158,-44.941c-6.754,-12.103 -8.389,-28.522 -8.645,-31.09c0.139,-0.748 -0.145,-0.707 0.005,-1.512c0.047,-0.255 0.062,-0.232 0.832,-3.136c6.561,26.318 11.648,28.209 17.659,37.616c0.141,0.22 0.297,0.465 1.956,2.616c-0.118,0.255 -1.47,3.19 -1.47,3.19c0.08,0.197 3.223,3.257 5.759,7.51c3.574,5.992 19.222,20.652 25.348,24.121c2.385,1.35 2.15,1.666 4.574,2.877c2.445,1.221 2.316,1.541 2.961,1.51c1.469,-0.07 0.563,-1.678 2.041,-1.748c-1.739,-1.262 -19.841,-14.401 -21.002,-16.74c-0.198,-0.399 0.025,-0.926 -0.173,-1.326c9.085,3.018 34.32,24.666 83.583,23.837c55.727,-0.937 98.789,-36.803 113.291,-61.455c6.53,-11.099 17.448,-38.412 16.067,-53.471c-0.089,-0.975 -0.821,-8.952 -1.939,-12.089c-0.167,-0.468 -0.856,-0.737 -0.835,-1.233c0.025,-0.597 0.925,-0.924 0.95,-1.521l1.931,-1.884Z" style="fill:#e5a02f;"/><path d="M126.102,327.06c-3.727,-8.821 -7.267,-9.402 -10.38,-15.136c-5.827,-10.734 -6.069,-16.481 -6.133,-18.001c0.253,0.305 0.428,0.112 3.375,3.628c3.171,3.783 32.068,58.512 116.172,64.508c12.965,0.924 80.687,3.326 125.854,-47.113c26.035,-29.074 27.908,-51.093 28.633,-67.336c1.055,-23.654 -7.556,-41.626 -9.142,-44.934c-1.429,-2.982 -3.951,-7.328 -3.599,-8.787c0.447,-1.852 1.048,-0.298 2.333,1.073c4.639,4.951 13.402,25.185 15.62,39.056c1.571,9.825 7.105,27.673 -6.323,63.228c-8.343,22.091 -35.74,56.325 -76.569,72.603c-59.09,23.559 -139.449,15.728 -186.191,-41.308c0.974,0.046 1.948,0.092 2.922,0.138c1.142,-0.54 2.284,-1.08 3.426,-1.62Z" style="fill:#ce7c1a;"/><path d="M409.779,182.75l-2.485,1.863c1.803,2.778 1.807,2.751 1.947,3c1.571,2.784 2.037,2.372 2.165,2.611c0.298,0.558 -0.065,1.311 0.192,1.889c0.23,0.518 0.943,0.705 1.188,1.216c0.26,0.541 -0.009,1.242 0.251,1.784c0.24,0.501 0.894,0.704 1.173,1.184c0.318,0.548 0.283,1.248 0.565,1.816c0.23,0.463 0.731,0.759 0.945,1.23c0.25,0.552 0.179,1.211 0.415,1.77c1.249,2.963 1.572,2.755 2.69,5.783c1.511,4.093 1.304,4.152 1.441,4.505c0.33,0.848 1.329,3.412 3.631,10.777c2.052,6.566 1.589,6.617 2.205,13.523c-0.418,0.312 0.437,1.254 0.019,1.566c-0.263,0.196 -2.57,-0.289 -2.789,-0.611c-1.705,-2.51 2.156,-4.392 -11.641,-33.79c-4.209,-8.967 -17.347,-28.803 -34.086,-43.677c-25.872,-22.99 -43.625,-33.579 -76.567,-44.622c-46.533,-15.598 -117.672,-13.958 -180.067,30.725c-8.998,6.444 -31.806,26.325 -44.006,47.918c-47.659,84.354 4.811,157.68 54.261,187.103c13.869,8.252 36.118,23.824 86.072,30.413c-0.352,0.299 -1.319,2.767 -4.62,2.691c-5.617,-0.129 -5.517,-0.659 -6,-0.648c-0.536,0.013 -1.026,0.445 -1.56,0.395c-1.473,-0.139 -2.899,-0.599 -4.337,-0.951c-14.301,-3.504 -31.989,-6.13 -58.945,-19.936c-13.5,-6.915 -13.781,-6.436 -17.498,-9.665l-1.66,-0.733l-1.584,2.37c-11.656,-7.883 -11.093,-8.564 -23.908,-19.645c-3.477,-3.006 -8.148,-8.395 -8.814,-9.163c-11.161,-12.877 -10.56,-13.322 -14.375,-18.824c-0.096,-0.139 -0.097,-0.122 -1.316,-1.649c0.323,-1.183 1.124,-0.665 1.45,-1.856c0.034,-0.123 0.125,-0.459 -0.533,-1.5c-1.547,-2.449 -2.422,-1.71 -3.827,-4.254c-0.227,-0.411 0.066,-0.986 -0.156,-1.4c-0.332,-0.617 -1.098,-0.923 -1.427,-1.542c-0.226,-0.425 0.094,-1.023 -0.153,-1.435c-0.373,-0.623 -1.261,-0.838 -1.595,-1.483c-0.234,-0.453 0.107,-1.024 0.035,-1.529c-0,-0 -1.309,-3.09 -1.422,-3.358l-0.351,-1.5c-0.398,-0.828 -0.854,-0.388 -1.24,-1.189c-0.418,-0.868 0.214,-0.96 -0.204,-1.811c-0.263,-0.536 -1.07,-0.687 -1.295,-1.24c-0.221,-0.544 0.107,-1.174 0.076,-1.76c-0.027,-0.506 0.216,-1.304 -0.251,-1.5c-0.855,-0.359 -1.917,0.59 -2.772,0.231c-1.923,-4.774 -4.086,-9.515 -7.403,-27.116l2.616,-1.615l-0.183,-1.5l-0.136,-1.5l-0.111,-1.5l-0.429,-1.5l-0.05,-1.5l-0.007,-1.5l-0.029,-1.5l-0.046,-1.5l-0.061,-1.5l-0.029,-1.5l0.006,-1.5l-0.01,-1.5l-0.001,-1.5l-0,-1.5l0.026,-1.5l0.022,-1.5l0.057,-1.5l0.063,-1.5l0.095,-1.5l0.325,-1.5l0.136,-1.5l0.16,-1.5l0.163,-1.5l0.134,-1.5l0.088,-1.5l0.289,-1.5l0.234,-1.5l0.269,-1.5l0.321,-1.5l0.22,-1.5l0.183,-1.5l0.216,-1.5l0.326,-1.5l0.478,-1.5l0.244,-1.5l0.421,-1.5l0.534,-1.5l0.463,-1.5l0.293,-1.5l0.312,-1.5l0.598,-1.5l0.496,-1.5l0.441,-1.5l0.705,-1.5c0.535,-3.026 0.47,-3.026 0.578,-3.268c0.23,-0.517 0.905,-0.73 1.166,-1.232c0.279,-0.535 0.255,-1.181 0.396,-1.767c0.509,-2.113 1.322,-2.711 1.463,-2.994c1.963,-3.952 1.532,-4.115 1.715,-4.449c0.278,-0.507 0.91,-0.768 1.161,-1.289c0.256,-0.533 0.013,-1.232 0.299,-1.75c0.298,-0.539 0.975,-0.769 1.359,-1.25c0.357,-0.447 1.08,-0.981 0.838,-1.5c-0.426,-0.912 -1.97,-0.927 -2.396,-1.839c1.376,-2.507 7.266,-13.233 20.782,-29.088c5.951,-6.981 25.348,-23.398 31.268,-26.906c2.315,-1.372 19.863,-13.39 30.999,-17.376c1.72,-0.616 1.418,-1.32 21.191,-8.509c1.64,-0.596 1.748,-0.636 21.021,-5.845c0.555,-0.15 18.525,-3.533 22.355,-3.764c21.202,-1.279 31.284,-4.489 70.599,2.932c5.672,1.071 38.721,7.308 67.206,26.251c20.356,13.536 30.309,20.513 50.063,44.383c3.478,4.203 3.279,4.311 6.262,8.897Z" style="fill:#fdf6b8;"/><path d="M430.699,322.745c-1.919,7.562 -5.895,23.532 -22.477,48.289c-9.662,14.425 -18.331,21.366 -27.626,29.287c-0.443,-0.898 -0.885,-1.796 -1.328,-2.694c0.2,-0.578 2.321,-6.693 1.787,-7.434c-0.608,-0.844 -1.843,-1.088 -2.451,-1.931c-2.748,1.6 -2.89,1.31 -5.241,3.504c-7.864,7.336 -8.822,6.15 -13.203,10.76c-5.05,2.401 -11.888,6.789 -12.475,6.91c-0.501,0.103 -1.069,-0.523 -1.51,-0.266c-0.753,0.439 -0.839,1.636 -1.592,2.075c-9.449,1.921 -24.435,8.669 -29.946,10.119c-3.924,1.033 -3.856,1.276 -4.194,1.191c-1.526,-0.385 -0.187,-0.927 -0.261,-0.908c-1.027,0.267 -0.43,1.088 -1.47,1.358c0.035,0.404 0.612,0.628 0.647,1.032c0.088,1.009 -0.572,0.944 -0.124,12.658c0.083,2.159 0.682,1.955 1.18,3.384c-1.917,0.658 -9.91,3.403 -24.525,6.337c-2.881,0.578 -4.574,0.157 -4.683,0.175c-0.375,0.061 -0.592,0.542 -0.967,0.603c-8.237,1.965 -13.118,3.16 -31.52,3.105c-0.034,-0.875 0.386,-0.785 0.351,-1.685c-0.032,-0.815 -0.372,-0.697 -0.475,-1.507c-0.108,-0.851 -0.023,-6.678 -0.316,-11.94c-0.228,-4.093 -1.615,-4.858 -1.664,-5.061c-0.099,-0.41 0.608,-0.75 0.508,-1.16c8.176,-0.507 68.822,-2.164 120.272,-38.513c43.551,-30.768 55.468,-63.795 59.16,-68.284c1.063,-1.292 1.583,-2.536 1.59,-2.536c1.401,0.03 2.569,1.462 2.73,1.661c0.537,0.659 -0.737,0.785 -0.178,1.471Z" style="fill:#c46b17;"/><path d="M253.977,192.327c0.812,0.649 2.029,0.637 2.841,1.286c0.973,0.778 0.465,5.526 0.414,6.004c-0.303,2.836 -0.127,2.78 -0.167,3.019c-0.266,1.56 -0.666,1.413 -0.924,2.965c-0.552,3.312 -1.355,3.103 -1.769,7.446c-0.324,3.403 -1.93,2.718 -2.896,5.972c-1.092,3.678 -2.276,3.55 -2.883,4.548c-0.208,0.341 0.304,0.551 -2.072,4.545l2.309,1.617c-6.247,7.277 -7.363,6.074 -13.906,13.14c-2.978,3.216 -4.179,1.601 -7.18,4.845c-2.103,2.273 -2,2.681 -4.488,3.107c-0,0 -2.903,0.917 -3.155,0.997c-0.949,0.226 -1.899,0.453 -2.848,0.679c-3.527,-2.059 -3.786,-2.316 -7.577,-0.731c-3.18,1.329 -3.32,0.494 -7.57,1.034c-0.765,0.083 -0.693,-0.243 -1.512,-0.153c-1.492,0.163 -1.39,0.437 -2.91,0.636c-0.491,0.064 -0.99,-0.027 -1.484,-0.061c-0.504,-0.034 -1.005,-0.118 -1.51,-0.141c-14.342,-0.676 -14.886,1.189 -21.012,-2.553l-1.5,-0.307l-1.5,0c-0.711,-0.202 -0.668,0.388 -1.389,0.183c-0.458,-0.13 0.018,-0.499 -0.402,-0.692c-0.361,-0.166 -0.825,0.114 -1.191,-0.039c-0.575,-0.241 -0.945,-1.342 -1.518,-1.095c-0.654,0.282 -0.254,1.448 -0.66,2.034c-0.161,0.233 -0.56,0.173 -0.84,0.13c-0.762,-0.116 -1.471,-0.483 -2.233,-0.599c0.119,-2.836 0.523,-3.605 -2.217,-4.214c-4.352,-0.967 -5.529,4.415 -1.445,5.731c0.428,0.138 0.92,-0.088 1.348,0.05l1.547,2.267c0,0.206 -1.398,0.748 0,2.101c1.005,0.973 1.573,0.677 1.491,2.039c-0.024,0.396 -1.964,1.261 -0.179,3.155c3.058,3.245 3.634,-0.322 4.156,-0.16c1.403,0.435 1.121,4.178 9.566,4.323c0.718,0.012 8.181,0.14 8.972,-0.161c0.13,-0.05 -0.109,-0.421 0.03,-0.417c0.847,0.023 4.209,1.745 8.964,1.208c0.541,-0.061 0.955,-0.648 1.5,-0.648c0.545,0 0.969,0.528 1.5,0.648c0.971,0.22 1.387,0.071 1.5,0.031c0.921,-0.33 0.598,-0.781 1.5,-1.104c0.826,0.021 0.693,0.456 1.503,0.477c0.235,0.006 0.692,0.018 2.919,-0.363c8.588,-1.47 8.327,-2.434 9.077,-2.502c0.538,-0.049 0.993,0.474 1.53,0.538c4.215,0.503 4.153,-0.646 4.471,-0.478c0.776,0.412 0.822,1.685 1.598,2.096c-0.467,0.324 -1.226,-0.126 -1.693,0.198c-0.669,0.464 -0.879,1.381 -1.437,1.974c-0.517,0.55 -1.215,1.292 -9.018,2.76c-2.241,0.422 -2.299,-0.54 -11.922,0.846c-4.51,0.649 -4.465,-0.592 -9.027,-0.362c-6.194,0.312 -6.346,-0.799 -13.427,-0.794c-0.859,0.001 -6.6,0.004 -10.373,-2.752c-1.188,-0.867 -1.04,-1.285 -3.105,-1.236c-3.685,0.088 -6.036,-0.859 -6.174,-0.882c-4.486,-0.744 -4.391,0.36 -7.454,3.725c-3.043,0.067 -3.002,-0.532 -5.979,-0.174c-1.599,0.192 -1.263,1.002 -2.872,1.288c-0.888,0.158 -0.749,-0.446 -1.617,-0.419c-0.263,0.008 -0.225,0.09 -3.053,1.226c-0.632,-0.892 -0.585,-0.858 -1.221,-1.724c-9.467,-12.897 -10.528,-21.516 -11.392,-21.643c-0,-0 -2.147,1.619 -2.334,1.76l-1.164,-0.94l-1.889,-1.497c-0.319,-6.246 -0.653,-6.217 0.032,-15.006l1.522,0.274c0.922,0.107 1.843,0.214 2.765,0.321c0.463,-0.328 1.22,0.075 1.682,-0.253c0.664,-0.471 -0.153,-1.598 3.057,-2.228c3.139,-0.616 3.179,-1.131 6.234,-0.124c0.215,0.071 1.243,0.41 2.811,0.324c3.374,-0.185 3.232,0.48 5.95,2.523c0.543,0.334 0.957,0.852 1.5,1.186c1.865,1.146 2.986,0.149 6.197,0.574c3.882,0.514 3.991,-0.067 7.623,1.389c1.308,0.524 10.712,1.565 16.355,3.024c0.645,0.302 0.826,1.247 1.47,1.549c1.959,0.918 2.158,0.048 4.136,0.916c1.788,0.785 2.318,0.409 4.803,0.741c2.742,0.366 2.793,-0.602 4.51,0.055c0.436,0.167 0.736,0.6 1.171,0.766c3.109,1.152 3.087,1.851 10.735,0.997c7.371,-0.427 7.354,0.033 10.097,1.469l1.921,1.868c5.035,-1.321 4.855,-1.671 9.086,-4.663c0.593,-0.419 7.488,-2.969 10.741,-5.63c4.991,-4.083 8.368,-3.809 8.387,-3.9c0.102,-0.483 -1.005,-0.692 -0.901,-1.174c0.228,-1.056 0.493,-0.915 7.17,-6.881c0.174,-0.717 -0.357,-1.489 -0.183,-2.207c0.73,-3.01 1.715,-2.622 2.248,-5.711c0.939,-5.446 1.5,-5.266 2.345,-7.736c0.24,-0.703 0.15,-0.721 2.421,-8.966l0.271,-1.5l0.396,-1.5c0.125,-0.407 1.289,-0.545 0.871,-2.83c-0.133,-0.73 -0.032,-0.702 -0.067,-1.456Z" style="fill:#fde864;"/><path d="M160.544,172.934c16.727,-18.337 41.425,-22.393 50.832,-17.23c20.466,11.234 2.763,41.525 -25.634,48.699c-12.362,3.123 -17.252,1.162 -21.188,0.113c-10.301,-2.744 -17.716,-15.376 -4.01,-31.582Z" style="fill:#fefefd;"/><path d="M360.16,402.524c0.172,0.399 -0.174,0.904 -0.002,1.303c0.223,0.517 0.879,0.76 1.111,1.273c0.979,2.165 0.44,2.326 1.472,4.501c1.768,3.727 0.868,3.921 -1.175,7.511l-1.544,1.5l1.565,2.08c-53.088,35.791 -124.534,42.623 -181.929,26.482c-25.243,-7.099 -33.77,-12.609 -44.967,-18.093c1.107,-2.651 1.271,-2.623 1.194,-2.859c-0.225,-0.686 -1.048,-1 -1.627,-1.432c-0.835,-0.623 -0.729,-0.663 -1.346,-1.538c-5.509,-7.819 -6.582,-7.476 -8.326,-18.116c1.791,-0.933 1.855,-1.977 3.515,-0.8c4.435,3.145 21.733,9.66 24.636,10.697c-0.37,0.779 -1.122,1.336 -1.492,2.115c-1.278,2.693 0.866,3.032 -1.142,11.735c0.161,0.423 -0.238,0.932 -0.076,1.355c0.453,1.185 11.187,6.601 16.333,7.155c3.12,0.336 3.111,-0.043 3.375,0.013c0.383,0.083 0.555,0.625 0.938,0.708c7.561,3.855 7.707,3.461 17.888,6.426c1.147,0.137 2.294,0.274 3.441,0.41l1.375,0.298c13.898,4.319 35.637,5.068 38.764,5.176c10.953,0.162 10.888,0.093 16.58,-0.129c18.402,0.055 23.282,-1.14 31.52,-3.105c0.375,-0.061 0.592,-0.542 0.967,-0.603c0.109,-0.018 1.803,0.404 4.683,-0.175c14.615,-2.934 22.608,-5.678 24.525,-6.337c22.388,-7.027 24.659,-8.526 32.245,-20.161c1.969,-3.02 1.929,-7.962 1.923,-8.673c0.753,-0.439 0.839,-1.636 1.592,-2.075c0.441,-0.257 1.009,0.369 1.51,0.266c0.587,-0.12 7.425,-4.509 12.475,-6.91Z" style="fill:#e59825;"/><path d="M409.779,182.75c29.059,43.67 29.758,100.595 4.743,143.942c-22.049,38.208 -50.251,59.165 -83.08,74.522c-12.257,5.733 -26.851,9.4 -30.141,10.348c0.359,-0.801 -0.484,-1.83 -0.125,-2.631c0.213,-0.475 1.014,-0.25 1.5,-0.435c4.285,-1.634 4.438,-0.999 4.803,-1.149c0.548,-0.224 0.701,-0.989 1.197,-1.313c1.962,-1.279 2.754,0.502 26.749,-11.9c15.773,-8.153 33.731,-22.353 42.239,-31.032c13.301,-15.203 21.984,-22.155 33.59,-46.202c16.503,-34.191 12.864,-69.337 13.64,-70.686c0.597,-1.038 1.342,0.84 2.029,-0.168c0.132,-0.194 -0.193,-0.181 -0.194,-2.934c-0.001,-3.734 0.051,-3.695 -0.628,-7.412c-0.616,-6.906 -0.153,-6.957 -2.205,-13.523c-2.302,-7.365 -3.301,-9.929 -3.631,-10.777c-0.137,-0.353 0.07,-0.412 -1.441,-4.505c-1.118,-3.029 -1.441,-2.82 -2.69,-5.783c-0.235,-0.558 -0.165,-1.218 -0.415,-1.77c-0.213,-0.471 -0.715,-0.767 -0.945,-1.23c-0.281,-0.568 -0.247,-1.267 -0.565,-1.816c-0.278,-0.481 -0.932,-0.683 -1.173,-1.184c-0.26,-0.541 0.009,-1.242 -0.251,-1.784c-0.245,-0.511 -0.958,-0.698 -1.188,-1.216c-0.257,-0.578 0.106,-1.33 -0.192,-1.889c-0.128,-0.239 -0.594,0.173 -2.165,-2.611c-0.141,-0.249 -0.144,-0.222 -1.947,-3l2.485,-1.863Z" style="fill:#e7a026;"/><path d="M377.664,363.103c-8.508,8.68 -26.465,22.88 -42.239,31.032c-23.995,12.402 -24.787,10.621 -26.749,11.9c-0.496,0.323 -0.649,1.088 -1.197,1.313c-0.366,0.15 -0.519,-0.485 -4.803,1.149c-0.486,0.186 -1.287,-0.04 -1.5,0.435c-0.359,0.801 0.484,1.83 0.125,2.631c-45.846,13.024 -71.883,9.216 -96.187,6.06c-22.588,-2.934 -61.901,-16.99 -80.578,-31.019c-1.669,-1.254 -1.693,-1.158 -3.445,-2.355l1.584,-2.37l1.66,0.733c3.717,3.229 3.998,2.75 17.498,9.665c26.955,13.806 44.644,16.432 58.945,19.936c1.437,0.352 2.863,0.812 4.337,0.951c0.534,0.05 1.024,-0.383 1.56,-0.395c0.483,-0.011 0.383,0.518 6,0.648c3.301,0.076 4.268,-2.392 4.62,-2.691c56.733,6.73 94.898,-12.581 112.478,-20.41c9.943,-4.428 21.842,-12.808 23.641,-14.076c3.999,-2.817 6.201,-2.878 10.986,-6.816c1.112,-0.915 9.998,-7.413 10.372,-7.484c0.245,-0.046 0.211,0.085 2.89,1.162Z" style="fill:#fce65f;"/><path d="M379.192,337.625c-23.868,30.049 -45.912,40.579 -58.395,46.734c-9.707,4.786 -40.839,16.548 -75.115,17.502c-34.872,0.971 -48.631,-6.723 -64.592,-11.443c-17.173,-5.078 -16.944,-5.647 -32.91,-13.811c-3.005,-1.536 -2.705,-2.049 -5.931,-3.077c-0.325,-0.104 -3.888,-1.24 -3.111,-2.917c0.343,-0.74 1.315,-1.059 1.658,-1.798c15.471,7.434 16.122,5.879 31.478,13.542c0.699,0.349 13.592,4.731 14.777,5.134c16.11,5.476 58.145,10.637 85.504,4.973c2.982,-0.617 34.457,-4.536 68.037,-27.467c4.106,-2.804 13.192,-10.092 13.671,-10.827c0.182,-0.28 -0.02,-0.782 0.257,-0.968c0.614,-0.411 1.478,-0.271 2.126,-0.626c2.286,-1.255 4.483,-3.844 4.815,-4.235c0.969,-1.142 0.969,-1.098 2.137,-2.009c2.295,-1.79 1.065,-2.481 1.649,-3.136c0.317,-0.355 1.006,0.153 1.425,-0.071c0.356,-0.19 0.225,-0.295 3.066,-4.011c0.48,-0.332 1.239,0.004 1.719,-0.327c0.312,-0.216 0.057,-0.828 0.332,-1.09c0.303,-0.288 0.896,-0.08 1.201,-0.367c0.271,-0.255 0.12,-0.756 0.321,-1.069c2.017,-3.153 3.821,-0.376 4.285,-0.147l1.595,1.513Z" style="fill:#eda826;"/><path d="M441.887,258.291c0.145,0.703 1.14,5.533 1.222,8.883c0.496,20.333 -0.394,20.252 -2.894,40.38c-2.931,23.6 -18.624,55.94 -32.352,72.22c-22.08,26.184 -42.056,38.349 -46.276,40.92l-1.565,-2.08l1.544,-1.5c2.043,-3.59 2.943,-3.784 1.175,-7.511c-1.032,-2.175 -0.492,-2.336 -1.472,-4.501c-0.232,-0.513 -0.888,-0.756 -1.111,-1.273c-0.172,-0.399 0.174,-0.904 0.002,-1.303c4.381,-4.609 5.339,-3.424 13.203,-10.76c2.351,-2.193 2.493,-1.904 5.241,-3.504c0.608,0.844 1.843,1.088 2.451,1.931c0.534,0.741 -1.587,6.856 -1.787,7.434c-0.86,0.656 -0.531,0.926 -1.361,1.558c-0.077,0.059 -0.689,0.526 -1.157,0.361c-0.805,-0.283 -1.225,-1.424 -2.075,-1.498c-1.277,-0.111 -1.728,5.49 1.552,5.254c2.786,-0.2 2.281,-1.159 4.369,-2.982c9.295,-7.921 17.964,-14.862 27.626,-29.287c16.582,-24.757 20.559,-40.726 22.477,-48.289c1.335,-9.754 5.597,-24.346 5.849,-25.55c4.424,-21.156 2.822,-37.527 2.823,-37.542c0.193,-2.268 1.509,-1.345 2.516,-1.361Z" style="fill:#d88520;"/><path d="M268.132,163.643c1.214,-0.141 2.428,-0.281 3.641,-0.422c1.687,4.191 2.629,3.937 2.903,4.892c0.138,0.481 -0.092,1.008 -0,1.5c0.039,0.211 0.035,0.147 1.5,3c1.083,2.109 1.303,1.921 3.337,3.14c-0.512,4.491 -0.424,4.458 0.272,8.921c0.391,2.508 -1.339,2.454 -1.598,4.461c-0.126,0.977 -0.352,2.005 -0.089,2.954c0.179,0.645 1.218,0.845 1.328,1.505c0.08,0.478 -0.415,0.427 -0.722,6.019c-0.211,3.843 -1.021,3.696 -1.208,7.512c-0.082,1.675 -2.111,8.006 -3.955,10.247c-3.106,3.774 -0.705,4.944 -4.377,10.408c-6.729,10.011 -6.357,10.285 -8.609,12.2c-0.326,0.277 -1.328,1.13 -3.293,4.213c-5.012,0.81 -4.285,2.12 -7.188,6.27c-8.915,5.442 -8.223,6.623 -17.954,10.464c-2.957,1.167 -2.832,1.334 -5.85,2.261c-0.364,0.112 -0.334,0.166 -4.497,1.574c-0.776,-0.412 -0.822,-1.685 -1.598,-2.096c-0.318,-0.169 -0.256,0.981 -4.471,0.478c-0.537,-0.064 -0.992,-0.587 -1.53,-0.538c-0.75,0.068 -0.49,1.032 -9.077,2.502c-2.228,0.381 -2.684,0.369 -2.919,0.363c-0.81,-0.021 -0.677,-0.456 -1.503,-0.477c-0.902,0.323 -0.579,0.774 -1.5,1.104c-0.113,0.04 -0.529,0.189 -1.5,-0.031c-0.531,-0.12 -0.956,-0.648 -1.5,-0.648c-0.545,0 -0.959,0.587 -1.5,0.648c-4.755,0.538 -8.116,-1.185 -8.964,-1.208c-0.139,-0.004 0.1,0.367 -0.03,0.417c-0.791,0.301 -8.254,0.173 -8.972,0.161c-8.445,-0.145 -8.163,-3.888 -9.566,-4.323c-0.522,-0.162 -1.098,3.405 -4.156,0.16c-1.785,-1.894 0.155,-2.759 0.179,-3.155c0.081,-1.362 -0.486,-1.066 -1.491,-2.039c-1.398,-1.353 0,-1.895 0,-2.101l1.5,-0.637l1.5,-0.255c1.748,0.633 1.717,0.607 3.334,1.497c0.186,0.102 0.187,0.058 2.527,0.789c0.216,0.715 0.432,1.43 0.648,2.146c1.579,2.89 0.773,4.559 3.87,4.016c2.475,-0.434 2.414,-0.483 3.137,-0.477c3.104,0.027 3.111,0.101 5.951,-1.15c2.338,0.606 2.201,0.919 4.519,1.526c2.337,0.612 2.092,-0.424 4.522,-2.352c0.715,0.327 0.782,-0.154 1.5,0.174c0.915,0.418 0.626,0.771 1.516,1.204c0.361,0.175 3.696,0.396 4.486,0.533c5.189,0.898 5.14,-0.887 10.402,-0.517c3.038,0.214 2.631,-1.258 7.532,-2.637c7.769,-2.186 7.855,-1.426 10.513,-1.382c2.626,0.043 2.71,-3.181 5.803,-3.358c4.023,-0.23 3.456,-1.561 9.241,-5.297l1.203,-2.039c2.124,-2.204 2.413,-3.162 2.512,-3.491c0.66,-2.187 0.752,-2.236 2.801,-3.17c2.862,-1.534 3.03,-1.069 3.272,-1.209c0.311,-0.179 0.27,-0.706 0.558,-0.921c0.323,-0.241 0.819,-0.134 1.154,-0.357c0.297,-0.198 0.391,-0.606 0.655,-0.846c3.614,-3.288 3.771,-3.099 4.046,-3.422c0.353,-0.414 4.77,-9.278 5.344,-9.956c1.461,-1.725 2.394,-5.968 3.715,-9.276c0.529,-0.497 1.058,-0.994 1.587,-1.491c-0.42,-4.631 -0.307,-4.652 1.275,-9.041c-0.634,-3.808 -1.395,-4.665 -1.295,-10.474c0.091,-5.245 0.129,-5.203 0.049,-10.462c-0.087,-5.724 0.462,-5.627 0.444,-6.117c-0.159,-4.241 0.277,-4.213 0.193,-4.569c-0,-0 -1.852,-2.072 -2.013,-2.252l-1.5,-1.65c-0.826,-0.788 -1.183,0.744 -2.028,-0.061c-0.109,-0.104 -0.718,-0.685 -0.009,-1.882c0.42,-0.71 1.572,-0.76 1.993,-1.47Z" style="fill:#fde45c;"/><path d="M279.505,174.235c0.75,0.613 1.807,0.765 2.557,1.378c1.393,1.138 1.528,5.341 1.433,5.933c-0.167,1.039 -0.577,2.029 -0.75,3.067c-0.098,0.59 0.388,0.599 -0.157,7.475c-0.052,0.649 0.419,4.996 -0.001,6.03c-0.226,0.556 -0.912,0.901 -1.006,1.494c-0.076,0.473 0.814,0.455 -0.024,5.991c-0.58,3.833 0.44,4.005 -1.103,7.565c-0.391,0.901 0.251,1.107 -3.738,11.698c-0.374,0.992 -0.342,0.933 -0.694,1.917c-0.073,0.204 -0.575,1.606 -0.933,2.549c-0.618,1.627 0.003,1.83 -1.033,3.223c-0.583,0.785 -1.028,0.429 -1.966,2.674c-0.461,1.104 -2.01,4.814 -8.561,12.263c-0.348,0.396 -4.724,4.701 -6.247,5.588c-2.365,1.378 -1.796,2.027 -4.13,3.5c-2.723,1.718 -4.758,5.169 -7.559,5.916c-2.737,0.729 -2.588,1.004 -4.854,2.453c-2.735,1.747 -1.624,2.887 -2.7,3.227c-1.252,0.396 -12.44,2.37 -16.273,3.933c-4.963,2.023 -8.234,0.218 -13.59,1.178c-0.122,0.063 -1.52,0.793 -1.52,0.793c-0.471,0.208 -1.176,-0.011 -1.494,0.394c-0.517,0.658 0.415,0.801 0.003,1.504c-0.485,0.828 -1.013,0.221 -1.5,1.054c-4.844,-0.223 -8.712,-1.91 -16.502,-1.571c-4.434,0.193 -11.17,-2.931 -16.452,-2.876c-6.98,0.073 -8.483,-1.703 -9.203,-1.951c-2.106,-0.725 -2.12,-0.54 -13.365,-2.396c3.062,-3.365 2.968,-4.468 7.454,-3.725c0.137,0.023 2.489,0.97 6.174,0.882c2.066,-0.049 1.918,0.368 3.105,1.236c3.773,2.756 9.514,2.752 10.373,2.752c7.081,-0.005 7.233,1.106 13.427,0.794c4.562,-0.23 4.517,1.012 9.027,0.362c9.623,-1.386 9.68,-0.424 11.922,-0.846c7.803,-1.468 8.501,-2.21 9.018,-2.76c0.558,-0.593 0.768,-1.51 1.437,-1.974c0.467,-0.324 1.226,0.126 1.693,-0.198c4.164,-1.408 4.133,-1.462 4.497,-1.574c3.018,-0.927 2.893,-1.094 5.85,-2.261c9.732,-3.841 9.039,-5.022 17.954,-10.464c2.859,1.491 2.804,1.687 3.066,1.598c0.164,-0.055 0.147,-0.094 1.27,-1.753c0.602,-0.889 0.79,-0.623 1.537,-1.421c2.737,-2.924 1.088,-3.884 1.315,-4.694c1.965,-3.083 2.967,-3.935 3.293,-4.213c2.251,-1.915 1.88,-2.189 8.609,-12.2c3.673,-5.464 1.272,-6.634 4.377,-10.408c1.844,-2.241 3.872,-8.572 3.955,-10.247c0.187,-3.816 0.997,-3.669 1.208,-7.512c0.307,-5.592 0.801,-5.541 0.722,-6.019c-0.11,-0.66 -1.149,-0.86 -1.328,-1.505c-0.264,-0.949 -0.037,-1.977 0.089,-2.954c0.259,-2.007 1.989,-1.953 1.598,-4.461c-0.696,-4.464 -0.784,-4.43 -0.272,-8.921l-0.009,-1.517Z" style="fill:#fde053;"/><path d="M197.69,424.571c8.07,1.296 18.33,3.104 36.093,4.015l0.678,2.027c0.113,1.575 -0.81,3.763 -0.885,8.996c-0.007,0.48 -0.079,5.525 -0.046,6.006c0.175,2.582 -0.251,2.489 -1.389,4.812c-3.127,-0.108 -24.865,-0.857 -38.764,-5.176c-0.028,-0.329 -0.563,-0.465 -0.591,-0.793c-0.084,-0.984 0.188,-0.966 0.7,-12.323c0.238,-5.273 1.738,-4.615 2.69,-5.475c0.638,-0.577 0.876,-1.513 1.514,-2.089Z" style="fill:#b4540e;"/><path d="M41.498,272.015c0.169,0.184 0.302,0.399 0.471,0.582c2.713,2.949 -1.334,10.1 8.538,44.061c6.572,29.188 9.607,31.404 21.173,49.451c6.396,9.784 8.565,15.202 31.497,33.61c0.447,-4.102 0.038,-4.053 -0.521,-8.107l2.66,-2.003c2.225,3.103 2.12,3.104 4.011,6.42c1.31,10.29 4.935,15.805 4.601,16.583c-0.346,0.806 -1.614,0.951 -1.961,1.757c-40.375,-27.483 -73.33,-79.537 -72.149,-139.876c0.062,-3.18 1.56,-2.398 1.68,-2.478Z" style="fill:#eca325;"/><path d="M244.181,136.967c1.203,0.038 7.103,0.222 15.02,0.781l-1.525,2.269c-0.114,0.207 -1.43,2.581 -1.43,2.581c0.124,0.318 0.244,0.175 3.467,2.48c0.169,0.84 -0.706,1.674 -0.538,2.514c0.127,0.634 1.612,0.519 3.743,5.168c1.159,2.527 1.01,5.968 5.213,10.882c-0.42,0.71 -1.572,0.76 -1.993,1.47c-0.709,1.197 -0.1,1.778 0.009,1.882c0.845,0.806 1.202,-0.726 2.028,0.061l1.5,1.65c0.161,0.18 2.013,2.252 2.013,2.252c0.084,0.356 -0.352,0.328 -0.193,4.569c0.018,0.49 -0.531,0.393 -0.444,6.117c0.08,5.259 0.042,5.217 -0.049,10.462c-0.101,5.809 0.66,6.667 1.295,10.474c-1.582,4.389 -1.695,4.411 -1.275,9.041l-1.587,1.491c-1.321,3.307 -2.254,7.551 -3.715,9.276c-0.574,0.678 -4.991,9.542 -5.344,9.956c-0.275,0.323 -0.432,0.134 -4.046,3.422c-0.264,0.24 -0.358,0.649 -0.655,0.846c-0.335,0.223 -0.831,0.116 -1.154,0.357c-0.288,0.215 -0.247,0.742 -0.558,0.921c-0.242,0.139 -0.41,-0.326 -3.272,1.209c0.233,-0.627 -0.521,-1.359 -0.288,-1.986c0.234,-0.629 1.121,-0.782 1.52,-1.321c0.663,-0.896 0.342,-1.037 1.042,-1.851c2.121,-2.465 1.677,-2.815 4.14,-4.962c2.636,-2.298 2.501,-4.299 3.569,-6.931l1.434,-1.434c0.077,-0.608 0.594,-4.672 1.606,-7.488c2.58,-7.172 0.569,-7.432 1.597,-15.016c0.933,-6.883 -1.323,-6.318 -1.873,-7.468c0.454,-0.985 0.908,-1.969 1.362,-2.954c-0.183,-0.458 -0.013,-1.009 -0.197,-1.466c-0.235,-0.587 -0.803,-1.002 -1.029,-1.592c-0.287,-0.751 0.216,-2.744 -0.083,-4.435c-0.778,-4.407 -0.473,-4.378 -0.406,-8.831c-0.168,-0.099 -0.05,-0.443 -0.218,-0.542c-2.759,-1.627 -2.888,-1.363 -3.032,-1.596c-0.229,-0.368 -0.221,-0.882 -0.528,-1.187c-0.197,-0.196 -3.09,-1.252 -4.305,-3.16c-1.699,-2.668 0.258,-3.231 -1.245,-6.027c-6.53,-12.144 -9.527,-13.817 -10.119,-14.318c-2.033,-1.723 -1.24,-2.129 -1.622,-3.421l-0.253,-1.5l0.912,-1.084l1.505,-1.562Z" style="fill:#fde660;"/><path d="M79.304,71.597c-8.4,-1.016 -8.403,-0.881 -9.133,-0.971c-0.201,-0.025 -2.032,-0.251 -2.033,-1.508c-0.003,-3.464 16.713,0.586 24.117,-9.294c6.786,-9.055 3.293,-23.114 6.396,-23.108c2.243,0.004 1.186,1.278 2.074,9.751c0.148,1.415 1.197,11.418 7.242,16.242c7.777,6.207 24.436,3.332 21.492,7.232c-0.81,1.073 -14.753,0.764 -20.469,4.898c-9.095,6.579 -8.443,17.032 -8.939,22.736c-0.636,7.309 -2.925,0.295 -2.941,0.061c-1.117,-16.227 -2.174,-22.027 -17.806,-26.037Z" style="fill:#fcd043;"/><path d="M50.507,316.659l2.361,1.454l1.041,1.5c1.919,4.209 3.165,4.857 5.311,9.242c3.144,6.425 2.781,7.072 19.285,28.762c1.983,2.606 1.939,2.622 4.438,4.698c-2.947,2.163 -3.177,1.999 -3.147,2.309c0,0 3.426,4.165 3.724,4.527l1.724,1.431c0.791,0.548 1.581,1.096 2.372,1.644c1.469,1.717 5.646,7.802 12.255,13.667c1.732,1.537 2.417,0.384 4.039,2.072c0.768,0.799 0.694,0.812 1.406,1.645l-2.66,2.003c0.558,4.053 0.968,4.005 0.521,8.107c-22.932,-18.407 -25.101,-23.825 -31.497,-33.61c-11.566,-18.047 -14.601,-20.263 -21.173,-49.451Z" style="fill:#cc771a;"/><path d="M247.432,169.522c0.189,0.536 1.055,0.631 1.244,1.167c0.221,0.627 -0.368,1.368 -0.133,1.99c0.097,0.257 0.455,0.004 2.04,2.767c1.069,1.865 2.239,1.387 3.756,7.824c0.054,0.227 0.011,0.216 0.144,2.915c-0.875,3.45 -0.573,5.653 -0.506,6.141c0.034,0.754 -0.067,0.726 0.067,1.456c0.417,2.285 -0.746,2.423 -0.871,2.83l-0.396,1.5l-0.271,1.5c-2.27,8.245 -2.18,8.263 -2.421,8.966c-0.845,2.47 -1.405,2.289 -2.345,7.736c-0.533,3.089 -1.518,2.701 -2.248,5.711c-0.174,0.717 0.357,1.489 0.183,2.207c-6.677,5.966 -6.942,5.825 -7.17,6.881c-0.104,0.482 1.003,0.692 0.901,1.174c-0.019,0.091 -3.396,-0.183 -8.387,3.9c-3.253,2.661 -10.148,5.211 -10.741,5.63c-4.23,2.992 -4.05,3.342 -9.086,4.663l-1.921,-1.868c-2.743,-1.437 -2.726,-1.896 -10.097,-1.469c2.759,-3.104 2.689,-3.14 2.979,-3.351c0.276,-0.2 0.412,0.242 1.602,-0.571c4.081,-2.789 4.407,1.935 7.43,1.397c4.244,-0.756 4.273,-0.026 4.628,-0.131c0.979,-0.289 1.121,-1.192 8.659,-6.647c4.687,-3.392 4.488,-3.626 4.855,-3.904c14.853,-11.247 15.254,-22.953 16.514,-27.296c1.245,-4.291 0.905,-4.306 0.794,-8.816c-0.055,-2.233 1.386,-2.666 1.485,-2.856c0.109,-0.208 -0.359,-0.355 -0.389,-0.588c-0.035,-0.278 0.267,-0.538 0.211,-0.812c-0.311,-1.508 -3.414,-2.243 -2.598,-9.454l0,-3l0.062,-1.5l-0.088,-1.5l-0.559,-1.5l0.622,-1.5l2.047,-1.59Z" style="fill:#fded76;"/><path d="M344.583,411.244c0.006,0.711 0.046,5.653 -1.923,8.673c-7.586,11.635 -9.856,13.134 -32.245,20.161c-0.498,-1.429 -1.097,-1.226 -1.18,-3.384c-0.448,-11.714 0.212,-11.649 0.124,-12.658c-0.035,-0.404 -0.612,-0.628 -0.647,-1.032c1.04,-0.27 0.443,-1.091 1.47,-1.358c0.073,-0.019 -1.265,0.523 0.261,0.908c0.338,0.085 0.27,-0.158 4.194,-1.191c5.511,-1.451 20.497,-8.198 29.946,-10.119Z" style="fill:#cd7419;"/><path d="M104.695,280.603c-0.562,0.403 -2.741,0.668 -3.569,4.312c-0.69,3.035 0.179,3.041 0.348,9.266c-0.193,0.884 -0.387,1.767 -0.58,2.651c-1.686,-4.828 -7.655,-14.696 -8.867,-40.202c-0.879,-18.5 6.516,-41.722 12.114,-51.585c0.345,-0.608 2.332,-5.419 3.506,-5.603c7.452,-1.172 -14.169,17.969 -8.128,58.781c2.166,14.636 3.336,16.597 5.176,22.38Z" style="fill:#f4be2e;"/><path d="M453.444,97.836c3.654,11.183 5.758,10.734 18.663,11.997c2.771,0.271 2.892,2.607 0.133,2.935c-1.424,0.169 -6.384,-0.254 -12.165,2.65c-9.154,4.598 -7.006,18.605 -8.049,19.098c-6.033,2.85 4.416,-19.84 -18.968,-21.572c-0.338,-0.025 -3.956,-0.293 -4.208,-0.538c-0.168,-0.163 -2.243,-2.176 1.399,-2.575c12.793,-1.401 17.65,-1.419 19.319,-18.255c0.031,-0.318 0.599,-6.036 2.836,-2.805c0.416,0.6 -0.544,0.785 1.039,9.065Z" style="fill:#fcd040;"/><path d="M178.255,419.893c9.107,2.288 13.16,3.723 19.435,4.677c-0.638,0.577 -0.876,1.513 -1.514,2.089c-0.951,0.86 -2.452,0.201 -2.69,5.475c-0.512,11.356 -0.784,11.339 -0.7,12.323c0.028,0.329 0.563,0.465 0.591,0.793l-1.375,-0.298c-0.272,-0.021 -0.231,-0.624 -0.502,-0.645c-0.554,-0.043 -1.043,0.437 -1.597,0.481c-0.453,0.036 -0.888,-0.283 -1.341,-0.246c-10.181,-2.964 -10.327,-2.57 -17.888,-6.426c-0.588,-4.103 -1.176,-10.29 0.206,-16.214c2.59,-0.602 2.568,-0.629 2.797,-0.65c0.505,-0.048 0.995,0.306 1.5,0.258c1.026,-0.539 2.053,-1.077 3.079,-1.616Z" style="fill:#d27a1b;"/><path d="M263.44,190.641c0.549,1.149 2.806,0.584 1.873,7.468c-1.028,7.583 0.983,7.843 -1.597,15.016c-1.013,2.816 -1.529,6.88 -1.606,7.488l-1.434,1.434c-1.068,2.632 -0.934,4.633 -3.569,6.931c-2.463,2.148 -2.02,2.498 -4.14,4.962c-0.701,0.814 -0.38,0.955 -1.042,1.851c-0.399,0.54 -1.285,0.692 -1.52,1.321c-0.233,0.627 0.521,1.359 0.288,1.986c-2.049,0.935 -2.141,0.984 -2.801,3.17c-0.099,0.329 -0.388,1.287 -2.512,3.491l-1.216,0.335c-0.831,-0.33 -0.657,-1.901 -1.487,-2.23c-0.734,-0.291 -1.599,0.298 -2.248,0.748c-0.442,0.307 -0.346,1.145 -0.827,1.387c-0.487,0.245 -1.107,-0.309 -1.63,-0.151c-1.985,0.598 -4.969,6.425 -11.902,7.409c-0.245,0.035 -0.214,0.081 -2.893,1.097c-1.025,-0.845 -2.05,-1.69 -3.075,-2.535c0.252,-0.08 3.155,-0.997 3.155,-0.997c2.488,-0.426 2.385,-0.834 4.488,-3.107c3.001,-3.244 4.202,-1.629 7.18,-4.845c6.543,-7.066 7.659,-5.863 13.906,-13.14c2.563,-2.686 3.229,-2.217 4.062,-4.86c0.735,-2.333 4.526,-7.006 5.037,-8.653c1.422,-4.585 1.217,-4.581 2.742,-9.106c1.256,-3.728 -0.937,-4.062 2.124,-15.037l0.645,-1.434Z" style="fill:#fde868;"/><path d="M244.181,136.967l-1.505,1.562l-0.912,1.084l0.253,1.5c0.382,1.293 -0.411,1.699 1.622,3.421c0.592,0.502 3.589,2.174 10.119,14.318c1.503,2.795 -0.454,3.359 1.245,6.027c1.215,1.908 4.108,2.963 4.305,3.16c0.307,0.306 0.299,0.82 0.528,1.187c0.145,0.233 0.274,-0.031 3.032,1.596c0.168,0.099 0.05,0.443 0.218,0.542c-0.067,4.452 -0.372,4.424 0.406,8.831c0.299,1.691 -0.204,3.684 0.083,4.435c0.226,0.59 0.794,1.006 1.029,1.592c0.183,0.458 0.013,1.009 0.197,1.466c-0.454,0.985 -0.908,1.969 -1.362,2.954l-0.645,1.434c-0.924,-1.136 -1.492,-0.335 -2.409,-1.463c-0.076,-0.093 -0.034,-0.111 0,-1.5c0.012,-0.473 0.241,-0.975 0.071,-1.416c-0.096,-0.25 -0.642,-0.067 -0.739,-0.317c-0.874,-2.459 -0.904,-2.434 -0.943,-2.656c-0.499,-2.782 0.132,-2.725 0.078,-2.955c-0.355,-1.506 -4.25,-4.416 -4.302,-4.63c-0.15,-0.618 0.569,-1.14 0.791,-1.736c0.483,-1.297 -0.428,-1.452 -0.629,-2.809c-0.446,-3.011 0.512,-2.905 0.423,-3.143c0,0 -2.551,-2.612 -2.773,-2.839l-3,-3l-2.818,-1.116c-1.094,-1.835 -1.017,-1.855 -2.654,-3.156c-2.667,-2.118 -3.427,-5.59 -5.949,-9.078c-3.666,-5.068 -2.65,-5.616 -3.031,-5.995c-0.284,-0.283 -1.286,0.204 -1.188,-0.185c0.175,-0.691 1.532,-0.714 1.595,-1.424c0.061,-0.677 -1.114,-0.901 -1.329,-1.545c-0.162,-0.484 0.362,-0.992 0.312,-1.5c-0.076,-0.777 -0.602,-1.464 -0.678,-2.241c5.318,-0.382 5.272,-0.275 10.558,-0.405Z" style="fill:#feea69;"/><path d="M244.163,246.095l0.013,1.704c-5.785,3.736 -5.218,5.067 -9.241,5.297c-3.092,0.176 -3.177,3.401 -5.803,3.358c-2.658,-0.044 -2.744,-0.803 -10.513,1.382c-4.902,1.379 -4.494,2.851 -7.532,2.637c-5.262,-0.371 -5.212,1.415 -10.402,0.517c-0.79,-0.137 -4.126,-0.358 -4.486,-0.533c-0.89,-0.433 -0.602,-0.786 -1.516,-1.204c-0.718,-0.328 -0.785,0.153 -1.5,-0.174c-3.019,-1.077 -3.123,-1.859 -6.006,-0.49c-1.048,0.498 -0.501,1.129 -1.554,1.586c-0.765,0.332 -0.737,-0.592 -1.481,-0.27c-0.871,-0.919 0.018,-2.858 -7.221,-3.827c-3.274,-2.076 -2.863,-2.586 -3.175,-2.705c-0.58,-0.221 -1.525,0.367 -1.641,0.439c-0.965,0.6 -0.599,0.954 -1.568,1.558c-2.34,-0.731 -2.341,-0.687 -2.527,-0.789c-1.617,-0.889 -1.586,-0.863 -3.334,-1.497l-1.5,0.255l-1.5,0.637l-1.547,-2.267c0.771,-0.522 1.542,-1.044 2.314,-1.567c0.762,0.116 1.471,0.483 2.233,0.599c0.28,0.043 0.679,0.103 0.84,-0.13c0.406,-0.586 0.005,-1.752 0.66,-2.034c0.573,-0.247 0.942,0.854 1.518,1.095c0.367,0.153 0.83,-0.126 1.191,0.039c0.421,0.193 -0.056,0.562 0.402,0.692c0.721,0.205 0.677,-0.385 1.389,-0.183l1.5,-0l1.5,0.307c6.127,3.742 6.671,1.877 21.012,2.553c0.505,0.024 1.006,0.107 1.51,0.141c0.494,0.033 0.993,0.125 1.484,0.061c1.52,-0.199 1.419,-0.473 2.91,-0.636c0.82,-0.089 0.747,0.237 1.512,0.153c0.065,2.685 -0.007,2.68 0.07,2.899c0.775,2.185 2.771,1.216 3.001,1.104c0.584,-0.284 0.899,-0.996 1.499,-1.245c0.462,-0.192 1.004,0.059 1.5,0c0.51,-0.061 0.986,-0.347 1.5,-0.358c0.531,-0.012 1.038,0.332 1.568,0.291c0.873,-0.067 5.542,-2.728 6.009,-2.994c0.949,-0.226 1.899,-0.453 2.848,-0.679c1.025,0.845 2.05,1.69 3.075,2.535c2.679,-1.015 2.648,-1.062 2.893,-1.097c6.933,-0.984 9.917,-6.811 11.902,-7.409c0.522,-0.157 1.142,0.396 1.63,0.151c0.481,-0.242 0.385,-1.08 0.827,-1.387c0.649,-0.45 1.514,-1.04 2.248,-0.748c0.831,0.33 0.657,1.901 1.487,2.23Z" style="fill:#fde765;"/><path d="M484.172,219.798c-1.51,0.019 -1.536,0.114 -1.627,0.021c-0.346,-0.353 -0.892,-6.282 -0.943,-6.831c-1.289,-14.006 -16.242,-11.127 -17.396,-12.451c-0.17,-0.195 -0.122,-1.875 0.041,-2.013c0.265,-0.224 0.301,-0.134 5.599,-0.598c14.447,-1.265 11.267,-16.286 12.628,-17.535c0.03,-0.027 1.816,-0.018 1.85,0.01c0.672,0.55 0.61,6.786 0.986,8.352c3.201,13.302 18.577,6.91 18.586,10.683c0.005,2.059 -4.491,1.666 -5.482,1.729c-15.354,0.973 -12.385,11.492 -14.243,18.634Z" style="fill:#fcd048;"/><path d="M152.738,415.034c1.207,0.474 14.834,5.823 15.122,5.817c1.691,-0.038 1.199,-0.861 1.316,-0.82c1.274,0.444 0.41,1.421 1.703,1.871c-1.382,5.925 -0.794,12.111 -0.206,16.214c-0.383,-0.083 -0.555,-0.625 -0.938,-0.708c-0.264,-0.057 -0.255,0.323 -3.375,-0.013c-5.145,-0.555 -15.88,-5.971 -16.333,-7.155c-0.161,-0.423 0.238,-0.932 0.076,-1.355c2.009,-8.704 -0.136,-9.043 1.142,-11.735c0.37,-0.779 1.122,-1.336 1.492,-2.115Z" style="fill:#e08f21;"/><path d="M109.328,396.03l1.348,-0.325c9.483,2.581 8.961,6.157 12,6.746c0.616,0.12 1.263,-0.246 1.88,-0.126c0.011,0.937 0.021,1.875 0.032,2.812c1.744,10.64 2.817,10.296 8.326,18.116c0.617,0.876 0.511,0.915 1.346,1.538c0.579,0.432 1.401,0.746 1.627,1.432c0.077,0.235 -0.087,0.208 -1.194,2.859c-1.59,-0.988 -1.578,-0.983 -1.717,-1.067c-2.039,-1.237 -2.035,-1.151 -4.042,-2.359c-8.767,-5.273 -8.355,-5.827 -16.964,-11.287c0.346,-0.806 1.614,-0.951 1.961,-1.757c0.334,-0.778 -3.291,-6.294 -4.601,-16.583Z" style="fill:#fce670;"/><path d="M233.783,428.585c6.711,0.23 6.677,-0.213 13.342,0.36c0.099,0.41 -0.608,0.75 -0.508,1.16c0.049,0.203 1.436,0.968 1.664,5.061c0.293,5.261 0.208,11.089 0.316,11.94c0.103,0.81 0.443,0.692 0.475,1.507c0.035,0.9 -0.385,0.809 -0.351,1.685c-5.692,0.222 -5.627,0.291 -16.58,0.129c1.138,-2.323 1.564,-2.23 1.389,-4.812c-0.033,-0.48 0.039,-5.525 0.046,-6.006c0.075,-5.233 0.998,-7.421 0.885,-8.996l-0.678,-2.027Z" style="fill:#a64608;"/><path d="M104.695,280.603c0.378,1.07 3.856,10.911 4.893,13.321c0.064,1.52 0.306,7.267 6.133,18.001c3.113,5.734 6.653,6.314 10.38,15.136c-1.142,0.54 -2.284,1.08 -3.426,1.62c-0.974,-0.046 -1.948,-0.092 -2.922,-0.138c-4.442,-5.235 -8.643,-12.172 -9.315,-13.282c-0.002,-0.438 -0.355,-0.826 -0.358,-1.264c-0.003,-0.586 0.338,-1.138 0.342,-1.724c0.009,-1.629 -1.331,-1.522 -1.374,-1.589c-0.795,-1.225 0.557,-1.654 -0.495,-2.719c-0.254,-0.257 -0.842,0.042 -1.056,-0.249c-0.87,-1.185 0.389,-1.561 -0.524,-2.752c-0.192,-0.251 -0.738,-0.031 -0.899,-0.302c-0.745,-1.251 0.34,-1.547 -0.511,-2.774c-0.16,-0.23 -0.636,-0.081 -0.776,-0.324c-0.726,-1.258 0.007,-1.469 -0.658,-2.727c-0.791,-1.497 -0.734,-1.478 -1.514,-3.019c-0.3,-0.593 -0.841,-1.043 -1.141,-1.636c-0.169,-6.225 -1.037,-6.231 -0.348,-9.266c0.828,-3.645 3.008,-3.909 3.569,-4.312Z" style="fill:#fdf3a2;"/><path d="M68.033,191.774c0.426,0.912 1.97,0.927 2.396,1.839c0.242,0.519 -0.48,1.053 -0.838,1.5c-0.384,0.481 -1.061,0.711 -1.359,1.25c-0.286,0.518 -0.043,1.217 -0.299,1.75c-0.25,0.521 -0.883,0.782 -1.161,1.289c-0.184,0.334 0.248,0.497 -1.715,4.449c-0.14,0.283 -0.954,0.881 -1.463,2.994c-0.141,0.587 -0.117,1.232 -0.396,1.767c-0.261,0.501 -0.937,0.715 -1.166,1.232c-0.108,0.243 -0.043,0.242 -0.578,3.268l-0.705,1.5l-0.441,1.5l-0.496,1.5l-0.598,1.5l-0.312,1.5l-0.293,1.5l-0.463,1.5l-0.534,1.5l-0.421,1.5l-0.244,1.5l-0.478,1.5l-0.326,1.5l-0.216,1.5l-0.183,1.5l-0.22,1.5l-0.321,1.5l-0.269,1.5l-0.234,1.5l-0.289,1.5l-0.088,1.5l-0.134,1.5l-0.163,1.5l-0.16,1.5l-0.136,1.5l-0.325,1.5l-0.095,1.5l-0.063,1.5l-0.057,1.5l-0.022,1.5l-0.026,1.5l0,1.5l0.001,1.5l0.01,1.5l-0.006,1.5l0.029,1.5l0.061,1.5l0.046,1.5l0.029,1.5l0.007,1.5l0.05,1.5l0.429,1.5l0.111,1.5l0.136,1.5l0.183,1.5l-2.616,1.615c-4.112,-20.308 -2.001,-60.176 16.423,-88.954Z" style="fill:#fce868;"/><path d="M82.942,362.314c17.935,20.478 35.083,29.808 41.055,34.055c0.274,0.195 1.071,0.762 3.606,2.146c-1.974,1.604 -2.45,1.308 -3.048,3.81c-0.616,-0.12 -1.263,0.246 -1.88,0.126c-3.039,-0.589 -2.517,-4.165 -12,-6.746l-1.348,0.325c-1.892,-3.317 -1.786,-3.317 -4.011,-6.42c-0.713,-0.834 -0.638,-0.846 -1.406,-1.645c-1.622,-1.688 -2.307,-0.535 -4.039,-2.072c-6.609,-5.865 -10.786,-11.95 -12.255,-13.667c-0.791,-0.548 -1.581,-1.096 -2.372,-1.644l-1.724,-1.431c-0.298,-0.362 -3.724,-4.527 -3.724,-4.527c-0.03,-0.311 0.2,-0.147 3.147,-2.309Z" style="fill:#f9e077;"/><path d="M33.988,150.043c-0.945,3.239 -0.674,8.469 -2.862,7.685c-1.703,-0.61 1.51,-13.006 -10.309,-14.193c-1.216,-0.122 -7.094,-0.201 -6.17,-2.436c0.852,-2.06 12.5,1.413 15.244,-8.903c1.428,-5.369 1.549,-11.792 3.052,-6.427c1.265,4.515 -0.057,10.102 6.049,13.179c2.874,1.448 11.381,1.018 9.91,3.492c-0.433,0.729 -6.537,0.96 -8.755,1.588c-5.095,1.442 -5.982,5.662 -6.16,6.016Z" style="fill:#6a9ad4;"/><path d="M497.273,288.77c-11.093,2.135 -10.576,4.491 -11.315,12.746c-0.104,1.161 -0.001,1.502 -1.186,1.546c-1.848,0.068 -1.179,-0.945 -2.511,-7.591c-1.214,-6.056 -8.426,-6.413 -9.333,-6.458c-0.359,-0.018 -7.979,-0.395 -3.549,-2.761c3.175,-1.695 12.03,1.003 13.487,-10.267c0.801,-6.193 0.57,-6.36 1.132,-6.689c0.236,-0.138 0.498,0.277 0.771,0.278c0.458,0.001 0.918,-0.667 1.298,0.683c1.495,5.31 -2.666,12.121 9.066,15.366c1.52,0.42 4.571,0.796 4.698,0.974c0.325,0.456 -0.156,1.216 0.169,1.672c-0.909,0.167 -1.818,0.334 -2.727,0.501Z" style="fill:#6293cd;"/><path d="M182.692,226.47c-2.927,-1.05 -3.043,-0.791 -4.054,-1.806c-8.409,-8.445 9.278,-16.127 14.82,-13.575c1.87,0.861 7.99,12.589 -9.289,15.393l-1.477,-0.012Z" style="fill:#fefefd;"/><path d="M127.603,398.514c7.214,3.942 19.591,11.488 50.651,21.379c-1.026,0.539 -2.053,1.077 -3.079,1.616c-0.505,0.048 -0.995,-0.306 -1.5,-0.258c-0.229,0.022 -0.207,0.048 -2.797,0.65c-1.293,-0.45 -0.429,-1.427 -1.703,-1.871c-0.117,-0.041 0.375,0.782 -1.316,0.82c-0.288,0.006 -13.915,-5.343 -15.122,-5.817c-2.903,-1.038 -20.201,-7.552 -24.636,-10.697c-1.66,-1.177 -1.723,-0.133 -3.515,0.8c-0.011,-0.937 -0.021,-1.875 -0.032,-2.812c0.598,-2.502 1.074,-2.206 3.048,-3.81Z" style="fill:#f4bc32;"/><path d="M225.761,203.785c-0.574,0.532 -5.073,6.49 -11.846,3.966c-6.45,-2.403 -2.353,-8.065 -1.938,-8.639c8.063,-11.142 13.35,-10.863 15.367,-3.901c1.466,5.058 -0.549,6.784 -1.583,8.573Z" style="fill:#fefefd;"/><path d="M129.02,293.816c3.523,4.14 16.578,17.86 18.038,19.395c0.198,0.399 -0.025,0.926 0.173,1.326c1.16,2.339 19.263,15.478 21.002,16.74c-1.477,0.07 -0.572,1.678 -2.041,1.748c-0.645,0.031 -0.515,-0.289 -2.961,-1.51c-2.425,-1.211 -2.189,-1.526 -4.574,-2.877c-6.126,-3.468 -21.774,-18.128 -25.348,-24.121c-2.537,-4.254 -5.68,-7.314 -5.759,-7.51c0,0 1.352,-2.935 1.47,-3.19Z" style="fill:#d98917;"/><path d="M254.483,186.186c0.824,0.976 1.648,1.951 2.472,2.927l2.764,-1.733c0.096,0.25 0.642,0.067 0.739,0.317c0.17,0.441 -0.06,0.944 -0.071,1.416c-0.034,1.389 -0.076,1.407 0,1.5c0.917,1.128 1.485,0.326 2.409,1.463c-3.061,10.974 -0.868,11.308 -2.124,15.037c-1.524,4.525 -1.32,4.521 -2.742,9.106c-0.511,1.646 -4.301,6.32 -5.037,8.653c-0.833,2.643 -1.499,2.174 -4.062,4.86l-2.309,-1.617c2.376,-3.994 1.864,-4.204 2.072,-4.545c0.607,-0.998 1.791,-0.87 2.883,-4.548c0.966,-3.254 2.572,-2.57 2.896,-5.972c0.414,-4.343 1.217,-4.134 1.769,-7.446c0.259,-1.552 0.658,-1.405 0.924,-2.965c0.041,-0.238 -0.136,-0.183 0.167,-3.019c0.051,-0.479 0.559,-5.226 -0.414,-6.004c-0.812,-0.649 -2.029,-0.637 -2.841,-1.286c-0.067,-0.488 -0.369,-2.691 0.506,-6.141Z" style="fill:#fdea6f;"/><path d="M146.411,205.073c0.627,-0.126 1.194,-0.483 1.821,-0.609c5.312,-1.07 8.877,7.345 8.442,10.086c-1.525,9.632 -15.577,9.139 -14.684,-1.453c0.404,-4.789 0.792,-4.832 4.421,-8.025Z" style="fill:#fefefe;"/><path d="M287.666,180.117l1.509,0.177c0.211,0.585 1.109,0.734 1.32,1.32c0.082,0.228 -0.751,0.217 0.018,3.026c0.608,2.221 0.992,2.147 0.717,4.483c-0.481,4.088 0.867,5.428 -0.408,10.511c-1.299,5.18 -0.021,5.34 -1.419,10.492c-0.098,0.362 -0.6,2.21 -1.093,4.558c-0.848,-1.026 -2.389,-0.32 -2.557,-4.57c-0.061,-1.532 -0.42,-1.521 0.069,-3.024c0.575,-1.77 1.739,-1.642 1.192,-10.465c-0.188,-3.028 0.227,-2.962 0.196,-6.02c-0.047,-4.583 0.433,-4.502 0.722,-9.07c0.03,-0.48 -0.297,-0.937 -0.267,-1.417Z" style="fill:#fddc4a;"/><path d="M246.544,162.496l2.818,1.116l3,3c0.222,0.227 2.773,2.839 2.773,2.839c0.089,0.238 -0.869,0.132 -0.423,3.143c0.201,1.356 1.112,1.511 0.629,2.809c-0.222,0.596 -0.942,1.118 -0.791,1.736c0.052,0.214 3.947,3.124 4.302,4.63c0.054,0.23 -0.577,0.173 -0.078,2.955c0.04,0.222 0.07,0.197 0.943,2.656l-2.764,1.733c-0.824,-0.976 -1.648,-1.951 -2.472,-2.927c-0.134,-2.699 -0.091,-2.687 -0.144,-2.915c-1.517,-6.437 -2.687,-5.959 -3.756,-7.824c-1.584,-2.764 -1.942,-2.51 -2.04,-2.767c-0.235,-0.622 0.353,-1.363 0.133,-1.99c-0.189,-0.536 -1.055,-0.631 -1.244,-1.167c-0.25,-3.566 -0.121,-3.54 -0.888,-7.026Z" style="fill:#feeb6d;"/><path d="M259.713,145.079c7.287,1.238 6.791,2.513 7.165,3.364c2.119,4.827 3.172,4.463 4.895,14.778c-1.214,0.141 -2.428,0.281 -3.641,0.422c-4.203,-4.914 -4.054,-8.355 -5.213,-10.882c-2.131,-4.649 -3.616,-4.534 -3.743,-5.168c-0.169,-0.84 0.706,-1.674 0.538,-2.514Z" style="fill:#fee355;"/><path d="M169.403,62.918c-1.899,-1.99 -1.789,-2.269 -4.658,-2.895c-2.037,-0.444 -2.292,-2.118 0.149,-2.518c8.145,-1.334 2.541,-7.989 5.781,-8.013c3.245,-0.024 -1.045,6.61 5.837,7.888c3.803,0.706 1.405,2.14 1.223,2.231c-0.751,0.376 -1.637,0.383 -2.438,0.637c-0.247,0.078 -1.465,0.465 -2.464,2.093c-0.391,0.637 -0.257,1.589 -0.813,2.089c-0.298,0.268 -0.862,-0.582 -1.16,-0.314c-0.486,-0.399 -0.972,-0.798 -1.459,-1.198Z" style="fill:#fbce50;"/><path d="M240.287,174.149c-0.811,2.327 -0.207,2.812 -2.4,4.001c-3.819,2.07 -9.936,-1.551 -7.303,-7.096c0.992,-2.088 5.009,-2.608 5.969,-2.332c3.504,1.008 2.89,1.896 3.735,5.427Z" style="fill:#fefefd;"/><path d="M59.013,307.844c0.855,0.359 1.917,-0.59 2.772,-0.231c0.467,0.196 0.224,0.994 0.251,1.5c0.032,0.586 -0.297,1.216 -0.076,1.76c0.225,0.554 1.031,0.704 1.295,1.24c0.418,0.851 -0.214,0.942 0.204,1.811c0.386,0.801 0.841,0.361 1.24,1.189l0.351,1.5c0.114,0.269 1.422,3.358 1.422,3.358c0.072,0.504 -0.269,1.076 -0.035,1.529c0.334,0.644 1.222,0.86 1.595,1.483c0.247,0.413 -0.072,1.01 0.153,1.435c0.328,0.618 1.095,0.925 1.427,1.542c0.222,0.413 -0.07,0.989 0.156,1.4c1.404,2.544 2.279,1.805 3.827,4.254c0.658,1.041 0.566,1.377 0.533,1.5c-0.325,1.191 -1.127,0.673 -1.45,1.856c-6.618,-9.002 -10.094,-17.912 -10.743,-19.576c-1.477,-3.785 -1.712,-3.654 -2.922,-7.548Z" style="fill:#fde049;"/><path d="M429.093,151.168c-1.423,-1.634 -1.371,-1.6 -2.984,-3.047c-3.481,-3.121 0,-4.059 2.152,-6.072c3.46,-3.237 7.336,4.154 7.244,4.64c-0.077,0.403 -0.901,-0.307 -3.629,3.623c-0.206,0.296 -0.182,0.853 -0.532,0.943c-0.1,0.026 0.122,-0.444 -1.198,-0.496c-0.598,-0.023 -0.452,0.431 -1.052,0.407Z" style="fill:#fdce43;"/><path d="M286.262,166.602c-0.234,-0.209 -1.81,-0.516 -3.269,-2.923c-2.616,-4.316 -3.033,-8.148 -3.315,-8.737c-0.376,-0.786 -0.653,-0.51 -0.638,-0.578c0.226,-1.044 0.902,-0.637 1.136,-1.718c0.674,-0.212 0.826,-1.288 1.5,-1.5c0.226,-0.071 6.794,6.014 4.586,15.456Z" style="fill:#fddd48;"/><path d="M202.105,252.802c4.25,-0.54 4.391,0.295 7.57,-1.034c3.791,-1.585 4.05,-1.328 7.577,0.731c-0.467,0.266 -5.136,2.926 -6.009,2.994c-0.53,0.041 -1.037,-0.303 -1.568,-0.291c-0.514,0.011 -0.99,0.297 -1.5,0.358c-0.496,0.059 -1.038,-0.192 -1.5,0c-0.6,0.249 -0.914,0.962 -1.499,1.245c-0.23,0.112 -2.226,1.082 -3.001,-1.104c-0.078,-0.219 -0.005,-0.214 -0.07,-2.899Z" style="fill:#fde86b;"/><path d="M176.92,256.078c7.238,0.97 6.35,2.908 7.221,3.827c-2.839,1.251 -2.846,1.177 -5.951,1.15c-0.723,-0.006 -0.662,0.043 -3.137,0.477c-3.097,0.543 -2.291,-1.126 -3.87,-4.016c0.703,0.087 0.643,-1.731 1.346,-1.644c0.749,0.093 0.548,1.492 1.145,1.953c0.684,0.528 1.394,0.145 1.5,0.088c1.15,-0.619 0.597,-1.217 1.745,-1.835Z" style="fill:#fee660;"/><path d="M107.315,234.089c0.102,0.164 1.762,0.606 1.872,3.024c0.375,8.238 -0.012,8.193 0.217,16.471c-0.771,2.903 -0.785,2.88 -0.832,3.136c-0.15,0.805 0.135,0.764 -0.005,1.512c-0.552,-1.854 -2.313,-7.767 -1.252,-24.143Z" style="fill:#f1c731;"/><path d="M172.35,238.119c0.547,-0.255 5.366,-2.506 7.429,-1.335c0.596,0.339 0.789,1.193 1.397,1.511c0.216,0.113 0.221,0.038 3,0.514c2.651,0.455 2.708,0.333 3,0.686c0.625,0.754 0.64,1.897 1.265,2.651c-0.436,-0.167 -0.736,-0.6 -1.171,-0.766c-1.716,-0.657 -1.768,0.311 -4.51,-0.055c-2.486,-0.332 -3.016,0.044 -4.803,-0.741c-1.978,-0.868 -2.177,0.002 -4.136,-0.916c-0.645,-0.302 -0.826,-1.247 -1.47,-1.549Z" style="fill:#feed74;"/><path d="M13.472,197.792c-0.311,-0.567 -0.984,-0.879 -1.295,-1.447c-0.178,-0.324 -0.096,-1.993 0.108,-2.291c3.295,-4.787 10.779,-0.181 6.565,3.731c-2.995,2.781 -4.889,0.243 -5.378,0.006Z" style="fill:#fcce4a;"/><path d="M67.052,114.261c-1.426,-2.022 -2.121,-2.19 -0.865,-4.302c0.561,-0.943 2.554,-1.981 3.885,-1.502c5.137,1.851 1.736,7.331 -1.311,6.577c-0.607,-0.15 -1.102,-0.624 -1.708,-0.774Z" style="fill:#fdcf4c;"/><path d="M101.474,294.181c0.3,0.593 0.841,1.043 1.141,1.636c0.78,1.541 0.723,1.522 1.514,3.019c0.665,1.258 -0.068,1.469 0.658,2.727c0.14,0.243 0.617,0.094 0.776,0.324c0.85,1.227 -0.234,1.524 0.511,2.774c0.162,0.272 0.707,0.051 0.899,0.302c0.913,1.19 -0.346,1.566 0.524,2.752c0.214,0.291 0.802,-0.008 1.056,0.249c1.052,1.065 -0.3,1.494 0.495,2.719c0.043,0.067 1.384,-0.04 1.374,1.589c-0.003,0.586 -0.345,1.138 -0.342,1.724c0.002,0.438 0.355,0.826 0.358,1.264c-1.457,-2.736 -1.437,-2.724 -1.574,-2.955c-0.3,-0.507 -0.714,-0.193 -1.223,-1.674c-0.548,-1.595 -0.972,-1.363 -1.507,-2.996c-0.141,-0.43 -0.118,-0.926 -0.36,-1.308c-0.399,-0.631 -0.815,-0.329 -1.22,-1.657c-0.136,-0.446 -0.067,-0.963 -0.304,-1.364c-0.396,-0.671 -0.837,-0.349 -1.197,-1.64c-0.127,-0.456 -0.047,-0.974 -0.264,-1.394c-0.111,-0.216 -0.513,-0.147 -0.638,-0.356c-0.756,-1.262 -0.004,-1.451 -0.653,-2.735c-0.105,-0.208 -0.501,-0.14 -0.607,-0.349c0.193,-0.884 0.387,-1.767 0.58,-2.651Z" style="fill:#ebb836;"/><path d="M257.264,244.192c-0.227,0.81 1.422,1.771 -1.315,4.694c-0.748,0.798 -0.936,0.532 -1.537,1.421c-1.123,1.659 -1.106,1.697 -1.27,1.753c-0.262,0.088 -0.206,-0.108 -3.066,-1.598c2.903,-4.149 2.176,-5.46 7.188,-6.27Z" style="fill:#fee258;"/><path d="M162.442,250.144c-0.771,0.522 -1.542,1.044 -2.314,1.567c-0.428,-0.138 -0.92,0.088 -1.348,-0.05c-4.084,-1.316 -2.907,-6.698 1.445,-5.731c2.739,0.609 2.336,1.378 2.217,4.214Z" style="fill:#fdfdf7;"/><path d="M379.268,397.627c0.443,0.898 0.885,1.796 1.328,2.694c-2.087,1.823 -1.583,2.782 -4.369,2.982c-3.28,0.235 -2.829,-5.365 -1.552,-5.254c0.85,0.074 1.27,1.215 2.075,1.498c0.468,0.165 1.08,-0.302 1.157,-0.361c0.83,-0.633 0.501,-0.903 1.361,-1.558Z" style="fill:#d37d1b;"/><path d="M472.057,235.773c-0.822,-1.397 -1.441,-1.326 -0.836,-2.883c0.077,-0.199 1.007,-1.105 1.239,-1.195c3.794,-1.478 4.323,4.369 1.271,4.534c-0.577,0.031 -1.096,-0.488 -1.673,-0.457Z" style="fill:#faca45;"/><path d="M184.141,259.906c0.744,-0.323 0.715,0.602 1.481,0.27c1.053,-0.457 0.506,-1.089 1.554,-1.586c2.883,-1.369 2.987,-0.587 6.006,0.49c-2.43,1.928 -2.185,2.963 -4.522,2.352c-2.318,-0.607 -2.181,-0.92 -4.519,-1.526Z" style="fill:#fde561;"/><path d="M170.537,255.371c0.969,-0.603 0.604,-0.957 1.568,-1.558c0.115,-0.072 1.061,-0.66 1.641,-0.439c0.312,0.119 -0.099,0.628 3.175,2.705c-1.148,0.618 -0.595,1.216 -1.745,1.835c-0.106,0.057 -0.816,0.439 -1.5,-0.088c-0.597,-0.461 -0.396,-1.86 -1.145,-1.953c-0.703,-0.087 -0.643,1.731 -1.346,1.644c-0.216,-0.715 -0.432,-1.43 -0.648,-2.146Z" style="fill:#fee761;"/><path d="M276.47,261.958l0.705,2.824c-1.203,1.42 -1.202,1.371 -2.264,2.92c-0.482,-0.899 -1.754,-1.189 -2.236,-2.088c-0.569,-1.061 3.432,-3.44 3.794,-3.656Z" style="fill:#fed43b;"/><path d="M130.719,93.328c1.716,-1.845 2.506,-2.363 3.762,-0.135c1.097,1.945 -2.699,4.948 -3.883,1.353c-0.128,-0.387 0.249,-0.83 0.121,-1.217Z" style="fill:#fcd449;"/><path d="M14.192,117.078c-0.519,0.366 -0.421,1.291 -0.94,1.657c-2.282,1.61 -4.304,-3.37 -1.848,-3.766c2.04,-0.328 2.024,0.213 2.788,2.109Z" style="fill:#5f9adf;"/><path d="M-3.596,170.237c3.285,-0.054 3.272,0.106 3.809,0.42c1.063,0.622 1.473,0.772 0.761,1.816c-0.011,0.016 0.067,0.45 -4.102,0.354c-0.156,-0.863 -0.312,-1.726 -0.468,-2.589Z" style="fill:#fef1c1;"/><path d="M468.089,316.572c-1.173,1.116 -1.1,1.854 -2.596,1.16c-1.708,-0.792 -0.281,-4.204 1.206,-3.609c0.91,0.364 1.267,0.994 1.336,1.115c0.358,0.63 -0.301,0.709 0.054,1.333Z" style="fill:#689ad9;"/><path d="M501.357,223.67c0.344,0.2 0.821,0.06 1.165,0.261c1.421,0.829 0.199,3.463 -1.18,3.442c-1.268,-0.02 -2.41,-2.413 -1.057,-3.333c0.313,-0.213 0.76,-0.157 1.072,-0.37Z" style="fill:#f0b159;"/><path d="M40.143,91.332c-0.62,0.39 -0.701,0.026 -1.286,0.394c-0.454,0.285 -0.168,0.486 -0.597,0.791c-0.317,0.225 -0.703,0.398 -1.091,0.409c-2.686,0.079 -1.522,-4.613 1.525,-2.878c0.561,0.319 0.888,0.965 1.449,1.284Z" style="fill:#f9eeaf;"/><path d="M402.323,118.757c0.462,-0.265 0.581,-0.945 1.044,-1.21c0.135,-0.078 0.909,-0.52 1.899,0.446c2.277,2.222 -2.162,4.088 -2.861,1.851c-0.108,-0.347 0.027,-0.74 -0.082,-1.087Z" style="fill:#fad36e;"/><path d="M455.632,167.074c0.316,0.528 1.202,0.523 1.518,1.051c1.326,2.212 -4.329,3.872 -3.301,-0.225c0.038,-0.152 0.128,-0.059 1.783,-0.826Z" style="fill:#fcd962;"/><path d="M46.217,171.116c-0.275,0.291 -0.187,0.817 -0.462,1.108c-2.151,2.273 -4.225,-3.127 -1.038,-2.994c0.666,0.028 1.077,0.544 1.141,0.626c0.434,0.546 -0.071,0.72 0.358,1.26Z" style="fill:#fccc3f;"/><path d="M8.693,229.967c0.32,0.197 0.77,0.094 1.09,0.291c0.167,0.103 1.579,0.973 0.472,2.408c-1.303,1.688 -4.521,-0.876 -2.558,-2.326c0.285,-0.211 0.711,-0.161 0.997,-0.372Z" style="fill:#fcda69;"/><path d="M461.611,214.618c-0.251,0.331 -0.086,0.868 -0.337,1.199c-1.353,1.786 -4.168,-1.07 -2.389,-2.421c1.233,-0.936 2.155,0.053 2.28,0.187c0.256,0.275 0.19,0.76 0.446,1.035Z" style="fill:#fccb5a;"/><path d="M200.73,72.116c-0.279,0.294 -0.182,0.831 -0.462,1.125c-2.089,2.197 -4.052,-3.017 -1.077,-2.968c0.696,0.011 1.104,0.501 1.171,0.581c0.445,0.533 -0.084,0.722 0.367,1.262Z" style="fill:#fdd34d;"/><path d="M495.017,150.157c0.547,-0.273 0.66,-1.109 1.207,-1.382c0.494,-0.247 2.166,0.689 2.236,1.429c0.127,1.355 -2.453,2.471 -3.213,1.098c-0.189,-0.341 -0.041,-0.805 -0.23,-1.145Z" style="fill:#fce99c;"/><path d="M408.727,93.547c0.014,0.387 0.448,0.678 0.461,1.065c0.077,2.182 -3.409,2.032 -3.349,-0.024c0.048,-1.618 1.65,-1.533 1.841,-1.523c0.383,0.02 0.663,0.462 1.046,0.482Z" style="fill:#fce172;"/><path d="M150.926,82.9c0.003,0.442 0.545,0.765 0.548,1.207c0.022,2.9 -4.944,0.984 -2.916,-1.124c0.454,-0.472 1.012,-0.491 1.109,-0.494c0.694,-0.024 0.562,0.436 1.259,0.412Z" style="fill:#fddd68;"/><path d="M77.356,131.81c-0.427,0.005 -0.748,0.505 -1.175,0.51c-2.977,0.034 -0.926,-4.904 1.144,-2.849c0.466,0.463 0.474,1.04 0.475,1.139c0.009,0.675 -0.453,0.527 -0.444,1.2Z" style="fill:#eda644;"/><path d="M41.759,90.642c-0.504,-0.61 -0.77,-0.216 -1.27,-0.822c-0.068,-0.082 -0.476,-0.577 -0.446,-1.256c0.103,-2.303 4.453,-0.852 2.866,1.365c-0.263,0.367 -0.888,0.346 -1.15,0.713Z" style="fill:#fbd073;"/><path d="M471.402,144.788c0.312,-0.044 0.506,-0.432 0.818,-0.476c0.18,-0.025 1.83,-0.255 1.948,1.162c0.198,2.372 -3.456,2.485 -3.22,0.181c0.033,-0.324 0.421,-0.542 0.454,-0.867Z" style="fill:#faf0d4;"/><path d="M149.675,52.607c-0.322,-0.271 -0.885,-0.098 -1.206,-0.369c-2.207,-1.857 2.753,-4.131 2.694,-1.126c-0.012,0.599 -0.381,0.97 -0.445,1.034c-0.418,0.421 -0.589,0.005 -1.043,0.461Z" style="fill:#f2e1b4;"/><path d="M70.619,143.03c0.609,-0.026 0.436,-0.46 1.051,-0.487c0.104,-0.005 0.765,-0.033 1.238,0.387c2.116,1.88 -2.713,4.074 -2.712,1.182c0,-0.387 0.423,-0.695 0.423,-1.083Z" style="fill:#f9e6b5;"/><path d="M299.923,163.613c-0.072,-0.894 -1.676,-1.152 -1.748,-2.046c-0.031,-0.39 2.33,-1.285 2.788,-0.918c0.852,0.684 0.639,1.29 0.598,1.406c-0.402,1.146 -1.241,0.426 -1.638,1.559Z" style="fill:#fdd53c;"/><path d="M131.782,368.986c0.243,0.116 3.033,1.448 3.033,1.448c0.039,0.797 -0.891,1.597 -1.682,1.701c-0.272,0.036 0.694,-0.61 -1.35,-3.149Z" style="fill:#fecc31;"/><path d="M287.875,148.417c-0.239,-0.02 -2.988,-0.248 -2.988,-0.248c-0.447,-1.163 0.732,-1.065 0.839,-1.056c1.327,0.11 0.808,1.193 2.148,1.304Z" style="fill:#fedb44;"/><path d="M135.488,412.936c-1.318,-0.332 -2.167,0.796 -2.084,-0.525c0.098,-1.549 0.962,-1.331 1.094,-1.298c1.165,0.294 -0.177,1.529 0.99,1.823Z" style="fill:#eca125;"/><path d="M244.163,246.095l1.216,-0.335l-1.203,2.039l-0.013,-1.704Z" style="fill:#fee561;"/><path d="M497.273,288.77c0.909,-0.167 1.818,-0.334 2.727,-0.501c-0.342,0.147 -0.166,0.947 -1.868,0.804c-0.492,-0.041 -0.401,-0.265 -0.859,-0.303Z" style="fill:#dce7f5;"/><path d="M188.561,444.542c0.453,-0.036 0.888,0.283 1.341,0.246c0.554,-0.044 1.043,-0.525 1.597,-0.481c0.272,0.021 0.231,0.624 0.502,0.645c-1.147,-0.137 -2.294,-0.274 -3.441,-0.41Z" style="fill:#d8831a;"/></g></svg>