<?xml version="1.0" encoding="UTF-8" standalone="no"?><!DOCTYPE svg PUBLIC "-//W3C//DTD SVG 1.1//EN" "http://www.w3.org/Graphics/SVG/1.1/DTD/svg11.dtd"><svg width="100%" height="100%" viewBox="0 0 1024 1536" version="1.1" xmlns="http://www.w3.org/2000/svg" xmlns:xlink="http://www.w3.org/1999/xlink" xml:space="preserve" xmlns:serif="http://www.serif.com/" style="fill-rule:evenodd;clip-rule:evenodd;stroke-linejoin:round;stroke-miterlimit:2;"><g id="Background"><path d="M976.368,28.947c5.274,3.418 37.45,24.269 45.167,69.493c10.317,60.458 -27.594,125.025 -95.382,123.245c-8.708,-0.229 -20.163,-6.601 -24.568,-1.227c-1.929,2.354 -148.205,223.708 -151.269,228.253c-11.891,17.638 -19.75,30.902 -35.94,54.506c-6.772,9.873 -59.658,90.781 -79.32,119.359c-3.287,4.777 -59.475,90.253 -66.573,100.449c-16.271,23.37 -15.234,24.205 -31.466,47.61c-17.136,24.707 -16.161,25.482 -33.325,50.194c-3.699,5.326 -3.392,5.582 -44.956,67.706c-12.905,19.288 -12.573,19.536 -160.626,241.686c-16.966,25.458 -203.14,304.806 -212.83,317.568c-43.256,56.972 -79.509,102.473 -83.09,84.06c-2.404,-12.359 41.181,-89.002 71.582,-133.202c1.342,-1.951 42.446,-65.195 50.161,-76.332c7.259,-10.48 6.825,-10.842 87.718,-133.661c19.924,-30.25 39.355,-60.067 42.765,-65.3c124.281,-190.709 125.6,-192.646 136.831,-209.129c0.095,-0.139 60.811,-94.263 64.837,-100.148c3.214,-4.697 80.107,-124.075 93.341,-143.734c1.404,0.189 2.065,2.597 3.469,2.786c0.786,0.106 0.877,-1.533 1.478,-2.12c0.79,-0.77 2.032,-0.929 2.638,-1.892c0.545,-0.867 0.305,-2.108 0.529,-3.144c0.634,-2.939 1.295,-2.415 3.437,-4.179c0.39,-0.321 4.174,-3.437 4.55,-4.491c0.325,-0.911 -0.9,-1.979 -0.557,-2.881c0.413,-1.086 1.662,-1.418 2.472,-2.159c3.658,-3.348 1.875,-4.704 3.918,-7.273c0.67,-0.842 1.717,-1.241 2.331,-2.137c0,0 2.563,-5.063 2.786,-5.503c0.804,-0.876 0.378,-1.127 1.13,-1.947c4.065,-4.431 4.378,-3.937 4.671,-4.376c1.511,-2.265 -0.291,-3.167 1.563,-5.182c1.445,-1.571 3.408,-2.533 4.627,-4.337c0.587,-0.868 0.204,-2.195 0.495,-3.24c1.256,-4.519 3.962,-2.048 5.639,-6.476c0.475,-1.254 -2.072,-2.409 -1.604,-3.666c0.477,-1.281 2.388,-0.689 3.467,-1.339c0.893,-0.538 2.647,-1.067 2.357,-2.17c-0.508,-1.931 -3.472,-2.064 -3.98,-3.995c20.107,-31.396 146.631,-225.577 163.22,-250.197c7.043,-12.024 101.198,-152.959 103.554,-161.379c2.416,-8.634 -16.325,-23.401 -18.74,-62.167c-2.593,-41.625 17.978,-84.632 53.542,-101.211c33.759,-15.737 55.482,-9.519 79.953,3.279Z" style="fill:#8e1612;"/><path d="M865.099,210.86c0.919,0.075 1.589,-1.404 2.508,-1.329c0.677,0.055 0.893,1.183 1.435,1.65c1.486,1.281 2.073,0.474 4.428,4.281c9.133,14.764 -0.395,25.039 -0.529,25.228c-5.518,7.823 -5.673,7.588 -10.78,15.747c-7.426,11.864 -7.23,11.901 -7.893,12.908c-4.435,6.731 -4.625,6.429 -9.009,13.142c-27.148,41.577 -27.711,41.039 -29.811,44.852c-3.993,7.25 -11.41,17.685 -12.464,19.167c-9.896,13.922 -15.463,25.019 -17.437,28.017c-4.402,6.686 -4.672,6.37 -9.028,13.098c-49.552,76.532 -50.719,75.548 -57.339,87.513c-4.241,7.666 -5.879,8.118 -7.376,10.395c-22.413,34.078 -22.051,34.329 -24.011,37.278c-4.856,6.716 -5.303,6.275 -9.112,13.776c-6.023,10.883 -7.233,9.793 -14.496,21.479c-7.267,10.866 -7.229,10.816 -13.893,22.099c-4.397,6.224 -4.135,6.343 -4.52,6.871c-1.755,2.403 -1.38,2.653 -1.532,2.858c-1.14,1.532 -1.869,0.383 -2.869,2.139c-0.501,0.88 -0.543,2.041 -1.065,2.904c-2.499,4.129 -3.305,3.228 -5.881,7.386c-0.983,1.587 -11.49,18.551 -12.192,19.911c-11.369,15.287 -10.364,16.03 -16.106,24.488c-1.835,2.531 -16.285,22.459 -21.44,32.974c-2.786,4.318 -2.82,4.177 -6.282,7.749l-1.678,2.385l-1.754,2.974l-1.153,1.797c-0.229,0.389 -10.05,14.94 -12.73,19.737c-0.791,1.415 -0.936,1.203 -1.906,2.548c0,0 -1.601,2.973 -1.74,3.232c-0.615,1.025 -0.628,0.977 -2.619,3.774c-12.276,17.248 -34.893,51.708 -36.093,56.74c-2.019,8.465 -3.552,7.463 -7.883,14.697l-2.764,-1.312l-1.365,0.766c-2.72,6.53 -2.532,6.627 -2.936,7.049c-2.198,2.296 -2.156,2.282 -3.689,5.192c-2.713,5.15 -3.554,4.388 -6.353,9.492c0,0 -2.326,4.019 -2.528,4.369c-11.116,15.767 -11.445,15.448 -12.254,16.944c-3.51,6.492 -10.644,15.388 -12.434,19.167c-3.801,8.021 -8.744,9.298 -16.998,28.406c-0.525,0.629 -0.736,0.095 -1.226,0.683c-0.65,0.78 -0.173,1.025 -0.803,1.75c-0.338,0.39 -0.97,0.298 -1.31,0.685c-0.76,0.862 -2.359,4.006 -2.543,4.369c-1.777,3.495 -8.592,10.105 -10.481,14.289c-0.522,1.155 -5.559,8.988 -6.055,9.76c-0.571,0.887 -4.384,6.817 -7.233,11.004c-7.037,8.921 -6.721,9.105 -12.783,18.943c-13.256,21.514 -13.766,20.953 -16.01,24.461c-8.179,12.79 -7.92,12.984 -8.711,14.021c-3.887,5.092 -3.975,4.925 -7.57,10.211c-11.21,16.485 -9.603,17.565 -10.637,18.923c-0.353,0.463 -1.134,0.124 -1.549,0.513c-0.427,0.4 -0.39,1.22 -0.777,1.67c-1.034,1.201 -1.181,0.972 -1.995,2.461c-0.196,0.358 -2.405,4.398 -2.452,4.468c-1.636,2.452 -1.527,2.523 -1.683,2.722c-0.324,0.412 -0.979,0.292 -1.331,0.674c-0.406,0.442 -0.433,1.217 -0.827,1.673c-0.431,0.498 -0.808,0.058 -5.216,6.158c-5.581,7.723 -8.481,13.898 -12.259,19.46c-20.986,30.89 -20.197,31.504 -22.099,34.113c-5.81,7.967 -5.189,8.389 -10.829,16.383c-1.511,2.142 -0.988,2.4 -2.038,4.809c-0.203,0.467 -0.823,0.508 -1.113,0.911c-20.905,29.011 -21.251,28.622 -26.004,37.305c-7.385,13.493 -37.792,54.331 -41.472,64.689c-1.851,5.208 -7.411,7.393 -10.57,14.195c-1.642,3.535 -10.87,12.683 -14.672,21.418c-3.723,8.554 -38.581,57.153 -42.054,64.221c-3.718,7.568 -4.286,7.063 -8.728,14.032c-7.03,11.03 -8.097,9.944 -15.052,21.098c-15.838,25.398 -16.472,24.821 -17.83,27.041c-7.735,12.641 -8.475,11.917 -12.661,18.99c-7.313,12.357 -22.145,33.71 -24.907,38.332c-2.902,4.855 -10.295,12.805 -12.705,16.542c-6.055,9.391 -24.227,32.608 -32.377,44.413c-5.926,8.582 -25.66,30.058 -26.817,31.025c-0.335,0.28 -9.968,7.58 -3.81,-4.021c3.371,-6.35 7.392,-16.815 12.078,-24.201c1.144,-1.802 0.018,-2.217 1.041,-4.118c0.239,-0.445 0.983,-0.102 1.312,-0.465c0.44,-0.486 0.498,-1.281 0.814,-1.88c0.502,-0.951 4.943,-9.362 6.679,-11.596c0.279,-0.359 0.823,-0.341 1.102,-0.7c0.185,0.338 2.316,4.231 2.316,4.231c3.766,-0.125 14.913,-22.749 24.974,-37.58c0.799,-1.177 0.665,-1.251 9.564,-15.075c62.906,-97.712 66.85,-101.207 78.594,-120.558c5.536,-9.123 24.02,-35.359 46.707,-71.045c1.174,-1.847 1.477,-1.57 15.09,-22.74c10.922,-16.984 66.343,-100.676 69.83,-106.651c0.348,-0.596 58.909,-89.422 66.834,-102.618c3.265,-5.436 11.727,-16.837 50.504,-76.035c27.803,-42.444 32.181,-47.161 61.166,-92.485c14.44,-22.58 15.217,-21.822 29.478,-44.551c3.379,-5.386 26.589,-40.366 28.912,-43.867c35.164,-52.997 225.493,-344.354 229.456,-351.133c3.658,-6.258 39.42,-59.198 52.768,-80.641c3.738,-6.005 4.442,-5.283 47.976,-74.033c16.151,-25.506 16.921,-25.301 17.569,-31.188Z" style="fill:#e31f27;"/><path d="M1004.283,66.912c1.124,2.343 11.248,23.454 10.312,31.25c-0.104,0.866 -0.579,1.637 -0.684,2.503c-0.25,2.051 1.768,7.354 1.593,11.957c-0.32,8.428 0.517,8.508 -1.399,16.692c-0.216,0.924 -1.75,22.487 -14.516,43.181c-2.684,4.35 -3.303,3.931 -4.756,9.039c-0.859,3.02 -6.928,9.65 -7.615,10.399c-1.126,-0.591 -1.456,-2.463 -2.582,-3.054c-1.624,-0.851 -0.2,3.274 -18.638,12.307c-11.261,5.517 -11.539,4.32 -23.262,8.294c-1.815,0.335 -11.058,2.039 -22.975,-0.288c-12.941,-2.528 -12.35,-4.967 -25.306,-7.434c-6.403,-1.219 -15.941,-13.544 -16.991,-14.236c-5.535,-3.649 -6.303,-3.307 -8.049,-10.307c-0.627,-2.511 -1.038,-2.183 -1.404,-2.952c-5.778,-10.349 -4.653,-11.011 -10.29,-21.515c-10.441,-18.095 -9.601,-32.599 -6.862,-52.09c0.708,-5.037 6.742,-26.25 12.982,-35.428c0.189,-0.278 19.261,-34.978 60.183,-41.086c22.049,-3.291 58.775,7.303 80.26,42.771Z" style="fill:#eec765;"/><path d="M902.65,40.04c0.664,-0.066 1.328,-0.132 1.992,-0.199c1.208,0.717 1.472,2.801 2.681,3.518c0.643,0.382 1.368,-0.758 2.09,-0.689c0.768,0.073 1.358,0.878 2.106,1.089c0.705,0.199 1.552,0.541 2.177,0.118c1.351,-0.914 0.483,-4.431 6.124,-3.691c10.75,1.41 10.732,1.334 20.984,0.564c5.653,-0.425 5.838,1.929 6.369,2.22c0.435,0.239 0.65,-1.094 5.96,1.109c0.273,0.113 0.121,0.766 0.391,0.888c2.827,1.279 3.13,-0.092 5.829,1.482c0.297,0.173 0.202,0.82 0.501,0.989c1.143,0.644 2.495,0.698 3.637,1.344c0.334,0.189 0.315,0.819 0.62,1.064c1.543,1.24 1.895,0.163 3.474,1.361c0.354,0.268 0.293,0.97 0.631,1.264c0.407,0.354 0.84,-0.726 5.651,3.422c3.478,2.998 6.529,7.94 7.006,8.713c3.988,4.201 3.576,4.607 3.948,4.931c0.428,0.373 1.157,0.04 1.569,0.436c0.432,0.414 0.25,1.382 0.711,1.752c0.494,0.397 1.373,-0.228 1.797,0.263c0.439,0.508 -0.109,1.543 0.26,2.118c1.184,1.846 3.11,2.981 4.23,4.879c0.391,0.662 -0.225,1.668 0.065,2.395c0.394,0.988 1.506,1.458 1.869,2.461c0.273,0.755 -0.152,1.634 -0.09,2.448c0.262,3.473 1.367,3.091 1.973,7.215c1.312,8.938 9.35,30.914 -3.682,59.967c-1.965,4.381 -2.259,4.167 -2.419,4.551c-0.283,0.676 0.175,1.628 -0.209,2.236c-0.316,0.5 -1.132,0.154 -1.55,0.546c-0.406,0.38 -0.419,1.112 -0.733,1.593c-0.594,0.91 -1.583,1.509 -1.973,2.552c-0.284,0.76 0.533,1.822 0.091,2.477c-0.385,0.571 -1.37,-0.225 -1.888,0.187c-0.46,0.366 -0.231,1.312 -0.6,1.793c-0.324,0.423 -0.981,0.333 -1.333,0.726c-0.391,0.435 -0.408,1.191 -0.788,1.639c-0.34,0.401 -0.952,0.398 -1.284,0.807c-0.358,0.441 -0.303,1.216 -0.691,1.623c-0.406,0.425 -1.169,0.233 -1.534,0.704c-0.364,0.47 -0.006,1.405 -0.418,1.819c-0.456,0.458 -1.263,0.052 -1.789,0.4c-0.851,0.562 -1.417,1.564 -2.202,2.239c-3.067,2.636 -5.812,4.297 -6.344,4.619c-2.389,1.445 -1.99,1.984 -2.193,2.106c-0.601,0.358 -1.369,-0.063 -2.031,0.102c-1.971,0.491 -2.059,1.807 -2.25,1.914c-0.595,0.333 -1.33,0.106 -1.971,0.3c-5.841,1.775 -6.35,3.838 -16.499,5.613c-11.381,0.497 -15.449,-0.586 -16.773,-0.394c-0.776,0.112 -1.318,1.093 -2.094,1.205l-2.09,-0.443c-8.19,-3.282 -8.261,-2.801 -16.583,-5.849c-3.846,-1.408 -7.249,-4.474 -8.235,-4.861c-2.2,-0.863 -2.019,-1.144 -3.902,-2.739c-5.522,-4.678 -5.766,-4.243 -6.23,-4.67c-0.397,-0.366 -0.28,-1.179 -0.645,-1.586c-0.375,-0.418 -1.052,-0.323 -1.436,-0.73c-0.38,-0.404 -0.355,-1.162 -0.731,-1.573c-0.382,-0.419 -1.075,-0.343 -1.43,-0.793c-0.228,-0.289 0.104,-0.873 -1.445,-3.074c-5.456,-7.751 -5.012,-8.002 -6.213,-9.961c-2.139,-3.491 -2.484,-3.076 -2.64,-3.392c-0.326,-0.66 0.062,-1.594 -0.267,-2.252c-0.48,-0.961 -1.621,-1.368 -2.039,-2.366c-0.304,-0.726 0.18,-1.625 0.04,-2.414c-0.261,-1.463 -0.642,-2.921 -1.229,-4.255c-0.141,-0.321 -0.73,-0.137 -0.849,-0.469c-1.168,-3.261 0.264,-3.526 -0.797,-6.879c-0.307,-0.971 -1.345,-1.518 -1.589,-2.512c-0.01,-0.04 0.536,-2.093 0.226,-4.852c-2.321,-20.64 -0.44,-22.096 1.618,-30.892c1.445,-6.173 0.894,-6.254 1.022,-6.785c0.076,-0.316 0.599,-0.211 0.745,-0.493c0.493,-0.947 1.931,-7.972 6.182,-14.444c3.665,-5.58 2.445,-6.244 2.792,-6.684c0.38,-0.482 1.277,0.124 1.681,-0.334c0.433,-0.49 -0.042,-1.566 0.409,-2.034c0.445,-0.463 1.368,0.232 1.793,-0.255c0.448,-0.514 -0.071,-1.562 0.303,-2.148c1.148,-1.799 2.72,-3.19 4.103,-4.758c0.494,-0.56 5.769,-6.539 6.351,-6.8c0.744,-0.334 1.647,0.687 2.381,0.328c0.762,-0.373 0.817,-1.755 1.529,-2.24c0.804,-0.548 1.879,-0.275 2.748,-0.675c0.343,-0.158 0.406,-0.776 0.749,-0.934c0.64,-1.639 1.28,-3.277 1.919,-4.916c0.121,-1.685 0.242,-3.37 0.363,-5.055Z" style="fill:#d9252d;"/><path d="M865.099,210.86c-0.648,5.888 -1.418,5.682 -17.569,31.188c-43.533,68.75 -44.238,68.027 -47.976,74.033c-13.347,21.444 -49.109,74.384 -52.768,80.641c-3.963,6.779 -194.292,298.136 -229.456,351.133c-2.323,3.501 -25.533,38.481 -28.912,43.867c-14.26,22.729 -15.038,21.971 -29.478,44.551c-28.985,45.324 -33.363,50.041 -61.166,92.485c-38.777,59.198 -47.239,70.599 -50.504,76.035c-7.925,13.196 -66.486,102.021 -66.834,102.618c-3.488,5.974 -58.908,89.667 -69.83,106.651c-13.613,21.17 -13.916,20.893 -15.09,22.74c-22.687,35.686 -41.171,61.922 -46.707,71.045c-11.744,19.352 -15.688,22.847 -78.594,120.558c-8.899,13.823 -8.765,13.897 -9.564,15.075c-10.061,14.831 -21.208,37.455 -24.974,37.58c0,0 -2.131,-3.892 -2.316,-4.231c4.772,-4.934 14.855,-25.261 31.284,-50.2c28.919,-43.899 28.513,-44.217 31.091,-47.977c11.842,-17.269 171.163,-261.02 192.476,-293.18c29.967,-45.219 29.358,-45.673 32.033,-49.538c15.611,-22.549 27.699,-42.968 28.244,-43.812c4.577,-7.085 3.45,-7.696 3.861,-8.281c0.325,-0.463 1.062,-0.042 1.541,-0.272c1.719,-0.823 4.15,-7.593 7.855,-12.298c6.767,-8.592 6.4,-8.873 44.531,-66.257c67.318,-101.307 66.645,-101.801 95.994,-145.638c18.387,-27.463 22.99,-35.659 27.577,-42.574c27.903,-42.063 27.541,-42.257 55.291,-84.442c2.872,-4.366 35.455,-53.899 35.874,-54.593c16.803,-27.841 102.184,-156.579 106.105,-162.638c9.589,-14.814 104.985,-160.69 107.862,-165.925c0.57,-0.905 1.139,-1.809 1.709,-2.714c18.384,-29.287 18.75,-28.927 20.225,-31.563c4.715,-8.428 7.993,-4.112 8.183,-4.068Z" style="fill:#f9c5b9;"/><path d="M917.723,35.907c2.766,-0.265 5.531,-0.529 8.297,-0.794c12.411,0.124 12.359,0.049 14.802,0.229c0.697,0.051 1.389,0.296 2.085,0.23c0.678,-0.064 1.297,-0.746 1.967,-0.616c2.187,0.426 1.901,1.318 4.19,1.752c3.945,0.748 21.831,6.767 35.407,21.296c3.907,4.638 14.572,22.135 17.089,30.655c12.352,41.802 -2.294,68.042 -11.667,82.675c-9.624,15.026 -29.497,23.459 -32.42,24.699c-33.442,14.191 -71.322,-0.931 -87.78,-35.738c-1.938,-4.099 -12.401,-26.227 -9.8,-57.142c0.275,-3.269 0.944,-3.486 1.461,-7.256c0.207,-1.506 0.163,-3.076 0.573,-4.527c0.098,-0.349 0.796,-0.155 0.851,-0.516c0.088,-0.583 -0.675,-1.109 -0.519,-1.674c0.028,-0.103 0.351,0.813 1.11,-0.473c0.567,-0.96 -0.133,-1.182 0.437,-2.148c0.344,-0.559 0.608,-0.023 0.974,-0.616c0.174,-0.283 0.09,-0.304 1.22,-4.099c0.187,-0.331 0.682,-0.311 0.869,-0.642c0.166,-0.294 0.082,-0.31 1.109,-4.18c0.222,-0.363 0.791,-0.291 1.013,-0.655c0.356,-0.582 0.246,-1.439 0.616,-2.01c0.284,-0.438 1.317,-0.095 1.72,-2.713c0.117,-0.758 -0.305,-1.697 0.106,-2.307c0.354,-0.525 1.335,0.121 1.71,-0.385c0.417,-0.562 -0.21,-1.632 0.204,-2.197c0.369,-0.504 1.277,0.063 1.693,-0.391c0.428,-0.469 0.058,-1.463 0.458,-1.963c0.367,-0.459 1.169,-0.123 1.559,-0.556c0.404,-0.449 0.19,-1.347 0.577,-1.815c0.589,-0.712 0.972,0.152 1.5,-0.695c0.985,-1.583 0.138,-1.936 1.108,-3.496c0.697,-0.792 1.394,-1.584 2.092,-2.376c0.545,-0.22 1.11,-0.371 1.656,-0.591c1.856,-0.748 1.242,-1.448 2.084,-2.395c0.415,-0.467 1.252,0.346 2.733,-3.796c0.482,-0.402 1.2,-0.302 1.682,-0.704c0.325,-0.271 0.221,-1.039 0.6,-1.197c0.38,-0.159 0.771,0.652 1.143,0.47c0.384,-0.188 0.205,-1.001 0.535,-1.293c0.504,-0.445 1.28,-0.327 1.792,-0.76c0.303,-0.256 0.2,-0.883 0.484,-1.165c0.284,-0.282 1.807,-1.794 3.982,-2.859c1.752,-0.857 1.7,-0.739 3.625,-1.138c-0.121,1.685 -0.242,3.37 -0.363,5.055c-0.753,0.694 -0.908,-0.979 -1.632,-0.311c-0.216,0.199 -1.635,1.508 -1.74,3.422c-0.045,0.815 1.498,0.989 1.453,1.805c-0.343,0.158 -0.406,0.776 -0.749,0.934c-0.869,0.4 -1.943,0.127 -2.748,0.675c-0.712,0.485 -0.767,1.867 -1.529,2.24c-0.735,0.359 -1.637,-0.662 -2.381,-0.328c-0.582,0.261 -5.857,6.24 -6.351,6.8c-1.383,1.568 -2.955,2.959 -4.103,4.758c-0.374,0.586 0.145,1.634 -0.303,2.148c-0.425,0.487 -1.348,-0.208 -1.793,0.255c-0.451,0.469 0.023,1.544 -0.409,2.034c-0.403,0.457 -1.3,-0.149 -1.681,0.334c-0.347,0.44 0.873,1.104 -2.792,6.684c-4.251,6.472 -5.689,13.497 -6.182,14.444c-0.147,0.282 -0.669,0.177 -0.745,0.493c-0.128,0.531 0.423,0.613 -1.022,6.785c-2.059,8.796 -3.939,10.252 -1.618,30.892c0.31,2.759 -0.235,4.812 -0.226,4.852c0.244,0.994 1.282,1.541 1.589,2.512c1.06,3.353 -0.371,3.618 0.797,6.879c0.119,0.332 0.708,0.148 0.849,0.469c0.587,1.335 0.968,2.792 1.229,4.255c0.141,0.789 -0.343,1.687 -0.04,2.414c0.418,0.998 1.559,1.405 2.039,2.366c0.329,0.658 -0.059,1.592 0.267,2.252c0.156,0.316 0.501,-0.1 2.64,3.392c1.201,1.96 0.757,2.21 6.213,9.961c1.549,2.201 1.218,2.785 1.445,3.074c0.354,0.45 1.047,0.374 1.43,0.793c0.375,0.411 0.35,1.168 0.731,1.573c0.383,0.408 1.061,0.313 1.436,0.73c0.366,0.407 0.248,1.22 0.645,1.586c0.464,0.427 0.708,-0.008 6.23,4.67c1.883,1.595 1.702,1.876 3.902,2.739c0.986,0.387 4.389,3.453 8.235,4.861c8.322,3.047 8.393,2.567 16.583,5.849l2.09,0.443c0.888,0.267 1.132,1.872 2.02,2.139c0.015,0.005 1.79,-0.918 4.22,-1.298c10.189,-1.594 9.865,1.97 10.66,1.594c1.065,-0.503 0.901,-2.744 1.966,-3.247c10.149,-1.774 10.658,-3.837 16.499,-5.613c0.64,-0.195 1.376,0.032 1.971,-0.3c0.191,-0.107 0.28,-1.423 2.25,-1.914c0.662,-0.165 1.431,0.256 2.031,-0.102c0.203,-0.121 -0.196,-0.66 2.193,-2.106c0.532,-0.322 3.277,-1.982 6.344,-4.619c0.785,-0.675 1.352,-1.676 2.202,-2.239c0.526,-0.348 1.333,0.059 1.789,-0.4c0.412,-0.414 0.054,-1.349 0.418,-1.819c0.365,-0.472 1.128,-0.28 1.534,-0.704c0.389,-0.406 0.333,-1.182 0.691,-1.623c0.332,-0.409 0.945,-0.406 1.284,-0.807c0.379,-0.448 0.397,-1.203 0.788,-1.639c0.352,-0.393 1.009,-0.303 1.333,-0.726c0.369,-0.481 0.14,-1.427 0.6,-1.793c0.518,-0.412 1.503,0.384 1.888,-0.187c0.442,-0.655 -0.375,-1.717 -0.091,-2.477c0.391,-1.043 1.379,-1.642 1.973,-2.552c0.314,-0.481 0.327,-1.212 0.733,-1.593c0.418,-0.392 1.234,-0.046 1.55,-0.546c0.384,-0.608 -0.074,-1.559 0.209,-2.236c0.161,-0.384 0.454,-0.17 2.419,-4.551c13.031,-29.053 4.994,-51.029 3.682,-59.967c-0.605,-4.124 -1.711,-3.742 -1.973,-7.215c-0.061,-0.814 0.364,-1.693 0.09,-2.448c-0.364,-1.003 -1.476,-1.473 -1.869,-2.461c-0.29,-0.727 0.326,-1.733 -0.065,-2.395c-1.12,-1.897 -3.046,-3.033 -4.23,-4.879c-0.369,-0.575 0.179,-1.61 -0.26,-2.118c-0.424,-0.491 -1.303,0.134 -1.797,-0.263c-0.461,-0.371 -0.279,-1.338 -0.711,-1.752c-0.412,-0.395 -1.141,-0.063 -1.569,-0.436c-0.372,-0.324 0.04,-0.73 -3.948,-4.931c-0.477,-0.773 -3.528,-5.715 -7.006,-8.713c-4.811,-4.148 -5.244,-3.068 -5.651,-3.422c-0.338,-0.294 -0.277,-0.995 -0.631,-1.264c-1.579,-1.198 -1.93,-0.121 -3.474,-1.361c-0.305,-0.245 -0.285,-0.875 -0.62,-1.064c-1.142,-0.646 -2.495,-0.7 -3.637,-1.344c-0.299,-0.169 -0.204,-0.816 -0.501,-0.989c-2.7,-1.573 -3.002,-0.203 -5.829,-1.482c-0.27,-0.122 -0.119,-0.775 -0.391,-0.888c-5.31,-2.204 -5.524,-0.87 -5.96,-1.109c-0.531,-0.291 -0.715,-2.644 -6.369,-2.22c-10.252,0.77 -10.234,0.846 -20.984,-0.564c-5.642,-0.74 -4.773,2.777 -6.124,3.691c-0.625,0.423 -1.472,0.08 -2.177,-0.118c-0.748,-0.211 -1.338,-1.016 -2.106,-1.089c-0.723,-0.069 -1.447,1.07 -2.09,0.689c-1.208,-0.717 -1.472,-2.801 -2.681,-3.518c0.343,-0.207 0.278,-0.916 0.621,-1.123c1.813,-1.095 2.029,0.195 3.975,-0.634c0.266,-0.114 0.151,-0.793 0.432,-0.839c0.544,-0.09 1.045,0.6 1.589,0.505c1.346,-0.237 1.088,-0.834 2.397,-1.207c2.046,-0.583 2.056,-0.061 4.069,-0.635Z" style="fill:#7f1f12;"/><path d="M865.099,210.86c-0.19,-0.045 -3.468,-4.36 -8.183,4.068c-1.475,2.637 -1.841,2.277 -20.225,31.563c-0.79,-2.138 -2.143,-0.603 -2.923,-2.712c-0.062,-0.169 -0.083,-0.225 1.26,-1.786c1.353,-1.572 3.226,-2.651 4.196,-4.556c0.419,-0.823 -0.791,-1.943 -0.445,-2.809c0.425,-1.064 1.659,-1.378 2.427,-2.151c2.792,-2.812 2.522,-4.069 3.029,-5.395c1.003,-2.624 1.403,-2.188 3.324,-4.025c3.27,-3.129 2.138,-3.909 3.017,-5.516l1.648,-2.385c0.473,-0.491 5.514,-5.718 5.728,-6.365c0.28,-0.85 -0.639,-1.883 -0.297,-2.703c0.238,-0.57 1.218,-0.009 1.613,-0.451c0.258,-0.289 -0.41,-0.754 2.409,-4.361c2.034,-2.603 2.228,-2.374 3.646,-5.476c0.791,-1.728 0.806,-1.742 2.34,-2.514c2.207,-1.111 1.992,0.351 4.522,2.035c1.511,1.006 1.741,0.461 7.675,5.978c1.994,1.854 1.967,1.887 2.301,2.06c3.509,1.82 2.803,3.012 6.313,4.709c5.552,2.683 5.559,2.566 5.997,2.887c0.396,0.291 0.444,0.963 0.768,1.353c1.833,2.202 0.796,2.561 -0.54,5.169c-5.347,10.435 -8.409,10.747 -18.946,28.527c-5.415,9.137 -38.919,58.816 -42.344,63.894c-12.799,18.977 -12.832,18.81 -25.204,38.089c-12.386,19.3 -13.218,18.529 -25.164,38.253c-2.736,4.518 -20.184,29.21 -21.964,31.728c-0.229,0.324 -0.013,0.371 -1.94,4.707c-0.392,0.882 -1.156,1.503 -1.548,2.385c-1.623,1.907 -1.951,1.472 -3.529,4.146c-1.894,3.21 -15.949,23.528 -16.306,24.267c-0.603,1.249 -0.023,1.351 -0.562,2.595c-0.437,1.007 -0.809,0.567 -1.272,1.634l-1.984,3.136c-6.698,8.564 -6.686,8.461 -6.953,9.002c-0.936,1.899 -0.22,2.509 -2.542,4.243c-2.696,2.013 -1.607,3.116 -24.257,36.686c-0.931,1.379 -1.735,2.865 -2.66,4.249c-3.328,4.977 -3.793,4.418 -4.04,4.875c-0.472,0.871 -0.288,2.061 -0.714,2.962c-1.129,2.392 -1.589,2.387 -1.81,2.385c-2.072,-0.02 -1.096,-2.414 -3.168,-2.434c1.959,-2.95 1.598,-3.2 24.011,-37.278c1.497,-2.277 3.135,-2.729 7.376,-10.395c6.62,-11.965 7.787,-10.982 57.339,-87.513c4.356,-6.728 4.626,-6.412 9.028,-13.098c1.974,-2.999 7.541,-14.095 17.437,-28.017c1.054,-1.483 8.472,-11.918 12.464,-19.167c2.1,-3.813 2.663,-3.275 29.811,-44.852c4.383,-6.713 4.573,-6.412 9.009,-13.142c0.663,-1.006 0.468,-1.044 7.893,-12.908c5.107,-8.158 5.262,-7.924 10.78,-15.747c0.133,-0.189 9.661,-10.464 0.529,-25.228c-2.355,-3.807 -2.942,-3 -4.428,-4.281c-0.542,-0.467 -0.758,-1.595 -1.435,-1.65c-0.919,-0.075 -1.589,1.404 -2.508,1.329Z" style="fill:#a81821;"/><path d="M896.919,167.232c24.75,11.304 39.769,14.592 71.058,-6.872c2.68,-1.839 9.671,-9.066 11.764,-12.644c2.594,-4.436 3.547,-7.97 6.01,-3.425c7.043,12.996 -36.758,61.057 -76.732,38.295c-13.123,-7.473 -13.267,-7.094 -14.406,-7.744c-7.755,-4.416 -0.966,-8.377 0.134,-8.407c0.76,-0.021 1.412,0.817 2.172,0.796Z" style="fill:#e0343d;"/><path d="M737.571,97.872c1.327,-0.18 2.653,-0.359 3.98,-0.539c1.045,-0.177 11.054,-1.876 13.055,-2.314c20.273,-4.438 11.359,-32.83 16.784,-33.02c5.623,-0.196 -1.511,25.24 12.478,31.884c12.031,5.714 21.503,2.347 21.406,6.839c-0.067,3.148 -10.771,1.917 -19.301,4.206c-15.333,4.114 -11.4,33.358 -13.432,35.233c-3.615,3.336 -4.141,-11.39 -4.309,-13.405c-2.354,-28.211 -14.398,-20.535 -26.622,-25.251c-0.697,-0.269 -6.741,-0.439 -5.395,-3.074c0.242,-0.474 1.115,-0.084 1.357,-0.558Z" style="fill:#fbcd5a;"/><path d="M909.373,76.641c-1.769,0.515 -5.569,2.692 -10.417,0.181c-4.356,-2.256 -2.893,-3.718 -6.116,-14.2c17.338,-17.199 45.905,-22.128 66.554,-9.19l-1.215,1.909c-0.512,0.512 -0.326,1.614 -0.838,2.126c-0.666,0.666 -0.904,-0.291 -1.653,0.364c-1.115,0.976 -0.487,1.51 -1.581,2.467c-1.258,-1.86 -0.847,-5.042 -13.375,-6.889c-2.221,-0.327 -14.757,-1.133 -16.187,1.952c-0.613,1.322 1.499,3.311 2.068,4.502c4.318,9.032 0.636,15.803 -4.935,23.915c-2.091,3.045 -2.59,2.331 -3.812,3.431c-0.526,-0.644 -1.713,-0.024 -2.239,-0.669c-1.699,-2.083 -0.264,-3.004 -2.072,-4.897c-2.267,-2.372 -2.061,-2.465 -4.183,-5.003Z" style="fill:#f9cec8;"/><path d="M102.708,1223.519c-12.737,-1.917 -14.361,-1.547 -14.343,-4.096c0.023,-3.21 6.814,-1.54 18.526,-4.087c17.395,-3.782 10.105,-31.374 14.507,-31.722c3.237,-0.256 3.078,8.324 3.181,9.678c1.694,22.232 5.785,22.784 26.299,25.584c3.497,0.477 2.387,4.035 1.557,4.475c-0.258,0.137 -0.224,0.081 -6.059,0.332c-23.495,1.011 -20.746,12.17 -22.939,31.44c-0.512,4.498 -3.863,4.553 -4.188,0.036c-1.475,-20.529 0.933,-26.749 -16.54,-31.639Z" style="fill:#fad062;"/><path d="M59.521,1298.395c-3.493,17.923 -0.87,21.679 -5.073,21.311c-5.159,-0.453 6.406,-25.372 -14.591,-31.114c-2.149,-0.588 -16.729,-0.908 -14.646,-4.841c1.714,-3.236 19.849,0.789 24.873,-9.647c4.689,-9.74 1.301,-20.668 6.781,-19.445c2.73,0.61 -3.248,25.371 14.251,27.53c0.828,0.102 9.478,1.169 10.27,1.987c0.283,0.292 1.993,3.768 -1.847,4.188c-11.683,1.279 -14.994,-0.461 -20.018,10.031Z" style="fill:#fbd369;"/><path d="M892.839,62.622c3.224,10.482 1.761,11.943 6.116,14.2c4.848,2.512 8.649,0.334 10.417,-0.181c2.122,2.538 1.916,2.631 4.183,5.003c1.809,1.893 0.373,2.814 2.072,4.897c0.526,0.644 1.713,0.024 2.239,0.669l-2.194,0.617c-4.881,3.207 -4.74,3.784 -10.308,4.286c-10.073,0.908 -13.337,0.442 -14.487,0.278c-0.055,-0.258 -0.57,-0.096 -0.624,-0.354c-0.012,-0.059 -1.567,-9.651 -1.703,-10.49c-0.023,-1.023 1.775,-1.306 1.752,-2.329c-0.066,-2.928 -1.627,-2.693 -1.864,-2.658c-0.359,0.054 -0.141,0.295 -2.171,4.53c-2.002,4.055 -2.06,3.94 -3.778,8.128c-0.876,1.974 -8.276,18.656 -7.695,26.226c0.155,2.017 0.251,2.249 -1.312,3.336c-0.872,0.606 -1.863,0.969 -2.735,1.576c-1.011,-6.234 -1.754,-6.261 -0.265,-12.456c7.795,-32.443 19.473,-42.735 22.357,-45.276Z" style="fill:#f88981;"/><path d="M1000.302,244.16c1.239,-4.687 1.284,-4.643 1.338,-5.062c0.834,-6.409 0.555,-6.333 0.64,-6.878c0.061,-0.39 3.553,-8.709 4.178,1.354c0.175,2.81 0.398,2.718 0.616,5.583c1.477,19.341 21.566,13.674 23.336,16.739c2.383,4.127 -12.035,4.39 -12.324,4.424c-15.035,1.782 -10.321,23.099 -12.829,26.122c-0.183,0.221 -1.968,2.372 -3.333,-0.053c-0.38,-0.674 -0.187,-0.722 -0.32,-9.251c-0.421,-27.02 -23.609,-13.967 -23.436,-21.482c0.151,-6.563 15.672,4.941 22.133,-11.497Z" style="fill:#f8ca59;"/><path d="M694.549,163.954c-6.771,-2.734 -7.001,-1.37 -11.843,-2.748c-8.835,-2.514 2.32,-4.03 2.674,-4.078c16.286,-2.214 14.307,-7.386 15.731,-18.051c0.055,-0.41 0.739,-5.532 3.708,-2.998c0.817,0.698 0.945,7.06 0.957,7.681c0.309,15.441 10.954,13.265 17.467,14.541c2.207,0.433 3.863,4.492 -1.905,4.603c-2.095,0.04 -4.19,-0.064 -6.284,-0.018c-14.234,0.316 -7.611,20.88 -12.577,20.899c-1.615,0.006 -1.619,-0.333 -1.921,-2.099c-1.431,-8.356 3.559,-11.823 -6.007,-17.732Z" style="fill:#facf61;"/><path d="M769.917,207.769c-2.082,-3.717 -1.396,-4.497 -4.903,-6.409c-2.185,-1.191 -16.96,0.264 -11.986,-4.721c0.602,-0.604 0.686,-0.339 5.707,-0.94c17.091,-2.047 10.127,-15.609 13.155,-18.088c0.308,-0.252 2.539,-0.094 2.719,0.153c0.677,0.929 0.33,1.017 0.605,6.501c0.592,11.835 10.991,11.128 15.053,11.812c10.16,1.71 0.365,4.855 0.024,4.87c-9.605,0.444 -11.793,-1.136 -15.145,9.204c-0.729,2.249 -0.227,2.279 -0.411,4.673c-0.031,0.399 -0.296,3.84 -1.448,4.722c-3.116,2.383 -3.314,-10.36 -3.368,-11.776Z" style="fill:#fad26d;"/><path d="M594.839,600.621c0.508,1.931 3.472,2.064 3.98,3.995c0.29,1.103 -1.464,1.632 -2.357,2.17c-1.079,0.65 -2.99,0.058 -3.467,1.339c-0.468,1.257 2.079,2.412 1.604,3.666c-1.677,4.429 -4.384,1.957 -5.639,6.476c-0.29,1.045 0.092,2.372 -0.495,3.24c-1.219,1.803 -3.182,2.766 -4.627,4.337c-1.854,2.015 -0.053,2.918 -1.563,5.182c-0.293,0.439 -0.606,-0.055 -4.671,4.376c-0.752,0.82 -0.326,1.071 -1.13,1.947c-0.223,0.44 -2.786,5.503 -2.786,5.503c-0.614,0.896 -1.661,1.295 -2.331,2.137c-2.043,2.569 -0.261,3.925 -3.918,7.273c-0.809,0.741 -2.059,1.072 -2.472,2.159c-0.343,0.902 0.882,1.97 0.557,2.881c-0.376,1.054 -4.159,4.17 -4.55,4.491c-2.143,1.764 -2.803,1.241 -3.437,4.179c-0.224,1.036 0.016,2.277 -0.529,3.144c-0.605,0.963 -1.848,1.123 -2.638,1.892c-0.602,0.586 -0.692,2.225 -1.478,2.12c-1.404,-0.189 -2.065,-2.597 -3.469,-2.786c2.984,-4.46 2.281,-4.956 36.57,-56.376c4.491,-6.735 4.273,-6.801 8.845,-13.347Z" style="fill:#74080e;"/><path d="M915.238,272.098c1.279,-0.235 2.558,-0.471 3.837,-0.706c2.592,-0.58 2.481,-0.66 5.023,-1.124c8.541,-1.558 6.994,-15.744 8.424,-16.754c0.482,-0.34 3.099,-1.963 3.397,7.102c0.522,15.921 18.964,7.856 15.494,14.272c-1.19,2.2 -1.731,1.131 -8.655,1.535c-3.311,0.193 -2.926,1.2 -5.527,3.497c-0.86,3.675 -1.202,3.521 -1.705,7.29c-0.667,4.996 1.067,7.829 -3.395,7.274c-2.865,-0.356 1.358,-11.238 -4.429,-16.641c-2.117,-1.977 -2.397,-1.195 -10.338,-2.438c-2.778,-0.435 -2.108,-3.282 -2.125,-3.308Z" style="fill:#fbdd87;"/><path d="M987.218,191.932c-20.3,18.889 -41.388,21.782 -42.257,21.067c-1.028,-0.846 -1.197,-2.674 -2.226,-3.52c11.723,-3.973 12.001,-2.777 23.262,-8.294c18.438,-9.033 17.014,-13.158 18.638,-12.307c1.126,0.591 1.456,2.463 2.582,3.054Z" style="fill:#af7419;"/><path d="M650.293,580.162c0.295,1.039 1.726,1.289 2.021,2.329c0.148,0.521 -18.899,29.279 -23.471,35.347c-0.638,0.847 -1.44,1.55 -1.955,2.499c-0.442,0.816 -0.075,2.38 -0.866,2.702c-1.21,0.493 -2.579,-1.3 -3.789,-0.808c0.701,-1.36 11.209,-18.324 12.192,-19.911c2.575,-4.158 3.382,-3.257 5.881,-7.386c0.523,-0.864 0.564,-2.024 1.065,-2.904c1.001,-1.756 1.73,-0.607 2.869,-2.139c0.152,-0.204 -0.223,-0.455 1.532,-2.858c0.386,-0.528 0.124,-0.648 4.52,-6.871Z" style="fill:#ac1821;"/><path d="M959.393,53.431c0.524,0.331 4.061,2.562 6.551,4.136l-2.185,3.668c-0.28,0.115 -3.501,1.433 -3.501,1.433c-1.075,2.791 -0.61,3.186 1.748,4.474c0.888,0.485 0.951,-0.396 1.822,0.043c0,0 3.99,4.987 4.337,5.421c-3.727,1.056 -3.603,1.554 -6.459,1.268c-0.483,-0.048 -3.046,-0.305 -5.502,-2.891c-3.86,-4.064 -2.953,-4.815 -2.097,-10.684c1.093,-0.957 0.466,-1.491 1.581,-2.467c0.748,-0.655 0.987,0.302 1.653,-0.364c0.512,-0.512 0.326,-1.614 0.838,-2.126l1.215,-1.909Z" style="fill:#f59a93;"/><path d="M584.688,679.692l1.629,2.979c-6.153,6.806 -10.381,16.829 -18.554,27.803c-5.694,7.645 -5.656,7.585 -5.693,7.654c-0.438,0.819 -0.068,2.37 -0.855,2.708c-1.193,0.512 -2.578,-1.233 -3.771,-0.721c0.139,-0.259 1.74,-3.232 1.74,-3.232c0.971,-1.345 1.116,-1.133 1.906,-2.548c2.68,-4.797 12.501,-19.348 12.73,-19.737l1.153,-1.797l1.754,-2.974l1.678,-2.385c3.462,-3.573 3.497,-3.431 6.282,-7.749Z" style="fill:#ab1520;"/><path d="M449.528,885.397c-0.058,0.329 0.726,1.828 -0.746,4.21c-6.586,10.661 -6.723,10.478 -17.789,27.038c-3.205,4.796 -3.873,4.111 -6.782,9.091c-0.691,1.182 0.068,1.385 -0.445,2.619c-0.458,1.101 -0.913,0.65 -1.38,1.773l-2.509,-2.191c2.848,-4.187 6.662,-10.117 7.233,-11.004c0.496,-0.771 5.534,-8.605 6.055,-9.76c1.889,-4.184 8.704,-10.794 10.481,-14.289c0.185,-0.363 1.783,-3.507 2.543,-4.369c0.341,-0.386 0.972,-0.295 1.31,-0.685c0.63,-0.726 0.153,-0.97 0.803,-1.75c0.49,-0.587 0.701,-0.054 1.226,-0.683Z" style="fill:#ab1c23;"/><path d="M606.127,646.718l2.289,2.831c-9.188,11.005 -17.741,28.494 -22.101,33.122l-1.629,-2.979c5.155,-10.515 19.605,-30.443 21.44,-32.974Z" style="fill:#a51b23;"/><path d="M678.682,536.584l3.451,2.97c-0.633,0.677 -0.918,1.708 -1.551,2.385c-1.946,2.082 -2.164,1.758 -3.712,4.259c-0.723,1.168 -7.349,11.871 -8.76,14.824l-1.165,1.059l-2.758,-4.017c7.262,-11.686 8.473,-10.597 14.496,-21.479Z" style="fill:#a5171e;"/><path d="M965.944,57.567c7.416,6.514 10.638,10.431 2.22,15.038c-0.347,-0.434 -4.337,-5.421 -4.337,-5.421c-0.871,-0.439 -0.934,0.442 -1.822,-0.043c-2.358,-1.288 -2.822,-1.682 -1.748,-4.474c0,0 3.221,-1.318 3.501,-1.433l2.185,-3.668Z" style="fill:#f38d88;"/><path d="M857.719,152.745c5.637,10.504 4.512,11.166 10.29,21.515c-0.742,0.159 -0.86,1.667 -1.601,1.826c-1.776,0.381 -12.183,-18.017 -11.089,-20.678c0.474,-1.153 1.927,-1.51 2.401,-2.663Z" style="fill:#bf811a;"/><path d="M510.848,795.325c-10.716,16.685 -10.867,16.511 -11.76,17.99c-5.6,9.276 -6.912,7.304 -7.875,7.565c0.202,-0.35 2.528,-4.369 2.528,-4.369c2.799,-5.104 3.64,-4.342 6.353,-9.492c1.533,-2.91 1.491,-2.896 3.689,-5.192c0.404,-0.422 0.216,-0.519 2.936,-7.049l1.365,-0.766l2.764,1.312Z" style="fill:#ad1722;"/><path d="M777.076,100.383c-3.579,4.485 -5.6,6.662 -8.975,1.889c-1.397,-1.976 -0.699,-3.569 -0.577,-3.848c0.43,-0.981 1.423,-1.55 1.832,-2.543c0.501,-1.218 0.34,-2.7 0.831,-3.923c1.191,-2.968 2.65,0.094 2.756,0.316c0.485,1.017 0.366,2.299 0.774,3.359c0.172,0.447 0.307,0.261 3.359,4.751Z" style="fill:#fdf7da;"/><path d="M886.268,81.088l2.283,0.456c0.136,0.839 1.69,10.432 1.703,10.49c0.055,0.258 0.57,0.096 0.624,0.354c-4.522,-0.467 -4.558,-0.371 -8.389,-3.173c1.718,-4.187 1.776,-4.073 3.778,-8.128Z" style="fill:#f55b5c;"/><path d="M976.771,19.282c0.011,-1.256 -2.344,-6.521 5.77,-6.288c6.195,0.178 5.023,5.763 2.105,5.875c-3.712,0.142 -3.402,-1.181 -3.709,-1.156c-0.445,0.036 -0.504,0.942 -0.928,1.101c-1.033,0.389 -2.205,0.079 -3.239,0.468Z" style="fill:#f7df84;"/><path d="M742.505,162.777c1.426,-5.299 0.984,-5.696 2.214,-6.379c4.682,-2.601 3.122,11.37 -0.451,11.317c-2.914,-0.043 -1.53,-1.697 -1.763,-4.938Z" style="fill:#fdfaed;"/><path d="M123.467,1216.994c1.589,2.671 2.663,2.978 0.881,5.497c-2.561,3.621 -5.388,0.123 -5.697,-0.259c-1.521,-1.882 -0.422,-2.661 -0.38,-3.189c0.307,-3.85 1.836,-2.071 5.196,-2.049Z" style="fill:#fdf9e5;"/><path d="M57.712,1287.563c-0.447,0.175 -0.628,0.878 -1.075,1.053c-3.891,1.528 -6.937,-4.131 -3.922,-6.856c0.244,-0.221 2.033,-1.837 3.877,-0.384c2.578,2.031 1.582,2.691 1.119,6.187Z" style="fill:#fdfbee;"/><path d="M880.243,57.842c-0.97,1.559 -0.123,1.912 -1.108,3.496c-0.527,0.848 -0.911,-0.017 -1.5,0.695c-0.387,0.468 -0.173,1.366 -0.577,1.815c-0.39,0.433 -1.192,0.097 -1.559,0.556c-0.4,0.5 -0.03,1.494 -0.458,1.963c-0.415,0.455 -1.323,-0.113 -1.693,0.391c-0.414,0.565 0.213,1.635 -0.204,2.197c-0.375,0.506 -1.355,-0.141 -1.71,0.385c-0.412,0.61 0.011,1.548 -0.106,2.307c-0.404,2.618 -1.437,2.275 -1.72,2.713c-0.37,0.571 -0.26,1.428 -0.616,2.01c-0.222,0.363 -0.791,0.291 -1.013,0.655l-0.193,-2.48c0.373,-0.543 0.132,-1.445 0.505,-1.987c0.286,-0.417 1.013,-0.185 1.283,-0.616c1.05,-1.674 -0.088,-2.176 1.051,-3.839c0.211,-0.308 0.45,-0.001 3.136,-3.337c0.36,-0.448 0.355,-1.2 0.746,-1.613c0.379,-0.401 1.065,-0.27 1.43,-0.689c0.377,-0.432 0.242,-1.268 0.636,-1.68c0.403,-0.42 1.16,-0.163 1.55,-0.599c0.621,-0.693 -0.08,-1.049 0.547,-1.741c0.64,-0.707 0.935,0.105 1.574,-0.6Z" style="fill:#e3a649;"/><path d="M21.772,1310.915c0.866,-0.116 0.585,-0.701 1.393,-0.809c0.143,-0.019 1.123,-0.151 1.774,0.383c4.377,3.591 -8.122,9.772 -7.669,4.369c0.154,-1.831 0.742,-1.311 2.289,-1.883c1.589,-0.588 2.19,-2.038 2.214,-2.06Z" style="fill:#f6e79b;"/><path d="M942.911,194.016c-1.065,0.503 -0.901,2.744 -1.966,3.247c-0.795,0.375 -0.472,-3.188 -10.66,-1.594c-2.431,0.38 -4.205,1.303 -4.22,1.298c-0.888,-0.267 -1.132,-1.872 -2.02,-2.139c0.776,-0.112 1.318,-1.093 2.094,-1.205c1.324,-0.191 5.392,0.891 16.773,0.394Z" style="fill:#8f161c;"/><path d="M1002.151,253.942c0.473,-0.118 0.689,-0.878 1.162,-0.996c2.373,-0.59 3.5,1.031 3.692,1.308c3.217,4.629 -5.571,7.908 -5.367,1.491c0.02,-0.631 0.493,-1.171 0.513,-1.802Z" style="fill:#fdf8de;"/><path d="M958.01,236.878c1.6,-2.159 1.363,-3.844 3.572,-2.403c2.655,1.732 -0.369,7.929 -1.956,8.009c-3.376,0.169 -1.924,-1.814 -1.616,-5.606Z" style="fill:#fdf298;"/><path d="M69.133,1233.67c0.416,0.426 1.122,0.335 1.538,0.761c2.92,2.989 -3.242,6.929 -4.737,3.378c-0.975,-2.316 0.973,-3.704 1.218,-3.879c0.564,-0.402 1.418,0.142 1.982,-0.26Z" style="fill:#f9e46b;"/><path d="M809.141,148.902c-0.582,-0.512 -1.573,-0.017 -2.155,-0.529c-4.029,-3.544 4.864,-7.695 4.796,-2.374c-0.014,1.062 -0.776,1.9 -0.89,2.025c-0.726,0.798 -1.03,0.085 -1.751,0.878Z" style="fill:#f8d46d;"/><path d="M921.299,96.244c2.356,-4.61 2.145,-4.814 2.529,-4.948c0.491,-0.171 0.118,1.224 0.434,1.687c0.327,0.478 1.007,0.494 1.362,0.945c2.299,2.911 -0.759,6.655 -3.378,3.983c-0.433,-0.441 -0.515,-1.225 -0.947,-1.667Z" style="fill:#f16253;"/><path d="M868.284,2.951c0.723,-0.55 0.667,-1.967 1.39,-2.517c2.922,-2.223 5.171,4.78 2.466,5.51c-2.735,0.738 -2.799,-0.097 -3.857,-2.993Z" style="fill:#fade5f;"/><path d="M704.541,161.751c-0.607,-0.098 -1.215,0.391 -1.822,0.292c-3.301,-0.535 -1.64,-7.584 1.85,-5.77c2.658,1.382 0.202,5.127 -0.028,5.478Z" style="fill:#fdf0c6;"/><path d="M1028.753,59.796c3.904,8.318 -3.797,5.015 -4.047,2.634c-0.029,-0.279 -0.287,-2.736 1.496,-3.073c0.848,-0.16 1.702,0.599 2.551,0.439Z" style="fill:#fad551;"/><path d="M716.95,113.162c0.258,0.285 3.886,4.305 0.613,5.073c-4.437,1.041 -4.827,-4.263 -2.404,-5.112c0.571,-0.2 1.22,0.239 1.791,0.039Z" style="fill:#fae47b;"/><path d="M671.147,197.792c-0.464,-0.858 -1.753,-0.801 -2.217,-1.66c-1.2,-2.22 0.567,-3.548 0.791,-3.717c2.768,-2.081 5.329,3.268 2.884,4.93c-0.432,0.294 -1.025,0.153 -1.458,0.447Z" style="fill:#f9d954;"/><path d="M166.494,1166.27c-0.057,0.017 -1.319,1.692 -3.554,1.039c-2.874,-0.841 1.286,-7.894 3.51,-4.449c0.462,0.716 0.472,1.514 0.474,1.654c0.012,0.928 -0.443,0.747 -0.43,1.757Z" style="fill:#f8e080;"/><path d="M75.566,1336.204c0.339,-0.586 -0.072,-1.497 0.267,-2.083c0.176,-0.304 1.968,-3.404 3.972,-0.487c1.641,2.389 -1.483,6.636 -3.579,4.129c-0.349,-0.418 -0.311,-1.141 -0.66,-1.559Z" style="fill:#f2cd50;"/><path d="M94.959,1269.706c5.054,-5.947 5.65,2.639 3.112,3.423c-2.551,0.789 -2.308,-0.521 -3.112,-3.423Z" style="fill:#f7e3a7;"/><path d="M731.75,222.264c0.351,0.432 1.015,0.403 1.366,0.836c1.977,2.432 -1.548,5.733 -3.503,4.037c-2.644,-2.294 -0.066,-4.324 0.196,-4.53c0.539,-0.424 1.402,0.082 1.941,-0.342Z" style="fill:#f6d867;"/><path d="M971.774,302.824c-0.595,-0.041 -1.142,0.521 -1.737,0.48c-2.83,-0.194 -2.412,-5.302 -0.14,-5.498c0.33,-0.029 3.202,-0.277 2.857,3.413c-0.061,0.648 -0.92,0.956 -0.98,1.605Z" style="fill:#f5d559;"/><path d="M773.55,200.43c-0.902,-0.575 -1.041,0.201 -1.942,-0.373c-0.087,-0.055 -0.518,-0.33 -0.593,-1.242c-0.555,-6.758 5.658,-3.454 4.461,-0.442c-0.363,0.914 -1.564,1.143 -1.927,2.057Z" style="fill:#fdf6e2;"/><path d="M1024.403,201.861c0.721,1.194 1.355,0.086 2.108,1.334c0.102,0.168 0.506,0.837 0.233,2.543c-0.561,3.512 -6.188,0.673 -4.36,-2.442c0.441,-0.752 1.578,-0.683 2.019,-1.434Z" style="fill:#f3d668;"/><path d="M146.498,1257.623c0.541,0.397 1.38,-0.189 1.922,0.208c0.275,0.202 3.144,2.305 0.263,4.653c-1.78,1.45 -5.272,-1.46 -3.351,-4.021c0.299,-0.398 0.867,-0.441 1.166,-0.84Z" style="fill:#f7dc77;"/><path d="M786.258,250.853c0.522,-1.047 -0.554,-1.15 -0.015,-2.232c0.099,-0.198 0.593,-1.189 1.988,-1.73c2.879,-1.114 2.944,6.862 0.007,5.707c-0.789,-0.31 -1.192,-1.436 -1.98,-1.746Z" style="fill:#fbe480;"/><path d="M817.078,48.035c-0.506,0.231 -0.664,1.074 -1.17,1.305c-4.465,2.04 -3.565,-6.35 -0.668,-5.096c1.253,0.543 1.734,1.534 1.826,1.723c0.478,0.985 -0.464,1.085 0.013,2.068Z" style="fill:#f4d775;"/><path d="M109.31,1291.106c0.255,-0.259 3.597,-3.653 4.236,-0.595c1.028,4.924 -3.497,4.713 -4.214,2.588c-0.209,-0.62 0.187,-1.373 -0.022,-1.993Z" style="fill:#fae594;"/><path d="M827.411,193.825c-0.227,0.59 0.076,1.335 -0.15,1.925c-0.128,0.333 -1.17,3.042 -3.927,0.755c-0.478,-0.396 -1.225,-8.758 4.078,-2.681Z" style="fill:#fbe596;"/><path d="M27.869,1252.958c0.251,-0.267 3.668,-3.905 4.251,-0.656c0.853,4.757 -3.562,4.784 -4.245,2.623c-0.195,-0.617 0.19,-1.35 -0.006,-1.967Z" style="fill:#faeeac;"/><path d="M902.945,308.245c-0.298,0.618 0.123,1.489 -0.175,2.106c-0.974,2.018 -4.83,1.107 -4.295,-2.406c0.294,-1.932 2.29,-1.707 2.522,-1.681c0,-0 1.792,1.822 1.948,1.981Z" style="fill:#f7e087;"/><path d="M675.559,129.36c1.759,-1.854 1.692,-1.974 1.898,-1.999c0.234,-0.028 2.25,-0.273 2.555,1.656c0.559,3.546 -3.325,4.49 -4.272,2.41c-0.28,-0.615 0.099,-1.453 -0.181,-2.067Z" style="fill:#fce78b;"/><path d="M807.724,227.84c0.507,-0.058 0.838,-0.77 1.345,-0.828c0.276,-0.032 2.699,-0.311 2.762,2.403c0.075,3.251 -4.89,3.72 -4.726,0.063c0.027,-0.594 0.592,-1.044 0.619,-1.638Z" style="fill:#fae275;"/><path d="M905.03,248.483c-1.624,1.657 -1.599,2.93 -3.499,1.573c-2.742,-1.959 1.355,-7.309 3.338,-3.691c0.329,0.601 -0.168,1.517 0.161,2.118Z" style="fill:#f8dc72;"/><path d="M829.972,169.871c0.28,0.4 0.842,0.449 1.122,0.849c2.694,3.849 -4.451,5.497 -4.374,1.53c0.025,-1.272 1.124,-2.076 1.279,-2.19c0.908,-0.665 1.074,0.468 1.972,-0.19Z" style="fill:#fae08d;"/><path d="M95.893,1262.293c-0.816,0.404 -0.858,-0.405 -1.677,0.001c-1.741,0.863 -1.159,1.458 -1.305,1.477c-0.759,0.096 -2.504,-4.759 -0.584,-5.675c3.016,-1.438 2.658,0.601 3.566,4.196Z" style="fill:#fdfcf1;"/><path d="M167.565,1195.473c0.322,-0.555 0.034,-1.399 0.356,-1.954c0.16,-0.276 1.57,-2.709 3.608,-0.367c1.689,1.941 -1.167,6.21 -3.313,3.78c-0.339,-0.384 -0.311,-1.075 -0.65,-1.459Z" style="fill:#f7df80;"/><path d="M829.669,71.963c-1.573,1.771 -1.522,3.041 -3.455,1.691c-1.654,-1.156 -0.788,-5.178 1.965,-4.879c0.762,0.083 1.206,1.031 1.267,1.162c0.449,0.961 -0.214,1.09 0.223,2.026Z" style="fill:#fcf0c9;"/><path d="M938.658,241.295c-0.519,-0.392 -1.324,0.047 -1.843,-0.345c-2.653,-2.003 1.363,-6.59 3.245,-3.721c1.379,2.102 0.145,2.144 -1.402,4.067Z" style="fill:#fcf5d5;"/><path d="M0.705,1420.391c0.862,-0.009 0.604,-0.691 1.54,-0.701c0.135,-0.001 0.936,-0.01 1.582,0.669c3.023,3.175 -4.038,6.847 -3.822,1.734c0.027,-0.626 0.673,-1.076 0.7,-1.702Z" style="fill:#feefa3;"/><path d="M888.095,293.765c-0.249,0.282 -3.82,4.329 -4.369,0.417c-0.57,-4.062 2.681,-3.578 3.024,-3.527c0.691,0.103 1.09,1.027 1.144,1.152c0.429,0.992 -0.194,1.047 0.2,1.958Z" style="fill:#fdfbf1;"/><path d="M744.332,296.103c-0.444,-1.461 -1.154,-0.856 -1.585,-2.272c-0.039,-0.127 -0.184,-0.605 0.403,-1.615c1.78,-3.063 6.254,1.65 3.126,3.797c-0.556,0.381 -1.388,-0.291 -1.943,0.09Z" style="fill:#f9efc9;"/><path d="M899.393,3.027c0.736,-0.34 1.041,-1.471 1.777,-1.811c1.485,-0.686 3.26,3.083 2.298,4.29c-2.663,3.341 -3.918,-0.107 -4.043,-0.45c-0.228,-0.625 0.196,-1.405 -0.032,-2.029Z" style="fill:#f8e8a7;"/><path d="M741.3,140.272c-0.463,0.057 -0.767,0.699 -1.23,0.755c-3.284,0.402 -3.208,-5.357 0.121,-4.981c1.852,0.209 1.726,2.473 1.711,2.742c-0.03,0.544 -0.573,0.94 -0.603,1.484Z" style="fill:#fbf4d4;"/><path d="M182.272,1345.771c0.551,-0.795 -0.016,-0.986 0.499,-1.727c0.074,-0.106 0.534,-0.77 1.287,-0.847c4.692,-0.477 1.435,7.776 -1.243,4.213c-0.333,-0.443 -0.21,-1.196 -0.543,-1.639Z" style="fill:#faf3d6;"/><path d="M888.807,48.684c-1.481,4.142 -2.317,3.328 -2.733,3.796c-0.842,0.947 -0.228,1.648 -2.084,2.395c-0.545,0.22 -1.11,0.371 -1.656,0.591c0.367,-0.417 0.15,-1.255 0.518,-1.672c0.4,-0.453 1.155,-0.273 1.575,-0.702c0.365,-0.373 0.248,-1.146 0.606,-1.528c0.41,-0.439 1.124,-0.346 1.545,-0.772c0.579,-0.586 0.052,-0.881 0.637,-1.434c0.677,-0.64 0.865,0.014 1.592,-0.674Z" style="fill:#ebb259;"/><path d="M886.268,81.088c2.029,-4.235 1.812,-4.476 2.171,-4.53c0.237,-0.035 1.798,-0.27 1.864,2.658c0.023,1.023 -1.775,1.306 -1.752,2.329l-2.283,-0.456Z" style="fill:#f48178;"/><path d="M902.287,45.096c-0.64,1.639 -1.28,3.277 -1.919,4.916c0.045,-0.815 -1.498,-0.989 -1.453,-1.805c0.105,-1.913 1.525,-3.223 1.74,-3.422c0.724,-0.668 0.88,1.005 1.632,0.311Z" style="fill:#d5804c;"/><path d="M867.785,74.543l0.193,2.48c-1.026,3.87 -0.943,3.886 -1.109,4.18c-0.187,0.331 -0.682,0.311 -0.869,0.642l0.155,-2.315c0.543,-1.662 1.087,-3.324 1.63,-4.987Z" style="fill:#d8993e;"/><path d="M866.156,79.53l-0.155,2.315c-1.13,3.795 -1.046,3.815 -1.22,4.099c-0.366,0.594 -0.63,0.058 -0.974,0.616c0.783,-2.343 1.566,-4.686 2.349,-7.03Z" style="fill:#db9a3e;"/><path d="M917.723,35.907c0.68,-0.243 1.021,-1.195 4.282,-1.529c2.995,-0.307 2.857,0.523 4.014,0.735c-2.766,0.265 -5.531,0.529 -8.297,0.794Z" style="fill:#e4b25f;"/><path d="M737.571,97.872c0.597,-0.204 0.16,-0.755 0.749,-0.956c0,0 2.972,0.384 3.23,0.417c-1.327,0.18 -2.653,0.359 -3.98,0.539Z" style="fill:#fcf4df;"/><path d="M915.238,272.098c0.662,-0.298 0.206,-0.774 0.829,-1.054c0.225,-0.101 0.221,0.026 3.007,0.348c-1.279,0.235 -2.558,0.471 -3.837,0.706Z" style="fill:#fbf4e2;"/></g></svg>